<svg width="1401" height="273" viewBox="0 0 1401 273" fill="none" xmlns="http://www.w3.org/2000/svg">
<rect width="1200" height="72.0207" transform="translate(100.451 100.508)" fill="#ABD4C1"/>
<rect width="600" height="72.0207" transform="translate(100.451 100.508)" fill="#ABD4C1"/>
<path d="M294.505 129.785H306.474V145.018H304.428V131.57H296.551V145.018H294.505V129.785ZM315.178 145.235C314.438 145.235 313.734 145.119 313.067 144.887C312.4 144.64 311.812 144.278 311.304 143.799C310.797 143.306 310.391 142.689 310.086 141.949C309.781 141.21 309.629 140.346 309.629 139.36V138.925C309.629 137.996 309.781 137.177 310.086 136.466C310.391 135.755 310.797 135.167 311.304 134.703C311.812 134.224 312.4 133.869 313.067 133.637C313.734 133.39 314.438 133.267 315.178 133.267C315.918 133.267 316.621 133.39 317.289 133.637C317.956 133.869 318.543 134.224 319.051 134.703C319.559 135.167 319.965 135.755 320.27 136.466C320.574 137.177 320.727 137.996 320.727 138.925V139.36C320.727 140.346 320.574 141.21 320.27 141.949C319.965 142.689 319.559 143.306 319.051 143.799C318.543 144.278 317.956 144.64 317.289 144.887C316.621 145.119 315.918 145.235 315.178 145.235ZM315.178 143.494C315.613 143.494 316.048 143.422 316.483 143.277C316.919 143.117 317.303 142.878 317.637 142.559C317.97 142.225 318.239 141.797 318.442 141.275C318.659 140.753 318.768 140.114 318.768 139.36V138.925C318.768 138.228 318.659 137.634 318.442 137.14C318.239 136.647 317.97 136.241 317.637 135.922C317.303 135.603 316.919 135.37 316.483 135.225C316.048 135.08 315.613 135.008 315.178 135.008C314.743 135.008 314.307 135.08 313.872 135.225C313.437 135.37 313.053 135.603 312.719 135.922C312.385 136.241 312.11 136.647 311.892 137.14C311.689 137.634 311.587 138.228 311.587 138.925V139.36C311.587 140.114 311.689 140.753 311.892 141.275C312.11 141.797 312.385 142.225 312.719 142.559C313.053 142.878 313.437 143.117 313.872 143.277C314.307 143.422 314.743 143.494 315.178 143.494ZM323.438 133.485H325.223V135.661C325.614 134.892 326.158 134.304 326.855 133.898C327.565 133.477 328.385 133.267 329.314 133.267C330.764 133.267 331.925 133.746 332.795 134.703C333.666 135.646 334.101 137.053 334.101 138.925V139.36C334.101 140.346 333.985 141.21 333.753 141.949C333.521 142.675 333.194 143.284 332.773 143.777C332.353 144.256 331.845 144.619 331.25 144.865C330.67 145.112 330.024 145.235 329.314 145.235C328.327 145.235 327.5 145.018 326.833 144.582C326.18 144.147 325.687 143.603 325.353 142.95V149.37H323.438V133.485ZM328.878 143.538C329.343 143.538 329.778 143.451 330.184 143.277C330.59 143.088 330.938 142.82 331.228 142.472C331.533 142.123 331.765 141.688 331.925 141.166C332.099 140.644 332.186 140.042 332.186 139.36V138.925C332.186 138.301 332.099 137.742 331.925 137.249C331.765 136.756 331.533 136.342 331.228 136.009C330.938 135.661 330.59 135.4 330.184 135.225C329.778 135.051 329.343 134.964 328.878 134.964C328.356 134.964 327.877 135.051 327.442 135.225C327.007 135.385 326.637 135.617 326.332 135.922C326.028 136.212 325.788 136.56 325.614 136.966C325.44 137.372 325.353 137.808 325.353 138.272V140.013C325.353 140.535 325.44 141.014 325.614 141.449C325.788 141.884 326.028 142.254 326.332 142.559C326.637 142.863 327.007 143.103 327.442 143.277C327.877 143.451 328.356 143.538 328.878 143.538ZM339.246 135.182H335.308V133.485H345.1V135.182H341.161V145.018H339.246V135.182ZM352.721 133.485H354.636V142.189L360.598 133.485H362.513V145.018H360.598V136.313L354.636 145.018H352.721V133.485ZM370.464 145.235C369.724 145.235 369.035 145.119 368.396 144.887C367.758 144.64 367.207 144.278 366.743 143.799C366.278 143.306 365.908 142.689 365.633 141.949C365.372 141.21 365.241 140.346 365.241 139.36V138.925C365.241 137.996 365.386 137.177 365.676 136.466C365.966 135.755 366.351 135.167 366.83 134.703C367.308 134.224 367.86 133.869 368.483 133.637C369.122 133.39 369.782 133.267 370.464 133.267C371.145 133.267 371.755 133.361 372.291 133.55C372.843 133.738 373.314 134 373.706 134.333C374.112 134.667 374.438 135.059 374.685 135.508C374.946 135.958 375.135 136.444 375.251 136.966H373.292C373.176 136.691 373.039 136.437 372.879 136.205C372.734 135.958 372.545 135.748 372.313 135.574C372.096 135.4 371.834 135.262 371.53 135.16C371.225 135.059 370.87 135.008 370.464 135.008C370.043 135.008 369.637 135.088 369.245 135.247C368.853 135.392 368.505 135.624 368.2 135.944C367.896 136.248 367.649 136.647 367.461 137.14C367.287 137.634 367.199 138.228 367.199 138.925V139.36C367.199 140.1 367.287 140.738 367.461 141.275C367.649 141.797 367.896 142.225 368.2 142.559C368.505 142.878 368.853 143.117 369.245 143.277C369.637 143.422 370.043 143.494 370.464 143.494C371.174 143.494 371.769 143.32 372.248 142.972C372.741 142.624 373.089 142.145 373.292 141.536H375.251C374.975 142.682 374.409 143.589 373.554 144.256C372.698 144.909 371.668 145.235 370.464 145.235ZM380.493 135.182H376.555V133.485H386.347V135.182H382.408V145.018H380.493V135.182ZM393.103 145.235C392.363 145.235 391.659 145.119 390.992 144.887C390.325 144.64 389.737 144.278 389.229 143.799C388.722 143.306 388.316 142.689 388.011 141.949C387.706 141.21 387.554 140.346 387.554 139.36V138.925C387.554 137.996 387.706 137.177 388.011 136.466C388.316 135.755 388.722 135.167 389.229 134.703C389.737 134.224 390.325 133.869 390.992 133.637C391.659 133.39 392.363 133.267 393.103 133.267C393.843 133.267 394.546 133.39 395.214 133.637C395.881 133.869 396.468 134.224 396.976 134.703C397.484 135.167 397.89 135.755 398.195 136.466C398.499 137.177 398.652 137.996 398.652 138.925V139.36C398.652 140.346 398.499 141.21 398.195 141.949C397.89 142.689 397.484 143.306 396.976 143.799C396.468 144.278 395.881 144.64 395.214 144.887C394.546 145.119 393.843 145.235 393.103 145.235ZM393.103 143.494C393.538 143.494 393.973 143.422 394.408 143.277C394.844 143.117 395.228 142.878 395.562 142.559C395.895 142.225 396.164 141.797 396.367 141.275C396.584 140.753 396.693 140.114 396.693 139.36V138.925C396.693 138.228 396.584 137.634 396.367 137.14C396.164 136.647 395.895 136.241 395.562 135.922C395.228 135.603 394.844 135.37 394.408 135.225C393.973 135.08 393.538 135.008 393.103 135.008C392.668 135.008 392.232 135.08 391.797 135.225C391.362 135.37 390.978 135.603 390.644 135.922C390.31 136.241 390.035 136.647 389.817 137.14C389.614 137.634 389.512 138.228 389.512 138.925V139.36C389.512 140.114 389.614 140.753 389.817 141.275C390.035 141.797 390.31 142.225 390.644 142.559C390.978 142.878 391.362 143.117 391.797 143.277C392.232 143.422 392.668 143.494 393.103 143.494ZM408.044 140.426C407.71 140.629 407.304 140.811 406.825 140.97C406.361 141.13 405.773 141.21 405.063 141.21C404.395 141.21 403.793 141.137 403.256 140.992C402.734 140.847 402.292 140.615 401.929 140.296C401.566 139.976 401.291 139.563 401.102 139.055C400.914 138.548 400.819 137.924 400.819 137.184V133.485H402.734V136.857C402.734 137.351 402.778 137.764 402.865 138.098C402.966 138.431 403.126 138.7 403.343 138.903C403.561 139.106 403.837 139.251 404.17 139.338C404.504 139.425 404.91 139.469 405.389 139.469C406.042 139.469 406.6 139.403 407.064 139.273C407.529 139.142 407.855 139.004 408.044 138.859V133.485H409.959V145.018H408.044V140.426ZM413.433 133.485H415.348V138.294H421.311V133.485H423.226V145.018H421.311V139.991H415.348V145.018H413.433V133.485ZM426.715 133.485H428.63V142.189L434.592 133.485H436.507V145.018H434.592V136.313L428.63 145.018H426.715V133.485ZM439.996 133.485H441.911V138.315H443.434L447.743 133.485H450.006L445.001 139.012L450.224 145.018H447.787L443.434 139.969H441.911V145.018H439.996V133.485ZM455.586 145.235C454.948 145.235 454.382 145.148 453.889 144.974C453.41 144.785 453.004 144.532 452.67 144.212C452.337 143.893 452.083 143.516 451.909 143.081C451.735 142.646 451.647 142.167 451.647 141.645C451.647 140.499 451.981 139.672 452.648 139.164C453.33 138.656 454.302 138.402 455.564 138.402H459.307V137.619C459.307 136.633 459.082 135.951 458.633 135.574C458.197 135.196 457.537 135.008 456.652 135.008C455.825 135.008 455.223 135.167 454.846 135.487C454.469 135.791 454.259 136.139 454.215 136.531H452.3C452.329 136.067 452.453 135.639 452.67 135.247C452.902 134.841 453.207 134.493 453.584 134.203C453.976 133.913 454.44 133.688 454.977 133.528C455.514 133.354 456.108 133.267 456.761 133.267C458.125 133.267 459.206 133.593 460.003 134.246C460.816 134.885 461.222 135.936 461.222 137.401V142.08C461.222 142.689 461.222 143.226 461.222 143.69C461.237 144.14 461.273 144.582 461.331 145.018H459.655C459.612 144.684 459.583 144.372 459.568 144.082C459.554 143.777 459.547 143.436 459.547 143.059C459.242 143.668 458.749 144.183 458.067 144.604C457.385 145.025 456.558 145.235 455.586 145.235ZM456 143.494C456.449 143.494 456.87 143.436 457.262 143.32C457.668 143.19 458.023 143.008 458.328 142.776C458.633 142.53 458.872 142.232 459.046 141.884C459.22 141.536 459.307 141.13 459.307 140.666V139.882H455.891C455.18 139.882 454.621 140.027 454.215 140.317C453.809 140.593 453.606 141.035 453.606 141.645C453.606 142.181 453.795 142.624 454.172 142.972C454.563 143.32 455.173 143.494 456 143.494ZM470.262 139.36C470.262 137.938 470.458 136.647 470.849 135.487C471.256 134.326 471.705 133.318 472.199 132.462C472.764 131.475 473.41 130.583 474.135 129.785H476.355C475.571 130.583 474.882 131.475 474.288 132.462C474.026 132.883 473.773 133.347 473.526 133.855C473.279 134.362 473.055 134.906 472.851 135.487C472.663 136.067 472.511 136.683 472.394 137.336C472.278 137.974 472.22 138.649 472.22 139.36V139.795C472.22 140.506 472.278 141.188 472.394 141.841C472.511 142.493 472.663 143.11 472.851 143.69C473.055 144.27 473.279 144.814 473.526 145.322C473.773 145.83 474.026 146.294 474.288 146.715C474.882 147.716 475.571 148.601 476.355 149.37H474.048C473.337 148.601 472.706 147.716 472.155 146.715C471.676 145.873 471.241 144.865 470.849 143.69C470.458 142.515 470.262 141.217 470.262 139.795V139.36ZM477.767 143.233H481.401V132.027L477.767 134.616V132.397L481.444 129.785H483.49V143.233H486.471V145.018H477.767V143.233ZM493.986 145.235C493.144 145.235 492.383 145.097 491.701 144.822C491.019 144.546 490.432 144.125 489.938 143.56C489.46 142.979 489.09 142.254 488.829 141.384C488.568 140.513 488.437 139.476 488.437 138.272V137.837C488.437 136.342 488.589 135.073 488.894 134.029C489.199 132.97 489.612 132.114 490.134 131.461C490.656 130.794 491.266 130.315 491.962 130.025C492.658 129.72 493.406 129.568 494.203 129.568C495.378 129.568 496.365 129.851 497.163 130.416C497.975 130.968 498.512 131.809 498.773 132.941H496.728C496.321 131.911 495.48 131.396 494.203 131.396C493.652 131.396 493.144 131.49 492.68 131.678C492.216 131.867 491.81 132.179 491.462 132.614C491.128 133.049 490.86 133.63 490.656 134.355C490.453 135.08 490.337 135.987 490.308 137.075C490.511 136.727 490.758 136.429 491.048 136.183C491.338 135.922 491.65 135.719 491.984 135.574C492.332 135.414 492.687 135.298 493.05 135.225C493.413 135.153 493.761 135.117 494.095 135.117C495.618 135.117 496.829 135.545 497.729 136.4C498.643 137.242 499.1 138.453 499.1 140.034V140.252C499.1 140.977 498.962 141.645 498.686 142.254C498.425 142.863 498.062 143.393 497.598 143.843C497.134 144.278 496.59 144.619 495.966 144.865C495.342 145.112 494.682 145.235 493.986 145.235ZM493.812 143.407C494.871 143.407 495.676 143.139 496.227 142.602C496.778 142.065 497.054 141.289 497.054 140.274V140.056C497.054 139.055 496.778 138.286 496.227 137.75C495.676 137.213 494.871 136.944 493.812 136.944C492.753 136.944 491.948 137.213 491.396 137.75C490.845 138.286 490.569 139.055 490.569 140.056V140.274C490.569 141.275 490.845 142.051 491.396 142.602C491.948 143.139 492.753 143.407 493.812 143.407ZM506.595 139.795C506.595 141.217 506.392 142.508 505.986 143.668C505.594 144.829 505.152 145.837 504.659 146.693C504.093 147.68 503.447 148.572 502.722 149.37H500.502C501.286 148.572 501.975 147.68 502.57 146.693C502.831 146.272 503.085 145.808 503.331 145.3C503.578 144.793 503.795 144.249 503.984 143.668C504.187 143.088 504.347 142.479 504.463 141.841C504.579 141.188 504.637 140.506 504.637 139.795V139.36C504.637 138.649 504.579 137.967 504.463 137.314C504.347 136.662 504.187 136.045 503.984 135.465C503.795 134.885 503.578 134.34 503.331 133.833C503.085 133.325 502.831 132.861 502.57 132.44C501.975 131.439 501.286 130.554 500.502 129.785H502.809C503.52 130.554 504.151 131.439 504.702 132.44C505.181 133.281 505.616 134.29 506.008 135.465C506.399 136.64 506.595 137.938 506.595 139.36V139.795Z" fill="black"/>
<rect x="100.451" y="100.508" width="600" height="72.0207" stroke="black"/>
<rect width="600" height="72.0207" transform="translate(700.451 100.508)" fill="#ABD4C1"/>
<path d="M887.312 129.785H899.28V145.018H897.235V131.57H889.358V145.018H887.312V129.785ZM907.985 145.235C907.245 145.235 906.541 145.119 905.874 144.887C905.206 144.64 904.619 144.278 904.111 143.799C903.603 143.306 903.197 142.689 902.893 141.949C902.588 141.21 902.436 140.346 902.436 139.36V138.925C902.436 137.996 902.588 137.177 902.893 136.466C903.197 135.755 903.603 135.167 904.111 134.703C904.619 134.224 905.206 133.869 905.874 133.637C906.541 133.39 907.245 133.267 907.985 133.267C908.724 133.267 909.428 133.39 910.095 133.637C910.763 133.869 911.35 134.224 911.858 134.703C912.366 135.167 912.772 135.755 913.076 136.466C913.381 137.177 913.533 137.996 913.533 138.925V139.36C913.533 140.346 913.381 141.21 913.076 141.949C912.772 142.689 912.366 143.306 911.858 143.799C911.35 144.278 910.763 144.64 910.095 144.887C909.428 145.119 908.724 145.235 907.985 145.235ZM907.985 143.494C908.42 143.494 908.855 143.422 909.29 143.277C909.725 143.117 910.11 142.878 910.443 142.559C910.777 142.225 911.046 141.797 911.249 141.275C911.466 140.753 911.575 140.114 911.575 139.36V138.925C911.575 138.228 911.466 137.634 911.249 137.14C911.046 136.647 910.777 136.241 910.443 135.922C910.11 135.603 909.725 135.37 909.29 135.225C908.855 135.08 908.42 135.008 907.985 135.008C907.549 135.008 907.114 135.08 906.679 135.225C906.244 135.37 905.859 135.603 905.526 135.922C905.192 136.241 904.916 136.647 904.699 137.14C904.496 137.634 904.394 138.228 904.394 138.925V139.36C904.394 140.114 904.496 140.753 904.699 141.275C904.916 141.797 905.192 142.225 905.526 142.559C905.859 142.878 906.244 143.117 906.679 143.277C907.114 143.422 907.549 143.494 907.985 143.494ZM916.245 133.485H918.029V135.661C918.421 134.892 918.965 134.304 919.661 133.898C920.372 133.477 921.192 133.267 922.12 133.267C923.571 133.267 924.732 133.746 925.602 134.703C926.472 135.646 926.908 137.053 926.908 138.925V139.36C926.908 140.346 926.792 141.21 926.559 141.949C926.327 142.675 926.001 143.284 925.58 143.777C925.159 144.256 924.652 144.619 924.057 144.865C923.477 145.112 922.831 145.235 922.12 145.235C921.134 145.235 920.307 145.018 919.64 144.582C918.987 144.147 918.494 143.603 918.16 142.95V149.37H916.245V133.485ZM921.685 143.538C922.149 143.538 922.585 143.451 922.991 143.277C923.397 143.088 923.745 142.82 924.035 142.472C924.34 142.123 924.572 141.688 924.732 141.166C924.906 140.644 924.993 140.042 924.993 139.36V138.925C924.993 138.301 924.906 137.742 924.732 137.249C924.572 136.756 924.34 136.342 924.035 136.009C923.745 135.661 923.397 135.4 922.991 135.225C922.585 135.051 922.149 134.964 921.685 134.964C921.163 134.964 920.684 135.051 920.249 135.225C919.814 135.385 919.444 135.617 919.139 135.922C918.834 136.212 918.595 136.56 918.421 136.966C918.247 137.372 918.16 137.808 918.16 138.272V140.013C918.16 140.535 918.247 141.014 918.421 141.449C918.595 141.884 918.834 142.254 919.139 142.559C919.444 142.863 919.814 143.103 920.249 143.277C920.684 143.451 921.163 143.538 921.685 143.538ZM932.053 135.182H928.115V133.485H937.907V135.182H933.968V145.018H932.053V135.182ZM945.528 133.485H947.443V138.294H953.405V133.485H955.32V145.018H953.405V139.991H947.443V145.018H945.528V133.485ZM962.095 145.235C961.457 145.235 960.891 145.148 960.398 144.974C959.919 144.785 959.513 144.532 959.179 144.212C958.846 143.893 958.592 143.516 958.418 143.081C958.244 142.646 958.157 142.167 958.157 141.645C958.157 140.499 958.49 139.672 959.158 139.164C959.839 138.656 960.811 138.402 962.073 138.402H965.816V137.619C965.816 136.633 965.591 135.951 965.142 135.574C964.706 135.196 964.046 135.008 963.161 135.008C962.335 135.008 961.733 135.167 961.355 135.487C960.978 135.791 960.768 136.139 960.724 136.531H958.809C958.838 136.067 958.962 135.639 959.179 135.247C959.411 134.841 959.716 134.493 960.093 134.203C960.485 133.913 960.949 133.688 961.486 133.528C962.023 133.354 962.617 133.267 963.27 133.267C964.634 133.267 965.715 133.593 966.513 134.246C967.325 134.885 967.731 135.936 967.731 137.401V142.08C967.731 142.689 967.731 143.226 967.731 143.69C967.746 144.14 967.782 144.582 967.84 145.018H966.164C966.121 144.684 966.092 144.372 966.077 144.082C966.063 143.777 966.056 143.436 966.056 143.059C965.751 143.668 965.258 144.183 964.576 144.604C963.894 145.025 963.067 145.235 962.095 145.235ZM962.509 143.494C962.958 143.494 963.379 143.436 963.771 143.32C964.177 143.19 964.532 143.008 964.837 142.776C965.142 142.53 965.381 142.232 965.555 141.884C965.729 141.536 965.816 141.13 965.816 140.666V139.882H962.4C961.689 139.882 961.131 140.027 960.724 140.317C960.318 140.593 960.115 141.035 960.115 141.645C960.115 142.181 960.304 142.624 960.681 142.972C961.073 143.32 961.682 143.494 962.509 143.494ZM975.03 145.235C973.58 145.235 972.441 144.931 971.614 144.321C970.787 143.712 970.33 142.856 970.243 141.754H972.158C972.259 142.319 972.557 142.755 973.05 143.059C973.558 143.349 974.218 143.494 975.03 143.494C976.031 143.494 976.757 143.328 977.206 142.994C977.67 142.646 977.903 142.232 977.903 141.754C977.903 141.188 977.714 140.745 977.337 140.426C976.96 140.092 976.307 139.926 975.378 139.926H973.398V138.359H975.248C976.046 138.359 976.611 138.207 976.945 137.902C977.293 137.597 977.467 137.169 977.467 136.618C977.467 136.183 977.264 135.806 976.858 135.487C976.452 135.167 975.843 135.008 975.03 135.008C974.145 135.008 973.5 135.153 973.094 135.443C972.702 135.719 972.463 136.118 972.375 136.64H970.461C970.504 136.161 970.635 135.719 970.852 135.312C971.084 134.892 971.396 134.529 971.788 134.224C972.18 133.92 972.644 133.688 973.181 133.528C973.732 133.354 974.348 133.267 975.03 133.267C975.77 133.267 976.408 133.354 976.945 133.528C977.496 133.688 977.953 133.92 978.316 134.224C978.679 134.515 978.947 134.863 979.121 135.269C979.295 135.675 979.382 136.125 979.382 136.618C979.382 137.169 979.244 137.655 978.969 138.076C978.693 138.482 978.251 138.801 977.641 139.033C978.454 139.251 979.02 139.599 979.339 140.078C979.658 140.557 979.818 141.115 979.818 141.754C979.818 142.232 979.716 142.682 979.513 143.103C979.31 143.523 979.005 143.893 978.599 144.212C978.207 144.517 977.707 144.764 977.097 144.952C976.503 145.141 975.814 145.235 975.03 145.235ZM982.546 133.485H984.461V138.294H990.423V133.485H992.338V145.018H990.423V139.991H984.461V145.018H982.546V133.485ZM999.113 145.235C998.475 145.235 997.909 145.148 997.416 144.974C996.937 144.785 996.531 144.532 996.197 144.212C995.864 143.893 995.61 143.516 995.436 143.081C995.262 142.646 995.175 142.167 995.175 141.645C995.175 140.499 995.508 139.672 996.176 139.164C996.858 138.656 997.829 138.402 999.092 138.402H1002.83V137.619C1002.83 136.633 1002.61 135.951 1002.16 135.574C1001.72 135.196 1001.06 135.008 1000.18 135.008C999.353 135.008 998.751 135.167 998.373 135.487C997.996 135.791 997.786 136.139 997.742 136.531H995.828C995.857 136.067 995.98 135.639 996.197 135.247C996.43 134.841 996.734 134.493 997.111 134.203C997.503 133.913 997.967 133.688 998.504 133.528C999.041 133.354 999.636 133.267 1000.29 133.267C1001.65 133.267 1002.73 133.593 1003.53 134.246C1004.34 134.885 1004.75 135.936 1004.75 137.401V142.08C1004.75 142.689 1004.75 143.226 1004.75 143.69C1004.76 144.14 1004.8 144.582 1004.86 145.018H1003.18C1003.14 144.684 1003.11 144.372 1003.1 144.082C1003.08 143.777 1003.07 143.436 1003.07 143.059C1002.77 143.668 1002.28 144.183 1001.59 144.604C1000.91 145.025 1000.09 145.235 999.113 145.235ZM999.527 143.494C999.976 143.494 1000.4 143.436 1000.79 143.32C1001.2 143.19 1001.55 143.008 1001.86 142.776C1002.16 142.53 1002.4 142.232 1002.57 141.884C1002.75 141.536 1002.83 141.13 1002.83 140.666V139.882H999.418C998.707 139.882 998.149 140.027 997.742 140.317C997.336 140.593 997.133 141.035 997.133 141.645C997.133 142.181 997.322 142.624 997.699 142.972C998.091 143.32 998.7 143.494 999.527 143.494ZM1014.81 140.426C1014.48 140.629 1014.07 140.811 1013.59 140.97C1013.13 141.13 1012.54 141.21 1011.83 141.21C1011.16 141.21 1010.56 141.137 1010.02 140.992C1009.5 140.847 1009.06 140.615 1008.7 140.296C1008.33 139.976 1008.06 139.563 1007.87 139.055C1007.68 138.548 1007.59 137.924 1007.59 137.184V133.485H1009.5V136.857C1009.5 137.351 1009.55 137.764 1009.63 138.098C1009.73 138.431 1009.89 138.7 1010.11 138.903C1010.33 139.106 1010.6 139.251 1010.94 139.338C1011.27 139.425 1011.68 139.469 1012.16 139.469C1012.81 139.469 1013.37 139.403 1013.83 139.273C1014.3 139.142 1014.62 139.004 1014.81 138.859V133.485H1016.73V145.018H1014.81V140.426ZM1024.99 145.235C1024.25 145.235 1023.55 145.119 1022.88 144.887C1022.21 144.655 1021.62 144.299 1021.12 143.821C1020.61 143.328 1020.2 142.711 1019.9 141.971C1019.59 141.231 1019.44 140.361 1019.44 139.36V138.925C1019.44 137.967 1019.59 137.14 1019.88 136.444C1020.17 135.733 1020.55 135.146 1021.03 134.681C1021.52 134.203 1022.09 133.847 1022.73 133.615C1023.38 133.383 1024.06 133.267 1024.77 133.267C1026.47 133.267 1027.78 133.731 1028.71 134.66C1029.64 135.588 1030.1 136.901 1030.1 138.598V139.817H1021.35C1021.35 140.499 1021.46 141.072 1021.68 141.536C1021.9 142 1022.18 142.377 1022.53 142.667C1022.88 142.958 1023.26 143.168 1023.68 143.299C1024.12 143.429 1024.55 143.494 1024.99 143.494C1025.86 143.494 1026.53 143.349 1026.99 143.059C1027.47 142.769 1027.81 142.37 1028.01 141.862H1029.89C1029.77 142.414 1029.56 142.9 1029.25 143.32C1028.96 143.741 1028.6 144.096 1028.17 144.387C1027.75 144.662 1027.26 144.873 1026.71 145.018C1026.17 145.163 1025.6 145.235 1024.99 145.235ZM1024.88 135.008C1024.43 135.008 1024 135.073 1023.57 135.204C1023.15 135.32 1022.78 135.516 1022.44 135.791C1022.12 136.052 1021.86 136.386 1021.66 136.792C1021.46 137.198 1021.35 137.684 1021.35 138.25H1028.3C1028.28 137.655 1028.18 137.155 1027.99 136.749C1027.82 136.328 1027.58 135.994 1027.27 135.748C1026.97 135.487 1026.61 135.298 1026.19 135.182C1025.78 135.066 1025.34 135.008 1024.88 135.008ZM1032.82 133.485H1034.74V138.294H1040.7V133.485H1042.62V145.018H1040.7V139.991H1034.74V145.018H1032.82V133.485ZM1046.11 133.485H1048.02V142.189L1053.98 133.485H1055.9V145.018H1053.98V136.313L1048.02 145.018H1046.11V133.485ZM1061.65 140.448C1060.69 140.23 1060 139.839 1059.58 139.273C1059.16 138.693 1058.95 137.953 1058.95 137.053C1058.95 135.922 1059.29 135.044 1059.97 134.42C1060.67 133.796 1061.78 133.485 1063.3 133.485H1068.31V145.018H1066.39V140.622H1063.46L1060.65 145.018H1058.52L1061.65 140.448ZM1060.87 137.053C1060.87 137.663 1061.04 138.127 1061.39 138.446C1061.75 138.765 1062.35 138.925 1063.2 138.925H1066.39V135.182H1063.2C1062.35 135.182 1061.75 135.341 1061.39 135.661C1061.04 135.98 1060.87 136.444 1060.87 137.053ZM1077.46 139.36C1077.46 137.938 1077.65 136.647 1078.04 135.487C1078.45 134.326 1078.9 133.318 1079.39 132.462C1079.96 131.475 1080.6 130.583 1081.33 129.785H1083.55C1082.76 130.583 1082.08 131.475 1081.48 132.462C1081.22 132.883 1080.97 133.347 1080.72 133.855C1080.47 134.362 1080.25 134.906 1080.04 135.487C1079.86 136.067 1079.7 136.683 1079.59 137.336C1079.47 137.974 1079.41 138.649 1079.41 139.36V139.795C1079.41 140.506 1079.47 141.188 1079.59 141.841C1079.7 142.493 1079.86 143.11 1080.04 143.69C1080.25 144.27 1080.47 144.814 1080.72 145.322C1080.97 145.83 1081.22 146.294 1081.48 146.715C1082.08 147.716 1082.76 148.601 1083.55 149.37H1081.24C1080.53 148.601 1079.9 147.716 1079.35 146.715C1078.87 145.873 1078.43 144.865 1078.04 143.69C1077.65 142.515 1077.46 141.217 1077.46 139.795V139.36ZM1084.96 143.233H1088.59V132.027L1084.96 134.616V132.397L1088.64 129.785H1090.68V143.233H1093.66V145.018H1084.96V143.233ZM1101.18 145.235C1100.34 145.235 1099.58 145.097 1098.89 144.822C1098.21 144.546 1097.62 144.125 1097.13 143.56C1096.65 142.979 1096.28 142.254 1096.02 141.384C1095.76 140.513 1095.63 139.476 1095.63 138.272V137.837C1095.63 136.342 1095.78 135.073 1096.09 134.029C1096.39 132.97 1096.81 132.114 1097.33 131.461C1097.85 130.794 1098.46 130.315 1099.16 130.025C1099.85 129.72 1100.6 129.568 1101.4 129.568C1102.57 129.568 1103.56 129.851 1104.36 130.416C1105.17 130.968 1105.71 131.809 1105.97 132.941H1103.92C1103.51 131.911 1102.67 131.396 1101.4 131.396C1100.85 131.396 1100.34 131.49 1099.87 131.678C1099.41 131.867 1099 132.179 1098.65 132.614C1098.32 133.049 1098.05 133.63 1097.85 134.355C1097.65 135.08 1097.53 135.987 1097.5 137.075C1097.7 136.727 1097.95 136.429 1098.24 136.183C1098.53 135.922 1098.84 135.719 1099.18 135.574C1099.53 135.414 1099.88 135.298 1100.24 135.225C1100.61 135.153 1100.95 135.117 1101.29 135.117C1102.81 135.117 1104.02 135.545 1104.92 136.4C1105.84 137.242 1106.29 138.453 1106.29 140.034V140.252C1106.29 140.977 1106.15 141.645 1105.88 142.254C1105.62 142.863 1105.26 143.393 1104.79 143.843C1104.33 144.278 1103.78 144.619 1103.16 144.865C1102.54 145.112 1101.88 145.235 1101.18 145.235ZM1101 143.407C1102.06 143.407 1102.87 143.139 1103.42 142.602C1103.97 142.065 1104.25 141.289 1104.25 140.274V140.056C1104.25 139.055 1103.97 138.286 1103.42 137.75C1102.87 137.213 1102.06 136.944 1101 136.944C1099.95 136.944 1099.14 137.213 1098.59 137.75C1098.04 138.286 1097.76 139.055 1097.76 140.056V140.274C1097.76 141.275 1098.04 142.051 1098.59 142.602C1099.14 143.139 1099.95 143.407 1101 143.407ZM1113.79 139.795C1113.79 141.217 1113.59 142.508 1113.18 143.668C1112.79 144.829 1112.35 145.837 1111.85 146.693C1111.29 147.68 1110.64 148.572 1109.92 149.37H1107.7C1108.48 148.572 1109.17 147.68 1109.76 146.693C1110.02 146.272 1110.28 145.808 1110.52 145.3C1110.77 144.793 1110.99 144.249 1111.18 143.668C1111.38 143.088 1111.54 142.479 1111.66 141.841C1111.77 141.188 1111.83 140.506 1111.83 139.795V139.36C1111.83 138.649 1111.77 137.967 1111.66 137.314C1111.54 136.662 1111.38 136.045 1111.18 135.465C1110.99 134.885 1110.77 134.34 1110.52 133.833C1110.28 133.325 1110.02 132.861 1109.76 132.44C1109.17 131.439 1108.48 130.554 1107.7 129.785H1110C1110.71 130.554 1111.34 131.439 1111.9 132.44C1112.37 133.281 1112.81 134.29 1113.2 135.465C1113.59 136.64 1113.79 137.938 1113.79 139.36V139.795Z" fill="black"/>
<rect x="700.451" y="100.508" width="600" height="72.0207" stroke="black"/>
</svg>
