<svg width="1551" height="974" viewBox="0 0 1551 974" fill="none" xmlns="http://www.w3.org/2000/svg">
<rect x="399.191" y="442.748" width="104.135" height="109.408" fill="#D0643B"/>
<path d="M445.31 504.395H449.899V492.233L445.31 495.503V491.316L450.157 487.874H454.202V504.395H457.93V507.952H445.31V504.395Z" fill="white"/>
<rect x="399.191" y="442.748" width="104.135" height="109.408" stroke="#D0643B" stroke-width="1.31816"/>
<rect x="503.326" y="442.748" width="104.135" height="109.408" fill="#F7F7F7"/>
<rect x="503.326" y="442.748" width="104.135" height="109.408" stroke="#DADADA" stroke-width="2"/>
<rect x="607.461" y="442.748" width="104.135" height="109.408" fill="#F7F7F7"/>
<rect x="607.461" y="442.748" width="104.135" height="109.408" stroke="#DADADA" stroke-width="2"/>
<rect x="711.596" y="442.748" width="104.135" height="109.408" fill="#F7F7F7"/>
<rect x="711.596" y="442.748" width="104.135" height="109.408" stroke="#DADADA" stroke-width="2"/>
<rect x="815.73" y="442.748" width="104.135" height="109.408" fill="#F7F7F7"/>
<rect x="815.73" y="442.748" width="104.135" height="109.408" stroke="#DADADA" stroke-width="2"/>
<rect x="919.865" y="442.748" width="104.135" height="109.408" fill="#F7F7F7"/>
<rect x="919.865" y="442.748" width="104.135" height="109.408" stroke="#DADADA" stroke-width="2"/>
<rect x="1024" y="442.748" width="104.135" height="109.408" fill="#F7F7F7"/>
<rect x="1024" y="442.748" width="104.135" height="109.408" stroke="#DADADA" stroke-width="2"/>
<rect x="1128.13" y="442.748" width="104.135" height="109.408" fill="#F7F7F7"/>
<rect x="1128.13" y="442.748" width="104.135" height="109.408" stroke="#DADADA" stroke-width="2"/>
<rect x="399.047" y="333.341" width="104.135" height="109.408" fill="#F7F7F7"/>
<path d="M427.406 394.988H431.995V382.826L427.406 386.096V381.908L432.254 378.466H436.298V394.988H440.027V398.545H427.406V394.988ZM441.458 395.418L448.485 389.366C449.135 388.792 449.69 388.295 450.149 387.875C450.608 387.435 450.981 387.033 451.267 386.67C451.554 386.307 451.755 385.953 451.87 385.609C452.004 385.264 452.071 384.891 452.071 384.49C452.071 383.668 451.841 383.008 451.382 382.511C450.923 381.994 450.244 381.736 449.346 381.736C448.313 381.736 447.5 382.023 446.908 382.597C446.334 383.151 446.047 384.117 446.047 385.494H441.744C441.744 383.218 442.385 381.421 443.666 380.101C444.967 378.782 446.86 378.122 449.346 378.122C450.512 378.122 451.526 378.285 452.386 378.61C453.266 378.916 454.002 379.356 454.595 379.929C455.188 380.484 455.627 381.153 455.914 381.937C456.22 382.721 456.373 383.572 456.373 384.49C456.373 385.178 456.249 385.838 456 386.469C455.752 387.081 455.407 387.674 454.968 388.247C454.547 388.821 454.05 389.385 453.476 389.94C452.902 390.475 452.291 391.011 451.64 391.546L447.51 394.988H456.66V398.545H441.458V395.418ZM466.832 398.889C465.627 398.889 464.537 398.755 463.562 398.488C462.605 398.201 461.793 397.809 461.123 397.312C460.473 396.795 459.967 396.183 459.603 395.476C459.259 394.749 459.087 393.946 459.087 393.066C459.087 391.938 459.431 390.934 460.12 390.055C460.808 389.156 461.831 388.525 463.189 388.161C462.175 387.836 461.334 387.272 460.665 386.469C459.995 385.666 459.661 384.71 459.661 383.601C459.661 382.798 459.814 382.061 460.12 381.392C460.445 380.723 460.913 380.149 461.525 379.671C462.137 379.174 462.883 378.791 463.762 378.524C464.661 378.256 465.684 378.122 466.832 378.122C467.979 378.122 468.992 378.256 469.872 378.524C470.771 378.791 471.526 379.174 472.138 379.671C472.769 380.149 473.238 380.723 473.543 381.392C473.869 382.061 474.031 382.798 474.031 383.601C474.031 384.71 473.696 385.656 473.027 386.44C472.358 387.205 471.507 387.779 470.474 388.161C473.209 389.003 474.576 390.638 474.576 393.066C474.576 393.946 474.394 394.749 474.031 395.476C473.687 396.183 473.18 396.795 472.511 397.312C471.861 397.809 471.058 398.201 470.101 398.488C469.145 398.755 468.055 398.889 466.832 398.889ZM466.832 395.275C468.017 395.275 468.887 395.046 469.442 394.587C469.996 394.128 470.274 393.506 470.274 392.722C470.274 391.862 469.948 391.183 469.298 390.686C468.667 390.169 467.845 389.835 466.832 389.682C465.818 389.835 464.986 390.169 464.336 390.686C463.705 391.183 463.389 391.862 463.389 392.722C463.389 393.506 463.676 394.128 464.25 394.587C464.824 395.046 465.684 395.275 466.832 395.275ZM466.832 386.756C467.692 386.603 468.39 386.307 468.925 385.867C469.461 385.408 469.729 384.777 469.729 383.974C469.729 383.228 469.47 382.673 468.954 382.31C468.457 381.928 467.749 381.736 466.832 381.736C465.933 381.736 465.225 381.928 464.709 382.31C464.212 382.673 463.963 383.228 463.963 383.974C463.963 384.777 464.221 385.408 464.738 385.867C465.273 386.307 465.971 386.603 466.832 386.756Z" fill="black"/>
<rect x="399.047" y="333.341" width="104.135" height="109.408" stroke="#DADADA" stroke-width="2"/>
<rect x="503.182" y="333.341" width="104.135" height="109.408" fill="#F7F7F7"/>
<path d="M546.572 398.889C545.31 398.889 544.191 398.707 543.216 398.344C542.241 397.981 541.419 397.417 540.749 396.652C540.08 395.868 539.564 394.873 539.2 393.669C538.856 392.464 538.684 391.03 538.684 389.366V388.792C538.684 386.88 538.885 385.255 539.287 383.916C539.688 382.559 540.252 381.449 540.979 380.589C541.706 379.728 542.566 379.107 543.56 378.724C544.574 378.323 545.673 378.122 546.859 378.122C548.714 378.122 550.215 378.514 551.362 379.298C552.51 380.082 553.208 381.383 553.456 383.199H549.441C549.058 382.224 548.15 381.736 546.716 381.736C546.161 381.736 545.645 381.822 545.167 381.994C544.708 382.147 544.297 382.444 543.933 382.884C543.589 383.304 543.312 383.888 543.101 384.633C542.891 385.379 542.757 386.335 542.7 387.502C542.948 387.119 543.254 386.804 543.618 386.555C543.981 386.287 544.373 386.077 544.794 385.924C545.234 385.752 545.683 385.628 546.142 385.551C546.62 385.475 547.098 385.436 547.576 385.436C549.603 385.436 551.162 385.991 552.252 387.1C553.342 388.19 553.887 389.739 553.887 391.747V392.062C553.887 393.076 553.705 394.003 553.342 394.845C552.978 395.686 552.471 396.413 551.821 397.025C551.19 397.617 550.425 398.076 549.527 398.402C548.628 398.727 547.643 398.889 546.572 398.889ZM546.285 395.275C547.318 395.275 548.121 394.988 548.695 394.414C549.288 393.822 549.584 393.066 549.584 392.148V391.862C549.584 390.944 549.288 390.198 548.695 389.624C548.121 389.051 547.318 388.764 546.285 388.764C545.253 388.764 544.44 389.051 543.847 389.624C543.274 390.198 542.987 390.944 542.987 391.862V392.148C542.987 393.066 543.274 393.822 543.847 394.414C544.44 394.988 545.253 395.275 546.285 395.275ZM565.217 394.3H555.751V391.317L565.217 378.466H569.519V390.743H571.814V394.3H569.519V398.545H565.217V394.3ZM565.217 390.743V383.257L559.767 390.743H565.217Z" fill="black"/>
<rect x="503.182" y="333.341" width="104.135" height="109.408" stroke="#DADADA" stroke-width="2"/>
<rect x="607.316" y="333.341" width="104.135" height="109.408" fill="#F7F7F7"/>
<path d="M650.346 398.889C647.899 398.889 646.044 398.315 644.782 397.168C643.52 396.002 642.889 394.405 642.889 392.378H647.191C647.191 393.353 647.44 394.08 647.937 394.558C648.453 395.036 649.256 395.275 650.346 395.275C651.398 395.275 652.182 395.046 652.699 394.587C653.234 394.109 653.502 393.439 653.502 392.579C653.502 390.781 652.45 389.882 650.346 389.882H648.482V386.555H650.346C651.264 386.555 651.972 386.364 652.469 385.981C652.966 385.599 653.215 385.006 653.215 384.203C653.215 383.476 652.976 382.884 652.498 382.425C652.02 381.966 651.303 381.736 650.346 381.736C649.371 381.736 648.645 381.966 648.166 382.425C647.708 382.865 647.478 383.505 647.478 384.346H643.176C643.176 382.377 643.768 380.847 644.954 379.757C646.159 378.667 647.956 378.122 650.346 378.122C651.551 378.122 652.603 378.266 653.502 378.552C654.4 378.82 655.146 379.203 655.739 379.7C656.332 380.178 656.772 380.751 657.058 381.421C657.364 382.09 657.517 382.817 657.517 383.601C657.517 384.71 657.202 385.656 656.571 386.44C655.959 387.205 655.137 387.75 654.104 388.075C655.29 388.4 656.198 388.965 656.829 389.768C657.479 390.571 657.804 391.632 657.804 392.952C657.804 393.812 657.632 394.606 657.288 395.332C656.944 396.059 656.447 396.69 655.796 397.225C655.165 397.742 654.381 398.153 653.444 398.459C652.526 398.746 651.494 398.889 650.346 398.889ZM660.112 395.418L667.14 389.366C667.79 388.792 668.345 388.295 668.804 387.875C669.262 387.435 669.635 387.033 669.922 386.67C670.209 386.307 670.41 385.953 670.525 385.609C670.658 385.264 670.725 384.891 670.725 384.49C670.725 383.668 670.496 383.008 670.037 382.511C669.578 381.994 668.899 381.736 668 381.736C666.968 381.736 666.155 382.023 665.562 382.597C664.989 383.151 664.702 384.117 664.702 385.494H660.399C660.399 383.218 661.04 381.421 662.321 380.101C663.621 378.782 665.514 378.122 668 378.122C669.167 378.122 670.18 378.285 671.041 378.61C671.92 378.916 672.657 379.356 673.249 379.929C673.842 380.484 674.282 381.153 674.569 381.937C674.875 382.721 675.028 383.572 675.028 384.49C675.028 385.178 674.904 385.838 674.655 386.469C674.406 387.081 674.062 387.674 673.622 388.247C673.202 388.821 672.704 389.385 672.131 389.94C671.557 390.475 670.945 391.011 670.295 391.546L666.165 394.988H675.315V398.545H660.112V395.418Z" fill="black"/>
<rect x="607.316" y="333.341" width="104.135" height="109.408" stroke="#DADADA" stroke-width="2"/>
<rect x="711.451" y="333.341" width="104.135" height="109.408" fill="#F7F7F7"/>
<path d="M748.31 394.988H752.9V382.826L748.31 386.096V381.908L753.158 378.466H757.202V394.988H760.931V398.545H748.31V394.988ZM770.824 398.889C769.562 398.889 768.443 398.707 767.468 398.344C766.492 397.981 765.67 397.417 765.001 396.652C764.332 395.868 763.815 394.873 763.452 393.669C763.108 392.464 762.936 391.03 762.936 389.366V388.792C762.936 386.88 763.136 385.255 763.538 383.916C763.94 382.559 764.504 381.449 765.23 380.589C765.957 379.728 766.817 379.107 767.812 378.724C768.825 378.323 769.925 378.122 771.11 378.122C772.965 378.122 774.466 378.514 775.614 379.298C776.761 380.082 777.459 381.383 777.708 383.199H773.692C773.31 382.224 772.401 381.736 770.967 381.736C770.412 381.736 769.896 381.822 769.418 381.994C768.959 382.147 768.548 382.444 768.185 382.884C767.841 383.304 767.563 383.888 767.353 384.633C767.143 385.379 767.009 386.335 766.951 387.502C767.2 387.119 767.506 386.804 767.869 386.555C768.233 386.287 768.625 386.077 769.045 385.924C769.485 385.752 769.934 385.628 770.393 385.551C770.871 385.475 771.349 385.436 771.828 385.436C773.855 385.436 775.413 385.991 776.503 387.1C777.593 388.19 778.138 389.739 778.138 391.747V392.062C778.138 393.076 777.956 394.003 777.593 394.845C777.23 395.686 776.723 396.413 776.073 397.025C775.442 397.617 774.677 398.076 773.778 398.402C772.879 398.727 771.894 398.889 770.824 398.889ZM770.537 395.275C771.569 395.275 772.373 394.988 772.946 394.414C773.539 393.822 773.835 393.066 773.835 392.148V391.862C773.835 390.944 773.539 390.198 772.946 389.624C772.373 389.051 771.569 388.764 770.537 388.764C769.504 388.764 768.691 389.051 768.099 389.624C767.525 390.198 767.238 390.944 767.238 391.862V392.148C767.238 393.066 767.525 393.822 768.099 394.414C768.691 394.988 769.504 395.275 770.537 395.275Z" fill="black"/>
<rect x="711.451" y="333.341" width="104.135" height="109.408" stroke="#DADADA" stroke-width="2"/>
<rect x="815.586" y="333.341" width="104.135" height="109.408" fill="#F7F7F7"/>
<path d="M867.19 398.889C865.985 398.889 864.895 398.755 863.92 398.488C862.964 398.201 862.151 397.809 861.482 397.312C860.831 396.795 860.325 396.183 859.961 395.476C859.617 394.749 859.445 393.946 859.445 393.066C859.445 391.938 859.789 390.934 860.478 390.055C861.166 389.156 862.189 388.525 863.547 388.161C862.533 387.836 861.692 387.272 861.023 386.469C860.353 385.666 860.019 384.71 860.019 383.601C860.019 382.798 860.172 382.061 860.478 381.392C860.803 380.723 861.271 380.149 861.883 379.671C862.495 379.174 863.241 378.791 864.121 378.524C865.019 378.256 866.042 378.122 867.19 378.122C868.337 378.122 869.35 378.256 870.23 378.524C871.129 378.791 871.884 379.174 872.496 379.671C873.127 380.149 873.596 380.723 873.902 381.392C874.227 382.061 874.389 382.798 874.389 383.601C874.389 384.71 874.055 385.656 873.385 386.44C872.716 387.205 871.865 387.779 870.832 388.161C873.567 389.003 874.934 390.638 874.934 393.066C874.934 393.946 874.753 394.749 874.389 395.476C874.045 396.183 873.538 396.795 872.869 397.312C872.219 397.809 871.416 398.201 870.46 398.488C869.503 398.755 868.413 398.889 867.19 398.889ZM867.19 395.275C868.375 395.275 869.245 395.046 869.8 394.587C870.354 394.128 870.632 393.506 870.632 392.722C870.632 391.862 870.307 391.183 869.656 390.686C869.025 390.169 868.203 389.835 867.19 389.682C866.176 389.835 865.344 390.169 864.694 390.686C864.063 391.183 863.748 391.862 863.748 392.722C863.748 393.506 864.034 394.128 864.608 394.587C865.182 395.046 866.042 395.275 867.19 395.275ZM867.19 386.756C868.05 386.603 868.748 386.307 869.284 385.867C869.819 385.408 870.087 384.777 870.087 383.974C870.087 383.228 869.829 382.673 869.312 382.31C868.815 381.928 868.108 381.736 867.19 381.736C866.291 381.736 865.583 381.928 865.067 382.31C864.57 382.673 864.321 383.228 864.321 383.974C864.321 384.777 864.579 385.408 865.096 385.867C865.631 386.307 866.329 386.603 867.19 386.756Z" fill="black"/>
<rect x="815.586" y="333.341" width="104.135" height="109.408" stroke="#DADADA" stroke-width="2"/>
<rect x="919.721" y="333.341" width="104.135" height="109.408" fill="#F7F7F7"/>
<path d="M972.328 394.3H962.863V391.317L972.328 378.466H976.631V390.743H978.926V394.3H976.631V398.545H972.328V394.3ZM972.328 390.743V383.257L966.878 390.743H972.328Z" fill="black"/>
<rect x="919.721" y="333.341" width="104.135" height="109.408" stroke="#DADADA" stroke-width="2"/>
<rect x="1023.86" y="333.341" width="104.135" height="109.408" fill="#F7F7F7"/>
<path d="M1067.78 395.418L1074.81 389.366C1075.46 388.792 1076.02 388.295 1076.48 387.875C1076.93 387.435 1077.31 387.033 1077.59 386.67C1077.88 386.307 1078.08 385.953 1078.2 385.609C1078.33 385.264 1078.4 384.891 1078.4 384.49C1078.4 383.668 1078.17 383.008 1077.71 382.511C1077.25 381.994 1076.57 381.736 1075.67 381.736C1074.64 381.736 1073.83 382.023 1073.23 382.597C1072.66 383.151 1072.37 384.117 1072.37 385.494H1068.07C1068.07 383.218 1068.71 381.421 1069.99 380.101C1071.29 378.782 1073.19 378.122 1075.67 378.122C1076.84 378.122 1077.85 378.285 1078.71 378.61C1079.59 378.916 1080.33 379.356 1080.92 379.929C1081.51 380.484 1081.95 381.153 1082.24 381.937C1082.55 382.721 1082.7 383.572 1082.7 384.49C1082.7 385.178 1082.58 385.838 1082.33 386.469C1082.08 387.081 1081.73 387.674 1081.29 388.247C1080.87 388.821 1080.38 389.385 1079.8 389.94C1079.23 390.475 1078.62 391.011 1077.97 391.546L1073.84 394.988H1082.99V398.545H1067.78V395.418Z" fill="black"/>
<rect x="1023.86" y="333.341" width="104.135" height="109.408" stroke="#DADADA" stroke-width="2"/>
<rect x="1127.99" y="333.341" width="104.135" height="109.408" fill="#F7F7F7"/>
<path d="M1173.85 394.988H1178.44V382.826L1173.85 386.096V381.908L1178.7 378.466H1182.74V394.988H1186.47V398.545H1173.85V394.988Z" fill="black"/>
<rect x="1127.99" y="333.341" width="104.135" height="109.408" stroke="#DADADA" stroke-width="2"/>
<path d="M901.681 150.121V148.621H901.32L900.998 148.785L901.681 150.121ZM1367.94 150.121H1369.44V148.621H1367.94V150.121ZM1367.94 680.867L1376.6 665.867H1359.28L1367.94 680.867ZM767.629 218.607L766.947 219.943L767.629 220.292L768.312 219.943L767.629 218.607ZM901.681 151.621H1367.94V148.621H901.681V151.621ZM1366.44 150.121V667.367H1369.44V150.121H1366.44ZM900.998 148.785L766.947 217.271L768.312 219.943L902.363 151.457L900.998 148.785ZM768.312 217.271L634.261 148.785L632.896 151.457L766.947 219.943L768.312 217.271Z" fill="black"/>
<path d="M773.137 231.281L610.815 150.121L773.137 68.9603L935.458 150.121L773.137 231.281Z" fill="white" stroke="black" stroke-width="3"/>
<path d="M444.018 713.642V715.142H442.518V713.642H444.018ZM444.018 555.657L452.678 570.657H435.357L444.018 555.657ZM1275.8 715.142H444.018V712.142H1275.8V715.142ZM442.518 713.642V569.157H445.518V713.642H442.518Z" fill="black"/>
<rect x="1262.58" y="683.959" width="210.727" height="59.3633" fill="#F3F3F3"/>
<path d="M1289.52 720.584H1291.75C1292.04 719.915 1292.28 719.111 1292.47 718.174C1292.66 717.218 1292.82 716.214 1292.93 715.163C1293.05 714.092 1293.13 713.002 1293.19 711.893C1293.25 710.764 1293.27 709.684 1293.27 708.651V704.062H1307.42V720.584H1309.6V727.87H1305.75V724.141H1293.36V727.87H1289.52V720.584ZM1303.11 720.584V707.619H1297.35V709.225C1297.35 711.845 1297.22 714.054 1296.97 715.851C1296.73 717.649 1296.37 719.226 1295.91 720.584H1303.11ZM1318.92 724.485C1317.89 724.485 1316.9 724.332 1315.97 724.026C1315.05 723.701 1314.25 723.213 1313.56 722.563C1312.87 721.913 1312.32 721.1 1311.92 720.125C1311.52 719.15 1311.32 718.002 1311.32 716.683V716.109C1311.32 714.866 1311.52 713.776 1311.92 712.839C1312.32 711.902 1312.87 711.118 1313.56 710.487C1314.25 709.856 1315.05 709.388 1315.97 709.082C1316.9 708.757 1317.89 708.594 1318.92 708.594C1319.95 708.594 1320.93 708.757 1321.85 709.082C1322.76 709.388 1323.57 709.856 1324.26 710.487C1324.96 711.118 1325.52 711.902 1325.92 712.839C1326.32 713.776 1326.52 714.866 1326.52 716.109V716.683C1326.52 717.983 1326.32 719.121 1325.92 720.096C1325.52 721.071 1324.96 721.884 1324.26 722.534C1323.57 723.185 1322.76 723.672 1321.85 723.997C1320.93 724.322 1319.95 724.485 1318.92 724.485ZM1318.92 721.272C1319.99 721.272 1320.88 720.89 1321.59 720.125C1322.32 719.36 1322.68 718.213 1322.68 716.683V716.109C1322.68 714.713 1322.32 713.652 1321.59 712.925C1320.88 712.18 1319.99 711.807 1318.92 711.807C1317.83 711.807 1316.93 712.18 1316.22 712.925C1315.52 713.652 1315.16 714.713 1315.16 716.109V716.683C1315.16 718.232 1315.52 719.389 1316.22 720.154C1316.93 720.899 1317.83 721.272 1318.92 721.272ZM1336.12 724.485C1335.05 724.485 1334.05 724.303 1333.14 723.94C1332.24 723.577 1331.45 723.032 1330.79 722.305C1330.12 721.559 1329.59 720.651 1329.21 719.58C1328.84 718.49 1328.66 717.228 1328.66 715.794V715.134C1328.66 713.413 1328.79 711.883 1329.04 710.545C1329.3 709.206 1329.73 708.068 1330.33 707.131C1330.94 706.194 1331.74 705.468 1332.74 704.951C1333.75 704.416 1335.01 704.11 1336.52 704.033C1337.11 704.014 1337.7 703.995 1338.27 703.976C1338.85 703.957 1339.39 703.928 1339.91 703.89C1340.42 703.852 1340.89 703.794 1341.31 703.718C1341.73 703.622 1342.11 703.498 1342.43 703.345V706.701C1342.12 706.873 1341.55 707.016 1340.71 707.131C1339.89 707.246 1338.63 707.313 1336.95 707.332C1336.09 707.351 1335.35 707.456 1334.71 707.648C1334.1 707.82 1333.59 708.106 1333.17 708.508C1332.76 708.89 1332.44 709.397 1332.19 710.028C1331.96 710.659 1331.8 711.434 1331.7 712.352C1332.14 711.491 1332.8 710.793 1333.68 710.258C1334.56 709.722 1335.71 709.455 1337.12 709.455C1338.08 709.455 1338.95 709.608 1339.73 709.914C1340.52 710.2 1341.2 710.631 1341.77 711.204C1342.34 711.778 1342.78 712.485 1343.09 713.327C1343.42 714.168 1343.58 715.144 1343.58 716.253V716.798C1343.58 718.002 1343.39 719.083 1343 720.039C1342.64 720.995 1342.12 721.808 1341.46 722.477C1340.79 723.127 1339.99 723.624 1339.07 723.969C1338.18 724.313 1337.19 724.485 1336.12 724.485ZM1336.12 721.272C1337.27 721.272 1338.16 720.899 1338.79 720.154C1339.42 719.389 1339.73 718.308 1339.73 716.912V716.339C1339.73 715.134 1339.41 714.187 1338.76 713.499C1338.11 712.811 1337.23 712.466 1336.12 712.466C1335.03 712.466 1334.15 712.811 1333.48 713.499C1332.83 714.187 1332.51 715.134 1332.51 716.339V716.855C1332.51 717.543 1332.59 718.165 1332.76 718.719C1332.96 719.274 1333.21 719.742 1333.54 720.125C1333.86 720.488 1334.25 720.775 1334.69 720.985C1335.13 721.177 1335.6 721.272 1336.12 721.272ZM1350.86 724.485C1350.03 724.485 1349.31 724.37 1348.68 724.141C1348.04 723.892 1347.51 723.557 1347.07 723.137C1346.63 722.697 1346.3 722.19 1346.07 721.616C1345.84 721.024 1345.72 720.383 1345.72 719.695C1345.72 716.635 1347.54 715.105 1351.17 715.105H1355.7V714.388C1355.7 713.394 1355.47 712.696 1355.01 712.294C1354.58 711.893 1353.87 711.692 1352.89 711.692C1352.03 711.692 1351.41 711.845 1351.03 712.151C1350.65 712.438 1350.43 712.801 1350.37 713.241H1346.58C1346.62 712.591 1346.78 711.979 1347.07 711.405C1347.38 710.831 1347.8 710.344 1348.33 709.942C1348.89 709.522 1349.56 709.196 1350.34 708.967C1351.12 708.718 1352.02 708.594 1353.04 708.594C1354.01 708.594 1354.89 708.699 1355.67 708.91C1356.48 709.12 1357.16 709.464 1357.71 709.942C1358.28 710.401 1358.72 711.003 1359.03 711.749C1359.34 712.495 1359.49 713.394 1359.49 714.446V720.268C1359.49 721.071 1359.5 721.779 1359.52 722.391C1359.56 722.984 1359.61 723.567 1359.69 724.141H1356.16C1356.09 723.72 1356.04 723.404 1356.02 723.194C1356.02 722.965 1356.02 722.63 1356.02 722.19C1355.6 722.802 1354.96 723.337 1354.1 723.796C1353.26 724.255 1352.18 724.485 1350.86 724.485ZM1352.03 721.559C1352.49 721.559 1352.94 721.502 1353.38 721.387C1353.82 721.253 1354.21 721.062 1354.56 720.813C1354.9 720.546 1355.18 720.211 1355.39 719.809C1355.6 719.408 1355.7 718.939 1355.7 718.404V717.687H1351.89C1351.16 717.687 1350.59 717.859 1350.17 718.203C1349.77 718.528 1349.56 718.978 1349.56 719.551C1349.56 720.163 1349.78 720.651 1350.2 721.014C1350.62 721.377 1351.23 721.559 1352.03 721.559ZM1362.79 708.938H1370.42C1371.4 708.938 1372.23 709.043 1372.92 709.254C1373.63 709.445 1374.21 709.722 1374.67 710.086C1375.13 710.449 1375.46 710.879 1375.67 711.376C1375.88 711.874 1375.99 712.419 1375.99 713.011C1375.99 713.719 1375.77 714.388 1375.33 715.019C1374.91 715.631 1374.32 716.042 1373.58 716.253C1374.52 716.482 1375.24 716.922 1375.76 717.572C1376.29 718.203 1376.56 718.949 1376.56 719.809C1376.56 721.129 1376.1 722.181 1375.19 722.965C1374.27 723.749 1372.87 724.141 1371 724.141H1362.79V708.938ZM1370.25 721.1C1371.11 721.1 1371.74 720.976 1372.14 720.727C1372.57 720.46 1372.78 720.039 1372.78 719.465C1372.78 718.892 1372.57 718.48 1372.17 718.232C1371.79 717.964 1371.15 717.83 1370.25 717.83H1366.58V721.1H1370.25ZM1369.88 715.019C1370.76 715.019 1371.36 714.895 1371.69 714.646C1372.03 714.398 1372.2 714.015 1372.2 713.499C1372.2 713.002 1372.03 712.629 1371.69 712.38C1371.34 712.113 1370.74 711.979 1369.88 711.979H1366.58V715.019H1369.88ZM1379.29 708.938H1383.08V718.691L1389.85 708.938H1393.35V724.141H1389.56V714.388L1382.79 724.141H1379.29V708.938ZM1400.5 712.093H1395.65V708.938H1409.13V712.093H1404.29V724.141H1400.5V712.093ZM1411.42 708.938H1415.21V714.044H1418.45C1422.37 714.044 1424.33 715.727 1424.33 719.092C1424.33 719.838 1424.21 720.526 1423.99 721.158C1423.77 721.769 1423.43 722.295 1422.95 722.735C1422.47 723.175 1421.86 723.519 1421.12 723.768C1420.37 724.016 1419.48 724.141 1418.45 724.141H1411.42V708.938ZM1418.02 721.1C1418.94 721.1 1419.59 720.938 1419.97 720.613C1420.35 720.268 1420.54 719.762 1420.54 719.092C1420.54 718.423 1420.34 717.926 1419.94 717.601C1419.56 717.257 1418.92 717.084 1418.02 717.084H1415.21V721.1H1418.02ZM1433.51 720.584H1438.1V708.422L1433.51 711.692V707.504L1438.36 704.062H1442.4V720.584H1446.13V724.141H1433.51V720.584Z" fill="black"/>
<rect x="1262.58" y="683.959" width="210.727" height="59.3633" stroke="#DADADA" stroke-width="2"/>
<path d="M222.581 372.813H234.55V388.045H232.504V374.597H224.627V388.045H222.581V372.813ZM243.254 388.263C242.514 388.263 241.81 388.146 241.143 387.914C240.476 387.668 239.888 387.305 239.38 386.826C238.873 386.333 238.466 385.717 238.162 384.977C237.857 384.237 237.705 383.374 237.705 382.387V381.952C237.705 381.024 237.857 380.204 238.162 379.493C238.466 378.782 238.873 378.195 239.38 377.731C239.888 377.252 240.476 376.896 241.143 376.664C241.81 376.418 242.514 376.294 243.254 376.294C243.994 376.294 244.697 376.418 245.364 376.664C246.032 376.896 246.619 377.252 247.127 377.731C247.635 378.195 248.041 378.782 248.346 379.493C248.65 380.204 248.803 381.024 248.803 381.952V382.387C248.803 383.374 248.65 384.237 248.346 384.977C248.041 385.717 247.635 386.333 247.127 386.826C246.619 387.305 246.032 387.668 245.364 387.914C244.697 388.146 243.994 388.263 243.254 388.263ZM243.254 386.522C243.689 386.522 244.124 386.449 244.559 386.304C244.995 386.145 245.379 385.905 245.713 385.586C246.046 385.252 246.315 384.824 246.518 384.302C246.735 383.78 246.844 383.142 246.844 382.387V381.952C246.844 381.256 246.735 380.661 246.518 380.168C246.315 379.674 246.046 379.268 245.713 378.949C245.379 378.63 244.995 378.398 244.559 378.253C244.124 378.108 243.689 378.035 243.254 378.035C242.818 378.035 242.383 378.108 241.948 378.253C241.513 378.398 241.128 378.63 240.795 378.949C240.461 379.268 240.185 379.674 239.968 380.168C239.765 380.661 239.663 381.256 239.663 381.952V382.387C239.663 383.142 239.765 383.78 239.968 384.302C240.185 384.824 240.461 385.252 240.795 385.586C241.128 385.905 241.513 386.145 241.948 386.304C242.383 386.449 242.818 386.522 243.254 386.522ZM255.431 388.263C253.98 388.263 252.841 387.958 252.015 387.349C251.188 386.739 250.731 385.883 250.644 384.781H252.559C252.66 385.347 252.958 385.782 253.451 386.086C253.959 386.377 254.619 386.522 255.431 386.522C256.432 386.522 257.157 386.355 257.607 386.021C258.071 385.673 258.303 385.26 258.303 384.781C258.303 384.215 258.115 383.773 257.738 383.453C257.36 383.12 256.708 382.953 255.779 382.953H253.799V381.386H255.649C256.446 381.386 257.012 381.234 257.346 380.929C257.694 380.625 257.868 380.197 257.868 379.645C257.868 379.21 257.665 378.833 257.259 378.514C256.853 378.195 256.243 378.035 255.431 378.035C254.546 378.035 253.9 378.18 253.494 378.47C253.103 378.746 252.863 379.145 252.776 379.667H250.861C250.905 379.188 251.035 378.746 251.253 378.34C251.485 377.919 251.797 377.556 252.189 377.252C252.58 376.947 253.045 376.715 253.581 376.555C254.133 376.381 254.749 376.294 255.431 376.294C256.171 376.294 256.809 376.381 257.346 376.555C257.897 376.715 258.354 376.947 258.717 377.252C259.079 377.542 259.348 377.89 259.522 378.296C259.696 378.702 259.783 379.152 259.783 379.645C259.783 380.197 259.645 380.683 259.37 381.103C259.094 381.51 258.652 381.829 258.042 382.061C258.855 382.278 259.42 382.627 259.74 383.105C260.059 383.584 260.218 384.143 260.218 384.781C260.218 385.26 260.117 385.709 259.914 386.13C259.711 386.551 259.406 386.921 259 387.24C258.608 387.544 258.107 387.791 257.498 387.98C256.903 388.168 256.214 388.263 255.431 388.263ZM262.947 376.512H264.862V385.216L270.824 376.512H272.739V388.045H270.824V379.341L264.862 388.045H262.947V376.512ZM285.607 388.045H276.228V376.512H278.143V386.348H283.67V376.512H285.585V386.348H287.435V390.765H285.607V388.045ZM289.722 376.512H291.637V385.216L297.599 376.512H299.514V388.045H297.599V379.341L291.637 388.045H289.722V376.512ZM307.791 388.263C307.051 388.263 306.348 388.146 305.68 387.914C305.013 387.668 304.425 387.305 303.918 386.826C303.41 386.333 303.004 385.717 302.699 384.977C302.394 384.237 302.242 383.374 302.242 382.387V381.952C302.242 381.024 302.394 380.204 302.699 379.493C303.004 378.782 303.41 378.195 303.918 377.731C304.425 377.252 305.013 376.896 305.68 376.664C306.348 376.418 307.051 376.294 307.791 376.294C308.531 376.294 309.234 376.418 309.902 376.664C310.569 376.896 311.157 377.252 311.664 377.731C312.172 378.195 312.578 378.782 312.883 379.493C313.188 380.204 313.34 381.024 313.34 381.952V382.387C313.34 383.374 313.188 384.237 312.883 384.977C312.578 385.717 312.172 386.333 311.664 386.826C311.157 387.305 310.569 387.668 309.902 387.914C309.234 388.146 308.531 388.263 307.791 388.263ZM307.791 386.522C308.226 386.522 308.661 386.449 309.097 386.304C309.532 386.145 309.916 385.905 310.25 385.586C310.584 385.252 310.852 384.824 311.055 384.302C311.273 383.78 311.381 383.142 311.381 382.387V381.952C311.381 381.256 311.273 380.661 311.055 380.168C310.852 379.674 310.584 379.268 310.25 378.949C309.916 378.63 309.532 378.398 309.097 378.253C308.661 378.108 308.226 378.035 307.791 378.035C307.356 378.035 306.921 378.108 306.485 378.253C306.05 378.398 305.666 378.63 305.332 378.949C304.998 379.268 304.723 379.674 304.505 380.168C304.302 380.661 304.201 381.256 304.201 381.952V382.387C304.201 383.142 304.302 383.78 304.505 384.302C304.723 384.824 304.998 385.252 305.332 385.586C305.666 385.905 306.05 386.145 306.485 386.304C306.921 386.449 307.356 386.522 307.791 386.522ZM316.051 376.512H317.966V381.321H323.929V376.512H325.844V388.045H323.929V383.018H317.966V388.045H316.051V376.512ZM329.333 376.512H331.248V381.321H337.21V376.512H339.125V388.045H337.21V383.018H331.248V388.045H329.333V376.512ZM347.402 388.263C346.662 388.263 345.958 388.146 345.291 387.914C344.624 387.668 344.036 387.305 343.528 386.826C343.021 386.333 342.614 385.717 342.31 384.977C342.005 384.237 341.853 383.374 341.853 382.387V381.952C341.853 381.024 342.005 380.204 342.31 379.493C342.614 378.782 343.021 378.195 343.528 377.731C344.036 377.252 344.624 376.896 345.291 376.664C345.958 376.418 346.662 376.294 347.402 376.294C348.141 376.294 348.845 376.418 349.512 376.664C350.18 376.896 350.767 377.252 351.275 377.731C351.783 378.195 352.189 378.782 352.494 379.493C352.798 380.204 352.95 381.024 352.95 381.952V382.387C352.95 383.374 352.798 384.237 352.494 384.977C352.189 385.717 351.783 386.333 351.275 386.826C350.767 387.305 350.18 387.668 349.512 387.914C348.845 388.146 348.141 388.263 347.402 388.263ZM347.402 386.522C347.837 386.522 348.272 386.449 348.707 386.304C349.142 386.145 349.527 385.905 349.861 385.586C350.194 385.252 350.463 384.824 350.666 384.302C350.883 383.78 350.992 383.142 350.992 382.387V381.952C350.992 381.256 350.883 380.661 350.666 380.168C350.463 379.674 350.194 379.268 349.861 378.949C349.527 378.63 349.142 378.398 348.707 378.253C348.272 378.108 347.837 378.035 347.402 378.035C346.966 378.035 346.531 378.108 346.096 378.253C345.661 378.398 345.276 378.63 344.943 378.949C344.609 379.268 344.333 379.674 344.116 380.168C343.913 380.661 343.811 381.256 343.811 381.952V382.387C343.811 383.142 343.913 383.78 344.116 384.302C344.333 384.824 344.609 385.252 344.943 385.586C345.276 385.905 345.661 386.145 346.096 386.304C346.531 386.449 346.966 386.522 347.402 386.522ZM360.449 388.263C359.709 388.263 359.006 388.146 358.339 387.914C357.671 387.682 357.084 387.327 356.576 386.848C356.068 386.355 355.662 385.738 355.357 384.998C355.053 384.259 354.9 383.388 354.9 382.387V381.952C354.9 380.995 355.045 380.168 355.336 379.471C355.626 378.761 356.01 378.173 356.489 377.709C356.982 377.23 357.548 376.875 358.186 376.642C358.839 376.41 359.521 376.294 360.232 376.294C361.929 376.294 363.242 376.759 364.17 377.687C365.099 378.615 365.563 379.928 365.563 381.626V382.844H356.815C356.815 383.526 356.924 384.099 357.142 384.563C357.359 385.027 357.642 385.405 357.99 385.695C358.339 385.985 358.723 386.195 359.144 386.326C359.579 386.456 360.014 386.522 360.449 386.522C361.32 386.522 361.987 386.377 362.451 386.086C362.93 385.796 363.271 385.397 363.474 384.89H365.345C365.229 385.441 365.019 385.927 364.714 386.348C364.424 386.768 364.062 387.124 363.626 387.414C363.206 387.69 362.72 387.9 362.168 388.045C361.632 388.19 361.059 388.263 360.449 388.263ZM360.341 378.035C359.891 378.035 359.456 378.1 359.035 378.231C358.614 378.347 358.237 378.543 357.903 378.819C357.584 379.08 357.323 379.413 357.12 379.82C356.917 380.226 356.815 380.712 356.815 381.277H363.757C363.742 380.683 363.641 380.182 363.452 379.776C363.278 379.355 363.039 379.022 362.734 378.775C362.43 378.514 362.067 378.325 361.646 378.209C361.24 378.093 360.805 378.035 360.341 378.035ZM248.684 412.263C247.233 412.263 246.095 411.958 245.268 411.349C244.441 410.739 243.984 409.883 243.897 408.781H245.812C245.913 409.347 246.211 409.782 246.704 410.086C247.212 410.377 247.872 410.522 248.684 410.522C249.685 410.522 250.41 410.355 250.86 410.021C251.324 409.673 251.556 409.26 251.556 408.781C251.556 408.215 251.368 407.773 250.991 407.453C250.613 407.12 249.961 406.953 249.032 406.953H247.052V405.386H248.902C249.699 405.386 250.265 405.234 250.599 404.929C250.947 404.625 251.121 404.197 251.121 403.645C251.121 403.21 250.918 402.833 250.512 402.514C250.106 402.195 249.496 402.035 248.684 402.035C247.799 402.035 247.154 402.18 246.747 402.47C246.356 402.746 246.116 403.145 246.029 403.667H244.114C244.158 403.188 244.288 402.746 244.506 402.34C244.738 401.919 245.05 401.556 245.442 401.252C245.833 400.947 246.298 400.715 246.834 400.555C247.386 400.381 248.002 400.294 248.684 400.294C249.424 400.294 250.062 400.381 250.599 400.555C251.15 400.715 251.607 400.947 251.97 401.252C252.332 401.542 252.601 401.89 252.775 402.296C252.949 402.702 253.036 403.152 253.036 403.645C253.036 404.197 252.898 404.683 252.623 405.103C252.347 405.51 251.905 405.829 251.295 406.061C252.108 406.278 252.673 406.627 252.993 407.105C253.312 407.584 253.471 408.143 253.471 408.781C253.471 409.26 253.37 409.709 253.167 410.13C252.964 410.551 252.659 410.921 252.253 411.24C251.861 411.544 251.361 411.791 250.751 411.98C250.156 412.168 249.467 412.263 248.684 412.263ZM256.2 400.512H258.115V405.321H264.077V400.512H265.992V412.045H264.077V407.018H258.115V412.045H256.2V400.512ZM272.767 412.263C272.129 412.263 271.563 412.175 271.07 412.001C270.591 411.813 270.185 411.559 269.851 411.24C269.518 410.921 269.264 410.543 269.09 410.108C268.916 409.673 268.828 409.194 268.828 408.672C268.828 407.526 269.162 406.699 269.829 406.191C270.511 405.684 271.483 405.43 272.745 405.43H276.488V404.646C276.488 403.66 276.263 402.978 275.814 402.601C275.378 402.224 274.718 402.035 273.833 402.035C273.006 402.035 272.404 402.195 272.027 402.514C271.65 402.819 271.44 403.167 271.396 403.558H269.481C269.51 403.094 269.634 402.666 269.851 402.275C270.083 401.868 270.388 401.52 270.765 401.23C271.157 400.94 271.621 400.715 272.158 400.555C272.695 400.381 273.289 400.294 273.942 400.294C275.306 400.294 276.387 400.621 277.184 401.274C277.997 401.912 278.403 402.964 278.403 404.429V409.107C278.403 409.717 278.403 410.253 278.403 410.718C278.418 411.167 278.454 411.61 278.512 412.045H276.836C276.793 411.711 276.764 411.399 276.749 411.109C276.735 410.805 276.727 410.464 276.727 410.086C276.423 410.696 275.93 411.211 275.248 411.631C274.566 412.052 273.739 412.263 272.767 412.263ZM273.181 410.522C273.63 410.522 274.051 410.464 274.443 410.348C274.849 410.217 275.204 410.036 275.509 409.804C275.814 409.557 276.053 409.26 276.227 408.911C276.401 408.563 276.488 408.157 276.488 407.693V406.909H273.072C272.361 406.909 271.802 407.055 271.396 407.345C270.99 407.62 270.787 408.063 270.787 408.672C270.787 409.209 270.975 409.651 271.353 409.999C271.744 410.348 272.354 410.522 273.181 410.522ZM288.466 407.453C288.132 407.657 287.726 407.838 287.247 407.997C286.783 408.157 286.195 408.237 285.484 408.237C284.817 408.237 284.215 408.164 283.678 408.019C283.156 407.874 282.714 407.642 282.351 407.323C281.988 407.004 281.713 406.59 281.524 406.083C281.336 405.575 281.241 404.951 281.241 404.211V400.512H283.156V403.885C283.156 404.378 283.2 404.791 283.287 405.125C283.388 405.459 283.548 405.727 283.765 405.93C283.983 406.133 284.259 406.278 284.592 406.365C284.926 406.453 285.332 406.496 285.811 406.496C286.464 406.496 287.022 406.431 287.486 406.3C287.951 406.17 288.277 406.032 288.466 405.887V400.512H290.381V412.045H288.466V407.453ZM298.643 412.263C297.903 412.263 297.199 412.146 296.532 411.914C295.865 411.682 295.277 411.327 294.769 410.848C294.262 410.355 293.855 409.738 293.551 408.998C293.246 408.259 293.094 407.388 293.094 406.387V405.952C293.094 404.995 293.239 404.168 293.529 403.471C293.819 402.761 294.204 402.173 294.682 401.709C295.176 401.23 295.741 400.875 296.38 400.642C297.032 400.41 297.714 400.294 298.425 400.294C300.122 400.294 301.435 400.759 302.364 401.687C303.292 402.615 303.756 403.928 303.756 405.626V406.844H295.009C295.009 407.526 295.118 408.099 295.335 408.563C295.553 409.027 295.836 409.405 296.184 409.695C296.532 409.985 296.916 410.195 297.337 410.326C297.772 410.456 298.207 410.522 298.643 410.522C299.513 410.522 300.18 410.377 300.645 410.086C301.123 409.796 301.464 409.397 301.667 408.89H303.539C303.423 409.441 303.212 409.927 302.908 410.348C302.618 410.768 302.255 411.124 301.82 411.414C301.399 411.69 300.913 411.9 300.362 412.045C299.825 412.19 299.252 412.263 298.643 412.263ZM298.534 402.035C298.084 402.035 297.649 402.1 297.228 402.231C296.808 402.347 296.43 402.543 296.097 402.819C295.778 403.08 295.516 403.413 295.313 403.82C295.11 404.226 295.009 404.712 295.009 405.277H301.95C301.936 404.683 301.834 404.182 301.646 403.776C301.472 403.355 301.232 403.022 300.928 402.775C300.623 402.514 300.26 402.325 299.84 402.209C299.433 402.093 298.998 402.035 298.534 402.035ZM306.478 400.512H308.393V405.321H314.355V400.512H316.27V412.045H314.355V407.018H308.393V412.045H306.478V400.512ZM319.76 400.512H321.674V409.216L327.637 400.512H329.552V412.045H327.637V403.341L321.674 412.045H319.76V400.512ZM337.828 412.263C337.088 412.263 336.385 412.146 335.718 411.914C335.05 411.682 334.463 411.327 333.955 410.848C333.447 410.355 333.041 409.738 332.736 408.998C332.432 408.259 332.279 407.388 332.279 406.387V405.952C332.279 404.995 332.425 404.168 332.715 403.471C333.005 402.761 333.389 402.173 333.868 401.709C334.361 401.23 334.927 400.875 335.565 400.642C336.218 400.41 336.9 400.294 337.611 400.294C339.308 400.294 340.621 400.759 341.549 401.687C342.478 402.615 342.942 403.928 342.942 405.626V406.844H334.194C334.194 407.526 334.303 408.099 334.521 408.563C334.738 409.027 335.021 409.405 335.369 409.695C335.718 409.985 336.102 410.195 336.523 410.326C336.958 410.456 337.393 410.522 337.828 410.522C338.699 410.522 339.366 410.377 339.83 410.086C340.309 409.796 340.65 409.397 340.853 408.89H342.724C342.608 409.441 342.398 409.927 342.093 410.348C341.803 410.768 341.441 411.124 341.005 411.414C340.585 411.69 340.099 411.9 339.547 412.045C339.011 412.19 338.438 412.263 337.828 412.263ZM337.72 402.035C337.27 402.035 336.835 402.1 336.414 402.231C335.993 402.347 335.616 402.543 335.282 402.819C334.963 403.08 334.702 403.413 334.499 403.82C334.296 404.226 334.194 404.712 334.194 405.277H341.136C341.121 404.683 341.02 404.182 340.831 403.776C340.657 403.355 340.418 403.022 340.113 402.775C339.809 402.514 339.446 402.325 339.025 402.209C338.619 402.093 338.184 402.035 337.72 402.035Z" fill="black"/>
<path d="M942.863 123.875H945.1C945.387 123.206 945.626 122.402 945.817 121.465C946.008 120.509 946.161 119.505 946.276 118.454C946.391 117.383 946.477 116.293 946.534 115.184C946.592 114.055 946.62 112.975 946.62 111.942V107.353H960.761V123.875H962.941V131.161H959.098V127.432H946.706V131.161H942.863V123.875ZM956.459 123.875V110.91H950.693V112.516C950.693 115.136 950.569 117.345 950.32 119.142C950.072 120.94 949.718 122.517 949.259 123.875H956.459ZM970.084 127.776C969.261 127.776 968.535 127.661 967.904 127.432C967.273 127.183 966.737 126.848 966.297 126.428C965.857 125.988 965.523 125.481 965.293 124.907C965.064 124.315 964.949 123.674 964.949 122.986C964.949 119.926 966.766 118.396 970.399 118.396H974.931V117.679C974.931 116.685 974.702 115.987 974.243 115.585C973.803 115.184 973.095 114.983 972.12 114.983C971.26 114.983 970.638 115.136 970.256 115.442C969.873 115.729 969.653 116.092 969.596 116.532H965.81C965.848 115.882 966.01 115.27 966.297 114.696C966.603 114.122 967.024 113.635 967.559 113.233C968.114 112.813 968.783 112.487 969.567 112.258C970.351 112.009 971.25 111.885 972.264 111.885C973.239 111.885 974.118 111.99 974.902 112.201C975.706 112.411 976.384 112.755 976.939 113.233C977.513 113.692 977.952 114.295 978.258 115.04C978.564 115.786 978.717 116.685 978.717 117.737V123.559C978.717 124.362 978.727 125.07 978.746 125.682C978.784 126.275 978.842 126.858 978.918 127.432H975.39C975.314 127.011 975.266 126.695 975.247 126.485C975.247 126.256 975.247 125.921 975.247 125.481C974.826 126.093 974.185 126.628 973.325 127.087C972.483 127.546 971.403 127.776 970.084 127.776ZM971.26 124.85C971.719 124.85 972.168 124.793 972.608 124.678C973.048 124.544 973.44 124.353 973.784 124.104C974.128 123.837 974.405 123.502 974.616 123.1C974.826 122.699 974.931 122.23 974.931 121.695V120.978H971.116C970.39 120.978 969.816 121.15 969.395 121.494C968.994 121.819 968.793 122.269 968.793 122.842C968.793 123.454 969.003 123.942 969.424 124.305C969.845 124.668 970.456 124.85 971.26 124.85Z" fill="black"/>
<path d="M701.22 157.064H705.809V144.902L701.22 148.172V143.985L706.067 140.543H710.112V157.064H713.84V160.621H701.22V157.064ZM722.872 160.965C720.96 160.965 719.421 160.554 718.254 159.732C717.088 158.91 716.38 157.628 716.132 155.888H720.148C720.339 156.385 720.645 156.758 721.065 157.007C721.505 157.236 722.155 157.351 723.016 157.351C723.532 157.351 724.01 157.275 724.45 157.122C724.909 156.95 725.311 156.653 725.655 156.232C725.999 155.793 726.276 155.2 726.487 154.454C726.697 153.708 726.831 152.752 726.888 151.586C726.64 151.968 726.334 152.293 725.97 152.561C725.607 152.81 725.205 153.02 724.766 153.192C724.345 153.345 723.896 153.46 723.417 153.536C722.959 153.613 722.49 153.651 722.012 153.651C719.985 153.651 718.427 153.106 717.337 152.016C716.247 150.907 715.702 149.348 715.702 147.341V147.025C715.702 146.012 715.883 145.084 716.247 144.243C716.61 143.401 717.107 142.684 717.738 142.091C718.388 141.48 719.163 141.011 720.061 140.686C720.96 140.361 721.945 140.198 723.016 140.198C725.559 140.198 727.51 140.944 728.867 142.436C730.225 143.927 730.904 146.356 730.904 149.721V150.266C730.904 152.198 730.703 153.842 730.302 155.2C729.9 156.538 729.336 157.638 728.609 158.499C727.902 159.359 727.051 159.99 726.056 160.392C725.081 160.774 724.02 160.965 722.872 160.965ZM723.303 150.324C724.335 150.324 725.138 150.037 725.712 149.463C726.305 148.889 726.601 148.144 726.601 147.226V146.939C726.601 146.04 726.295 145.294 725.683 144.702C725.091 144.109 724.297 143.812 723.303 143.812C722.27 143.812 721.457 144.109 720.865 144.702C720.291 145.275 720.004 146.021 720.004 146.939V147.226C720.004 148.144 720.291 148.889 720.865 149.463C721.457 150.037 722.27 150.324 723.303 150.324ZM733.199 157.495L740.226 151.442C740.876 150.869 741.431 150.371 741.89 149.951C742.349 149.511 742.722 149.109 743.008 148.746C743.295 148.383 743.496 148.029 743.611 147.685C743.745 147.341 743.812 146.968 743.812 146.566C743.812 145.744 743.582 145.084 743.123 144.587C742.664 144.071 741.985 143.812 741.087 143.812C740.054 143.812 739.241 144.099 738.649 144.673C738.075 145.228 737.788 146.193 737.788 147.57H733.485C733.485 145.294 734.126 143.497 735.407 142.177C736.708 140.858 738.601 140.198 741.087 140.198C742.253 140.198 743.267 140.361 744.127 140.686C745.007 140.992 745.743 141.432 746.336 142.005C746.929 142.56 747.368 143.229 747.655 144.013C747.961 144.797 748.114 145.648 748.114 146.566C748.114 147.254 747.99 147.914 747.741 148.545C747.493 149.157 747.148 149.75 746.709 150.324C746.288 150.897 745.791 151.461 745.217 152.016C744.643 152.551 744.031 153.087 743.381 153.622L739.251 157.064H748.401V160.621H733.199V157.495ZM771.91 148.717V151.873L757.855 158.04V153.938L766.891 150.352L757.855 146.767V142.55L771.91 148.717ZM774.214 151.959H788.269V155.515H774.214V151.959ZM774.214 145.075H788.269V148.631H774.214V145.075ZM797.887 157.064H802.476V144.902L797.887 148.172V143.985L802.735 140.543H806.779V157.064H810.508V160.621H797.887V157.064ZM811.939 157.495L818.966 151.442C819.616 150.869 820.171 150.371 820.63 149.951C821.089 149.511 821.462 149.109 821.749 148.746C822.035 148.383 822.236 148.029 822.351 147.685C822.485 147.341 822.552 146.968 822.552 146.566C822.552 145.744 822.322 145.084 821.863 144.587C821.404 144.071 820.725 143.812 819.827 143.812C818.794 143.812 817.981 144.099 817.389 144.673C816.815 145.228 816.528 146.193 816.528 147.57H812.226C812.226 145.294 812.866 143.497 814.147 142.177C815.448 140.858 817.341 140.198 819.827 140.198C820.993 140.198 822.007 140.361 822.867 140.686C823.747 140.992 824.483 141.432 825.076 142.005C825.669 142.56 826.108 143.229 826.395 144.013C826.701 144.797 826.854 145.648 826.854 146.566C826.854 147.254 826.73 147.914 826.481 148.545C826.233 149.157 825.889 149.75 825.449 150.324C825.028 150.897 824.531 151.461 823.957 152.016C823.383 152.551 822.772 153.087 822.121 153.622L817.991 157.064H827.141V160.621H811.939V157.495ZM837.313 160.965C836.108 160.965 835.018 160.831 834.043 160.564C833.086 160.277 832.274 159.885 831.604 159.388C830.954 158.871 830.448 158.259 830.084 157.552C829.74 156.825 829.568 156.022 829.568 155.143C829.568 154.014 829.912 153.01 830.601 152.131C831.289 151.232 832.312 150.601 833.67 150.238C832.656 149.913 831.815 149.348 831.146 148.545C830.476 147.742 830.142 146.786 830.142 145.677C830.142 144.874 830.295 144.138 830.601 143.468C830.926 142.799 831.394 142.225 832.006 141.747C832.618 141.25 833.364 140.868 834.243 140.6C835.142 140.332 836.165 140.198 837.313 140.198C838.46 140.198 839.473 140.332 840.353 140.6C841.252 140.868 842.007 141.25 842.619 141.747C843.25 142.225 843.719 142.799 844.025 143.468C844.35 144.138 844.512 144.874 844.512 145.677C844.512 146.786 844.178 147.733 843.508 148.517C842.839 149.281 841.988 149.855 840.955 150.238C843.69 151.079 845.057 152.714 845.057 155.143C845.057 156.022 844.875 156.825 844.512 157.552C844.168 158.259 843.661 158.871 842.992 159.388C842.342 159.885 841.539 160.277 840.582 160.564C839.626 160.831 838.536 160.965 837.313 160.965ZM837.313 157.351C838.498 157.351 839.368 157.122 839.923 156.663C840.477 156.204 840.755 155.582 840.755 154.798C840.755 153.938 840.43 153.259 839.779 152.762C839.148 152.245 838.326 151.911 837.313 151.758C836.299 151.911 835.467 152.245 834.817 152.762C834.186 153.259 833.871 153.938 833.871 154.798C833.871 155.582 834.157 156.204 834.731 156.663C835.305 157.122 836.165 157.351 837.313 157.351ZM837.313 148.832C838.173 148.679 838.871 148.383 839.406 147.943C839.942 147.484 840.21 146.853 840.21 146.05C840.21 145.304 839.951 144.749 839.435 144.386C838.938 144.004 838.23 143.812 837.313 143.812C836.414 143.812 835.706 144.004 835.19 144.386C834.693 144.749 834.444 145.304 834.444 146.05C834.444 146.853 834.702 147.484 835.219 147.943C835.754 148.383 836.452 148.679 837.313 148.832Z" fill="black"/>
<rect x="399.047" y="333.341" width="833.223" height="111.155" stroke="#D0643B" stroke-width="6"/>
<path d="M294.13 107.921H311.053V128H306.751V111.478H298.432V128H294.13V107.921ZM315.069 112.798H318.597V115.035C318.98 114.347 319.582 113.744 320.404 113.228C321.226 112.712 322.269 112.453 323.531 112.453C325.558 112.453 327.135 113.084 328.263 114.347C329.411 115.59 329.984 117.464 329.984 119.969V120.542C329.984 123.162 329.401 125.122 328.235 126.422C327.087 127.704 325.519 128.344 323.531 128.344C322.498 128.344 321.58 128.124 320.777 127.684C319.993 127.226 319.352 126.633 318.855 125.906V133.737H315.069V112.798ZM322.641 125.132C323.636 125.132 324.468 124.759 325.137 124.013C325.806 123.248 326.141 122.091 326.141 120.542V119.969C326.141 118.534 325.816 117.464 325.166 116.756C324.515 116.029 323.674 115.666 322.641 115.666C321.551 115.666 320.643 115.982 319.917 116.613C319.209 117.224 318.855 118.152 318.855 119.395V121.116C318.855 122.474 319.199 123.487 319.888 124.156C320.595 124.807 321.513 125.132 322.641 125.132ZM332.716 112.798H336.502V122.55L343.272 112.798H346.771V128H342.985V118.248L336.216 128H332.716V112.798ZM350.223 112.798H354.698L358.914 121.001L363.131 112.798H367.434V128H363.819V118.104L360.119 124.988H357.538L353.837 118.104V128H350.223V112.798ZM377.752 128.344C376.719 128.344 375.734 128.191 374.797 127.885C373.879 127.56 373.076 127.082 372.388 126.451C371.7 125.801 371.155 124.988 370.753 124.013C370.351 123.019 370.151 121.862 370.151 120.542V119.969C370.151 118.706 370.342 117.607 370.724 116.67C371.107 115.733 371.633 114.958 372.302 114.347C372.971 113.716 373.746 113.247 374.625 112.941C375.505 112.616 376.451 112.453 377.465 112.453C379.855 112.453 381.672 113.084 382.915 114.347C384.158 115.609 384.779 117.435 384.779 119.825V121.431H374.023C374.042 122.101 374.157 122.684 374.367 123.181C374.577 123.659 374.855 124.051 375.199 124.357C375.543 124.663 375.935 124.893 376.375 125.046C376.834 125.179 377.293 125.246 377.752 125.246C378.727 125.246 379.463 125.103 379.96 124.816C380.458 124.529 380.811 124.109 381.022 123.554H384.492C384.186 125.141 383.431 126.336 382.226 127.139C381.022 127.943 379.53 128.344 377.752 128.344ZM377.608 115.551C377.169 115.551 376.729 115.609 376.289 115.723C375.868 115.838 375.495 116.02 375.17 116.268C374.845 116.517 374.577 116.852 374.367 117.272C374.157 117.693 374.042 118.2 374.023 118.793H381.108C381.089 118.161 380.983 117.636 380.792 117.215C380.62 116.794 380.372 116.46 380.046 116.211C379.741 115.962 379.377 115.79 378.956 115.695C378.536 115.599 378.086 115.551 377.608 115.551ZM387.506 112.798H391.035V115.035C391.417 114.347 392.019 113.744 392.842 113.228C393.664 112.712 394.706 112.453 395.968 112.453C397.995 112.453 399.573 113.084 400.701 114.347C401.848 115.59 402.422 117.464 402.422 119.969V120.542C402.422 123.162 401.839 125.122 400.672 126.422C399.525 127.704 397.957 128.344 395.968 128.344C394.936 128.344 394.018 128.124 393.215 127.684C392.431 127.226 391.79 126.633 391.293 125.906V133.737H387.506V112.798ZM395.079 125.132C396.073 125.132 396.905 124.759 397.574 124.013C398.244 123.248 398.578 122.091 398.578 120.542V119.969C398.578 118.534 398.253 117.464 397.603 116.756C396.953 116.029 396.112 115.666 395.079 115.666C393.989 115.666 393.081 115.982 392.354 116.613C391.646 117.224 391.293 118.152 391.293 119.395V121.116C391.293 122.474 391.637 123.487 392.325 124.156C393.033 124.807 393.951 125.132 395.079 125.132ZM407.879 128.344C407.209 128.344 406.636 128.105 406.158 127.627C405.68 127.149 405.441 126.575 405.441 125.906C405.441 125.199 405.68 124.615 406.158 124.156C406.636 123.697 407.209 123.468 407.879 123.468C408.548 123.468 409.122 123.697 409.6 124.156C410.078 124.615 410.317 125.199 410.317 125.906C410.317 126.575 410.078 127.149 409.6 127.627C409.122 128.105 408.548 128.344 407.879 128.344ZM407.879 117.33C407.209 117.33 406.636 117.091 406.158 116.613C405.68 116.135 405.441 115.561 405.441 114.892C405.441 114.184 405.68 113.601 406.158 113.142C406.636 112.683 407.209 112.453 407.879 112.453C408.548 112.453 409.122 112.683 409.6 113.142C410.078 113.601 410.317 114.184 410.317 114.892C410.317 115.561 410.078 116.135 409.6 116.613C409.122 117.091 408.548 117.33 407.879 117.33ZM420.774 124.443H425.363V112.281L420.774 115.551V111.363L425.621 107.921H429.666V124.443H433.395V128H420.774V124.443ZM442.427 128.344C440.515 128.344 438.975 127.933 437.809 127.111C436.642 126.289 435.935 125.007 435.686 123.267H439.702C439.893 123.764 440.199 124.137 440.62 124.386C441.06 124.615 441.71 124.73 442.57 124.73C443.087 124.73 443.565 124.654 444.004 124.501C444.463 124.328 444.865 124.032 445.209 123.611C445.553 123.172 445.831 122.579 446.041 121.833C446.251 121.087 446.385 120.131 446.442 118.965C446.194 119.347 445.888 119.672 445.525 119.94C445.161 120.188 444.76 120.399 444.32 120.571C443.899 120.724 443.45 120.839 442.972 120.915C442.513 120.992 442.044 121.03 441.566 121.03C439.539 121.03 437.981 120.485 436.891 119.395C435.801 118.286 435.256 116.727 435.256 114.719V114.404C435.256 113.39 435.438 112.463 435.801 111.622C436.164 110.78 436.661 110.063 437.292 109.47C437.943 108.858 438.717 108.39 439.616 108.065C440.515 107.74 441.499 107.577 442.57 107.577C445.113 107.577 447.064 108.323 448.422 109.815C449.779 111.306 450.458 113.735 450.458 117.1V117.645C450.458 119.577 450.257 121.221 449.856 122.579C449.454 123.917 448.89 125.017 448.164 125.877C447.456 126.738 446.605 127.369 445.611 127.771C444.635 128.153 443.574 128.344 442.427 128.344ZM442.857 117.703C443.89 117.703 444.693 117.416 445.266 116.842C445.859 116.268 446.156 115.523 446.156 114.605V114.318C446.156 113.419 445.85 112.673 445.238 112.081C444.645 111.488 443.851 111.191 442.857 111.191C441.824 111.191 441.012 111.488 440.419 112.081C439.845 112.654 439.558 113.4 439.558 114.318V114.605C439.558 115.523 439.845 116.268 440.419 116.842C441.012 117.416 441.824 117.703 442.857 117.703ZM452.753 124.873L459.78 118.821C460.431 118.248 460.985 117.75 461.444 117.33C461.903 116.89 462.276 116.488 462.563 116.125C462.85 115.762 463.05 115.408 463.165 115.064C463.299 114.719 463.366 114.347 463.366 113.945C463.366 113.123 463.136 112.463 462.677 111.966C462.219 111.45 461.54 111.191 460.641 111.191C459.608 111.191 458.796 111.478 458.203 112.052C457.629 112.606 457.342 113.572 457.342 114.949H453.04C453.04 112.673 453.68 110.876 454.962 109.556C456.262 108.237 458.155 107.577 460.641 107.577C461.807 107.577 462.821 107.74 463.681 108.065C464.561 108.371 465.297 108.811 465.89 109.384C466.483 109.939 466.923 110.608 467.209 111.392C467.515 112.176 467.668 113.027 467.668 113.945C467.668 114.633 467.544 115.293 467.296 115.924C467.047 116.536 466.703 117.129 466.263 117.703C465.842 118.276 465.345 118.84 464.771 119.395C464.198 119.93 463.586 120.466 462.936 121.001L458.805 124.443H467.955V128H452.753V124.873ZM473.537 128.344C472.868 128.344 472.294 128.105 471.816 127.627C471.338 127.149 471.099 126.575 471.099 125.906C471.099 125.199 471.338 124.615 471.816 124.156C472.294 123.697 472.868 123.468 473.537 123.468C474.207 123.468 474.78 123.697 475.258 124.156C475.736 124.615 475.975 125.199 475.975 125.906C475.975 126.575 475.736 127.149 475.258 127.627C474.78 128.105 474.207 128.344 473.537 128.344ZM479.262 124.443H483.851V112.281L479.262 115.551V111.363L484.109 107.921H488.154V124.443H491.883V128H479.262V124.443ZM501.775 128.344C500.513 128.344 499.394 128.163 498.419 127.799C497.444 127.436 496.622 126.872 495.952 126.107C495.283 125.323 494.767 124.328 494.403 123.124C494.059 121.919 493.887 120.485 493.887 118.821V118.248C493.887 116.335 494.088 114.71 494.489 113.371C494.891 112.014 495.455 110.905 496.182 110.044C496.908 109.184 497.769 108.562 498.763 108.18C499.777 107.778 500.876 107.577 502.062 107.577C503.917 107.577 505.418 107.969 506.565 108.753C507.713 109.537 508.411 110.838 508.659 112.654H504.643C504.261 111.679 503.353 111.191 501.919 111.191C501.364 111.191 500.848 111.277 500.37 111.45C499.911 111.602 499.5 111.899 499.136 112.339C498.792 112.759 498.515 113.343 498.304 114.088C498.094 114.834 497.96 115.79 497.903 116.957C498.151 116.574 498.457 116.259 498.821 116.01C499.184 115.743 499.576 115.532 499.997 115.379C500.437 115.207 500.886 115.083 501.345 115.006C501.823 114.93 502.301 114.892 502.779 114.892C504.806 114.892 506.365 115.446 507.454 116.555C508.544 117.645 509.089 119.194 509.089 121.202V121.517C509.089 122.531 508.908 123.458 508.544 124.3C508.181 125.141 507.674 125.868 507.024 126.48C506.393 127.073 505.628 127.531 504.73 127.857C503.831 128.182 502.846 128.344 501.775 128.344ZM501.488 124.73C502.521 124.73 503.324 124.443 503.898 123.87C504.49 123.277 504.787 122.521 504.787 121.604V121.317C504.787 120.399 504.49 119.653 503.898 119.079C503.324 118.506 502.521 118.219 501.488 118.219C500.456 118.219 499.643 118.506 499.05 119.079C498.476 119.653 498.19 120.399 498.19 121.317V121.604C498.19 122.521 498.476 123.277 499.05 123.87C499.643 124.443 500.456 124.73 501.488 124.73ZM519.416 128.344C518.211 128.344 517.121 128.21 516.146 127.943C515.19 127.656 514.377 127.264 513.708 126.767C513.057 126.25 512.551 125.638 512.187 124.931C511.843 124.204 511.671 123.401 511.671 122.521C511.671 121.393 512.015 120.389 512.704 119.51C513.392 118.611 514.415 117.98 515.773 117.617C514.759 117.291 513.918 116.727 513.249 115.924C512.579 115.121 512.245 114.165 512.245 113.056C512.245 112.253 512.398 111.516 512.704 110.847C513.029 110.178 513.497 109.604 514.109 109.126C514.721 108.629 515.467 108.247 516.346 107.979C517.245 107.711 518.268 107.577 519.416 107.577C520.563 107.577 521.576 107.711 522.456 107.979C523.355 108.247 524.11 108.629 524.722 109.126C525.353 109.604 525.822 110.178 526.128 110.847C526.453 111.516 526.615 112.253 526.615 113.056C526.615 114.165 526.281 115.111 525.611 115.895C524.942 116.66 524.091 117.234 523.058 117.617C525.793 118.458 527.16 120.093 527.16 122.521C527.16 123.401 526.979 124.204 526.615 124.931C526.271 125.638 525.764 126.25 525.095 126.767C524.445 127.264 523.642 127.656 522.686 127.943C521.729 128.21 520.639 128.344 519.416 128.344ZM519.416 124.73C520.601 124.73 521.471 124.501 522.026 124.042C522.58 123.583 522.858 122.961 522.858 122.177C522.858 121.317 522.533 120.638 521.882 120.141C521.251 119.624 520.429 119.29 519.416 119.137C518.402 119.29 517.57 119.624 516.92 120.141C516.289 120.638 515.974 121.317 515.974 122.177C515.974 122.961 516.26 123.583 516.834 124.042C517.408 124.501 518.268 124.73 519.416 124.73ZM519.416 116.211C520.276 116.058 520.974 115.762 521.509 115.322C522.045 114.863 522.313 114.232 522.313 113.429C522.313 112.683 522.054 112.128 521.538 111.765C521.041 111.383 520.333 111.191 519.416 111.191C518.517 111.191 517.809 111.383 517.293 111.765C516.796 112.128 516.547 112.683 516.547 113.429C516.547 114.232 516.805 114.863 517.322 115.322C517.857 115.762 518.555 116.058 519.416 116.211ZM532.894 128.344C532.224 128.344 531.651 128.105 531.173 127.627C530.694 127.149 530.455 126.575 530.455 125.906C530.455 125.199 530.694 124.615 531.173 124.156C531.651 123.697 532.224 123.468 532.894 123.468C533.563 123.468 534.137 123.697 534.615 124.156C535.093 124.615 535.332 125.199 535.332 125.906C535.332 126.575 535.093 127.149 534.615 127.627C534.137 128.105 533.563 128.344 532.894 128.344ZM538.618 124.443H543.207V112.281L538.618 115.551V111.363L543.466 107.921H547.51V124.443H551.239V128H538.618V124.443ZM560.988 128.344C559.898 128.344 558.875 128.172 557.919 127.828C556.982 127.465 556.169 126.881 555.481 126.078C554.792 125.256 554.247 124.185 553.846 122.866C553.444 121.527 553.243 119.892 553.243 117.961V117.387C553.243 115.59 553.444 114.069 553.846 112.826C554.247 111.583 554.792 110.579 555.481 109.815C556.169 109.031 556.982 108.466 557.919 108.122C558.875 107.759 559.898 107.577 560.988 107.577C562.078 107.577 563.091 107.759 564.028 108.122C564.984 108.466 565.807 109.031 566.495 109.815C567.184 110.579 567.729 111.583 568.13 112.826C568.532 114.069 568.732 115.59 568.732 117.387V117.961C568.732 119.892 568.532 121.527 568.13 122.866C567.729 124.185 567.184 125.256 566.495 126.078C565.807 126.881 564.984 127.465 564.028 127.828C563.091 128.172 562.078 128.344 560.988 128.344ZM560.988 124.73C561.466 124.73 561.915 124.634 562.336 124.443C562.757 124.252 563.12 123.908 563.426 123.411C563.751 122.894 564 122.196 564.172 121.317C564.344 120.437 564.43 119.318 564.43 117.961V117.387C564.43 116.163 564.344 115.159 564.172 114.375C564 113.572 563.751 112.941 563.426 112.482C563.12 112.004 562.757 111.669 562.336 111.478C561.915 111.287 561.466 111.191 560.988 111.191C560.491 111.191 560.032 111.287 559.611 111.478C559.21 111.669 558.846 112.004 558.521 112.482C558.215 112.941 557.976 113.572 557.804 114.375C557.632 115.159 557.546 116.163 557.546 117.387V117.961C557.546 119.318 557.632 120.437 557.804 121.317C557.976 122.196 558.215 122.894 558.521 123.411C558.846 123.908 559.21 124.252 559.611 124.443C560.032 124.634 560.491 124.73 560.988 124.73ZM574.603 128.344C573.933 128.344 573.36 128.105 572.882 127.627C572.403 127.149 572.164 126.575 572.164 125.906C572.164 125.199 572.403 124.615 572.882 124.156C573.36 123.697 573.933 123.468 574.603 123.468C575.272 123.468 575.846 123.697 576.324 124.156C576.802 124.615 577.041 125.199 577.041 125.906C577.041 126.575 576.802 127.149 576.324 127.627C575.846 128.105 575.272 128.344 574.603 128.344ZM580.327 124.443H584.916V112.281L580.327 115.551V111.363L585.175 107.921H589.219V124.443H592.948V128H580.327V124.443ZM594.809 124.443H599.398V112.281L594.809 115.551V111.363L599.656 107.921H603.701V124.443H607.43V128H594.809V124.443Z" fill="black"/>
<path d="M1367.94 813.959L1376.6 798.959L1359.28 798.959L1367.94 813.959ZM1366.44 743.322L1366.44 800.459L1369.44 800.459L1369.44 743.322L1366.44 743.322Z" fill="black"/>
<rect x="1245.58" y="813.959" width="244.727" height="59.3633" fill="#F3F3F3"/>
<path d="M1273.23 850.584H1277.82V838.422L1273.23 841.692V837.504L1278.08 834.062H1282.13V850.584H1285.85V854.141H1273.23V850.584ZM1294.89 854.485C1292.97 854.485 1291.44 854.074 1290.27 853.251C1289.1 852.429 1288.39 851.148 1288.15 849.408H1292.16C1292.35 849.905 1292.66 850.278 1293.08 850.526C1293.52 850.756 1294.17 850.871 1295.03 850.871C1295.55 850.871 1296.02 850.794 1296.46 850.641C1296.92 850.469 1297.33 850.173 1297.67 849.752C1298.01 849.312 1298.29 848.719 1298.5 847.974C1298.71 847.228 1298.85 846.272 1298.9 845.105C1298.65 845.488 1298.35 845.813 1297.98 846.081C1297.62 846.329 1297.22 846.539 1296.78 846.712C1296.36 846.865 1295.91 846.979 1295.43 847.056C1294.97 847.132 1294.5 847.17 1294.03 847.17C1292 847.17 1290.44 846.625 1289.35 845.536C1288.26 844.426 1287.72 842.868 1287.72 840.86V840.545C1287.72 839.531 1287.9 838.604 1288.26 837.762C1288.62 836.921 1289.12 836.204 1289.75 835.611C1290.4 834.999 1291.18 834.531 1292.08 834.205C1292.97 833.88 1293.96 833.718 1295.03 833.718C1297.57 833.718 1299.52 834.464 1300.88 835.955C1302.24 837.447 1302.92 839.875 1302.92 843.241V843.786C1302.92 845.717 1302.72 847.362 1302.32 848.719C1301.91 850.058 1301.35 851.158 1300.62 852.018C1299.92 852.879 1299.07 853.51 1298.07 853.911C1297.1 854.294 1296.03 854.485 1294.89 854.485ZM1295.32 843.843C1296.35 843.843 1297.15 843.556 1297.73 842.983C1298.32 842.409 1298.62 841.663 1298.62 840.745V840.459C1298.62 839.56 1298.31 838.814 1297.7 838.221C1297.11 837.628 1296.31 837.332 1295.32 837.332C1294.28 837.332 1293.47 837.628 1292.88 838.221C1292.31 838.795 1292.02 839.541 1292.02 840.459V840.745C1292.02 841.663 1292.31 842.409 1292.88 842.983C1293.47 843.556 1294.28 843.843 1295.32 843.843ZM1305.21 851.014L1312.24 844.962C1312.89 844.388 1313.45 843.891 1313.9 843.47C1314.36 843.03 1314.74 842.629 1315.02 842.266C1315.31 841.902 1315.51 841.548 1315.63 841.204C1315.76 840.86 1315.83 840.487 1315.83 840.086C1315.83 839.263 1315.6 838.604 1315.14 838.106C1314.68 837.59 1314 837.332 1313.1 837.332C1312.07 837.332 1311.26 837.619 1310.66 838.192C1310.09 838.747 1309.8 839.713 1309.8 841.09H1305.5C1305.5 838.814 1306.14 837.016 1307.42 835.697C1308.72 834.378 1310.62 833.718 1313.1 833.718C1314.27 833.718 1315.28 833.88 1316.14 834.205C1317.02 834.511 1317.76 834.951 1318.35 835.525C1318.94 836.079 1319.38 836.749 1319.67 837.533C1319.98 838.317 1320.13 839.168 1320.13 840.086C1320.13 840.774 1320 841.434 1319.76 842.065C1319.51 842.677 1319.16 843.27 1318.72 843.843C1318.3 844.417 1317.81 844.981 1317.23 845.536C1316.66 846.071 1316.05 846.606 1315.4 847.142L1311.27 850.584H1320.42V854.141H1305.21V851.014ZM1329.58 844.331H1338.76V847.888H1329.58V844.331ZM1348.08 850.584H1352.67V838.422L1348.08 841.692V837.504L1352.93 834.062H1356.97V850.584H1360.7V854.141H1348.08V850.584ZM1362.13 851.014L1369.16 844.962C1369.81 844.388 1370.36 843.891 1370.82 843.47C1371.28 843.03 1371.66 842.629 1371.94 842.266C1372.23 841.902 1372.43 841.548 1372.54 841.204C1372.68 840.86 1372.75 840.487 1372.75 840.086C1372.75 839.263 1372.52 838.604 1372.06 838.106C1371.6 837.59 1370.92 837.332 1370.02 837.332C1368.99 837.332 1368.17 837.619 1367.58 838.192C1367.01 838.747 1366.72 839.713 1366.72 841.09H1362.42C1362.42 838.814 1363.06 837.016 1364.34 835.697C1365.64 834.378 1367.53 833.718 1370.02 833.718C1371.19 833.718 1372.2 833.88 1373.06 834.205C1373.94 834.511 1374.68 834.951 1375.27 835.525C1375.86 836.079 1376.3 836.749 1376.59 837.533C1376.89 838.317 1377.05 839.168 1377.05 840.086C1377.05 840.774 1376.92 841.434 1376.67 842.065C1376.43 842.677 1376.08 843.27 1375.64 843.843C1375.22 844.417 1374.72 844.981 1374.15 845.536C1373.58 846.071 1372.97 846.606 1372.31 847.142L1368.18 850.584H1377.33V854.141H1362.13V851.014ZM1387.51 854.485C1386.3 854.485 1385.21 854.351 1384.24 854.083C1383.28 853.796 1382.47 853.404 1381.8 852.907C1381.15 852.391 1380.64 851.779 1380.28 851.071C1379.93 850.345 1379.76 849.542 1379.76 848.662C1379.76 847.534 1380.11 846.53 1380.79 845.65C1381.48 844.751 1382.51 844.12 1383.86 843.757C1382.85 843.432 1382.01 842.868 1381.34 842.065C1380.67 841.262 1380.34 840.306 1380.34 839.196C1380.34 838.393 1380.49 837.657 1380.79 836.988C1381.12 836.318 1381.59 835.745 1382.2 835.267C1382.81 834.77 1383.56 834.387 1384.44 834.119C1385.34 833.852 1386.36 833.718 1387.51 833.718C1388.65 833.718 1389.67 833.852 1390.55 834.119C1391.45 834.387 1392.2 834.77 1392.81 835.267C1393.44 835.745 1393.91 836.318 1394.22 836.988C1394.54 837.657 1394.71 838.393 1394.71 839.196C1394.71 840.306 1394.37 841.252 1393.7 842.036C1393.03 842.801 1392.18 843.375 1391.15 843.757C1393.88 844.599 1395.25 846.233 1395.25 848.662C1395.25 849.542 1395.07 850.345 1394.71 851.071C1394.36 851.779 1393.85 852.391 1393.19 852.907C1392.54 853.404 1391.73 853.796 1390.78 854.083C1389.82 854.351 1388.73 854.485 1387.51 854.485ZM1387.51 850.871C1388.69 850.871 1389.56 850.641 1390.12 850.182C1390.67 849.723 1390.95 849.102 1390.95 848.318C1390.95 847.457 1390.62 846.778 1389.97 846.281C1389.34 845.765 1388.52 845.43 1387.51 845.277C1386.49 845.43 1385.66 845.765 1385.01 846.281C1384.38 846.778 1384.06 847.457 1384.06 848.318C1384.06 849.102 1384.35 849.723 1384.92 850.182C1385.5 850.641 1386.36 850.871 1387.51 850.871ZM1387.51 842.352C1388.37 842.199 1389.06 841.902 1389.6 841.462C1390.14 841.003 1390.4 840.372 1390.4 839.569C1390.4 838.824 1390.15 838.269 1389.63 837.906C1389.13 837.523 1388.42 837.332 1387.51 837.332C1386.61 837.332 1385.9 837.523 1385.38 837.906C1384.89 838.269 1384.64 838.824 1384.64 839.569C1384.64 840.372 1384.9 841.003 1385.41 841.462C1385.95 841.902 1386.65 842.199 1387.51 842.352ZM1404.86 845.478H1418.91V849.035H1404.86V845.478ZM1404.86 838.594H1418.91V842.151H1404.86V838.594ZM1436.56 854.485C1435.3 854.485 1434.18 854.303 1433.2 853.94C1432.23 853.577 1431.41 853.012 1430.74 852.248C1430.07 851.463 1429.55 850.469 1429.19 849.264C1428.84 848.06 1428.67 846.625 1428.67 844.962V844.388C1428.67 842.476 1428.87 840.851 1429.28 839.512C1429.68 838.154 1430.24 837.045 1430.97 836.185C1431.69 835.324 1432.55 834.703 1433.55 834.32C1434.56 833.919 1435.66 833.718 1436.85 833.718C1438.7 833.718 1440.2 834.11 1441.35 834.894C1442.5 835.678 1443.2 836.978 1443.44 838.795H1439.43C1439.05 837.82 1438.14 837.332 1436.7 837.332C1436.15 837.332 1435.63 837.418 1435.16 837.59C1434.7 837.743 1434.29 838.04 1433.92 838.479C1433.58 838.9 1433.3 839.483 1433.09 840.229C1432.88 840.975 1432.75 841.931 1432.69 843.097C1432.94 842.715 1433.24 842.399 1433.61 842.151C1433.97 841.883 1434.36 841.673 1434.78 841.52C1435.22 841.348 1435.67 841.223 1436.13 841.147C1436.61 841.07 1437.09 841.032 1437.56 841.032C1439.59 841.032 1441.15 841.587 1442.24 842.696C1443.33 843.786 1443.88 845.335 1443.88 847.343V847.658C1443.88 848.672 1443.69 849.599 1443.33 850.44C1442.97 851.282 1442.46 852.008 1441.81 852.62C1441.18 853.213 1440.41 853.672 1439.52 853.997C1438.62 854.322 1437.63 854.485 1436.56 854.485ZM1436.27 850.871C1437.31 850.871 1438.11 850.584 1438.68 850.01C1439.28 849.417 1439.57 848.662 1439.57 847.744V847.457C1439.57 846.539 1439.28 845.794 1438.68 845.22C1438.11 844.646 1437.31 844.359 1436.27 844.359C1435.24 844.359 1434.43 844.646 1433.84 845.22C1433.26 845.794 1432.98 846.539 1432.98 847.457V847.744C1432.98 848.662 1433.26 849.417 1433.84 850.01C1434.43 850.584 1435.24 850.871 1436.27 850.871ZM1455.21 849.895H1445.74V846.912L1455.21 834.062H1459.51V846.339H1461.8V849.895H1459.51V854.141H1455.21V849.895ZM1455.21 846.339V838.852L1449.76 846.339H1455.21Z" fill="black"/>
<rect x="1245.58" y="813.959" width="244.727" height="59.3633" stroke="#DADADA" stroke-width="2"/>
</svg>
