<svg width="1551" height="974" viewBox="0 0 1551 974" fill="none" xmlns="http://www.w3.org/2000/svg">
<rect x="407.691" y="442.748" width="104.135" height="109.408" fill="#D0643B"/>
<path d="M453.81 504.394H458.399V492.233L453.81 495.502V491.315L458.657 487.873H462.702V504.394H466.43V507.951H453.81V504.394Z" fill="white"/>
<rect x="407.691" y="442.748" width="104.135" height="109.408" stroke="#D0643B" stroke-width="1.31816"/>
<rect x="511.826" y="442.748" width="104.135" height="109.408" fill="#F7F7F7"/>
<path d="M563.9 508.295C562.81 508.295 561.787 508.123 560.83 507.779C559.893 507.416 559.081 506.833 558.392 506.029C557.704 505.207 557.159 504.136 556.757 502.817C556.356 501.478 556.155 499.843 556.155 497.912V497.338C556.155 495.541 556.356 494.02 556.757 492.778C557.159 491.535 557.704 490.531 558.392 489.766C559.081 488.982 559.893 488.418 560.83 488.073C561.787 487.71 562.81 487.528 563.9 487.528C564.99 487.528 566.003 487.71 566.94 488.073C567.896 488.418 568.718 488.982 569.407 489.766C570.095 490.531 570.64 491.535 571.042 492.778C571.443 494.02 571.644 495.541 571.644 497.338V497.912C571.644 499.843 571.443 501.478 571.042 502.817C570.64 504.136 570.095 505.207 569.407 506.029C568.718 506.833 567.896 507.416 566.94 507.779C566.003 508.123 564.99 508.295 563.9 508.295ZM563.9 504.681C564.378 504.681 564.827 504.586 565.248 504.394C565.668 504.203 566.032 503.859 566.338 503.362C566.663 502.845 566.911 502.148 567.083 501.268C567.256 500.388 567.342 499.27 567.342 497.912V497.338C567.342 496.114 567.256 495.11 567.083 494.326C566.911 493.523 566.663 492.892 566.338 492.433C566.032 491.955 565.668 491.621 565.248 491.429C564.827 491.238 564.378 491.143 563.9 491.143C563.402 491.143 562.943 491.238 562.523 491.429C562.121 491.621 561.758 491.955 561.433 492.433C561.127 492.892 560.888 493.523 560.716 494.326C560.544 495.11 560.458 496.114 560.458 497.338V497.912C560.458 499.27 560.544 500.388 560.716 501.268C560.888 502.148 561.127 502.845 561.433 503.362C561.758 503.859 562.121 504.203 562.523 504.394C562.943 504.586 563.402 504.681 563.9 504.681Z" fill="black"/>
<rect x="511.826" y="442.748" width="104.135" height="109.408" stroke="#DADADA" stroke-width="2"/>
<rect x="615.961" y="442.748" width="104.135" height="109.408" fill="#D0643B"/>
<path d="M662.079 504.394H666.669V492.233L662.079 495.502V491.315L666.927 487.873H670.971V504.394H674.7V507.951H662.079V504.394Z" fill="white"/>
<rect x="615.961" y="442.748" width="104.135" height="109.408" stroke="#D0643B" stroke-width="1.31816"/>
<rect x="720.096" y="442.748" width="104.135" height="109.408" fill="#F7F7F7"/>
<path d="M772.169 508.295C771.079 508.295 770.056 508.123 769.1 507.779C768.163 507.416 767.35 506.833 766.662 506.029C765.973 505.207 765.428 504.136 765.027 502.817C764.625 501.478 764.425 499.843 764.425 497.912V497.338C764.425 495.541 764.625 494.02 765.027 492.778C765.428 491.535 765.973 490.531 766.662 489.766C767.35 488.982 768.163 488.418 769.1 488.073C770.056 487.71 771.079 487.528 772.169 487.528C773.259 487.528 774.273 487.71 775.21 488.073C776.166 488.418 776.988 488.982 777.676 489.766C778.365 490.531 778.91 491.535 779.311 492.778C779.713 494.02 779.914 495.541 779.914 497.338V497.912C779.914 499.843 779.713 501.478 779.311 502.817C778.91 504.136 778.365 505.207 777.676 506.029C776.988 506.833 776.166 507.416 775.21 507.779C774.273 508.123 773.259 508.295 772.169 508.295ZM772.169 504.681C772.647 504.681 773.097 504.586 773.517 504.394C773.938 504.203 774.301 503.859 774.607 503.362C774.932 502.845 775.181 502.148 775.353 501.268C775.525 500.388 775.611 499.27 775.611 497.912V497.338C775.611 496.114 775.525 495.11 775.353 494.326C775.181 493.523 774.932 492.892 774.607 492.433C774.301 491.955 773.938 491.621 773.517 491.429C773.097 491.238 772.647 491.143 772.169 491.143C771.672 491.143 771.213 491.238 770.792 491.429C770.391 491.621 770.027 491.955 769.702 492.433C769.396 492.892 769.157 493.523 768.985 494.326C768.813 495.11 768.727 496.114 768.727 497.338V497.912C768.727 499.27 768.813 500.388 768.985 501.268C769.157 502.148 769.396 502.845 769.702 503.362C770.027 503.859 770.391 504.203 770.792 504.394C771.213 504.586 771.672 504.681 772.169 504.681Z" fill="black"/>
<rect x="720.096" y="442.748" width="104.135" height="109.408" stroke="#DADADA" stroke-width="2"/>
<rect x="824.23" y="442.748" width="104.135" height="109.408" fill="#F7F7F7"/>
<rect x="824.23" y="442.748" width="104.135" height="109.408" stroke="#DADADA" stroke-width="2"/>
<rect x="928.365" y="442.748" width="104.135" height="109.408" fill="#F7F7F7"/>
<rect x="928.365" y="442.748" width="104.135" height="109.408" stroke="#DADADA" stroke-width="2"/>
<rect x="1032.5" y="442.748" width="104.135" height="109.408" fill="#F7F7F7"/>
<rect x="1032.5" y="442.748" width="104.135" height="109.408" stroke="#DADADA" stroke-width="2"/>
<rect x="1136.63" y="442.748" width="104.135" height="109.408" fill="#F7F7F7"/>
<rect x="1136.63" y="442.748" width="104.135" height="109.408" stroke="#DADADA" stroke-width="2"/>
<rect x="407.547" y="333.34" width="104.135" height="109.408" fill="#F7F7F7"/>
<path d="M435.906 394.986H440.495V382.824L435.906 386.094V381.906L440.754 378.464H444.798V394.986H448.527V398.543H435.906V394.986ZM449.958 395.416L456.985 389.364C457.635 388.791 458.19 388.293 458.649 387.873C459.108 387.433 459.481 387.031 459.767 386.668C460.054 386.305 460.255 385.951 460.37 385.607C460.504 385.262 460.571 384.89 460.571 384.488C460.571 383.666 460.341 383.006 459.882 382.509C459.423 381.992 458.744 381.734 457.846 381.734C456.813 381.734 456 382.021 455.408 382.595C454.834 383.149 454.547 384.115 454.547 385.492H450.244C450.244 383.216 450.885 381.419 452.166 380.099C453.467 378.78 455.36 378.12 457.846 378.12C459.012 378.12 460.026 378.283 460.886 378.608C461.766 378.914 462.502 379.354 463.095 379.927C463.688 380.482 464.127 381.151 464.414 381.935C464.72 382.719 464.873 383.57 464.873 384.488C464.873 385.176 464.749 385.836 464.5 386.467C464.252 387.079 463.907 387.672 463.468 388.246C463.047 388.819 462.55 389.383 461.976 389.938C461.402 390.473 460.791 391.009 460.14 391.544L456.01 394.986H465.16V398.543H449.958V395.416ZM475.332 398.887C474.127 398.887 473.037 398.753 472.062 398.486C471.105 398.199 470.293 397.807 469.623 397.31C468.973 396.793 468.467 396.181 468.103 395.474C467.759 394.747 467.587 393.944 467.587 393.064C467.587 391.936 467.931 390.932 468.62 390.053C469.308 389.154 470.331 388.523 471.689 388.159C470.675 387.834 469.834 387.27 469.165 386.467C468.495 385.664 468.161 384.708 468.161 383.599C468.161 382.796 468.314 382.059 468.62 381.39C468.945 380.721 469.413 380.147 470.025 379.669C470.637 379.172 471.383 378.789 472.262 378.522C473.161 378.254 474.184 378.12 475.332 378.12C476.479 378.12 477.492 378.254 478.372 378.522C479.271 378.789 480.026 379.172 480.638 379.669C481.269 380.147 481.738 380.721 482.043 381.39C482.369 382.059 482.531 382.796 482.531 383.599C482.531 384.708 482.196 385.654 481.527 386.438C480.858 387.203 480.007 387.777 478.974 388.159C481.709 389.001 483.076 390.636 483.076 393.064C483.076 393.944 482.894 394.747 482.531 395.474C482.187 396.181 481.68 396.793 481.011 397.31C480.361 397.807 479.558 398.199 478.601 398.486C477.645 398.753 476.555 398.887 475.332 398.887ZM475.332 395.273C476.517 395.273 477.387 395.044 477.942 394.585C478.496 394.126 478.774 393.504 478.774 392.72C478.774 391.86 478.448 391.181 477.798 390.684C477.167 390.167 476.345 389.833 475.332 389.68C474.318 389.833 473.486 390.167 472.836 390.684C472.205 391.181 471.889 391.86 471.889 392.72C471.889 393.504 472.176 394.126 472.75 394.585C473.324 395.044 474.184 395.273 475.332 395.273ZM475.332 386.754C476.192 386.601 476.89 386.305 477.425 385.865C477.961 385.406 478.229 384.775 478.229 383.972C478.229 383.226 477.97 382.671 477.454 382.308C476.957 381.926 476.249 381.734 475.332 381.734C474.433 381.734 473.725 381.926 473.209 382.308C472.712 382.671 472.463 383.226 472.463 383.972C472.463 384.775 472.721 385.406 473.238 385.865C473.773 386.305 474.471 386.601 475.332 386.754Z" fill="black"/>
<rect x="407.547" y="333.34" width="104.135" height="109.408" stroke="#DADADA" stroke-width="2"/>
<rect x="511.682" y="333.34" width="104.135" height="109.408" fill="#F7F7F7"/>
<path d="M555.072 398.887C553.81 398.887 552.691 398.706 551.716 398.342C550.741 397.979 549.919 397.415 549.249 396.65C548.58 395.866 548.064 394.871 547.7 393.667C547.356 392.462 547.184 391.028 547.184 389.364V388.791C547.184 386.878 547.385 385.253 547.787 383.914C548.188 382.557 548.752 381.447 549.479 380.587C550.206 379.726 551.066 379.105 552.06 378.723C553.074 378.321 554.173 378.12 555.359 378.12C557.214 378.12 558.715 378.512 559.862 379.296C561.01 380.08 561.708 381.381 561.956 383.197H557.941C557.558 382.222 556.65 381.734 555.216 381.734C554.661 381.734 554.145 381.82 553.667 381.992C553.208 382.145 552.797 382.442 552.433 382.882C552.089 383.302 551.812 383.886 551.601 384.631C551.391 385.377 551.257 386.333 551.2 387.5C551.448 387.117 551.754 386.802 552.118 386.553C552.481 386.285 552.873 386.075 553.294 385.922C553.734 385.75 554.183 385.626 554.642 385.549C555.12 385.473 555.598 385.435 556.076 385.435C558.103 385.435 559.662 385.989 560.752 387.098C561.842 388.188 562.387 389.737 562.387 391.745V392.06C562.387 393.074 562.205 394.001 561.842 394.843C561.478 395.684 560.971 396.411 560.321 397.023C559.69 397.616 558.925 398.074 558.027 398.4C557.128 398.725 556.143 398.887 555.072 398.887ZM554.785 395.273C555.818 395.273 556.621 394.986 557.195 394.413C557.788 393.82 558.084 393.064 558.084 392.147V391.86C558.084 390.942 557.788 390.196 557.195 389.622C556.621 389.049 555.818 388.762 554.785 388.762C553.753 388.762 552.94 389.049 552.347 389.622C551.774 390.196 551.487 390.942 551.487 391.86V392.147C551.487 393.064 551.774 393.82 552.347 394.413C552.94 394.986 553.753 395.273 554.785 395.273ZM573.717 394.298H564.251V391.315L573.717 378.464H578.019V390.741H580.314V394.298H578.019V398.543H573.717V394.298ZM573.717 390.741V383.255L568.267 390.741H573.717Z" fill="black"/>
<rect x="511.682" y="333.34" width="104.135" height="109.408" stroke="#DADADA" stroke-width="2"/>
<rect x="615.816" y="333.34" width="104.135" height="109.408" fill="#F7F7F7"/>
<path d="M658.846 398.887C656.399 398.887 654.544 398.313 653.282 397.166C652.02 396 651.389 394.403 651.389 392.376H655.691C655.691 393.351 655.94 394.078 656.437 394.556C656.953 395.034 657.756 395.273 658.846 395.273C659.898 395.273 660.682 395.044 661.199 394.585C661.734 394.107 662.002 393.437 662.002 392.577C662.002 390.779 660.95 389.88 658.846 389.88H656.982V386.553H658.846C659.764 386.553 660.472 386.362 660.969 385.98C661.466 385.597 661.715 385.004 661.715 384.201C661.715 383.474 661.476 382.882 660.998 382.423C660.52 381.964 659.803 381.734 658.846 381.734C657.871 381.734 657.145 381.964 656.666 382.423C656.208 382.863 655.978 383.503 655.978 384.345H651.676C651.676 382.375 652.268 380.845 653.454 379.755C654.659 378.665 656.456 378.12 658.846 378.12C660.051 378.12 661.103 378.264 662.002 378.55C662.9 378.818 663.646 379.201 664.239 379.698C664.832 380.176 665.272 380.75 665.558 381.419C665.864 382.088 666.017 382.815 666.017 383.599C666.017 384.708 665.702 385.654 665.071 386.438C664.459 387.203 663.637 387.748 662.604 388.073C663.79 388.399 664.698 388.963 665.329 389.766C665.979 390.569 666.304 391.63 666.304 392.95C666.304 393.81 666.132 394.604 665.788 395.33C665.444 396.057 664.947 396.688 664.296 397.224C663.665 397.74 662.881 398.151 661.944 398.457C661.026 398.744 659.994 398.887 658.846 398.887ZM668.612 395.416L675.64 389.364C676.29 388.791 676.845 388.293 677.304 387.873C677.762 387.433 678.135 387.031 678.422 386.668C678.709 386.305 678.91 385.951 679.025 385.607C679.158 385.262 679.225 384.89 679.225 384.488C679.225 383.666 678.996 383.006 678.537 382.509C678.078 381.992 677.399 381.734 676.5 381.734C675.468 381.734 674.655 382.021 674.062 382.595C673.489 383.149 673.202 384.115 673.202 385.492H668.899C668.899 383.216 669.54 381.419 670.821 380.099C672.121 378.78 674.014 378.12 676.5 378.12C677.667 378.12 678.68 378.283 679.541 378.608C680.42 378.914 681.157 379.354 681.749 379.927C682.342 380.482 682.782 381.151 683.069 381.935C683.375 382.719 683.528 383.57 683.528 384.488C683.528 385.176 683.404 385.836 683.155 386.467C682.906 387.079 682.562 387.672 682.122 388.246C681.702 388.819 681.204 389.383 680.631 389.938C680.057 390.473 679.445 391.009 678.795 391.544L674.665 394.986H683.815V398.543H668.612V395.416Z" fill="black"/>
<rect x="615.816" y="333.34" width="104.135" height="109.408" stroke="#DADADA" stroke-width="2"/>
<rect x="719.951" y="333.34" width="104.135" height="109.408" fill="#F7F7F7"/>
<path d="M756.81 394.986H761.4V382.824L756.81 386.094V381.906L761.658 378.464H765.702V394.986H769.431V398.543H756.81V394.986ZM779.324 398.887C778.062 398.887 776.943 398.706 775.968 398.342C774.992 397.979 774.17 397.415 773.501 396.65C772.832 395.866 772.315 394.871 771.952 393.667C771.608 392.462 771.436 391.028 771.436 389.364V388.791C771.436 386.878 771.636 385.253 772.038 383.914C772.44 382.557 773.004 381.447 773.73 380.587C774.457 379.726 775.317 379.105 776.312 378.723C777.325 378.321 778.425 378.12 779.61 378.12C781.465 378.12 782.966 378.512 784.114 379.296C785.261 380.08 785.959 381.381 786.208 383.197H782.192C781.81 382.222 780.901 381.734 779.467 381.734C778.912 381.734 778.396 381.82 777.918 381.992C777.459 382.145 777.048 382.442 776.685 382.882C776.341 383.302 776.063 383.886 775.853 384.631C775.643 385.377 775.509 386.333 775.451 387.5C775.7 387.117 776.006 386.802 776.369 386.553C776.733 386.285 777.125 386.075 777.545 385.922C777.985 385.75 778.434 385.626 778.893 385.549C779.371 385.473 779.849 385.435 780.328 385.435C782.355 385.435 783.913 385.989 785.003 387.098C786.093 388.188 786.638 389.737 786.638 391.745V392.06C786.638 393.074 786.456 394.001 786.093 394.843C785.73 395.684 785.223 396.411 784.573 397.023C783.942 397.616 783.177 398.074 782.278 398.4C781.379 398.725 780.394 398.887 779.324 398.887ZM779.037 395.273C780.069 395.273 780.873 394.986 781.446 394.413C782.039 393.82 782.335 393.064 782.335 392.147V391.86C782.335 390.942 782.039 390.196 781.446 389.622C780.873 389.049 780.069 388.762 779.037 388.762C778.004 388.762 777.191 389.049 776.599 389.622C776.025 390.196 775.738 390.942 775.738 391.86V392.147C775.738 393.064 776.025 393.82 776.599 394.413C777.191 394.986 778.004 395.273 779.037 395.273Z" fill="black"/>
<rect x="719.951" y="333.34" width="104.135" height="109.408" stroke="#DADADA" stroke-width="2"/>
<rect x="824.086" y="333.34" width="104.135" height="109.408" fill="#F7F7F7"/>
<path d="M875.69 398.887C874.485 398.887 873.395 398.753 872.42 398.486C871.464 398.199 870.651 397.807 869.982 397.31C869.331 396.793 868.825 396.181 868.461 395.474C868.117 394.747 867.945 393.944 867.945 393.064C867.945 391.936 868.289 390.932 868.978 390.053C869.666 389.154 870.689 388.523 872.047 388.159C871.033 387.834 870.192 387.27 869.523 386.467C868.853 385.664 868.519 384.708 868.519 383.599C868.519 382.796 868.672 382.059 868.978 381.39C869.303 380.721 869.771 380.147 870.383 379.669C870.995 379.172 871.741 378.789 872.621 378.522C873.519 378.254 874.542 378.12 875.69 378.12C876.837 378.12 877.85 378.254 878.73 378.522C879.629 378.789 880.384 379.172 880.996 379.669C881.627 380.147 882.096 380.721 882.402 381.39C882.727 382.059 882.889 382.796 882.889 383.599C882.889 384.708 882.555 385.654 881.885 386.438C881.216 387.203 880.365 387.777 879.332 388.159C882.067 389.001 883.434 390.636 883.434 393.064C883.434 393.944 883.253 394.747 882.889 395.474C882.545 396.181 882.038 396.793 881.369 397.31C880.719 397.807 879.916 398.199 878.96 398.486C878.003 398.753 876.913 398.887 875.69 398.887ZM875.69 395.273C876.875 395.273 877.745 395.044 878.3 394.585C878.854 394.126 879.132 393.504 879.132 392.72C879.132 391.86 878.807 391.181 878.156 390.684C877.525 390.167 876.703 389.833 875.69 389.68C874.676 389.833 873.844 390.167 873.194 390.684C872.563 391.181 872.248 391.86 872.248 392.72C872.248 393.504 872.534 394.126 873.108 394.585C873.682 395.044 874.542 395.273 875.69 395.273ZM875.69 386.754C876.55 386.601 877.248 386.305 877.784 385.865C878.319 385.406 878.587 384.775 878.587 383.972C878.587 383.226 878.329 382.671 877.812 382.308C877.315 381.926 876.608 381.734 875.69 381.734C874.791 381.734 874.083 381.926 873.567 382.308C873.07 382.671 872.821 383.226 872.821 383.972C872.821 384.775 873.079 385.406 873.596 385.865C874.131 386.305 874.829 386.601 875.69 386.754Z" fill="black"/>
<rect x="824.086" y="333.34" width="104.135" height="109.408" stroke="#DADADA" stroke-width="2"/>
<rect x="928.221" y="333.34" width="104.135" height="109.408" fill="#F7F7F7"/>
<path d="M980.828 394.298H971.363V391.315L980.828 378.464H985.131V390.741H987.426V394.298H985.131V398.543H980.828V394.298ZM980.828 390.741V383.255L975.378 390.741H980.828Z" fill="black"/>
<rect x="928.221" y="333.34" width="104.135" height="109.408" stroke="#DADADA" stroke-width="2"/>
<rect x="1032.36" y="333.34" width="104.135" height="109.408" fill="#F7F7F7"/>
<path d="M1076.28 395.416L1083.31 389.364C1083.96 388.791 1084.52 388.293 1084.98 387.873C1085.43 387.433 1085.81 387.031 1086.09 386.668C1086.38 386.305 1086.58 385.951 1086.7 385.607C1086.83 385.262 1086.9 384.89 1086.9 384.488C1086.9 383.666 1086.67 383.006 1086.21 382.509C1085.75 381.992 1085.07 381.734 1084.17 381.734C1083.14 381.734 1082.33 382.021 1081.73 382.595C1081.16 383.149 1080.87 384.115 1080.87 385.492H1076.57C1076.57 383.216 1077.21 381.419 1078.49 380.099C1079.79 378.78 1081.69 378.12 1084.17 378.12C1085.34 378.12 1086.35 378.283 1087.21 378.608C1088.09 378.914 1088.83 379.354 1089.42 379.927C1090.01 380.482 1090.45 381.151 1090.74 381.935C1091.05 382.719 1091.2 383.57 1091.2 384.488C1091.2 385.176 1091.08 385.836 1090.83 386.467C1090.58 387.079 1090.23 387.672 1089.79 388.246C1089.37 388.819 1088.88 389.383 1088.3 389.938C1087.73 390.473 1087.12 391.009 1086.47 391.544L1082.34 394.986H1091.49V398.543H1076.28V395.416Z" fill="black"/>
<rect x="1032.36" y="333.34" width="104.135" height="109.408" stroke="#DADADA" stroke-width="2"/>
<rect x="1136.49" y="333.34" width="104.135" height="109.408" fill="#F7F7F7"/>
<path d="M1182.35 394.986H1186.94V382.824L1182.35 386.094V381.906L1187.2 378.464H1191.24V394.986H1194.97V398.543H1182.35V394.986Z" fill="black"/>
<rect x="1136.49" y="333.34" width="104.135" height="109.408" stroke="#DADADA" stroke-width="2"/>
<path d="M231.081 372.811H243.05V388.043H241.004V374.595H233.127V388.043H231.081V372.811ZM251.754 388.261C251.014 388.261 250.31 388.145 249.643 387.912C248.976 387.666 248.388 387.303 247.88 386.824C247.373 386.331 246.966 385.715 246.662 384.975C246.357 384.235 246.205 383.372 246.205 382.385V381.95C246.205 381.022 246.357 380.202 246.662 379.491C246.966 378.78 247.373 378.193 247.88 377.729C248.388 377.25 248.976 376.894 249.643 376.662C250.31 376.416 251.014 376.292 251.754 376.292C252.494 376.292 253.197 376.416 253.864 376.662C254.532 376.894 255.119 377.25 255.627 377.729C256.135 378.193 256.541 378.78 256.846 379.491C257.15 380.202 257.303 381.022 257.303 381.95V382.385C257.303 383.372 257.15 384.235 256.846 384.975C256.541 385.715 256.135 386.331 255.627 386.824C255.119 387.303 254.532 387.666 253.864 387.912C253.197 388.145 252.494 388.261 251.754 388.261ZM251.754 386.52C252.189 386.52 252.624 386.447 253.059 386.302C253.495 386.143 253.879 385.903 254.213 385.584C254.546 385.25 254.815 384.822 255.018 384.3C255.235 383.778 255.344 383.14 255.344 382.385V381.95C255.344 381.254 255.235 380.659 255.018 380.166C254.815 379.672 254.546 379.266 254.213 378.947C253.879 378.628 253.495 378.396 253.059 378.251C252.624 378.106 252.189 378.033 251.754 378.033C251.318 378.033 250.883 378.106 250.448 378.251C250.013 378.396 249.628 378.628 249.295 378.947C248.961 379.266 248.685 379.672 248.468 380.166C248.265 380.659 248.163 381.254 248.163 381.95V382.385C248.163 383.14 248.265 383.778 248.468 384.3C248.685 384.822 248.961 385.25 249.295 385.584C249.628 385.903 250.013 386.143 250.448 386.302C250.883 386.447 251.318 386.52 251.754 386.52ZM263.931 388.261C262.48 388.261 261.341 387.956 260.515 387.347C259.688 386.737 259.231 385.881 259.144 384.779H261.059C261.16 385.345 261.458 385.78 261.951 386.085C262.459 386.375 263.119 386.52 263.931 386.52C264.932 386.52 265.657 386.353 266.107 386.019C266.571 385.671 266.803 385.258 266.803 384.779C266.803 384.213 266.615 383.771 266.238 383.452C265.86 383.118 265.208 382.951 264.279 382.951H262.299V381.384H264.149C264.946 381.384 265.512 381.232 265.846 380.927C266.194 380.623 266.368 380.195 266.368 379.643C266.368 379.208 266.165 378.831 265.759 378.512C265.353 378.193 264.743 378.033 263.931 378.033C263.046 378.033 262.4 378.178 261.994 378.468C261.603 378.744 261.363 379.143 261.276 379.665H259.361C259.405 379.187 259.535 378.744 259.753 378.338C259.985 377.917 260.297 377.554 260.689 377.25C261.08 376.945 261.545 376.713 262.081 376.554C262.633 376.379 263.249 376.292 263.931 376.292C264.671 376.292 265.309 376.379 265.846 376.554C266.397 376.713 266.854 376.945 267.217 377.25C267.579 377.54 267.848 377.888 268.022 378.294C268.196 378.701 268.283 379.15 268.283 379.643C268.283 380.195 268.145 380.681 267.87 381.101C267.594 381.508 267.152 381.827 266.542 382.059C267.355 382.276 267.92 382.625 268.24 383.103C268.559 383.582 268.718 384.141 268.718 384.779C268.718 385.258 268.617 385.707 268.414 386.128C268.211 386.549 267.906 386.919 267.5 387.238C267.108 387.542 266.607 387.789 265.998 387.978C265.403 388.166 264.714 388.261 263.931 388.261ZM271.447 376.51H273.362V385.214L279.324 376.51H281.239V388.043H279.324V379.339L273.362 388.043H271.447V376.51ZM294.107 388.043H284.728V376.51H286.643V386.346H292.17V376.51H294.085V386.346H295.935V390.763H294.107V388.043ZM298.222 376.51H300.137V385.214L306.099 376.51H308.014V388.043H306.099V379.339L300.137 388.043H298.222V376.51ZM316.291 388.261C315.551 388.261 314.848 388.145 314.18 387.912C313.513 387.666 312.925 387.303 312.418 386.824C311.91 386.331 311.504 385.715 311.199 384.975C310.894 384.235 310.742 383.372 310.742 382.385V381.95C310.742 381.022 310.894 380.202 311.199 379.491C311.504 378.78 311.91 378.193 312.418 377.729C312.925 377.25 313.513 376.894 314.18 376.662C314.848 376.416 315.551 376.292 316.291 376.292C317.031 376.292 317.734 376.416 318.402 376.662C319.069 376.894 319.657 377.25 320.164 377.729C320.672 378.193 321.078 378.78 321.383 379.491C321.688 380.202 321.84 381.022 321.84 381.95V382.385C321.84 383.372 321.688 384.235 321.383 384.975C321.078 385.715 320.672 386.331 320.164 386.824C319.657 387.303 319.069 387.666 318.402 387.912C317.734 388.145 317.031 388.261 316.291 388.261ZM316.291 386.52C316.726 386.52 317.161 386.447 317.597 386.302C318.032 386.143 318.416 385.903 318.75 385.584C319.084 385.25 319.352 384.822 319.555 384.3C319.773 383.778 319.881 383.14 319.881 382.385V381.95C319.881 381.254 319.773 380.659 319.555 380.166C319.352 379.672 319.084 379.266 318.75 378.947C318.416 378.628 318.032 378.396 317.597 378.251C317.161 378.106 316.726 378.033 316.291 378.033C315.856 378.033 315.421 378.106 314.985 378.251C314.55 378.396 314.166 378.628 313.832 378.947C313.498 379.266 313.223 379.672 313.005 380.166C312.802 380.659 312.701 381.254 312.701 381.95V382.385C312.701 383.14 312.802 383.778 313.005 384.3C313.223 384.822 313.498 385.25 313.832 385.584C314.166 385.903 314.55 386.143 314.985 386.302C315.421 386.447 315.856 386.52 316.291 386.52ZM324.551 376.51H326.466V381.319H332.429V376.51H334.344V388.043H332.429V383.016H326.466V388.043H324.551V376.51ZM337.833 376.51H339.748V381.319H345.71V376.51H347.625V388.043H345.71V383.016H339.748V388.043H337.833V376.51ZM355.902 388.261C355.162 388.261 354.458 388.145 353.791 387.912C353.124 387.666 352.536 387.303 352.028 386.824C351.521 386.331 351.114 385.715 350.81 384.975C350.505 384.235 350.353 383.372 350.353 382.385V381.95C350.353 381.022 350.505 380.202 350.81 379.491C351.114 378.78 351.521 378.193 352.028 377.729C352.536 377.25 353.124 376.894 353.791 376.662C354.458 376.416 355.162 376.292 355.902 376.292C356.641 376.292 357.345 376.416 358.012 376.662C358.68 376.894 359.267 377.25 359.775 377.729C360.283 378.193 360.689 378.78 360.994 379.491C361.298 380.202 361.45 381.022 361.45 381.95V382.385C361.45 383.372 361.298 384.235 360.994 384.975C360.689 385.715 360.283 386.331 359.775 386.824C359.267 387.303 358.68 387.666 358.012 387.912C357.345 388.145 356.641 388.261 355.902 388.261ZM355.902 386.52C356.337 386.52 356.772 386.447 357.207 386.302C357.642 386.143 358.027 385.903 358.361 385.584C358.694 385.25 358.963 384.822 359.166 384.3C359.383 383.778 359.492 383.14 359.492 382.385V381.95C359.492 381.254 359.383 380.659 359.166 380.166C358.963 379.672 358.694 379.266 358.361 378.947C358.027 378.628 357.642 378.396 357.207 378.251C356.772 378.106 356.337 378.033 355.902 378.033C355.466 378.033 355.031 378.106 354.596 378.251C354.161 378.396 353.776 378.628 353.443 378.947C353.109 379.266 352.833 379.672 352.616 380.166C352.413 380.659 352.311 381.254 352.311 381.95V382.385C352.311 383.14 352.413 383.778 352.616 384.3C352.833 384.822 353.109 385.25 353.443 385.584C353.776 385.903 354.161 386.143 354.596 386.302C355.031 386.447 355.466 386.52 355.902 386.52ZM368.949 388.261C368.209 388.261 367.506 388.145 366.839 387.912C366.171 387.68 365.584 387.325 365.076 386.846C364.568 386.353 364.162 385.736 363.857 384.997C363.553 384.257 363.4 383.386 363.4 382.385V381.95C363.4 380.993 363.545 380.166 363.836 379.469C364.126 378.759 364.51 378.171 364.989 377.707C365.482 377.228 366.048 376.873 366.686 376.641C367.339 376.408 368.021 376.292 368.732 376.292C370.429 376.292 371.742 376.757 372.67 377.685C373.599 378.613 374.063 379.926 374.063 381.624V382.842H365.315C365.315 383.524 365.424 384.097 365.642 384.561C365.859 385.026 366.142 385.403 366.49 385.693C366.839 385.983 367.223 386.193 367.644 386.324C368.079 386.454 368.514 386.52 368.949 386.52C369.82 386.52 370.487 386.375 370.951 386.085C371.43 385.794 371.771 385.395 371.974 384.888H373.845C373.729 385.439 373.519 385.925 373.214 386.346C372.924 386.766 372.562 387.122 372.126 387.412C371.706 387.688 371.22 387.898 370.668 388.043C370.132 388.188 369.559 388.261 368.949 388.261ZM368.841 378.033C368.391 378.033 367.956 378.098 367.535 378.229C367.114 378.345 366.737 378.541 366.403 378.817C366.084 379.078 365.823 379.411 365.62 379.818C365.417 380.224 365.315 380.71 365.315 381.275H372.257C372.242 380.681 372.141 380.18 371.952 379.774C371.778 379.353 371.539 379.02 371.234 378.773C370.93 378.512 370.567 378.323 370.146 378.207C369.74 378.091 369.305 378.033 368.841 378.033ZM257.184 412.261C255.733 412.261 254.595 411.956 253.768 411.347C252.941 410.737 252.484 409.881 252.397 408.779H254.312C254.413 409.345 254.711 409.78 255.204 410.085C255.712 410.375 256.372 410.52 257.184 410.52C258.185 410.52 258.91 410.353 259.36 410.019C259.824 409.671 260.056 409.258 260.056 408.779C260.056 408.213 259.868 407.771 259.491 407.452C259.113 407.118 258.461 406.951 257.532 406.951H255.552V405.384H257.402C258.199 405.384 258.765 405.232 259.099 404.927C259.447 404.623 259.621 404.195 259.621 403.643C259.621 403.208 259.418 402.831 259.012 402.512C258.606 402.193 257.996 402.033 257.184 402.033C256.299 402.033 255.654 402.178 255.247 402.468C254.856 402.744 254.616 403.143 254.529 403.665H252.614C252.658 403.187 252.788 402.744 253.006 402.338C253.238 401.917 253.55 401.554 253.942 401.25C254.333 400.945 254.798 400.713 255.334 400.554C255.886 400.379 256.502 400.292 257.184 400.292C257.924 400.292 258.562 400.379 259.099 400.554C259.65 400.713 260.107 400.945 260.47 401.25C260.832 401.54 261.101 401.888 261.275 402.294C261.449 402.701 261.536 403.15 261.536 403.643C261.536 404.195 261.398 404.681 261.123 405.101C260.847 405.508 260.405 405.827 259.795 406.059C260.608 406.276 261.173 406.625 261.493 407.103C261.812 407.582 261.971 408.141 261.971 408.779C261.971 409.258 261.87 409.707 261.667 410.128C261.464 410.549 261.159 410.919 260.753 411.238C260.361 411.542 259.861 411.789 259.251 411.978C258.656 412.166 257.967 412.261 257.184 412.261ZM264.7 400.51H266.615V405.319H272.577V400.51H274.492V412.043H272.577V407.016H266.615V412.043H264.7V400.51ZM281.267 412.261C280.629 412.261 280.063 412.174 279.57 411.999C279.091 411.811 278.685 411.557 278.351 411.238C278.018 410.919 277.764 410.542 277.59 410.106C277.416 409.671 277.328 409.192 277.328 408.67C277.328 407.524 277.662 406.697 278.329 406.189C279.011 405.682 279.983 405.428 281.245 405.428H284.988V404.644C284.988 403.658 284.763 402.976 284.314 402.599C283.878 402.222 283.218 402.033 282.333 402.033C281.506 402.033 280.904 402.193 280.527 402.512C280.15 402.817 279.94 403.165 279.896 403.556H277.981C278.01 403.092 278.134 402.664 278.351 402.273C278.583 401.866 278.888 401.518 279.265 401.228C279.657 400.938 280.121 400.713 280.658 400.554C281.195 400.379 281.789 400.292 282.442 400.292C283.806 400.292 284.887 400.619 285.684 401.272C286.497 401.91 286.903 402.962 286.903 404.427V409.105C286.903 409.715 286.903 410.251 286.903 410.716C286.918 411.165 286.954 411.608 287.012 412.043H285.336C285.293 411.709 285.264 411.397 285.249 411.107C285.235 410.803 285.227 410.462 285.227 410.085C284.923 410.694 284.43 411.209 283.748 411.63C283.066 412.05 282.239 412.261 281.267 412.261ZM281.681 410.52C282.13 410.52 282.551 410.462 282.943 410.346C283.349 410.215 283.704 410.034 284.009 409.802C284.314 409.555 284.553 409.258 284.727 408.909C284.901 408.561 284.988 408.155 284.988 407.691V406.908H281.572C280.861 406.908 280.302 407.053 279.896 407.343C279.49 407.618 279.287 408.061 279.287 408.67C279.287 409.207 279.475 409.649 279.853 409.997C280.244 410.346 280.854 410.52 281.681 410.52ZM296.966 407.452C296.632 407.655 296.226 407.836 295.747 407.996C295.283 408.155 294.695 408.235 293.984 408.235C293.317 408.235 292.715 408.162 292.178 408.017C291.656 407.872 291.214 407.64 290.851 407.321C290.488 407.002 290.213 406.588 290.024 406.081C289.836 405.573 289.741 404.949 289.741 404.209V400.51H291.656V403.883C291.656 404.376 291.7 404.79 291.787 405.123C291.888 405.457 292.048 405.725 292.265 405.928C292.483 406.131 292.759 406.276 293.092 406.364C293.426 406.451 293.832 406.494 294.311 406.494C294.964 406.494 295.522 406.429 295.986 406.298C296.451 406.168 296.777 406.03 296.966 405.885V400.51H298.881V412.043H296.966V407.452ZM307.143 412.261C306.403 412.261 305.699 412.145 305.032 411.912C304.365 411.68 303.777 411.325 303.269 410.846C302.762 410.353 302.355 409.736 302.051 408.997C301.746 408.257 301.594 407.386 301.594 406.385V405.95C301.594 404.993 301.739 404.166 302.029 403.469C302.319 402.759 302.704 402.171 303.182 401.707C303.676 401.228 304.241 400.873 304.88 400.641C305.532 400.408 306.214 400.292 306.925 400.292C308.622 400.292 309.935 400.757 310.864 401.685C311.792 402.613 312.256 403.926 312.256 405.624V406.842H303.509C303.509 407.524 303.618 408.097 303.835 408.561C304.053 409.026 304.336 409.403 304.684 409.693C305.032 409.983 305.416 410.193 305.837 410.324C306.272 410.454 306.707 410.52 307.143 410.52C308.013 410.52 308.68 410.375 309.145 410.085C309.623 409.794 309.964 409.395 310.167 408.888H312.039C311.923 409.439 311.712 409.925 311.408 410.346C311.118 410.766 310.755 411.122 310.32 411.412C309.899 411.688 309.413 411.898 308.862 412.043C308.325 412.188 307.752 412.261 307.143 412.261ZM307.034 402.033C306.584 402.033 306.149 402.098 305.728 402.229C305.308 402.345 304.93 402.541 304.597 402.817C304.278 403.078 304.016 403.411 303.813 403.818C303.61 404.224 303.509 404.71 303.509 405.275H310.45C310.436 404.681 310.334 404.18 310.146 403.774C309.972 403.353 309.732 403.02 309.428 402.773C309.123 402.512 308.76 402.323 308.34 402.207C307.933 402.091 307.498 402.033 307.034 402.033ZM314.978 400.51H316.893V405.319H322.855V400.51H324.77V412.043H322.855V407.016H316.893V412.043H314.978V400.51ZM328.26 400.51H330.174V409.214L336.137 400.51H338.052V412.043H336.137V403.339L330.174 412.043H328.26V400.51ZM346.328 412.261C345.588 412.261 344.885 412.145 344.218 411.912C343.55 411.68 342.963 411.325 342.455 410.846C341.947 410.353 341.541 409.736 341.236 408.997C340.932 408.257 340.779 407.386 340.779 406.385V405.95C340.779 404.993 340.925 404.166 341.215 403.469C341.505 402.759 341.889 402.171 342.368 401.707C342.861 401.228 343.427 400.873 344.065 400.641C344.718 400.408 345.4 400.292 346.111 400.292C347.808 400.292 349.121 400.757 350.049 401.685C350.978 402.613 351.442 403.926 351.442 405.624V406.842H342.694C342.694 407.524 342.803 408.097 343.021 408.561C343.238 409.026 343.521 409.403 343.869 409.693C344.218 409.983 344.602 410.193 345.023 410.324C345.458 410.454 345.893 410.52 346.328 410.52C347.199 410.52 347.866 410.375 348.33 410.085C348.809 409.794 349.15 409.395 349.353 408.888H351.224C351.108 409.439 350.898 409.925 350.593 410.346C350.303 410.766 349.941 411.122 349.505 411.412C349.085 411.688 348.599 411.898 348.047 412.043C347.511 412.188 346.938 412.261 346.328 412.261ZM346.22 402.033C345.77 402.033 345.335 402.098 344.914 402.229C344.493 402.345 344.116 402.541 343.782 402.817C343.463 403.078 343.202 403.411 342.999 403.818C342.796 404.224 342.694 404.71 342.694 405.275H349.636C349.621 404.681 349.52 404.18 349.331 403.774C349.157 403.353 348.918 403.02 348.613 402.773C348.309 402.512 347.946 402.323 347.525 402.207C347.119 402.091 346.684 402.033 346.22 402.033Z" fill="black"/>
<path d="M169.231 107.351H186.155V127.43H181.852V110.908H173.534V127.43H169.231V107.351ZM190.171 112.227H193.699V114.465C194.081 113.776 194.683 113.174 195.506 112.658C196.328 112.141 197.37 111.883 198.632 111.883C200.659 111.883 202.237 112.514 203.365 113.776C204.512 115.019 205.086 116.893 205.086 119.398V119.972C205.086 122.592 204.503 124.552 203.336 125.852C202.189 127.133 200.621 127.774 198.632 127.774C197.6 127.774 196.682 127.554 195.879 127.114C195.095 126.655 194.454 126.062 193.957 125.336V133.166H190.171V112.227ZM197.743 124.561C198.737 124.561 199.569 124.188 200.238 123.443C200.908 122.678 201.242 121.521 201.242 119.972V119.398C201.242 117.964 200.917 116.893 200.267 116.186C199.617 115.459 198.776 115.096 197.743 115.096C196.653 115.096 195.745 115.411 195.018 116.042C194.311 116.654 193.957 117.582 193.957 118.825V120.546C193.957 121.903 194.301 122.917 194.989 123.586C195.697 124.236 196.615 124.561 197.743 124.561ZM207.818 112.227H211.604V121.98L218.373 112.227H221.873V127.43H218.086V117.677L211.317 127.43H207.818V112.227ZM225.325 112.227H229.8L234.016 120.431L238.233 112.227H242.535V127.43H238.921V117.534L235.221 124.418H232.639L228.939 117.534V127.43H225.325V112.227ZM252.853 127.774C251.821 127.774 250.836 127.621 249.899 127.315C248.981 126.99 248.178 126.512 247.489 125.881C246.801 125.231 246.256 124.418 245.855 123.443C245.453 122.448 245.252 121.291 245.252 119.972V119.398C245.252 118.136 245.443 117.037 245.826 116.1C246.208 115.163 246.734 114.388 247.403 113.776C248.073 113.145 248.847 112.677 249.727 112.371C250.606 112.046 251.553 111.883 252.567 111.883C254.957 111.883 256.773 112.514 258.016 113.776C259.259 115.038 259.881 116.865 259.881 119.255V120.861H249.124C249.144 121.53 249.258 122.114 249.469 122.611C249.679 123.089 249.956 123.481 250.3 123.787C250.645 124.093 251.037 124.322 251.477 124.475C251.935 124.609 252.394 124.676 252.853 124.676C253.829 124.676 254.565 124.533 255.062 124.246C255.559 123.959 255.913 123.538 256.123 122.984H259.594C259.288 124.571 258.533 125.766 257.328 126.569C256.123 127.372 254.632 127.774 252.853 127.774ZM252.71 114.981C252.27 114.981 251.83 115.038 251.39 115.153C250.97 115.268 250.597 115.449 250.272 115.698C249.947 115.947 249.679 116.281 249.469 116.702C249.258 117.123 249.144 117.629 249.124 118.222H256.209C256.19 117.591 256.085 117.065 255.894 116.645C255.722 116.224 255.473 115.889 255.148 115.641C254.842 115.392 254.479 115.22 254.058 115.124C253.637 115.029 253.188 114.981 252.71 114.981ZM262.608 112.227H266.136V114.465C266.519 113.776 267.121 113.174 267.943 112.658C268.765 112.141 269.808 111.883 271.07 111.883C273.097 111.883 274.674 112.514 275.803 113.776C276.95 115.019 277.524 116.893 277.524 119.398V119.972C277.524 122.592 276.94 124.552 275.774 125.852C274.627 127.133 273.058 127.774 271.07 127.774C270.037 127.774 269.119 127.554 268.316 127.114C267.532 126.655 266.891 126.062 266.394 125.336V133.166H262.608V112.227ZM270.181 124.561C271.175 124.561 272.007 124.188 272.676 123.443C273.345 122.678 273.68 121.521 273.68 119.972V119.398C273.68 117.964 273.355 116.893 272.705 116.186C272.055 115.459 271.213 115.096 270.181 115.096C269.091 115.096 268.182 115.411 267.456 116.042C266.748 116.654 266.394 117.582 266.394 118.825V120.546C266.394 121.903 266.738 122.917 267.427 123.586C268.134 124.236 269.052 124.561 270.181 124.561ZM282.98 127.774C282.311 127.774 281.737 127.535 281.259 127.057C280.781 126.579 280.542 126.005 280.542 125.336C280.542 124.628 280.781 124.045 281.259 123.586C281.737 123.127 282.311 122.898 282.98 122.898C283.649 122.898 284.223 123.127 284.701 123.586C285.179 124.045 285.418 124.628 285.418 125.336C285.418 126.005 285.179 126.579 284.701 127.057C284.223 127.535 283.649 127.774 282.98 127.774ZM282.98 116.759C282.311 116.759 281.737 116.52 281.259 116.042C280.781 115.564 280.542 114.991 280.542 114.321C280.542 113.614 280.781 113.03 281.259 112.572C281.737 112.113 282.311 111.883 282.98 111.883C283.649 111.883 284.223 112.113 284.701 112.572C285.179 113.03 285.418 113.614 285.418 114.321C285.418 114.991 285.179 115.564 284.701 116.042C284.223 116.52 283.649 116.759 282.98 116.759ZM295.876 123.873H300.465V111.711L295.876 114.981V110.793L300.723 107.351H304.767V123.873H308.496V127.43H295.876V123.873ZM317.528 127.774C315.616 127.774 314.077 127.363 312.91 126.54C311.744 125.718 311.036 124.437 310.788 122.697H314.803C314.995 123.194 315.301 123.567 315.721 123.816C316.161 124.045 316.811 124.16 317.672 124.16C318.188 124.16 318.666 124.083 319.106 123.93C319.565 123.758 319.966 123.462 320.311 123.041C320.655 122.601 320.932 122.008 321.142 121.263C321.353 120.517 321.487 119.561 321.544 118.394C321.295 118.777 320.99 119.102 320.626 119.37C320.263 119.618 319.861 119.829 319.421 120.001C319.001 120.154 318.551 120.268 318.073 120.345C317.614 120.421 317.146 120.46 316.668 120.46C314.641 120.46 313.082 119.915 311.992 118.825C310.902 117.715 310.357 116.157 310.357 114.149V113.834C310.357 112.82 310.539 111.893 310.902 111.051C311.266 110.21 311.763 109.493 312.394 108.9C313.044 108.288 313.819 107.82 314.717 107.495C315.616 107.169 316.601 107.007 317.672 107.007C320.215 107.007 322.166 107.753 323.523 109.244C324.881 110.736 325.56 113.164 325.56 116.53V117.075C325.56 119.006 325.359 120.651 324.957 122.008C324.556 123.347 323.992 124.447 323.265 125.307C322.558 126.168 321.707 126.799 320.712 127.2C319.737 127.583 318.676 127.774 317.528 127.774ZM317.959 117.132C318.991 117.132 319.794 116.845 320.368 116.272C320.961 115.698 321.257 114.952 321.257 114.034V113.748C321.257 112.849 320.951 112.103 320.339 111.51C319.747 110.917 318.953 110.621 317.959 110.621C316.926 110.621 316.113 110.917 315.52 111.51C314.947 112.084 314.66 112.83 314.66 113.748V114.034C314.66 114.952 314.947 115.698 315.52 116.272C316.113 116.845 316.926 117.132 317.959 117.132ZM327.854 124.303L334.882 118.251C335.532 117.677 336.087 117.18 336.546 116.759C337.005 116.32 337.377 115.918 337.664 115.555C337.951 115.191 338.152 114.838 338.267 114.493C338.401 114.149 338.467 113.776 338.467 113.375C338.467 112.552 338.238 111.893 337.779 111.396C337.32 110.879 336.641 110.621 335.742 110.621C334.71 110.621 333.897 110.908 333.304 111.482C332.731 112.036 332.444 113.002 332.444 114.379H328.141C328.141 112.103 328.782 110.306 330.063 108.986C331.363 107.667 333.257 107.007 335.742 107.007C336.909 107.007 337.922 107.169 338.783 107.495C339.663 107.8 340.399 108.24 340.992 108.814C341.584 109.369 342.024 110.038 342.311 110.822C342.617 111.606 342.77 112.457 342.77 113.375C342.77 114.063 342.646 114.723 342.397 115.354C342.149 115.966 341.804 116.559 341.364 117.132C340.944 117.706 340.447 118.27 339.873 118.825C339.299 119.36 338.687 119.895 338.037 120.431L333.907 123.873H343.057V127.43H327.854V124.303ZM348.639 127.774C347.97 127.774 347.396 127.535 346.918 127.057C346.44 126.579 346.201 126.005 346.201 125.336C346.201 124.628 346.44 124.045 346.918 123.586C347.396 123.127 347.97 122.898 348.639 122.898C349.308 122.898 349.882 123.127 350.36 123.586C350.838 124.045 351.077 124.628 351.077 125.336C351.077 126.005 350.838 126.579 350.36 127.057C349.882 127.535 349.308 127.774 348.639 127.774ZM354.363 123.873H358.953V111.711L354.363 114.981V110.793L359.211 107.351H363.255V123.873H366.984V127.43H354.363V123.873ZM376.877 127.774C375.615 127.774 374.496 127.592 373.521 127.229C372.545 126.866 371.723 126.301 371.054 125.537C370.385 124.753 369.868 123.758 369.505 122.553C369.161 121.349 368.989 119.915 368.989 118.251V117.677C368.989 115.765 369.189 114.14 369.591 112.801C369.993 111.443 370.557 110.334 371.283 109.474C372.01 108.613 372.871 107.992 373.865 107.609C374.878 107.208 375.978 107.007 377.164 107.007C379.018 107.007 380.52 107.399 381.667 108.183C382.814 108.967 383.512 110.267 383.761 112.084H379.745C379.363 111.109 378.454 110.621 377.02 110.621C376.466 110.621 375.949 110.707 375.471 110.879C375.012 111.032 374.601 111.329 374.238 111.768C373.894 112.189 373.616 112.772 373.406 113.518C373.196 114.264 373.062 115.22 373.004 116.386C373.253 116.004 373.559 115.688 373.922 115.44C374.286 115.172 374.678 114.962 375.098 114.809C375.538 114.637 375.987 114.512 376.446 114.436C376.924 114.359 377.403 114.321 377.881 114.321C379.908 114.321 381.466 114.876 382.556 115.985C383.646 117.075 384.191 118.624 384.191 120.632V120.947C384.191 121.961 384.009 122.888 383.646 123.729C383.283 124.571 382.776 125.298 382.126 125.909C381.495 126.502 380.73 126.961 379.831 127.286C378.932 127.611 377.948 127.774 376.877 127.774ZM376.59 124.16C377.622 124.16 378.426 123.873 378.999 123.299C379.592 122.706 379.888 121.951 379.888 121.033V120.746C379.888 119.829 379.592 119.083 378.999 118.509C378.426 117.935 377.622 117.649 376.59 117.649C375.557 117.649 374.745 117.935 374.152 118.509C373.578 119.083 373.291 119.829 373.291 120.746V121.033C373.291 121.951 373.578 122.706 374.152 123.299C374.745 123.873 375.557 124.16 376.59 124.16ZM394.517 127.774C393.312 127.774 392.222 127.64 391.247 127.372C390.291 127.085 389.478 126.693 388.809 126.196C388.159 125.68 387.652 125.068 387.289 124.361C386.945 123.634 386.773 122.831 386.773 121.951C386.773 120.823 387.117 119.819 387.805 118.939C388.494 118.041 389.517 117.41 390.874 117.046C389.861 116.721 389.019 116.157 388.35 115.354C387.681 114.551 387.346 113.595 387.346 112.485C387.346 111.682 387.499 110.946 387.805 110.277C388.13 109.608 388.599 109.034 389.211 108.556C389.823 108.059 390.568 107.676 391.448 107.408C392.347 107.141 393.37 107.007 394.517 107.007C395.664 107.007 396.678 107.141 397.558 107.408C398.456 107.676 399.212 108.059 399.824 108.556C400.455 109.034 400.923 109.608 401.229 110.277C401.554 110.946 401.717 111.682 401.717 112.485C401.717 113.595 401.382 114.541 400.713 115.325C400.044 116.09 399.193 116.664 398.16 117.046C400.894 117.888 402.262 119.523 402.262 121.951C402.262 122.831 402.08 123.634 401.717 124.361C401.373 125.068 400.866 125.68 400.197 126.196C399.546 126.693 398.743 127.085 397.787 127.372C396.831 127.64 395.741 127.774 394.517 127.774ZM394.517 124.16C395.703 124.16 396.573 123.93 397.127 123.471C397.682 123.012 397.959 122.391 397.959 121.607C397.959 120.746 397.634 120.068 396.984 119.57C396.353 119.054 395.531 118.719 394.517 118.566C393.504 118.719 392.672 119.054 392.022 119.57C391.391 120.068 391.075 120.746 391.075 121.607C391.075 122.391 391.362 123.012 391.936 123.471C392.509 123.93 393.37 124.16 394.517 124.16ZM394.517 115.641C395.378 115.488 396.076 115.191 396.611 114.751C397.146 114.293 397.414 113.662 397.414 112.858C397.414 112.113 397.156 111.558 396.64 111.195C396.143 110.812 395.435 110.621 394.517 110.621C393.618 110.621 392.911 110.812 392.395 111.195C391.897 111.558 391.649 112.113 391.649 112.858C391.649 113.662 391.907 114.293 392.423 114.751C392.959 115.191 393.657 115.488 394.517 115.641ZM407.995 127.774C407.326 127.774 406.752 127.535 406.274 127.057C405.796 126.579 405.557 126.005 405.557 125.336C405.557 124.628 405.796 124.045 406.274 123.586C406.752 123.127 407.326 122.898 407.995 122.898C408.664 122.898 409.238 123.127 409.716 123.586C410.194 124.045 410.433 124.628 410.433 125.336C410.433 126.005 410.194 126.579 409.716 127.057C409.238 127.535 408.664 127.774 407.995 127.774ZM413.72 123.873H418.309V111.711L413.72 114.981V110.793L418.567 107.351H422.611V123.873H426.34V127.43H413.72V123.873ZM436.089 127.774C434.999 127.774 433.976 127.602 433.02 127.258C432.083 126.894 431.271 126.311 430.582 125.508C429.894 124.686 429.349 123.615 428.947 122.295C428.546 120.957 428.345 119.322 428.345 117.39V116.817C428.345 115.019 428.546 113.499 428.947 112.256C429.349 111.013 429.894 110.009 430.582 109.244C431.271 108.46 432.083 107.896 433.02 107.552C433.976 107.189 434.999 107.007 436.089 107.007C437.179 107.007 438.193 107.189 439.13 107.552C440.086 107.896 440.908 108.46 441.597 109.244C442.285 110.009 442.83 111.013 443.232 112.256C443.633 113.499 443.834 115.019 443.834 116.817V117.39C443.834 119.322 443.633 120.957 443.232 122.295C442.83 123.615 442.285 124.686 441.597 125.508C440.908 126.311 440.086 126.894 439.13 127.258C438.193 127.602 437.179 127.774 436.089 127.774ZM436.089 124.16C436.568 124.16 437.017 124.064 437.438 123.873C437.858 123.682 438.222 123.337 438.528 122.84C438.853 122.324 439.101 121.626 439.273 120.746C439.445 119.867 439.531 118.748 439.531 117.39V116.817C439.531 115.593 439.445 114.589 439.273 113.805C439.101 113.002 438.853 112.371 438.528 111.912C438.222 111.434 437.858 111.099 437.438 110.908C437.017 110.717 436.568 110.621 436.089 110.621C435.592 110.621 435.133 110.717 434.713 110.908C434.311 111.099 433.948 111.434 433.623 111.912C433.317 112.371 433.078 113.002 432.906 113.805C432.733 114.589 432.647 115.593 432.647 116.817V117.39C432.647 118.748 432.733 119.867 432.906 120.746C433.078 121.626 433.317 122.324 433.623 122.84C433.948 123.337 434.311 123.682 434.713 123.873C435.133 124.064 435.592 124.16 436.089 124.16ZM449.704 127.774C449.035 127.774 448.461 127.535 447.983 127.057C447.505 126.579 447.266 126.005 447.266 125.336C447.266 124.628 447.505 124.045 447.983 123.586C448.461 123.127 449.035 122.898 449.704 122.898C450.373 122.898 450.947 123.127 451.425 123.586C451.903 124.045 452.142 124.628 452.142 125.336C452.142 126.005 451.903 126.579 451.425 127.057C450.947 127.535 450.373 127.774 449.704 127.774ZM455.429 123.873H460.018V111.711L455.429 114.981V110.793L460.276 107.351H464.32V123.873H468.049V127.43H455.429V123.873ZM469.91 123.873H474.5V111.711L469.91 114.981V110.793L474.758 107.351H478.802V123.873H482.531V127.43H469.91V123.873Z" fill="black"/>
<path d="M591.849 112.227H595.635V118.107H602.117V112.227H605.904V127.43H602.117V121.263H595.635V127.43H591.849V112.227ZM616.24 127.774C615.207 127.774 614.222 127.621 613.285 127.315C612.367 126.99 611.564 126.512 610.876 125.881C610.187 125.231 609.642 124.418 609.241 123.443C608.839 122.448 608.639 121.291 608.639 119.972V119.398C608.639 118.136 608.83 117.037 609.212 116.1C609.595 115.163 610.121 114.388 610.79 113.776C611.459 113.145 612.234 112.677 613.113 112.371C613.993 112.046 614.939 111.883 615.953 111.883C618.343 111.883 620.16 112.514 621.403 113.776C622.646 115.038 623.267 116.865 623.267 119.255V120.861H612.511C612.53 121.53 612.645 122.114 612.855 122.611C613.065 123.089 613.343 123.481 613.687 123.787C614.031 124.093 614.423 124.322 614.863 124.475C615.322 124.609 615.781 124.676 616.24 124.676C617.215 124.676 617.951 124.533 618.448 124.246C618.946 123.959 619.299 123.538 619.51 122.984H622.98C622.674 124.571 621.919 125.766 620.714 126.569C619.51 127.372 618.018 127.774 616.24 127.774ZM616.096 114.981C615.656 114.981 615.217 115.038 614.777 115.153C614.356 115.268 613.983 115.449 613.658 115.698C613.333 115.947 613.065 116.281 612.855 116.702C612.645 117.123 612.53 117.629 612.511 118.222H619.596C619.577 117.591 619.471 117.065 619.28 116.645C619.108 116.224 618.859 115.889 618.534 115.641C618.228 115.392 617.865 115.22 617.444 115.124C617.024 115.029 616.574 114.981 616.096 114.981ZM629.414 115.383H624.567V112.227H638.048V115.383H633.201V127.43H629.414V115.383Z" fill="black"/>
<rect x="407.547" y="333.34" width="833.223" height="111.155" stroke="#D0643B" stroke-width="6"/>
<path d="M642.079 150.008L642.762 148.672L642.44 148.508H642.079V150.008ZM175.816 150.008V148.508H174.316V150.008H175.816ZM175.816 680.754L184.477 665.754H167.156L175.816 680.754ZM776.13 218.494L775.448 219.83L776.13 220.178L776.813 219.83L776.13 218.494ZM642.079 148.508H175.816V151.508H642.079V148.508ZM174.316 150.008V667.254H177.316V150.008H174.316ZM909.499 148.672L775.448 217.158L776.813 219.83L910.864 151.344L909.499 148.672ZM776.813 217.158L642.762 148.672L641.397 151.344L775.448 219.83L776.813 217.158Z" fill="black"/>
<path d="M782.137 231.281L619.815 150.121L782.137 68.9603L944.458 150.121L782.137 231.281Z" fill="white" stroke="black" stroke-width="3"/>
<path d="M742.404 160.965C741.199 160.965 740.11 160.831 739.134 160.564C738.178 160.277 737.365 159.885 736.696 159.388C736.046 158.871 735.539 158.259 735.176 157.552C734.832 156.825 734.66 156.022 734.66 155.143C734.66 154.014 735.004 153.01 735.692 152.131C736.381 151.232 737.404 150.601 738.761 150.238C737.748 149.913 736.907 149.348 736.237 148.545C735.568 147.742 735.233 146.786 735.233 145.677C735.233 144.874 735.386 144.138 735.692 143.468C736.017 142.799 736.486 142.225 737.098 141.747C737.71 141.25 738.455 140.868 739.335 140.6C740.234 140.332 741.257 140.198 742.404 140.198C743.552 140.198 744.565 140.332 745.445 140.6C746.343 140.868 747.099 141.25 747.711 141.747C748.342 142.225 748.81 142.799 749.116 143.468C749.441 144.138 749.604 144.874 749.604 145.677C749.604 146.786 749.269 147.733 748.6 148.517C747.931 149.281 747.08 149.855 746.047 150.238C748.782 151.079 750.149 152.714 750.149 155.143C750.149 156.022 749.967 156.825 749.604 157.552C749.26 158.259 748.753 158.871 748.084 159.388C747.433 159.885 746.63 160.277 745.674 160.564C744.718 160.831 743.628 160.965 742.404 160.965ZM742.404 157.351C743.59 157.351 744.46 157.122 745.014 156.663C745.569 156.204 745.846 155.582 745.846 154.798C745.846 153.938 745.521 153.259 744.871 152.762C744.24 152.245 743.418 151.911 742.404 151.758C741.391 151.911 740.559 152.245 739.909 152.762C739.278 153.259 738.962 153.938 738.962 154.798C738.962 155.582 739.249 156.204 739.823 156.663C740.396 157.122 741.257 157.351 742.404 157.351ZM742.404 148.832C743.265 148.679 743.963 148.383 744.498 147.943C745.034 147.484 745.301 146.853 745.301 146.05C745.301 145.304 745.043 144.749 744.527 144.386C744.03 144.004 743.322 143.812 742.404 143.812C741.505 143.812 740.798 144.004 740.282 144.386C739.784 144.749 739.536 145.304 739.536 146.05C739.536 146.853 739.794 147.484 740.31 147.943C740.846 148.383 741.544 148.679 742.404 148.832ZM773.809 148.717V151.873L759.754 158.04V153.938L768.79 150.352L759.754 146.767V142.55L773.809 148.717ZM776.113 151.959H790.168V155.515H776.113V151.959ZM776.113 145.075H790.168V148.631H776.113V145.075ZM799.786 157.064H804.376V144.902L799.786 148.172V143.985L804.634 140.543H808.678V157.064H812.407V160.621H799.786V157.064ZM822.299 160.965C821.037 160.965 819.919 160.784 818.943 160.42C817.968 160.057 817.146 159.493 816.477 158.728C815.807 157.944 815.291 156.95 814.928 155.745C814.584 154.54 814.411 153.106 814.411 151.442V150.869C814.411 148.956 814.612 147.331 815.014 145.992C815.415 144.635 815.98 143.526 816.706 142.665C817.433 141.805 818.293 141.183 819.288 140.801C820.301 140.399 821.401 140.198 822.586 140.198C824.441 140.198 825.942 140.59 827.09 141.374C828.237 142.158 828.935 143.459 829.184 145.275H825.168C824.785 144.3 823.877 143.812 822.443 143.812C821.888 143.812 821.372 143.899 820.894 144.071C820.435 144.224 820.024 144.52 819.661 144.96C819.316 145.38 819.039 145.964 818.829 146.71C818.618 147.455 818.485 148.411 818.427 149.578C818.676 149.195 818.982 148.88 819.345 148.631C819.708 148.364 820.1 148.153 820.521 148C820.961 147.828 821.41 147.704 821.869 147.627C822.347 147.551 822.825 147.513 823.303 147.513C825.33 147.513 826.889 148.067 827.979 149.176C829.069 150.266 829.614 151.815 829.614 153.823V154.139C829.614 155.152 829.432 156.08 829.069 156.921C828.706 157.762 828.199 158.489 827.549 159.101C826.918 159.694 826.153 160.153 825.254 160.478C824.355 160.803 823.37 160.965 822.299 160.965ZM822.013 157.351C823.045 157.351 823.848 157.064 824.422 156.491C825.015 155.898 825.311 155.143 825.311 154.225V153.938C825.311 153.02 825.015 152.274 824.422 151.7C823.848 151.127 823.045 150.84 822.013 150.84C820.98 150.84 820.167 151.127 819.575 151.7C819.001 152.274 818.714 153.02 818.714 153.938V154.225C818.714 155.143 819.001 155.898 819.575 156.491C820.167 157.064 820.98 157.351 822.013 157.351Z" fill="black"/>
<path d="M759.162 713.527V715.027H760.662V713.527H759.162ZM759.162 555.542L750.502 570.542H767.822L759.162 555.542ZM257.219 715.027H759.162V712.027H257.219V715.027ZM760.662 713.527V569.042H757.662V713.527H760.662Z" fill="black"/>
<rect x="69.2305" y="683.846" width="214.727" height="59.3633" fill="#F3F3F3"/>
<path d="M96.1674 720.471H98.4048C98.6916 719.801 98.9306 718.998 99.1218 718.061C99.3131 717.105 99.466 716.101 99.5808 715.049C99.6955 713.978 99.7816 712.889 99.8389 711.779C99.8963 710.651 99.925 709.571 99.925 708.538V703.949H114.066V720.471H116.246V727.756H112.402V724.027H100.011V727.756H96.1674V720.471ZM109.763 720.471V707.506H103.998V709.112C103.998 711.732 103.874 713.94 103.625 715.738C103.377 717.535 103.023 719.113 102.564 720.471H109.763ZM125.572 724.372C124.539 724.372 123.554 724.219 122.617 723.913C121.699 723.588 120.896 723.1 120.208 722.45C119.519 721.8 118.974 720.987 118.573 720.012C118.171 719.036 117.97 717.889 117.97 716.57V715.996C117.97 714.753 118.171 713.663 118.573 712.726C118.974 711.789 119.519 711.005 120.208 710.374C120.896 709.743 121.699 709.274 122.617 708.968C123.554 708.643 124.539 708.481 125.572 708.481C126.604 708.481 127.579 708.643 128.497 708.968C129.415 709.274 130.218 709.743 130.907 710.374C131.614 711.005 132.169 711.789 132.57 712.726C132.972 713.663 133.173 714.753 133.173 715.996V716.57C133.173 717.87 132.972 719.008 132.57 719.983C132.169 720.958 131.614 721.771 130.907 722.421C130.218 723.071 129.415 723.559 128.497 723.884C127.579 724.209 126.604 724.372 125.572 724.372ZM125.572 721.159C126.642 721.159 127.532 720.777 128.239 720.012C128.966 719.247 129.329 718.099 129.329 716.57V715.996C129.329 714.6 128.966 713.539 128.239 712.812C127.532 712.066 126.642 711.693 125.572 711.693C124.482 711.693 123.583 712.066 122.875 712.812C122.168 713.539 121.814 714.6 121.814 715.996V716.57C121.814 718.119 122.168 719.275 122.875 720.04C123.583 720.786 124.482 721.159 125.572 721.159ZM142.771 724.372C141.7 724.372 140.705 724.19 139.787 723.827C138.889 723.463 138.105 722.918 137.435 722.192C136.766 721.446 136.24 720.537 135.858 719.467C135.494 718.377 135.313 717.115 135.313 715.68V715.021C135.313 713.3 135.437 711.77 135.686 710.431C135.953 709.093 136.384 707.955 136.976 707.018C137.588 706.081 138.392 705.354 139.386 704.838C140.399 704.303 141.661 703.997 143.172 703.92C143.765 703.901 144.348 703.882 144.922 703.863C145.496 703.844 146.041 703.815 146.557 703.777C147.073 703.738 147.542 703.681 147.962 703.605C148.383 703.509 148.756 703.385 149.081 703.232V706.588C148.775 706.76 148.201 706.903 147.36 707.018C146.538 707.133 145.285 707.2 143.602 707.219C142.742 707.238 141.996 707.343 141.365 707.534C140.753 707.706 140.237 707.993 139.816 708.395C139.415 708.777 139.089 709.284 138.841 709.915C138.611 710.546 138.449 711.32 138.353 712.238C138.793 711.378 139.453 710.68 140.332 710.144C141.212 709.609 142.359 709.341 143.775 709.341C144.731 709.341 145.601 709.494 146.385 709.8C147.169 710.087 147.848 710.517 148.421 711.091C148.995 711.665 149.435 712.372 149.741 713.214C150.066 714.055 150.228 715.03 150.228 716.139V716.684C150.228 717.889 150.037 718.969 149.655 719.926C149.291 720.882 148.775 721.694 148.106 722.364C147.436 723.014 146.643 723.511 145.725 723.855C144.826 724.199 143.841 724.372 142.771 724.372ZM142.771 721.159C143.918 721.159 144.807 720.786 145.438 720.04C146.069 719.275 146.385 718.195 146.385 716.799V716.225C146.385 715.021 146.06 714.074 145.409 713.386C144.759 712.697 143.88 712.353 142.771 712.353C141.681 712.353 140.801 712.697 140.132 713.386C139.482 714.074 139.156 715.021 139.156 716.225V716.742C139.156 717.43 139.242 718.052 139.415 718.606C139.606 719.161 139.864 719.629 140.189 720.012C140.514 720.375 140.897 720.662 141.336 720.872C141.776 721.063 142.254 721.159 142.771 721.159ZM157.506 724.372C156.684 724.372 155.957 724.257 155.326 724.027C154.695 723.779 154.16 723.444 153.72 723.023C153.28 722.584 152.945 722.077 152.716 721.503C152.487 720.91 152.372 720.27 152.372 719.581C152.372 716.522 154.188 714.992 157.822 714.992H162.354V714.275C162.354 713.281 162.124 712.583 161.665 712.181C161.225 711.779 160.518 711.579 159.543 711.579C158.682 711.579 158.061 711.732 157.678 712.038C157.296 712.324 157.076 712.688 157.019 713.128H153.232C153.271 712.477 153.433 711.865 153.72 711.292C154.026 710.718 154.447 710.23 154.982 709.829C155.537 709.408 156.206 709.083 156.99 708.854C157.774 708.605 158.673 708.481 159.686 708.481C160.661 708.481 161.541 708.586 162.325 708.796C163.128 709.007 163.807 709.351 164.362 709.829C164.935 710.288 165.375 710.89 165.681 711.636C165.987 712.382 166.14 713.281 166.14 714.332V720.155C166.14 720.958 166.149 721.666 166.169 722.278C166.207 722.87 166.264 723.454 166.341 724.027H162.813C162.736 723.607 162.688 723.291 162.669 723.081C162.669 722.851 162.669 722.517 162.669 722.077C162.249 722.689 161.608 723.224 160.747 723.683C159.906 724.142 158.826 724.372 157.506 724.372ZM158.682 721.446C159.141 721.446 159.59 721.388 160.03 721.274C160.47 721.14 160.862 720.949 161.206 720.7C161.551 720.432 161.828 720.098 162.038 719.696C162.249 719.295 162.354 718.826 162.354 718.291V717.574H158.539C157.812 717.574 157.238 717.746 156.818 718.09C156.416 718.415 156.215 718.864 156.215 719.438C156.215 720.05 156.426 720.537 156.846 720.901C157.267 721.264 157.879 721.446 158.682 721.446ZM169.444 708.825H177.074C178.049 708.825 178.881 708.93 179.57 709.141C180.277 709.332 180.86 709.609 181.319 709.972C181.778 710.336 182.113 710.766 182.323 711.263C182.533 711.76 182.639 712.305 182.639 712.898C182.639 713.606 182.419 714.275 181.979 714.906C181.558 715.518 180.975 715.929 180.229 716.139C181.166 716.369 181.893 716.809 182.409 717.459C182.945 718.09 183.212 718.836 183.212 719.696C183.212 721.016 182.753 722.067 181.836 722.851C180.918 723.635 179.522 724.027 177.648 724.027H169.444V708.825ZM176.902 720.987C177.762 720.987 178.393 720.863 178.795 720.614C179.216 720.346 179.426 719.926 179.426 719.352C179.426 718.778 179.225 718.367 178.824 718.119C178.441 717.851 177.801 717.717 176.902 717.717H173.23V720.987H176.902ZM176.529 714.906C177.409 714.906 178.011 714.782 178.336 714.533C178.68 714.284 178.852 713.902 178.852 713.386C178.852 712.889 178.68 712.516 178.336 712.267C177.992 711.999 177.39 711.865 176.529 711.865H173.23V714.906H176.529ZM185.943 708.825H189.729V718.577L196.498 708.825H199.998V724.027H196.212V714.275L189.442 724.027H185.943V708.825ZM207.15 711.98H202.303V708.825H215.784V711.98H210.936V724.027H207.15V711.98ZM218.072 708.825H221.858V713.931H225.099C229.02 713.931 230.98 715.613 230.98 718.979C230.98 719.725 230.865 720.413 230.635 721.044C230.425 721.656 230.081 722.182 229.603 722.622C229.125 723.062 228.513 723.406 227.767 723.654C227.021 723.903 226.132 724.027 225.099 724.027H218.072V708.825ZM224.669 720.987C225.587 720.987 226.237 720.824 226.62 720.499C227.002 720.155 227.193 719.648 227.193 718.979C227.193 718.31 226.993 717.813 226.591 717.487C226.209 717.143 225.568 716.971 224.669 716.971H221.858V720.987H224.669ZM248.051 724.372C246.961 724.372 245.938 724.199 244.982 723.855C244.045 723.492 243.232 722.909 242.544 722.106C241.855 721.283 241.31 720.212 240.909 718.893C240.507 717.554 240.306 715.919 240.306 713.988V713.414C240.306 711.617 240.507 710.097 240.909 708.854C241.31 707.611 241.855 706.607 242.544 705.842C243.232 705.058 244.045 704.494 244.982 704.15C245.938 703.786 246.961 703.605 248.051 703.605C249.141 703.605 250.154 703.786 251.091 704.15C252.048 704.494 252.87 705.058 253.558 705.842C254.247 706.607 254.792 707.611 255.193 708.854C255.595 710.097 255.796 711.617 255.796 713.414V713.988C255.796 715.919 255.595 717.554 255.193 718.893C254.792 720.212 254.247 721.283 253.558 722.106C252.87 722.909 252.048 723.492 251.091 723.855C250.154 724.199 249.141 724.372 248.051 724.372ZM248.051 720.757C248.529 720.757 248.978 720.662 249.399 720.471C249.82 720.279 250.183 719.935 250.489 719.438C250.814 718.922 251.063 718.224 251.235 717.344C251.407 716.464 251.493 715.346 251.493 713.988V713.414C251.493 712.191 251.407 711.187 251.235 710.403C251.063 709.599 250.814 708.968 250.489 708.509C250.183 708.031 249.82 707.697 249.399 707.506C248.978 707.314 248.529 707.219 248.051 707.219C247.554 707.219 247.095 707.314 246.674 707.506C246.273 707.697 245.909 708.031 245.584 708.509C245.278 708.968 245.039 709.599 244.867 710.403C244.695 711.187 244.609 712.191 244.609 713.414V713.988C244.609 715.346 244.695 716.464 244.867 717.344C245.039 718.224 245.278 718.922 245.584 719.438C245.909 719.935 246.273 720.279 246.674 720.471C247.095 720.662 247.554 720.757 248.051 720.757Z" fill="black"/>
<rect x="69.2305" y="683.846" width="214.727" height="59.3633" stroke="#DADADA" stroke-width="2"/>
</svg>
