<svg width="1551" height="974" viewBox="0 0 1551 974" fill="none" xmlns="http://www.w3.org/2000/svg">
<path d="M1204.3 713.498H1202.8V714.998L1204.3 714.998V713.498ZM1204.3 555.513L1195.64 570.513H1212.96L1204.3 555.513ZM1175.57 713.498V714.998H1177.07V713.498H1175.57ZM1175.57 555.513L1166.91 570.513H1184.23L1175.57 555.513ZM1205.8 713.498V569.013H1202.8V713.498H1205.8ZM257.219 714.998H1175.57V711.998H257.219V714.998ZM1177.07 713.498V569.013H1174.07V713.498H1177.07ZM1284.6 711.998L1204.3 711.998V714.998L1284.6 714.998L1284.6 711.998Z" fill="black"/>
<path d="M1204.3 713.498H1202.8V714.998L1204.3 714.998V713.498ZM1204.3 555.513L1195.64 570.513H1212.96L1204.3 555.513ZM1175.57 713.498V714.998H1177.07V713.498H1175.57ZM1175.57 555.513L1166.91 570.513H1184.23L1175.57 555.513ZM1205.8 713.498V569.013H1202.8V713.498H1205.8ZM257.219 714.998H1175.57V711.998H257.219V714.998ZM1177.07 713.498V569.013H1174.07V713.498H1177.07ZM1284.6 711.998L1204.3 711.998V714.998L1284.6 714.998L1284.6 711.998Z" fill="black"/>
<rect x="407.691" y="442.568" width="104.135" height="109.408" fill="#F7F7F7"/>
<rect x="407.691" y="442.568" width="104.135" height="109.408" stroke="#DADADA" stroke-width="2"/>
<rect x="511.826" y="442.568" width="104.135" height="109.408" fill="#F7F7F7"/>
<rect x="511.826" y="442.568" width="104.135" height="109.408" stroke="#DADADA" stroke-width="2"/>
<rect x="615.961" y="442.568" width="104.135" height="109.408" fill="#F7F7F7"/>
<rect x="615.961" y="442.568" width="104.135" height="109.408" stroke="#DADADA" stroke-width="2"/>
<rect x="720.096" y="442.568" width="104.135" height="109.408" fill="#F7F7F7"/>
<rect x="720.096" y="442.568" width="104.135" height="109.408" stroke="#DADADA" stroke-width="2"/>
<rect x="824.23" y="442.568" width="104.135" height="109.408" fill="#F7F7F7"/>
<rect x="824.23" y="442.568" width="104.135" height="109.408" stroke="#DADADA" stroke-width="2"/>
<rect x="928.365" y="442.568" width="104.135" height="109.408" fill="#F7F7F7"/>
<rect x="928.365" y="442.568" width="104.135" height="109.408" stroke="#DADADA" stroke-width="2"/>
<rect x="1032.5" y="442.568" width="104.135" height="109.408" fill="#F7F7F7"/>
<rect x="1032.5" y="442.568" width="104.135" height="109.408" stroke="#DADADA" stroke-width="2"/>
<rect x="1136.63" y="442.568" width="104.135" height="109.408" fill="#EAC053"/>
<rect x="1136.63" y="442.568" width="104.135" height="109.408" stroke="#EAC053" stroke-width="1.31816"/>
<rect x="407.547" y="333.161" width="104.135" height="109.408" fill="#F7F7F7"/>
<path d="M435.906 394.808H440.495V382.647L435.906 385.917V381.729L440.754 378.287H444.798V394.808H448.527V398.365H435.906V394.808ZM449.958 395.239L456.985 389.186C457.635 388.613 458.19 388.116 458.649 387.695C459.108 387.255 459.481 386.854 459.767 386.49C460.054 386.127 460.255 385.773 460.37 385.429C460.504 385.085 460.571 384.712 460.571 384.31C460.571 383.488 460.341 382.828 459.882 382.331C459.423 381.815 458.744 381.557 457.846 381.557C456.813 381.557 456 381.843 455.408 382.417C454.834 382.972 454.547 383.937 454.547 385.314H450.244C450.244 383.039 450.885 381.241 452.166 379.922C453.467 378.602 455.36 377.942 457.846 377.942C459.012 377.942 460.026 378.105 460.886 378.43C461.766 378.736 462.502 379.176 463.095 379.75C463.688 380.304 464.127 380.973 464.414 381.757C464.72 382.541 464.873 383.392 464.873 384.31C464.873 384.999 464.749 385.658 464.5 386.289C464.252 386.901 463.907 387.494 463.468 388.068C463.047 388.641 462.55 389.206 461.976 389.76C461.402 390.296 460.791 390.831 460.14 391.366L456.01 394.808H465.16V398.365H449.958V395.239ZM475.332 398.709C474.127 398.709 473.037 398.576 472.062 398.308C471.105 398.021 470.293 397.629 469.623 397.132C468.973 396.616 468.467 396.004 468.103 395.296C467.759 394.569 467.587 393.766 467.587 392.887C467.587 391.758 467.931 390.754 468.62 389.875C469.308 388.976 470.331 388.345 471.689 387.982C470.675 387.657 469.834 387.093 469.165 386.289C468.495 385.486 468.161 384.53 468.161 383.421C468.161 382.618 468.314 381.882 468.62 381.212C468.945 380.543 469.413 379.969 470.025 379.491C470.637 378.994 471.383 378.612 472.262 378.344C473.161 378.076 474.184 377.942 475.332 377.942C476.479 377.942 477.492 378.076 478.372 378.344C479.271 378.612 480.026 378.994 480.638 379.491C481.269 379.969 481.738 380.543 482.043 381.212C482.369 381.882 482.531 382.618 482.531 383.421C482.531 384.53 482.196 385.477 481.527 386.261C480.858 387.026 480.007 387.599 478.974 387.982C481.709 388.823 483.076 390.458 483.076 392.887C483.076 393.766 482.894 394.569 482.531 395.296C482.187 396.004 481.68 396.616 481.011 397.132C480.361 397.629 479.558 398.021 478.601 398.308C477.645 398.576 476.555 398.709 475.332 398.709ZM475.332 395.095C476.517 395.095 477.387 394.866 477.942 394.407C478.496 393.948 478.774 393.326 478.774 392.542C478.774 391.682 478.448 391.003 477.798 390.506C477.167 389.99 476.345 389.655 475.332 389.502C474.318 389.655 473.486 389.99 472.836 390.506C472.205 391.003 471.889 391.682 471.889 392.542C471.889 393.326 472.176 393.948 472.75 394.407C473.324 394.866 474.184 395.095 475.332 395.095ZM475.332 386.576C476.192 386.423 476.89 386.127 477.425 385.687C477.961 385.228 478.229 384.597 478.229 383.794C478.229 383.048 477.97 382.494 477.454 382.13C476.957 381.748 476.249 381.557 475.332 381.557C474.433 381.557 473.725 381.748 473.209 382.13C472.712 382.494 472.463 383.048 472.463 383.794C472.463 384.597 472.721 385.228 473.238 385.687C473.773 386.127 474.471 386.423 475.332 386.576Z" fill="black"/>
<rect x="407.547" y="333.161" width="104.135" height="109.408" stroke="#DADADA" stroke-width="2"/>
<rect x="511.682" y="333.161" width="104.135" height="109.408" fill="#F7F7F7"/>
<path d="M555.072 398.709C553.81 398.709 552.691 398.528 551.716 398.164C550.741 397.801 549.919 397.237 549.249 396.472C548.58 395.688 548.064 394.694 547.7 393.489C547.356 392.284 547.184 390.85 547.184 389.186V388.613C547.184 386.701 547.385 385.075 547.787 383.737C548.188 382.379 548.752 381.27 549.479 380.409C550.206 379.549 551.066 378.927 552.06 378.545C553.074 378.143 554.173 377.942 555.359 377.942C557.214 377.942 558.715 378.334 559.862 379.118C561.01 379.902 561.708 381.203 561.956 383.019H557.941C557.558 382.044 556.65 381.557 555.216 381.557C554.661 381.557 554.145 381.643 553.667 381.815C553.208 381.968 552.797 382.264 552.433 382.704C552.089 383.125 551.812 383.708 551.601 384.454C551.391 385.199 551.257 386.156 551.2 387.322C551.448 386.94 551.754 386.624 552.118 386.375C552.481 386.108 552.873 385.897 553.294 385.744C553.734 385.572 554.183 385.448 554.642 385.372C555.12 385.295 555.598 385.257 556.076 385.257C558.103 385.257 559.662 385.811 560.752 386.92C561.842 388.01 562.387 389.559 562.387 391.567V391.883C562.387 392.896 562.205 393.824 561.842 394.665C561.478 395.506 560.971 396.233 560.321 396.845C559.69 397.438 558.925 397.897 558.027 398.222C557.128 398.547 556.143 398.709 555.072 398.709ZM554.785 395.095C555.818 395.095 556.621 394.808 557.195 394.235C557.788 393.642 558.084 392.887 558.084 391.969V391.682C558.084 390.764 557.788 390.018 557.195 389.445C556.621 388.871 555.818 388.584 554.785 388.584C553.753 388.584 552.94 388.871 552.347 389.445C551.774 390.018 551.487 390.764 551.487 391.682V391.969C551.487 392.887 551.774 393.642 552.347 394.235C552.94 394.808 553.753 395.095 554.785 395.095ZM573.717 394.12H564.251V391.137L573.717 378.287H578.019V390.563H580.314V394.12H578.019V398.365H573.717V394.12ZM573.717 390.563V383.077L568.267 390.563H573.717Z" fill="black"/>
<rect x="511.682" y="333.161" width="104.135" height="109.408" stroke="#DADADA" stroke-width="2"/>
<rect x="615.816" y="333.161" width="104.135" height="109.408" fill="#F7F7F7"/>
<path d="M658.846 398.709C656.399 398.709 654.544 398.136 653.282 396.988C652.02 395.822 651.389 394.225 651.389 392.198H655.691C655.691 393.173 655.94 393.9 656.437 394.378C656.953 394.856 657.756 395.095 658.846 395.095C659.898 395.095 660.682 394.866 661.199 394.407C661.734 393.929 662.002 393.26 662.002 392.399C662.002 390.602 660.95 389.703 658.846 389.703H656.982V386.375H658.846C659.764 386.375 660.472 386.184 660.969 385.802C661.466 385.419 661.715 384.827 661.715 384.023C661.715 383.297 661.476 382.704 660.998 382.245C660.52 381.786 659.803 381.557 658.846 381.557C657.871 381.557 657.145 381.786 656.666 382.245C656.208 382.685 655.978 383.325 655.978 384.167H651.676C651.676 382.197 652.268 380.667 653.454 379.577C654.659 378.487 656.456 377.942 658.846 377.942C660.051 377.942 661.103 378.086 662.002 378.373C662.9 378.64 663.646 379.023 664.239 379.52C664.832 379.998 665.272 380.572 665.558 381.241C665.864 381.91 666.017 382.637 666.017 383.421C666.017 384.53 665.702 385.477 665.071 386.261C664.459 387.026 663.637 387.571 662.604 387.896C663.79 388.221 664.698 388.785 665.329 389.588C665.979 390.391 666.304 391.452 666.304 392.772C666.304 393.632 666.132 394.426 665.788 395.153C665.444 395.879 664.947 396.51 664.296 397.046C663.665 397.562 662.881 397.973 661.944 398.279C661.026 398.566 659.994 398.709 658.846 398.709ZM668.612 395.239L675.64 389.186C676.29 388.613 676.845 388.116 677.304 387.695C677.762 387.255 678.135 386.854 678.422 386.49C678.709 386.127 678.91 385.773 679.025 385.429C679.158 385.085 679.225 384.712 679.225 384.31C679.225 383.488 678.996 382.828 678.537 382.331C678.078 381.815 677.399 381.557 676.5 381.557C675.468 381.557 674.655 381.843 674.062 382.417C673.489 382.972 673.202 383.937 673.202 385.314H668.899C668.899 383.039 669.54 381.241 670.821 379.922C672.121 378.602 674.014 377.942 676.5 377.942C677.667 377.942 678.68 378.105 679.541 378.43C680.42 378.736 681.157 379.176 681.749 379.75C682.342 380.304 682.782 380.973 683.069 381.757C683.375 382.541 683.528 383.392 683.528 384.31C683.528 384.999 683.404 385.658 683.155 386.289C682.906 386.901 682.562 387.494 682.122 388.068C681.702 388.641 681.204 389.206 680.631 389.76C680.057 390.296 679.445 390.831 678.795 391.366L674.665 394.808H683.815V398.365H668.612V395.239Z" fill="black"/>
<rect x="615.816" y="333.161" width="104.135" height="109.408" stroke="#DADADA" stroke-width="2"/>
<rect x="719.951" y="333.161" width="104.135" height="109.408" fill="#F7F7F7"/>
<path d="M756.81 394.808H761.4V382.647L756.81 385.917V381.729L761.658 378.287H765.702V394.808H769.431V398.365H756.81V394.808ZM779.324 398.709C778.062 398.709 776.943 398.528 775.968 398.164C774.992 397.801 774.17 397.237 773.501 396.472C772.832 395.688 772.315 394.694 771.952 393.489C771.608 392.284 771.436 390.85 771.436 389.186V388.613C771.436 386.701 771.636 385.075 772.038 383.737C772.44 382.379 773.004 381.27 773.73 380.409C774.457 379.549 775.317 378.927 776.312 378.545C777.325 378.143 778.425 377.942 779.61 377.942C781.465 377.942 782.966 378.334 784.114 379.118C785.261 379.902 785.959 381.203 786.208 383.019H782.192C781.81 382.044 780.901 381.557 779.467 381.557C778.912 381.557 778.396 381.643 777.918 381.815C777.459 381.968 777.048 382.264 776.685 382.704C776.341 383.125 776.063 383.708 775.853 384.454C775.643 385.199 775.509 386.156 775.451 387.322C775.7 386.94 776.006 386.624 776.369 386.375C776.733 386.108 777.125 385.897 777.545 385.744C777.985 385.572 778.434 385.448 778.893 385.372C779.371 385.295 779.849 385.257 780.328 385.257C782.355 385.257 783.913 385.811 785.003 386.92C786.093 388.01 786.638 389.559 786.638 391.567V391.883C786.638 392.896 786.456 393.824 786.093 394.665C785.73 395.506 785.223 396.233 784.573 396.845C783.942 397.438 783.177 397.897 782.278 398.222C781.379 398.547 780.394 398.709 779.324 398.709ZM779.037 395.095C780.069 395.095 780.873 394.808 781.446 394.235C782.039 393.642 782.335 392.887 782.335 391.969V391.682C782.335 390.764 782.039 390.018 781.446 389.445C780.873 388.871 780.069 388.584 779.037 388.584C778.004 388.584 777.191 388.871 776.599 389.445C776.025 390.018 775.738 390.764 775.738 391.682V391.969C775.738 392.887 776.025 393.642 776.599 394.235C777.191 394.808 778.004 395.095 779.037 395.095Z" fill="black"/>
<rect x="719.951" y="333.161" width="104.135" height="109.408" stroke="#DADADA" stroke-width="2"/>
<rect x="824.086" y="333.161" width="104.135" height="109.408" fill="#F7F7F7"/>
<path d="M875.69 398.709C874.485 398.709 873.395 398.576 872.42 398.308C871.464 398.021 870.651 397.629 869.982 397.132C869.331 396.616 868.825 396.004 868.461 395.296C868.117 394.569 867.945 393.766 867.945 392.887C867.945 391.758 868.289 390.754 868.978 389.875C869.666 388.976 870.689 388.345 872.047 387.982C871.033 387.657 870.192 387.093 869.523 386.289C868.853 385.486 868.519 384.53 868.519 383.421C868.519 382.618 868.672 381.882 868.978 381.212C869.303 380.543 869.771 379.969 870.383 379.491C870.995 378.994 871.741 378.612 872.621 378.344C873.519 378.076 874.542 377.942 875.69 377.942C876.837 377.942 877.85 378.076 878.73 378.344C879.629 378.612 880.384 378.994 880.996 379.491C881.627 379.969 882.096 380.543 882.402 381.212C882.727 381.882 882.889 382.618 882.889 383.421C882.889 384.53 882.555 385.477 881.885 386.261C881.216 387.026 880.365 387.599 879.332 387.982C882.067 388.823 883.434 390.458 883.434 392.887C883.434 393.766 883.253 394.569 882.889 395.296C882.545 396.004 882.038 396.616 881.369 397.132C880.719 397.629 879.916 398.021 878.96 398.308C878.003 398.576 876.913 398.709 875.69 398.709ZM875.69 395.095C876.875 395.095 877.745 394.866 878.3 394.407C878.854 393.948 879.132 393.326 879.132 392.542C879.132 391.682 878.807 391.003 878.156 390.506C877.525 389.99 876.703 389.655 875.69 389.502C874.676 389.655 873.844 389.99 873.194 390.506C872.563 391.003 872.248 391.682 872.248 392.542C872.248 393.326 872.534 393.948 873.108 394.407C873.682 394.866 874.542 395.095 875.69 395.095ZM875.69 386.576C876.55 386.423 877.248 386.127 877.784 385.687C878.319 385.228 878.587 384.597 878.587 383.794C878.587 383.048 878.329 382.494 877.812 382.13C877.315 381.748 876.608 381.557 875.69 381.557C874.791 381.557 874.083 381.748 873.567 382.13C873.07 382.494 872.821 383.048 872.821 383.794C872.821 384.597 873.079 385.228 873.596 385.687C874.131 386.127 874.829 386.423 875.69 386.576Z" fill="black"/>
<rect x="824.086" y="333.161" width="104.135" height="109.408" stroke="#DADADA" stroke-width="2"/>
<rect x="928.221" y="333.161" width="104.135" height="109.408" fill="#F7F7F7"/>
<path d="M980.828 394.12H971.363V391.137L980.828 378.287H985.131V390.563H987.426V394.12H985.131V398.365H980.828V394.12ZM980.828 390.563V383.077L975.378 390.563H980.828Z" fill="black"/>
<rect x="928.221" y="333.161" width="104.135" height="109.408" stroke="#DADADA" stroke-width="2"/>
<rect x="1032.36" y="333.161" width="104.135" height="109.408" fill="#F7F7F7"/>
<path d="M1076.28 395.239L1083.31 389.186C1083.96 388.613 1084.52 388.116 1084.98 387.695C1085.43 387.255 1085.81 386.854 1086.09 386.49C1086.38 386.127 1086.58 385.773 1086.7 385.429C1086.83 385.085 1086.9 384.712 1086.9 384.31C1086.9 383.488 1086.67 382.828 1086.21 382.331C1085.75 381.815 1085.07 381.557 1084.17 381.557C1083.14 381.557 1082.33 381.843 1081.73 382.417C1081.16 382.972 1080.87 383.937 1080.87 385.314H1076.57C1076.57 383.039 1077.21 381.241 1078.49 379.922C1079.79 378.602 1081.69 377.942 1084.17 377.942C1085.34 377.942 1086.35 378.105 1087.21 378.43C1088.09 378.736 1088.83 379.176 1089.42 379.75C1090.01 380.304 1090.45 380.973 1090.74 381.757C1091.05 382.541 1091.2 383.392 1091.2 384.31C1091.2 384.999 1091.08 385.658 1090.83 386.289C1090.58 386.901 1090.23 387.494 1089.79 388.068C1089.37 388.641 1088.88 389.206 1088.3 389.76C1087.73 390.296 1087.12 390.831 1086.47 391.366L1082.34 394.808H1091.49V398.365H1076.28V395.239Z" fill="black"/>
<rect x="1032.36" y="333.161" width="104.135" height="109.408" stroke="#DADADA" stroke-width="2"/>
<rect x="1136.49" y="333.161" width="104.135" height="109.408" fill="#F7F7F7"/>
<path d="M1182.35 394.808H1186.94V382.647L1182.35 385.917V381.729L1187.2 378.287H1191.24V394.808H1194.97V398.365H1182.35V394.808Z" fill="black"/>
<rect x="1136.49" y="333.161" width="104.135" height="109.408" stroke="#DADADA" stroke-width="2"/>
<path d="M175.816 680.688V149.941H642.079L776.13 218.427L910.182 149.941H1376.44V680.688" stroke="black" stroke-width="3"/>
<path d="M767.314 232.167L604.993 151.006L767.314 69.846L929.636 151.006L767.314 232.167Z" fill="white" stroke="black" stroke-width="3"/>
<path d="M1376.44 813.779L1385.1 798.779L1367.78 798.779L1376.44 813.779ZM1374.94 743.143L1374.94 800.279L1377.94 800.279L1377.94 743.143L1374.94 743.143Z" fill="black"/>
<rect x="1271.08" y="683.779" width="210.727" height="59.3633" fill="#F3F3F3"/>
<path d="M1298.02 720.404H1300.25C1300.54 719.735 1300.78 718.932 1300.97 717.995C1301.16 717.039 1301.32 716.035 1301.43 714.983C1301.55 713.912 1301.63 712.822 1301.69 711.713C1301.75 710.585 1301.77 709.504 1301.77 708.472V703.882H1315.92V720.404H1318.1V727.69H1314.25V723.961H1301.86V727.69H1298.02V720.404ZM1311.61 720.404V707.439H1305.85V709.045C1305.85 711.665 1305.72 713.874 1305.47 715.671C1305.23 717.469 1304.87 719.046 1304.41 720.404H1311.61ZM1327.42 724.305C1326.39 724.305 1325.4 724.152 1324.47 723.846C1323.55 723.521 1322.75 723.033 1322.06 722.383C1321.37 721.733 1320.82 720.92 1320.42 719.945C1320.02 718.97 1319.82 717.823 1319.82 716.503V715.93C1319.82 714.687 1320.02 713.597 1320.42 712.66C1320.82 711.723 1321.37 710.939 1322.06 710.308C1322.75 709.676 1323.55 709.208 1324.47 708.902C1325.4 708.577 1326.39 708.414 1327.42 708.414C1328.45 708.414 1329.43 708.577 1330.35 708.902C1331.26 709.208 1332.07 709.676 1332.76 710.308C1333.46 710.939 1334.02 711.723 1334.42 712.66C1334.82 713.597 1335.02 714.687 1335.02 715.93V716.503C1335.02 717.804 1334.82 718.941 1334.42 719.917C1334.02 720.892 1333.46 721.704 1332.76 722.355C1332.07 723.005 1331.26 723.492 1330.35 723.818C1329.43 724.143 1328.45 724.305 1327.42 724.305ZM1327.42 721.093C1328.49 721.093 1329.38 720.71 1330.09 719.945C1330.82 719.18 1331.18 718.033 1331.18 716.503V715.93C1331.18 714.534 1330.82 713.472 1330.09 712.746C1329.38 712 1328.49 711.627 1327.42 711.627C1326.33 711.627 1325.43 712 1324.72 712.746C1324.02 713.472 1323.66 714.534 1323.66 715.93V716.503C1323.66 718.052 1324.02 719.209 1324.72 719.974C1325.43 720.72 1326.33 721.093 1327.42 721.093ZM1344.62 724.305C1343.55 724.305 1342.55 724.123 1341.64 723.76C1340.74 723.397 1339.95 722.852 1339.29 722.125C1338.62 721.379 1338.09 720.471 1337.71 719.4C1337.34 718.31 1337.16 717.048 1337.16 715.614V714.954C1337.16 713.233 1337.29 711.703 1337.54 710.365C1337.8 709.026 1338.23 707.889 1338.83 706.952C1339.44 706.015 1340.24 705.288 1341.24 704.772C1342.25 704.236 1343.51 703.93 1345.02 703.854C1345.61 703.835 1346.2 703.815 1346.77 703.796C1347.35 703.777 1347.89 703.748 1348.41 703.71C1348.92 703.672 1349.39 703.615 1349.81 703.538C1350.23 703.443 1350.61 703.318 1350.93 703.165V706.521C1350.62 706.693 1350.05 706.837 1349.21 706.952C1348.39 707.066 1347.13 707.133 1345.45 707.152C1344.59 707.171 1343.85 707.277 1343.21 707.468C1342.6 707.64 1342.09 707.927 1341.67 708.328C1341.26 708.711 1340.94 709.218 1340.69 709.849C1340.46 710.48 1340.3 711.254 1340.2 712.172C1340.64 711.311 1341.3 710.613 1342.18 710.078C1343.06 709.543 1344.21 709.275 1345.62 709.275C1346.58 709.275 1347.45 709.428 1348.23 709.734C1349.02 710.021 1349.7 710.451 1350.27 711.025C1350.84 711.598 1351.28 712.306 1351.59 713.147C1351.92 713.989 1352.08 714.964 1352.08 716.073V716.618C1352.08 717.823 1351.89 718.903 1351.5 719.859C1351.14 720.815 1350.62 721.628 1349.96 722.297C1349.29 722.947 1348.49 723.445 1347.57 723.789C1346.68 724.133 1345.69 724.305 1344.62 724.305ZM1344.62 721.093C1345.77 721.093 1346.66 720.72 1347.29 719.974C1347.92 719.209 1348.23 718.129 1348.23 716.733V716.159C1348.23 714.954 1347.91 714.008 1347.26 713.319C1346.61 712.631 1345.73 712.287 1344.62 712.287C1343.53 712.287 1342.65 712.631 1341.98 713.319C1341.33 714.008 1341.01 714.954 1341.01 716.159V716.675C1341.01 717.364 1341.09 717.985 1341.26 718.54C1341.46 719.094 1341.71 719.563 1342.04 719.945C1342.36 720.309 1342.75 720.595 1343.19 720.806C1343.63 720.997 1344.1 721.093 1344.62 721.093ZM1359.36 724.305C1358.53 724.305 1357.81 724.19 1357.18 723.961C1356.54 723.712 1356.01 723.378 1355.57 722.957C1355.13 722.517 1354.8 722.01 1354.57 721.437C1354.34 720.844 1354.22 720.203 1354.22 719.515C1354.22 716.455 1356.04 714.926 1359.67 714.926H1364.2V714.208C1364.2 713.214 1363.97 712.516 1363.51 712.115C1363.08 711.713 1362.37 711.512 1361.39 711.512C1360.53 711.512 1359.91 711.665 1359.53 711.971C1359.15 712.258 1358.93 712.621 1358.87 713.061H1355.08C1355.12 712.411 1355.28 711.799 1355.57 711.225C1355.88 710.652 1356.3 710.164 1356.83 709.763C1357.39 709.342 1358.06 709.017 1358.84 708.787C1359.62 708.539 1360.52 708.414 1361.54 708.414C1362.51 708.414 1363.39 708.52 1364.17 708.73C1364.98 708.94 1365.66 709.284 1366.21 709.763C1366.78 710.221 1367.22 710.824 1367.53 711.57C1367.84 712.315 1367.99 713.214 1367.99 714.266V720.089C1367.99 720.892 1368 721.599 1368.02 722.211C1368.06 722.804 1368.11 723.387 1368.19 723.961H1364.66C1364.59 723.54 1364.54 723.225 1364.52 723.014C1364.52 722.785 1364.52 722.45 1364.52 722.01C1364.1 722.622 1363.46 723.158 1362.6 723.617C1361.76 724.076 1360.68 724.305 1359.36 724.305ZM1360.53 721.379C1360.99 721.379 1361.44 721.322 1361.88 721.207C1362.32 721.073 1362.71 720.882 1363.06 720.634C1363.4 720.366 1363.68 720.031 1363.89 719.63C1364.1 719.228 1364.2 718.76 1364.2 718.224V717.507H1360.39C1359.66 717.507 1359.09 717.679 1358.67 718.023C1358.27 718.348 1358.06 718.798 1358.06 719.372C1358.06 719.983 1358.28 720.471 1358.7 720.834C1359.12 721.198 1359.73 721.379 1360.53 721.379ZM1371.29 708.759H1378.92C1379.9 708.759 1380.73 708.864 1381.42 709.074C1382.13 709.265 1382.71 709.543 1383.17 709.906C1383.63 710.269 1383.96 710.7 1384.17 711.197C1384.38 711.694 1384.49 712.239 1384.49 712.832C1384.49 713.539 1384.27 714.208 1383.83 714.84C1383.41 715.451 1382.82 715.863 1382.08 716.073C1383.02 716.302 1383.74 716.742 1384.26 717.392C1384.79 718.023 1385.06 718.769 1385.06 719.63C1385.06 720.949 1384.6 722.001 1383.69 722.785C1382.77 723.569 1381.37 723.961 1379.5 723.961H1371.29V708.759ZM1378.75 720.92C1379.61 720.92 1380.24 720.796 1380.64 720.548C1381.07 720.28 1381.28 719.859 1381.28 719.285C1381.28 718.712 1381.07 718.301 1380.67 718.052C1380.29 717.784 1379.65 717.651 1378.75 717.651H1375.08V720.92H1378.75ZM1378.38 714.84C1379.26 714.84 1379.86 714.715 1380.19 714.467C1380.53 714.218 1380.7 713.836 1380.7 713.319C1380.7 712.822 1380.53 712.449 1380.19 712.201C1379.84 711.933 1379.24 711.799 1378.38 711.799H1375.08V714.84H1378.38ZM1387.79 708.759H1391.58V718.511L1398.35 708.759H1401.85V723.961H1398.06V714.208L1391.29 723.961H1387.79V708.759ZM1409 711.914H1404.15V708.759H1417.63V711.914H1412.79V723.961H1409V711.914ZM1419.92 708.759H1423.71V713.864H1426.95C1430.87 713.864 1432.83 715.547 1432.83 718.913C1432.83 719.658 1432.71 720.347 1432.49 720.978C1432.27 721.59 1431.93 722.116 1431.45 722.555C1430.97 722.995 1430.36 723.339 1429.62 723.588C1428.87 723.837 1427.98 723.961 1426.95 723.961H1419.92V708.759ZM1426.52 720.92C1427.44 720.92 1428.09 720.758 1428.47 720.433C1428.85 720.089 1429.04 719.582 1429.04 718.913C1429.04 718.243 1428.84 717.746 1428.44 717.421C1428.06 717.077 1427.42 716.905 1426.52 716.905H1423.71V720.92H1426.52ZM1442.01 720.404H1446.6V708.242L1442.01 711.512V707.324L1446.86 703.882H1450.9V720.404H1454.63V723.961H1442.01V720.404Z" fill="black"/>
<rect x="1271.08" y="683.779" width="210.727" height="59.3633" stroke="#DADADA" stroke-width="2"/>
<rect x="1321.08" y="813.779" width="110.727" height="59.3633" fill="#F3F3F3"/>
<path d="M1349.16 838.759H1352.66V840.996C1353.03 840.308 1353.61 839.705 1354.41 839.189C1355.24 838.673 1356.34 838.414 1357.71 838.414C1359.57 838.414 1360.94 838.912 1361.84 839.906C1362.76 840.9 1363.22 842.334 1363.22 844.208V853.961H1359.43V845.069C1359.43 843.922 1359.19 843.061 1358.72 842.487C1358.26 841.914 1357.46 841.627 1356.34 841.627C1355.72 841.627 1355.21 841.723 1354.79 841.914C1354.37 842.105 1354.01 842.363 1353.73 842.688C1353.46 842.994 1353.26 843.358 1353.12 843.778C1353.01 844.18 1352.95 844.61 1352.95 845.069V853.961H1349.16V838.759ZM1372.84 844.151H1382.02V847.708H1372.84V844.151ZM1391.34 850.404H1395.93V838.242L1391.34 841.512V837.324L1396.19 833.882H1400.23V850.404H1403.96V853.961H1391.34V850.404Z" fill="black"/>
<rect x="1321.08" y="813.779" width="110.727" height="59.3633" stroke="#DADADA" stroke-width="2"/>
<path d="M231.081 372.633H243.05V387.865H241.004V374.417H233.127V387.865H231.081V372.633ZM251.754 388.083C251.014 388.083 250.31 387.967 249.643 387.735C248.976 387.488 248.388 387.125 247.88 386.647C247.373 386.153 246.966 385.537 246.662 384.797C246.357 384.057 246.205 383.194 246.205 382.208V381.772C246.205 380.844 246.357 380.024 246.662 379.313C246.966 378.603 247.373 378.015 247.88 377.551C248.388 377.072 248.976 376.717 249.643 376.485C250.31 376.238 251.014 376.115 251.754 376.115C252.494 376.115 253.197 376.238 253.864 376.485C254.532 376.717 255.119 377.072 255.627 377.551C256.135 378.015 256.541 378.603 256.846 379.313C257.15 380.024 257.303 380.844 257.303 381.772V382.208C257.303 383.194 257.15 384.057 256.846 384.797C256.541 385.537 256.135 386.153 255.627 386.647C255.119 387.125 254.532 387.488 253.864 387.735C253.197 387.967 252.494 388.083 251.754 388.083ZM251.754 386.342C252.189 386.342 252.624 386.269 253.059 386.124C253.495 385.965 253.879 385.725 254.213 385.406C254.546 385.073 254.815 384.645 255.018 384.122C255.235 383.6 255.344 382.962 255.344 382.208V381.772C255.344 381.076 255.235 380.481 255.018 379.988C254.815 379.495 254.546 379.089 254.213 378.769C253.879 378.45 253.495 378.218 253.059 378.073C252.624 377.928 252.189 377.855 251.754 377.855C251.318 377.855 250.883 377.928 250.448 378.073C250.013 378.218 249.628 378.45 249.295 378.769C248.961 379.089 248.685 379.495 248.468 379.988C248.265 380.481 248.163 381.076 248.163 381.772V382.208C248.163 382.962 248.265 383.6 248.468 384.122C248.685 384.645 248.961 385.073 249.295 385.406C249.628 385.725 250.013 385.965 250.448 386.124C250.883 386.269 251.318 386.342 251.754 386.342ZM263.931 388.083C262.48 388.083 261.341 387.778 260.515 387.169C259.688 386.56 259.231 385.704 259.144 384.601H261.059C261.16 385.167 261.458 385.602 261.951 385.907C262.459 386.197 263.119 386.342 263.931 386.342C264.932 386.342 265.657 386.175 266.107 385.842C266.571 385.493 266.803 385.08 266.803 384.601C266.803 384.035 266.615 383.593 266.238 383.274C265.86 382.94 265.208 382.773 264.279 382.773H262.299V381.207H264.149C264.946 381.207 265.512 381.054 265.846 380.75C266.194 380.445 266.368 380.017 266.368 379.466C266.368 379.031 266.165 378.653 265.759 378.334C265.353 378.015 264.743 377.855 263.931 377.855C263.046 377.855 262.4 378.001 261.994 378.291C261.603 378.566 261.363 378.965 261.276 379.487H259.361C259.405 379.009 259.535 378.566 259.753 378.16C259.985 377.739 260.297 377.377 260.689 377.072C261.08 376.767 261.545 376.535 262.081 376.376C262.633 376.202 263.249 376.115 263.931 376.115C264.671 376.115 265.309 376.202 265.846 376.376C266.397 376.535 266.854 376.767 267.217 377.072C267.579 377.362 267.848 377.71 268.022 378.117C268.196 378.523 268.283 378.973 268.283 379.466C268.283 380.017 268.145 380.503 267.87 380.924C267.594 381.33 267.152 381.649 266.542 381.881C267.355 382.099 267.92 382.447 268.24 382.926C268.559 383.404 268.718 383.963 268.718 384.601C268.718 385.08 268.617 385.53 268.414 385.95C268.211 386.371 267.906 386.741 267.5 387.06C267.108 387.365 266.607 387.611 265.998 387.8C265.403 387.989 264.714 388.083 263.931 388.083ZM271.447 376.332H273.362V385.036L279.324 376.332H281.239V387.865H279.324V379.161L273.362 387.865H271.447V376.332ZM294.107 387.865H284.728V376.332H286.643V386.168H292.17V376.332H294.085V386.168H295.935V390.585H294.107V387.865ZM298.222 376.332H300.137V385.036L306.099 376.332H308.014V387.865H306.099V379.161L300.137 387.865H298.222V376.332ZM316.291 388.083C315.551 388.083 314.848 387.967 314.18 387.735C313.513 387.488 312.925 387.125 312.418 386.647C311.91 386.153 311.504 385.537 311.199 384.797C310.894 384.057 310.742 383.194 310.742 382.208V381.772C310.742 380.844 310.894 380.024 311.199 379.313C311.504 378.603 311.91 378.015 312.418 377.551C312.925 377.072 313.513 376.717 314.18 376.485C314.848 376.238 315.551 376.115 316.291 376.115C317.031 376.115 317.734 376.238 318.402 376.485C319.069 376.717 319.657 377.072 320.164 377.551C320.672 378.015 321.078 378.603 321.383 379.313C321.688 380.024 321.84 380.844 321.84 381.772V382.208C321.84 383.194 321.688 384.057 321.383 384.797C321.078 385.537 320.672 386.153 320.164 386.647C319.657 387.125 319.069 387.488 318.402 387.735C317.734 387.967 317.031 388.083 316.291 388.083ZM316.291 386.342C316.726 386.342 317.161 386.269 317.597 386.124C318.032 385.965 318.416 385.725 318.75 385.406C319.084 385.073 319.352 384.645 319.555 384.122C319.773 383.6 319.881 382.962 319.881 382.208V381.772C319.881 381.076 319.773 380.481 319.555 379.988C319.352 379.495 319.084 379.089 318.75 378.769C318.416 378.45 318.032 378.218 317.597 378.073C317.161 377.928 316.726 377.855 316.291 377.855C315.856 377.855 315.421 377.928 314.985 378.073C314.55 378.218 314.166 378.45 313.832 378.769C313.498 379.089 313.223 379.495 313.005 379.988C312.802 380.481 312.701 381.076 312.701 381.772V382.208C312.701 382.962 312.802 383.6 313.005 384.122C313.223 384.645 313.498 385.073 313.832 385.406C314.166 385.725 314.55 385.965 314.985 386.124C315.421 386.269 315.856 386.342 316.291 386.342ZM324.551 376.332H326.466V381.141H332.429V376.332H334.344V387.865H332.429V382.839H326.466V387.865H324.551V376.332ZM337.833 376.332H339.748V381.141H345.71V376.332H347.625V387.865H345.71V382.839H339.748V387.865H337.833V376.332ZM355.902 388.083C355.162 388.083 354.458 387.967 353.791 387.735C353.124 387.488 352.536 387.125 352.028 386.647C351.521 386.153 351.114 385.537 350.81 384.797C350.505 384.057 350.353 383.194 350.353 382.208V381.772C350.353 380.844 350.505 380.024 350.81 379.313C351.114 378.603 351.521 378.015 352.028 377.551C352.536 377.072 353.124 376.717 353.791 376.485C354.458 376.238 355.162 376.115 355.902 376.115C356.641 376.115 357.345 376.238 358.012 376.485C358.68 376.717 359.267 377.072 359.775 377.551C360.283 378.015 360.689 378.603 360.994 379.313C361.298 380.024 361.45 380.844 361.45 381.772V382.208C361.45 383.194 361.298 384.057 360.994 384.797C360.689 385.537 360.283 386.153 359.775 386.647C359.267 387.125 358.68 387.488 358.012 387.735C357.345 387.967 356.641 388.083 355.902 388.083ZM355.902 386.342C356.337 386.342 356.772 386.269 357.207 386.124C357.642 385.965 358.027 385.725 358.361 385.406C358.694 385.073 358.963 384.645 359.166 384.122C359.383 383.6 359.492 382.962 359.492 382.208V381.772C359.492 381.076 359.383 380.481 359.166 379.988C358.963 379.495 358.694 379.089 358.361 378.769C358.027 378.45 357.642 378.218 357.207 378.073C356.772 377.928 356.337 377.855 355.902 377.855C355.466 377.855 355.031 377.928 354.596 378.073C354.161 378.218 353.776 378.45 353.443 378.769C353.109 379.089 352.833 379.495 352.616 379.988C352.413 380.481 352.311 381.076 352.311 381.772V382.208C352.311 382.962 352.413 383.6 352.616 384.122C352.833 384.645 353.109 385.073 353.443 385.406C353.776 385.725 354.161 385.965 354.596 386.124C355.031 386.269 355.466 386.342 355.902 386.342ZM368.949 388.083C368.209 388.083 367.506 387.967 366.839 387.735C366.171 387.503 365.584 387.147 365.076 386.668C364.568 386.175 364.162 385.559 363.857 384.819C363.553 384.079 363.4 383.209 363.4 382.208V381.772C363.4 380.815 363.545 379.988 363.836 379.292C364.126 378.581 364.51 377.993 364.989 377.529C365.482 377.05 366.048 376.695 366.686 376.463C367.339 376.231 368.021 376.115 368.732 376.115C370.429 376.115 371.742 376.579 372.67 377.507C373.599 378.436 374.063 379.749 374.063 381.446V382.665H365.315C365.315 383.346 365.424 383.919 365.642 384.384C365.859 384.848 366.142 385.225 366.49 385.515C366.839 385.805 367.223 386.016 367.644 386.146C368.079 386.277 368.514 386.342 368.949 386.342C369.82 386.342 370.487 386.197 370.951 385.907C371.43 385.617 371.771 385.218 371.974 384.71H373.845C373.729 385.261 373.519 385.747 373.214 386.168C372.924 386.589 372.562 386.944 372.126 387.234C371.706 387.51 371.22 387.72 370.668 387.865C370.132 388.01 369.559 388.083 368.949 388.083ZM368.841 377.855C368.391 377.855 367.956 377.921 367.535 378.051C367.114 378.167 366.737 378.363 366.403 378.639C366.084 378.9 365.823 379.234 365.62 379.64C365.417 380.046 365.315 380.532 365.315 381.098H372.257C372.242 380.503 372.141 380.002 371.952 379.596C371.778 379.176 371.539 378.842 371.234 378.595C370.93 378.334 370.567 378.146 370.146 378.03C369.74 377.914 369.305 377.855 368.841 377.855ZM257.184 412.083C255.733 412.083 254.595 411.778 253.768 411.169C252.941 410.56 252.484 409.704 252.397 408.601H254.312C254.413 409.167 254.711 409.602 255.204 409.907C255.712 410.197 256.372 410.342 257.184 410.342C258.185 410.342 258.91 410.175 259.36 409.842C259.824 409.493 260.056 409.08 260.056 408.601C260.056 408.035 259.868 407.593 259.491 407.274C259.113 406.94 258.461 406.773 257.532 406.773H255.552V405.207H257.402C258.199 405.207 258.765 405.054 259.099 404.75C259.447 404.445 259.621 404.017 259.621 403.466C259.621 403.031 259.418 402.653 259.012 402.334C258.606 402.015 257.996 401.855 257.184 401.855C256.299 401.855 255.654 402.001 255.247 402.291C254.856 402.566 254.616 402.965 254.529 403.487H252.614C252.658 403.009 252.788 402.566 253.006 402.16C253.238 401.739 253.55 401.377 253.942 401.072C254.333 400.767 254.798 400.535 255.334 400.376C255.886 400.202 256.502 400.115 257.184 400.115C257.924 400.115 258.562 400.202 259.099 400.376C259.65 400.535 260.107 400.767 260.47 401.072C260.832 401.362 261.101 401.71 261.275 402.117C261.449 402.523 261.536 402.973 261.536 403.466C261.536 404.017 261.398 404.503 261.123 404.924C260.847 405.33 260.405 405.649 259.795 405.881C260.608 406.099 261.173 406.447 261.493 406.926C261.812 407.404 261.971 407.963 261.971 408.601C261.971 409.08 261.87 409.53 261.667 409.95C261.464 410.371 261.159 410.741 260.753 411.06C260.361 411.365 259.861 411.611 259.251 411.8C258.656 411.989 257.967 412.083 257.184 412.083ZM264.7 400.332H266.615V405.141H272.577V400.332H274.492V411.865H272.577V406.839H266.615V411.865H264.7V400.332ZM281.267 412.083C280.629 412.083 280.063 411.996 279.57 411.822C279.091 411.633 278.685 411.379 278.351 411.06C278.018 410.741 277.764 410.364 277.59 409.929C277.416 409.493 277.328 409.015 277.328 408.492C277.328 407.346 277.662 406.519 278.329 406.012C279.011 405.504 279.983 405.25 281.245 405.25H284.988V404.467C284.988 403.48 284.763 402.798 284.314 402.421C283.878 402.044 283.218 401.855 282.333 401.855C281.506 401.855 280.904 402.015 280.527 402.334C280.15 402.639 279.94 402.987 279.896 403.379H277.981C278.01 402.914 278.134 402.487 278.351 402.095C278.583 401.689 278.888 401.34 279.265 401.05C279.657 400.76 280.121 400.535 280.658 400.376C281.195 400.202 281.789 400.115 282.442 400.115C283.806 400.115 284.887 400.441 285.684 401.094C286.497 401.732 286.903 402.784 286.903 404.249V408.928C286.903 409.537 286.903 410.074 286.903 410.538C286.918 410.988 286.954 411.43 287.012 411.865H285.336C285.293 411.532 285.264 411.22 285.249 410.93C285.235 410.625 285.227 410.284 285.227 409.907C284.923 410.516 284.43 411.031 283.748 411.452C283.066 411.872 282.239 412.083 281.267 412.083ZM281.681 410.342C282.13 410.342 282.551 410.284 282.943 410.168C283.349 410.037 283.704 409.856 284.009 409.624C284.314 409.377 284.553 409.08 284.727 408.732C284.901 408.384 284.988 407.977 284.988 407.513V406.73H281.572C280.861 406.73 280.302 406.875 279.896 407.165C279.49 407.441 279.287 407.883 279.287 408.492C279.287 409.029 279.475 409.472 279.853 409.82C280.244 410.168 280.854 410.342 281.681 410.342ZM296.966 407.274C296.632 407.477 296.226 407.658 295.747 407.818C295.283 407.977 294.695 408.057 293.984 408.057C293.317 408.057 292.715 407.985 292.178 407.84C291.656 407.695 291.214 407.462 290.851 407.143C290.488 406.824 290.213 406.411 290.024 405.903C289.836 405.395 289.741 404.771 289.741 404.032V400.332H291.656V403.705C291.656 404.198 291.7 404.612 291.787 404.945C291.888 405.279 292.048 405.547 292.265 405.751C292.483 405.954 292.759 406.099 293.092 406.186C293.426 406.273 293.832 406.316 294.311 406.316C294.964 406.316 295.522 406.251 295.986 406.121C296.451 405.99 296.777 405.852 296.966 405.707V400.332H298.881V411.865H296.966V407.274ZM307.143 412.083C306.403 412.083 305.699 411.967 305.032 411.735C304.365 411.503 303.777 411.147 303.269 410.668C302.762 410.175 302.355 409.559 302.051 408.819C301.746 408.079 301.594 407.209 301.594 406.208V405.772C301.594 404.815 301.739 403.988 302.029 403.292C302.319 402.581 302.704 401.993 303.182 401.529C303.676 401.05 304.241 400.695 304.88 400.463C305.532 400.231 306.214 400.115 306.925 400.115C308.622 400.115 309.935 400.579 310.864 401.507C311.792 402.436 312.256 403.749 312.256 405.446V406.665H303.509C303.509 407.346 303.618 407.919 303.835 408.384C304.053 408.848 304.336 409.225 304.684 409.515C305.032 409.805 305.416 410.016 305.837 410.146C306.272 410.277 306.707 410.342 307.143 410.342C308.013 410.342 308.68 410.197 309.145 409.907C309.623 409.617 309.964 409.218 310.167 408.71H312.039C311.923 409.261 311.712 409.747 311.408 410.168C311.118 410.589 310.755 410.944 310.32 411.234C309.899 411.51 309.413 411.72 308.862 411.865C308.325 412.01 307.752 412.083 307.143 412.083ZM307.034 401.855C306.584 401.855 306.149 401.921 305.728 402.051C305.308 402.167 304.93 402.363 304.597 402.639C304.278 402.9 304.016 403.234 303.813 403.64C303.61 404.046 303.509 404.532 303.509 405.098H310.45C310.436 404.503 310.334 404.002 310.146 403.596C309.972 403.176 309.732 402.842 309.428 402.595C309.123 402.334 308.76 402.146 308.34 402.03C307.933 401.914 307.498 401.855 307.034 401.855ZM314.978 400.332H316.893V405.141H322.855V400.332H324.77V411.865H322.855V406.839H316.893V411.865H314.978V400.332ZM328.26 400.332H330.174V409.036L336.137 400.332H338.052V411.865H336.137V403.161L330.174 411.865H328.26V400.332ZM346.328 412.083C345.588 412.083 344.885 411.967 344.218 411.735C343.55 411.503 342.963 411.147 342.455 410.668C341.947 410.175 341.541 409.559 341.236 408.819C340.932 408.079 340.779 407.209 340.779 406.208V405.772C340.779 404.815 340.925 403.988 341.215 403.292C341.505 402.581 341.889 401.993 342.368 401.529C342.861 401.05 343.427 400.695 344.065 400.463C344.718 400.231 345.4 400.115 346.111 400.115C347.808 400.115 349.121 400.579 350.049 401.507C350.978 402.436 351.442 403.749 351.442 405.446V406.665H342.694C342.694 407.346 342.803 407.919 343.021 408.384C343.238 408.848 343.521 409.225 343.869 409.515C344.218 409.805 344.602 410.016 345.023 410.146C345.458 410.277 345.893 410.342 346.328 410.342C347.199 410.342 347.866 410.197 348.33 409.907C348.809 409.617 349.15 409.218 349.353 408.71H351.224C351.108 409.261 350.898 409.747 350.593 410.168C350.303 410.589 349.941 410.944 349.505 411.234C349.085 411.51 348.599 411.72 348.047 411.865C347.511 412.01 346.938 412.083 346.328 412.083ZM346.22 401.855C345.77 401.855 345.335 401.921 344.914 402.051C344.493 402.167 344.116 402.363 343.782 402.639C343.463 402.9 343.202 403.234 342.999 403.64C342.796 404.046 342.694 404.532 342.694 405.098H349.636C349.621 404.503 349.52 404.002 349.331 403.596C349.157 403.176 348.918 402.842 348.613 402.595C348.309 402.334 347.946 402.146 347.525 402.03C347.119 401.914 346.684 401.855 346.22 401.855Z" fill="black"/>
<path d="M566.189 107.173H570.492V115.147H579.097V107.173H583.399V127.252H579.097V118.704H570.492V127.252H566.189V107.173ZM594.293 127.596C593.26 127.596 592.275 127.443 591.338 127.137C590.42 126.812 589.617 126.334 588.929 125.703C588.24 125.053 587.695 124.24 587.294 123.265C586.892 122.271 586.691 121.114 586.691 119.794V119.221C586.691 117.958 586.883 116.859 587.265 115.922C587.647 114.985 588.173 114.21 588.843 113.599C589.512 112.967 590.286 112.499 591.166 112.193C592.046 111.868 592.992 111.705 594.006 111.705C596.396 111.705 598.213 112.336 599.456 113.599C600.699 114.861 601.32 116.687 601.32 119.077V120.683H590.564C590.583 121.353 590.697 121.936 590.908 122.433C591.118 122.911 591.395 123.303 591.74 123.609C592.084 123.915 592.476 124.145 592.916 124.298C593.375 124.431 593.834 124.498 594.293 124.498C595.268 124.498 596.004 124.355 596.501 124.068C596.998 123.781 597.352 123.361 597.562 122.806H601.033C600.727 124.393 599.972 125.588 598.767 126.391C597.562 127.195 596.071 127.596 594.293 127.596ZM594.149 114.803C593.709 114.803 593.269 114.861 592.83 114.975C592.409 115.09 592.036 115.272 591.711 115.52C591.386 115.769 591.118 116.104 590.908 116.524C590.697 116.945 590.583 117.452 590.564 118.044H597.649C597.629 117.413 597.524 116.888 597.333 116.467C597.161 116.046 596.912 115.712 596.587 115.463C596.281 115.214 595.918 115.042 595.497 114.947C595.077 114.851 594.627 114.803 594.149 114.803ZM607.467 115.205H602.62V112.05H616.101V115.205H611.254V127.252H607.467V115.205Z" fill="black"/>
<path d="M951.363 123.695H953.6C953.887 123.026 954.126 122.223 954.317 121.286C954.508 120.33 954.661 119.326 954.776 118.274C954.891 117.203 954.977 116.113 955.034 115.004C955.092 113.876 955.12 112.795 955.12 111.763V107.173H969.261V123.695H971.441V130.981H967.598V127.252H955.206V130.981H951.363V123.695ZM964.959 123.695V110.73H959.193V112.336C959.193 114.956 959.069 117.165 958.82 118.962C958.572 120.76 958.218 122.337 957.759 123.695H964.959ZM978.584 127.596C977.761 127.596 977.035 127.481 976.404 127.252C975.773 127.003 975.237 126.669 974.797 126.248C974.357 125.808 974.023 125.301 973.793 124.728C973.564 124.135 973.449 123.494 973.449 122.806C973.449 119.746 975.266 118.217 978.899 118.217H983.431V117.499C983.431 116.505 983.202 115.807 982.743 115.406C982.303 115.004 981.595 114.803 980.62 114.803C979.76 114.803 979.138 114.956 978.756 115.262C978.373 115.549 978.153 115.912 978.096 116.352H974.31C974.348 115.702 974.51 115.09 974.797 114.516C975.103 113.943 975.524 113.455 976.059 113.054C976.614 112.633 977.283 112.308 978.067 112.078C978.851 111.83 979.75 111.705 980.764 111.705C981.739 111.705 982.618 111.811 983.402 112.021C984.206 112.231 984.884 112.575 985.439 113.054C986.013 113.512 986.452 114.115 986.758 114.861C987.064 115.606 987.217 116.505 987.217 117.557V123.38C987.217 124.183 987.227 124.89 987.246 125.502C987.284 126.095 987.342 126.678 987.418 127.252H983.89C983.814 126.831 983.766 126.516 983.747 126.305C983.747 126.076 983.747 125.741 983.747 125.301C983.326 125.913 982.685 126.449 981.825 126.908C980.983 127.367 979.903 127.596 978.584 127.596ZM979.76 124.67C980.219 124.67 980.668 124.613 981.108 124.498C981.548 124.364 981.94 124.173 982.284 123.925C982.628 123.657 982.905 123.322 983.116 122.921C983.326 122.519 983.431 122.051 983.431 121.515V120.798H979.616C978.89 120.798 978.316 120.97 977.895 121.314C977.494 121.64 977.293 122.089 977.293 122.663C977.293 123.274 977.503 123.762 977.924 124.125C978.345 124.489 978.956 124.67 979.76 124.67Z" fill="black"/>
<path d="M729.581 146.304H733.081V148.541C733.444 147.852 734.027 147.25 734.831 146.734C735.653 146.217 736.752 145.959 738.129 145.959C739.984 145.959 741.361 146.456 742.26 147.451C743.177 148.445 743.636 149.879 743.636 151.753V161.506H739.85V152.614C739.85 151.467 739.611 150.606 739.133 150.032C738.674 149.459 737.881 149.172 736.752 149.172C736.14 149.172 735.624 149.267 735.203 149.459C734.783 149.65 734.429 149.908 734.142 150.233C733.874 150.539 733.674 150.902 733.54 151.323C733.425 151.725 733.368 152.155 733.368 152.614V161.506H729.581V146.304ZM767.601 149.602V152.757L753.546 158.924V154.823L762.581 151.237L753.546 147.652V143.435L767.601 149.602ZM769.904 152.843H783.959V156.4H769.904V152.843ZM769.904 145.959H783.959V149.516H769.904V145.959ZM793.577 157.949H798.167V145.787L793.577 149.057V144.869L798.425 141.427H802.469V157.949H806.198V161.506H793.577V157.949Z" fill="black"/>
<rect x="69.2305" y="683.779" width="214.727" height="59.3633" fill="#F3F3F3"/>
<path d="M96.1674 720.404H98.4048C98.6916 719.735 98.9306 718.932 99.1218 717.995C99.3131 717.039 99.466 716.035 99.5808 714.983C99.6955 713.912 99.7816 712.822 99.8389 711.713C99.8963 710.585 99.925 709.504 99.925 708.472V703.882H114.066V720.404H116.246V727.69H112.402V723.961H100.011V727.69H96.1674V720.404ZM109.763 720.404V707.439H103.998V709.045C103.998 711.665 103.874 713.874 103.625 715.671C103.377 717.469 103.023 719.046 102.564 720.404H109.763ZM125.572 724.305C124.539 724.305 123.554 724.152 122.617 723.846C121.699 723.521 120.896 723.033 120.208 722.383C119.519 721.733 118.974 720.92 118.573 719.945C118.171 718.97 117.97 717.823 117.97 716.503V715.93C117.97 714.687 118.171 713.597 118.573 712.66C118.974 711.723 119.519 710.939 120.208 710.308C120.896 709.676 121.699 709.208 122.617 708.902C123.554 708.577 124.539 708.414 125.572 708.414C126.604 708.414 127.579 708.577 128.497 708.902C129.415 709.208 130.218 709.676 130.907 710.308C131.614 710.939 132.169 711.723 132.57 712.66C132.972 713.597 133.173 714.687 133.173 715.93V716.503C133.173 717.804 132.972 718.941 132.57 719.917C132.169 720.892 131.614 721.704 130.907 722.355C130.218 723.005 129.415 723.492 128.497 723.818C127.579 724.143 126.604 724.305 125.572 724.305ZM125.572 721.093C126.642 721.093 127.532 720.71 128.239 719.945C128.966 719.18 129.329 718.033 129.329 716.503V715.93C129.329 714.534 128.966 713.472 128.239 712.746C127.532 712 126.642 711.627 125.572 711.627C124.482 711.627 123.583 712 122.875 712.746C122.168 713.472 121.814 714.534 121.814 715.93V716.503C121.814 718.052 122.168 719.209 122.875 719.974C123.583 720.72 124.482 721.093 125.572 721.093ZM142.771 724.305C141.7 724.305 140.705 724.123 139.787 723.76C138.889 723.397 138.105 722.852 137.435 722.125C136.766 721.379 136.24 720.471 135.858 719.4C135.494 718.31 135.313 717.048 135.313 715.614V714.954C135.313 713.233 135.437 711.703 135.686 710.365C135.953 709.026 136.384 707.889 136.976 706.952C137.588 706.015 138.392 705.288 139.386 704.772C140.399 704.236 141.661 703.93 143.172 703.854C143.765 703.835 144.348 703.815 144.922 703.796C145.496 703.777 146.041 703.748 146.557 703.71C147.073 703.672 147.542 703.615 147.962 703.538C148.383 703.443 148.756 703.318 149.081 703.165V706.521C148.775 706.693 148.201 706.837 147.36 706.952C146.538 707.066 145.285 707.133 143.602 707.152C142.742 707.171 141.996 707.277 141.365 707.468C140.753 707.64 140.237 707.927 139.816 708.328C139.415 708.711 139.089 709.218 138.841 709.849C138.611 710.48 138.449 711.254 138.353 712.172C138.793 711.311 139.453 710.613 140.332 710.078C141.212 709.543 142.359 709.275 143.775 709.275C144.731 709.275 145.601 709.428 146.385 709.734C147.169 710.021 147.848 710.451 148.421 711.025C148.995 711.598 149.435 712.306 149.741 713.147C150.066 713.989 150.228 714.964 150.228 716.073V716.618C150.228 717.823 150.037 718.903 149.655 719.859C149.291 720.815 148.775 721.628 148.106 722.297C147.436 722.947 146.643 723.445 145.725 723.789C144.826 724.133 143.841 724.305 142.771 724.305ZM142.771 721.093C143.918 721.093 144.807 720.72 145.438 719.974C146.069 719.209 146.385 718.129 146.385 716.733V716.159C146.385 714.954 146.06 714.008 145.409 713.319C144.759 712.631 143.88 712.287 142.771 712.287C141.681 712.287 140.801 712.631 140.132 713.319C139.482 714.008 139.156 714.954 139.156 716.159V716.675C139.156 717.364 139.242 717.985 139.415 718.54C139.606 719.094 139.864 719.563 140.189 719.945C140.514 720.309 140.897 720.595 141.336 720.806C141.776 720.997 142.254 721.093 142.771 721.093ZM157.506 724.305C156.684 724.305 155.957 724.19 155.326 723.961C154.695 723.712 154.16 723.378 153.72 722.957C153.28 722.517 152.945 722.01 152.716 721.437C152.487 720.844 152.372 720.203 152.372 719.515C152.372 716.455 154.188 714.926 157.822 714.926H162.354V714.208C162.354 713.214 162.124 712.516 161.665 712.115C161.225 711.713 160.518 711.512 159.543 711.512C158.682 711.512 158.061 711.665 157.678 711.971C157.296 712.258 157.076 712.621 157.019 713.061H153.232C153.271 712.411 153.433 711.799 153.72 711.225C154.026 710.652 154.447 710.164 154.982 709.763C155.537 709.342 156.206 709.017 156.99 708.787C157.774 708.539 158.673 708.414 159.686 708.414C160.661 708.414 161.541 708.52 162.325 708.73C163.128 708.94 163.807 709.284 164.362 709.763C164.935 710.221 165.375 710.824 165.681 711.57C165.987 712.315 166.14 713.214 166.14 714.266V720.089C166.14 720.892 166.149 721.599 166.169 722.211C166.207 722.804 166.264 723.387 166.341 723.961H162.813C162.736 723.54 162.688 723.225 162.669 723.014C162.669 722.785 162.669 722.45 162.669 722.01C162.249 722.622 161.608 723.158 160.747 723.617C159.906 724.076 158.826 724.305 157.506 724.305ZM158.682 721.379C159.141 721.379 159.59 721.322 160.03 721.207C160.47 721.073 160.862 720.882 161.206 720.634C161.551 720.366 161.828 720.031 162.038 719.63C162.249 719.228 162.354 718.76 162.354 718.224V717.507H158.539C157.812 717.507 157.238 717.679 156.818 718.023C156.416 718.348 156.215 718.798 156.215 719.372C156.215 719.983 156.426 720.471 156.846 720.834C157.267 721.198 157.879 721.379 158.682 721.379ZM169.444 708.759H177.074C178.049 708.759 178.881 708.864 179.57 709.074C180.277 709.265 180.86 709.543 181.319 709.906C181.778 710.269 182.113 710.7 182.323 711.197C182.533 711.694 182.639 712.239 182.639 712.832C182.639 713.539 182.419 714.208 181.979 714.84C181.558 715.451 180.975 715.863 180.229 716.073C181.166 716.302 181.893 716.742 182.409 717.392C182.945 718.023 183.212 718.769 183.212 719.63C183.212 720.949 182.753 722.001 181.836 722.785C180.918 723.569 179.522 723.961 177.648 723.961H169.444V708.759ZM176.902 720.92C177.762 720.92 178.393 720.796 178.795 720.548C179.216 720.28 179.426 719.859 179.426 719.285C179.426 718.712 179.225 718.301 178.824 718.052C178.441 717.784 177.801 717.651 176.902 717.651H173.23V720.92H176.902ZM176.529 714.84C177.409 714.84 178.011 714.715 178.336 714.467C178.68 714.218 178.852 713.836 178.852 713.319C178.852 712.822 178.68 712.449 178.336 712.201C177.992 711.933 177.39 711.799 176.529 711.799H173.23V714.84H176.529ZM185.943 708.759H189.729V718.511L196.498 708.759H199.998V723.961H196.212V714.208L189.442 723.961H185.943V708.759ZM207.15 711.914H202.303V708.759H215.784V711.914H210.936V723.961H207.15V711.914ZM218.072 708.759H221.858V713.864H225.099C229.02 713.864 230.98 715.547 230.98 718.913C230.98 719.658 230.865 720.347 230.635 720.978C230.425 721.59 230.081 722.116 229.603 722.555C229.125 722.995 228.513 723.339 227.767 723.588C227.021 723.837 226.132 723.961 225.099 723.961H218.072V708.759ZM224.669 720.92C225.587 720.92 226.237 720.758 226.62 720.433C227.002 720.089 227.193 719.582 227.193 718.913C227.193 718.243 226.993 717.746 226.591 717.421C226.209 717.077 225.568 716.905 224.669 716.905H221.858V720.92H224.669ZM248.051 724.305C246.961 724.305 245.938 724.133 244.982 723.789C244.045 723.426 243.232 722.842 242.544 722.039C241.855 721.217 241.31 720.146 240.909 718.827C240.507 717.488 240.306 715.853 240.306 713.922V713.348C240.306 711.55 240.507 710.03 240.909 708.787C241.31 707.544 241.855 706.54 242.544 705.775C243.232 704.991 244.045 704.427 244.982 704.083C245.938 703.72 246.961 703.538 248.051 703.538C249.141 703.538 250.154 703.72 251.091 704.083C252.048 704.427 252.87 704.991 253.558 705.775C254.247 706.54 254.792 707.544 255.193 708.787C255.595 710.03 255.796 711.55 255.796 713.348V713.922C255.796 715.853 255.595 717.488 255.193 718.827C254.792 720.146 254.247 721.217 253.558 722.039C252.87 722.842 252.048 723.426 251.091 723.789C250.154 724.133 249.141 724.305 248.051 724.305ZM248.051 720.691C248.529 720.691 248.978 720.595 249.399 720.404C249.82 720.213 250.183 719.869 250.489 719.372C250.814 718.855 251.063 718.157 251.235 717.278C251.407 716.398 251.493 715.279 251.493 713.922V713.348C251.493 712.124 251.407 711.12 251.235 710.336C251.063 709.533 250.814 708.902 250.489 708.443C250.183 707.965 249.82 707.63 249.399 707.439C248.978 707.248 248.529 707.152 248.051 707.152C247.554 707.152 247.095 707.248 246.674 707.439C246.273 707.63 245.909 707.965 245.584 708.443C245.278 708.902 245.039 709.533 244.867 710.336C244.695 711.12 244.609 712.124 244.609 713.348V713.922C244.609 715.279 244.695 716.398 244.867 717.278C245.039 718.157 245.278 718.855 245.584 719.372C245.909 719.869 246.273 720.213 246.674 720.404C247.095 720.595 247.554 720.691 248.051 720.691Z" fill="black"/>
<rect x="69.2305" y="683.779" width="214.727" height="59.3633" stroke="#DADADA" stroke-width="2"/>
<rect x="407.547" y="333.161" width="833.223" height="111.155" stroke="#EAC053" stroke-width="6"/>
</svg>
