<svg width="1001" height="373" viewBox="0 0 1001 373" fill="none" xmlns="http://www.w3.org/2000/svg">
<rect x="224.52" y="100.41" width="138" height="45" fill="#DBEEE5"/>
<path d="M276.283 127.843H279.699V116.397L276.218 118.835L275.369 117.594L280.156 114.178H281.375V127.843H284.726V129.41H276.283V127.843ZM287.895 118.769C287.895 118.102 288.003 117.478 288.221 116.898C288.439 116.303 288.765 115.788 289.2 115.353C289.65 114.903 290.201 114.555 290.854 114.308C291.507 114.047 292.268 113.917 293.139 113.917C293.951 113.917 294.677 114.047 295.315 114.308C295.953 114.57 296.49 114.94 296.925 115.418C297.375 115.882 297.716 116.455 297.948 117.137C298.18 117.805 298.296 118.552 298.296 119.379C298.296 121.003 298.093 122.432 297.687 123.665C297.281 124.899 296.715 125.943 295.989 126.799C295.264 127.655 294.401 128.322 293.4 128.801C292.414 129.28 291.34 129.57 290.179 129.671L289.853 128.3C290.811 128.199 291.666 127.967 292.421 127.604C293.175 127.241 293.828 126.777 294.379 126.211C294.93 125.646 295.38 124.993 295.728 124.253C296.077 123.513 296.316 122.722 296.446 121.881C296.214 122.128 295.975 122.338 295.728 122.512C295.496 122.672 295.235 122.802 294.945 122.904C294.655 123.005 294.336 123.078 293.988 123.121C293.639 123.165 293.24 123.187 292.791 123.187C292.123 123.187 291.492 123.085 290.898 122.882C290.303 122.679 289.781 122.389 289.331 122.012C288.896 121.62 288.547 121.156 288.286 120.619C288.025 120.068 287.895 119.451 287.895 118.769ZM289.679 118.595C289.679 119.64 289.991 120.423 290.615 120.945C291.253 121.468 292.094 121.729 293.139 121.729C293.966 121.729 294.677 121.605 295.271 121.359C295.881 121.098 296.309 120.779 296.555 120.401C296.584 120.198 296.599 120.039 296.599 119.923C296.599 119.792 296.599 119.647 296.599 119.487C296.599 118.98 296.526 118.479 296.381 117.986C296.251 117.493 296.04 117.05 295.75 116.659C295.46 116.267 295.083 115.955 294.619 115.723C294.169 115.476 293.625 115.353 292.987 115.353C291.942 115.353 291.13 115.636 290.549 116.202C289.969 116.767 289.679 117.565 289.679 118.595ZM310.495 118.029C310.495 119.364 309.864 120.851 308.602 122.49C307.34 124.13 305.577 125.914 303.314 127.843H310.974V129.41H301.312V127.843C301.588 127.582 301.965 127.241 302.444 126.821C302.923 126.4 303.438 125.936 303.989 125.428C304.54 124.906 305.099 124.347 305.664 123.752C306.245 123.158 306.767 122.548 307.231 121.925C307.695 121.301 308.072 120.677 308.363 120.053C308.653 119.429 308.798 118.827 308.798 118.247C308.798 117.377 308.566 116.695 308.101 116.202C307.652 115.694 306.97 115.44 306.056 115.44C305.273 115.44 304.613 115.527 304.076 115.701C303.539 115.875 303.053 116.129 302.618 116.463L301.878 115.266C302.531 114.802 303.22 114.461 303.945 114.243C304.685 114.026 305.49 113.917 306.361 113.917C307.724 113.917 308.754 114.287 309.451 115.027C310.147 115.766 310.495 116.767 310.495 118.029Z" fill="black"/>
<rect x="224.52" y="100.41" width="138" height="45" stroke="#58A982"/>
<rect x="224.52" y="227.215" width="138" height="45" fill="#DBEEE5"/>
<path d="M237.283 254.648H240.699V243.202L237.218 245.639L236.369 244.399L241.156 240.983H242.375V254.648H245.726V256.215H237.283V254.648ZM250.331 254.648H253.747V243.202L250.266 245.639L249.417 244.399L254.204 240.983H255.423V254.648H258.774V256.215H250.331V254.648ZM261.812 248.599C261.812 247.366 261.921 246.263 262.138 245.291C262.356 244.305 262.682 243.478 263.117 242.81C263.553 242.129 264.104 241.614 264.771 241.265C265.438 240.903 266.229 240.721 267.143 240.721C268.115 240.721 268.935 240.896 269.602 241.244C270.284 241.592 270.835 242.1 271.256 242.767C271.676 243.434 271.981 244.261 272.17 245.248C272.358 246.22 272.453 247.337 272.453 248.599C272.453 249.832 272.344 250.942 272.126 251.928C271.909 252.9 271.582 253.727 271.147 254.409C270.712 255.076 270.16 255.591 269.493 255.954C268.826 256.302 268.035 256.476 267.121 256.476C266.164 256.476 265.344 256.287 264.662 255.91C263.995 255.519 263.444 254.975 263.009 254.278C262.588 253.582 262.283 252.755 262.095 251.797C261.906 250.826 261.812 249.759 261.812 248.599ZM270.668 248.599C270.668 247.83 270.625 247.097 270.538 246.401L264.075 252.298C264.321 253.125 264.691 253.785 265.185 254.278C265.678 254.771 266.323 255.018 267.121 255.018C268.398 255.018 269.305 254.489 269.841 253.43C270.393 252.371 270.668 250.76 270.668 248.599ZM263.618 248.599C263.618 248.961 263.625 249.31 263.64 249.643C263.669 249.977 263.698 250.303 263.727 250.622L270.211 244.747C269.965 243.964 269.595 243.34 269.101 242.876C268.623 242.412 267.97 242.179 267.143 242.179C265.852 242.179 264.938 242.716 264.401 243.79C263.879 244.849 263.618 246.452 263.618 248.599ZM274.859 248.599C274.859 247.366 274.968 246.263 275.186 245.291C275.403 244.305 275.73 243.478 276.165 242.81C276.6 242.129 277.152 241.614 277.819 241.265C278.486 240.903 279.277 240.721 280.191 240.721C281.163 240.721 281.982 240.896 282.65 241.244C283.332 241.592 283.883 242.1 284.303 242.767C284.724 243.434 285.029 244.261 285.217 245.248C285.406 246.22 285.5 247.337 285.5 248.599C285.5 249.832 285.391 250.942 285.174 251.928C284.956 252.9 284.63 253.727 284.195 254.409C283.759 255.076 283.208 255.591 282.541 255.954C281.874 256.302 281.083 256.476 280.169 256.476C279.212 256.476 278.392 256.287 277.71 255.91C277.043 255.519 276.492 254.975 276.056 254.278C275.636 253.582 275.331 252.755 275.142 251.797C274.954 250.826 274.859 249.759 274.859 248.599ZM283.716 248.599C283.716 247.83 283.672 247.097 283.585 246.401L277.123 252.298C277.369 253.125 277.739 253.785 278.232 254.278C278.726 254.771 279.371 255.018 280.169 255.018C281.446 255.018 282.352 254.489 282.889 253.43C283.44 252.371 283.716 250.76 283.716 248.599ZM276.666 248.599C276.666 248.961 276.673 249.31 276.687 249.643C276.716 249.977 276.745 250.303 276.774 250.622L283.259 244.747C283.012 243.964 282.642 243.34 282.149 242.876C281.67 242.412 281.018 242.179 280.191 242.179C278.9 242.179 277.986 242.716 277.449 243.79C276.927 244.849 276.666 246.452 276.666 248.599ZM300.955 248.599C300.955 247.366 301.064 246.263 301.281 245.291C301.499 244.305 301.825 243.478 302.261 242.81C302.696 242.129 303.247 241.614 303.914 241.265C304.582 240.903 305.372 240.721 306.286 240.721C307.258 240.721 308.078 240.896 308.745 241.244C309.427 241.592 309.978 242.1 310.399 242.767C310.82 243.434 311.124 244.261 311.313 245.248C311.501 246.22 311.596 247.337 311.596 248.599C311.596 249.832 311.487 250.942 311.269 251.928C311.052 252.9 310.725 253.727 310.29 254.409C309.855 255.076 309.304 255.591 308.636 255.954C307.969 256.302 307.178 256.476 306.264 256.476C305.307 256.476 304.487 256.287 303.806 255.91C303.138 255.519 302.587 254.975 302.152 254.278C301.731 253.582 301.426 252.755 301.238 251.797C301.049 250.826 300.955 249.759 300.955 248.599ZM309.811 248.599C309.811 247.83 309.768 247.097 309.681 246.401L303.218 252.298C303.465 253.125 303.835 253.785 304.328 254.278C304.821 254.771 305.467 255.018 306.264 255.018C307.541 255.018 308.448 254.489 308.984 253.43C309.536 252.371 309.811 250.76 309.811 248.599ZM302.761 248.599C302.761 248.961 302.768 249.31 302.783 249.643C302.812 249.977 302.841 250.303 302.87 250.622L309.354 244.747C309.108 243.964 308.738 243.34 308.245 242.876C307.766 242.412 307.113 242.179 306.286 242.179C304.995 242.179 304.081 242.716 303.544 243.79C303.022 244.849 302.761 246.452 302.761 248.599ZM314.003 248.599C314.003 247.366 314.111 246.263 314.329 245.291C314.547 244.305 314.873 243.478 315.308 242.81C315.743 242.129 316.295 241.614 316.962 241.265C317.629 240.903 318.42 240.721 319.334 240.721C320.306 240.721 321.125 240.896 321.793 241.244C322.475 241.592 323.026 242.1 323.447 242.767C323.867 243.434 324.172 244.261 324.361 245.248C324.549 246.22 324.643 247.337 324.643 248.599C324.643 249.832 324.535 250.942 324.317 251.928C324.099 252.9 323.773 253.727 323.338 254.409C322.903 255.076 322.351 255.591 321.684 255.954C321.017 256.302 320.226 256.476 319.312 256.476C318.355 256.476 317.535 256.287 316.853 255.91C316.186 255.519 315.635 254.975 315.199 254.278C314.779 253.582 314.474 252.755 314.285 251.797C314.097 250.826 314.003 249.759 314.003 248.599ZM322.859 248.599C322.859 247.83 322.816 247.097 322.729 246.401L316.266 252.298C316.512 253.125 316.882 253.785 317.375 254.278C317.869 254.771 318.514 255.018 319.312 255.018C320.589 255.018 321.495 254.489 322.032 253.43C322.583 252.371 322.859 250.76 322.859 248.599ZM315.809 248.599C315.809 248.961 315.816 249.31 315.83 249.643C315.859 249.977 315.889 250.303 315.918 250.622L322.402 244.747C322.155 243.964 321.786 243.34 321.292 242.876C320.814 242.412 320.161 242.179 319.334 242.179C318.043 242.179 317.129 242.716 316.592 243.79C316.07 244.849 315.809 246.452 315.809 248.599ZM327.05 248.599C327.05 247.366 327.159 246.263 327.377 245.291C327.594 244.305 327.921 243.478 328.356 242.81C328.791 242.129 329.342 241.614 330.01 241.265C330.677 240.903 331.468 240.721 332.382 240.721C333.354 240.721 334.173 240.896 334.841 241.244C335.522 241.592 336.074 242.1 336.494 242.767C336.915 243.434 337.22 244.261 337.408 245.248C337.597 246.22 337.691 247.337 337.691 248.599C337.691 249.832 337.582 250.942 337.365 251.928C337.147 252.9 336.821 253.727 336.386 254.409C335.95 255.076 335.399 255.591 334.732 255.954C334.064 256.302 333.274 256.476 332.36 256.476C331.402 256.476 330.583 256.287 329.901 255.91C329.234 255.519 328.682 254.975 328.247 254.278C327.826 253.582 327.522 252.755 327.333 251.797C327.145 250.826 327.05 249.759 327.05 248.599ZM335.907 248.599C335.907 247.83 335.863 247.097 335.776 246.401L329.313 252.298C329.56 253.125 329.93 253.785 330.423 254.278C330.916 254.771 331.562 255.018 332.36 255.018C333.636 255.018 334.543 254.489 335.08 253.43C335.631 252.371 335.907 250.76 335.907 248.599ZM328.856 248.599C328.856 248.961 328.864 249.31 328.878 249.643C328.907 249.977 328.936 250.303 328.965 250.622L335.45 244.747C335.203 243.964 334.833 243.34 334.34 242.876C333.861 242.412 333.208 242.179 332.382 242.179C331.09 242.179 330.177 242.716 329.64 243.79C329.118 244.849 328.856 246.452 328.856 248.599ZM340.098 248.599C340.098 247.366 340.207 246.263 340.424 245.291C340.642 244.305 340.968 243.478 341.404 242.81C341.839 242.129 342.39 241.614 343.057 241.265C343.725 240.903 344.515 240.721 345.429 240.721C346.401 240.721 347.221 240.896 347.888 241.244C348.57 241.592 349.121 242.1 349.542 242.767C349.963 243.434 350.267 244.261 350.456 245.248C350.645 246.22 350.739 247.337 350.739 248.599C350.739 249.832 350.63 250.942 350.412 251.928C350.195 252.9 349.868 253.727 349.433 254.409C348.998 255.076 348.447 255.591 347.779 255.954C347.112 256.302 346.321 256.476 345.408 256.476C344.45 256.476 343.63 256.287 342.949 255.91C342.281 255.519 341.73 254.975 341.295 254.278C340.874 253.582 340.57 252.755 340.381 251.797C340.192 250.826 340.098 249.759 340.098 248.599ZM348.954 248.599C348.954 247.83 348.911 247.097 348.824 246.401L342.361 252.298C342.608 253.125 342.978 253.785 343.471 254.278C343.964 254.771 344.61 255.018 345.408 255.018C346.684 255.018 347.591 254.489 348.128 253.43C348.679 252.371 348.954 250.76 348.954 248.599ZM341.904 248.599C341.904 248.961 341.911 249.31 341.926 249.643C341.955 249.977 341.984 250.303 342.013 250.622L348.498 244.747C348.251 243.964 347.881 243.34 347.388 242.876C346.909 242.412 346.256 242.179 345.429 242.179C344.138 242.179 343.224 242.716 342.688 243.79C342.165 244.849 341.904 246.452 341.904 248.599Z" fill="black"/>
<rect x="224.52" y="227.215" width="138" height="45" stroke="#58A982"/>
<rect x="362.52" y="100.41" width="138" height="45" fill="#DBEEE5"/>
<path d="M414.283 127.843H417.699V116.397L414.218 118.835L413.369 117.594L418.156 114.178H419.375V127.843H422.726V129.41H414.283V127.843ZM436.296 124.819C436.296 125.443 436.18 126.045 435.948 126.625C435.73 127.205 435.404 127.72 434.969 128.17C434.533 128.62 433.997 128.982 433.358 129.258C432.72 129.533 431.98 129.671 431.139 129.671C430.355 129.671 429.645 129.548 429.006 129.301C428.368 129.055 427.817 128.707 427.353 128.257C426.888 127.793 426.526 127.227 426.265 126.56C426.018 125.892 425.895 125.145 425.895 124.318C425.895 122.955 426.09 121.663 426.482 120.445C426.888 119.226 427.447 118.153 428.158 117.224C428.883 116.296 429.739 115.542 430.725 114.961C431.726 114.381 432.822 114.033 434.011 113.917L434.316 115.309C433.402 115.426 432.561 115.694 431.792 116.115C431.037 116.535 430.377 117.058 429.811 117.681C429.246 118.305 428.781 118.994 428.419 119.749C428.071 120.503 427.846 121.272 427.744 122.055C427.86 121.867 428.027 121.671 428.245 121.468C428.477 121.265 428.745 121.09 429.05 120.945C429.369 120.786 429.717 120.655 430.094 120.554C430.486 120.452 430.907 120.401 431.356 120.401C432.125 120.401 432.814 120.51 433.424 120.728C434.033 120.931 434.548 121.228 434.969 121.62C435.404 121.997 435.73 122.461 435.948 123.013C436.18 123.549 436.296 124.151 436.296 124.819ZM434.512 124.993C434.512 123.977 434.229 123.201 433.663 122.664C433.097 122.128 432.227 121.859 431.052 121.859C430.631 121.859 430.239 121.91 429.877 122.012C429.514 122.113 429.188 122.251 428.898 122.425C428.607 122.585 428.354 122.773 428.136 122.991C427.918 123.208 427.752 123.426 427.635 123.644C427.606 123.847 427.592 124.006 427.592 124.122C427.592 124.238 427.592 124.376 427.592 124.536C427.592 124.971 427.664 125.414 427.81 125.863C427.955 126.298 428.172 126.69 428.462 127.038C428.767 127.386 429.144 127.669 429.594 127.887C430.044 128.105 430.573 128.213 431.182 128.213C431.676 128.213 432.125 128.126 432.532 127.952C432.938 127.778 433.286 127.546 433.576 127.256C433.881 126.966 434.113 126.625 434.272 126.233C434.432 125.841 434.512 125.428 434.512 124.993ZM439.247 125.711C439.247 123.956 440.313 122.541 442.446 121.468C442.04 121.25 441.662 121.025 441.314 120.793C440.966 120.561 440.661 120.3 440.4 120.01C440.154 119.72 439.958 119.386 439.813 119.009C439.668 118.632 439.595 118.196 439.595 117.703C439.595 117.166 439.704 116.666 439.922 116.202C440.139 115.737 440.451 115.338 440.857 115.005C441.263 114.671 441.757 114.41 442.337 114.221C442.917 114.018 443.563 113.917 444.274 113.917C444.941 113.917 445.543 114.004 446.08 114.178C446.631 114.352 447.095 114.599 447.472 114.918C447.864 115.222 448.161 115.585 448.365 116.006C448.568 116.426 448.669 116.876 448.669 117.355C448.669 118.182 448.459 118.943 448.038 119.64C447.632 120.322 446.972 120.945 446.058 121.511C446.479 121.729 446.87 121.961 447.233 122.207C447.596 122.454 447.908 122.73 448.169 123.034C448.444 123.339 448.655 123.687 448.8 124.079C448.959 124.456 449.039 124.891 449.039 125.384C449.039 125.994 448.93 126.567 448.713 127.104C448.495 127.626 448.169 128.076 447.734 128.453C447.313 128.83 446.791 129.127 446.167 129.345C445.543 129.562 444.818 129.671 443.991 129.671C443.222 129.671 442.54 129.562 441.945 129.345C441.35 129.127 440.85 128.837 440.444 128.474C440.052 128.112 439.755 127.691 439.552 127.212C439.349 126.734 439.247 126.233 439.247 125.711ZM447.32 125.493C447.32 125.073 447.219 124.703 447.015 124.384C446.827 124.05 446.566 123.752 446.232 123.491C445.913 123.23 445.543 122.991 445.122 122.773C444.702 122.556 444.266 122.338 443.817 122.12C442.772 122.628 442.025 123.187 441.575 123.796C441.14 124.405 440.923 124.978 440.923 125.515C440.923 125.878 440.988 126.226 441.118 126.56C441.263 126.879 441.467 127.162 441.728 127.408C442.003 127.655 442.337 127.851 442.729 127.996C443.135 128.141 443.599 128.213 444.121 128.213C444.542 128.213 444.941 128.155 445.318 128.039C445.71 127.923 446.051 127.756 446.341 127.539C446.645 127.307 446.885 127.024 447.059 126.69C447.233 126.342 447.32 125.943 447.32 125.493ZM441.292 117.638C441.292 118.044 441.387 118.407 441.575 118.726C441.764 119.045 442.011 119.335 442.315 119.596C442.634 119.843 442.997 120.075 443.403 120.293C443.809 120.496 444.237 120.699 444.687 120.902C445.456 120.394 446.029 119.886 446.406 119.379C446.798 118.871 446.994 118.312 446.994 117.703C446.994 117.34 446.914 117.021 446.754 116.746C446.609 116.455 446.406 116.209 446.145 116.006C445.898 115.803 445.608 115.65 445.275 115.549C444.941 115.433 444.593 115.375 444.23 115.375C443.766 115.375 443.352 115.44 442.99 115.571C442.627 115.701 442.322 115.875 442.076 116.093C441.829 116.31 441.633 116.557 441.488 116.833C441.358 117.094 441.292 117.362 441.292 117.638Z" fill="black"/>
<rect x="362.52" y="100.41" width="138" height="45" stroke="#58A982"/>
<rect x="362.52" y="227.215" width="138" height="45" fill="#DBEEE5"/>
<path d="M375.283 254.648H378.699V243.202L375.218 245.639L374.369 244.399L379.156 240.983H380.375V254.648H383.726V256.215H375.283V254.648ZM386.764 248.599C386.764 247.366 386.873 246.263 387.09 245.291C387.308 244.305 387.634 243.478 388.07 242.81C388.505 242.129 389.056 241.614 389.723 241.265C390.391 240.903 391.181 240.721 392.095 240.721C393.067 240.721 393.887 240.896 394.554 241.244C395.236 241.592 395.787 242.1 396.208 242.767C396.629 243.434 396.933 244.261 397.122 245.248C397.311 246.22 397.405 247.337 397.405 248.599C397.405 249.832 397.296 250.942 397.078 251.928C396.861 252.9 396.534 253.727 396.099 254.409C395.664 255.076 395.113 255.591 394.445 255.954C393.778 256.302 392.988 256.476 392.074 256.476C391.116 256.476 390.296 256.287 389.615 255.91C388.947 255.519 388.396 254.975 387.961 254.278C387.54 253.582 387.236 252.755 387.047 251.797C386.858 250.826 386.764 249.759 386.764 248.599ZM395.621 248.599C395.621 247.83 395.577 247.097 395.49 246.401L389.027 252.298C389.274 253.125 389.644 253.785 390.137 254.278C390.63 254.771 391.276 255.018 392.074 255.018C393.35 255.018 394.257 254.489 394.794 253.43C395.345 252.371 395.621 250.76 395.621 248.599ZM388.57 248.599C388.57 248.961 388.577 249.31 388.592 249.643C388.621 249.977 388.65 250.303 388.679 250.622L395.164 244.747C394.917 243.964 394.547 243.34 394.054 242.876C393.575 242.412 392.922 242.179 392.095 242.179C390.804 242.179 389.89 242.716 389.354 243.79C388.831 244.849 388.57 246.452 388.57 248.599ZM401.379 254.648H404.795V243.202L401.313 245.639L400.465 244.399L405.252 240.983H406.47V254.648H409.822V256.215H401.379V254.648ZM412.859 248.599C412.859 247.366 412.968 246.263 413.186 245.291C413.403 244.305 413.73 243.478 414.165 242.81C414.6 242.129 415.152 241.614 415.819 241.265C416.486 240.903 417.277 240.721 418.191 240.721C419.163 240.721 419.982 240.896 420.65 241.244C421.332 241.592 421.883 242.1 422.303 242.767C422.724 243.434 423.029 244.261 423.217 245.248C423.406 246.22 423.5 247.337 423.5 248.599C423.5 249.832 423.391 250.942 423.174 251.928C422.956 252.9 422.63 253.727 422.195 254.409C421.759 255.076 421.208 255.591 420.541 255.954C419.874 256.302 419.083 256.476 418.169 256.476C417.212 256.476 416.392 256.287 415.71 255.91C415.043 255.519 414.492 254.975 414.056 254.278C413.636 253.582 413.331 252.755 413.142 251.797C412.954 250.826 412.859 249.759 412.859 248.599ZM421.716 248.599C421.716 247.83 421.672 247.097 421.585 246.401L415.123 252.298C415.369 253.125 415.739 253.785 416.232 254.278C416.726 254.771 417.371 255.018 418.169 255.018C419.446 255.018 420.352 254.489 420.889 253.43C421.44 252.371 421.716 250.76 421.716 248.599ZM414.666 248.599C414.666 248.961 414.673 249.31 414.687 249.643C414.716 249.977 414.745 250.303 414.774 250.622L421.259 244.747C421.012 243.964 420.642 243.34 420.149 242.876C419.67 242.412 419.018 242.179 418.191 242.179C416.9 242.179 415.986 242.716 415.449 243.79C414.927 244.849 414.666 246.452 414.666 248.599ZM440.522 254.648H443.938V243.202L440.456 245.639L439.608 244.399L444.395 240.983H445.614V254.648H448.965V256.215H440.522V254.648ZM452.003 248.599C452.003 247.366 452.111 246.263 452.329 245.291C452.547 244.305 452.873 243.478 453.308 242.81C453.743 242.129 454.295 241.614 454.962 241.265C455.629 240.903 456.42 240.721 457.334 240.721C458.306 240.721 459.125 240.896 459.793 241.244C460.475 241.592 461.026 242.1 461.447 242.767C461.867 243.434 462.172 244.261 462.361 245.248C462.549 246.22 462.643 247.337 462.643 248.599C462.643 249.832 462.535 250.942 462.317 251.928C462.099 252.9 461.773 253.727 461.338 254.409C460.903 255.076 460.351 255.591 459.684 255.954C459.017 256.302 458.226 256.476 457.312 256.476C456.355 256.476 455.535 256.287 454.853 255.91C454.186 255.519 453.635 254.975 453.199 254.278C452.779 253.582 452.474 252.755 452.285 251.797C452.097 250.826 452.003 249.759 452.003 248.599ZM460.859 248.599C460.859 247.83 460.816 247.097 460.729 246.401L454.266 252.298C454.512 253.125 454.882 253.785 455.375 254.278C455.869 254.771 456.514 255.018 457.312 255.018C458.589 255.018 459.495 254.489 460.032 253.43C460.583 252.371 460.859 250.76 460.859 248.599ZM453.809 248.599C453.809 248.961 453.816 249.31 453.83 249.643C453.859 249.977 453.889 250.303 453.918 250.622L460.402 244.747C460.155 243.964 459.786 243.34 459.292 242.876C458.814 242.412 458.161 242.179 457.334 242.179C456.043 242.179 455.129 242.716 454.592 243.79C454.07 244.849 453.809 246.452 453.809 248.599ZM465.05 248.599C465.05 247.366 465.159 246.263 465.377 245.291C465.594 244.305 465.921 243.478 466.356 242.81C466.791 242.129 467.342 241.614 468.01 241.265C468.677 240.903 469.468 240.721 470.382 240.721C471.354 240.721 472.173 240.896 472.841 241.244C473.522 241.592 474.074 242.1 474.494 242.767C474.915 243.434 475.22 244.261 475.408 245.248C475.597 246.22 475.691 247.337 475.691 248.599C475.691 249.832 475.582 250.942 475.365 251.928C475.147 252.9 474.821 253.727 474.386 254.409C473.95 255.076 473.399 255.591 472.732 255.954C472.064 256.302 471.274 256.476 470.36 256.476C469.402 256.476 468.583 256.287 467.901 255.91C467.234 255.519 466.682 254.975 466.247 254.278C465.826 253.582 465.522 252.755 465.333 251.797C465.145 250.826 465.05 249.759 465.05 248.599ZM473.907 248.599C473.907 247.83 473.863 247.097 473.776 246.401L467.313 252.298C467.56 253.125 467.93 253.785 468.423 254.278C468.916 254.771 469.562 255.018 470.36 255.018C471.636 255.018 472.543 254.489 473.08 253.43C473.631 252.371 473.907 250.76 473.907 248.599ZM466.856 248.599C466.856 248.961 466.864 249.31 466.878 249.643C466.907 249.977 466.936 250.303 466.965 250.622L473.45 244.747C473.203 243.964 472.833 243.34 472.34 242.876C471.861 242.412 471.208 242.179 470.382 242.179C469.09 242.179 468.177 242.716 467.64 243.79C467.118 244.849 466.856 246.452 466.856 248.599ZM478.098 248.599C478.098 247.366 478.207 246.263 478.424 245.291C478.642 244.305 478.968 243.478 479.404 242.81C479.839 242.129 480.39 241.614 481.057 241.265C481.725 240.903 482.515 240.721 483.429 240.721C484.401 240.721 485.221 240.896 485.888 241.244C486.57 241.592 487.121 242.1 487.542 242.767C487.963 243.434 488.267 244.261 488.456 245.248C488.645 246.22 488.739 247.337 488.739 248.599C488.739 249.832 488.63 250.942 488.412 251.928C488.195 252.9 487.868 253.727 487.433 254.409C486.998 255.076 486.447 255.591 485.779 255.954C485.112 256.302 484.321 256.476 483.408 256.476C482.45 256.476 481.63 256.287 480.949 255.91C480.281 255.519 479.73 254.975 479.295 254.278C478.874 253.582 478.57 252.755 478.381 251.797C478.192 250.826 478.098 249.759 478.098 248.599ZM486.954 248.599C486.954 247.83 486.911 247.097 486.824 246.401L480.361 252.298C480.608 253.125 480.978 253.785 481.471 254.278C481.964 254.771 482.61 255.018 483.408 255.018C484.684 255.018 485.591 254.489 486.128 253.43C486.679 252.371 486.954 250.76 486.954 248.599ZM479.904 248.599C479.904 248.961 479.911 249.31 479.926 249.643C479.955 249.977 479.984 250.303 480.013 250.622L486.498 244.747C486.251 243.964 485.881 243.34 485.388 242.876C484.909 242.412 484.256 242.179 483.429 242.179C482.138 242.179 481.224 242.716 480.688 243.79C480.165 244.849 479.904 246.452 479.904 248.599Z" fill="black"/>
<rect x="362.52" y="227.215" width="138" height="45" stroke="#58A982"/>
<rect x="500.52" y="100.41" width="138" height="45" fill="#DBEEE5"/>
<path d="M558.783 127.843H562.199V116.397L558.718 118.835L557.869 117.594L562.656 114.178H563.875V127.843H567.226V129.41H558.783V127.843ZM570.264 121.794C570.264 120.561 570.373 119.458 570.59 118.486C570.808 117.5 571.134 116.673 571.57 116.006C572.005 115.324 572.556 114.809 573.223 114.461C573.891 114.098 574.681 113.917 575.595 113.917C576.567 113.917 577.387 114.091 578.054 114.439C578.736 114.787 579.287 115.295 579.708 115.962C580.129 116.63 580.433 117.456 580.622 118.443C580.811 119.415 580.905 120.532 580.905 121.794C580.905 123.027 580.796 124.137 580.578 125.123C580.361 126.095 580.034 126.922 579.599 127.604C579.164 128.271 578.613 128.786 577.945 129.149C577.278 129.497 576.488 129.671 575.574 129.671C574.616 129.671 573.796 129.483 573.115 129.106C572.447 128.714 571.896 128.17 571.461 127.473C571.04 126.777 570.736 125.95 570.547 124.993C570.358 124.021 570.264 122.955 570.264 121.794ZM579.121 121.794C579.121 121.025 579.077 120.293 578.99 119.596L572.527 125.493C572.774 126.32 573.144 126.98 573.637 127.473C574.13 127.967 574.776 128.213 575.574 128.213C576.85 128.213 577.757 127.684 578.294 126.625C578.845 125.566 579.121 123.956 579.121 121.794ZM572.07 121.794C572.07 122.157 572.077 122.505 572.092 122.839C572.121 123.172 572.15 123.499 572.179 123.818L578.664 117.942C578.417 117.159 578.047 116.535 577.554 116.071C577.075 115.607 576.422 115.375 575.595 115.375C574.304 115.375 573.39 115.911 572.854 116.985C572.331 118.044 572.07 119.647 572.07 121.794Z" fill="black"/>
<rect x="500.52" y="100.41" width="138" height="45" stroke="#58A982"/>
<rect x="500.52" y="227.215" width="138" height="45" fill="#DBEEE5"/>
<path d="M511.716 248.599C511.716 247.366 511.825 246.263 512.043 245.291C512.26 244.305 512.587 243.478 513.022 242.81C513.457 242.129 514.008 241.614 514.676 241.265C515.343 240.903 516.134 240.721 517.048 240.721C518.02 240.721 518.839 240.896 519.507 241.244C520.188 241.592 520.74 242.1 521.16 242.767C521.581 243.434 521.886 244.261 522.074 245.248C522.263 246.22 522.357 247.337 522.357 248.599C522.357 249.832 522.248 250.942 522.031 251.928C521.813 252.9 521.487 253.727 521.052 254.409C520.616 255.076 520.065 255.591 519.398 255.954C518.73 256.302 517.94 256.476 517.026 256.476C516.068 256.476 515.249 256.287 514.567 255.91C513.9 255.519 513.348 254.975 512.913 254.278C512.492 253.582 512.188 252.755 511.999 251.797C511.811 250.826 511.716 249.759 511.716 248.599ZM520.573 248.599C520.573 247.83 520.529 247.097 520.442 246.401L513.979 252.298C514.226 253.125 514.596 253.785 515.089 254.278C515.582 254.771 516.228 255.018 517.026 255.018C518.302 255.018 519.209 254.489 519.746 253.43C520.297 252.371 520.573 250.76 520.573 248.599ZM513.522 248.599C513.522 248.961 513.53 249.31 513.544 249.643C513.573 249.977 513.602 250.303 513.631 250.622L520.116 244.747C519.869 243.964 519.499 243.34 519.006 242.876C518.527 242.412 517.875 242.179 517.048 242.179C515.757 242.179 514.843 242.716 514.306 243.79C513.784 244.849 513.522 246.452 513.522 248.599ZM524.764 248.599C524.764 247.366 524.873 246.263 525.09 245.291C525.308 244.305 525.634 243.478 526.07 242.81C526.505 242.129 527.056 241.614 527.723 241.265C528.391 240.903 529.181 240.721 530.095 240.721C531.067 240.721 531.887 240.896 532.554 241.244C533.236 241.592 533.787 242.1 534.208 242.767C534.629 243.434 534.933 244.261 535.122 245.248C535.311 246.22 535.405 247.337 535.405 248.599C535.405 249.832 535.296 250.942 535.078 251.928C534.861 252.9 534.534 253.727 534.099 254.409C533.664 255.076 533.113 255.591 532.445 255.954C531.778 256.302 530.988 256.476 530.074 256.476C529.116 256.476 528.296 256.287 527.615 255.91C526.947 255.519 526.396 254.975 525.961 254.278C525.54 253.582 525.236 252.755 525.047 251.797C524.858 250.826 524.764 249.759 524.764 248.599ZM533.621 248.599C533.621 247.83 533.577 247.097 533.49 246.401L527.027 252.298C527.274 253.125 527.644 253.785 528.137 254.278C528.63 254.771 529.276 255.018 530.074 255.018C531.35 255.018 532.257 254.489 532.794 253.43C533.345 252.371 533.621 250.76 533.621 248.599ZM526.57 248.599C526.57 248.961 526.577 249.31 526.592 249.643C526.621 249.977 526.65 250.303 526.679 250.622L533.164 244.747C532.917 243.964 532.547 243.34 532.054 242.876C531.575 242.412 530.922 242.179 530.095 242.179C528.804 242.179 527.89 242.716 527.354 243.79C526.831 244.849 526.57 246.452 526.57 248.599ZM537.812 248.599C537.812 247.366 537.921 246.263 538.138 245.291C538.356 244.305 538.682 243.478 539.117 242.81C539.553 242.129 540.104 241.614 540.771 241.265C541.438 240.903 542.229 240.721 543.143 240.721C544.115 240.721 544.935 240.896 545.602 241.244C546.284 241.592 546.835 242.1 547.256 242.767C547.676 243.434 547.981 244.261 548.17 245.248C548.358 246.22 548.453 247.337 548.453 248.599C548.453 249.832 548.344 250.942 548.126 251.928C547.909 252.9 547.582 253.727 547.147 254.409C546.712 255.076 546.16 255.591 545.493 255.954C544.826 256.302 544.035 256.476 543.121 256.476C542.164 256.476 541.344 256.287 540.662 255.91C539.995 255.519 539.444 254.975 539.009 254.278C538.588 253.582 538.283 252.755 538.095 251.797C537.906 250.826 537.812 249.759 537.812 248.599ZM546.668 248.599C546.668 247.83 546.625 247.097 546.538 246.401L540.075 252.298C540.321 253.125 540.691 253.785 541.185 254.278C541.678 254.771 542.323 255.018 543.121 255.018C544.398 255.018 545.305 254.489 545.841 253.43C546.393 252.371 546.668 250.76 546.668 248.599ZM539.618 248.599C539.618 248.961 539.625 249.31 539.64 249.643C539.669 249.977 539.698 250.303 539.727 250.622L546.211 244.747C545.965 243.964 545.595 243.34 545.101 242.876C544.623 242.412 543.97 242.179 543.143 242.179C541.852 242.179 540.938 242.716 540.401 243.79C539.879 244.849 539.618 246.452 539.618 248.599ZM550.859 248.599C550.859 247.366 550.968 246.263 551.186 245.291C551.403 244.305 551.73 243.478 552.165 242.81C552.6 242.129 553.152 241.614 553.819 241.265C554.486 240.903 555.277 240.721 556.191 240.721C557.163 240.721 557.982 240.896 558.65 241.244C559.332 241.592 559.883 242.1 560.303 242.767C560.724 243.434 561.029 244.261 561.217 245.248C561.406 246.22 561.5 247.337 561.5 248.599C561.5 249.832 561.391 250.942 561.174 251.928C560.956 252.9 560.63 253.727 560.195 254.409C559.759 255.076 559.208 255.591 558.541 255.954C557.874 256.302 557.083 256.476 556.169 256.476C555.212 256.476 554.392 256.287 553.71 255.91C553.043 255.519 552.492 254.975 552.056 254.278C551.636 253.582 551.331 252.755 551.142 251.797C550.954 250.826 550.859 249.759 550.859 248.599ZM559.716 248.599C559.716 247.83 559.672 247.097 559.585 246.401L553.123 252.298C553.369 253.125 553.739 253.785 554.232 254.278C554.726 254.771 555.371 255.018 556.169 255.018C557.446 255.018 558.352 254.489 558.889 253.43C559.44 252.371 559.716 250.76 559.716 248.599ZM552.666 248.599C552.666 248.961 552.673 249.31 552.687 249.643C552.716 249.977 552.745 250.303 552.774 250.622L559.259 244.747C559.012 243.964 558.642 243.34 558.149 242.876C557.67 242.412 557.018 242.179 556.191 242.179C554.9 242.179 553.986 242.716 553.449 243.79C552.927 244.849 552.666 246.452 552.666 248.599ZM578.522 254.648H581.938V243.202L578.456 245.639L577.608 244.399L582.395 240.983H583.614V254.648H586.965V256.215H578.522V254.648ZM590.003 248.599C590.003 247.366 590.111 246.263 590.329 245.291C590.547 244.305 590.873 243.478 591.308 242.81C591.743 242.129 592.295 241.614 592.962 241.265C593.629 240.903 594.42 240.721 595.334 240.721C596.306 240.721 597.125 240.896 597.793 241.244C598.475 241.592 599.026 242.1 599.447 242.767C599.867 243.434 600.172 244.261 600.361 245.248C600.549 246.22 600.643 247.337 600.643 248.599C600.643 249.832 600.535 250.942 600.317 251.928C600.099 252.9 599.773 253.727 599.338 254.409C598.903 255.076 598.351 255.591 597.684 255.954C597.017 256.302 596.226 256.476 595.312 256.476C594.355 256.476 593.535 256.287 592.853 255.91C592.186 255.519 591.635 254.975 591.199 254.278C590.779 253.582 590.474 252.755 590.285 251.797C590.097 250.826 590.003 249.759 590.003 248.599ZM598.859 248.599C598.859 247.83 598.816 247.097 598.729 246.401L592.266 252.298C592.512 253.125 592.882 253.785 593.375 254.278C593.869 254.771 594.514 255.018 595.312 255.018C596.589 255.018 597.495 254.489 598.032 253.43C598.583 252.371 598.859 250.76 598.859 248.599ZM591.809 248.599C591.809 248.961 591.816 249.31 591.83 249.643C591.859 249.977 591.889 250.303 591.918 250.622L598.402 244.747C598.155 243.964 597.786 243.34 597.292 242.876C596.814 242.412 596.161 242.179 595.334 242.179C594.043 242.179 593.129 242.716 592.592 243.79C592.07 244.849 591.809 246.452 591.809 248.599ZM604.617 254.648H608.033V243.202L604.552 245.639L603.703 244.399L608.49 240.983H609.709V254.648H613.06V256.215H604.617V254.648ZM616.098 248.599C616.098 247.366 616.207 246.263 616.424 245.291C616.642 244.305 616.968 243.478 617.404 242.81C617.839 242.129 618.39 241.614 619.057 241.265C619.725 240.903 620.515 240.721 621.429 240.721C622.401 240.721 623.221 240.896 623.888 241.244C624.57 241.592 625.121 242.1 625.542 242.767C625.963 243.434 626.267 244.261 626.456 245.248C626.645 246.22 626.739 247.337 626.739 248.599C626.739 249.832 626.63 250.942 626.412 251.928C626.195 252.9 625.868 253.727 625.433 254.409C624.998 255.076 624.447 255.591 623.779 255.954C623.112 256.302 622.321 256.476 621.408 256.476C620.45 256.476 619.63 256.287 618.949 255.91C618.281 255.519 617.73 254.975 617.295 254.278C616.874 253.582 616.57 252.755 616.381 251.797C616.192 250.826 616.098 249.759 616.098 248.599ZM624.954 248.599C624.954 247.83 624.911 247.097 624.824 246.401L618.361 252.298C618.608 253.125 618.978 253.785 619.471 254.278C619.964 254.771 620.61 255.018 621.408 255.018C622.684 255.018 623.591 254.489 624.128 253.43C624.679 252.371 624.954 250.76 624.954 248.599ZM617.904 248.599C617.904 248.961 617.911 249.31 617.926 249.643C617.955 249.977 617.984 250.303 618.013 250.622L624.498 244.747C624.251 243.964 623.881 243.34 623.388 242.876C622.909 242.412 622.256 242.179 621.429 242.179C620.138 242.179 619.224 242.716 618.688 243.79C618.165 244.849 617.904 246.452 617.904 248.599Z" fill="black"/>
<rect x="500.52" y="227.215" width="138" height="45" stroke="#58A982"/>
<rect x="638.52" y="100.41" width="138" height="45" fill="#DBEEE5"/>
<path d="M696.783 127.843H700.199V116.397L696.718 118.835L695.869 117.594L700.656 114.178H701.875V127.843H705.226V129.41H696.783V127.843ZM708.264 121.794C708.264 120.561 708.373 119.458 708.59 118.486C708.808 117.5 709.134 116.673 709.57 116.006C710.005 115.324 710.556 114.809 711.223 114.461C711.891 114.098 712.681 113.917 713.595 113.917C714.567 113.917 715.387 114.091 716.054 114.439C716.736 114.787 717.287 115.295 717.708 115.962C718.129 116.63 718.433 117.456 718.622 118.443C718.811 119.415 718.905 120.532 718.905 121.794C718.905 123.027 718.796 124.137 718.578 125.123C718.361 126.095 718.034 126.922 717.599 127.604C717.164 128.271 716.613 128.786 715.945 129.149C715.278 129.497 714.488 129.671 713.574 129.671C712.616 129.671 711.796 129.483 711.115 129.106C710.447 128.714 709.896 128.17 709.461 127.473C709.04 126.777 708.736 125.95 708.547 124.993C708.358 124.021 708.264 122.955 708.264 121.794ZM717.121 121.794C717.121 121.025 717.077 120.293 716.99 119.596L710.527 125.493C710.774 126.32 711.144 126.98 711.637 127.473C712.13 127.967 712.776 128.213 713.574 128.213C714.85 128.213 715.757 127.684 716.294 126.625C716.845 125.566 717.121 123.956 717.121 121.794ZM710.07 121.794C710.07 122.157 710.077 122.505 710.092 122.839C710.121 123.172 710.15 123.499 710.179 123.818L716.664 117.942C716.417 117.159 716.047 116.535 715.554 116.071C715.075 115.607 714.422 115.375 713.595 115.375C712.304 115.375 711.39 115.911 710.854 116.985C710.331 118.044 710.07 119.647 710.07 121.794Z" fill="black"/>
<rect x="638.52" y="100.41" width="138" height="45" stroke="#58A982"/>
<rect x="638.52" y="227.215" width="138" height="45" fill="#DBEEE5"/>
<path d="M649.716 248.599C649.716 247.366 649.825 246.263 650.043 245.291C650.26 244.305 650.587 243.478 651.022 242.81C651.457 242.129 652.008 241.614 652.676 241.265C653.343 240.903 654.134 240.721 655.048 240.721C656.02 240.721 656.839 240.896 657.507 241.244C658.188 241.592 658.74 242.1 659.16 242.767C659.581 243.434 659.886 244.261 660.074 245.248C660.263 246.22 660.357 247.337 660.357 248.599C660.357 249.832 660.248 250.942 660.031 251.928C659.813 252.9 659.487 253.727 659.052 254.409C658.616 255.076 658.065 255.591 657.398 255.954C656.73 256.302 655.94 256.476 655.026 256.476C654.068 256.476 653.249 256.287 652.567 255.91C651.9 255.519 651.348 254.975 650.913 254.278C650.492 253.582 650.188 252.755 649.999 251.797C649.811 250.826 649.716 249.759 649.716 248.599ZM658.573 248.599C658.573 247.83 658.529 247.097 658.442 246.401L651.979 252.298C652.226 253.125 652.596 253.785 653.089 254.278C653.582 254.771 654.228 255.018 655.026 255.018C656.302 255.018 657.209 254.489 657.746 253.43C658.297 252.371 658.573 250.76 658.573 248.599ZM651.522 248.599C651.522 248.961 651.53 249.31 651.544 249.643C651.573 249.977 651.602 250.303 651.631 250.622L658.116 244.747C657.869 243.964 657.499 243.34 657.006 242.876C656.527 242.412 655.875 242.179 655.048 242.179C653.757 242.179 652.843 242.716 652.306 243.79C651.784 244.849 651.522 246.452 651.522 248.599ZM662.764 248.599C662.764 247.366 662.873 246.263 663.09 245.291C663.308 244.305 663.634 243.478 664.07 242.81C664.505 242.129 665.056 241.614 665.723 241.265C666.391 240.903 667.181 240.721 668.095 240.721C669.067 240.721 669.887 240.896 670.554 241.244C671.236 241.592 671.787 242.1 672.208 242.767C672.629 243.434 672.933 244.261 673.122 245.248C673.311 246.22 673.405 247.337 673.405 248.599C673.405 249.832 673.296 250.942 673.078 251.928C672.861 252.9 672.534 253.727 672.099 254.409C671.664 255.076 671.113 255.591 670.445 255.954C669.778 256.302 668.988 256.476 668.074 256.476C667.116 256.476 666.296 256.287 665.615 255.91C664.947 255.519 664.396 254.975 663.961 254.278C663.54 253.582 663.236 252.755 663.047 251.797C662.858 250.826 662.764 249.759 662.764 248.599ZM671.621 248.599C671.621 247.83 671.577 247.097 671.49 246.401L665.027 252.298C665.274 253.125 665.644 253.785 666.137 254.278C666.63 254.771 667.276 255.018 668.074 255.018C669.35 255.018 670.257 254.489 670.794 253.43C671.345 252.371 671.621 250.76 671.621 248.599ZM664.57 248.599C664.57 248.961 664.577 249.31 664.592 249.643C664.621 249.977 664.65 250.303 664.679 250.622L671.164 244.747C670.917 243.964 670.547 243.34 670.054 242.876C669.575 242.412 668.922 242.179 668.095 242.179C666.804 242.179 665.89 242.716 665.354 243.79C664.831 244.849 664.57 246.452 664.57 248.599ZM675.812 248.599C675.812 247.366 675.921 246.263 676.138 245.291C676.356 244.305 676.682 243.478 677.117 242.81C677.553 242.129 678.104 241.614 678.771 241.265C679.438 240.903 680.229 240.721 681.143 240.721C682.115 240.721 682.935 240.896 683.602 241.244C684.284 241.592 684.835 242.1 685.256 242.767C685.676 243.434 685.981 244.261 686.17 245.248C686.358 246.22 686.453 247.337 686.453 248.599C686.453 249.832 686.344 250.942 686.126 251.928C685.909 252.9 685.582 253.727 685.147 254.409C684.712 255.076 684.16 255.591 683.493 255.954C682.826 256.302 682.035 256.476 681.121 256.476C680.164 256.476 679.344 256.287 678.662 255.91C677.995 255.519 677.444 254.975 677.009 254.278C676.588 253.582 676.283 252.755 676.095 251.797C675.906 250.826 675.812 249.759 675.812 248.599ZM684.668 248.599C684.668 247.83 684.625 247.097 684.538 246.401L678.075 252.298C678.321 253.125 678.691 253.785 679.185 254.278C679.678 254.771 680.323 255.018 681.121 255.018C682.398 255.018 683.305 254.489 683.841 253.43C684.393 252.371 684.668 250.76 684.668 248.599ZM677.618 248.599C677.618 248.961 677.625 249.31 677.64 249.643C677.669 249.977 677.698 250.303 677.727 250.622L684.211 244.747C683.965 243.964 683.595 243.34 683.101 242.876C682.623 242.412 681.97 242.179 681.143 242.179C679.852 242.179 678.938 242.716 678.401 243.79C677.879 244.849 677.618 246.452 677.618 248.599ZM688.859 248.599C688.859 247.366 688.968 246.263 689.186 245.291C689.403 244.305 689.73 243.478 690.165 242.81C690.6 242.129 691.152 241.614 691.819 241.265C692.486 240.903 693.277 240.721 694.191 240.721C695.163 240.721 695.982 240.896 696.65 241.244C697.332 241.592 697.883 242.1 698.303 242.767C698.724 243.434 699.029 244.261 699.217 245.248C699.406 246.22 699.5 247.337 699.5 248.599C699.5 249.832 699.391 250.942 699.174 251.928C698.956 252.9 698.63 253.727 698.195 254.409C697.759 255.076 697.208 255.591 696.541 255.954C695.874 256.302 695.083 256.476 694.169 256.476C693.212 256.476 692.392 256.287 691.71 255.91C691.043 255.519 690.492 254.975 690.056 254.278C689.636 253.582 689.331 252.755 689.142 251.797C688.954 250.826 688.859 249.759 688.859 248.599ZM697.716 248.599C697.716 247.83 697.672 247.097 697.585 246.401L691.123 252.298C691.369 253.125 691.739 253.785 692.232 254.278C692.726 254.771 693.371 255.018 694.169 255.018C695.446 255.018 696.352 254.489 696.889 253.43C697.44 252.371 697.716 250.76 697.716 248.599ZM690.666 248.599C690.666 248.961 690.673 249.31 690.687 249.643C690.716 249.977 690.745 250.303 690.774 250.622L697.259 244.747C697.012 243.964 696.642 243.34 696.149 242.876C695.67 242.412 695.018 242.179 694.191 242.179C692.9 242.179 691.986 242.716 691.449 243.79C690.927 244.849 690.666 246.452 690.666 248.599ZM716.522 254.648H719.938V243.202L716.456 245.639L715.608 244.399L720.395 240.983H721.614V254.648H724.965V256.215H716.522V254.648ZM728.003 248.599C728.003 247.366 728.111 246.263 728.329 245.291C728.547 244.305 728.873 243.478 729.308 242.81C729.743 242.129 730.295 241.614 730.962 241.265C731.629 240.903 732.42 240.721 733.334 240.721C734.306 240.721 735.125 240.896 735.793 241.244C736.475 241.592 737.026 242.1 737.447 242.767C737.867 243.434 738.172 244.261 738.361 245.248C738.549 246.22 738.643 247.337 738.643 248.599C738.643 249.832 738.535 250.942 738.317 251.928C738.099 252.9 737.773 253.727 737.338 254.409C736.903 255.076 736.351 255.591 735.684 255.954C735.017 256.302 734.226 256.476 733.312 256.476C732.355 256.476 731.535 256.287 730.853 255.91C730.186 255.519 729.635 254.975 729.199 254.278C728.779 253.582 728.474 252.755 728.285 251.797C728.097 250.826 728.003 249.759 728.003 248.599ZM736.859 248.599C736.859 247.83 736.816 247.097 736.729 246.401L730.266 252.298C730.512 253.125 730.882 253.785 731.375 254.278C731.869 254.771 732.514 255.018 733.312 255.018C734.589 255.018 735.495 254.489 736.032 253.43C736.583 252.371 736.859 250.76 736.859 248.599ZM729.809 248.599C729.809 248.961 729.816 249.31 729.83 249.643C729.859 249.977 729.889 250.303 729.918 250.622L736.402 244.747C736.155 243.964 735.786 243.34 735.292 242.876C734.814 242.412 734.161 242.179 733.334 242.179C732.043 242.179 731.129 242.716 730.592 243.79C730.07 244.849 729.809 246.452 729.809 248.599ZM742.617 254.648H746.033V243.202L742.552 245.639L741.703 244.399L746.49 240.983H747.709V254.648H751.06V256.215H742.617V254.648ZM754.098 248.599C754.098 247.366 754.207 246.263 754.424 245.291C754.642 244.305 754.968 243.478 755.404 242.81C755.839 242.129 756.39 241.614 757.057 241.265C757.725 240.903 758.515 240.721 759.429 240.721C760.401 240.721 761.221 240.896 761.888 241.244C762.57 241.592 763.121 242.1 763.542 242.767C763.963 243.434 764.267 244.261 764.456 245.248C764.645 246.22 764.739 247.337 764.739 248.599C764.739 249.832 764.63 250.942 764.412 251.928C764.195 252.9 763.868 253.727 763.433 254.409C762.998 255.076 762.447 255.591 761.779 255.954C761.112 256.302 760.321 256.476 759.408 256.476C758.45 256.476 757.63 256.287 756.949 255.91C756.281 255.519 755.73 254.975 755.295 254.278C754.874 253.582 754.57 252.755 754.381 251.797C754.192 250.826 754.098 249.759 754.098 248.599ZM762.954 248.599C762.954 247.83 762.911 247.097 762.824 246.401L756.361 252.298C756.608 253.125 756.978 253.785 757.471 254.278C757.964 254.771 758.61 255.018 759.408 255.018C760.684 255.018 761.591 254.489 762.128 253.43C762.679 252.371 762.954 250.76 762.954 248.599ZM755.904 248.599C755.904 248.961 755.911 249.31 755.926 249.643C755.955 249.977 755.984 250.303 756.013 250.622L762.498 244.747C762.251 243.964 761.881 243.34 761.388 242.876C760.909 242.412 760.256 242.179 759.429 242.179C758.138 242.179 757.224 242.716 756.688 243.79C756.165 244.849 755.904 246.452 755.904 248.599Z" fill="black"/>
<rect x="638.52" y="227.215" width="138" height="45" stroke="#58A982"/>
<path d="M288.066 197.41L288.066 165.41L298.066 165.41L298.066 197.41L288.066 197.41Z" fill="#FFBD6E"/>
<path d="M304.614 197.41L293.067 217.41L281.52 197.41L304.614 197.41Z" fill="#FFBD6E"/>
<path d="M426.52 197.41L426.52 165.41L436.52 165.41L436.52 197.41L426.52 197.41Z" fill="#FFBD6E"/>
<path d="M443.067 197.41L431.52 217.41L419.973 197.41L443.067 197.41Z" fill="#FFBD6E"/>
<path d="M564.973 197.41L564.973 165.41L574.973 165.41L574.973 197.41L564.973 197.41Z" fill="#FFBD6E"/>
<path d="M581.52 197.41L569.973 217.41L558.426 197.41L581.52 197.41Z" fill="#FFBD6E"/>
<path d="M703.426 197.41L703.426 165.41L713.426 165.41L713.426 197.41L703.426 197.41Z" fill="#FFBD6E"/>
<path d="M719.973 197.41L708.426 217.41L696.879 197.41L719.973 197.41Z" fill="#FFBD6E"/>
<rect width="552" height="45" transform="matrix(1 0 0 -1 224.52 272.41)" stroke="#FFBD6E" stroke-width="7"/>
</svg>
