<svg width="1551" height="974" viewBox="0 0 1551 974" fill="none" xmlns="http://www.w3.org/2000/svg">
<rect x="407.691" y="443.156" width="104.135" height="109.408" fill="#F7F7F7"/>
<rect x="407.691" y="443.156" width="104.135" height="109.408" stroke="#DADADA" stroke-width="2"/>
<rect x="511.826" y="443.156" width="104.135" height="109.408" fill="#F7F7F7"/>
<rect x="511.826" y="443.156" width="104.135" height="109.408" stroke="#DADADA" stroke-width="2"/>
<rect x="615.961" y="443.156" width="104.135" height="109.408" fill="#F7F7F7"/>
<rect x="615.961" y="443.156" width="104.135" height="109.408" stroke="#DADADA" stroke-width="2"/>
<rect x="720.096" y="443.156" width="104.135" height="109.408" fill="#EAC053"/>
<rect x="720.096" y="443.156" width="104.135" height="109.408" stroke="#EAC053" stroke-width="1.31816"/>
<rect x="824.23" y="443.156" width="104.135" height="109.408" fill="#F7F7F7"/>
<rect x="824.23" y="443.156" width="104.135" height="109.408" stroke="#DADADA" stroke-width="2"/>
<rect x="928.365" y="443.156" width="104.135" height="109.408" fill="#F7F7F7"/>
<rect x="928.365" y="443.156" width="104.135" height="109.408" stroke="#DADADA" stroke-width="2"/>
<rect x="1032.5" y="443.156" width="104.135" height="109.408" fill="#F7F7F7"/>
<rect x="1032.5" y="443.156" width="104.135" height="109.408" stroke="#DADADA" stroke-width="2"/>
<rect x="1136.63" y="443.156" width="104.135" height="109.408" fill="#F7F7F7"/>
<rect x="1136.63" y="443.156" width="104.135" height="109.408" stroke="#DADADA" stroke-width="2"/>
<rect x="407.547" y="333.749" width="104.135" height="109.408" fill="#F7F7F7"/>
<path d="M435.906 395.396H440.495V383.234L435.906 386.504V382.316L440.754 378.874H444.798V395.396H448.527V398.953H435.906V395.396ZM449.958 395.826L456.985 389.774C457.635 389.2 458.19 388.703 458.649 388.282C459.108 387.842 459.481 387.441 459.767 387.078C460.054 386.714 460.255 386.36 460.37 386.016C460.504 385.672 460.571 385.299 460.571 384.898C460.571 384.075 460.341 383.416 459.882 382.918C459.423 382.402 458.744 382.144 457.846 382.144C456.813 382.144 456 382.431 455.408 383.005C454.834 383.559 454.547 384.525 454.547 385.902H450.244C450.244 383.626 450.885 381.828 452.166 380.509C453.467 379.19 455.36 378.53 457.846 378.53C459.012 378.53 460.026 378.692 460.886 379.017C461.766 379.323 462.502 379.763 463.095 380.337C463.688 380.891 464.127 381.561 464.414 382.345C464.72 383.129 464.873 383.98 464.873 384.898C464.873 385.586 464.749 386.246 464.5 386.877C464.252 387.489 463.907 388.082 463.468 388.655C463.047 389.229 462.55 389.793 461.976 390.348C461.402 390.883 460.791 391.418 460.14 391.954L456.01 395.396H465.16V398.953H449.958V395.826ZM475.332 399.297C474.127 399.297 473.037 399.163 472.062 398.895C471.105 398.608 470.293 398.216 469.623 397.719C468.973 397.203 468.467 396.591 468.103 395.883C467.759 395.157 467.587 394.354 467.587 393.474C467.587 392.346 467.931 391.342 468.62 390.462C469.308 389.564 470.331 388.932 471.689 388.569C470.675 388.244 469.834 387.68 469.165 386.877C468.495 386.074 468.161 385.118 468.161 384.008C468.161 383.205 468.314 382.469 468.62 381.8C468.945 381.131 469.413 380.557 470.025 380.079C470.637 379.582 471.383 379.199 472.262 378.931C473.161 378.664 474.184 378.53 475.332 378.53C476.479 378.53 477.492 378.664 478.372 378.931C479.271 379.199 480.026 379.582 480.638 380.079C481.269 380.557 481.738 381.131 482.043 381.8C482.369 382.469 482.531 383.205 482.531 384.008C482.531 385.118 482.196 386.064 481.527 386.848C480.858 387.613 480.007 388.187 478.974 388.569C481.709 389.411 483.076 391.045 483.076 393.474C483.076 394.354 482.894 395.157 482.531 395.883C482.187 396.591 481.68 397.203 481.011 397.719C480.361 398.216 479.558 398.608 478.601 398.895C477.645 399.163 476.555 399.297 475.332 399.297ZM475.332 395.683C476.517 395.683 477.387 395.453 477.942 394.994C478.496 394.535 478.774 393.914 478.774 393.13C478.774 392.269 478.448 391.59 477.798 391.093C477.167 390.577 476.345 390.242 475.332 390.089C474.318 390.242 473.486 390.577 472.836 391.093C472.205 391.59 471.889 392.269 471.889 393.13C471.889 393.914 472.176 394.535 472.75 394.994C473.324 395.453 474.184 395.683 475.332 395.683ZM475.332 387.164C476.192 387.011 476.89 386.714 477.425 386.274C477.961 385.816 478.229 385.184 478.229 384.381C478.229 383.636 477.97 383.081 477.454 382.718C476.957 382.335 476.249 382.144 475.332 382.144C474.433 382.144 473.725 382.335 473.209 382.718C472.712 383.081 472.463 383.636 472.463 384.381C472.463 385.184 472.721 385.816 473.238 386.274C473.773 386.714 474.471 387.011 475.332 387.164Z" fill="black"/>
<rect x="407.547" y="333.749" width="104.135" height="109.408" stroke="#DADADA" stroke-width="2"/>
<rect x="511.682" y="333.749" width="104.135" height="109.408" fill="#F7F7F7"/>
<path d="M555.072 399.297C553.81 399.297 552.691 399.115 551.716 398.752C550.741 398.389 549.919 397.824 549.249 397.06C548.58 396.275 548.064 395.281 547.7 394.076C547.356 392.872 547.184 391.438 547.184 389.774V389.2C547.184 387.288 547.385 385.663 547.787 384.324C548.188 382.966 548.752 381.857 549.479 380.997C550.206 380.136 551.066 379.515 552.06 379.132C553.074 378.731 554.173 378.53 555.359 378.53C557.214 378.53 558.715 378.922 559.862 379.706C561.01 380.49 561.708 381.79 561.956 383.607H557.941C557.558 382.632 556.65 382.144 555.216 382.144C554.661 382.144 554.145 382.23 553.667 382.402C553.208 382.555 552.797 382.852 552.433 383.291C552.089 383.712 551.812 384.295 551.601 385.041C551.391 385.787 551.257 386.743 551.2 387.909C551.448 387.527 551.754 387.211 552.118 386.963C552.481 386.695 552.873 386.485 553.294 386.332C553.734 386.16 554.183 386.035 554.642 385.959C555.12 385.882 555.598 385.844 556.076 385.844C558.103 385.844 559.662 386.399 560.752 387.508C561.842 388.598 562.387 390.147 562.387 392.155V392.47C562.387 393.484 562.205 394.411 561.842 395.252C561.478 396.094 560.971 396.82 560.321 397.432C559.69 398.025 558.925 398.484 558.027 398.809C557.128 399.134 556.143 399.297 555.072 399.297ZM554.785 395.683C555.818 395.683 556.621 395.396 557.195 394.822C557.788 394.229 558.084 393.474 558.084 392.556V392.269C558.084 391.351 557.788 390.606 557.195 390.032C556.621 389.458 555.818 389.171 554.785 389.171C553.753 389.171 552.94 389.458 552.347 390.032C551.774 390.606 551.487 391.351 551.487 392.269V392.556C551.487 393.474 551.774 394.229 552.347 394.822C552.94 395.396 553.753 395.683 554.785 395.683ZM573.717 394.707H564.251V391.724L573.717 378.874H578.019V391.151H580.314V394.707H578.019V398.953H573.717V394.707ZM573.717 391.151V383.664L568.267 391.151H573.717Z" fill="black"/>
<rect x="511.682" y="333.749" width="104.135" height="109.408" stroke="#DADADA" stroke-width="2"/>
<rect x="615.816" y="333.749" width="104.135" height="109.408" fill="#F7F7F7"/>
<path d="M658.846 399.297C656.399 399.297 654.544 398.723 653.282 397.576C652.02 396.409 651.389 394.813 651.389 392.786H655.691C655.691 393.761 655.94 394.488 656.437 394.966C656.953 395.444 657.756 395.683 658.846 395.683C659.898 395.683 660.682 395.453 661.199 394.994C661.734 394.516 662.002 393.847 662.002 392.986C662.002 391.189 660.95 390.29 658.846 390.29H656.982V386.963H658.846C659.764 386.963 660.472 386.772 660.969 386.389C661.466 386.007 661.715 385.414 661.715 384.611C661.715 383.884 661.476 383.291 660.998 382.832C660.52 382.373 659.803 382.144 658.846 382.144C657.871 382.144 657.145 382.373 656.666 382.832C656.208 383.272 655.978 383.913 655.978 384.754H651.676C651.676 382.785 652.268 381.255 653.454 380.165C654.659 379.075 656.456 378.53 658.846 378.53C660.051 378.53 661.103 378.673 662.002 378.96C662.9 379.228 663.646 379.61 664.239 380.107C664.832 380.586 665.272 381.159 665.558 381.828C665.864 382.498 666.017 383.224 666.017 384.008C666.017 385.118 665.702 386.064 665.071 386.848C664.459 387.613 663.637 388.158 662.604 388.483C663.79 388.808 664.698 389.372 665.329 390.175C665.979 390.979 666.304 392.04 666.304 393.359C666.304 394.22 666.132 395.013 665.788 395.74C665.444 396.467 664.947 397.098 664.296 397.633C663.665 398.149 662.881 398.561 661.944 398.867C661.026 399.153 659.994 399.297 658.846 399.297ZM668.612 395.826L675.64 389.774C676.29 389.2 676.845 388.703 677.304 388.282C677.762 387.842 678.135 387.441 678.422 387.078C678.709 386.714 678.91 386.36 679.025 386.016C679.158 385.672 679.225 385.299 679.225 384.898C679.225 384.075 678.996 383.416 678.537 382.918C678.078 382.402 677.399 382.144 676.5 382.144C675.468 382.144 674.655 382.431 674.062 383.005C673.489 383.559 673.202 384.525 673.202 385.902H668.899C668.899 383.626 669.54 381.828 670.821 380.509C672.121 379.19 674.014 378.53 676.5 378.53C677.667 378.53 678.68 378.692 679.541 379.017C680.42 379.323 681.157 379.763 681.749 380.337C682.342 380.891 682.782 381.561 683.069 382.345C683.375 383.129 683.528 383.98 683.528 384.898C683.528 385.586 683.404 386.246 683.155 386.877C682.906 387.489 682.562 388.082 682.122 388.655C681.702 389.229 681.204 389.793 680.631 390.348C680.057 390.883 679.445 391.418 678.795 391.954L674.665 395.396H683.815V398.953H668.612V395.826Z" fill="black"/>
<rect x="615.816" y="333.749" width="104.135" height="109.408" stroke="#DADADA" stroke-width="2"/>
<rect x="719.951" y="333.749" width="104.135" height="109.408" fill="#F7F7F7"/>
<path d="M756.81 395.396H761.4V383.234L756.81 386.504V382.316L761.658 378.874H765.702V395.396H769.431V398.953H756.81V395.396ZM779.324 399.297C778.062 399.297 776.943 399.115 775.968 398.752C774.992 398.389 774.17 397.824 773.501 397.06C772.832 396.275 772.315 395.281 771.952 394.076C771.608 392.872 771.436 391.438 771.436 389.774V389.2C771.436 387.288 771.636 385.663 772.038 384.324C772.44 382.966 773.004 381.857 773.73 380.997C774.457 380.136 775.317 379.515 776.312 379.132C777.325 378.731 778.425 378.53 779.61 378.53C781.465 378.53 782.966 378.922 784.114 379.706C785.261 380.49 785.959 381.79 786.208 383.607H782.192C781.81 382.632 780.901 382.144 779.467 382.144C778.912 382.144 778.396 382.23 777.918 382.402C777.459 382.555 777.048 382.852 776.685 383.291C776.341 383.712 776.063 384.295 775.853 385.041C775.643 385.787 775.509 386.743 775.451 387.909C775.7 387.527 776.006 387.211 776.369 386.963C776.733 386.695 777.125 386.485 777.545 386.332C777.985 386.16 778.434 386.035 778.893 385.959C779.371 385.882 779.849 385.844 780.328 385.844C782.355 385.844 783.913 386.399 785.003 387.508C786.093 388.598 786.638 390.147 786.638 392.155V392.47C786.638 393.484 786.456 394.411 786.093 395.252C785.73 396.094 785.223 396.82 784.573 397.432C783.942 398.025 783.177 398.484 782.278 398.809C781.379 399.134 780.394 399.297 779.324 399.297ZM779.037 395.683C780.069 395.683 780.873 395.396 781.446 394.822C782.039 394.229 782.335 393.474 782.335 392.556V392.269C782.335 391.351 782.039 390.606 781.446 390.032C780.873 389.458 780.069 389.171 779.037 389.171C778.004 389.171 777.191 389.458 776.599 390.032C776.025 390.606 775.738 391.351 775.738 392.269V392.556C775.738 393.474 776.025 394.229 776.599 394.822C777.191 395.396 778.004 395.683 779.037 395.683Z" fill="black"/>
<rect x="719.951" y="333.749" width="104.135" height="109.408" stroke="#DADADA" stroke-width="2"/>
<rect x="824.086" y="333.749" width="104.135" height="109.408" fill="#F7F7F7"/>
<path d="M875.69 399.297C874.485 399.297 873.395 399.163 872.42 398.895C871.464 398.608 870.651 398.216 869.982 397.719C869.331 397.203 868.825 396.591 868.461 395.883C868.117 395.157 867.945 394.354 867.945 393.474C867.945 392.346 868.289 391.342 868.978 390.462C869.666 389.564 870.689 388.932 872.047 388.569C871.033 388.244 870.192 387.68 869.523 386.877C868.853 386.074 868.519 385.118 868.519 384.008C868.519 383.205 868.672 382.469 868.978 381.8C869.303 381.131 869.771 380.557 870.383 380.079C870.995 379.582 871.741 379.199 872.621 378.931C873.519 378.664 874.542 378.53 875.69 378.53C876.837 378.53 877.85 378.664 878.73 378.931C879.629 379.199 880.384 379.582 880.996 380.079C881.627 380.557 882.096 381.131 882.402 381.8C882.727 382.469 882.889 383.205 882.889 384.008C882.889 385.118 882.555 386.064 881.885 386.848C881.216 387.613 880.365 388.187 879.332 388.569C882.067 389.411 883.434 391.045 883.434 393.474C883.434 394.354 883.253 395.157 882.889 395.883C882.545 396.591 882.038 397.203 881.369 397.719C880.719 398.216 879.916 398.608 878.96 398.895C878.003 399.163 876.913 399.297 875.69 399.297ZM875.69 395.683C876.875 395.683 877.745 395.453 878.3 394.994C878.854 394.535 879.132 393.914 879.132 393.13C879.132 392.269 878.807 391.59 878.156 391.093C877.525 390.577 876.703 390.242 875.69 390.089C874.676 390.242 873.844 390.577 873.194 391.093C872.563 391.59 872.248 392.269 872.248 393.13C872.248 393.914 872.534 394.535 873.108 394.994C873.682 395.453 874.542 395.683 875.69 395.683ZM875.69 387.164C876.55 387.011 877.248 386.714 877.784 386.274C878.319 385.816 878.587 385.184 878.587 384.381C878.587 383.636 878.329 383.081 877.812 382.718C877.315 382.335 876.608 382.144 875.69 382.144C874.791 382.144 874.083 382.335 873.567 382.718C873.07 383.081 872.821 383.636 872.821 384.381C872.821 385.184 873.079 385.816 873.596 386.274C874.131 386.714 874.829 387.011 875.69 387.164Z" fill="black"/>
<rect x="824.086" y="333.749" width="104.135" height="109.408" stroke="#DADADA" stroke-width="2"/>
<rect x="928.221" y="333.749" width="104.135" height="109.408" fill="#F7F7F7"/>
<path d="M980.828 394.707H971.363V391.724L980.828 378.874H985.131V391.151H987.426V394.707H985.131V398.953H980.828V394.707ZM980.828 391.151V383.664L975.378 391.151H980.828Z" fill="black"/>
<rect x="928.221" y="333.749" width="104.135" height="109.408" stroke="#DADADA" stroke-width="2"/>
<rect x="1032.36" y="333.749" width="104.135" height="109.408" fill="#F7F7F7"/>
<path d="M1076.28 395.826L1083.31 389.774C1083.96 389.2 1084.52 388.703 1084.98 388.282C1085.43 387.842 1085.81 387.441 1086.09 387.078C1086.38 386.714 1086.58 386.36 1086.7 386.016C1086.83 385.672 1086.9 385.299 1086.9 384.898C1086.9 384.075 1086.67 383.416 1086.21 382.918C1085.75 382.402 1085.07 382.144 1084.17 382.144C1083.14 382.144 1082.33 382.431 1081.73 383.005C1081.16 383.559 1080.87 384.525 1080.87 385.902H1076.57C1076.57 383.626 1077.21 381.828 1078.49 380.509C1079.79 379.19 1081.69 378.53 1084.17 378.53C1085.34 378.53 1086.35 378.692 1087.21 379.017C1088.09 379.323 1088.83 379.763 1089.42 380.337C1090.01 380.891 1090.45 381.561 1090.74 382.345C1091.05 383.129 1091.2 383.98 1091.2 384.898C1091.2 385.586 1091.08 386.246 1090.83 386.877C1090.58 387.489 1090.23 388.082 1089.79 388.655C1089.37 389.229 1088.88 389.793 1088.3 390.348C1087.73 390.883 1087.12 391.418 1086.47 391.954L1082.34 395.396H1091.49V398.953H1076.28V395.826Z" fill="black"/>
<rect x="1032.36" y="333.749" width="104.135" height="109.408" stroke="#DADADA" stroke-width="2"/>
<rect x="1136.49" y="333.749" width="104.135" height="109.408" fill="#F7F7F7"/>
<path d="M1182.35 395.396H1186.94V383.234L1182.35 386.504V382.316L1187.2 378.874H1191.24V395.396H1194.97V398.953H1182.35V395.396Z" fill="black"/>
<rect x="1136.49" y="333.749" width="104.135" height="109.408" stroke="#DADADA" stroke-width="2"/>
<path d="M175.816 681.275V150.529H642.079L776.13 219.015L910.182 150.529H1376.44V681.276" stroke="black" stroke-width="3"/>
<path d="M767.314 232.754L604.993 151.594L767.314 70.4334L929.636 151.594L767.314 232.754Z" fill="white" stroke="black" stroke-width="3"/>
<path d="M1376.44 814.367L1385.1 799.367L1367.78 799.367L1376.44 814.367ZM1374.94 743.73L1374.94 800.867L1377.94 800.867L1377.94 743.73L1374.94 743.73Z" fill="black"/>
<path d="M782.354 714.049V715.549H780.854V714.049H782.354ZM782.354 556.064L791.014 571.064H773.693L782.354 556.064ZM1284.3 715.549H782.354V712.549H1284.3V715.549ZM780.854 714.049V569.564H783.854V714.049H780.854Z" fill="black"/>
<path d="M759.162 714.049V715.549H760.662V714.049H759.162ZM759.162 556.064L750.502 571.064H767.822L759.162 556.064ZM257.219 715.549H759.162V712.549H257.219V715.549ZM760.662 714.049V569.564H757.662V714.049H760.662Z" fill="black"/>
<rect x="1271.08" y="684.367" width="210.727" height="59.3633" fill="#F3F3F3"/>
<path d="M1298.02 720.992H1300.25C1300.54 720.323 1300.78 719.52 1300.97 718.583C1301.16 717.626 1301.32 716.623 1301.43 715.571C1301.55 714.5 1301.63 713.41 1301.69 712.301C1301.75 711.173 1301.77 710.092 1301.77 709.06V704.47H1315.92V720.992H1318.1V728.278H1314.25V724.549H1301.86V728.278H1298.02V720.992ZM1311.61 720.992V708.027H1305.85V709.633C1305.85 712.253 1305.72 714.462 1305.47 716.259C1305.23 718.057 1304.87 719.634 1304.41 720.992H1311.61ZM1327.42 724.893C1326.39 724.893 1325.4 724.74 1324.47 724.434C1323.55 724.109 1322.75 723.621 1322.06 722.971C1321.37 722.321 1320.82 721.508 1320.42 720.533C1320.02 719.558 1319.82 718.411 1319.82 717.091V716.517C1319.82 715.274 1320.02 714.184 1320.42 713.247C1320.82 712.31 1321.37 711.526 1322.06 710.895C1322.75 710.264 1323.55 709.796 1324.47 709.49C1325.4 709.165 1326.39 709.002 1327.42 709.002C1328.45 709.002 1329.43 709.165 1330.35 709.49C1331.26 709.796 1332.07 710.264 1332.76 710.895C1333.46 711.526 1334.02 712.31 1334.42 713.247C1334.82 714.184 1335.02 715.274 1335.02 716.517V717.091C1335.02 718.391 1334.82 719.529 1334.42 720.504C1334.02 721.48 1333.46 722.292 1332.76 722.943C1332.07 723.593 1331.26 724.08 1330.35 724.405C1329.43 724.73 1328.45 724.893 1327.42 724.893ZM1327.42 721.68C1328.49 721.68 1329.38 721.298 1330.09 720.533C1330.82 719.768 1331.18 718.621 1331.18 717.091V716.517C1331.18 715.121 1330.82 714.06 1330.09 713.334C1329.38 712.588 1328.49 712.215 1327.42 712.215C1326.33 712.215 1325.43 712.588 1324.72 713.334C1324.02 714.06 1323.66 715.121 1323.66 716.517V717.091C1323.66 718.64 1324.02 719.797 1324.72 720.562C1325.43 721.308 1326.33 721.68 1327.42 721.68ZM1344.62 724.893C1343.55 724.893 1342.55 724.711 1341.64 724.348C1340.74 723.985 1339.95 723.44 1339.29 722.713C1338.62 721.967 1338.09 721.059 1337.71 719.988C1337.34 718.898 1337.16 717.636 1337.16 716.202V715.542C1337.16 713.821 1337.29 712.291 1337.54 710.953C1337.8 709.614 1338.23 708.476 1338.83 707.539C1339.44 706.602 1340.24 705.876 1341.24 705.359C1342.25 704.824 1343.51 704.518 1345.02 704.442C1345.61 704.422 1346.2 704.403 1346.77 704.384C1347.35 704.365 1347.89 704.336 1348.41 704.298C1348.92 704.26 1349.39 704.203 1349.81 704.126C1350.23 704.03 1350.61 703.906 1350.93 703.753V707.109C1350.62 707.281 1350.05 707.425 1349.21 707.539C1348.39 707.654 1347.13 707.721 1345.45 707.74C1344.59 707.759 1343.85 707.864 1343.21 708.056C1342.6 708.228 1342.09 708.515 1341.67 708.916C1341.26 709.299 1340.94 709.805 1340.69 710.436C1340.46 711.067 1340.3 711.842 1340.2 712.76C1340.64 711.899 1341.3 711.201 1342.18 710.666C1343.06 710.13 1344.21 709.863 1345.62 709.863C1346.58 709.863 1347.45 710.016 1348.23 710.322C1349.02 710.609 1349.7 711.039 1350.27 711.612C1350.84 712.186 1351.28 712.894 1351.59 713.735C1351.92 714.576 1352.08 715.552 1352.08 716.661V717.206C1352.08 718.411 1351.89 719.491 1351.5 720.447C1351.14 721.403 1350.62 722.216 1349.96 722.885C1349.29 723.535 1348.49 724.033 1347.57 724.377C1346.68 724.721 1345.69 724.893 1344.62 724.893ZM1344.62 721.68C1345.77 721.68 1346.66 721.308 1347.29 720.562C1347.92 719.797 1348.23 718.716 1348.23 717.321V716.747C1348.23 715.542 1347.91 714.596 1347.26 713.907C1346.61 713.219 1345.73 712.875 1344.62 712.875C1343.53 712.875 1342.65 713.219 1341.98 713.907C1341.33 714.596 1341.01 715.542 1341.01 716.747V717.263C1341.01 717.952 1341.09 718.573 1341.26 719.128C1341.46 719.682 1341.71 720.151 1342.04 720.533C1342.36 720.896 1342.75 721.183 1343.19 721.394C1343.63 721.585 1344.1 721.68 1344.62 721.68ZM1359.36 724.893C1358.53 724.893 1357.81 724.778 1357.18 724.549C1356.54 724.3 1356.01 723.966 1355.57 723.545C1355.13 723.105 1354.8 722.598 1354.57 722.025C1354.34 721.432 1354.22 720.791 1354.22 720.103C1354.22 717.043 1356.04 715.513 1359.67 715.513H1364.2V714.796C1364.2 713.802 1363.97 713.104 1363.51 712.702C1363.08 712.301 1362.37 712.1 1361.39 712.1C1360.53 712.1 1359.91 712.253 1359.53 712.559C1359.15 712.846 1358.93 713.209 1358.87 713.649H1355.08C1355.12 712.999 1355.28 712.387 1355.57 711.813C1355.88 711.24 1356.3 710.752 1356.83 710.35C1357.39 709.93 1358.06 709.605 1358.84 709.375C1359.62 709.127 1360.52 709.002 1361.54 709.002C1362.51 709.002 1363.39 709.107 1364.17 709.318C1364.98 709.528 1365.66 709.872 1366.21 710.35C1366.78 710.809 1367.22 711.412 1367.53 712.157C1367.84 712.903 1367.99 713.802 1367.99 714.854V720.677C1367.99 721.48 1368 722.187 1368.02 722.799C1368.06 723.392 1368.11 723.975 1368.19 724.549H1364.66C1364.59 724.128 1364.54 723.813 1364.52 723.602C1364.52 723.373 1364.52 723.038 1364.52 722.598C1364.1 723.21 1363.46 723.746 1362.6 724.205C1361.76 724.664 1360.68 724.893 1359.36 724.893ZM1360.53 721.967C1360.99 721.967 1361.44 721.91 1361.88 721.795C1362.32 721.661 1362.71 721.47 1363.06 721.222C1363.4 720.954 1363.68 720.619 1363.89 720.218C1364.1 719.816 1364.2 719.348 1364.2 718.812V718.095H1360.39C1359.66 718.095 1359.09 718.267 1358.67 718.611C1358.27 718.936 1358.06 719.386 1358.06 719.959C1358.06 720.571 1358.28 721.059 1358.7 721.422C1359.12 721.786 1359.73 721.967 1360.53 721.967ZM1371.29 709.346H1378.92C1379.9 709.346 1380.73 709.452 1381.42 709.662C1382.13 709.853 1382.71 710.13 1383.17 710.494C1383.63 710.857 1383.96 711.287 1384.17 711.785C1384.38 712.282 1384.49 712.827 1384.49 713.42C1384.49 714.127 1384.27 714.796 1383.83 715.427C1383.41 716.039 1382.82 716.45 1382.08 716.661C1383.02 716.89 1383.74 717.33 1384.26 717.98C1384.79 718.611 1385.06 719.357 1385.06 720.218C1385.06 721.537 1384.6 722.589 1383.69 723.373C1382.77 724.157 1381.37 724.549 1379.5 724.549H1371.29V709.346ZM1378.75 721.508C1379.61 721.508 1380.24 721.384 1380.64 721.135C1381.07 720.868 1381.28 720.447 1381.28 719.873C1381.28 719.3 1381.07 718.889 1380.67 718.64C1380.29 718.372 1379.65 718.238 1378.75 718.238H1375.08V721.508H1378.75ZM1378.38 715.427C1379.26 715.427 1379.86 715.303 1380.19 715.055C1380.53 714.806 1380.7 714.423 1380.7 713.907C1380.7 713.41 1380.53 713.037 1380.19 712.789C1379.84 712.521 1379.24 712.387 1378.38 712.387H1375.08V715.427H1378.38ZM1387.79 709.346H1391.58V719.099L1398.35 709.346H1401.85V724.549H1398.06V714.796L1391.29 724.549H1387.79V709.346ZM1409 712.502H1404.15V709.346H1417.63V712.502H1412.79V724.549H1409V712.502ZM1419.92 709.346H1423.71V714.452H1426.95C1430.87 714.452 1432.83 716.135 1432.83 719.5C1432.83 720.246 1432.71 720.935 1432.49 721.566C1432.27 722.178 1431.93 722.704 1431.45 723.143C1430.97 723.583 1430.36 723.927 1429.62 724.176C1428.87 724.425 1427.98 724.549 1426.95 724.549H1419.92V709.346ZM1426.52 721.508C1427.44 721.508 1428.09 721.346 1428.47 721.021C1428.85 720.677 1429.04 720.17 1429.04 719.5C1429.04 718.831 1428.84 718.334 1428.44 718.009C1428.06 717.665 1427.42 717.493 1426.52 717.493H1423.71V721.508H1426.52ZM1442.01 720.992H1446.6V708.83L1442.01 712.1V707.912L1446.86 704.47H1450.9V720.992H1454.63V724.549H1442.01V720.992Z" fill="black"/>
<rect x="1271.08" y="684.367" width="210.727" height="59.3633" stroke="#DADADA" stroke-width="2"/>
<rect x="1312.08" y="814.367" width="128.727" height="59.3633" fill="#F3F3F3"/>
<path d="M1340.16 839.346H1343.66V841.584C1344.03 840.895 1344.61 840.293 1345.41 839.777C1346.24 839.26 1347.34 839.002 1348.71 839.002C1350.57 839.002 1351.94 839.499 1352.84 840.494C1353.76 841.488 1354.22 842.922 1354.22 844.796V854.549H1350.43V845.657C1350.43 844.51 1350.19 843.649 1349.72 843.075C1349.26 842.502 1348.46 842.215 1347.34 842.215C1346.72 842.215 1346.21 842.31 1345.79 842.502C1345.37 842.693 1345.01 842.951 1344.73 843.276C1344.46 843.582 1344.26 843.945 1344.12 844.366C1344.01 844.768 1343.95 845.198 1343.95 845.657V854.549H1340.16V839.346ZM1363.84 844.739H1373.02V848.296H1363.84V844.739ZM1382.34 850.992H1386.93V838.83L1382.34 842.1V837.912L1387.19 834.47H1391.23V850.992H1394.96V854.549H1382.34V850.992ZM1404.85 854.893C1403.59 854.893 1402.47 854.711 1401.5 854.348C1400.52 853.985 1399.7 853.421 1399.03 852.656C1398.36 851.872 1397.84 850.877 1397.48 849.673C1397.14 848.468 1396.96 847.034 1396.96 845.37V844.796C1396.96 842.884 1397.17 841.259 1397.57 839.92C1397.97 838.562 1398.53 837.453 1399.26 836.593C1399.99 835.732 1400.85 835.111 1401.84 834.728C1402.85 834.327 1403.95 834.126 1405.14 834.126C1406.99 834.126 1408.5 834.518 1409.64 835.302C1410.79 836.086 1411.49 837.386 1411.74 839.203H1407.72C1407.34 838.228 1406.43 837.74 1405 837.74C1404.44 837.74 1403.93 837.826 1403.45 837.998C1402.99 838.151 1402.58 838.448 1402.21 838.888C1401.87 839.308 1401.59 839.891 1401.38 840.637C1401.17 841.383 1401.04 842.339 1400.98 843.506C1401.23 843.123 1401.54 842.808 1401.9 842.559C1402.26 842.291 1402.65 842.081 1403.07 841.928C1403.51 841.756 1403.96 841.632 1404.42 841.555C1404.9 841.479 1405.38 841.44 1405.86 841.44C1407.88 841.44 1409.44 841.995 1410.53 843.104C1411.62 844.194 1412.17 845.743 1412.17 847.751V848.066C1412.17 849.08 1411.99 850.007 1411.62 850.849C1411.26 851.69 1410.75 852.417 1410.1 853.029C1409.47 853.621 1408.71 854.08 1407.81 854.405C1406.91 854.73 1405.92 854.893 1404.85 854.893ZM1404.57 851.279C1405.6 851.279 1406.4 850.992 1406.98 850.418C1407.57 849.826 1407.86 849.07 1407.86 848.152V847.866C1407.86 846.948 1407.57 846.202 1406.98 845.628C1406.4 845.055 1405.6 844.768 1404.57 844.768C1403.53 844.768 1402.72 845.055 1402.13 845.628C1401.55 846.202 1401.27 846.948 1401.27 847.866V848.152C1401.27 849.07 1401.55 849.826 1402.13 850.418C1402.72 850.992 1403.53 851.279 1404.57 851.279Z" fill="black"/>
<rect x="1312.08" y="814.367" width="128.727" height="59.3633" stroke="#DADADA" stroke-width="2"/>
<path d="M231.081 373.22H243.05V388.453H241.004V375.005H233.127V388.453H231.081V373.22ZM251.754 388.67C251.014 388.67 250.31 388.554 249.643 388.322C248.976 388.075 248.388 387.713 247.88 387.234C247.373 386.741 246.966 386.124 246.662 385.384C246.357 384.645 246.205 383.781 246.205 382.795V382.36C246.205 381.431 246.357 380.612 246.662 379.901C246.966 379.19 247.373 378.602 247.88 378.138C248.388 377.66 248.976 377.304 249.643 377.072C250.31 376.825 251.014 376.702 251.754 376.702C252.494 376.702 253.197 376.825 253.864 377.072C254.532 377.304 255.119 377.66 255.627 378.138C256.135 378.602 256.541 379.19 256.846 379.901C257.15 380.612 257.303 381.431 257.303 382.36V382.795C257.303 383.781 257.15 384.645 256.846 385.384C256.541 386.124 256.135 386.741 255.627 387.234C255.119 387.713 254.532 388.075 253.864 388.322C253.197 388.554 252.494 388.67 251.754 388.67ZM251.754 386.929C252.189 386.929 252.624 386.857 253.059 386.712C253.495 386.552 253.879 386.313 254.213 385.994C254.546 385.66 254.815 385.232 255.018 384.71C255.235 384.188 255.344 383.549 255.344 382.795V382.36C255.344 381.663 255.235 381.069 255.018 380.575C254.815 380.082 254.546 379.676 254.213 379.357C253.879 379.038 253.495 378.806 253.059 378.66C252.624 378.515 252.189 378.443 251.754 378.443C251.318 378.443 250.883 378.515 250.448 378.66C250.013 378.806 249.628 379.038 249.295 379.357C248.961 379.676 248.685 380.082 248.468 380.575C248.265 381.069 248.163 381.663 248.163 382.36V382.795C248.163 383.549 248.265 384.188 248.468 384.71C248.685 385.232 248.961 385.66 249.295 385.994C249.628 386.313 250.013 386.552 250.448 386.712C250.883 386.857 251.318 386.929 251.754 386.929ZM263.931 388.67C262.48 388.67 261.341 388.366 260.515 387.756C259.688 387.147 259.231 386.291 259.144 385.189H261.059C261.16 385.754 261.458 386.19 261.951 386.494C262.459 386.784 263.119 386.929 263.931 386.929C264.932 386.929 265.657 386.763 266.107 386.429C266.571 386.081 266.803 385.667 266.803 385.189C266.803 384.623 266.615 384.18 266.238 383.861C265.86 383.528 265.208 383.361 264.279 383.361H262.299V381.794H264.149C264.946 381.794 265.512 381.642 265.846 381.337C266.194 381.032 266.368 380.604 266.368 380.053C266.368 379.618 266.165 379.241 265.759 378.922C265.353 378.602 264.743 378.443 263.931 378.443C263.046 378.443 262.4 378.588 261.994 378.878C261.603 379.154 261.363 379.553 261.276 380.075H259.361C259.405 379.596 259.535 379.154 259.753 378.748C259.985 378.327 260.297 377.964 260.689 377.66C261.08 377.355 261.545 377.123 262.081 376.963C262.633 376.789 263.249 376.702 263.931 376.702C264.671 376.702 265.309 376.789 265.846 376.963C266.397 377.123 266.854 377.355 267.217 377.66C267.579 377.95 267.848 378.298 268.022 378.704C268.196 379.11 268.283 379.56 268.283 380.053C268.283 380.604 268.145 381.09 267.87 381.511C267.594 381.917 267.152 382.236 266.542 382.469C267.355 382.686 267.92 383.034 268.24 383.513C268.559 383.992 268.718 384.55 268.718 385.189C268.718 385.667 268.617 386.117 268.414 386.538C268.211 386.958 267.906 387.328 267.5 387.648C267.108 387.952 266.607 388.199 265.998 388.387C265.403 388.576 264.714 388.67 263.931 388.67ZM271.447 376.92H273.362V385.624L279.324 376.92H281.239V388.453H279.324V379.748L273.362 388.453H271.447V376.92ZM294.107 388.453H284.728V376.92H286.643V386.755H292.17V376.92H294.085V386.755H295.935V391.173H294.107V388.453ZM298.222 376.92H300.137V385.624L306.099 376.92H308.014V388.453H306.099V379.748L300.137 388.453H298.222V376.92ZM316.291 388.67C315.551 388.67 314.848 388.554 314.18 388.322C313.513 388.075 312.925 387.713 312.418 387.234C311.91 386.741 311.504 386.124 311.199 385.384C310.894 384.645 310.742 383.781 310.742 382.795V382.36C310.742 381.431 310.894 380.612 311.199 379.901C311.504 379.19 311.91 378.602 312.418 378.138C312.925 377.66 313.513 377.304 314.18 377.072C314.848 376.825 315.551 376.702 316.291 376.702C317.031 376.702 317.734 376.825 318.402 377.072C319.069 377.304 319.657 377.66 320.164 378.138C320.672 378.602 321.078 379.19 321.383 379.901C321.688 380.612 321.84 381.431 321.84 382.36V382.795C321.84 383.781 321.688 384.645 321.383 385.384C321.078 386.124 320.672 386.741 320.164 387.234C319.657 387.713 319.069 388.075 318.402 388.322C317.734 388.554 317.031 388.67 316.291 388.67ZM316.291 386.929C316.726 386.929 317.161 386.857 317.597 386.712C318.032 386.552 318.416 386.313 318.75 385.994C319.084 385.66 319.352 385.232 319.555 384.71C319.773 384.188 319.881 383.549 319.881 382.795V382.36C319.881 381.663 319.773 381.069 319.555 380.575C319.352 380.082 319.084 379.676 318.75 379.357C318.416 379.038 318.032 378.806 317.597 378.66C317.161 378.515 316.726 378.443 316.291 378.443C315.856 378.443 315.421 378.515 314.985 378.66C314.55 378.806 314.166 379.038 313.832 379.357C313.498 379.676 313.223 380.082 313.005 380.575C312.802 381.069 312.701 381.663 312.701 382.36V382.795C312.701 383.549 312.802 384.188 313.005 384.71C313.223 385.232 313.498 385.66 313.832 385.994C314.166 386.313 314.55 386.552 314.985 386.712C315.421 386.857 315.856 386.929 316.291 386.929ZM324.551 376.92H326.466V381.729H332.429V376.92H334.344V388.453H332.429V383.426H326.466V388.453H324.551V376.92ZM337.833 376.92H339.748V381.729H345.71V376.92H347.625V388.453H345.71V383.426H339.748V388.453H337.833V376.92ZM355.902 388.67C355.162 388.67 354.458 388.554 353.791 388.322C353.124 388.075 352.536 387.713 352.028 387.234C351.521 386.741 351.114 386.124 350.81 385.384C350.505 384.645 350.353 383.781 350.353 382.795V382.36C350.353 381.431 350.505 380.612 350.81 379.901C351.114 379.19 351.521 378.602 352.028 378.138C352.536 377.66 353.124 377.304 353.791 377.072C354.458 376.825 355.162 376.702 355.902 376.702C356.641 376.702 357.345 376.825 358.012 377.072C358.68 377.304 359.267 377.66 359.775 378.138C360.283 378.602 360.689 379.19 360.994 379.901C361.298 380.612 361.45 381.431 361.45 382.36V382.795C361.45 383.781 361.298 384.645 360.994 385.384C360.689 386.124 360.283 386.741 359.775 387.234C359.267 387.713 358.68 388.075 358.012 388.322C357.345 388.554 356.641 388.67 355.902 388.67ZM355.902 386.929C356.337 386.929 356.772 386.857 357.207 386.712C357.642 386.552 358.027 386.313 358.361 385.994C358.694 385.66 358.963 385.232 359.166 384.71C359.383 384.188 359.492 383.549 359.492 382.795V382.36C359.492 381.663 359.383 381.069 359.166 380.575C358.963 380.082 358.694 379.676 358.361 379.357C358.027 379.038 357.642 378.806 357.207 378.66C356.772 378.515 356.337 378.443 355.902 378.443C355.466 378.443 355.031 378.515 354.596 378.66C354.161 378.806 353.776 379.038 353.443 379.357C353.109 379.676 352.833 380.082 352.616 380.575C352.413 381.069 352.311 381.663 352.311 382.36V382.795C352.311 383.549 352.413 384.188 352.616 384.71C352.833 385.232 353.109 385.66 353.443 385.994C353.776 386.313 354.161 386.552 354.596 386.712C355.031 386.857 355.466 386.929 355.902 386.929ZM368.949 388.67C368.209 388.67 367.506 388.554 366.839 388.322C366.171 388.09 365.584 387.735 365.076 387.256C364.568 386.763 364.162 386.146 363.857 385.406C363.553 384.666 363.4 383.796 363.4 382.795V382.36C363.4 381.402 363.545 380.575 363.836 379.879C364.126 379.168 364.51 378.581 364.989 378.116C365.482 377.638 366.048 377.282 366.686 377.05C367.339 376.818 368.021 376.702 368.732 376.702C370.429 376.702 371.742 377.166 372.67 378.095C373.599 379.023 374.063 380.336 374.063 382.033V383.252H365.315C365.315 383.934 365.424 384.507 365.642 384.971C365.859 385.435 366.142 385.812 366.49 386.103C366.839 386.393 367.223 386.603 367.644 386.734C368.079 386.864 368.514 386.929 368.949 386.929C369.82 386.929 370.487 386.784 370.951 386.494C371.43 386.204 371.771 385.805 371.974 385.297H373.845C373.729 385.849 373.519 386.335 373.214 386.755C372.924 387.176 372.562 387.531 372.126 387.822C371.706 388.097 371.22 388.308 370.668 388.453C370.132 388.598 369.559 388.67 368.949 388.67ZM368.841 378.443C368.391 378.443 367.956 378.508 367.535 378.639C367.114 378.755 366.737 378.951 366.403 379.226C366.084 379.487 365.823 379.821 365.62 380.227C365.417 380.633 365.315 381.119 365.315 381.685H372.257C372.242 381.09 372.141 380.59 371.952 380.184C371.778 379.763 371.539 379.429 371.234 379.183C370.93 378.922 370.567 378.733 370.146 378.617C369.74 378.501 369.305 378.443 368.841 378.443ZM257.184 412.67C255.733 412.67 254.595 412.366 253.768 411.756C252.941 411.147 252.484 410.291 252.397 409.189H254.312C254.413 409.754 254.711 410.19 255.204 410.494C255.712 410.784 256.372 410.929 257.184 410.929C258.185 410.929 258.91 410.763 259.36 410.429C259.824 410.081 260.056 409.667 260.056 409.189C260.056 408.623 259.868 408.18 259.491 407.861C259.113 407.528 258.461 407.361 257.532 407.361H255.552V405.794H257.402C258.199 405.794 258.765 405.642 259.099 405.337C259.447 405.032 259.621 404.604 259.621 404.053C259.621 403.618 259.418 403.241 259.012 402.922C258.606 402.602 257.996 402.443 257.184 402.443C256.299 402.443 255.654 402.588 255.247 402.878C254.856 403.154 254.616 403.553 254.529 404.075H252.614C252.658 403.596 252.788 403.154 253.006 402.748C253.238 402.327 253.55 401.964 253.942 401.66C254.333 401.355 254.798 401.123 255.334 400.963C255.886 400.789 256.502 400.702 257.184 400.702C257.924 400.702 258.562 400.789 259.099 400.963C259.65 401.123 260.107 401.355 260.47 401.66C260.832 401.95 261.101 402.298 261.275 402.704C261.449 403.11 261.536 403.56 261.536 404.053C261.536 404.604 261.398 405.09 261.123 405.511C260.847 405.917 260.405 406.236 259.795 406.469C260.608 406.686 261.173 407.034 261.493 407.513C261.812 407.992 261.971 408.55 261.971 409.189C261.971 409.667 261.87 410.117 261.667 410.538C261.464 410.958 261.159 411.328 260.753 411.648C260.361 411.952 259.861 412.199 259.251 412.387C258.656 412.576 257.967 412.67 257.184 412.67ZM264.7 400.92H266.615V405.729H272.577V400.92H274.492V412.453H272.577V407.426H266.615V412.453H264.7V400.92ZM281.267 412.67C280.629 412.67 280.063 412.583 279.57 412.409C279.091 412.221 278.685 411.967 278.351 411.648C278.018 411.328 277.764 410.951 277.59 410.516C277.416 410.081 277.328 409.602 277.328 409.08C277.328 407.934 277.662 407.107 278.329 406.599C279.011 406.091 279.983 405.837 281.245 405.837H284.988V405.054C284.988 404.068 284.763 403.386 284.314 403.009C283.878 402.631 283.218 402.443 282.333 402.443C281.506 402.443 280.904 402.602 280.527 402.922C280.15 403.226 279.94 403.574 279.896 403.966H277.981C278.01 403.502 278.134 403.074 278.351 402.682C278.583 402.276 278.888 401.928 279.265 401.638C279.657 401.348 280.121 401.123 280.658 400.963C281.195 400.789 281.789 400.702 282.442 400.702C283.806 400.702 284.887 401.028 285.684 401.681C286.497 402.32 286.903 403.371 286.903 404.837V409.515C286.903 410.124 286.903 410.661 286.903 411.125C286.918 411.575 286.954 412.017 287.012 412.453H285.336C285.293 412.119 285.264 411.807 285.249 411.517C285.235 411.212 285.227 410.871 285.227 410.494C284.923 411.103 284.43 411.618 283.748 412.039C283.066 412.46 282.239 412.67 281.267 412.67ZM281.681 410.929C282.13 410.929 282.551 410.871 282.943 410.755C283.349 410.625 283.704 410.443 284.009 410.211C284.314 409.965 284.553 409.667 284.727 409.319C284.901 408.971 284.988 408.565 284.988 408.101V407.317H281.572C280.861 407.317 280.302 407.462 279.896 407.752C279.49 408.028 279.287 408.47 279.287 409.08C279.287 409.617 279.475 410.059 279.853 410.407C280.244 410.755 280.854 410.929 281.681 410.929ZM296.966 407.861C296.632 408.064 296.226 408.246 295.747 408.405C295.283 408.565 294.695 408.645 293.984 408.645C293.317 408.645 292.715 408.572 292.178 408.427C291.656 408.282 291.214 408.05 290.851 407.731C290.488 407.411 290.213 406.998 290.024 406.49C289.836 405.983 289.741 405.359 289.741 404.619V400.92H291.656V404.293C291.656 404.786 291.7 405.199 291.787 405.533C291.888 405.867 292.048 406.135 292.265 406.338C292.483 406.541 292.759 406.686 293.092 406.773C293.426 406.86 293.832 406.904 294.311 406.904C294.964 406.904 295.522 406.838 295.986 406.708C296.451 406.577 296.777 406.44 296.966 406.294V400.92H298.881V412.453H296.966V407.861ZM307.143 412.67C306.403 412.67 305.699 412.554 305.032 412.322C304.365 412.09 303.777 411.735 303.269 411.256C302.762 410.763 302.355 410.146 302.051 409.406C301.746 408.666 301.594 407.796 301.594 406.795V406.36C301.594 405.402 301.739 404.575 302.029 403.879C302.319 403.168 302.704 402.581 303.182 402.116C303.676 401.638 304.241 401.282 304.88 401.05C305.532 400.818 306.214 400.702 306.925 400.702C308.622 400.702 309.935 401.166 310.864 402.095C311.792 403.023 312.256 404.336 312.256 406.033V407.252H303.509C303.509 407.934 303.618 408.507 303.835 408.971C304.053 409.435 304.336 409.812 304.684 410.103C305.032 410.393 305.416 410.603 305.837 410.734C306.272 410.864 306.707 410.929 307.143 410.929C308.013 410.929 308.68 410.784 309.145 410.494C309.623 410.204 309.964 409.805 310.167 409.297H312.039C311.923 409.849 311.712 410.335 311.408 410.755C311.118 411.176 310.755 411.531 310.32 411.822C309.899 412.097 309.413 412.308 308.862 412.453C308.325 412.598 307.752 412.67 307.143 412.67ZM307.034 402.443C306.584 402.443 306.149 402.508 305.728 402.639C305.308 402.755 304.93 402.951 304.597 403.226C304.278 403.487 304.016 403.821 303.813 404.227C303.61 404.633 303.509 405.119 303.509 405.685H310.45C310.436 405.09 310.334 404.59 310.146 404.184C309.972 403.763 309.732 403.429 309.428 403.183C309.123 402.922 308.76 402.733 308.34 402.617C307.933 402.501 307.498 402.443 307.034 402.443ZM314.978 400.92H316.893V405.729H322.855V400.92H324.77V412.453H322.855V407.426H316.893V412.453H314.978V400.92ZM328.26 400.92H330.174V409.624L336.137 400.92H338.052V412.453H336.137V403.748L330.174 412.453H328.26V400.92ZM346.328 412.67C345.588 412.67 344.885 412.554 344.218 412.322C343.55 412.09 342.963 411.735 342.455 411.256C341.947 410.763 341.541 410.146 341.236 409.406C340.932 408.666 340.779 407.796 340.779 406.795V406.36C340.779 405.402 340.925 404.575 341.215 403.879C341.505 403.168 341.889 402.581 342.368 402.116C342.861 401.638 343.427 401.282 344.065 401.05C344.718 400.818 345.4 400.702 346.111 400.702C347.808 400.702 349.121 401.166 350.049 402.095C350.978 403.023 351.442 404.336 351.442 406.033V407.252H342.694C342.694 407.934 342.803 408.507 343.021 408.971C343.238 409.435 343.521 409.812 343.869 410.103C344.218 410.393 344.602 410.603 345.023 410.734C345.458 410.864 345.893 410.929 346.328 410.929C347.199 410.929 347.866 410.784 348.33 410.494C348.809 410.204 349.15 409.805 349.353 409.297H351.224C351.108 409.849 350.898 410.335 350.593 410.755C350.303 411.176 349.941 411.531 349.505 411.822C349.085 412.097 348.599 412.308 348.047 412.453C347.511 412.598 346.938 412.67 346.328 412.67ZM346.22 402.443C345.77 402.443 345.335 402.508 344.914 402.639C344.493 402.755 344.116 402.951 343.782 403.226C343.463 403.487 343.202 403.821 342.999 404.227C342.796 404.633 342.694 405.119 342.694 405.685H349.636C349.621 405.09 349.52 404.59 349.331 404.184C349.157 403.763 348.918 403.429 348.613 403.183C348.309 402.922 347.946 402.733 347.525 402.617C347.119 402.501 346.684 402.443 346.22 402.443Z" fill="black"/>
<path d="M566.189 107.761H570.492V115.735H579.097V107.761H583.399V127.839H579.097V119.292H570.492V127.839H566.189V107.761ZM594.293 128.184C593.26 128.184 592.275 128.031 591.338 127.725C590.42 127.4 589.617 126.921 588.929 126.29C588.24 125.64 587.695 124.828 587.294 123.852C586.892 122.858 586.691 121.701 586.691 120.382V119.808C586.691 118.546 586.883 117.446 587.265 116.509C587.647 115.572 588.173 114.798 588.843 114.186C589.512 113.555 590.286 113.086 591.166 112.78C592.046 112.455 592.992 112.293 594.006 112.293C596.396 112.293 598.213 112.924 599.456 114.186C600.699 115.448 601.32 117.274 601.32 119.665V121.271H590.564C590.583 121.94 590.697 122.523 590.908 123.02C591.118 123.499 591.395 123.891 591.74 124.197C592.084 124.502 592.476 124.732 592.916 124.885C593.375 125.019 593.834 125.086 594.293 125.086C595.268 125.086 596.004 124.942 596.501 124.655C596.998 124.369 597.352 123.948 597.562 123.393H601.033C600.727 124.981 599.972 126.176 598.767 126.979C597.562 127.782 596.071 128.184 594.293 128.184ZM594.149 115.391C593.709 115.391 593.269 115.448 592.83 115.563C592.409 115.677 592.036 115.859 591.711 116.108C591.386 116.356 591.118 116.691 590.908 117.112C590.697 117.532 590.583 118.039 590.564 118.632H597.649C597.629 118.001 597.524 117.475 597.333 117.054C597.161 116.634 596.912 116.299 596.587 116.05C596.281 115.802 595.918 115.63 595.497 115.534C595.077 115.438 594.627 115.391 594.149 115.391ZM607.467 115.792H602.62V112.637H616.101V115.792H611.254V127.839H607.467V115.792Z" fill="black"/>
<path d="M951.363 124.283H953.6C953.887 123.613 954.126 122.81 954.317 121.873C954.508 120.917 954.661 119.913 954.776 118.861C954.891 117.791 954.977 116.701 955.034 115.591C955.092 114.463 955.12 113.383 955.12 112.35V107.761H969.261V124.283H971.441V131.568H967.598V127.839H955.206V131.568H951.363V124.283ZM964.959 124.283V111.318H959.193V112.924C959.193 115.544 959.069 117.752 958.82 119.55C958.572 121.347 958.218 122.925 957.759 124.283H964.959ZM978.584 128.184C977.761 128.184 977.035 128.069 976.404 127.839C975.773 127.591 975.237 127.256 974.797 126.835C974.357 126.396 974.023 125.889 973.793 125.315C973.564 124.722 973.449 124.082 973.449 123.393C973.449 120.334 975.266 118.804 978.899 118.804H983.431V118.087C983.431 117.093 983.202 116.395 982.743 115.993C982.303 115.591 981.595 115.391 980.62 115.391C979.76 115.391 979.138 115.544 978.756 115.85C978.373 116.136 978.153 116.5 978.096 116.94H974.31C974.348 116.289 974.51 115.677 974.797 115.104C975.103 114.53 975.524 114.043 976.059 113.641C976.614 113.22 977.283 112.895 978.067 112.666C978.851 112.417 979.75 112.293 980.764 112.293C981.739 112.293 982.618 112.398 983.402 112.608C984.206 112.819 984.884 113.163 985.439 113.641C986.013 114.1 986.452 114.702 986.758 115.448C987.064 116.194 987.217 117.093 987.217 118.144V123.967C987.217 124.77 987.227 125.478 987.246 126.09C987.284 126.682 987.342 127.266 987.418 127.839H983.89C983.814 127.419 983.766 127.103 983.747 126.893C983.747 126.663 983.747 126.329 983.747 125.889C983.326 126.501 982.685 127.036 981.825 127.495C980.983 127.954 979.903 128.184 978.584 128.184ZM979.76 125.258C980.219 125.258 980.668 125.2 981.108 125.086C981.548 124.952 981.94 124.761 982.284 124.512C982.628 124.244 982.905 123.91 983.116 123.508C983.326 123.107 983.431 122.638 983.431 122.103V121.386H979.616C978.89 121.386 978.316 121.558 977.895 121.902C977.494 122.227 977.293 122.676 977.293 123.25C977.293 123.862 977.503 124.35 977.924 124.713C978.345 125.076 978.956 125.258 979.76 125.258Z" fill="black"/>
<path d="M720.618 146.891H724.117V149.129C724.48 148.44 725.064 147.838 725.867 147.322C726.689 146.805 727.789 146.547 729.165 146.547C731.02 146.547 732.397 147.044 733.296 148.039C734.214 149.033 734.673 150.467 734.673 152.341V162.094H730.887V153.202C730.887 152.054 730.647 151.194 730.169 150.62C729.71 150.047 728.917 149.76 727.789 149.76C727.177 149.76 726.66 149.855 726.24 150.047C725.819 150.238 725.465 150.496 725.178 150.821C724.911 151.127 724.71 151.49 724.576 151.911C724.461 152.313 724.404 152.743 724.404 153.202V162.094H720.618V146.891ZM758.637 150.19V153.345L744.582 159.512V155.41L753.617 151.825L744.582 148.24V144.023L758.637 150.19ZM760.941 153.431H774.996V156.988H760.941V153.431ZM760.941 146.547H774.996V150.104H760.941V146.547ZM784.614 158.537H789.203V146.375L784.614 149.645V145.457L789.461 142.015H793.506V158.537H797.235V162.094H784.614V158.537ZM807.127 162.438C805.865 162.438 804.746 162.256 803.771 161.893C802.796 161.53 801.974 160.966 801.304 160.201C800.635 159.417 800.119 158.422 799.755 157.218C799.411 156.013 799.239 154.579 799.239 152.915V152.341C799.239 150.429 799.44 148.804 799.841 147.465C800.243 146.107 800.807 144.998 801.534 144.138C802.26 143.277 803.121 142.656 804.115 142.273C805.129 141.872 806.228 141.671 807.414 141.671C809.269 141.671 810.77 142.063 811.917 142.847C813.065 143.631 813.763 144.931 814.011 146.748H809.995C809.613 145.773 808.705 145.285 807.27 145.285C806.716 145.285 806.2 145.371 805.722 145.543C805.263 145.696 804.851 145.993 804.488 146.432C804.144 146.853 803.867 147.436 803.656 148.182C803.446 148.928 803.312 149.884 803.255 151.051C803.503 150.668 803.809 150.353 804.173 150.104C804.536 149.836 804.928 149.626 805.349 149.473C805.788 149.301 806.238 149.177 806.697 149.1C807.175 149.024 807.653 148.985 808.131 148.985C810.158 148.985 811.716 149.54 812.806 150.649C813.896 151.739 814.441 153.288 814.441 155.296V155.611C814.441 156.625 814.26 157.552 813.896 158.394C813.533 159.235 813.026 159.962 812.376 160.574C811.745 161.166 810.98 161.625 810.081 161.95C809.183 162.275 808.198 162.438 807.127 162.438ZM806.84 158.824C807.873 158.824 808.676 158.537 809.25 157.963C809.842 157.371 810.139 156.615 810.139 155.697V155.41C810.139 154.493 809.842 153.747 809.25 153.173C808.676 152.599 807.873 152.313 806.84 152.313C805.808 152.313 804.995 152.599 804.402 153.173C803.828 153.747 803.542 154.493 803.542 155.41V155.697C803.542 156.615 803.828 157.371 804.402 157.963C804.995 158.537 805.808 158.824 806.84 158.824Z" fill="black"/>
<rect x="69.2305" y="684.367" width="214.727" height="59.3633" fill="#F3F3F3"/>
<path d="M96.1674 720.992H98.4048C98.6916 720.323 98.9306 719.52 99.1218 718.583C99.3131 717.626 99.466 716.623 99.5808 715.571C99.6955 714.5 99.7816 713.41 99.8389 712.301C99.8963 711.173 99.925 710.092 99.925 709.06V704.47H114.066V720.992H116.246V728.278H112.402V724.549H100.011V728.278H96.1674V720.992ZM109.763 720.992V708.027H103.998V709.633C103.998 712.253 103.874 714.462 103.625 716.259C103.377 718.057 103.023 719.634 102.564 720.992H109.763ZM125.572 724.893C124.539 724.893 123.554 724.74 122.617 724.434C121.699 724.109 120.896 723.621 120.208 722.971C119.519 722.321 118.974 721.508 118.573 720.533C118.171 719.558 117.97 718.411 117.97 717.091V716.517C117.97 715.274 118.171 714.184 118.573 713.247C118.974 712.31 119.519 711.526 120.208 710.895C120.896 710.264 121.699 709.796 122.617 709.49C123.554 709.165 124.539 709.002 125.572 709.002C126.604 709.002 127.579 709.165 128.497 709.49C129.415 709.796 130.218 710.264 130.907 710.895C131.614 711.526 132.169 712.31 132.57 713.247C132.972 714.184 133.173 715.274 133.173 716.517V717.091C133.173 718.391 132.972 719.529 132.57 720.504C132.169 721.48 131.614 722.292 130.907 722.943C130.218 723.593 129.415 724.08 128.497 724.405C127.579 724.73 126.604 724.893 125.572 724.893ZM125.572 721.68C126.642 721.68 127.532 721.298 128.239 720.533C128.966 719.768 129.329 718.621 129.329 717.091V716.517C129.329 715.121 128.966 714.06 128.239 713.334C127.532 712.588 126.642 712.215 125.572 712.215C124.482 712.215 123.583 712.588 122.875 713.334C122.168 714.06 121.814 715.121 121.814 716.517V717.091C121.814 718.64 122.168 719.797 122.875 720.562C123.583 721.308 124.482 721.68 125.572 721.68ZM142.771 724.893C141.7 724.893 140.705 724.711 139.787 724.348C138.889 723.985 138.105 723.44 137.435 722.713C136.766 721.967 136.24 721.059 135.858 719.988C135.494 718.898 135.313 717.636 135.313 716.202V715.542C135.313 713.821 135.437 712.291 135.686 710.953C135.953 709.614 136.384 708.476 136.976 707.539C137.588 706.602 138.392 705.876 139.386 705.359C140.399 704.824 141.661 704.518 143.172 704.442C143.765 704.422 144.348 704.403 144.922 704.384C145.496 704.365 146.041 704.336 146.557 704.298C147.073 704.26 147.542 704.203 147.962 704.126C148.383 704.03 148.756 703.906 149.081 703.753V707.109C148.775 707.281 148.201 707.425 147.36 707.539C146.538 707.654 145.285 707.721 143.602 707.74C142.742 707.759 141.996 707.864 141.365 708.056C140.753 708.228 140.237 708.515 139.816 708.916C139.415 709.299 139.089 709.805 138.841 710.436C138.611 711.067 138.449 711.842 138.353 712.76C138.793 711.899 139.453 711.201 140.332 710.666C141.212 710.13 142.359 709.863 143.775 709.863C144.731 709.863 145.601 710.016 146.385 710.322C147.169 710.609 147.848 711.039 148.421 711.612C148.995 712.186 149.435 712.894 149.741 713.735C150.066 714.576 150.228 715.552 150.228 716.661V717.206C150.228 718.411 150.037 719.491 149.655 720.447C149.291 721.403 148.775 722.216 148.106 722.885C147.436 723.535 146.643 724.033 145.725 724.377C144.826 724.721 143.841 724.893 142.771 724.893ZM142.771 721.68C143.918 721.68 144.807 721.308 145.438 720.562C146.069 719.797 146.385 718.716 146.385 717.321V716.747C146.385 715.542 146.06 714.596 145.409 713.907C144.759 713.219 143.88 712.875 142.771 712.875C141.681 712.875 140.801 713.219 140.132 713.907C139.482 714.596 139.156 715.542 139.156 716.747V717.263C139.156 717.952 139.242 718.573 139.415 719.128C139.606 719.682 139.864 720.151 140.189 720.533C140.514 720.896 140.897 721.183 141.336 721.394C141.776 721.585 142.254 721.68 142.771 721.68ZM157.506 724.893C156.684 724.893 155.957 724.778 155.326 724.549C154.695 724.3 154.16 723.966 153.72 723.545C153.28 723.105 152.945 722.598 152.716 722.025C152.487 721.432 152.372 720.791 152.372 720.103C152.372 717.043 154.188 715.513 157.822 715.513H162.354V714.796C162.354 713.802 162.124 713.104 161.665 712.702C161.225 712.301 160.518 712.1 159.543 712.1C158.682 712.1 158.061 712.253 157.678 712.559C157.296 712.846 157.076 713.209 157.019 713.649H153.232C153.271 712.999 153.433 712.387 153.72 711.813C154.026 711.24 154.447 710.752 154.982 710.35C155.537 709.93 156.206 709.605 156.99 709.375C157.774 709.127 158.673 709.002 159.686 709.002C160.661 709.002 161.541 709.107 162.325 709.318C163.128 709.528 163.807 709.872 164.362 710.35C164.935 710.809 165.375 711.412 165.681 712.157C165.987 712.903 166.14 713.802 166.14 714.854V720.677C166.14 721.48 166.149 722.187 166.169 722.799C166.207 723.392 166.264 723.975 166.341 724.549H162.813C162.736 724.128 162.688 723.813 162.669 723.602C162.669 723.373 162.669 723.038 162.669 722.598C162.249 723.21 161.608 723.746 160.747 724.205C159.906 724.664 158.826 724.893 157.506 724.893ZM158.682 721.967C159.141 721.967 159.59 721.91 160.03 721.795C160.47 721.661 160.862 721.47 161.206 721.222C161.551 720.954 161.828 720.619 162.038 720.218C162.249 719.816 162.354 719.348 162.354 718.812V718.095H158.539C157.812 718.095 157.238 718.267 156.818 718.611C156.416 718.936 156.215 719.386 156.215 719.959C156.215 720.571 156.426 721.059 156.846 721.422C157.267 721.786 157.879 721.967 158.682 721.967ZM169.444 709.346H177.074C178.049 709.346 178.881 709.452 179.57 709.662C180.277 709.853 180.86 710.13 181.319 710.494C181.778 710.857 182.113 711.287 182.323 711.785C182.533 712.282 182.639 712.827 182.639 713.42C182.639 714.127 182.419 714.796 181.979 715.427C181.558 716.039 180.975 716.45 180.229 716.661C181.166 716.89 181.893 717.33 182.409 717.98C182.945 718.611 183.212 719.357 183.212 720.218C183.212 721.537 182.753 722.589 181.836 723.373C180.918 724.157 179.522 724.549 177.648 724.549H169.444V709.346ZM176.902 721.508C177.762 721.508 178.393 721.384 178.795 721.135C179.216 720.868 179.426 720.447 179.426 719.873C179.426 719.3 179.225 718.889 178.824 718.64C178.441 718.372 177.801 718.238 176.902 718.238H173.23V721.508H176.902ZM176.529 715.427C177.409 715.427 178.011 715.303 178.336 715.055C178.68 714.806 178.852 714.423 178.852 713.907C178.852 713.41 178.68 713.037 178.336 712.789C177.992 712.521 177.39 712.387 176.529 712.387H173.23V715.427H176.529ZM185.943 709.346H189.729V719.099L196.498 709.346H199.998V724.549H196.212V714.796L189.442 724.549H185.943V709.346ZM207.15 712.502H202.303V709.346H215.784V712.502H210.936V724.549H207.15V712.502ZM218.072 709.346H221.858V714.452H225.099C229.02 714.452 230.98 716.135 230.98 719.5C230.98 720.246 230.865 720.935 230.635 721.566C230.425 722.178 230.081 722.704 229.603 723.143C229.125 723.583 228.513 723.927 227.767 724.176C227.021 724.425 226.132 724.549 225.099 724.549H218.072V709.346ZM224.669 721.508C225.587 721.508 226.237 721.346 226.62 721.021C227.002 720.677 227.193 720.17 227.193 719.5C227.193 718.831 226.993 718.334 226.591 718.009C226.209 717.665 225.568 717.493 224.669 717.493H221.858V721.508H224.669ZM248.051 724.893C246.961 724.893 245.938 724.721 244.982 724.377C244.045 724.013 243.232 723.43 242.544 722.627C241.855 721.805 241.31 720.734 240.909 719.414C240.507 718.076 240.306 716.441 240.306 714.51V713.936C240.306 712.138 240.507 710.618 240.909 709.375C241.31 708.132 241.855 707.128 242.544 706.363C243.232 705.579 244.045 705.015 244.982 704.671C245.938 704.308 246.961 704.126 248.051 704.126C249.141 704.126 250.154 704.308 251.091 704.671C252.048 705.015 252.87 705.579 253.558 706.363C254.247 707.128 254.792 708.132 255.193 709.375C255.595 710.618 255.796 712.138 255.796 713.936V714.51C255.796 716.441 255.595 718.076 255.193 719.414C254.792 720.734 254.247 721.805 253.558 722.627C252.87 723.43 252.048 724.013 251.091 724.377C250.154 724.721 249.141 724.893 248.051 724.893ZM248.051 721.279C248.529 721.279 248.978 721.183 249.399 720.992C249.82 720.801 250.183 720.457 250.489 719.959C250.814 719.443 251.063 718.745 251.235 717.866C251.407 716.986 251.493 715.867 251.493 714.51V713.936C251.493 712.712 251.407 711.708 251.235 710.924C251.063 710.121 250.814 709.49 250.489 709.031C250.183 708.553 249.82 708.218 249.399 708.027C248.978 707.836 248.529 707.74 248.051 707.74C247.554 707.74 247.095 707.836 246.674 708.027C246.273 708.218 245.909 708.553 245.584 709.031C245.278 709.49 245.039 710.121 244.867 710.924C244.695 711.708 244.609 712.712 244.609 713.936V714.51C244.609 715.867 244.695 716.986 244.867 717.866C245.039 718.745 245.278 719.443 245.584 719.959C245.909 720.457 246.273 720.801 246.674 720.992C247.095 721.183 247.554 721.279 248.051 721.279Z" fill="black"/>
<rect x="69.2305" y="684.367" width="214.727" height="59.3633" stroke="#DADADA" stroke-width="2"/>
<rect x="407.547" y="333.749" width="833.223" height="111.155" stroke="#EAC053" stroke-width="6"/>
</svg>
