<svg width="1201" height="772" viewBox="0 0 1201 772" fill="none" xmlns="http://www.w3.org/2000/svg">
<rect x="273.586" y="443.176" width="104.135" height="109.408" fill="#D0643B"/>
<path d="M319.704 504.822H324.294V492.66L319.704 495.93V491.742L324.552 488.3H328.596V504.822H332.325V508.379H319.704V504.822Z" fill="white"/>
<rect x="273.586" y="443.176" width="104.135" height="109.408" stroke="#D0643B" stroke-width="1.31816"/>
<rect x="377.721" y="443.176" width="104.135" height="109.408" fill="#F7F7F7"/>
<path d="M429.794 508.723C428.704 508.723 427.681 508.551 426.725 508.207C425.788 507.843 424.975 507.26 424.287 506.457C423.598 505.635 423.053 504.564 422.652 503.245C422.25 501.906 422.05 500.271 422.05 498.34V497.766C422.05 495.968 422.25 494.448 422.652 493.205C423.053 491.962 423.598 490.958 424.287 490.193C424.975 489.409 425.788 488.845 426.725 488.501C427.681 488.138 428.704 487.956 429.794 487.956C430.884 487.956 431.898 488.138 432.835 488.501C433.791 488.845 434.613 489.409 435.301 490.193C435.99 490.958 436.535 491.962 436.936 493.205C437.338 494.448 437.539 495.968 437.539 497.766V498.34C437.539 500.271 437.338 501.906 436.936 503.245C436.535 504.564 435.99 505.635 435.301 506.457C434.613 507.26 433.791 507.843 432.835 508.207C431.898 508.551 430.884 508.723 429.794 508.723ZM429.794 505.109C430.272 505.109 430.722 505.013 431.142 504.822C431.563 504.631 431.926 504.287 432.232 503.79C432.557 503.273 432.806 502.575 432.978 501.696C433.15 500.816 433.236 499.697 433.236 498.34V497.766C433.236 496.542 433.15 495.538 432.978 494.754C432.806 493.951 432.557 493.32 432.232 492.861C431.926 492.383 431.563 492.048 431.142 491.857C430.722 491.666 430.272 491.57 429.794 491.57C429.297 491.57 428.838 491.666 428.417 491.857C428.016 492.048 427.652 492.383 427.327 492.861C427.021 493.32 426.782 493.951 426.61 494.754C426.438 495.538 426.352 496.542 426.352 497.766V498.34C426.352 499.697 426.438 500.816 426.61 501.696C426.782 502.575 427.021 503.273 427.327 503.79C427.652 504.287 428.016 504.631 428.417 504.822C428.838 505.013 429.297 505.109 429.794 505.109Z" fill="black"/>
<rect x="377.721" y="443.176" width="104.135" height="109.408" stroke="#DADADA" stroke-width="2"/>
<rect x="481.855" y="443.176" width="104.135" height="109.408" fill="#D0643B"/>
<path d="M527.974 504.822H532.563V492.66L527.974 495.93V491.742L532.821 488.3H536.866V504.822H540.594V508.379H527.974V504.822Z" fill="white"/>
<rect x="481.855" y="443.176" width="104.135" height="109.408" stroke="#D0643B" stroke-width="1.31816"/>
<rect x="585.99" y="443.176" width="104.135" height="109.408" fill="#F7F7F7"/>
<path d="M638.064 508.723C636.974 508.723 635.951 508.551 634.994 508.207C634.057 507.843 633.245 507.26 632.556 506.457C631.868 505.635 631.323 504.564 630.921 503.245C630.52 501.906 630.319 500.271 630.319 498.34V497.766C630.319 495.968 630.52 494.448 630.921 493.205C631.323 491.962 631.868 490.958 632.556 490.193C633.245 489.409 634.057 488.845 634.994 488.501C635.951 488.138 636.974 487.956 638.064 487.956C639.154 487.956 640.167 488.138 641.104 488.501C642.06 488.845 642.882 489.409 643.571 490.193C644.259 490.958 644.804 491.962 645.206 493.205C645.607 494.448 645.808 495.968 645.808 497.766V498.34C645.808 500.271 645.607 501.906 645.206 503.245C644.804 504.564 644.259 505.635 643.571 506.457C642.882 507.26 642.06 507.843 641.104 508.207C640.167 508.551 639.154 508.723 638.064 508.723ZM638.064 505.109C638.542 505.109 638.991 505.013 639.412 504.822C639.832 504.631 640.196 504.287 640.502 503.79C640.827 503.273 641.075 502.575 641.248 501.696C641.42 500.816 641.506 499.697 641.506 498.34V497.766C641.506 496.542 641.42 495.538 641.248 494.754C641.075 493.951 640.827 493.32 640.502 492.861C640.196 492.383 639.832 492.048 639.412 491.857C638.991 491.666 638.542 491.57 638.064 491.57C637.566 491.57 637.108 491.666 636.687 491.857C636.285 492.048 635.922 492.383 635.597 492.861C635.291 493.32 635.052 493.951 634.88 494.754C634.708 495.538 634.622 496.542 634.622 497.766V498.34C634.622 499.697 634.708 500.816 634.88 501.696C635.052 502.575 635.291 503.273 635.597 503.79C635.922 504.287 636.285 504.631 636.687 504.822C637.108 505.013 637.566 505.109 638.064 505.109Z" fill="black"/>
<rect x="585.99" y="443.176" width="104.135" height="109.408" stroke="#DADADA" stroke-width="2"/>
<rect x="690.125" y="443.176" width="104.135" height="109.408" fill="#D0643B"/>
<path d="M736.243 504.822H740.833V492.66L736.243 495.93V491.742L741.091 488.3H745.135V504.822H748.864V508.379H736.243V504.822Z" fill="white"/>
<rect x="690.125" y="443.176" width="104.135" height="109.408" stroke="#D0643B" stroke-width="1.31816"/>
<rect x="794.26" y="443.176" width="104.135" height="109.408" fill="#F7F7F7"/>
<path d="M846.333 508.723C845.243 508.723 844.22 508.551 843.264 508.207C842.327 507.843 841.514 507.26 840.826 506.457C840.137 505.635 839.593 504.564 839.191 503.245C838.789 501.906 838.589 500.271 838.589 498.34V497.766C838.589 495.968 838.789 494.448 839.191 493.205C839.593 491.962 840.137 490.958 840.826 490.193C841.514 489.409 842.327 488.845 843.264 488.501C844.22 488.138 845.243 487.956 846.333 487.956C847.423 487.956 848.437 488.138 849.374 488.501C850.33 488.845 851.152 489.409 851.84 490.193C852.529 490.958 853.074 491.962 853.475 493.205C853.877 494.448 854.078 495.968 854.078 497.766V498.34C854.078 500.271 853.877 501.906 853.475 503.245C853.074 504.564 852.529 505.635 851.84 506.457C851.152 507.26 850.33 507.843 849.374 508.207C848.437 508.551 847.423 508.723 846.333 508.723ZM846.333 505.109C846.811 505.109 847.261 505.013 847.681 504.822C848.102 504.631 848.465 504.287 848.771 503.79C849.096 503.273 849.345 502.575 849.517 501.696C849.689 500.816 849.775 499.697 849.775 498.34V497.766C849.775 496.542 849.689 495.538 849.517 494.754C849.345 493.951 849.096 493.32 848.771 492.861C848.465 492.383 848.102 492.048 847.681 491.857C847.261 491.666 846.811 491.57 846.333 491.57C845.836 491.57 845.377 491.666 844.956 491.857C844.555 492.048 844.191 492.383 843.866 492.861C843.56 493.32 843.321 493.951 843.149 494.754C842.977 495.538 842.891 496.542 842.891 497.766V498.34C842.891 499.697 842.977 500.816 843.149 501.696C843.321 502.575 843.56 503.273 843.866 503.79C844.191 504.287 844.555 504.631 844.956 504.822C845.377 505.013 845.836 505.109 846.333 505.109Z" fill="black"/>
<rect x="794.26" y="443.176" width="104.135" height="109.408" stroke="#DADADA" stroke-width="2"/>
<rect x="898.395" y="443.176" width="104.135" height="109.408" fill="#F7F7F7"/>
<path d="M950.468 508.723C949.378 508.723 948.355 508.551 947.399 508.207C946.462 507.843 945.649 507.26 944.961 506.457C944.272 505.635 943.727 504.564 943.326 503.245C942.924 501.906 942.723 500.271 942.723 498.34V497.766C942.723 495.968 942.924 494.448 943.326 493.205C943.727 491.962 944.272 490.958 944.961 490.193C945.649 489.409 946.462 488.845 947.399 488.501C948.355 488.138 949.378 487.956 950.468 487.956C951.558 487.956 952.571 488.138 953.508 488.501C954.465 488.845 955.287 489.409 955.975 490.193C956.664 490.958 957.209 491.962 957.61 493.205C958.012 494.448 958.213 495.968 958.213 497.766V498.34C958.213 500.271 958.012 501.906 957.61 503.245C957.209 504.564 956.664 505.635 955.975 506.457C955.287 507.26 954.465 507.843 953.508 508.207C952.571 508.551 951.558 508.723 950.468 508.723ZM950.468 505.109C950.946 505.109 951.395 505.013 951.816 504.822C952.237 504.631 952.6 504.287 952.906 503.79C953.231 503.273 953.48 502.575 953.652 501.696C953.824 500.816 953.91 499.697 953.91 498.34V497.766C953.91 496.542 953.824 495.538 953.652 494.754C953.48 493.951 953.231 493.32 952.906 492.861C952.6 492.383 952.237 492.048 951.816 491.857C951.395 491.666 950.946 491.57 950.468 491.57C949.971 491.57 949.512 491.666 949.091 491.857C948.69 492.048 948.326 492.383 948.001 492.861C947.695 493.32 947.456 493.951 947.284 494.754C947.112 495.538 947.026 496.542 947.026 497.766V498.34C947.026 499.697 947.112 500.816 947.284 501.696C947.456 502.575 947.695 503.273 948.001 503.79C948.326 504.287 948.69 504.631 949.091 504.822C949.512 505.013 949.971 505.109 950.468 505.109Z" fill="black"/>
<rect x="898.395" y="443.176" width="104.135" height="109.408" stroke="#DADADA" stroke-width="2"/>
<rect x="1002.53" y="443.176" width="104.135" height="109.408" fill="#F7F7F7"/>
<path d="M1054.6 508.723C1053.51 508.723 1052.49 508.551 1051.53 508.207C1050.6 507.843 1049.78 507.26 1049.1 506.457C1048.41 505.635 1047.86 504.564 1047.46 503.245C1047.06 501.906 1046.86 500.271 1046.86 498.34V497.766C1046.86 495.968 1047.06 494.448 1047.46 493.205C1047.86 491.962 1048.41 490.958 1049.1 490.193C1049.78 489.409 1050.6 488.845 1051.53 488.501C1052.49 488.138 1053.51 487.956 1054.6 487.956C1055.69 487.956 1056.71 488.138 1057.64 488.501C1058.6 488.845 1059.42 489.409 1060.11 490.193C1060.8 490.958 1061.34 491.962 1061.74 493.205C1062.15 494.448 1062.35 495.968 1062.35 497.766V498.34C1062.35 500.271 1062.15 501.906 1061.74 503.245C1061.34 504.564 1060.8 505.635 1060.11 506.457C1059.42 507.26 1058.6 507.843 1057.64 508.207C1056.71 508.551 1055.69 508.723 1054.6 508.723ZM1054.6 505.109C1055.08 505.109 1055.53 505.013 1055.95 504.822C1056.37 504.631 1056.73 504.287 1057.04 503.79C1057.37 503.273 1057.61 502.575 1057.79 501.696C1057.96 500.816 1058.04 499.697 1058.04 498.34V497.766C1058.04 496.542 1057.96 495.538 1057.79 494.754C1057.61 493.951 1057.37 493.32 1057.04 492.861C1056.73 492.383 1056.37 492.048 1055.95 491.857C1055.53 491.666 1055.08 491.57 1054.6 491.57C1054.11 491.57 1053.65 491.666 1053.23 491.857C1052.82 492.048 1052.46 492.383 1052.14 492.861C1051.83 493.32 1051.59 493.951 1051.42 494.754C1051.25 495.538 1051.16 496.542 1051.16 497.766V498.34C1051.16 499.697 1051.25 500.816 1051.42 501.696C1051.59 502.575 1051.83 503.273 1052.14 503.79C1052.46 504.287 1052.82 504.631 1053.23 504.822C1053.65 505.013 1054.11 505.109 1054.6 505.109Z" fill="black"/>
<rect x="1002.53" y="443.176" width="104.135" height="109.408" stroke="#DADADA" stroke-width="2"/>
<rect x="273.443" y="333.768" width="104.135" height="109.408" fill="#F7F7F7"/>
<path d="M301.802 395.414H306.392V383.252L301.802 386.522V382.334L306.65 378.892H310.694V395.414H314.423V398.971H301.802V395.414ZM315.854 395.844L322.882 389.792C323.532 389.218 324.086 388.721 324.545 388.3C325.004 387.861 325.377 387.459 325.664 387.096C325.951 386.732 326.152 386.379 326.266 386.034C326.4 385.69 326.467 385.317 326.467 384.916C326.467 384.093 326.238 383.434 325.779 382.937C325.32 382.42 324.641 382.162 323.742 382.162C322.71 382.162 321.897 382.449 321.304 383.023C320.73 383.577 320.444 384.543 320.444 385.92H316.141C316.141 383.644 316.782 381.847 318.063 380.527C319.363 379.208 321.256 378.548 323.742 378.548C324.909 378.548 325.922 378.71 326.783 379.036C327.662 379.341 328.398 379.781 328.991 380.355C329.584 380.91 330.024 381.579 330.311 382.363C330.617 383.147 330.77 383.998 330.77 384.916C330.77 385.604 330.645 386.264 330.397 386.895C330.148 387.507 329.804 388.1 329.364 388.673C328.943 389.247 328.446 389.811 327.873 390.366C327.299 390.901 326.687 391.436 326.037 391.972L321.906 395.414H331.056V398.971H315.854V395.844ZM341.228 399.315C340.023 399.315 338.933 399.181 337.958 398.913C337.002 398.626 336.189 398.234 335.52 397.737C334.87 397.221 334.363 396.609 334 395.902C333.655 395.175 333.483 394.372 333.483 393.492C333.483 392.364 333.828 391.36 334.516 390.48C335.204 389.582 336.227 388.951 337.585 388.587C336.572 388.262 335.73 387.698 335.061 386.895C334.392 386.092 334.057 385.136 334.057 384.027C334.057 383.223 334.21 382.487 334.516 381.818C334.841 381.149 335.31 380.575 335.922 380.097C336.533 379.6 337.279 379.217 338.159 378.949C339.058 378.682 340.081 378.548 341.228 378.548C342.375 378.548 343.389 378.682 344.268 378.949C345.167 379.217 345.923 379.6 346.534 380.097C347.166 380.575 347.634 381.149 347.94 381.818C348.265 382.487 348.428 383.223 348.428 384.027C348.428 385.136 348.093 386.082 347.424 386.866C346.754 387.631 345.903 388.205 344.871 388.587C347.605 389.429 348.973 391.064 348.973 393.492C348.973 394.372 348.791 395.175 348.428 395.902C348.083 396.609 347.577 397.221 346.907 397.737C346.257 398.234 345.454 398.626 344.498 398.913C343.542 399.181 342.452 399.315 341.228 399.315ZM341.228 395.701C342.414 395.701 343.284 395.471 343.838 395.012C344.393 394.553 344.67 393.932 344.67 393.148C344.67 392.287 344.345 391.609 343.695 391.111C343.064 390.595 342.241 390.26 341.228 390.107C340.214 390.26 339.383 390.595 338.733 391.111C338.101 391.609 337.786 392.287 337.786 393.148C337.786 393.932 338.073 394.553 338.646 395.012C339.22 395.471 340.081 395.701 341.228 395.701ZM341.228 387.182C342.088 387.029 342.786 386.732 343.322 386.293C343.857 385.834 344.125 385.203 344.125 384.399C344.125 383.654 343.867 383.099 343.351 382.736C342.853 382.353 342.146 382.162 341.228 382.162C340.329 382.162 339.622 382.353 339.105 382.736C338.608 383.099 338.36 383.654 338.36 384.399C338.36 385.203 338.618 385.834 339.134 386.293C339.67 386.732 340.367 387.029 341.228 387.182Z" fill="black"/>
<rect x="273.443" y="333.768" width="104.135" height="109.408" stroke="#DADADA" stroke-width="2"/>
<rect x="377.578" y="333.768" width="104.135" height="109.408" fill="#F7F7F7"/>
<path d="M420.969 399.315C419.707 399.315 418.588 399.133 417.613 398.77C416.637 398.407 415.815 397.842 415.146 397.078C414.477 396.294 413.96 395.299 413.597 394.094C413.253 392.89 413.081 391.456 413.081 389.792V389.218C413.081 387.306 413.281 385.681 413.683 384.342C414.085 382.984 414.649 381.875 415.375 381.015C416.102 380.154 416.963 379.533 417.957 379.15C418.97 378.749 420.07 378.548 421.256 378.548C423.11 378.548 424.612 378.94 425.759 379.724C426.906 380.508 427.604 381.808 427.853 383.625H423.837C423.455 382.65 422.546 382.162 421.112 382.162C420.558 382.162 420.041 382.248 419.563 382.42C419.104 382.573 418.693 382.87 418.33 383.309C417.986 383.73 417.708 384.313 417.498 385.059C417.288 385.805 417.154 386.761 417.096 387.927C417.345 387.545 417.651 387.23 418.014 386.981C418.378 386.713 418.77 386.503 419.19 386.35C419.63 386.178 420.079 386.053 420.538 385.977C421.016 385.901 421.495 385.862 421.973 385.862C424 385.862 425.558 386.417 426.648 387.526C427.738 388.616 428.283 390.165 428.283 392.173V392.488C428.283 393.502 428.101 394.429 427.738 395.271C427.375 396.112 426.868 396.839 426.218 397.45C425.587 398.043 424.822 398.502 423.923 398.827C423.024 399.152 422.04 399.315 420.969 399.315ZM420.682 395.701C421.714 395.701 422.518 395.414 423.091 394.84C423.684 394.247 423.98 393.492 423.98 392.574V392.287C423.98 391.37 423.684 390.624 423.091 390.05C422.518 389.476 421.714 389.19 420.682 389.19C419.649 389.19 418.837 389.476 418.244 390.05C417.67 390.624 417.383 391.37 417.383 392.287V392.574C417.383 393.492 417.67 394.247 418.244 394.84C418.837 395.414 419.649 395.701 420.682 395.701ZM439.613 394.726H430.147V391.742L439.613 378.892H443.916V391.169H446.21V394.726H443.916V398.971H439.613V394.726ZM439.613 391.169V383.682L434.163 391.169H439.613Z" fill="black"/>
<rect x="377.578" y="333.768" width="104.135" height="109.408" stroke="#DADADA" stroke-width="2"/>
<rect x="481.713" y="333.768" width="104.135" height="109.408" fill="#F7F7F7"/>
<path d="M524.743 399.315C522.295 399.315 520.44 398.741 519.178 397.594C517.916 396.427 517.285 394.831 517.285 392.804H521.588C521.588 393.779 521.836 394.506 522.334 394.984C522.85 395.462 523.653 395.701 524.743 395.701C525.795 395.701 526.579 395.471 527.095 395.012C527.63 394.534 527.898 393.865 527.898 393.004C527.898 391.207 526.846 390.308 524.743 390.308H522.878V386.981H524.743C525.661 386.981 526.368 386.79 526.866 386.407C527.363 386.025 527.611 385.432 527.611 384.629C527.611 383.902 527.372 383.309 526.894 382.85C526.416 382.392 525.699 382.162 524.743 382.162C523.768 382.162 523.041 382.392 522.563 382.85C522.104 383.29 521.875 383.931 521.875 384.772H517.572C517.572 382.803 518.165 381.273 519.35 380.183C520.555 379.093 522.353 378.548 524.743 378.548C525.948 378.548 526.999 378.691 527.898 378.978C528.797 379.246 529.543 379.628 530.135 380.126C530.728 380.604 531.168 381.177 531.455 381.847C531.761 382.516 531.914 383.242 531.914 384.027C531.914 385.136 531.598 386.082 530.967 386.866C530.355 387.631 529.533 388.176 528.501 388.501C529.686 388.826 530.594 389.39 531.225 390.193C531.876 390.997 532.201 392.058 532.201 393.377C532.201 394.238 532.029 395.031 531.684 395.758C531.34 396.485 530.843 397.116 530.193 397.651C529.562 398.168 528.778 398.579 527.841 398.885C526.923 399.171 525.89 399.315 524.743 399.315ZM534.509 395.844L541.536 389.792C542.187 389.218 542.741 388.721 543.2 388.3C543.659 387.861 544.032 387.459 544.319 387.096C544.605 386.732 544.806 386.379 544.921 386.034C545.055 385.69 545.122 385.317 545.122 384.916C545.122 384.093 544.892 383.434 544.433 382.937C543.974 382.42 543.296 382.162 542.397 382.162C541.364 382.162 540.552 382.449 539.959 383.023C539.385 383.577 539.098 384.543 539.098 385.92H534.796C534.796 383.644 535.436 381.847 536.717 380.527C538.018 379.208 539.911 378.548 542.397 378.548C543.563 378.548 544.577 378.71 545.437 379.036C546.317 379.341 547.053 379.781 547.646 380.355C548.239 380.91 548.679 381.579 548.965 382.363C549.271 383.147 549.424 383.998 549.424 384.916C549.424 385.604 549.3 386.264 549.051 386.895C548.803 387.507 548.459 388.1 548.019 388.673C547.598 389.247 547.101 389.811 546.527 390.366C545.954 390.901 545.342 391.436 544.692 391.972L540.561 395.414H549.711V398.971H534.509V395.844Z" fill="black"/>
<rect x="481.713" y="333.768" width="104.135" height="109.408" stroke="#DADADA" stroke-width="2"/>
<rect x="585.848" y="333.768" width="104.135" height="109.408" fill="#F7F7F7"/>
<path d="M622.707 395.414H627.296V383.252L622.707 386.522V382.334L627.554 378.892H631.599V395.414H635.328V398.971H622.707V395.414ZM645.22 399.315C643.958 399.315 642.839 399.133 641.864 398.77C640.889 398.407 640.067 397.842 639.397 397.078C638.728 396.294 638.212 395.299 637.848 394.094C637.504 392.89 637.332 391.456 637.332 389.792V389.218C637.332 387.306 637.533 385.681 637.934 384.342C638.336 382.984 638.9 381.875 639.627 381.015C640.353 380.154 641.214 379.533 642.208 379.15C643.222 378.749 644.321 378.548 645.507 378.548C647.362 378.548 648.863 378.94 650.01 379.724C651.158 380.508 651.856 381.808 652.104 383.625H648.088C647.706 382.65 646.798 382.162 645.364 382.162C644.809 382.162 644.293 382.248 643.815 382.42C643.356 382.573 642.945 382.87 642.581 383.309C642.237 383.73 641.96 384.313 641.749 385.059C641.539 385.805 641.405 386.761 641.348 387.927C641.596 387.545 641.902 387.23 642.266 386.981C642.629 386.713 643.021 386.503 643.442 386.35C643.882 386.178 644.331 386.053 644.79 385.977C645.268 385.901 645.746 385.862 646.224 385.862C648.251 385.862 649.81 386.417 650.899 387.526C651.989 388.616 652.534 390.165 652.534 392.173V392.488C652.534 393.502 652.353 394.429 651.989 395.271C651.626 396.112 651.119 396.839 650.469 397.45C649.838 398.043 649.073 398.502 648.175 398.827C647.276 399.152 646.291 399.315 645.22 399.315ZM644.933 395.701C645.966 395.701 646.769 395.414 647.343 394.84C647.936 394.247 648.232 393.492 648.232 392.574V392.287C648.232 391.37 647.936 390.624 647.343 390.05C646.769 389.476 645.966 389.19 644.933 389.19C643.901 389.19 643.088 389.476 642.495 390.05C641.921 390.624 641.635 391.37 641.635 392.287V392.574C641.635 393.492 641.921 394.247 642.495 394.84C643.088 395.414 643.901 395.701 644.933 395.701Z" fill="black"/>
<rect x="585.848" y="333.768" width="104.135" height="109.408" stroke="#DADADA" stroke-width="2"/>
<rect x="689.982" y="333.768" width="104.135" height="109.408" fill="#F7F7F7"/>
<path d="M741.586 399.315C740.381 399.315 739.291 399.181 738.316 398.913C737.36 398.626 736.547 398.234 735.878 397.737C735.228 397.221 734.721 396.609 734.358 395.902C734.014 395.175 733.842 394.372 733.842 393.492C733.842 392.364 734.186 391.36 734.874 390.48C735.563 389.582 736.586 388.951 737.943 388.587C736.93 388.262 736.088 387.698 735.419 386.895C734.75 386.092 734.415 385.136 734.415 384.027C734.415 383.223 734.568 382.487 734.874 381.818C735.199 381.149 735.668 380.575 736.28 380.097C736.892 379.6 737.637 379.217 738.517 378.949C739.416 378.682 740.439 378.548 741.586 378.548C742.733 378.548 743.747 378.682 744.627 378.949C745.525 379.217 746.281 379.6 746.893 380.097C747.524 380.575 747.992 381.149 748.298 381.818C748.623 382.487 748.786 383.223 748.786 384.027C748.786 385.136 748.451 386.082 747.782 386.866C747.113 387.631 746.262 388.205 745.229 388.587C747.963 389.429 749.331 391.064 749.331 393.492C749.331 394.372 749.149 395.175 748.786 395.902C748.442 396.609 747.935 397.221 747.266 397.737C746.615 398.234 745.812 398.626 744.856 398.913C743.9 399.181 742.81 399.315 741.586 399.315ZM741.586 395.701C742.772 395.701 743.642 395.471 744.196 395.012C744.751 394.553 745.028 393.932 745.028 393.148C745.028 392.287 744.703 391.609 744.053 391.111C743.422 390.595 742.6 390.26 741.586 390.107C740.573 390.26 739.741 390.595 739.091 391.111C738.46 391.609 738.144 392.287 738.144 393.148C738.144 393.932 738.431 394.553 739.005 395.012C739.578 395.471 740.439 395.701 741.586 395.701ZM741.586 387.182C742.447 387.029 743.145 386.732 743.68 386.293C744.215 385.834 744.483 385.203 744.483 384.399C744.483 383.654 744.225 383.099 743.709 382.736C743.212 382.353 742.504 382.162 741.586 382.162C740.687 382.162 739.98 382.353 739.464 382.736C738.966 383.099 738.718 383.654 738.718 384.399C738.718 385.203 738.976 385.834 739.492 386.293C740.028 386.732 740.726 387.029 741.586 387.182Z" fill="black"/>
<rect x="689.982" y="333.768" width="104.135" height="109.408" stroke="#DADADA" stroke-width="2"/>
<rect x="794.117" y="333.768" width="104.135" height="109.408" fill="#F7F7F7"/>
<path d="M846.725 394.726H837.259V391.742L846.725 378.892H851.027V391.169H853.322V394.726H851.027V398.971H846.725V394.726ZM846.725 391.169V383.682L841.275 391.169H846.725Z" fill="black"/>
<rect x="794.117" y="333.768" width="104.135" height="109.408" stroke="#DADADA" stroke-width="2"/>
<rect x="898.252" y="333.768" width="104.135" height="109.408" fill="#F7F7F7"/>
<path d="M942.181 395.844L949.208 389.792C949.858 389.218 950.413 388.721 950.872 388.3C951.331 387.861 951.704 387.459 951.991 387.096C952.277 386.732 952.478 386.379 952.593 386.034C952.727 385.69 952.794 385.317 952.794 384.916C952.794 384.093 952.564 383.434 952.105 382.937C951.646 382.42 950.968 382.162 950.069 382.162C949.036 382.162 948.224 382.449 947.631 383.023C947.057 383.577 946.77 384.543 946.77 385.92H942.468C942.468 383.644 943.108 381.847 944.389 380.527C945.69 379.208 947.583 378.548 950.069 378.548C951.235 378.548 952.249 378.71 953.109 379.036C953.989 379.341 954.725 379.781 955.318 380.355C955.911 380.91 956.351 381.579 956.637 382.363C956.943 383.147 957.096 383.998 957.096 384.916C957.096 385.604 956.972 386.264 956.723 386.895C956.475 387.507 956.131 388.1 955.691 388.673C955.27 389.247 954.773 389.811 954.199 390.366C953.626 390.901 953.014 391.436 952.364 391.972L948.233 395.414H957.383V398.971H942.181V395.844Z" fill="black"/>
<rect x="898.252" y="333.768" width="104.135" height="109.408" stroke="#DADADA" stroke-width="2"/>
<rect x="1002.39" y="333.768" width="104.135" height="109.408" fill="#F7F7F7"/>
<path d="M1048.25 395.414H1052.84V383.252L1048.25 386.522V382.334L1053.09 378.892H1057.14V395.414H1060.87V398.971H1048.25V395.414Z" fill="black"/>
<rect x="1002.39" y="333.768" width="104.135" height="109.408" stroke="#DADADA" stroke-width="2"/>
<path d="M96.9778 373.24H108.946V388.473H106.901V375.025H99.0233V388.473H96.9778V373.24ZM117.65 388.69C116.91 388.69 116.207 388.574 115.539 388.342C114.872 388.095 114.285 387.733 113.777 387.254C113.269 386.761 112.863 386.144 112.558 385.404C112.254 384.665 112.101 383.801 112.101 382.815V382.38C112.101 381.451 112.254 380.632 112.558 379.921C112.863 379.21 113.269 378.622 113.777 378.158C114.285 377.68 114.872 377.324 115.539 377.092C116.207 376.845 116.91 376.722 117.65 376.722C118.39 376.722 119.094 376.845 119.761 377.092C120.428 377.324 121.016 377.68 121.524 378.158C122.031 378.622 122.437 379.21 122.742 379.921C123.047 380.632 123.199 381.451 123.199 382.38V382.815C123.199 383.801 123.047 384.665 122.742 385.404C122.437 386.144 122.031 386.761 121.524 387.254C121.016 387.733 120.428 388.095 119.761 388.342C119.094 388.574 118.39 388.69 117.65 388.69ZM117.65 386.949C118.085 386.949 118.521 386.877 118.956 386.732C119.391 386.572 119.775 386.333 120.109 386.014C120.443 385.68 120.711 385.252 120.914 384.73C121.132 384.208 121.241 383.569 121.241 382.815V382.38C121.241 381.683 121.132 381.089 120.914 380.595C120.711 380.102 120.443 379.696 120.109 379.377C119.775 379.058 119.391 378.826 118.956 378.68C118.521 378.535 118.085 378.463 117.65 378.463C117.215 378.463 116.78 378.535 116.345 378.68C115.909 378.826 115.525 379.058 115.191 379.377C114.858 379.696 114.582 380.102 114.364 380.595C114.161 381.089 114.06 381.683 114.06 382.38V382.815C114.06 383.569 114.161 384.208 114.364 384.73C114.582 385.252 114.858 385.68 115.191 386.014C115.525 386.333 115.909 386.572 116.345 386.732C116.78 386.877 117.215 386.949 117.65 386.949ZM129.827 388.69C128.377 388.69 127.238 388.386 126.411 387.776C125.584 387.167 125.127 386.311 125.04 385.209H126.955C127.057 385.774 127.354 386.21 127.847 386.514C128.355 386.804 129.015 386.949 129.827 386.949C130.828 386.949 131.554 386.783 132.003 386.449C132.468 386.101 132.7 385.687 132.7 385.209C132.7 384.643 132.511 384.2 132.134 383.881C131.757 383.548 131.104 383.381 130.176 383.381H128.195V381.814H130.045C130.843 381.814 131.409 381.662 131.742 381.357C132.091 381.052 132.265 380.624 132.265 380.073C132.265 379.638 132.062 379.261 131.655 378.942C131.249 378.622 130.64 378.463 129.827 378.463C128.943 378.463 128.297 378.608 127.891 378.898C127.499 379.174 127.26 379.573 127.173 380.095H125.258C125.301 379.616 125.432 379.174 125.649 378.768C125.882 378.347 126.193 377.984 126.585 377.68C126.977 377.375 127.441 377.143 127.978 376.983C128.529 376.809 129.146 376.722 129.827 376.722C130.567 376.722 131.206 376.809 131.742 376.983C132.294 377.143 132.751 377.375 133.113 377.68C133.476 377.97 133.744 378.318 133.918 378.724C134.092 379.13 134.18 379.58 134.18 380.073C134.18 380.624 134.042 381.11 133.766 381.531C133.49 381.937 133.048 382.256 132.439 382.489C133.251 382.706 133.817 383.054 134.136 383.533C134.455 384.012 134.615 384.57 134.615 385.209C134.615 385.687 134.513 386.137 134.31 386.558C134.107 386.978 133.802 387.348 133.396 387.668C133.004 387.972 132.504 388.219 131.895 388.407C131.3 388.596 130.611 388.69 129.827 388.69ZM137.343 376.94H139.258V385.644L145.221 376.94H147.135V388.473H145.221V379.769L139.258 388.473H137.343V376.94ZM160.003 388.473H150.625V376.94H152.54V386.775H158.067V376.94H159.982V386.775H161.831V391.193H160.003V388.473ZM164.119 376.94H166.034V385.644L171.996 376.94H173.911V388.473H171.996V379.769L166.034 388.473H164.119V376.94ZM182.187 388.69C181.448 388.69 180.744 388.574 180.077 388.342C179.409 388.095 178.822 387.733 178.314 387.254C177.806 386.761 177.4 386.144 177.096 385.404C176.791 384.665 176.639 383.801 176.639 382.815V382.38C176.639 381.451 176.791 380.632 177.096 379.921C177.4 379.21 177.806 378.622 178.314 378.158C178.822 377.68 179.409 377.324 180.077 377.092C180.744 376.845 181.448 376.722 182.187 376.722C182.927 376.722 183.631 376.845 184.298 377.092C184.966 377.324 185.553 377.68 186.061 378.158C186.569 378.622 186.975 379.21 187.279 379.921C187.584 380.632 187.736 381.451 187.736 382.38V382.815C187.736 383.801 187.584 384.665 187.279 385.404C186.975 386.144 186.569 386.761 186.061 387.254C185.553 387.733 184.966 388.095 184.298 388.342C183.631 388.574 182.927 388.69 182.187 388.69ZM182.187 386.949C182.623 386.949 183.058 386.877 183.493 386.732C183.928 386.572 184.313 386.333 184.646 386.014C184.98 385.68 185.248 385.252 185.452 384.73C185.669 384.208 185.778 383.569 185.778 382.815V382.38C185.778 381.683 185.669 381.089 185.452 380.595C185.248 380.102 184.98 379.696 184.646 379.377C184.313 379.058 183.928 378.826 183.493 378.68C183.058 378.535 182.623 378.463 182.187 378.463C181.752 378.463 181.317 378.535 180.882 378.68C180.447 378.826 180.062 379.058 179.729 379.377C179.395 379.696 179.119 380.102 178.902 380.595C178.699 381.089 178.597 381.683 178.597 382.38V382.815C178.597 383.569 178.699 384.208 178.902 384.73C179.119 385.252 179.395 385.68 179.729 386.014C180.062 386.333 180.447 386.572 180.882 386.732C181.317 386.877 181.752 386.949 182.187 386.949ZM190.448 376.94H192.363V381.749H198.325V376.94H200.24V388.473H198.325V383.446H192.363V388.473H190.448V376.94ZM203.729 376.94H205.644V381.749H211.607V376.94H213.522V388.473H211.607V383.446H205.644V388.473H203.729V376.94ZM221.798 388.69C221.058 388.69 220.355 388.574 219.687 388.342C219.02 388.095 218.432 387.733 217.925 387.254C217.417 386.761 217.011 386.144 216.706 385.404C216.402 384.665 216.249 383.801 216.249 382.815V382.38C216.249 381.451 216.402 380.632 216.706 379.921C217.011 379.21 217.417 378.622 217.925 378.158C218.432 377.68 219.02 377.324 219.687 377.092C220.355 376.845 221.058 376.722 221.798 376.722C222.538 376.722 223.242 376.845 223.909 377.092C224.576 377.324 225.164 377.68 225.671 378.158C226.179 378.622 226.585 379.21 226.89 379.921C227.195 380.632 227.347 381.451 227.347 382.38V382.815C227.347 383.801 227.195 384.665 226.89 385.404C226.585 386.144 226.179 386.761 225.671 387.254C225.164 387.733 224.576 388.095 223.909 388.342C223.242 388.574 222.538 388.69 221.798 388.69ZM221.798 386.949C222.233 386.949 222.669 386.877 223.104 386.732C223.539 386.572 223.923 386.333 224.257 386.014C224.591 385.68 224.859 385.252 225.062 384.73C225.28 384.208 225.389 383.569 225.389 382.815V382.38C225.389 381.683 225.28 381.089 225.062 380.595C224.859 380.102 224.591 379.696 224.257 379.377C223.923 379.058 223.539 378.826 223.104 378.68C222.669 378.535 222.233 378.463 221.798 378.463C221.363 378.463 220.928 378.535 220.492 378.68C220.057 378.826 219.673 379.058 219.339 379.377C219.006 379.696 218.73 380.102 218.512 380.595C218.309 381.089 218.208 381.683 218.208 382.38V382.815C218.208 383.569 218.309 384.208 218.512 384.73C218.73 385.252 219.006 385.68 219.339 386.014C219.673 386.333 220.057 386.572 220.492 386.732C220.928 386.877 221.363 386.949 221.798 386.949ZM234.846 388.69C234.106 388.69 233.402 388.574 232.735 388.342C232.068 388.11 231.48 387.755 230.972 387.276C230.465 386.783 230.059 386.166 229.754 385.426C229.449 384.686 229.297 383.816 229.297 382.815V382.38C229.297 381.422 229.442 380.595 229.732 379.899C230.022 379.188 230.407 378.601 230.885 378.136C231.379 377.658 231.944 377.302 232.583 377.07C233.236 376.838 233.917 376.722 234.628 376.722C236.325 376.722 237.638 377.186 238.567 378.115C239.495 379.043 239.959 380.356 239.959 382.053V383.272H231.212C231.212 383.954 231.321 384.527 231.538 384.991C231.756 385.455 232.039 385.832 232.387 386.123C232.735 386.413 233.119 386.623 233.54 386.754C233.975 386.884 234.411 386.949 234.846 386.949C235.716 386.949 236.384 386.804 236.848 386.514C237.326 386.224 237.667 385.825 237.87 385.317H239.742C239.626 385.869 239.415 386.355 239.111 386.775C238.821 387.196 238.458 387.551 238.023 387.842C237.602 388.117 237.116 388.328 236.565 388.473C236.028 388.618 235.455 388.69 234.846 388.69ZM234.737 378.463C234.287 378.463 233.852 378.528 233.431 378.659C233.011 378.775 232.633 378.971 232.3 379.246C231.981 379.507 231.72 379.841 231.516 380.247C231.313 380.653 231.212 381.139 231.212 381.705H238.153C238.139 381.11 238.037 380.61 237.849 380.204C237.675 379.783 237.435 379.449 237.131 379.203C236.826 378.942 236.463 378.753 236.043 378.637C235.636 378.521 235.201 378.463 234.737 378.463ZM123.08 412.69C121.63 412.69 120.491 412.386 119.664 411.776C118.837 411.167 118.38 410.311 118.293 409.209H120.208C120.31 409.774 120.607 410.21 121.1 410.514C121.608 410.804 122.268 410.949 123.08 410.949C124.081 410.949 124.807 410.783 125.257 410.449C125.721 410.101 125.953 409.687 125.953 409.209C125.953 408.643 125.764 408.2 125.387 407.881C125.01 407.548 124.357 407.381 123.429 407.381H121.448V405.814H123.298C124.096 405.814 124.662 405.662 124.995 405.357C125.344 405.052 125.518 404.624 125.518 404.073C125.518 403.638 125.315 403.261 124.908 402.942C124.502 402.622 123.893 402.463 123.08 402.463C122.196 402.463 121.55 402.608 121.144 402.898C120.752 403.174 120.513 403.573 120.426 404.095H118.511C118.554 403.616 118.685 403.174 118.902 402.768C119.135 402.347 119.446 401.984 119.838 401.68C120.23 401.375 120.694 401.143 121.231 400.983C121.782 400.809 122.399 400.722 123.08 400.722C123.82 400.722 124.459 400.809 124.995 400.983C125.547 401.143 126.004 401.375 126.366 401.68C126.729 401.97 126.997 402.318 127.171 402.724C127.346 403.13 127.433 403.58 127.433 404.073C127.433 404.624 127.295 405.11 127.019 405.531C126.743 405.937 126.301 406.256 125.692 406.489C126.504 406.706 127.07 407.054 127.389 407.533C127.708 408.012 127.868 408.57 127.868 409.209C127.868 409.687 127.766 410.137 127.563 410.558C127.36 410.978 127.055 411.348 126.649 411.668C126.257 411.972 125.757 412.219 125.148 412.407C124.553 412.596 123.864 412.69 123.08 412.69ZM130.596 400.94H132.511V405.749H138.474V400.94H140.388V412.473H138.474V407.446H132.511V412.473H130.596V400.94ZM147.164 412.69C146.525 412.69 145.96 412.603 145.466 412.429C144.988 412.241 144.581 411.987 144.248 411.668C143.914 411.348 143.66 410.971 143.486 410.536C143.312 410.101 143.225 409.622 143.225 409.1C143.225 407.954 143.559 407.127 144.226 406.619C144.908 406.111 145.88 405.858 147.142 405.858H150.885V405.074C150.885 404.088 150.66 403.406 150.21 403.029C149.775 402.651 149.115 402.463 148.23 402.463C147.403 402.463 146.801 402.622 146.424 402.942C146.047 403.246 145.836 403.594 145.793 403.986H143.878C143.907 403.522 144.03 403.094 144.248 402.702C144.48 402.296 144.784 401.948 145.162 401.658C145.553 401.368 146.018 401.143 146.554 400.983C147.091 400.809 147.686 400.722 148.339 400.722C149.702 400.722 150.783 401.048 151.581 401.701C152.393 402.34 152.8 403.391 152.8 404.857V409.535C152.8 410.144 152.8 410.681 152.8 411.145C152.814 411.595 152.85 412.037 152.908 412.473H151.233C151.189 412.139 151.16 411.827 151.146 411.537C151.131 411.232 151.124 410.891 151.124 410.514C150.819 411.124 150.326 411.639 149.644 412.059C148.962 412.48 148.136 412.69 147.164 412.69ZM147.577 410.949C148.027 410.949 148.447 410.891 148.839 410.775C149.245 410.645 149.601 410.463 149.905 410.231C150.21 409.985 150.449 409.687 150.623 409.339C150.798 408.991 150.885 408.585 150.885 408.121V407.337H147.468C146.757 407.337 146.199 407.482 145.793 407.772C145.386 408.048 145.183 408.491 145.183 409.1C145.183 409.637 145.372 410.079 145.749 410.427C146.141 410.775 146.75 410.949 147.577 410.949ZM162.862 407.881C162.528 408.084 162.122 408.266 161.644 408.425C161.179 408.585 160.592 408.665 159.881 408.665C159.214 408.665 158.612 408.592 158.075 408.447C157.553 408.302 157.11 408.07 156.747 407.751C156.385 407.432 156.109 407.018 155.921 406.51C155.732 406.003 155.638 405.379 155.638 404.639V400.94H157.553V404.313C157.553 404.806 157.596 405.219 157.683 405.553C157.785 405.887 157.944 406.155 158.162 406.358C158.38 406.561 158.655 406.706 158.989 406.793C159.322 406.88 159.729 406.924 160.207 406.924C160.86 406.924 161.419 406.858 161.883 406.728C162.347 406.597 162.674 406.46 162.862 406.314V400.94H164.777V412.473H162.862V407.881ZM173.039 412.69C172.299 412.69 171.596 412.574 170.928 412.342C170.261 412.11 169.674 411.755 169.166 411.276C168.658 410.783 168.252 410.166 167.947 409.426C167.643 408.686 167.49 407.816 167.49 406.815V406.38C167.49 405.422 167.635 404.595 167.925 403.899C168.216 403.188 168.6 402.601 169.079 402.136C169.572 401.658 170.138 401.302 170.776 401.07C171.429 400.838 172.111 400.722 172.822 400.722C174.519 400.722 175.832 401.186 176.76 402.115C177.689 403.043 178.153 404.356 178.153 406.053V407.272H169.405C169.405 407.954 169.514 408.527 169.732 408.991C169.949 409.455 170.232 409.832 170.58 410.123C170.928 410.413 171.313 410.623 171.734 410.754C172.169 410.884 172.604 410.949 173.039 410.949C173.91 410.949 174.577 410.804 175.041 410.514C175.52 410.224 175.861 409.825 176.064 409.317H177.935C177.819 409.869 177.609 410.355 177.304 410.775C177.014 411.196 176.651 411.551 176.216 411.842C175.795 412.117 175.31 412.328 174.758 412.473C174.221 412.618 173.648 412.69 173.039 412.69ZM172.93 402.463C172.481 402.463 172.045 402.528 171.625 402.659C171.204 402.775 170.827 402.971 170.493 403.246C170.174 403.507 169.913 403.841 169.71 404.247C169.507 404.653 169.405 405.139 169.405 405.705H176.347C176.332 405.11 176.231 404.61 176.042 404.204C175.868 403.783 175.629 403.449 175.324 403.203C175.019 402.942 174.657 402.753 174.236 402.637C173.83 402.521 173.395 402.463 172.93 402.463ZM180.875 400.94H182.79V405.749H188.752V400.94H190.667V412.473H188.752V407.446H182.79V412.473H180.875V400.94ZM194.156 400.94H196.071V409.644L202.033 400.94H203.948V412.473H202.033V403.769L196.071 412.473H194.156V400.94ZM212.225 412.69C211.485 412.69 210.781 412.574 210.114 412.342C209.447 412.11 208.859 411.755 208.351 411.276C207.844 410.783 207.438 410.166 207.133 409.426C206.828 408.686 206.676 407.816 206.676 406.815V406.38C206.676 405.422 206.821 404.595 207.111 403.899C207.401 403.188 207.786 402.601 208.264 402.136C208.758 401.658 209.323 401.302 209.962 401.07C210.615 400.838 211.296 400.722 212.007 400.722C213.705 400.722 215.017 401.186 215.946 402.115C216.874 403.043 217.338 404.356 217.338 406.053V407.272H208.591C208.591 407.954 208.7 408.527 208.917 408.991C209.135 409.455 209.418 409.832 209.766 410.123C210.114 410.413 210.498 410.623 210.919 410.754C211.354 410.884 211.79 410.949 212.225 410.949C213.095 410.949 213.763 410.804 214.227 410.514C214.705 410.224 215.046 409.825 215.249 409.317H217.121C217.005 409.869 216.794 410.355 216.49 410.775C216.2 411.196 215.837 411.551 215.402 411.842C214.981 412.117 214.495 412.328 213.944 412.473C213.407 412.618 212.834 412.69 212.225 412.69ZM212.116 402.463C211.666 402.463 211.231 402.528 210.81 402.659C210.39 402.775 210.013 402.971 209.679 403.246C209.36 403.507 209.099 403.841 208.895 404.247C208.692 404.653 208.591 405.139 208.591 405.705H215.532C215.518 405.11 215.416 404.61 215.228 404.204C215.054 403.783 214.814 403.449 214.51 403.203C214.205 402.942 213.842 402.753 213.422 402.637C213.015 402.521 212.58 402.463 212.116 402.463Z" fill="black"/>
<path d="M169.13 107.351H186.053V127.43H181.751V110.908H173.432V127.43H169.13V107.351ZM190.069 112.227H193.597V114.465C193.98 113.776 194.582 113.174 195.404 112.658C196.226 112.141 197.269 111.883 198.531 111.883C200.558 111.883 202.135 112.514 203.263 113.776C204.411 115.019 204.984 116.893 204.984 119.398V119.972C204.984 122.592 204.401 124.552 203.235 125.852C202.087 127.133 200.519 127.774 198.531 127.774C197.498 127.774 196.58 127.554 195.777 127.114C194.993 126.655 194.352 126.062 193.855 125.336V133.166H190.069V112.227ZM197.641 124.561C198.636 124.561 199.468 124.188 200.137 123.443C200.806 122.678 201.141 121.521 201.141 119.972V119.398C201.141 117.964 200.816 116.893 200.166 116.186C199.515 115.459 198.674 115.096 197.641 115.096C196.551 115.096 195.643 115.411 194.917 116.042C194.209 116.654 193.855 117.582 193.855 118.825V120.546C193.855 121.903 194.199 122.917 194.888 123.586C195.595 124.236 196.513 124.561 197.641 124.561ZM207.716 112.227H211.502V121.98L218.272 112.227H221.771V127.43H217.985V117.677L211.216 127.43H207.716V112.227ZM225.223 112.227H229.698L233.914 120.431L238.131 112.227H242.434V127.43H238.819V117.534L235.119 124.418H232.538L228.837 117.534V127.43H225.223V112.227ZM252.752 127.774C251.719 127.774 250.734 127.621 249.797 127.315C248.879 126.99 248.076 126.512 247.388 125.881C246.7 125.231 246.155 124.418 245.753 123.443C245.351 122.448 245.151 121.291 245.151 119.972V119.398C245.151 118.136 245.342 117.037 245.724 116.1C246.107 115.163 246.633 114.388 247.302 113.776C247.971 113.145 248.746 112.677 249.625 112.371C250.505 112.046 251.451 111.883 252.465 111.883C254.855 111.883 256.672 112.514 257.915 113.776C259.158 115.038 259.779 116.865 259.779 119.255V120.861H249.023C249.042 121.53 249.157 122.114 249.367 122.611C249.577 123.089 249.855 123.481 250.199 123.787C250.543 124.093 250.935 124.322 251.375 124.475C251.834 124.609 252.293 124.676 252.752 124.676C253.727 124.676 254.463 124.533 254.96 124.246C255.458 123.959 255.811 123.538 256.022 122.984H259.492C259.186 124.571 258.431 125.766 257.226 126.569C256.022 127.372 254.53 127.774 252.752 127.774ZM252.608 114.981C252.169 114.981 251.729 115.038 251.289 115.153C250.868 115.268 250.495 115.449 250.17 115.698C249.845 115.947 249.577 116.281 249.367 116.702C249.157 117.123 249.042 117.629 249.023 118.222H256.108C256.089 117.591 255.983 117.065 255.792 116.645C255.62 116.224 255.372 115.889 255.046 115.641C254.741 115.392 254.377 115.22 253.956 115.124C253.536 115.029 253.086 114.981 252.608 114.981ZM262.506 112.227H266.035V114.465C266.417 113.776 267.019 113.174 267.842 112.658C268.664 112.141 269.706 111.883 270.968 111.883C272.995 111.883 274.573 112.514 275.701 113.776C276.848 115.019 277.422 116.893 277.422 119.398V119.972C277.422 122.592 276.839 124.552 275.672 125.852C274.525 127.133 272.957 127.774 270.968 127.774C269.936 127.774 269.018 127.554 268.215 127.114C267.431 126.655 266.79 126.062 266.293 125.336V133.166H262.506V112.227ZM270.079 124.561C271.073 124.561 271.905 124.188 272.574 123.443C273.244 122.678 273.578 121.521 273.578 119.972V119.398C273.578 117.964 273.253 116.893 272.603 116.186C271.953 115.459 271.112 115.096 270.079 115.096C268.989 115.096 268.081 115.411 267.354 116.042C266.646 116.654 266.293 117.582 266.293 118.825V120.546C266.293 121.903 266.637 122.917 267.325 123.586C268.033 124.236 268.951 124.561 270.079 124.561ZM282.879 127.774C282.209 127.774 281.636 127.535 281.158 127.057C280.68 126.579 280.441 126.005 280.441 125.336C280.441 124.628 280.68 124.045 281.158 123.586C281.636 123.127 282.209 122.898 282.879 122.898C283.548 122.898 284.122 123.127 284.6 123.586C285.078 124.045 285.317 124.628 285.317 125.336C285.317 126.005 285.078 126.579 284.6 127.057C284.122 127.535 283.548 127.774 282.879 127.774ZM282.879 116.759C282.209 116.759 281.636 116.52 281.158 116.042C280.68 115.564 280.441 114.991 280.441 114.321C280.441 113.614 280.68 113.03 281.158 112.572C281.636 112.113 282.209 111.883 282.879 111.883C283.548 111.883 284.122 112.113 284.6 112.572C285.078 113.03 285.317 113.614 285.317 114.321C285.317 114.991 285.078 115.564 284.6 116.042C284.122 116.52 283.548 116.759 282.879 116.759ZM295.774 123.873H300.363V111.711L295.774 114.981V110.793L300.621 107.351H304.666V123.873H308.395V127.43H295.774V123.873ZM317.427 127.774C315.515 127.774 313.975 127.363 312.809 126.54C311.642 125.718 310.935 124.437 310.686 122.697H314.702C314.893 123.194 315.199 123.567 315.62 123.816C316.06 124.045 316.71 124.16 317.57 124.16C318.087 124.16 318.565 124.083 319.004 123.93C319.463 123.758 319.865 123.462 320.209 123.041C320.553 122.601 320.831 122.008 321.041 121.263C321.251 120.517 321.385 119.561 321.442 118.394C321.194 118.777 320.888 119.102 320.525 119.37C320.161 119.618 319.76 119.829 319.32 120.001C318.899 120.154 318.45 120.268 317.972 120.345C317.513 120.421 317.044 120.46 316.566 120.46C314.539 120.46 312.981 119.915 311.891 118.825C310.801 117.715 310.256 116.157 310.256 114.149V113.834C310.256 112.82 310.438 111.893 310.801 111.051C311.164 110.21 311.661 109.493 312.292 108.9C312.943 108.288 313.717 107.82 314.616 107.495C315.515 107.169 316.499 107.007 317.57 107.007C320.113 107.007 322.064 107.753 323.422 109.244C324.779 110.736 325.458 113.164 325.458 116.53V117.075C325.458 119.006 325.257 120.651 324.856 122.008C324.454 123.347 323.89 124.447 323.164 125.307C322.456 126.168 321.605 126.799 320.611 127.2C319.635 127.583 318.574 127.774 317.427 127.774ZM317.857 117.132C318.89 117.132 319.693 116.845 320.266 116.272C320.859 115.698 321.156 114.952 321.156 114.034V113.748C321.156 112.849 320.85 112.103 320.238 111.51C319.645 110.917 318.851 110.621 317.857 110.621C316.824 110.621 316.012 110.917 315.419 111.51C314.845 112.084 314.558 112.83 314.558 113.748V114.034C314.558 114.952 314.845 115.698 315.419 116.272C316.012 116.845 316.824 117.132 317.857 117.132ZM327.753 124.303L334.78 118.251C335.431 117.677 335.985 117.18 336.444 116.759C336.903 116.32 337.276 115.918 337.563 115.555C337.85 115.191 338.05 114.838 338.165 114.493C338.299 114.149 338.366 113.776 338.366 113.375C338.366 112.552 338.136 111.893 337.677 111.396C337.219 110.879 336.54 110.621 335.641 110.621C334.608 110.621 333.796 110.908 333.203 111.482C332.629 112.036 332.342 113.002 332.342 114.379H328.04C328.04 112.103 328.68 110.306 329.962 108.986C331.262 107.667 333.155 107.007 335.641 107.007C336.807 107.007 337.821 107.169 338.681 107.495C339.561 107.8 340.297 108.24 340.89 108.814C341.483 109.369 341.923 110.038 342.209 110.822C342.515 111.606 342.668 112.457 342.668 113.375C342.668 114.063 342.544 114.723 342.296 115.354C342.047 115.966 341.703 116.559 341.263 117.132C340.842 117.706 340.345 118.27 339.771 118.825C339.198 119.36 338.586 119.895 337.936 120.431L333.805 123.873H342.955V127.43H327.753V124.303ZM348.537 127.774C347.868 127.774 347.294 127.535 346.816 127.057C346.338 126.579 346.099 126.005 346.099 125.336C346.099 124.628 346.338 124.045 346.816 123.586C347.294 123.127 347.868 122.898 348.537 122.898C349.207 122.898 349.78 123.127 350.258 123.586C350.736 124.045 350.975 124.628 350.975 125.336C350.975 126.005 350.736 126.579 350.258 127.057C349.78 127.535 349.207 127.774 348.537 127.774ZM354.262 123.873H358.851V111.711L354.262 114.981V110.793L359.109 107.351H363.154V123.873H366.883V127.43H354.262V123.873ZM376.775 127.774C375.513 127.774 374.394 127.592 373.419 127.229C372.444 126.866 371.622 126.301 370.952 125.537C370.283 124.753 369.767 123.758 369.403 122.553C369.059 121.349 368.887 119.915 368.887 118.251V117.677C368.887 115.765 369.088 114.14 369.489 112.801C369.891 111.443 370.455 110.334 371.182 109.474C371.908 108.613 372.769 107.992 373.763 107.609C374.777 107.208 375.876 107.007 377.062 107.007C378.917 107.007 380.418 107.399 381.565 108.183C382.713 108.967 383.411 110.267 383.659 112.084H379.643C379.261 111.109 378.353 110.621 376.919 110.621C376.364 110.621 375.848 110.707 375.37 110.879C374.911 111.032 374.5 111.329 374.136 111.768C373.792 112.189 373.515 112.772 373.304 113.518C373.094 114.264 372.96 115.22 372.903 116.386C373.151 116.004 373.457 115.688 373.821 115.44C374.184 115.172 374.576 114.962 374.997 114.809C375.437 114.637 375.886 114.512 376.345 114.436C376.823 114.359 377.301 114.321 377.779 114.321C379.806 114.321 381.365 114.876 382.454 115.985C383.544 117.075 384.089 118.624 384.089 120.632V120.947C384.089 121.961 383.908 122.888 383.544 123.729C383.181 124.571 382.674 125.298 382.024 125.909C381.393 126.502 380.628 126.961 379.73 127.286C378.831 127.611 377.846 127.774 376.775 127.774ZM376.488 124.16C377.521 124.16 378.324 123.873 378.898 123.299C379.49 122.706 379.787 121.951 379.787 121.033V120.746C379.787 119.829 379.49 119.083 378.898 118.509C378.324 117.935 377.521 117.649 376.488 117.649C375.456 117.649 374.643 117.935 374.05 118.509C373.476 119.083 373.19 119.829 373.19 120.746V121.033C373.19 121.951 373.476 122.706 374.05 123.299C374.643 123.873 375.456 124.16 376.488 124.16ZM394.416 127.774C393.211 127.774 392.121 127.64 391.146 127.372C390.19 127.085 389.377 126.693 388.708 126.196C388.057 125.68 387.551 125.068 387.187 124.361C386.843 123.634 386.671 122.831 386.671 121.951C386.671 120.823 387.015 119.819 387.704 118.939C388.392 118.041 389.415 117.41 390.773 117.046C389.759 116.721 388.918 116.157 388.249 115.354C387.579 114.551 387.245 113.595 387.245 112.485C387.245 111.682 387.398 110.946 387.704 110.277C388.029 109.608 388.497 109.034 389.109 108.556C389.721 108.059 390.467 107.676 391.346 107.408C392.245 107.141 393.268 107.007 394.416 107.007C395.563 107.007 396.576 107.141 397.456 107.408C398.355 107.676 399.11 108.059 399.722 108.556C400.353 109.034 400.822 109.608 401.128 110.277C401.453 110.946 401.615 111.682 401.615 112.485C401.615 113.595 401.281 114.541 400.611 115.325C399.942 116.09 399.091 116.664 398.058 117.046C400.793 117.888 402.16 119.523 402.16 121.951C402.16 122.831 401.979 123.634 401.615 124.361C401.271 125.068 400.764 125.68 400.095 126.196C399.445 126.693 398.642 127.085 397.686 127.372C396.729 127.64 395.639 127.774 394.416 127.774ZM394.416 124.16C395.601 124.16 396.471 123.93 397.026 123.471C397.58 123.012 397.858 122.391 397.858 121.607C397.858 120.746 397.533 120.068 396.882 119.57C396.251 119.054 395.429 118.719 394.416 118.566C393.402 118.719 392.57 119.054 391.92 119.57C391.289 120.068 390.974 120.746 390.974 121.607C390.974 122.391 391.26 123.012 391.834 123.471C392.408 123.93 393.268 124.16 394.416 124.16ZM394.416 115.641C395.276 115.488 395.974 115.191 396.509 114.751C397.045 114.293 397.313 113.662 397.313 112.858C397.313 112.113 397.054 111.558 396.538 111.195C396.041 110.812 395.333 110.621 394.416 110.621C393.517 110.621 392.809 110.812 392.293 111.195C391.796 111.558 391.547 112.113 391.547 112.858C391.547 113.662 391.805 114.293 392.322 114.751C392.857 115.191 393.555 115.488 394.416 115.641ZM407.894 127.774C407.224 127.774 406.651 127.535 406.173 127.057C405.694 126.579 405.455 126.005 405.455 125.336C405.455 124.628 405.694 124.045 406.173 123.586C406.651 123.127 407.224 122.898 407.894 122.898C408.563 122.898 409.137 123.127 409.615 123.586C410.093 124.045 410.332 124.628 410.332 125.336C410.332 126.005 410.093 126.579 409.615 127.057C409.137 127.535 408.563 127.774 407.894 127.774ZM413.618 123.873H418.207V111.711L413.618 114.981V110.793L418.466 107.351H422.51V123.873H426.239V127.43H413.618V123.873ZM435.988 127.774C434.898 127.774 433.875 127.602 432.919 127.258C431.982 126.894 431.169 126.311 430.481 125.508C429.792 124.686 429.247 123.615 428.846 122.295C428.444 120.957 428.243 119.322 428.243 117.39V116.817C428.243 115.019 428.444 113.499 428.846 112.256C429.247 111.013 429.792 110.009 430.481 109.244C431.169 108.46 431.982 107.896 432.919 107.552C433.875 107.189 434.898 107.007 435.988 107.007C437.078 107.007 438.091 107.189 439.028 107.552C439.984 107.896 440.807 108.46 441.495 109.244C442.184 110.009 442.729 111.013 443.13 112.256C443.532 113.499 443.732 115.019 443.732 116.817V117.39C443.732 119.322 443.532 120.957 443.13 122.295C442.729 123.615 442.184 124.686 441.495 125.508C440.807 126.311 439.984 126.894 439.028 127.258C438.091 127.602 437.078 127.774 435.988 127.774ZM435.988 124.16C436.466 124.16 436.915 124.064 437.336 123.873C437.757 123.682 438.12 123.337 438.426 122.84C438.751 122.324 439 121.626 439.172 120.746C439.344 119.867 439.43 118.748 439.43 117.39V116.817C439.43 115.593 439.344 114.589 439.172 113.805C439 113.002 438.751 112.371 438.426 111.912C438.12 111.434 437.757 111.099 437.336 110.908C436.915 110.717 436.466 110.621 435.988 110.621C435.491 110.621 435.032 110.717 434.611 110.908C434.21 111.099 433.846 111.434 433.521 111.912C433.215 112.371 432.976 113.002 432.804 113.805C432.632 114.589 432.546 115.593 432.546 116.817V117.39C432.546 118.748 432.632 119.867 432.804 120.746C432.976 121.626 433.215 122.324 433.521 122.84C433.846 123.337 434.21 123.682 434.611 123.873C435.032 124.064 435.491 124.16 435.988 124.16ZM449.603 127.774C448.933 127.774 448.36 127.535 447.882 127.057C447.403 126.579 447.164 126.005 447.164 125.336C447.164 124.628 447.403 124.045 447.882 123.586C448.36 123.127 448.933 122.898 449.603 122.898C450.272 122.898 450.846 123.127 451.324 123.586C451.802 124.045 452.041 124.628 452.041 125.336C452.041 126.005 451.802 126.579 451.324 127.057C450.846 127.535 450.272 127.774 449.603 127.774ZM455.327 123.873H459.916V111.711L455.327 114.981V110.793L460.175 107.351H464.219V123.873H467.948V127.43H455.327V123.873ZM469.809 123.873H474.398V111.711L469.809 114.981V110.793L474.656 107.351H478.701V123.873H482.43V127.43H469.809V123.873Z" fill="black"/>
<path d="M371.858 661.869H376.447V649.707L371.858 652.977V648.789L376.705 645.347H380.75V661.869H384.479V665.426H371.858V661.869ZM386.34 661.869H390.929V649.707L386.34 652.977V648.789L391.187 645.347H395.232V661.869H398.961V665.426H386.34V661.869ZM408.71 665.77C407.62 665.77 406.597 665.598 405.641 665.254C404.704 664.89 403.891 664.307 403.202 663.504C402.514 662.682 401.969 661.611 401.567 660.291C401.166 658.953 400.965 657.318 400.965 655.386V654.813C400.965 653.015 401.166 651.495 401.567 650.252C401.969 649.009 402.514 648.005 403.202 647.24C403.891 646.456 404.704 645.892 405.641 645.548C406.597 645.185 407.62 645.003 408.71 645.003C409.8 645.003 410.813 645.185 411.75 645.548C412.706 645.892 413.529 646.456 414.217 647.24C414.905 648.005 415.45 649.009 415.852 650.252C416.254 651.495 416.454 653.015 416.454 654.813V655.386C416.454 657.318 416.254 658.953 415.852 660.291C415.45 661.611 414.905 662.682 414.217 663.504C413.529 664.307 412.706 664.89 411.75 665.254C410.813 665.598 409.8 665.77 408.71 665.77ZM408.71 662.156C409.188 662.156 409.637 662.06 410.058 661.869C410.479 661.678 410.842 661.334 411.148 660.836C411.473 660.32 411.721 659.622 411.894 658.742C412.066 657.863 412.152 656.744 412.152 655.386V654.813C412.152 653.589 412.066 652.585 411.894 651.801C411.721 650.998 411.473 650.367 411.148 649.908C410.842 649.43 410.479 649.095 410.058 648.904C409.637 648.713 409.188 648.617 408.71 648.617C408.213 648.617 407.754 648.713 407.333 648.904C406.931 649.095 406.568 649.43 406.243 649.908C405.937 650.367 405.698 650.998 405.526 651.801C405.354 652.585 405.268 653.589 405.268 654.813V655.386C405.268 656.744 405.354 657.863 405.526 658.742C405.698 659.622 405.937 660.32 406.243 660.836C406.568 661.334 406.931 661.678 407.333 661.869C407.754 662.06 408.213 662.156 408.71 662.156ZM427.057 665.77C425.967 665.77 424.944 665.598 423.988 665.254C423.051 664.89 422.238 664.307 421.55 663.504C420.861 662.682 420.317 661.611 419.915 660.291C419.513 658.953 419.313 657.318 419.313 655.386V654.813C419.313 653.015 419.513 651.495 419.915 650.252C420.317 649.009 420.861 648.005 421.55 647.24C422.238 646.456 423.051 645.892 423.988 645.548C424.944 645.185 425.967 645.003 427.057 645.003C428.147 645.003 429.161 645.185 430.098 645.548C431.054 645.892 431.876 646.456 432.564 647.24C433.253 648.005 433.798 649.009 434.199 650.252C434.601 651.495 434.802 653.015 434.802 654.813V655.386C434.802 657.318 434.601 658.953 434.199 660.291C433.798 661.611 433.253 662.682 432.564 663.504C431.876 664.307 431.054 664.89 430.098 665.254C429.161 665.598 428.147 665.77 427.057 665.77ZM427.057 662.156C427.535 662.156 427.985 662.06 428.405 661.869C428.826 661.678 429.189 661.334 429.495 660.836C429.82 660.32 430.069 659.622 430.241 658.742C430.413 657.863 430.499 656.744 430.499 655.386V654.813C430.499 653.589 430.413 652.585 430.241 651.801C430.069 650.998 429.82 650.367 429.495 649.908C429.189 649.43 428.826 649.095 428.405 648.904C427.985 648.713 427.535 648.617 427.057 648.617C426.56 648.617 426.101 648.713 425.68 648.904C425.279 649.095 424.915 649.43 424.59 649.908C424.284 650.367 424.045 650.998 423.873 651.801C423.701 652.585 423.615 653.589 423.615 654.813V655.386C423.615 656.744 423.701 657.863 423.873 658.742C424.045 659.622 424.284 660.32 424.59 660.836C424.915 661.334 425.279 661.678 425.68 661.869C426.101 662.06 426.56 662.156 427.057 662.156ZM445.405 665.77C444.315 665.77 443.292 665.598 442.335 665.254C441.398 664.89 440.586 664.307 439.897 663.504C439.209 662.682 438.664 661.611 438.262 660.291C437.861 658.953 437.66 657.318 437.66 655.386V654.813C437.66 653.015 437.861 651.495 438.262 650.252C438.664 649.009 439.209 648.005 439.897 647.24C440.586 646.456 441.398 645.892 442.335 645.548C443.292 645.185 444.315 645.003 445.405 645.003C446.495 645.003 447.508 645.185 448.445 645.548C449.401 645.892 450.224 646.456 450.912 647.24C451.6 648.005 452.145 649.009 452.547 650.252C452.948 651.495 453.149 653.015 453.149 654.813V655.386C453.149 657.318 452.948 658.953 452.547 660.291C452.145 661.611 451.6 662.682 450.912 663.504C450.224 664.307 449.401 664.89 448.445 665.254C447.508 665.598 446.495 665.77 445.405 665.77ZM445.405 662.156C445.883 662.156 446.332 662.06 446.753 661.869C447.173 661.678 447.537 661.334 447.843 660.836C448.168 660.32 448.416 659.622 448.589 658.742C448.761 657.863 448.847 656.744 448.847 655.386V654.813C448.847 653.589 448.761 652.585 448.589 651.801C448.416 650.998 448.168 650.367 447.843 649.908C447.537 649.43 447.173 649.095 446.753 648.904C446.332 648.713 445.883 648.617 445.405 648.617C444.907 648.617 444.449 648.713 444.028 648.904C443.626 649.095 443.263 649.43 442.938 649.908C442.632 650.367 442.393 650.998 442.221 651.801C442.049 652.585 441.963 653.589 441.963 654.813V655.386C441.963 656.744 442.049 657.863 442.221 658.742C442.393 659.622 442.632 660.32 442.938 660.836C443.263 661.334 443.626 661.678 444.028 661.869C444.449 662.06 444.907 662.156 445.405 662.156ZM463.752 665.77C462.662 665.77 461.639 665.598 460.683 665.254C459.746 664.89 458.933 664.307 458.245 663.504C457.556 662.682 457.011 661.611 456.61 660.291C456.208 658.953 456.008 657.318 456.008 655.386V654.813C456.008 653.015 456.208 651.495 456.61 650.252C457.011 649.009 457.556 648.005 458.245 647.24C458.933 646.456 459.746 645.892 460.683 645.548C461.639 645.185 462.662 645.003 463.752 645.003C464.842 645.003 465.856 645.185 466.793 645.548C467.749 645.892 468.571 646.456 469.259 647.24C469.948 648.005 470.493 649.009 470.894 650.252C471.296 651.495 471.497 653.015 471.497 654.813V655.386C471.497 657.318 471.296 658.953 470.894 660.291C470.493 661.611 469.948 662.682 469.259 663.504C468.571 664.307 467.749 664.89 466.793 665.254C465.856 665.598 464.842 665.77 463.752 665.77ZM463.752 662.156C464.23 662.156 464.68 662.06 465.1 661.869C465.521 661.678 465.884 661.334 466.19 660.836C466.515 660.32 466.764 659.622 466.936 658.742C467.108 657.863 467.194 656.744 467.194 655.386V654.813C467.194 653.589 467.108 652.585 466.936 651.801C466.764 650.998 466.515 650.367 466.19 649.908C465.884 649.43 465.521 649.095 465.1 648.904C464.68 648.713 464.23 648.617 463.752 648.617C463.255 648.617 462.796 648.713 462.375 648.904C461.974 649.095 461.61 649.43 461.285 649.908C460.979 650.367 460.74 650.998 460.568 651.801C460.396 652.585 460.31 653.589 460.31 654.813V655.386C460.31 656.744 460.396 657.863 460.568 658.742C460.74 659.622 460.979 660.32 461.285 660.836C461.61 661.334 461.974 661.678 462.375 661.869C462.796 662.06 463.255 662.156 463.752 662.156ZM482.1 665.77C481.01 665.77 479.987 665.598 479.03 665.254C478.093 664.89 477.281 664.307 476.592 663.504C475.904 662.682 475.359 661.611 474.957 660.291C474.556 658.953 474.355 657.318 474.355 655.386V654.813C474.355 653.015 474.556 651.495 474.957 650.252C475.359 649.009 475.904 648.005 476.592 647.24C477.281 646.456 478.093 645.892 479.03 645.548C479.987 645.185 481.01 645.003 482.1 645.003C483.19 645.003 484.203 645.185 485.14 645.548C486.096 645.892 486.918 646.456 487.607 647.24C488.295 648.005 488.84 649.009 489.242 650.252C489.643 651.495 489.844 653.015 489.844 654.813V655.386C489.844 657.318 489.643 658.953 489.242 660.291C488.84 661.611 488.295 662.682 487.607 663.504C486.918 664.307 486.096 664.89 485.14 665.254C484.203 665.598 483.19 665.77 482.1 665.77ZM482.1 662.156C482.578 662.156 483.027 662.06 483.448 661.869C483.868 661.678 484.232 661.334 484.538 660.836C484.863 660.32 485.111 659.622 485.283 658.742C485.456 657.863 485.542 656.744 485.542 655.386V654.813C485.542 653.589 485.456 652.585 485.283 651.801C485.111 650.998 484.863 650.367 484.538 649.908C484.232 649.43 483.868 649.095 483.448 648.904C483.027 648.713 482.578 648.617 482.1 648.617C481.602 648.617 481.143 648.713 480.723 648.904C480.321 649.095 479.958 649.43 479.633 649.908C479.327 650.367 479.088 650.998 478.916 651.801C478.744 652.585 478.658 653.589 478.658 654.813V655.386C478.658 656.744 478.744 657.863 478.916 658.742C479.088 659.622 479.327 660.32 479.633 660.836C479.958 661.334 480.321 661.678 480.723 661.869C481.143 662.06 481.602 662.156 482.1 662.156ZM500.447 665.77C499.357 665.77 498.334 665.598 497.378 665.254C496.441 664.89 495.628 664.307 494.94 663.504C494.251 662.682 493.706 661.611 493.305 660.291C492.903 658.953 492.702 657.318 492.702 655.386V654.813C492.702 653.015 492.903 651.495 493.305 650.252C493.706 649.009 494.251 648.005 494.94 647.24C495.628 646.456 496.441 645.892 497.378 645.548C498.334 645.185 499.357 645.003 500.447 645.003C501.537 645.003 502.551 645.185 503.488 645.548C504.444 645.892 505.266 646.456 505.954 647.24C506.643 648.005 507.188 649.009 507.589 650.252C507.991 651.495 508.192 653.015 508.192 654.813V655.386C508.192 657.318 507.991 658.953 507.589 660.291C507.188 661.611 506.643 662.682 505.954 663.504C505.266 664.307 504.444 664.89 503.488 665.254C502.551 665.598 501.537 665.77 500.447 665.77ZM500.447 662.156C500.925 662.156 501.375 662.06 501.795 661.869C502.216 661.678 502.579 661.334 502.885 660.836C503.21 660.32 503.459 659.622 503.631 658.742C503.803 657.863 503.889 656.744 503.889 655.386V654.813C503.889 653.589 503.803 652.585 503.631 651.801C503.459 650.998 503.21 650.367 502.885 649.908C502.579 649.43 502.216 649.095 501.795 648.904C501.375 648.713 500.925 648.617 500.447 648.617C499.95 648.617 499.491 648.713 499.07 648.904C498.669 649.095 498.305 649.43 497.98 649.908C497.674 650.367 497.435 650.998 497.263 651.801C497.091 652.585 497.005 653.589 497.005 654.813V655.386C497.005 656.744 497.091 657.863 497.263 658.742C497.435 659.622 497.674 660.32 497.98 660.836C498.305 661.334 498.669 661.678 499.07 661.869C499.491 662.06 499.95 662.156 500.447 662.156ZM514.062 665.77C513.392 665.77 512.819 665.531 512.341 665.053C511.863 664.575 511.624 664.001 511.624 663.332C511.624 662.624 511.863 662.041 512.341 661.582C512.819 661.123 513.392 660.894 514.062 660.894C514.731 660.894 515.305 661.123 515.783 661.582C516.261 662.041 516.5 662.624 516.5 663.332C516.5 664.001 516.261 664.575 515.783 665.053C515.305 665.531 514.731 665.77 514.062 665.77Z" fill="#D0643B"/>
<path d="M525.291 661.869H529.88V649.707L525.291 652.977V648.789L530.138 645.347H534.183V661.869H537.911V665.426H525.291V661.869ZM547.661 665.77C546.571 665.77 545.548 665.598 544.591 665.254C543.654 664.89 542.842 664.307 542.153 663.504C541.465 662.682 540.92 661.611 540.518 660.291C540.117 658.953 539.916 657.318 539.916 655.386V654.813C539.916 653.015 540.117 651.495 540.518 650.252C540.92 649.009 541.465 648.005 542.153 647.24C542.842 646.456 543.654 645.892 544.591 645.548C545.548 645.185 546.571 645.003 547.661 645.003C548.751 645.003 549.764 645.185 550.701 645.548C551.657 645.892 552.479 646.456 553.168 647.24C553.856 648.005 554.401 649.009 554.803 650.252C555.204 651.495 555.405 653.015 555.405 654.813V655.386C555.405 657.318 555.204 658.953 554.803 660.291C554.401 661.611 553.856 662.682 553.168 663.504C552.479 664.307 551.657 664.89 550.701 665.254C549.764 665.598 548.751 665.77 547.661 665.77ZM547.661 662.156C548.139 662.156 548.588 662.06 549.009 661.869C549.429 661.678 549.793 661.334 550.099 660.836C550.424 660.32 550.672 659.622 550.844 658.742C551.017 657.863 551.103 656.744 551.103 655.386V654.813C551.103 653.589 551.017 652.585 550.844 651.801C550.672 650.998 550.424 650.367 550.099 649.908C549.793 649.43 549.429 649.095 549.009 648.904C548.588 648.713 548.139 648.617 547.661 648.617C547.163 648.617 546.704 648.713 546.284 648.904C545.882 649.095 545.519 649.43 545.194 649.908C544.888 650.367 544.649 650.998 544.477 651.801C544.305 652.585 544.219 653.589 544.219 654.813V655.386C544.219 656.744 544.305 657.863 544.477 658.742C544.649 659.622 544.888 660.32 545.194 660.836C545.519 661.334 545.882 661.678 546.284 661.869C546.704 662.06 547.163 662.156 547.661 662.156ZM558.12 661.869H562.709V649.707L558.12 652.977V648.789L562.968 645.347H567.012V661.869H570.741V665.426H558.12V661.869ZM580.49 665.77C579.4 665.77 578.377 665.598 577.421 665.254C576.484 664.89 575.671 664.307 574.983 663.504C574.294 662.682 573.749 661.611 573.348 660.291C572.946 658.953 572.745 657.318 572.745 655.386V654.813C572.745 653.015 572.946 651.495 573.348 650.252C573.749 649.009 574.294 648.005 574.983 647.24C575.671 646.456 576.484 645.892 577.421 645.548C578.377 645.185 579.4 645.003 580.49 645.003C581.58 645.003 582.593 645.185 583.53 645.548C584.487 645.892 585.309 646.456 585.997 647.24C586.686 648.005 587.231 649.009 587.632 650.252C588.034 651.495 588.235 653.015 588.235 654.813V655.386C588.235 657.318 588.034 658.953 587.632 660.291C587.231 661.611 586.686 662.682 585.997 663.504C585.309 664.307 584.487 664.89 583.53 665.254C582.593 665.598 581.58 665.77 580.49 665.77ZM580.49 662.156C580.968 662.156 581.417 662.06 581.838 661.869C582.259 661.678 582.622 661.334 582.928 660.836C583.253 660.32 583.502 659.622 583.674 658.742C583.846 657.863 583.932 656.744 583.932 655.386V654.813C583.932 653.589 583.846 652.585 583.674 651.801C583.502 650.998 583.253 650.367 582.928 649.908C582.622 649.43 582.259 649.095 581.838 648.904C581.417 648.713 580.968 648.617 580.49 648.617C579.993 648.617 579.534 648.713 579.113 648.904C578.712 649.095 578.348 649.43 578.023 649.908C577.717 650.367 577.478 650.998 577.306 651.801C577.134 652.585 577.048 653.589 577.048 654.813V655.386C577.048 656.744 577.134 657.863 577.306 658.742C577.478 659.622 577.717 660.32 578.023 660.836C578.348 661.334 578.712 661.678 579.113 661.869C579.534 662.06 579.993 662.156 580.49 662.156ZM590.949 661.869H595.539V649.707L590.949 652.977V648.789L595.797 645.347H599.841V661.869H603.57V665.426H590.949V661.869ZM613.319 665.77C612.229 665.77 611.206 665.598 610.25 665.254C609.313 664.89 608.5 664.307 607.812 663.504C607.124 662.682 606.579 661.611 606.177 660.291C605.776 658.953 605.575 657.318 605.575 655.386V654.813C605.575 653.015 605.776 651.495 606.177 650.252C606.579 649.009 607.124 648.005 607.812 647.24C608.5 646.456 609.313 645.892 610.25 645.548C611.206 645.185 612.229 645.003 613.319 645.003C614.409 645.003 615.423 645.185 616.36 645.548C617.316 645.892 618.138 646.456 618.827 647.24C619.515 648.005 620.06 649.009 620.462 650.252C620.863 651.495 621.064 653.015 621.064 654.813V655.386C621.064 657.318 620.863 658.953 620.462 660.291C620.06 661.611 619.515 662.682 618.827 663.504C618.138 664.307 617.316 664.89 616.36 665.254C615.423 665.598 614.409 665.77 613.319 665.77ZM613.319 662.156C613.797 662.156 614.247 662.06 614.667 661.869C615.088 661.678 615.451 661.334 615.757 660.836C616.083 660.32 616.331 659.622 616.503 658.742C616.675 657.863 616.761 656.744 616.761 655.386V654.813C616.761 653.589 616.675 652.585 616.503 651.801C616.331 650.998 616.083 650.367 615.757 649.908C615.451 649.43 615.088 649.095 614.667 648.904C614.247 648.713 613.797 648.617 613.319 648.617C612.822 648.617 612.363 648.713 611.943 648.904C611.541 649.095 611.178 649.43 610.853 649.908C610.547 650.367 610.308 650.998 610.135 651.801C609.963 652.585 609.877 653.589 609.877 654.813V655.386C609.877 656.744 609.963 657.863 610.135 658.742C610.308 659.622 610.547 660.32 610.853 660.836C611.178 661.334 611.541 661.678 611.943 661.869C612.363 662.06 612.822 662.156 613.319 662.156ZM631.667 665.77C630.577 665.77 629.554 665.598 628.598 665.254C627.661 664.89 626.848 664.307 626.16 663.504C625.471 662.682 624.926 661.611 624.525 660.291C624.123 658.953 623.922 657.318 623.922 655.386V654.813C623.922 653.015 624.123 651.495 624.525 650.252C624.926 649.009 625.471 648.005 626.16 647.24C626.848 646.456 627.661 645.892 628.598 645.548C629.554 645.185 630.577 645.003 631.667 645.003C632.757 645.003 633.77 645.185 634.707 645.548C635.663 645.892 636.486 646.456 637.174 647.24C637.862 648.005 638.407 649.009 638.809 650.252C639.211 651.495 639.411 653.015 639.411 654.813V655.386C639.411 657.318 639.211 658.953 638.809 660.291C638.407 661.611 637.862 662.682 637.174 663.504C636.486 664.307 635.663 664.89 634.707 665.254C633.77 665.598 632.757 665.77 631.667 665.77ZM631.667 662.156C632.145 662.156 632.594 662.06 633.015 661.869C633.436 661.678 633.799 661.334 634.105 660.836C634.43 660.32 634.679 659.622 634.851 658.742C635.023 657.863 635.109 656.744 635.109 655.386V654.813C635.109 653.589 635.023 652.585 634.851 651.801C634.679 650.998 634.43 650.367 634.105 649.908C633.799 649.43 633.436 649.095 633.015 648.904C632.594 648.713 632.145 648.617 631.667 648.617C631.17 648.617 630.711 648.713 630.29 648.904C629.888 649.095 629.525 649.43 629.2 649.908C628.894 650.367 628.655 650.998 628.483 651.801C628.311 652.585 628.225 653.589 628.225 654.813V655.386C628.225 656.744 628.311 657.863 628.483 658.742C628.655 659.622 628.894 660.32 629.2 660.836C629.525 661.334 629.888 661.678 630.29 661.869C630.711 662.06 631.17 662.156 631.667 662.156ZM650.014 665.77C648.924 665.77 647.901 665.598 646.945 665.254C646.008 664.89 645.195 664.307 644.507 663.504C643.819 662.682 643.274 661.611 642.872 660.291C642.47 658.953 642.27 657.318 642.27 655.386V654.813C642.27 653.015 642.47 651.495 642.872 650.252C643.274 649.009 643.819 648.005 644.507 647.24C645.195 646.456 646.008 645.892 646.945 645.548C647.901 645.185 648.924 645.003 650.014 645.003C651.104 645.003 652.118 645.185 653.055 645.548C654.011 645.892 654.833 646.456 655.522 647.24C656.21 648.005 656.755 649.009 657.157 650.252C657.558 651.495 657.759 653.015 657.759 654.813V655.386C657.759 657.318 657.558 658.953 657.157 660.291C656.755 661.611 656.21 662.682 655.522 663.504C654.833 664.307 654.011 664.89 653.055 665.254C652.118 665.598 651.104 665.77 650.014 665.77ZM650.014 662.156C650.492 662.156 650.942 662.06 651.362 661.869C651.783 661.678 652.146 661.334 652.452 660.836C652.777 660.32 653.026 659.622 653.198 658.742C653.37 657.863 653.456 656.744 653.456 655.386V654.813C653.456 653.589 653.37 652.585 653.198 651.801C653.026 650.998 652.777 650.367 652.452 649.908C652.146 649.43 651.783 649.095 651.362 648.904C650.942 648.713 650.492 648.617 650.014 648.617C649.517 648.617 649.058 648.713 648.637 648.904C648.236 649.095 647.873 649.43 647.547 649.908C647.242 650.367 647.002 650.998 646.83 651.801C646.658 652.585 646.572 653.589 646.572 654.813V655.386C646.572 656.744 646.658 657.863 646.83 658.742C647.002 659.622 647.242 660.32 647.547 660.836C647.873 661.334 648.236 661.678 648.637 661.869C649.058 662.06 649.517 662.156 650.014 662.156ZM663.629 665.77C662.96 665.77 662.386 665.531 661.908 665.053C661.43 664.575 661.191 664.001 661.191 663.332C661.191 662.624 661.43 662.041 661.908 661.582C662.386 661.123 662.96 660.894 663.629 660.894C664.298 660.894 664.872 661.123 665.35 661.582C665.828 662.041 666.067 662.624 666.067 663.332C666.067 664.001 665.828 664.575 665.35 665.053C664.872 665.531 664.298 665.77 663.629 665.77Z" fill="#D0643B"/>
<path d="M673.711 666.889H688.053V669.7H673.711V666.889ZM688.053 666.889H702.395V669.7H688.053V666.889ZM702.395 666.889H716.737V669.7H702.395V666.889ZM716.737 666.889H731.079V669.7H716.737V666.889ZM731.079 666.889H745.421V669.7H731.079V666.889ZM745.421 666.889H759.762V669.7H745.421V666.889ZM759.762 666.889H774.104V669.7H759.762V666.889ZM774.104 666.889H788.446V669.7H774.104V666.889ZM788.446 666.889H802.788V669.7H788.446V666.889ZM802.788 666.889H817.13V669.7H802.788V666.889ZM817.13 666.889H831.472V669.7H817.13V666.889ZM835.918 665.77C835.248 665.77 834.675 665.531 834.197 665.053C833.718 664.575 833.479 664.001 833.479 663.332C833.479 662.624 833.718 662.041 834.197 661.582C834.675 661.123 835.248 660.894 835.918 660.894C836.587 660.894 837.161 661.123 837.639 661.582C838.117 662.041 838.356 662.624 838.356 663.332C838.356 664.001 838.117 664.575 837.639 665.053C837.161 665.531 836.587 665.77 835.918 665.77Z" fill="black"/>
<path d="M845.651 666.889H859.993V669.7H845.651V666.889ZM859.993 666.889H874.335V669.7H859.993V666.889ZM874.335 666.889H888.677V669.7H874.335V666.889ZM888.677 666.889H903.018V669.7H888.677V666.889ZM903.018 666.889H917.36V669.7H903.018V666.889ZM917.36 666.889H931.702V669.7H917.36V666.889ZM931.702 666.889H946.044V669.7H931.702V666.889ZM946.044 666.889H960.386V669.7H946.044V666.889ZM960.386 666.889H974.728V669.7H960.386V666.889ZM974.728 666.889H989.07V669.7H974.728V666.889ZM989.07 666.889H1003.41V669.7H989.07V666.889Z" fill="black"/>
<rect x="273.443" y="333.768" width="833.223" height="111.155" stroke="#D0643B" stroke-width="6"/>
</svg>
