<svg width="1551" height="974" viewBox="0 0 1551 974" fill="none" xmlns="http://www.w3.org/2000/svg">
<rect x="407.691" y="442.75" width="104.135" height="109.408" fill="#D0643B"/>
<path d="M453.81 504.396H458.399V492.234L453.81 495.504V491.317L458.657 487.875H462.702V504.396H466.43V507.953H453.81V504.396Z" fill="white"/>
<rect x="407.691" y="442.75" width="104.135" height="109.408" stroke="#D0643B" stroke-width="1.31816"/>
<rect x="511.826" y="442.75" width="104.135" height="109.408" fill="#F7F7F7"/>
<path d="M563.9 508.297C562.81 508.297 561.787 508.125 560.83 507.781C559.893 507.418 559.081 506.834 558.392 506.031C557.704 505.209 557.159 504.138 556.757 502.819C556.356 501.48 556.155 499.845 556.155 497.914V497.34C556.155 495.543 556.356 494.022 556.757 492.779C557.159 491.536 557.704 490.533 558.392 489.768C559.081 488.984 559.893 488.42 560.83 488.075C561.787 487.712 562.81 487.53 563.9 487.53C564.99 487.53 566.003 487.712 566.94 488.075C567.896 488.42 568.718 488.984 569.407 489.768C570.095 490.533 570.64 491.536 571.042 492.779C571.443 494.022 571.644 495.543 571.644 497.34V497.914C571.644 499.845 571.443 501.48 571.042 502.819C570.64 504.138 570.095 505.209 569.407 506.031C568.718 506.834 567.896 507.418 566.94 507.781C566.003 508.125 564.99 508.297 563.9 508.297ZM563.9 504.683C564.378 504.683 564.827 504.588 565.248 504.396C565.668 504.205 566.032 503.861 566.338 503.364C566.663 502.847 566.911 502.149 567.083 501.27C567.256 500.39 567.342 499.272 567.342 497.914V497.34C567.342 496.116 567.256 495.112 567.083 494.328C566.911 493.525 566.663 492.894 566.338 492.435C566.032 491.957 565.668 491.623 565.248 491.431C564.827 491.24 564.378 491.144 563.9 491.144C563.402 491.144 562.943 491.24 562.523 491.431C562.121 491.623 561.758 491.957 561.433 492.435C561.127 492.894 560.888 493.525 560.716 494.328C560.544 495.112 560.458 496.116 560.458 497.34V497.914C560.458 499.272 560.544 500.39 560.716 501.27C560.888 502.149 561.127 502.847 561.433 503.364C561.758 503.861 562.121 504.205 562.523 504.396C562.943 504.588 563.402 504.683 563.9 504.683Z" fill="black"/>
<rect x="511.826" y="442.75" width="104.135" height="109.408" stroke="#DADADA" stroke-width="2"/>
<rect x="615.961" y="442.75" width="104.135" height="109.408" fill="#F7F7F7"/>
<rect x="615.961" y="442.75" width="104.135" height="109.408" stroke="#DADADA" stroke-width="2"/>
<rect x="720.096" y="442.75" width="104.135" height="109.408" fill="#F7F7F7"/>
<rect x="720.096" y="442.75" width="104.135" height="109.408" stroke="#DADADA" stroke-width="2"/>
<rect x="824.23" y="442.75" width="104.135" height="109.408" fill="#F7F7F7"/>
<rect x="824.23" y="442.75" width="104.135" height="109.408" stroke="#DADADA" stroke-width="2"/>
<rect x="928.365" y="442.75" width="104.135" height="109.408" fill="#F7F7F7"/>
<rect x="928.365" y="442.75" width="104.135" height="109.408" stroke="#DADADA" stroke-width="2"/>
<rect x="1032.5" y="442.75" width="104.135" height="109.408" fill="#F7F7F7"/>
<rect x="1032.5" y="442.75" width="104.135" height="109.408" stroke="#DADADA" stroke-width="2"/>
<rect x="1136.63" y="442.75" width="104.135" height="109.408" fill="#F7F7F7"/>
<rect x="1136.63" y="442.75" width="104.135" height="109.408" stroke="#DADADA" stroke-width="2"/>
<rect x="407.547" y="333.342" width="104.135" height="109.408" fill="#F7F7F7"/>
<path d="M435.906 394.988H440.495V382.826L435.906 386.096V381.908L440.754 378.466H444.798V394.988H448.527V398.545H435.906V394.988ZM449.958 395.418L456.985 389.366C457.635 388.792 458.19 388.295 458.649 387.875C459.108 387.435 459.481 387.033 459.767 386.67C460.054 386.307 460.255 385.953 460.37 385.609C460.504 385.264 460.571 384.891 460.571 384.49C460.571 383.668 460.341 383.008 459.882 382.511C459.423 381.994 458.744 381.736 457.846 381.736C456.813 381.736 456 382.023 455.408 382.597C454.834 383.151 454.547 384.117 454.547 385.494H450.244C450.244 383.218 450.885 381.421 452.166 380.101C453.467 378.782 455.36 378.122 457.846 378.122C459.012 378.122 460.026 378.285 460.886 378.61C461.766 378.916 462.502 379.356 463.095 379.929C463.688 380.484 464.127 381.153 464.414 381.937C464.72 382.721 464.873 383.572 464.873 384.49C464.873 385.178 464.749 385.838 464.5 386.469C464.252 387.081 463.907 387.674 463.468 388.247C463.047 388.821 462.55 389.385 461.976 389.94C461.402 390.475 460.791 391.011 460.14 391.546L456.01 394.988H465.16V398.545H449.958V395.418ZM475.332 398.889C474.127 398.889 473.037 398.755 472.062 398.488C471.105 398.201 470.293 397.809 469.623 397.312C468.973 396.795 468.467 396.183 468.103 395.476C467.759 394.749 467.587 393.946 467.587 393.066C467.587 391.938 467.931 390.934 468.62 390.055C469.308 389.156 470.331 388.525 471.689 388.161C470.675 387.836 469.834 387.272 469.165 386.469C468.495 385.666 468.161 384.71 468.161 383.601C468.161 382.798 468.314 382.061 468.62 381.392C468.945 380.723 469.413 380.149 470.025 379.671C470.637 379.174 471.383 378.791 472.262 378.524C473.161 378.256 474.184 378.122 475.332 378.122C476.479 378.122 477.492 378.256 478.372 378.524C479.271 378.791 480.026 379.174 480.638 379.671C481.269 380.149 481.738 380.723 482.043 381.392C482.369 382.061 482.531 382.798 482.531 383.601C482.531 384.71 482.196 385.656 481.527 386.44C480.858 387.205 480.007 387.779 478.974 388.161C481.709 389.003 483.076 390.638 483.076 393.066C483.076 393.946 482.894 394.749 482.531 395.476C482.187 396.183 481.68 396.795 481.011 397.312C480.361 397.809 479.558 398.201 478.601 398.488C477.645 398.755 476.555 398.889 475.332 398.889ZM475.332 395.275C476.517 395.275 477.387 395.046 477.942 394.587C478.496 394.128 478.774 393.506 478.774 392.722C478.774 391.862 478.448 391.183 477.798 390.686C477.167 390.169 476.345 389.835 475.332 389.682C474.318 389.835 473.486 390.169 472.836 390.686C472.205 391.183 471.889 391.862 471.889 392.722C471.889 393.506 472.176 394.128 472.75 394.587C473.324 395.046 474.184 395.275 475.332 395.275ZM475.332 386.756C476.192 386.603 476.89 386.307 477.425 385.867C477.961 385.408 478.229 384.777 478.229 383.974C478.229 383.228 477.97 382.673 477.454 382.31C476.957 381.928 476.249 381.736 475.332 381.736C474.433 381.736 473.725 381.928 473.209 382.31C472.712 382.673 472.463 383.228 472.463 383.974C472.463 384.777 472.721 385.408 473.238 385.867C473.773 386.307 474.471 386.603 475.332 386.756Z" fill="black"/>
<rect x="407.547" y="333.342" width="104.135" height="109.408" stroke="#DADADA" stroke-width="2"/>
<rect x="511.682" y="333.342" width="104.135" height="109.408" fill="#F7F7F7"/>
<path d="M555.072 398.889C553.81 398.889 552.691 398.707 551.716 398.344C550.741 397.981 549.919 397.417 549.249 396.652C548.58 395.868 548.064 394.873 547.7 393.669C547.356 392.464 547.184 391.03 547.184 389.366V388.792C547.184 386.88 547.385 385.255 547.787 383.916C548.188 382.559 548.752 381.449 549.479 380.589C550.206 379.728 551.066 379.107 552.06 378.724C553.074 378.323 554.173 378.122 555.359 378.122C557.214 378.122 558.715 378.514 559.862 379.298C561.01 380.082 561.708 381.383 561.956 383.199H557.941C557.558 382.224 556.65 381.736 555.216 381.736C554.661 381.736 554.145 381.822 553.667 381.994C553.208 382.147 552.797 382.444 552.433 382.884C552.089 383.304 551.812 383.888 551.601 384.633C551.391 385.379 551.257 386.335 551.2 387.502C551.448 387.119 551.754 386.804 552.118 386.555C552.481 386.287 552.873 386.077 553.294 385.924C553.734 385.752 554.183 385.628 554.642 385.551C555.12 385.475 555.598 385.436 556.076 385.436C558.103 385.436 559.662 385.991 560.752 387.1C561.842 388.19 562.387 389.739 562.387 391.747V392.062C562.387 393.076 562.205 394.003 561.842 394.845C561.478 395.686 560.971 396.413 560.321 397.025C559.69 397.617 558.925 398.076 558.027 398.402C557.128 398.727 556.143 398.889 555.072 398.889ZM554.785 395.275C555.818 395.275 556.621 394.988 557.195 394.414C557.788 393.822 558.084 393.066 558.084 392.148V391.862C558.084 390.944 557.788 390.198 557.195 389.624C556.621 389.051 555.818 388.764 554.785 388.764C553.753 388.764 552.94 389.051 552.347 389.624C551.774 390.198 551.487 390.944 551.487 391.862V392.148C551.487 393.066 551.774 393.822 552.347 394.414C552.94 394.988 553.753 395.275 554.785 395.275ZM573.717 394.3H564.251V391.317L573.717 378.466H578.019V390.743H580.314V394.3H578.019V398.545H573.717V394.3ZM573.717 390.743V383.257L568.267 390.743H573.717Z" fill="black"/>
<rect x="511.682" y="333.342" width="104.135" height="109.408" stroke="#DADADA" stroke-width="2"/>
<rect x="615.816" y="333.342" width="104.135" height="109.408" fill="#F7F7F7"/>
<path d="M658.846 398.889C656.399 398.889 654.544 398.315 653.282 397.168C652.02 396.002 651.389 394.405 651.389 392.378H655.691C655.691 393.353 655.94 394.08 656.437 394.558C656.953 395.036 657.756 395.275 658.846 395.275C659.898 395.275 660.682 395.046 661.199 394.587C661.734 394.109 662.002 393.439 662.002 392.579C662.002 390.781 660.95 389.882 658.846 389.882H656.982V386.555H658.846C659.764 386.555 660.472 386.364 660.969 385.981C661.466 385.599 661.715 385.006 661.715 384.203C661.715 383.476 661.476 382.884 660.998 382.425C660.52 381.966 659.803 381.736 658.846 381.736C657.871 381.736 657.145 381.966 656.666 382.425C656.208 382.865 655.978 383.505 655.978 384.346H651.676C651.676 382.377 652.268 380.847 653.454 379.757C654.659 378.667 656.456 378.122 658.846 378.122C660.051 378.122 661.103 378.266 662.002 378.552C662.9 378.82 663.646 379.203 664.239 379.7C664.832 380.178 665.272 380.751 665.558 381.421C665.864 382.09 666.017 382.817 666.017 383.601C666.017 384.71 665.702 385.656 665.071 386.44C664.459 387.205 663.637 387.75 662.604 388.075C663.79 388.4 664.698 388.965 665.329 389.768C665.979 390.571 666.304 391.632 666.304 392.952C666.304 393.812 666.132 394.606 665.788 395.332C665.444 396.059 664.947 396.69 664.296 397.225C663.665 397.742 662.881 398.153 661.944 398.459C661.026 398.746 659.994 398.889 658.846 398.889ZM668.612 395.418L675.64 389.366C676.29 388.792 676.845 388.295 677.304 387.875C677.762 387.435 678.135 387.033 678.422 386.67C678.709 386.307 678.91 385.953 679.025 385.609C679.158 385.264 679.225 384.891 679.225 384.49C679.225 383.668 678.996 383.008 678.537 382.511C678.078 381.994 677.399 381.736 676.5 381.736C675.468 381.736 674.655 382.023 674.062 382.597C673.489 383.151 673.202 384.117 673.202 385.494H668.899C668.899 383.218 669.54 381.421 670.821 380.101C672.121 378.782 674.014 378.122 676.5 378.122C677.667 378.122 678.68 378.285 679.541 378.61C680.42 378.916 681.157 379.356 681.749 379.929C682.342 380.484 682.782 381.153 683.069 381.937C683.375 382.721 683.528 383.572 683.528 384.49C683.528 385.178 683.404 385.838 683.155 386.469C682.906 387.081 682.562 387.674 682.122 388.247C681.702 388.821 681.204 389.385 680.631 389.94C680.057 390.475 679.445 391.011 678.795 391.546L674.665 394.988H683.815V398.545H668.612V395.418Z" fill="black"/>
<rect x="615.816" y="333.342" width="104.135" height="109.408" stroke="#DADADA" stroke-width="2"/>
<rect x="719.951" y="333.342" width="104.135" height="109.408" fill="#F7F7F7"/>
<path d="M756.81 394.988H761.4V382.826L756.81 386.096V381.908L761.658 378.466H765.702V394.988H769.431V398.545H756.81V394.988ZM779.324 398.889C778.062 398.889 776.943 398.707 775.968 398.344C774.992 397.981 774.17 397.417 773.501 396.652C772.832 395.868 772.315 394.873 771.952 393.669C771.608 392.464 771.436 391.03 771.436 389.366V388.792C771.436 386.88 771.636 385.255 772.038 383.916C772.44 382.559 773.004 381.449 773.73 380.589C774.457 379.728 775.317 379.107 776.312 378.724C777.325 378.323 778.425 378.122 779.61 378.122C781.465 378.122 782.966 378.514 784.114 379.298C785.261 380.082 785.959 381.383 786.208 383.199H782.192C781.81 382.224 780.901 381.736 779.467 381.736C778.912 381.736 778.396 381.822 777.918 381.994C777.459 382.147 777.048 382.444 776.685 382.884C776.341 383.304 776.063 383.888 775.853 384.633C775.643 385.379 775.509 386.335 775.451 387.502C775.7 387.119 776.006 386.804 776.369 386.555C776.733 386.287 777.125 386.077 777.545 385.924C777.985 385.752 778.434 385.628 778.893 385.551C779.371 385.475 779.849 385.436 780.328 385.436C782.355 385.436 783.913 385.991 785.003 387.1C786.093 388.19 786.638 389.739 786.638 391.747V392.062C786.638 393.076 786.456 394.003 786.093 394.845C785.73 395.686 785.223 396.413 784.573 397.025C783.942 397.617 783.177 398.076 782.278 398.402C781.379 398.727 780.394 398.889 779.324 398.889ZM779.037 395.275C780.069 395.275 780.873 394.988 781.446 394.414C782.039 393.822 782.335 393.066 782.335 392.148V391.862C782.335 390.944 782.039 390.198 781.446 389.624C780.873 389.051 780.069 388.764 779.037 388.764C778.004 388.764 777.191 389.051 776.599 389.624C776.025 390.198 775.738 390.944 775.738 391.862V392.148C775.738 393.066 776.025 393.822 776.599 394.414C777.191 394.988 778.004 395.275 779.037 395.275Z" fill="black"/>
<rect x="719.951" y="333.342" width="104.135" height="109.408" stroke="#DADADA" stroke-width="2"/>
<rect x="824.086" y="333.342" width="104.135" height="109.408" fill="#F7F7F7"/>
<path d="M875.69 398.889C874.485 398.889 873.395 398.755 872.42 398.488C871.464 398.201 870.651 397.809 869.982 397.312C869.331 396.795 868.825 396.183 868.461 395.476C868.117 394.749 867.945 393.946 867.945 393.066C867.945 391.938 868.289 390.934 868.978 390.055C869.666 389.156 870.689 388.525 872.047 388.161C871.033 387.836 870.192 387.272 869.523 386.469C868.853 385.666 868.519 384.71 868.519 383.601C868.519 382.798 868.672 382.061 868.978 381.392C869.303 380.723 869.771 380.149 870.383 379.671C870.995 379.174 871.741 378.791 872.621 378.524C873.519 378.256 874.542 378.122 875.69 378.122C876.837 378.122 877.85 378.256 878.73 378.524C879.629 378.791 880.384 379.174 880.996 379.671C881.627 380.149 882.096 380.723 882.402 381.392C882.727 382.061 882.889 382.798 882.889 383.601C882.889 384.71 882.555 385.656 881.885 386.44C881.216 387.205 880.365 387.779 879.332 388.161C882.067 389.003 883.434 390.638 883.434 393.066C883.434 393.946 883.253 394.749 882.889 395.476C882.545 396.183 882.038 396.795 881.369 397.312C880.719 397.809 879.916 398.201 878.96 398.488C878.003 398.755 876.913 398.889 875.69 398.889ZM875.69 395.275C876.875 395.275 877.745 395.046 878.3 394.587C878.854 394.128 879.132 393.506 879.132 392.722C879.132 391.862 878.807 391.183 878.156 390.686C877.525 390.169 876.703 389.835 875.69 389.682C874.676 389.835 873.844 390.169 873.194 390.686C872.563 391.183 872.248 391.862 872.248 392.722C872.248 393.506 872.534 394.128 873.108 394.587C873.682 395.046 874.542 395.275 875.69 395.275ZM875.69 386.756C876.55 386.603 877.248 386.307 877.784 385.867C878.319 385.408 878.587 384.777 878.587 383.974C878.587 383.228 878.329 382.673 877.812 382.31C877.315 381.928 876.608 381.736 875.69 381.736C874.791 381.736 874.083 381.928 873.567 382.31C873.07 382.673 872.821 383.228 872.821 383.974C872.821 384.777 873.079 385.408 873.596 385.867C874.131 386.307 874.829 386.603 875.69 386.756Z" fill="black"/>
<rect x="824.086" y="333.342" width="104.135" height="109.408" stroke="#DADADA" stroke-width="2"/>
<rect x="928.221" y="333.342" width="104.135" height="109.408" fill="#F7F7F7"/>
<path d="M980.828 394.3H971.363V391.317L980.828 378.466H985.131V390.743H987.426V394.3H985.131V398.545H980.828V394.3ZM980.828 390.743V383.257L975.378 390.743H980.828Z" fill="black"/>
<rect x="928.221" y="333.342" width="104.135" height="109.408" stroke="#DADADA" stroke-width="2"/>
<rect x="1032.36" y="333.342" width="104.135" height="109.408" fill="#F7F7F7"/>
<path d="M1076.28 395.418L1083.31 389.366C1083.96 388.792 1084.52 388.295 1084.98 387.875C1085.43 387.435 1085.81 387.033 1086.09 386.67C1086.38 386.307 1086.58 385.953 1086.7 385.609C1086.83 385.264 1086.9 384.891 1086.9 384.49C1086.9 383.668 1086.67 383.008 1086.21 382.511C1085.75 381.994 1085.07 381.736 1084.17 381.736C1083.14 381.736 1082.33 382.023 1081.73 382.597C1081.16 383.151 1080.87 384.117 1080.87 385.494H1076.57C1076.57 383.218 1077.21 381.421 1078.49 380.101C1079.79 378.782 1081.69 378.122 1084.17 378.122C1085.34 378.122 1086.35 378.285 1087.21 378.61C1088.09 378.916 1088.83 379.356 1089.42 379.929C1090.01 380.484 1090.45 381.153 1090.74 381.937C1091.05 382.721 1091.2 383.572 1091.2 384.49C1091.2 385.178 1091.08 385.838 1090.83 386.469C1090.58 387.081 1090.23 387.674 1089.79 388.247C1089.37 388.821 1088.88 389.385 1088.3 389.94C1087.73 390.475 1087.12 391.011 1086.47 391.546L1082.34 394.988H1091.49V398.545H1076.28V395.418Z" fill="black"/>
<rect x="1032.36" y="333.342" width="104.135" height="109.408" stroke="#DADADA" stroke-width="2"/>
<rect x="1136.49" y="333.342" width="104.135" height="109.408" fill="#F7F7F7"/>
<path d="M1182.35 394.988H1186.94V382.826L1182.35 386.096V381.908L1187.2 378.466H1191.24V394.988H1194.97V398.545H1182.35V394.988Z" fill="black"/>
<rect x="1136.49" y="333.342" width="104.135" height="109.408" stroke="#DADADA" stroke-width="2"/>
<path d="M231.081 372.813H243.05V388.045H241.004V374.597H233.127V388.045H231.081V372.813ZM251.754 388.263C251.014 388.263 250.31 388.146 249.643 387.914C248.976 387.668 248.388 387.305 247.88 386.826C247.373 386.333 246.966 385.717 246.662 384.977C246.357 384.237 246.205 383.374 246.205 382.387V381.952C246.205 381.024 246.357 380.204 246.662 379.493C246.966 378.782 247.373 378.195 247.88 377.731C248.388 377.252 248.976 376.896 249.643 376.664C250.31 376.418 251.014 376.294 251.754 376.294C252.494 376.294 253.197 376.418 253.864 376.664C254.532 376.896 255.119 377.252 255.627 377.731C256.135 378.195 256.541 378.782 256.846 379.493C257.15 380.204 257.303 381.024 257.303 381.952V382.387C257.303 383.374 257.15 384.237 256.846 384.977C256.541 385.717 256.135 386.333 255.627 386.826C255.119 387.305 254.532 387.668 253.864 387.914C253.197 388.146 252.494 388.263 251.754 388.263ZM251.754 386.522C252.189 386.522 252.624 386.449 253.059 386.304C253.495 386.145 253.879 385.905 254.213 385.586C254.546 385.252 254.815 384.824 255.018 384.302C255.235 383.78 255.344 383.142 255.344 382.387V381.952C255.344 381.256 255.235 380.661 255.018 380.168C254.815 379.674 254.546 379.268 254.213 378.949C253.879 378.63 253.495 378.398 253.059 378.253C252.624 378.108 252.189 378.035 251.754 378.035C251.318 378.035 250.883 378.108 250.448 378.253C250.013 378.398 249.628 378.63 249.295 378.949C248.961 379.268 248.685 379.674 248.468 380.168C248.265 380.661 248.163 381.256 248.163 381.952V382.387C248.163 383.142 248.265 383.78 248.468 384.302C248.685 384.824 248.961 385.252 249.295 385.586C249.628 385.905 250.013 386.145 250.448 386.304C250.883 386.449 251.318 386.522 251.754 386.522ZM263.931 388.263C262.48 388.263 261.341 387.958 260.515 387.349C259.688 386.739 259.231 385.883 259.144 384.781H261.059C261.16 385.347 261.458 385.782 261.951 386.086C262.459 386.377 263.119 386.522 263.931 386.522C264.932 386.522 265.657 386.355 266.107 386.021C266.571 385.673 266.803 385.26 266.803 384.781C266.803 384.215 266.615 383.773 266.238 383.453C265.86 383.12 265.208 382.953 264.279 382.953H262.299V381.386H264.149C264.946 381.386 265.512 381.234 265.846 380.929C266.194 380.625 266.368 380.197 266.368 379.645C266.368 379.21 266.165 378.833 265.759 378.514C265.353 378.195 264.743 378.035 263.931 378.035C263.046 378.035 262.4 378.18 261.994 378.47C261.603 378.746 261.363 379.145 261.276 379.667H259.361C259.405 379.188 259.535 378.746 259.753 378.34C259.985 377.919 260.297 377.556 260.689 377.252C261.08 376.947 261.545 376.715 262.081 376.555C262.633 376.381 263.249 376.294 263.931 376.294C264.671 376.294 265.309 376.381 265.846 376.555C266.397 376.715 266.854 376.947 267.217 377.252C267.579 377.542 267.848 377.89 268.022 378.296C268.196 378.702 268.283 379.152 268.283 379.645C268.283 380.197 268.145 380.683 267.87 381.103C267.594 381.51 267.152 381.829 266.542 382.061C267.355 382.278 267.92 382.627 268.24 383.105C268.559 383.584 268.718 384.143 268.718 384.781C268.718 385.26 268.617 385.709 268.414 386.13C268.211 386.551 267.906 386.921 267.5 387.24C267.108 387.544 266.607 387.791 265.998 387.98C265.403 388.168 264.714 388.263 263.931 388.263ZM271.447 376.512H273.362V385.216L279.324 376.512H281.239V388.045H279.324V379.341L273.362 388.045H271.447V376.512ZM294.107 388.045H284.728V376.512H286.643V386.348H292.17V376.512H294.085V386.348H295.935V390.765H294.107V388.045ZM298.222 376.512H300.137V385.216L306.099 376.512H308.014V388.045H306.099V379.341L300.137 388.045H298.222V376.512ZM316.291 388.263C315.551 388.263 314.848 388.146 314.18 387.914C313.513 387.668 312.925 387.305 312.418 386.826C311.91 386.333 311.504 385.717 311.199 384.977C310.894 384.237 310.742 383.374 310.742 382.387V381.952C310.742 381.024 310.894 380.204 311.199 379.493C311.504 378.782 311.91 378.195 312.418 377.731C312.925 377.252 313.513 376.896 314.18 376.664C314.848 376.418 315.551 376.294 316.291 376.294C317.031 376.294 317.734 376.418 318.402 376.664C319.069 376.896 319.657 377.252 320.164 377.731C320.672 378.195 321.078 378.782 321.383 379.493C321.688 380.204 321.84 381.024 321.84 381.952V382.387C321.84 383.374 321.688 384.237 321.383 384.977C321.078 385.717 320.672 386.333 320.164 386.826C319.657 387.305 319.069 387.668 318.402 387.914C317.734 388.146 317.031 388.263 316.291 388.263ZM316.291 386.522C316.726 386.522 317.161 386.449 317.597 386.304C318.032 386.145 318.416 385.905 318.75 385.586C319.084 385.252 319.352 384.824 319.555 384.302C319.773 383.78 319.881 383.142 319.881 382.387V381.952C319.881 381.256 319.773 380.661 319.555 380.168C319.352 379.674 319.084 379.268 318.75 378.949C318.416 378.63 318.032 378.398 317.597 378.253C317.161 378.108 316.726 378.035 316.291 378.035C315.856 378.035 315.421 378.108 314.985 378.253C314.55 378.398 314.166 378.63 313.832 378.949C313.498 379.268 313.223 379.674 313.005 380.168C312.802 380.661 312.701 381.256 312.701 381.952V382.387C312.701 383.142 312.802 383.78 313.005 384.302C313.223 384.824 313.498 385.252 313.832 385.586C314.166 385.905 314.55 386.145 314.985 386.304C315.421 386.449 315.856 386.522 316.291 386.522ZM324.551 376.512H326.466V381.321H332.429V376.512H334.344V388.045H332.429V383.018H326.466V388.045H324.551V376.512ZM337.833 376.512H339.748V381.321H345.71V376.512H347.625V388.045H345.71V383.018H339.748V388.045H337.833V376.512ZM355.902 388.263C355.162 388.263 354.458 388.146 353.791 387.914C353.124 387.668 352.536 387.305 352.028 386.826C351.521 386.333 351.114 385.717 350.81 384.977C350.505 384.237 350.353 383.374 350.353 382.387V381.952C350.353 381.024 350.505 380.204 350.81 379.493C351.114 378.782 351.521 378.195 352.028 377.731C352.536 377.252 353.124 376.896 353.791 376.664C354.458 376.418 355.162 376.294 355.902 376.294C356.641 376.294 357.345 376.418 358.012 376.664C358.68 376.896 359.267 377.252 359.775 377.731C360.283 378.195 360.689 378.782 360.994 379.493C361.298 380.204 361.45 381.024 361.45 381.952V382.387C361.45 383.374 361.298 384.237 360.994 384.977C360.689 385.717 360.283 386.333 359.775 386.826C359.267 387.305 358.68 387.668 358.012 387.914C357.345 388.146 356.641 388.263 355.902 388.263ZM355.902 386.522C356.337 386.522 356.772 386.449 357.207 386.304C357.642 386.145 358.027 385.905 358.361 385.586C358.694 385.252 358.963 384.824 359.166 384.302C359.383 383.78 359.492 383.142 359.492 382.387V381.952C359.492 381.256 359.383 380.661 359.166 380.168C358.963 379.674 358.694 379.268 358.361 378.949C358.027 378.63 357.642 378.398 357.207 378.253C356.772 378.108 356.337 378.035 355.902 378.035C355.466 378.035 355.031 378.108 354.596 378.253C354.161 378.398 353.776 378.63 353.443 378.949C353.109 379.268 352.833 379.674 352.616 380.168C352.413 380.661 352.311 381.256 352.311 381.952V382.387C352.311 383.142 352.413 383.78 352.616 384.302C352.833 384.824 353.109 385.252 353.443 385.586C353.776 385.905 354.161 386.145 354.596 386.304C355.031 386.449 355.466 386.522 355.902 386.522ZM368.949 388.263C368.209 388.263 367.506 388.146 366.839 387.914C366.171 387.682 365.584 387.327 365.076 386.848C364.568 386.355 364.162 385.738 363.857 384.998C363.553 384.259 363.4 383.388 363.4 382.387V381.952C363.4 380.995 363.545 380.168 363.836 379.471C364.126 378.761 364.51 378.173 364.989 377.709C365.482 377.23 366.048 376.875 366.686 376.642C367.339 376.41 368.021 376.294 368.732 376.294C370.429 376.294 371.742 376.759 372.67 377.687C373.599 378.615 374.063 379.928 374.063 381.626V382.844H365.315C365.315 383.526 365.424 384.099 365.642 384.563C365.859 385.027 366.142 385.405 366.49 385.695C366.839 385.985 367.223 386.195 367.644 386.326C368.079 386.456 368.514 386.522 368.949 386.522C369.82 386.522 370.487 386.377 370.951 386.086C371.43 385.796 371.771 385.397 371.974 384.89H373.845C373.729 385.441 373.519 385.927 373.214 386.348C372.924 386.768 372.562 387.124 372.126 387.414C371.706 387.69 371.22 387.9 370.668 388.045C370.132 388.19 369.559 388.263 368.949 388.263ZM368.841 378.035C368.391 378.035 367.956 378.1 367.535 378.231C367.114 378.347 366.737 378.543 366.403 378.819C366.084 379.08 365.823 379.413 365.62 379.82C365.417 380.226 365.315 380.712 365.315 381.277H372.257C372.242 380.683 372.141 380.182 371.952 379.776C371.778 379.355 371.539 379.022 371.234 378.775C370.93 378.514 370.567 378.325 370.146 378.209C369.74 378.093 369.305 378.035 368.841 378.035ZM257.184 412.263C255.733 412.263 254.595 411.958 253.768 411.349C252.941 410.739 252.484 409.883 252.397 408.781H254.312C254.413 409.347 254.711 409.782 255.204 410.086C255.712 410.377 256.372 410.522 257.184 410.522C258.185 410.522 258.91 410.355 259.36 410.021C259.824 409.673 260.056 409.26 260.056 408.781C260.056 408.215 259.868 407.773 259.491 407.453C259.113 407.12 258.461 406.953 257.532 406.953H255.552V405.386H257.402C258.199 405.386 258.765 405.234 259.099 404.929C259.447 404.625 259.621 404.197 259.621 403.645C259.621 403.21 259.418 402.833 259.012 402.514C258.606 402.195 257.996 402.035 257.184 402.035C256.299 402.035 255.654 402.18 255.247 402.47C254.856 402.746 254.616 403.145 254.529 403.667H252.614C252.658 403.188 252.788 402.746 253.006 402.34C253.238 401.919 253.55 401.556 253.942 401.252C254.333 400.947 254.798 400.715 255.334 400.555C255.886 400.381 256.502 400.294 257.184 400.294C257.924 400.294 258.562 400.381 259.099 400.555C259.65 400.715 260.107 400.947 260.47 401.252C260.832 401.542 261.101 401.89 261.275 402.296C261.449 402.702 261.536 403.152 261.536 403.645C261.536 404.197 261.398 404.683 261.123 405.103C260.847 405.51 260.405 405.829 259.795 406.061C260.608 406.278 261.173 406.627 261.493 407.105C261.812 407.584 261.971 408.143 261.971 408.781C261.971 409.26 261.87 409.709 261.667 410.13C261.464 410.551 261.159 410.921 260.753 411.24C260.361 411.544 259.861 411.791 259.251 411.98C258.656 412.168 257.967 412.263 257.184 412.263ZM264.7 400.512H266.615V405.321H272.577V400.512H274.492V412.045H272.577V407.018H266.615V412.045H264.7V400.512ZM281.267 412.263C280.629 412.263 280.063 412.175 279.57 412.001C279.091 411.813 278.685 411.559 278.351 411.24C278.018 410.921 277.764 410.543 277.59 410.108C277.416 409.673 277.328 409.194 277.328 408.672C277.328 407.526 277.662 406.699 278.329 406.191C279.011 405.684 279.983 405.43 281.245 405.43H284.988V404.646C284.988 403.66 284.763 402.978 284.314 402.601C283.878 402.224 283.218 402.035 282.333 402.035C281.506 402.035 280.904 402.195 280.527 402.514C280.15 402.819 279.94 403.167 279.896 403.558H277.981C278.01 403.094 278.134 402.666 278.351 402.275C278.583 401.868 278.888 401.52 279.265 401.23C279.657 400.94 280.121 400.715 280.658 400.555C281.195 400.381 281.789 400.294 282.442 400.294C283.806 400.294 284.887 400.621 285.684 401.274C286.497 401.912 286.903 402.964 286.903 404.429V409.107C286.903 409.717 286.903 410.253 286.903 410.718C286.918 411.167 286.954 411.61 287.012 412.045H285.336C285.293 411.711 285.264 411.399 285.249 411.109C285.235 410.805 285.227 410.464 285.227 410.086C284.923 410.696 284.43 411.211 283.748 411.631C283.066 412.052 282.239 412.263 281.267 412.263ZM281.681 410.522C282.13 410.522 282.551 410.464 282.943 410.348C283.349 410.217 283.704 410.036 284.009 409.804C284.314 409.557 284.553 409.26 284.727 408.911C284.901 408.563 284.988 408.157 284.988 407.693V406.909H281.572C280.861 406.909 280.302 407.055 279.896 407.345C279.49 407.62 279.287 408.063 279.287 408.672C279.287 409.209 279.475 409.651 279.853 409.999C280.244 410.348 280.854 410.522 281.681 410.522ZM296.966 407.453C296.632 407.657 296.226 407.838 295.747 407.997C295.283 408.157 294.695 408.237 293.984 408.237C293.317 408.237 292.715 408.164 292.178 408.019C291.656 407.874 291.214 407.642 290.851 407.323C290.488 407.004 290.213 406.59 290.024 406.083C289.836 405.575 289.741 404.951 289.741 404.211V400.512H291.656V403.885C291.656 404.378 291.7 404.791 291.787 405.125C291.888 405.459 292.048 405.727 292.265 405.93C292.483 406.133 292.759 406.278 293.092 406.365C293.426 406.453 293.832 406.496 294.311 406.496C294.964 406.496 295.522 406.431 295.986 406.3C296.451 406.17 296.777 406.032 296.966 405.887V400.512H298.881V412.045H296.966V407.453ZM307.143 412.263C306.403 412.263 305.699 412.146 305.032 411.914C304.365 411.682 303.777 411.327 303.269 410.848C302.762 410.355 302.355 409.738 302.051 408.998C301.746 408.259 301.594 407.388 301.594 406.387V405.952C301.594 404.995 301.739 404.168 302.029 403.471C302.319 402.761 302.704 402.173 303.182 401.709C303.676 401.23 304.241 400.875 304.88 400.642C305.532 400.41 306.214 400.294 306.925 400.294C308.622 400.294 309.935 400.759 310.864 401.687C311.792 402.615 312.256 403.928 312.256 405.626V406.844H303.509C303.509 407.526 303.618 408.099 303.835 408.563C304.053 409.027 304.336 409.405 304.684 409.695C305.032 409.985 305.416 410.195 305.837 410.326C306.272 410.456 306.707 410.522 307.143 410.522C308.013 410.522 308.68 410.377 309.145 410.086C309.623 409.796 309.964 409.397 310.167 408.89H312.039C311.923 409.441 311.712 409.927 311.408 410.348C311.118 410.768 310.755 411.124 310.32 411.414C309.899 411.69 309.413 411.9 308.862 412.045C308.325 412.19 307.752 412.263 307.143 412.263ZM307.034 402.035C306.584 402.035 306.149 402.1 305.728 402.231C305.308 402.347 304.93 402.543 304.597 402.819C304.278 403.08 304.016 403.413 303.813 403.82C303.61 404.226 303.509 404.712 303.509 405.277H310.45C310.436 404.683 310.334 404.182 310.146 403.776C309.972 403.355 309.732 403.022 309.428 402.775C309.123 402.514 308.76 402.325 308.34 402.209C307.933 402.093 307.498 402.035 307.034 402.035ZM314.978 400.512H316.893V405.321H322.855V400.512H324.77V412.045H322.855V407.018H316.893V412.045H314.978V400.512ZM328.26 400.512H330.174V409.216L336.137 400.512H338.052V412.045H336.137V403.341L330.174 412.045H328.26V400.512ZM346.328 412.263C345.588 412.263 344.885 412.146 344.218 411.914C343.55 411.682 342.963 411.327 342.455 410.848C341.947 410.355 341.541 409.738 341.236 408.998C340.932 408.259 340.779 407.388 340.779 406.387V405.952C340.779 404.995 340.925 404.168 341.215 403.471C341.505 402.761 341.889 402.173 342.368 401.709C342.861 401.23 343.427 400.875 344.065 400.642C344.718 400.41 345.4 400.294 346.111 400.294C347.808 400.294 349.121 400.759 350.049 401.687C350.978 402.615 351.442 403.928 351.442 405.626V406.844H342.694C342.694 407.526 342.803 408.099 343.021 408.563C343.238 409.027 343.521 409.405 343.869 409.695C344.218 409.985 344.602 410.195 345.023 410.326C345.458 410.456 345.893 410.522 346.328 410.522C347.199 410.522 347.866 410.377 348.33 410.086C348.809 409.796 349.15 409.397 349.353 408.89H351.224C351.108 409.441 350.898 409.927 350.593 410.348C350.303 410.768 349.941 411.124 349.505 411.414C349.085 411.69 348.599 411.9 348.047 412.045C347.511 412.19 346.938 412.263 346.328 412.263ZM346.22 402.035C345.77 402.035 345.335 402.1 344.914 402.231C344.493 402.347 344.116 402.543 343.782 402.819C343.463 403.08 343.202 403.413 342.999 403.82C342.796 404.226 342.694 404.712 342.694 405.277H349.636C349.621 404.683 349.52 404.182 349.331 403.776C349.157 403.355 348.918 403.022 348.613 402.775C348.309 402.514 347.946 402.325 347.525 402.209C347.119 402.093 346.684 402.035 346.22 402.035Z" fill="black"/>
<path d="M169.231 107.353H186.155V127.432H181.852V110.91H173.534V127.432H169.231V107.353ZM190.171 112.229H193.699V114.467C194.081 113.778 194.683 113.176 195.506 112.66C196.328 112.143 197.37 111.885 198.632 111.885C200.659 111.885 202.237 112.516 203.365 113.778C204.512 115.021 205.086 116.895 205.086 119.4V119.974C205.086 122.594 204.503 124.554 203.336 125.854C202.189 127.135 200.621 127.776 198.632 127.776C197.6 127.776 196.682 127.556 195.879 127.116C195.095 126.657 194.454 126.064 193.957 125.338V133.168H190.171V112.229ZM197.743 124.563C198.737 124.563 199.569 124.19 200.238 123.445C200.908 122.68 201.242 121.523 201.242 119.974V119.4C201.242 117.966 200.917 116.895 200.267 116.188C199.617 115.461 198.776 115.098 197.743 115.098C196.653 115.098 195.745 115.413 195.018 116.044C194.311 116.656 193.957 117.584 193.957 118.827V120.548C193.957 121.905 194.301 122.919 194.989 123.588C195.697 124.238 196.615 124.563 197.743 124.563ZM207.818 112.229H211.604V121.982L218.373 112.229H221.873V127.432H218.086V117.679L211.317 127.432H207.818V112.229ZM225.325 112.229H229.8L234.016 120.433L238.233 112.229H242.535V127.432H238.921V117.536L235.221 124.42H232.639L228.939 117.536V127.432H225.325V112.229ZM252.853 127.776C251.821 127.776 250.836 127.623 249.899 127.317C248.981 126.992 248.178 126.514 247.489 125.883C246.801 125.233 246.256 124.42 245.855 123.445C245.453 122.45 245.252 121.293 245.252 119.974V119.4C245.252 118.138 245.443 117.039 245.826 116.102C246.208 115.165 246.734 114.39 247.403 113.778C248.073 113.147 248.847 112.679 249.727 112.373C250.606 112.048 251.553 111.885 252.567 111.885C254.957 111.885 256.773 112.516 258.016 113.778C259.259 115.04 259.881 116.866 259.881 119.257V120.863H249.124C249.144 121.532 249.258 122.116 249.469 122.613C249.679 123.091 249.956 123.483 250.3 123.789C250.645 124.095 251.037 124.324 251.477 124.477C251.935 124.611 252.394 124.678 252.853 124.678C253.829 124.678 254.565 124.535 255.062 124.248C255.559 123.961 255.913 123.54 256.123 122.986H259.594C259.288 124.573 258.533 125.768 257.328 126.571C256.123 127.374 254.632 127.776 252.853 127.776ZM252.71 114.983C252.27 114.983 251.83 115.04 251.39 115.155C250.97 115.27 250.597 115.451 250.272 115.7C249.947 115.949 249.679 116.283 249.469 116.704C249.258 117.125 249.144 117.631 249.124 118.224H256.209C256.19 117.593 256.085 117.067 255.894 116.647C255.722 116.226 255.473 115.891 255.148 115.643C254.842 115.394 254.479 115.222 254.058 115.126C253.637 115.031 253.188 114.983 252.71 114.983ZM262.608 112.229H266.136V114.467C266.519 113.778 267.121 113.176 267.943 112.66C268.765 112.143 269.808 111.885 271.07 111.885C273.097 111.885 274.674 112.516 275.803 113.778C276.95 115.021 277.524 116.895 277.524 119.4V119.974C277.524 122.594 276.94 124.554 275.774 125.854C274.627 127.135 273.058 127.776 271.07 127.776C270.037 127.776 269.119 127.556 268.316 127.116C267.532 126.657 266.891 126.064 266.394 125.338V133.168H262.608V112.229ZM270.181 124.563C271.175 124.563 272.007 124.19 272.676 123.445C273.345 122.68 273.68 121.523 273.68 119.974V119.4C273.68 117.966 273.355 116.895 272.705 116.188C272.055 115.461 271.213 115.098 270.181 115.098C269.091 115.098 268.182 115.413 267.456 116.044C266.748 116.656 266.394 117.584 266.394 118.827V120.548C266.394 121.905 266.738 122.919 267.427 123.588C268.134 124.238 269.052 124.563 270.181 124.563ZM282.98 127.776C282.311 127.776 281.737 127.537 281.259 127.059C280.781 126.581 280.542 126.007 280.542 125.338C280.542 124.63 280.781 124.047 281.259 123.588C281.737 123.129 282.311 122.9 282.98 122.9C283.649 122.9 284.223 123.129 284.701 123.588C285.179 124.047 285.418 124.63 285.418 125.338C285.418 126.007 285.179 126.581 284.701 127.059C284.223 127.537 283.649 127.776 282.98 127.776ZM282.98 116.761C282.311 116.761 281.737 116.522 281.259 116.044C280.781 115.566 280.542 114.992 280.542 114.323C280.542 113.616 280.781 113.032 281.259 112.573C281.737 112.115 282.311 111.885 282.98 111.885C283.649 111.885 284.223 112.115 284.701 112.573C285.179 113.032 285.418 113.616 285.418 114.323C285.418 114.992 285.179 115.566 284.701 116.044C284.223 116.522 283.649 116.761 282.98 116.761ZM295.876 123.875H300.465V111.713L295.876 114.983V110.795L300.723 107.353H304.767V123.875H308.496V127.432H295.876V123.875ZM317.528 127.776C315.616 127.776 314.077 127.365 312.91 126.542C311.744 125.72 311.036 124.439 310.788 122.699H314.803C314.995 123.196 315.301 123.569 315.721 123.817C316.161 124.047 316.811 124.162 317.672 124.162C318.188 124.162 318.666 124.085 319.106 123.932C319.565 123.76 319.966 123.464 320.311 123.043C320.655 122.603 320.932 122.01 321.142 121.265C321.353 120.519 321.487 119.563 321.544 118.396C321.295 118.779 320.99 119.104 320.626 119.372C320.263 119.62 319.861 119.83 319.421 120.003C319.001 120.156 318.551 120.27 318.073 120.347C317.614 120.423 317.146 120.462 316.668 120.462C314.641 120.462 313.082 119.917 311.992 118.827C310.902 117.717 310.357 116.159 310.357 114.151V113.836C310.357 112.822 310.539 111.895 310.902 111.053C311.266 110.212 311.763 109.495 312.394 108.902C313.044 108.29 313.819 107.822 314.717 107.496C315.616 107.171 316.601 107.009 317.672 107.009C320.215 107.009 322.166 107.755 323.523 109.246C324.881 110.738 325.56 113.166 325.56 116.532V117.077C325.56 119.008 325.359 120.653 324.957 122.01C324.556 123.349 323.992 124.449 323.265 125.309C322.558 126.17 321.707 126.801 320.712 127.202C319.737 127.585 318.676 127.776 317.528 127.776ZM317.959 117.134C318.991 117.134 319.794 116.847 320.368 116.274C320.961 115.7 321.257 114.954 321.257 114.036V113.75C321.257 112.851 320.951 112.105 320.339 111.512C319.747 110.919 318.953 110.623 317.959 110.623C316.926 110.623 316.113 110.919 315.52 111.512C314.947 112.086 314.66 112.832 314.66 113.75V114.036C314.66 114.954 314.947 115.7 315.52 116.274C316.113 116.847 316.926 117.134 317.959 117.134ZM327.854 124.305L334.882 118.253C335.532 117.679 336.087 117.182 336.546 116.761C337.005 116.321 337.377 115.92 337.664 115.557C337.951 115.193 338.152 114.84 338.267 114.495C338.401 114.151 338.467 113.778 338.467 113.377C338.467 112.554 338.238 111.895 337.779 111.397C337.32 110.881 336.641 110.623 335.742 110.623C334.71 110.623 333.897 110.91 333.304 111.484C332.731 112.038 332.444 113.004 332.444 114.381H328.141C328.141 112.105 328.782 110.307 330.063 108.988C331.363 107.669 333.257 107.009 335.742 107.009C336.909 107.009 337.922 107.171 338.783 107.496C339.663 107.802 340.399 108.242 340.992 108.816C341.584 109.37 342.024 110.04 342.311 110.824C342.617 111.608 342.77 112.459 342.77 113.377C342.77 114.065 342.646 114.725 342.397 115.356C342.149 115.968 341.804 116.561 341.364 117.134C340.944 117.708 340.447 118.272 339.873 118.827C339.299 119.362 338.687 119.897 338.037 120.433L333.907 123.875H343.057V127.432H327.854V124.305ZM348.639 127.776C347.97 127.776 347.396 127.537 346.918 127.059C346.44 126.581 346.201 126.007 346.201 125.338C346.201 124.63 346.44 124.047 346.918 123.588C347.396 123.129 347.97 122.9 348.639 122.9C349.308 122.9 349.882 123.129 350.36 123.588C350.838 124.047 351.077 124.63 351.077 125.338C351.077 126.007 350.838 126.581 350.36 127.059C349.882 127.537 349.308 127.776 348.639 127.776ZM354.363 123.875H358.953V111.713L354.363 114.983V110.795L359.211 107.353H363.255V123.875H366.984V127.432H354.363V123.875ZM376.877 127.776C375.615 127.776 374.496 127.594 373.521 127.231C372.545 126.868 371.723 126.303 371.054 125.539C370.385 124.754 369.868 123.76 369.505 122.555C369.161 121.351 368.989 119.917 368.989 118.253V117.679C368.989 115.767 369.189 114.142 369.591 112.803C369.993 111.445 370.557 110.336 371.283 109.476C372.01 108.615 372.871 107.994 373.865 107.611C374.878 107.21 375.978 107.009 377.164 107.009C379.018 107.009 380.52 107.401 381.667 108.185C382.814 108.969 383.512 110.269 383.761 112.086H379.745C379.363 111.111 378.454 110.623 377.02 110.623C376.466 110.623 375.949 110.709 375.471 110.881C375.012 111.034 374.601 111.331 374.238 111.77C373.894 112.191 373.616 112.774 373.406 113.52C373.196 114.266 373.062 115.222 373.004 116.388C373.253 116.006 373.559 115.69 373.922 115.442C374.286 115.174 374.678 114.964 375.098 114.811C375.538 114.639 375.987 114.514 376.446 114.438C376.924 114.361 377.403 114.323 377.881 114.323C379.908 114.323 381.466 114.878 382.556 115.987C383.646 117.077 384.191 118.626 384.191 120.634V120.949C384.191 121.963 384.009 122.89 383.646 123.731C383.283 124.573 382.776 125.299 382.126 125.911C381.495 126.504 380.73 126.963 379.831 127.288C378.932 127.613 377.948 127.776 376.877 127.776ZM376.59 124.162C377.622 124.162 378.426 123.875 378.999 123.301C379.592 122.708 379.888 121.953 379.888 121.035V120.748C379.888 119.83 379.592 119.085 378.999 118.511C378.426 117.937 377.622 117.651 376.59 117.651C375.557 117.651 374.745 117.937 374.152 118.511C373.578 119.085 373.291 119.83 373.291 120.748V121.035C373.291 121.953 373.578 122.708 374.152 123.301C374.745 123.875 375.557 124.162 376.59 124.162ZM394.517 127.776C393.312 127.776 392.222 127.642 391.247 127.374C390.291 127.087 389.478 126.695 388.809 126.198C388.159 125.682 387.652 125.07 387.289 124.362C386.945 123.636 386.773 122.833 386.773 121.953C386.773 120.825 387.117 119.821 387.805 118.941C388.494 118.043 389.517 117.411 390.874 117.048C389.861 116.723 389.019 116.159 388.35 115.356C387.681 114.553 387.346 113.597 387.346 112.487C387.346 111.684 387.499 110.948 387.805 110.279C388.13 109.61 388.599 109.036 389.211 108.558C389.823 108.061 390.568 107.678 391.448 107.41C392.347 107.143 393.37 107.009 394.517 107.009C395.664 107.009 396.678 107.143 397.558 107.41C398.456 107.678 399.212 108.061 399.824 108.558C400.455 109.036 400.923 109.61 401.229 110.279C401.554 110.948 401.717 111.684 401.717 112.487C401.717 113.597 401.382 114.543 400.713 115.327C400.044 116.092 399.193 116.666 398.16 117.048C400.894 117.89 402.262 119.525 402.262 121.953C402.262 122.833 402.08 123.636 401.717 124.362C401.373 125.07 400.866 125.682 400.197 126.198C399.546 126.695 398.743 127.087 397.787 127.374C396.831 127.642 395.741 127.776 394.517 127.776ZM394.517 124.162C395.703 124.162 396.573 123.932 397.127 123.473C397.682 123.014 397.959 122.393 397.959 121.609C397.959 120.748 397.634 120.069 396.984 119.572C396.353 119.056 395.531 118.721 394.517 118.568C393.504 118.721 392.672 119.056 392.022 119.572C391.391 120.069 391.075 120.748 391.075 121.609C391.075 122.393 391.362 123.014 391.936 123.473C392.509 123.932 393.37 124.162 394.517 124.162ZM394.517 115.643C395.378 115.49 396.076 115.193 396.611 114.753C397.146 114.295 397.414 113.663 397.414 112.86C397.414 112.115 397.156 111.56 396.64 111.197C396.143 110.814 395.435 110.623 394.517 110.623C393.618 110.623 392.911 110.814 392.395 111.197C391.897 111.56 391.649 112.115 391.649 112.86C391.649 113.663 391.907 114.295 392.423 114.753C392.959 115.193 393.657 115.49 394.517 115.643ZM407.995 127.776C407.326 127.776 406.752 127.537 406.274 127.059C405.796 126.581 405.557 126.007 405.557 125.338C405.557 124.63 405.796 124.047 406.274 123.588C406.752 123.129 407.326 122.9 407.995 122.9C408.664 122.9 409.238 123.129 409.716 123.588C410.194 124.047 410.433 124.63 410.433 125.338C410.433 126.007 410.194 126.581 409.716 127.059C409.238 127.537 408.664 127.776 407.995 127.776ZM413.72 123.875H418.309V111.713L413.72 114.983V110.795L418.567 107.353H422.611V123.875H426.34V127.432H413.72V123.875ZM436.089 127.776C434.999 127.776 433.976 127.604 433.02 127.26C432.083 126.896 431.271 126.313 430.582 125.51C429.894 124.688 429.349 123.617 428.947 122.297C428.546 120.959 428.345 119.324 428.345 117.392V116.819C428.345 115.021 428.546 113.501 428.947 112.258C429.349 111.015 429.894 110.011 430.582 109.246C431.271 108.462 432.083 107.898 433.02 107.554C433.976 107.191 434.999 107.009 436.089 107.009C437.179 107.009 438.193 107.191 439.13 107.554C440.086 107.898 440.908 108.462 441.597 109.246C442.285 110.011 442.83 111.015 443.232 112.258C443.633 113.501 443.834 115.021 443.834 116.819V117.392C443.834 119.324 443.633 120.959 443.232 122.297C442.83 123.617 442.285 124.688 441.597 125.51C440.908 126.313 440.086 126.896 439.13 127.26C438.193 127.604 437.179 127.776 436.089 127.776ZM436.089 124.162C436.568 124.162 437.017 124.066 437.438 123.875C437.858 123.684 438.222 123.339 438.528 122.842C438.853 122.326 439.101 121.628 439.273 120.748C439.445 119.869 439.531 118.75 439.531 117.392V116.819C439.531 115.595 439.445 114.591 439.273 113.807C439.101 113.004 438.853 112.373 438.528 111.914C438.222 111.436 437.858 111.101 437.438 110.91C437.017 110.719 436.568 110.623 436.089 110.623C435.592 110.623 435.133 110.719 434.713 110.91C434.311 111.101 433.948 111.436 433.623 111.914C433.317 112.373 433.078 113.004 432.906 113.807C432.733 114.591 432.647 115.595 432.647 116.819V117.392C432.647 118.75 432.733 119.869 432.906 120.748C433.078 121.628 433.317 122.326 433.623 122.842C433.948 123.339 434.311 123.684 434.713 123.875C435.133 124.066 435.592 124.162 436.089 124.162ZM449.704 127.776C449.035 127.776 448.461 127.537 447.983 127.059C447.505 126.581 447.266 126.007 447.266 125.338C447.266 124.63 447.505 124.047 447.983 123.588C448.461 123.129 449.035 122.9 449.704 122.9C450.373 122.9 450.947 123.129 451.425 123.588C451.903 124.047 452.142 124.63 452.142 125.338C452.142 126.007 451.903 126.581 451.425 127.059C450.947 127.537 450.373 127.776 449.704 127.776ZM455.429 123.875H460.018V111.713L455.429 114.983V110.795L460.276 107.353H464.32V123.875H468.049V127.432H455.429V123.875ZM469.91 123.875H474.5V111.713L469.91 114.983V110.795L474.758 107.353H478.802V123.875H482.531V127.432H469.91V123.875Z" fill="black"/>
<path d="M591.849 112.229H595.635V118.109H602.117V112.229H605.904V127.432H602.117V121.265H595.635V127.432H591.849V112.229ZM616.24 127.776C615.207 127.776 614.222 127.623 613.285 127.317C612.367 126.992 611.564 126.514 610.876 125.883C610.187 125.233 609.642 124.42 609.241 123.445C608.839 122.45 608.639 121.293 608.639 119.974V119.4C608.639 118.138 608.83 117.039 609.212 116.102C609.595 115.165 610.121 114.39 610.79 113.778C611.459 113.147 612.234 112.679 613.113 112.373C613.993 112.048 614.939 111.885 615.953 111.885C618.343 111.885 620.16 112.516 621.403 113.778C622.646 115.04 623.267 116.866 623.267 119.257V120.863H612.511C612.53 121.532 612.645 122.116 612.855 122.613C613.065 123.091 613.343 123.483 613.687 123.789C614.031 124.095 614.423 124.324 614.863 124.477C615.322 124.611 615.781 124.678 616.24 124.678C617.215 124.678 617.951 124.535 618.448 124.248C618.946 123.961 619.299 123.54 619.51 122.986H622.98C622.674 124.573 621.919 125.768 620.714 126.571C619.51 127.374 618.018 127.776 616.24 127.776ZM616.096 114.983C615.656 114.983 615.217 115.04 614.777 115.155C614.356 115.27 613.983 115.451 613.658 115.7C613.333 115.949 613.065 116.283 612.855 116.704C612.645 117.125 612.53 117.631 612.511 118.224H619.596C619.577 117.593 619.471 117.067 619.28 116.647C619.108 116.226 618.859 115.891 618.534 115.643C618.228 115.394 617.865 115.222 617.444 115.126C617.024 115.031 616.574 114.983 616.096 114.983ZM629.414 115.384H624.567V112.229H638.048V115.384H633.201V127.432H629.414V115.384Z" fill="black"/>
<path d="M725.881 123.186H716.415V120.203L725.881 107.353H730.183V119.63H732.478V123.186H730.183V127.432H725.881V123.186ZM725.881 119.63V112.143L720.431 119.63H725.881ZM743.031 127.776C741.941 127.776 740.918 127.604 739.962 127.26C739.025 126.896 738.212 126.313 737.524 125.51C736.836 124.688 736.291 123.617 735.889 122.297C735.488 120.959 735.287 119.324 735.287 117.392V116.819C735.287 115.021 735.488 113.501 735.889 112.258C736.291 111.015 736.836 110.011 737.524 109.246C738.212 108.462 739.025 107.898 739.962 107.554C740.918 107.191 741.941 107.009 743.031 107.009C744.121 107.009 745.135 107.191 746.072 107.554C747.028 107.898 747.85 108.462 748.539 109.246C749.227 110.011 749.772 111.015 750.174 112.258C750.575 113.501 750.776 115.021 750.776 116.819V117.392C750.776 119.324 750.575 120.959 750.174 122.297C749.772 123.617 749.227 124.688 748.539 125.51C747.85 126.313 747.028 126.896 746.072 127.26C745.135 127.604 744.121 127.776 743.031 127.776ZM743.031 124.162C743.509 124.162 743.959 124.066 744.379 123.875C744.8 123.684 745.163 123.339 745.469 122.842C745.795 122.326 746.043 121.628 746.215 120.748C746.387 119.869 746.473 118.75 746.473 117.392V116.819C746.473 115.595 746.387 114.591 746.215 113.807C746.043 113.004 745.795 112.373 745.469 111.914C745.163 111.436 744.8 111.101 744.379 110.91C743.959 110.719 743.509 110.623 743.031 110.623C742.534 110.623 742.075 110.719 741.655 110.91C741.253 111.101 740.89 111.436 740.565 111.914C740.259 112.373 740.02 113.004 739.847 113.807C739.675 114.591 739.589 115.595 739.589 116.819V117.392C739.589 118.75 739.675 119.869 739.847 120.748C740.02 121.628 740.259 122.326 740.565 122.842C740.89 123.339 741.253 123.684 741.655 123.875C742.075 124.066 742.534 124.162 743.031 124.162ZM774.573 115.528V118.683L760.518 124.85V120.748L769.554 117.163L760.518 113.577V109.361L774.573 115.528ZM776.877 118.769H790.932V122.326H776.877V118.769ZM776.877 111.885H790.932V115.442H776.877V111.885ZM808.581 127.776C807.319 127.776 806.201 127.594 805.225 127.231C804.25 126.868 803.428 126.303 802.759 125.539C802.089 124.754 801.573 123.76 801.21 122.555C800.865 121.351 800.693 119.917 800.693 118.253V117.679C800.693 115.767 800.894 114.142 801.296 112.803C801.697 111.445 802.261 110.336 802.988 109.476C803.715 108.615 804.575 107.994 805.57 107.611C806.583 107.21 807.683 107.009 808.868 107.009C810.723 107.009 812.224 107.401 813.372 108.185C814.519 108.969 815.217 110.269 815.465 112.086H811.45C811.067 111.111 810.159 110.623 808.725 110.623C808.17 110.623 807.654 110.709 807.176 110.881C806.717 111.034 806.306 111.331 805.943 111.77C805.598 112.191 805.321 112.774 805.111 113.52C804.9 114.266 804.766 115.222 804.709 116.388C804.958 116.006 805.264 115.69 805.627 115.442C805.99 115.174 806.382 114.964 806.803 114.811C807.243 114.639 807.692 114.514 808.151 114.438C808.629 114.361 809.107 114.323 809.585 114.323C811.612 114.323 813.171 114.878 814.261 115.987C815.351 117.077 815.896 118.626 815.896 120.634V120.949C815.896 121.963 815.714 122.89 815.351 123.731C814.987 124.573 814.481 125.299 813.831 125.911C813.199 126.504 812.435 126.963 811.536 127.288C810.637 127.613 809.652 127.776 808.581 127.776ZM808.295 124.162C809.327 124.162 810.13 123.875 810.704 123.301C811.297 122.708 811.593 121.953 811.593 121.035V120.748C811.593 119.83 811.297 119.085 810.704 118.511C810.13 117.937 809.327 117.651 808.295 117.651C807.262 117.651 806.449 117.937 805.856 118.511C805.283 119.085 804.996 119.83 804.996 120.748V121.035C804.996 121.953 805.283 122.708 805.856 123.301C806.449 123.875 807.262 124.162 808.295 124.162ZM827.226 123.186H817.76V120.203L827.226 107.353H831.528V119.63H833.823V123.186H831.528V127.432H827.226V123.186ZM827.226 119.63V112.143L821.776 119.63H827.226Z" fill="black"/>
<rect x="407.547" y="333.342" width="833.223" height="111.155" stroke="#D0643B" stroke-width="6"/>
<path d="M642.079 150.01L642.762 148.674L642.44 148.51H642.079V150.01ZM175.816 150.01V148.51H174.316V150.01H175.816ZM175.816 680.756L184.477 665.756H167.156L175.816 680.756ZM776.13 218.496L775.448 219.832L776.13 220.18L776.813 219.832L776.13 218.496ZM642.079 148.51H175.816V151.51H642.079V148.51ZM174.316 150.01V667.256H177.316V150.01H174.316ZM909.499 148.674L775.448 217.16L776.813 219.832L910.864 151.346L909.499 148.674ZM776.813 217.16L642.762 148.674L641.397 151.346L775.448 219.832L776.813 217.16Z" fill="black"/>
<path d="M564.775 713.529V715.029H566.275V713.529H564.775ZM564.775 555.544L556.115 570.544H573.436L564.775 555.544ZM257.218 715.029H564.775V712.029H257.218V715.029ZM566.275 713.529V569.044H563.275V713.529H566.275Z" fill="black"/>
<rect x="69.2305" y="683.848" width="214.727" height="59.3633" fill="#F3F3F3"/>
<path d="M96.1674 720.473H98.4048C98.6916 719.803 98.9306 719 99.1218 718.063C99.3131 717.107 99.466 716.103 99.5808 715.051C99.6955 713.98 99.7816 712.89 99.8389 711.781C99.8963 710.653 99.925 709.573 99.925 708.54V703.951H114.066V720.473H116.246V727.758H112.402V724.029H100.011V727.758H96.1674V720.473ZM109.763 720.473V707.507H103.998V709.114C103.998 711.734 103.874 713.942 103.625 715.74C103.377 717.537 103.023 719.115 102.564 720.473H109.763ZM125.572 724.374C124.539 724.374 123.554 724.221 122.617 723.915C121.699 723.589 120.896 723.102 120.208 722.452C119.519 721.802 118.974 720.989 118.573 720.014C118.171 719.038 117.97 717.891 117.97 716.572V715.998C117.97 714.755 118.171 713.665 118.573 712.728C118.974 711.791 119.519 711.007 120.208 710.376C120.896 709.745 121.699 709.276 122.617 708.97C123.554 708.645 124.539 708.483 125.572 708.483C126.604 708.483 127.579 708.645 128.497 708.97C129.415 709.276 130.218 709.745 130.907 710.376C131.614 711.007 132.169 711.791 132.57 712.728C132.972 713.665 133.173 714.755 133.173 715.998V716.572C133.173 717.872 132.972 719.01 132.57 719.985C132.169 720.96 131.614 721.773 130.907 722.423C130.218 723.073 129.415 723.561 128.497 723.886C127.579 724.211 126.604 724.374 125.572 724.374ZM125.572 721.161C126.642 721.161 127.532 720.778 128.239 720.014C128.966 719.249 129.329 718.101 129.329 716.572V715.998C129.329 714.602 128.966 713.541 128.239 712.814C127.532 712.068 126.642 711.695 125.572 711.695C124.482 711.695 123.583 712.068 122.875 712.814C122.168 713.541 121.814 714.602 121.814 715.998V716.572C121.814 718.12 122.168 719.277 122.875 720.042C123.583 720.788 124.482 721.161 125.572 721.161ZM142.771 724.374C141.7 724.374 140.705 724.192 139.787 723.829C138.889 723.465 138.105 722.92 137.435 722.194C136.766 721.448 136.24 720.539 135.858 719.469C135.494 718.379 135.313 717.117 135.313 715.682V715.023C135.313 713.302 135.437 711.772 135.686 710.433C135.953 709.095 136.384 707.957 136.976 707.02C137.588 706.083 138.392 705.356 139.386 704.84C140.399 704.304 141.661 703.999 143.172 703.922C143.765 703.903 144.348 703.884 144.922 703.865C145.496 703.846 146.041 703.817 146.557 703.779C147.073 703.74 147.542 703.683 147.962 703.607C148.383 703.511 148.756 703.387 149.081 703.234V706.59C148.775 706.762 148.201 706.905 147.36 707.02C146.538 707.135 145.285 707.202 143.602 707.221C142.742 707.24 141.996 707.345 141.365 707.536C140.753 707.708 140.237 707.995 139.816 708.397C139.415 708.779 139.089 709.286 138.841 709.917C138.611 710.548 138.449 711.322 138.353 712.24C138.793 711.38 139.453 710.682 140.332 710.146C141.212 709.611 142.359 709.343 143.775 709.343C144.731 709.343 145.601 709.496 146.385 709.802C147.169 710.089 147.848 710.519 148.421 711.093C148.995 711.667 149.435 712.374 149.741 713.216C150.066 714.057 150.228 715.032 150.228 716.141V716.686C150.228 717.891 150.037 718.971 149.655 719.928C149.291 720.884 148.775 721.696 148.106 722.366C147.436 723.016 146.643 723.513 145.725 723.857C144.826 724.201 143.841 724.374 142.771 724.374ZM142.771 721.161C143.918 721.161 144.807 720.788 145.438 720.042C146.069 719.277 146.385 718.197 146.385 716.801V716.227C146.385 715.023 146.06 714.076 145.409 713.388C144.759 712.699 143.88 712.355 142.771 712.355C141.681 712.355 140.801 712.699 140.132 713.388C139.482 714.076 139.156 715.023 139.156 716.227V716.744C139.156 717.432 139.242 718.054 139.415 718.608C139.606 719.163 139.864 719.631 140.189 720.014C140.514 720.377 140.897 720.664 141.336 720.874C141.776 721.065 142.254 721.161 142.771 721.161ZM157.506 724.374C156.684 724.374 155.957 724.259 155.326 724.029C154.695 723.781 154.16 723.446 153.72 723.025C153.28 722.586 152.945 722.079 152.716 721.505C152.487 720.912 152.372 720.272 152.372 719.583C152.372 716.524 154.188 714.994 157.822 714.994H162.354V714.277C162.354 713.282 162.124 712.585 161.665 712.183C161.225 711.781 160.518 711.581 159.543 711.581C158.682 711.581 158.061 711.734 157.678 712.04C157.296 712.326 157.076 712.69 157.019 713.129H153.232C153.271 712.479 153.433 711.867 153.72 711.294C154.026 710.72 154.447 710.232 154.982 709.831C155.537 709.41 156.206 709.085 156.99 708.856C157.774 708.607 158.673 708.483 159.686 708.483C160.661 708.483 161.541 708.588 162.325 708.798C163.128 709.009 163.807 709.353 164.362 709.831C164.935 710.29 165.375 710.892 165.681 711.638C165.987 712.384 166.14 713.282 166.14 714.334V720.157C166.14 720.96 166.149 721.668 166.169 722.28C166.207 722.872 166.264 723.456 166.341 724.029H162.813C162.736 723.609 162.688 723.293 162.669 723.083C162.669 722.853 162.669 722.519 162.669 722.079C162.249 722.691 161.608 723.226 160.747 723.685C159.906 724.144 158.826 724.374 157.506 724.374ZM158.682 721.448C159.141 721.448 159.59 721.39 160.03 721.276C160.47 721.142 160.862 720.951 161.206 720.702C161.551 720.434 161.828 720.1 162.038 719.698C162.249 719.296 162.354 718.828 162.354 718.293V717.575H158.539C157.812 717.575 157.238 717.748 156.818 718.092C156.416 718.417 156.215 718.866 156.215 719.44C156.215 720.052 156.426 720.539 156.846 720.903C157.267 721.266 157.879 721.448 158.682 721.448ZM169.444 708.827H177.074C178.049 708.827 178.881 708.932 179.57 709.142C180.277 709.334 180.86 709.611 181.319 709.974C181.778 710.338 182.113 710.768 182.323 711.265C182.533 711.762 182.639 712.307 182.639 712.9C182.639 713.608 182.419 714.277 181.979 714.908C181.558 715.52 180.975 715.931 180.229 716.141C181.166 716.371 181.893 716.811 182.409 717.461C182.945 718.092 183.212 718.838 183.212 719.698C183.212 721.018 182.753 722.069 181.836 722.853C180.918 723.637 179.522 724.029 177.648 724.029H169.444V708.827ZM176.902 720.989C177.762 720.989 178.393 720.865 178.795 720.616C179.216 720.348 179.426 719.928 179.426 719.354C179.426 718.78 179.225 718.369 178.824 718.12C178.441 717.853 177.801 717.719 176.902 717.719H173.23V720.989H176.902ZM176.529 714.908C177.409 714.908 178.011 714.784 178.336 714.535C178.68 714.286 178.852 713.904 178.852 713.388C178.852 712.89 178.68 712.518 178.336 712.269C177.992 712.001 177.39 711.867 176.529 711.867H173.23V714.908H176.529ZM185.943 708.827H189.729V718.579L196.498 708.827H199.998V724.029H196.212V714.277L189.442 724.029H185.943V708.827ZM207.15 711.982H202.303V708.827H215.784V711.982H210.936V724.029H207.15V711.982ZM218.072 708.827H221.858V713.933H225.099C229.02 713.933 230.98 715.615 230.98 718.981C230.98 719.727 230.865 720.415 230.635 721.046C230.425 721.658 230.081 722.184 229.603 722.624C229.125 723.064 228.513 723.408 227.767 723.656C227.021 723.905 226.132 724.029 225.099 724.029H218.072V708.827ZM224.669 720.989C225.587 720.989 226.237 720.826 226.62 720.501C227.002 720.157 227.193 719.65 227.193 718.981C227.193 718.312 226.993 717.814 226.591 717.489C226.209 717.145 225.568 716.973 224.669 716.973H221.858V720.989H224.669ZM248.051 724.374C246.961 724.374 245.938 724.201 244.982 723.857C244.045 723.494 243.232 722.911 242.544 722.107C241.855 721.285 241.31 720.214 240.909 718.895C240.507 717.556 240.306 715.921 240.306 713.99V713.416C240.306 711.619 240.507 710.099 240.909 708.856C241.31 707.613 241.855 706.609 242.544 705.844C243.232 705.06 244.045 704.496 244.982 704.152C245.938 703.788 246.961 703.607 248.051 703.607C249.141 703.607 250.154 703.788 251.091 704.152C252.048 704.496 252.87 705.06 253.558 705.844C254.247 706.609 254.792 707.613 255.193 708.856C255.595 710.099 255.796 711.619 255.796 713.416V713.99C255.796 715.921 255.595 717.556 255.193 718.895C254.792 720.214 254.247 721.285 253.558 722.107C252.87 722.911 252.048 723.494 251.091 723.857C250.154 724.201 249.141 724.374 248.051 724.374ZM248.051 720.759C248.529 720.759 248.978 720.664 249.399 720.473C249.82 720.281 250.183 719.937 250.489 719.44C250.814 718.924 251.063 718.226 251.235 717.346C251.407 716.466 251.493 715.348 251.493 713.99V713.416C251.493 712.192 251.407 711.189 251.235 710.405C251.063 709.601 250.814 708.97 250.489 708.511C250.183 708.033 249.82 707.699 249.399 707.507C248.978 707.316 248.529 707.221 248.051 707.221C247.554 707.221 247.095 707.316 246.674 707.507C246.273 707.699 245.909 708.033 245.584 708.511C245.278 708.97 245.039 709.601 244.867 710.405C244.695 711.189 244.609 712.192 244.609 713.416V713.99C244.609 715.348 244.695 716.466 244.867 717.346C245.039 718.226 245.278 718.924 245.584 719.44C245.909 719.937 246.273 720.281 246.674 720.473C247.095 720.664 247.554 720.759 248.051 720.759Z" fill="black"/>
<rect x="69.2305" y="683.848" width="214.727" height="59.3633" stroke="#DADADA" stroke-width="2"/>
</svg>
