<svg width="1551" height="772" viewBox="0 0 1551 772" fill="none" xmlns="http://www.w3.org/2000/svg">
<rect x="448.586" y="443.182" width="104.135" height="109.408" fill="#D0643B"/>
<path d="M494.704 504.828H499.294V492.666L494.704 495.936V491.748L499.552 488.306H503.596V504.828H507.325V508.385H494.704V504.828Z" fill="white"/>
<rect x="448.586" y="443.182" width="104.135" height="109.408" stroke="#D0643B" stroke-width="1.31816"/>
<rect x="552.721" y="443.182" width="104.135" height="109.408" fill="#D0643B"/>
<path d="M598.839 504.828H603.428V492.666L598.839 495.936V491.748L603.686 488.306H607.731V504.828H611.46V508.385H598.839V504.828Z" fill="white"/>
<rect x="552.721" y="443.182" width="104.135" height="109.408" stroke="#D0643B" stroke-width="1.31816"/>
<rect x="656.855" y="443.182" width="104.135" height="109.408" fill="#F7F7F7"/>
<path d="M708.929 508.729C707.839 508.729 706.816 508.557 705.86 508.213C704.923 507.849 704.11 507.266 703.422 506.463C702.733 505.641 702.188 504.57 701.787 503.25C701.385 501.912 701.184 500.277 701.184 498.345V497.772C701.184 495.974 701.385 494.454 701.787 493.211C702.188 491.968 702.733 490.964 703.422 490.199C704.11 489.415 704.923 488.851 705.86 488.507C706.816 488.144 707.839 487.962 708.929 487.962C710.019 487.962 711.032 488.144 711.969 488.507C712.925 488.851 713.748 489.415 714.436 490.199C715.125 490.964 715.67 491.968 716.071 493.211C716.473 494.454 716.673 495.974 716.673 497.772V498.345C716.673 500.277 716.473 501.912 716.071 503.25C715.67 504.57 715.125 505.641 714.436 506.463C713.748 507.266 712.925 507.849 711.969 508.213C711.032 508.557 710.019 508.729 708.929 508.729ZM708.929 505.115C709.407 505.115 709.856 505.019 710.277 504.828C710.698 504.637 711.061 504.293 711.367 503.795C711.692 503.279 711.941 502.581 712.113 501.701C712.285 500.822 712.371 499.703 712.371 498.345V497.772C712.371 496.548 712.285 495.544 712.113 494.76C711.941 493.957 711.692 493.326 711.367 492.867C711.061 492.389 710.698 492.054 710.277 491.863C709.856 491.672 709.407 491.576 708.929 491.576C708.432 491.576 707.973 491.672 707.552 491.863C707.15 492.054 706.787 492.389 706.462 492.867C706.156 493.326 705.917 493.957 705.745 494.76C705.573 495.544 705.487 496.548 705.487 497.772V498.345C705.487 499.703 705.573 500.822 705.745 501.701C705.917 502.581 706.156 503.279 706.462 503.795C706.787 504.293 707.15 504.637 707.552 504.828C707.973 505.019 708.432 505.115 708.929 505.115Z" fill="black"/>
<rect x="656.855" y="443.182" width="104.135" height="109.408" stroke="#DADADA" stroke-width="2"/>
<rect x="760.99" y="443.182" width="104.135" height="109.408" fill="#F7F7F7"/>
<path d="M813.064 508.729C811.974 508.729 810.951 508.557 809.994 508.213C809.057 507.849 808.245 507.266 807.556 506.463C806.868 505.641 806.323 504.57 805.921 503.25C805.52 501.912 805.319 500.277 805.319 498.345V497.772C805.319 495.974 805.52 494.454 805.921 493.211C806.323 491.968 806.868 490.964 807.556 490.199C808.245 489.415 809.057 488.851 809.994 488.507C810.951 488.144 811.974 487.962 813.064 487.962C814.154 487.962 815.167 488.144 816.104 488.507C817.06 488.851 817.882 489.415 818.571 490.199C819.259 490.964 819.804 491.968 820.206 493.211C820.607 494.454 820.808 495.974 820.808 497.772V498.345C820.808 500.277 820.607 501.912 820.206 503.25C819.804 504.57 819.259 505.641 818.571 506.463C817.882 507.266 817.06 507.849 816.104 508.213C815.167 508.557 814.154 508.729 813.064 508.729ZM813.064 505.115C813.542 505.115 813.991 505.019 814.412 504.828C814.832 504.637 815.196 504.293 815.502 503.795C815.827 503.279 816.075 502.581 816.248 501.701C816.42 500.822 816.506 499.703 816.506 498.345V497.772C816.506 496.548 816.42 495.544 816.248 494.76C816.075 493.957 815.827 493.326 815.502 492.867C815.196 492.389 814.832 492.054 814.412 491.863C813.991 491.672 813.542 491.576 813.064 491.576C812.566 491.576 812.108 491.672 811.687 491.863C811.285 492.054 810.922 492.389 810.597 492.867C810.291 493.326 810.052 493.957 809.88 494.76C809.708 495.544 809.622 496.548 809.622 497.772V498.345C809.622 499.703 809.708 500.822 809.88 501.701C810.052 502.581 810.291 503.279 810.597 503.795C810.922 504.293 811.285 504.637 811.687 504.828C812.108 505.019 812.566 505.115 813.064 505.115Z" fill="black"/>
<rect x="760.99" y="443.182" width="104.135" height="109.408" stroke="#DADADA" stroke-width="2"/>
<rect x="865.125" y="443.182" width="104.135" height="109.408" fill="#F7F7F7"/>
<path d="M917.198 508.729C916.108 508.729 915.085 508.557 914.129 508.213C913.192 507.849 912.38 507.266 911.691 506.463C911.003 505.641 910.458 504.57 910.056 503.25C909.655 501.912 909.454 500.277 909.454 498.345V497.772C909.454 495.974 909.655 494.454 910.056 493.211C910.458 491.968 911.003 490.964 911.691 490.199C912.38 489.415 913.192 488.851 914.129 488.507C915.085 488.144 916.108 487.962 917.198 487.962C918.288 487.962 919.302 488.144 920.239 488.507C921.195 488.851 922.017 489.415 922.706 490.199C923.394 490.964 923.939 491.968 924.341 493.211C924.742 494.454 924.943 495.974 924.943 497.772V498.345C924.943 500.277 924.742 501.912 924.341 503.25C923.939 504.57 923.394 505.641 922.706 506.463C922.017 507.266 921.195 507.849 920.239 508.213C919.302 508.557 918.288 508.729 917.198 508.729ZM917.198 505.115C917.676 505.115 918.126 505.019 918.547 504.828C918.967 504.637 919.331 504.293 919.637 503.795C919.962 503.279 920.21 502.581 920.382 501.701C920.554 500.822 920.64 499.703 920.64 498.345V497.772C920.64 496.548 920.554 495.544 920.382 494.76C920.21 493.957 919.962 493.326 919.637 492.867C919.331 492.389 918.967 492.054 918.547 491.863C918.126 491.672 917.676 491.576 917.198 491.576C916.701 491.576 916.242 491.672 915.822 491.863C915.42 492.054 915.057 492.389 914.732 492.867C914.426 493.326 914.187 493.957 914.015 494.76C913.842 495.544 913.756 496.548 913.756 497.772V498.345C913.756 499.703 913.842 500.822 914.015 501.701C914.187 502.581 914.426 503.279 914.732 503.795C915.057 504.293 915.42 504.637 915.822 504.828C916.242 505.019 916.701 505.115 917.198 505.115Z" fill="black"/>
<rect x="865.125" y="443.182" width="104.135" height="109.408" stroke="#DADADA" stroke-width="2"/>
<rect x="969.26" y="443.182" width="104.135" height="109.408" fill="#F7F7F7"/>
<path d="M1021.33 508.729C1020.24 508.729 1019.22 508.557 1018.26 508.213C1017.33 507.849 1016.51 507.266 1015.83 506.463C1015.14 505.641 1014.59 504.57 1014.19 503.25C1013.79 501.912 1013.59 500.277 1013.59 498.345V497.772C1013.59 495.974 1013.79 494.454 1014.19 493.211C1014.59 491.968 1015.14 490.964 1015.83 490.199C1016.51 489.415 1017.33 488.851 1018.26 488.507C1019.22 488.144 1020.24 487.962 1021.33 487.962C1022.42 487.962 1023.44 488.144 1024.37 488.507C1025.33 488.851 1026.15 489.415 1026.84 490.199C1027.53 490.964 1028.07 491.968 1028.48 493.211C1028.88 494.454 1029.08 495.974 1029.08 497.772V498.345C1029.08 500.277 1028.88 501.912 1028.48 503.25C1028.07 504.57 1027.53 505.641 1026.84 506.463C1026.15 507.266 1025.33 507.849 1024.37 508.213C1023.44 508.557 1022.42 508.729 1021.33 508.729ZM1021.33 505.115C1021.81 505.115 1022.26 505.019 1022.68 504.828C1023.1 504.637 1023.47 504.293 1023.77 503.795C1024.1 503.279 1024.34 502.581 1024.52 501.701C1024.69 500.822 1024.78 499.703 1024.78 498.345V497.772C1024.78 496.548 1024.69 495.544 1024.52 494.76C1024.34 493.957 1024.1 493.326 1023.77 492.867C1023.47 492.389 1023.1 492.054 1022.68 491.863C1022.26 491.672 1021.81 491.576 1021.33 491.576C1020.84 491.576 1020.38 491.672 1019.96 491.863C1019.55 492.054 1019.19 492.389 1018.87 492.867C1018.56 493.326 1018.32 493.957 1018.15 494.76C1017.98 495.544 1017.89 496.548 1017.89 497.772V498.345C1017.89 499.703 1017.98 500.822 1018.15 501.701C1018.32 502.581 1018.56 503.279 1018.87 503.795C1019.19 504.293 1019.55 504.637 1019.96 504.828C1020.38 505.019 1020.84 505.115 1021.33 505.115Z" fill="black"/>
<rect x="969.26" y="443.182" width="104.135" height="109.408" stroke="#DADADA" stroke-width="2"/>
<rect x="1073.39" y="443.182" width="104.135" height="109.408" fill="#F7F7F7"/>
<path d="M1125.47 508.729C1124.38 508.729 1123.35 508.557 1122.4 508.213C1121.46 507.849 1120.65 507.266 1119.96 506.463C1119.27 505.641 1118.73 504.57 1118.33 503.25C1117.92 501.912 1117.72 500.277 1117.72 498.345V497.772C1117.72 495.974 1117.92 494.454 1118.33 493.211C1118.73 491.968 1119.27 490.964 1119.96 490.199C1120.65 489.415 1121.46 488.851 1122.4 488.507C1123.35 488.144 1124.38 487.962 1125.47 487.962C1126.56 487.962 1127.57 488.144 1128.51 488.507C1129.46 488.851 1130.29 489.415 1130.98 490.199C1131.66 490.964 1132.21 491.968 1132.61 493.211C1133.01 494.454 1133.21 495.974 1133.21 497.772V498.345C1133.21 500.277 1133.01 501.912 1132.61 503.25C1132.21 504.57 1131.66 505.641 1130.98 506.463C1130.29 507.266 1129.46 507.849 1128.51 508.213C1127.57 508.557 1126.56 508.729 1125.47 508.729ZM1125.47 505.115C1125.95 505.115 1126.4 505.019 1126.82 504.828C1127.24 504.637 1127.6 504.293 1127.91 503.795C1128.23 503.279 1128.48 502.581 1128.65 501.701C1128.82 500.822 1128.91 499.703 1128.91 498.345V497.772C1128.91 496.548 1128.82 495.544 1128.65 494.76C1128.48 493.957 1128.23 493.326 1127.91 492.867C1127.6 492.389 1127.24 492.054 1126.82 491.863C1126.4 491.672 1125.95 491.576 1125.47 491.576C1124.97 491.576 1124.51 491.672 1124.09 491.863C1123.69 492.054 1123.33 492.389 1123 492.867C1122.7 493.326 1122.46 493.957 1122.28 494.76C1122.11 495.544 1122.03 496.548 1122.03 497.772V498.345C1122.03 499.703 1122.11 500.822 1122.28 501.701C1122.46 502.581 1122.7 503.279 1123 503.795C1123.33 504.293 1123.69 504.637 1124.09 504.828C1124.51 505.019 1124.97 505.115 1125.47 505.115Z" fill="black"/>
<rect x="1073.39" y="443.182" width="104.135" height="109.408" stroke="#DADADA" stroke-width="2"/>
<rect x="1177.53" y="443.182" width="104.135" height="109.408" fill="#F7F7F7"/>
<path d="M1229.6 508.729C1228.51 508.729 1227.49 508.557 1226.53 508.213C1225.6 507.849 1224.78 507.266 1224.1 506.463C1223.41 505.641 1222.86 504.57 1222.46 503.25C1222.06 501.912 1221.86 500.277 1221.86 498.345V497.772C1221.86 495.974 1222.06 494.454 1222.46 493.211C1222.86 491.968 1223.41 490.964 1224.1 490.199C1224.78 489.415 1225.6 488.851 1226.53 488.507C1227.49 488.144 1228.51 487.962 1229.6 487.962C1230.69 487.962 1231.71 488.144 1232.64 488.507C1233.6 488.851 1234.42 489.415 1235.11 490.199C1235.8 490.964 1236.34 491.968 1236.74 493.211C1237.15 494.454 1237.35 495.974 1237.35 497.772V498.345C1237.35 500.277 1237.15 501.912 1236.74 503.25C1236.34 504.57 1235.8 505.641 1235.11 506.463C1234.42 507.266 1233.6 507.849 1232.64 508.213C1231.71 508.557 1230.69 508.729 1229.6 508.729ZM1229.6 505.115C1230.08 505.115 1230.53 505.019 1230.95 504.828C1231.37 504.637 1231.73 504.293 1232.04 503.795C1232.37 503.279 1232.61 502.581 1232.79 501.701C1232.96 500.822 1233.04 499.703 1233.04 498.345V497.772C1233.04 496.548 1232.96 495.544 1232.79 494.76C1232.61 493.957 1232.37 493.326 1232.04 492.867C1231.73 492.389 1231.37 492.054 1230.95 491.863C1230.53 491.672 1230.08 491.576 1229.6 491.576C1229.11 491.576 1228.65 491.672 1228.23 491.863C1227.82 492.054 1227.46 492.389 1227.14 492.867C1226.83 493.326 1226.59 493.957 1226.42 494.76C1226.25 495.544 1226.16 496.548 1226.16 497.772V498.345C1226.16 499.703 1226.25 500.822 1226.42 501.701C1226.59 502.581 1226.83 503.279 1227.14 503.795C1227.46 504.293 1227.82 504.637 1228.23 504.828C1228.65 505.019 1229.11 505.115 1229.6 505.115Z" fill="black"/>
<rect x="1177.53" y="443.182" width="104.135" height="109.408" stroke="#DADADA" stroke-width="2"/>
<rect x="448.443" y="333.773" width="104.135" height="109.408" fill="#F7F7F7"/>
<path d="M476.802 395.42H481.392V383.258L476.802 386.528V382.34L481.65 378.898H485.694V395.42H489.423V398.977H476.802V395.42ZM490.854 395.85L497.882 389.798C498.532 389.224 499.086 388.727 499.545 388.306C500.004 387.866 500.377 387.465 500.664 387.102C500.951 386.738 501.152 386.384 501.266 386.04C501.4 385.696 501.467 385.323 501.467 384.922C501.467 384.099 501.238 383.44 500.779 382.942C500.32 382.426 499.641 382.168 498.742 382.168C497.71 382.168 496.897 382.455 496.304 383.028C495.73 383.583 495.444 384.549 495.444 385.925H491.141C491.141 383.65 491.782 381.852 493.063 380.533C494.363 379.214 496.256 378.554 498.742 378.554C499.909 378.554 500.922 378.716 501.783 379.041C502.662 379.347 503.398 379.787 503.991 380.361C504.584 380.915 505.024 381.585 505.311 382.369C505.617 383.153 505.77 384.004 505.77 384.922C505.77 385.61 505.645 386.27 505.397 386.901C505.148 387.513 504.804 388.105 504.364 388.679C503.943 389.253 503.446 389.817 502.873 390.371C502.299 390.907 501.687 391.442 501.037 391.978L496.906 395.42H506.056V398.977H490.854V395.85ZM516.228 399.321C515.023 399.321 513.933 399.187 512.958 398.919C512.002 398.632 511.189 398.24 510.52 397.743C509.87 397.227 509.363 396.615 509 395.907C508.655 395.181 508.483 394.378 508.483 393.498C508.483 392.37 508.828 391.366 509.516 390.486C510.204 389.587 511.227 388.956 512.585 388.593C511.572 388.268 510.73 387.704 510.061 386.901C509.392 386.098 509.057 385.141 509.057 384.032C509.057 383.229 509.21 382.493 509.516 381.824C509.841 381.154 510.31 380.581 510.922 380.103C511.533 379.606 512.279 379.223 513.159 378.955C514.058 378.688 515.081 378.554 516.228 378.554C517.375 378.554 518.389 378.688 519.268 378.955C520.167 379.223 520.923 379.606 521.534 380.103C522.166 380.581 522.634 381.154 522.94 381.824C523.265 382.493 523.428 383.229 523.428 384.032C523.428 385.141 523.093 386.088 522.424 386.872C521.754 387.637 520.903 388.211 519.871 388.593C522.605 389.434 523.973 391.069 523.973 393.498C523.973 394.378 523.791 395.181 523.428 395.907C523.083 396.615 522.577 397.227 521.907 397.743C521.257 398.24 520.454 398.632 519.498 398.919C518.542 399.187 517.452 399.321 516.228 399.321ZM516.228 395.707C517.414 395.707 518.284 395.477 518.838 395.018C519.393 394.559 519.67 393.938 519.67 393.154C519.67 392.293 519.345 391.614 518.695 391.117C518.064 390.601 517.241 390.266 516.228 390.113C515.214 390.266 514.383 390.601 513.733 391.117C513.101 391.614 512.786 392.293 512.786 393.154C512.786 393.938 513.073 394.559 513.646 395.018C514.22 395.477 515.081 395.707 516.228 395.707ZM516.228 387.188C517.088 387.035 517.786 386.738 518.322 386.298C518.857 385.839 519.125 385.208 519.125 384.405C519.125 383.659 518.867 383.105 518.351 382.742C517.853 382.359 517.146 382.168 516.228 382.168C515.329 382.168 514.622 382.359 514.105 382.742C513.608 383.105 513.36 383.659 513.36 384.405C513.36 385.208 513.618 385.839 514.134 386.298C514.67 386.738 515.367 387.035 516.228 387.188Z" fill="black"/>
<rect x="448.443" y="333.773" width="104.135" height="109.408" stroke="#DADADA" stroke-width="2"/>
<rect x="552.578" y="333.773" width="104.135" height="109.408" fill="#F7F7F7"/>
<path d="M595.969 399.321C594.707 399.321 593.588 399.139 592.613 398.776C591.637 398.412 590.815 397.848 590.146 397.083C589.477 396.299 588.96 395.305 588.597 394.1C588.253 392.896 588.081 391.461 588.081 389.798V389.224C588.081 387.312 588.281 385.686 588.683 384.348C589.085 382.99 589.649 381.881 590.375 381.021C591.102 380.16 591.963 379.539 592.957 379.156C593.97 378.755 595.07 378.554 596.256 378.554C598.11 378.554 599.612 378.946 600.759 379.73C601.906 380.514 602.604 381.814 602.853 383.631H598.837C598.455 382.656 597.546 382.168 596.112 382.168C595.558 382.168 595.041 382.254 594.563 382.426C594.104 382.579 593.693 382.875 593.33 383.315C592.986 383.736 592.708 384.319 592.498 385.065C592.288 385.811 592.154 386.767 592.096 387.933C592.345 387.551 592.651 387.235 593.014 386.987C593.378 386.719 593.77 386.509 594.19 386.356C594.63 386.184 595.079 386.059 595.538 385.983C596.016 385.906 596.495 385.868 596.973 385.868C599 385.868 600.558 386.423 601.648 387.532C602.738 388.622 603.283 390.171 603.283 392.179V392.494C603.283 393.508 603.101 394.435 602.738 395.276C602.375 396.118 601.868 396.844 601.218 397.456C600.587 398.049 599.822 398.508 598.923 398.833C598.024 399.158 597.04 399.321 595.969 399.321ZM595.682 395.707C596.714 395.707 597.518 395.42 598.091 394.846C598.684 394.253 598.98 393.498 598.98 392.58V392.293C598.98 391.375 598.684 390.63 598.091 390.056C597.518 389.482 596.714 389.195 595.682 389.195C594.649 389.195 593.837 389.482 593.244 390.056C592.67 390.63 592.383 391.375 592.383 392.293V392.58C592.383 393.498 592.67 394.253 593.244 394.846C593.837 395.42 594.649 395.707 595.682 395.707ZM614.613 394.731H605.147V391.748L614.613 378.898H618.916V391.175H621.21V394.731H618.916V398.977H614.613V394.731ZM614.613 391.175V383.688L609.163 391.175H614.613Z" fill="black"/>
<rect x="552.578" y="333.773" width="104.135" height="109.408" stroke="#DADADA" stroke-width="2"/>
<rect x="656.713" y="333.773" width="104.135" height="109.408" fill="#F7F7F7"/>
<path d="M699.743 399.321C697.295 399.321 695.44 398.747 694.178 397.6C692.916 396.433 692.285 394.837 692.285 392.81H696.588C696.588 393.785 696.836 394.511 697.334 394.99C697.85 395.468 698.653 395.707 699.743 395.707C700.795 395.707 701.579 395.477 702.095 395.018C702.63 394.54 702.898 393.871 702.898 393.01C702.898 391.213 701.846 390.314 699.743 390.314H697.878V386.987H699.743C700.661 386.987 701.368 386.796 701.866 386.413C702.363 386.031 702.611 385.438 702.611 384.635C702.611 383.908 702.372 383.315 701.894 382.856C701.416 382.397 700.699 382.168 699.743 382.168C698.768 382.168 698.041 382.397 697.563 382.856C697.104 383.296 696.875 383.937 696.875 384.778H692.572C692.572 382.809 693.165 381.279 694.35 380.189C695.555 379.099 697.353 378.554 699.743 378.554C700.948 378.554 701.999 378.697 702.898 378.984C703.797 379.252 704.543 379.634 705.135 380.131C705.728 380.609 706.168 381.183 706.455 381.852C706.761 382.522 706.914 383.248 706.914 384.032C706.914 385.141 706.598 386.088 705.967 386.872C705.355 387.637 704.533 388.182 703.501 388.507C704.686 388.832 705.594 389.396 706.225 390.199C706.876 391.002 707.201 392.064 707.201 393.383C707.201 394.244 707.029 395.037 706.684 395.764C706.34 396.491 705.843 397.122 705.193 397.657C704.562 398.173 703.778 398.585 702.841 398.891C701.923 399.177 700.89 399.321 699.743 399.321ZM709.509 395.85L716.536 389.798C717.187 389.224 717.741 388.727 718.2 388.306C718.659 387.866 719.032 387.465 719.319 387.102C719.605 386.738 719.806 386.384 719.921 386.04C720.055 385.696 720.122 385.323 720.122 384.922C720.122 384.099 719.892 383.44 719.433 382.942C718.974 382.426 718.296 382.168 717.397 382.168C716.364 382.168 715.552 382.455 714.959 383.028C714.385 383.583 714.098 384.549 714.098 385.925H709.796C709.796 383.65 710.436 381.852 711.717 380.533C713.018 379.214 714.911 378.554 717.397 378.554C718.563 378.554 719.577 378.716 720.437 379.041C721.317 379.347 722.053 379.787 722.646 380.361C723.239 380.915 723.679 381.585 723.965 382.369C724.271 383.153 724.424 384.004 724.424 384.922C724.424 385.61 724.3 386.27 724.051 386.901C723.803 387.513 723.459 388.105 723.019 388.679C722.598 389.253 722.101 389.817 721.527 390.371C720.954 390.907 720.342 391.442 719.692 391.978L715.561 395.42H724.711V398.977H709.509V395.85Z" fill="black"/>
<rect x="656.713" y="333.773" width="104.135" height="109.408" stroke="#DADADA" stroke-width="2"/>
<rect x="760.848" y="333.773" width="104.135" height="109.408" fill="#F7F7F7"/>
<path d="M797.707 395.42H802.296V383.258L797.707 386.528V382.34L802.554 378.898H806.599V395.42H810.328V398.977H797.707V395.42ZM820.22 399.321C818.958 399.321 817.839 399.139 816.864 398.776C815.889 398.412 815.067 397.848 814.397 397.083C813.728 396.299 813.212 395.305 812.848 394.1C812.504 392.896 812.332 391.461 812.332 389.798V389.224C812.332 387.312 812.533 385.686 812.934 384.348C813.336 382.99 813.9 381.881 814.627 381.021C815.353 380.16 816.214 379.539 817.208 379.156C818.222 378.755 819.321 378.554 820.507 378.554C822.362 378.554 823.863 378.946 825.01 379.73C826.158 380.514 826.856 381.814 827.104 383.631H823.088C822.706 382.656 821.798 382.168 820.364 382.168C819.809 382.168 819.293 382.254 818.815 382.426C818.356 382.579 817.945 382.875 817.581 383.315C817.237 383.736 816.96 384.319 816.749 385.065C816.539 385.811 816.405 386.767 816.348 387.933C816.596 387.551 816.902 387.235 817.266 386.987C817.629 386.719 818.021 386.509 818.442 386.356C818.882 386.184 819.331 386.059 819.79 385.983C820.268 385.906 820.746 385.868 821.224 385.868C823.251 385.868 824.81 386.423 825.899 387.532C826.989 388.622 827.534 390.171 827.534 392.179V392.494C827.534 393.508 827.353 394.435 826.989 395.276C826.626 396.118 826.119 396.844 825.469 397.456C824.838 398.049 824.073 398.508 823.175 398.833C822.276 399.158 821.291 399.321 820.22 399.321ZM819.933 395.707C820.966 395.707 821.769 395.42 822.343 394.846C822.936 394.253 823.232 393.498 823.232 392.58V392.293C823.232 391.375 822.936 390.63 822.343 390.056C821.769 389.482 820.966 389.195 819.933 389.195C818.901 389.195 818.088 389.482 817.495 390.056C816.921 390.63 816.635 391.375 816.635 392.293V392.58C816.635 393.498 816.921 394.253 817.495 394.846C818.088 395.42 818.901 395.707 819.933 395.707Z" fill="black"/>
<rect x="760.848" y="333.773" width="104.135" height="109.408" stroke="#DADADA" stroke-width="2"/>
<rect x="864.982" y="333.773" width="104.135" height="109.408" fill="#F7F7F7"/>
<path d="M916.586 399.321C915.381 399.321 914.291 399.187 913.316 398.919C912.36 398.632 911.547 398.24 910.878 397.743C910.228 397.227 909.721 396.615 909.358 395.907C909.014 395.181 908.842 394.378 908.842 393.498C908.842 392.37 909.186 391.366 909.874 390.486C910.563 389.587 911.586 388.956 912.943 388.593C911.93 388.268 911.088 387.704 910.419 386.901C909.75 386.098 909.415 385.141 909.415 384.032C909.415 383.229 909.568 382.493 909.874 381.824C910.199 381.154 910.668 380.581 911.28 380.103C911.892 379.606 912.637 379.223 913.517 378.955C914.416 378.688 915.439 378.554 916.586 378.554C917.733 378.554 918.747 378.688 919.627 378.955C920.525 379.223 921.281 379.606 921.893 380.103C922.524 380.581 922.992 381.154 923.298 381.824C923.623 382.493 923.786 383.229 923.786 384.032C923.786 385.141 923.451 386.088 922.782 386.872C922.113 387.637 921.262 388.211 920.229 388.593C922.963 389.434 924.331 391.069 924.331 393.498C924.331 394.378 924.149 395.181 923.786 395.907C923.442 396.615 922.935 397.227 922.266 397.743C921.615 398.24 920.812 398.632 919.856 398.919C918.9 399.187 917.81 399.321 916.586 399.321ZM916.586 395.707C917.772 395.707 918.642 395.477 919.196 395.018C919.751 394.559 920.028 393.938 920.028 393.154C920.028 392.293 919.703 391.614 919.053 391.117C918.422 390.601 917.6 390.266 916.586 390.113C915.573 390.266 914.741 390.601 914.091 391.117C913.46 391.614 913.144 392.293 913.144 393.154C913.144 393.938 913.431 394.559 914.005 395.018C914.578 395.477 915.439 395.707 916.586 395.707ZM916.586 387.188C917.447 387.035 918.145 386.738 918.68 386.298C919.215 385.839 919.483 385.208 919.483 384.405C919.483 383.659 919.225 383.105 918.709 382.742C918.212 382.359 917.504 382.168 916.586 382.168C915.687 382.168 914.98 382.359 914.464 382.742C913.966 383.105 913.718 383.659 913.718 384.405C913.718 385.208 913.976 385.839 914.492 386.298C915.028 386.738 915.726 387.035 916.586 387.188Z" fill="black"/>
<rect x="864.982" y="333.773" width="104.135" height="109.408" stroke="#DADADA" stroke-width="2"/>
<rect x="969.117" y="333.773" width="104.135" height="109.408" fill="#F7F7F7"/>
<path d="M1021.72 394.731H1012.26V391.748L1021.72 378.898H1026.03V391.175H1028.32V394.731H1026.03V398.977H1021.72V394.731ZM1021.72 391.175V383.688L1016.27 391.175H1021.72Z" fill="black"/>
<rect x="969.117" y="333.773" width="104.135" height="109.408" stroke="#DADADA" stroke-width="2"/>
<rect x="1073.25" y="333.773" width="104.135" height="109.408" fill="#F7F7F7"/>
<path d="M1117.18 395.85L1124.21 389.798C1124.86 389.224 1125.41 388.727 1125.87 388.306C1126.33 387.866 1126.7 387.465 1126.99 387.102C1127.28 386.738 1127.48 386.384 1127.59 386.04C1127.73 385.696 1127.79 385.323 1127.79 384.922C1127.79 384.099 1127.56 383.44 1127.11 382.942C1126.65 382.426 1125.97 382.168 1125.07 382.168C1124.04 382.168 1123.22 382.455 1122.63 383.028C1122.06 383.583 1121.77 384.549 1121.77 385.925H1117.47C1117.47 383.65 1118.11 381.852 1119.39 380.533C1120.69 379.214 1122.58 378.554 1125.07 378.554C1126.24 378.554 1127.25 378.716 1128.11 379.041C1128.99 379.347 1129.73 379.787 1130.32 380.361C1130.91 380.915 1131.35 381.585 1131.64 382.369C1131.94 383.153 1132.1 384.004 1132.1 384.922C1132.1 385.61 1131.97 386.27 1131.72 386.901C1131.47 387.513 1131.13 388.105 1130.69 388.679C1130.27 389.253 1129.77 389.817 1129.2 390.371C1128.63 390.907 1128.01 391.442 1127.36 391.978L1123.23 395.42H1132.38V398.977H1117.18V395.85Z" fill="black"/>
<rect x="1073.25" y="333.773" width="104.135" height="109.408" stroke="#DADADA" stroke-width="2"/>
<rect x="1177.39" y="333.773" width="104.135" height="109.408" fill="#F7F7F7"/>
<path d="M1223.25 395.42H1227.84V383.258L1223.25 386.528V382.34L1228.09 378.898H1232.14V395.42H1235.87V398.977H1223.25V395.42Z" fill="black"/>
<rect x="1177.39" y="333.773" width="104.135" height="109.408" stroke="#DADADA" stroke-width="2"/>
<path d="M271.978 373.244H283.946V388.477H281.901V375.029H274.023V388.477H271.978V373.244ZM292.65 388.694C291.91 388.694 291.207 388.578 290.539 388.346C289.872 388.099 289.285 387.737 288.777 387.258C288.269 386.765 287.863 386.148 287.558 385.408C287.254 384.669 287.101 383.805 287.101 382.819V382.384C287.101 381.455 287.254 380.636 287.558 379.925C287.863 379.214 288.269 378.626 288.777 378.162C289.285 377.683 289.872 377.328 290.539 377.096C291.207 376.849 291.91 376.726 292.65 376.726C293.39 376.726 294.094 376.849 294.761 377.096C295.428 377.328 296.016 377.683 296.524 378.162C297.031 378.626 297.437 379.214 297.742 379.925C298.047 380.636 298.199 381.455 298.199 382.384V382.819C298.199 383.805 298.047 384.669 297.742 385.408C297.437 386.148 297.031 386.765 296.524 387.258C296.016 387.737 295.428 388.099 294.761 388.346C294.094 388.578 293.39 388.694 292.65 388.694ZM292.65 386.953C293.085 386.953 293.521 386.881 293.956 386.736C294.391 386.576 294.775 386.337 295.109 386.018C295.443 385.684 295.711 385.256 295.914 384.734C296.132 384.212 296.241 383.573 296.241 382.819V382.384C296.241 381.687 296.132 381.093 295.914 380.599C295.711 380.106 295.443 379.7 295.109 379.381C294.775 379.062 294.391 378.829 293.956 378.684C293.521 378.539 293.085 378.467 292.65 378.467C292.215 378.467 291.78 378.539 291.345 378.684C290.909 378.829 290.525 379.062 290.191 379.381C289.858 379.7 289.582 380.106 289.364 380.599C289.161 381.093 289.06 381.687 289.06 382.384V382.819C289.06 383.573 289.161 384.212 289.364 384.734C289.582 385.256 289.858 385.684 290.191 386.018C290.525 386.337 290.909 386.576 291.345 386.736C291.78 386.881 292.215 386.953 292.65 386.953ZM304.827 388.694C303.377 388.694 302.238 388.39 301.411 387.78C300.584 387.171 300.127 386.315 300.04 385.213H301.955C302.057 385.778 302.354 386.213 302.847 386.518C303.355 386.808 304.015 386.953 304.827 386.953C305.828 386.953 306.554 386.787 307.003 386.453C307.468 386.105 307.7 385.691 307.7 385.213C307.7 384.647 307.511 384.204 307.134 383.885C306.757 383.551 306.104 383.385 305.176 383.385H303.195V381.818H305.045C305.843 381.818 306.409 381.666 306.742 381.361C307.091 381.056 307.265 380.628 307.265 380.077C307.265 379.642 307.062 379.265 306.655 378.946C306.249 378.626 305.64 378.467 304.827 378.467C303.943 378.467 303.297 378.612 302.891 378.902C302.499 379.178 302.26 379.577 302.173 380.099H300.258C300.301 379.62 300.432 379.178 300.649 378.771C300.882 378.351 301.193 377.988 301.585 377.683C301.977 377.379 302.441 377.147 302.978 376.987C303.529 376.813 304.146 376.726 304.827 376.726C305.567 376.726 306.206 376.813 306.742 376.987C307.294 377.147 307.751 377.379 308.113 377.683C308.476 377.974 308.744 378.322 308.918 378.728C309.092 379.134 309.18 379.584 309.18 380.077C309.18 380.628 309.042 381.114 308.766 381.535C308.49 381.941 308.048 382.26 307.439 382.492C308.251 382.71 308.817 383.058 309.136 383.537C309.455 384.016 309.615 384.574 309.615 385.213C309.615 385.691 309.513 386.141 309.31 386.562C309.107 386.982 308.802 387.352 308.396 387.671C308.004 387.976 307.504 388.223 306.895 388.411C306.3 388.6 305.611 388.694 304.827 388.694ZM312.343 376.944H314.258V385.648L320.221 376.944H322.135V388.477H320.221V379.772L314.258 388.477H312.343V376.944ZM335.003 388.477H325.625V376.944H327.54V386.779H333.067V376.944H334.982V386.779H336.831V391.197H335.003V388.477ZM339.119 376.944H341.034V385.648L346.996 376.944H348.911V388.477H346.996V379.772L341.034 388.477H339.119V376.944ZM357.187 388.694C356.448 388.694 355.744 388.578 355.077 388.346C354.409 388.099 353.822 387.737 353.314 387.258C352.806 386.765 352.4 386.148 352.096 385.408C351.791 384.669 351.639 383.805 351.639 382.819V382.384C351.639 381.455 351.791 380.636 352.096 379.925C352.4 379.214 352.806 378.626 353.314 378.162C353.822 377.683 354.409 377.328 355.077 377.096C355.744 376.849 356.448 376.726 357.187 376.726C357.927 376.726 358.631 376.849 359.298 377.096C359.966 377.328 360.553 377.683 361.061 378.162C361.569 378.626 361.975 379.214 362.279 379.925C362.584 380.636 362.736 381.455 362.736 382.384V382.819C362.736 383.805 362.584 384.669 362.279 385.408C361.975 386.148 361.569 386.765 361.061 387.258C360.553 387.737 359.966 388.099 359.298 388.346C358.631 388.578 357.927 388.694 357.187 388.694ZM357.187 386.953C357.623 386.953 358.058 386.881 358.493 386.736C358.928 386.576 359.313 386.337 359.646 386.018C359.98 385.684 360.248 385.256 360.452 384.734C360.669 384.212 360.778 383.573 360.778 382.819V382.384C360.778 381.687 360.669 381.093 360.452 380.599C360.248 380.106 359.98 379.7 359.646 379.381C359.313 379.062 358.928 378.829 358.493 378.684C358.058 378.539 357.623 378.467 357.187 378.467C356.752 378.467 356.317 378.539 355.882 378.684C355.447 378.829 355.062 379.062 354.729 379.381C354.395 379.7 354.119 380.106 353.902 380.599C353.699 381.093 353.597 381.687 353.597 382.384V382.819C353.597 383.573 353.699 384.212 353.902 384.734C354.119 385.256 354.395 385.684 354.729 386.018C355.062 386.337 355.447 386.576 355.882 386.736C356.317 386.881 356.752 386.953 357.187 386.953ZM365.448 376.944H367.363V381.753H373.325V376.944H375.24V388.477H373.325V383.45H367.363V388.477H365.448V376.944ZM378.729 376.944H380.644V381.753H386.607V376.944H388.522V388.477H386.607V383.45H380.644V388.477H378.729V376.944ZM396.798 388.694C396.058 388.694 395.355 388.578 394.687 388.346C394.02 388.099 393.432 387.737 392.925 387.258C392.417 386.765 392.011 386.148 391.706 385.408C391.402 384.669 391.249 383.805 391.249 382.819V382.384C391.249 381.455 391.402 380.636 391.706 379.925C392.011 379.214 392.417 378.626 392.925 378.162C393.432 377.683 394.02 377.328 394.687 377.096C395.355 376.849 396.058 376.726 396.798 376.726C397.538 376.726 398.242 376.849 398.909 377.096C399.576 377.328 400.164 377.683 400.671 378.162C401.179 378.626 401.585 379.214 401.89 379.925C402.195 380.636 402.347 381.455 402.347 382.384V382.819C402.347 383.805 402.195 384.669 401.89 385.408C401.585 386.148 401.179 386.765 400.671 387.258C400.164 387.737 399.576 388.099 398.909 388.346C398.242 388.578 397.538 388.694 396.798 388.694ZM396.798 386.953C397.233 386.953 397.669 386.881 398.104 386.736C398.539 386.576 398.923 386.337 399.257 386.018C399.591 385.684 399.859 385.256 400.062 384.734C400.28 384.212 400.389 383.573 400.389 382.819V382.384C400.389 381.687 400.28 381.093 400.062 380.599C399.859 380.106 399.591 379.7 399.257 379.381C398.923 379.062 398.539 378.829 398.104 378.684C397.669 378.539 397.233 378.467 396.798 378.467C396.363 378.467 395.928 378.539 395.492 378.684C395.057 378.829 394.673 379.062 394.339 379.381C394.006 379.7 393.73 380.106 393.512 380.599C393.309 381.093 393.208 381.687 393.208 382.384V382.819C393.208 383.573 393.309 384.212 393.512 384.734C393.73 385.256 394.006 385.684 394.339 386.018C394.673 386.337 395.057 386.576 395.492 386.736C395.928 386.881 396.363 386.953 396.798 386.953ZM409.846 388.694C409.106 388.694 408.402 388.578 407.735 388.346C407.068 388.114 406.48 387.758 405.972 387.28C405.465 386.787 405.059 386.17 404.754 385.43C404.449 384.69 404.297 383.82 404.297 382.819V382.384C404.297 381.426 404.442 380.599 404.732 379.903C405.022 379.192 405.407 378.605 405.885 378.14C406.379 377.662 406.944 377.306 407.583 377.074C408.236 376.842 408.917 376.726 409.628 376.726C411.325 376.726 412.638 377.19 413.567 378.119C414.495 379.047 414.959 380.36 414.959 382.057V383.276H406.212C406.212 383.958 406.321 384.531 406.538 384.995C406.756 385.459 407.039 385.836 407.387 386.126C407.735 386.417 408.119 386.627 408.54 386.757C408.975 386.888 409.411 386.953 409.846 386.953C410.716 386.953 411.384 386.808 411.848 386.518C412.326 386.228 412.667 385.829 412.87 385.321H414.742C414.626 385.873 414.415 386.359 414.111 386.779C413.821 387.2 413.458 387.555 413.023 387.846C412.602 388.121 412.116 388.331 411.565 388.477C411.028 388.622 410.455 388.694 409.846 388.694ZM409.737 378.467C409.287 378.467 408.852 378.532 408.431 378.663C408.011 378.779 407.633 378.975 407.3 379.25C406.981 379.511 406.72 379.845 406.516 380.251C406.313 380.657 406.212 381.143 406.212 381.709H413.153C413.139 381.114 413.037 380.614 412.849 380.208C412.675 379.787 412.435 379.453 412.131 379.207C411.826 378.946 411.463 378.757 411.043 378.641C410.636 378.525 410.201 378.467 409.737 378.467ZM298.08 412.694C296.63 412.694 295.491 412.39 294.664 411.78C293.837 411.171 293.38 410.315 293.293 409.213H295.208C295.31 409.778 295.607 410.213 296.1 410.518C296.608 410.808 297.268 410.953 298.08 410.953C299.081 410.953 299.807 410.787 300.257 410.453C300.721 410.105 300.953 409.691 300.953 409.213C300.953 408.647 300.764 408.204 300.387 407.885C300.01 407.551 299.357 407.385 298.429 407.385H296.448V405.818H298.298C299.096 405.818 299.662 405.666 299.995 405.361C300.344 405.056 300.518 404.628 300.518 404.077C300.518 403.642 300.315 403.265 299.908 402.946C299.502 402.626 298.893 402.467 298.08 402.467C297.196 402.467 296.55 402.612 296.144 402.902C295.752 403.178 295.513 403.577 295.426 404.099H293.511C293.554 403.62 293.685 403.178 293.902 402.771C294.135 402.351 294.446 401.988 294.838 401.683C295.23 401.379 295.694 401.147 296.231 400.987C296.782 400.813 297.399 400.726 298.08 400.726C298.82 400.726 299.459 400.813 299.995 400.987C300.547 401.147 301.004 401.379 301.366 401.683C301.729 401.974 301.997 402.322 302.171 402.728C302.346 403.134 302.433 403.584 302.433 404.077C302.433 404.628 302.295 405.114 302.019 405.535C301.743 405.941 301.301 406.26 300.692 406.492C301.504 406.71 302.07 407.058 302.389 407.537C302.708 408.016 302.868 408.574 302.868 409.213C302.868 409.691 302.766 410.141 302.563 410.562C302.36 410.982 302.055 411.352 301.649 411.671C301.257 411.976 300.757 412.223 300.148 412.411C299.553 412.6 298.864 412.694 298.08 412.694ZM305.596 400.944H307.511V405.753H313.474V400.944H315.388V412.477H313.474V407.45H307.511V412.477H305.596V400.944ZM322.164 412.694C321.525 412.694 320.96 412.607 320.466 412.433C319.988 412.244 319.581 411.991 319.248 411.671C318.914 411.352 318.66 410.975 318.486 410.54C318.312 410.105 318.225 409.626 318.225 409.104C318.225 407.958 318.559 407.131 319.226 406.623C319.908 406.115 320.88 405.861 322.142 405.861H325.885V405.078C325.885 404.092 325.66 403.41 325.21 403.033C324.775 402.655 324.115 402.467 323.23 402.467C322.403 402.467 321.801 402.626 321.424 402.946C321.047 403.25 320.836 403.598 320.793 403.99H318.878C318.907 403.526 319.03 403.098 319.248 402.706C319.48 402.3 319.784 401.952 320.162 401.662C320.553 401.372 321.018 401.147 321.554 400.987C322.091 400.813 322.686 400.726 323.339 400.726C324.702 400.726 325.783 401.052 326.581 401.705C327.393 402.343 327.8 403.395 327.8 404.86V409.539C327.8 410.148 327.8 410.685 327.8 411.149C327.814 411.599 327.85 412.041 327.908 412.477H326.233C326.189 412.143 326.16 411.831 326.146 411.541C326.131 411.236 326.124 410.895 326.124 410.518C325.819 411.127 325.326 411.642 324.644 412.063C323.962 412.484 323.136 412.694 322.164 412.694ZM322.577 410.953C323.027 410.953 323.447 410.895 323.839 410.779C324.245 410.649 324.601 410.467 324.905 410.235C325.21 409.989 325.449 409.691 325.623 409.343C325.798 408.995 325.885 408.589 325.885 408.124V407.341H322.468C321.757 407.341 321.199 407.486 320.793 407.776C320.386 408.052 320.183 408.494 320.183 409.104C320.183 409.64 320.372 410.083 320.749 410.431C321.141 410.779 321.75 410.953 322.577 410.953ZM337.862 407.885C337.528 408.088 337.122 408.27 336.644 408.429C336.179 408.589 335.592 408.669 334.881 408.669C334.214 408.669 333.612 408.596 333.075 408.451C332.553 408.306 332.11 408.074 331.747 407.755C331.385 407.435 331.109 407.022 330.921 406.514C330.732 406.006 330.638 405.383 330.638 404.643V400.944H332.553V404.316C332.553 404.81 332.596 405.223 332.683 405.557C332.785 405.89 332.944 406.159 333.162 406.362C333.38 406.565 333.655 406.71 333.989 406.797C334.322 406.884 334.729 406.928 335.207 406.928C335.86 406.928 336.419 406.862 336.883 406.732C337.347 406.601 337.674 406.463 337.862 406.318V400.944H339.777V412.477H337.862V407.885ZM348.039 412.694C347.299 412.694 346.596 412.578 345.928 412.346C345.261 412.114 344.674 411.758 344.166 411.28C343.658 410.787 343.252 410.17 342.947 409.43C342.643 408.69 342.49 407.82 342.49 406.819V406.384C342.49 405.426 342.635 404.599 342.925 403.903C343.216 403.192 343.6 402.605 344.079 402.14C344.572 401.662 345.138 401.306 345.776 401.074C346.429 400.842 347.111 400.726 347.822 400.726C349.519 400.726 350.832 401.19 351.76 402.119C352.689 403.047 353.153 404.36 353.153 406.057V407.276H344.405C344.405 407.958 344.514 408.531 344.732 408.995C344.949 409.459 345.232 409.836 345.58 410.126C345.928 410.417 346.313 410.627 346.734 410.757C347.169 410.888 347.604 410.953 348.039 410.953C348.91 410.953 349.577 410.808 350.041 410.518C350.52 410.228 350.861 409.829 351.064 409.321H352.935C352.819 409.873 352.609 410.359 352.304 410.779C352.014 411.2 351.651 411.555 351.216 411.846C350.795 412.121 350.31 412.331 349.758 412.477C349.221 412.622 348.648 412.694 348.039 412.694ZM347.93 402.467C347.481 402.467 347.045 402.532 346.625 402.663C346.204 402.779 345.827 402.975 345.493 403.25C345.174 403.511 344.913 403.845 344.71 404.251C344.507 404.657 344.405 405.143 344.405 405.709H351.347C351.332 405.114 351.231 404.614 351.042 404.208C350.868 403.787 350.629 403.453 350.324 403.207C350.019 402.946 349.657 402.757 349.236 402.641C348.83 402.525 348.395 402.467 347.93 402.467ZM355.875 400.944H357.79V405.753H363.752V400.944H365.667V412.477H363.752V407.45H357.79V412.477H355.875V400.944ZM369.156 400.944H371.071V409.648L377.033 400.944H378.948V412.477H377.033V403.772L371.071 412.477H369.156V400.944ZM387.225 412.694C386.485 412.694 385.781 412.578 385.114 412.346C384.447 412.114 383.859 411.758 383.351 411.28C382.844 410.787 382.438 410.17 382.133 409.43C381.828 408.69 381.676 407.82 381.676 406.819V406.384C381.676 405.426 381.821 404.599 382.111 403.903C382.401 403.192 382.786 402.605 383.264 402.14C383.758 401.662 384.323 401.306 384.962 401.074C385.615 400.842 386.296 400.726 387.007 400.726C388.705 400.726 390.017 401.19 390.946 402.119C391.874 403.047 392.338 404.36 392.338 406.057V407.276H383.591C383.591 407.958 383.7 408.531 383.917 408.995C384.135 409.459 384.418 409.836 384.766 410.126C385.114 410.417 385.498 410.627 385.919 410.757C386.354 410.888 386.79 410.953 387.225 410.953C388.095 410.953 388.763 410.808 389.227 410.518C389.705 410.228 390.046 409.829 390.249 409.321H392.121C392.005 409.873 391.794 410.359 391.49 410.779C391.2 411.2 390.837 411.555 390.402 411.846C389.981 412.121 389.495 412.331 388.944 412.477C388.407 412.622 387.834 412.694 387.225 412.694ZM387.116 402.467C386.666 402.467 386.231 402.532 385.81 402.663C385.39 402.779 385.013 402.975 384.679 403.25C384.36 403.511 384.099 403.845 383.895 404.251C383.692 404.657 383.591 405.143 383.591 405.709H390.532C390.518 405.114 390.416 404.614 390.228 404.208C390.054 403.787 389.814 403.453 389.51 403.207C389.205 402.946 388.842 402.757 388.422 402.641C388.015 402.525 387.58 402.467 387.116 402.467Z" fill="black"/>
<path d="M344.13 107.353H361.053V127.432H356.751V110.91H348.432V127.432H344.13V107.353ZM365.069 112.229H368.597V114.467C368.98 113.778 369.582 113.176 370.404 112.66C371.226 112.143 372.269 111.885 373.531 111.885C375.558 111.885 377.135 112.516 378.263 113.778C379.411 115.021 379.984 116.895 379.984 119.4V119.974C379.984 122.594 379.401 124.554 378.235 125.854C377.087 127.135 375.519 127.776 373.531 127.776C372.498 127.776 371.58 127.556 370.777 127.116C369.993 126.657 369.352 126.064 368.855 125.338V133.168H365.069V112.229ZM372.641 124.563C373.636 124.563 374.468 124.19 375.137 123.445C375.806 122.68 376.141 121.523 376.141 119.974V119.4C376.141 117.966 375.816 116.895 375.166 116.188C374.515 115.461 373.674 115.098 372.641 115.098C371.551 115.098 370.643 115.413 369.917 116.044C369.209 116.656 368.855 117.584 368.855 118.827V120.548C368.855 121.905 369.199 122.919 369.888 123.588C370.595 124.238 371.513 124.563 372.641 124.563ZM382.716 112.229H386.502V121.982L393.272 112.229H396.771V127.432H392.985V117.679L386.216 127.432H382.716V112.229ZM400.223 112.229H404.698L408.914 120.433L413.131 112.229H417.434V127.432H413.819V117.536L410.119 124.42H407.538L403.837 117.536V127.432H400.223V112.229ZM427.752 127.776C426.719 127.776 425.734 127.623 424.797 127.317C423.879 126.992 423.076 126.514 422.388 125.883C421.7 125.233 421.155 124.42 420.753 123.445C420.351 122.45 420.151 121.293 420.151 119.974V119.4C420.151 118.138 420.342 117.039 420.724 116.102C421.107 115.165 421.633 114.39 422.302 113.778C422.971 113.147 423.746 112.679 424.625 112.373C425.505 112.048 426.451 111.885 427.465 111.885C429.855 111.885 431.672 112.516 432.915 113.778C434.158 115.04 434.779 116.866 434.779 119.257V120.863H424.023C424.042 121.532 424.157 122.116 424.367 122.613C424.577 123.091 424.855 123.483 425.199 123.789C425.543 124.095 425.935 124.324 426.375 124.477C426.834 124.611 427.293 124.678 427.752 124.678C428.727 124.678 429.463 124.535 429.96 124.248C430.458 123.961 430.811 123.54 431.022 122.986H434.492C434.186 124.573 433.431 125.768 432.226 126.571C431.022 127.374 429.53 127.776 427.752 127.776ZM427.608 114.983C427.169 114.983 426.729 115.04 426.289 115.155C425.868 115.27 425.495 115.451 425.17 115.7C424.845 115.949 424.577 116.283 424.367 116.704C424.157 117.125 424.042 117.631 424.023 118.224H431.108C431.089 117.593 430.983 117.067 430.792 116.647C430.62 116.226 430.372 115.891 430.046 115.643C429.741 115.394 429.377 115.222 428.956 115.126C428.536 115.031 428.086 114.983 427.608 114.983ZM437.506 112.229H441.035V114.467C441.417 113.778 442.019 113.176 442.842 112.66C443.664 112.143 444.706 111.885 445.968 111.885C447.995 111.885 449.573 112.516 450.701 113.778C451.848 115.021 452.422 116.895 452.422 119.4V119.974C452.422 122.594 451.839 124.554 450.672 125.854C449.525 127.135 447.957 127.776 445.968 127.776C444.936 127.776 444.018 127.556 443.215 127.116C442.431 126.657 441.79 126.064 441.293 125.338V133.168H437.506V112.229ZM445.079 124.563C446.073 124.563 446.905 124.19 447.574 123.445C448.244 122.68 448.578 121.523 448.578 119.974V119.4C448.578 117.966 448.253 116.895 447.603 116.188C446.953 115.461 446.112 115.098 445.079 115.098C443.989 115.098 443.081 115.413 442.354 116.044C441.646 116.656 441.293 117.584 441.293 118.827V120.548C441.293 121.905 441.637 122.919 442.325 123.588C443.033 124.238 443.951 124.563 445.079 124.563ZM457.879 127.776C457.209 127.776 456.636 127.537 456.158 127.059C455.68 126.581 455.441 126.007 455.441 125.338C455.441 124.63 455.68 124.047 456.158 123.588C456.636 123.129 457.209 122.9 457.879 122.9C458.548 122.9 459.122 123.129 459.6 123.588C460.078 124.047 460.317 124.63 460.317 125.338C460.317 126.007 460.078 126.581 459.6 127.059C459.122 127.537 458.548 127.776 457.879 127.776ZM457.879 116.761C457.209 116.761 456.636 116.522 456.158 116.044C455.68 115.566 455.441 114.992 455.441 114.323C455.441 113.616 455.68 113.032 456.158 112.573C456.636 112.115 457.209 111.885 457.879 111.885C458.548 111.885 459.122 112.115 459.6 112.573C460.078 113.032 460.317 113.616 460.317 114.323C460.317 114.992 460.078 115.566 459.6 116.044C459.122 116.522 458.548 116.761 457.879 116.761ZM470.774 123.875H475.363V111.713L470.774 114.983V110.795L475.621 107.353H479.666V123.875H483.395V127.432H470.774V123.875ZM492.427 127.776C490.515 127.776 488.975 127.365 487.809 126.542C486.642 125.72 485.935 124.439 485.686 122.699H489.702C489.893 123.196 490.199 123.569 490.62 123.817C491.06 124.047 491.71 124.162 492.57 124.162C493.087 124.162 493.565 124.085 494.004 123.932C494.463 123.76 494.865 123.464 495.209 123.043C495.553 122.603 495.831 122.01 496.041 121.265C496.251 120.519 496.385 119.563 496.442 118.396C496.194 118.779 495.888 119.104 495.525 119.372C495.161 119.62 494.76 119.83 494.32 120.003C493.899 120.156 493.45 120.27 492.972 120.347C492.513 120.423 492.044 120.462 491.566 120.462C489.539 120.462 487.981 119.917 486.891 118.827C485.801 117.717 485.256 116.159 485.256 114.151V113.836C485.256 112.822 485.438 111.895 485.801 111.053C486.164 110.212 486.661 109.495 487.292 108.902C487.943 108.29 488.717 107.822 489.616 107.496C490.515 107.171 491.499 107.009 492.57 107.009C495.113 107.009 497.064 107.755 498.422 109.246C499.779 110.738 500.458 113.166 500.458 116.532V117.077C500.458 119.008 500.257 120.653 499.856 122.01C499.454 123.349 498.89 124.449 498.164 125.309C497.456 126.17 496.605 126.801 495.611 127.202C494.635 127.585 493.574 127.776 492.427 127.776ZM492.857 117.134C493.89 117.134 494.693 116.847 495.266 116.274C495.859 115.7 496.156 114.954 496.156 114.036V113.75C496.156 112.851 495.85 112.105 495.238 111.512C494.645 110.919 493.851 110.623 492.857 110.623C491.824 110.623 491.012 110.919 490.419 111.512C489.845 112.086 489.558 112.832 489.558 113.75V114.036C489.558 114.954 489.845 115.7 490.419 116.274C491.012 116.847 491.824 117.134 492.857 117.134ZM502.753 124.305L509.78 118.253C510.431 117.679 510.985 117.182 511.444 116.761C511.903 116.321 512.276 115.92 512.563 115.557C512.85 115.193 513.05 114.84 513.165 114.495C513.299 114.151 513.366 113.778 513.366 113.377C513.366 112.554 513.136 111.895 512.677 111.397C512.219 110.881 511.54 110.623 510.641 110.623C509.608 110.623 508.796 110.91 508.203 111.484C507.629 112.038 507.342 113.004 507.342 114.381H503.04C503.04 112.105 503.68 110.307 504.962 108.988C506.262 107.669 508.155 107.009 510.641 107.009C511.807 107.009 512.821 107.171 513.681 107.496C514.561 107.802 515.297 108.242 515.89 108.816C516.483 109.37 516.923 110.04 517.209 110.824C517.515 111.608 517.668 112.459 517.668 113.377C517.668 114.065 517.544 114.725 517.296 115.356C517.047 115.968 516.703 116.561 516.263 117.134C515.842 117.708 515.345 118.272 514.771 118.827C514.198 119.362 513.586 119.897 512.936 120.433L508.805 123.875H517.955V127.432H502.753V124.305ZM523.537 127.776C522.868 127.776 522.294 127.537 521.816 127.059C521.338 126.581 521.099 126.007 521.099 125.338C521.099 124.63 521.338 124.047 521.816 123.588C522.294 123.129 522.868 122.9 523.537 122.9C524.207 122.9 524.78 123.129 525.258 123.588C525.736 124.047 525.975 124.63 525.975 125.338C525.975 126.007 525.736 126.581 525.258 127.059C524.78 127.537 524.207 127.776 523.537 127.776ZM529.262 123.875H533.851V111.713L529.262 114.983V110.795L534.109 107.353H538.154V123.875H541.883V127.432H529.262V123.875ZM551.775 127.776C550.513 127.776 549.394 127.594 548.419 127.231C547.444 126.868 546.622 126.303 545.952 125.539C545.283 124.754 544.767 123.76 544.403 122.555C544.059 121.351 543.887 119.917 543.887 118.253V117.679C543.887 115.767 544.088 114.142 544.489 112.803C544.891 111.445 545.455 110.336 546.182 109.476C546.908 108.615 547.769 107.994 548.763 107.611C549.777 107.21 550.876 107.009 552.062 107.009C553.917 107.009 555.418 107.401 556.565 108.185C557.713 108.969 558.411 110.269 558.659 112.086H554.643C554.261 111.111 553.353 110.623 551.919 110.623C551.364 110.623 550.848 110.709 550.37 110.881C549.911 111.034 549.5 111.331 549.136 111.77C548.792 112.191 548.515 112.774 548.304 113.52C548.094 114.266 547.96 115.222 547.903 116.388C548.151 116.006 548.457 115.69 548.821 115.442C549.184 115.174 549.576 114.964 549.997 114.811C550.437 114.639 550.886 114.514 551.345 114.438C551.823 114.361 552.301 114.323 552.779 114.323C554.806 114.323 556.365 114.878 557.454 115.987C558.544 117.077 559.089 118.626 559.089 120.634V120.949C559.089 121.963 558.908 122.89 558.544 123.731C558.181 124.573 557.674 125.299 557.024 125.911C556.393 126.504 555.628 126.963 554.73 127.288C553.831 127.613 552.846 127.776 551.775 127.776ZM551.488 124.162C552.521 124.162 553.324 123.875 553.898 123.301C554.49 122.708 554.787 121.953 554.787 121.035V120.748C554.787 119.83 554.49 119.085 553.898 118.511C553.324 117.937 552.521 117.651 551.488 117.651C550.456 117.651 549.643 117.937 549.05 118.511C548.476 119.085 548.19 119.83 548.19 120.748V121.035C548.19 121.953 548.476 122.708 549.05 123.301C549.643 123.875 550.456 124.162 551.488 124.162ZM569.416 127.776C568.211 127.776 567.121 127.642 566.146 127.374C565.19 127.087 564.377 126.695 563.708 126.198C563.057 125.682 562.551 125.07 562.187 124.362C561.843 123.636 561.671 122.833 561.671 121.953C561.671 120.825 562.015 119.821 562.704 118.941C563.392 118.043 564.415 117.411 565.773 117.048C564.759 116.723 563.918 116.159 563.249 115.356C562.579 114.553 562.245 113.597 562.245 112.487C562.245 111.684 562.398 110.948 562.704 110.279C563.029 109.61 563.497 109.036 564.109 108.558C564.721 108.061 565.467 107.678 566.346 107.41C567.245 107.143 568.268 107.009 569.416 107.009C570.563 107.009 571.576 107.143 572.456 107.41C573.355 107.678 574.11 108.061 574.722 108.558C575.353 109.036 575.822 109.61 576.128 110.279C576.453 110.948 576.615 111.684 576.615 112.487C576.615 113.597 576.281 114.543 575.611 115.327C574.942 116.092 574.091 116.666 573.058 117.048C575.793 117.89 577.16 119.525 577.16 121.953C577.16 122.833 576.979 123.636 576.615 124.362C576.271 125.07 575.764 125.682 575.095 126.198C574.445 126.695 573.642 127.087 572.686 127.374C571.729 127.642 570.639 127.776 569.416 127.776ZM569.416 124.162C570.601 124.162 571.471 123.932 572.026 123.473C572.58 123.014 572.858 122.393 572.858 121.609C572.858 120.748 572.533 120.069 571.882 119.572C571.251 119.056 570.429 118.721 569.416 118.568C568.402 118.721 567.57 119.056 566.92 119.572C566.289 120.069 565.974 120.748 565.974 121.609C565.974 122.393 566.26 123.014 566.834 123.473C567.408 123.932 568.268 124.162 569.416 124.162ZM569.416 115.643C570.276 115.49 570.974 115.193 571.509 114.753C572.045 114.295 572.313 113.663 572.313 112.86C572.313 112.115 572.054 111.56 571.538 111.197C571.041 110.814 570.333 110.623 569.416 110.623C568.517 110.623 567.809 110.814 567.293 111.197C566.796 111.56 566.547 112.115 566.547 112.86C566.547 113.663 566.805 114.295 567.322 114.753C567.857 115.193 568.555 115.49 569.416 115.643ZM582.894 127.776C582.224 127.776 581.651 127.537 581.173 127.059C580.694 126.581 580.455 126.007 580.455 125.338C580.455 124.63 580.694 124.047 581.173 123.588C581.651 123.129 582.224 122.9 582.894 122.9C583.563 122.9 584.137 123.129 584.615 123.588C585.093 124.047 585.332 124.63 585.332 125.338C585.332 126.007 585.093 126.581 584.615 127.059C584.137 127.537 583.563 127.776 582.894 127.776ZM588.618 123.875H593.207V111.713L588.618 114.983V110.795L593.466 107.353H597.51V123.875H601.239V127.432H588.618V123.875ZM610.988 127.776C609.898 127.776 608.875 127.604 607.919 127.26C606.982 126.896 606.169 126.313 605.481 125.51C604.792 124.688 604.247 123.617 603.846 122.297C603.444 120.959 603.243 119.324 603.243 117.392V116.819C603.243 115.021 603.444 113.501 603.846 112.258C604.247 111.015 604.792 110.011 605.481 109.246C606.169 108.462 606.982 107.898 607.919 107.554C608.875 107.191 609.898 107.009 610.988 107.009C612.078 107.009 613.091 107.191 614.028 107.554C614.984 107.898 615.807 108.462 616.495 109.246C617.184 110.011 617.729 111.015 618.13 112.258C618.532 113.501 618.732 115.021 618.732 116.819V117.392C618.732 119.324 618.532 120.959 618.13 122.297C617.729 123.617 617.184 124.688 616.495 125.51C615.807 126.313 614.984 126.896 614.028 127.26C613.091 127.604 612.078 127.776 610.988 127.776ZM610.988 124.162C611.466 124.162 611.915 124.066 612.336 123.875C612.757 123.684 613.12 123.339 613.426 122.842C613.751 122.326 614 121.628 614.172 120.748C614.344 119.869 614.43 118.75 614.43 117.392V116.819C614.43 115.595 614.344 114.591 614.172 113.807C614 113.004 613.751 112.373 613.426 111.914C613.12 111.436 612.757 111.101 612.336 110.91C611.915 110.719 611.466 110.623 610.988 110.623C610.491 110.623 610.032 110.719 609.611 110.91C609.21 111.101 608.846 111.436 608.521 111.914C608.215 112.373 607.976 113.004 607.804 113.807C607.632 114.591 607.546 115.595 607.546 116.819V117.392C607.546 118.75 607.632 119.869 607.804 120.748C607.976 121.628 608.215 122.326 608.521 122.842C608.846 123.339 609.21 123.684 609.611 123.875C610.032 124.066 610.491 124.162 610.988 124.162ZM624.603 127.776C623.933 127.776 623.36 127.537 622.882 127.059C622.403 126.581 622.164 126.007 622.164 125.338C622.164 124.63 622.403 124.047 622.882 123.588C623.36 123.129 623.933 122.9 624.603 122.9C625.272 122.9 625.846 123.129 626.324 123.588C626.802 124.047 627.041 124.63 627.041 125.338C627.041 126.007 626.802 126.581 626.324 127.059C625.846 127.537 625.272 127.776 624.603 127.776ZM630.327 123.875H634.916V111.713L630.327 114.983V110.795L635.175 107.353H639.219V123.875H642.948V127.432H630.327V123.875ZM644.809 123.875H649.398V111.713L644.809 114.983V110.795L649.656 107.353H653.701V123.875H657.43V127.432H644.809V123.875Z" fill="black"/>
<path d="M546.858 661.873H551.447V649.711L546.858 652.981V648.793L551.705 645.351H555.75V661.873H559.479V665.43H546.858V661.873ZM561.34 661.873H565.929V649.711L561.34 652.981V648.793L566.187 645.351H570.232V661.873H573.961V665.43H561.34V661.873ZM583.71 665.774C582.62 665.774 581.597 665.602 580.641 665.258C579.704 664.894 578.891 664.311 578.202 663.508C577.514 662.686 576.969 661.615 576.567 660.295C576.166 658.957 575.965 657.322 575.965 655.39V654.817C575.965 653.019 576.166 651.499 576.567 650.256C576.969 649.013 577.514 648.009 578.202 647.244C578.891 646.46 579.704 645.896 580.641 645.552C581.597 645.189 582.62 645.007 583.71 645.007C584.8 645.007 585.813 645.189 586.75 645.552C587.706 645.896 588.529 646.46 589.217 647.244C589.905 648.009 590.45 649.013 590.852 650.256C591.254 651.499 591.454 653.019 591.454 654.817V655.39C591.454 657.322 591.254 658.957 590.852 660.295C590.45 661.615 589.905 662.686 589.217 663.508C588.529 664.311 587.706 664.894 586.75 665.258C585.813 665.602 584.8 665.774 583.71 665.774ZM583.71 662.16C584.188 662.16 584.637 662.064 585.058 661.873C585.479 661.682 585.842 661.337 586.148 660.84C586.473 660.324 586.721 659.626 586.894 658.746C587.066 657.867 587.152 656.748 587.152 655.39V654.817C587.152 653.593 587.066 652.589 586.894 651.805C586.721 651.002 586.473 650.371 586.148 649.912C585.842 649.434 585.479 649.099 585.058 648.908C584.637 648.717 584.188 648.621 583.71 648.621C583.213 648.621 582.754 648.717 582.333 648.908C581.931 649.099 581.568 649.434 581.243 649.912C580.937 650.371 580.698 651.002 580.526 651.805C580.354 652.589 580.268 653.593 580.268 654.817V655.39C580.268 656.748 580.354 657.867 580.526 658.746C580.698 659.626 580.937 660.324 581.243 660.84C581.568 661.337 581.931 661.682 582.333 661.873C582.754 662.064 583.213 662.16 583.71 662.16ZM602.057 665.774C600.967 665.774 599.944 665.602 598.988 665.258C598.051 664.894 597.238 664.311 596.55 663.508C595.861 662.686 595.317 661.615 594.915 660.295C594.513 658.957 594.313 657.322 594.313 655.39V654.817C594.313 653.019 594.513 651.499 594.915 650.256C595.317 649.013 595.861 648.009 596.55 647.244C597.238 646.46 598.051 645.896 598.988 645.552C599.944 645.189 600.967 645.007 602.057 645.007C603.147 645.007 604.161 645.189 605.098 645.552C606.054 645.896 606.876 646.46 607.564 647.244C608.253 648.009 608.798 649.013 609.199 650.256C609.601 651.499 609.802 653.019 609.802 654.817V655.39C609.802 657.322 609.601 658.957 609.199 660.295C608.798 661.615 608.253 662.686 607.564 663.508C606.876 664.311 606.054 664.894 605.098 665.258C604.161 665.602 603.147 665.774 602.057 665.774ZM602.057 662.16C602.535 662.16 602.985 662.064 603.405 661.873C603.826 661.682 604.189 661.337 604.495 660.84C604.82 660.324 605.069 659.626 605.241 658.746C605.413 657.867 605.499 656.748 605.499 655.39V654.817C605.499 653.593 605.413 652.589 605.241 651.805C605.069 651.002 604.82 650.371 604.495 649.912C604.189 649.434 603.826 649.099 603.405 648.908C602.985 648.717 602.535 648.621 602.057 648.621C601.56 648.621 601.101 648.717 600.68 648.908C600.279 649.099 599.915 649.434 599.59 649.912C599.284 650.371 599.045 651.002 598.873 651.805C598.701 652.589 598.615 653.593 598.615 654.817V655.39C598.615 656.748 598.701 657.867 598.873 658.746C599.045 659.626 599.284 660.324 599.59 660.84C599.915 661.337 600.279 661.682 600.68 661.873C601.101 662.064 601.56 662.16 602.057 662.16ZM620.405 665.774C619.315 665.774 618.292 665.602 617.335 665.258C616.398 664.894 615.586 664.311 614.897 663.508C614.209 662.686 613.664 661.615 613.262 660.295C612.861 658.957 612.66 657.322 612.66 655.39V654.817C612.66 653.019 612.861 651.499 613.262 650.256C613.664 649.013 614.209 648.009 614.897 647.244C615.586 646.46 616.398 645.896 617.335 645.552C618.292 645.189 619.315 645.007 620.405 645.007C621.495 645.007 622.508 645.189 623.445 645.552C624.401 645.896 625.224 646.46 625.912 647.244C626.6 648.009 627.145 649.013 627.547 650.256C627.948 651.499 628.149 653.019 628.149 654.817V655.39C628.149 657.322 627.948 658.957 627.547 660.295C627.145 661.615 626.6 662.686 625.912 663.508C625.224 664.311 624.401 664.894 623.445 665.258C622.508 665.602 621.495 665.774 620.405 665.774ZM620.405 662.16C620.883 662.16 621.332 662.064 621.753 661.873C622.173 661.682 622.537 661.337 622.843 660.84C623.168 660.324 623.416 659.626 623.589 658.746C623.761 657.867 623.847 656.748 623.847 655.39V654.817C623.847 653.593 623.761 652.589 623.589 651.805C623.416 651.002 623.168 650.371 622.843 649.912C622.537 649.434 622.173 649.099 621.753 648.908C621.332 648.717 620.883 648.621 620.405 648.621C619.907 648.621 619.449 648.717 619.028 648.908C618.626 649.099 618.263 649.434 617.938 649.912C617.632 650.371 617.393 651.002 617.221 651.805C617.049 652.589 616.963 653.593 616.963 654.817V655.39C616.963 656.748 617.049 657.867 617.221 658.746C617.393 659.626 617.632 660.324 617.938 660.84C618.263 661.337 618.626 661.682 619.028 661.873C619.449 662.064 619.907 662.16 620.405 662.16ZM638.752 665.774C637.662 665.774 636.639 665.602 635.683 665.258C634.746 664.894 633.933 664.311 633.245 663.508C632.556 662.686 632.011 661.615 631.61 660.295C631.208 658.957 631.008 657.322 631.008 655.39V654.817C631.008 653.019 631.208 651.499 631.61 650.256C632.011 649.013 632.556 648.009 633.245 647.244C633.933 646.46 634.746 645.896 635.683 645.552C636.639 645.189 637.662 645.007 638.752 645.007C639.842 645.007 640.856 645.189 641.793 645.552C642.749 645.896 643.571 646.46 644.259 647.244C644.948 648.009 645.493 649.013 645.894 650.256C646.296 651.499 646.497 653.019 646.497 654.817V655.39C646.497 657.322 646.296 658.957 645.894 660.295C645.493 661.615 644.948 662.686 644.259 663.508C643.571 664.311 642.749 664.894 641.793 665.258C640.856 665.602 639.842 665.774 638.752 665.774ZM638.752 662.16C639.23 662.16 639.68 662.064 640.1 661.873C640.521 661.682 640.884 661.337 641.19 660.84C641.515 660.324 641.764 659.626 641.936 658.746C642.108 657.867 642.194 656.748 642.194 655.39V654.817C642.194 653.593 642.108 652.589 641.936 651.805C641.764 651.002 641.515 650.371 641.19 649.912C640.884 649.434 640.521 649.099 640.1 648.908C639.68 648.717 639.23 648.621 638.752 648.621C638.255 648.621 637.796 648.717 637.375 648.908C636.974 649.099 636.61 649.434 636.285 649.912C635.979 650.371 635.74 651.002 635.568 651.805C635.396 652.589 635.31 653.593 635.31 654.817V655.39C635.31 656.748 635.396 657.867 635.568 658.746C635.74 659.626 635.979 660.324 636.285 660.84C636.61 661.337 636.974 661.682 637.375 661.873C637.796 662.064 638.255 662.16 638.752 662.16ZM657.1 665.774C656.01 665.774 654.987 665.602 654.03 665.258C653.093 664.894 652.281 664.311 651.592 663.508C650.904 662.686 650.359 661.615 649.957 660.295C649.556 658.957 649.355 657.322 649.355 655.39V654.817C649.355 653.019 649.556 651.499 649.957 650.256C650.359 649.013 650.904 648.009 651.592 647.244C652.281 646.46 653.093 645.896 654.03 645.552C654.987 645.189 656.01 645.007 657.1 645.007C658.19 645.007 659.203 645.189 660.14 645.552C661.096 645.896 661.918 646.46 662.607 647.244C663.295 648.009 663.84 649.013 664.242 650.256C664.643 651.499 664.844 653.019 664.844 654.817V655.39C664.844 657.322 664.643 658.957 664.242 660.295C663.84 661.615 663.295 662.686 662.607 663.508C661.918 664.311 661.096 664.894 660.14 665.258C659.203 665.602 658.19 665.774 657.1 665.774ZM657.1 662.16C657.578 662.16 658.027 662.064 658.448 661.873C658.868 661.682 659.232 661.337 659.538 660.84C659.863 660.324 660.111 659.626 660.283 658.746C660.456 657.867 660.542 656.748 660.542 655.39V654.817C660.542 653.593 660.456 652.589 660.283 651.805C660.111 651.002 659.863 650.371 659.538 649.912C659.232 649.434 658.868 649.099 658.448 648.908C658.027 648.717 657.578 648.621 657.1 648.621C656.602 648.621 656.143 648.717 655.723 648.908C655.321 649.099 654.958 649.434 654.633 649.912C654.327 650.371 654.088 651.002 653.916 651.805C653.744 652.589 653.658 653.593 653.658 654.817V655.39C653.658 656.748 653.744 657.867 653.916 658.746C654.088 659.626 654.327 660.324 654.633 660.84C654.958 661.337 655.321 661.682 655.723 661.873C656.143 662.064 656.602 662.16 657.1 662.16ZM675.447 665.774C674.357 665.774 673.334 665.602 672.378 665.258C671.441 664.894 670.628 664.311 669.94 663.508C669.251 662.686 668.706 661.615 668.305 660.295C667.903 658.957 667.702 657.322 667.702 655.39V654.817C667.702 653.019 667.903 651.499 668.305 650.256C668.706 649.013 669.251 648.009 669.94 647.244C670.628 646.46 671.441 645.896 672.378 645.552C673.334 645.189 674.357 645.007 675.447 645.007C676.537 645.007 677.551 645.189 678.488 645.552C679.444 645.896 680.266 646.46 680.954 647.244C681.643 648.009 682.188 649.013 682.589 650.256C682.991 651.499 683.192 653.019 683.192 654.817V655.39C683.192 657.322 682.991 658.957 682.589 660.295C682.188 661.615 681.643 662.686 680.954 663.508C680.266 664.311 679.444 664.894 678.488 665.258C677.551 665.602 676.537 665.774 675.447 665.774ZM675.447 662.16C675.925 662.16 676.375 662.064 676.795 661.873C677.216 661.682 677.579 661.337 677.885 660.84C678.21 660.324 678.459 659.626 678.631 658.746C678.803 657.867 678.889 656.748 678.889 655.39V654.817C678.889 653.593 678.803 652.589 678.631 651.805C678.459 651.002 678.21 650.371 677.885 649.912C677.579 649.434 677.216 649.099 676.795 648.908C676.375 648.717 675.925 648.621 675.447 648.621C674.95 648.621 674.491 648.717 674.07 648.908C673.669 649.099 673.305 649.434 672.98 649.912C672.674 650.371 672.435 651.002 672.263 651.805C672.091 652.589 672.005 653.593 672.005 654.817V655.39C672.005 656.748 672.091 657.867 672.263 658.746C672.435 659.626 672.674 660.324 672.98 660.84C673.305 661.337 673.669 661.682 674.07 661.873C674.491 662.064 674.95 662.16 675.447 662.16ZM689.062 665.774C688.392 665.774 687.819 665.535 687.341 665.057C686.863 664.579 686.624 664.005 686.624 663.336C686.624 662.628 686.863 662.045 687.341 661.586C687.819 661.127 688.392 660.898 689.062 660.898C689.731 660.898 690.305 661.127 690.783 661.586C691.261 662.045 691.5 662.628 691.5 663.336C691.5 664.005 691.261 664.579 690.783 665.057C690.305 665.535 689.731 665.774 689.062 665.774Z" fill="#D0643B"/>
<path d="M698.711 666.893H713.053V669.704H698.711V666.893ZM713.053 666.893H727.395V669.704H713.053V666.893ZM727.395 666.893H741.737V669.704H727.395V666.893ZM741.737 666.893H756.079V669.704H741.737V666.893ZM756.079 666.893H770.421V669.704H756.079V666.893ZM770.421 666.893H784.762V669.704H770.421V666.893ZM784.762 666.893H799.104V669.704H784.762V666.893ZM799.104 666.893H813.446V669.704H799.104V666.893ZM813.446 666.893H827.788V669.704H813.446V666.893ZM827.788 666.893H842.13V669.704H827.788V666.893ZM842.13 666.893H856.472V669.704H842.13V666.893ZM860.918 665.774C860.248 665.774 859.675 665.535 859.197 665.057C858.718 664.579 858.479 664.005 858.479 663.336C858.479 662.628 858.718 662.045 859.197 661.586C859.675 661.127 860.248 660.898 860.918 660.898C861.587 660.898 862.161 661.127 862.639 661.586C863.117 662.045 863.356 662.628 863.356 663.336C863.356 664.005 863.117 664.579 862.639 665.057C862.161 665.535 861.587 665.774 860.918 665.774Z" fill="black"/>
<path d="M870.711 666.893H885.053V669.704H870.711V666.893ZM885.053 666.893H899.395V669.704H885.053V666.893ZM899.395 666.893H913.737V669.704H899.395V666.893ZM913.737 666.893H928.079V669.704H913.737V666.893ZM928.079 666.893H942.421V669.704H928.079V666.893ZM942.421 666.893H956.762V669.704H942.421V666.893ZM956.762 666.893H971.104V669.704H956.762V666.893ZM971.104 666.893H985.446V669.704H971.104V666.893ZM985.446 666.893H999.788V669.704H985.446V666.893ZM999.788 666.893H1014.13V669.704H999.788V666.893ZM1014.13 666.893H1028.47V669.704H1014.13V666.893ZM1032.92 665.774C1032.25 665.774 1031.67 665.535 1031.2 665.057C1030.72 664.579 1030.48 664.005 1030.48 663.336C1030.48 662.628 1030.72 662.045 1031.2 661.586C1031.67 661.127 1032.25 660.898 1032.92 660.898C1033.59 660.898 1034.16 661.127 1034.64 661.586C1035.12 662.045 1035.36 662.628 1035.36 663.336C1035.36 664.005 1035.12 664.579 1034.64 665.057C1034.16 665.535 1033.59 665.774 1032.92 665.774Z" fill="black"/>
<path d="M1042.71 666.893H1057.05V669.704H1042.71V666.893ZM1057.05 666.893H1071.39V669.704H1057.05V666.893ZM1071.39 666.893H1085.74V669.704H1071.39V666.893ZM1085.74 666.893H1100.08V669.704H1085.74V666.893ZM1100.08 666.893H1114.42V669.704H1100.08V666.893ZM1114.42 666.893H1128.76V669.704H1114.42V666.893ZM1128.76 666.893H1143.1V669.704H1128.76V666.893ZM1143.1 666.893H1157.45V669.704H1143.1V666.893ZM1157.45 666.893H1171.79V669.704H1157.45V666.893ZM1171.79 666.893H1186.13V669.704H1171.79V666.893ZM1186.13 666.893H1200.47V669.704H1186.13V666.893ZM1204.92 665.774C1204.25 665.774 1203.67 665.535 1203.2 665.057C1202.72 664.579 1202.48 664.005 1202.48 663.336C1202.48 662.628 1202.72 662.045 1203.2 661.586C1203.67 661.127 1204.25 660.898 1204.92 660.898C1205.59 660.898 1206.16 661.127 1206.64 661.586C1207.12 662.045 1207.36 662.628 1207.36 663.336C1207.36 664.005 1207.12 664.579 1206.64 665.057C1206.16 665.535 1205.59 665.774 1204.92 665.774Z" fill="black"/>
<rect x="448.443" y="333.773" width="833.223" height="111.155" stroke="#D0643B" stroke-width="6"/>
</svg>
