<svg width="1551" height="974" viewBox="0 0 1551 974" fill="none" xmlns="http://www.w3.org/2000/svg">
<rect x="407.691" y="443.178" width="104.135" height="109.408" fill="#D0643B"/>
<rect x="407.691" y="443.178" width="104.135" height="109.408" stroke="#D0643B" stroke-width="1.31816"/>
<rect x="511.826" y="443.178" width="104.135" height="109.408" fill="#F7F7F7"/>
<rect x="511.826" y="443.178" width="104.135" height="109.408" stroke="#DADADA" stroke-width="2"/>
<rect x="615.961" y="443.178" width="104.135" height="109.408" fill="#D0643B"/>
<rect x="615.961" y="443.178" width="104.135" height="109.408" stroke="#D0643B" stroke-width="1.31816"/>
<rect x="720.096" y="443.178" width="104.135" height="109.408" fill="#F7F7F7"/>
<rect x="720.096" y="443.178" width="104.135" height="109.408" stroke="#DADADA" stroke-width="2"/>
<rect x="824.23" y="443.178" width="104.135" height="109.408" fill="#D0643B"/>
<rect x="824.23" y="443.178" width="104.135" height="109.408" stroke="#D0643B" stroke-width="1.31816"/>
<rect x="928.365" y="443.178" width="104.135" height="109.408" fill="#F7F7F7"/>
<rect x="928.365" y="443.178" width="104.135" height="109.408" stroke="#DADADA" stroke-width="2"/>
<rect x="1032.5" y="443.178" width="104.135" height="109.408" fill="#F7F7F7"/>
<rect x="1032.5" y="443.178" width="104.135" height="109.408" stroke="#DADADA" stroke-width="2"/>
<rect x="1136.63" y="443.178" width="104.135" height="109.408" fill="#F7F7F7"/>
<rect x="1136.63" y="443.178" width="104.135" height="109.408" stroke="#DADADA" stroke-width="2"/>
<rect x="407.547" y="333.77" width="104.135" height="109.408" fill="#F7F7F7"/>
<path d="M435.906 395.416H440.495V383.254L435.906 386.524V382.336L440.754 378.894H444.798V395.416H448.527V398.973H435.906V395.416ZM449.958 395.846L456.985 389.794C457.635 389.22 458.19 388.723 458.649 388.302C459.108 387.863 459.481 387.461 459.767 387.098C460.054 386.734 460.255 386.381 460.37 386.036C460.504 385.692 460.571 385.319 460.571 384.918C460.571 384.095 460.341 383.436 459.882 382.938C459.423 382.422 458.744 382.164 457.846 382.164C456.813 382.164 456 382.451 455.408 383.025C454.834 383.579 454.547 384.545 454.547 385.922H450.244C450.244 383.646 450.885 381.848 452.166 380.529C453.467 379.21 455.36 378.55 457.846 378.55C459.012 378.55 460.026 378.712 460.886 379.037C461.766 379.343 462.502 379.783 463.095 380.357C463.688 380.911 464.127 381.581 464.414 382.365C464.72 383.149 464.873 384 464.873 384.918C464.873 385.606 464.749 386.266 464.5 386.897C464.252 387.509 463.907 388.102 463.468 388.675C463.047 389.249 462.55 389.813 461.976 390.368C461.402 390.903 460.791 391.438 460.14 391.974L456.01 395.416H465.16V398.973H449.958V395.846ZM475.332 399.317C474.127 399.317 473.037 399.183 472.062 398.915C471.105 398.628 470.293 398.236 469.623 397.739C468.973 397.223 468.467 396.611 468.103 395.904C467.759 395.177 467.587 394.374 467.587 393.494C467.587 392.366 467.931 391.362 468.62 390.482C469.308 389.584 470.331 388.952 471.689 388.589C470.675 388.264 469.834 387.7 469.165 386.897C468.495 386.094 468.161 385.138 468.161 384.028C468.161 383.225 468.314 382.489 468.62 381.82C468.945 381.151 469.413 380.577 470.025 380.099C470.637 379.602 471.383 379.219 472.262 378.951C473.161 378.684 474.184 378.55 475.332 378.55C476.479 378.55 477.492 378.684 478.372 378.951C479.271 379.219 480.026 379.602 480.638 380.099C481.269 380.577 481.738 381.151 482.043 381.82C482.369 382.489 482.531 383.225 482.531 384.028C482.531 385.138 482.196 386.084 481.527 386.868C480.858 387.633 480.007 388.207 478.974 388.589C481.709 389.431 483.076 391.066 483.076 393.494C483.076 394.374 482.894 395.177 482.531 395.904C482.187 396.611 481.68 397.223 481.011 397.739C480.361 398.236 479.558 398.628 478.601 398.915C477.645 399.183 476.555 399.317 475.332 399.317ZM475.332 395.703C476.517 395.703 477.387 395.473 477.942 395.014C478.496 394.555 478.774 393.934 478.774 393.15C478.774 392.289 478.448 391.611 477.798 391.113C477.167 390.597 476.345 390.262 475.332 390.109C474.318 390.262 473.486 390.597 472.836 391.113C472.205 391.611 471.889 392.289 471.889 393.15C471.889 393.934 472.176 394.555 472.75 395.014C473.324 395.473 474.184 395.703 475.332 395.703ZM475.332 387.184C476.192 387.031 476.89 386.734 477.425 386.294C477.961 385.836 478.229 385.204 478.229 384.401C478.229 383.656 477.97 383.101 477.454 382.738C476.957 382.355 476.249 382.164 475.332 382.164C474.433 382.164 473.725 382.355 473.209 382.738C472.712 383.101 472.463 383.656 472.463 384.401C472.463 385.204 472.721 385.836 473.238 386.294C473.773 386.734 474.471 387.031 475.332 387.184Z" fill="black"/>
<rect x="407.547" y="333.77" width="104.135" height="109.408" stroke="#DADADA" stroke-width="2"/>
<rect x="511.682" y="333.77" width="104.135" height="109.408" fill="#F7F7F7"/>
<path d="M555.072 399.317C553.81 399.317 552.691 399.135 551.716 398.772C550.741 398.409 549.919 397.844 549.249 397.08C548.58 396.296 548.064 395.301 547.7 394.096C547.356 392.892 547.184 391.458 547.184 389.794V389.22C547.184 387.308 547.385 385.683 547.787 384.344C548.188 382.986 548.752 381.877 549.479 381.017C550.206 380.156 551.066 379.535 552.06 379.152C553.074 378.751 554.173 378.55 555.359 378.55C557.214 378.55 558.715 378.942 559.862 379.726C561.01 380.51 561.708 381.81 561.956 383.627H557.941C557.558 382.652 556.65 382.164 555.216 382.164C554.661 382.164 554.145 382.25 553.667 382.422C553.208 382.575 552.797 382.872 552.433 383.311C552.089 383.732 551.812 384.315 551.601 385.061C551.391 385.807 551.257 386.763 551.2 387.929C551.448 387.547 551.754 387.231 552.118 386.983C552.481 386.715 552.873 386.505 553.294 386.352C553.734 386.18 554.183 386.055 554.642 385.979C555.12 385.902 555.598 385.864 556.076 385.864C558.103 385.864 559.662 386.419 560.752 387.528C561.842 388.618 562.387 390.167 562.387 392.175V392.49C562.387 393.504 562.205 394.431 561.842 395.272C561.478 396.114 560.971 396.841 560.321 397.452C559.69 398.045 558.925 398.504 558.027 398.829C557.128 399.154 556.143 399.317 555.072 399.317ZM554.785 395.703C555.818 395.703 556.621 395.416 557.195 394.842C557.788 394.249 558.084 393.494 558.084 392.576V392.289C558.084 391.371 557.788 390.626 557.195 390.052C556.621 389.478 555.818 389.192 554.785 389.192C553.753 389.192 552.94 389.478 552.347 390.052C551.774 390.626 551.487 391.371 551.487 392.289V392.576C551.487 393.494 551.774 394.249 552.347 394.842C552.94 395.416 553.753 395.703 554.785 395.703ZM573.717 394.727H564.251V391.744L573.717 378.894H578.019V391.171H580.314V394.727H578.019V398.973H573.717V394.727ZM573.717 391.171V383.684L568.267 391.171H573.717Z" fill="black"/>
<rect x="511.682" y="333.77" width="104.135" height="109.408" stroke="#DADADA" stroke-width="2"/>
<rect x="615.816" y="333.77" width="104.135" height="109.408" fill="#F7F7F7"/>
<path d="M658.846 399.317C656.399 399.317 654.544 398.743 653.282 397.596C652.02 396.429 651.389 394.833 651.389 392.806H655.691C655.691 393.781 655.94 394.508 656.437 394.986C656.953 395.464 657.756 395.703 658.846 395.703C659.898 395.703 660.682 395.473 661.199 395.014C661.734 394.536 662.002 393.867 662.002 393.006C662.002 391.209 660.95 390.31 658.846 390.31H656.982V386.983H658.846C659.764 386.983 660.472 386.792 660.969 386.409C661.466 386.027 661.715 385.434 661.715 384.631C661.715 383.904 661.476 383.311 660.998 382.852C660.52 382.393 659.803 382.164 658.846 382.164C657.871 382.164 657.145 382.393 656.666 382.852C656.208 383.292 655.978 383.933 655.978 384.774H651.676C651.676 382.805 652.268 381.275 653.454 380.185C654.659 379.095 656.456 378.55 658.846 378.55C660.051 378.55 661.103 378.693 662.002 378.98C662.9 379.248 663.646 379.63 664.239 380.127C664.832 380.606 665.272 381.179 665.558 381.848C665.864 382.518 666.017 383.244 666.017 384.028C666.017 385.138 665.702 386.084 665.071 386.868C664.459 387.633 663.637 388.178 662.604 388.503C663.79 388.828 664.698 389.392 665.329 390.195C665.979 390.999 666.304 392.06 666.304 393.379C666.304 394.24 666.132 395.033 665.788 395.76C665.444 396.487 664.947 397.118 664.296 397.653C663.665 398.17 662.881 398.581 661.944 398.887C661.026 399.173 659.994 399.317 658.846 399.317ZM668.612 395.846L675.64 389.794C676.29 389.22 676.845 388.723 677.304 388.302C677.762 387.863 678.135 387.461 678.422 387.098C678.709 386.734 678.91 386.381 679.025 386.036C679.158 385.692 679.225 385.319 679.225 384.918C679.225 384.095 678.996 383.436 678.537 382.938C678.078 382.422 677.399 382.164 676.5 382.164C675.468 382.164 674.655 382.451 674.062 383.025C673.489 383.579 673.202 384.545 673.202 385.922H668.899C668.899 383.646 669.54 381.848 670.821 380.529C672.121 379.21 674.014 378.55 676.5 378.55C677.667 378.55 678.68 378.712 679.541 379.037C680.42 379.343 681.157 379.783 681.749 380.357C682.342 380.911 682.782 381.581 683.069 382.365C683.375 383.149 683.528 384 683.528 384.918C683.528 385.606 683.404 386.266 683.155 386.897C682.906 387.509 682.562 388.102 682.122 388.675C681.702 389.249 681.204 389.813 680.631 390.368C680.057 390.903 679.445 391.438 678.795 391.974L674.665 395.416H683.815V398.973H668.612V395.846Z" fill="black"/>
<rect x="615.816" y="333.77" width="104.135" height="109.408" stroke="#DADADA" stroke-width="2"/>
<rect x="719.951" y="333.77" width="104.135" height="109.408" fill="#F7F7F7"/>
<path d="M756.81 395.416H761.4V383.254L756.81 386.524V382.336L761.658 378.894H765.702V395.416H769.431V398.973H756.81V395.416ZM779.324 399.317C778.062 399.317 776.943 399.135 775.968 398.772C774.992 398.409 774.17 397.844 773.501 397.08C772.832 396.296 772.315 395.301 771.952 394.096C771.608 392.892 771.436 391.458 771.436 389.794V389.22C771.436 387.308 771.636 385.683 772.038 384.344C772.44 382.986 773.004 381.877 773.73 381.017C774.457 380.156 775.317 379.535 776.312 379.152C777.325 378.751 778.425 378.55 779.61 378.55C781.465 378.55 782.966 378.942 784.114 379.726C785.261 380.51 785.959 381.81 786.208 383.627H782.192C781.81 382.652 780.901 382.164 779.467 382.164C778.912 382.164 778.396 382.25 777.918 382.422C777.459 382.575 777.048 382.872 776.685 383.311C776.341 383.732 776.063 384.315 775.853 385.061C775.643 385.807 775.509 386.763 775.451 387.929C775.7 387.547 776.006 387.231 776.369 386.983C776.733 386.715 777.125 386.505 777.545 386.352C777.985 386.18 778.434 386.055 778.893 385.979C779.371 385.902 779.849 385.864 780.328 385.864C782.355 385.864 783.913 386.419 785.003 387.528C786.093 388.618 786.638 390.167 786.638 392.175V392.49C786.638 393.504 786.456 394.431 786.093 395.272C785.73 396.114 785.223 396.841 784.573 397.452C783.942 398.045 783.177 398.504 782.278 398.829C781.379 399.154 780.394 399.317 779.324 399.317ZM779.037 395.703C780.069 395.703 780.873 395.416 781.446 394.842C782.039 394.249 782.335 393.494 782.335 392.576V392.289C782.335 391.371 782.039 390.626 781.446 390.052C780.873 389.478 780.069 389.192 779.037 389.192C778.004 389.192 777.191 389.478 776.599 390.052C776.025 390.626 775.738 391.371 775.738 392.289V392.576C775.738 393.494 776.025 394.249 776.599 394.842C777.191 395.416 778.004 395.703 779.037 395.703Z" fill="black"/>
<rect x="719.951" y="333.77" width="104.135" height="109.408" stroke="#DADADA" stroke-width="2"/>
<rect x="824.086" y="333.77" width="104.135" height="109.408" fill="#F7F7F7"/>
<path d="M875.69 399.317C874.485 399.317 873.395 399.183 872.42 398.915C871.464 398.628 870.651 398.236 869.982 397.739C869.331 397.223 868.825 396.611 868.461 395.904C868.117 395.177 867.945 394.374 867.945 393.494C867.945 392.366 868.289 391.362 868.978 390.482C869.666 389.584 870.689 388.952 872.047 388.589C871.033 388.264 870.192 387.7 869.523 386.897C868.853 386.094 868.519 385.138 868.519 384.028C868.519 383.225 868.672 382.489 868.978 381.82C869.303 381.151 869.771 380.577 870.383 380.099C870.995 379.602 871.741 379.219 872.621 378.951C873.519 378.684 874.542 378.55 875.69 378.55C876.837 378.55 877.85 378.684 878.73 378.951C879.629 379.219 880.384 379.602 880.996 380.099C881.627 380.577 882.096 381.151 882.402 381.82C882.727 382.489 882.889 383.225 882.889 384.028C882.889 385.138 882.555 386.084 881.885 386.868C881.216 387.633 880.365 388.207 879.332 388.589C882.067 389.431 883.434 391.066 883.434 393.494C883.434 394.374 883.253 395.177 882.889 395.904C882.545 396.611 882.038 397.223 881.369 397.739C880.719 398.236 879.916 398.628 878.96 398.915C878.003 399.183 876.913 399.317 875.69 399.317ZM875.69 395.703C876.875 395.703 877.745 395.473 878.3 395.014C878.854 394.555 879.132 393.934 879.132 393.15C879.132 392.289 878.807 391.611 878.156 391.113C877.525 390.597 876.703 390.262 875.69 390.109C874.676 390.262 873.844 390.597 873.194 391.113C872.563 391.611 872.248 392.289 872.248 393.15C872.248 393.934 872.534 394.555 873.108 395.014C873.682 395.473 874.542 395.703 875.69 395.703ZM875.69 387.184C876.55 387.031 877.248 386.734 877.784 386.294C878.319 385.836 878.587 385.204 878.587 384.401C878.587 383.656 878.329 383.101 877.812 382.738C877.315 382.355 876.608 382.164 875.69 382.164C874.791 382.164 874.083 382.355 873.567 382.738C873.07 383.101 872.821 383.656 872.821 384.401C872.821 385.204 873.079 385.836 873.596 386.294C874.131 386.734 874.829 387.031 875.69 387.184Z" fill="black"/>
<rect x="824.086" y="333.77" width="104.135" height="109.408" stroke="#DADADA" stroke-width="2"/>
<rect x="928.221" y="333.77" width="104.135" height="109.408" fill="#F7F7F7"/>
<path d="M980.828 394.727H971.363V391.744L980.828 378.894H985.131V391.171H987.426V394.727H985.131V398.973H980.828V394.727ZM980.828 391.171V383.684L975.378 391.171H980.828Z" fill="black"/>
<rect x="928.221" y="333.77" width="104.135" height="109.408" stroke="#DADADA" stroke-width="2"/>
<rect x="1032.36" y="333.77" width="104.135" height="109.408" fill="#F7F7F7"/>
<path d="M1076.28 395.846L1083.31 389.794C1083.96 389.22 1084.52 388.723 1084.98 388.302C1085.43 387.863 1085.81 387.461 1086.09 387.098C1086.38 386.734 1086.58 386.381 1086.7 386.036C1086.83 385.692 1086.9 385.319 1086.9 384.918C1086.9 384.095 1086.67 383.436 1086.21 382.938C1085.75 382.422 1085.07 382.164 1084.17 382.164C1083.14 382.164 1082.33 382.451 1081.73 383.025C1081.16 383.579 1080.87 384.545 1080.87 385.922H1076.57C1076.57 383.646 1077.21 381.848 1078.49 380.529C1079.79 379.21 1081.69 378.55 1084.17 378.55C1085.34 378.55 1086.35 378.712 1087.21 379.037C1088.09 379.343 1088.83 379.783 1089.42 380.357C1090.01 380.911 1090.45 381.581 1090.74 382.365C1091.05 383.149 1091.2 384 1091.2 384.918C1091.2 385.606 1091.08 386.266 1090.83 386.897C1090.58 387.509 1090.23 388.102 1089.79 388.675C1089.37 389.249 1088.88 389.813 1088.3 390.368C1087.73 390.903 1087.12 391.438 1086.47 391.974L1082.34 395.416H1091.49V398.973H1076.28V395.846Z" fill="black"/>
<rect x="1032.36" y="333.77" width="104.135" height="109.408" stroke="#DADADA" stroke-width="2"/>
<rect x="1136.49" y="333.77" width="104.135" height="109.408" fill="#F7F7F7"/>
<path d="M1182.35 395.416H1186.94V383.254L1182.35 386.524V382.336L1187.2 378.894H1191.24V395.416H1194.97V398.973H1182.35V395.416Z" fill="black"/>
<rect x="1136.49" y="333.77" width="104.135" height="109.408" stroke="#DADADA" stroke-width="2"/>
<path d="M910.181 150.549V149.049H909.82L909.498 149.213L910.181 150.549ZM1376.44 150.549H1377.94V149.049H1376.44V150.549ZM1376.44 681.295L1385.1 666.295H1367.78L1376.44 681.295ZM776.129 219.035L775.447 220.371L776.129 220.719L776.812 220.371L776.129 219.035ZM910.181 152.049H1376.44V149.049H910.181V152.049ZM1374.94 150.549V667.795H1377.94V150.549H1374.94ZM909.498 149.213L775.447 217.699L776.812 220.371L910.863 151.885L909.498 149.213ZM776.812 217.699L642.761 149.213L641.396 151.885L775.447 220.371L776.812 217.699Z" fill="black"/>
<path d="M878 714.43V715.93H876.5V714.43H878ZM878 556.43L886.66 571.43H869.34L878 556.43ZM1271 715.93H878V712.93H1271V715.93ZM876.5 714.43V569.93H879.5V714.43H876.5Z" fill="black"/>
<rect x="1271.08" y="684.387" width="210.727" height="59.3633" fill="#F3F3F3"/>
<path d="M1298.02 721.012H1300.25C1300.54 720.342 1300.78 719.539 1300.97 718.602C1301.16 717.646 1301.32 716.642 1301.43 715.59C1301.55 714.52 1301.63 713.43 1301.69 712.32C1301.75 711.192 1301.77 710.112 1301.77 709.079V704.49H1315.92V721.012H1318.1V728.297H1314.25V724.568H1301.86V728.297H1298.02V721.012ZM1311.61 721.012V708.047H1305.85V709.653C1305.85 712.273 1305.72 714.481 1305.47 716.279C1305.23 718.076 1304.87 719.654 1304.41 721.012H1311.61ZM1327.42 724.913C1326.39 724.913 1325.4 724.76 1324.47 724.454C1323.55 724.129 1322.75 723.641 1322.06 722.991C1321.37 722.341 1320.82 721.528 1320.42 720.553C1320.02 719.577 1319.82 718.43 1319.82 717.111V716.537C1319.82 715.294 1320.02 714.204 1320.42 713.267C1320.82 712.33 1321.37 711.546 1322.06 710.915C1322.75 710.284 1323.55 709.815 1324.47 709.509C1325.4 709.184 1326.39 709.022 1327.42 709.022C1328.45 709.022 1329.43 709.184 1330.35 709.509C1331.26 709.815 1332.07 710.284 1332.76 710.915C1333.46 711.546 1334.02 712.33 1334.42 713.267C1334.82 714.204 1335.02 715.294 1335.02 716.537V717.111C1335.02 718.411 1334.82 719.549 1334.42 720.524C1334.02 721.499 1333.46 722.312 1332.76 722.962C1332.07 723.612 1331.26 724.1 1330.35 724.425C1329.43 724.75 1328.45 724.913 1327.42 724.913ZM1327.42 721.7C1328.49 721.7 1329.38 721.318 1330.09 720.553C1330.82 719.788 1331.18 718.64 1331.18 717.111V716.537C1331.18 715.141 1330.82 714.08 1330.09 713.353C1329.38 712.607 1328.49 712.234 1327.42 712.234C1326.33 712.234 1325.43 712.607 1324.72 713.353C1324.02 714.08 1323.66 715.141 1323.66 716.537V717.111C1323.66 718.66 1324.02 719.816 1324.72 720.581C1325.43 721.327 1326.33 721.7 1327.42 721.7ZM1344.62 724.913C1343.55 724.913 1342.55 724.731 1341.64 724.368C1340.74 724.004 1339.95 723.459 1339.29 722.733C1338.62 721.987 1338.09 721.079 1337.71 720.008C1337.34 718.918 1337.16 717.656 1337.16 716.221V715.562C1337.16 713.841 1337.29 712.311 1337.54 710.972C1337.8 709.634 1338.23 708.496 1338.83 707.559C1339.44 706.622 1340.24 705.895 1341.24 705.379C1342.25 704.844 1343.51 704.538 1345.02 704.461C1345.61 704.442 1346.2 704.423 1346.77 704.404C1347.35 704.385 1347.89 704.356 1348.41 704.318C1348.92 704.279 1349.39 704.222 1349.81 704.146C1350.23 704.05 1350.61 703.926 1350.93 703.773V707.129C1350.62 707.301 1350.05 707.444 1349.21 707.559C1348.39 707.674 1347.13 707.741 1345.45 707.76C1344.59 707.779 1343.85 707.884 1343.21 708.075C1342.6 708.247 1342.09 708.534 1341.67 708.936C1341.26 709.318 1340.94 709.825 1340.69 710.456C1340.46 711.087 1340.3 711.861 1340.2 712.779C1340.64 711.919 1341.3 711.221 1342.18 710.685C1343.06 710.15 1344.21 709.882 1345.62 709.882C1346.58 709.882 1347.45 710.035 1348.23 710.341C1349.02 710.628 1349.7 711.058 1350.27 711.632C1350.84 712.206 1351.28 712.913 1351.59 713.755C1351.92 714.596 1352.08 715.571 1352.08 716.68V717.225C1352.08 718.43 1351.89 719.51 1351.5 720.467C1351.14 721.423 1350.62 722.235 1349.96 722.905C1349.29 723.555 1348.49 724.052 1347.57 724.396C1346.68 724.74 1345.69 724.913 1344.62 724.913ZM1344.62 721.7C1345.77 721.7 1346.66 721.327 1347.29 720.581C1347.92 719.816 1348.23 718.736 1348.23 717.34V716.766C1348.23 715.562 1347.91 714.615 1347.26 713.927C1346.61 713.238 1345.73 712.894 1344.62 712.894C1343.53 712.894 1342.65 713.238 1341.98 713.927C1341.33 714.615 1341.01 715.562 1341.01 716.766V717.283C1341.01 717.971 1341.09 718.593 1341.26 719.147C1341.46 719.702 1341.71 720.17 1342.04 720.553C1342.36 720.916 1342.75 721.203 1343.19 721.413C1343.63 721.604 1344.1 721.7 1344.62 721.7ZM1359.36 724.913C1358.53 724.913 1357.81 724.798 1357.18 724.568C1356.54 724.32 1356.01 723.985 1355.57 723.564C1355.13 723.125 1354.8 722.618 1354.57 722.044C1354.34 721.451 1354.22 720.811 1354.22 720.122C1354.22 717.063 1356.04 715.533 1359.67 715.533H1364.2V714.816C1364.2 713.822 1363.97 713.124 1363.51 712.722C1363.08 712.32 1362.37 712.12 1361.39 712.12C1360.53 712.12 1359.91 712.273 1359.53 712.579C1359.15 712.865 1358.93 713.229 1358.87 713.669H1355.08C1355.12 713.018 1355.28 712.406 1355.57 711.833C1355.88 711.259 1356.3 710.772 1356.83 710.37C1357.39 709.949 1358.06 709.624 1358.84 709.395C1359.62 709.146 1360.52 709.022 1361.54 709.022C1362.51 709.022 1363.39 709.127 1364.17 709.337C1364.98 709.548 1365.66 709.892 1366.21 710.37C1366.78 710.829 1367.22 711.431 1367.53 712.177C1367.84 712.923 1367.99 713.822 1367.99 714.873V720.696C1367.99 721.499 1368 722.207 1368.02 722.819C1368.06 723.411 1368.11 723.995 1368.19 724.568H1364.66C1364.59 724.148 1364.54 723.832 1364.52 723.622C1364.52 723.392 1364.52 723.058 1364.52 722.618C1364.1 723.23 1363.46 723.765 1362.6 724.224C1361.76 724.683 1360.68 724.913 1359.36 724.913ZM1360.53 721.987C1360.99 721.987 1361.44 721.929 1361.88 721.815C1362.32 721.681 1362.71 721.49 1363.06 721.241C1363.4 720.973 1363.68 720.639 1363.89 720.237C1364.1 719.836 1364.2 719.367 1364.2 718.832V718.115H1360.39C1359.66 718.115 1359.09 718.287 1358.67 718.631C1358.27 718.956 1358.06 719.405 1358.06 719.979C1358.06 720.591 1358.28 721.079 1358.7 721.442C1359.12 721.805 1359.73 721.987 1360.53 721.987ZM1371.29 709.366H1378.92C1379.9 709.366 1380.73 709.471 1381.42 709.682C1382.13 709.873 1382.71 710.15 1383.17 710.513C1383.63 710.877 1383.96 711.307 1384.17 711.804C1384.38 712.301 1384.49 712.846 1384.49 713.439C1384.49 714.147 1384.27 714.816 1383.83 715.447C1383.41 716.059 1382.82 716.47 1382.08 716.68C1383.02 716.91 1383.74 717.35 1384.26 718C1384.79 718.631 1385.06 719.377 1385.06 720.237C1385.06 721.557 1384.6 722.608 1383.69 723.392C1382.77 724.176 1381.37 724.568 1379.5 724.568H1371.29V709.366ZM1378.75 721.528C1379.61 721.528 1380.24 721.404 1380.64 721.155C1381.07 720.887 1381.28 720.467 1381.28 719.893C1381.28 719.319 1381.07 718.908 1380.67 718.66C1380.29 718.392 1379.65 718.258 1378.75 718.258H1375.08V721.528H1378.75ZM1378.38 715.447C1379.26 715.447 1379.86 715.323 1380.19 715.074C1380.53 714.825 1380.7 714.443 1380.7 713.927C1380.7 713.43 1380.53 713.057 1380.19 712.808C1379.84 712.54 1379.24 712.406 1378.38 712.406H1375.08V715.447H1378.38ZM1387.79 709.366H1391.58V719.118L1398.35 709.366H1401.85V724.568H1398.06V714.816L1391.29 724.568H1387.79V709.366ZM1409 712.521H1404.15V709.366H1417.63V712.521H1412.79V724.568H1409V712.521ZM1419.92 709.366H1423.71V714.472H1426.95C1430.87 714.472 1432.83 716.154 1432.83 719.52C1432.83 720.266 1432.71 720.954 1432.49 721.585C1432.27 722.197 1431.93 722.723 1431.45 723.163C1430.97 723.603 1430.36 723.947 1429.62 724.195C1428.87 724.444 1427.98 724.568 1426.95 724.568H1419.92V709.366ZM1426.52 721.528C1427.44 721.528 1428.09 721.365 1428.47 721.04C1428.85 720.696 1429.04 720.189 1429.04 719.52C1429.04 718.851 1428.84 718.354 1428.44 718.028C1428.06 717.684 1427.42 717.512 1426.52 717.512H1423.71V721.528H1426.52ZM1442.01 721.012H1446.6V708.85L1442.01 712.12V707.932L1446.86 704.49H1450.9V721.012H1454.63V724.568H1442.01V721.012Z" fill="black"/>
<rect x="1271.08" y="684.387" width="210.727" height="59.3633" stroke="#DADADA" stroke-width="2"/>
<path d="M231.081 373.24H243.05V388.473H241.004V375.025H233.127V388.473H231.081V373.24ZM251.754 388.69C251.014 388.69 250.31 388.574 249.643 388.342C248.976 388.095 248.388 387.733 247.88 387.254C247.373 386.761 246.966 386.144 246.662 385.404C246.357 384.665 246.205 383.801 246.205 382.815V382.38C246.205 381.451 246.357 380.632 246.662 379.921C246.966 379.21 247.373 378.622 247.88 378.158C248.388 377.68 248.976 377.324 249.643 377.092C250.31 376.845 251.014 376.722 251.754 376.722C252.494 376.722 253.197 376.845 253.864 377.092C254.532 377.324 255.119 377.68 255.627 378.158C256.135 378.622 256.541 379.21 256.846 379.921C257.15 380.632 257.303 381.451 257.303 382.38V382.815C257.303 383.801 257.15 384.665 256.846 385.404C256.541 386.144 256.135 386.761 255.627 387.254C255.119 387.733 254.532 388.095 253.864 388.342C253.197 388.574 252.494 388.69 251.754 388.69ZM251.754 386.949C252.189 386.949 252.624 386.877 253.059 386.732C253.495 386.572 253.879 386.333 254.213 386.014C254.546 385.68 254.815 385.252 255.018 384.73C255.235 384.208 255.344 383.569 255.344 382.815V382.38C255.344 381.683 255.235 381.089 255.018 380.595C254.815 380.102 254.546 379.696 254.213 379.377C253.879 379.058 253.495 378.826 253.059 378.68C252.624 378.535 252.189 378.463 251.754 378.463C251.318 378.463 250.883 378.535 250.448 378.68C250.013 378.826 249.628 379.058 249.295 379.377C248.961 379.696 248.685 380.102 248.468 380.595C248.265 381.089 248.163 381.683 248.163 382.38V382.815C248.163 383.569 248.265 384.208 248.468 384.73C248.685 385.252 248.961 385.68 249.295 386.014C249.628 386.333 250.013 386.572 250.448 386.732C250.883 386.877 251.318 386.949 251.754 386.949ZM263.931 388.69C262.48 388.69 261.341 388.386 260.515 387.776C259.688 387.167 259.231 386.311 259.144 385.209H261.059C261.16 385.774 261.458 386.21 261.951 386.514C262.459 386.804 263.119 386.949 263.931 386.949C264.932 386.949 265.657 386.783 266.107 386.449C266.571 386.101 266.803 385.687 266.803 385.209C266.803 384.643 266.615 384.2 266.238 383.881C265.86 383.548 265.208 383.381 264.279 383.381H262.299V381.814H264.149C264.946 381.814 265.512 381.662 265.846 381.357C266.194 381.052 266.368 380.624 266.368 380.073C266.368 379.638 266.165 379.261 265.759 378.942C265.353 378.622 264.743 378.463 263.931 378.463C263.046 378.463 262.4 378.608 261.994 378.898C261.603 379.174 261.363 379.573 261.276 380.095H259.361C259.405 379.616 259.535 379.174 259.753 378.768C259.985 378.347 260.297 377.984 260.689 377.68C261.08 377.375 261.545 377.143 262.081 376.983C262.633 376.809 263.249 376.722 263.931 376.722C264.671 376.722 265.309 376.809 265.846 376.983C266.397 377.143 266.854 377.375 267.217 377.68C267.579 377.97 267.848 378.318 268.022 378.724C268.196 379.13 268.283 379.58 268.283 380.073C268.283 380.624 268.145 381.11 267.87 381.531C267.594 381.937 267.152 382.256 266.542 382.489C267.355 382.706 267.92 383.054 268.24 383.533C268.559 384.012 268.718 384.57 268.718 385.209C268.718 385.687 268.617 386.137 268.414 386.558C268.211 386.978 267.906 387.348 267.5 387.668C267.108 387.972 266.607 388.219 265.998 388.407C265.403 388.596 264.714 388.69 263.931 388.69ZM271.447 376.94H273.362V385.644L279.324 376.94H281.239V388.473H279.324V379.769L273.362 388.473H271.447V376.94ZM294.107 388.473H284.728V376.94H286.643V386.775H292.17V376.94H294.085V386.775H295.935V391.193H294.107V388.473ZM298.222 376.94H300.137V385.644L306.099 376.94H308.014V388.473H306.099V379.769L300.137 388.473H298.222V376.94ZM316.291 388.69C315.551 388.69 314.848 388.574 314.18 388.342C313.513 388.095 312.925 387.733 312.418 387.254C311.91 386.761 311.504 386.144 311.199 385.404C310.894 384.665 310.742 383.801 310.742 382.815V382.38C310.742 381.451 310.894 380.632 311.199 379.921C311.504 379.21 311.91 378.622 312.418 378.158C312.925 377.68 313.513 377.324 314.18 377.092C314.848 376.845 315.551 376.722 316.291 376.722C317.031 376.722 317.734 376.845 318.402 377.092C319.069 377.324 319.657 377.68 320.164 378.158C320.672 378.622 321.078 379.21 321.383 379.921C321.688 380.632 321.84 381.451 321.84 382.38V382.815C321.84 383.801 321.688 384.665 321.383 385.404C321.078 386.144 320.672 386.761 320.164 387.254C319.657 387.733 319.069 388.095 318.402 388.342C317.734 388.574 317.031 388.69 316.291 388.69ZM316.291 386.949C316.726 386.949 317.161 386.877 317.597 386.732C318.032 386.572 318.416 386.333 318.75 386.014C319.084 385.68 319.352 385.252 319.555 384.73C319.773 384.208 319.881 383.569 319.881 382.815V382.38C319.881 381.683 319.773 381.089 319.555 380.595C319.352 380.102 319.084 379.696 318.75 379.377C318.416 379.058 318.032 378.826 317.597 378.68C317.161 378.535 316.726 378.463 316.291 378.463C315.856 378.463 315.421 378.535 314.985 378.68C314.55 378.826 314.166 379.058 313.832 379.377C313.498 379.696 313.223 380.102 313.005 380.595C312.802 381.089 312.701 381.683 312.701 382.38V382.815C312.701 383.569 312.802 384.208 313.005 384.73C313.223 385.252 313.498 385.68 313.832 386.014C314.166 386.333 314.55 386.572 314.985 386.732C315.421 386.877 315.856 386.949 316.291 386.949ZM324.551 376.94H326.466V381.749H332.429V376.94H334.344V388.473H332.429V383.446H326.466V388.473H324.551V376.94ZM337.833 376.94H339.748V381.749H345.71V376.94H347.625V388.473H345.71V383.446H339.748V388.473H337.833V376.94ZM355.902 388.69C355.162 388.69 354.458 388.574 353.791 388.342C353.124 388.095 352.536 387.733 352.028 387.254C351.521 386.761 351.114 386.144 350.81 385.404C350.505 384.665 350.353 383.801 350.353 382.815V382.38C350.353 381.451 350.505 380.632 350.81 379.921C351.114 379.21 351.521 378.622 352.028 378.158C352.536 377.68 353.124 377.324 353.791 377.092C354.458 376.845 355.162 376.722 355.902 376.722C356.641 376.722 357.345 376.845 358.012 377.092C358.68 377.324 359.267 377.68 359.775 378.158C360.283 378.622 360.689 379.21 360.994 379.921C361.298 380.632 361.45 381.451 361.45 382.38V382.815C361.45 383.801 361.298 384.665 360.994 385.404C360.689 386.144 360.283 386.761 359.775 387.254C359.267 387.733 358.68 388.095 358.012 388.342C357.345 388.574 356.641 388.69 355.902 388.69ZM355.902 386.949C356.337 386.949 356.772 386.877 357.207 386.732C357.642 386.572 358.027 386.333 358.361 386.014C358.694 385.68 358.963 385.252 359.166 384.73C359.383 384.208 359.492 383.569 359.492 382.815V382.38C359.492 381.683 359.383 381.089 359.166 380.595C358.963 380.102 358.694 379.696 358.361 379.377C358.027 379.058 357.642 378.826 357.207 378.68C356.772 378.535 356.337 378.463 355.902 378.463C355.466 378.463 355.031 378.535 354.596 378.68C354.161 378.826 353.776 379.058 353.443 379.377C353.109 379.696 352.833 380.102 352.616 380.595C352.413 381.089 352.311 381.683 352.311 382.38V382.815C352.311 383.569 352.413 384.208 352.616 384.73C352.833 385.252 353.109 385.68 353.443 386.014C353.776 386.333 354.161 386.572 354.596 386.732C355.031 386.877 355.466 386.949 355.902 386.949ZM368.949 388.69C368.209 388.69 367.506 388.574 366.839 388.342C366.171 388.11 365.584 387.755 365.076 387.276C364.568 386.783 364.162 386.166 363.857 385.426C363.553 384.686 363.4 383.816 363.4 382.815V382.38C363.4 381.422 363.545 380.595 363.836 379.899C364.126 379.188 364.51 378.601 364.989 378.136C365.482 377.658 366.048 377.302 366.686 377.07C367.339 376.838 368.021 376.722 368.732 376.722C370.429 376.722 371.742 377.186 372.67 378.115C373.599 379.043 374.063 380.356 374.063 382.053V383.272H365.315C365.315 383.954 365.424 384.527 365.642 384.991C365.859 385.455 366.142 385.832 366.49 386.123C366.839 386.413 367.223 386.623 367.644 386.754C368.079 386.884 368.514 386.949 368.949 386.949C369.82 386.949 370.487 386.804 370.951 386.514C371.43 386.224 371.771 385.825 371.974 385.317H373.845C373.729 385.869 373.519 386.355 373.214 386.775C372.924 387.196 372.562 387.551 372.126 387.842C371.706 388.117 371.22 388.328 370.668 388.473C370.132 388.618 369.559 388.69 368.949 388.69ZM368.841 378.463C368.391 378.463 367.956 378.528 367.535 378.659C367.114 378.775 366.737 378.971 366.403 379.246C366.084 379.507 365.823 379.841 365.62 380.247C365.417 380.653 365.315 381.139 365.315 381.705H372.257C372.242 381.11 372.141 380.61 371.952 380.204C371.778 379.783 371.539 379.449 371.234 379.203C370.93 378.942 370.567 378.753 370.146 378.637C369.74 378.521 369.305 378.463 368.841 378.463ZM257.184 412.69C255.733 412.69 254.595 412.386 253.768 411.776C252.941 411.167 252.484 410.311 252.397 409.209H254.312C254.413 409.774 254.711 410.21 255.204 410.514C255.712 410.804 256.372 410.949 257.184 410.949C258.185 410.949 258.91 410.783 259.36 410.449C259.824 410.101 260.056 409.687 260.056 409.209C260.056 408.643 259.868 408.2 259.491 407.881C259.113 407.548 258.461 407.381 257.532 407.381H255.552V405.814H257.402C258.199 405.814 258.765 405.662 259.099 405.357C259.447 405.052 259.621 404.624 259.621 404.073C259.621 403.638 259.418 403.261 259.012 402.942C258.606 402.622 257.996 402.463 257.184 402.463C256.299 402.463 255.654 402.608 255.247 402.898C254.856 403.174 254.616 403.573 254.529 404.095H252.614C252.658 403.616 252.788 403.174 253.006 402.768C253.238 402.347 253.55 401.984 253.942 401.68C254.333 401.375 254.798 401.143 255.334 400.983C255.886 400.809 256.502 400.722 257.184 400.722C257.924 400.722 258.562 400.809 259.099 400.983C259.65 401.143 260.107 401.375 260.47 401.68C260.832 401.97 261.101 402.318 261.275 402.724C261.449 403.13 261.536 403.58 261.536 404.073C261.536 404.624 261.398 405.11 261.123 405.531C260.847 405.937 260.405 406.256 259.795 406.489C260.608 406.706 261.173 407.054 261.493 407.533C261.812 408.012 261.971 408.57 261.971 409.209C261.971 409.687 261.87 410.137 261.667 410.558C261.464 410.978 261.159 411.348 260.753 411.668C260.361 411.972 259.861 412.219 259.251 412.407C258.656 412.596 257.967 412.69 257.184 412.69ZM264.7 400.94H266.615V405.749H272.577V400.94H274.492V412.473H272.577V407.446H266.615V412.473H264.7V400.94ZM281.267 412.69C280.629 412.69 280.063 412.603 279.57 412.429C279.091 412.241 278.685 411.987 278.351 411.668C278.018 411.348 277.764 410.971 277.59 410.536C277.416 410.101 277.328 409.622 277.328 409.1C277.328 407.954 277.662 407.127 278.329 406.619C279.011 406.111 279.983 405.858 281.245 405.858H284.988V405.074C284.988 404.088 284.763 403.406 284.314 403.029C283.878 402.651 283.218 402.463 282.333 402.463C281.506 402.463 280.904 402.622 280.527 402.942C280.15 403.246 279.94 403.594 279.896 403.986H277.981C278.01 403.522 278.134 403.094 278.351 402.702C278.583 402.296 278.888 401.948 279.265 401.658C279.657 401.368 280.121 401.143 280.658 400.983C281.195 400.809 281.789 400.722 282.442 400.722C283.806 400.722 284.887 401.048 285.684 401.701C286.497 402.34 286.903 403.391 286.903 404.857V409.535C286.903 410.144 286.903 410.681 286.903 411.145C286.918 411.595 286.954 412.037 287.012 412.473H285.336C285.293 412.139 285.264 411.827 285.249 411.537C285.235 411.232 285.227 410.891 285.227 410.514C284.923 411.124 284.43 411.639 283.748 412.059C283.066 412.48 282.239 412.69 281.267 412.69ZM281.681 410.949C282.13 410.949 282.551 410.891 282.943 410.775C283.349 410.645 283.704 410.463 284.009 410.231C284.314 409.985 284.553 409.687 284.727 409.339C284.901 408.991 284.988 408.585 284.988 408.121V407.337H281.572C280.861 407.337 280.302 407.482 279.896 407.772C279.49 408.048 279.287 408.491 279.287 409.1C279.287 409.637 279.475 410.079 279.853 410.427C280.244 410.775 280.854 410.949 281.681 410.949ZM296.966 407.881C296.632 408.084 296.226 408.266 295.747 408.425C295.283 408.585 294.695 408.665 293.984 408.665C293.317 408.665 292.715 408.592 292.178 408.447C291.656 408.302 291.214 408.07 290.851 407.751C290.488 407.432 290.213 407.018 290.024 406.51C289.836 406.003 289.741 405.379 289.741 404.639V400.94H291.656V404.313C291.656 404.806 291.7 405.219 291.787 405.553C291.888 405.887 292.048 406.155 292.265 406.358C292.483 406.561 292.759 406.706 293.092 406.793C293.426 406.88 293.832 406.924 294.311 406.924C294.964 406.924 295.522 406.858 295.986 406.728C296.451 406.597 296.777 406.46 296.966 406.314V400.94H298.881V412.473H296.966V407.881ZM307.143 412.69C306.403 412.69 305.699 412.574 305.032 412.342C304.365 412.11 303.777 411.755 303.269 411.276C302.762 410.783 302.355 410.166 302.051 409.426C301.746 408.686 301.594 407.816 301.594 406.815V406.38C301.594 405.422 301.739 404.595 302.029 403.899C302.319 403.188 302.704 402.601 303.182 402.136C303.676 401.658 304.241 401.302 304.88 401.07C305.532 400.838 306.214 400.722 306.925 400.722C308.622 400.722 309.935 401.186 310.864 402.115C311.792 403.043 312.256 404.356 312.256 406.053V407.272H303.509C303.509 407.954 303.618 408.527 303.835 408.991C304.053 409.455 304.336 409.832 304.684 410.123C305.032 410.413 305.416 410.623 305.837 410.754C306.272 410.884 306.707 410.949 307.143 410.949C308.013 410.949 308.68 410.804 309.145 410.514C309.623 410.224 309.964 409.825 310.167 409.317H312.039C311.923 409.869 311.712 410.355 311.408 410.775C311.118 411.196 310.755 411.551 310.32 411.842C309.899 412.117 309.413 412.328 308.862 412.473C308.325 412.618 307.752 412.69 307.143 412.69ZM307.034 402.463C306.584 402.463 306.149 402.528 305.728 402.659C305.308 402.775 304.93 402.971 304.597 403.246C304.278 403.507 304.016 403.841 303.813 404.247C303.61 404.653 303.509 405.139 303.509 405.705H310.45C310.436 405.11 310.334 404.61 310.146 404.204C309.972 403.783 309.732 403.449 309.428 403.203C309.123 402.942 308.76 402.753 308.34 402.637C307.933 402.521 307.498 402.463 307.034 402.463ZM314.978 400.94H316.893V405.749H322.855V400.94H324.77V412.473H322.855V407.446H316.893V412.473H314.978V400.94ZM328.26 400.94H330.174V409.644L336.137 400.94H338.052V412.473H336.137V403.769L330.174 412.473H328.26V400.94ZM346.328 412.69C345.588 412.69 344.885 412.574 344.218 412.342C343.55 412.11 342.963 411.755 342.455 411.276C341.947 410.783 341.541 410.166 341.236 409.426C340.932 408.686 340.779 407.816 340.779 406.815V406.38C340.779 405.422 340.925 404.595 341.215 403.899C341.505 403.188 341.889 402.601 342.368 402.136C342.861 401.658 343.427 401.302 344.065 401.07C344.718 400.838 345.4 400.722 346.111 400.722C347.808 400.722 349.121 401.186 350.049 402.115C350.978 403.043 351.442 404.356 351.442 406.053V407.272H342.694C342.694 407.954 342.803 408.527 343.021 408.991C343.238 409.455 343.521 409.832 343.869 410.123C344.218 410.413 344.602 410.623 345.023 410.754C345.458 410.884 345.893 410.949 346.328 410.949C347.199 410.949 347.866 410.804 348.33 410.514C348.809 410.224 349.15 409.825 349.353 409.317H351.224C351.108 409.869 350.898 410.355 350.593 410.775C350.303 411.196 349.941 411.551 349.505 411.842C349.085 412.117 348.599 412.328 348.047 412.473C347.511 412.618 346.938 412.69 346.328 412.69ZM346.22 402.463C345.77 402.463 345.335 402.528 344.914 402.659C344.493 402.775 344.116 402.971 343.782 403.246C343.463 403.507 343.202 403.841 342.999 404.247C342.796 404.653 342.694 405.139 342.694 405.705H349.636C349.621 405.11 349.52 404.61 349.331 404.204C349.157 403.783 348.918 403.449 348.613 403.203C348.309 402.942 347.946 402.753 347.525 402.637C347.119 402.521 346.684 402.463 346.22 402.463Z" fill="black"/>
<path d="M951.363 124.303H953.6C953.887 123.633 954.126 122.83 954.317 121.893C954.508 120.937 954.661 119.933 954.776 118.881C954.891 117.811 954.977 116.721 955.034 115.611C955.092 114.483 955.12 113.403 955.12 112.37V107.781H969.261V124.303H971.441V131.588H967.598V127.859H955.206V131.588H951.363V124.303ZM964.959 124.303V111.338H959.193V112.944C959.193 115.564 959.069 117.772 958.82 119.57C958.572 121.367 958.218 122.945 957.759 124.303H964.959ZM978.584 128.204C977.761 128.204 977.035 128.089 976.404 127.859C975.773 127.611 975.237 127.276 974.797 126.855C974.357 126.416 974.023 125.909 973.793 125.335C973.564 124.742 973.449 124.102 973.449 123.413C973.449 120.354 975.266 118.824 978.899 118.824H983.431V118.107C983.431 117.113 983.202 116.415 982.743 116.013C982.303 115.611 981.595 115.411 980.62 115.411C979.76 115.411 979.138 115.564 978.756 115.87C978.373 116.156 978.153 116.52 978.096 116.96H974.31C974.348 116.309 974.51 115.697 974.797 115.124C975.103 114.55 975.524 114.063 976.059 113.661C976.614 113.24 977.283 112.915 978.067 112.686C978.851 112.437 979.75 112.313 980.764 112.313C981.739 112.313 982.618 112.418 983.402 112.628C984.206 112.839 984.884 113.183 985.439 113.661C986.013 114.12 986.452 114.722 986.758 115.468C987.064 116.214 987.217 117.113 987.217 118.164V123.987C987.217 124.79 987.227 125.498 987.246 126.11C987.284 126.702 987.342 127.286 987.418 127.859H983.89C983.814 127.439 983.766 127.123 983.747 126.913C983.747 126.683 983.747 126.349 983.747 125.909C983.326 126.521 982.685 127.056 981.825 127.515C980.983 127.974 979.903 128.204 978.584 128.204ZM979.76 125.278C980.219 125.278 980.668 125.22 981.108 125.106C981.548 124.972 981.94 124.781 982.284 124.532C982.628 124.264 982.905 123.93 983.116 123.528C983.326 123.127 983.431 122.658 983.431 122.123V121.406H979.616C978.89 121.406 978.316 121.578 977.895 121.922C977.494 122.247 977.293 122.696 977.293 123.27C977.293 123.882 977.503 124.37 977.924 124.733C978.345 125.096 978.956 125.278 979.76 125.278Z" fill="black"/>
<path d="M732.555 128.204C731.35 128.204 730.26 128.07 729.285 127.802C728.329 127.515 727.516 127.123 726.847 126.626C726.197 126.11 725.69 125.498 725.327 124.79C724.982 124.064 724.81 123.26 724.81 122.381C724.81 121.253 725.155 120.249 725.843 119.369C726.531 118.47 727.554 117.839 728.912 117.476C727.899 117.151 727.057 116.587 726.388 115.784C725.719 114.98 725.384 114.024 725.384 112.915C725.384 112.112 725.537 111.376 725.843 110.707C726.168 110.037 726.636 109.464 727.248 108.986C727.86 108.488 728.606 108.106 729.486 107.838C730.384 107.57 731.408 107.437 732.555 107.437C733.702 107.437 734.716 107.57 735.595 107.838C736.494 108.106 737.249 108.488 737.861 108.986C738.492 109.464 738.961 110.037 739.267 110.707C739.592 111.376 739.754 112.112 739.754 112.915C739.754 114.024 739.42 114.971 738.751 115.755C738.081 116.52 737.23 117.093 736.198 117.476C738.932 118.317 740.299 119.952 740.299 122.381C740.299 123.26 740.118 124.064 739.754 124.79C739.41 125.498 738.904 126.11 738.234 126.626C737.584 127.123 736.781 127.515 735.825 127.802C734.869 128.07 733.779 128.204 732.555 128.204ZM732.555 124.589C733.74 124.589 734.611 124.36 735.165 123.901C735.72 123.442 735.997 122.821 735.997 122.037C735.997 121.176 735.672 120.497 735.022 120C734.391 119.484 733.568 119.149 732.555 118.996C731.541 119.149 730.71 119.484 730.059 120C729.428 120.497 729.113 121.176 729.113 122.037C729.113 122.821 729.4 123.442 729.973 123.901C730.547 124.36 731.408 124.589 732.555 124.589ZM732.555 116.07C733.415 115.917 734.113 115.621 734.649 115.181C735.184 114.722 735.452 114.091 735.452 113.288C735.452 112.542 735.194 111.988 734.677 111.624C734.18 111.242 733.473 111.051 732.555 111.051C731.656 111.051 730.949 111.242 730.432 111.624C729.935 111.988 729.687 112.542 729.687 113.288C729.687 114.091 729.945 114.722 730.461 115.181C730.996 115.621 731.694 115.917 732.555 116.07ZM763.96 115.956V119.111L749.905 125.278V121.176L758.941 117.591L749.905 114.005V109.789L763.96 115.956ZM766.264 119.197H780.319V122.754H766.264V119.197ZM766.264 112.313H780.319V115.87H766.264V112.313ZM797.681 128.204C796.477 128.204 795.387 128.07 794.411 127.802C793.455 127.515 792.643 127.123 791.973 126.626C791.323 126.11 790.816 125.498 790.453 124.79C790.109 124.064 789.937 123.26 789.937 122.381C789.937 121.253 790.281 120.249 790.969 119.369C791.658 118.47 792.681 117.839 794.039 117.476C793.025 117.151 792.184 116.587 791.514 115.784C790.845 114.98 790.511 114.024 790.511 112.915C790.511 112.112 790.663 111.376 790.969 110.707C791.295 110.037 791.763 109.464 792.375 108.986C792.987 108.488 793.733 108.106 794.612 107.838C795.511 107.57 796.534 107.437 797.681 107.437C798.829 107.437 799.842 107.57 800.722 107.838C801.621 108.106 802.376 108.488 802.988 108.986C803.619 109.464 804.087 110.037 804.393 110.707C804.718 111.376 804.881 112.112 804.881 112.915C804.881 114.024 804.546 114.971 803.877 115.755C803.208 116.52 802.357 117.093 801.324 117.476C804.059 118.317 805.426 119.952 805.426 122.381C805.426 123.26 805.244 124.064 804.881 124.79C804.537 125.498 804.03 126.11 803.361 126.626C802.711 127.123 801.907 127.515 800.951 127.802C799.995 128.07 798.905 128.204 797.681 128.204ZM797.681 124.589C798.867 124.589 799.737 124.36 800.292 123.901C800.846 123.442 801.123 122.821 801.123 122.037C801.123 121.176 800.798 120.497 800.148 120C799.517 119.484 798.695 119.149 797.681 118.996C796.668 119.149 795.836 119.484 795.186 120C794.555 120.497 794.239 121.176 794.239 122.037C794.239 122.821 794.526 123.442 795.1 123.901C795.674 124.36 796.534 124.589 797.681 124.589ZM797.681 116.07C798.542 115.917 799.24 115.621 799.775 115.181C800.311 114.722 800.578 114.091 800.578 113.288C800.578 112.542 800.32 111.988 799.804 111.624C799.307 111.242 798.599 111.051 797.681 111.051C796.783 111.051 796.075 111.242 795.559 111.624C795.062 111.988 794.813 112.542 794.813 113.288C794.813 114.091 795.071 114.722 795.588 115.181C796.123 115.621 796.821 115.917 797.681 116.07Z" fill="black"/>
<rect x="407.547" y="333.77" width="833.223" height="111.155" stroke="#D0643B" stroke-width="6"/>
<path d="M453.808 504.822H458.397V492.66L453.808 495.93V491.742L458.655 488.3H462.7V504.822H466.428V508.379H453.808V504.822Z" fill="white"/>
<path d="M563.9 508.723C562.81 508.723 561.787 508.551 560.83 508.207C559.893 507.843 559.081 507.26 558.392 506.457C557.704 505.635 557.159 504.564 556.757 503.245C556.356 501.906 556.155 500.271 556.155 498.34V497.766C556.155 495.968 556.356 494.448 556.757 493.205C557.159 491.962 557.704 490.958 558.392 490.193C559.081 489.409 559.893 488.845 560.83 488.501C561.787 488.138 562.81 487.956 563.9 487.956C564.99 487.956 566.003 488.138 566.94 488.501C567.896 488.845 568.718 489.409 569.407 490.193C570.095 490.958 570.64 491.962 571.042 493.205C571.443 494.448 571.644 495.968 571.644 497.766V498.34C571.644 500.271 571.443 501.906 571.042 503.245C570.64 504.564 570.095 505.635 569.407 506.457C568.718 507.26 567.896 507.843 566.94 508.207C566.003 508.551 564.99 508.723 563.9 508.723ZM563.9 505.109C564.378 505.109 564.827 505.013 565.248 504.822C565.668 504.631 566.032 504.287 566.338 503.79C566.663 503.273 566.911 502.575 567.083 501.696C567.256 500.816 567.342 499.697 567.342 498.34V497.766C567.342 496.542 567.256 495.538 567.083 494.754C566.911 493.951 566.663 493.32 566.338 492.861C566.032 492.383 565.668 492.048 565.248 491.857C564.827 491.666 564.378 491.57 563.9 491.57C563.402 491.57 562.943 491.666 562.523 491.857C562.121 492.048 561.758 492.383 561.433 492.861C561.127 493.32 560.888 493.951 560.716 494.754C560.544 495.538 560.458 496.542 560.458 497.766V498.34C560.458 499.697 560.544 500.816 560.716 501.696C560.888 502.575 561.127 503.273 561.433 503.79C561.758 504.287 562.121 504.631 562.523 504.822C562.943 505.013 563.402 505.109 563.9 505.109Z" fill="black"/>
<path d="M662.077 504.822H666.667V492.66L662.077 495.93V491.742L666.925 488.3H670.969V504.822H674.698V508.379H662.077V504.822Z" fill="white"/>
<path d="M772.169 508.723C771.079 508.723 770.056 508.551 769.1 508.207C768.163 507.843 767.35 507.26 766.662 506.457C765.973 505.635 765.428 504.564 765.027 503.245C764.625 501.906 764.425 500.271 764.425 498.34V497.766C764.425 495.968 764.625 494.448 765.027 493.205C765.428 491.962 765.973 490.958 766.662 490.193C767.35 489.409 768.163 488.845 769.1 488.501C770.056 488.138 771.079 487.956 772.169 487.956C773.259 487.956 774.273 488.138 775.21 488.501C776.166 488.845 776.988 489.409 777.676 490.193C778.365 490.958 778.91 491.962 779.311 493.205C779.713 494.448 779.914 495.968 779.914 497.766V498.34C779.914 500.271 779.713 501.906 779.311 503.245C778.91 504.564 778.365 505.635 777.676 506.457C776.988 507.26 776.166 507.843 775.21 508.207C774.273 508.551 773.259 508.723 772.169 508.723ZM772.169 505.109C772.647 505.109 773.097 505.013 773.517 504.822C773.938 504.631 774.301 504.287 774.607 503.79C774.932 503.273 775.181 502.575 775.353 501.696C775.525 500.816 775.611 499.697 775.611 498.34V497.766C775.611 496.542 775.525 495.538 775.353 494.754C775.181 493.951 774.932 493.32 774.607 492.861C774.301 492.383 773.938 492.048 773.517 491.857C773.097 491.666 772.647 491.57 772.169 491.57C771.672 491.57 771.213 491.666 770.792 491.857C770.391 492.048 770.027 492.383 769.702 492.861C769.396 493.32 769.157 493.951 768.985 494.754C768.813 495.538 768.727 496.542 768.727 497.766V498.34C768.727 499.697 768.813 500.816 768.985 501.696C769.157 502.575 769.396 503.273 769.702 503.79C770.027 504.287 770.391 504.631 770.792 504.822C771.213 505.013 771.672 505.109 772.169 505.109Z" fill="black"/>
<path d="M870.347 504.822H874.936V492.66L870.347 495.93V491.742L875.194 488.3H879.239V504.822H882.968V508.379H870.347V504.822Z" fill="white"/>
<path d="M170.13 107.351H187.053V127.43H182.751V110.908H174.432V127.43H170.13V107.351ZM191.069 112.227H194.597V114.465C194.98 113.776 195.582 113.174 196.404 112.658C197.226 112.141 198.269 111.883 199.531 111.883C201.558 111.883 203.135 112.514 204.263 113.776C205.411 115.019 205.984 116.893 205.984 119.398V119.972C205.984 122.592 205.401 124.552 204.235 125.852C203.087 127.133 201.519 127.774 199.531 127.774C198.498 127.774 197.58 127.554 196.777 127.114C195.993 126.655 195.352 126.062 194.855 125.336V133.166H191.069V112.227ZM198.641 124.561C199.636 124.561 200.468 124.188 201.137 123.443C201.806 122.678 202.141 121.521 202.141 119.972V119.398C202.141 117.964 201.816 116.893 201.166 116.186C200.515 115.459 199.674 115.096 198.641 115.096C197.551 115.096 196.643 115.411 195.917 116.042C195.209 116.654 194.855 117.582 194.855 118.825V120.546C194.855 121.903 195.199 122.917 195.888 123.586C196.595 124.236 197.513 124.561 198.641 124.561ZM208.716 112.227H212.502V121.98L219.272 112.227H222.771V127.43H218.985V117.677L212.216 127.43H208.716V112.227ZM226.223 112.227H230.698L234.914 120.431L239.131 112.227H243.434V127.43H239.819V117.534L236.119 124.418H233.538L229.837 117.534V127.43H226.223V112.227ZM253.752 127.774C252.719 127.774 251.734 127.621 250.797 127.315C249.879 126.99 249.076 126.512 248.388 125.881C247.7 125.231 247.155 124.418 246.753 123.443C246.351 122.448 246.151 121.291 246.151 119.972V119.398C246.151 118.136 246.342 117.037 246.724 116.1C247.107 115.163 247.633 114.388 248.302 113.776C248.971 113.145 249.746 112.677 250.625 112.371C251.505 112.046 252.451 111.883 253.465 111.883C255.855 111.883 257.672 112.514 258.915 113.776C260.158 115.038 260.779 116.865 260.779 119.255V120.861H250.023C250.042 121.53 250.157 122.114 250.367 122.611C250.577 123.089 250.855 123.481 251.199 123.787C251.543 124.093 251.935 124.322 252.375 124.475C252.834 124.609 253.293 124.676 253.752 124.676C254.727 124.676 255.463 124.533 255.96 124.246C256.458 123.959 256.811 123.538 257.022 122.984H260.492C260.186 124.571 259.431 125.766 258.226 126.569C257.022 127.372 255.53 127.774 253.752 127.774ZM253.608 114.981C253.169 114.981 252.729 115.038 252.289 115.153C251.868 115.268 251.495 115.449 251.17 115.698C250.845 115.947 250.577 116.281 250.367 116.702C250.157 117.123 250.042 117.629 250.023 118.222H257.108C257.089 117.591 256.983 117.065 256.792 116.645C256.62 116.224 256.372 115.889 256.046 115.641C255.741 115.392 255.377 115.22 254.956 115.124C254.536 115.029 254.086 114.981 253.608 114.981ZM263.506 112.227H267.035V114.465C267.417 113.776 268.019 113.174 268.842 112.658C269.664 112.141 270.706 111.883 271.968 111.883C273.995 111.883 275.573 112.514 276.701 113.776C277.848 115.019 278.422 116.893 278.422 119.398V119.972C278.422 122.592 277.839 124.552 276.672 125.852C275.525 127.133 273.957 127.774 271.968 127.774C270.936 127.774 270.018 127.554 269.215 127.114C268.431 126.655 267.79 126.062 267.293 125.336V133.166H263.506V112.227ZM271.079 124.561C272.073 124.561 272.905 124.188 273.574 123.443C274.244 122.678 274.578 121.521 274.578 119.972V119.398C274.578 117.964 274.253 116.893 273.603 116.186C272.953 115.459 272.112 115.096 271.079 115.096C269.989 115.096 269.081 115.411 268.354 116.042C267.646 116.654 267.293 117.582 267.293 118.825V120.546C267.293 121.903 267.637 122.917 268.325 123.586C269.033 124.236 269.951 124.561 271.079 124.561ZM283.879 127.774C283.209 127.774 282.636 127.535 282.158 127.057C281.68 126.579 281.441 126.005 281.441 125.336C281.441 124.628 281.68 124.045 282.158 123.586C282.636 123.127 283.209 122.898 283.879 122.898C284.548 122.898 285.122 123.127 285.6 123.586C286.078 124.045 286.317 124.628 286.317 125.336C286.317 126.005 286.078 126.579 285.6 127.057C285.122 127.535 284.548 127.774 283.879 127.774ZM283.879 116.759C283.209 116.759 282.636 116.52 282.158 116.042C281.68 115.564 281.441 114.991 281.441 114.321C281.441 113.614 281.68 113.03 282.158 112.572C282.636 112.113 283.209 111.883 283.879 111.883C284.548 111.883 285.122 112.113 285.6 112.572C286.078 113.03 286.317 113.614 286.317 114.321C286.317 114.991 286.078 115.564 285.6 116.042C285.122 116.52 284.548 116.759 283.879 116.759ZM296.774 123.873H301.363V111.711L296.774 114.981V110.793L301.621 107.351H305.666V123.873H309.395V127.43H296.774V123.873ZM318.427 127.774C316.515 127.774 314.975 127.363 313.809 126.54C312.642 125.718 311.935 124.437 311.686 122.697H315.702C315.893 123.194 316.199 123.567 316.62 123.816C317.06 124.045 317.71 124.16 318.57 124.16C319.087 124.16 319.565 124.083 320.004 123.93C320.463 123.758 320.865 123.462 321.209 123.041C321.553 122.601 321.831 122.008 322.041 121.263C322.251 120.517 322.385 119.561 322.442 118.394C322.194 118.777 321.888 119.102 321.525 119.37C321.161 119.618 320.76 119.829 320.32 120.001C319.899 120.154 319.45 120.268 318.972 120.345C318.513 120.421 318.044 120.46 317.566 120.46C315.539 120.46 313.981 119.915 312.891 118.825C311.801 117.715 311.256 116.157 311.256 114.149V113.834C311.256 112.82 311.438 111.893 311.801 111.051C312.164 110.21 312.661 109.493 313.292 108.9C313.943 108.288 314.717 107.82 315.616 107.495C316.515 107.169 317.499 107.007 318.57 107.007C321.113 107.007 323.064 107.753 324.422 109.244C325.779 110.736 326.458 113.164 326.458 116.53V117.075C326.458 119.006 326.257 120.651 325.856 122.008C325.454 123.347 324.89 124.447 324.164 125.307C323.456 126.168 322.605 126.799 321.611 127.2C320.635 127.583 319.574 127.774 318.427 127.774ZM318.857 117.132C319.89 117.132 320.693 116.845 321.266 116.272C321.859 115.698 322.156 114.952 322.156 114.034V113.748C322.156 112.849 321.85 112.103 321.238 111.51C320.645 110.917 319.851 110.621 318.857 110.621C317.824 110.621 317.012 110.917 316.419 111.51C315.845 112.084 315.558 112.83 315.558 113.748V114.034C315.558 114.952 315.845 115.698 316.419 116.272C317.012 116.845 317.824 117.132 318.857 117.132ZM328.753 124.303L335.78 118.251C336.431 117.677 336.985 117.18 337.444 116.759C337.903 116.32 338.276 115.918 338.563 115.555C338.85 115.191 339.05 114.838 339.165 114.493C339.299 114.149 339.366 113.776 339.366 113.375C339.366 112.552 339.136 111.893 338.677 111.396C338.219 110.879 337.54 110.621 336.641 110.621C335.608 110.621 334.796 110.908 334.203 111.482C333.629 112.036 333.342 113.002 333.342 114.379H329.04C329.04 112.103 329.68 110.306 330.962 108.986C332.262 107.667 334.155 107.007 336.641 107.007C337.807 107.007 338.821 107.169 339.681 107.495C340.561 107.8 341.297 108.24 341.89 108.814C342.483 109.369 342.923 110.038 343.209 110.822C343.515 111.606 343.668 112.457 343.668 113.375C343.668 114.063 343.544 114.723 343.296 115.354C343.047 115.966 342.703 116.559 342.263 117.132C341.842 117.706 341.345 118.27 340.771 118.825C340.198 119.36 339.586 119.895 338.936 120.431L334.805 123.873H343.955V127.43H328.753V124.303ZM349.537 127.774C348.868 127.774 348.294 127.535 347.816 127.057C347.338 126.579 347.099 126.005 347.099 125.336C347.099 124.628 347.338 124.045 347.816 123.586C348.294 123.127 348.868 122.898 349.537 122.898C350.207 122.898 350.78 123.127 351.258 123.586C351.736 124.045 351.975 124.628 351.975 125.336C351.975 126.005 351.736 126.579 351.258 127.057C350.78 127.535 350.207 127.774 349.537 127.774ZM355.262 123.873H359.851V111.711L355.262 114.981V110.793L360.109 107.351H364.154V123.873H367.883V127.43H355.262V123.873ZM377.775 127.774C376.513 127.774 375.394 127.592 374.419 127.229C373.444 126.866 372.622 126.301 371.952 125.537C371.283 124.753 370.767 123.758 370.403 122.553C370.059 121.349 369.887 119.915 369.887 118.251V117.677C369.887 115.765 370.088 114.14 370.489 112.801C370.891 111.443 371.455 110.334 372.182 109.474C372.908 108.613 373.769 107.992 374.763 107.609C375.777 107.208 376.876 107.007 378.062 107.007C379.917 107.007 381.418 107.399 382.565 108.183C383.713 108.967 384.411 110.267 384.659 112.084H380.643C380.261 111.109 379.353 110.621 377.919 110.621C377.364 110.621 376.848 110.707 376.37 110.879C375.911 111.032 375.5 111.329 375.136 111.768C374.792 112.189 374.515 112.772 374.304 113.518C374.094 114.264 373.96 115.22 373.903 116.386C374.151 116.004 374.457 115.688 374.821 115.44C375.184 115.172 375.576 114.962 375.997 114.809C376.437 114.637 376.886 114.512 377.345 114.436C377.823 114.359 378.301 114.321 378.779 114.321C380.806 114.321 382.365 114.876 383.454 115.985C384.544 117.075 385.089 118.624 385.089 120.632V120.947C385.089 121.961 384.908 122.888 384.544 123.729C384.181 124.571 383.674 125.298 383.024 125.909C382.393 126.502 381.628 126.961 380.73 127.286C379.831 127.611 378.846 127.774 377.775 127.774ZM377.488 124.16C378.521 124.16 379.324 123.873 379.898 123.299C380.49 122.706 380.787 121.951 380.787 121.033V120.746C380.787 119.829 380.49 119.083 379.898 118.509C379.324 117.935 378.521 117.649 377.488 117.649C376.456 117.649 375.643 117.935 375.05 118.509C374.476 119.083 374.19 119.829 374.19 120.746V121.033C374.19 121.951 374.476 122.706 375.05 123.299C375.643 123.873 376.456 124.16 377.488 124.16ZM395.416 127.774C394.211 127.774 393.121 127.64 392.146 127.372C391.19 127.085 390.377 126.693 389.708 126.196C389.057 125.68 388.551 125.068 388.187 124.361C387.843 123.634 387.671 122.831 387.671 121.951C387.671 120.823 388.015 119.819 388.704 118.939C389.392 118.041 390.415 117.41 391.773 117.046C390.759 116.721 389.918 116.157 389.249 115.354C388.579 114.551 388.245 113.595 388.245 112.485C388.245 111.682 388.398 110.946 388.704 110.277C389.029 109.608 389.497 109.034 390.109 108.556C390.721 108.059 391.467 107.676 392.346 107.408C393.245 107.141 394.268 107.007 395.416 107.007C396.563 107.007 397.576 107.141 398.456 107.408C399.355 107.676 400.11 108.059 400.722 108.556C401.353 109.034 401.822 109.608 402.128 110.277C402.453 110.946 402.615 111.682 402.615 112.485C402.615 113.595 402.281 114.541 401.611 115.325C400.942 116.09 400.091 116.664 399.058 117.046C401.793 117.888 403.16 119.523 403.16 121.951C403.16 122.831 402.979 123.634 402.615 124.361C402.271 125.068 401.764 125.68 401.095 126.196C400.445 126.693 399.642 127.085 398.686 127.372C397.729 127.64 396.639 127.774 395.416 127.774ZM395.416 124.16C396.601 124.16 397.471 123.93 398.026 123.471C398.58 123.012 398.858 122.391 398.858 121.607C398.858 120.746 398.533 120.068 397.882 119.57C397.251 119.054 396.429 118.719 395.416 118.566C394.402 118.719 393.57 119.054 392.92 119.57C392.289 120.068 391.974 120.746 391.974 121.607C391.974 122.391 392.26 123.012 392.834 123.471C393.408 123.93 394.268 124.16 395.416 124.16ZM395.416 115.641C396.276 115.488 396.974 115.191 397.509 114.751C398.045 114.293 398.313 113.662 398.313 112.858C398.313 112.113 398.054 111.558 397.538 111.195C397.041 110.812 396.333 110.621 395.416 110.621C394.517 110.621 393.809 110.812 393.293 111.195C392.796 111.558 392.547 112.113 392.547 112.858C392.547 113.662 392.805 114.293 393.322 114.751C393.857 115.191 394.555 115.488 395.416 115.641ZM408.894 127.774C408.224 127.774 407.651 127.535 407.173 127.057C406.694 126.579 406.455 126.005 406.455 125.336C406.455 124.628 406.694 124.045 407.173 123.586C407.651 123.127 408.224 122.898 408.894 122.898C409.563 122.898 410.137 123.127 410.615 123.586C411.093 124.045 411.332 124.628 411.332 125.336C411.332 126.005 411.093 126.579 410.615 127.057C410.137 127.535 409.563 127.774 408.894 127.774ZM414.618 123.873H419.207V111.711L414.618 114.981V110.793L419.466 107.351H423.51V123.873H427.239V127.43H414.618V123.873ZM436.988 127.774C435.898 127.774 434.875 127.602 433.919 127.258C432.982 126.894 432.169 126.311 431.481 125.508C430.792 124.686 430.247 123.615 429.846 122.295C429.444 120.957 429.243 119.322 429.243 117.39V116.817C429.243 115.019 429.444 113.499 429.846 112.256C430.247 111.013 430.792 110.009 431.481 109.244C432.169 108.46 432.982 107.896 433.919 107.552C434.875 107.189 435.898 107.007 436.988 107.007C438.078 107.007 439.091 107.189 440.028 107.552C440.984 107.896 441.807 108.46 442.495 109.244C443.184 110.009 443.729 111.013 444.13 112.256C444.532 113.499 444.732 115.019 444.732 116.817V117.39C444.732 119.322 444.532 120.957 444.13 122.295C443.729 123.615 443.184 124.686 442.495 125.508C441.807 126.311 440.984 126.894 440.028 127.258C439.091 127.602 438.078 127.774 436.988 127.774ZM436.988 124.16C437.466 124.16 437.915 124.064 438.336 123.873C438.757 123.682 439.12 123.337 439.426 122.84C439.751 122.324 440 121.626 440.172 120.746C440.344 119.867 440.43 118.748 440.43 117.39V116.817C440.43 115.593 440.344 114.589 440.172 113.805C440 113.002 439.751 112.371 439.426 111.912C439.12 111.434 438.757 111.099 438.336 110.908C437.915 110.717 437.466 110.621 436.988 110.621C436.491 110.621 436.032 110.717 435.611 110.908C435.21 111.099 434.846 111.434 434.521 111.912C434.215 112.371 433.976 113.002 433.804 113.805C433.632 114.589 433.546 115.593 433.546 116.817V117.39C433.546 118.748 433.632 119.867 433.804 120.746C433.976 121.626 434.215 122.324 434.521 122.84C434.846 123.337 435.21 123.682 435.611 123.873C436.032 124.064 436.491 124.16 436.988 124.16ZM450.603 127.774C449.933 127.774 449.36 127.535 448.882 127.057C448.403 126.579 448.164 126.005 448.164 125.336C448.164 124.628 448.403 124.045 448.882 123.586C449.36 123.127 449.933 122.898 450.603 122.898C451.272 122.898 451.846 123.127 452.324 123.586C452.802 124.045 453.041 124.628 453.041 125.336C453.041 126.005 452.802 126.579 452.324 127.057C451.846 127.535 451.272 127.774 450.603 127.774ZM456.327 123.873H460.916V111.711L456.327 114.981V110.793L461.175 107.351H465.219V123.873H468.948V127.43H456.327V123.873ZM470.809 123.873H475.398V111.711L470.809 114.981V110.793L475.656 107.351H479.701V123.873H483.43V127.43H470.809V123.873Z" fill="black"/>
</svg>
