<svg width="1001" height="291" viewBox="0 0 1001 291" fill="none" xmlns="http://www.w3.org/2000/svg">
<rect x="224.52" y="100.41" width="138" height="45" fill="#DBEEE5"/>
<path d="M276.283 127.843H279.699V116.397L276.218 118.835L275.369 117.594L280.156 114.178H281.375V127.843H284.726V129.41H276.283V127.843ZM287.895 118.769C287.895 118.102 288.003 117.478 288.221 116.898C288.439 116.303 288.765 115.788 289.2 115.353C289.65 114.903 290.201 114.555 290.854 114.308C291.507 114.047 292.268 113.917 293.139 113.917C293.951 113.917 294.677 114.047 295.315 114.308C295.953 114.57 296.49 114.94 296.925 115.418C297.375 115.882 297.716 116.455 297.948 117.137C298.18 117.805 298.296 118.552 298.296 119.379C298.296 121.003 298.093 122.432 297.687 123.665C297.281 124.899 296.715 125.943 295.989 126.799C295.264 127.655 294.401 128.322 293.4 128.801C292.414 129.28 291.34 129.57 290.179 129.671L289.853 128.3C290.811 128.199 291.666 127.967 292.421 127.604C293.175 127.241 293.828 126.777 294.379 126.211C294.93 125.646 295.38 124.993 295.728 124.253C296.077 123.513 296.316 122.722 296.446 121.881C296.214 122.128 295.975 122.338 295.728 122.512C295.496 122.672 295.235 122.802 294.945 122.904C294.655 123.005 294.336 123.078 293.988 123.121C293.639 123.165 293.24 123.187 292.791 123.187C292.123 123.187 291.492 123.085 290.898 122.882C290.303 122.679 289.781 122.389 289.331 122.012C288.896 121.62 288.547 121.156 288.286 120.619C288.025 120.068 287.895 119.451 287.895 118.769ZM289.679 118.595C289.679 119.64 289.991 120.423 290.615 120.945C291.253 121.468 292.094 121.729 293.139 121.729C293.966 121.729 294.677 121.605 295.271 121.359C295.881 121.098 296.309 120.779 296.555 120.401C296.584 120.198 296.599 120.039 296.599 119.923C296.599 119.792 296.599 119.647 296.599 119.487C296.599 118.98 296.526 118.479 296.381 117.986C296.251 117.493 296.04 117.05 295.75 116.659C295.46 116.267 295.083 115.955 294.619 115.723C294.169 115.476 293.625 115.353 292.987 115.353C291.942 115.353 291.13 115.636 290.549 116.202C289.969 116.767 289.679 117.565 289.679 118.595ZM310.495 118.029C310.495 119.364 309.864 120.851 308.602 122.49C307.34 124.13 305.577 125.914 303.314 127.843H310.974V129.41H301.312V127.843C301.588 127.582 301.965 127.241 302.444 126.821C302.923 126.4 303.438 125.936 303.989 125.428C304.54 124.906 305.099 124.347 305.664 123.752C306.245 123.158 306.767 122.548 307.231 121.925C307.695 121.301 308.072 120.677 308.363 120.053C308.653 119.429 308.798 118.827 308.798 118.247C308.798 117.377 308.566 116.695 308.101 116.202C307.652 115.694 306.97 115.44 306.056 115.44C305.273 115.44 304.613 115.527 304.076 115.701C303.539 115.875 303.053 116.129 302.618 116.463L301.878 115.266C302.531 114.802 303.22 114.461 303.945 114.243C304.685 114.026 305.49 113.917 306.361 113.917C307.724 113.917 308.754 114.287 309.451 115.027C310.147 115.766 310.495 116.767 310.495 118.029Z" fill="black"/>
<rect x="224.52" y="100.41" width="138" height="45" stroke="#58A982"/>
<rect x="224.52" y="145.41" width="138" height="45" fill="#DBEEE5"/>
<path d="M237.283 172.843H240.699V161.397L237.218 163.835L236.369 162.594L241.156 159.178H242.375V172.843H245.726V174.41H237.283V172.843ZM250.331 172.843H253.747V161.397L250.266 163.835L249.417 162.594L254.204 159.178H255.423V172.843H258.774V174.41H250.331V172.843ZM261.812 166.794C261.812 165.561 261.921 164.458 262.138 163.486C262.356 162.5 262.682 161.673 263.117 161.006C263.553 160.324 264.104 159.809 264.771 159.461C265.438 159.098 266.229 158.917 267.143 158.917C268.115 158.917 268.935 159.091 269.602 159.439C270.284 159.787 270.835 160.295 271.256 160.962C271.676 161.63 271.981 162.456 272.17 163.443C272.358 164.415 272.453 165.532 272.453 166.794C272.453 168.027 272.344 169.137 272.126 170.123C271.909 171.095 271.582 171.922 271.147 172.604C270.712 173.271 270.16 173.786 269.493 174.149C268.826 174.497 268.035 174.671 267.121 174.671C266.164 174.671 265.344 174.483 264.662 174.106C263.995 173.714 263.444 173.17 263.009 172.473C262.588 171.777 262.283 170.95 262.095 169.993C261.906 169.021 261.812 167.955 261.812 166.794ZM270.668 166.794C270.668 166.025 270.625 165.293 270.538 164.596L264.075 170.493C264.321 171.32 264.691 171.98 265.185 172.473C265.678 172.967 266.323 173.213 267.121 173.213C268.398 173.213 269.305 172.684 269.841 171.625C270.393 170.566 270.668 168.956 270.668 166.794ZM263.618 166.794C263.618 167.157 263.625 167.505 263.64 167.839C263.669 168.172 263.698 168.499 263.727 168.818L270.211 162.942C269.965 162.159 269.595 161.535 269.101 161.071C268.623 160.607 267.97 160.375 267.143 160.375C265.852 160.375 264.938 160.911 264.401 161.985C263.879 163.044 263.618 164.647 263.618 166.794ZM274.859 166.794C274.859 165.561 274.968 164.458 275.186 163.486C275.403 162.5 275.73 161.673 276.165 161.006C276.6 160.324 277.152 159.809 277.819 159.461C278.486 159.098 279.277 158.917 280.191 158.917C281.163 158.917 281.982 159.091 282.65 159.439C283.332 159.787 283.883 160.295 284.303 160.962C284.724 161.63 285.029 162.456 285.217 163.443C285.406 164.415 285.5 165.532 285.5 166.794C285.5 168.027 285.391 169.137 285.174 170.123C284.956 171.095 284.63 171.922 284.195 172.604C283.759 173.271 283.208 173.786 282.541 174.149C281.874 174.497 281.083 174.671 280.169 174.671C279.212 174.671 278.392 174.483 277.71 174.106C277.043 173.714 276.492 173.17 276.056 172.473C275.636 171.777 275.331 170.95 275.142 169.993C274.954 169.021 274.859 167.955 274.859 166.794ZM283.716 166.794C283.716 166.025 283.672 165.293 283.585 164.596L277.123 170.493C277.369 171.32 277.739 171.98 278.232 172.473C278.726 172.967 279.371 173.213 280.169 173.213C281.446 173.213 282.352 172.684 282.889 171.625C283.44 170.566 283.716 168.956 283.716 166.794ZM276.666 166.794C276.666 167.157 276.673 167.505 276.687 167.839C276.716 168.172 276.745 168.499 276.774 168.818L283.259 162.942C283.012 162.159 282.642 161.535 282.149 161.071C281.67 160.607 281.018 160.375 280.191 160.375C278.9 160.375 277.986 160.911 277.449 161.985C276.927 163.044 276.666 164.647 276.666 166.794ZM300.955 166.794C300.955 165.561 301.064 164.458 301.281 163.486C301.499 162.5 301.825 161.673 302.261 161.006C302.696 160.324 303.247 159.809 303.914 159.461C304.582 159.098 305.372 158.917 306.286 158.917C307.258 158.917 308.078 159.091 308.745 159.439C309.427 159.787 309.978 160.295 310.399 160.962C310.82 161.63 311.124 162.456 311.313 163.443C311.501 164.415 311.596 165.532 311.596 166.794C311.596 168.027 311.487 169.137 311.269 170.123C311.052 171.095 310.725 171.922 310.29 172.604C309.855 173.271 309.304 173.786 308.636 174.149C307.969 174.497 307.178 174.671 306.264 174.671C305.307 174.671 304.487 174.483 303.806 174.106C303.138 173.714 302.587 173.17 302.152 172.473C301.731 171.777 301.426 170.95 301.238 169.993C301.049 169.021 300.955 167.955 300.955 166.794ZM309.811 166.794C309.811 166.025 309.768 165.293 309.681 164.596L303.218 170.493C303.465 171.32 303.835 171.98 304.328 172.473C304.821 172.967 305.467 173.213 306.264 173.213C307.541 173.213 308.448 172.684 308.984 171.625C309.536 170.566 309.811 168.956 309.811 166.794ZM302.761 166.794C302.761 167.157 302.768 167.505 302.783 167.839C302.812 168.172 302.841 168.499 302.87 168.818L309.354 162.942C309.108 162.159 308.738 161.535 308.245 161.071C307.766 160.607 307.113 160.375 306.286 160.375C304.995 160.375 304.081 160.911 303.544 161.985C303.022 163.044 302.761 164.647 302.761 166.794ZM314.003 166.794C314.003 165.561 314.111 164.458 314.329 163.486C314.547 162.5 314.873 161.673 315.308 161.006C315.743 160.324 316.295 159.809 316.962 159.461C317.629 159.098 318.42 158.917 319.334 158.917C320.306 158.917 321.125 159.091 321.793 159.439C322.475 159.787 323.026 160.295 323.447 160.962C323.867 161.63 324.172 162.456 324.361 163.443C324.549 164.415 324.643 165.532 324.643 166.794C324.643 168.027 324.535 169.137 324.317 170.123C324.099 171.095 323.773 171.922 323.338 172.604C322.903 173.271 322.351 173.786 321.684 174.149C321.017 174.497 320.226 174.671 319.312 174.671C318.355 174.671 317.535 174.483 316.853 174.106C316.186 173.714 315.635 173.17 315.199 172.473C314.779 171.777 314.474 170.95 314.285 169.993C314.097 169.021 314.003 167.955 314.003 166.794ZM322.859 166.794C322.859 166.025 322.816 165.293 322.729 164.596L316.266 170.493C316.512 171.32 316.882 171.98 317.375 172.473C317.869 172.967 318.514 173.213 319.312 173.213C320.589 173.213 321.495 172.684 322.032 171.625C322.583 170.566 322.859 168.956 322.859 166.794ZM315.809 166.794C315.809 167.157 315.816 167.505 315.83 167.839C315.859 168.172 315.889 168.499 315.918 168.818L322.402 162.942C322.155 162.159 321.786 161.535 321.292 161.071C320.814 160.607 320.161 160.375 319.334 160.375C318.043 160.375 317.129 160.911 316.592 161.985C316.07 163.044 315.809 164.647 315.809 166.794ZM327.05 166.794C327.05 165.561 327.159 164.458 327.377 163.486C327.594 162.5 327.921 161.673 328.356 161.006C328.791 160.324 329.342 159.809 330.01 159.461C330.677 159.098 331.468 158.917 332.382 158.917C333.354 158.917 334.173 159.091 334.841 159.439C335.522 159.787 336.074 160.295 336.494 160.962C336.915 161.63 337.22 162.456 337.408 163.443C337.597 164.415 337.691 165.532 337.691 166.794C337.691 168.027 337.582 169.137 337.365 170.123C337.147 171.095 336.821 171.922 336.386 172.604C335.95 173.271 335.399 173.786 334.732 174.149C334.064 174.497 333.274 174.671 332.36 174.671C331.402 174.671 330.583 174.483 329.901 174.106C329.234 173.714 328.682 173.17 328.247 172.473C327.826 171.777 327.522 170.95 327.333 169.993C327.145 169.021 327.05 167.955 327.05 166.794ZM335.907 166.794C335.907 166.025 335.863 165.293 335.776 164.596L329.313 170.493C329.56 171.32 329.93 171.98 330.423 172.473C330.916 172.967 331.562 173.213 332.36 173.213C333.636 173.213 334.543 172.684 335.08 171.625C335.631 170.566 335.907 168.956 335.907 166.794ZM328.856 166.794C328.856 167.157 328.864 167.505 328.878 167.839C328.907 168.172 328.936 168.499 328.965 168.818L335.45 162.942C335.203 162.159 334.833 161.535 334.34 161.071C333.861 160.607 333.208 160.375 332.382 160.375C331.09 160.375 330.177 160.911 329.64 161.985C329.118 163.044 328.856 164.647 328.856 166.794ZM340.098 166.794C340.098 165.561 340.207 164.458 340.424 163.486C340.642 162.5 340.968 161.673 341.404 161.006C341.839 160.324 342.39 159.809 343.057 159.461C343.725 159.098 344.515 158.917 345.429 158.917C346.401 158.917 347.221 159.091 347.888 159.439C348.57 159.787 349.121 160.295 349.542 160.962C349.963 161.63 350.267 162.456 350.456 163.443C350.645 164.415 350.739 165.532 350.739 166.794C350.739 168.027 350.63 169.137 350.412 170.123C350.195 171.095 349.868 171.922 349.433 172.604C348.998 173.271 348.447 173.786 347.779 174.149C347.112 174.497 346.321 174.671 345.408 174.671C344.45 174.671 343.63 174.483 342.949 174.106C342.281 173.714 341.73 173.17 341.295 172.473C340.874 171.777 340.57 170.95 340.381 169.993C340.192 169.021 340.098 167.955 340.098 166.794ZM348.954 166.794C348.954 166.025 348.911 165.293 348.824 164.596L342.361 170.493C342.608 171.32 342.978 171.98 343.471 172.473C343.964 172.967 344.61 173.213 345.408 173.213C346.684 173.213 347.591 172.684 348.128 171.625C348.679 170.566 348.954 168.956 348.954 166.794ZM341.904 166.794C341.904 167.157 341.911 167.505 341.926 167.839C341.955 168.172 341.984 168.499 342.013 168.818L348.498 162.942C348.251 162.159 347.881 161.535 347.388 161.071C346.909 160.607 346.256 160.375 345.429 160.375C344.138 160.375 343.224 160.911 342.688 161.985C342.165 163.044 341.904 164.647 341.904 166.794Z" fill="black"/>
<rect x="224.52" y="145.41" width="138" height="45" stroke="#58A982"/>
<rect x="362.52" y="100.41" width="138" height="45" fill="#DBEEE5"/>
<path d="M414.283 127.843H417.699V116.397L414.218 118.835L413.369 117.594L418.156 114.178H419.375V127.843H422.726V129.41H414.283V127.843ZM436.296 124.819C436.296 125.443 436.18 126.045 435.948 126.625C435.73 127.205 435.404 127.72 434.969 128.17C434.533 128.62 433.997 128.982 433.358 129.258C432.72 129.533 431.98 129.671 431.139 129.671C430.355 129.671 429.645 129.548 429.006 129.301C428.368 129.055 427.817 128.707 427.353 128.257C426.888 127.793 426.526 127.227 426.265 126.56C426.018 125.892 425.895 125.145 425.895 124.318C425.895 122.955 426.09 121.663 426.482 120.445C426.888 119.226 427.447 118.153 428.158 117.224C428.883 116.296 429.739 115.542 430.725 114.961C431.726 114.381 432.822 114.033 434.011 113.917L434.316 115.309C433.402 115.426 432.561 115.694 431.792 116.115C431.037 116.535 430.377 117.058 429.811 117.681C429.246 118.305 428.781 118.994 428.419 119.749C428.071 120.503 427.846 121.272 427.744 122.055C427.86 121.867 428.027 121.671 428.245 121.468C428.477 121.265 428.745 121.09 429.05 120.945C429.369 120.786 429.717 120.655 430.094 120.554C430.486 120.452 430.907 120.401 431.356 120.401C432.125 120.401 432.814 120.51 433.424 120.728C434.033 120.931 434.548 121.228 434.969 121.62C435.404 121.997 435.73 122.461 435.948 123.013C436.18 123.549 436.296 124.151 436.296 124.819ZM434.512 124.993C434.512 123.977 434.229 123.201 433.663 122.664C433.097 122.128 432.227 121.859 431.052 121.859C430.631 121.859 430.239 121.91 429.877 122.012C429.514 122.113 429.188 122.251 428.898 122.425C428.607 122.585 428.354 122.773 428.136 122.991C427.918 123.208 427.752 123.426 427.635 123.644C427.606 123.847 427.592 124.006 427.592 124.122C427.592 124.238 427.592 124.376 427.592 124.536C427.592 124.971 427.664 125.414 427.81 125.863C427.955 126.298 428.172 126.69 428.462 127.038C428.767 127.386 429.144 127.669 429.594 127.887C430.044 128.105 430.573 128.213 431.182 128.213C431.676 128.213 432.125 128.126 432.532 127.952C432.938 127.778 433.286 127.546 433.576 127.256C433.881 126.966 434.113 126.625 434.272 126.233C434.432 125.841 434.512 125.428 434.512 124.993ZM439.247 125.711C439.247 123.956 440.313 122.541 442.446 121.468C442.04 121.25 441.662 121.025 441.314 120.793C440.966 120.561 440.661 120.3 440.4 120.01C440.154 119.72 439.958 119.386 439.813 119.009C439.668 118.632 439.595 118.196 439.595 117.703C439.595 117.166 439.704 116.666 439.922 116.202C440.139 115.737 440.451 115.338 440.857 115.005C441.263 114.671 441.757 114.41 442.337 114.221C442.917 114.018 443.563 113.917 444.274 113.917C444.941 113.917 445.543 114.004 446.08 114.178C446.631 114.352 447.095 114.599 447.472 114.918C447.864 115.222 448.161 115.585 448.365 116.006C448.568 116.426 448.669 116.876 448.669 117.355C448.669 118.182 448.459 118.943 448.038 119.64C447.632 120.322 446.972 120.945 446.058 121.511C446.479 121.729 446.87 121.961 447.233 122.207C447.596 122.454 447.908 122.73 448.169 123.034C448.444 123.339 448.655 123.687 448.8 124.079C448.959 124.456 449.039 124.891 449.039 125.384C449.039 125.994 448.93 126.567 448.713 127.104C448.495 127.626 448.169 128.076 447.734 128.453C447.313 128.83 446.791 129.127 446.167 129.345C445.543 129.562 444.818 129.671 443.991 129.671C443.222 129.671 442.54 129.562 441.945 129.345C441.35 129.127 440.85 128.837 440.444 128.474C440.052 128.112 439.755 127.691 439.552 127.212C439.349 126.734 439.247 126.233 439.247 125.711ZM447.32 125.493C447.32 125.073 447.219 124.703 447.015 124.384C446.827 124.05 446.566 123.752 446.232 123.491C445.913 123.23 445.543 122.991 445.122 122.773C444.702 122.556 444.266 122.338 443.817 122.12C442.772 122.628 442.025 123.187 441.575 123.796C441.14 124.405 440.923 124.978 440.923 125.515C440.923 125.878 440.988 126.226 441.118 126.56C441.263 126.879 441.467 127.162 441.728 127.408C442.003 127.655 442.337 127.851 442.729 127.996C443.135 128.141 443.599 128.213 444.121 128.213C444.542 128.213 444.941 128.155 445.318 128.039C445.71 127.923 446.051 127.756 446.341 127.539C446.645 127.307 446.885 127.024 447.059 126.69C447.233 126.342 447.32 125.943 447.32 125.493ZM441.292 117.638C441.292 118.044 441.387 118.407 441.575 118.726C441.764 119.045 442.011 119.335 442.315 119.596C442.634 119.843 442.997 120.075 443.403 120.293C443.809 120.496 444.237 120.699 444.687 120.902C445.456 120.394 446.029 119.886 446.406 119.379C446.798 118.871 446.994 118.312 446.994 117.703C446.994 117.34 446.914 117.021 446.754 116.746C446.609 116.455 446.406 116.209 446.145 116.006C445.898 115.803 445.608 115.65 445.275 115.549C444.941 115.433 444.593 115.375 444.23 115.375C443.766 115.375 443.352 115.44 442.99 115.571C442.627 115.701 442.322 115.875 442.076 116.093C441.829 116.31 441.633 116.557 441.488 116.833C441.358 117.094 441.292 117.362 441.292 117.638Z" fill="black"/>
<rect x="362.52" y="100.41" width="138" height="45" stroke="#58A982"/>
<rect x="362.52" y="145.41" width="138" height="45" fill="#DBEEE5"/>
<path d="M375.283 172.843H378.699V161.397L375.218 163.835L374.369 162.594L379.156 159.178H380.375V172.843H383.726V174.41H375.283V172.843ZM386.764 166.794C386.764 165.561 386.873 164.458 387.09 163.486C387.308 162.5 387.634 161.673 388.07 161.006C388.505 160.324 389.056 159.809 389.723 159.461C390.391 159.098 391.181 158.917 392.095 158.917C393.067 158.917 393.887 159.091 394.554 159.439C395.236 159.787 395.787 160.295 396.208 160.962C396.629 161.63 396.933 162.456 397.122 163.443C397.311 164.415 397.405 165.532 397.405 166.794C397.405 168.027 397.296 169.137 397.078 170.123C396.861 171.095 396.534 171.922 396.099 172.604C395.664 173.271 395.113 173.786 394.445 174.149C393.778 174.497 392.988 174.671 392.074 174.671C391.116 174.671 390.296 174.483 389.615 174.106C388.947 173.714 388.396 173.17 387.961 172.473C387.54 171.777 387.236 170.95 387.047 169.993C386.858 169.021 386.764 167.955 386.764 166.794ZM395.621 166.794C395.621 166.025 395.577 165.293 395.49 164.596L389.027 170.493C389.274 171.32 389.644 171.98 390.137 172.473C390.63 172.967 391.276 173.213 392.074 173.213C393.35 173.213 394.257 172.684 394.794 171.625C395.345 170.566 395.621 168.956 395.621 166.794ZM388.57 166.794C388.57 167.157 388.577 167.505 388.592 167.839C388.621 168.172 388.65 168.499 388.679 168.818L395.164 162.942C394.917 162.159 394.547 161.535 394.054 161.071C393.575 160.607 392.922 160.375 392.095 160.375C390.804 160.375 389.89 160.911 389.354 161.985C388.831 163.044 388.57 164.647 388.57 166.794ZM401.379 172.843H404.795V161.397L401.313 163.835L400.465 162.594L405.252 159.178H406.47V172.843H409.822V174.41H401.379V172.843ZM412.859 166.794C412.859 165.561 412.968 164.458 413.186 163.486C413.403 162.5 413.73 161.673 414.165 161.006C414.6 160.324 415.152 159.809 415.819 159.461C416.486 159.098 417.277 158.917 418.191 158.917C419.163 158.917 419.982 159.091 420.65 159.439C421.332 159.787 421.883 160.295 422.303 160.962C422.724 161.63 423.029 162.456 423.217 163.443C423.406 164.415 423.5 165.532 423.5 166.794C423.5 168.027 423.391 169.137 423.174 170.123C422.956 171.095 422.63 171.922 422.195 172.604C421.759 173.271 421.208 173.786 420.541 174.149C419.874 174.497 419.083 174.671 418.169 174.671C417.212 174.671 416.392 174.483 415.71 174.106C415.043 173.714 414.492 173.17 414.056 172.473C413.636 171.777 413.331 170.95 413.142 169.993C412.954 169.021 412.859 167.955 412.859 166.794ZM421.716 166.794C421.716 166.025 421.672 165.293 421.585 164.596L415.123 170.493C415.369 171.32 415.739 171.98 416.232 172.473C416.726 172.967 417.371 173.213 418.169 173.213C419.446 173.213 420.352 172.684 420.889 171.625C421.44 170.566 421.716 168.956 421.716 166.794ZM414.666 166.794C414.666 167.157 414.673 167.505 414.687 167.839C414.716 168.172 414.745 168.499 414.774 168.818L421.259 162.942C421.012 162.159 420.642 161.535 420.149 161.071C419.67 160.607 419.018 160.375 418.191 160.375C416.9 160.375 415.986 160.911 415.449 161.985C414.927 163.044 414.666 164.647 414.666 166.794ZM440.522 172.843H443.938V161.397L440.456 163.835L439.608 162.594L444.395 159.178H445.614V172.843H448.965V174.41H440.522V172.843ZM452.003 166.794C452.003 165.561 452.111 164.458 452.329 163.486C452.547 162.5 452.873 161.673 453.308 161.006C453.743 160.324 454.295 159.809 454.962 159.461C455.629 159.098 456.42 158.917 457.334 158.917C458.306 158.917 459.125 159.091 459.793 159.439C460.475 159.787 461.026 160.295 461.447 160.962C461.867 161.63 462.172 162.456 462.361 163.443C462.549 164.415 462.643 165.532 462.643 166.794C462.643 168.027 462.535 169.137 462.317 170.123C462.099 171.095 461.773 171.922 461.338 172.604C460.903 173.271 460.351 173.786 459.684 174.149C459.017 174.497 458.226 174.671 457.312 174.671C456.355 174.671 455.535 174.483 454.853 174.106C454.186 173.714 453.635 173.17 453.199 172.473C452.779 171.777 452.474 170.95 452.285 169.993C452.097 169.021 452.003 167.955 452.003 166.794ZM460.859 166.794C460.859 166.025 460.816 165.293 460.729 164.596L454.266 170.493C454.512 171.32 454.882 171.98 455.375 172.473C455.869 172.967 456.514 173.213 457.312 173.213C458.589 173.213 459.495 172.684 460.032 171.625C460.583 170.566 460.859 168.956 460.859 166.794ZM453.809 166.794C453.809 167.157 453.816 167.505 453.83 167.839C453.859 168.172 453.889 168.499 453.918 168.818L460.402 162.942C460.155 162.159 459.786 161.535 459.292 161.071C458.814 160.607 458.161 160.375 457.334 160.375C456.043 160.375 455.129 160.911 454.592 161.985C454.07 163.044 453.809 164.647 453.809 166.794ZM465.05 166.794C465.05 165.561 465.159 164.458 465.377 163.486C465.594 162.5 465.921 161.673 466.356 161.006C466.791 160.324 467.342 159.809 468.01 159.461C468.677 159.098 469.468 158.917 470.382 158.917C471.354 158.917 472.173 159.091 472.841 159.439C473.522 159.787 474.074 160.295 474.494 160.962C474.915 161.63 475.22 162.456 475.408 163.443C475.597 164.415 475.691 165.532 475.691 166.794C475.691 168.027 475.582 169.137 475.365 170.123C475.147 171.095 474.821 171.922 474.386 172.604C473.95 173.271 473.399 173.786 472.732 174.149C472.064 174.497 471.274 174.671 470.36 174.671C469.402 174.671 468.583 174.483 467.901 174.106C467.234 173.714 466.682 173.17 466.247 172.473C465.826 171.777 465.522 170.95 465.333 169.993C465.145 169.021 465.05 167.955 465.05 166.794ZM473.907 166.794C473.907 166.025 473.863 165.293 473.776 164.596L467.313 170.493C467.56 171.32 467.93 171.98 468.423 172.473C468.916 172.967 469.562 173.213 470.36 173.213C471.636 173.213 472.543 172.684 473.08 171.625C473.631 170.566 473.907 168.956 473.907 166.794ZM466.856 166.794C466.856 167.157 466.864 167.505 466.878 167.839C466.907 168.172 466.936 168.499 466.965 168.818L473.45 162.942C473.203 162.159 472.833 161.535 472.34 161.071C471.861 160.607 471.208 160.375 470.382 160.375C469.09 160.375 468.177 160.911 467.64 161.985C467.118 163.044 466.856 164.647 466.856 166.794ZM478.098 166.794C478.098 165.561 478.207 164.458 478.424 163.486C478.642 162.5 478.968 161.673 479.404 161.006C479.839 160.324 480.39 159.809 481.057 159.461C481.725 159.098 482.515 158.917 483.429 158.917C484.401 158.917 485.221 159.091 485.888 159.439C486.57 159.787 487.121 160.295 487.542 160.962C487.963 161.63 488.267 162.456 488.456 163.443C488.645 164.415 488.739 165.532 488.739 166.794C488.739 168.027 488.63 169.137 488.412 170.123C488.195 171.095 487.868 171.922 487.433 172.604C486.998 173.271 486.447 173.786 485.779 174.149C485.112 174.497 484.321 174.671 483.408 174.671C482.45 174.671 481.63 174.483 480.949 174.106C480.281 173.714 479.73 173.17 479.295 172.473C478.874 171.777 478.57 170.95 478.381 169.993C478.192 169.021 478.098 167.955 478.098 166.794ZM486.954 166.794C486.954 166.025 486.911 165.293 486.824 164.596L480.361 170.493C480.608 171.32 480.978 171.98 481.471 172.473C481.964 172.967 482.61 173.213 483.408 173.213C484.684 173.213 485.591 172.684 486.128 171.625C486.679 170.566 486.954 168.956 486.954 166.794ZM479.904 166.794C479.904 167.157 479.911 167.505 479.926 167.839C479.955 168.172 479.984 168.499 480.013 168.818L486.498 162.942C486.251 162.159 485.881 161.535 485.388 161.071C484.909 160.607 484.256 160.375 483.429 160.375C482.138 160.375 481.224 160.911 480.688 161.985C480.165 163.044 479.904 164.647 479.904 166.794Z" fill="black"/>
<rect x="362.52" y="145.41" width="138" height="45" stroke="#58A982"/>
<rect x="500.52" y="100.41" width="138" height="45" fill="#DBEEE5"/>
<path d="M558.783 127.843H562.199V116.397L558.718 118.835L557.869 117.594L562.656 114.178H563.875V127.843H567.226V129.41H558.783V127.843ZM570.264 121.794C570.264 120.561 570.373 119.458 570.59 118.486C570.808 117.5 571.134 116.673 571.57 116.006C572.005 115.324 572.556 114.809 573.223 114.461C573.891 114.098 574.681 113.917 575.595 113.917C576.567 113.917 577.387 114.091 578.054 114.439C578.736 114.787 579.287 115.295 579.708 115.962C580.129 116.63 580.433 117.456 580.622 118.443C580.811 119.415 580.905 120.532 580.905 121.794C580.905 123.027 580.796 124.137 580.578 125.123C580.361 126.095 580.034 126.922 579.599 127.604C579.164 128.271 578.613 128.786 577.945 129.149C577.278 129.497 576.488 129.671 575.574 129.671C574.616 129.671 573.796 129.483 573.115 129.106C572.447 128.714 571.896 128.17 571.461 127.473C571.04 126.777 570.736 125.95 570.547 124.993C570.358 124.021 570.264 122.955 570.264 121.794ZM579.121 121.794C579.121 121.025 579.077 120.293 578.99 119.596L572.527 125.493C572.774 126.32 573.144 126.98 573.637 127.473C574.13 127.967 574.776 128.213 575.574 128.213C576.85 128.213 577.757 127.684 578.294 126.625C578.845 125.566 579.121 123.956 579.121 121.794ZM572.07 121.794C572.07 122.157 572.077 122.505 572.092 122.839C572.121 123.172 572.15 123.499 572.179 123.818L578.664 117.942C578.417 117.159 578.047 116.535 577.554 116.071C577.075 115.607 576.422 115.375 575.595 115.375C574.304 115.375 573.39 115.911 572.854 116.985C572.331 118.044 572.07 119.647 572.07 121.794Z" fill="black"/>
<rect x="500.52" y="100.41" width="138" height="45" stroke="#58A982"/>
<rect x="500.52" y="145.41" width="138" height="45" fill="#DBEEE5"/>
<path d="M511.716 166.794C511.716 165.561 511.825 164.458 512.043 163.486C512.26 162.5 512.587 161.673 513.022 161.006C513.457 160.324 514.008 159.809 514.676 159.461C515.343 159.098 516.134 158.917 517.048 158.917C518.02 158.917 518.839 159.091 519.507 159.439C520.188 159.787 520.74 160.295 521.16 160.962C521.581 161.63 521.886 162.456 522.074 163.443C522.263 164.415 522.357 165.532 522.357 166.794C522.357 168.027 522.248 169.137 522.031 170.123C521.813 171.095 521.487 171.922 521.052 172.604C520.616 173.271 520.065 173.786 519.398 174.149C518.73 174.497 517.94 174.671 517.026 174.671C516.068 174.671 515.249 174.483 514.567 174.106C513.9 173.714 513.348 173.17 512.913 172.473C512.492 171.777 512.188 170.95 511.999 169.993C511.811 169.021 511.716 167.955 511.716 166.794ZM520.573 166.794C520.573 166.025 520.529 165.293 520.442 164.596L513.979 170.493C514.226 171.32 514.596 171.98 515.089 172.473C515.582 172.967 516.228 173.213 517.026 173.213C518.302 173.213 519.209 172.684 519.746 171.625C520.297 170.566 520.573 168.956 520.573 166.794ZM513.522 166.794C513.522 167.157 513.53 167.505 513.544 167.839C513.573 168.172 513.602 168.499 513.631 168.818L520.116 162.942C519.869 162.159 519.499 161.535 519.006 161.071C518.527 160.607 517.875 160.375 517.048 160.375C515.757 160.375 514.843 160.911 514.306 161.985C513.784 163.044 513.522 164.647 513.522 166.794ZM524.764 166.794C524.764 165.561 524.873 164.458 525.09 163.486C525.308 162.5 525.634 161.673 526.07 161.006C526.505 160.324 527.056 159.809 527.723 159.461C528.391 159.098 529.181 158.917 530.095 158.917C531.067 158.917 531.887 159.091 532.554 159.439C533.236 159.787 533.787 160.295 534.208 160.962C534.629 161.63 534.933 162.456 535.122 163.443C535.311 164.415 535.405 165.532 535.405 166.794C535.405 168.027 535.296 169.137 535.078 170.123C534.861 171.095 534.534 171.922 534.099 172.604C533.664 173.271 533.113 173.786 532.445 174.149C531.778 174.497 530.988 174.671 530.074 174.671C529.116 174.671 528.296 174.483 527.615 174.106C526.947 173.714 526.396 173.17 525.961 172.473C525.54 171.777 525.236 170.95 525.047 169.993C524.858 169.021 524.764 167.955 524.764 166.794ZM533.621 166.794C533.621 166.025 533.577 165.293 533.49 164.596L527.027 170.493C527.274 171.32 527.644 171.98 528.137 172.473C528.63 172.967 529.276 173.213 530.074 173.213C531.35 173.213 532.257 172.684 532.794 171.625C533.345 170.566 533.621 168.956 533.621 166.794ZM526.57 166.794C526.57 167.157 526.577 167.505 526.592 167.839C526.621 168.172 526.65 168.499 526.679 168.818L533.164 162.942C532.917 162.159 532.547 161.535 532.054 161.071C531.575 160.607 530.922 160.375 530.095 160.375C528.804 160.375 527.89 160.911 527.354 161.985C526.831 163.044 526.57 164.647 526.57 166.794ZM537.812 166.794C537.812 165.561 537.921 164.458 538.138 163.486C538.356 162.5 538.682 161.673 539.117 161.006C539.553 160.324 540.104 159.809 540.771 159.461C541.438 159.098 542.229 158.917 543.143 158.917C544.115 158.917 544.935 159.091 545.602 159.439C546.284 159.787 546.835 160.295 547.256 160.962C547.676 161.63 547.981 162.456 548.17 163.443C548.358 164.415 548.453 165.532 548.453 166.794C548.453 168.027 548.344 169.137 548.126 170.123C547.909 171.095 547.582 171.922 547.147 172.604C546.712 173.271 546.16 173.786 545.493 174.149C544.826 174.497 544.035 174.671 543.121 174.671C542.164 174.671 541.344 174.483 540.662 174.106C539.995 173.714 539.444 173.17 539.009 172.473C538.588 171.777 538.283 170.95 538.095 169.993C537.906 169.021 537.812 167.955 537.812 166.794ZM546.668 166.794C546.668 166.025 546.625 165.293 546.538 164.596L540.075 170.493C540.321 171.32 540.691 171.98 541.185 172.473C541.678 172.967 542.323 173.213 543.121 173.213C544.398 173.213 545.305 172.684 545.841 171.625C546.393 170.566 546.668 168.956 546.668 166.794ZM539.618 166.794C539.618 167.157 539.625 167.505 539.64 167.839C539.669 168.172 539.698 168.499 539.727 168.818L546.211 162.942C545.965 162.159 545.595 161.535 545.101 161.071C544.623 160.607 543.97 160.375 543.143 160.375C541.852 160.375 540.938 160.911 540.401 161.985C539.879 163.044 539.618 164.647 539.618 166.794ZM550.859 166.794C550.859 165.561 550.968 164.458 551.186 163.486C551.403 162.5 551.73 161.673 552.165 161.006C552.6 160.324 553.152 159.809 553.819 159.461C554.486 159.098 555.277 158.917 556.191 158.917C557.163 158.917 557.982 159.091 558.65 159.439C559.332 159.787 559.883 160.295 560.303 160.962C560.724 161.63 561.029 162.456 561.217 163.443C561.406 164.415 561.5 165.532 561.5 166.794C561.5 168.027 561.391 169.137 561.174 170.123C560.956 171.095 560.63 171.922 560.195 172.604C559.759 173.271 559.208 173.786 558.541 174.149C557.874 174.497 557.083 174.671 556.169 174.671C555.212 174.671 554.392 174.483 553.71 174.106C553.043 173.714 552.492 173.17 552.056 172.473C551.636 171.777 551.331 170.95 551.142 169.993C550.954 169.021 550.859 167.955 550.859 166.794ZM559.716 166.794C559.716 166.025 559.672 165.293 559.585 164.596L553.123 170.493C553.369 171.32 553.739 171.98 554.232 172.473C554.726 172.967 555.371 173.213 556.169 173.213C557.446 173.213 558.352 172.684 558.889 171.625C559.44 170.566 559.716 168.956 559.716 166.794ZM552.666 166.794C552.666 167.157 552.673 167.505 552.687 167.839C552.716 168.172 552.745 168.499 552.774 168.818L559.259 162.942C559.012 162.159 558.642 161.535 558.149 161.071C557.67 160.607 557.018 160.375 556.191 160.375C554.9 160.375 553.986 160.911 553.449 161.985C552.927 163.044 552.666 164.647 552.666 166.794ZM578.522 172.843H581.938V161.397L578.456 163.835L577.608 162.594L582.395 159.178H583.614V172.843H586.965V174.41H578.522V172.843ZM590.003 166.794C590.003 165.561 590.111 164.458 590.329 163.486C590.547 162.5 590.873 161.673 591.308 161.006C591.743 160.324 592.295 159.809 592.962 159.461C593.629 159.098 594.42 158.917 595.334 158.917C596.306 158.917 597.125 159.091 597.793 159.439C598.475 159.787 599.026 160.295 599.447 160.962C599.867 161.63 600.172 162.456 600.361 163.443C600.549 164.415 600.643 165.532 600.643 166.794C600.643 168.027 600.535 169.137 600.317 170.123C600.099 171.095 599.773 171.922 599.338 172.604C598.903 173.271 598.351 173.786 597.684 174.149C597.017 174.497 596.226 174.671 595.312 174.671C594.355 174.671 593.535 174.483 592.853 174.106C592.186 173.714 591.635 173.17 591.199 172.473C590.779 171.777 590.474 170.95 590.285 169.993C590.097 169.021 590.003 167.955 590.003 166.794ZM598.859 166.794C598.859 166.025 598.816 165.293 598.729 164.596L592.266 170.493C592.512 171.32 592.882 171.98 593.375 172.473C593.869 172.967 594.514 173.213 595.312 173.213C596.589 173.213 597.495 172.684 598.032 171.625C598.583 170.566 598.859 168.956 598.859 166.794ZM591.809 166.794C591.809 167.157 591.816 167.505 591.83 167.839C591.859 168.172 591.889 168.499 591.918 168.818L598.402 162.942C598.155 162.159 597.786 161.535 597.292 161.071C596.814 160.607 596.161 160.375 595.334 160.375C594.043 160.375 593.129 160.911 592.592 161.985C592.07 163.044 591.809 164.647 591.809 166.794ZM604.617 172.843H608.033V161.397L604.552 163.835L603.703 162.594L608.49 159.178H609.709V172.843H613.06V174.41H604.617V172.843ZM616.098 166.794C616.098 165.561 616.207 164.458 616.424 163.486C616.642 162.5 616.968 161.673 617.404 161.006C617.839 160.324 618.39 159.809 619.057 159.461C619.725 159.098 620.515 158.917 621.429 158.917C622.401 158.917 623.221 159.091 623.888 159.439C624.57 159.787 625.121 160.295 625.542 160.962C625.963 161.63 626.267 162.456 626.456 163.443C626.645 164.415 626.739 165.532 626.739 166.794C626.739 168.027 626.63 169.137 626.412 170.123C626.195 171.095 625.868 171.922 625.433 172.604C624.998 173.271 624.447 173.786 623.779 174.149C623.112 174.497 622.321 174.671 621.408 174.671C620.45 174.671 619.63 174.483 618.949 174.106C618.281 173.714 617.73 173.17 617.295 172.473C616.874 171.777 616.57 170.95 616.381 169.993C616.192 169.021 616.098 167.955 616.098 166.794ZM624.954 166.794C624.954 166.025 624.911 165.293 624.824 164.596L618.361 170.493C618.608 171.32 618.978 171.98 619.471 172.473C619.964 172.967 620.61 173.213 621.408 173.213C622.684 173.213 623.591 172.684 624.128 171.625C624.679 170.566 624.954 168.956 624.954 166.794ZM617.904 166.794C617.904 167.157 617.911 167.505 617.926 167.839C617.955 168.172 617.984 168.499 618.013 168.818L624.498 162.942C624.251 162.159 623.881 161.535 623.388 161.071C622.909 160.607 622.256 160.375 621.429 160.375C620.138 160.375 619.224 160.911 618.688 161.985C618.165 163.044 617.904 164.647 617.904 166.794Z" fill="black"/>
<rect x="500.52" y="145.41" width="138" height="45" stroke="#58A982"/>
<rect x="638.52" y="100.41" width="138" height="45" fill="#DBEEE5"/>
<path d="M696.783 127.843H700.199V116.397L696.718 118.835L695.869 117.594L700.656 114.178H701.875V127.843H705.226V129.41H696.783V127.843ZM708.264 121.794C708.264 120.561 708.373 119.458 708.59 118.486C708.808 117.5 709.134 116.673 709.57 116.006C710.005 115.324 710.556 114.809 711.223 114.461C711.891 114.098 712.681 113.917 713.595 113.917C714.567 113.917 715.387 114.091 716.054 114.439C716.736 114.787 717.287 115.295 717.708 115.962C718.129 116.63 718.433 117.456 718.622 118.443C718.811 119.415 718.905 120.532 718.905 121.794C718.905 123.027 718.796 124.137 718.578 125.123C718.361 126.095 718.034 126.922 717.599 127.604C717.164 128.271 716.613 128.786 715.945 129.149C715.278 129.497 714.488 129.671 713.574 129.671C712.616 129.671 711.796 129.483 711.115 129.106C710.447 128.714 709.896 128.17 709.461 127.473C709.04 126.777 708.736 125.95 708.547 124.993C708.358 124.021 708.264 122.955 708.264 121.794ZM717.121 121.794C717.121 121.025 717.077 120.293 716.99 119.596L710.527 125.493C710.774 126.32 711.144 126.98 711.637 127.473C712.13 127.967 712.776 128.213 713.574 128.213C714.85 128.213 715.757 127.684 716.294 126.625C716.845 125.566 717.121 123.956 717.121 121.794ZM710.07 121.794C710.07 122.157 710.077 122.505 710.092 122.839C710.121 123.172 710.15 123.499 710.179 123.818L716.664 117.942C716.417 117.159 716.047 116.535 715.554 116.071C715.075 115.607 714.422 115.375 713.595 115.375C712.304 115.375 711.39 115.911 710.854 116.985C710.331 118.044 710.07 119.647 710.07 121.794Z" fill="black"/>
<rect x="638.52" y="100.41" width="138" height="45" stroke="#58A982"/>
<rect x="638.52" y="145.41" width="138" height="45" fill="#DBEEE5"/>
<path d="M649.716 166.794C649.716 165.561 649.825 164.458 650.043 163.486C650.26 162.5 650.587 161.673 651.022 161.006C651.457 160.324 652.008 159.809 652.676 159.461C653.343 159.098 654.134 158.917 655.048 158.917C656.02 158.917 656.839 159.091 657.507 159.439C658.188 159.787 658.74 160.295 659.16 160.962C659.581 161.63 659.886 162.456 660.074 163.443C660.263 164.415 660.357 165.532 660.357 166.794C660.357 168.027 660.248 169.137 660.031 170.123C659.813 171.095 659.487 171.922 659.052 172.604C658.616 173.271 658.065 173.786 657.398 174.149C656.73 174.497 655.94 174.671 655.026 174.671C654.068 174.671 653.249 174.483 652.567 174.106C651.9 173.714 651.348 173.17 650.913 172.473C650.492 171.777 650.188 170.95 649.999 169.993C649.811 169.021 649.716 167.955 649.716 166.794ZM658.573 166.794C658.573 166.025 658.529 165.293 658.442 164.596L651.979 170.493C652.226 171.32 652.596 171.98 653.089 172.473C653.582 172.967 654.228 173.213 655.026 173.213C656.302 173.213 657.209 172.684 657.746 171.625C658.297 170.566 658.573 168.956 658.573 166.794ZM651.522 166.794C651.522 167.157 651.53 167.505 651.544 167.839C651.573 168.172 651.602 168.499 651.631 168.818L658.116 162.942C657.869 162.159 657.499 161.535 657.006 161.071C656.527 160.607 655.875 160.375 655.048 160.375C653.757 160.375 652.843 160.911 652.306 161.985C651.784 163.044 651.522 164.647 651.522 166.794ZM662.764 166.794C662.764 165.561 662.873 164.458 663.09 163.486C663.308 162.5 663.634 161.673 664.07 161.006C664.505 160.324 665.056 159.809 665.723 159.461C666.391 159.098 667.181 158.917 668.095 158.917C669.067 158.917 669.887 159.091 670.554 159.439C671.236 159.787 671.787 160.295 672.208 160.962C672.629 161.63 672.933 162.456 673.122 163.443C673.311 164.415 673.405 165.532 673.405 166.794C673.405 168.027 673.296 169.137 673.078 170.123C672.861 171.095 672.534 171.922 672.099 172.604C671.664 173.271 671.113 173.786 670.445 174.149C669.778 174.497 668.988 174.671 668.074 174.671C667.116 174.671 666.296 174.483 665.615 174.106C664.947 173.714 664.396 173.17 663.961 172.473C663.54 171.777 663.236 170.95 663.047 169.993C662.858 169.021 662.764 167.955 662.764 166.794ZM671.621 166.794C671.621 166.025 671.577 165.293 671.49 164.596L665.027 170.493C665.274 171.32 665.644 171.98 666.137 172.473C666.63 172.967 667.276 173.213 668.074 173.213C669.35 173.213 670.257 172.684 670.794 171.625C671.345 170.566 671.621 168.956 671.621 166.794ZM664.57 166.794C664.57 167.157 664.577 167.505 664.592 167.839C664.621 168.172 664.65 168.499 664.679 168.818L671.164 162.942C670.917 162.159 670.547 161.535 670.054 161.071C669.575 160.607 668.922 160.375 668.095 160.375C666.804 160.375 665.89 160.911 665.354 161.985C664.831 163.044 664.57 164.647 664.57 166.794ZM675.812 166.794C675.812 165.561 675.921 164.458 676.138 163.486C676.356 162.5 676.682 161.673 677.117 161.006C677.553 160.324 678.104 159.809 678.771 159.461C679.438 159.098 680.229 158.917 681.143 158.917C682.115 158.917 682.935 159.091 683.602 159.439C684.284 159.787 684.835 160.295 685.256 160.962C685.676 161.63 685.981 162.456 686.17 163.443C686.358 164.415 686.453 165.532 686.453 166.794C686.453 168.027 686.344 169.137 686.126 170.123C685.909 171.095 685.582 171.922 685.147 172.604C684.712 173.271 684.16 173.786 683.493 174.149C682.826 174.497 682.035 174.671 681.121 174.671C680.164 174.671 679.344 174.483 678.662 174.106C677.995 173.714 677.444 173.17 677.009 172.473C676.588 171.777 676.283 170.95 676.095 169.993C675.906 169.021 675.812 167.955 675.812 166.794ZM684.668 166.794C684.668 166.025 684.625 165.293 684.538 164.596L678.075 170.493C678.321 171.32 678.691 171.98 679.185 172.473C679.678 172.967 680.323 173.213 681.121 173.213C682.398 173.213 683.305 172.684 683.841 171.625C684.393 170.566 684.668 168.956 684.668 166.794ZM677.618 166.794C677.618 167.157 677.625 167.505 677.64 167.839C677.669 168.172 677.698 168.499 677.727 168.818L684.211 162.942C683.965 162.159 683.595 161.535 683.101 161.071C682.623 160.607 681.97 160.375 681.143 160.375C679.852 160.375 678.938 160.911 678.401 161.985C677.879 163.044 677.618 164.647 677.618 166.794ZM688.859 166.794C688.859 165.561 688.968 164.458 689.186 163.486C689.403 162.5 689.73 161.673 690.165 161.006C690.6 160.324 691.152 159.809 691.819 159.461C692.486 159.098 693.277 158.917 694.191 158.917C695.163 158.917 695.982 159.091 696.65 159.439C697.332 159.787 697.883 160.295 698.303 160.962C698.724 161.63 699.029 162.456 699.217 163.443C699.406 164.415 699.5 165.532 699.5 166.794C699.5 168.027 699.391 169.137 699.174 170.123C698.956 171.095 698.63 171.922 698.195 172.604C697.759 173.271 697.208 173.786 696.541 174.149C695.874 174.497 695.083 174.671 694.169 174.671C693.212 174.671 692.392 174.483 691.71 174.106C691.043 173.714 690.492 173.17 690.056 172.473C689.636 171.777 689.331 170.95 689.142 169.993C688.954 169.021 688.859 167.955 688.859 166.794ZM697.716 166.794C697.716 166.025 697.672 165.293 697.585 164.596L691.123 170.493C691.369 171.32 691.739 171.98 692.232 172.473C692.726 172.967 693.371 173.213 694.169 173.213C695.446 173.213 696.352 172.684 696.889 171.625C697.44 170.566 697.716 168.956 697.716 166.794ZM690.666 166.794C690.666 167.157 690.673 167.505 690.687 167.839C690.716 168.172 690.745 168.499 690.774 168.818L697.259 162.942C697.012 162.159 696.642 161.535 696.149 161.071C695.67 160.607 695.018 160.375 694.191 160.375C692.9 160.375 691.986 160.911 691.449 161.985C690.927 163.044 690.666 164.647 690.666 166.794ZM716.522 172.843H719.938V161.397L716.456 163.835L715.608 162.594L720.395 159.178H721.614V172.843H724.965V174.41H716.522V172.843ZM728.003 166.794C728.003 165.561 728.111 164.458 728.329 163.486C728.547 162.5 728.873 161.673 729.308 161.006C729.743 160.324 730.295 159.809 730.962 159.461C731.629 159.098 732.42 158.917 733.334 158.917C734.306 158.917 735.125 159.091 735.793 159.439C736.475 159.787 737.026 160.295 737.447 160.962C737.867 161.63 738.172 162.456 738.361 163.443C738.549 164.415 738.643 165.532 738.643 166.794C738.643 168.027 738.535 169.137 738.317 170.123C738.099 171.095 737.773 171.922 737.338 172.604C736.903 173.271 736.351 173.786 735.684 174.149C735.017 174.497 734.226 174.671 733.312 174.671C732.355 174.671 731.535 174.483 730.853 174.106C730.186 173.714 729.635 173.17 729.199 172.473C728.779 171.777 728.474 170.95 728.285 169.993C728.097 169.021 728.003 167.955 728.003 166.794ZM736.859 166.794C736.859 166.025 736.816 165.293 736.729 164.596L730.266 170.493C730.512 171.32 730.882 171.98 731.375 172.473C731.869 172.967 732.514 173.213 733.312 173.213C734.589 173.213 735.495 172.684 736.032 171.625C736.583 170.566 736.859 168.956 736.859 166.794ZM729.809 166.794C729.809 167.157 729.816 167.505 729.83 167.839C729.859 168.172 729.889 168.499 729.918 168.818L736.402 162.942C736.155 162.159 735.786 161.535 735.292 161.071C734.814 160.607 734.161 160.375 733.334 160.375C732.043 160.375 731.129 160.911 730.592 161.985C730.07 163.044 729.809 164.647 729.809 166.794ZM742.617 172.843H746.033V161.397L742.552 163.835L741.703 162.594L746.49 159.178H747.709V172.843H751.06V174.41H742.617V172.843ZM754.098 166.794C754.098 165.561 754.207 164.458 754.424 163.486C754.642 162.5 754.968 161.673 755.404 161.006C755.839 160.324 756.39 159.809 757.057 159.461C757.725 159.098 758.515 158.917 759.429 158.917C760.401 158.917 761.221 159.091 761.888 159.439C762.57 159.787 763.121 160.295 763.542 160.962C763.963 161.63 764.267 162.456 764.456 163.443C764.645 164.415 764.739 165.532 764.739 166.794C764.739 168.027 764.63 169.137 764.412 170.123C764.195 171.095 763.868 171.922 763.433 172.604C762.998 173.271 762.447 173.786 761.779 174.149C761.112 174.497 760.321 174.671 759.408 174.671C758.45 174.671 757.63 174.483 756.949 174.106C756.281 173.714 755.73 173.17 755.295 172.473C754.874 171.777 754.57 170.95 754.381 169.993C754.192 169.021 754.098 167.955 754.098 166.794ZM762.954 166.794C762.954 166.025 762.911 165.293 762.824 164.596L756.361 170.493C756.608 171.32 756.978 171.98 757.471 172.473C757.964 172.967 758.61 173.213 759.408 173.213C760.684 173.213 761.591 172.684 762.128 171.625C762.679 170.566 762.954 168.956 762.954 166.794ZM755.904 166.794C755.904 167.157 755.911 167.505 755.926 167.839C755.955 168.172 755.984 168.499 756.013 168.818L762.498 162.942C762.251 162.159 761.881 161.535 761.388 161.071C760.909 160.607 760.256 160.375 759.429 160.375C758.138 160.375 757.224 160.911 756.688 161.985C756.165 163.044 755.904 164.647 755.904 166.794Z" fill="black"/>
<rect x="638.52" y="145.41" width="138" height="45" stroke="#58A982"/>
<rect width="552" height="45" transform="matrix(1 0 0 -1 224.52 145.41)" stroke="#FFBD6E" stroke-width="7"/>
</svg>
