<svg width="1551" height="974" viewBox="0 0 1551 974" fill="none" xmlns="http://www.w3.org/2000/svg">
<rect x="407.691" y="442.567" width="104.135" height="109.408" fill="#F7F7F7"/>
<rect x="407.691" y="442.567" width="104.135" height="109.408" stroke="#DADADA" stroke-width="2"/>
<rect x="511.826" y="442.567" width="104.135" height="109.408" fill="#F7F7F7"/>
<rect x="511.826" y="442.567" width="104.135" height="109.408" stroke="#DADADA" stroke-width="2"/>
<rect x="615.961" y="442.567" width="104.135" height="109.408" fill="#EAC053"/>
<rect x="615.961" y="442.567" width="104.135" height="109.408" stroke="#EAC053" stroke-width="1.31816"/>
<rect x="720.096" y="442.567" width="104.135" height="109.408" fill="#F7F7F7"/>
<rect x="720.096" y="442.567" width="104.135" height="109.408" stroke="#DADADA" stroke-width="2"/>
<rect x="824.23" y="442.567" width="104.135" height="109.408" fill="#F7F7F7"/>
<rect x="824.23" y="442.567" width="104.135" height="109.408" stroke="#DADADA" stroke-width="2"/>
<rect x="928.365" y="442.567" width="104.135" height="109.408" fill="#F7F7F7"/>
<rect x="928.365" y="442.567" width="104.135" height="109.408" stroke="#DADADA" stroke-width="2"/>
<rect x="1032.5" y="442.567" width="104.135" height="109.408" fill="#F7F7F7"/>
<rect x="1032.5" y="442.567" width="104.135" height="109.408" stroke="#DADADA" stroke-width="2"/>
<rect x="1136.63" y="442.567" width="104.135" height="109.408" fill="#F7F7F7"/>
<rect x="1136.63" y="442.567" width="104.135" height="109.408" stroke="#DADADA" stroke-width="2"/>
<rect x="407.547" y="333.16" width="104.135" height="109.408" fill="#F7F7F7"/>
<path d="M435.906 394.807H440.495V382.645L435.906 385.915V381.727L440.754 378.285H444.798V394.807H448.527V398.364H435.906V394.807ZM449.958 395.237L456.985 389.185C457.635 388.611 458.19 388.114 458.649 387.693C459.108 387.254 459.481 386.852 459.767 386.489C460.054 386.125 460.255 385.772 460.37 385.427C460.504 385.083 460.571 384.71 460.571 384.309C460.571 383.486 460.341 382.827 459.882 382.33C459.423 381.813 458.744 381.555 457.846 381.555C456.813 381.555 456 381.842 455.408 382.416C454.834 382.97 454.547 383.936 454.547 385.313H450.244C450.244 383.037 450.885 381.24 452.166 379.92C453.467 378.601 455.36 377.941 457.846 377.941C459.012 377.941 460.026 378.104 460.886 378.429C461.766 378.735 462.502 379.174 463.095 379.748C463.688 380.303 464.127 380.972 464.414 381.756C464.72 382.54 464.873 383.391 464.873 384.309C464.873 384.997 464.749 385.657 464.5 386.288C464.252 386.9 463.907 387.493 463.468 388.066C463.047 388.64 462.55 389.204 461.976 389.759C461.402 390.294 460.791 390.83 460.14 391.365L456.01 394.807H465.16V398.364H449.958V395.237ZM475.332 398.708C474.127 398.708 473.037 398.574 472.062 398.306C471.105 398.02 470.293 397.628 469.623 397.13C468.973 396.614 468.467 396.002 468.103 395.295C467.759 394.568 467.587 393.765 467.587 392.885C467.587 391.757 467.931 390.753 468.62 389.873C469.308 388.975 470.331 388.344 471.689 387.98C470.675 387.655 469.834 387.091 469.165 386.288C468.495 385.485 468.161 384.529 468.161 383.42C468.161 382.616 468.314 381.88 468.62 381.211C468.945 380.542 469.413 379.968 470.025 379.49C470.637 378.993 471.383 378.61 472.262 378.343C473.161 378.075 474.184 377.941 475.332 377.941C476.479 377.941 477.492 378.075 478.372 378.343C479.271 378.61 480.026 378.993 480.638 379.49C481.269 379.968 481.738 380.542 482.043 381.211C482.369 381.88 482.531 382.616 482.531 383.42C482.531 384.529 482.196 385.475 481.527 386.259C480.858 387.024 480.007 387.598 478.974 387.98C481.709 388.822 483.076 390.457 483.076 392.885C483.076 393.765 482.894 394.568 482.531 395.295C482.187 396.002 481.68 396.614 481.011 397.13C480.361 397.628 479.558 398.02 478.601 398.306C477.645 398.574 476.555 398.708 475.332 398.708ZM475.332 395.094C476.517 395.094 477.387 394.864 477.942 394.405C478.496 393.946 478.774 393.325 478.774 392.541C478.774 391.68 478.448 391.002 477.798 390.504C477.167 389.988 476.345 389.653 475.332 389.501C474.318 389.653 473.486 389.988 472.836 390.504C472.205 391.002 471.889 391.68 471.889 392.541C471.889 393.325 472.176 393.946 472.75 394.405C473.324 394.864 474.184 395.094 475.332 395.094ZM475.332 386.575C476.192 386.422 476.89 386.125 477.425 385.686C477.961 385.227 478.229 384.596 478.229 383.792C478.229 383.047 477.97 382.492 477.454 382.129C476.957 381.746 476.249 381.555 475.332 381.555C474.433 381.555 473.725 381.746 473.209 382.129C472.712 382.492 472.463 383.047 472.463 383.792C472.463 384.596 472.721 385.227 473.238 385.686C473.773 386.125 474.471 386.422 475.332 386.575Z" fill="black"/>
<rect x="407.547" y="333.16" width="104.135" height="109.408" stroke="#DADADA" stroke-width="2"/>
<rect x="511.682" y="333.16" width="104.135" height="109.408" fill="#F7F7F7"/>
<path d="M555.072 398.708C553.81 398.708 552.691 398.526 551.716 398.163C550.741 397.8 549.919 397.236 549.249 396.471C548.58 395.687 548.064 394.692 547.7 393.488C547.356 392.283 547.184 390.849 547.184 389.185V388.611C547.184 386.699 547.385 385.074 547.787 383.735C548.188 382.377 548.752 381.268 549.479 380.408C550.206 379.547 551.066 378.926 552.06 378.543C553.074 378.142 554.173 377.941 555.359 377.941C557.214 377.941 558.715 378.333 559.862 379.117C561.01 379.901 561.708 381.201 561.956 383.018H557.941C557.558 382.043 556.65 381.555 555.216 381.555C554.661 381.555 554.145 381.641 553.667 381.813C553.208 381.966 552.797 382.263 552.433 382.702C552.089 383.123 551.812 383.706 551.601 384.452C551.391 385.198 551.257 386.154 551.2 387.321C551.448 386.938 551.754 386.623 552.118 386.374C552.481 386.106 552.873 385.896 553.294 385.743C553.734 385.571 554.183 385.447 554.642 385.37C555.12 385.294 555.598 385.255 556.076 385.255C558.103 385.255 559.662 385.81 560.752 386.919C561.842 388.009 562.387 389.558 562.387 391.566V391.881C562.387 392.895 562.205 393.822 561.842 394.664C561.478 395.505 560.971 396.232 560.321 396.844C559.69 397.436 558.925 397.895 558.027 398.22C557.128 398.545 556.143 398.708 555.072 398.708ZM554.785 395.094C555.818 395.094 556.621 394.807 557.195 394.233C557.788 393.641 558.084 392.885 558.084 391.967V391.68C558.084 390.763 557.788 390.017 557.195 389.443C556.621 388.869 555.818 388.583 554.785 388.583C553.753 388.583 552.94 388.869 552.347 389.443C551.774 390.017 551.487 390.763 551.487 391.68V391.967C551.487 392.885 551.774 393.641 552.347 394.233C552.94 394.807 553.753 395.094 554.785 395.094ZM573.717 394.119H564.251V391.135L573.717 378.285H578.019V390.562H580.314V394.119H578.019V398.364H573.717V394.119ZM573.717 390.562V383.075L568.267 390.562H573.717Z" fill="black"/>
<rect x="511.682" y="333.16" width="104.135" height="109.408" stroke="#DADADA" stroke-width="2"/>
<rect x="615.816" y="333.16" width="104.135" height="109.408" fill="#F7F7F7"/>
<path d="M658.846 398.708C656.399 398.708 654.544 398.134 653.282 396.987C652.02 395.82 651.389 394.224 651.389 392.197H655.691C655.691 393.172 655.94 393.899 656.437 394.377C656.953 394.855 657.756 395.094 658.846 395.094C659.898 395.094 660.682 394.864 661.199 394.405C661.734 393.927 662.002 393.258 662.002 392.398C662.002 390.6 660.95 389.701 658.846 389.701H656.982V386.374H658.846C659.764 386.374 660.472 386.183 660.969 385.8C661.466 385.418 661.715 384.825 661.715 384.022C661.715 383.295 661.476 382.702 660.998 382.244C660.52 381.785 659.803 381.555 658.846 381.555C657.871 381.555 657.145 381.785 656.666 382.244C656.208 382.683 655.978 383.324 655.978 384.165H651.676C651.676 382.196 652.268 380.666 653.454 379.576C654.659 378.486 656.456 377.941 658.846 377.941C660.051 377.941 661.103 378.084 662.002 378.371C662.9 378.639 663.646 379.021 664.239 379.519C664.832 379.997 665.272 380.57 665.558 381.24C665.864 381.909 666.017 382.636 666.017 383.42C666.017 384.529 665.702 385.475 665.071 386.259C664.459 387.024 663.637 387.569 662.604 387.894C663.79 388.219 664.698 388.783 665.329 389.587C665.979 390.39 666.304 391.451 666.304 392.77C666.304 393.631 666.132 394.425 665.788 395.151C665.444 395.878 664.947 396.509 664.296 397.044C663.665 397.561 662.881 397.972 661.944 398.278C661.026 398.565 659.994 398.708 658.846 398.708ZM668.612 395.237L675.64 389.185C676.29 388.611 676.845 388.114 677.304 387.693C677.762 387.254 678.135 386.852 678.422 386.489C678.709 386.125 678.91 385.772 679.025 385.427C679.158 385.083 679.225 384.71 679.225 384.309C679.225 383.486 678.996 382.827 678.537 382.33C678.078 381.813 677.399 381.555 676.5 381.555C675.468 381.555 674.655 381.842 674.062 382.416C673.489 382.97 673.202 383.936 673.202 385.313H668.899C668.899 383.037 669.54 381.24 670.821 379.92C672.121 378.601 674.014 377.941 676.5 377.941C677.667 377.941 678.68 378.104 679.541 378.429C680.42 378.735 681.157 379.174 681.749 379.748C682.342 380.303 682.782 380.972 683.069 381.756C683.375 382.54 683.528 383.391 683.528 384.309C683.528 384.997 683.404 385.657 683.155 386.288C682.906 386.9 682.562 387.493 682.122 388.066C681.702 388.64 681.204 389.204 680.631 389.759C680.057 390.294 679.445 390.83 678.795 391.365L674.665 394.807H683.815V398.364H668.612V395.237Z" fill="black"/>
<rect x="615.816" y="333.16" width="104.135" height="109.408" stroke="#DADADA" stroke-width="2"/>
<rect x="719.951" y="333.16" width="104.135" height="109.408" fill="#F7F7F7"/>
<path d="M756.81 394.807H761.4V382.645L756.81 385.915V381.727L761.658 378.285H765.702V394.807H769.431V398.364H756.81V394.807ZM779.324 398.708C778.062 398.708 776.943 398.526 775.968 398.163C774.992 397.8 774.17 397.236 773.501 396.471C772.832 395.687 772.315 394.692 771.952 393.488C771.608 392.283 771.436 390.849 771.436 389.185V388.611C771.436 386.699 771.636 385.074 772.038 383.735C772.44 382.377 773.004 381.268 773.73 380.408C774.457 379.547 775.317 378.926 776.312 378.543C777.325 378.142 778.425 377.941 779.61 377.941C781.465 377.941 782.966 378.333 784.114 379.117C785.261 379.901 785.959 381.201 786.208 383.018H782.192C781.81 382.043 780.901 381.555 779.467 381.555C778.912 381.555 778.396 381.641 777.918 381.813C777.459 381.966 777.048 382.263 776.685 382.702C776.341 383.123 776.063 383.706 775.853 384.452C775.643 385.198 775.509 386.154 775.451 387.321C775.7 386.938 776.006 386.623 776.369 386.374C776.733 386.106 777.125 385.896 777.545 385.743C777.985 385.571 778.434 385.447 778.893 385.37C779.371 385.294 779.849 385.255 780.328 385.255C782.355 385.255 783.913 385.81 785.003 386.919C786.093 388.009 786.638 389.558 786.638 391.566V391.881C786.638 392.895 786.456 393.822 786.093 394.664C785.73 395.505 785.223 396.232 784.573 396.844C783.942 397.436 783.177 397.895 782.278 398.22C781.379 398.545 780.394 398.708 779.324 398.708ZM779.037 395.094C780.069 395.094 780.873 394.807 781.446 394.233C782.039 393.641 782.335 392.885 782.335 391.967V391.68C782.335 390.763 782.039 390.017 781.446 389.443C780.873 388.869 780.069 388.583 779.037 388.583C778.004 388.583 777.191 388.869 776.599 389.443C776.025 390.017 775.738 390.763 775.738 391.68V391.967C775.738 392.885 776.025 393.641 776.599 394.233C777.191 394.807 778.004 395.094 779.037 395.094Z" fill="black"/>
<rect x="719.951" y="333.16" width="104.135" height="109.408" stroke="#DADADA" stroke-width="2"/>
<rect x="824.086" y="333.16" width="104.135" height="109.408" fill="#F7F7F7"/>
<path d="M875.69 398.708C874.485 398.708 873.395 398.574 872.42 398.306C871.464 398.02 870.651 397.628 869.982 397.13C869.331 396.614 868.825 396.002 868.461 395.295C868.117 394.568 867.945 393.765 867.945 392.885C867.945 391.757 868.289 390.753 868.978 389.873C869.666 388.975 870.689 388.344 872.047 387.98C871.033 387.655 870.192 387.091 869.523 386.288C868.853 385.485 868.519 384.529 868.519 383.42C868.519 382.616 868.672 381.88 868.978 381.211C869.303 380.542 869.771 379.968 870.383 379.49C870.995 378.993 871.741 378.61 872.621 378.343C873.519 378.075 874.542 377.941 875.69 377.941C876.837 377.941 877.85 378.075 878.73 378.343C879.629 378.61 880.384 378.993 880.996 379.49C881.627 379.968 882.096 380.542 882.402 381.211C882.727 381.88 882.889 382.616 882.889 383.42C882.889 384.529 882.555 385.475 881.885 386.259C881.216 387.024 880.365 387.598 879.332 387.98C882.067 388.822 883.434 390.457 883.434 392.885C883.434 393.765 883.253 394.568 882.889 395.295C882.545 396.002 882.038 396.614 881.369 397.13C880.719 397.628 879.916 398.02 878.96 398.306C878.003 398.574 876.913 398.708 875.69 398.708ZM875.69 395.094C876.875 395.094 877.745 394.864 878.3 394.405C878.854 393.946 879.132 393.325 879.132 392.541C879.132 391.68 878.807 391.002 878.156 390.504C877.525 389.988 876.703 389.653 875.69 389.501C874.676 389.653 873.844 389.988 873.194 390.504C872.563 391.002 872.248 391.68 872.248 392.541C872.248 393.325 872.534 393.946 873.108 394.405C873.682 394.864 874.542 395.094 875.69 395.094ZM875.69 386.575C876.55 386.422 877.248 386.125 877.784 385.686C878.319 385.227 878.587 384.596 878.587 383.792C878.587 383.047 878.329 382.492 877.812 382.129C877.315 381.746 876.608 381.555 875.69 381.555C874.791 381.555 874.083 381.746 873.567 382.129C873.07 382.492 872.821 383.047 872.821 383.792C872.821 384.596 873.079 385.227 873.596 385.686C874.131 386.125 874.829 386.422 875.69 386.575Z" fill="black"/>
<rect x="824.086" y="333.16" width="104.135" height="109.408" stroke="#DADADA" stroke-width="2"/>
<rect x="928.221" y="333.16" width="104.135" height="109.408" fill="#F7F7F7"/>
<path d="M980.828 394.119H971.363V391.135L980.828 378.285H985.131V390.562H987.426V394.119H985.131V398.364H980.828V394.119ZM980.828 390.562V383.075L975.378 390.562H980.828Z" fill="black"/>
<rect x="928.221" y="333.16" width="104.135" height="109.408" stroke="#DADADA" stroke-width="2"/>
<rect x="1032.36" y="333.16" width="104.135" height="109.408" fill="#F7F7F7"/>
<path d="M1076.28 395.237L1083.31 389.185C1083.96 388.611 1084.52 388.114 1084.98 387.693C1085.43 387.254 1085.81 386.852 1086.09 386.489C1086.38 386.125 1086.58 385.772 1086.7 385.427C1086.83 385.083 1086.9 384.71 1086.9 384.309C1086.9 383.486 1086.67 382.827 1086.21 382.33C1085.75 381.813 1085.07 381.555 1084.17 381.555C1083.14 381.555 1082.33 381.842 1081.73 382.416C1081.16 382.97 1080.87 383.936 1080.87 385.313H1076.57C1076.57 383.037 1077.21 381.24 1078.49 379.92C1079.79 378.601 1081.69 377.941 1084.17 377.941C1085.34 377.941 1086.35 378.104 1087.21 378.429C1088.09 378.735 1088.83 379.174 1089.42 379.748C1090.01 380.303 1090.45 380.972 1090.74 381.756C1091.05 382.54 1091.2 383.391 1091.2 384.309C1091.2 384.997 1091.08 385.657 1090.83 386.288C1090.58 386.9 1090.23 387.493 1089.79 388.066C1089.37 388.64 1088.88 389.204 1088.3 389.759C1087.73 390.294 1087.12 390.83 1086.47 391.365L1082.34 394.807H1091.49V398.364H1076.28V395.237Z" fill="black"/>
<rect x="1032.36" y="333.16" width="104.135" height="109.408" stroke="#DADADA" stroke-width="2"/>
<rect x="1136.49" y="333.16" width="104.135" height="109.408" fill="#F7F7F7"/>
<path d="M1182.35 394.807H1186.94V382.645L1182.35 385.915V381.727L1187.2 378.285H1191.24V394.807H1194.97V398.364H1182.35V394.807Z" fill="black"/>
<rect x="1136.49" y="333.16" width="104.135" height="109.408" stroke="#DADADA" stroke-width="2"/>
<path d="M175.816 680.687V149.941H642.079L776.13 218.427L910.182 149.941H1376.44V680.687" stroke="black" stroke-width="3"/>
<path d="M1376.44 813.779L1385.1 798.779L1367.78 798.779L1376.44 813.779ZM1374.94 743.142L1374.94 800.279L1377.94 800.279L1377.94 743.142L1374.94 743.142Z" fill="black"/>
<rect x="1271.08" y="683.779" width="210.727" height="59.3633" fill="#F3F3F3"/>
<path d="M1298.02 720.404H1300.25C1300.54 719.734 1300.78 718.931 1300.97 717.994C1301.16 717.038 1301.32 716.034 1301.43 714.982C1301.55 713.912 1301.63 712.822 1301.69 711.713C1301.75 710.584 1301.77 709.504 1301.77 708.471V703.882H1315.92V720.404H1318.1V727.689H1314.25V723.96H1301.86V727.689H1298.02V720.404ZM1311.61 720.404V707.439H1305.85V709.045C1305.85 711.665 1305.72 713.873 1305.47 715.671C1305.23 717.468 1304.87 719.046 1304.41 720.404H1311.61ZM1327.42 724.305C1326.39 724.305 1325.4 724.152 1324.47 723.846C1323.55 723.521 1322.75 723.033 1322.06 722.383C1321.37 721.733 1320.82 720.92 1320.42 719.945C1320.02 718.969 1319.82 717.822 1319.82 716.503V715.929C1319.82 714.686 1320.02 713.596 1320.42 712.659C1320.82 711.722 1321.37 710.938 1322.06 710.307C1322.75 709.676 1323.55 709.207 1324.47 708.902C1325.4 708.576 1326.39 708.414 1327.42 708.414C1328.45 708.414 1329.43 708.576 1330.35 708.902C1331.26 709.207 1332.07 709.676 1332.76 710.307C1333.46 710.938 1334.02 711.722 1334.42 712.659C1334.82 713.596 1335.02 714.686 1335.02 715.929V716.503C1335.02 717.803 1334.82 718.941 1334.42 719.916C1334.02 720.891 1333.46 721.704 1332.76 722.354C1332.07 723.004 1331.26 723.492 1330.35 723.817C1329.43 724.142 1328.45 724.305 1327.42 724.305ZM1327.42 721.092C1328.49 721.092 1329.38 720.71 1330.09 719.945C1330.82 719.18 1331.18 718.032 1331.18 716.503V715.929C1331.18 714.533 1330.82 713.472 1330.09 712.745C1329.38 711.999 1328.49 711.626 1327.42 711.626C1326.33 711.626 1325.43 711.999 1324.72 712.745C1324.02 713.472 1323.66 714.533 1323.66 715.929V716.503C1323.66 718.052 1324.02 719.209 1324.72 719.973C1325.43 720.719 1326.33 721.092 1327.42 721.092ZM1344.62 724.305C1343.55 724.305 1342.55 724.123 1341.64 723.76C1340.74 723.396 1339.95 722.851 1339.29 722.125C1338.62 721.379 1338.09 720.471 1337.71 719.4C1337.34 718.31 1337.16 717.048 1337.16 715.613V714.954C1337.16 713.233 1337.29 711.703 1337.54 710.364C1337.8 709.026 1338.23 707.888 1338.83 706.951C1339.44 706.014 1340.24 705.287 1341.24 704.771C1342.25 704.236 1343.51 703.93 1345.02 703.853C1345.61 703.834 1346.2 703.815 1346.77 703.796C1347.35 703.777 1347.89 703.748 1348.41 703.71C1348.92 703.672 1349.39 703.614 1349.81 703.538C1350.23 703.442 1350.61 703.318 1350.93 703.165V706.521C1350.62 706.693 1350.05 706.836 1349.21 706.951C1348.39 707.066 1347.13 707.133 1345.45 707.152C1344.59 707.171 1343.85 707.276 1343.21 707.467C1342.6 707.639 1342.09 707.926 1341.67 708.328C1341.26 708.71 1340.94 709.217 1340.69 709.848C1340.46 710.479 1340.3 711.254 1340.2 712.171C1340.64 711.311 1341.3 710.613 1342.18 710.078C1343.06 709.542 1344.21 709.274 1345.62 709.274C1346.58 709.274 1347.45 709.427 1348.23 709.733C1349.02 710.02 1349.7 710.45 1350.27 711.024C1350.84 711.598 1351.28 712.305 1351.59 713.147C1351.92 713.988 1352.08 714.963 1352.08 716.072V716.617C1352.08 717.822 1351.89 718.903 1351.5 719.859C1351.14 720.815 1350.62 721.628 1349.96 722.297C1349.29 722.947 1348.49 723.444 1347.57 723.788C1346.68 724.133 1345.69 724.305 1344.62 724.305ZM1344.62 721.092C1345.77 721.092 1346.66 720.719 1347.29 719.973C1347.92 719.209 1348.23 718.128 1348.23 716.732V716.158C1348.23 714.954 1347.91 714.007 1347.26 713.319C1346.61 712.63 1345.73 712.286 1344.62 712.286C1343.53 712.286 1342.65 712.63 1341.98 713.319C1341.33 714.007 1341.01 714.954 1341.01 716.158V716.675C1341.01 717.363 1341.09 717.985 1341.26 718.539C1341.46 719.094 1341.71 719.562 1342.04 719.945C1342.36 720.308 1342.75 720.595 1343.19 720.805C1343.63 720.996 1344.1 721.092 1344.62 721.092ZM1359.36 724.305C1358.53 724.305 1357.81 724.19 1357.18 723.96C1356.54 723.712 1356.01 723.377 1355.57 722.957C1355.13 722.517 1354.8 722.01 1354.57 721.436C1354.34 720.843 1354.22 720.203 1354.22 719.514C1354.22 716.455 1356.04 714.925 1359.67 714.925H1364.2V714.208C1364.2 713.214 1363.97 712.516 1363.51 712.114C1363.08 711.713 1362.37 711.512 1361.39 711.512C1360.53 711.512 1359.91 711.665 1359.53 711.971C1359.15 712.258 1358.93 712.621 1358.87 713.061H1355.08C1355.12 712.41 1355.28 711.799 1355.57 711.225C1355.88 710.651 1356.3 710.164 1356.83 709.762C1357.39 709.341 1358.06 709.016 1358.84 708.787C1359.62 708.538 1360.52 708.414 1361.54 708.414C1362.51 708.414 1363.39 708.519 1364.17 708.729C1364.98 708.94 1365.66 709.284 1366.21 709.762C1366.78 710.221 1367.22 710.823 1367.53 711.569C1367.84 712.315 1367.99 713.214 1367.99 714.265V720.088C1367.99 720.891 1368 721.599 1368.02 722.211C1368.06 722.804 1368.11 723.387 1368.19 723.96H1364.66C1364.59 723.54 1364.54 723.224 1364.52 723.014C1364.52 722.784 1364.52 722.45 1364.52 722.01C1364.1 722.622 1363.46 723.157 1362.6 723.616C1361.76 724.075 1360.68 724.305 1359.36 724.305ZM1360.53 721.379C1360.99 721.379 1361.44 721.322 1361.88 721.207C1362.32 721.073 1362.71 720.882 1363.06 720.633C1363.4 720.365 1363.68 720.031 1363.89 719.629C1364.1 719.228 1364.2 718.759 1364.2 718.224V717.507H1360.39C1359.66 717.507 1359.09 717.679 1358.67 718.023C1358.27 718.348 1358.06 718.797 1358.06 719.371C1358.06 719.983 1358.28 720.471 1358.7 720.834C1359.12 721.197 1359.73 721.379 1360.53 721.379ZM1371.29 708.758H1378.92C1379.9 708.758 1380.73 708.863 1381.42 709.074C1382.13 709.265 1382.71 709.542 1383.17 709.905C1383.63 710.269 1383.96 710.699 1384.17 711.196C1384.38 711.693 1384.49 712.238 1384.49 712.831C1384.49 713.539 1384.27 714.208 1383.83 714.839C1383.41 715.451 1382.82 715.862 1382.08 716.072C1383.02 716.302 1383.74 716.742 1384.26 717.392C1384.79 718.023 1385.06 718.769 1385.06 719.629C1385.06 720.949 1384.6 722 1383.69 722.784C1382.77 723.568 1381.37 723.96 1379.5 723.96H1371.29V708.758ZM1378.75 720.92C1379.61 720.92 1380.24 720.796 1380.64 720.547C1381.07 720.279 1381.28 719.859 1381.28 719.285C1381.28 718.711 1381.07 718.3 1380.67 718.052C1380.29 717.784 1379.65 717.65 1378.75 717.65H1375.08V720.92H1378.75ZM1378.38 714.839C1379.26 714.839 1379.86 714.715 1380.19 714.466C1380.53 714.218 1380.7 713.835 1380.7 713.319C1380.7 712.822 1380.53 712.449 1380.19 712.2C1379.84 711.932 1379.24 711.799 1378.38 711.799H1375.08V714.839H1378.38ZM1387.79 708.758H1391.58V718.511L1398.35 708.758H1401.85V723.96H1398.06V714.208L1391.29 723.96H1387.79V708.758ZM1409 711.913H1404.15V708.758H1417.63V711.913H1412.79V723.96H1409V711.913ZM1419.92 708.758H1423.71V713.864H1426.95C1430.87 713.864 1432.83 715.547 1432.83 718.912C1432.83 719.658 1432.71 720.346 1432.49 720.977C1432.27 721.589 1431.93 722.115 1431.45 722.555C1430.97 722.995 1430.36 723.339 1429.62 723.588C1428.87 723.836 1427.98 723.96 1426.95 723.96H1419.92V708.758ZM1426.52 720.92C1427.44 720.92 1428.09 720.757 1428.47 720.432C1428.85 720.088 1429.04 719.581 1429.04 718.912C1429.04 718.243 1428.84 717.746 1428.44 717.421C1428.06 717.076 1427.42 716.904 1426.52 716.904H1423.71V720.92H1426.52ZM1442.01 720.404H1446.6V708.242L1442.01 711.512V707.324L1446.86 703.882H1450.9V720.404H1454.63V723.96H1442.01V720.404Z" fill="black"/>
<rect x="1271.08" y="683.779" width="210.727" height="59.3633" stroke="#DADADA" stroke-width="2"/>
<rect x="1311.08" y="813.779" width="130.727" height="59.3633" fill="#F3F3F3"/>
<path d="M1339.16 838.758H1342.66V840.995C1343.03 840.307 1343.61 839.705 1344.41 839.188C1345.24 838.672 1346.34 838.414 1347.71 838.414C1349.57 838.414 1350.94 838.911 1351.84 839.905C1352.76 840.9 1353.22 842.334 1353.22 844.208V853.96H1349.43V845.069C1349.43 843.921 1349.19 843.061 1348.72 842.487C1348.26 841.913 1347.46 841.626 1346.34 841.626C1345.72 841.626 1345.21 841.722 1344.79 841.913C1344.37 842.105 1344.01 842.363 1343.73 842.688C1343.46 842.994 1343.26 843.357 1343.12 843.778C1343.01 844.179 1342.95 844.61 1342.95 845.069V853.96H1339.16V838.758ZM1362.84 844.151H1372.02V847.707H1362.84V844.151ZM1388.51 854.305C1386.06 854.305 1384.21 853.731 1382.95 852.584C1381.68 851.417 1381.05 849.82 1381.05 847.793H1385.36C1385.36 848.769 1385.6 849.495 1386.1 849.973C1386.62 850.451 1387.42 850.691 1388.51 850.691C1389.56 850.691 1390.35 850.461 1390.86 850.002C1391.4 849.524 1391.67 848.855 1391.67 847.994C1391.67 846.197 1390.61 845.298 1388.51 845.298H1386.65V841.971H1388.51C1389.43 841.971 1390.14 841.779 1390.63 841.397C1391.13 841.015 1391.38 840.422 1391.38 839.619C1391.38 838.892 1391.14 838.299 1390.66 837.84C1390.18 837.381 1389.47 837.152 1388.51 837.152C1387.54 837.152 1386.81 837.381 1386.33 837.84C1385.87 838.28 1385.64 838.921 1385.64 839.762H1381.34C1381.34 837.792 1381.93 836.263 1383.12 835.173C1384.32 834.083 1386.12 833.538 1388.51 833.538C1389.72 833.538 1390.77 833.681 1391.67 833.968C1392.56 834.236 1393.31 834.618 1393.9 835.115C1394.5 835.593 1394.94 836.167 1395.22 836.836C1395.53 837.506 1395.68 838.232 1395.68 839.016C1395.68 840.125 1395.37 841.072 1394.73 841.856C1394.12 842.621 1393.3 843.166 1392.27 843.491C1393.45 843.816 1394.36 844.38 1394.99 845.183C1395.64 845.986 1395.97 847.048 1395.97 848.367C1395.97 849.228 1395.8 850.021 1395.45 850.748C1395.11 851.475 1394.61 852.106 1393.96 852.641C1393.33 853.157 1392.55 853.568 1391.61 853.874C1390.69 854.161 1389.66 854.305 1388.51 854.305ZM1398.28 850.834L1405.3 844.782C1405.95 844.208 1406.51 843.711 1406.97 843.29C1407.43 842.85 1407.8 842.449 1408.09 842.085C1408.37 841.722 1408.57 841.368 1408.69 841.024C1408.82 840.68 1408.89 840.307 1408.89 839.905C1408.89 839.083 1408.66 838.423 1408.2 837.926C1407.74 837.41 1407.06 837.152 1406.16 837.152C1405.13 837.152 1404.32 837.439 1403.73 838.012C1403.15 838.567 1402.87 839.533 1402.87 840.909H1398.56C1398.56 838.634 1399.2 836.836 1400.48 835.517C1401.79 834.197 1403.68 833.538 1406.16 833.538C1407.33 833.538 1408.34 833.7 1409.2 834.025C1410.08 834.331 1410.82 834.771 1411.41 835.345C1412.01 835.899 1412.45 836.569 1412.73 837.353C1413.04 838.137 1413.19 838.988 1413.19 839.905C1413.19 840.594 1413.07 841.254 1412.82 841.885C1412.57 842.497 1412.23 843.089 1411.79 843.663C1411.37 844.237 1410.87 844.801 1410.29 845.355C1409.72 845.891 1409.11 846.426 1408.46 846.962L1404.33 850.404H1413.48V853.96H1398.28V850.834Z" fill="black"/>
<rect x="1311.08" y="813.779" width="130.727" height="59.3633" stroke="#DADADA" stroke-width="2"/>
<path d="M231.081 372.632H243.05V387.864H241.004V374.416H233.127V387.864H231.081V372.632ZM251.754 388.082C251.014 388.082 250.31 387.966 249.643 387.734C248.976 387.487 248.388 387.124 247.88 386.646C247.373 386.152 246.966 385.536 246.662 384.796C246.357 384.056 246.205 383.193 246.205 382.207V381.771C246.205 380.843 246.357 380.023 246.662 379.312C246.966 378.602 247.373 378.014 247.88 377.55C248.388 377.071 248.976 376.716 249.643 376.484C250.31 376.237 251.014 376.114 251.754 376.114C252.494 376.114 253.197 376.237 253.864 376.484C254.532 376.716 255.119 377.071 255.627 377.55C256.135 378.014 256.541 378.602 256.846 379.312C257.15 380.023 257.303 380.843 257.303 381.771V382.207C257.303 383.193 257.15 384.056 256.846 384.796C256.541 385.536 256.135 386.152 255.627 386.646C255.119 387.124 254.532 387.487 253.864 387.734C253.197 387.966 252.494 388.082 251.754 388.082ZM251.754 386.341C252.189 386.341 252.624 386.268 253.059 386.123C253.495 385.964 253.879 385.724 254.213 385.405C254.546 385.072 254.815 384.644 255.018 384.121C255.235 383.599 255.344 382.961 255.344 382.207V381.771C255.344 381.075 255.235 380.48 255.018 379.987C254.815 379.494 254.546 379.088 254.213 378.768C253.879 378.449 253.495 378.217 253.059 378.072C252.624 377.927 252.189 377.854 251.754 377.854C251.318 377.854 250.883 377.927 250.448 378.072C250.013 378.217 249.628 378.449 249.295 378.768C248.961 379.088 248.685 379.494 248.468 379.987C248.265 380.48 248.163 381.075 248.163 381.771V382.207C248.163 382.961 248.265 383.599 248.468 384.121C248.685 384.644 248.961 385.072 249.295 385.405C249.628 385.724 250.013 385.964 250.448 386.123C250.883 386.268 251.318 386.341 251.754 386.341ZM263.931 388.082C262.48 388.082 261.341 387.777 260.515 387.168C259.688 386.559 259.231 385.703 259.144 384.6H261.059C261.16 385.166 261.458 385.601 261.951 385.906C262.459 386.196 263.119 386.341 263.931 386.341C264.932 386.341 265.657 386.174 266.107 385.841C266.571 385.492 266.803 385.079 266.803 384.6C266.803 384.034 266.615 383.592 266.238 383.273C265.86 382.939 265.208 382.772 264.279 382.772H262.299V381.206H264.149C264.946 381.206 265.512 381.053 265.846 380.749C266.194 380.444 266.368 380.016 266.368 379.465C266.368 379.03 266.165 378.652 265.759 378.333C265.353 378.014 264.743 377.854 263.931 377.854C263.046 377.854 262.4 378 261.994 378.29C261.603 378.565 261.363 378.964 261.276 379.487H259.361C259.405 379.008 259.535 378.565 259.753 378.159C259.985 377.738 260.297 377.376 260.689 377.071C261.08 376.766 261.545 376.534 262.081 376.375C262.633 376.201 263.249 376.114 263.931 376.114C264.671 376.114 265.309 376.201 265.846 376.375C266.397 376.534 266.854 376.766 267.217 377.071C267.579 377.361 267.848 377.709 268.022 378.116C268.196 378.522 268.283 378.972 268.283 379.465C268.283 380.016 268.145 380.502 267.87 380.923C267.594 381.329 267.152 381.648 266.542 381.88C267.355 382.098 267.92 382.446 268.24 382.925C268.559 383.403 268.718 383.962 268.718 384.6C268.718 385.079 268.617 385.529 268.414 385.949C268.211 386.37 267.906 386.74 267.5 387.059C267.108 387.364 266.607 387.61 265.998 387.799C265.403 387.988 264.714 388.082 263.931 388.082ZM271.447 376.331H273.362V385.035L279.324 376.331H281.239V387.864H279.324V379.16L273.362 387.864H271.447V376.331ZM294.107 387.864H284.728V376.331H286.643V386.167H292.17V376.331H294.085V386.167H295.935V390.584H294.107V387.864ZM298.222 376.331H300.137V385.035L306.099 376.331H308.014V387.864H306.099V379.16L300.137 387.864H298.222V376.331ZM316.291 388.082C315.551 388.082 314.848 387.966 314.18 387.734C313.513 387.487 312.925 387.124 312.418 386.646C311.91 386.152 311.504 385.536 311.199 384.796C310.894 384.056 310.742 383.193 310.742 382.207V381.771C310.742 380.843 310.894 380.023 311.199 379.312C311.504 378.602 311.91 378.014 312.418 377.55C312.925 377.071 313.513 376.716 314.18 376.484C314.848 376.237 315.551 376.114 316.291 376.114C317.031 376.114 317.734 376.237 318.402 376.484C319.069 376.716 319.657 377.071 320.164 377.55C320.672 378.014 321.078 378.602 321.383 379.312C321.688 380.023 321.84 380.843 321.84 381.771V382.207C321.84 383.193 321.688 384.056 321.383 384.796C321.078 385.536 320.672 386.152 320.164 386.646C319.657 387.124 319.069 387.487 318.402 387.734C317.734 387.966 317.031 388.082 316.291 388.082ZM316.291 386.341C316.726 386.341 317.161 386.268 317.597 386.123C318.032 385.964 318.416 385.724 318.75 385.405C319.084 385.072 319.352 384.644 319.555 384.121C319.773 383.599 319.881 382.961 319.881 382.207V381.771C319.881 381.075 319.773 380.48 319.555 379.987C319.352 379.494 319.084 379.088 318.75 378.768C318.416 378.449 318.032 378.217 317.597 378.072C317.161 377.927 316.726 377.854 316.291 377.854C315.856 377.854 315.421 377.927 314.985 378.072C314.55 378.217 314.166 378.449 313.832 378.768C313.498 379.088 313.223 379.494 313.005 379.987C312.802 380.48 312.701 381.075 312.701 381.771V382.207C312.701 382.961 312.802 383.599 313.005 384.121C313.223 384.644 313.498 385.072 313.832 385.405C314.166 385.724 314.55 385.964 314.985 386.123C315.421 386.268 315.856 386.341 316.291 386.341ZM324.551 376.331H326.466V381.14H332.429V376.331H334.344V387.864H332.429V382.838H326.466V387.864H324.551V376.331ZM337.833 376.331H339.748V381.14H345.71V376.331H347.625V387.864H345.71V382.838H339.748V387.864H337.833V376.331ZM355.902 388.082C355.162 388.082 354.458 387.966 353.791 387.734C353.124 387.487 352.536 387.124 352.028 386.646C351.521 386.152 351.114 385.536 350.81 384.796C350.505 384.056 350.353 383.193 350.353 382.207V381.771C350.353 380.843 350.505 380.023 350.81 379.312C351.114 378.602 351.521 378.014 352.028 377.55C352.536 377.071 353.124 376.716 353.791 376.484C354.458 376.237 355.162 376.114 355.902 376.114C356.641 376.114 357.345 376.237 358.012 376.484C358.68 376.716 359.267 377.071 359.775 377.55C360.283 378.014 360.689 378.602 360.994 379.312C361.298 380.023 361.45 380.843 361.45 381.771V382.207C361.45 383.193 361.298 384.056 360.994 384.796C360.689 385.536 360.283 386.152 359.775 386.646C359.267 387.124 358.68 387.487 358.012 387.734C357.345 387.966 356.641 388.082 355.902 388.082ZM355.902 386.341C356.337 386.341 356.772 386.268 357.207 386.123C357.642 385.964 358.027 385.724 358.361 385.405C358.694 385.072 358.963 384.644 359.166 384.121C359.383 383.599 359.492 382.961 359.492 382.207V381.771C359.492 381.075 359.383 380.48 359.166 379.987C358.963 379.494 358.694 379.088 358.361 378.768C358.027 378.449 357.642 378.217 357.207 378.072C356.772 377.927 356.337 377.854 355.902 377.854C355.466 377.854 355.031 377.927 354.596 378.072C354.161 378.217 353.776 378.449 353.443 378.768C353.109 379.088 352.833 379.494 352.616 379.987C352.413 380.48 352.311 381.075 352.311 381.771V382.207C352.311 382.961 352.413 383.599 352.616 384.121C352.833 384.644 353.109 385.072 353.443 385.405C353.776 385.724 354.161 385.964 354.596 386.123C355.031 386.268 355.466 386.341 355.902 386.341ZM368.949 388.082C368.209 388.082 367.506 387.966 366.839 387.734C366.171 387.502 365.584 387.146 365.076 386.667C364.568 386.174 364.162 385.558 363.857 384.818C363.553 384.078 363.4 383.208 363.4 382.207V381.771C363.4 380.814 363.545 379.987 363.836 379.291C364.126 378.58 364.51 377.992 364.989 377.528C365.482 377.049 366.048 376.694 366.686 376.462C367.339 376.23 368.021 376.114 368.732 376.114C370.429 376.114 371.742 376.578 372.67 377.506C373.599 378.435 374.063 379.748 374.063 381.445V382.664H365.315C365.315 383.345 365.424 383.918 365.642 384.383C365.859 384.847 366.142 385.224 366.49 385.514C366.839 385.804 367.223 386.015 367.644 386.145C368.079 386.276 368.514 386.341 368.949 386.341C369.82 386.341 370.487 386.196 370.951 385.906C371.43 385.616 371.771 385.217 371.974 384.709H373.845C373.729 385.26 373.519 385.746 373.214 386.167C372.924 386.588 372.562 386.943 372.126 387.233C371.706 387.509 371.22 387.719 370.668 387.864C370.132 388.009 369.559 388.082 368.949 388.082ZM368.841 377.854C368.391 377.854 367.956 377.92 367.535 378.05C367.114 378.166 366.737 378.362 366.403 378.638C366.084 378.899 365.823 379.233 365.62 379.639C365.417 380.045 365.315 380.531 365.315 381.097H372.257C372.242 380.502 372.141 380.002 371.952 379.595C371.778 379.175 371.539 378.841 371.234 378.594C370.93 378.333 370.567 378.145 370.146 378.029C369.74 377.913 369.305 377.854 368.841 377.854ZM257.184 412.082C255.733 412.082 254.595 411.777 253.768 411.168C252.941 410.559 252.484 409.703 252.397 408.6H254.312C254.413 409.166 254.711 409.601 255.204 409.906C255.712 410.196 256.372 410.341 257.184 410.341C258.185 410.341 258.91 410.174 259.36 409.841C259.824 409.492 260.056 409.079 260.056 408.6C260.056 408.034 259.868 407.592 259.491 407.273C259.113 406.939 258.461 406.772 257.532 406.772H255.552V405.206H257.402C258.199 405.206 258.765 405.053 259.099 404.749C259.447 404.444 259.621 404.016 259.621 403.465C259.621 403.03 259.418 402.652 259.012 402.333C258.606 402.014 257.996 401.854 257.184 401.854C256.299 401.854 255.654 402 255.247 402.29C254.856 402.565 254.616 402.964 254.529 403.487H252.614C252.658 403.008 252.788 402.565 253.006 402.159C253.238 401.738 253.55 401.376 253.942 401.071C254.333 400.766 254.798 400.534 255.334 400.375C255.886 400.201 256.502 400.114 257.184 400.114C257.924 400.114 258.562 400.201 259.099 400.375C259.65 400.534 260.107 400.766 260.47 401.071C260.832 401.361 261.101 401.709 261.275 402.116C261.449 402.522 261.536 402.972 261.536 403.465C261.536 404.016 261.398 404.502 261.123 404.923C260.847 405.329 260.405 405.648 259.795 405.88C260.608 406.098 261.173 406.446 261.493 406.925C261.812 407.403 261.971 407.962 261.971 408.6C261.971 409.079 261.87 409.529 261.667 409.949C261.464 410.37 261.159 410.74 260.753 411.059C260.361 411.364 259.861 411.61 259.251 411.799C258.656 411.988 257.967 412.082 257.184 412.082ZM264.7 400.331H266.615V405.14H272.577V400.331H274.492V411.864H272.577V406.838H266.615V411.864H264.7V400.331ZM281.267 412.082C280.629 412.082 280.063 411.995 279.57 411.821C279.091 411.632 278.685 411.378 278.351 411.059C278.018 410.74 277.764 410.363 277.59 409.928C277.416 409.492 277.328 409.014 277.328 408.491C277.328 407.345 277.662 406.518 278.329 406.011C279.011 405.503 279.983 405.249 281.245 405.249H284.988V404.466C284.988 403.479 284.763 402.797 284.314 402.42C283.878 402.043 283.218 401.854 282.333 401.854C281.506 401.854 280.904 402.014 280.527 402.333C280.15 402.638 279.94 402.986 279.896 403.378H277.981C278.01 402.914 278.134 402.486 278.351 402.094C278.583 401.688 278.888 401.34 279.265 401.049C279.657 400.759 280.121 400.534 280.658 400.375C281.195 400.201 281.789 400.114 282.442 400.114C283.806 400.114 284.887 400.44 285.684 401.093C286.497 401.731 286.903 402.783 286.903 404.248V408.927C286.903 409.536 286.903 410.073 286.903 410.537C286.918 410.987 286.954 411.429 287.012 411.864H285.336C285.293 411.531 285.264 411.219 285.249 410.929C285.235 410.624 285.227 410.283 285.227 409.906C284.923 410.515 284.43 411.03 283.748 411.451C283.066 411.872 282.239 412.082 281.267 412.082ZM281.681 410.341C282.13 410.341 282.551 410.283 282.943 410.167C283.349 410.036 283.704 409.855 284.009 409.623C284.314 409.376 284.553 409.079 284.727 408.731C284.901 408.383 284.988 407.976 284.988 407.512V406.729H281.572C280.861 406.729 280.302 406.874 279.896 407.164C279.49 407.44 279.287 407.882 279.287 408.491C279.287 409.028 279.475 409.471 279.853 409.819C280.244 410.167 280.854 410.341 281.681 410.341ZM296.966 407.273C296.632 407.476 296.226 407.657 295.747 407.817C295.283 407.976 294.695 408.056 293.984 408.056C293.317 408.056 292.715 407.984 292.178 407.839C291.656 407.694 291.214 407.461 290.851 407.142C290.488 406.823 290.213 406.41 290.024 405.902C289.836 405.394 289.741 404.77 289.741 404.031V400.331H291.656V403.704C291.656 404.197 291.7 404.611 291.787 404.944C291.888 405.278 292.048 405.547 292.265 405.75C292.483 405.953 292.759 406.098 293.092 406.185C293.426 406.272 293.832 406.315 294.311 406.315C294.964 406.315 295.522 406.25 295.986 406.12C296.451 405.989 296.777 405.851 296.966 405.706V400.331H298.881V411.864H296.966V407.273ZM307.143 412.082C306.403 412.082 305.699 411.966 305.032 411.734C304.365 411.502 303.777 411.146 303.269 410.667C302.762 410.174 302.355 409.558 302.051 408.818C301.746 408.078 301.594 407.208 301.594 406.207V405.771C301.594 404.814 301.739 403.987 302.029 403.291C302.319 402.58 302.704 401.992 303.182 401.528C303.676 401.049 304.241 400.694 304.88 400.462C305.532 400.23 306.214 400.114 306.925 400.114C308.622 400.114 309.935 400.578 310.864 401.506C311.792 402.435 312.256 403.748 312.256 405.445V406.664H303.509C303.509 407.345 303.618 407.918 303.835 408.383C304.053 408.847 304.336 409.224 304.684 409.514C305.032 409.804 305.416 410.015 305.837 410.145C306.272 410.276 306.707 410.341 307.143 410.341C308.013 410.341 308.68 410.196 309.145 409.906C309.623 409.616 309.964 409.217 310.167 408.709H312.039C311.923 409.26 311.712 409.746 311.408 410.167C311.118 410.588 310.755 410.943 310.32 411.233C309.899 411.509 309.413 411.719 308.862 411.864C308.325 412.009 307.752 412.082 307.143 412.082ZM307.034 401.854C306.584 401.854 306.149 401.92 305.728 402.05C305.308 402.166 304.93 402.362 304.597 402.638C304.278 402.899 304.016 403.233 303.813 403.639C303.61 404.045 303.509 404.531 303.509 405.097H310.45C310.436 404.502 310.334 404.002 310.146 403.595C309.972 403.175 309.732 402.841 309.428 402.594C309.123 402.333 308.76 402.145 308.34 402.029C307.933 401.913 307.498 401.854 307.034 401.854ZM314.978 400.331H316.893V405.14H322.855V400.331H324.77V411.864H322.855V406.838H316.893V411.864H314.978V400.331ZM328.26 400.331H330.174V409.035L336.137 400.331H338.052V411.864H336.137V403.16L330.174 411.864H328.26V400.331ZM346.328 412.082C345.588 412.082 344.885 411.966 344.218 411.734C343.55 411.502 342.963 411.146 342.455 410.667C341.947 410.174 341.541 409.558 341.236 408.818C340.932 408.078 340.779 407.208 340.779 406.207V405.771C340.779 404.814 340.925 403.987 341.215 403.291C341.505 402.58 341.889 401.992 342.368 401.528C342.861 401.049 343.427 400.694 344.065 400.462C344.718 400.23 345.4 400.114 346.111 400.114C347.808 400.114 349.121 400.578 350.049 401.506C350.978 402.435 351.442 403.748 351.442 405.445V406.664H342.694C342.694 407.345 342.803 407.918 343.021 408.383C343.238 408.847 343.521 409.224 343.869 409.514C344.218 409.804 344.602 410.015 345.023 410.145C345.458 410.276 345.893 410.341 346.328 410.341C347.199 410.341 347.866 410.196 348.33 409.906C348.809 409.616 349.15 409.217 349.353 408.709H351.224C351.108 409.26 350.898 409.746 350.593 410.167C350.303 410.588 349.941 410.943 349.505 411.233C349.085 411.509 348.599 411.719 348.047 411.864C347.511 412.009 346.938 412.082 346.328 412.082ZM346.22 401.854C345.77 401.854 345.335 401.92 344.914 402.05C344.493 402.166 344.116 402.362 343.782 402.638C343.463 402.899 343.202 403.233 342.999 403.639C342.796 404.045 342.694 404.531 342.694 405.097H349.636C349.621 404.502 349.52 404.002 349.331 403.595C349.157 403.175 348.918 402.841 348.613 402.594C348.309 402.333 347.946 402.145 347.525 402.029C347.119 401.913 346.684 401.854 346.22 401.854Z" fill="black"/>
<path d="M566.189 107.172H570.492V115.146H579.097V107.172H583.399V127.251H579.097V118.703H570.492V127.251H566.189V107.172ZM594.293 127.595C593.26 127.595 592.275 127.442 591.338 127.136C590.42 126.811 589.617 126.333 588.929 125.702C588.24 125.052 587.695 124.239 587.294 123.264C586.892 122.27 586.691 121.113 586.691 119.793V119.22C586.691 117.957 586.883 116.858 587.265 115.921C587.647 114.984 588.173 114.209 588.843 113.598C589.512 112.967 590.286 112.498 591.166 112.192C592.046 111.867 592.992 111.704 594.006 111.704C596.396 111.704 598.213 112.335 599.456 113.598C600.699 114.86 601.32 116.686 601.32 119.076V120.682H590.564C590.583 121.352 590.697 121.935 590.908 122.432C591.118 122.91 591.395 123.302 591.74 123.608C592.084 123.914 592.476 124.144 592.916 124.297C593.375 124.43 593.834 124.497 594.293 124.497C595.268 124.497 596.004 124.354 596.501 124.067C596.998 123.78 597.352 123.36 597.562 122.805H601.033C600.727 124.392 599.972 125.587 598.767 126.39C597.562 127.194 596.071 127.595 594.293 127.595ZM594.149 114.802C593.709 114.802 593.269 114.86 592.83 114.974C592.409 115.089 592.036 115.271 591.711 115.519C591.386 115.768 591.118 116.103 590.908 116.523C590.697 116.944 590.583 117.451 590.564 118.044H597.649C597.629 117.412 597.524 116.887 597.333 116.466C597.161 116.045 596.912 115.711 596.587 115.462C596.281 115.213 595.918 115.041 595.497 114.946C595.077 114.85 594.627 114.802 594.149 114.802ZM607.467 115.204H602.62V112.049H616.101V115.204H611.254V127.251H607.467V115.204Z" fill="black"/>
<path d="M951.363 123.694H953.6C953.887 123.025 954.126 122.222 954.317 121.285C954.508 120.329 954.661 119.325 954.776 118.273C954.891 117.202 954.977 116.112 955.034 115.003C955.092 113.875 955.12 112.794 955.12 111.762V107.172H969.261V123.694H971.441V130.98H967.598V127.251H955.206V130.98H951.363V123.694ZM964.959 123.694V110.729H959.193V112.335C959.193 114.955 959.069 117.164 958.82 118.961C958.572 120.759 958.218 122.337 957.759 123.694H964.959ZM978.584 127.595C977.761 127.595 977.035 127.48 976.404 127.251C975.773 127.002 975.237 126.668 974.797 126.247C974.357 125.807 974.023 125.3 973.793 124.727C973.564 124.134 973.449 123.493 973.449 122.805C973.449 119.745 975.266 118.216 978.899 118.216H983.431V117.499C983.431 116.504 983.202 115.806 982.743 115.405C982.303 115.003 981.595 114.802 980.62 114.802C979.76 114.802 979.138 114.955 978.756 115.261C978.373 115.548 978.153 115.911 978.096 116.351H974.31C974.348 115.701 974.51 115.089 974.797 114.515C975.103 113.942 975.524 113.454 976.059 113.053C976.614 112.632 977.283 112.307 978.067 112.077C978.851 111.829 979.75 111.704 980.764 111.704C981.739 111.704 982.618 111.81 983.402 112.02C984.206 112.23 984.884 112.574 985.439 113.053C986.013 113.511 986.452 114.114 986.758 114.86C987.064 115.605 987.217 116.504 987.217 117.556V123.379C987.217 124.182 987.227 124.889 987.246 125.501C987.284 126.094 987.342 126.677 987.418 127.251H983.89C983.814 126.83 983.766 126.515 983.747 126.304C983.747 126.075 983.747 125.74 983.747 125.3C983.326 125.912 982.685 126.448 981.825 126.907C980.983 127.366 979.903 127.595 978.584 127.595ZM979.76 124.669C980.219 124.669 980.668 124.612 981.108 124.497C981.548 124.363 981.94 124.172 982.284 123.924C982.628 123.656 982.905 123.321 983.116 122.92C983.326 122.518 983.431 122.05 983.431 121.514V120.797H979.616C978.89 120.797 978.316 120.969 977.895 121.313C977.494 121.639 977.293 122.088 977.293 122.662C977.293 123.274 977.503 123.761 977.924 124.124C978.345 124.488 978.956 124.669 979.76 124.669Z" fill="black"/>
<path d="M725.241 112.049H728.74V114.286C729.103 113.598 729.687 112.995 730.49 112.479C731.312 111.963 732.411 111.704 733.788 111.704C735.643 111.704 737.02 112.202 737.919 113.196C738.837 114.19 739.296 115.625 739.296 117.499V127.251H735.509V118.359C735.509 117.212 735.27 116.351 734.792 115.778C734.333 115.204 733.54 114.917 732.411 114.917C731.8 114.917 731.283 115.013 730.863 115.204C730.442 115.395 730.088 115.653 729.801 115.978C729.534 116.284 729.333 116.648 729.199 117.068C729.084 117.47 729.027 117.9 729.027 118.359V127.251H725.241V112.049ZM763.26 115.347V118.502L749.205 124.669V120.568L758.24 116.982L749.205 113.397V109.18L763.26 115.347ZM765.564 118.589H779.619V122.145H765.564V118.589ZM765.564 111.704H779.619V115.261H765.564V111.704ZM796.407 127.595C793.96 127.595 792.105 127.022 790.843 125.874C789.581 124.708 788.95 123.111 788.95 121.084H793.252C793.252 122.059 793.501 122.786 793.998 123.264C794.514 123.742 795.317 123.981 796.407 123.981C797.459 123.981 798.243 123.752 798.76 123.293C799.295 122.815 799.563 122.145 799.563 121.285C799.563 119.487 798.511 118.589 796.407 118.589H794.543V115.261H796.407C797.325 115.261 798.033 115.07 798.53 114.688C799.027 114.305 799.276 113.712 799.276 112.909C799.276 112.182 799.037 111.59 798.559 111.131C798.081 110.672 797.364 110.442 796.407 110.442C795.432 110.442 794.706 110.672 794.228 111.131C793.769 111.571 793.539 112.211 793.539 113.053H789.237C789.237 111.083 789.829 109.553 791.015 108.463C792.22 107.373 794.017 106.828 796.407 106.828C797.612 106.828 798.664 106.972 799.563 107.258C800.461 107.526 801.207 107.909 801.8 108.406C802.393 108.884 802.833 109.458 803.119 110.127C803.425 110.796 803.578 111.523 803.578 112.307C803.578 113.416 803.263 114.362 802.632 115.146C802.02 115.911 801.198 116.456 800.165 116.781C801.351 117.107 802.259 117.671 802.89 118.474C803.54 119.277 803.865 120.338 803.865 121.658C803.865 122.518 803.693 123.312 803.349 124.038C803.005 124.765 802.508 125.396 801.857 125.932C801.226 126.448 800.442 126.859 799.505 127.165C798.587 127.452 797.555 127.595 796.407 127.595ZM806.173 124.124L813.201 118.072C813.851 117.499 814.406 117.001 814.865 116.581C815.323 116.141 815.696 115.739 815.983 115.376C816.27 115.013 816.471 114.659 816.586 114.315C816.719 113.97 816.786 113.598 816.786 113.196C816.786 112.374 816.557 111.714 816.098 111.217C815.639 110.7 814.96 110.442 814.061 110.442C813.029 110.442 812.216 110.729 811.623 111.303C811.05 111.857 810.763 112.823 810.763 114.2H806.46C806.46 111.924 807.101 110.127 808.382 108.807C809.682 107.488 811.575 106.828 814.061 106.828C815.228 106.828 816.241 106.991 817.102 107.316C817.981 107.622 818.718 108.062 819.31 108.635C819.903 109.19 820.343 109.859 820.63 110.643C820.936 111.427 821.089 112.278 821.089 113.196C821.089 113.884 820.965 114.544 820.716 115.175C820.467 115.787 820.123 116.38 819.683 116.954C819.263 117.527 818.766 118.091 818.192 118.646C817.618 119.181 817.006 119.717 816.356 120.252L812.226 123.694H821.376V127.251H806.173V124.124Z" fill="black"/>
<rect x="69.2305" y="683.779" width="214.727" height="59.3633" fill="#F3F3F3"/>
<path d="M96.1674 720.404H98.4048C98.6916 719.734 98.9306 718.931 99.1218 717.994C99.3131 717.038 99.466 716.034 99.5808 714.982C99.6955 713.912 99.7816 712.822 99.8389 711.713C99.8963 710.584 99.925 709.504 99.925 708.471V703.882H114.066V720.404H116.246V727.689H112.402V723.96H100.011V727.689H96.1674V720.404ZM109.763 720.404V707.439H103.998V709.045C103.998 711.665 103.874 713.873 103.625 715.671C103.377 717.468 103.023 719.046 102.564 720.404H109.763ZM125.572 724.305C124.539 724.305 123.554 724.152 122.617 723.846C121.699 723.521 120.896 723.033 120.208 722.383C119.519 721.733 118.974 720.92 118.573 719.945C118.171 718.969 117.97 717.822 117.97 716.503V715.929C117.97 714.686 118.171 713.596 118.573 712.659C118.974 711.722 119.519 710.938 120.208 710.307C120.896 709.676 121.699 709.207 122.617 708.902C123.554 708.576 124.539 708.414 125.572 708.414C126.604 708.414 127.579 708.576 128.497 708.902C129.415 709.207 130.218 709.676 130.907 710.307C131.614 710.938 132.169 711.722 132.57 712.659C132.972 713.596 133.173 714.686 133.173 715.929V716.503C133.173 717.803 132.972 718.941 132.57 719.916C132.169 720.891 131.614 721.704 130.907 722.354C130.218 723.004 129.415 723.492 128.497 723.817C127.579 724.142 126.604 724.305 125.572 724.305ZM125.572 721.092C126.642 721.092 127.532 720.71 128.239 719.945C128.966 719.18 129.329 718.032 129.329 716.503V715.929C129.329 714.533 128.966 713.472 128.239 712.745C127.532 711.999 126.642 711.626 125.572 711.626C124.482 711.626 123.583 711.999 122.875 712.745C122.168 713.472 121.814 714.533 121.814 715.929V716.503C121.814 718.052 122.168 719.209 122.875 719.973C123.583 720.719 124.482 721.092 125.572 721.092ZM142.771 724.305C141.7 724.305 140.705 724.123 139.787 723.76C138.889 723.396 138.105 722.851 137.435 722.125C136.766 721.379 136.24 720.471 135.858 719.4C135.494 718.31 135.313 717.048 135.313 715.613V714.954C135.313 713.233 135.437 711.703 135.686 710.364C135.953 709.026 136.384 707.888 136.976 706.951C137.588 706.014 138.392 705.287 139.386 704.771C140.399 704.236 141.661 703.93 143.172 703.853C143.765 703.834 144.348 703.815 144.922 703.796C145.496 703.777 146.041 703.748 146.557 703.71C147.073 703.672 147.542 703.614 147.962 703.538C148.383 703.442 148.756 703.318 149.081 703.165V706.521C148.775 706.693 148.201 706.836 147.36 706.951C146.538 707.066 145.285 707.133 143.602 707.152C142.742 707.171 141.996 707.276 141.365 707.467C140.753 707.639 140.237 707.926 139.816 708.328C139.415 708.71 139.089 709.217 138.841 709.848C138.611 710.479 138.449 711.254 138.353 712.171C138.793 711.311 139.453 710.613 140.332 710.078C141.212 709.542 142.359 709.274 143.775 709.274C144.731 709.274 145.601 709.427 146.385 709.733C147.169 710.02 147.848 710.45 148.421 711.024C148.995 711.598 149.435 712.305 149.741 713.147C150.066 713.988 150.228 714.963 150.228 716.072V716.617C150.228 717.822 150.037 718.903 149.655 719.859C149.291 720.815 148.775 721.628 148.106 722.297C147.436 722.947 146.643 723.444 145.725 723.788C144.826 724.133 143.841 724.305 142.771 724.305ZM142.771 721.092C143.918 721.092 144.807 720.719 145.438 719.973C146.069 719.209 146.385 718.128 146.385 716.732V716.158C146.385 714.954 146.06 714.007 145.409 713.319C144.759 712.63 143.88 712.286 142.771 712.286C141.681 712.286 140.801 712.63 140.132 713.319C139.482 714.007 139.156 714.954 139.156 716.158V716.675C139.156 717.363 139.242 717.985 139.415 718.539C139.606 719.094 139.864 719.562 140.189 719.945C140.514 720.308 140.897 720.595 141.336 720.805C141.776 720.996 142.254 721.092 142.771 721.092ZM157.506 724.305C156.684 724.305 155.957 724.19 155.326 723.96C154.695 723.712 154.16 723.377 153.72 722.957C153.28 722.517 152.945 722.01 152.716 721.436C152.487 720.843 152.372 720.203 152.372 719.514C152.372 716.455 154.188 714.925 157.822 714.925H162.354V714.208C162.354 713.214 162.124 712.516 161.665 712.114C161.225 711.713 160.518 711.512 159.543 711.512C158.682 711.512 158.061 711.665 157.678 711.971C157.296 712.258 157.076 712.621 157.019 713.061H153.232C153.271 712.41 153.433 711.799 153.72 711.225C154.026 710.651 154.447 710.164 154.982 709.762C155.537 709.341 156.206 709.016 156.99 708.787C157.774 708.538 158.673 708.414 159.686 708.414C160.661 708.414 161.541 708.519 162.325 708.729C163.128 708.94 163.807 709.284 164.362 709.762C164.935 710.221 165.375 710.823 165.681 711.569C165.987 712.315 166.14 713.214 166.14 714.265V720.088C166.14 720.891 166.149 721.599 166.169 722.211C166.207 722.804 166.264 723.387 166.341 723.96H162.813C162.736 723.54 162.688 723.224 162.669 723.014C162.669 722.784 162.669 722.45 162.669 722.01C162.249 722.622 161.608 723.157 160.747 723.616C159.906 724.075 158.826 724.305 157.506 724.305ZM158.682 721.379C159.141 721.379 159.59 721.322 160.03 721.207C160.47 721.073 160.862 720.882 161.206 720.633C161.551 720.365 161.828 720.031 162.038 719.629C162.249 719.228 162.354 718.759 162.354 718.224V717.507H158.539C157.812 717.507 157.238 717.679 156.818 718.023C156.416 718.348 156.215 718.797 156.215 719.371C156.215 719.983 156.426 720.471 156.846 720.834C157.267 721.197 157.879 721.379 158.682 721.379ZM169.444 708.758H177.074C178.049 708.758 178.881 708.863 179.57 709.074C180.277 709.265 180.86 709.542 181.319 709.905C181.778 710.269 182.113 710.699 182.323 711.196C182.533 711.693 182.639 712.238 182.639 712.831C182.639 713.539 182.419 714.208 181.979 714.839C181.558 715.451 180.975 715.862 180.229 716.072C181.166 716.302 181.893 716.742 182.409 717.392C182.945 718.023 183.212 718.769 183.212 719.629C183.212 720.949 182.753 722 181.836 722.784C180.918 723.568 179.522 723.96 177.648 723.96H169.444V708.758ZM176.902 720.92C177.762 720.92 178.393 720.796 178.795 720.547C179.216 720.279 179.426 719.859 179.426 719.285C179.426 718.711 179.225 718.3 178.824 718.052C178.441 717.784 177.801 717.65 176.902 717.65H173.23V720.92H176.902ZM176.529 714.839C177.409 714.839 178.011 714.715 178.336 714.466C178.68 714.218 178.852 713.835 178.852 713.319C178.852 712.822 178.68 712.449 178.336 712.2C177.992 711.932 177.39 711.799 176.529 711.799H173.23V714.839H176.529ZM185.943 708.758H189.729V718.511L196.498 708.758H199.998V723.96H196.212V714.208L189.442 723.96H185.943V708.758ZM207.15 711.913H202.303V708.758H215.784V711.913H210.936V723.96H207.15V711.913ZM218.072 708.758H221.858V713.864H225.099C229.02 713.864 230.98 715.547 230.98 718.912C230.98 719.658 230.865 720.346 230.635 720.977C230.425 721.589 230.081 722.115 229.603 722.555C229.125 722.995 228.513 723.339 227.767 723.588C227.021 723.836 226.132 723.96 225.099 723.96H218.072V708.758ZM224.669 720.92C225.587 720.92 226.237 720.757 226.62 720.432C227.002 720.088 227.193 719.581 227.193 718.912C227.193 718.243 226.993 717.746 226.591 717.421C226.209 717.076 225.568 716.904 224.669 716.904H221.858V720.92H224.669ZM248.051 724.305C246.961 724.305 245.938 724.133 244.982 723.788C244.045 723.425 243.232 722.842 242.544 722.039C241.855 721.216 241.31 720.146 240.909 718.826C240.507 717.487 240.306 715.853 240.306 713.921V713.347C240.306 711.55 240.507 710.03 240.909 708.787C241.31 707.544 241.855 706.54 242.544 705.775C243.232 704.991 244.045 704.427 244.982 704.083C245.938 703.719 246.961 703.538 248.051 703.538C249.141 703.538 250.154 703.719 251.091 704.083C252.048 704.427 252.87 704.991 253.558 705.775C254.247 706.54 254.792 707.544 255.193 708.787C255.595 710.03 255.796 711.55 255.796 713.347V713.921C255.796 715.853 255.595 717.487 255.193 718.826C254.792 720.146 254.247 721.216 253.558 722.039C252.87 722.842 252.048 723.425 251.091 723.788C250.154 724.133 249.141 724.305 248.051 724.305ZM248.051 720.691C248.529 720.691 248.978 720.595 249.399 720.404C249.82 720.212 250.183 719.868 250.489 719.371C250.814 718.855 251.063 718.157 251.235 717.277C251.407 716.398 251.493 715.279 251.493 713.921V713.347C251.493 712.124 251.407 711.12 251.235 710.336C251.063 709.533 250.814 708.902 250.489 708.443C250.183 707.965 249.82 707.63 249.399 707.439C248.978 707.247 248.529 707.152 248.051 707.152C247.554 707.152 247.095 707.247 246.674 707.439C246.273 707.63 245.909 707.965 245.584 708.443C245.278 708.902 245.039 709.533 244.867 710.336C244.695 711.12 244.609 712.124 244.609 713.347V713.921C244.609 715.279 244.695 716.398 244.867 717.277C245.039 718.157 245.278 718.855 245.584 719.371C245.909 719.868 246.273 720.212 246.674 720.404C247.095 720.595 247.554 720.691 248.051 720.691Z" fill="black"/>
<rect x="69.2305" y="683.779" width="214.727" height="59.3633" stroke="#DADADA" stroke-width="2"/>
<rect x="407.547" y="333.16" width="833.223" height="111.155" stroke="#EAC053" stroke-width="6"/>
<path d="M689.424 713H687.924V714.5L689.424 714.5L689.424 713ZM689.424 555L680.764 570H698.085L689.424 555ZM661.828 713V714.5H663.328V713H661.828ZM661.828 555L653.168 570H670.488L661.828 555ZM690.924 713V568.5H687.924V713H690.924ZM284 714.5H661.828V711.5H284V714.5ZM663.328 713V568.5H660.328V713H663.328ZM1271 711.5L689.424 711.5L689.424 714.5L1271 714.5L1271 711.5Z" fill="black"/>
</svg>
