<svg width="1551" height="974" viewBox="0 0 1551 974" fill="none" xmlns="http://www.w3.org/2000/svg">
<path d="M1098.74 713.46H1097.24V714.96L1098.74 714.96V713.46ZM1098.74 555.475L1090.08 570.475H1107.4L1098.74 555.475ZM1070.01 713.46V714.96H1071.51V713.46H1070.01ZM1070.01 555.475L1061.35 570.475H1078.68L1070.01 555.475ZM1100.24 713.46V568.975H1097.24V713.46H1100.24ZM257.219 714.96H1070.01V711.96H257.219V714.96ZM1071.51 713.46V568.975H1068.51V713.46H1071.51ZM1284.6 711.96L1098.74 711.96V714.96L1284.6 714.96L1284.6 711.96Z" fill="black"/>
<rect x="407.691" y="442.567" width="104.135" height="109.408" fill="#F7F7F7"/>
<rect x="407.691" y="442.567" width="104.135" height="109.408" stroke="#DADADA" stroke-width="2"/>
<rect x="511.826" y="442.567" width="104.135" height="109.408" fill="#F7F7F7"/>
<rect x="511.826" y="442.567" width="104.135" height="109.408" stroke="#DADADA" stroke-width="2"/>
<rect x="615.961" y="442.567" width="104.135" height="109.408" fill="#F7F7F7"/>
<rect x="615.961" y="442.567" width="104.135" height="109.408" stroke="#DADADA" stroke-width="2"/>
<rect x="720.096" y="442.567" width="104.135" height="109.408" fill="#F7F7F7"/>
<rect x="720.096" y="442.567" width="104.135" height="109.408" stroke="#DADADA" stroke-width="2"/>
<rect x="824.23" y="442.567" width="104.135" height="109.408" fill="#F7F7F7"/>
<rect x="824.23" y="442.567" width="104.135" height="109.408" stroke="#DADADA" stroke-width="2"/>
<rect x="928.365" y="442.567" width="104.135" height="109.408" fill="#F7F7F7"/>
<rect x="928.365" y="442.567" width="104.135" height="109.408" stroke="#DADADA" stroke-width="2"/>
<rect x="1032.5" y="442.567" width="104.135" height="109.408" fill="#EAC053"/>
<rect x="1032.5" y="442.567" width="104.135" height="109.408" stroke="#EAC053" stroke-width="1.31816"/>
<rect x="1136.63" y="442.567" width="104.135" height="109.408" fill="#F7F7F7"/>
<rect x="1136.63" y="442.567" width="104.135" height="109.408" stroke="#DADADA" stroke-width="2"/>
<rect x="407.547" y="333.16" width="104.135" height="109.408" fill="#F7F7F7"/>
<path d="M435.906 394.807H440.495V382.646L435.906 385.916V381.728L440.754 378.286H444.798V394.807H448.527V398.364H435.906V394.807ZM449.958 395.238L456.985 389.185C457.635 388.612 458.19 388.115 458.649 387.694C459.108 387.254 459.481 386.853 459.767 386.489C460.054 386.126 460.255 385.772 460.37 385.428C460.504 385.084 460.571 384.711 460.571 384.309C460.571 383.487 460.341 382.827 459.882 382.33C459.423 381.814 458.744 381.556 457.846 381.556C456.813 381.556 456 381.842 455.408 382.416C454.834 382.971 454.547 383.936 454.547 385.313H450.244C450.244 383.038 450.885 381.24 452.166 379.921C453.467 378.601 455.36 377.941 457.846 377.941C459.012 377.941 460.026 378.104 460.886 378.429C461.766 378.735 462.502 379.175 463.095 379.749C463.688 380.303 464.127 380.972 464.414 381.756C464.72 382.54 464.873 383.391 464.873 384.309C464.873 384.998 464.749 385.657 464.5 386.288C464.252 386.9 463.907 387.493 463.468 388.067C463.047 388.64 462.55 389.205 461.976 389.759C461.402 390.295 460.791 390.83 460.14 391.365L456.01 394.807H465.16V398.364H449.958V395.238ZM475.332 398.708C474.127 398.708 473.037 398.575 472.062 398.307C471.105 398.02 470.293 397.628 469.623 397.131C468.973 396.615 468.467 396.003 468.103 395.295C467.759 394.568 467.587 393.765 467.587 392.886C467.587 391.757 467.931 390.754 468.62 389.874C469.308 388.975 470.331 388.344 471.689 387.981C470.675 387.656 469.834 387.092 469.165 386.288C468.495 385.485 468.161 384.529 468.161 383.42C468.161 382.617 468.314 381.881 468.62 381.211C468.945 380.542 469.413 379.968 470.025 379.49C470.637 378.993 471.383 378.611 472.262 378.343C473.161 378.075 474.184 377.941 475.332 377.941C476.479 377.941 477.492 378.075 478.372 378.343C479.271 378.611 480.026 378.993 480.638 379.49C481.269 379.968 481.738 380.542 482.043 381.211C482.369 381.881 482.531 382.617 482.531 383.42C482.531 384.529 482.196 385.476 481.527 386.26C480.858 387.025 480.007 387.598 478.974 387.981C481.709 388.822 483.076 390.457 483.076 392.886C483.076 393.765 482.894 394.568 482.531 395.295C482.187 396.003 481.68 396.615 481.011 397.131C480.361 397.628 479.558 398.02 478.601 398.307C477.645 398.575 476.555 398.708 475.332 398.708ZM475.332 395.094C476.517 395.094 477.387 394.865 477.942 394.406C478.496 393.947 478.774 393.325 478.774 392.541C478.774 391.681 478.448 391.002 477.798 390.505C477.167 389.989 476.345 389.654 475.332 389.501C474.318 389.654 473.486 389.989 472.836 390.505C472.205 391.002 471.889 391.681 471.889 392.541C471.889 393.325 472.176 393.947 472.75 394.406C473.324 394.865 474.184 395.094 475.332 395.094ZM475.332 386.575C476.192 386.422 476.89 386.126 477.425 385.686C477.961 385.227 478.229 384.596 478.229 383.793C478.229 383.047 477.97 382.493 477.454 382.129C476.957 381.747 476.249 381.556 475.332 381.556C474.433 381.556 473.725 381.747 473.209 382.129C472.712 382.493 472.463 383.047 472.463 383.793C472.463 384.596 472.721 385.227 473.238 385.686C473.773 386.126 474.471 386.422 475.332 386.575Z" fill="black"/>
<rect x="407.547" y="333.16" width="104.135" height="109.408" stroke="#DADADA" stroke-width="2"/>
<rect x="511.682" y="333.16" width="104.135" height="109.408" fill="#F7F7F7"/>
<path d="M555.072 398.708C553.81 398.708 552.691 398.527 551.716 398.163C550.741 397.8 549.919 397.236 549.249 396.471C548.58 395.687 548.064 394.693 547.7 393.488C547.356 392.283 547.184 390.849 547.184 389.185V388.612C547.184 386.7 547.385 385.074 547.787 383.736C548.188 382.378 548.752 381.269 549.479 380.408C550.206 379.548 551.066 378.926 552.06 378.544C553.074 378.142 554.173 377.941 555.359 377.941C557.214 377.941 558.715 378.333 559.862 379.118C561.01 379.902 561.708 381.202 561.956 383.018H557.941C557.558 382.043 556.65 381.556 555.216 381.556C554.661 381.556 554.145 381.642 553.667 381.814C553.208 381.967 552.797 382.263 552.433 382.703C552.089 383.124 551.812 383.707 551.601 384.453C551.391 385.198 551.257 386.155 551.2 387.321C551.448 386.939 551.754 386.623 552.118 386.374C552.481 386.107 552.873 385.896 553.294 385.743C553.734 385.571 554.183 385.447 554.642 385.371C555.12 385.294 555.598 385.256 556.076 385.256C558.103 385.256 559.662 385.81 560.752 386.919C561.842 388.009 562.387 389.558 562.387 391.566V391.882C562.387 392.895 562.205 393.823 561.842 394.664C561.478 395.505 560.971 396.232 560.321 396.844C559.69 397.437 558.925 397.896 558.027 398.221C557.128 398.546 556.143 398.708 555.072 398.708ZM554.785 395.094C555.818 395.094 556.621 394.807 557.195 394.234C557.788 393.641 558.084 392.886 558.084 391.968V391.681C558.084 390.763 557.788 390.017 557.195 389.444C556.621 388.87 555.818 388.583 554.785 388.583C553.753 388.583 552.94 388.87 552.347 389.444C551.774 390.017 551.487 390.763 551.487 391.681V391.968C551.487 392.886 551.774 393.641 552.347 394.234C552.94 394.807 553.753 395.094 554.785 395.094ZM573.717 394.119H564.251V391.136L573.717 378.286H578.019V390.562H580.314V394.119H578.019V398.364H573.717V394.119ZM573.717 390.562V383.076L568.267 390.562H573.717Z" fill="black"/>
<rect x="511.682" y="333.16" width="104.135" height="109.408" stroke="#DADADA" stroke-width="2"/>
<rect x="615.816" y="333.16" width="104.135" height="109.408" fill="#F7F7F7"/>
<path d="M658.846 398.708C656.399 398.708 654.544 398.135 653.282 396.987C652.02 395.821 651.389 394.224 651.389 392.197H655.691C655.691 393.173 655.94 393.899 656.437 394.377C656.953 394.855 657.756 395.094 658.846 395.094C659.898 395.094 660.682 394.865 661.199 394.406C661.734 393.928 662.002 393.259 662.002 392.398C662.002 390.601 660.95 389.702 658.846 389.702H656.982V386.374H658.846C659.764 386.374 660.472 386.183 660.969 385.801C661.466 385.418 661.715 384.826 661.715 384.022C661.715 383.296 661.476 382.703 660.998 382.244C660.52 381.785 659.803 381.556 658.846 381.556C657.871 381.556 657.145 381.785 656.666 382.244C656.208 382.684 655.978 383.324 655.978 384.166H651.676C651.676 382.196 652.268 380.666 653.454 379.576C654.659 378.486 656.456 377.941 658.846 377.941C660.051 377.941 661.103 378.085 662.002 378.372C662.9 378.639 663.646 379.022 664.239 379.519C664.832 379.997 665.272 380.571 665.558 381.24C665.864 381.909 666.017 382.636 666.017 383.42C666.017 384.529 665.702 385.476 665.071 386.26C664.459 387.025 663.637 387.57 662.604 387.895C663.79 388.22 664.698 388.784 665.329 389.587C665.979 390.39 666.304 391.451 666.304 392.771C666.304 393.631 666.132 394.425 665.788 395.152C665.444 395.878 664.947 396.509 664.296 397.045C663.665 397.561 662.881 397.972 661.944 398.278C661.026 398.565 659.994 398.708 658.846 398.708ZM668.612 395.238L675.64 389.185C676.29 388.612 676.845 388.115 677.304 387.694C677.762 387.254 678.135 386.853 678.422 386.489C678.709 386.126 678.91 385.772 679.025 385.428C679.158 385.084 679.225 384.711 679.225 384.309C679.225 383.487 678.996 382.827 678.537 382.33C678.078 381.814 677.399 381.556 676.5 381.556C675.468 381.556 674.655 381.842 674.062 382.416C673.489 382.971 673.202 383.936 673.202 385.313H668.899C668.899 383.038 669.54 381.24 670.821 379.921C672.121 378.601 674.014 377.941 676.5 377.941C677.667 377.941 678.68 378.104 679.541 378.429C680.42 378.735 681.157 379.175 681.749 379.749C682.342 380.303 682.782 380.972 683.069 381.756C683.375 382.54 683.528 383.391 683.528 384.309C683.528 384.998 683.404 385.657 683.155 386.288C682.906 386.9 682.562 387.493 682.122 388.067C681.702 388.64 681.204 389.205 680.631 389.759C680.057 390.295 679.445 390.83 678.795 391.365L674.665 394.807H683.815V398.364H668.612V395.238Z" fill="black"/>
<rect x="615.816" y="333.16" width="104.135" height="109.408" stroke="#DADADA" stroke-width="2"/>
<rect x="719.951" y="333.16" width="104.135" height="109.408" fill="#F7F7F7"/>
<path d="M756.81 394.807H761.4V382.646L756.81 385.916V381.728L761.658 378.286H765.702V394.807H769.431V398.364H756.81V394.807ZM779.324 398.708C778.062 398.708 776.943 398.527 775.968 398.163C774.992 397.8 774.17 397.236 773.501 396.471C772.832 395.687 772.315 394.693 771.952 393.488C771.608 392.283 771.436 390.849 771.436 389.185V388.612C771.436 386.7 771.636 385.074 772.038 383.736C772.44 382.378 773.004 381.269 773.73 380.408C774.457 379.548 775.317 378.926 776.312 378.544C777.325 378.142 778.425 377.941 779.61 377.941C781.465 377.941 782.966 378.333 784.114 379.118C785.261 379.902 785.959 381.202 786.208 383.018H782.192C781.81 382.043 780.901 381.556 779.467 381.556C778.912 381.556 778.396 381.642 777.918 381.814C777.459 381.967 777.048 382.263 776.685 382.703C776.341 383.124 776.063 383.707 775.853 384.453C775.643 385.198 775.509 386.155 775.451 387.321C775.7 386.939 776.006 386.623 776.369 386.374C776.733 386.107 777.125 385.896 777.545 385.743C777.985 385.571 778.434 385.447 778.893 385.371C779.371 385.294 779.849 385.256 780.328 385.256C782.355 385.256 783.913 385.81 785.003 386.919C786.093 388.009 786.638 389.558 786.638 391.566V391.882C786.638 392.895 786.456 393.823 786.093 394.664C785.73 395.505 785.223 396.232 784.573 396.844C783.942 397.437 783.177 397.896 782.278 398.221C781.379 398.546 780.394 398.708 779.324 398.708ZM779.037 395.094C780.069 395.094 780.873 394.807 781.446 394.234C782.039 393.641 782.335 392.886 782.335 391.968V391.681C782.335 390.763 782.039 390.017 781.446 389.444C780.873 388.87 780.069 388.583 779.037 388.583C778.004 388.583 777.191 388.87 776.599 389.444C776.025 390.017 775.738 390.763 775.738 391.681V391.968C775.738 392.886 776.025 393.641 776.599 394.234C777.191 394.807 778.004 395.094 779.037 395.094Z" fill="black"/>
<rect x="719.951" y="333.16" width="104.135" height="109.408" stroke="#DADADA" stroke-width="2"/>
<rect x="824.086" y="333.16" width="104.135" height="109.408" fill="#F7F7F7"/>
<path d="M875.69 398.708C874.485 398.708 873.395 398.575 872.42 398.307C871.464 398.02 870.651 397.628 869.982 397.131C869.331 396.615 868.825 396.003 868.461 395.295C868.117 394.568 867.945 393.765 867.945 392.886C867.945 391.757 868.289 390.754 868.978 389.874C869.666 388.975 870.689 388.344 872.047 387.981C871.033 387.656 870.192 387.092 869.523 386.288C868.853 385.485 868.519 384.529 868.519 383.42C868.519 382.617 868.672 381.881 868.978 381.211C869.303 380.542 869.771 379.968 870.383 379.49C870.995 378.993 871.741 378.611 872.621 378.343C873.519 378.075 874.542 377.941 875.69 377.941C876.837 377.941 877.85 378.075 878.73 378.343C879.629 378.611 880.384 378.993 880.996 379.49C881.627 379.968 882.096 380.542 882.402 381.211C882.727 381.881 882.889 382.617 882.889 383.42C882.889 384.529 882.555 385.476 881.885 386.26C881.216 387.025 880.365 387.598 879.332 387.981C882.067 388.822 883.434 390.457 883.434 392.886C883.434 393.765 883.253 394.568 882.889 395.295C882.545 396.003 882.038 396.615 881.369 397.131C880.719 397.628 879.916 398.02 878.96 398.307C878.003 398.575 876.913 398.708 875.69 398.708ZM875.69 395.094C876.875 395.094 877.745 394.865 878.3 394.406C878.854 393.947 879.132 393.325 879.132 392.541C879.132 391.681 878.807 391.002 878.156 390.505C877.525 389.989 876.703 389.654 875.69 389.501C874.676 389.654 873.844 389.989 873.194 390.505C872.563 391.002 872.248 391.681 872.248 392.541C872.248 393.325 872.534 393.947 873.108 394.406C873.682 394.865 874.542 395.094 875.69 395.094ZM875.69 386.575C876.55 386.422 877.248 386.126 877.784 385.686C878.319 385.227 878.587 384.596 878.587 383.793C878.587 383.047 878.329 382.493 877.812 382.129C877.315 381.747 876.608 381.556 875.69 381.556C874.791 381.556 874.083 381.747 873.567 382.129C873.07 382.493 872.821 383.047 872.821 383.793C872.821 384.596 873.079 385.227 873.596 385.686C874.131 386.126 874.829 386.422 875.69 386.575Z" fill="black"/>
<rect x="824.086" y="333.16" width="104.135" height="109.408" stroke="#DADADA" stroke-width="2"/>
<rect x="928.221" y="333.16" width="104.135" height="109.408" fill="#F7F7F7"/>
<path d="M980.828 394.119H971.363V391.136L980.828 378.286H985.131V390.562H987.426V394.119H985.131V398.364H980.828V394.119ZM980.828 390.562V383.076L975.378 390.562H980.828Z" fill="black"/>
<rect x="928.221" y="333.16" width="104.135" height="109.408" stroke="#DADADA" stroke-width="2"/>
<rect x="1032.36" y="333.16" width="104.135" height="109.408" fill="#F7F7F7"/>
<path d="M1076.28 395.238L1083.31 389.185C1083.96 388.612 1084.52 388.115 1084.98 387.694C1085.43 387.254 1085.81 386.853 1086.09 386.489C1086.38 386.126 1086.58 385.772 1086.7 385.428C1086.83 385.084 1086.9 384.711 1086.9 384.309C1086.9 383.487 1086.67 382.827 1086.21 382.33C1085.75 381.814 1085.07 381.556 1084.17 381.556C1083.14 381.556 1082.33 381.842 1081.73 382.416C1081.16 382.971 1080.87 383.936 1080.87 385.313H1076.57C1076.57 383.038 1077.21 381.24 1078.49 379.921C1079.79 378.601 1081.69 377.941 1084.17 377.941C1085.34 377.941 1086.35 378.104 1087.21 378.429C1088.09 378.735 1088.83 379.175 1089.42 379.749C1090.01 380.303 1090.45 380.972 1090.74 381.756C1091.05 382.54 1091.2 383.391 1091.2 384.309C1091.2 384.998 1091.08 385.657 1090.83 386.288C1090.58 386.9 1090.23 387.493 1089.79 388.067C1089.37 388.64 1088.88 389.205 1088.3 389.759C1087.73 390.295 1087.12 390.83 1086.47 391.365L1082.34 394.807H1091.49V398.364H1076.28V395.238Z" fill="black"/>
<rect x="1032.36" y="333.16" width="104.135" height="109.408" stroke="#DADADA" stroke-width="2"/>
<rect x="1136.49" y="333.16" width="104.135" height="109.408" fill="#F7F7F7"/>
<path d="M1182.35 394.807H1186.94V382.646L1182.35 385.916V381.728L1187.2 378.286H1191.24V394.807H1194.97V398.364H1182.35V394.807Z" fill="black"/>
<rect x="1136.49" y="333.16" width="104.135" height="109.408" stroke="#DADADA" stroke-width="2"/>
<path d="M175.816 680.687V149.94H642.079L776.13 218.426L910.182 149.94H1376.44V680.687" stroke="black" stroke-width="3"/>
<path d="M767.314 232.166L604.993 151.005L767.314 69.845L929.636 151.005L767.314 232.166Z" fill="white" stroke="black" stroke-width="3"/>
<path d="M1376.44 813.779L1385.1 798.779L1367.78 798.779L1376.44 813.779ZM1374.94 743.143L1374.94 800.279L1377.94 800.279L1377.94 743.143L1374.94 743.143Z" fill="black"/>
<rect x="1271.08" y="683.779" width="210.727" height="59.3633" fill="#F3F3F3"/>
<path d="M1298.02 720.404H1300.25C1300.54 719.735 1300.78 718.932 1300.97 717.995C1301.16 717.039 1301.32 716.035 1301.43 714.983C1301.55 713.912 1301.63 712.822 1301.69 711.713C1301.75 710.585 1301.77 709.504 1301.77 708.472V703.882H1315.92V720.404H1318.1V727.69H1314.25V723.961H1301.86V727.69H1298.02V720.404ZM1311.61 720.404V707.439H1305.85V709.045C1305.85 711.665 1305.72 713.874 1305.47 715.671C1305.23 717.469 1304.87 719.046 1304.41 720.404H1311.61ZM1327.42 724.305C1326.39 724.305 1325.4 724.152 1324.47 723.846C1323.55 723.521 1322.75 723.033 1322.06 722.383C1321.37 721.733 1320.82 720.92 1320.42 719.945C1320.02 718.97 1319.82 717.823 1319.82 716.503V715.93C1319.82 714.687 1320.02 713.597 1320.42 712.66C1320.82 711.723 1321.37 710.939 1322.06 710.308C1322.75 709.676 1323.55 709.208 1324.47 708.902C1325.4 708.577 1326.39 708.414 1327.42 708.414C1328.45 708.414 1329.43 708.577 1330.35 708.902C1331.26 709.208 1332.07 709.676 1332.76 710.308C1333.46 710.939 1334.02 711.723 1334.42 712.66C1334.82 713.597 1335.02 714.687 1335.02 715.93V716.503C1335.02 717.804 1334.82 718.941 1334.42 719.917C1334.02 720.892 1333.46 721.704 1332.76 722.355C1332.07 723.005 1331.26 723.492 1330.35 723.818C1329.43 724.143 1328.45 724.305 1327.42 724.305ZM1327.42 721.093C1328.49 721.093 1329.38 720.71 1330.09 719.945C1330.82 719.18 1331.18 718.033 1331.18 716.503V715.93C1331.18 714.534 1330.82 713.472 1330.09 712.746C1329.38 712 1328.49 711.627 1327.42 711.627C1326.33 711.627 1325.43 712 1324.72 712.746C1324.02 713.472 1323.66 714.534 1323.66 715.93V716.503C1323.66 718.052 1324.02 719.209 1324.72 719.974C1325.43 720.72 1326.33 721.093 1327.42 721.093ZM1344.62 724.305C1343.55 724.305 1342.55 724.123 1341.64 723.76C1340.74 723.397 1339.95 722.852 1339.29 722.125C1338.62 721.379 1338.09 720.471 1337.71 719.4C1337.34 718.31 1337.16 717.048 1337.16 715.614V714.954C1337.16 713.233 1337.29 711.703 1337.54 710.365C1337.8 709.026 1338.23 707.889 1338.83 706.952C1339.44 706.015 1340.24 705.288 1341.24 704.772C1342.25 704.236 1343.51 703.93 1345.02 703.854C1345.61 703.835 1346.2 703.815 1346.77 703.796C1347.35 703.777 1347.89 703.748 1348.41 703.71C1348.92 703.672 1349.39 703.615 1349.81 703.538C1350.23 703.443 1350.61 703.318 1350.93 703.165V706.521C1350.62 706.693 1350.05 706.837 1349.21 706.952C1348.39 707.066 1347.13 707.133 1345.45 707.152C1344.59 707.171 1343.85 707.277 1343.21 707.468C1342.6 707.64 1342.09 707.927 1341.67 708.328C1341.26 708.711 1340.94 709.218 1340.69 709.849C1340.46 710.48 1340.3 711.254 1340.2 712.172C1340.64 711.311 1341.3 710.613 1342.18 710.078C1343.06 709.543 1344.21 709.275 1345.62 709.275C1346.58 709.275 1347.45 709.428 1348.23 709.734C1349.02 710.021 1349.7 710.451 1350.27 711.025C1350.84 711.598 1351.28 712.306 1351.59 713.147C1351.92 713.989 1352.08 714.964 1352.08 716.073V716.618C1352.08 717.823 1351.89 718.903 1351.5 719.859C1351.14 720.815 1350.62 721.628 1349.96 722.297C1349.29 722.947 1348.49 723.445 1347.57 723.789C1346.68 724.133 1345.69 724.305 1344.62 724.305ZM1344.62 721.093C1345.77 721.093 1346.66 720.72 1347.29 719.974C1347.92 719.209 1348.23 718.129 1348.23 716.733V716.159C1348.23 714.954 1347.91 714.008 1347.26 713.319C1346.61 712.631 1345.73 712.287 1344.62 712.287C1343.53 712.287 1342.65 712.631 1341.98 713.319C1341.33 714.008 1341.01 714.954 1341.01 716.159V716.675C1341.01 717.364 1341.09 717.985 1341.26 718.54C1341.46 719.094 1341.71 719.563 1342.04 719.945C1342.36 720.309 1342.75 720.595 1343.19 720.806C1343.63 720.997 1344.1 721.093 1344.62 721.093ZM1359.36 724.305C1358.53 724.305 1357.81 724.19 1357.18 723.961C1356.54 723.712 1356.01 723.378 1355.57 722.957C1355.13 722.517 1354.8 722.01 1354.57 721.437C1354.34 720.844 1354.22 720.203 1354.22 719.515C1354.22 716.455 1356.04 714.926 1359.67 714.926H1364.2V714.208C1364.2 713.214 1363.97 712.516 1363.51 712.115C1363.08 711.713 1362.37 711.512 1361.39 711.512C1360.53 711.512 1359.91 711.665 1359.53 711.971C1359.15 712.258 1358.93 712.621 1358.87 713.061H1355.08C1355.12 712.411 1355.28 711.799 1355.57 711.225C1355.88 710.652 1356.3 710.164 1356.83 709.763C1357.39 709.342 1358.06 709.017 1358.84 708.787C1359.62 708.539 1360.52 708.414 1361.54 708.414C1362.51 708.414 1363.39 708.52 1364.17 708.73C1364.98 708.94 1365.66 709.284 1366.21 709.763C1366.78 710.221 1367.22 710.824 1367.53 711.57C1367.84 712.315 1367.99 713.214 1367.99 714.266V720.089C1367.99 720.892 1368 721.599 1368.02 722.211C1368.06 722.804 1368.11 723.387 1368.19 723.961H1364.66C1364.59 723.54 1364.54 723.225 1364.52 723.014C1364.52 722.785 1364.52 722.45 1364.52 722.01C1364.1 722.622 1363.46 723.158 1362.6 723.617C1361.76 724.076 1360.68 724.305 1359.36 724.305ZM1360.53 721.379C1360.99 721.379 1361.44 721.322 1361.88 721.207C1362.32 721.073 1362.71 720.882 1363.06 720.634C1363.4 720.366 1363.68 720.031 1363.89 719.63C1364.1 719.228 1364.2 718.76 1364.2 718.224V717.507H1360.39C1359.66 717.507 1359.09 717.679 1358.67 718.023C1358.27 718.348 1358.06 718.798 1358.06 719.372C1358.06 719.983 1358.28 720.471 1358.7 720.834C1359.12 721.198 1359.73 721.379 1360.53 721.379ZM1371.29 708.759H1378.92C1379.9 708.759 1380.73 708.864 1381.42 709.074C1382.13 709.265 1382.71 709.543 1383.17 709.906C1383.63 710.269 1383.96 710.7 1384.17 711.197C1384.38 711.694 1384.49 712.239 1384.49 712.832C1384.49 713.539 1384.27 714.208 1383.83 714.84C1383.41 715.451 1382.82 715.863 1382.08 716.073C1383.02 716.302 1383.74 716.742 1384.26 717.392C1384.79 718.023 1385.06 718.769 1385.06 719.63C1385.06 720.949 1384.6 722.001 1383.69 722.785C1382.77 723.569 1381.37 723.961 1379.5 723.961H1371.29V708.759ZM1378.75 720.92C1379.61 720.92 1380.24 720.796 1380.64 720.548C1381.07 720.28 1381.28 719.859 1381.28 719.285C1381.28 718.712 1381.07 718.301 1380.67 718.052C1380.29 717.784 1379.65 717.651 1378.75 717.651H1375.08V720.92H1378.75ZM1378.38 714.84C1379.26 714.84 1379.86 714.715 1380.19 714.467C1380.53 714.218 1380.7 713.836 1380.7 713.319C1380.7 712.822 1380.53 712.449 1380.19 712.201C1379.84 711.933 1379.24 711.799 1378.38 711.799H1375.08V714.84H1378.38ZM1387.79 708.759H1391.58V718.511L1398.35 708.759H1401.85V723.961H1398.06V714.208L1391.29 723.961H1387.79V708.759ZM1409 711.914H1404.15V708.759H1417.63V711.914H1412.79V723.961H1409V711.914ZM1419.92 708.759H1423.71V713.864H1426.95C1430.87 713.864 1432.83 715.547 1432.83 718.913C1432.83 719.658 1432.71 720.347 1432.49 720.978C1432.27 721.59 1431.93 722.116 1431.45 722.555C1430.97 722.995 1430.36 723.339 1429.62 723.588C1428.87 723.837 1427.98 723.961 1426.95 723.961H1419.92V708.759ZM1426.52 720.92C1427.44 720.92 1428.09 720.758 1428.47 720.433C1428.85 720.089 1429.04 719.582 1429.04 718.913C1429.04 718.243 1428.84 717.746 1428.44 717.421C1428.06 717.077 1427.42 716.905 1426.52 716.905H1423.71V720.92H1426.52ZM1442.01 720.404H1446.6V708.242L1442.01 711.512V707.324L1446.86 703.882H1450.9V720.404H1454.63V723.961H1442.01V720.404Z" fill="black"/>
<rect x="1271.08" y="683.779" width="210.727" height="59.3633" stroke="#DADADA" stroke-width="2"/>
<rect x="1320.08" y="813.779" width="112.727" height="59.3633" fill="#F3F3F3"/>
<path d="M1348.16 838.759H1351.66V840.996C1352.03 840.308 1352.61 839.705 1353.41 839.189C1354.24 838.673 1355.34 838.414 1356.71 838.414C1358.57 838.414 1359.94 838.912 1360.84 839.906C1361.76 840.9 1362.22 842.334 1362.22 844.208V853.961H1358.43V845.069C1358.43 843.922 1358.19 843.061 1357.72 842.487C1357.26 841.914 1356.46 841.627 1355.34 841.627C1354.72 841.627 1354.21 841.723 1353.79 841.914C1353.37 842.105 1353.01 842.363 1352.73 842.688C1352.46 842.994 1352.26 843.358 1352.12 843.778C1352.01 844.18 1351.95 844.61 1351.95 845.069V853.961H1348.16V838.759ZM1371.84 844.151H1381.02V847.708H1371.84V844.151ZM1389.91 850.834L1396.94 844.782C1397.59 844.208 1398.14 843.711 1398.6 843.291C1399.06 842.851 1399.43 842.449 1399.72 842.086C1400.01 841.723 1400.21 841.369 1400.32 841.025C1400.46 840.68 1400.52 840.308 1400.52 839.906C1400.52 839.084 1400.29 838.424 1399.83 837.927C1399.37 837.41 1398.7 837.152 1397.8 837.152C1396.76 837.152 1395.95 837.439 1395.36 838.013C1394.79 838.567 1394.5 839.533 1394.5 840.91H1390.2C1390.2 838.634 1390.84 836.837 1392.12 835.517C1393.42 834.198 1395.31 833.538 1397.8 833.538C1398.96 833.538 1399.98 833.701 1400.84 834.026C1401.72 834.332 1402.45 834.772 1403.05 835.345C1403.64 835.9 1404.08 836.569 1404.37 837.353C1404.67 838.137 1404.82 838.988 1404.82 839.906C1404.82 840.594 1404.7 841.254 1404.45 841.885C1404.2 842.497 1403.86 843.09 1403.42 843.663C1403 844.237 1402.5 844.801 1401.93 845.356C1401.35 845.891 1400.74 846.427 1400.09 846.962L1395.96 850.404H1405.11V853.961H1389.91V850.834Z" fill="black"/>
<rect x="1320.08" y="813.779" width="112.727" height="59.3633" stroke="#DADADA" stroke-width="2"/>
<path d="M231.081 372.632H243.05V387.864H241.004V374.416H233.127V387.864H231.081V372.632ZM251.754 388.082C251.014 388.082 250.31 387.966 249.643 387.734C248.976 387.487 248.388 387.124 247.88 386.646C247.373 386.152 246.966 385.536 246.662 384.796C246.357 384.056 246.205 383.193 246.205 382.207V381.771C246.205 380.843 246.357 380.023 246.662 379.312C246.966 378.602 247.373 378.014 247.88 377.55C248.388 377.071 248.976 376.716 249.643 376.484C250.31 376.237 251.014 376.114 251.754 376.114C252.494 376.114 253.197 376.237 253.864 376.484C254.532 376.716 255.119 377.071 255.627 377.55C256.135 378.014 256.541 378.602 256.846 379.312C257.15 380.023 257.303 380.843 257.303 381.771V382.207C257.303 383.193 257.15 384.056 256.846 384.796C256.541 385.536 256.135 386.152 255.627 386.646C255.119 387.124 254.532 387.487 253.864 387.734C253.197 387.966 252.494 388.082 251.754 388.082ZM251.754 386.341C252.189 386.341 252.624 386.268 253.059 386.123C253.495 385.964 253.879 385.724 254.213 385.405C254.546 385.072 254.815 384.644 255.018 384.121C255.235 383.599 255.344 382.961 255.344 382.207V381.771C255.344 381.075 255.235 380.48 255.018 379.987C254.815 379.494 254.546 379.088 254.213 378.768C253.879 378.449 253.495 378.217 253.059 378.072C252.624 377.927 252.189 377.854 251.754 377.854C251.318 377.854 250.883 377.927 250.448 378.072C250.013 378.217 249.628 378.449 249.295 378.768C248.961 379.088 248.685 379.494 248.468 379.987C248.265 380.48 248.163 381.075 248.163 381.771V382.207C248.163 382.961 248.265 383.599 248.468 384.121C248.685 384.644 248.961 385.072 249.295 385.405C249.628 385.724 250.013 385.964 250.448 386.123C250.883 386.268 251.318 386.341 251.754 386.341ZM263.931 388.082C262.48 388.082 261.341 387.777 260.515 387.168C259.688 386.559 259.231 385.703 259.144 384.6H261.059C261.16 385.166 261.458 385.601 261.951 385.906C262.459 386.196 263.119 386.341 263.931 386.341C264.932 386.341 265.657 386.174 266.107 385.841C266.571 385.492 266.803 385.079 266.803 384.6C266.803 384.034 266.615 383.592 266.238 383.273C265.86 382.939 265.208 382.772 264.279 382.772H262.299V381.206H264.149C264.946 381.206 265.512 381.053 265.846 380.749C266.194 380.444 266.368 380.016 266.368 379.465C266.368 379.03 266.165 378.652 265.759 378.333C265.353 378.014 264.743 377.854 263.931 377.854C263.046 377.854 262.4 378 261.994 378.29C261.603 378.565 261.363 378.964 261.276 379.487H259.361C259.405 379.008 259.535 378.565 259.753 378.159C259.985 377.738 260.297 377.376 260.689 377.071C261.08 376.766 261.545 376.534 262.081 376.375C262.633 376.201 263.249 376.114 263.931 376.114C264.671 376.114 265.309 376.201 265.846 376.375C266.397 376.534 266.854 376.766 267.217 377.071C267.579 377.361 267.848 377.709 268.022 378.116C268.196 378.522 268.283 378.972 268.283 379.465C268.283 380.016 268.145 380.502 267.87 380.923C267.594 381.329 267.152 381.648 266.542 381.88C267.355 382.098 267.92 382.446 268.24 382.925C268.559 383.403 268.718 383.962 268.718 384.6C268.718 385.079 268.617 385.529 268.414 385.949C268.211 386.37 267.906 386.74 267.5 387.059C267.108 387.364 266.607 387.61 265.998 387.799C265.403 387.988 264.714 388.082 263.931 388.082ZM271.447 376.331H273.362V385.035L279.324 376.331H281.239V387.864H279.324V379.16L273.362 387.864H271.447V376.331ZM294.107 387.864H284.728V376.331H286.643V386.167H292.17V376.331H294.085V386.167H295.935V390.584H294.107V387.864ZM298.222 376.331H300.137V385.035L306.099 376.331H308.014V387.864H306.099V379.16L300.137 387.864H298.222V376.331ZM316.291 388.082C315.551 388.082 314.848 387.966 314.18 387.734C313.513 387.487 312.925 387.124 312.418 386.646C311.91 386.152 311.504 385.536 311.199 384.796C310.894 384.056 310.742 383.193 310.742 382.207V381.771C310.742 380.843 310.894 380.023 311.199 379.312C311.504 378.602 311.91 378.014 312.418 377.55C312.925 377.071 313.513 376.716 314.18 376.484C314.848 376.237 315.551 376.114 316.291 376.114C317.031 376.114 317.734 376.237 318.402 376.484C319.069 376.716 319.657 377.071 320.164 377.55C320.672 378.014 321.078 378.602 321.383 379.312C321.688 380.023 321.84 380.843 321.84 381.771V382.207C321.84 383.193 321.688 384.056 321.383 384.796C321.078 385.536 320.672 386.152 320.164 386.646C319.657 387.124 319.069 387.487 318.402 387.734C317.734 387.966 317.031 388.082 316.291 388.082ZM316.291 386.341C316.726 386.341 317.161 386.268 317.597 386.123C318.032 385.964 318.416 385.724 318.75 385.405C319.084 385.072 319.352 384.644 319.555 384.121C319.773 383.599 319.881 382.961 319.881 382.207V381.771C319.881 381.075 319.773 380.48 319.555 379.987C319.352 379.494 319.084 379.088 318.75 378.768C318.416 378.449 318.032 378.217 317.597 378.072C317.161 377.927 316.726 377.854 316.291 377.854C315.856 377.854 315.421 377.927 314.985 378.072C314.55 378.217 314.166 378.449 313.832 378.768C313.498 379.088 313.223 379.494 313.005 379.987C312.802 380.48 312.701 381.075 312.701 381.771V382.207C312.701 382.961 312.802 383.599 313.005 384.121C313.223 384.644 313.498 385.072 313.832 385.405C314.166 385.724 314.55 385.964 314.985 386.123C315.421 386.268 315.856 386.341 316.291 386.341ZM324.551 376.331H326.466V381.14H332.429V376.331H334.344V387.864H332.429V382.838H326.466V387.864H324.551V376.331ZM337.833 376.331H339.748V381.14H345.71V376.331H347.625V387.864H345.71V382.838H339.748V387.864H337.833V376.331ZM355.902 388.082C355.162 388.082 354.458 387.966 353.791 387.734C353.124 387.487 352.536 387.124 352.028 386.646C351.521 386.152 351.114 385.536 350.81 384.796C350.505 384.056 350.353 383.193 350.353 382.207V381.771C350.353 380.843 350.505 380.023 350.81 379.312C351.114 378.602 351.521 378.014 352.028 377.55C352.536 377.071 353.124 376.716 353.791 376.484C354.458 376.237 355.162 376.114 355.902 376.114C356.641 376.114 357.345 376.237 358.012 376.484C358.68 376.716 359.267 377.071 359.775 377.55C360.283 378.014 360.689 378.602 360.994 379.312C361.298 380.023 361.45 380.843 361.45 381.771V382.207C361.45 383.193 361.298 384.056 360.994 384.796C360.689 385.536 360.283 386.152 359.775 386.646C359.267 387.124 358.68 387.487 358.012 387.734C357.345 387.966 356.641 388.082 355.902 388.082ZM355.902 386.341C356.337 386.341 356.772 386.268 357.207 386.123C357.642 385.964 358.027 385.724 358.361 385.405C358.694 385.072 358.963 384.644 359.166 384.121C359.383 383.599 359.492 382.961 359.492 382.207V381.771C359.492 381.075 359.383 380.48 359.166 379.987C358.963 379.494 358.694 379.088 358.361 378.768C358.027 378.449 357.642 378.217 357.207 378.072C356.772 377.927 356.337 377.854 355.902 377.854C355.466 377.854 355.031 377.927 354.596 378.072C354.161 378.217 353.776 378.449 353.443 378.768C353.109 379.088 352.833 379.494 352.616 379.987C352.413 380.48 352.311 381.075 352.311 381.771V382.207C352.311 382.961 352.413 383.599 352.616 384.121C352.833 384.644 353.109 385.072 353.443 385.405C353.776 385.724 354.161 385.964 354.596 386.123C355.031 386.268 355.466 386.341 355.902 386.341ZM368.949 388.082C368.209 388.082 367.506 387.966 366.839 387.734C366.171 387.502 365.584 387.146 365.076 386.667C364.568 386.174 364.162 385.558 363.857 384.818C363.553 384.078 363.4 383.208 363.4 382.207V381.771C363.4 380.814 363.545 379.987 363.836 379.291C364.126 378.58 364.51 377.992 364.989 377.528C365.482 377.049 366.048 376.694 366.686 376.462C367.339 376.23 368.021 376.114 368.732 376.114C370.429 376.114 371.742 376.578 372.67 377.506C373.599 378.435 374.063 379.748 374.063 381.445V382.664H365.315C365.315 383.345 365.424 383.918 365.642 384.383C365.859 384.847 366.142 385.224 366.49 385.514C366.839 385.804 367.223 386.015 367.644 386.145C368.079 386.276 368.514 386.341 368.949 386.341C369.82 386.341 370.487 386.196 370.951 385.906C371.43 385.616 371.771 385.217 371.974 384.709H373.845C373.729 385.26 373.519 385.746 373.214 386.167C372.924 386.588 372.562 386.943 372.126 387.233C371.706 387.509 371.22 387.719 370.668 387.864C370.132 388.009 369.559 388.082 368.949 388.082ZM368.841 377.854C368.391 377.854 367.956 377.92 367.535 378.05C367.114 378.166 366.737 378.362 366.403 378.638C366.084 378.899 365.823 379.233 365.62 379.639C365.417 380.045 365.315 380.531 365.315 381.097H372.257C372.242 380.502 372.141 380.002 371.952 379.595C371.778 379.175 371.539 378.841 371.234 378.594C370.93 378.333 370.567 378.145 370.146 378.029C369.74 377.913 369.305 377.854 368.841 377.854ZM257.184 412.082C255.733 412.082 254.595 411.777 253.768 411.168C252.941 410.559 252.484 409.703 252.397 408.6H254.312C254.413 409.166 254.711 409.601 255.204 409.906C255.712 410.196 256.372 410.341 257.184 410.341C258.185 410.341 258.91 410.174 259.36 409.841C259.824 409.492 260.056 409.079 260.056 408.6C260.056 408.034 259.868 407.592 259.491 407.273C259.113 406.939 258.461 406.772 257.532 406.772H255.552V405.206H257.402C258.199 405.206 258.765 405.053 259.099 404.749C259.447 404.444 259.621 404.016 259.621 403.465C259.621 403.03 259.418 402.652 259.012 402.333C258.606 402.014 257.996 401.854 257.184 401.854C256.299 401.854 255.654 402 255.247 402.29C254.856 402.565 254.616 402.964 254.529 403.487H252.614C252.658 403.008 252.788 402.565 253.006 402.159C253.238 401.738 253.55 401.376 253.942 401.071C254.333 400.766 254.798 400.534 255.334 400.375C255.886 400.201 256.502 400.114 257.184 400.114C257.924 400.114 258.562 400.201 259.099 400.375C259.65 400.534 260.107 400.766 260.47 401.071C260.832 401.361 261.101 401.709 261.275 402.116C261.449 402.522 261.536 402.972 261.536 403.465C261.536 404.016 261.398 404.502 261.123 404.923C260.847 405.329 260.405 405.648 259.795 405.88C260.608 406.098 261.173 406.446 261.493 406.925C261.812 407.403 261.971 407.962 261.971 408.6C261.971 409.079 261.87 409.529 261.667 409.949C261.464 410.37 261.159 410.74 260.753 411.059C260.361 411.364 259.861 411.61 259.251 411.799C258.656 411.988 257.967 412.082 257.184 412.082ZM264.7 400.331H266.615V405.14H272.577V400.331H274.492V411.864H272.577V406.838H266.615V411.864H264.7V400.331ZM281.267 412.082C280.629 412.082 280.063 411.995 279.57 411.821C279.091 411.632 278.685 411.378 278.351 411.059C278.018 410.74 277.764 410.363 277.59 409.928C277.416 409.492 277.328 409.014 277.328 408.491C277.328 407.345 277.662 406.518 278.329 406.011C279.011 405.503 279.983 405.249 281.245 405.249H284.988V404.466C284.988 403.479 284.763 402.797 284.314 402.42C283.878 402.043 283.218 401.854 282.333 401.854C281.506 401.854 280.904 402.014 280.527 402.333C280.15 402.638 279.94 402.986 279.896 403.378H277.981C278.01 402.914 278.134 402.486 278.351 402.094C278.583 401.688 278.888 401.34 279.265 401.049C279.657 400.759 280.121 400.534 280.658 400.375C281.195 400.201 281.789 400.114 282.442 400.114C283.806 400.114 284.887 400.44 285.684 401.093C286.497 401.731 286.903 402.783 286.903 404.248V408.927C286.903 409.536 286.903 410.073 286.903 410.537C286.918 410.987 286.954 411.429 287.012 411.864H285.336C285.293 411.531 285.264 411.219 285.249 410.929C285.235 410.624 285.227 410.283 285.227 409.906C284.923 410.515 284.43 411.03 283.748 411.451C283.066 411.872 282.239 412.082 281.267 412.082ZM281.681 410.341C282.13 410.341 282.551 410.283 282.943 410.167C283.349 410.036 283.704 409.855 284.009 409.623C284.314 409.376 284.553 409.079 284.727 408.731C284.901 408.383 284.988 407.976 284.988 407.512V406.729H281.572C280.861 406.729 280.302 406.874 279.896 407.164C279.49 407.44 279.287 407.882 279.287 408.491C279.287 409.028 279.475 409.471 279.853 409.819C280.244 410.167 280.854 410.341 281.681 410.341ZM296.966 407.273C296.632 407.476 296.226 407.657 295.747 407.817C295.283 407.976 294.695 408.056 293.984 408.056C293.317 408.056 292.715 407.984 292.178 407.839C291.656 407.694 291.214 407.461 290.851 407.142C290.488 406.823 290.213 406.41 290.024 405.902C289.836 405.394 289.741 404.77 289.741 404.031V400.331H291.656V403.704C291.656 404.197 291.7 404.611 291.787 404.944C291.888 405.278 292.048 405.547 292.265 405.75C292.483 405.953 292.759 406.098 293.092 406.185C293.426 406.272 293.832 406.315 294.311 406.315C294.964 406.315 295.522 406.25 295.986 406.12C296.451 405.989 296.777 405.851 296.966 405.706V400.331H298.881V411.864H296.966V407.273ZM307.143 412.082C306.403 412.082 305.699 411.966 305.032 411.734C304.365 411.502 303.777 411.146 303.269 410.667C302.762 410.174 302.355 409.558 302.051 408.818C301.746 408.078 301.594 407.208 301.594 406.207V405.771C301.594 404.814 301.739 403.987 302.029 403.291C302.319 402.58 302.704 401.992 303.182 401.528C303.676 401.049 304.241 400.694 304.88 400.462C305.532 400.23 306.214 400.114 306.925 400.114C308.622 400.114 309.935 400.578 310.864 401.506C311.792 402.435 312.256 403.748 312.256 405.445V406.664H303.509C303.509 407.345 303.618 407.918 303.835 408.383C304.053 408.847 304.336 409.224 304.684 409.514C305.032 409.804 305.416 410.015 305.837 410.145C306.272 410.276 306.707 410.341 307.143 410.341C308.013 410.341 308.68 410.196 309.145 409.906C309.623 409.616 309.964 409.217 310.167 408.709H312.039C311.923 409.26 311.712 409.746 311.408 410.167C311.118 410.588 310.755 410.943 310.32 411.233C309.899 411.509 309.413 411.719 308.862 411.864C308.325 412.009 307.752 412.082 307.143 412.082ZM307.034 401.854C306.584 401.854 306.149 401.92 305.728 402.05C305.308 402.166 304.93 402.362 304.597 402.638C304.278 402.899 304.016 403.233 303.813 403.639C303.61 404.045 303.509 404.531 303.509 405.097H310.45C310.436 404.502 310.334 404.002 310.146 403.595C309.972 403.175 309.732 402.841 309.428 402.594C309.123 402.333 308.76 402.145 308.34 402.029C307.933 401.913 307.498 401.854 307.034 401.854ZM314.978 400.331H316.893V405.14H322.855V400.331H324.77V411.864H322.855V406.838H316.893V411.864H314.978V400.331ZM328.26 400.331H330.174V409.035L336.137 400.331H338.052V411.864H336.137V403.16L330.174 411.864H328.26V400.331ZM346.328 412.082C345.588 412.082 344.885 411.966 344.218 411.734C343.55 411.502 342.963 411.146 342.455 410.667C341.947 410.174 341.541 409.558 341.236 408.818C340.932 408.078 340.779 407.208 340.779 406.207V405.771C340.779 404.814 340.925 403.987 341.215 403.291C341.505 402.58 341.889 401.992 342.368 401.528C342.861 401.049 343.427 400.694 344.065 400.462C344.718 400.23 345.4 400.114 346.111 400.114C347.808 400.114 349.121 400.578 350.049 401.506C350.978 402.435 351.442 403.748 351.442 405.445V406.664H342.694C342.694 407.345 342.803 407.918 343.021 408.383C343.238 408.847 343.521 409.224 343.869 409.514C344.218 409.804 344.602 410.015 345.023 410.145C345.458 410.276 345.893 410.341 346.328 410.341C347.199 410.341 347.866 410.196 348.33 409.906C348.809 409.616 349.15 409.217 349.353 408.709H351.224C351.108 409.26 350.898 409.746 350.593 410.167C350.303 410.588 349.941 410.943 349.505 411.233C349.085 411.509 348.599 411.719 348.047 411.864C347.511 412.009 346.938 412.082 346.328 412.082ZM346.22 401.854C345.77 401.854 345.335 401.92 344.914 402.05C344.493 402.166 344.116 402.362 343.782 402.638C343.463 402.899 343.202 403.233 342.999 403.639C342.796 404.045 342.694 404.531 342.694 405.097H349.636C349.621 404.502 349.52 404.002 349.331 403.595C349.157 403.175 348.918 402.841 348.613 402.594C348.309 402.333 347.946 402.145 347.525 402.029C347.119 401.913 346.684 401.854 346.22 401.854Z" fill="black"/>
<path d="M566.189 107.172H570.492V115.146H579.097V107.172H583.399V127.251H579.097V118.703H570.492V127.251H566.189V107.172ZM594.293 127.595C593.26 127.595 592.275 127.442 591.338 127.136C590.42 126.811 589.617 126.333 588.929 125.702C588.24 125.052 587.695 124.239 587.294 123.264C586.892 122.27 586.691 121.113 586.691 119.793V119.22C586.691 117.957 586.883 116.858 587.265 115.921C587.647 114.984 588.173 114.209 588.843 113.598C589.512 112.967 590.286 112.498 591.166 112.192C592.046 111.867 592.992 111.704 594.006 111.704C596.396 111.704 598.213 112.335 599.456 113.598C600.699 114.86 601.32 116.686 601.32 119.076V120.682H590.564C590.583 121.352 590.697 121.935 590.908 122.432C591.118 122.91 591.395 123.302 591.74 123.608C592.084 123.914 592.476 124.144 592.916 124.297C593.375 124.43 593.834 124.497 594.293 124.497C595.268 124.497 596.004 124.354 596.501 124.067C596.998 123.78 597.352 123.36 597.562 122.805H601.033C600.727 124.392 599.972 125.587 598.767 126.39C597.562 127.194 596.071 127.595 594.293 127.595ZM594.149 114.802C593.709 114.802 593.269 114.86 592.83 114.974C592.409 115.089 592.036 115.271 591.711 115.519C591.386 115.768 591.118 116.103 590.908 116.523C590.697 116.944 590.583 117.451 590.564 118.044H597.649C597.629 117.412 597.524 116.887 597.333 116.466C597.161 116.045 596.912 115.711 596.587 115.462C596.281 115.213 595.918 115.041 595.497 114.946C595.077 114.85 594.627 114.802 594.149 114.802ZM607.467 115.204H602.62V112.049H616.101V115.204H611.254V127.251H607.467V115.204Z" fill="black"/>
<path d="M951.363 123.694H953.6C953.887 123.025 954.126 122.222 954.317 121.285C954.508 120.329 954.661 119.325 954.776 118.273C954.891 117.202 954.977 116.112 955.034 115.003C955.092 113.875 955.12 112.794 955.12 111.762V107.172H969.261V123.694H971.441V130.98H967.598V127.251H955.206V130.98H951.363V123.694ZM964.959 123.694V110.729H959.193V112.335C959.193 114.955 959.069 117.164 958.82 118.961C958.572 120.759 958.218 122.337 957.759 123.694H964.959ZM978.584 127.595C977.761 127.595 977.035 127.48 976.404 127.251C975.773 127.002 975.237 126.668 974.797 126.247C974.357 125.807 974.023 125.3 973.793 124.727C973.564 124.134 973.449 123.493 973.449 122.805C973.449 119.745 975.266 118.216 978.899 118.216H983.431V117.499C983.431 116.504 983.202 115.806 982.743 115.405C982.303 115.003 981.595 114.802 980.62 114.802C979.76 114.802 979.138 114.955 978.756 115.261C978.373 115.548 978.153 115.911 978.096 116.351H974.31C974.348 115.701 974.51 115.089 974.797 114.515C975.103 113.942 975.524 113.454 976.059 113.053C976.614 112.632 977.283 112.307 978.067 112.077C978.851 111.829 979.75 111.704 980.764 111.704C981.739 111.704 982.618 111.81 983.402 112.02C984.206 112.23 984.884 112.574 985.439 113.053C986.013 113.511 986.452 114.114 986.758 114.86C987.064 115.605 987.217 116.504 987.217 117.556V123.379C987.217 124.182 987.227 124.889 987.246 125.501C987.284 126.094 987.342 126.677 987.418 127.251H983.89C983.814 126.83 983.766 126.515 983.747 126.304C983.747 126.075 983.747 125.74 983.747 125.3C983.326 125.912 982.685 126.448 981.825 126.907C980.983 127.366 979.903 127.595 978.584 127.595ZM979.76 124.669C980.219 124.669 980.668 124.612 981.108 124.497C981.548 124.363 981.94 124.172 982.284 123.924C982.628 123.656 982.905 123.321 983.116 122.92C983.326 122.518 983.431 122.05 983.431 121.514V120.797H979.616C978.89 120.797 978.316 120.969 977.895 121.313C977.494 121.639 977.293 122.088 977.293 122.662C977.293 123.274 977.503 123.761 977.924 124.124C978.345 124.488 978.956 124.669 979.76 124.669Z" fill="black"/>
<path d="M727.723 146.304H731.222V148.541C731.586 147.852 732.169 147.25 732.972 146.734C733.794 146.217 734.894 145.959 736.271 145.959C738.125 145.959 739.502 146.456 740.401 147.451C741.319 148.445 741.778 149.879 741.778 151.753V161.506H737.992V152.614C737.992 151.467 737.753 150.606 737.275 150.032C736.816 149.459 736.022 149.172 734.894 149.172C734.282 149.172 733.766 149.267 733.345 149.459C732.924 149.65 732.57 149.908 732.284 150.233C732.016 150.539 731.815 150.902 731.681 151.323C731.566 151.725 731.509 152.155 731.509 152.614V161.506H727.723V146.304ZM765.742 149.602V152.757L751.687 158.924V154.823L760.723 151.237L751.687 147.652V143.435L765.742 149.602ZM768.046 152.843H782.101V156.4H768.046V152.843ZM768.046 145.959H782.101V149.516H768.046V145.959ZM791.289 158.379L798.316 152.327C798.966 151.753 799.521 151.256 799.98 150.836C800.439 150.396 800.812 149.994 801.098 149.631C801.385 149.267 801.586 148.914 801.701 148.57C801.835 148.225 801.902 147.852 801.902 147.451C801.902 146.629 801.672 145.969 801.213 145.472C800.754 144.955 800.075 144.697 799.177 144.697C798.144 144.697 797.331 144.984 796.738 145.558C796.165 146.112 795.878 147.078 795.878 148.455H791.575C791.575 146.179 792.216 144.382 793.497 143.062C794.798 141.743 796.691 141.083 799.177 141.083C800.343 141.083 801.357 141.246 802.217 141.571C803.097 141.877 803.833 142.316 804.426 142.89C805.019 143.445 805.458 144.114 805.745 144.898C806.051 145.682 806.204 146.533 806.204 147.451C806.204 148.139 806.08 148.799 805.831 149.43C805.583 150.042 805.238 150.635 804.799 151.208C804.378 151.782 803.881 152.346 803.307 152.901C802.733 153.436 802.121 153.972 801.471 154.507L797.341 157.949H806.491V161.506H791.289V158.379Z" fill="black"/>
<rect x="69.2305" y="683.779" width="214.727" height="59.3633" fill="#F3F3F3"/>
<path d="M96.1674 720.404H98.4048C98.6916 719.735 98.9306 718.932 99.1218 717.995C99.3131 717.039 99.466 716.035 99.5808 714.983C99.6955 713.912 99.7816 712.822 99.8389 711.713C99.8963 710.585 99.925 709.504 99.925 708.472V703.882H114.066V720.404H116.246V727.69H112.402V723.961H100.011V727.69H96.1674V720.404ZM109.763 720.404V707.439H103.998V709.045C103.998 711.665 103.874 713.874 103.625 715.671C103.377 717.469 103.023 719.046 102.564 720.404H109.763ZM125.572 724.305C124.539 724.305 123.554 724.152 122.617 723.846C121.699 723.521 120.896 723.033 120.208 722.383C119.519 721.733 118.974 720.92 118.573 719.945C118.171 718.97 117.97 717.823 117.97 716.503V715.93C117.97 714.687 118.171 713.597 118.573 712.66C118.974 711.723 119.519 710.939 120.208 710.308C120.896 709.676 121.699 709.208 122.617 708.902C123.554 708.577 124.539 708.414 125.572 708.414C126.604 708.414 127.579 708.577 128.497 708.902C129.415 709.208 130.218 709.676 130.907 710.308C131.614 710.939 132.169 711.723 132.57 712.66C132.972 713.597 133.173 714.687 133.173 715.93V716.503C133.173 717.804 132.972 718.941 132.57 719.917C132.169 720.892 131.614 721.704 130.907 722.355C130.218 723.005 129.415 723.492 128.497 723.818C127.579 724.143 126.604 724.305 125.572 724.305ZM125.572 721.093C126.642 721.093 127.532 720.71 128.239 719.945C128.966 719.18 129.329 718.033 129.329 716.503V715.93C129.329 714.534 128.966 713.472 128.239 712.746C127.532 712 126.642 711.627 125.572 711.627C124.482 711.627 123.583 712 122.875 712.746C122.168 713.472 121.814 714.534 121.814 715.93V716.503C121.814 718.052 122.168 719.209 122.875 719.974C123.583 720.72 124.482 721.093 125.572 721.093ZM142.771 724.305C141.7 724.305 140.705 724.123 139.787 723.76C138.889 723.397 138.105 722.852 137.435 722.125C136.766 721.379 136.24 720.471 135.858 719.4C135.494 718.31 135.313 717.048 135.313 715.614V714.954C135.313 713.233 135.437 711.703 135.686 710.365C135.953 709.026 136.384 707.889 136.976 706.952C137.588 706.015 138.392 705.288 139.386 704.772C140.399 704.236 141.661 703.93 143.172 703.854C143.765 703.835 144.348 703.815 144.922 703.796C145.496 703.777 146.041 703.748 146.557 703.71C147.073 703.672 147.542 703.615 147.962 703.538C148.383 703.443 148.756 703.318 149.081 703.165V706.521C148.775 706.693 148.201 706.837 147.36 706.952C146.538 707.066 145.285 707.133 143.602 707.152C142.742 707.171 141.996 707.277 141.365 707.468C140.753 707.64 140.237 707.927 139.816 708.328C139.415 708.711 139.089 709.218 138.841 709.849C138.611 710.48 138.449 711.254 138.353 712.172C138.793 711.311 139.453 710.613 140.332 710.078C141.212 709.543 142.359 709.275 143.775 709.275C144.731 709.275 145.601 709.428 146.385 709.734C147.169 710.021 147.848 710.451 148.421 711.025C148.995 711.598 149.435 712.306 149.741 713.147C150.066 713.989 150.228 714.964 150.228 716.073V716.618C150.228 717.823 150.037 718.903 149.655 719.859C149.291 720.815 148.775 721.628 148.106 722.297C147.436 722.947 146.643 723.445 145.725 723.789C144.826 724.133 143.841 724.305 142.771 724.305ZM142.771 721.093C143.918 721.093 144.807 720.72 145.438 719.974C146.069 719.209 146.385 718.129 146.385 716.733V716.159C146.385 714.954 146.06 714.008 145.409 713.319C144.759 712.631 143.88 712.287 142.771 712.287C141.681 712.287 140.801 712.631 140.132 713.319C139.482 714.008 139.156 714.954 139.156 716.159V716.675C139.156 717.364 139.242 717.985 139.415 718.54C139.606 719.094 139.864 719.563 140.189 719.945C140.514 720.309 140.897 720.595 141.336 720.806C141.776 720.997 142.254 721.093 142.771 721.093ZM157.506 724.305C156.684 724.305 155.957 724.19 155.326 723.961C154.695 723.712 154.16 723.378 153.72 722.957C153.28 722.517 152.945 722.01 152.716 721.437C152.487 720.844 152.372 720.203 152.372 719.515C152.372 716.455 154.188 714.926 157.822 714.926H162.354V714.208C162.354 713.214 162.124 712.516 161.665 712.115C161.225 711.713 160.518 711.512 159.543 711.512C158.682 711.512 158.061 711.665 157.678 711.971C157.296 712.258 157.076 712.621 157.019 713.061H153.232C153.271 712.411 153.433 711.799 153.72 711.225C154.026 710.652 154.447 710.164 154.982 709.763C155.537 709.342 156.206 709.017 156.99 708.787C157.774 708.539 158.673 708.414 159.686 708.414C160.661 708.414 161.541 708.52 162.325 708.73C163.128 708.94 163.807 709.284 164.362 709.763C164.935 710.221 165.375 710.824 165.681 711.57C165.987 712.315 166.14 713.214 166.14 714.266V720.089C166.14 720.892 166.149 721.599 166.169 722.211C166.207 722.804 166.264 723.387 166.341 723.961H162.813C162.736 723.54 162.688 723.225 162.669 723.014C162.669 722.785 162.669 722.45 162.669 722.01C162.249 722.622 161.608 723.158 160.747 723.617C159.906 724.076 158.826 724.305 157.506 724.305ZM158.682 721.379C159.141 721.379 159.59 721.322 160.03 721.207C160.47 721.073 160.862 720.882 161.206 720.634C161.551 720.366 161.828 720.031 162.038 719.63C162.249 719.228 162.354 718.76 162.354 718.224V717.507H158.539C157.812 717.507 157.238 717.679 156.818 718.023C156.416 718.348 156.215 718.798 156.215 719.372C156.215 719.983 156.426 720.471 156.846 720.834C157.267 721.198 157.879 721.379 158.682 721.379ZM169.444 708.759H177.074C178.049 708.759 178.881 708.864 179.57 709.074C180.277 709.265 180.86 709.543 181.319 709.906C181.778 710.269 182.113 710.7 182.323 711.197C182.533 711.694 182.639 712.239 182.639 712.832C182.639 713.539 182.419 714.208 181.979 714.84C181.558 715.451 180.975 715.863 180.229 716.073C181.166 716.302 181.893 716.742 182.409 717.392C182.945 718.023 183.212 718.769 183.212 719.63C183.212 720.949 182.753 722.001 181.836 722.785C180.918 723.569 179.522 723.961 177.648 723.961H169.444V708.759ZM176.902 720.92C177.762 720.92 178.393 720.796 178.795 720.548C179.216 720.28 179.426 719.859 179.426 719.285C179.426 718.712 179.225 718.301 178.824 718.052C178.441 717.784 177.801 717.651 176.902 717.651H173.23V720.92H176.902ZM176.529 714.84C177.409 714.84 178.011 714.715 178.336 714.467C178.68 714.218 178.852 713.836 178.852 713.319C178.852 712.822 178.68 712.449 178.336 712.201C177.992 711.933 177.39 711.799 176.529 711.799H173.23V714.84H176.529ZM185.943 708.759H189.729V718.511L196.498 708.759H199.998V723.961H196.212V714.208L189.442 723.961H185.943V708.759ZM207.15 711.914H202.303V708.759H215.784V711.914H210.936V723.961H207.15V711.914ZM218.072 708.759H221.858V713.864H225.099C229.02 713.864 230.98 715.547 230.98 718.913C230.98 719.658 230.865 720.347 230.635 720.978C230.425 721.59 230.081 722.116 229.603 722.555C229.125 722.995 228.513 723.339 227.767 723.588C227.021 723.837 226.132 723.961 225.099 723.961H218.072V708.759ZM224.669 720.92C225.587 720.92 226.237 720.758 226.62 720.433C227.002 720.089 227.193 719.582 227.193 718.913C227.193 718.243 226.993 717.746 226.591 717.421C226.209 717.077 225.568 716.905 224.669 716.905H221.858V720.92H224.669ZM248.051 724.305C246.961 724.305 245.938 724.133 244.982 723.789C244.045 723.426 243.232 722.842 242.544 722.039C241.855 721.217 241.31 720.146 240.909 718.827C240.507 717.488 240.306 715.853 240.306 713.922V713.348C240.306 711.55 240.507 710.03 240.909 708.787C241.31 707.544 241.855 706.54 242.544 705.775C243.232 704.991 244.045 704.427 244.982 704.083C245.938 703.72 246.961 703.538 248.051 703.538C249.141 703.538 250.154 703.72 251.091 704.083C252.048 704.427 252.87 704.991 253.558 705.775C254.247 706.54 254.792 707.544 255.193 708.787C255.595 710.03 255.796 711.55 255.796 713.348V713.922C255.796 715.853 255.595 717.488 255.193 718.827C254.792 720.146 254.247 721.217 253.558 722.039C252.87 722.842 252.048 723.426 251.091 723.789C250.154 724.133 249.141 724.305 248.051 724.305ZM248.051 720.691C248.529 720.691 248.978 720.595 249.399 720.404C249.82 720.213 250.183 719.869 250.489 719.372C250.814 718.855 251.063 718.157 251.235 717.278C251.407 716.398 251.493 715.279 251.493 713.922V713.348C251.493 712.124 251.407 711.12 251.235 710.336C251.063 709.533 250.814 708.902 250.489 708.443C250.183 707.965 249.82 707.63 249.399 707.439C248.978 707.248 248.529 707.152 248.051 707.152C247.554 707.152 247.095 707.248 246.674 707.439C246.273 707.63 245.909 707.965 245.584 708.443C245.278 708.902 245.039 709.533 244.867 710.336C244.695 711.12 244.609 712.124 244.609 713.348V713.922C244.609 715.279 244.695 716.398 244.867 717.278C245.039 718.157 245.278 718.855 245.584 719.372C245.909 719.869 246.273 720.213 246.674 720.404C247.095 720.595 247.554 720.691 248.051 720.691Z" fill="black"/>
<rect x="69.2305" y="683.779" width="214.727" height="59.3633" stroke="#DADADA" stroke-width="2"/>
<rect x="407.547" y="333.16" width="833.223" height="111.155" stroke="#EAC053" stroke-width="6"/>
</svg>
