<svg width="1551" height="974" viewBox="0 0 1551 974" fill="none" xmlns="http://www.w3.org/2000/svg">
<rect x="407.691" y="443.312" width="104.135" height="109.408" fill="#D0643B"/>
<path d="M453.81 504.959H458.399V492.797L453.81 496.067V491.879L458.657 488.437H462.702V504.959H466.43V508.516H453.81V504.959Z" fill="white"/>
<rect x="407.691" y="443.312" width="104.135" height="109.408" stroke="#D0643B" stroke-width="1.31816"/>
<rect x="511.826" y="443.312" width="104.135" height="109.408" fill="#F7F7F7"/>
<path d="M563.9 508.86C562.81 508.86 561.787 508.688 560.83 508.344C559.893 507.98 559.081 507.397 558.392 506.594C557.704 505.772 557.159 504.701 556.757 503.381C556.356 502.043 556.155 500.408 556.155 498.476V497.903C556.155 496.105 556.356 494.585 556.757 493.342C557.159 492.099 557.704 491.095 558.392 490.33C559.081 489.546 559.893 488.982 560.83 488.638C561.787 488.275 562.81 488.093 563.9 488.093C564.99 488.093 566.003 488.275 566.94 488.638C567.896 488.982 568.718 489.546 569.407 490.33C570.095 491.095 570.64 492.099 571.042 493.342C571.443 494.585 571.644 496.105 571.644 497.903V498.476C571.644 500.408 571.443 502.043 571.042 503.381C570.64 504.701 570.095 505.772 569.407 506.594C568.718 507.397 567.896 507.98 566.94 508.344C566.003 508.688 564.99 508.86 563.9 508.86ZM563.9 505.246C564.378 505.246 564.827 505.15 565.248 504.959C565.668 504.768 566.032 504.423 566.338 503.926C566.663 503.41 566.911 502.712 567.083 501.832C567.256 500.953 567.342 499.834 567.342 498.476V497.903C567.342 496.679 567.256 495.675 567.083 494.891C566.911 494.088 566.663 493.457 566.338 492.998C566.032 492.52 565.668 492.185 565.248 491.994C564.827 491.803 564.378 491.707 563.9 491.707C563.402 491.707 562.943 491.803 562.523 491.994C562.121 492.185 561.758 492.52 561.433 492.998C561.127 493.457 560.888 494.088 560.716 494.891C560.544 495.675 560.458 496.679 560.458 497.903V498.476C560.458 499.834 560.544 500.953 560.716 501.832C560.888 502.712 561.127 503.41 561.433 503.926C561.758 504.423 562.121 504.768 562.523 504.959C562.943 505.15 563.402 505.246 563.9 505.246Z" fill="black"/>
<rect x="511.826" y="443.312" width="104.135" height="109.408" stroke="#DADADA" stroke-width="2"/>
<rect x="615.961" y="443.312" width="104.135" height="109.408" fill="#D0643B"/>
<path d="M662.079 504.959H666.669V492.797L662.079 496.067V491.879L666.927 488.437H670.971V504.959H674.7V508.516H662.079V504.959Z" fill="white"/>
<rect x="615.961" y="443.312" width="104.135" height="109.408" stroke="#D0643B" stroke-width="1.31816"/>
<rect x="720.096" y="443.312" width="104.135" height="109.408" fill="#F7F7F7"/>
<rect x="720.096" y="443.312" width="104.135" height="109.408" stroke="#DADADA" stroke-width="2"/>
<rect x="824.23" y="443.312" width="104.135" height="109.408" fill="#F7F7F7"/>
<rect x="824.23" y="443.312" width="104.135" height="109.408" stroke="#DADADA" stroke-width="2"/>
<rect x="928.365" y="443.312" width="104.135" height="109.408" fill="#F7F7F7"/>
<rect x="928.365" y="443.312" width="104.135" height="109.408" stroke="#DADADA" stroke-width="2"/>
<rect x="1032.5" y="443.312" width="104.135" height="109.408" fill="#F7F7F7"/>
<rect x="1032.5" y="443.312" width="104.135" height="109.408" stroke="#DADADA" stroke-width="2"/>
<rect x="1136.63" y="443.312" width="104.135" height="109.408" fill="#F7F7F7"/>
<rect x="1136.63" y="443.312" width="104.135" height="109.408" stroke="#DADADA" stroke-width="2"/>
<rect x="407.547" y="333.904" width="104.135" height="109.408" fill="#F7F7F7"/>
<path d="M435.906 395.551H440.495V383.389L435.906 386.659V382.471L440.754 379.029H444.798V395.551H448.527V399.107H435.906V395.551ZM449.958 395.981L456.985 389.929C457.635 389.355 458.19 388.858 458.649 388.437C459.108 387.997 459.481 387.596 459.767 387.232C460.054 386.869 460.255 386.515 460.37 386.171C460.504 385.827 460.571 385.454 460.571 385.052C460.571 384.23 460.341 383.57 459.882 383.073C459.423 382.557 458.744 382.299 457.846 382.299C456.813 382.299 456 382.586 455.408 383.159C454.834 383.714 454.547 384.68 454.547 386.056H450.244C450.244 383.781 450.885 381.983 452.166 380.664C453.467 379.344 455.36 378.685 457.846 378.685C459.012 378.685 460.026 378.847 460.886 379.172C461.766 379.478 462.502 379.918 463.095 380.492C463.688 381.046 464.127 381.716 464.414 382.5C464.72 383.284 464.873 384.135 464.873 385.052C464.873 385.741 464.749 386.401 464.5 387.032C464.252 387.644 463.907 388.236 463.468 388.81C463.047 389.384 462.55 389.948 461.976 390.502C461.402 391.038 460.791 391.573 460.14 392.109L456.01 395.551H465.16V399.107H449.958V395.981ZM475.332 399.452C474.127 399.452 473.037 399.318 472.062 399.05C471.105 398.763 470.293 398.371 469.623 397.874C468.973 397.358 468.467 396.746 468.103 396.038C467.759 395.312 467.587 394.508 467.587 393.629C467.587 392.501 467.931 391.497 468.62 390.617C469.308 389.718 470.331 389.087 471.689 388.724C470.675 388.399 469.834 387.835 469.165 387.032C468.495 386.228 468.161 385.272 468.161 384.163C468.161 383.36 468.314 382.624 468.62 381.955C468.945 381.285 469.413 380.712 470.025 380.234C470.637 379.736 471.383 379.354 472.262 379.086C473.161 378.818 474.184 378.685 475.332 378.685C476.479 378.685 477.492 378.818 478.372 379.086C479.271 379.354 480.026 379.736 480.638 380.234C481.269 380.712 481.738 381.285 482.043 381.955C482.369 382.624 482.531 383.36 482.531 384.163C482.531 385.272 482.196 386.219 481.527 387.003C480.858 387.768 480.007 388.341 478.974 388.724C481.709 389.565 483.076 391.2 483.076 393.629C483.076 394.508 482.894 395.312 482.531 396.038C482.187 396.746 481.68 397.358 481.011 397.874C480.361 398.371 479.558 398.763 478.601 399.05C477.645 399.318 476.555 399.452 475.332 399.452ZM475.332 395.837C476.517 395.837 477.387 395.608 477.942 395.149C478.496 394.69 478.774 394.069 478.774 393.285C478.774 392.424 478.448 391.745 477.798 391.248C477.167 390.732 476.345 390.397 475.332 390.244C474.318 390.397 473.486 390.732 472.836 391.248C472.205 391.745 471.889 392.424 471.889 393.285C471.889 394.069 472.176 394.69 472.75 395.149C473.324 395.608 474.184 395.837 475.332 395.837ZM475.332 387.318C476.192 387.165 476.89 386.869 477.425 386.429C477.961 385.97 478.229 385.339 478.229 384.536C478.229 383.79 477.97 383.236 477.454 382.872C476.957 382.49 476.249 382.299 475.332 382.299C474.433 382.299 473.725 382.49 473.209 382.872C472.712 383.236 472.463 383.79 472.463 384.536C472.463 385.339 472.721 385.97 473.238 386.429C473.773 386.869 474.471 387.165 475.332 387.318Z" fill="black"/>
<rect x="407.547" y="333.904" width="104.135" height="109.408" stroke="#DADADA" stroke-width="2"/>
<rect x="511.682" y="333.904" width="104.135" height="109.408" fill="#F7F7F7"/>
<path d="M555.072 399.452C553.81 399.452 552.691 399.27 551.716 398.907C550.741 398.543 549.919 397.979 549.249 397.214C548.58 396.43 548.064 395.436 547.7 394.231C547.356 393.026 547.184 391.592 547.184 389.929V389.355C547.184 387.443 547.385 385.817 547.787 384.479C548.188 383.121 548.752 382.012 549.479 381.151C550.206 380.291 551.066 379.669 552.06 379.287C553.074 378.885 554.173 378.685 555.359 378.685C557.214 378.685 558.715 379.077 559.862 379.861C561.01 380.645 561.708 381.945 561.956 383.762H557.941C557.558 382.786 556.65 382.299 555.216 382.299C554.661 382.299 554.145 382.385 553.667 382.557C553.208 382.71 552.797 383.006 552.433 383.446C552.089 383.867 551.812 384.45 551.601 385.196C551.391 385.942 551.257 386.898 551.2 388.064C551.448 387.682 551.754 387.366 552.118 387.118C552.481 386.85 552.873 386.64 553.294 386.487C553.734 386.314 554.183 386.19 554.642 386.114C555.12 386.037 555.598 385.999 556.076 385.999C558.103 385.999 559.662 386.554 560.752 387.663C561.842 388.753 562.387 390.302 562.387 392.309V392.625C562.387 393.638 562.205 394.566 561.842 395.407C561.478 396.249 560.971 396.975 560.321 397.587C559.69 398.18 558.925 398.639 558.027 398.964C557.128 399.289 556.143 399.452 555.072 399.452ZM554.785 395.837C555.818 395.837 556.621 395.551 557.195 394.977C557.788 394.384 558.084 393.629 558.084 392.711V392.424C558.084 391.506 557.788 390.76 557.195 390.187C556.621 389.613 555.818 389.326 554.785 389.326C553.753 389.326 552.94 389.613 552.347 390.187C551.774 390.76 551.487 391.506 551.487 392.424V392.711C551.487 393.629 551.774 394.384 552.347 394.977C552.94 395.551 553.753 395.837 554.785 395.837ZM573.717 394.862H564.251V391.879L573.717 379.029H578.019V391.305H580.314V394.862H578.019V399.107H573.717V394.862ZM573.717 391.305V383.819L568.267 391.305H573.717Z" fill="black"/>
<rect x="511.682" y="333.904" width="104.135" height="109.408" stroke="#DADADA" stroke-width="2"/>
<rect x="615.816" y="333.904" width="104.135" height="109.408" fill="#F7F7F7"/>
<path d="M658.846 399.452C656.399 399.452 654.544 398.878 653.282 397.731C652.02 396.564 651.389 394.967 651.389 392.94H655.691C655.691 393.916 655.94 394.642 656.437 395.12C656.953 395.598 657.756 395.837 658.846 395.837C659.898 395.837 660.682 395.608 661.199 395.149C661.734 394.671 662.002 394.002 662.002 393.141C662.002 391.344 660.95 390.445 658.846 390.445H656.982V387.118H658.846C659.764 387.118 660.472 386.926 660.969 386.544C661.466 386.162 661.715 385.569 661.715 384.766C661.715 384.039 661.476 383.446 660.998 382.987C660.52 382.528 659.803 382.299 658.846 382.299C657.871 382.299 657.145 382.528 656.666 382.987C656.208 383.427 655.978 384.068 655.978 384.909H651.676C651.676 382.939 652.268 381.41 653.454 380.32C654.659 379.23 656.456 378.685 658.846 378.685C660.051 378.685 661.103 378.828 662.002 379.115C662.9 379.383 663.646 379.765 664.239 380.262C664.832 380.74 665.272 381.314 665.558 381.983C665.864 382.653 666.017 383.379 666.017 384.163C666.017 385.272 665.702 386.219 665.071 387.003C664.459 387.768 663.637 388.313 662.604 388.638C663.79 388.963 664.698 389.527 665.329 390.33C665.979 391.133 666.304 392.195 666.304 393.514C666.304 394.375 666.132 395.168 665.788 395.895C665.444 396.622 664.947 397.253 664.296 397.788C663.665 398.304 662.881 398.715 661.944 399.021C661.026 399.308 659.994 399.452 658.846 399.452ZM668.612 395.981L675.64 389.929C676.29 389.355 676.845 388.858 677.304 388.437C677.762 387.997 678.135 387.596 678.422 387.232C678.709 386.869 678.91 386.515 679.025 386.171C679.158 385.827 679.225 385.454 679.225 385.052C679.225 384.23 678.996 383.57 678.537 383.073C678.078 382.557 677.399 382.299 676.5 382.299C675.468 382.299 674.655 382.586 674.062 383.159C673.489 383.714 673.202 384.68 673.202 386.056H668.899C668.899 383.781 669.54 381.983 670.821 380.664C672.121 379.344 674.014 378.685 676.5 378.685C677.667 378.685 678.68 378.847 679.541 379.172C680.42 379.478 681.157 379.918 681.749 380.492C682.342 381.046 682.782 381.716 683.069 382.5C683.375 383.284 683.528 384.135 683.528 385.052C683.528 385.741 683.404 386.401 683.155 387.032C682.906 387.644 682.562 388.236 682.122 388.81C681.702 389.384 681.204 389.948 680.631 390.502C680.057 391.038 679.445 391.573 678.795 392.109L674.665 395.551H683.815V399.107H668.612V395.981Z" fill="black"/>
<rect x="615.816" y="333.904" width="104.135" height="109.408" stroke="#DADADA" stroke-width="2"/>
<rect x="719.951" y="333.904" width="104.135" height="109.408" fill="#F7F7F7"/>
<path d="M756.81 395.551H761.4V383.389L756.81 386.659V382.471L761.658 379.029H765.702V395.551H769.431V399.107H756.81V395.551ZM779.324 399.452C778.062 399.452 776.943 399.27 775.968 398.907C774.992 398.543 774.17 397.979 773.501 397.214C772.832 396.43 772.315 395.436 771.952 394.231C771.608 393.026 771.436 391.592 771.436 389.929V389.355C771.436 387.443 771.636 385.817 772.038 384.479C772.44 383.121 773.004 382.012 773.73 381.151C774.457 380.291 775.317 379.669 776.312 379.287C777.325 378.885 778.425 378.685 779.61 378.685C781.465 378.685 782.966 379.077 784.114 379.861C785.261 380.645 785.959 381.945 786.208 383.762H782.192C781.81 382.786 780.901 382.299 779.467 382.299C778.912 382.299 778.396 382.385 777.918 382.557C777.459 382.71 777.048 383.006 776.685 383.446C776.341 383.867 776.063 384.45 775.853 385.196C775.643 385.942 775.509 386.898 775.451 388.064C775.7 387.682 776.006 387.366 776.369 387.118C776.733 386.85 777.125 386.64 777.545 386.487C777.985 386.314 778.434 386.19 778.893 386.114C779.371 386.037 779.849 385.999 780.328 385.999C782.355 385.999 783.913 386.554 785.003 387.663C786.093 388.753 786.638 390.302 786.638 392.309V392.625C786.638 393.638 786.456 394.566 786.093 395.407C785.73 396.249 785.223 396.975 784.573 397.587C783.942 398.18 783.177 398.639 782.278 398.964C781.379 399.289 780.394 399.452 779.324 399.452ZM779.037 395.837C780.069 395.837 780.873 395.551 781.446 394.977C782.039 394.384 782.335 393.629 782.335 392.711V392.424C782.335 391.506 782.039 390.76 781.446 390.187C780.873 389.613 780.069 389.326 779.037 389.326C778.004 389.326 777.191 389.613 776.599 390.187C776.025 390.76 775.738 391.506 775.738 392.424V392.711C775.738 393.629 776.025 394.384 776.599 394.977C777.191 395.551 778.004 395.837 779.037 395.837Z" fill="black"/>
<rect x="719.951" y="333.904" width="104.135" height="109.408" stroke="#DADADA" stroke-width="2"/>
<rect x="824.086" y="333.904" width="104.135" height="109.408" fill="#F7F7F7"/>
<path d="M875.69 399.452C874.485 399.452 873.395 399.318 872.42 399.05C871.464 398.763 870.651 398.371 869.982 397.874C869.331 397.358 868.825 396.746 868.461 396.038C868.117 395.312 867.945 394.508 867.945 393.629C867.945 392.501 868.289 391.497 868.978 390.617C869.666 389.718 870.689 389.087 872.047 388.724C871.033 388.399 870.192 387.835 869.523 387.032C868.853 386.228 868.519 385.272 868.519 384.163C868.519 383.36 868.672 382.624 868.978 381.955C869.303 381.285 869.771 380.712 870.383 380.234C870.995 379.736 871.741 379.354 872.621 379.086C873.519 378.818 874.542 378.685 875.69 378.685C876.837 378.685 877.85 378.818 878.73 379.086C879.629 379.354 880.384 379.736 880.996 380.234C881.627 380.712 882.096 381.285 882.402 381.955C882.727 382.624 882.889 383.36 882.889 384.163C882.889 385.272 882.555 386.219 881.885 387.003C881.216 387.768 880.365 388.341 879.332 388.724C882.067 389.565 883.434 391.2 883.434 393.629C883.434 394.508 883.253 395.312 882.889 396.038C882.545 396.746 882.038 397.358 881.369 397.874C880.719 398.371 879.916 398.763 878.96 399.05C878.003 399.318 876.913 399.452 875.69 399.452ZM875.69 395.837C876.875 395.837 877.745 395.608 878.3 395.149C878.854 394.69 879.132 394.069 879.132 393.285C879.132 392.424 878.807 391.745 878.156 391.248C877.525 390.732 876.703 390.397 875.69 390.244C874.676 390.397 873.844 390.732 873.194 391.248C872.563 391.745 872.248 392.424 872.248 393.285C872.248 394.069 872.534 394.69 873.108 395.149C873.682 395.608 874.542 395.837 875.69 395.837ZM875.69 387.318C876.55 387.165 877.248 386.869 877.784 386.429C878.319 385.97 878.587 385.339 878.587 384.536C878.587 383.79 878.329 383.236 877.812 382.872C877.315 382.49 876.608 382.299 875.69 382.299C874.791 382.299 874.083 382.49 873.567 382.872C873.07 383.236 872.821 383.79 872.821 384.536C872.821 385.339 873.079 385.97 873.596 386.429C874.131 386.869 874.829 387.165 875.69 387.318Z" fill="black"/>
<rect x="824.086" y="333.904" width="104.135" height="109.408" stroke="#DADADA" stroke-width="2"/>
<rect x="928.221" y="333.904" width="104.135" height="109.408" fill="#F7F7F7"/>
<path d="M980.828 394.862H971.363V391.879L980.828 379.029H985.131V391.305H987.426V394.862H985.131V399.107H980.828V394.862ZM980.828 391.305V383.819L975.378 391.305H980.828Z" fill="black"/>
<rect x="928.221" y="333.904" width="104.135" height="109.408" stroke="#DADADA" stroke-width="2"/>
<rect x="1032.36" y="333.904" width="104.135" height="109.408" fill="#F7F7F7"/>
<path d="M1076.28 395.981L1083.31 389.929C1083.96 389.355 1084.52 388.858 1084.98 388.437C1085.43 387.997 1085.81 387.596 1086.09 387.232C1086.38 386.869 1086.58 386.515 1086.7 386.171C1086.83 385.827 1086.9 385.454 1086.9 385.052C1086.9 384.23 1086.67 383.57 1086.21 383.073C1085.75 382.557 1085.07 382.299 1084.17 382.299C1083.14 382.299 1082.33 382.586 1081.73 383.159C1081.16 383.714 1080.87 384.68 1080.87 386.056H1076.57C1076.57 383.781 1077.21 381.983 1078.49 380.664C1079.79 379.344 1081.69 378.685 1084.17 378.685C1085.34 378.685 1086.35 378.847 1087.21 379.172C1088.09 379.478 1088.83 379.918 1089.42 380.492C1090.01 381.046 1090.45 381.716 1090.74 382.5C1091.05 383.284 1091.2 384.135 1091.2 385.052C1091.2 385.741 1091.08 386.401 1090.83 387.032C1090.58 387.644 1090.23 388.236 1089.79 388.81C1089.37 389.384 1088.88 389.948 1088.3 390.502C1087.73 391.038 1087.12 391.573 1086.47 392.109L1082.34 395.551H1091.49V399.107H1076.28V395.981Z" fill="black"/>
<rect x="1032.36" y="333.904" width="104.135" height="109.408" stroke="#DADADA" stroke-width="2"/>
<rect x="1136.49" y="333.904" width="104.135" height="109.408" fill="#F7F7F7"/>
<path d="M1182.35 395.551H1186.94V383.389L1182.35 386.659V382.471L1187.2 379.029H1191.24V395.551H1194.97V399.107H1182.35V395.551Z" fill="black"/>
<rect x="1136.49" y="333.904" width="104.135" height="109.408" stroke="#DADADA" stroke-width="2"/>
<path d="M910.181 150.684V149.184H909.82L909.498 149.348L910.181 150.684ZM1376.44 150.684H1377.94V149.184H1376.44V150.684ZM1376.44 681.43L1385.1 666.43H1367.78L1376.44 681.43ZM776.129 219.17L775.447 220.505L776.129 220.854L776.812 220.505L776.129 219.17ZM910.181 152.184H1376.44V149.184H910.181V152.184ZM1374.94 150.684V667.93H1377.94V150.684H1374.94ZM909.498 149.348L775.447 217.834L776.812 220.505L910.863 152.019L909.498 149.348ZM776.812 217.834L642.761 149.348L641.396 152.019L775.447 220.505L776.812 217.834Z" fill="black"/>
<path d="M782.137 232.281L619.815 151.121L782.137 69.9603L944.458 151.121L782.137 232.281Z" fill="white" stroke="black" stroke-width="3"/>
<path d="M1376.44 814.521L1385.1 799.521L1367.78 799.521L1376.44 814.521ZM1374.94 743.885L1374.94 801.021L1377.94 801.021L1377.94 743.885L1374.94 743.885Z" fill="black"/>
<path d="M666.332 714.205V715.705H664.832V714.205H666.332ZM666.332 556.22L674.992 571.22H657.672L666.332 556.22ZM1284.3 715.705H666.332V712.705H1284.3V715.705ZM664.832 714.205V569.72H667.832V714.205H664.832Z" fill="black"/>
<rect x="1271.08" y="684.521" width="210.727" height="59.3633" fill="#F3F3F3"/>
<path d="M1298.02 721.146H1300.25C1300.54 720.477 1300.78 719.674 1300.97 718.737C1301.16 717.781 1301.32 716.777 1301.43 715.725C1301.55 714.654 1301.63 713.564 1301.69 712.455C1301.75 711.327 1301.77 710.247 1301.77 709.214V704.625H1315.92V721.146H1318.1V728.432H1314.25V724.703H1301.86V728.432H1298.02V721.146ZM1311.61 721.146V708.181H1305.85V709.788C1305.85 712.407 1305.72 714.616 1305.47 716.414C1305.23 718.211 1304.87 719.789 1304.41 721.146H1311.61ZM1327.42 725.047C1326.39 725.047 1325.4 724.894 1324.47 724.588C1323.55 724.263 1322.75 723.776 1322.06 723.126C1321.37 722.475 1320.82 721.663 1320.42 720.687C1320.02 719.712 1319.82 718.565 1319.82 717.245V716.672C1319.82 715.429 1320.02 714.339 1320.42 713.402C1320.82 712.465 1321.37 711.681 1322.06 711.05C1322.75 710.419 1323.55 709.95 1324.47 709.644C1325.4 709.319 1326.39 709.157 1327.42 709.157C1328.45 709.157 1329.43 709.319 1330.35 709.644C1331.26 709.95 1332.07 710.419 1332.76 711.05C1333.46 711.681 1334.02 712.465 1334.42 713.402C1334.82 714.339 1335.02 715.429 1335.02 716.672V717.245C1335.02 718.546 1334.82 719.683 1334.42 720.659C1334.02 721.634 1333.46 722.447 1332.76 723.097C1332.07 723.747 1331.26 724.235 1330.35 724.56C1329.43 724.885 1328.45 725.047 1327.42 725.047ZM1327.42 721.835C1328.49 721.835 1329.38 721.452 1330.09 720.687C1330.82 719.923 1331.18 718.775 1331.18 717.245V716.672C1331.18 715.276 1330.82 714.214 1330.09 713.488C1329.38 712.742 1328.49 712.369 1327.42 712.369C1326.33 712.369 1325.43 712.742 1324.72 713.488C1324.02 714.214 1323.66 715.276 1323.66 716.672V717.245C1323.66 718.794 1324.02 719.951 1324.72 720.716C1325.43 721.462 1326.33 721.835 1327.42 721.835ZM1344.62 725.047C1343.55 725.047 1342.55 724.866 1341.64 724.502C1340.74 724.139 1339.95 723.594 1339.29 722.867C1338.62 722.122 1338.09 721.213 1337.71 720.142C1337.34 719.052 1337.16 717.79 1337.16 716.356V715.696C1337.16 713.975 1337.29 712.446 1337.54 711.107C1337.8 709.768 1338.23 708.631 1338.83 707.694C1339.44 706.757 1340.24 706.03 1341.24 705.514C1342.25 704.978 1343.51 704.672 1345.02 704.596C1345.61 704.577 1346.2 704.558 1346.77 704.538C1347.35 704.519 1347.89 704.491 1348.41 704.452C1348.92 704.414 1349.39 704.357 1349.81 704.28C1350.23 704.185 1350.61 704.06 1350.93 703.907V707.263C1350.62 707.436 1350.05 707.579 1349.21 707.694C1348.39 707.808 1347.13 707.875 1345.45 707.894C1344.59 707.914 1343.85 708.019 1343.21 708.21C1342.6 708.382 1342.09 708.669 1341.67 709.071C1341.26 709.453 1340.94 709.96 1340.69 710.591C1340.46 711.222 1340.3 711.996 1340.2 712.914C1340.64 712.054 1341.3 711.356 1342.18 710.82C1343.06 710.285 1344.21 710.017 1345.62 710.017C1346.58 710.017 1347.45 710.17 1348.23 710.476C1349.02 710.763 1349.7 711.193 1350.27 711.767C1350.84 712.34 1351.28 713.048 1351.59 713.889C1351.92 714.731 1352.08 715.706 1352.08 716.815V717.36C1352.08 718.565 1351.89 719.645 1351.5 720.601C1351.14 721.557 1350.62 722.37 1349.96 723.039C1349.29 723.69 1348.49 724.187 1347.57 724.531C1346.68 724.875 1345.69 725.047 1344.62 725.047ZM1344.62 721.835C1345.77 721.835 1346.66 721.462 1347.29 720.716C1347.92 719.951 1348.23 718.871 1348.23 717.475V716.901C1348.23 715.696 1347.91 714.75 1347.26 714.061C1346.61 713.373 1345.73 713.029 1344.62 713.029C1343.53 713.029 1342.65 713.373 1341.98 714.061C1341.33 714.75 1341.01 715.696 1341.01 716.901V717.417C1341.01 718.106 1341.09 718.727 1341.26 719.282C1341.46 719.836 1341.71 720.305 1342.04 720.687C1342.36 721.051 1342.75 721.338 1343.19 721.548C1343.63 721.739 1344.1 721.835 1344.62 721.835ZM1359.36 725.047C1358.53 725.047 1357.81 724.933 1357.18 724.703C1356.54 724.455 1356.01 724.12 1355.57 723.699C1355.13 723.259 1354.8 722.753 1354.57 722.179C1354.34 721.586 1354.22 720.946 1354.22 720.257C1354.22 717.198 1356.04 715.668 1359.67 715.668H1364.2V714.951C1364.2 713.956 1363.97 713.258 1363.51 712.857C1363.08 712.455 1362.37 712.254 1361.39 712.254C1360.53 712.254 1359.91 712.407 1359.53 712.713C1359.15 713 1358.93 713.364 1358.87 713.803H1355.08C1355.12 713.153 1355.28 712.541 1355.57 711.968C1355.88 711.394 1356.3 710.906 1356.83 710.505C1357.39 710.084 1358.06 709.759 1358.84 709.529C1359.62 709.281 1360.52 709.157 1361.54 709.157C1362.51 709.157 1363.39 709.262 1364.17 709.472C1364.98 709.682 1365.66 710.027 1366.21 710.505C1366.78 710.964 1367.22 711.566 1367.53 712.312C1367.84 713.058 1367.99 713.956 1367.99 715.008V720.831C1367.99 721.634 1368 722.342 1368.02 722.953C1368.06 723.546 1368.11 724.129 1368.19 724.703H1364.66C1364.59 724.282 1364.54 723.967 1364.52 723.757C1364.52 723.527 1364.52 723.192 1364.52 722.753C1364.1 723.365 1363.46 723.9 1362.6 724.359C1361.76 724.818 1360.68 725.047 1359.36 725.047ZM1360.53 722.122C1360.99 722.122 1361.44 722.064 1361.88 721.949C1362.32 721.816 1362.71 721.624 1363.06 721.376C1363.4 721.108 1363.68 720.773 1363.89 720.372C1364.1 719.97 1364.2 719.502 1364.2 718.966V718.249H1360.39C1359.66 718.249 1359.09 718.421 1358.67 718.766C1358.27 719.091 1358.06 719.54 1358.06 720.114C1358.06 720.726 1358.28 721.213 1358.7 721.577C1359.12 721.94 1359.73 722.122 1360.53 722.122ZM1371.29 709.501H1378.92C1379.9 709.501 1380.73 709.606 1381.42 709.816C1382.13 710.008 1382.71 710.285 1383.17 710.648C1383.63 711.011 1383.96 711.442 1384.17 711.939C1384.38 712.436 1384.49 712.981 1384.49 713.574C1384.49 714.281 1384.27 714.951 1383.83 715.582C1383.41 716.194 1382.82 716.605 1382.08 716.815C1383.02 717.045 1383.74 717.484 1384.26 718.135C1384.79 718.766 1385.06 719.511 1385.06 720.372C1385.06 721.691 1384.6 722.743 1383.69 723.527C1382.77 724.311 1381.37 724.703 1379.5 724.703H1371.29V709.501ZM1378.75 721.663C1379.61 721.663 1380.24 721.538 1380.64 721.29C1381.07 721.022 1381.28 720.601 1381.28 720.028C1381.28 719.454 1381.07 719.043 1380.67 718.794C1380.29 718.527 1379.65 718.393 1378.75 718.393H1375.08V721.663H1378.75ZM1378.38 715.582C1379.26 715.582 1379.86 715.457 1380.19 715.209C1380.53 714.96 1380.7 714.578 1380.7 714.061C1380.7 713.564 1380.53 713.191 1380.19 712.943C1379.84 712.675 1379.24 712.541 1378.38 712.541H1375.08V715.582H1378.38ZM1387.79 709.501H1391.58V719.253L1398.35 709.501H1401.85V724.703H1398.06V714.951L1391.29 724.703H1387.79V709.501ZM1409 712.656H1404.15V709.501H1417.63V712.656H1412.79V724.703H1409V712.656ZM1419.92 709.501H1423.71V714.606H1426.95C1430.87 714.606 1432.83 716.289 1432.83 719.655C1432.83 720.401 1432.71 721.089 1432.49 721.72C1432.27 722.332 1431.93 722.858 1431.45 723.298C1430.97 723.737 1430.36 724.082 1429.62 724.33C1428.87 724.579 1427.98 724.703 1426.95 724.703H1419.92V709.501ZM1426.52 721.663C1427.44 721.663 1428.09 721.5 1428.47 721.175C1428.85 720.831 1429.04 720.324 1429.04 719.655C1429.04 718.986 1428.84 718.488 1428.44 718.163C1428.06 717.819 1427.42 717.647 1426.52 717.647H1423.71V721.663H1426.52ZM1442.01 721.146H1446.6V708.984L1442.01 712.254V708.067L1446.86 704.625H1450.9V721.146H1454.63V724.703H1442.01V721.146Z" fill="black"/>
<rect x="1271.08" y="684.521" width="210.727" height="59.3633" stroke="#DADADA" stroke-width="2"/>
<rect x="1277.58" y="814.521" width="197.727" height="59.3633" fill="#F3F3F3"/>
<path d="M1314.02 850.458H1304.55V847.475L1314.02 834.625H1318.32V846.901H1320.61V850.458H1318.32V854.703H1314.02V850.458ZM1314.02 846.901V839.415L1308.57 846.901H1314.02ZM1331.17 855.047C1330.08 855.047 1329.05 854.875 1328.1 854.531C1327.16 854.168 1326.35 853.584 1325.66 852.781C1324.97 851.959 1324.43 850.888 1324.03 849.569C1323.62 848.23 1323.42 846.595 1323.42 844.664V844.09C1323.42 842.293 1323.62 840.772 1324.03 839.529C1324.43 838.286 1324.97 837.283 1325.66 836.518C1326.35 835.734 1327.16 835.17 1328.1 834.825C1329.05 834.462 1330.08 834.28 1331.17 834.28C1332.26 834.28 1333.27 834.462 1334.21 834.825C1335.16 835.17 1335.99 835.734 1336.68 836.518C1337.36 837.283 1337.91 838.286 1338.31 839.529C1338.71 840.772 1338.91 842.293 1338.91 844.09V844.664C1338.91 846.595 1338.71 848.23 1338.31 849.569C1337.91 850.888 1337.36 851.959 1336.68 852.781C1335.99 853.584 1335.16 854.168 1334.21 854.531C1333.27 854.875 1332.26 855.047 1331.17 855.047ZM1331.17 851.433C1331.65 851.433 1332.1 851.338 1332.52 851.146C1332.94 850.955 1333.3 850.611 1333.61 850.114C1333.93 849.597 1334.18 848.899 1334.35 848.02C1334.52 847.14 1334.61 846.022 1334.61 844.664V844.09C1334.61 842.866 1334.52 841.862 1334.35 841.078C1334.18 840.275 1333.93 839.644 1333.61 839.185C1333.3 838.707 1332.94 838.373 1332.52 838.181C1332.1 837.99 1331.65 837.894 1331.17 837.894C1330.67 837.894 1330.21 837.99 1329.79 838.181C1329.39 838.373 1329.03 838.707 1328.7 839.185C1328.4 839.644 1328.16 840.275 1327.98 841.078C1327.81 841.862 1327.73 842.866 1327.73 844.09V844.664C1327.73 846.022 1327.81 847.14 1327.98 848.02C1328.16 848.899 1328.4 849.597 1328.7 850.114C1329.03 850.611 1329.39 850.955 1329.79 851.146C1330.21 851.338 1330.67 851.433 1331.17 851.433ZM1348.37 844.893H1357.55V848.45H1348.37V844.893ZM1374.04 855.047C1371.59 855.047 1369.73 854.474 1368.47 853.326C1367.21 852.16 1366.58 850.563 1366.58 848.536H1370.88C1370.88 849.511 1371.13 850.238 1371.63 850.716C1372.14 851.194 1372.95 851.433 1374.04 851.433C1375.09 851.433 1375.87 851.204 1376.39 850.745C1376.92 850.267 1377.19 849.597 1377.19 848.737C1377.19 846.939 1376.14 846.041 1374.04 846.041H1372.17V842.713H1374.04C1374.95 842.713 1375.66 842.522 1376.16 842.14C1376.66 841.757 1376.9 841.164 1376.9 840.361C1376.9 839.635 1376.67 839.042 1376.19 838.583C1375.71 838.124 1374.99 837.894 1374.04 837.894C1373.06 837.894 1372.33 838.124 1371.86 838.583C1371.4 839.023 1371.17 839.663 1371.17 840.505H1366.87C1366.87 838.535 1367.46 837.005 1368.64 835.915C1369.85 834.825 1371.65 834.28 1374.04 834.28C1375.24 834.28 1376.29 834.424 1377.19 834.711C1378.09 834.978 1378.84 835.361 1379.43 835.858C1380.02 836.336 1380.46 836.91 1380.75 837.579C1381.05 838.248 1381.21 838.975 1381.21 839.759C1381.21 840.868 1380.89 841.815 1380.26 842.599C1379.65 843.364 1378.83 843.908 1377.79 844.234C1378.98 844.559 1379.89 845.123 1380.52 845.926C1381.17 846.729 1381.49 847.79 1381.49 849.11C1381.49 849.97 1381.32 850.764 1380.98 851.491C1380.63 852.217 1380.14 852.848 1379.49 853.384C1378.86 853.9 1378.07 854.311 1377.13 854.617C1376.22 854.904 1375.18 855.047 1374.04 855.047ZM1383.8 851.577L1390.83 845.524C1391.48 844.951 1392.03 844.453 1392.49 844.033C1392.95 843.593 1393.33 843.191 1393.61 842.828C1393.9 842.465 1394.1 842.111 1394.21 841.767C1394.35 841.423 1394.42 841.05 1394.42 840.648C1394.42 839.826 1394.19 839.166 1393.73 838.669C1393.27 838.153 1392.59 837.894 1391.69 837.894C1390.66 837.894 1389.85 838.181 1389.25 838.755C1388.68 839.31 1388.39 840.275 1388.39 841.652H1384.09C1384.09 839.376 1384.73 837.579 1386.01 836.26C1387.31 834.94 1389.2 834.28 1391.69 834.28C1392.86 834.28 1393.87 834.443 1394.73 834.768C1395.61 835.074 1396.35 835.514 1396.94 836.087C1397.53 836.642 1397.97 837.311 1398.26 838.095C1398.57 838.879 1398.72 839.73 1398.72 840.648C1398.72 841.337 1398.59 841.996 1398.35 842.627C1398.1 843.239 1397.75 843.832 1397.31 844.406C1396.89 844.979 1396.39 845.543 1395.82 846.098C1395.25 846.633 1394.64 847.169 1393.99 847.704L1389.85 851.146H1399V854.703H1383.8V851.577ZM1408.46 846.041H1422.51V849.597H1408.46V846.041ZM1408.46 839.157H1422.51V842.713H1408.46V839.157ZM1439.88 855.047C1438.67 855.047 1437.58 854.913 1436.61 854.646C1435.65 854.359 1434.84 853.967 1434.17 853.47C1433.52 852.953 1433.01 852.342 1432.65 851.634C1432.3 850.907 1432.13 850.104 1432.13 849.225C1432.13 848.096 1432.48 847.092 1433.16 846.213C1433.85 845.314 1434.88 844.683 1436.23 844.32C1435.22 843.995 1434.38 843.43 1433.71 842.627C1433.04 841.824 1432.71 840.868 1432.71 839.759C1432.71 838.956 1432.86 838.22 1433.16 837.55C1433.49 836.881 1433.96 836.307 1434.57 835.829C1435.18 835.332 1435.93 834.95 1436.81 834.682C1437.71 834.414 1438.73 834.28 1439.88 834.28C1441.02 834.28 1442.04 834.414 1442.92 834.682C1443.82 834.95 1444.57 835.332 1445.18 835.829C1445.81 836.307 1446.28 836.881 1446.59 837.55C1446.91 838.22 1447.08 838.956 1447.08 839.759C1447.08 840.868 1446.74 841.815 1446.07 842.599C1445.4 843.364 1444.55 843.937 1443.52 844.32C1446.25 845.161 1447.62 846.796 1447.62 849.225C1447.62 850.104 1447.44 850.907 1447.08 851.634C1446.73 852.342 1446.23 852.953 1445.56 853.47C1444.91 853.967 1444.1 854.359 1443.15 854.646C1442.19 854.913 1441.1 855.047 1439.88 855.047ZM1439.88 851.433C1441.06 851.433 1441.93 851.204 1442.49 850.745C1443.04 850.286 1443.32 849.664 1443.32 848.88C1443.32 848.02 1442.99 847.341 1442.34 846.844C1441.71 846.327 1440.89 845.993 1439.88 845.84C1438.86 845.993 1438.03 846.327 1437.38 846.844C1436.75 847.341 1436.43 848.02 1436.43 848.88C1436.43 849.664 1436.72 850.286 1437.3 850.745C1437.87 851.204 1438.73 851.433 1439.88 851.433ZM1439.88 842.914C1440.74 842.761 1441.44 842.465 1441.97 842.025C1442.51 841.566 1442.77 840.935 1442.77 840.132C1442.77 839.386 1442.52 838.831 1442 838.468C1441.5 838.086 1440.79 837.894 1439.88 837.894C1438.98 837.894 1438.27 838.086 1437.75 838.468C1437.26 838.831 1437.01 839.386 1437.01 840.132C1437.01 840.935 1437.27 841.566 1437.78 842.025C1438.32 842.465 1439.02 842.761 1439.88 842.914Z" fill="black"/>
<rect x="1277.58" y="814.521" width="197.727" height="59.3633" stroke="#DADADA" stroke-width="2"/>
<path d="M231.081 373.375H243.05V388.607H241.004V375.16H233.127V388.607H231.081V373.375ZM251.754 388.825C251.014 388.825 250.31 388.709 249.643 388.477C248.976 388.23 248.388 387.868 247.88 387.389C247.373 386.896 246.966 386.279 246.662 385.539C246.357 384.799 246.205 383.936 246.205 382.95V382.515C246.205 381.586 246.357 380.766 246.662 380.056C246.966 379.345 247.373 378.757 247.88 378.293C248.388 377.814 248.976 377.459 249.643 377.227C250.31 376.98 251.014 376.857 251.754 376.857C252.494 376.857 253.197 376.98 253.864 377.227C254.532 377.459 255.119 377.814 255.627 378.293C256.135 378.757 256.541 379.345 256.846 380.056C257.15 380.766 257.303 381.586 257.303 382.515V382.95C257.303 383.936 257.15 384.799 256.846 385.539C256.541 386.279 256.135 386.896 255.627 387.389C255.119 387.868 254.532 388.23 253.864 388.477C253.197 388.709 252.494 388.825 251.754 388.825ZM251.754 387.084C252.189 387.084 252.624 387.012 253.059 386.867C253.495 386.707 253.879 386.468 254.213 386.149C254.546 385.815 254.815 385.387 255.018 384.865C255.235 384.342 255.344 383.704 255.344 382.95V382.515C255.344 381.818 255.235 381.223 255.018 380.73C254.815 380.237 254.546 379.831 254.213 379.512C253.879 379.192 253.495 378.96 253.059 378.815C252.624 378.67 252.189 378.598 251.754 378.598C251.318 378.598 250.883 378.67 250.448 378.815C250.013 378.96 249.628 379.192 249.295 379.512C248.961 379.831 248.685 380.237 248.468 380.73C248.265 381.223 248.163 381.818 248.163 382.515V382.95C248.163 383.704 248.265 384.342 248.468 384.865C248.685 385.387 248.961 385.815 249.295 386.149C249.628 386.468 250.013 386.707 250.448 386.867C250.883 387.012 251.318 387.084 251.754 387.084ZM263.931 388.825C262.48 388.825 261.341 388.52 260.515 387.911C259.688 387.302 259.231 386.446 259.144 385.343H261.059C261.16 385.909 261.458 386.344 261.951 386.649C262.459 386.939 263.119 387.084 263.931 387.084C264.932 387.084 265.657 386.917 266.107 386.584C266.571 386.236 266.803 385.822 266.803 385.343C266.803 384.778 266.615 384.335 266.238 384.016C265.86 383.682 265.208 383.515 264.279 383.515H262.299V381.949H264.149C264.946 381.949 265.512 381.796 265.846 381.492C266.194 381.187 266.368 380.759 266.368 380.208C266.368 379.773 266.165 379.396 265.759 379.076C265.353 378.757 264.743 378.598 263.931 378.598C263.046 378.598 262.4 378.743 261.994 379.033C261.603 379.308 261.363 379.707 261.276 380.23H259.361C259.405 379.751 259.535 379.308 259.753 378.902C259.985 378.482 260.297 378.119 260.689 377.814C261.08 377.51 261.545 377.278 262.081 377.118C262.633 376.944 263.249 376.857 263.931 376.857C264.671 376.857 265.309 376.944 265.846 377.118C266.397 377.278 266.854 377.51 267.217 377.814C267.579 378.104 267.848 378.453 268.022 378.859C268.196 379.265 268.283 379.715 268.283 380.208C268.283 380.759 268.145 381.245 267.87 381.666C267.594 382.072 267.152 382.391 266.542 382.623C267.355 382.841 267.92 383.189 268.24 383.668C268.559 384.147 268.718 384.705 268.718 385.343C268.718 385.822 268.617 386.272 268.414 386.693C268.211 387.113 267.906 387.483 267.5 387.802C267.108 388.107 266.607 388.354 265.998 388.542C265.403 388.731 264.714 388.825 263.931 388.825ZM271.447 377.074H273.362V385.779L279.324 377.074H281.239V388.607H279.324V379.903L273.362 388.607H271.447V377.074ZM294.107 388.607H284.728V377.074H286.643V386.91H292.17V377.074H294.085V386.91H295.935V391.327H294.107V388.607ZM298.222 377.074H300.137V385.779L306.099 377.074H308.014V388.607H306.099V379.903L300.137 388.607H298.222V377.074ZM316.291 388.825C315.551 388.825 314.848 388.709 314.18 388.477C313.513 388.23 312.925 387.868 312.418 387.389C311.91 386.896 311.504 386.279 311.199 385.539C310.894 384.799 310.742 383.936 310.742 382.95V382.515C310.742 381.586 310.894 380.766 311.199 380.056C311.504 379.345 311.91 378.757 312.418 378.293C312.925 377.814 313.513 377.459 314.18 377.227C314.848 376.98 315.551 376.857 316.291 376.857C317.031 376.857 317.734 376.98 318.402 377.227C319.069 377.459 319.657 377.814 320.164 378.293C320.672 378.757 321.078 379.345 321.383 380.056C321.688 380.766 321.84 381.586 321.84 382.515V382.95C321.84 383.936 321.688 384.799 321.383 385.539C321.078 386.279 320.672 386.896 320.164 387.389C319.657 387.868 319.069 388.23 318.402 388.477C317.734 388.709 317.031 388.825 316.291 388.825ZM316.291 387.084C316.726 387.084 317.161 387.012 317.597 386.867C318.032 386.707 318.416 386.468 318.75 386.149C319.084 385.815 319.352 385.387 319.555 384.865C319.773 384.342 319.881 383.704 319.881 382.95V382.515C319.881 381.818 319.773 381.223 319.555 380.73C319.352 380.237 319.084 379.831 318.75 379.512C318.416 379.192 318.032 378.96 317.597 378.815C317.161 378.67 316.726 378.598 316.291 378.598C315.856 378.598 315.421 378.67 314.985 378.815C314.55 378.96 314.166 379.192 313.832 379.512C313.498 379.831 313.223 380.237 313.005 380.73C312.802 381.223 312.701 381.818 312.701 382.515V382.95C312.701 383.704 312.802 384.342 313.005 384.865C313.223 385.387 313.498 385.815 313.832 386.149C314.166 386.468 314.55 386.707 314.985 386.867C315.421 387.012 315.856 387.084 316.291 387.084ZM324.551 377.074H326.466V381.883H332.429V377.074H334.344V388.607H332.429V383.581H326.466V388.607H324.551V377.074ZM337.833 377.074H339.748V381.883H345.71V377.074H347.625V388.607H345.71V383.581H339.748V388.607H337.833V377.074ZM355.902 388.825C355.162 388.825 354.458 388.709 353.791 388.477C353.124 388.23 352.536 387.868 352.028 387.389C351.521 386.896 351.114 386.279 350.81 385.539C350.505 384.799 350.353 383.936 350.353 382.95V382.515C350.353 381.586 350.505 380.766 350.81 380.056C351.114 379.345 351.521 378.757 352.028 378.293C352.536 377.814 353.124 377.459 353.791 377.227C354.458 376.98 355.162 376.857 355.902 376.857C356.641 376.857 357.345 376.98 358.012 377.227C358.68 377.459 359.267 377.814 359.775 378.293C360.283 378.757 360.689 379.345 360.994 380.056C361.298 380.766 361.45 381.586 361.45 382.515V382.95C361.45 383.936 361.298 384.799 360.994 385.539C360.689 386.279 360.283 386.896 359.775 387.389C359.267 387.868 358.68 388.23 358.012 388.477C357.345 388.709 356.641 388.825 355.902 388.825ZM355.902 387.084C356.337 387.084 356.772 387.012 357.207 386.867C357.642 386.707 358.027 386.468 358.361 386.149C358.694 385.815 358.963 385.387 359.166 384.865C359.383 384.342 359.492 383.704 359.492 382.95V382.515C359.492 381.818 359.383 381.223 359.166 380.73C358.963 380.237 358.694 379.831 358.361 379.512C358.027 379.192 357.642 378.96 357.207 378.815C356.772 378.67 356.337 378.598 355.902 378.598C355.466 378.598 355.031 378.67 354.596 378.815C354.161 378.96 353.776 379.192 353.443 379.512C353.109 379.831 352.833 380.237 352.616 380.73C352.413 381.223 352.311 381.818 352.311 382.515V382.95C352.311 383.704 352.413 384.342 352.616 384.865C352.833 385.387 353.109 385.815 353.443 386.149C353.776 386.468 354.161 386.707 354.596 386.867C355.031 387.012 355.466 387.084 355.902 387.084ZM368.949 388.825C368.209 388.825 367.506 388.709 366.839 388.477C366.171 388.245 365.584 387.889 365.076 387.411C364.568 386.917 364.162 386.301 363.857 385.561C363.553 384.821 363.4 383.951 363.4 382.95V382.515C363.4 381.557 363.545 380.73 363.836 380.034C364.126 379.323 364.51 378.735 364.989 378.271C365.482 377.793 366.048 377.437 366.686 377.205C367.339 376.973 368.021 376.857 368.732 376.857C370.429 376.857 371.742 377.321 372.67 378.249C373.599 379.178 374.063 380.491 374.063 382.188V383.407H365.315C365.315 384.089 365.424 384.662 365.642 385.126C365.859 385.59 366.142 385.967 366.49 386.257C366.839 386.547 367.223 386.758 367.644 386.888C368.079 387.019 368.514 387.084 368.949 387.084C369.82 387.084 370.487 386.939 370.951 386.649C371.43 386.359 371.771 385.96 371.974 385.452H373.845C373.729 386.003 373.519 386.489 373.214 386.91C372.924 387.331 372.562 387.686 372.126 387.976C371.706 388.252 371.22 388.462 370.668 388.607C370.132 388.752 369.559 388.825 368.949 388.825ZM368.841 378.598C368.391 378.598 367.956 378.663 367.535 378.794C367.114 378.91 366.737 379.105 366.403 379.381C366.084 379.642 365.823 379.976 365.62 380.382C365.417 380.788 365.315 381.274 365.315 381.84H372.257C372.242 381.245 372.141 380.745 371.952 380.338C371.778 379.918 371.539 379.584 371.234 379.338C370.93 379.076 370.567 378.888 370.146 378.772C369.74 378.656 369.305 378.598 368.841 378.598ZM257.184 412.825C255.733 412.825 254.595 412.52 253.768 411.911C252.941 411.302 252.484 410.446 252.397 409.343H254.312C254.413 409.909 254.711 410.344 255.204 410.649C255.712 410.939 256.372 411.084 257.184 411.084C258.185 411.084 258.91 410.917 259.36 410.584C259.824 410.236 260.056 409.822 260.056 409.343C260.056 408.778 259.868 408.335 259.491 408.016C259.113 407.682 258.461 407.515 257.532 407.515H255.552V405.949H257.402C258.199 405.949 258.765 405.796 259.099 405.492C259.447 405.187 259.621 404.759 259.621 404.208C259.621 403.773 259.418 403.396 259.012 403.076C258.606 402.757 257.996 402.598 257.184 402.598C256.299 402.598 255.654 402.743 255.247 403.033C254.856 403.308 254.616 403.707 254.529 404.23H252.614C252.658 403.751 252.788 403.308 253.006 402.902C253.238 402.482 253.55 402.119 253.942 401.814C254.333 401.51 254.798 401.278 255.334 401.118C255.886 400.944 256.502 400.857 257.184 400.857C257.924 400.857 258.562 400.944 259.099 401.118C259.65 401.278 260.107 401.51 260.47 401.814C260.832 402.104 261.101 402.453 261.275 402.859C261.449 403.265 261.536 403.715 261.536 404.208C261.536 404.759 261.398 405.245 261.123 405.666C260.847 406.072 260.405 406.391 259.795 406.623C260.608 406.841 261.173 407.189 261.493 407.668C261.812 408.147 261.971 408.705 261.971 409.343C261.971 409.822 261.87 410.272 261.667 410.693C261.464 411.113 261.159 411.483 260.753 411.802C260.361 412.107 259.861 412.354 259.251 412.542C258.656 412.731 257.967 412.825 257.184 412.825ZM264.7 401.074H266.615V405.883H272.577V401.074H274.492V412.607H272.577V407.581H266.615V412.607H264.7V401.074ZM281.267 412.825C280.629 412.825 280.063 412.738 279.57 412.564C279.091 412.375 278.685 412.121 278.351 411.802C278.018 411.483 277.764 411.106 277.59 410.671C277.416 410.236 277.328 409.757 277.328 409.235C277.328 408.089 277.662 407.262 278.329 406.754C279.011 406.246 279.983 405.992 281.245 405.992H284.988V405.209C284.988 404.222 284.763 403.541 284.314 403.163C283.878 402.786 283.218 402.598 282.333 402.598C281.506 402.598 280.904 402.757 280.527 403.076C280.15 403.381 279.94 403.729 279.896 404.121H277.981C278.01 403.657 278.134 403.229 278.351 402.837C278.583 402.431 278.888 402.083 279.265 401.793C279.657 401.502 280.121 401.278 280.658 401.118C281.195 400.944 281.789 400.857 282.442 400.857C283.806 400.857 284.887 401.183 285.684 401.836C286.497 402.474 286.903 403.526 286.903 404.991V409.67C286.903 410.279 286.903 410.816 286.903 411.28C286.918 411.73 286.954 412.172 287.012 412.607H285.336C285.293 412.274 285.264 411.962 285.249 411.672C285.235 411.367 285.227 411.026 285.227 410.649C284.923 411.258 284.43 411.773 283.748 412.194C283.066 412.615 282.239 412.825 281.267 412.825ZM281.681 411.084C282.13 411.084 282.551 411.026 282.943 410.91C283.349 410.78 283.704 410.598 284.009 410.366C284.314 410.119 284.553 409.822 284.727 409.474C284.901 409.126 284.988 408.72 284.988 408.255V407.472H281.572C280.861 407.472 280.302 407.617 279.896 407.907C279.49 408.183 279.287 408.625 279.287 409.235C279.287 409.771 279.475 410.214 279.853 410.562C280.244 410.91 280.854 411.084 281.681 411.084ZM296.966 408.016C296.632 408.219 296.226 408.4 295.747 408.56C295.283 408.72 294.695 408.799 293.984 408.799C293.317 408.799 292.715 408.727 292.178 408.582C291.656 408.437 291.214 408.205 290.851 407.885C290.488 407.566 290.213 407.153 290.024 406.645C289.836 406.137 289.741 405.514 289.741 404.774V401.074H291.656V404.447C291.656 404.941 291.7 405.354 291.787 405.688C291.888 406.021 292.048 406.29 292.265 406.493C292.483 406.696 292.759 406.841 293.092 406.928C293.426 407.015 293.832 407.059 294.311 407.059C294.964 407.059 295.522 406.993 295.986 406.863C296.451 406.732 296.777 406.594 296.966 406.449V401.074H298.881V412.607H296.966V408.016ZM307.143 412.825C306.403 412.825 305.699 412.709 305.032 412.477C304.365 412.245 303.777 411.889 303.269 411.411C302.762 410.917 302.355 410.301 302.051 409.561C301.746 408.821 301.594 407.951 301.594 406.95V406.515C301.594 405.557 301.739 404.73 302.029 404.034C302.319 403.323 302.704 402.735 303.182 402.271C303.676 401.793 304.241 401.437 304.88 401.205C305.532 400.973 306.214 400.857 306.925 400.857C308.622 400.857 309.935 401.321 310.864 402.249C311.792 403.178 312.256 404.491 312.256 406.188V407.407H303.509C303.509 408.089 303.618 408.662 303.835 409.126C304.053 409.59 304.336 409.967 304.684 410.257C305.032 410.547 305.416 410.758 305.837 410.888C306.272 411.019 306.707 411.084 307.143 411.084C308.013 411.084 308.68 410.939 309.145 410.649C309.623 410.359 309.964 409.96 310.167 409.452H312.039C311.923 410.003 311.712 410.489 311.408 410.91C311.118 411.331 310.755 411.686 310.32 411.976C309.899 412.252 309.413 412.462 308.862 412.607C308.325 412.752 307.752 412.825 307.143 412.825ZM307.034 402.598C306.584 402.598 306.149 402.663 305.728 402.794C305.308 402.91 304.93 403.105 304.597 403.381C304.278 403.642 304.016 403.976 303.813 404.382C303.61 404.788 303.509 405.274 303.509 405.84H310.45C310.436 405.245 310.334 404.745 310.146 404.338C309.972 403.918 309.732 403.584 309.428 403.338C309.123 403.076 308.76 402.888 308.34 402.772C307.933 402.656 307.498 402.598 307.034 402.598ZM314.978 401.074H316.893V405.883H322.855V401.074H324.77V412.607H322.855V407.581H316.893V412.607H314.978V401.074ZM328.26 401.074H330.174V409.779L336.137 401.074H338.052V412.607H336.137V403.903L330.174 412.607H328.26V401.074ZM346.328 412.825C345.588 412.825 344.885 412.709 344.218 412.477C343.55 412.245 342.963 411.889 342.455 411.411C341.947 410.917 341.541 410.301 341.236 409.561C340.932 408.821 340.779 407.951 340.779 406.95V406.515C340.779 405.557 340.925 404.73 341.215 404.034C341.505 403.323 341.889 402.735 342.368 402.271C342.861 401.793 343.427 401.437 344.065 401.205C344.718 400.973 345.4 400.857 346.111 400.857C347.808 400.857 349.121 401.321 350.049 402.249C350.978 403.178 351.442 404.491 351.442 406.188V407.407H342.694C342.694 408.089 342.803 408.662 343.021 409.126C343.238 409.59 343.521 409.967 343.869 410.257C344.218 410.547 344.602 410.758 345.023 410.888C345.458 411.019 345.893 411.084 346.328 411.084C347.199 411.084 347.866 410.939 348.33 410.649C348.809 410.359 349.15 409.96 349.353 409.452H351.224C351.108 410.003 350.898 410.489 350.593 410.91C350.303 411.331 349.941 411.686 349.505 411.976C349.085 412.252 348.599 412.462 348.047 412.607C347.511 412.752 346.938 412.825 346.328 412.825ZM346.22 402.598C345.77 402.598 345.335 402.663 344.914 402.794C344.493 402.91 344.116 403.105 343.782 403.381C343.463 403.642 343.202 403.976 342.999 404.382C342.796 404.788 342.694 405.274 342.694 405.84H349.636C349.621 405.245 349.52 404.745 349.331 404.338C349.157 403.918 348.918 403.584 348.613 403.338C348.309 403.076 347.946 402.888 347.525 402.772C347.119 402.656 346.684 402.598 346.22 402.598Z" fill="black"/>
<path d="M303.024 107.916H319.948V127.994H315.645V111.472H307.327V127.994H303.024V107.916ZM323.963 112.792H327.492V115.029C327.874 114.341 328.476 113.738 329.299 113.222C330.121 112.706 331.163 112.448 332.425 112.448C334.452 112.448 336.03 113.079 337.158 114.341C338.305 115.584 338.879 117.458 338.879 119.963V120.536C338.879 123.156 338.296 125.116 337.129 126.417C335.982 127.698 334.414 128.338 332.425 128.338C331.393 128.338 330.475 128.118 329.672 127.679C328.888 127.22 328.247 126.627 327.75 125.9V133.731H323.963V112.792ZM331.536 125.126C332.53 125.126 333.362 124.753 334.031 124.007C334.701 123.242 335.035 122.085 335.035 120.536V119.963C335.035 118.529 334.71 117.458 334.06 116.75C333.41 116.023 332.569 115.66 331.536 115.66C330.446 115.66 329.538 115.976 328.811 116.607C328.104 117.219 327.75 118.146 327.75 119.389V121.11C327.75 122.468 328.094 123.481 328.782 124.151C329.49 124.801 330.408 125.126 331.536 125.126ZM341.611 112.792H345.397V122.544L352.166 112.792H355.666V127.994H351.879V118.242L345.11 127.994H341.611V112.792ZM359.118 112.792H363.592L367.809 120.995L372.025 112.792H376.328V127.994H372.714V118.098L369.014 124.982H366.432L362.732 118.098V127.994H359.118V112.792ZM386.646 128.338C385.614 128.338 384.629 128.185 383.692 127.879C382.774 127.554 381.971 127.076 381.282 126.445C380.594 125.795 380.049 124.982 379.647 124.007C379.246 123.013 379.045 121.856 379.045 120.536V119.963C379.045 118.701 379.236 117.601 379.619 116.664C380.001 115.727 380.527 114.953 381.196 114.341C381.866 113.71 382.64 113.241 383.52 112.935C384.399 112.61 385.346 112.448 386.359 112.448C388.75 112.448 390.566 113.079 391.809 114.341C393.052 115.603 393.674 117.429 393.674 119.819V121.426H382.917C382.937 122.095 383.051 122.678 383.262 123.175C383.472 123.653 383.749 124.045 384.093 124.351C384.438 124.657 384.83 124.887 385.269 125.04C385.728 125.174 386.187 125.241 386.646 125.241C387.622 125.241 388.358 125.097 388.855 124.81C389.352 124.523 389.706 124.103 389.916 123.548H393.387C393.081 125.135 392.326 126.33 391.121 127.134C389.916 127.937 388.425 128.338 386.646 128.338ZM386.503 115.545C386.063 115.545 385.623 115.603 385.183 115.718C384.763 115.832 384.39 116.014 384.065 116.263C383.74 116.511 383.472 116.846 383.262 117.266C383.051 117.687 382.937 118.194 382.917 118.787H390.002C389.983 118.156 389.878 117.63 389.687 117.209C389.515 116.788 389.266 116.454 388.941 116.205C388.635 115.957 388.272 115.784 387.851 115.689C387.43 115.593 386.981 115.545 386.503 115.545ZM396.401 112.792H399.929V115.029C400.312 114.341 400.914 113.738 401.736 113.222C402.558 112.706 403.601 112.448 404.863 112.448C406.89 112.448 408.467 113.079 409.596 114.341C410.743 115.584 411.317 117.458 411.317 119.963V120.536C411.317 123.156 410.733 125.116 409.567 126.417C408.419 127.698 406.851 128.338 404.863 128.338C403.83 128.338 402.912 128.118 402.109 127.679C401.325 127.22 400.684 126.627 400.187 125.9V133.731H396.401V112.792ZM403.973 125.126C404.968 125.126 405.8 124.753 406.469 124.007C407.138 123.242 407.473 122.085 407.473 120.536V119.963C407.473 118.529 407.148 117.458 406.498 116.75C405.848 116.023 405.006 115.66 403.973 115.66C402.884 115.66 401.975 115.976 401.249 116.607C400.541 117.219 400.187 118.146 400.187 119.389V121.11C400.187 122.468 400.531 123.481 401.22 124.151C401.927 124.801 402.845 125.126 403.973 125.126ZM416.773 128.338C416.104 128.338 415.53 128.099 415.052 127.621C414.574 127.143 414.335 126.57 414.335 125.9C414.335 125.193 414.574 124.609 415.052 124.151C415.53 123.692 416.104 123.462 416.773 123.462C417.442 123.462 418.016 123.692 418.494 124.151C418.972 124.609 419.211 125.193 419.211 125.9C419.211 126.57 418.972 127.143 418.494 127.621C418.016 128.099 417.442 128.338 416.773 128.338ZM416.773 117.324C416.104 117.324 415.53 117.085 415.052 116.607C414.574 116.129 414.335 115.555 414.335 114.886C414.335 114.178 414.574 113.595 415.052 113.136C415.53 112.677 416.104 112.448 416.773 112.448C417.442 112.448 418.016 112.677 418.494 113.136C418.972 113.595 419.211 114.178 419.211 114.886C419.211 115.555 418.972 116.129 418.494 116.607C418.016 117.085 417.442 117.324 416.773 117.324ZM429.668 124.437H434.258V112.275L429.668 115.545V111.358L434.516 107.916H438.56V124.437H442.289V127.994H429.668V124.437ZM451.321 128.338C449.409 128.338 447.87 127.927 446.703 127.105C445.537 126.283 444.829 125.001 444.581 123.261H448.596C448.788 123.759 449.094 124.131 449.514 124.38C449.954 124.609 450.604 124.724 451.465 124.724C451.981 124.724 452.459 124.648 452.899 124.495C453.358 124.323 453.759 124.026 454.104 123.606C454.448 123.166 454.725 122.573 454.935 121.827C455.146 121.081 455.28 120.125 455.337 118.959C455.088 119.341 454.782 119.666 454.419 119.934C454.056 120.183 453.654 120.393 453.214 120.565C452.794 120.718 452.344 120.833 451.866 120.909C451.407 120.986 450.939 121.024 450.461 121.024C448.434 121.024 446.875 120.479 445.785 119.389C444.695 118.28 444.15 116.721 444.15 114.714V114.398C444.15 113.385 444.332 112.457 444.695 111.616C445.059 110.774 445.556 110.057 446.187 109.464C446.837 108.853 447.612 108.384 448.51 108.059C449.409 107.734 450.394 107.571 451.465 107.571C454.008 107.571 455.959 108.317 457.316 109.809C458.674 111.3 459.353 113.729 459.353 117.094V117.639C459.353 119.571 459.152 121.215 458.75 122.573C458.349 123.911 457.785 125.011 457.058 125.872C456.351 126.732 455.5 127.363 454.505 127.765C453.53 128.147 452.469 128.338 451.321 128.338ZM451.752 117.697C452.784 117.697 453.587 117.41 454.161 116.836C454.754 116.263 455.05 115.517 455.05 114.599V114.312C455.05 113.413 454.744 112.667 454.132 112.075C453.54 111.482 452.746 111.185 451.752 111.185C450.719 111.185 449.906 111.482 449.313 112.075C448.74 112.648 448.453 113.394 448.453 114.312V114.599C448.453 115.517 448.74 116.263 449.313 116.836C449.906 117.41 450.719 117.697 451.752 117.697ZM461.647 124.868L468.675 118.815C469.325 118.242 469.88 117.745 470.339 117.324C470.798 116.884 471.17 116.482 471.457 116.119C471.744 115.756 471.945 115.402 472.06 115.058C472.193 114.714 472.26 114.341 472.26 113.939C472.26 113.117 472.031 112.457 471.572 111.96C471.113 111.444 470.434 111.185 469.535 111.185C468.503 111.185 467.69 111.472 467.097 112.046C466.524 112.601 466.237 113.566 466.237 114.943H461.934C461.934 112.667 462.575 110.87 463.856 109.551C465.156 108.231 467.05 107.571 469.535 107.571C470.702 107.571 471.715 107.734 472.576 108.059C473.456 108.365 474.192 108.805 474.785 109.378C475.377 109.933 475.817 110.602 476.104 111.386C476.41 112.17 476.563 113.021 476.563 113.939C476.563 114.628 476.439 115.287 476.19 115.918C475.941 116.53 475.597 117.123 475.157 117.697C474.737 118.27 474.24 118.834 473.666 119.389C473.092 119.924 472.48 120.46 471.83 120.995L467.7 124.437H476.85V127.994H461.647V124.868ZM482.432 128.338C481.763 128.338 481.189 128.099 480.711 127.621C480.233 127.143 479.994 126.57 479.994 125.9C479.994 125.193 480.233 124.609 480.711 124.151C481.189 123.692 481.763 123.462 482.432 123.462C483.101 123.462 483.675 123.692 484.153 124.151C484.631 124.609 484.87 125.193 484.87 125.9C484.87 126.57 484.631 127.143 484.153 127.621C483.675 128.099 483.101 128.338 482.432 128.338ZM488.156 124.437H492.746V112.275L488.156 115.545V111.358L493.004 107.916H497.048V124.437H500.777V127.994H488.156V124.437ZM510.67 128.338C509.408 128.338 508.289 128.157 507.314 127.793C506.338 127.43 505.516 126.866 504.847 126.101C504.178 125.317 503.661 124.323 503.298 123.118C502.954 121.913 502.782 120.479 502.782 118.815V118.242C502.782 116.329 502.982 114.704 503.384 113.365C503.786 112.008 504.35 110.899 505.076 110.038C505.803 109.178 506.663 108.556 507.658 108.174C508.671 107.772 509.771 107.571 510.956 107.571C512.811 107.571 514.312 107.963 515.46 108.747C516.607 109.531 517.305 110.832 517.554 112.648H513.538C513.156 111.673 512.247 111.185 510.813 111.185C510.259 111.185 509.742 111.272 509.264 111.444C508.805 111.597 508.394 111.893 508.031 112.333C507.687 112.754 507.409 113.337 507.199 114.083C506.989 114.828 506.855 115.784 506.797 116.951C507.046 116.568 507.352 116.253 507.715 116.004C508.079 115.737 508.471 115.526 508.891 115.373C509.331 115.201 509.78 115.077 510.239 115C510.717 114.924 511.196 114.886 511.674 114.886C513.701 114.886 515.259 115.44 516.349 116.549C517.439 117.639 517.984 119.188 517.984 121.196V121.512C517.984 122.525 517.802 123.453 517.439 124.294C517.076 125.135 516.569 125.862 515.919 126.474C515.288 127.067 514.523 127.526 513.624 127.851C512.725 128.176 511.74 128.338 510.67 128.338ZM510.383 124.724C511.415 124.724 512.219 124.437 512.792 123.864C513.385 123.271 513.681 122.516 513.681 121.598V121.311C513.681 120.393 513.385 119.647 512.792 119.074C512.219 118.5 511.415 118.213 510.383 118.213C509.35 118.213 508.537 118.5 507.945 119.074C507.371 119.647 507.084 120.393 507.084 121.311V121.598C507.084 122.516 507.371 123.271 507.945 123.864C508.537 124.437 509.35 124.724 510.383 124.724ZM528.31 128.338C527.105 128.338 526.015 128.204 525.04 127.937C524.084 127.65 523.271 127.258 522.602 126.761C521.952 126.244 521.445 125.633 521.082 124.925C520.738 124.198 520.566 123.395 520.566 122.516C520.566 121.387 520.91 120.383 521.598 119.504C522.287 118.605 523.31 117.974 524.667 117.611C523.654 117.286 522.812 116.721 522.143 115.918C521.474 115.115 521.139 114.159 521.139 113.05C521.139 112.247 521.292 111.511 521.598 110.841C521.923 110.172 522.392 109.598 523.004 109.12C523.616 108.623 524.361 108.241 525.241 107.973C526.14 107.705 527.163 107.571 528.31 107.571C529.457 107.571 530.471 107.705 531.351 107.973C532.249 108.241 533.005 108.623 533.617 109.12C534.248 109.598 534.716 110.172 535.022 110.841C535.347 111.511 535.51 112.247 535.51 113.05C535.51 114.159 535.175 115.106 534.506 115.89C533.837 116.655 532.986 117.228 531.953 117.611C534.687 118.452 536.055 120.087 536.055 122.516C536.055 123.395 535.873 124.198 535.51 124.925C535.166 125.633 534.659 126.244 533.989 126.761C533.339 127.258 532.536 127.65 531.58 127.937C530.624 128.204 529.534 128.338 528.31 128.338ZM528.31 124.724C529.496 124.724 530.366 124.495 530.92 124.036C531.475 123.577 531.752 122.955 531.752 122.171C531.752 121.311 531.427 120.632 530.777 120.135C530.146 119.619 529.324 119.284 528.31 119.131C527.297 119.284 526.465 119.619 525.815 120.135C525.184 120.632 524.868 121.311 524.868 122.171C524.868 122.955 525.155 123.577 525.729 124.036C526.302 124.495 527.163 124.724 528.31 124.724ZM528.31 116.205C529.171 116.052 529.869 115.756 530.404 115.316C530.939 114.857 531.207 114.226 531.207 113.423C531.207 112.677 530.949 112.122 530.433 111.759C529.936 111.377 529.228 111.185 528.31 111.185C527.411 111.185 526.704 111.377 526.188 111.759C525.69 112.122 525.442 112.677 525.442 113.423C525.442 114.226 525.7 114.857 526.216 115.316C526.752 115.756 527.45 116.052 528.31 116.205ZM541.788 128.338C541.119 128.338 540.545 128.099 540.067 127.621C539.589 127.143 539.35 126.57 539.35 125.9C539.35 125.193 539.589 124.609 540.067 124.151C540.545 123.692 541.119 123.462 541.788 123.462C542.457 123.462 543.031 123.692 543.509 124.151C543.987 124.609 544.226 125.193 544.226 125.9C544.226 126.57 543.987 127.143 543.509 127.621C543.031 128.099 542.457 128.338 541.788 128.338ZM547.512 124.437H552.102V112.275L547.512 115.545V111.358L552.36 107.916H556.404V124.437H560.133V127.994H547.512V124.437ZM569.882 128.338C568.792 128.338 567.769 128.166 566.813 127.822C565.876 127.459 565.064 126.875 564.375 126.072C563.687 125.25 563.142 124.179 562.74 122.86C562.339 121.521 562.138 119.886 562.138 117.955V117.381C562.138 115.584 562.339 114.063 562.74 112.82C563.142 111.578 563.687 110.574 564.375 109.809C565.064 109.025 565.876 108.461 566.813 108.116C567.769 107.753 568.792 107.571 569.882 107.571C570.972 107.571 571.986 107.753 572.923 108.116C573.879 108.461 574.701 109.025 575.39 109.809C576.078 110.574 576.623 111.578 577.025 112.82C577.426 114.063 577.627 115.584 577.627 117.381V117.955C577.627 119.886 577.426 121.521 577.025 122.86C576.623 124.179 576.078 125.25 575.39 126.072C574.701 126.875 573.879 127.459 572.923 127.822C571.986 128.166 570.972 128.338 569.882 128.338ZM569.882 124.724C570.36 124.724 570.81 124.629 571.231 124.437C571.651 124.246 572.015 123.902 572.321 123.405C572.646 122.888 572.894 122.19 573.066 121.311C573.238 120.431 573.324 119.313 573.324 117.955V117.381C573.324 116.157 573.238 115.153 573.066 114.369C572.894 113.566 572.646 112.935 572.321 112.476C572.015 111.998 571.651 111.664 571.231 111.472C570.81 111.281 570.36 111.185 569.882 111.185C569.385 111.185 568.926 111.281 568.506 111.472C568.104 111.664 567.741 111.998 567.416 112.476C567.11 112.935 566.871 113.566 566.699 114.369C566.526 115.153 566.44 116.157 566.44 117.381V117.955C566.44 119.313 566.526 120.431 566.699 121.311C566.871 122.19 567.11 122.888 567.416 123.405C567.741 123.902 568.104 124.246 568.506 124.437C568.926 124.629 569.385 124.724 569.882 124.724ZM583.497 128.338C582.828 128.338 582.254 128.099 581.776 127.621C581.298 127.143 581.059 126.57 581.059 125.9C581.059 125.193 581.298 124.609 581.776 124.151C582.254 123.692 582.828 123.462 583.497 123.462C584.166 123.462 584.74 123.692 585.218 124.151C585.696 124.609 585.935 125.193 585.935 125.9C585.935 126.57 585.696 127.143 585.218 127.621C584.74 128.099 584.166 128.338 583.497 128.338ZM589.221 124.437H593.811V112.275L589.221 115.545V111.358L594.069 107.916H598.113V124.437H601.842V127.994H589.221V124.437ZM603.703 124.437H608.293V112.275L603.703 115.545V111.358L608.551 107.916H612.595V124.437H616.324V127.994H603.703V124.437Z" fill="black"/>
<path d="M951.363 124.437H953.6C953.887 123.768 954.126 122.965 954.317 122.028C954.508 121.072 954.661 120.068 954.776 119.016C954.891 117.945 954.977 116.855 955.034 115.746C955.092 114.618 955.12 113.538 955.12 112.505V107.916H969.261V124.437H971.441V131.723H967.598V127.994H955.206V131.723H951.363V124.437ZM964.959 124.437V111.472H959.193V113.079C959.193 115.698 959.069 117.907 958.82 119.705C958.572 121.502 958.218 123.08 957.759 124.437H964.959ZM978.584 128.338C977.761 128.338 977.035 128.224 976.404 127.994C975.773 127.746 975.237 127.411 974.797 126.99C974.357 126.55 974.023 126.044 973.793 125.47C973.564 124.877 973.449 124.237 973.449 123.548C973.449 120.489 975.266 118.959 978.899 118.959H983.431V118.242C983.431 117.247 983.202 116.549 982.743 116.148C982.303 115.746 981.595 115.545 980.62 115.545C979.76 115.545 979.138 115.698 978.756 116.004C978.373 116.291 978.153 116.655 978.096 117.094H974.31C974.348 116.444 974.51 115.832 974.797 115.259C975.103 114.685 975.524 114.197 976.059 113.796C976.614 113.375 977.283 113.05 978.067 112.82C978.851 112.572 979.75 112.448 980.764 112.448C981.739 112.448 982.618 112.553 983.402 112.763C984.206 112.973 984.884 113.318 985.439 113.796C986.013 114.255 986.452 114.857 986.758 115.603C987.064 116.349 987.217 117.247 987.217 118.299V124.122C987.217 124.925 987.227 125.633 987.246 126.244C987.284 126.837 987.342 127.42 987.418 127.994H983.89C983.814 127.573 983.766 127.258 983.747 127.048C983.747 126.818 983.747 126.483 983.747 126.044C983.326 126.656 982.685 127.191 981.825 127.65C980.983 128.109 979.903 128.338 978.584 128.338ZM979.76 125.413C980.219 125.413 980.668 125.355 981.108 125.241C981.548 125.107 981.94 124.915 982.284 124.667C982.628 124.399 982.905 124.064 983.116 123.663C983.326 123.261 983.431 122.793 983.431 122.257V121.54H979.616C978.89 121.54 978.316 121.712 977.895 122.057C977.494 122.382 977.293 122.831 977.293 123.405C977.293 124.017 977.503 124.504 977.924 124.868C978.345 125.231 978.956 125.413 979.76 125.413Z" fill="black"/>
<path d="M733.184 157.376H723.718V154.393L733.184 141.543H737.487V153.819H739.781V157.376H737.487V161.621H733.184V157.376ZM733.184 153.819V146.333L727.734 153.819H733.184ZM750.335 161.965C749.245 161.965 748.222 161.793 747.266 161.449C746.329 161.086 745.516 160.502 744.828 159.699C744.139 158.877 743.594 157.806 743.193 156.487C742.791 155.148 742.59 153.513 742.59 151.582V151.008C742.59 149.211 742.791 147.69 743.193 146.447C743.594 145.204 744.139 144.201 744.828 143.436C745.516 142.652 746.329 142.088 747.266 141.743C748.222 141.38 749.245 141.198 750.335 141.198C751.425 141.198 752.438 141.38 753.375 141.743C754.331 142.088 755.154 142.652 755.842 143.436C756.53 144.201 757.075 145.204 757.477 146.447C757.879 147.69 758.079 149.211 758.079 151.008V151.582C758.079 153.513 757.879 155.148 757.477 156.487C757.075 157.806 756.53 158.877 755.842 159.699C755.154 160.502 754.331 161.086 753.375 161.449C752.438 161.793 751.425 161.965 750.335 161.965ZM750.335 158.351C750.813 158.351 751.262 158.256 751.683 158.064C752.104 157.873 752.467 157.529 752.773 157.032C753.098 156.515 753.347 155.817 753.519 154.938C753.691 154.058 753.777 152.939 753.777 151.582V151.008C753.777 149.784 753.691 148.78 753.519 147.996C753.347 147.193 753.098 146.562 752.773 146.103C752.467 145.625 752.104 145.291 751.683 145.099C751.262 144.908 750.813 144.812 750.335 144.812C749.838 144.812 749.379 144.908 748.958 145.099C748.556 145.291 748.193 145.625 747.868 146.103C747.562 146.562 747.323 147.193 747.151 147.996C746.979 148.78 746.893 149.784 746.893 151.008V151.582C746.893 152.939 746.979 154.058 747.151 154.938C747.323 155.817 747.562 156.515 747.868 157.032C748.193 157.529 748.556 157.873 748.958 158.064C749.379 158.256 749.838 158.351 750.335 158.351ZM781.877 149.717V152.873L767.822 159.04V154.938L776.857 151.352L767.822 147.767V143.55L781.877 149.717ZM784.18 152.959H798.235V156.515H784.18V152.959ZM784.18 146.075H798.235V149.631H784.18V146.075ZM815.024 161.965C812.577 161.965 810.722 161.392 809.46 160.244C808.198 159.078 807.567 157.481 807.567 155.454H811.869C811.869 156.429 812.118 157.156 812.615 157.634C813.131 158.112 813.934 158.351 815.024 158.351C816.076 158.351 816.86 158.122 817.376 157.663C817.912 157.185 818.18 156.515 818.18 155.655C818.18 153.857 817.128 152.959 815.024 152.959H813.16V149.631H815.024C815.942 149.631 816.65 149.44 817.147 149.058C817.644 148.675 817.893 148.082 817.893 147.279C817.893 146.553 817.654 145.96 817.176 145.501C816.698 145.042 815.98 144.812 815.024 144.812C814.049 144.812 813.322 145.042 812.844 145.501C812.385 145.941 812.156 146.581 812.156 147.423H807.853C807.853 145.453 808.446 143.923 809.632 142.833C810.837 141.743 812.634 141.198 815.024 141.198C816.229 141.198 817.281 141.342 818.18 141.629C819.078 141.896 819.824 142.279 820.417 142.776C821.01 143.254 821.45 143.828 821.736 144.497C822.042 145.166 822.195 145.893 822.195 146.677C822.195 147.786 821.88 148.733 821.249 149.517C820.637 150.281 819.815 150.826 818.782 151.152C819.968 151.477 820.876 152.041 821.507 152.844C822.157 153.647 822.482 154.708 822.482 156.028C822.482 156.888 822.31 157.682 821.966 158.409C821.622 159.135 821.124 159.766 820.474 160.302C819.843 160.818 819.059 161.229 818.122 161.535C817.204 161.822 816.172 161.965 815.024 161.965ZM824.79 158.495L831.818 152.442C832.468 151.869 833.022 151.371 833.481 150.951C833.94 150.511 834.313 150.109 834.6 149.746C834.887 149.383 835.088 149.029 835.202 148.685C835.336 148.341 835.403 147.968 835.403 147.566C835.403 146.744 835.174 146.084 834.715 145.587C834.256 145.071 833.577 144.812 832.678 144.812C831.646 144.812 830.833 145.099 830.24 145.673C829.666 146.228 829.38 147.193 829.38 148.57H825.077C825.077 146.294 825.718 144.497 826.999 143.177C828.299 141.858 830.192 141.198 832.678 141.198C833.845 141.198 834.858 141.361 835.719 141.686C836.598 141.992 837.335 142.432 837.927 143.005C838.52 143.56 838.96 144.229 839.247 145.013C839.553 145.797 839.706 146.648 839.706 147.566C839.706 148.254 839.581 148.914 839.333 149.545C839.084 150.157 838.74 150.75 838.3 151.324C837.88 151.897 837.382 152.461 836.809 153.016C836.235 153.551 835.623 154.087 834.973 154.622L830.843 158.064H839.993V161.621H824.79V158.495Z" fill="black"/>
<rect x="407.547" y="333.904" width="833.223" height="111.155" stroke="#D0643B" stroke-width="6"/>
</svg>
