<svg width="1201" height="772" viewBox="0 0 1201 772" fill="none" xmlns="http://www.w3.org/2000/svg">
<rect x="273.586" y="443.178" width="104.135" height="109.408" fill="#F7F7F7"/>
<path d="M325.659 508.725C324.569 508.725 323.546 508.553 322.59 508.209C321.653 507.845 320.84 507.262 320.152 506.459C319.464 505.637 318.919 504.566 318.517 503.246C318.116 501.908 317.915 500.273 317.915 498.342V497.768C317.915 495.97 318.116 494.45 318.517 493.207C318.919 491.964 319.464 490.96 320.152 490.195C320.84 489.411 321.653 488.847 322.59 488.503C323.546 488.14 324.569 487.958 325.659 487.958C326.749 487.958 327.763 488.14 328.7 488.503C329.656 488.847 330.478 489.411 331.167 490.195C331.855 490.96 332.4 491.964 332.802 493.207C333.203 494.45 333.404 495.97 333.404 497.768V498.342C333.404 500.273 333.203 501.908 332.802 503.246C332.4 504.566 331.855 505.637 331.167 506.459C330.478 507.262 329.656 507.845 328.7 508.209C327.763 508.553 326.749 508.725 325.659 508.725ZM325.659 505.111C326.137 505.111 326.587 505.015 327.007 504.824C327.428 504.633 327.791 504.289 328.097 503.791C328.423 503.275 328.671 502.577 328.843 501.698C329.015 500.818 329.101 499.699 329.101 498.342V497.768C329.101 496.544 329.015 495.54 328.843 494.756C328.671 493.953 328.423 493.322 328.097 492.863C327.791 492.385 327.428 492.05 327.007 491.859C326.587 491.668 326.137 491.572 325.659 491.572C325.162 491.572 324.703 491.668 324.283 491.859C323.881 492.05 323.518 492.385 323.193 492.863C322.887 493.322 322.648 493.953 322.475 494.756C322.303 495.54 322.217 496.544 322.217 497.768V498.342C322.217 499.699 322.303 500.818 322.475 501.698C322.648 502.577 322.887 503.275 323.193 503.791C323.518 504.289 323.881 504.633 324.283 504.824C324.703 505.015 325.162 505.111 325.659 505.111Z" fill="black"/>
<rect x="273.586" y="443.178" width="104.135" height="109.408" stroke="#DADADA" stroke-width="2"/>
<rect x="377.721" y="443.178" width="104.135" height="109.408" fill="#F7F7F7"/>
<path d="M429.794 508.725C428.704 508.725 427.681 508.553 426.725 508.209C425.788 507.845 424.975 507.262 424.287 506.459C423.598 505.637 423.053 504.566 422.652 503.246C422.25 501.908 422.05 500.273 422.05 498.342V497.768C422.05 495.97 422.25 494.45 422.652 493.207C423.053 491.964 423.598 490.96 424.287 490.195C424.975 489.411 425.788 488.847 426.725 488.503C427.681 488.14 428.704 487.958 429.794 487.958C430.884 487.958 431.898 488.14 432.835 488.503C433.791 488.847 434.613 489.411 435.301 490.195C435.99 490.96 436.535 491.964 436.936 493.207C437.338 494.45 437.539 495.97 437.539 497.768V498.342C437.539 500.273 437.338 501.908 436.936 503.246C436.535 504.566 435.99 505.637 435.301 506.459C434.613 507.262 433.791 507.845 432.835 508.209C431.898 508.553 430.884 508.725 429.794 508.725ZM429.794 505.111C430.272 505.111 430.722 505.015 431.142 504.824C431.563 504.633 431.926 504.289 432.232 503.791C432.557 503.275 432.806 502.577 432.978 501.698C433.15 500.818 433.236 499.699 433.236 498.342V497.768C433.236 496.544 433.15 495.54 432.978 494.756C432.806 493.953 432.557 493.322 432.232 492.863C431.926 492.385 431.563 492.05 431.142 491.859C430.722 491.668 430.272 491.572 429.794 491.572C429.297 491.572 428.838 491.668 428.417 491.859C428.016 492.05 427.652 492.385 427.327 492.863C427.021 493.322 426.782 493.953 426.61 494.756C426.438 495.54 426.352 496.544 426.352 497.768V498.342C426.352 499.699 426.438 500.818 426.61 501.698C426.782 502.577 427.021 503.275 427.327 503.791C427.652 504.289 428.016 504.633 428.417 504.824C428.838 505.015 429.297 505.111 429.794 505.111Z" fill="black"/>
<rect x="377.721" y="443.178" width="104.135" height="109.408" stroke="#DADADA" stroke-width="2"/>
<rect x="481.855" y="443.178" width="104.135" height="109.408" fill="#F7F7F7"/>
<path d="M533.929 508.725C532.839 508.725 531.816 508.553 530.86 508.209C529.923 507.845 529.11 507.262 528.422 506.459C527.733 505.637 527.188 504.566 526.787 503.246C526.385 501.908 526.184 500.273 526.184 498.342V497.768C526.184 495.97 526.385 494.45 526.787 493.207C527.188 491.964 527.733 490.96 528.422 490.195C529.11 489.411 529.923 488.847 530.86 488.503C531.816 488.14 532.839 487.958 533.929 487.958C535.019 487.958 536.032 488.14 536.969 488.503C537.925 488.847 538.748 489.411 539.436 490.195C540.125 490.96 540.67 491.964 541.071 493.207C541.473 494.45 541.673 495.97 541.673 497.768V498.342C541.673 500.273 541.473 501.908 541.071 503.246C540.67 504.566 540.125 505.637 539.436 506.459C538.748 507.262 537.925 507.845 536.969 508.209C536.032 508.553 535.019 508.725 533.929 508.725ZM533.929 505.111C534.407 505.111 534.856 505.015 535.277 504.824C535.698 504.633 536.061 504.289 536.367 503.791C536.692 503.275 536.941 502.577 537.113 501.698C537.285 500.818 537.371 499.699 537.371 498.342V497.768C537.371 496.544 537.285 495.54 537.113 494.756C536.941 493.953 536.692 493.322 536.367 492.863C536.061 492.385 535.698 492.05 535.277 491.859C534.856 491.668 534.407 491.572 533.929 491.572C533.432 491.572 532.973 491.668 532.552 491.859C532.15 492.05 531.787 492.385 531.462 492.863C531.156 493.322 530.917 493.953 530.745 494.756C530.573 495.54 530.487 496.544 530.487 497.768V498.342C530.487 499.699 530.573 500.818 530.745 501.698C530.917 502.577 531.156 503.275 531.462 503.791C531.787 504.289 532.15 504.633 532.552 504.824C532.973 505.015 533.432 505.111 533.929 505.111Z" fill="black"/>
<rect x="481.855" y="443.178" width="104.135" height="109.408" stroke="#DADADA" stroke-width="2"/>
<rect x="585.99" y="443.178" width="104.135" height="109.408" fill="#F7F7F7"/>
<path d="M638.064 508.725C636.974 508.725 635.951 508.553 634.994 508.209C634.057 507.845 633.245 507.262 632.556 506.459C631.868 505.637 631.323 504.566 630.921 503.246C630.52 501.908 630.319 500.273 630.319 498.342V497.768C630.319 495.97 630.52 494.45 630.921 493.207C631.323 491.964 631.868 490.96 632.556 490.195C633.245 489.411 634.057 488.847 634.994 488.503C635.951 488.14 636.974 487.958 638.064 487.958C639.154 487.958 640.167 488.14 641.104 488.503C642.06 488.847 642.882 489.411 643.571 490.195C644.259 490.96 644.804 491.964 645.206 493.207C645.607 494.45 645.808 495.97 645.808 497.768V498.342C645.808 500.273 645.607 501.908 645.206 503.246C644.804 504.566 644.259 505.637 643.571 506.459C642.882 507.262 642.06 507.845 641.104 508.209C640.167 508.553 639.154 508.725 638.064 508.725ZM638.064 505.111C638.542 505.111 638.991 505.015 639.412 504.824C639.832 504.633 640.196 504.289 640.502 503.791C640.827 503.275 641.075 502.577 641.248 501.698C641.42 500.818 641.506 499.699 641.506 498.342V497.768C641.506 496.544 641.42 495.54 641.248 494.756C641.075 493.953 640.827 493.322 640.502 492.863C640.196 492.385 639.832 492.05 639.412 491.859C638.991 491.668 638.542 491.572 638.064 491.572C637.566 491.572 637.108 491.668 636.687 491.859C636.285 492.05 635.922 492.385 635.597 492.863C635.291 493.322 635.052 493.953 634.88 494.756C634.708 495.54 634.622 496.544 634.622 497.768V498.342C634.622 499.699 634.708 500.818 634.88 501.698C635.052 502.577 635.291 503.275 635.597 503.791C635.922 504.289 636.285 504.633 636.687 504.824C637.108 505.015 637.566 505.111 638.064 505.111Z" fill="black"/>
<rect x="585.99" y="443.178" width="104.135" height="109.408" stroke="#DADADA" stroke-width="2"/>
<rect x="690.125" y="443.178" width="104.135" height="109.408" fill="#D0643B"/>
<path d="M736.243 504.824H740.833V492.662L736.243 495.932V491.744L741.091 488.302H745.135V504.824H748.864V508.381H736.243V504.824Z" fill="white"/>
<rect x="690.125" y="443.178" width="104.135" height="109.408" stroke="#D0643B" stroke-width="1.31816"/>
<rect x="794.26" y="443.178" width="104.135" height="109.408" fill="#F7F7F7"/>
<path d="M846.333 508.725C845.243 508.725 844.22 508.553 843.264 508.209C842.327 507.845 841.514 507.262 840.826 506.459C840.137 505.637 839.593 504.566 839.191 503.246C838.789 501.908 838.589 500.273 838.589 498.342V497.768C838.589 495.97 838.789 494.45 839.191 493.207C839.593 491.964 840.137 490.96 840.826 490.195C841.514 489.411 842.327 488.847 843.264 488.503C844.22 488.14 845.243 487.958 846.333 487.958C847.423 487.958 848.437 488.14 849.374 488.503C850.33 488.847 851.152 489.411 851.84 490.195C852.529 490.96 853.074 491.964 853.475 493.207C853.877 494.45 854.078 495.97 854.078 497.768V498.342C854.078 500.273 853.877 501.908 853.475 503.246C853.074 504.566 852.529 505.637 851.84 506.459C851.152 507.262 850.33 507.845 849.374 508.209C848.437 508.553 847.423 508.725 846.333 508.725ZM846.333 505.111C846.811 505.111 847.261 505.015 847.681 504.824C848.102 504.633 848.465 504.289 848.771 503.791C849.096 503.275 849.345 502.577 849.517 501.698C849.689 500.818 849.775 499.699 849.775 498.342V497.768C849.775 496.544 849.689 495.54 849.517 494.756C849.345 493.953 849.096 493.322 848.771 492.863C848.465 492.385 848.102 492.05 847.681 491.859C847.261 491.668 846.811 491.572 846.333 491.572C845.836 491.572 845.377 491.668 844.956 491.859C844.555 492.05 844.191 492.385 843.866 492.863C843.56 493.322 843.321 493.953 843.149 494.756C842.977 495.54 842.891 496.544 842.891 497.768V498.342C842.891 499.699 842.977 500.818 843.149 501.698C843.321 502.577 843.56 503.275 843.866 503.791C844.191 504.289 844.555 504.633 844.956 504.824C845.377 505.015 845.836 505.111 846.333 505.111Z" fill="black"/>
<rect x="794.26" y="443.178" width="104.135" height="109.408" stroke="#DADADA" stroke-width="2"/>
<rect x="898.395" y="443.178" width="104.135" height="109.408" fill="#D0643B"/>
<path d="M944.513 504.824H949.102V492.662L944.513 495.932V491.744L949.36 488.302H953.405V504.824H957.134V508.381H944.513V504.824Z" fill="white"/>
<rect x="898.395" y="443.178" width="104.135" height="109.408" stroke="#D0643B" stroke-width="1.31816"/>
<rect x="1002.53" y="443.178" width="104.135" height="109.408" fill="#F7F7F7"/>
<path d="M1054.6 508.725C1053.51 508.725 1052.49 508.553 1051.53 508.209C1050.6 507.845 1049.78 507.262 1049.1 506.459C1048.41 505.637 1047.86 504.566 1047.46 503.246C1047.06 501.908 1046.86 500.273 1046.86 498.342V497.768C1046.86 495.97 1047.06 494.45 1047.46 493.207C1047.86 491.964 1048.41 490.96 1049.1 490.195C1049.78 489.411 1050.6 488.847 1051.53 488.503C1052.49 488.14 1053.51 487.958 1054.6 487.958C1055.69 487.958 1056.71 488.14 1057.64 488.503C1058.6 488.847 1059.42 489.411 1060.11 490.195C1060.8 490.96 1061.34 491.964 1061.74 493.207C1062.15 494.45 1062.35 495.97 1062.35 497.768V498.342C1062.35 500.273 1062.15 501.908 1061.74 503.246C1061.34 504.566 1060.8 505.637 1060.11 506.459C1059.42 507.262 1058.6 507.845 1057.64 508.209C1056.71 508.553 1055.69 508.725 1054.6 508.725ZM1054.6 505.111C1055.08 505.111 1055.53 505.015 1055.95 504.824C1056.37 504.633 1056.73 504.289 1057.04 503.791C1057.37 503.275 1057.61 502.577 1057.79 501.698C1057.96 500.818 1058.04 499.699 1058.04 498.342V497.768C1058.04 496.544 1057.96 495.54 1057.79 494.756C1057.61 493.953 1057.37 493.322 1057.04 492.863C1056.73 492.385 1056.37 492.05 1055.95 491.859C1055.53 491.668 1055.08 491.572 1054.6 491.572C1054.11 491.572 1053.65 491.668 1053.23 491.859C1052.82 492.05 1052.46 492.385 1052.14 492.863C1051.83 493.322 1051.59 493.953 1051.42 494.756C1051.25 495.54 1051.16 496.544 1051.16 497.768V498.342C1051.16 499.699 1051.25 500.818 1051.42 501.698C1051.59 502.577 1051.83 503.275 1052.14 503.791C1052.46 504.289 1052.82 504.633 1053.23 504.824C1053.65 505.015 1054.11 505.111 1054.6 505.111Z" fill="black"/>
<rect x="1002.53" y="443.178" width="104.135" height="109.408" stroke="#DADADA" stroke-width="2"/>
<rect x="273.443" y="333.77" width="104.135" height="109.408" fill="#F7F7F7"/>
<path d="M301.802 395.416H306.392V383.254L301.802 386.524V382.336L306.65 378.894H310.694V395.416H314.423V398.973H301.802V395.416ZM315.854 395.846L322.882 389.794C323.532 389.22 324.086 388.723 324.545 388.302C325.004 387.863 325.377 387.461 325.664 387.098C325.951 386.734 326.152 386.381 326.266 386.036C326.4 385.692 326.467 385.319 326.467 384.918C326.467 384.095 326.238 383.436 325.779 382.938C325.32 382.422 324.641 382.164 323.742 382.164C322.71 382.164 321.897 382.451 321.304 383.025C320.73 383.579 320.444 384.545 320.444 385.922H316.141C316.141 383.646 316.782 381.848 318.063 380.529C319.363 379.21 321.256 378.55 323.742 378.55C324.909 378.55 325.922 378.712 326.783 379.037C327.662 379.343 328.398 379.783 328.991 380.357C329.584 380.911 330.024 381.581 330.311 382.365C330.617 383.149 330.77 384 330.77 384.918C330.77 385.606 330.645 386.266 330.397 386.897C330.148 387.509 329.804 388.102 329.364 388.675C328.943 389.249 328.446 389.813 327.873 390.368C327.299 390.903 326.687 391.438 326.037 391.974L321.906 395.416H331.056V398.973H315.854V395.846ZM341.228 399.317C340.023 399.317 338.933 399.183 337.958 398.915C337.002 398.628 336.189 398.236 335.52 397.739C334.87 397.223 334.363 396.611 334 395.904C333.655 395.177 333.483 394.374 333.483 393.494C333.483 392.366 333.828 391.362 334.516 390.482C335.204 389.584 336.227 388.952 337.585 388.589C336.572 388.264 335.73 387.7 335.061 386.897C334.392 386.094 334.057 385.138 334.057 384.028C334.057 383.225 334.21 382.489 334.516 381.82C334.841 381.151 335.31 380.577 335.922 380.099C336.533 379.602 337.279 379.219 338.159 378.951C339.058 378.684 340.081 378.55 341.228 378.55C342.375 378.55 343.389 378.684 344.268 378.951C345.167 379.219 345.923 379.602 346.534 380.099C347.166 380.577 347.634 381.151 347.94 381.82C348.265 382.489 348.428 383.225 348.428 384.028C348.428 385.138 348.093 386.084 347.424 386.868C346.754 387.633 345.903 388.207 344.871 388.589C347.605 389.431 348.973 391.066 348.973 393.494C348.973 394.374 348.791 395.177 348.428 395.904C348.083 396.611 347.577 397.223 346.907 397.739C346.257 398.236 345.454 398.628 344.498 398.915C343.542 399.183 342.452 399.317 341.228 399.317ZM341.228 395.703C342.414 395.703 343.284 395.473 343.838 395.014C344.393 394.555 344.67 393.934 344.67 393.15C344.67 392.289 344.345 391.611 343.695 391.113C343.064 390.597 342.241 390.262 341.228 390.109C340.214 390.262 339.383 390.597 338.733 391.113C338.101 391.611 337.786 392.289 337.786 393.15C337.786 393.934 338.073 394.555 338.646 395.014C339.22 395.473 340.081 395.703 341.228 395.703ZM341.228 387.184C342.088 387.031 342.786 386.734 343.322 386.294C343.857 385.836 344.125 385.204 344.125 384.401C344.125 383.656 343.867 383.101 343.351 382.738C342.853 382.355 342.146 382.164 341.228 382.164C340.329 382.164 339.622 382.355 339.105 382.738C338.608 383.101 338.36 383.656 338.36 384.401C338.36 385.204 338.618 385.836 339.134 386.294C339.67 386.734 340.367 387.031 341.228 387.184Z" fill="black"/>
<rect x="273.443" y="333.77" width="104.135" height="109.408" stroke="#DADADA" stroke-width="2"/>
<rect x="377.578" y="333.77" width="104.135" height="109.408" fill="#F7F7F7"/>
<path d="M420.969 399.317C419.707 399.317 418.588 399.135 417.613 398.772C416.637 398.409 415.815 397.844 415.146 397.08C414.477 396.296 413.96 395.301 413.597 394.096C413.253 392.892 413.081 391.458 413.081 389.794V389.22C413.081 387.308 413.281 385.683 413.683 384.344C414.085 382.986 414.649 381.877 415.375 381.017C416.102 380.156 416.963 379.535 417.957 379.152C418.97 378.751 420.07 378.55 421.256 378.55C423.11 378.55 424.612 378.942 425.759 379.726C426.906 380.51 427.604 381.81 427.853 383.627H423.837C423.455 382.652 422.546 382.164 421.112 382.164C420.558 382.164 420.041 382.25 419.563 382.422C419.104 382.575 418.693 382.872 418.33 383.311C417.986 383.732 417.708 384.315 417.498 385.061C417.288 385.807 417.154 386.763 417.096 387.929C417.345 387.547 417.651 387.231 418.014 386.983C418.378 386.715 418.77 386.505 419.19 386.352C419.63 386.18 420.079 386.055 420.538 385.979C421.016 385.902 421.495 385.864 421.973 385.864C424 385.864 425.558 386.419 426.648 387.528C427.738 388.618 428.283 390.167 428.283 392.175V392.49C428.283 393.504 428.101 394.431 427.738 395.272C427.375 396.114 426.868 396.841 426.218 397.452C425.587 398.045 424.822 398.504 423.923 398.829C423.024 399.154 422.04 399.317 420.969 399.317ZM420.682 395.703C421.714 395.703 422.518 395.416 423.091 394.842C423.684 394.249 423.98 393.494 423.98 392.576V392.289C423.98 391.371 423.684 390.626 423.091 390.052C422.518 389.478 421.714 389.192 420.682 389.192C419.649 389.192 418.837 389.478 418.244 390.052C417.67 390.626 417.383 391.371 417.383 392.289V392.576C417.383 393.494 417.67 394.249 418.244 394.842C418.837 395.416 419.649 395.703 420.682 395.703ZM439.613 394.727H430.147V391.744L439.613 378.894H443.916V391.171H446.21V394.727H443.916V398.973H439.613V394.727ZM439.613 391.171V383.684L434.163 391.171H439.613Z" fill="black"/>
<rect x="377.578" y="333.77" width="104.135" height="109.408" stroke="#DADADA" stroke-width="2"/>
<rect x="481.713" y="333.77" width="104.135" height="109.408" fill="#F7F7F7"/>
<path d="M524.743 399.317C522.295 399.317 520.44 398.743 519.178 397.596C517.916 396.429 517.285 394.833 517.285 392.806H521.588C521.588 393.781 521.836 394.508 522.334 394.986C522.85 395.464 523.653 395.703 524.743 395.703C525.795 395.703 526.579 395.473 527.095 395.014C527.63 394.536 527.898 393.867 527.898 393.006C527.898 391.209 526.846 390.31 524.743 390.31H522.878V386.983H524.743C525.661 386.983 526.368 386.792 526.866 386.409C527.363 386.027 527.611 385.434 527.611 384.631C527.611 383.904 527.372 383.311 526.894 382.852C526.416 382.393 525.699 382.164 524.743 382.164C523.768 382.164 523.041 382.393 522.563 382.852C522.104 383.292 521.875 383.933 521.875 384.774H517.572C517.572 382.805 518.165 381.275 519.35 380.185C520.555 379.095 522.353 378.55 524.743 378.55C525.948 378.55 526.999 378.693 527.898 378.98C528.797 379.248 529.543 379.63 530.135 380.127C530.728 380.606 531.168 381.179 531.455 381.848C531.761 382.518 531.914 383.244 531.914 384.028C531.914 385.138 531.598 386.084 530.967 386.868C530.355 387.633 529.533 388.178 528.501 388.503C529.686 388.828 530.594 389.392 531.225 390.195C531.876 390.999 532.201 392.06 532.201 393.379C532.201 394.24 532.029 395.033 531.684 395.76C531.34 396.487 530.843 397.118 530.193 397.653C529.562 398.17 528.778 398.581 527.841 398.887C526.923 399.173 525.89 399.317 524.743 399.317ZM534.509 395.846L541.536 389.794C542.187 389.22 542.741 388.723 543.2 388.302C543.659 387.863 544.032 387.461 544.319 387.098C544.605 386.734 544.806 386.381 544.921 386.036C545.055 385.692 545.122 385.319 545.122 384.918C545.122 384.095 544.892 383.436 544.433 382.938C543.974 382.422 543.296 382.164 542.397 382.164C541.364 382.164 540.552 382.451 539.959 383.025C539.385 383.579 539.098 384.545 539.098 385.922H534.796C534.796 383.646 535.436 381.848 536.717 380.529C538.018 379.21 539.911 378.55 542.397 378.55C543.563 378.55 544.577 378.712 545.437 379.037C546.317 379.343 547.053 379.783 547.646 380.357C548.239 380.911 548.679 381.581 548.965 382.365C549.271 383.149 549.424 384 549.424 384.918C549.424 385.606 549.3 386.266 549.051 386.897C548.803 387.509 548.459 388.102 548.019 388.675C547.598 389.249 547.101 389.813 546.527 390.368C545.954 390.903 545.342 391.438 544.692 391.974L540.561 395.416H549.711V398.973H534.509V395.846Z" fill="black"/>
<rect x="481.713" y="333.77" width="104.135" height="109.408" stroke="#DADADA" stroke-width="2"/>
<rect x="585.848" y="333.77" width="104.135" height="109.408" fill="#F7F7F7"/>
<path d="M622.707 395.416H627.296V383.254L622.707 386.524V382.336L627.554 378.894H631.599V395.416H635.328V398.973H622.707V395.416ZM645.22 399.317C643.958 399.317 642.839 399.135 641.864 398.772C640.889 398.409 640.067 397.844 639.397 397.08C638.728 396.296 638.212 395.301 637.848 394.096C637.504 392.892 637.332 391.458 637.332 389.794V389.22C637.332 387.308 637.533 385.683 637.934 384.344C638.336 382.986 638.9 381.877 639.627 381.017C640.353 380.156 641.214 379.535 642.208 379.152C643.222 378.751 644.321 378.55 645.507 378.55C647.362 378.55 648.863 378.942 650.01 379.726C651.158 380.51 651.856 381.81 652.104 383.627H648.088C647.706 382.652 646.798 382.164 645.364 382.164C644.809 382.164 644.293 382.25 643.815 382.422C643.356 382.575 642.945 382.872 642.581 383.311C642.237 383.732 641.96 384.315 641.749 385.061C641.539 385.807 641.405 386.763 641.348 387.929C641.596 387.547 641.902 387.231 642.266 386.983C642.629 386.715 643.021 386.505 643.442 386.352C643.882 386.18 644.331 386.055 644.79 385.979C645.268 385.902 645.746 385.864 646.224 385.864C648.251 385.864 649.81 386.419 650.899 387.528C651.989 388.618 652.534 390.167 652.534 392.175V392.49C652.534 393.504 652.353 394.431 651.989 395.272C651.626 396.114 651.119 396.841 650.469 397.452C649.838 398.045 649.073 398.504 648.175 398.829C647.276 399.154 646.291 399.317 645.22 399.317ZM644.933 395.703C645.966 395.703 646.769 395.416 647.343 394.842C647.936 394.249 648.232 393.494 648.232 392.576V392.289C648.232 391.371 647.936 390.626 647.343 390.052C646.769 389.478 645.966 389.192 644.933 389.192C643.901 389.192 643.088 389.478 642.495 390.052C641.921 390.626 641.635 391.371 641.635 392.289V392.576C641.635 393.494 641.921 394.249 642.495 394.842C643.088 395.416 643.901 395.703 644.933 395.703Z" fill="black"/>
<rect x="585.848" y="333.77" width="104.135" height="109.408" stroke="#DADADA" stroke-width="2"/>
<rect x="689.982" y="333.77" width="104.135" height="109.408" fill="#F7F7F7"/>
<path d="M741.586 399.317C740.381 399.317 739.291 399.183 738.316 398.915C737.36 398.628 736.547 398.236 735.878 397.739C735.228 397.223 734.721 396.611 734.358 395.904C734.014 395.177 733.842 394.374 733.842 393.494C733.842 392.366 734.186 391.362 734.874 390.482C735.563 389.584 736.586 388.952 737.943 388.589C736.93 388.264 736.088 387.7 735.419 386.897C734.75 386.094 734.415 385.138 734.415 384.028C734.415 383.225 734.568 382.489 734.874 381.82C735.199 381.151 735.668 380.577 736.28 380.099C736.892 379.602 737.637 379.219 738.517 378.951C739.416 378.684 740.439 378.55 741.586 378.55C742.733 378.55 743.747 378.684 744.627 378.951C745.525 379.219 746.281 379.602 746.893 380.099C747.524 380.577 747.992 381.151 748.298 381.82C748.623 382.489 748.786 383.225 748.786 384.028C748.786 385.138 748.451 386.084 747.782 386.868C747.113 387.633 746.262 388.207 745.229 388.589C747.963 389.431 749.331 391.066 749.331 393.494C749.331 394.374 749.149 395.177 748.786 395.904C748.442 396.611 747.935 397.223 747.266 397.739C746.615 398.236 745.812 398.628 744.856 398.915C743.9 399.183 742.81 399.317 741.586 399.317ZM741.586 395.703C742.772 395.703 743.642 395.473 744.196 395.014C744.751 394.555 745.028 393.934 745.028 393.15C745.028 392.289 744.703 391.611 744.053 391.113C743.422 390.597 742.6 390.262 741.586 390.109C740.573 390.262 739.741 390.597 739.091 391.113C738.46 391.611 738.144 392.289 738.144 393.15C738.144 393.934 738.431 394.555 739.005 395.014C739.578 395.473 740.439 395.703 741.586 395.703ZM741.586 387.184C742.447 387.031 743.145 386.734 743.68 386.294C744.215 385.836 744.483 385.204 744.483 384.401C744.483 383.656 744.225 383.101 743.709 382.738C743.212 382.355 742.504 382.164 741.586 382.164C740.687 382.164 739.98 382.355 739.464 382.738C738.966 383.101 738.718 383.656 738.718 384.401C738.718 385.204 738.976 385.836 739.492 386.294C740.028 386.734 740.726 387.031 741.586 387.184Z" fill="black"/>
<rect x="689.982" y="333.77" width="104.135" height="109.408" stroke="#DADADA" stroke-width="2"/>
<rect x="794.117" y="333.77" width="104.135" height="109.408" fill="#F7F7F7"/>
<path d="M846.725 394.727H837.259V391.744L846.725 378.894H851.027V391.171H853.322V394.727H851.027V398.973H846.725V394.727ZM846.725 391.171V383.684L841.275 391.171H846.725Z" fill="black"/>
<rect x="794.117" y="333.77" width="104.135" height="109.408" stroke="#DADADA" stroke-width="2"/>
<rect x="898.252" y="333.77" width="104.135" height="109.408" fill="#F7F7F7"/>
<path d="M942.181 395.846L949.208 389.794C949.858 389.22 950.413 388.723 950.872 388.302C951.331 387.863 951.704 387.461 951.991 387.098C952.277 386.734 952.478 386.381 952.593 386.036C952.727 385.692 952.794 385.319 952.794 384.918C952.794 384.095 952.564 383.436 952.105 382.938C951.646 382.422 950.968 382.164 950.069 382.164C949.036 382.164 948.224 382.451 947.631 383.025C947.057 383.579 946.77 384.545 946.77 385.922H942.468C942.468 383.646 943.108 381.848 944.389 380.529C945.69 379.21 947.583 378.55 950.069 378.55C951.235 378.55 952.249 378.712 953.109 379.037C953.989 379.343 954.725 379.783 955.318 380.357C955.911 380.911 956.351 381.581 956.637 382.365C956.943 383.149 957.096 384 957.096 384.918C957.096 385.606 956.972 386.266 956.723 386.897C956.475 387.509 956.131 388.102 955.691 388.675C955.27 389.249 954.773 389.813 954.199 390.368C953.626 390.903 953.014 391.438 952.364 391.974L948.233 395.416H957.383V398.973H942.181V395.846Z" fill="black"/>
<rect x="898.252" y="333.77" width="104.135" height="109.408" stroke="#DADADA" stroke-width="2"/>
<rect x="1002.39" y="333.77" width="104.135" height="109.408" fill="#F7F7F7"/>
<path d="M1048.25 395.416H1052.84V383.254L1048.25 386.524V382.336L1053.09 378.894H1057.14V395.416H1060.87V398.973H1048.25V395.416Z" fill="black"/>
<rect x="1002.39" y="333.77" width="104.135" height="109.408" stroke="#DADADA" stroke-width="2"/>
<path d="M96.9778 373.24H108.946V388.473H106.901V375.025H99.0233V388.473H96.9778V373.24ZM117.65 388.69C116.91 388.69 116.207 388.574 115.539 388.342C114.872 388.095 114.285 387.733 113.777 387.254C113.269 386.761 112.863 386.144 112.558 385.404C112.254 384.665 112.101 383.801 112.101 382.815V382.38C112.101 381.451 112.254 380.632 112.558 379.921C112.863 379.21 113.269 378.622 113.777 378.158C114.285 377.68 114.872 377.324 115.539 377.092C116.207 376.845 116.91 376.722 117.65 376.722C118.39 376.722 119.094 376.845 119.761 377.092C120.428 377.324 121.016 377.68 121.524 378.158C122.031 378.622 122.437 379.21 122.742 379.921C123.047 380.632 123.199 381.451 123.199 382.38V382.815C123.199 383.801 123.047 384.665 122.742 385.404C122.437 386.144 122.031 386.761 121.524 387.254C121.016 387.733 120.428 388.095 119.761 388.342C119.094 388.574 118.39 388.69 117.65 388.69ZM117.65 386.949C118.085 386.949 118.521 386.877 118.956 386.732C119.391 386.572 119.775 386.333 120.109 386.014C120.443 385.68 120.711 385.252 120.914 384.73C121.132 384.208 121.241 383.569 121.241 382.815V382.38C121.241 381.683 121.132 381.089 120.914 380.595C120.711 380.102 120.443 379.696 120.109 379.377C119.775 379.058 119.391 378.826 118.956 378.68C118.521 378.535 118.085 378.463 117.65 378.463C117.215 378.463 116.78 378.535 116.345 378.68C115.909 378.826 115.525 379.058 115.191 379.377C114.858 379.696 114.582 380.102 114.364 380.595C114.161 381.089 114.06 381.683 114.06 382.38V382.815C114.06 383.569 114.161 384.208 114.364 384.73C114.582 385.252 114.858 385.68 115.191 386.014C115.525 386.333 115.909 386.572 116.345 386.732C116.78 386.877 117.215 386.949 117.65 386.949ZM129.827 388.69C128.377 388.69 127.238 388.386 126.411 387.776C125.584 387.167 125.127 386.311 125.04 385.209H126.955C127.057 385.774 127.354 386.21 127.847 386.514C128.355 386.804 129.015 386.949 129.827 386.949C130.828 386.949 131.554 386.783 132.003 386.449C132.468 386.101 132.7 385.687 132.7 385.209C132.7 384.643 132.511 384.2 132.134 383.881C131.757 383.548 131.104 383.381 130.176 383.381H128.195V381.814H130.045C130.843 381.814 131.409 381.662 131.742 381.357C132.091 381.052 132.265 380.624 132.265 380.073C132.265 379.638 132.062 379.261 131.655 378.942C131.249 378.622 130.64 378.463 129.827 378.463C128.943 378.463 128.297 378.608 127.891 378.898C127.499 379.174 127.26 379.573 127.173 380.095H125.258C125.301 379.616 125.432 379.174 125.649 378.768C125.882 378.347 126.193 377.984 126.585 377.68C126.977 377.375 127.441 377.143 127.978 376.983C128.529 376.809 129.146 376.722 129.827 376.722C130.567 376.722 131.206 376.809 131.742 376.983C132.294 377.143 132.751 377.375 133.113 377.68C133.476 377.97 133.744 378.318 133.918 378.724C134.092 379.13 134.18 379.58 134.18 380.073C134.18 380.624 134.042 381.11 133.766 381.531C133.49 381.937 133.048 382.256 132.439 382.489C133.251 382.706 133.817 383.054 134.136 383.533C134.455 384.012 134.615 384.57 134.615 385.209C134.615 385.687 134.513 386.137 134.31 386.558C134.107 386.978 133.802 387.348 133.396 387.668C133.004 387.972 132.504 388.219 131.895 388.407C131.3 388.596 130.611 388.69 129.827 388.69ZM137.343 376.94H139.258V385.644L145.221 376.94H147.135V388.473H145.221V379.769L139.258 388.473H137.343V376.94ZM160.003 388.473H150.625V376.94H152.54V386.775H158.067V376.94H159.982V386.775H161.831V391.193H160.003V388.473ZM164.119 376.94H166.034V385.644L171.996 376.94H173.911V388.473H171.996V379.769L166.034 388.473H164.119V376.94ZM182.187 388.69C181.448 388.69 180.744 388.574 180.077 388.342C179.409 388.095 178.822 387.733 178.314 387.254C177.806 386.761 177.4 386.144 177.096 385.404C176.791 384.665 176.639 383.801 176.639 382.815V382.38C176.639 381.451 176.791 380.632 177.096 379.921C177.4 379.21 177.806 378.622 178.314 378.158C178.822 377.68 179.409 377.324 180.077 377.092C180.744 376.845 181.448 376.722 182.187 376.722C182.927 376.722 183.631 376.845 184.298 377.092C184.966 377.324 185.553 377.68 186.061 378.158C186.569 378.622 186.975 379.21 187.279 379.921C187.584 380.632 187.736 381.451 187.736 382.38V382.815C187.736 383.801 187.584 384.665 187.279 385.404C186.975 386.144 186.569 386.761 186.061 387.254C185.553 387.733 184.966 388.095 184.298 388.342C183.631 388.574 182.927 388.69 182.187 388.69ZM182.187 386.949C182.623 386.949 183.058 386.877 183.493 386.732C183.928 386.572 184.313 386.333 184.646 386.014C184.98 385.68 185.248 385.252 185.452 384.73C185.669 384.208 185.778 383.569 185.778 382.815V382.38C185.778 381.683 185.669 381.089 185.452 380.595C185.248 380.102 184.98 379.696 184.646 379.377C184.313 379.058 183.928 378.826 183.493 378.68C183.058 378.535 182.623 378.463 182.187 378.463C181.752 378.463 181.317 378.535 180.882 378.68C180.447 378.826 180.062 379.058 179.729 379.377C179.395 379.696 179.119 380.102 178.902 380.595C178.699 381.089 178.597 381.683 178.597 382.38V382.815C178.597 383.569 178.699 384.208 178.902 384.73C179.119 385.252 179.395 385.68 179.729 386.014C180.062 386.333 180.447 386.572 180.882 386.732C181.317 386.877 181.752 386.949 182.187 386.949ZM190.448 376.94H192.363V381.749H198.325V376.94H200.24V388.473H198.325V383.446H192.363V388.473H190.448V376.94ZM203.729 376.94H205.644V381.749H211.607V376.94H213.522V388.473H211.607V383.446H205.644V388.473H203.729V376.94ZM221.798 388.69C221.058 388.69 220.355 388.574 219.687 388.342C219.02 388.095 218.432 387.733 217.925 387.254C217.417 386.761 217.011 386.144 216.706 385.404C216.402 384.665 216.249 383.801 216.249 382.815V382.38C216.249 381.451 216.402 380.632 216.706 379.921C217.011 379.21 217.417 378.622 217.925 378.158C218.432 377.68 219.02 377.324 219.687 377.092C220.355 376.845 221.058 376.722 221.798 376.722C222.538 376.722 223.242 376.845 223.909 377.092C224.576 377.324 225.164 377.68 225.671 378.158C226.179 378.622 226.585 379.21 226.89 379.921C227.195 380.632 227.347 381.451 227.347 382.38V382.815C227.347 383.801 227.195 384.665 226.89 385.404C226.585 386.144 226.179 386.761 225.671 387.254C225.164 387.733 224.576 388.095 223.909 388.342C223.242 388.574 222.538 388.69 221.798 388.69ZM221.798 386.949C222.233 386.949 222.669 386.877 223.104 386.732C223.539 386.572 223.923 386.333 224.257 386.014C224.591 385.68 224.859 385.252 225.062 384.73C225.28 384.208 225.389 383.569 225.389 382.815V382.38C225.389 381.683 225.28 381.089 225.062 380.595C224.859 380.102 224.591 379.696 224.257 379.377C223.923 379.058 223.539 378.826 223.104 378.68C222.669 378.535 222.233 378.463 221.798 378.463C221.363 378.463 220.928 378.535 220.492 378.68C220.057 378.826 219.673 379.058 219.339 379.377C219.006 379.696 218.73 380.102 218.512 380.595C218.309 381.089 218.208 381.683 218.208 382.38V382.815C218.208 383.569 218.309 384.208 218.512 384.73C218.73 385.252 219.006 385.68 219.339 386.014C219.673 386.333 220.057 386.572 220.492 386.732C220.928 386.877 221.363 386.949 221.798 386.949ZM234.846 388.69C234.106 388.69 233.402 388.574 232.735 388.342C232.068 388.11 231.48 387.755 230.972 387.276C230.465 386.783 230.059 386.166 229.754 385.426C229.449 384.686 229.297 383.816 229.297 382.815V382.38C229.297 381.422 229.442 380.595 229.732 379.899C230.022 379.188 230.407 378.601 230.885 378.136C231.379 377.658 231.944 377.302 232.583 377.07C233.236 376.838 233.917 376.722 234.628 376.722C236.325 376.722 237.638 377.186 238.567 378.115C239.495 379.043 239.959 380.356 239.959 382.053V383.272H231.212C231.212 383.954 231.321 384.527 231.538 384.991C231.756 385.455 232.039 385.832 232.387 386.123C232.735 386.413 233.119 386.623 233.54 386.754C233.975 386.884 234.411 386.949 234.846 386.949C235.716 386.949 236.384 386.804 236.848 386.514C237.326 386.224 237.667 385.825 237.87 385.317H239.742C239.626 385.869 239.415 386.355 239.111 386.775C238.821 387.196 238.458 387.551 238.023 387.842C237.602 388.117 237.116 388.328 236.565 388.473C236.028 388.618 235.455 388.69 234.846 388.69ZM234.737 378.463C234.287 378.463 233.852 378.528 233.431 378.659C233.011 378.775 232.633 378.971 232.3 379.246C231.981 379.507 231.72 379.841 231.516 380.247C231.313 380.653 231.212 381.139 231.212 381.705H238.153C238.139 381.11 238.037 380.61 237.849 380.204C237.675 379.783 237.435 379.449 237.131 379.203C236.826 378.942 236.463 378.753 236.043 378.637C235.636 378.521 235.201 378.463 234.737 378.463ZM123.08 412.69C121.63 412.69 120.491 412.386 119.664 411.776C118.837 411.167 118.38 410.311 118.293 409.209H120.208C120.31 409.774 120.607 410.21 121.1 410.514C121.608 410.804 122.268 410.949 123.08 410.949C124.081 410.949 124.807 410.783 125.257 410.449C125.721 410.101 125.953 409.687 125.953 409.209C125.953 408.643 125.764 408.2 125.387 407.881C125.01 407.548 124.357 407.381 123.429 407.381H121.448V405.814H123.298C124.096 405.814 124.662 405.662 124.995 405.357C125.344 405.052 125.518 404.624 125.518 404.073C125.518 403.638 125.315 403.261 124.908 402.942C124.502 402.622 123.893 402.463 123.08 402.463C122.196 402.463 121.55 402.608 121.144 402.898C120.752 403.174 120.513 403.573 120.426 404.095H118.511C118.554 403.616 118.685 403.174 118.902 402.768C119.135 402.347 119.446 401.984 119.838 401.68C120.23 401.375 120.694 401.143 121.231 400.983C121.782 400.809 122.399 400.722 123.08 400.722C123.82 400.722 124.459 400.809 124.995 400.983C125.547 401.143 126.004 401.375 126.366 401.68C126.729 401.97 126.997 402.318 127.171 402.724C127.346 403.13 127.433 403.58 127.433 404.073C127.433 404.624 127.295 405.11 127.019 405.531C126.743 405.937 126.301 406.256 125.692 406.489C126.504 406.706 127.07 407.054 127.389 407.533C127.708 408.012 127.868 408.57 127.868 409.209C127.868 409.687 127.766 410.137 127.563 410.558C127.36 410.978 127.055 411.348 126.649 411.668C126.257 411.972 125.757 412.219 125.148 412.407C124.553 412.596 123.864 412.69 123.08 412.69ZM130.596 400.94H132.511V405.749H138.474V400.94H140.388V412.473H138.474V407.446H132.511V412.473H130.596V400.94ZM147.164 412.69C146.525 412.69 145.96 412.603 145.466 412.429C144.988 412.241 144.581 411.987 144.248 411.668C143.914 411.348 143.66 410.971 143.486 410.536C143.312 410.101 143.225 409.622 143.225 409.1C143.225 407.954 143.559 407.127 144.226 406.619C144.908 406.111 145.88 405.858 147.142 405.858H150.885V405.074C150.885 404.088 150.66 403.406 150.21 403.029C149.775 402.651 149.115 402.463 148.23 402.463C147.403 402.463 146.801 402.622 146.424 402.942C146.047 403.246 145.836 403.594 145.793 403.986H143.878C143.907 403.522 144.03 403.094 144.248 402.702C144.48 402.296 144.784 401.948 145.162 401.658C145.553 401.368 146.018 401.143 146.554 400.983C147.091 400.809 147.686 400.722 148.339 400.722C149.702 400.722 150.783 401.048 151.581 401.701C152.393 402.34 152.8 403.391 152.8 404.857V409.535C152.8 410.144 152.8 410.681 152.8 411.145C152.814 411.595 152.85 412.037 152.908 412.473H151.233C151.189 412.139 151.16 411.827 151.146 411.537C151.131 411.232 151.124 410.891 151.124 410.514C150.819 411.124 150.326 411.639 149.644 412.059C148.962 412.48 148.136 412.69 147.164 412.69ZM147.577 410.949C148.027 410.949 148.447 410.891 148.839 410.775C149.245 410.645 149.601 410.463 149.905 410.231C150.21 409.985 150.449 409.687 150.623 409.339C150.798 408.991 150.885 408.585 150.885 408.121V407.337H147.468C146.757 407.337 146.199 407.482 145.793 407.772C145.386 408.048 145.183 408.491 145.183 409.1C145.183 409.637 145.372 410.079 145.749 410.427C146.141 410.775 146.75 410.949 147.577 410.949ZM162.862 407.881C162.528 408.084 162.122 408.266 161.644 408.425C161.179 408.585 160.592 408.665 159.881 408.665C159.214 408.665 158.612 408.592 158.075 408.447C157.553 408.302 157.11 408.07 156.747 407.751C156.385 407.432 156.109 407.018 155.921 406.51C155.732 406.003 155.638 405.379 155.638 404.639V400.94H157.553V404.313C157.553 404.806 157.596 405.219 157.683 405.553C157.785 405.887 157.944 406.155 158.162 406.358C158.38 406.561 158.655 406.706 158.989 406.793C159.322 406.88 159.729 406.924 160.207 406.924C160.86 406.924 161.419 406.858 161.883 406.728C162.347 406.597 162.674 406.46 162.862 406.314V400.94H164.777V412.473H162.862V407.881ZM173.039 412.69C172.299 412.69 171.596 412.574 170.928 412.342C170.261 412.11 169.674 411.755 169.166 411.276C168.658 410.783 168.252 410.166 167.947 409.426C167.643 408.686 167.49 407.816 167.49 406.815V406.38C167.49 405.422 167.635 404.595 167.925 403.899C168.216 403.188 168.6 402.601 169.079 402.136C169.572 401.658 170.138 401.302 170.776 401.07C171.429 400.838 172.111 400.722 172.822 400.722C174.519 400.722 175.832 401.186 176.76 402.115C177.689 403.043 178.153 404.356 178.153 406.053V407.272H169.405C169.405 407.954 169.514 408.527 169.732 408.991C169.949 409.455 170.232 409.832 170.58 410.123C170.928 410.413 171.313 410.623 171.734 410.754C172.169 410.884 172.604 410.949 173.039 410.949C173.91 410.949 174.577 410.804 175.041 410.514C175.52 410.224 175.861 409.825 176.064 409.317H177.935C177.819 409.869 177.609 410.355 177.304 410.775C177.014 411.196 176.651 411.551 176.216 411.842C175.795 412.117 175.31 412.328 174.758 412.473C174.221 412.618 173.648 412.69 173.039 412.69ZM172.93 402.463C172.481 402.463 172.045 402.528 171.625 402.659C171.204 402.775 170.827 402.971 170.493 403.246C170.174 403.507 169.913 403.841 169.71 404.247C169.507 404.653 169.405 405.139 169.405 405.705H176.347C176.332 405.11 176.231 404.61 176.042 404.204C175.868 403.783 175.629 403.449 175.324 403.203C175.019 402.942 174.657 402.753 174.236 402.637C173.83 402.521 173.395 402.463 172.93 402.463ZM180.875 400.94H182.79V405.749H188.752V400.94H190.667V412.473H188.752V407.446H182.79V412.473H180.875V400.94ZM194.156 400.94H196.071V409.644L202.033 400.94H203.948V412.473H202.033V403.769L196.071 412.473H194.156V400.94ZM212.225 412.69C211.485 412.69 210.781 412.574 210.114 412.342C209.447 412.11 208.859 411.755 208.351 411.276C207.844 410.783 207.438 410.166 207.133 409.426C206.828 408.686 206.676 407.816 206.676 406.815V406.38C206.676 405.422 206.821 404.595 207.111 403.899C207.401 403.188 207.786 402.601 208.264 402.136C208.758 401.658 209.323 401.302 209.962 401.07C210.615 400.838 211.296 400.722 212.007 400.722C213.705 400.722 215.017 401.186 215.946 402.115C216.874 403.043 217.338 404.356 217.338 406.053V407.272H208.591C208.591 407.954 208.7 408.527 208.917 408.991C209.135 409.455 209.418 409.832 209.766 410.123C210.114 410.413 210.498 410.623 210.919 410.754C211.354 410.884 211.79 410.949 212.225 410.949C213.095 410.949 213.763 410.804 214.227 410.514C214.705 410.224 215.046 409.825 215.249 409.317H217.121C217.005 409.869 216.794 410.355 216.49 410.775C216.2 411.196 215.837 411.551 215.402 411.842C214.981 412.117 214.495 412.328 213.944 412.473C213.407 412.618 212.834 412.69 212.225 412.69ZM212.116 402.463C211.666 402.463 211.231 402.528 210.81 402.659C210.39 402.775 210.013 402.971 209.679 403.246C209.36 403.507 209.099 403.841 208.895 404.247C208.692 404.653 208.591 405.139 208.591 405.705H215.532C215.518 405.11 215.416 404.61 215.228 404.204C215.054 403.783 214.814 403.449 214.51 403.203C214.205 402.942 213.842 402.753 213.422 402.637C213.015 402.521 212.58 402.463 212.116 402.463Z" fill="black"/>
<path d="M169.13 107.351H186.053V127.43H181.751V110.908H173.432V127.43H169.13V107.351ZM190.069 112.227H193.597V114.465C193.98 113.776 194.582 113.174 195.404 112.658C196.226 112.141 197.269 111.883 198.531 111.883C200.558 111.883 202.135 112.514 203.263 113.776C204.411 115.019 204.984 116.893 204.984 119.398V119.972C204.984 122.592 204.401 124.552 203.235 125.852C202.087 127.133 200.519 127.774 198.531 127.774C197.498 127.774 196.58 127.554 195.777 127.114C194.993 126.655 194.352 126.062 193.855 125.336V133.166H190.069V112.227ZM197.641 124.561C198.636 124.561 199.468 124.188 200.137 123.443C200.806 122.678 201.141 121.521 201.141 119.972V119.398C201.141 117.964 200.816 116.893 200.166 116.186C199.515 115.459 198.674 115.096 197.641 115.096C196.551 115.096 195.643 115.411 194.917 116.042C194.209 116.654 193.855 117.582 193.855 118.825V120.546C193.855 121.903 194.199 122.917 194.888 123.586C195.595 124.236 196.513 124.561 197.641 124.561ZM207.716 112.227H211.502V121.98L218.272 112.227H221.771V127.43H217.985V117.677L211.216 127.43H207.716V112.227ZM225.223 112.227H229.698L233.914 120.431L238.131 112.227H242.434V127.43H238.819V117.534L235.119 124.418H232.538L228.837 117.534V127.43H225.223V112.227ZM252.752 127.774C251.719 127.774 250.734 127.621 249.797 127.315C248.879 126.99 248.076 126.512 247.388 125.881C246.7 125.231 246.155 124.418 245.753 123.443C245.351 122.448 245.151 121.291 245.151 119.972V119.398C245.151 118.136 245.342 117.037 245.724 116.1C246.107 115.163 246.633 114.388 247.302 113.776C247.971 113.145 248.746 112.677 249.625 112.371C250.505 112.046 251.451 111.883 252.465 111.883C254.855 111.883 256.672 112.514 257.915 113.776C259.158 115.038 259.779 116.865 259.779 119.255V120.861H249.023C249.042 121.53 249.157 122.114 249.367 122.611C249.577 123.089 249.855 123.481 250.199 123.787C250.543 124.093 250.935 124.322 251.375 124.475C251.834 124.609 252.293 124.676 252.752 124.676C253.727 124.676 254.463 124.533 254.96 124.246C255.458 123.959 255.811 123.538 256.022 122.984H259.492C259.186 124.571 258.431 125.766 257.226 126.569C256.022 127.372 254.53 127.774 252.752 127.774ZM252.608 114.981C252.169 114.981 251.729 115.038 251.289 115.153C250.868 115.268 250.495 115.449 250.17 115.698C249.845 115.947 249.577 116.281 249.367 116.702C249.157 117.123 249.042 117.629 249.023 118.222H256.108C256.089 117.591 255.983 117.065 255.792 116.645C255.62 116.224 255.372 115.889 255.046 115.641C254.741 115.392 254.377 115.22 253.956 115.124C253.536 115.029 253.086 114.981 252.608 114.981ZM262.506 112.227H266.035V114.465C266.417 113.776 267.019 113.174 267.842 112.658C268.664 112.141 269.706 111.883 270.968 111.883C272.995 111.883 274.573 112.514 275.701 113.776C276.848 115.019 277.422 116.893 277.422 119.398V119.972C277.422 122.592 276.839 124.552 275.672 125.852C274.525 127.133 272.957 127.774 270.968 127.774C269.936 127.774 269.018 127.554 268.215 127.114C267.431 126.655 266.79 126.062 266.293 125.336V133.166H262.506V112.227ZM270.079 124.561C271.073 124.561 271.905 124.188 272.574 123.443C273.244 122.678 273.578 121.521 273.578 119.972V119.398C273.578 117.964 273.253 116.893 272.603 116.186C271.953 115.459 271.112 115.096 270.079 115.096C268.989 115.096 268.081 115.411 267.354 116.042C266.646 116.654 266.293 117.582 266.293 118.825V120.546C266.293 121.903 266.637 122.917 267.325 123.586C268.033 124.236 268.951 124.561 270.079 124.561ZM282.879 127.774C282.209 127.774 281.636 127.535 281.158 127.057C280.68 126.579 280.441 126.005 280.441 125.336C280.441 124.628 280.68 124.045 281.158 123.586C281.636 123.127 282.209 122.898 282.879 122.898C283.548 122.898 284.122 123.127 284.6 123.586C285.078 124.045 285.317 124.628 285.317 125.336C285.317 126.005 285.078 126.579 284.6 127.057C284.122 127.535 283.548 127.774 282.879 127.774ZM282.879 116.759C282.209 116.759 281.636 116.52 281.158 116.042C280.68 115.564 280.441 114.991 280.441 114.321C280.441 113.614 280.68 113.03 281.158 112.572C281.636 112.113 282.209 111.883 282.879 111.883C283.548 111.883 284.122 112.113 284.6 112.572C285.078 113.03 285.317 113.614 285.317 114.321C285.317 114.991 285.078 115.564 284.6 116.042C284.122 116.52 283.548 116.759 282.879 116.759ZM295.774 123.873H300.363V111.711L295.774 114.981V110.793L300.621 107.351H304.666V123.873H308.395V127.43H295.774V123.873ZM317.427 127.774C315.515 127.774 313.975 127.363 312.809 126.54C311.642 125.718 310.935 124.437 310.686 122.697H314.702C314.893 123.194 315.199 123.567 315.62 123.816C316.06 124.045 316.71 124.16 317.57 124.16C318.087 124.16 318.565 124.083 319.004 123.93C319.463 123.758 319.865 123.462 320.209 123.041C320.553 122.601 320.831 122.008 321.041 121.263C321.251 120.517 321.385 119.561 321.442 118.394C321.194 118.777 320.888 119.102 320.525 119.37C320.161 119.618 319.76 119.829 319.32 120.001C318.899 120.154 318.45 120.268 317.972 120.345C317.513 120.421 317.044 120.46 316.566 120.46C314.539 120.46 312.981 119.915 311.891 118.825C310.801 117.715 310.256 116.157 310.256 114.149V113.834C310.256 112.82 310.438 111.893 310.801 111.051C311.164 110.21 311.661 109.493 312.292 108.9C312.943 108.288 313.717 107.82 314.616 107.495C315.515 107.169 316.499 107.007 317.57 107.007C320.113 107.007 322.064 107.753 323.422 109.244C324.779 110.736 325.458 113.164 325.458 116.53V117.075C325.458 119.006 325.257 120.651 324.856 122.008C324.454 123.347 323.89 124.447 323.164 125.307C322.456 126.168 321.605 126.799 320.611 127.2C319.635 127.583 318.574 127.774 317.427 127.774ZM317.857 117.132C318.89 117.132 319.693 116.845 320.266 116.272C320.859 115.698 321.156 114.952 321.156 114.034V113.748C321.156 112.849 320.85 112.103 320.238 111.51C319.645 110.917 318.851 110.621 317.857 110.621C316.824 110.621 316.012 110.917 315.419 111.51C314.845 112.084 314.558 112.83 314.558 113.748V114.034C314.558 114.952 314.845 115.698 315.419 116.272C316.012 116.845 316.824 117.132 317.857 117.132ZM327.753 124.303L334.78 118.251C335.431 117.677 335.985 117.18 336.444 116.759C336.903 116.32 337.276 115.918 337.563 115.555C337.85 115.191 338.05 114.838 338.165 114.493C338.299 114.149 338.366 113.776 338.366 113.375C338.366 112.552 338.136 111.893 337.677 111.396C337.219 110.879 336.54 110.621 335.641 110.621C334.608 110.621 333.796 110.908 333.203 111.482C332.629 112.036 332.342 113.002 332.342 114.379H328.04C328.04 112.103 328.68 110.306 329.962 108.986C331.262 107.667 333.155 107.007 335.641 107.007C336.807 107.007 337.821 107.169 338.681 107.495C339.561 107.8 340.297 108.24 340.89 108.814C341.483 109.369 341.923 110.038 342.209 110.822C342.515 111.606 342.668 112.457 342.668 113.375C342.668 114.063 342.544 114.723 342.296 115.354C342.047 115.966 341.703 116.559 341.263 117.132C340.842 117.706 340.345 118.27 339.771 118.825C339.198 119.36 338.586 119.895 337.936 120.431L333.805 123.873H342.955V127.43H327.753V124.303ZM348.537 127.774C347.868 127.774 347.294 127.535 346.816 127.057C346.338 126.579 346.099 126.005 346.099 125.336C346.099 124.628 346.338 124.045 346.816 123.586C347.294 123.127 347.868 122.898 348.537 122.898C349.207 122.898 349.78 123.127 350.258 123.586C350.736 124.045 350.975 124.628 350.975 125.336C350.975 126.005 350.736 126.579 350.258 127.057C349.78 127.535 349.207 127.774 348.537 127.774ZM354.262 123.873H358.851V111.711L354.262 114.981V110.793L359.109 107.351H363.154V123.873H366.883V127.43H354.262V123.873ZM376.775 127.774C375.513 127.774 374.394 127.592 373.419 127.229C372.444 126.866 371.622 126.301 370.952 125.537C370.283 124.753 369.767 123.758 369.403 122.553C369.059 121.349 368.887 119.915 368.887 118.251V117.677C368.887 115.765 369.088 114.14 369.489 112.801C369.891 111.443 370.455 110.334 371.182 109.474C371.908 108.613 372.769 107.992 373.763 107.609C374.777 107.208 375.876 107.007 377.062 107.007C378.917 107.007 380.418 107.399 381.565 108.183C382.713 108.967 383.411 110.267 383.659 112.084H379.643C379.261 111.109 378.353 110.621 376.919 110.621C376.364 110.621 375.848 110.707 375.37 110.879C374.911 111.032 374.5 111.329 374.136 111.768C373.792 112.189 373.515 112.772 373.304 113.518C373.094 114.264 372.96 115.22 372.903 116.386C373.151 116.004 373.457 115.688 373.821 115.44C374.184 115.172 374.576 114.962 374.997 114.809C375.437 114.637 375.886 114.512 376.345 114.436C376.823 114.359 377.301 114.321 377.779 114.321C379.806 114.321 381.365 114.876 382.454 115.985C383.544 117.075 384.089 118.624 384.089 120.632V120.947C384.089 121.961 383.908 122.888 383.544 123.729C383.181 124.571 382.674 125.298 382.024 125.909C381.393 126.502 380.628 126.961 379.73 127.286C378.831 127.611 377.846 127.774 376.775 127.774ZM376.488 124.16C377.521 124.16 378.324 123.873 378.898 123.299C379.49 122.706 379.787 121.951 379.787 121.033V120.746C379.787 119.829 379.49 119.083 378.898 118.509C378.324 117.935 377.521 117.649 376.488 117.649C375.456 117.649 374.643 117.935 374.05 118.509C373.476 119.083 373.19 119.829 373.19 120.746V121.033C373.19 121.951 373.476 122.706 374.05 123.299C374.643 123.873 375.456 124.16 376.488 124.16ZM394.416 127.774C393.211 127.774 392.121 127.64 391.146 127.372C390.19 127.085 389.377 126.693 388.708 126.196C388.057 125.68 387.551 125.068 387.187 124.361C386.843 123.634 386.671 122.831 386.671 121.951C386.671 120.823 387.015 119.819 387.704 118.939C388.392 118.041 389.415 117.41 390.773 117.046C389.759 116.721 388.918 116.157 388.249 115.354C387.579 114.551 387.245 113.595 387.245 112.485C387.245 111.682 387.398 110.946 387.704 110.277C388.029 109.608 388.497 109.034 389.109 108.556C389.721 108.059 390.467 107.676 391.346 107.408C392.245 107.141 393.268 107.007 394.416 107.007C395.563 107.007 396.576 107.141 397.456 107.408C398.355 107.676 399.11 108.059 399.722 108.556C400.353 109.034 400.822 109.608 401.128 110.277C401.453 110.946 401.615 111.682 401.615 112.485C401.615 113.595 401.281 114.541 400.611 115.325C399.942 116.09 399.091 116.664 398.058 117.046C400.793 117.888 402.16 119.523 402.16 121.951C402.16 122.831 401.979 123.634 401.615 124.361C401.271 125.068 400.764 125.68 400.095 126.196C399.445 126.693 398.642 127.085 397.686 127.372C396.729 127.64 395.639 127.774 394.416 127.774ZM394.416 124.16C395.601 124.16 396.471 123.93 397.026 123.471C397.58 123.012 397.858 122.391 397.858 121.607C397.858 120.746 397.533 120.068 396.882 119.57C396.251 119.054 395.429 118.719 394.416 118.566C393.402 118.719 392.57 119.054 391.92 119.57C391.289 120.068 390.974 120.746 390.974 121.607C390.974 122.391 391.26 123.012 391.834 123.471C392.408 123.93 393.268 124.16 394.416 124.16ZM394.416 115.641C395.276 115.488 395.974 115.191 396.509 114.751C397.045 114.293 397.313 113.662 397.313 112.858C397.313 112.113 397.054 111.558 396.538 111.195C396.041 110.812 395.333 110.621 394.416 110.621C393.517 110.621 392.809 110.812 392.293 111.195C391.796 111.558 391.547 112.113 391.547 112.858C391.547 113.662 391.805 114.293 392.322 114.751C392.857 115.191 393.555 115.488 394.416 115.641ZM407.894 127.774C407.224 127.774 406.651 127.535 406.173 127.057C405.694 126.579 405.455 126.005 405.455 125.336C405.455 124.628 405.694 124.045 406.173 123.586C406.651 123.127 407.224 122.898 407.894 122.898C408.563 122.898 409.137 123.127 409.615 123.586C410.093 124.045 410.332 124.628 410.332 125.336C410.332 126.005 410.093 126.579 409.615 127.057C409.137 127.535 408.563 127.774 407.894 127.774ZM413.618 123.873H418.207V111.711L413.618 114.981V110.793L418.466 107.351H422.51V123.873H426.239V127.43H413.618V123.873ZM435.988 127.774C434.898 127.774 433.875 127.602 432.919 127.258C431.982 126.894 431.169 126.311 430.481 125.508C429.792 124.686 429.247 123.615 428.846 122.295C428.444 120.957 428.243 119.322 428.243 117.39V116.817C428.243 115.019 428.444 113.499 428.846 112.256C429.247 111.013 429.792 110.009 430.481 109.244C431.169 108.46 431.982 107.896 432.919 107.552C433.875 107.189 434.898 107.007 435.988 107.007C437.078 107.007 438.091 107.189 439.028 107.552C439.984 107.896 440.807 108.46 441.495 109.244C442.184 110.009 442.729 111.013 443.13 112.256C443.532 113.499 443.732 115.019 443.732 116.817V117.39C443.732 119.322 443.532 120.957 443.13 122.295C442.729 123.615 442.184 124.686 441.495 125.508C440.807 126.311 439.984 126.894 439.028 127.258C438.091 127.602 437.078 127.774 435.988 127.774ZM435.988 124.16C436.466 124.16 436.915 124.064 437.336 123.873C437.757 123.682 438.12 123.337 438.426 122.84C438.751 122.324 439 121.626 439.172 120.746C439.344 119.867 439.43 118.748 439.43 117.39V116.817C439.43 115.593 439.344 114.589 439.172 113.805C439 113.002 438.751 112.371 438.426 111.912C438.12 111.434 437.757 111.099 437.336 110.908C436.915 110.717 436.466 110.621 435.988 110.621C435.491 110.621 435.032 110.717 434.611 110.908C434.21 111.099 433.846 111.434 433.521 111.912C433.215 112.371 432.976 113.002 432.804 113.805C432.632 114.589 432.546 115.593 432.546 116.817V117.39C432.546 118.748 432.632 119.867 432.804 120.746C432.976 121.626 433.215 122.324 433.521 122.84C433.846 123.337 434.21 123.682 434.611 123.873C435.032 124.064 435.491 124.16 435.988 124.16ZM449.603 127.774C448.933 127.774 448.36 127.535 447.882 127.057C447.403 126.579 447.164 126.005 447.164 125.336C447.164 124.628 447.403 124.045 447.882 123.586C448.36 123.127 448.933 122.898 449.603 122.898C450.272 122.898 450.846 123.127 451.324 123.586C451.802 124.045 452.041 124.628 452.041 125.336C452.041 126.005 451.802 126.579 451.324 127.057C450.846 127.535 450.272 127.774 449.603 127.774ZM455.327 123.873H459.916V111.711L455.327 114.981V110.793L460.175 107.351H464.219V123.873H467.948V127.43H455.327V123.873ZM469.809 123.873H474.398V111.711L469.809 114.981V110.793L474.656 107.351H478.701V123.873H482.43V127.43H469.809V123.873Z" fill="black"/>
<path d="M371.858 661.869H376.447V649.707L371.858 652.977V648.789L376.705 645.347H380.75V661.869H384.479V665.426H371.858V661.869ZM386.34 661.869H390.929V649.707L386.34 652.977V648.789L391.187 645.347H395.232V661.869H398.961V665.426H386.34V661.869ZM408.71 665.77C407.62 665.77 406.597 665.598 405.641 665.254C404.704 664.89 403.891 664.307 403.202 663.504C402.514 662.682 401.969 661.611 401.567 660.291C401.166 658.953 400.965 657.318 400.965 655.386V654.813C400.965 653.015 401.166 651.495 401.567 650.252C401.969 649.009 402.514 648.005 403.202 647.24C403.891 646.456 404.704 645.892 405.641 645.548C406.597 645.185 407.62 645.003 408.71 645.003C409.8 645.003 410.813 645.185 411.75 645.548C412.706 645.892 413.529 646.456 414.217 647.24C414.905 648.005 415.45 649.009 415.852 650.252C416.254 651.495 416.454 653.015 416.454 654.813V655.386C416.454 657.318 416.254 658.953 415.852 660.291C415.45 661.611 414.905 662.682 414.217 663.504C413.529 664.307 412.706 664.89 411.75 665.254C410.813 665.598 409.8 665.77 408.71 665.77ZM408.71 662.156C409.188 662.156 409.637 662.06 410.058 661.869C410.479 661.678 410.842 661.334 411.148 660.836C411.473 660.32 411.721 659.622 411.894 658.742C412.066 657.863 412.152 656.744 412.152 655.386V654.813C412.152 653.589 412.066 652.585 411.894 651.801C411.721 650.998 411.473 650.367 411.148 649.908C410.842 649.43 410.479 649.095 410.058 648.904C409.637 648.713 409.188 648.617 408.71 648.617C408.213 648.617 407.754 648.713 407.333 648.904C406.931 649.095 406.568 649.43 406.243 649.908C405.937 650.367 405.698 650.998 405.526 651.801C405.354 652.585 405.268 653.589 405.268 654.813V655.386C405.268 656.744 405.354 657.863 405.526 658.742C405.698 659.622 405.937 660.32 406.243 660.836C406.568 661.334 406.931 661.678 407.333 661.869C407.754 662.06 408.213 662.156 408.71 662.156ZM427.057 665.77C425.967 665.77 424.944 665.598 423.988 665.254C423.051 664.89 422.238 664.307 421.55 663.504C420.861 662.682 420.317 661.611 419.915 660.291C419.513 658.953 419.313 657.318 419.313 655.386V654.813C419.313 653.015 419.513 651.495 419.915 650.252C420.317 649.009 420.861 648.005 421.55 647.24C422.238 646.456 423.051 645.892 423.988 645.548C424.944 645.185 425.967 645.003 427.057 645.003C428.147 645.003 429.161 645.185 430.098 645.548C431.054 645.892 431.876 646.456 432.564 647.24C433.253 648.005 433.798 649.009 434.199 650.252C434.601 651.495 434.802 653.015 434.802 654.813V655.386C434.802 657.318 434.601 658.953 434.199 660.291C433.798 661.611 433.253 662.682 432.564 663.504C431.876 664.307 431.054 664.89 430.098 665.254C429.161 665.598 428.147 665.77 427.057 665.77ZM427.057 662.156C427.535 662.156 427.985 662.06 428.405 661.869C428.826 661.678 429.189 661.334 429.495 660.836C429.82 660.32 430.069 659.622 430.241 658.742C430.413 657.863 430.499 656.744 430.499 655.386V654.813C430.499 653.589 430.413 652.585 430.241 651.801C430.069 650.998 429.82 650.367 429.495 649.908C429.189 649.43 428.826 649.095 428.405 648.904C427.985 648.713 427.535 648.617 427.057 648.617C426.56 648.617 426.101 648.713 425.68 648.904C425.279 649.095 424.915 649.43 424.59 649.908C424.284 650.367 424.045 650.998 423.873 651.801C423.701 652.585 423.615 653.589 423.615 654.813V655.386C423.615 656.744 423.701 657.863 423.873 658.742C424.045 659.622 424.284 660.32 424.59 660.836C424.915 661.334 425.279 661.678 425.68 661.869C426.101 662.06 426.56 662.156 427.057 662.156ZM445.405 665.77C444.315 665.77 443.292 665.598 442.335 665.254C441.398 664.89 440.586 664.307 439.897 663.504C439.209 662.682 438.664 661.611 438.262 660.291C437.861 658.953 437.66 657.318 437.66 655.386V654.813C437.66 653.015 437.861 651.495 438.262 650.252C438.664 649.009 439.209 648.005 439.897 647.24C440.586 646.456 441.398 645.892 442.335 645.548C443.292 645.185 444.315 645.003 445.405 645.003C446.495 645.003 447.508 645.185 448.445 645.548C449.401 645.892 450.224 646.456 450.912 647.24C451.6 648.005 452.145 649.009 452.547 650.252C452.948 651.495 453.149 653.015 453.149 654.813V655.386C453.149 657.318 452.948 658.953 452.547 660.291C452.145 661.611 451.6 662.682 450.912 663.504C450.224 664.307 449.401 664.89 448.445 665.254C447.508 665.598 446.495 665.77 445.405 665.77ZM445.405 662.156C445.883 662.156 446.332 662.06 446.753 661.869C447.173 661.678 447.537 661.334 447.843 660.836C448.168 660.32 448.416 659.622 448.589 658.742C448.761 657.863 448.847 656.744 448.847 655.386V654.813C448.847 653.589 448.761 652.585 448.589 651.801C448.416 650.998 448.168 650.367 447.843 649.908C447.537 649.43 447.173 649.095 446.753 648.904C446.332 648.713 445.883 648.617 445.405 648.617C444.907 648.617 444.449 648.713 444.028 648.904C443.626 649.095 443.263 649.43 442.938 649.908C442.632 650.367 442.393 650.998 442.221 651.801C442.049 652.585 441.963 653.589 441.963 654.813V655.386C441.963 656.744 442.049 657.863 442.221 658.742C442.393 659.622 442.632 660.32 442.938 660.836C443.263 661.334 443.626 661.678 444.028 661.869C444.449 662.06 444.907 662.156 445.405 662.156ZM463.752 665.77C462.662 665.77 461.639 665.598 460.683 665.254C459.746 664.89 458.933 664.307 458.245 663.504C457.556 662.682 457.011 661.611 456.61 660.291C456.208 658.953 456.008 657.318 456.008 655.386V654.813C456.008 653.015 456.208 651.495 456.61 650.252C457.011 649.009 457.556 648.005 458.245 647.24C458.933 646.456 459.746 645.892 460.683 645.548C461.639 645.185 462.662 645.003 463.752 645.003C464.842 645.003 465.856 645.185 466.793 645.548C467.749 645.892 468.571 646.456 469.259 647.24C469.948 648.005 470.493 649.009 470.894 650.252C471.296 651.495 471.497 653.015 471.497 654.813V655.386C471.497 657.318 471.296 658.953 470.894 660.291C470.493 661.611 469.948 662.682 469.259 663.504C468.571 664.307 467.749 664.89 466.793 665.254C465.856 665.598 464.842 665.77 463.752 665.77ZM463.752 662.156C464.23 662.156 464.68 662.06 465.1 661.869C465.521 661.678 465.884 661.334 466.19 660.836C466.515 660.32 466.764 659.622 466.936 658.742C467.108 657.863 467.194 656.744 467.194 655.386V654.813C467.194 653.589 467.108 652.585 466.936 651.801C466.764 650.998 466.515 650.367 466.19 649.908C465.884 649.43 465.521 649.095 465.1 648.904C464.68 648.713 464.23 648.617 463.752 648.617C463.255 648.617 462.796 648.713 462.375 648.904C461.974 649.095 461.61 649.43 461.285 649.908C460.979 650.367 460.74 650.998 460.568 651.801C460.396 652.585 460.31 653.589 460.31 654.813V655.386C460.31 656.744 460.396 657.863 460.568 658.742C460.74 659.622 460.979 660.32 461.285 660.836C461.61 661.334 461.974 661.678 462.375 661.869C462.796 662.06 463.255 662.156 463.752 662.156ZM482.1 665.77C481.01 665.77 479.987 665.598 479.03 665.254C478.093 664.89 477.281 664.307 476.592 663.504C475.904 662.682 475.359 661.611 474.957 660.291C474.556 658.953 474.355 657.318 474.355 655.386V654.813C474.355 653.015 474.556 651.495 474.957 650.252C475.359 649.009 475.904 648.005 476.592 647.24C477.281 646.456 478.093 645.892 479.03 645.548C479.987 645.185 481.01 645.003 482.1 645.003C483.19 645.003 484.203 645.185 485.14 645.548C486.096 645.892 486.918 646.456 487.607 647.24C488.295 648.005 488.84 649.009 489.242 650.252C489.643 651.495 489.844 653.015 489.844 654.813V655.386C489.844 657.318 489.643 658.953 489.242 660.291C488.84 661.611 488.295 662.682 487.607 663.504C486.918 664.307 486.096 664.89 485.14 665.254C484.203 665.598 483.19 665.77 482.1 665.77ZM482.1 662.156C482.578 662.156 483.027 662.06 483.448 661.869C483.868 661.678 484.232 661.334 484.538 660.836C484.863 660.32 485.111 659.622 485.283 658.742C485.456 657.863 485.542 656.744 485.542 655.386V654.813C485.542 653.589 485.456 652.585 485.283 651.801C485.111 650.998 484.863 650.367 484.538 649.908C484.232 649.43 483.868 649.095 483.448 648.904C483.027 648.713 482.578 648.617 482.1 648.617C481.602 648.617 481.143 648.713 480.723 648.904C480.321 649.095 479.958 649.43 479.633 649.908C479.327 650.367 479.088 650.998 478.916 651.801C478.744 652.585 478.658 653.589 478.658 654.813V655.386C478.658 656.744 478.744 657.863 478.916 658.742C479.088 659.622 479.327 660.32 479.633 660.836C479.958 661.334 480.321 661.678 480.723 661.869C481.143 662.06 481.602 662.156 482.1 662.156ZM500.447 665.77C499.357 665.77 498.334 665.598 497.378 665.254C496.441 664.89 495.628 664.307 494.94 663.504C494.251 662.682 493.706 661.611 493.305 660.291C492.903 658.953 492.702 657.318 492.702 655.386V654.813C492.702 653.015 492.903 651.495 493.305 650.252C493.706 649.009 494.251 648.005 494.94 647.24C495.628 646.456 496.441 645.892 497.378 645.548C498.334 645.185 499.357 645.003 500.447 645.003C501.537 645.003 502.551 645.185 503.488 645.548C504.444 645.892 505.266 646.456 505.954 647.24C506.643 648.005 507.188 649.009 507.589 650.252C507.991 651.495 508.192 653.015 508.192 654.813V655.386C508.192 657.318 507.991 658.953 507.589 660.291C507.188 661.611 506.643 662.682 505.954 663.504C505.266 664.307 504.444 664.89 503.488 665.254C502.551 665.598 501.537 665.77 500.447 665.77ZM500.447 662.156C500.925 662.156 501.375 662.06 501.795 661.869C502.216 661.678 502.579 661.334 502.885 660.836C503.21 660.32 503.459 659.622 503.631 658.742C503.803 657.863 503.889 656.744 503.889 655.386V654.813C503.889 653.589 503.803 652.585 503.631 651.801C503.459 650.998 503.21 650.367 502.885 649.908C502.579 649.43 502.216 649.095 501.795 648.904C501.375 648.713 500.925 648.617 500.447 648.617C499.95 648.617 499.491 648.713 499.07 648.904C498.669 649.095 498.305 649.43 497.98 649.908C497.674 650.367 497.435 650.998 497.263 651.801C497.091 652.585 497.005 653.589 497.005 654.813V655.386C497.005 656.744 497.091 657.863 497.263 658.742C497.435 659.622 497.674 660.32 497.98 660.836C498.305 661.334 498.669 661.678 499.07 661.869C499.491 662.06 499.95 662.156 500.447 662.156ZM514.062 665.77C513.392 665.77 512.819 665.531 512.341 665.053C511.863 664.575 511.624 664.001 511.624 663.332C511.624 662.624 511.863 662.041 512.341 661.582C512.819 661.123 513.392 660.894 514.062 660.894C514.731 660.894 515.305 661.123 515.783 661.582C516.261 662.041 516.5 662.624 516.5 663.332C516.5 664.001 516.261 664.575 515.783 665.053C515.305 665.531 514.731 665.77 514.062 665.77Z" fill="black"/>
<path d="M525.291 661.869H529.88V649.707L525.291 652.977V648.789L530.138 645.347H534.183V661.869H537.911V665.426H525.291V661.869ZM547.661 665.77C546.571 665.77 545.548 665.598 544.591 665.254C543.654 664.89 542.842 664.307 542.153 663.504C541.465 662.682 540.92 661.611 540.518 660.291C540.117 658.953 539.916 657.318 539.916 655.386V654.813C539.916 653.015 540.117 651.495 540.518 650.252C540.92 649.009 541.465 648.005 542.153 647.24C542.842 646.456 543.654 645.892 544.591 645.548C545.548 645.185 546.571 645.003 547.661 645.003C548.751 645.003 549.764 645.185 550.701 645.548C551.657 645.892 552.479 646.456 553.168 647.24C553.856 648.005 554.401 649.009 554.803 650.252C555.204 651.495 555.405 653.015 555.405 654.813V655.386C555.405 657.318 555.204 658.953 554.803 660.291C554.401 661.611 553.856 662.682 553.168 663.504C552.479 664.307 551.657 664.89 550.701 665.254C549.764 665.598 548.751 665.77 547.661 665.77ZM547.661 662.156C548.139 662.156 548.588 662.06 549.009 661.869C549.429 661.678 549.793 661.334 550.099 660.836C550.424 660.32 550.672 659.622 550.844 658.742C551.017 657.863 551.103 656.744 551.103 655.386V654.813C551.103 653.589 551.017 652.585 550.844 651.801C550.672 650.998 550.424 650.367 550.099 649.908C549.793 649.43 549.429 649.095 549.009 648.904C548.588 648.713 548.139 648.617 547.661 648.617C547.163 648.617 546.704 648.713 546.284 648.904C545.882 649.095 545.519 649.43 545.194 649.908C544.888 650.367 544.649 650.998 544.477 651.801C544.305 652.585 544.219 653.589 544.219 654.813V655.386C544.219 656.744 544.305 657.863 544.477 658.742C544.649 659.622 544.888 660.32 545.194 660.836C545.519 661.334 545.882 661.678 546.284 661.869C546.704 662.06 547.163 662.156 547.661 662.156ZM558.12 661.869H562.709V649.707L558.12 652.977V648.789L562.968 645.347H567.012V661.869H570.741V665.426H558.12V661.869ZM580.49 665.77C579.4 665.77 578.377 665.598 577.421 665.254C576.484 664.89 575.671 664.307 574.983 663.504C574.294 662.682 573.749 661.611 573.348 660.291C572.946 658.953 572.745 657.318 572.745 655.386V654.813C572.745 653.015 572.946 651.495 573.348 650.252C573.749 649.009 574.294 648.005 574.983 647.24C575.671 646.456 576.484 645.892 577.421 645.548C578.377 645.185 579.4 645.003 580.49 645.003C581.58 645.003 582.593 645.185 583.53 645.548C584.487 645.892 585.309 646.456 585.997 647.24C586.686 648.005 587.231 649.009 587.632 650.252C588.034 651.495 588.235 653.015 588.235 654.813V655.386C588.235 657.318 588.034 658.953 587.632 660.291C587.231 661.611 586.686 662.682 585.997 663.504C585.309 664.307 584.487 664.89 583.53 665.254C582.593 665.598 581.58 665.77 580.49 665.77ZM580.49 662.156C580.968 662.156 581.417 662.06 581.838 661.869C582.259 661.678 582.622 661.334 582.928 660.836C583.253 660.32 583.502 659.622 583.674 658.742C583.846 657.863 583.932 656.744 583.932 655.386V654.813C583.932 653.589 583.846 652.585 583.674 651.801C583.502 650.998 583.253 650.367 582.928 649.908C582.622 649.43 582.259 649.095 581.838 648.904C581.417 648.713 580.968 648.617 580.49 648.617C579.993 648.617 579.534 648.713 579.113 648.904C578.712 649.095 578.348 649.43 578.023 649.908C577.717 650.367 577.478 650.998 577.306 651.801C577.134 652.585 577.048 653.589 577.048 654.813V655.386C577.048 656.744 577.134 657.863 577.306 658.742C577.478 659.622 577.717 660.32 578.023 660.836C578.348 661.334 578.712 661.678 579.113 661.869C579.534 662.06 579.993 662.156 580.49 662.156ZM590.949 661.869H595.539V649.707L590.949 652.977V648.789L595.797 645.347H599.841V661.869H603.57V665.426H590.949V661.869ZM613.319 665.77C612.229 665.77 611.206 665.598 610.25 665.254C609.313 664.89 608.5 664.307 607.812 663.504C607.124 662.682 606.579 661.611 606.177 660.291C605.776 658.953 605.575 657.318 605.575 655.386V654.813C605.575 653.015 605.776 651.495 606.177 650.252C606.579 649.009 607.124 648.005 607.812 647.24C608.5 646.456 609.313 645.892 610.25 645.548C611.206 645.185 612.229 645.003 613.319 645.003C614.409 645.003 615.423 645.185 616.36 645.548C617.316 645.892 618.138 646.456 618.827 647.24C619.515 648.005 620.06 649.009 620.462 650.252C620.863 651.495 621.064 653.015 621.064 654.813V655.386C621.064 657.318 620.863 658.953 620.462 660.291C620.06 661.611 619.515 662.682 618.827 663.504C618.138 664.307 617.316 664.89 616.36 665.254C615.423 665.598 614.409 665.77 613.319 665.77ZM613.319 662.156C613.797 662.156 614.247 662.06 614.667 661.869C615.088 661.678 615.451 661.334 615.757 660.836C616.083 660.32 616.331 659.622 616.503 658.742C616.675 657.863 616.761 656.744 616.761 655.386V654.813C616.761 653.589 616.675 652.585 616.503 651.801C616.331 650.998 616.083 650.367 615.757 649.908C615.451 649.43 615.088 649.095 614.667 648.904C614.247 648.713 613.797 648.617 613.319 648.617C612.822 648.617 612.363 648.713 611.943 648.904C611.541 649.095 611.178 649.43 610.853 649.908C610.547 650.367 610.308 650.998 610.135 651.801C609.963 652.585 609.877 653.589 609.877 654.813V655.386C609.877 656.744 609.963 657.863 610.135 658.742C610.308 659.622 610.547 660.32 610.853 660.836C611.178 661.334 611.541 661.678 611.943 661.869C612.363 662.06 612.822 662.156 613.319 662.156ZM631.667 665.77C630.577 665.77 629.554 665.598 628.598 665.254C627.661 664.89 626.848 664.307 626.16 663.504C625.471 662.682 624.926 661.611 624.525 660.291C624.123 658.953 623.922 657.318 623.922 655.386V654.813C623.922 653.015 624.123 651.495 624.525 650.252C624.926 649.009 625.471 648.005 626.16 647.24C626.848 646.456 627.661 645.892 628.598 645.548C629.554 645.185 630.577 645.003 631.667 645.003C632.757 645.003 633.77 645.185 634.707 645.548C635.663 645.892 636.486 646.456 637.174 647.24C637.862 648.005 638.407 649.009 638.809 650.252C639.211 651.495 639.411 653.015 639.411 654.813V655.386C639.411 657.318 639.211 658.953 638.809 660.291C638.407 661.611 637.862 662.682 637.174 663.504C636.486 664.307 635.663 664.89 634.707 665.254C633.77 665.598 632.757 665.77 631.667 665.77ZM631.667 662.156C632.145 662.156 632.594 662.06 633.015 661.869C633.436 661.678 633.799 661.334 634.105 660.836C634.43 660.32 634.679 659.622 634.851 658.742C635.023 657.863 635.109 656.744 635.109 655.386V654.813C635.109 653.589 635.023 652.585 634.851 651.801C634.679 650.998 634.43 650.367 634.105 649.908C633.799 649.43 633.436 649.095 633.015 648.904C632.594 648.713 632.145 648.617 631.667 648.617C631.17 648.617 630.711 648.713 630.29 648.904C629.888 649.095 629.525 649.43 629.2 649.908C628.894 650.367 628.655 650.998 628.483 651.801C628.311 652.585 628.225 653.589 628.225 654.813V655.386C628.225 656.744 628.311 657.863 628.483 658.742C628.655 659.622 628.894 660.32 629.2 660.836C629.525 661.334 629.888 661.678 630.29 661.869C630.711 662.06 631.17 662.156 631.667 662.156ZM650.014 665.77C648.924 665.77 647.901 665.598 646.945 665.254C646.008 664.89 645.195 664.307 644.507 663.504C643.819 662.682 643.274 661.611 642.872 660.291C642.47 658.953 642.27 657.318 642.27 655.386V654.813C642.27 653.015 642.47 651.495 642.872 650.252C643.274 649.009 643.819 648.005 644.507 647.24C645.195 646.456 646.008 645.892 646.945 645.548C647.901 645.185 648.924 645.003 650.014 645.003C651.104 645.003 652.118 645.185 653.055 645.548C654.011 645.892 654.833 646.456 655.522 647.24C656.21 648.005 656.755 649.009 657.157 650.252C657.558 651.495 657.759 653.015 657.759 654.813V655.386C657.759 657.318 657.558 658.953 657.157 660.291C656.755 661.611 656.21 662.682 655.522 663.504C654.833 664.307 654.011 664.89 653.055 665.254C652.118 665.598 651.104 665.77 650.014 665.77ZM650.014 662.156C650.492 662.156 650.942 662.06 651.362 661.869C651.783 661.678 652.146 661.334 652.452 660.836C652.777 660.32 653.026 659.622 653.198 658.742C653.37 657.863 653.456 656.744 653.456 655.386V654.813C653.456 653.589 653.37 652.585 653.198 651.801C653.026 650.998 652.777 650.367 652.452 649.908C652.146 649.43 651.783 649.095 651.362 648.904C650.942 648.713 650.492 648.617 650.014 648.617C649.517 648.617 649.058 648.713 648.637 648.904C648.236 649.095 647.873 649.43 647.547 649.908C647.242 650.367 647.002 650.998 646.83 651.801C646.658 652.585 646.572 653.589 646.572 654.813V655.386C646.572 656.744 646.658 657.863 646.83 658.742C647.002 659.622 647.242 660.32 647.547 660.836C647.873 661.334 648.236 661.678 648.637 661.869C649.058 662.06 649.517 662.156 650.014 662.156ZM663.629 665.77C662.96 665.77 662.386 665.531 661.908 665.053C661.43 664.575 661.191 664.001 661.191 663.332C661.191 662.624 661.43 662.041 661.908 661.582C662.386 661.123 662.96 660.894 663.629 660.894C664.298 660.894 664.872 661.123 665.35 661.582C665.828 662.041 666.067 662.624 666.067 663.332C666.067 664.001 665.828 664.575 665.35 665.053C664.872 665.531 664.298 665.77 663.629 665.77Z" fill="black"/>
<path d="M682.746 665.77C681.656 665.77 680.633 665.598 679.677 665.254C678.74 664.89 677.927 664.307 677.239 663.504C676.55 662.682 676.005 661.611 675.604 660.291C675.202 658.953 675.001 657.318 675.001 655.386V654.813C675.001 653.015 675.202 651.495 675.604 650.252C676.005 649.009 676.55 648.005 677.239 647.24C677.927 646.456 678.74 645.892 679.677 645.548C680.633 645.185 681.656 645.003 682.746 645.003C683.836 645.003 684.849 645.185 685.786 645.548C686.742 645.892 687.565 646.456 688.253 647.24C688.942 648.005 689.487 649.009 689.888 650.252C690.29 651.495 690.49 653.015 690.49 654.813V655.386C690.49 657.318 690.29 658.953 689.888 660.291C689.487 661.611 688.942 662.682 688.253 663.504C687.565 664.307 686.742 664.89 685.786 665.254C684.849 665.598 683.836 665.77 682.746 665.77ZM682.746 662.156C683.224 662.156 683.673 662.06 684.094 661.869C684.515 661.678 684.878 661.334 685.184 660.836C685.509 660.32 685.758 659.622 685.93 658.742C686.102 657.863 686.188 656.744 686.188 655.386V654.813C686.188 653.589 686.102 652.585 685.93 651.801C685.758 650.998 685.509 650.367 685.184 649.908C684.878 649.43 684.515 649.095 684.094 648.904C683.673 648.713 683.224 648.617 682.746 648.617C682.249 648.617 681.79 648.713 681.369 648.904C680.968 649.095 680.604 649.43 680.279 649.908C679.973 650.367 679.734 650.998 679.562 651.801C679.39 652.585 679.304 653.589 679.304 654.813V655.386C679.304 656.744 679.39 657.863 679.562 658.742C679.734 659.622 679.973 660.32 680.279 660.836C680.604 661.334 680.968 661.678 681.369 661.869C681.79 662.06 682.249 662.156 682.746 662.156ZM701.093 665.77C700.003 665.77 698.98 665.598 698.024 665.254C697.087 664.89 696.275 664.307 695.586 663.504C694.898 662.682 694.353 661.611 693.951 660.291C693.55 658.953 693.349 657.318 693.349 655.386V654.813C693.349 653.015 693.55 651.495 693.951 650.252C694.353 649.009 694.898 648.005 695.586 647.24C696.275 646.456 697.087 645.892 698.024 645.548C698.98 645.185 700.003 645.003 701.093 645.003C702.183 645.003 703.197 645.185 704.134 645.548C705.09 645.892 705.912 646.456 706.601 647.24C707.289 648.005 707.834 649.009 708.236 650.252C708.637 651.495 708.838 653.015 708.838 654.813V655.386C708.838 657.318 708.637 658.953 708.236 660.291C707.834 661.611 707.289 662.682 706.601 663.504C705.912 664.307 705.09 664.89 704.134 665.254C703.197 665.598 702.183 665.77 701.093 665.77ZM701.093 662.156C701.571 662.156 702.021 662.06 702.442 661.869C702.862 661.678 703.226 661.334 703.531 660.836C703.857 660.32 704.105 659.622 704.277 658.742C704.449 657.863 704.535 656.744 704.535 655.386V654.813C704.535 653.589 704.449 652.585 704.277 651.801C704.105 650.998 703.857 650.367 703.531 649.908C703.226 649.43 702.862 649.095 702.442 648.904C702.021 648.713 701.571 648.617 701.093 648.617C700.596 648.617 700.137 648.713 699.717 648.904C699.315 649.095 698.952 649.43 698.627 649.908C698.321 650.367 698.082 650.998 697.909 651.801C697.737 652.585 697.651 653.589 697.651 654.813V655.386C697.651 656.744 697.737 657.863 697.909 658.742C698.082 659.622 698.321 660.32 698.627 660.836C698.952 661.334 699.315 661.678 699.717 661.869C700.137 662.06 700.596 662.156 701.093 662.156ZM719.441 665.77C718.351 665.77 717.328 665.598 716.372 665.254C715.435 664.89 714.622 664.307 713.934 663.504C713.245 662.682 712.7 661.611 712.299 660.291C711.897 658.953 711.696 657.318 711.696 655.386V654.813C711.696 653.015 711.897 651.495 712.299 650.252C712.7 649.009 713.245 648.005 713.934 647.24C714.622 646.456 715.435 645.892 716.372 645.548C717.328 645.185 718.351 645.003 719.441 645.003C720.531 645.003 721.544 645.185 722.481 645.548C723.437 645.892 724.26 646.456 724.948 647.24C725.637 648.005 726.182 649.009 726.583 650.252C726.985 651.495 727.185 653.015 727.185 654.813V655.386C727.185 657.318 726.985 658.953 726.583 660.291C726.182 661.611 725.637 662.682 724.948 663.504C724.26 664.307 723.437 664.89 722.481 665.254C721.544 665.598 720.531 665.77 719.441 665.77ZM719.441 662.156C719.919 662.156 720.368 662.06 720.789 661.869C721.21 661.678 721.573 661.334 721.879 660.836C722.204 660.32 722.453 659.622 722.625 658.742C722.797 657.863 722.883 656.744 722.883 655.386V654.813C722.883 653.589 722.797 652.585 722.625 651.801C722.453 650.998 722.204 650.367 721.879 649.908C721.573 649.43 721.21 649.095 720.789 648.904C720.368 648.713 719.919 648.617 719.441 648.617C718.944 648.617 718.485 648.713 718.064 648.904C717.662 649.095 717.299 649.43 716.974 649.908C716.668 650.367 716.429 650.998 716.257 651.801C716.085 652.585 715.999 653.589 715.999 654.813V655.386C715.999 656.744 716.085 657.863 716.257 658.742C716.429 659.622 716.668 660.32 716.974 660.836C717.299 661.334 717.662 661.678 718.064 661.869C718.485 662.06 718.944 662.156 719.441 662.156ZM737.788 665.77C736.698 665.77 735.675 665.598 734.719 665.254C733.782 664.89 732.969 664.307 732.281 663.504C731.593 662.682 731.048 661.611 730.646 660.291C730.245 658.953 730.044 657.318 730.044 655.386V654.813C730.044 653.015 730.245 651.495 730.646 650.252C731.048 649.009 731.593 648.005 732.281 647.24C732.969 646.456 733.782 645.892 734.719 645.548C735.675 645.185 736.698 645.003 737.788 645.003C738.878 645.003 739.892 645.185 740.829 645.548C741.785 645.892 742.607 646.456 743.296 647.24C743.984 648.005 744.529 649.009 744.931 650.252C745.332 651.495 745.533 653.015 745.533 654.813V655.386C745.533 657.318 745.332 658.953 744.931 660.291C744.529 661.611 743.984 662.682 743.296 663.504C742.607 664.307 741.785 664.89 740.829 665.254C739.892 665.598 738.878 665.77 737.788 665.77ZM737.788 662.156C738.266 662.156 738.716 662.06 739.136 661.869C739.557 661.678 739.92 661.334 740.226 660.836C740.552 660.32 740.8 659.622 740.972 658.742C741.144 657.863 741.23 656.744 741.23 655.386V654.813C741.23 653.589 741.144 652.585 740.972 651.801C740.8 650.998 740.552 650.367 740.226 649.908C739.92 649.43 739.557 649.095 739.136 648.904C738.716 648.713 738.266 648.617 737.788 648.617C737.291 648.617 736.832 648.713 736.412 648.904C736.01 649.095 735.647 649.43 735.322 649.908C735.016 650.367 734.777 650.998 734.604 651.801C734.432 652.585 734.346 653.589 734.346 654.813V655.386C734.346 656.744 734.432 657.863 734.604 658.742C734.777 659.622 735.016 660.32 735.322 660.836C735.647 661.334 736.01 661.678 736.412 661.869C736.832 662.06 737.291 662.156 737.788 662.156ZM748.248 661.869H752.837V649.707L748.248 652.977V648.789L753.095 645.347H757.14V661.869H760.869V665.426H748.248V661.869ZM770.618 665.77C769.528 665.77 768.505 665.598 767.549 665.254C766.612 664.89 765.799 664.307 765.11 663.504C764.422 662.682 763.877 661.611 763.475 660.291C763.074 658.953 762.873 657.318 762.873 655.386V654.813C762.873 653.015 763.074 651.495 763.475 650.252C763.877 649.009 764.422 648.005 765.11 647.24C765.799 646.456 766.612 645.892 767.549 645.548C768.505 645.185 769.528 645.003 770.618 645.003C771.708 645.003 772.721 645.185 773.658 645.548C774.614 645.892 775.437 646.456 776.125 647.24C776.813 648.005 777.358 649.009 777.76 650.252C778.162 651.495 778.362 653.015 778.362 654.813V655.386C778.362 657.318 778.162 658.953 777.76 660.291C777.358 661.611 776.813 662.682 776.125 663.504C775.437 664.307 774.614 664.89 773.658 665.254C772.721 665.598 771.708 665.77 770.618 665.77ZM770.618 662.156C771.096 662.156 771.545 662.06 771.966 661.869C772.387 661.678 772.75 661.334 773.056 660.836C773.381 660.32 773.629 659.622 773.802 658.742C773.974 657.863 774.06 656.744 774.06 655.386V654.813C774.06 653.589 773.974 652.585 773.802 651.801C773.629 650.998 773.381 650.367 773.056 649.908C772.75 649.43 772.387 649.095 771.966 648.904C771.545 648.713 771.096 648.617 770.618 648.617C770.121 648.617 769.662 648.713 769.241 648.904C768.839 649.095 768.476 649.43 768.151 649.908C767.845 650.367 767.606 650.998 767.434 651.801C767.262 652.585 767.176 653.589 767.176 654.813V655.386C767.176 656.744 767.262 657.863 767.434 658.742C767.606 659.622 767.845 660.32 768.151 660.836C768.476 661.334 768.839 661.678 769.241 661.869C769.662 662.06 770.121 662.156 770.618 662.156ZM781.077 661.869H785.667V649.707L781.077 652.977V648.789L785.925 645.347H789.969V661.869H793.698V665.426H781.077V661.869ZM803.447 665.77C802.357 665.77 801.334 665.598 800.378 665.254C799.441 664.89 798.628 664.307 797.94 663.504C797.251 662.682 796.706 661.611 796.305 660.291C795.903 658.953 795.702 657.318 795.702 655.386V654.813C795.702 653.015 795.903 651.495 796.305 650.252C796.706 649.009 797.251 648.005 797.94 647.24C798.628 646.456 799.441 645.892 800.378 645.548C801.334 645.185 802.357 645.003 803.447 645.003C804.537 645.003 805.551 645.185 806.488 645.548C807.444 645.892 808.266 646.456 808.954 647.24C809.643 648.005 810.188 649.009 810.589 650.252C810.991 651.495 811.192 653.015 811.192 654.813V655.386C811.192 657.318 810.991 658.953 810.589 660.291C810.188 661.611 809.643 662.682 808.954 663.504C808.266 664.307 807.444 664.89 806.488 665.254C805.551 665.598 804.537 665.77 803.447 665.77ZM803.447 662.156C803.925 662.156 804.375 662.06 804.795 661.869C805.216 661.678 805.579 661.334 805.885 660.836C806.21 660.32 806.459 659.622 806.631 658.742C806.803 657.863 806.889 656.744 806.889 655.386V654.813C806.889 653.589 806.803 652.585 806.631 651.801C806.459 650.998 806.21 650.367 805.885 649.908C805.579 649.43 805.216 649.095 804.795 648.904C804.375 648.713 803.925 648.617 803.447 648.617C802.95 648.617 802.491 648.713 802.07 648.904C801.669 649.095 801.305 649.43 800.98 649.908C800.674 650.367 800.435 650.998 800.263 651.801C800.091 652.585 800.005 653.589 800.005 654.813V655.386C800.005 656.744 800.091 657.863 800.263 658.742C800.435 659.622 800.674 660.32 800.98 660.836C801.305 661.334 801.669 661.678 802.07 661.869C802.491 662.06 802.95 662.156 803.447 662.156ZM817.062 665.77C816.392 665.77 815.819 665.531 815.341 665.053C814.863 664.575 814.624 664.001 814.624 663.332C814.624 662.624 814.863 662.041 815.341 661.582C815.819 661.123 816.392 660.894 817.062 660.894C817.731 660.894 818.305 661.123 818.783 661.582C819.261 662.041 819.5 662.624 819.5 663.332C819.5 664.001 819.261 664.575 818.783 665.053C818.305 665.531 817.731 665.77 817.062 665.77Z" fill="#D0643B"/>
<path d="M826.651 666.889H840.993V669.7H826.651V666.889ZM840.993 666.889H855.335V669.7H840.993V666.889ZM855.335 666.889H869.677V669.7H855.335V666.889ZM869.677 666.889H884.018V669.7H869.677V666.889ZM884.018 666.889H898.36V669.7H884.018V666.889ZM898.36 666.889H912.702V669.7H898.36V666.889ZM912.702 666.889H927.044V669.7H912.702V666.889ZM927.044 666.889H941.386V669.7H927.044V666.889ZM941.386 666.889H955.728V669.7H941.386V666.889ZM955.728 666.889H970.07V669.7H955.728V666.889ZM970.07 666.889H984.411V669.7H970.07V666.889Z" fill="black"/>
<rect x="273.443" y="333.77" width="833.223" height="111.155" stroke="#D0643B" stroke-width="6"/>
</svg>
