<svg width="1551" height="974" viewBox="0 0 1551 974" fill="none" xmlns="http://www.w3.org/2000/svg">
<rect x="407.691" y="442.75" width="104.135" height="109.408" fill="#D0643B"/>
<path d="M453.81 504.396H458.399V492.234L453.81 495.504V491.317L458.657 487.875H462.702V504.396H466.43V507.953H453.81V504.396Z" fill="white"/>
<rect x="407.691" y="442.75" width="104.135" height="109.408" stroke="#D0643B" stroke-width="1.31816"/>
<rect x="511.826" y="442.75" width="104.135" height="109.408" fill="#D0643B"/>
<path d="M557.944 504.396H562.534V492.234L557.944 495.504V491.317L562.792 487.875H566.836V504.396H570.565V507.953H557.944V504.396Z" fill="white"/>
<rect x="511.826" y="442.75" width="104.135" height="109.408" stroke="#D0643B" stroke-width="1.31816"/>
<rect x="615.961" y="442.75" width="104.135" height="109.408" fill="#F7F7F7"/>
<rect x="615.961" y="442.75" width="104.135" height="109.408" stroke="#DADADA" stroke-width="2"/>
<rect x="720.096" y="442.75" width="104.135" height="109.408" fill="#F7F7F7"/>
<rect x="720.096" y="442.75" width="104.135" height="109.408" stroke="#DADADA" stroke-width="2"/>
<rect x="824.23" y="442.75" width="104.135" height="109.408" fill="#F7F7F7"/>
<rect x="824.23" y="442.75" width="104.135" height="109.408" stroke="#DADADA" stroke-width="2"/>
<rect x="928.365" y="442.75" width="104.135" height="109.408" fill="#F7F7F7"/>
<rect x="928.365" y="442.75" width="104.135" height="109.408" stroke="#DADADA" stroke-width="2"/>
<rect x="1032.5" y="442.75" width="104.135" height="109.408" fill="#F7F7F7"/>
<rect x="1032.5" y="442.75" width="104.135" height="109.408" stroke="#DADADA" stroke-width="2"/>
<rect x="1136.63" y="442.75" width="104.135" height="109.408" fill="#F7F7F7"/>
<rect x="1136.63" y="442.75" width="104.135" height="109.408" stroke="#DADADA" stroke-width="2"/>
<rect x="407.547" y="333.342" width="104.135" height="109.408" fill="#F7F7F7"/>
<path d="M435.906 394.988H440.495V382.826L435.906 386.096V381.908L440.754 378.466H444.798V394.988H448.527V398.545H435.906V394.988ZM449.958 395.418L456.985 389.366C457.635 388.792 458.19 388.295 458.649 387.875C459.108 387.435 459.481 387.033 459.767 386.67C460.054 386.307 460.255 385.953 460.37 385.609C460.504 385.264 460.571 384.891 460.571 384.49C460.571 383.668 460.341 383.008 459.882 382.511C459.423 381.994 458.744 381.736 457.846 381.736C456.813 381.736 456 382.023 455.408 382.597C454.834 383.151 454.547 384.117 454.547 385.494H450.244C450.244 383.218 450.885 381.421 452.166 380.101C453.467 378.782 455.36 378.122 457.846 378.122C459.012 378.122 460.026 378.285 460.886 378.61C461.766 378.916 462.502 379.356 463.095 379.929C463.688 380.484 464.127 381.153 464.414 381.937C464.72 382.721 464.873 383.572 464.873 384.49C464.873 385.178 464.749 385.838 464.5 386.469C464.252 387.081 463.907 387.674 463.468 388.247C463.047 388.821 462.55 389.385 461.976 389.94C461.402 390.475 460.791 391.011 460.14 391.546L456.01 394.988H465.16V398.545H449.958V395.418ZM475.332 398.889C474.127 398.889 473.037 398.755 472.062 398.488C471.105 398.201 470.293 397.809 469.623 397.312C468.973 396.795 468.467 396.183 468.103 395.476C467.759 394.749 467.587 393.946 467.587 393.066C467.587 391.938 467.931 390.934 468.62 390.055C469.308 389.156 470.331 388.525 471.689 388.161C470.675 387.836 469.834 387.272 469.165 386.469C468.495 385.666 468.161 384.71 468.161 383.601C468.161 382.798 468.314 382.061 468.62 381.392C468.945 380.723 469.413 380.149 470.025 379.671C470.637 379.174 471.383 378.791 472.262 378.524C473.161 378.256 474.184 378.122 475.332 378.122C476.479 378.122 477.492 378.256 478.372 378.524C479.271 378.791 480.026 379.174 480.638 379.671C481.269 380.149 481.738 380.723 482.043 381.392C482.369 382.061 482.531 382.798 482.531 383.601C482.531 384.71 482.196 385.656 481.527 386.44C480.858 387.205 480.007 387.779 478.974 388.161C481.709 389.003 483.076 390.638 483.076 393.066C483.076 393.946 482.894 394.749 482.531 395.476C482.187 396.183 481.68 396.795 481.011 397.312C480.361 397.809 479.558 398.201 478.601 398.488C477.645 398.755 476.555 398.889 475.332 398.889ZM475.332 395.275C476.517 395.275 477.387 395.046 477.942 394.587C478.496 394.128 478.774 393.506 478.774 392.722C478.774 391.862 478.448 391.183 477.798 390.686C477.167 390.169 476.345 389.835 475.332 389.682C474.318 389.835 473.486 390.169 472.836 390.686C472.205 391.183 471.889 391.862 471.889 392.722C471.889 393.506 472.176 394.128 472.75 394.587C473.324 395.046 474.184 395.275 475.332 395.275ZM475.332 386.756C476.192 386.603 476.89 386.307 477.425 385.867C477.961 385.408 478.229 384.777 478.229 383.974C478.229 383.228 477.97 382.673 477.454 382.31C476.957 381.928 476.249 381.736 475.332 381.736C474.433 381.736 473.725 381.928 473.209 382.31C472.712 382.673 472.463 383.228 472.463 383.974C472.463 384.777 472.721 385.408 473.238 385.867C473.773 386.307 474.471 386.603 475.332 386.756Z" fill="black"/>
<rect x="407.547" y="333.342" width="104.135" height="109.408" stroke="#DADADA" stroke-width="2"/>
<rect x="511.682" y="333.342" width="104.135" height="109.408" fill="#F7F7F7"/>
<path d="M555.072 398.889C553.81 398.889 552.691 398.707 551.716 398.344C550.741 397.981 549.919 397.417 549.249 396.652C548.58 395.868 548.064 394.873 547.7 393.669C547.356 392.464 547.184 391.03 547.184 389.366V388.792C547.184 386.88 547.385 385.255 547.787 383.916C548.188 382.559 548.752 381.449 549.479 380.589C550.206 379.728 551.066 379.107 552.06 378.724C553.074 378.323 554.173 378.122 555.359 378.122C557.214 378.122 558.715 378.514 559.862 379.298C561.01 380.082 561.708 381.383 561.956 383.199H557.941C557.558 382.224 556.65 381.736 555.216 381.736C554.661 381.736 554.145 381.822 553.667 381.994C553.208 382.147 552.797 382.444 552.433 382.884C552.089 383.304 551.812 383.888 551.601 384.633C551.391 385.379 551.257 386.335 551.2 387.502C551.448 387.119 551.754 386.804 552.118 386.555C552.481 386.287 552.873 386.077 553.294 385.924C553.734 385.752 554.183 385.628 554.642 385.551C555.12 385.475 555.598 385.436 556.076 385.436C558.103 385.436 559.662 385.991 560.752 387.1C561.842 388.19 562.387 389.739 562.387 391.747V392.062C562.387 393.076 562.205 394.003 561.842 394.845C561.478 395.686 560.971 396.413 560.321 397.025C559.69 397.617 558.925 398.076 558.027 398.402C557.128 398.727 556.143 398.889 555.072 398.889ZM554.785 395.275C555.818 395.275 556.621 394.988 557.195 394.414C557.788 393.822 558.084 393.066 558.084 392.148V391.862C558.084 390.944 557.788 390.198 557.195 389.624C556.621 389.051 555.818 388.764 554.785 388.764C553.753 388.764 552.94 389.051 552.347 389.624C551.774 390.198 551.487 390.944 551.487 391.862V392.148C551.487 393.066 551.774 393.822 552.347 394.414C552.94 394.988 553.753 395.275 554.785 395.275ZM573.717 394.3H564.251V391.317L573.717 378.466H578.019V390.743H580.314V394.3H578.019V398.545H573.717V394.3ZM573.717 390.743V383.257L568.267 390.743H573.717Z" fill="black"/>
<rect x="511.682" y="333.342" width="104.135" height="109.408" stroke="#DADADA" stroke-width="2"/>
<rect x="615.816" y="333.342" width="104.135" height="109.408" fill="#F7F7F7"/>
<path d="M658.846 398.889C656.399 398.889 654.544 398.315 653.282 397.168C652.02 396.002 651.389 394.405 651.389 392.378H655.691C655.691 393.353 655.94 394.08 656.437 394.558C656.953 395.036 657.756 395.275 658.846 395.275C659.898 395.275 660.682 395.046 661.199 394.587C661.734 394.109 662.002 393.439 662.002 392.579C662.002 390.781 660.95 389.882 658.846 389.882H656.982V386.555H658.846C659.764 386.555 660.472 386.364 660.969 385.981C661.466 385.599 661.715 385.006 661.715 384.203C661.715 383.476 661.476 382.884 660.998 382.425C660.52 381.966 659.803 381.736 658.846 381.736C657.871 381.736 657.145 381.966 656.666 382.425C656.208 382.865 655.978 383.505 655.978 384.346H651.676C651.676 382.377 652.268 380.847 653.454 379.757C654.659 378.667 656.456 378.122 658.846 378.122C660.051 378.122 661.103 378.266 662.002 378.552C662.9 378.82 663.646 379.203 664.239 379.7C664.832 380.178 665.272 380.751 665.558 381.421C665.864 382.09 666.017 382.817 666.017 383.601C666.017 384.71 665.702 385.656 665.071 386.44C664.459 387.205 663.637 387.75 662.604 388.075C663.79 388.4 664.698 388.965 665.329 389.768C665.979 390.571 666.304 391.632 666.304 392.952C666.304 393.812 666.132 394.606 665.788 395.332C665.444 396.059 664.947 396.69 664.296 397.225C663.665 397.742 662.881 398.153 661.944 398.459C661.026 398.746 659.994 398.889 658.846 398.889ZM668.612 395.418L675.64 389.366C676.29 388.792 676.845 388.295 677.304 387.875C677.762 387.435 678.135 387.033 678.422 386.67C678.709 386.307 678.91 385.953 679.025 385.609C679.158 385.264 679.225 384.891 679.225 384.49C679.225 383.668 678.996 383.008 678.537 382.511C678.078 381.994 677.399 381.736 676.5 381.736C675.468 381.736 674.655 382.023 674.062 382.597C673.489 383.151 673.202 384.117 673.202 385.494H668.899C668.899 383.218 669.54 381.421 670.821 380.101C672.121 378.782 674.014 378.122 676.5 378.122C677.667 378.122 678.68 378.285 679.541 378.61C680.42 378.916 681.157 379.356 681.749 379.929C682.342 380.484 682.782 381.153 683.069 381.937C683.375 382.721 683.528 383.572 683.528 384.49C683.528 385.178 683.404 385.838 683.155 386.469C682.906 387.081 682.562 387.674 682.122 388.247C681.702 388.821 681.204 389.385 680.631 389.94C680.057 390.475 679.445 391.011 678.795 391.546L674.665 394.988H683.815V398.545H668.612V395.418Z" fill="black"/>
<rect x="615.816" y="333.342" width="104.135" height="109.408" stroke="#DADADA" stroke-width="2"/>
<rect x="719.951" y="333.342" width="104.135" height="109.408" fill="#F7F7F7"/>
<path d="M756.81 394.988H761.4V382.826L756.81 386.096V381.908L761.658 378.466H765.702V394.988H769.431V398.545H756.81V394.988ZM779.324 398.889C778.062 398.889 776.943 398.707 775.968 398.344C774.992 397.981 774.17 397.417 773.501 396.652C772.832 395.868 772.315 394.873 771.952 393.669C771.608 392.464 771.436 391.03 771.436 389.366V388.792C771.436 386.88 771.636 385.255 772.038 383.916C772.44 382.559 773.004 381.449 773.73 380.589C774.457 379.728 775.317 379.107 776.312 378.724C777.325 378.323 778.425 378.122 779.61 378.122C781.465 378.122 782.966 378.514 784.114 379.298C785.261 380.082 785.959 381.383 786.208 383.199H782.192C781.81 382.224 780.901 381.736 779.467 381.736C778.912 381.736 778.396 381.822 777.918 381.994C777.459 382.147 777.048 382.444 776.685 382.884C776.341 383.304 776.063 383.888 775.853 384.633C775.643 385.379 775.509 386.335 775.451 387.502C775.7 387.119 776.006 386.804 776.369 386.555C776.733 386.287 777.125 386.077 777.545 385.924C777.985 385.752 778.434 385.628 778.893 385.551C779.371 385.475 779.849 385.436 780.328 385.436C782.355 385.436 783.913 385.991 785.003 387.1C786.093 388.19 786.638 389.739 786.638 391.747V392.062C786.638 393.076 786.456 394.003 786.093 394.845C785.73 395.686 785.223 396.413 784.573 397.025C783.942 397.617 783.177 398.076 782.278 398.402C781.379 398.727 780.394 398.889 779.324 398.889ZM779.037 395.275C780.069 395.275 780.873 394.988 781.446 394.414C782.039 393.822 782.335 393.066 782.335 392.148V391.862C782.335 390.944 782.039 390.198 781.446 389.624C780.873 389.051 780.069 388.764 779.037 388.764C778.004 388.764 777.191 389.051 776.599 389.624C776.025 390.198 775.738 390.944 775.738 391.862V392.148C775.738 393.066 776.025 393.822 776.599 394.414C777.191 394.988 778.004 395.275 779.037 395.275Z" fill="black"/>
<rect x="719.951" y="333.342" width="104.135" height="109.408" stroke="#DADADA" stroke-width="2"/>
<rect x="824.086" y="333.342" width="104.135" height="109.408" fill="#F7F7F7"/>
<path d="M875.69 398.889C874.485 398.889 873.395 398.755 872.42 398.488C871.464 398.201 870.651 397.809 869.982 397.312C869.331 396.795 868.825 396.183 868.461 395.476C868.117 394.749 867.945 393.946 867.945 393.066C867.945 391.938 868.289 390.934 868.978 390.055C869.666 389.156 870.689 388.525 872.047 388.161C871.033 387.836 870.192 387.272 869.523 386.469C868.853 385.666 868.519 384.71 868.519 383.601C868.519 382.798 868.672 382.061 868.978 381.392C869.303 380.723 869.771 380.149 870.383 379.671C870.995 379.174 871.741 378.791 872.621 378.524C873.519 378.256 874.542 378.122 875.69 378.122C876.837 378.122 877.85 378.256 878.73 378.524C879.629 378.791 880.384 379.174 880.996 379.671C881.627 380.149 882.096 380.723 882.402 381.392C882.727 382.061 882.889 382.798 882.889 383.601C882.889 384.71 882.555 385.656 881.885 386.44C881.216 387.205 880.365 387.779 879.332 388.161C882.067 389.003 883.434 390.638 883.434 393.066C883.434 393.946 883.253 394.749 882.889 395.476C882.545 396.183 882.038 396.795 881.369 397.312C880.719 397.809 879.916 398.201 878.96 398.488C878.003 398.755 876.913 398.889 875.69 398.889ZM875.69 395.275C876.875 395.275 877.745 395.046 878.3 394.587C878.854 394.128 879.132 393.506 879.132 392.722C879.132 391.862 878.807 391.183 878.156 390.686C877.525 390.169 876.703 389.835 875.69 389.682C874.676 389.835 873.844 390.169 873.194 390.686C872.563 391.183 872.248 391.862 872.248 392.722C872.248 393.506 872.534 394.128 873.108 394.587C873.682 395.046 874.542 395.275 875.69 395.275ZM875.69 386.756C876.55 386.603 877.248 386.307 877.784 385.867C878.319 385.408 878.587 384.777 878.587 383.974C878.587 383.228 878.329 382.673 877.812 382.31C877.315 381.928 876.608 381.736 875.69 381.736C874.791 381.736 874.083 381.928 873.567 382.31C873.07 382.673 872.821 383.228 872.821 383.974C872.821 384.777 873.079 385.408 873.596 385.867C874.131 386.307 874.829 386.603 875.69 386.756Z" fill="black"/>
<rect x="824.086" y="333.342" width="104.135" height="109.408" stroke="#DADADA" stroke-width="2"/>
<rect x="928.221" y="333.342" width="104.135" height="109.408" fill="#F7F7F7"/>
<path d="M980.828 394.3H971.363V391.317L980.828 378.466H985.131V390.743H987.426V394.3H985.131V398.545H980.828V394.3ZM980.828 390.743V383.257L975.378 390.743H980.828Z" fill="black"/>
<rect x="928.221" y="333.342" width="104.135" height="109.408" stroke="#DADADA" stroke-width="2"/>
<rect x="1032.36" y="333.342" width="104.135" height="109.408" fill="#F7F7F7"/>
<path d="M1076.28 395.418L1083.31 389.366C1083.96 388.792 1084.52 388.295 1084.98 387.875C1085.43 387.435 1085.81 387.033 1086.09 386.67C1086.38 386.307 1086.58 385.953 1086.7 385.609C1086.83 385.264 1086.9 384.891 1086.9 384.49C1086.9 383.668 1086.67 383.008 1086.21 382.511C1085.75 381.994 1085.07 381.736 1084.17 381.736C1083.14 381.736 1082.33 382.023 1081.73 382.597C1081.16 383.151 1080.87 384.117 1080.87 385.494H1076.57C1076.57 383.218 1077.21 381.421 1078.49 380.101C1079.79 378.782 1081.69 378.122 1084.17 378.122C1085.34 378.122 1086.35 378.285 1087.21 378.61C1088.09 378.916 1088.83 379.356 1089.42 379.929C1090.01 380.484 1090.45 381.153 1090.74 381.937C1091.05 382.721 1091.2 383.572 1091.2 384.49C1091.2 385.178 1091.08 385.838 1090.83 386.469C1090.58 387.081 1090.23 387.674 1089.79 388.247C1089.37 388.821 1088.88 389.385 1088.3 389.94C1087.73 390.475 1087.12 391.011 1086.47 391.546L1082.34 394.988H1091.49V398.545H1076.28V395.418Z" fill="black"/>
<rect x="1032.36" y="333.342" width="104.135" height="109.408" stroke="#DADADA" stroke-width="2"/>
<rect x="1136.49" y="333.342" width="104.135" height="109.408" fill="#F7F7F7"/>
<path d="M1182.35 394.988H1186.94V382.826L1182.35 386.096V381.908L1187.2 378.466H1191.24V394.988H1194.97V398.545H1182.35V394.988Z" fill="black"/>
<rect x="1136.49" y="333.342" width="104.135" height="109.408" stroke="#DADADA" stroke-width="2"/>
<path d="M910.181 150.121V148.621H909.82L909.498 148.785L910.181 150.121ZM1376.44 150.121H1377.94V148.621H1376.44V150.121ZM1376.44 680.867L1385.1 665.867H1367.78L1376.44 680.867ZM776.129 218.607L775.447 219.943L776.129 220.292L776.812 219.943L776.129 218.607ZM910.181 151.621H1376.44V148.621H910.181V151.621ZM1374.94 150.121V667.367H1377.94V150.121H1374.94ZM909.498 148.785L775.447 217.271L776.812 219.943L910.863 151.457L909.498 148.785ZM776.812 217.271L642.761 148.785L641.396 151.457L775.447 219.943L776.812 217.271Z" fill="black"/>
<path d="M782.137 231.281L619.815 150.121L782.137 68.9603L944.458 150.121L782.137 231.281Z" fill="white" stroke="black" stroke-width="3"/>
<path d="M571.137 713.641V715.141H569.637V713.641H571.137ZM571.137 555.656L579.797 570.656H562.476L571.137 555.656ZM1284.3 715.141H571.137V712.141H1284.3V715.141ZM569.637 713.641V569.156H572.637V713.641H569.637Z" fill="black"/>
<rect x="1271.08" y="683.959" width="210.727" height="59.3633" fill="#F3F3F3"/>
<path d="M1298.02 720.584H1300.25C1300.54 719.915 1300.78 719.111 1300.97 718.174C1301.16 717.218 1301.32 716.214 1301.43 715.163C1301.55 714.092 1301.63 713.002 1301.69 711.893C1301.75 710.764 1301.77 709.684 1301.77 708.651V704.062H1315.92V720.584H1318.1V727.87H1314.25V724.141H1301.86V727.87H1298.02V720.584ZM1311.61 720.584V707.619H1305.85V709.225C1305.85 711.845 1305.72 714.054 1305.47 715.851C1305.23 717.649 1304.87 719.226 1304.41 720.584H1311.61ZM1327.42 724.485C1326.39 724.485 1325.4 724.332 1324.47 724.026C1323.55 723.701 1322.75 723.213 1322.06 722.563C1321.37 721.913 1320.82 721.1 1320.42 720.125C1320.02 719.15 1319.82 718.002 1319.82 716.683V716.109C1319.82 714.866 1320.02 713.776 1320.42 712.839C1320.82 711.902 1321.37 711.118 1322.06 710.487C1322.75 709.856 1323.55 709.388 1324.47 709.082C1325.4 708.757 1326.39 708.594 1327.42 708.594C1328.45 708.594 1329.43 708.757 1330.35 709.082C1331.26 709.388 1332.07 709.856 1332.76 710.487C1333.46 711.118 1334.02 711.902 1334.42 712.839C1334.82 713.776 1335.02 714.866 1335.02 716.109V716.683C1335.02 717.983 1334.82 719.121 1334.42 720.096C1334.02 721.071 1333.46 721.884 1332.76 722.534C1332.07 723.185 1331.26 723.672 1330.35 723.997C1329.43 724.322 1328.45 724.485 1327.42 724.485ZM1327.42 721.272C1328.49 721.272 1329.38 720.89 1330.09 720.125C1330.82 719.36 1331.18 718.213 1331.18 716.683V716.109C1331.18 714.713 1330.82 713.652 1330.09 712.925C1329.38 712.18 1328.49 711.807 1327.42 711.807C1326.33 711.807 1325.43 712.18 1324.72 712.925C1324.02 713.652 1323.66 714.713 1323.66 716.109V716.683C1323.66 718.232 1324.02 719.389 1324.72 720.154C1325.43 720.899 1326.33 721.272 1327.42 721.272ZM1344.62 724.485C1343.55 724.485 1342.55 724.303 1341.64 723.94C1340.74 723.577 1339.95 723.032 1339.29 722.305C1338.62 721.559 1338.09 720.651 1337.71 719.58C1337.34 718.49 1337.16 717.228 1337.16 715.794V715.134C1337.16 713.413 1337.29 711.883 1337.54 710.545C1337.8 709.206 1338.23 708.068 1338.83 707.131C1339.44 706.194 1340.24 705.468 1341.24 704.951C1342.25 704.416 1343.51 704.11 1345.02 704.033C1345.61 704.014 1346.2 703.995 1346.77 703.976C1347.35 703.957 1347.89 703.928 1348.41 703.89C1348.92 703.852 1349.39 703.794 1349.81 703.718C1350.23 703.622 1350.61 703.498 1350.93 703.345V706.701C1350.62 706.873 1350.05 707.016 1349.21 707.131C1348.39 707.246 1347.13 707.313 1345.45 707.332C1344.59 707.351 1343.85 707.456 1343.21 707.648C1342.6 707.82 1342.09 708.106 1341.67 708.508C1341.26 708.89 1340.94 709.397 1340.69 710.028C1340.46 710.659 1340.3 711.434 1340.2 712.352C1340.64 711.491 1341.3 710.793 1342.18 710.258C1343.06 709.722 1344.21 709.455 1345.62 709.455C1346.58 709.455 1347.45 709.608 1348.23 709.914C1349.02 710.2 1349.7 710.631 1350.27 711.204C1350.84 711.778 1351.28 712.485 1351.59 713.327C1351.92 714.168 1352.08 715.144 1352.08 716.253V716.798C1352.08 718.002 1351.89 719.083 1351.5 720.039C1351.14 720.995 1350.62 721.808 1349.96 722.477C1349.29 723.127 1348.49 723.624 1347.57 723.969C1346.68 724.313 1345.69 724.485 1344.62 724.485ZM1344.62 721.272C1345.77 721.272 1346.66 720.899 1347.29 720.154C1347.92 719.389 1348.23 718.308 1348.23 716.912V716.339C1348.23 715.134 1347.91 714.187 1347.26 713.499C1346.61 712.811 1345.73 712.466 1344.62 712.466C1343.53 712.466 1342.65 712.811 1341.98 713.499C1341.33 714.187 1341.01 715.134 1341.01 716.339V716.855C1341.01 717.543 1341.09 718.165 1341.26 718.719C1341.46 719.274 1341.71 719.742 1342.04 720.125C1342.36 720.488 1342.75 720.775 1343.19 720.985C1343.63 721.177 1344.1 721.272 1344.62 721.272ZM1359.36 724.485C1358.53 724.485 1357.81 724.37 1357.18 724.141C1356.54 723.892 1356.01 723.557 1355.57 723.137C1355.13 722.697 1354.8 722.19 1354.57 721.616C1354.34 721.024 1354.22 720.383 1354.22 719.695C1354.22 716.635 1356.04 715.105 1359.67 715.105H1364.2V714.388C1364.2 713.394 1363.97 712.696 1363.51 712.294C1363.08 711.893 1362.37 711.692 1361.39 711.692C1360.53 711.692 1359.91 711.845 1359.53 712.151C1359.15 712.438 1358.93 712.801 1358.87 713.241H1355.08C1355.12 712.591 1355.28 711.979 1355.57 711.405C1355.88 710.831 1356.3 710.344 1356.83 709.942C1357.39 709.522 1358.06 709.196 1358.84 708.967C1359.62 708.718 1360.52 708.594 1361.54 708.594C1362.51 708.594 1363.39 708.699 1364.17 708.91C1364.98 709.12 1365.66 709.464 1366.21 709.942C1366.78 710.401 1367.22 711.003 1367.53 711.749C1367.84 712.495 1367.99 713.394 1367.99 714.446V720.268C1367.99 721.071 1368 721.779 1368.02 722.391C1368.06 722.984 1368.11 723.567 1368.19 724.141H1364.66C1364.59 723.72 1364.54 723.404 1364.52 723.194C1364.52 722.965 1364.52 722.63 1364.52 722.19C1364.1 722.802 1363.46 723.337 1362.6 723.796C1361.76 724.255 1360.68 724.485 1359.36 724.485ZM1360.53 721.559C1360.99 721.559 1361.44 721.502 1361.88 721.387C1362.32 721.253 1362.71 721.062 1363.06 720.813C1363.4 720.546 1363.68 720.211 1363.89 719.809C1364.1 719.408 1364.2 718.939 1364.2 718.404V717.687H1360.39C1359.66 717.687 1359.09 717.859 1358.67 718.203C1358.27 718.528 1358.06 718.978 1358.06 719.551C1358.06 720.163 1358.28 720.651 1358.7 721.014C1359.12 721.377 1359.73 721.559 1360.53 721.559ZM1371.29 708.938H1378.92C1379.9 708.938 1380.73 709.043 1381.42 709.254C1382.13 709.445 1382.71 709.722 1383.17 710.086C1383.63 710.449 1383.96 710.879 1384.17 711.376C1384.38 711.874 1384.49 712.419 1384.49 713.011C1384.49 713.719 1384.27 714.388 1383.83 715.019C1383.41 715.631 1382.82 716.042 1382.08 716.253C1383.02 716.482 1383.74 716.922 1384.26 717.572C1384.79 718.203 1385.06 718.949 1385.06 719.809C1385.06 721.129 1384.6 722.181 1383.69 722.965C1382.77 723.749 1381.37 724.141 1379.5 724.141H1371.29V708.938ZM1378.75 721.1C1379.61 721.1 1380.24 720.976 1380.64 720.727C1381.07 720.46 1381.28 720.039 1381.28 719.465C1381.28 718.892 1381.07 718.48 1380.67 718.232C1380.29 717.964 1379.65 717.83 1378.75 717.83H1375.08V721.1H1378.75ZM1378.38 715.019C1379.26 715.019 1379.86 714.895 1380.19 714.646C1380.53 714.398 1380.7 714.015 1380.7 713.499C1380.7 713.002 1380.53 712.629 1380.19 712.38C1379.84 712.113 1379.24 711.979 1378.38 711.979H1375.08V715.019H1378.38ZM1387.79 708.938H1391.58V718.691L1398.35 708.938H1401.85V724.141H1398.06V714.388L1391.29 724.141H1387.79V708.938ZM1409 712.093H1404.15V708.938H1417.63V712.093H1412.79V724.141H1409V712.093ZM1419.92 708.938H1423.71V714.044H1426.95C1430.87 714.044 1432.83 715.727 1432.83 719.092C1432.83 719.838 1432.71 720.526 1432.49 721.158C1432.27 721.769 1431.93 722.295 1431.45 722.735C1430.97 723.175 1430.36 723.519 1429.62 723.768C1428.87 724.016 1427.98 724.141 1426.95 724.141H1419.92V708.938ZM1426.52 721.1C1427.44 721.1 1428.09 720.938 1428.47 720.613C1428.85 720.268 1429.04 719.762 1429.04 719.092C1429.04 718.423 1428.84 717.926 1428.44 717.601C1428.06 717.257 1427.42 717.084 1426.52 717.084H1423.71V721.1H1426.52ZM1442.01 720.584H1446.6V708.422L1442.01 711.692V707.504L1446.86 704.062H1450.9V720.584H1454.63V724.141H1442.01V720.584Z" fill="black"/>
<rect x="1271.08" y="683.959" width="210.727" height="59.3633" stroke="#DADADA" stroke-width="2"/>
<path d="M231.081 372.813H243.05V388.045H241.004V374.597H233.127V388.045H231.081V372.813ZM251.754 388.263C251.014 388.263 250.31 388.146 249.643 387.914C248.976 387.668 248.388 387.305 247.88 386.826C247.373 386.333 246.966 385.717 246.662 384.977C246.357 384.237 246.205 383.374 246.205 382.387V381.952C246.205 381.024 246.357 380.204 246.662 379.493C246.966 378.782 247.373 378.195 247.88 377.731C248.388 377.252 248.976 376.896 249.643 376.664C250.31 376.418 251.014 376.294 251.754 376.294C252.494 376.294 253.197 376.418 253.864 376.664C254.532 376.896 255.119 377.252 255.627 377.731C256.135 378.195 256.541 378.782 256.846 379.493C257.15 380.204 257.303 381.024 257.303 381.952V382.387C257.303 383.374 257.15 384.237 256.846 384.977C256.541 385.717 256.135 386.333 255.627 386.826C255.119 387.305 254.532 387.668 253.864 387.914C253.197 388.146 252.494 388.263 251.754 388.263ZM251.754 386.522C252.189 386.522 252.624 386.449 253.059 386.304C253.495 386.145 253.879 385.905 254.213 385.586C254.546 385.252 254.815 384.824 255.018 384.302C255.235 383.78 255.344 383.142 255.344 382.387V381.952C255.344 381.256 255.235 380.661 255.018 380.168C254.815 379.674 254.546 379.268 254.213 378.949C253.879 378.63 253.495 378.398 253.059 378.253C252.624 378.108 252.189 378.035 251.754 378.035C251.318 378.035 250.883 378.108 250.448 378.253C250.013 378.398 249.628 378.63 249.295 378.949C248.961 379.268 248.685 379.674 248.468 380.168C248.265 380.661 248.163 381.256 248.163 381.952V382.387C248.163 383.142 248.265 383.78 248.468 384.302C248.685 384.824 248.961 385.252 249.295 385.586C249.628 385.905 250.013 386.145 250.448 386.304C250.883 386.449 251.318 386.522 251.754 386.522ZM263.931 388.263C262.48 388.263 261.341 387.958 260.515 387.349C259.688 386.739 259.231 385.883 259.144 384.781H261.059C261.16 385.347 261.458 385.782 261.951 386.086C262.459 386.377 263.119 386.522 263.931 386.522C264.932 386.522 265.657 386.355 266.107 386.021C266.571 385.673 266.803 385.26 266.803 384.781C266.803 384.215 266.615 383.773 266.238 383.453C265.86 383.12 265.208 382.953 264.279 382.953H262.299V381.386H264.149C264.946 381.386 265.512 381.234 265.846 380.929C266.194 380.625 266.368 380.197 266.368 379.645C266.368 379.21 266.165 378.833 265.759 378.514C265.353 378.195 264.743 378.035 263.931 378.035C263.046 378.035 262.4 378.18 261.994 378.47C261.603 378.746 261.363 379.145 261.276 379.667H259.361C259.405 379.188 259.535 378.746 259.753 378.34C259.985 377.919 260.297 377.556 260.689 377.252C261.08 376.947 261.545 376.715 262.081 376.555C262.633 376.381 263.249 376.294 263.931 376.294C264.671 376.294 265.309 376.381 265.846 376.555C266.397 376.715 266.854 376.947 267.217 377.252C267.579 377.542 267.848 377.89 268.022 378.296C268.196 378.702 268.283 379.152 268.283 379.645C268.283 380.197 268.145 380.683 267.87 381.103C267.594 381.51 267.152 381.829 266.542 382.061C267.355 382.278 267.92 382.627 268.24 383.105C268.559 383.584 268.718 384.143 268.718 384.781C268.718 385.26 268.617 385.709 268.414 386.13C268.211 386.551 267.906 386.921 267.5 387.24C267.108 387.544 266.607 387.791 265.998 387.98C265.403 388.168 264.714 388.263 263.931 388.263ZM271.447 376.512H273.362V385.216L279.324 376.512H281.239V388.045H279.324V379.341L273.362 388.045H271.447V376.512ZM294.107 388.045H284.728V376.512H286.643V386.348H292.17V376.512H294.085V386.348H295.935V390.765H294.107V388.045ZM298.222 376.512H300.137V385.216L306.099 376.512H308.014V388.045H306.099V379.341L300.137 388.045H298.222V376.512ZM316.291 388.263C315.551 388.263 314.848 388.146 314.18 387.914C313.513 387.668 312.925 387.305 312.418 386.826C311.91 386.333 311.504 385.717 311.199 384.977C310.894 384.237 310.742 383.374 310.742 382.387V381.952C310.742 381.024 310.894 380.204 311.199 379.493C311.504 378.782 311.91 378.195 312.418 377.731C312.925 377.252 313.513 376.896 314.18 376.664C314.848 376.418 315.551 376.294 316.291 376.294C317.031 376.294 317.734 376.418 318.402 376.664C319.069 376.896 319.657 377.252 320.164 377.731C320.672 378.195 321.078 378.782 321.383 379.493C321.688 380.204 321.84 381.024 321.84 381.952V382.387C321.84 383.374 321.688 384.237 321.383 384.977C321.078 385.717 320.672 386.333 320.164 386.826C319.657 387.305 319.069 387.668 318.402 387.914C317.734 388.146 317.031 388.263 316.291 388.263ZM316.291 386.522C316.726 386.522 317.161 386.449 317.597 386.304C318.032 386.145 318.416 385.905 318.75 385.586C319.084 385.252 319.352 384.824 319.555 384.302C319.773 383.78 319.881 383.142 319.881 382.387V381.952C319.881 381.256 319.773 380.661 319.555 380.168C319.352 379.674 319.084 379.268 318.75 378.949C318.416 378.63 318.032 378.398 317.597 378.253C317.161 378.108 316.726 378.035 316.291 378.035C315.856 378.035 315.421 378.108 314.985 378.253C314.55 378.398 314.166 378.63 313.832 378.949C313.498 379.268 313.223 379.674 313.005 380.168C312.802 380.661 312.701 381.256 312.701 381.952V382.387C312.701 383.142 312.802 383.78 313.005 384.302C313.223 384.824 313.498 385.252 313.832 385.586C314.166 385.905 314.55 386.145 314.985 386.304C315.421 386.449 315.856 386.522 316.291 386.522ZM324.551 376.512H326.466V381.321H332.429V376.512H334.344V388.045H332.429V383.018H326.466V388.045H324.551V376.512ZM337.833 376.512H339.748V381.321H345.71V376.512H347.625V388.045H345.71V383.018H339.748V388.045H337.833V376.512ZM355.902 388.263C355.162 388.263 354.458 388.146 353.791 387.914C353.124 387.668 352.536 387.305 352.028 386.826C351.521 386.333 351.114 385.717 350.81 384.977C350.505 384.237 350.353 383.374 350.353 382.387V381.952C350.353 381.024 350.505 380.204 350.81 379.493C351.114 378.782 351.521 378.195 352.028 377.731C352.536 377.252 353.124 376.896 353.791 376.664C354.458 376.418 355.162 376.294 355.902 376.294C356.641 376.294 357.345 376.418 358.012 376.664C358.68 376.896 359.267 377.252 359.775 377.731C360.283 378.195 360.689 378.782 360.994 379.493C361.298 380.204 361.45 381.024 361.45 381.952V382.387C361.45 383.374 361.298 384.237 360.994 384.977C360.689 385.717 360.283 386.333 359.775 386.826C359.267 387.305 358.68 387.668 358.012 387.914C357.345 388.146 356.641 388.263 355.902 388.263ZM355.902 386.522C356.337 386.522 356.772 386.449 357.207 386.304C357.642 386.145 358.027 385.905 358.361 385.586C358.694 385.252 358.963 384.824 359.166 384.302C359.383 383.78 359.492 383.142 359.492 382.387V381.952C359.492 381.256 359.383 380.661 359.166 380.168C358.963 379.674 358.694 379.268 358.361 378.949C358.027 378.63 357.642 378.398 357.207 378.253C356.772 378.108 356.337 378.035 355.902 378.035C355.466 378.035 355.031 378.108 354.596 378.253C354.161 378.398 353.776 378.63 353.443 378.949C353.109 379.268 352.833 379.674 352.616 380.168C352.413 380.661 352.311 381.256 352.311 381.952V382.387C352.311 383.142 352.413 383.78 352.616 384.302C352.833 384.824 353.109 385.252 353.443 385.586C353.776 385.905 354.161 386.145 354.596 386.304C355.031 386.449 355.466 386.522 355.902 386.522ZM368.949 388.263C368.209 388.263 367.506 388.146 366.839 387.914C366.171 387.682 365.584 387.327 365.076 386.848C364.568 386.355 364.162 385.738 363.857 384.998C363.553 384.259 363.4 383.388 363.4 382.387V381.952C363.4 380.995 363.545 380.168 363.836 379.471C364.126 378.761 364.51 378.173 364.989 377.709C365.482 377.23 366.048 376.875 366.686 376.642C367.339 376.41 368.021 376.294 368.732 376.294C370.429 376.294 371.742 376.759 372.67 377.687C373.599 378.615 374.063 379.928 374.063 381.626V382.844H365.315C365.315 383.526 365.424 384.099 365.642 384.563C365.859 385.027 366.142 385.405 366.49 385.695C366.839 385.985 367.223 386.195 367.644 386.326C368.079 386.456 368.514 386.522 368.949 386.522C369.82 386.522 370.487 386.377 370.951 386.086C371.43 385.796 371.771 385.397 371.974 384.89H373.845C373.729 385.441 373.519 385.927 373.214 386.348C372.924 386.768 372.562 387.124 372.126 387.414C371.706 387.69 371.22 387.9 370.668 388.045C370.132 388.19 369.559 388.263 368.949 388.263ZM368.841 378.035C368.391 378.035 367.956 378.1 367.535 378.231C367.114 378.347 366.737 378.543 366.403 378.819C366.084 379.08 365.823 379.413 365.62 379.82C365.417 380.226 365.315 380.712 365.315 381.277H372.257C372.242 380.683 372.141 380.182 371.952 379.776C371.778 379.355 371.539 379.022 371.234 378.775C370.93 378.514 370.567 378.325 370.146 378.209C369.74 378.093 369.305 378.035 368.841 378.035ZM257.184 412.263C255.733 412.263 254.595 411.958 253.768 411.349C252.941 410.739 252.484 409.883 252.397 408.781H254.312C254.413 409.347 254.711 409.782 255.204 410.086C255.712 410.377 256.372 410.522 257.184 410.522C258.185 410.522 258.91 410.355 259.36 410.021C259.824 409.673 260.056 409.26 260.056 408.781C260.056 408.215 259.868 407.773 259.491 407.453C259.113 407.12 258.461 406.953 257.532 406.953H255.552V405.386H257.402C258.199 405.386 258.765 405.234 259.099 404.929C259.447 404.625 259.621 404.197 259.621 403.645C259.621 403.21 259.418 402.833 259.012 402.514C258.606 402.195 257.996 402.035 257.184 402.035C256.299 402.035 255.654 402.18 255.247 402.47C254.856 402.746 254.616 403.145 254.529 403.667H252.614C252.658 403.188 252.788 402.746 253.006 402.34C253.238 401.919 253.55 401.556 253.942 401.252C254.333 400.947 254.798 400.715 255.334 400.555C255.886 400.381 256.502 400.294 257.184 400.294C257.924 400.294 258.562 400.381 259.099 400.555C259.65 400.715 260.107 400.947 260.47 401.252C260.832 401.542 261.101 401.89 261.275 402.296C261.449 402.702 261.536 403.152 261.536 403.645C261.536 404.197 261.398 404.683 261.123 405.103C260.847 405.51 260.405 405.829 259.795 406.061C260.608 406.278 261.173 406.627 261.493 407.105C261.812 407.584 261.971 408.143 261.971 408.781C261.971 409.26 261.87 409.709 261.667 410.13C261.464 410.551 261.159 410.921 260.753 411.24C260.361 411.544 259.861 411.791 259.251 411.98C258.656 412.168 257.967 412.263 257.184 412.263ZM264.7 400.512H266.615V405.321H272.577V400.512H274.492V412.045H272.577V407.018H266.615V412.045H264.7V400.512ZM281.267 412.263C280.629 412.263 280.063 412.175 279.57 412.001C279.091 411.813 278.685 411.559 278.351 411.24C278.018 410.921 277.764 410.543 277.59 410.108C277.416 409.673 277.328 409.194 277.328 408.672C277.328 407.526 277.662 406.699 278.329 406.191C279.011 405.684 279.983 405.43 281.245 405.43H284.988V404.646C284.988 403.66 284.763 402.978 284.314 402.601C283.878 402.224 283.218 402.035 282.333 402.035C281.506 402.035 280.904 402.195 280.527 402.514C280.15 402.819 279.94 403.167 279.896 403.558H277.981C278.01 403.094 278.134 402.666 278.351 402.275C278.583 401.868 278.888 401.52 279.265 401.23C279.657 400.94 280.121 400.715 280.658 400.555C281.195 400.381 281.789 400.294 282.442 400.294C283.806 400.294 284.887 400.621 285.684 401.274C286.497 401.912 286.903 402.964 286.903 404.429V409.107C286.903 409.717 286.903 410.253 286.903 410.718C286.918 411.167 286.954 411.61 287.012 412.045H285.336C285.293 411.711 285.264 411.399 285.249 411.109C285.235 410.805 285.227 410.464 285.227 410.086C284.923 410.696 284.43 411.211 283.748 411.631C283.066 412.052 282.239 412.263 281.267 412.263ZM281.681 410.522C282.13 410.522 282.551 410.464 282.943 410.348C283.349 410.217 283.704 410.036 284.009 409.804C284.314 409.557 284.553 409.26 284.727 408.911C284.901 408.563 284.988 408.157 284.988 407.693V406.909H281.572C280.861 406.909 280.302 407.055 279.896 407.345C279.49 407.62 279.287 408.063 279.287 408.672C279.287 409.209 279.475 409.651 279.853 409.999C280.244 410.348 280.854 410.522 281.681 410.522ZM296.966 407.453C296.632 407.657 296.226 407.838 295.747 407.997C295.283 408.157 294.695 408.237 293.984 408.237C293.317 408.237 292.715 408.164 292.178 408.019C291.656 407.874 291.214 407.642 290.851 407.323C290.488 407.004 290.213 406.59 290.024 406.083C289.836 405.575 289.741 404.951 289.741 404.211V400.512H291.656V403.885C291.656 404.378 291.7 404.791 291.787 405.125C291.888 405.459 292.048 405.727 292.265 405.93C292.483 406.133 292.759 406.278 293.092 406.365C293.426 406.453 293.832 406.496 294.311 406.496C294.964 406.496 295.522 406.431 295.986 406.3C296.451 406.17 296.777 406.032 296.966 405.887V400.512H298.881V412.045H296.966V407.453ZM307.143 412.263C306.403 412.263 305.699 412.146 305.032 411.914C304.365 411.682 303.777 411.327 303.269 410.848C302.762 410.355 302.355 409.738 302.051 408.998C301.746 408.259 301.594 407.388 301.594 406.387V405.952C301.594 404.995 301.739 404.168 302.029 403.471C302.319 402.761 302.704 402.173 303.182 401.709C303.676 401.23 304.241 400.875 304.88 400.642C305.532 400.41 306.214 400.294 306.925 400.294C308.622 400.294 309.935 400.759 310.864 401.687C311.792 402.615 312.256 403.928 312.256 405.626V406.844H303.509C303.509 407.526 303.618 408.099 303.835 408.563C304.053 409.027 304.336 409.405 304.684 409.695C305.032 409.985 305.416 410.195 305.837 410.326C306.272 410.456 306.707 410.522 307.143 410.522C308.013 410.522 308.68 410.377 309.145 410.086C309.623 409.796 309.964 409.397 310.167 408.89H312.039C311.923 409.441 311.712 409.927 311.408 410.348C311.118 410.768 310.755 411.124 310.32 411.414C309.899 411.69 309.413 411.9 308.862 412.045C308.325 412.19 307.752 412.263 307.143 412.263ZM307.034 402.035C306.584 402.035 306.149 402.1 305.728 402.231C305.308 402.347 304.93 402.543 304.597 402.819C304.278 403.08 304.016 403.413 303.813 403.82C303.61 404.226 303.509 404.712 303.509 405.277H310.45C310.436 404.683 310.334 404.182 310.146 403.776C309.972 403.355 309.732 403.022 309.428 402.775C309.123 402.514 308.76 402.325 308.34 402.209C307.933 402.093 307.498 402.035 307.034 402.035ZM314.978 400.512H316.893V405.321H322.855V400.512H324.77V412.045H322.855V407.018H316.893V412.045H314.978V400.512ZM328.26 400.512H330.174V409.216L336.137 400.512H338.052V412.045H336.137V403.341L330.174 412.045H328.26V400.512ZM346.328 412.263C345.588 412.263 344.885 412.146 344.218 411.914C343.55 411.682 342.963 411.327 342.455 410.848C341.947 410.355 341.541 409.738 341.236 408.998C340.932 408.259 340.779 407.388 340.779 406.387V405.952C340.779 404.995 340.925 404.168 341.215 403.471C341.505 402.761 341.889 402.173 342.368 401.709C342.861 401.23 343.427 400.875 344.065 400.642C344.718 400.41 345.4 400.294 346.111 400.294C347.808 400.294 349.121 400.759 350.049 401.687C350.978 402.615 351.442 403.928 351.442 405.626V406.844H342.694C342.694 407.526 342.803 408.099 343.021 408.563C343.238 409.027 343.521 409.405 343.869 409.695C344.218 409.985 344.602 410.195 345.023 410.326C345.458 410.456 345.893 410.522 346.328 410.522C347.199 410.522 347.866 410.377 348.33 410.086C348.809 409.796 349.15 409.397 349.353 408.89H351.224C351.108 409.441 350.898 409.927 350.593 410.348C350.303 410.768 349.941 411.124 349.505 411.414C349.085 411.69 348.599 411.9 348.047 412.045C347.511 412.19 346.938 412.263 346.328 412.263ZM346.22 402.035C345.77 402.035 345.335 402.1 344.914 402.231C344.493 402.347 344.116 402.543 343.782 402.819C343.463 403.08 343.202 403.413 342.999 403.82C342.796 404.226 342.694 404.712 342.694 405.277H349.636C349.621 404.683 349.52 404.182 349.331 403.776C349.157 403.355 348.918 403.022 348.613 402.775C348.309 402.514 347.946 402.325 347.525 402.209C347.119 402.093 346.684 402.035 346.22 402.035Z" fill="black"/>
<path d="M951.363 123.875H953.6C953.887 123.206 954.126 122.402 954.317 121.465C954.508 120.509 954.661 119.505 954.776 118.454C954.891 117.383 954.977 116.293 955.034 115.184C955.092 114.055 955.12 112.975 955.12 111.942V107.353H969.261V123.875H971.441V131.161H967.598V127.432H955.206V131.161H951.363V123.875ZM964.959 123.875V110.91H959.193V112.516C959.193 115.136 959.069 117.345 958.82 119.142C958.572 120.94 958.218 122.517 957.759 123.875H964.959ZM978.584 127.776C977.761 127.776 977.035 127.661 976.404 127.432C975.773 127.183 975.237 126.848 974.797 126.428C974.357 125.988 974.023 125.481 973.793 124.907C973.564 124.315 973.449 123.674 973.449 122.986C973.449 119.926 975.266 118.396 978.899 118.396H983.431V117.679C983.431 116.685 983.202 115.987 982.743 115.585C982.303 115.184 981.595 114.983 980.62 114.983C979.76 114.983 979.138 115.136 978.756 115.442C978.373 115.729 978.153 116.092 978.096 116.532H974.31C974.348 115.882 974.51 115.27 974.797 114.696C975.103 114.122 975.524 113.635 976.059 113.233C976.614 112.813 977.283 112.487 978.067 112.258C978.851 112.009 979.75 111.885 980.764 111.885C981.739 111.885 982.618 111.99 983.402 112.201C984.206 112.411 984.884 112.755 985.439 113.233C986.013 113.692 986.452 114.295 986.758 115.04C987.064 115.786 987.217 116.685 987.217 117.737V123.559C987.217 124.362 987.227 125.07 987.246 125.682C987.284 126.275 987.342 126.858 987.418 127.432H983.89C983.814 127.011 983.766 126.695 983.747 126.485C983.747 126.256 983.747 125.921 983.747 125.481C983.326 126.093 982.685 126.628 981.825 127.087C980.983 127.546 979.903 127.776 978.584 127.776ZM979.76 124.85C980.219 124.85 980.668 124.793 981.108 124.678C981.548 124.544 981.94 124.353 982.284 124.104C982.628 123.837 982.905 123.502 983.116 123.1C983.326 122.699 983.431 122.23 983.431 121.695V120.978H979.616C978.89 120.978 978.316 121.15 977.895 121.494C977.494 121.819 977.293 122.269 977.293 122.842C977.293 123.454 977.503 123.942 977.924 124.305C978.345 124.668 978.956 124.85 979.76 124.85Z" fill="black"/>
<path d="M731.991 160.965C730.729 160.965 729.61 160.784 728.635 160.42C727.659 160.057 726.837 159.493 726.168 158.728C725.499 157.944 724.982 156.95 724.619 155.745C724.275 154.54 724.103 153.106 724.103 151.442V150.869C724.103 148.956 724.303 147.331 724.705 145.992C725.107 144.635 725.671 143.526 726.397 142.665C727.124 141.805 727.985 141.183 728.979 140.801C729.992 140.399 731.092 140.198 732.278 140.198C734.132 140.198 735.634 140.59 736.781 141.374C737.928 142.158 738.626 143.459 738.875 145.275H734.859C734.477 144.3 733.568 143.812 732.134 143.812C731.58 143.812 731.063 143.899 730.585 144.071C730.126 144.224 729.715 144.52 729.352 144.96C729.008 145.38 728.73 145.964 728.52 146.71C728.31 147.455 728.176 148.411 728.118 149.578C728.367 149.195 728.673 148.88 729.036 148.631C729.4 148.364 729.792 148.153 730.212 148C730.652 147.828 731.101 147.704 731.56 147.627C732.038 147.551 732.517 147.513 732.995 147.513C735.022 147.513 736.58 148.067 737.67 149.176C738.76 150.266 739.305 151.815 739.305 153.823V154.139C739.305 155.152 739.123 156.08 738.76 156.921C738.397 157.762 737.89 158.489 737.24 159.101C736.609 159.694 735.844 160.153 734.945 160.478C734.046 160.803 733.062 160.965 731.991 160.965ZM731.704 157.351C732.736 157.351 733.54 157.064 734.113 156.491C734.706 155.898 735.002 155.143 735.002 154.225V153.938C735.002 153.02 734.706 152.274 734.113 151.7C733.54 151.127 732.736 150.84 731.704 150.84C730.671 150.84 729.859 151.127 729.266 151.7C728.692 152.274 728.405 153.02 728.405 153.938V154.225C728.405 155.143 728.692 155.898 729.266 156.491C729.859 157.064 730.671 157.351 731.704 157.351ZM750.635 156.376H741.169V153.393L750.635 140.543H754.938V152.819H757.232V156.376H754.938V160.621H750.635V156.376ZM750.635 152.819V145.333L745.185 152.819H750.635ZM780.98 148.717V151.873L766.925 158.04V153.938L775.961 150.352L766.925 146.767V142.55L780.98 148.717ZM783.284 151.959H797.339V155.515H783.284V151.959ZM783.284 145.075H797.339V148.631H783.284V145.075ZM814.989 160.965C813.726 160.965 812.608 160.784 811.633 160.42C810.657 160.057 809.835 159.493 809.166 158.728C808.496 157.944 807.98 156.95 807.617 155.745C807.273 154.54 807.1 153.106 807.1 151.442V150.869C807.1 148.956 807.301 147.331 807.703 145.992C808.104 144.635 808.669 143.526 809.395 142.665C810.122 141.805 810.982 141.183 811.977 140.801C812.99 140.399 814.09 140.198 815.275 140.198C817.13 140.198 818.631 140.59 819.779 141.374C820.926 142.158 821.624 143.459 821.873 145.275H817.857C817.474 144.3 816.566 143.812 815.132 143.812C814.577 143.812 814.061 143.899 813.583 144.071C813.124 144.224 812.713 144.52 812.35 144.96C812.005 145.38 811.728 145.964 811.518 146.71C811.307 147.455 811.174 148.411 811.116 149.578C811.365 149.195 811.671 148.88 812.034 148.631C812.397 148.364 812.789 148.153 813.21 148C813.65 147.828 814.099 147.704 814.558 147.627C815.036 147.551 815.514 147.513 815.992 147.513C818.019 147.513 819.578 148.067 820.668 149.176C821.758 150.266 822.303 151.815 822.303 153.823V154.139C822.303 155.152 822.121 156.08 821.758 156.921C821.395 157.762 820.888 158.489 820.238 159.101C819.607 159.694 818.842 160.153 817.943 160.478C817.044 160.803 816.059 160.965 814.989 160.965ZM814.702 157.351C815.734 157.351 816.537 157.064 817.111 156.491C817.704 155.898 818 155.143 818 154.225V153.938C818 153.02 817.704 152.274 817.111 151.7C816.537 151.127 815.734 150.84 814.702 150.84C813.669 150.84 812.856 151.127 812.264 151.7C811.69 152.274 811.403 153.02 811.403 153.938V154.225C811.403 155.143 811.69 155.898 812.264 156.491C812.856 157.064 813.669 157.351 814.702 157.351ZM833.633 156.376H824.167V153.393L833.633 140.543H837.935V152.819H840.23V156.376H837.935V160.621H833.633V156.376ZM833.633 152.819V145.333L828.183 152.819H833.633Z" fill="black"/>
<rect x="407.547" y="333.342" width="833.223" height="111.155" stroke="#D0643B" stroke-width="6"/>
<path d="M1376.44 813.959L1385.1 798.959L1367.78 798.959L1376.44 813.959ZM1374.94 743.322L1374.94 800.459L1377.94 800.459L1377.94 743.322L1374.94 743.322Z" fill="black"/>
<rect x="1276.58" y="813.959" width="199.727" height="59.3633" fill="#F3F3F3"/>
<path d="M1312.27 854.485C1311 854.485 1309.88 854.303 1308.91 853.94C1307.93 853.577 1307.11 853.012 1306.44 852.248C1305.77 851.463 1305.26 850.469 1304.89 849.264C1304.55 848.06 1304.38 846.625 1304.38 844.962V844.388C1304.38 842.476 1304.58 840.851 1304.98 839.512C1305.38 838.154 1305.95 837.045 1306.67 836.185C1307.4 835.324 1308.26 834.703 1309.25 834.32C1310.27 833.919 1311.37 833.718 1312.55 833.718C1314.41 833.718 1315.91 834.11 1317.06 834.894C1318.2 835.678 1318.9 836.978 1319.15 838.795H1315.13C1314.75 837.82 1313.84 837.332 1312.41 837.332C1311.85 837.332 1311.34 837.418 1310.86 837.59C1310.4 837.743 1309.99 838.04 1309.63 838.479C1309.28 838.9 1309.01 839.483 1308.79 840.229C1308.58 840.975 1308.45 841.931 1308.39 843.097C1308.64 842.715 1308.95 842.399 1309.31 842.151C1309.67 841.883 1310.07 841.673 1310.49 841.52C1310.93 841.348 1311.38 841.223 1311.84 841.147C1312.31 841.07 1312.79 841.032 1313.27 841.032C1315.3 841.032 1316.85 841.587 1317.94 842.696C1319.03 843.786 1319.58 845.335 1319.58 847.343V847.658C1319.58 848.672 1319.4 849.599 1319.03 850.44C1318.67 851.282 1318.16 852.008 1317.51 852.62C1316.88 853.213 1316.12 853.672 1315.22 853.997C1314.32 854.322 1313.34 854.485 1312.27 854.485ZM1311.98 850.871C1313.01 850.871 1313.81 850.584 1314.39 850.01C1314.98 849.417 1315.28 848.662 1315.28 847.744V847.457C1315.28 846.539 1314.98 845.794 1314.39 845.22C1313.81 844.646 1313.01 844.359 1311.98 844.359C1310.95 844.359 1310.13 844.646 1309.54 845.22C1308.97 845.794 1308.68 846.539 1308.68 847.457V847.744C1308.68 848.662 1308.97 849.417 1309.54 850.01C1310.13 850.584 1310.95 850.871 1311.98 850.871ZM1330.91 849.895H1321.44V846.912L1330.91 834.062H1335.21V846.339H1337.51V849.895H1335.21V854.141H1330.91V849.895ZM1330.91 846.339V838.852L1325.46 846.339H1330.91ZM1346.91 844.331H1356.09V847.888H1346.91V844.331ZM1373.44 854.485C1372.18 854.485 1371.06 854.303 1370.09 853.94C1369.11 853.577 1368.29 853.012 1367.62 852.248C1366.95 851.463 1366.43 850.469 1366.07 849.264C1365.73 848.06 1365.55 846.625 1365.55 844.962V844.388C1365.55 842.476 1365.76 840.851 1366.16 839.512C1366.56 838.154 1367.12 837.045 1367.85 836.185C1368.58 835.324 1369.44 834.703 1370.43 834.32C1371.44 833.919 1372.54 833.718 1373.73 833.718C1375.58 833.718 1377.09 834.11 1378.23 834.894C1379.38 835.678 1380.08 836.978 1380.33 838.795H1376.31C1375.93 837.82 1375.02 837.332 1373.59 837.332C1373.03 837.332 1372.52 837.418 1372.04 837.59C1371.58 837.743 1371.17 838.04 1370.8 838.479C1370.46 838.9 1370.18 839.483 1369.97 840.229C1369.76 840.975 1369.63 841.931 1369.57 843.097C1369.82 842.715 1370.12 842.399 1370.49 842.151C1370.85 841.883 1371.24 841.673 1371.66 841.52C1372.1 841.348 1372.55 841.223 1373.01 841.147C1373.49 841.07 1373.97 841.032 1374.45 841.032C1376.47 841.032 1378.03 841.587 1379.12 842.696C1380.21 843.786 1380.76 845.335 1380.76 847.343V847.658C1380.76 848.672 1380.58 849.599 1380.21 850.44C1379.85 851.282 1379.34 852.008 1378.69 852.62C1378.06 853.213 1377.3 853.672 1376.4 853.997C1375.5 854.322 1374.51 854.485 1373.44 854.485ZM1373.16 850.871C1374.19 850.871 1374.99 850.584 1375.57 850.01C1376.16 849.417 1376.45 848.662 1376.45 847.744V847.457C1376.45 846.539 1376.16 845.794 1375.57 845.22C1374.99 844.646 1374.19 844.359 1373.16 844.359C1372.12 844.359 1371.31 844.646 1370.72 845.22C1370.14 845.794 1369.86 846.539 1369.86 847.457V847.744C1369.86 848.662 1370.14 849.417 1370.72 850.01C1371.31 850.584 1372.12 850.871 1373.16 850.871ZM1392.09 849.895H1382.62V846.912L1392.09 834.062H1396.39V846.339H1398.68V849.895H1396.39V854.141H1392.09V849.895ZM1392.09 846.339V838.852L1386.64 846.339H1392.09ZM1408.38 845.478H1422.43V849.035H1408.38V845.478ZM1408.38 838.594H1422.43V842.151H1408.38V838.594ZM1439.94 854.485C1438.85 854.485 1437.83 854.313 1436.87 853.969C1435.93 853.605 1435.12 853.022 1434.43 852.219C1433.74 851.397 1433.2 850.326 1432.8 849.006C1432.39 847.668 1432.19 846.033 1432.19 844.101V843.528C1432.19 841.73 1432.39 840.21 1432.8 838.967C1433.2 837.724 1433.74 836.72 1434.43 835.955C1435.12 835.171 1435.93 834.607 1436.87 834.263C1437.83 833.9 1438.85 833.718 1439.94 833.718C1441.03 833.718 1442.04 833.9 1442.98 834.263C1443.93 834.607 1444.76 835.171 1445.45 835.955C1446.13 836.72 1446.68 837.724 1447.08 838.967C1447.48 840.21 1447.68 841.73 1447.68 843.528V844.101C1447.68 846.033 1447.48 847.668 1447.08 849.006C1446.68 850.326 1446.13 851.397 1445.45 852.219C1444.76 853.022 1443.93 853.605 1442.98 853.969C1442.04 854.313 1441.03 854.485 1439.94 854.485ZM1439.94 850.871C1440.42 850.871 1440.87 850.775 1441.29 850.584C1441.71 850.393 1442.07 850.048 1442.38 849.551C1442.7 849.035 1442.95 848.337 1443.12 847.457C1443.29 846.578 1443.38 845.459 1443.38 844.101V843.528C1443.38 842.304 1443.29 841.3 1443.12 840.516C1442.95 839.713 1442.7 839.082 1442.38 838.623C1442.07 838.145 1441.71 837.81 1441.29 837.619C1440.87 837.428 1440.42 837.332 1439.94 837.332C1439.44 837.332 1438.98 837.428 1438.56 837.619C1438.16 837.81 1437.8 838.145 1437.47 838.623C1437.17 839.082 1436.93 839.713 1436.75 840.516C1436.58 841.3 1436.5 842.304 1436.5 843.528V844.101C1436.5 845.459 1436.58 846.578 1436.75 847.457C1436.93 848.337 1437.17 849.035 1437.47 849.551C1437.8 850.048 1438.16 850.393 1438.56 850.584C1438.98 850.775 1439.44 850.871 1439.94 850.871Z" fill="black"/>
<rect x="1276.58" y="813.959" width="199.727" height="59.3633" stroke="#DADADA" stroke-width="2"/>
<path d="M302.13 107.921H319.053V128H314.751V111.478H306.432V128H302.13V107.921ZM323.069 112.798H326.597V115.035C326.98 114.347 327.582 113.744 328.404 113.228C329.226 112.712 330.269 112.453 331.531 112.453C333.558 112.453 335.135 113.084 336.263 114.347C337.411 115.59 337.984 117.464 337.984 119.969V120.542C337.984 123.162 337.401 125.122 336.235 126.422C335.087 127.704 333.519 128.344 331.531 128.344C330.498 128.344 329.58 128.124 328.777 127.684C327.993 127.226 327.352 126.633 326.855 125.906V133.737H323.069V112.798ZM330.641 125.132C331.636 125.132 332.468 124.759 333.137 124.013C333.806 123.248 334.141 122.091 334.141 120.542V119.969C334.141 118.534 333.816 117.464 333.166 116.756C332.515 116.029 331.674 115.666 330.641 115.666C329.551 115.666 328.643 115.982 327.917 116.613C327.209 117.224 326.855 118.152 326.855 119.395V121.116C326.855 122.474 327.199 123.487 327.888 124.156C328.595 124.807 329.513 125.132 330.641 125.132ZM340.716 112.798H344.502V122.55L351.272 112.798H354.771V128H350.985V118.248L344.216 128H340.716V112.798ZM358.223 112.798H362.698L366.914 121.001L371.131 112.798H375.434V128H371.819V118.104L368.119 124.988H365.538L361.837 118.104V128H358.223V112.798ZM385.752 128.344C384.719 128.344 383.734 128.191 382.797 127.885C381.879 127.56 381.076 127.082 380.388 126.451C379.7 125.801 379.155 124.988 378.753 124.013C378.351 123.019 378.151 121.862 378.151 120.542V119.969C378.151 118.706 378.342 117.607 378.724 116.67C379.107 115.733 379.633 114.958 380.302 114.347C380.971 113.716 381.746 113.247 382.625 112.941C383.505 112.616 384.451 112.453 385.465 112.453C387.855 112.453 389.672 113.084 390.915 114.347C392.158 115.609 392.779 117.435 392.779 119.825V121.431H382.023C382.042 122.101 382.157 122.684 382.367 123.181C382.577 123.659 382.855 124.051 383.199 124.357C383.543 124.663 383.935 124.893 384.375 125.046C384.834 125.179 385.293 125.246 385.752 125.246C386.727 125.246 387.463 125.103 387.96 124.816C388.458 124.529 388.811 124.109 389.022 123.554H392.492C392.186 125.141 391.431 126.336 390.226 127.139C389.022 127.943 387.53 128.344 385.752 128.344ZM385.608 115.551C385.169 115.551 384.729 115.609 384.289 115.723C383.868 115.838 383.495 116.02 383.17 116.268C382.845 116.517 382.577 116.852 382.367 117.272C382.157 117.693 382.042 118.2 382.023 118.793H389.108C389.089 118.161 388.983 117.636 388.792 117.215C388.62 116.794 388.372 116.46 388.046 116.211C387.741 115.962 387.377 115.79 386.956 115.695C386.536 115.599 386.086 115.551 385.608 115.551ZM395.506 112.798H399.035V115.035C399.417 114.347 400.019 113.744 400.842 113.228C401.664 112.712 402.706 112.453 403.968 112.453C405.995 112.453 407.573 113.084 408.701 114.347C409.848 115.59 410.422 117.464 410.422 119.969V120.542C410.422 123.162 409.839 125.122 408.672 126.422C407.525 127.704 405.957 128.344 403.968 128.344C402.936 128.344 402.018 128.124 401.215 127.684C400.431 127.226 399.79 126.633 399.293 125.906V133.737H395.506V112.798ZM403.079 125.132C404.073 125.132 404.905 124.759 405.574 124.013C406.244 123.248 406.578 122.091 406.578 120.542V119.969C406.578 118.534 406.253 117.464 405.603 116.756C404.953 116.029 404.112 115.666 403.079 115.666C401.989 115.666 401.081 115.982 400.354 116.613C399.646 117.224 399.293 118.152 399.293 119.395V121.116C399.293 122.474 399.637 123.487 400.325 124.156C401.033 124.807 401.951 125.132 403.079 125.132ZM415.879 128.344C415.209 128.344 414.636 128.105 414.158 127.627C413.68 127.149 413.441 126.575 413.441 125.906C413.441 125.199 413.68 124.615 414.158 124.156C414.636 123.697 415.209 123.468 415.879 123.468C416.548 123.468 417.122 123.697 417.6 124.156C418.078 124.615 418.317 125.199 418.317 125.906C418.317 126.575 418.078 127.149 417.6 127.627C417.122 128.105 416.548 128.344 415.879 128.344ZM415.879 117.33C415.209 117.33 414.636 117.091 414.158 116.613C413.68 116.135 413.441 115.561 413.441 114.892C413.441 114.184 413.68 113.601 414.158 113.142C414.636 112.683 415.209 112.453 415.879 112.453C416.548 112.453 417.122 112.683 417.6 113.142C418.078 113.601 418.317 114.184 418.317 114.892C418.317 115.561 418.078 116.135 417.6 116.613C417.122 117.091 416.548 117.33 415.879 117.33ZM428.774 124.443H433.363V112.281L428.774 115.551V111.363L433.621 107.921H437.666V124.443H441.395V128H428.774V124.443ZM450.427 128.344C448.515 128.344 446.975 127.933 445.809 127.111C444.642 126.289 443.935 125.007 443.686 123.267H447.702C447.893 123.764 448.199 124.137 448.62 124.386C449.06 124.615 449.71 124.73 450.57 124.73C451.087 124.73 451.565 124.654 452.004 124.501C452.463 124.328 452.865 124.032 453.209 123.611C453.553 123.172 453.831 122.579 454.041 121.833C454.251 121.087 454.385 120.131 454.442 118.965C454.194 119.347 453.888 119.672 453.525 119.94C453.161 120.188 452.76 120.399 452.32 120.571C451.899 120.724 451.45 120.839 450.972 120.915C450.513 120.992 450.044 121.03 449.566 121.03C447.539 121.03 445.981 120.485 444.891 119.395C443.801 118.286 443.256 116.727 443.256 114.719V114.404C443.256 113.39 443.438 112.463 443.801 111.622C444.164 110.78 444.661 110.063 445.292 109.47C445.943 108.858 446.717 108.39 447.616 108.065C448.515 107.74 449.499 107.577 450.57 107.577C453.113 107.577 455.064 108.323 456.422 109.815C457.779 111.306 458.458 113.735 458.458 117.1V117.645C458.458 119.577 458.257 121.221 457.856 122.579C457.454 123.917 456.89 125.017 456.164 125.877C455.456 126.738 454.605 127.369 453.611 127.771C452.635 128.153 451.574 128.344 450.427 128.344ZM450.857 117.703C451.89 117.703 452.693 117.416 453.266 116.842C453.859 116.268 454.156 115.523 454.156 114.605V114.318C454.156 113.419 453.85 112.673 453.238 112.081C452.645 111.488 451.851 111.191 450.857 111.191C449.824 111.191 449.012 111.488 448.419 112.081C447.845 112.654 447.558 113.4 447.558 114.318V114.605C447.558 115.523 447.845 116.268 448.419 116.842C449.012 117.416 449.824 117.703 450.857 117.703ZM460.753 124.873L467.78 118.821C468.431 118.248 468.985 117.75 469.444 117.33C469.903 116.89 470.276 116.488 470.563 116.125C470.85 115.762 471.05 115.408 471.165 115.064C471.299 114.719 471.366 114.347 471.366 113.945C471.366 113.123 471.136 112.463 470.677 111.966C470.219 111.45 469.54 111.191 468.641 111.191C467.608 111.191 466.796 111.478 466.203 112.052C465.629 112.606 465.342 113.572 465.342 114.949H461.04C461.04 112.673 461.68 110.876 462.962 109.556C464.262 108.237 466.155 107.577 468.641 107.577C469.807 107.577 470.821 107.74 471.681 108.065C472.561 108.371 473.297 108.811 473.89 109.384C474.483 109.939 474.923 110.608 475.209 111.392C475.515 112.176 475.668 113.027 475.668 113.945C475.668 114.633 475.544 115.293 475.296 115.924C475.047 116.536 474.703 117.129 474.263 117.703C473.842 118.276 473.345 118.84 472.771 119.395C472.198 119.93 471.586 120.466 470.936 121.001L466.805 124.443H475.955V128H460.753V124.873ZM481.537 128.344C480.868 128.344 480.294 128.105 479.816 127.627C479.338 127.149 479.099 126.575 479.099 125.906C479.099 125.199 479.338 124.615 479.816 124.156C480.294 123.697 480.868 123.468 481.537 123.468C482.207 123.468 482.78 123.697 483.258 124.156C483.736 124.615 483.975 125.199 483.975 125.906C483.975 126.575 483.736 127.149 483.258 127.627C482.78 128.105 482.207 128.344 481.537 128.344ZM487.262 124.443H491.851V112.281L487.262 115.551V111.363L492.109 107.921H496.154V124.443H499.883V128H487.262V124.443ZM509.775 128.344C508.513 128.344 507.394 128.163 506.419 127.799C505.444 127.436 504.622 126.872 503.952 126.107C503.283 125.323 502.767 124.328 502.403 123.124C502.059 121.919 501.887 120.485 501.887 118.821V118.248C501.887 116.335 502.088 114.71 502.489 113.371C502.891 112.014 503.455 110.905 504.182 110.044C504.908 109.184 505.769 108.562 506.763 108.18C507.777 107.778 508.876 107.577 510.062 107.577C511.917 107.577 513.418 107.969 514.565 108.753C515.713 109.537 516.411 110.838 516.659 112.654H512.643C512.261 111.679 511.353 111.191 509.919 111.191C509.364 111.191 508.848 111.277 508.37 111.45C507.911 111.602 507.5 111.899 507.136 112.339C506.792 112.759 506.515 113.343 506.304 114.088C506.094 114.834 505.96 115.79 505.903 116.957C506.151 116.574 506.457 116.259 506.821 116.01C507.184 115.743 507.576 115.532 507.997 115.379C508.437 115.207 508.886 115.083 509.345 115.006C509.823 114.93 510.301 114.892 510.779 114.892C512.806 114.892 514.365 115.446 515.454 116.555C516.544 117.645 517.089 119.194 517.089 121.202V121.517C517.089 122.531 516.908 123.458 516.544 124.3C516.181 125.141 515.674 125.868 515.024 126.48C514.393 127.073 513.628 127.531 512.73 127.857C511.831 128.182 510.846 128.344 509.775 128.344ZM509.488 124.73C510.521 124.73 511.324 124.443 511.898 123.87C512.49 123.277 512.787 122.521 512.787 121.604V121.317C512.787 120.399 512.49 119.653 511.898 119.079C511.324 118.506 510.521 118.219 509.488 118.219C508.456 118.219 507.643 118.506 507.05 119.079C506.476 119.653 506.19 120.399 506.19 121.317V121.604C506.19 122.521 506.476 123.277 507.05 123.87C507.643 124.443 508.456 124.73 509.488 124.73ZM527.416 128.344C526.211 128.344 525.121 128.21 524.146 127.943C523.19 127.656 522.377 127.264 521.708 126.767C521.057 126.25 520.551 125.638 520.187 124.931C519.843 124.204 519.671 123.401 519.671 122.521C519.671 121.393 520.015 120.389 520.704 119.51C521.392 118.611 522.415 117.98 523.773 117.617C522.759 117.291 521.918 116.727 521.249 115.924C520.579 115.121 520.245 114.165 520.245 113.056C520.245 112.253 520.398 111.516 520.704 110.847C521.029 110.178 521.497 109.604 522.109 109.126C522.721 108.629 523.467 108.247 524.346 107.979C525.245 107.711 526.268 107.577 527.416 107.577C528.563 107.577 529.576 107.711 530.456 107.979C531.355 108.247 532.11 108.629 532.722 109.126C533.353 109.604 533.822 110.178 534.128 110.847C534.453 111.516 534.615 112.253 534.615 113.056C534.615 114.165 534.281 115.111 533.611 115.895C532.942 116.66 532.091 117.234 531.058 117.617C533.793 118.458 535.16 120.093 535.16 122.521C535.16 123.401 534.979 124.204 534.615 124.931C534.271 125.638 533.764 126.25 533.095 126.767C532.445 127.264 531.642 127.656 530.686 127.943C529.729 128.21 528.639 128.344 527.416 128.344ZM527.416 124.73C528.601 124.73 529.471 124.501 530.026 124.042C530.58 123.583 530.858 122.961 530.858 122.177C530.858 121.317 530.533 120.638 529.882 120.141C529.251 119.624 528.429 119.29 527.416 119.137C526.402 119.29 525.57 119.624 524.92 120.141C524.289 120.638 523.974 121.317 523.974 122.177C523.974 122.961 524.26 123.583 524.834 124.042C525.408 124.501 526.268 124.73 527.416 124.73ZM527.416 116.211C528.276 116.058 528.974 115.762 529.509 115.322C530.045 114.863 530.313 114.232 530.313 113.429C530.313 112.683 530.054 112.128 529.538 111.765C529.041 111.383 528.333 111.191 527.416 111.191C526.517 111.191 525.809 111.383 525.293 111.765C524.796 112.128 524.547 112.683 524.547 113.429C524.547 114.232 524.805 114.863 525.322 115.322C525.857 115.762 526.555 116.058 527.416 116.211ZM540.894 128.344C540.224 128.344 539.651 128.105 539.173 127.627C538.694 127.149 538.455 126.575 538.455 125.906C538.455 125.199 538.694 124.615 539.173 124.156C539.651 123.697 540.224 123.468 540.894 123.468C541.563 123.468 542.137 123.697 542.615 124.156C543.093 124.615 543.332 125.199 543.332 125.906C543.332 126.575 543.093 127.149 542.615 127.627C542.137 128.105 541.563 128.344 540.894 128.344ZM546.618 124.443H551.207V112.281L546.618 115.551V111.363L551.466 107.921H555.51V124.443H559.239V128H546.618V124.443ZM568.988 128.344C567.898 128.344 566.875 128.172 565.919 127.828C564.982 127.465 564.169 126.881 563.481 126.078C562.792 125.256 562.247 124.185 561.846 122.866C561.444 121.527 561.243 119.892 561.243 117.961V117.387C561.243 115.59 561.444 114.069 561.846 112.826C562.247 111.583 562.792 110.579 563.481 109.815C564.169 109.031 564.982 108.466 565.919 108.122C566.875 107.759 567.898 107.577 568.988 107.577C570.078 107.577 571.091 107.759 572.028 108.122C572.984 108.466 573.807 109.031 574.495 109.815C575.184 110.579 575.729 111.583 576.13 112.826C576.532 114.069 576.732 115.59 576.732 117.387V117.961C576.732 119.892 576.532 121.527 576.13 122.866C575.729 124.185 575.184 125.256 574.495 126.078C573.807 126.881 572.984 127.465 572.028 127.828C571.091 128.172 570.078 128.344 568.988 128.344ZM568.988 124.73C569.466 124.73 569.915 124.634 570.336 124.443C570.757 124.252 571.12 123.908 571.426 123.411C571.751 122.894 572 122.196 572.172 121.317C572.344 120.437 572.43 119.318 572.43 117.961V117.387C572.43 116.163 572.344 115.159 572.172 114.375C572 113.572 571.751 112.941 571.426 112.482C571.12 112.004 570.757 111.669 570.336 111.478C569.915 111.287 569.466 111.191 568.988 111.191C568.491 111.191 568.032 111.287 567.611 111.478C567.21 111.669 566.846 112.004 566.521 112.482C566.215 112.941 565.976 113.572 565.804 114.375C565.632 115.159 565.546 116.163 565.546 117.387V117.961C565.546 119.318 565.632 120.437 565.804 121.317C565.976 122.196 566.215 122.894 566.521 123.411C566.846 123.908 567.21 124.252 567.611 124.443C568.032 124.634 568.491 124.73 568.988 124.73ZM582.603 128.344C581.933 128.344 581.36 128.105 580.882 127.627C580.403 127.149 580.164 126.575 580.164 125.906C580.164 125.199 580.403 124.615 580.882 124.156C581.36 123.697 581.933 123.468 582.603 123.468C583.272 123.468 583.846 123.697 584.324 124.156C584.802 124.615 585.041 125.199 585.041 125.906C585.041 126.575 584.802 127.149 584.324 127.627C583.846 128.105 583.272 128.344 582.603 128.344ZM588.327 124.443H592.916V112.281L588.327 115.551V111.363L593.175 107.921H597.219V124.443H600.948V128H588.327V124.443ZM602.809 124.443H607.398V112.281L602.809 115.551V111.363L607.656 107.921H611.701V124.443H615.43V128H602.809V124.443Z" fill="black"/>
</svg>
