<svg width="1551" height="974" viewBox="0 0 1551 974" fill="none" xmlns="http://www.w3.org/2000/svg">
<rect x="398.941" y="442.75" width="104.135" height="109.408" fill="#D0643B"/>
<path d="M445.06 504.396H449.649V492.234L445.06 495.504V491.317L449.907 487.875H453.952V504.396H457.68V507.953H445.06V504.396Z" fill="white"/>
<rect x="398.941" y="442.75" width="104.135" height="109.408" stroke="#D0643B" stroke-width="1.31816"/>
<rect x="503.076" y="442.75" width="104.135" height="109.408" fill="#F7F7F7"/>
<rect x="503.076" y="442.75" width="104.135" height="109.408" stroke="#DADADA" stroke-width="2"/>
<rect x="607.211" y="442.75" width="104.135" height="109.408" fill="#F7F7F7"/>
<rect x="607.211" y="442.75" width="104.135" height="109.408" stroke="#DADADA" stroke-width="2"/>
<rect x="711.346" y="442.75" width="104.135" height="109.408" fill="#F7F7F7"/>
<rect x="711.346" y="442.75" width="104.135" height="109.408" stroke="#DADADA" stroke-width="2"/>
<rect x="815.48" y="442.75" width="104.135" height="109.408" fill="#F7F7F7"/>
<rect x="815.48" y="442.75" width="104.135" height="109.408" stroke="#DADADA" stroke-width="2"/>
<rect x="919.615" y="442.75" width="104.135" height="109.408" fill="#F7F7F7"/>
<rect x="919.615" y="442.75" width="104.135" height="109.408" stroke="#DADADA" stroke-width="2"/>
<rect x="1023.75" y="442.75" width="104.135" height="109.408" fill="#F7F7F7"/>
<rect x="1023.75" y="442.75" width="104.135" height="109.408" stroke="#DADADA" stroke-width="2"/>
<rect x="1127.88" y="442.75" width="104.135" height="109.408" fill="#F7F7F7"/>
<rect x="1127.88" y="442.75" width="104.135" height="109.408" stroke="#DADADA" stroke-width="2"/>
<rect x="398.797" y="333.342" width="104.135" height="109.408" fill="#F7F7F7"/>
<path d="M427.156 394.988H431.745V382.826L427.156 386.096V381.908L432.004 378.466H436.048V394.988H439.777V398.545H427.156V394.988ZM441.208 395.418L448.235 389.366C448.885 388.792 449.44 388.295 449.899 387.875C450.358 387.435 450.731 387.033 451.017 386.67C451.304 386.307 451.505 385.953 451.62 385.609C451.754 385.264 451.821 384.891 451.821 384.49C451.821 383.668 451.591 383.008 451.132 382.511C450.673 381.994 449.994 381.736 449.096 381.736C448.063 381.736 447.25 382.023 446.658 382.597C446.084 383.151 445.797 384.117 445.797 385.494H441.494C441.494 383.218 442.135 381.421 443.416 380.101C444.717 378.782 446.61 378.122 449.096 378.122C450.262 378.122 451.276 378.285 452.136 378.61C453.016 378.916 453.752 379.356 454.345 379.929C454.938 380.484 455.377 381.153 455.664 381.937C455.97 382.721 456.123 383.572 456.123 384.49C456.123 385.178 455.999 385.838 455.75 386.469C455.502 387.081 455.157 387.674 454.718 388.247C454.297 388.821 453.8 389.385 453.226 389.94C452.652 390.475 452.041 391.011 451.39 391.546L447.26 394.988H456.41V398.545H441.208V395.418ZM466.582 398.889C465.377 398.889 464.287 398.755 463.312 398.488C462.355 398.201 461.543 397.809 460.873 397.312C460.223 396.795 459.717 396.183 459.353 395.476C459.009 394.749 458.837 393.946 458.837 393.066C458.837 391.938 459.181 390.934 459.87 390.055C460.558 389.156 461.581 388.525 462.939 388.161C461.925 387.836 461.084 387.272 460.415 386.469C459.745 385.666 459.411 384.71 459.411 383.601C459.411 382.798 459.564 382.061 459.87 381.392C460.195 380.723 460.663 380.149 461.275 379.671C461.887 379.174 462.633 378.791 463.512 378.524C464.411 378.256 465.434 378.122 466.582 378.122C467.729 378.122 468.742 378.256 469.622 378.524C470.521 378.791 471.276 379.174 471.888 379.671C472.519 380.149 472.988 380.723 473.293 381.392C473.619 382.061 473.781 382.798 473.781 383.601C473.781 384.71 473.446 385.656 472.777 386.44C472.108 387.205 471.257 387.779 470.224 388.161C472.959 389.003 474.326 390.638 474.326 393.066C474.326 393.946 474.144 394.749 473.781 395.476C473.437 396.183 472.93 396.795 472.261 397.312C471.611 397.809 470.808 398.201 469.851 398.488C468.895 398.755 467.805 398.889 466.582 398.889ZM466.582 395.275C467.767 395.275 468.637 395.046 469.192 394.587C469.746 394.128 470.024 393.506 470.024 392.722C470.024 391.862 469.698 391.183 469.048 390.686C468.417 390.169 467.595 389.835 466.582 389.682C465.568 389.835 464.736 390.169 464.086 390.686C463.455 391.183 463.139 391.862 463.139 392.722C463.139 393.506 463.426 394.128 464 394.587C464.574 395.046 465.434 395.275 466.582 395.275ZM466.582 386.756C467.442 386.603 468.14 386.307 468.675 385.867C469.211 385.408 469.479 384.777 469.479 383.974C469.479 383.228 469.22 382.673 468.704 382.31C468.207 381.928 467.499 381.736 466.582 381.736C465.683 381.736 464.975 381.928 464.459 382.31C463.962 382.673 463.713 383.228 463.713 383.974C463.713 384.777 463.971 385.408 464.488 385.867C465.023 386.307 465.721 386.603 466.582 386.756Z" fill="black"/>
<rect x="398.797" y="333.342" width="104.135" height="109.408" stroke="#DADADA" stroke-width="2"/>
<rect x="502.932" y="333.342" width="104.135" height="109.408" fill="#F7F7F7"/>
<path d="M546.322 398.889C545.06 398.889 543.941 398.707 542.966 398.344C541.991 397.981 541.169 397.417 540.499 396.652C539.83 395.868 539.314 394.873 538.95 393.669C538.606 392.464 538.434 391.03 538.434 389.366V388.792C538.434 386.88 538.635 385.255 539.037 383.916C539.438 382.559 540.002 381.449 540.729 380.589C541.456 379.728 542.316 379.107 543.31 378.724C544.324 378.323 545.423 378.122 546.609 378.122C548.464 378.122 549.965 378.514 551.112 379.298C552.26 380.082 552.958 381.383 553.206 383.199H549.191C548.808 382.224 547.9 381.736 546.466 381.736C545.911 381.736 545.395 381.822 544.917 381.994C544.458 382.147 544.047 382.444 543.683 382.884C543.339 383.304 543.062 383.888 542.851 384.633C542.641 385.379 542.507 386.335 542.45 387.502C542.698 387.119 543.004 386.804 543.368 386.555C543.731 386.287 544.123 386.077 544.544 385.924C544.984 385.752 545.433 385.628 545.892 385.551C546.37 385.475 546.848 385.436 547.326 385.436C549.353 385.436 550.912 385.991 552.002 387.1C553.092 388.19 553.637 389.739 553.637 391.747V392.062C553.637 393.076 553.455 394.003 553.092 394.845C552.728 395.686 552.221 396.413 551.571 397.025C550.94 397.617 550.175 398.076 549.277 398.402C548.378 398.727 547.393 398.889 546.322 398.889ZM546.035 395.275C547.068 395.275 547.871 394.988 548.445 394.414C549.038 393.822 549.334 393.066 549.334 392.148V391.862C549.334 390.944 549.038 390.198 548.445 389.624C547.871 389.051 547.068 388.764 546.035 388.764C545.003 388.764 544.19 389.051 543.597 389.624C543.024 390.198 542.737 390.944 542.737 391.862V392.148C542.737 393.066 543.024 393.822 543.597 394.414C544.19 394.988 545.003 395.275 546.035 395.275ZM564.967 394.3H555.501V391.317L564.967 378.466H569.269V390.743H571.564V394.3H569.269V398.545H564.967V394.3ZM564.967 390.743V383.257L559.517 390.743H564.967Z" fill="black"/>
<rect x="502.932" y="333.342" width="104.135" height="109.408" stroke="#DADADA" stroke-width="2"/>
<rect x="607.066" y="333.342" width="104.135" height="109.408" fill="#F7F7F7"/>
<path d="M650.096 398.889C647.649 398.889 645.794 398.315 644.532 397.168C643.27 396.002 642.639 394.405 642.639 392.378H646.941C646.941 393.353 647.19 394.08 647.687 394.558C648.203 395.036 649.006 395.275 650.096 395.275C651.148 395.275 651.932 395.046 652.449 394.587C652.984 394.109 653.252 393.439 653.252 392.579C653.252 390.781 652.2 389.882 650.096 389.882H648.232V386.555H650.096C651.014 386.555 651.722 386.364 652.219 385.981C652.716 385.599 652.965 385.006 652.965 384.203C652.965 383.476 652.726 382.884 652.248 382.425C651.77 381.966 651.053 381.736 650.096 381.736C649.121 381.736 648.395 381.966 647.916 382.425C647.458 382.865 647.228 383.505 647.228 384.346H642.926C642.926 382.377 643.518 380.847 644.704 379.757C645.909 378.667 647.706 378.122 650.096 378.122C651.301 378.122 652.353 378.266 653.252 378.552C654.15 378.82 654.896 379.203 655.489 379.7C656.082 380.178 656.522 380.751 656.808 381.421C657.114 382.09 657.267 382.817 657.267 383.601C657.267 384.71 656.952 385.656 656.321 386.44C655.709 387.205 654.887 387.75 653.854 388.075C655.04 388.4 655.948 388.965 656.579 389.768C657.229 390.571 657.554 391.632 657.554 392.952C657.554 393.812 657.382 394.606 657.038 395.332C656.694 396.059 656.197 396.69 655.546 397.225C654.915 397.742 654.131 398.153 653.194 398.459C652.276 398.746 651.244 398.889 650.096 398.889ZM659.862 395.418L666.89 389.366C667.54 388.792 668.095 388.295 668.554 387.875C669.012 387.435 669.385 387.033 669.672 386.67C669.959 386.307 670.16 385.953 670.275 385.609C670.408 385.264 670.475 384.891 670.475 384.49C670.475 383.668 670.246 383.008 669.787 382.511C669.328 381.994 668.649 381.736 667.75 381.736C666.718 381.736 665.905 382.023 665.312 382.597C664.739 383.151 664.452 384.117 664.452 385.494H660.149C660.149 383.218 660.79 381.421 662.071 380.101C663.371 378.782 665.264 378.122 667.75 378.122C668.917 378.122 669.93 378.285 670.791 378.61C671.67 378.916 672.407 379.356 672.999 379.929C673.592 380.484 674.032 381.153 674.319 381.937C674.625 382.721 674.778 383.572 674.778 384.49C674.778 385.178 674.654 385.838 674.405 386.469C674.156 387.081 673.812 387.674 673.372 388.247C672.952 388.821 672.454 389.385 671.881 389.94C671.307 390.475 670.695 391.011 670.045 391.546L665.915 394.988H675.065V398.545H659.862V395.418Z" fill="black"/>
<rect x="607.066" y="333.342" width="104.135" height="109.408" stroke="#DADADA" stroke-width="2"/>
<rect x="711.201" y="333.342" width="104.135" height="109.408" fill="#F7F7F7"/>
<path d="M748.06 394.988H752.65V382.826L748.06 386.096V381.908L752.908 378.466H756.952V394.988H760.681V398.545H748.06V394.988ZM770.574 398.889C769.312 398.889 768.193 398.707 767.218 398.344C766.242 397.981 765.42 397.417 764.751 396.652C764.082 395.868 763.565 394.873 763.202 393.669C762.858 392.464 762.686 391.03 762.686 389.366V388.792C762.686 386.88 762.886 385.255 763.288 383.916C763.69 382.559 764.254 381.449 764.98 380.589C765.707 379.728 766.567 379.107 767.562 378.724C768.575 378.323 769.675 378.122 770.86 378.122C772.715 378.122 774.216 378.514 775.364 379.298C776.511 380.082 777.209 381.383 777.458 383.199H773.442C773.06 382.224 772.151 381.736 770.717 381.736C770.162 381.736 769.646 381.822 769.168 381.994C768.709 382.147 768.298 382.444 767.935 382.884C767.591 383.304 767.313 383.888 767.103 384.633C766.893 385.379 766.759 386.335 766.701 387.502C766.95 387.119 767.256 386.804 767.619 386.555C767.983 386.287 768.375 386.077 768.795 385.924C769.235 385.752 769.684 385.628 770.143 385.551C770.621 385.475 771.099 385.436 771.578 385.436C773.605 385.436 775.163 385.991 776.253 387.1C777.343 388.19 777.888 389.739 777.888 391.747V392.062C777.888 393.076 777.706 394.003 777.343 394.845C776.98 395.686 776.473 396.413 775.823 397.025C775.192 397.617 774.427 398.076 773.528 398.402C772.629 398.727 771.644 398.889 770.574 398.889ZM770.287 395.275C771.319 395.275 772.123 394.988 772.696 394.414C773.289 393.822 773.585 393.066 773.585 392.148V391.862C773.585 390.944 773.289 390.198 772.696 389.624C772.123 389.051 771.319 388.764 770.287 388.764C769.254 388.764 768.441 389.051 767.849 389.624C767.275 390.198 766.988 390.944 766.988 391.862V392.148C766.988 393.066 767.275 393.822 767.849 394.414C768.441 394.988 769.254 395.275 770.287 395.275Z" fill="black"/>
<rect x="711.201" y="333.342" width="104.135" height="109.408" stroke="#DADADA" stroke-width="2"/>
<rect x="815.336" y="333.342" width="104.135" height="109.408" fill="#F7F7F7"/>
<path d="M866.94 398.889C865.735 398.889 864.645 398.755 863.67 398.488C862.714 398.201 861.901 397.809 861.232 397.312C860.581 396.795 860.075 396.183 859.711 395.476C859.367 394.749 859.195 393.946 859.195 393.066C859.195 391.938 859.539 390.934 860.228 390.055C860.916 389.156 861.939 388.525 863.297 388.161C862.283 387.836 861.442 387.272 860.773 386.469C860.103 385.666 859.769 384.71 859.769 383.601C859.769 382.798 859.922 382.061 860.228 381.392C860.553 380.723 861.021 380.149 861.633 379.671C862.245 379.174 862.991 378.791 863.871 378.524C864.769 378.256 865.792 378.122 866.94 378.122C868.087 378.122 869.1 378.256 869.98 378.524C870.879 378.791 871.634 379.174 872.246 379.671C872.877 380.149 873.346 380.723 873.652 381.392C873.977 382.061 874.139 382.798 874.139 383.601C874.139 384.71 873.805 385.656 873.135 386.44C872.466 387.205 871.615 387.779 870.582 388.161C873.317 389.003 874.684 390.638 874.684 393.066C874.684 393.946 874.503 394.749 874.139 395.476C873.795 396.183 873.288 396.795 872.619 397.312C871.969 397.809 871.166 398.201 870.21 398.488C869.253 398.755 868.163 398.889 866.94 398.889ZM866.94 395.275C868.125 395.275 868.995 395.046 869.55 394.587C870.104 394.128 870.382 393.506 870.382 392.722C870.382 391.862 870.057 391.183 869.406 390.686C868.775 390.169 867.953 389.835 866.94 389.682C865.926 389.835 865.094 390.169 864.444 390.686C863.813 391.183 863.498 391.862 863.498 392.722C863.498 393.506 863.784 394.128 864.358 394.587C864.932 395.046 865.792 395.275 866.94 395.275ZM866.94 386.756C867.8 386.603 868.498 386.307 869.034 385.867C869.569 385.408 869.837 384.777 869.837 383.974C869.837 383.228 869.579 382.673 869.062 382.31C868.565 381.928 867.858 381.736 866.94 381.736C866.041 381.736 865.333 381.928 864.817 382.31C864.32 382.673 864.071 383.228 864.071 383.974C864.071 384.777 864.329 385.408 864.846 385.867C865.381 386.307 866.079 386.603 866.94 386.756Z" fill="black"/>
<rect x="815.336" y="333.342" width="104.135" height="109.408" stroke="#DADADA" stroke-width="2"/>
<rect x="919.471" y="333.342" width="104.135" height="109.408" fill="#F7F7F7"/>
<path d="M972.078 394.3H962.613V391.317L972.078 378.466H976.381V390.743H978.676V394.3H976.381V398.545H972.078V394.3ZM972.078 390.743V383.257L966.628 390.743H972.078Z" fill="black"/>
<rect x="919.471" y="333.342" width="104.135" height="109.408" stroke="#DADADA" stroke-width="2"/>
<rect x="1023.61" y="333.342" width="104.135" height="109.408" fill="#F7F7F7"/>
<path d="M1067.53 395.418L1074.56 389.366C1075.21 388.792 1075.77 388.295 1076.23 387.875C1076.68 387.435 1077.06 387.033 1077.34 386.67C1077.63 386.307 1077.83 385.953 1077.95 385.609C1078.08 385.264 1078.15 384.891 1078.15 384.49C1078.15 383.668 1077.92 383.008 1077.46 382.511C1077 381.994 1076.32 381.736 1075.42 381.736C1074.39 381.736 1073.58 382.023 1072.98 382.597C1072.41 383.151 1072.12 384.117 1072.12 385.494H1067.82C1067.82 383.218 1068.46 381.421 1069.74 380.101C1071.04 378.782 1072.94 378.122 1075.42 378.122C1076.59 378.122 1077.6 378.285 1078.46 378.61C1079.34 378.916 1080.08 379.356 1080.67 379.929C1081.26 380.484 1081.7 381.153 1081.99 381.937C1082.3 382.721 1082.45 383.572 1082.45 384.49C1082.45 385.178 1082.33 385.838 1082.08 386.469C1081.83 387.081 1081.48 387.674 1081.04 388.247C1080.62 388.821 1080.13 389.385 1079.55 389.94C1078.98 390.475 1078.37 391.011 1077.72 391.546L1073.59 394.988H1082.74V398.545H1067.53V395.418Z" fill="black"/>
<rect x="1023.61" y="333.342" width="104.135" height="109.408" stroke="#DADADA" stroke-width="2"/>
<rect x="1127.74" y="333.342" width="104.135" height="109.408" fill="#F7F7F7"/>
<path d="M1173.6 394.988H1178.19V382.826L1173.6 386.096V381.908L1178.45 378.466H1182.49V394.988H1186.22V398.545H1173.6V394.988Z" fill="black"/>
<rect x="1127.74" y="333.342" width="104.135" height="109.408" stroke="#DADADA" stroke-width="2"/>
<path d="M901.431 150.121V148.621H901.07L900.748 148.785L901.431 150.121ZM1367.69 150.121H1369.19V148.621H1367.69V150.121ZM1367.69 680.867L1376.35 665.867H1359.03L1367.69 680.867ZM767.379 218.607L766.697 219.943L767.379 220.292L768.062 219.943L767.379 218.607ZM901.431 151.621H1367.69V148.621H901.431V151.621ZM1366.19 150.121V667.367H1369.19V150.121H1366.19ZM900.748 148.785L766.697 217.271L768.062 219.943L902.113 151.457L900.748 148.785ZM768.062 217.271L634.011 148.785L632.646 151.457L766.697 219.943L768.062 217.271Z" fill="black"/>
<path d="M443.768 713.641V715.141H442.268V713.641H443.768ZM443.768 555.656L452.428 570.656H435.107L443.768 555.656ZM1275.55 715.141H443.768V712.141H1275.55V715.141ZM442.268 713.641V569.156H445.268V713.641H442.268Z" fill="black"/>
<rect x="1262.33" y="683.959" width="210.727" height="59.3633" fill="#F3F3F3"/>
<path d="M1289.27 720.584H1291.5C1291.79 719.915 1292.03 719.111 1292.22 718.174C1292.41 717.218 1292.57 716.214 1292.68 715.163C1292.8 714.092 1292.88 713.002 1292.94 711.893C1293 710.764 1293.02 709.684 1293.02 708.651V704.062H1307.17V720.584H1309.35V727.87H1305.5V724.141H1293.11V727.87H1289.27V720.584ZM1302.86 720.584V707.619H1297.1V709.225C1297.1 711.845 1296.97 714.054 1296.72 715.851C1296.48 717.649 1296.12 719.226 1295.66 720.584H1302.86ZM1318.67 724.485C1317.64 724.485 1316.65 724.332 1315.72 724.026C1314.8 723.701 1314 723.213 1313.31 722.563C1312.62 721.913 1312.07 721.1 1311.67 720.125C1311.27 719.15 1311.07 718.002 1311.07 716.683V716.109C1311.07 714.866 1311.27 713.776 1311.67 712.839C1312.07 711.902 1312.62 711.118 1313.31 710.487C1314 709.856 1314.8 709.388 1315.72 709.082C1316.65 708.757 1317.64 708.594 1318.67 708.594C1319.7 708.594 1320.68 708.757 1321.6 709.082C1322.51 709.388 1323.32 709.856 1324.01 710.487C1324.71 711.118 1325.27 711.902 1325.67 712.839C1326.07 713.776 1326.27 714.866 1326.27 716.109V716.683C1326.27 717.983 1326.07 719.121 1325.67 720.096C1325.27 721.071 1324.71 721.884 1324.01 722.534C1323.32 723.185 1322.51 723.672 1321.6 723.997C1320.68 724.322 1319.7 724.485 1318.67 724.485ZM1318.67 721.272C1319.74 721.272 1320.63 720.89 1321.34 720.125C1322.07 719.36 1322.43 718.213 1322.43 716.683V716.109C1322.43 714.713 1322.07 713.652 1321.34 712.925C1320.63 712.18 1319.74 711.807 1318.67 711.807C1317.58 711.807 1316.68 712.18 1315.97 712.925C1315.27 713.652 1314.91 714.713 1314.91 716.109V716.683C1314.91 718.232 1315.27 719.389 1315.97 720.154C1316.68 720.899 1317.58 721.272 1318.67 721.272ZM1335.87 724.485C1334.8 724.485 1333.8 724.303 1332.89 723.94C1331.99 723.577 1331.2 723.032 1330.54 722.305C1329.87 721.559 1329.34 720.651 1328.96 719.58C1328.59 718.49 1328.41 717.228 1328.41 715.794V715.134C1328.41 713.413 1328.54 711.883 1328.79 710.545C1329.05 709.206 1329.48 708.068 1330.08 707.131C1330.69 706.194 1331.49 705.468 1332.49 704.951C1333.5 704.416 1334.76 704.11 1336.27 704.033C1336.86 704.014 1337.45 703.995 1338.02 703.976C1338.6 703.957 1339.14 703.928 1339.66 703.89C1340.17 703.852 1340.64 703.794 1341.06 703.718C1341.48 703.622 1341.86 703.498 1342.18 703.345V706.701C1341.87 706.873 1341.3 707.016 1340.46 707.131C1339.64 707.246 1338.38 707.313 1336.7 707.332C1335.84 707.351 1335.1 707.456 1334.46 707.648C1333.85 707.82 1333.34 708.106 1332.92 708.508C1332.51 708.89 1332.19 709.397 1331.94 710.028C1331.71 710.659 1331.55 711.434 1331.45 712.352C1331.89 711.491 1332.55 710.793 1333.43 710.258C1334.31 709.722 1335.46 709.455 1336.87 709.455C1337.83 709.455 1338.7 709.608 1339.48 709.914C1340.27 710.2 1340.95 710.631 1341.52 711.204C1342.09 711.778 1342.53 712.485 1342.84 713.327C1343.17 714.168 1343.33 715.144 1343.33 716.253V716.798C1343.33 718.002 1343.14 719.083 1342.75 720.039C1342.39 720.995 1341.87 721.808 1341.21 722.477C1340.54 723.127 1339.74 723.624 1338.82 723.969C1337.93 724.313 1336.94 724.485 1335.87 724.485ZM1335.87 721.272C1337.02 721.272 1337.91 720.899 1338.54 720.154C1339.17 719.389 1339.48 718.308 1339.48 716.912V716.339C1339.48 715.134 1339.16 714.187 1338.51 713.499C1337.86 712.811 1336.98 712.466 1335.87 712.466C1334.78 712.466 1333.9 712.811 1333.23 713.499C1332.58 714.187 1332.26 715.134 1332.26 716.339V716.855C1332.26 717.543 1332.34 718.165 1332.51 718.719C1332.71 719.274 1332.96 719.742 1333.29 720.125C1333.61 720.488 1334 720.775 1334.44 720.985C1334.88 721.177 1335.35 721.272 1335.87 721.272ZM1350.61 724.485C1349.78 724.485 1349.06 724.37 1348.43 724.141C1347.79 723.892 1347.26 723.557 1346.82 723.137C1346.38 722.697 1346.05 722.19 1345.82 721.616C1345.59 721.024 1345.47 720.383 1345.47 719.695C1345.47 716.635 1347.29 715.105 1350.92 715.105H1355.45V714.388C1355.45 713.394 1355.22 712.696 1354.76 712.294C1354.33 711.893 1353.62 711.692 1352.64 711.692C1351.78 711.692 1351.16 711.845 1350.78 712.151C1350.4 712.438 1350.18 712.801 1350.12 713.241H1346.33C1346.37 712.591 1346.53 711.979 1346.82 711.405C1347.13 710.831 1347.55 710.344 1348.08 709.942C1348.64 709.522 1349.31 709.196 1350.09 708.967C1350.87 708.718 1351.77 708.594 1352.79 708.594C1353.76 708.594 1354.64 708.699 1355.42 708.91C1356.23 709.12 1356.91 709.464 1357.46 709.942C1358.03 710.401 1358.47 711.003 1358.78 711.749C1359.09 712.495 1359.24 713.394 1359.24 714.446V720.268C1359.24 721.071 1359.25 721.779 1359.27 722.391C1359.31 722.984 1359.36 723.567 1359.44 724.141H1355.91C1355.84 723.72 1355.79 723.404 1355.77 723.194C1355.77 722.965 1355.77 722.63 1355.77 722.19C1355.35 722.802 1354.71 723.337 1353.85 723.796C1353.01 724.255 1351.93 724.485 1350.61 724.485ZM1351.78 721.559C1352.24 721.559 1352.69 721.502 1353.13 721.387C1353.57 721.253 1353.96 721.062 1354.31 720.813C1354.65 720.546 1354.93 720.211 1355.14 719.809C1355.35 719.408 1355.45 718.939 1355.45 718.404V717.687H1351.64C1350.91 717.687 1350.34 717.859 1349.92 718.203C1349.52 718.528 1349.31 718.978 1349.31 719.551C1349.31 720.163 1349.53 720.651 1349.95 721.014C1350.37 721.377 1350.98 721.559 1351.78 721.559ZM1362.54 708.938H1370.17C1371.15 708.938 1371.98 709.043 1372.67 709.254C1373.38 709.445 1373.96 709.722 1374.42 710.086C1374.88 710.449 1375.21 710.879 1375.42 711.376C1375.63 711.874 1375.74 712.419 1375.74 713.011C1375.74 713.719 1375.52 714.388 1375.08 715.019C1374.66 715.631 1374.07 716.042 1373.33 716.253C1374.27 716.482 1374.99 716.922 1375.51 717.572C1376.04 718.203 1376.31 718.949 1376.31 719.809C1376.31 721.129 1375.85 722.181 1374.94 722.965C1374.02 723.749 1372.62 724.141 1370.75 724.141H1362.54V708.938ZM1370 721.1C1370.86 721.1 1371.49 720.976 1371.89 720.727C1372.32 720.46 1372.53 720.039 1372.53 719.465C1372.53 718.892 1372.32 718.48 1371.92 718.232C1371.54 717.964 1370.9 717.83 1370 717.83H1366.33V721.1H1370ZM1369.63 715.019C1370.51 715.019 1371.11 714.895 1371.44 714.646C1371.78 714.398 1371.95 714.015 1371.95 713.499C1371.95 713.002 1371.78 712.629 1371.44 712.38C1371.09 712.113 1370.49 711.979 1369.63 711.979H1366.33V715.019H1369.63ZM1379.04 708.938H1382.83V718.691L1389.6 708.938H1393.1V724.141H1389.31V714.388L1382.54 724.141H1379.04V708.938ZM1400.25 712.093H1395.4V708.938H1408.88V712.093H1404.04V724.141H1400.25V712.093ZM1411.17 708.938H1414.96V714.044H1418.2C1422.12 714.044 1424.08 715.727 1424.08 719.092C1424.08 719.838 1423.96 720.526 1423.74 721.158C1423.52 721.769 1423.18 722.295 1422.7 722.735C1422.22 723.175 1421.61 723.519 1420.87 723.768C1420.12 724.016 1419.23 724.141 1418.2 724.141H1411.17V708.938ZM1417.77 721.1C1418.69 721.1 1419.34 720.938 1419.72 720.613C1420.1 720.268 1420.29 719.762 1420.29 719.092C1420.29 718.423 1420.09 717.926 1419.69 717.601C1419.31 717.257 1418.67 717.084 1417.77 717.084H1414.96V721.1H1417.77ZM1433.26 720.584H1437.85V708.422L1433.26 711.692V707.504L1438.11 704.062H1442.15V720.584H1445.88V724.141H1433.26V720.584Z" fill="black"/>
<rect x="1262.33" y="683.959" width="210.727" height="59.3633" stroke="#DADADA" stroke-width="2"/>
<path d="M222.331 372.813H234.3V388.045H232.254V374.597H224.377V388.045H222.331V372.813ZM243.004 388.263C242.264 388.263 241.56 388.146 240.893 387.914C240.226 387.668 239.638 387.305 239.13 386.826C238.623 386.333 238.216 385.717 237.912 384.977C237.607 384.237 237.455 383.374 237.455 382.387V381.952C237.455 381.024 237.607 380.204 237.912 379.493C238.216 378.782 238.623 378.195 239.13 377.731C239.638 377.252 240.226 376.896 240.893 376.664C241.56 376.418 242.264 376.294 243.004 376.294C243.744 376.294 244.447 376.418 245.114 376.664C245.782 376.896 246.369 377.252 246.877 377.731C247.385 378.195 247.791 378.782 248.096 379.493C248.4 380.204 248.553 381.024 248.553 381.952V382.387C248.553 383.374 248.4 384.237 248.096 384.977C247.791 385.717 247.385 386.333 246.877 386.826C246.369 387.305 245.782 387.668 245.114 387.914C244.447 388.146 243.744 388.263 243.004 388.263ZM243.004 386.522C243.439 386.522 243.874 386.449 244.309 386.304C244.745 386.145 245.129 385.905 245.463 385.586C245.796 385.252 246.065 384.824 246.268 384.302C246.485 383.78 246.594 383.142 246.594 382.387V381.952C246.594 381.256 246.485 380.661 246.268 380.168C246.065 379.674 245.796 379.268 245.463 378.949C245.129 378.63 244.745 378.398 244.309 378.253C243.874 378.108 243.439 378.035 243.004 378.035C242.568 378.035 242.133 378.108 241.698 378.253C241.263 378.398 240.878 378.63 240.545 378.949C240.211 379.268 239.935 379.674 239.718 380.168C239.515 380.661 239.413 381.256 239.413 381.952V382.387C239.413 383.142 239.515 383.78 239.718 384.302C239.935 384.824 240.211 385.252 240.545 385.586C240.878 385.905 241.263 386.145 241.698 386.304C242.133 386.449 242.568 386.522 243.004 386.522ZM255.181 388.263C253.73 388.263 252.591 387.958 251.765 387.349C250.938 386.739 250.481 385.883 250.394 384.781H252.309C252.41 385.347 252.708 385.782 253.201 386.086C253.709 386.377 254.369 386.522 255.181 386.522C256.182 386.522 256.907 386.355 257.357 386.021C257.821 385.673 258.053 385.26 258.053 384.781C258.053 384.215 257.865 383.773 257.488 383.453C257.11 383.12 256.458 382.953 255.529 382.953H253.549V381.386H255.399C256.196 381.386 256.762 381.234 257.096 380.929C257.444 380.625 257.618 380.197 257.618 379.645C257.618 379.21 257.415 378.833 257.009 378.514C256.603 378.195 255.993 378.035 255.181 378.035C254.296 378.035 253.65 378.18 253.244 378.47C252.853 378.746 252.613 379.145 252.526 379.667H250.611C250.655 379.188 250.785 378.746 251.003 378.34C251.235 377.919 251.547 377.556 251.939 377.252C252.33 376.947 252.795 376.715 253.331 376.555C253.883 376.381 254.499 376.294 255.181 376.294C255.921 376.294 256.559 376.381 257.096 376.555C257.647 376.715 258.104 376.947 258.467 377.252C258.829 377.542 259.098 377.89 259.272 378.296C259.446 378.702 259.533 379.152 259.533 379.645C259.533 380.197 259.395 380.683 259.12 381.103C258.844 381.51 258.402 381.829 257.792 382.061C258.605 382.278 259.17 382.627 259.49 383.105C259.809 383.584 259.968 384.143 259.968 384.781C259.968 385.26 259.867 385.709 259.664 386.13C259.461 386.551 259.156 386.921 258.75 387.24C258.358 387.544 257.857 387.791 257.248 387.98C256.653 388.168 255.964 388.263 255.181 388.263ZM262.697 376.512H264.612V385.216L270.574 376.512H272.489V388.045H270.574V379.341L264.612 388.045H262.697V376.512ZM285.357 388.045H275.978V376.512H277.893V386.348H283.42V376.512H285.335V386.348H287.185V390.765H285.357V388.045ZM289.472 376.512H291.387V385.216L297.349 376.512H299.264V388.045H297.349V379.341L291.387 388.045H289.472V376.512ZM307.541 388.263C306.801 388.263 306.098 388.146 305.43 387.914C304.763 387.668 304.175 387.305 303.668 386.826C303.16 386.333 302.754 385.717 302.449 384.977C302.144 384.237 301.992 383.374 301.992 382.387V381.952C301.992 381.024 302.144 380.204 302.449 379.493C302.754 378.782 303.16 378.195 303.668 377.731C304.175 377.252 304.763 376.896 305.43 376.664C306.098 376.418 306.801 376.294 307.541 376.294C308.281 376.294 308.984 376.418 309.652 376.664C310.319 376.896 310.907 377.252 311.414 377.731C311.922 378.195 312.328 378.782 312.633 379.493C312.938 380.204 313.09 381.024 313.09 381.952V382.387C313.09 383.374 312.938 384.237 312.633 384.977C312.328 385.717 311.922 386.333 311.414 386.826C310.907 387.305 310.319 387.668 309.652 387.914C308.984 388.146 308.281 388.263 307.541 388.263ZM307.541 386.522C307.976 386.522 308.411 386.449 308.847 386.304C309.282 386.145 309.666 385.905 310 385.586C310.334 385.252 310.602 384.824 310.805 384.302C311.023 383.78 311.131 383.142 311.131 382.387V381.952C311.131 381.256 311.023 380.661 310.805 380.168C310.602 379.674 310.334 379.268 310 378.949C309.666 378.63 309.282 378.398 308.847 378.253C308.411 378.108 307.976 378.035 307.541 378.035C307.106 378.035 306.671 378.108 306.235 378.253C305.8 378.398 305.416 378.63 305.082 378.949C304.748 379.268 304.473 379.674 304.255 380.168C304.052 380.661 303.951 381.256 303.951 381.952V382.387C303.951 383.142 304.052 383.78 304.255 384.302C304.473 384.824 304.748 385.252 305.082 385.586C305.416 385.905 305.8 386.145 306.235 386.304C306.671 386.449 307.106 386.522 307.541 386.522ZM315.801 376.512H317.716V381.321H323.679V376.512H325.594V388.045H323.679V383.018H317.716V388.045H315.801V376.512ZM329.083 376.512H330.998V381.321H336.96V376.512H338.875V388.045H336.96V383.018H330.998V388.045H329.083V376.512ZM347.152 388.263C346.412 388.263 345.708 388.146 345.041 387.914C344.374 387.668 343.786 387.305 343.278 386.826C342.771 386.333 342.364 385.717 342.06 384.977C341.755 384.237 341.603 383.374 341.603 382.387V381.952C341.603 381.024 341.755 380.204 342.06 379.493C342.364 378.782 342.771 378.195 343.278 377.731C343.786 377.252 344.374 376.896 345.041 376.664C345.708 376.418 346.412 376.294 347.152 376.294C347.891 376.294 348.595 376.418 349.262 376.664C349.93 376.896 350.517 377.252 351.025 377.731C351.533 378.195 351.939 378.782 352.244 379.493C352.548 380.204 352.7 381.024 352.7 381.952V382.387C352.7 383.374 352.548 384.237 352.244 384.977C351.939 385.717 351.533 386.333 351.025 386.826C350.517 387.305 349.93 387.668 349.262 387.914C348.595 388.146 347.891 388.263 347.152 388.263ZM347.152 386.522C347.587 386.522 348.022 386.449 348.457 386.304C348.892 386.145 349.277 385.905 349.611 385.586C349.944 385.252 350.213 384.824 350.416 384.302C350.633 383.78 350.742 383.142 350.742 382.387V381.952C350.742 381.256 350.633 380.661 350.416 380.168C350.213 379.674 349.944 379.268 349.611 378.949C349.277 378.63 348.892 378.398 348.457 378.253C348.022 378.108 347.587 378.035 347.152 378.035C346.716 378.035 346.281 378.108 345.846 378.253C345.411 378.398 345.026 378.63 344.693 378.949C344.359 379.268 344.083 379.674 343.866 380.168C343.663 380.661 343.561 381.256 343.561 381.952V382.387C343.561 383.142 343.663 383.78 343.866 384.302C344.083 384.824 344.359 385.252 344.693 385.586C345.026 385.905 345.411 386.145 345.846 386.304C346.281 386.449 346.716 386.522 347.152 386.522ZM360.199 388.263C359.459 388.263 358.756 388.146 358.089 387.914C357.421 387.682 356.834 387.327 356.326 386.848C355.818 386.355 355.412 385.738 355.107 384.998C354.803 384.259 354.65 383.388 354.65 382.387V381.952C354.65 380.995 354.795 380.168 355.086 379.471C355.376 378.761 355.76 378.173 356.239 377.709C356.732 377.23 357.298 376.875 357.936 376.642C358.589 376.41 359.271 376.294 359.982 376.294C361.679 376.294 362.992 376.759 363.92 377.687C364.849 378.615 365.313 379.928 365.313 381.626V382.844H356.565C356.565 383.526 356.674 384.099 356.892 384.563C357.109 385.027 357.392 385.405 357.74 385.695C358.089 385.985 358.473 386.195 358.894 386.326C359.329 386.456 359.764 386.522 360.199 386.522C361.07 386.522 361.737 386.377 362.201 386.086C362.68 385.796 363.021 385.397 363.224 384.89H365.095C364.979 385.441 364.769 385.927 364.464 386.348C364.174 386.768 363.812 387.124 363.376 387.414C362.956 387.69 362.47 387.9 361.918 388.045C361.382 388.19 360.809 388.263 360.199 388.263ZM360.091 378.035C359.641 378.035 359.206 378.1 358.785 378.231C358.364 378.347 357.987 378.543 357.653 378.819C357.334 379.08 357.073 379.413 356.87 379.82C356.667 380.226 356.565 380.712 356.565 381.277H363.507C363.492 380.683 363.391 380.182 363.202 379.776C363.028 379.355 362.789 379.022 362.484 378.775C362.18 378.514 361.817 378.325 361.396 378.209C360.99 378.093 360.555 378.035 360.091 378.035ZM248.434 412.263C246.983 412.263 245.845 411.958 245.018 411.349C244.191 410.739 243.734 409.883 243.647 408.781H245.562C245.663 409.347 245.961 409.782 246.454 410.086C246.962 410.377 247.622 410.522 248.434 410.522C249.435 410.522 250.16 410.355 250.61 410.021C251.074 409.673 251.306 409.26 251.306 408.781C251.306 408.215 251.118 407.773 250.741 407.453C250.363 407.12 249.711 406.953 248.782 406.953H246.802V405.386H248.652C249.449 405.386 250.015 405.234 250.349 404.929C250.697 404.625 250.871 404.197 250.871 403.645C250.871 403.21 250.668 402.833 250.262 402.514C249.856 402.195 249.246 402.035 248.434 402.035C247.549 402.035 246.904 402.18 246.497 402.47C246.106 402.746 245.866 403.145 245.779 403.667H243.864C243.908 403.188 244.038 402.746 244.256 402.34C244.488 401.919 244.8 401.556 245.192 401.252C245.583 400.947 246.048 400.715 246.584 400.555C247.136 400.381 247.752 400.294 248.434 400.294C249.174 400.294 249.812 400.381 250.349 400.555C250.9 400.715 251.357 400.947 251.72 401.252C252.082 401.542 252.351 401.89 252.525 402.296C252.699 402.702 252.786 403.152 252.786 403.645C252.786 404.197 252.648 404.683 252.373 405.103C252.097 405.51 251.655 405.829 251.045 406.061C251.858 406.278 252.423 406.627 252.743 407.105C253.062 407.584 253.221 408.143 253.221 408.781C253.221 409.26 253.12 409.709 252.917 410.13C252.714 410.551 252.409 410.921 252.003 411.24C251.611 411.544 251.111 411.791 250.501 411.98C249.906 412.168 249.217 412.263 248.434 412.263ZM255.95 400.512H257.865V405.321H263.827V400.512H265.742V412.045H263.827V407.018H257.865V412.045H255.95V400.512ZM272.517 412.263C271.879 412.263 271.313 412.175 270.82 412.001C270.341 411.813 269.935 411.559 269.601 411.24C269.268 410.921 269.014 410.543 268.84 410.108C268.666 409.673 268.578 409.194 268.578 408.672C268.578 407.526 268.912 406.699 269.579 406.191C270.261 405.684 271.233 405.43 272.495 405.43H276.238V404.646C276.238 403.66 276.013 402.978 275.564 402.601C275.128 402.224 274.468 402.035 273.583 402.035C272.756 402.035 272.154 402.195 271.777 402.514C271.4 402.819 271.19 403.167 271.146 403.558H269.231C269.26 403.094 269.384 402.666 269.601 402.275C269.833 401.868 270.138 401.52 270.515 401.23C270.907 400.94 271.371 400.715 271.908 400.555C272.445 400.381 273.039 400.294 273.692 400.294C275.056 400.294 276.137 400.621 276.934 401.274C277.747 401.912 278.153 402.964 278.153 404.429V409.107C278.153 409.717 278.153 410.253 278.153 410.718C278.168 411.167 278.204 411.61 278.262 412.045H276.586C276.543 411.711 276.514 411.399 276.499 411.109C276.485 410.805 276.477 410.464 276.477 410.086C276.173 410.696 275.68 411.211 274.998 411.631C274.316 412.052 273.489 412.263 272.517 412.263ZM272.931 410.522C273.38 410.522 273.801 410.464 274.193 410.348C274.599 410.217 274.954 410.036 275.259 409.804C275.564 409.557 275.803 409.26 275.977 408.911C276.151 408.563 276.238 408.157 276.238 407.693V406.909H272.822C272.111 406.909 271.552 407.055 271.146 407.345C270.74 407.62 270.537 408.063 270.537 408.672C270.537 409.209 270.725 409.651 271.103 409.999C271.494 410.348 272.104 410.522 272.931 410.522ZM288.216 407.453C287.882 407.657 287.476 407.838 286.997 407.997C286.533 408.157 285.945 408.237 285.234 408.237C284.567 408.237 283.965 408.164 283.428 408.019C282.906 407.874 282.464 407.642 282.101 407.323C281.738 407.004 281.463 406.59 281.274 406.083C281.086 405.575 280.991 404.951 280.991 404.211V400.512H282.906V403.885C282.906 404.378 282.95 404.791 283.037 405.125C283.138 405.459 283.298 405.727 283.515 405.93C283.733 406.133 284.009 406.278 284.342 406.365C284.676 406.453 285.082 406.496 285.561 406.496C286.214 406.496 286.772 406.431 287.236 406.3C287.701 406.17 288.027 406.032 288.216 405.887V400.512H290.131V412.045H288.216V407.453ZM298.393 412.263C297.653 412.263 296.949 412.146 296.282 411.914C295.615 411.682 295.027 411.327 294.519 410.848C294.012 410.355 293.605 409.738 293.301 408.998C292.996 408.259 292.844 407.388 292.844 406.387V405.952C292.844 404.995 292.989 404.168 293.279 403.471C293.569 402.761 293.954 402.173 294.432 401.709C294.926 401.23 295.491 400.875 296.13 400.642C296.782 400.41 297.464 400.294 298.175 400.294C299.872 400.294 301.185 400.759 302.114 401.687C303.042 402.615 303.506 403.928 303.506 405.626V406.844H294.759C294.759 407.526 294.868 408.099 295.085 408.563C295.303 409.027 295.586 409.405 295.934 409.695C296.282 409.985 296.666 410.195 297.087 410.326C297.522 410.456 297.957 410.522 298.393 410.522C299.263 410.522 299.93 410.377 300.395 410.086C300.873 409.796 301.214 409.397 301.417 408.89H303.289C303.173 409.441 302.962 409.927 302.658 410.348C302.368 410.768 302.005 411.124 301.57 411.414C301.149 411.69 300.663 411.9 300.112 412.045C299.575 412.19 299.002 412.263 298.393 412.263ZM298.284 402.035C297.834 402.035 297.399 402.1 296.978 402.231C296.558 402.347 296.18 402.543 295.847 402.819C295.528 403.08 295.266 403.413 295.063 403.82C294.86 404.226 294.759 404.712 294.759 405.277H301.7C301.686 404.683 301.584 404.182 301.396 403.776C301.222 403.355 300.982 403.022 300.678 402.775C300.373 402.514 300.01 402.325 299.59 402.209C299.183 402.093 298.748 402.035 298.284 402.035ZM306.228 400.512H308.143V405.321H314.105V400.512H316.02V412.045H314.105V407.018H308.143V412.045H306.228V400.512ZM319.51 400.512H321.424V409.216L327.387 400.512H329.302V412.045H327.387V403.341L321.424 412.045H319.51V400.512ZM337.578 412.263C336.838 412.263 336.135 412.146 335.468 411.914C334.8 411.682 334.213 411.327 333.705 410.848C333.197 410.355 332.791 409.738 332.486 408.998C332.182 408.259 332.029 407.388 332.029 406.387V405.952C332.029 404.995 332.175 404.168 332.465 403.471C332.755 402.761 333.139 402.173 333.618 401.709C334.111 401.23 334.677 400.875 335.315 400.642C335.968 400.41 336.65 400.294 337.361 400.294C339.058 400.294 340.371 400.759 341.299 401.687C342.228 402.615 342.692 403.928 342.692 405.626V406.844H333.944C333.944 407.526 334.053 408.099 334.271 408.563C334.488 409.027 334.771 409.405 335.119 409.695C335.468 409.985 335.852 410.195 336.273 410.326C336.708 410.456 337.143 410.522 337.578 410.522C338.449 410.522 339.116 410.377 339.58 410.086C340.059 409.796 340.4 409.397 340.603 408.89H342.474C342.358 409.441 342.148 409.927 341.843 410.348C341.553 410.768 341.191 411.124 340.755 411.414C340.335 411.69 339.849 411.9 339.297 412.045C338.761 412.19 338.188 412.263 337.578 412.263ZM337.47 402.035C337.02 402.035 336.585 402.1 336.164 402.231C335.743 402.347 335.366 402.543 335.032 402.819C334.713 403.08 334.452 403.413 334.249 403.82C334.046 404.226 333.944 404.712 333.944 405.277H340.886C340.871 404.683 340.77 404.182 340.581 403.776C340.407 403.355 340.168 403.022 339.863 402.775C339.559 402.514 339.196 402.325 338.775 402.209C338.369 402.093 337.934 402.035 337.47 402.035Z" fill="black"/>
<path d="M942.613 123.875H944.85C945.137 123.206 945.376 122.402 945.567 121.465C945.758 120.509 945.911 119.505 946.026 118.454C946.141 117.383 946.227 116.293 946.284 115.184C946.342 114.055 946.37 112.975 946.37 111.942V107.353H960.511V123.875H962.691V131.161H958.848V127.432H946.456V131.161H942.613V123.875ZM956.209 123.875V110.91H950.443V112.516C950.443 115.136 950.319 117.345 950.07 119.142C949.822 120.94 949.468 122.517 949.009 123.875H956.209ZM969.834 127.776C969.011 127.776 968.285 127.661 967.654 127.432C967.023 127.183 966.487 126.848 966.047 126.428C965.607 125.988 965.273 125.481 965.043 124.907C964.814 124.315 964.699 123.674 964.699 122.986C964.699 119.926 966.516 118.396 970.149 118.396H974.681V117.679C974.681 116.685 974.452 115.987 973.993 115.585C973.553 115.184 972.845 114.983 971.87 114.983C971.01 114.983 970.388 115.136 970.006 115.442C969.623 115.729 969.403 116.092 969.346 116.532H965.56C965.598 115.882 965.76 115.27 966.047 114.696C966.353 114.122 966.774 113.635 967.309 113.233C967.864 112.813 968.533 112.487 969.317 112.258C970.101 112.009 971 111.885 972.014 111.885C972.989 111.885 973.868 111.99 974.652 112.201C975.456 112.411 976.134 112.755 976.689 113.233C977.263 113.692 977.702 114.295 978.008 115.04C978.314 115.786 978.467 116.685 978.467 117.737V123.559C978.467 124.362 978.477 125.07 978.496 125.682C978.534 126.275 978.592 126.858 978.668 127.432H975.14C975.064 127.011 975.016 126.695 974.997 126.485C974.997 126.256 974.997 125.921 974.997 125.481C974.576 126.093 973.935 126.628 973.075 127.087C972.233 127.546 971.153 127.776 969.834 127.776ZM971.01 124.85C971.469 124.85 971.918 124.793 972.358 124.678C972.798 124.544 973.19 124.353 973.534 124.104C973.878 123.837 974.155 123.502 974.366 123.1C974.576 122.699 974.681 122.23 974.681 121.695V120.978H970.866C970.14 120.978 969.566 121.15 969.145 121.494C968.744 121.819 968.543 122.269 968.543 122.842C968.543 123.454 968.753 123.942 969.174 124.305C969.595 124.668 970.206 124.85 971.01 124.85Z" fill="black"/>
<path d="M690.418 123.875H695.008V111.713L690.418 114.983V110.795L695.266 107.353H699.31V123.875H703.039V127.432H690.418V123.875ZM712.932 127.776C711.67 127.776 710.551 127.594 709.576 127.231C708.6 126.868 707.778 126.303 707.109 125.539C706.44 124.754 705.923 123.76 705.56 122.555C705.216 121.351 705.044 119.917 705.044 118.253V117.679C705.044 115.767 705.244 114.142 705.646 112.803C706.048 111.445 706.612 110.336 707.338 109.476C708.065 108.615 708.925 107.994 709.92 107.611C710.933 107.21 712.033 107.009 713.218 107.009C715.073 107.009 716.574 107.401 717.722 108.185C718.869 108.969 719.567 110.269 719.816 112.086H715.8C715.418 111.111 714.509 110.623 713.075 110.623C712.52 110.623 712.004 110.709 711.526 110.881C711.067 111.034 710.656 111.331 710.293 111.77C709.949 112.191 709.671 112.774 709.461 113.52C709.251 114.266 709.117 115.222 709.059 116.388C709.308 116.006 709.614 115.69 709.977 115.442C710.341 115.174 710.733 114.964 711.153 114.811C711.593 114.639 712.042 114.514 712.501 114.438C712.979 114.361 713.457 114.323 713.936 114.323C715.963 114.323 717.521 114.878 718.611 115.987C719.701 117.077 720.246 118.626 720.246 120.634V120.949C720.246 121.963 720.064 122.89 719.701 123.731C719.338 124.573 718.831 125.299 718.181 125.911C717.55 126.504 716.785 126.963 715.886 127.288C714.987 127.613 714.002 127.776 712.932 127.776ZM712.645 124.162C713.677 124.162 714.481 123.875 715.054 123.301C715.647 122.708 715.943 121.953 715.943 121.035V120.748C715.943 119.83 715.647 119.085 715.054 118.511C714.481 117.937 713.677 117.651 712.645 117.651C711.612 117.651 710.799 117.937 710.207 118.511C709.633 119.085 709.346 119.83 709.346 120.748V121.035C709.346 121.953 709.633 122.708 710.207 123.301C710.799 123.875 711.612 124.162 712.645 124.162ZM730.572 127.776C729.367 127.776 728.277 127.642 727.302 127.374C726.346 127.087 725.533 126.695 724.864 126.198C724.214 125.682 723.707 125.07 723.344 124.362C723 123.636 722.827 122.833 722.827 121.953C722.827 120.825 723.172 119.821 723.86 118.941C724.549 118.043 725.572 117.411 726.929 117.048C725.916 116.723 725.074 116.159 724.405 115.356C723.736 114.553 723.401 113.597 723.401 112.487C723.401 111.684 723.554 110.948 723.86 110.279C724.185 109.61 724.654 109.036 725.266 108.558C725.878 108.061 726.623 107.678 727.503 107.41C728.402 107.143 729.425 107.009 730.572 107.009C731.719 107.009 732.733 107.143 733.613 107.41C734.511 107.678 735.267 108.061 735.879 108.558C736.51 109.036 736.978 109.61 737.284 110.279C737.609 110.948 737.772 111.684 737.772 112.487C737.772 113.597 737.437 114.543 736.768 115.327C736.098 116.092 735.248 116.666 734.215 117.048C736.949 117.89 738.317 119.525 738.317 121.953C738.317 122.833 738.135 123.636 737.772 124.362C737.427 125.07 736.921 125.682 736.251 126.198C735.601 126.695 734.798 127.087 733.842 127.374C732.886 127.642 731.796 127.776 730.572 127.776ZM730.572 124.162C731.758 124.162 732.628 123.932 733.182 123.473C733.737 123.014 734.014 122.393 734.014 121.609C734.014 120.748 733.689 120.069 733.039 119.572C732.408 119.056 731.586 118.721 730.572 118.568C729.559 118.721 728.727 119.056 728.077 119.572C727.446 120.069 727.13 120.748 727.13 121.609C727.13 122.393 727.417 123.014 727.991 123.473C728.564 123.932 729.425 124.162 730.572 124.162ZM730.572 115.643C731.433 115.49 732.131 115.193 732.666 114.753C733.201 114.295 733.469 113.663 733.469 112.86C733.469 112.115 733.211 111.56 732.695 111.197C732.198 110.814 731.49 110.623 730.572 110.623C729.673 110.623 728.966 110.814 728.45 111.197C727.952 111.56 727.704 112.115 727.704 112.86C727.704 113.663 727.962 114.295 728.478 114.753C729.014 115.193 729.712 115.49 730.572 115.643ZM761.977 115.528V118.683L747.922 124.85V120.748L756.958 117.163L747.922 113.577V109.361L761.977 115.528ZM764.281 118.769H778.336V122.326H764.281V118.769ZM764.281 111.885H778.336V115.442H764.281V111.885ZM787.954 123.875H792.543V111.713L787.954 114.983V110.795L792.802 107.353H796.846V123.875H800.575V127.432H787.954V123.875ZM802.006 124.305L809.033 118.253C809.683 117.679 810.238 117.182 810.697 116.761C811.156 116.321 811.529 115.92 811.815 115.557C812.102 115.193 812.303 114.84 812.418 114.495C812.552 114.151 812.619 113.778 812.619 113.377C812.619 112.554 812.389 111.895 811.93 111.397C811.471 110.881 810.792 110.623 809.894 110.623C808.861 110.623 808.048 110.91 807.456 111.484C806.882 112.038 806.595 113.004 806.595 114.381H802.293C802.293 112.105 802.933 110.307 804.214 108.988C805.515 107.669 807.408 107.009 809.894 107.009C811.06 107.009 812.074 107.171 812.934 107.496C813.814 107.802 814.55 108.242 815.143 108.816C815.736 109.37 816.175 110.04 816.462 110.824C816.768 111.608 816.921 112.459 816.921 113.377C816.921 114.065 816.797 114.725 816.548 115.356C816.3 115.968 815.956 116.561 815.516 117.134C815.095 117.708 814.598 118.272 814.024 118.827C813.45 119.362 812.839 119.897 812.188 120.433L808.058 123.875H817.208V127.432H802.006V124.305ZM827.38 127.776C826.175 127.776 825.085 127.642 824.11 127.374C823.153 127.087 822.341 126.695 821.671 126.198C821.021 125.682 820.515 125.07 820.151 124.362C819.807 123.636 819.635 122.833 819.635 121.953C819.635 120.825 819.979 119.821 820.668 118.941C821.356 118.043 822.379 117.411 823.737 117.048C822.723 116.723 821.882 116.159 821.213 115.356C820.543 114.553 820.209 113.597 820.209 112.487C820.209 111.684 820.362 110.948 820.668 110.279C820.993 109.61 821.461 109.036 822.073 108.558C822.685 108.061 823.431 107.678 824.31 107.41C825.209 107.143 826.232 107.009 827.38 107.009C828.527 107.009 829.54 107.143 830.42 107.41C831.319 107.678 832.074 108.061 832.686 108.558C833.317 109.036 833.786 109.61 834.092 110.279C834.417 110.948 834.579 111.684 834.579 112.487C834.579 113.597 834.245 114.543 833.575 115.327C832.906 116.092 832.055 116.666 831.022 117.048C833.757 117.89 835.124 119.525 835.124 121.953C835.124 122.833 834.942 123.636 834.579 124.362C834.235 125.07 833.728 125.682 833.059 126.198C832.409 126.695 831.606 127.087 830.649 127.374C829.693 127.642 828.603 127.776 827.38 127.776ZM827.38 124.162C828.565 124.162 829.435 123.932 829.99 123.473C830.544 123.014 830.822 122.393 830.822 121.609C830.822 120.748 830.497 120.069 829.846 119.572C829.215 119.056 828.393 118.721 827.38 118.568C826.366 118.721 825.534 119.056 824.884 119.572C824.253 120.069 823.937 120.748 823.937 121.609C823.937 122.393 824.224 123.014 824.798 123.473C825.372 123.932 826.232 124.162 827.38 124.162ZM827.38 115.643C828.24 115.49 828.938 115.193 829.473 114.753C830.009 114.295 830.277 113.663 830.277 112.86C830.277 112.115 830.018 111.56 829.502 111.197C829.005 110.814 828.297 110.623 827.38 110.623C826.481 110.623 825.773 110.814 825.257 111.197C824.76 111.56 824.511 112.115 824.511 112.86C824.511 113.663 824.769 114.295 825.286 114.753C825.821 115.193 826.519 115.49 827.38 115.643Z" fill="black"/>
<rect x="398.797" y="333.342" width="833.223" height="111.155" stroke="#D0643B" stroke-width="6"/>
<path d="M294.13 107.921H311.053V128H306.751V111.478H298.432V128H294.13V107.921ZM315.069 112.798H318.597V115.035C318.98 114.347 319.582 113.744 320.404 113.228C321.226 112.712 322.269 112.453 323.531 112.453C325.558 112.453 327.135 113.084 328.263 114.347C329.411 115.59 329.984 117.464 329.984 119.969V120.542C329.984 123.162 329.401 125.122 328.235 126.422C327.087 127.704 325.519 128.344 323.531 128.344C322.498 128.344 321.58 128.124 320.777 127.684C319.993 127.226 319.352 126.633 318.855 125.906V133.737H315.069V112.798ZM322.641 125.132C323.636 125.132 324.468 124.759 325.137 124.013C325.806 123.248 326.141 122.091 326.141 120.542V119.969C326.141 118.534 325.816 117.464 325.166 116.756C324.515 116.029 323.674 115.666 322.641 115.666C321.551 115.666 320.643 115.982 319.917 116.613C319.209 117.224 318.855 118.152 318.855 119.395V121.116C318.855 122.474 319.199 123.487 319.888 124.156C320.595 124.807 321.513 125.132 322.641 125.132ZM332.716 112.798H336.502V122.55L343.272 112.798H346.771V128H342.985V118.248L336.216 128H332.716V112.798ZM350.223 112.798H354.698L358.914 121.001L363.131 112.798H367.434V128H363.819V118.104L360.119 124.988H357.538L353.837 118.104V128H350.223V112.798ZM377.752 128.344C376.719 128.344 375.734 128.191 374.797 127.885C373.879 127.56 373.076 127.082 372.388 126.451C371.7 125.801 371.155 124.988 370.753 124.013C370.351 123.019 370.151 121.862 370.151 120.542V119.969C370.151 118.706 370.342 117.607 370.724 116.67C371.107 115.733 371.633 114.958 372.302 114.347C372.971 113.716 373.746 113.247 374.625 112.941C375.505 112.616 376.451 112.453 377.465 112.453C379.855 112.453 381.672 113.084 382.915 114.347C384.158 115.609 384.779 117.435 384.779 119.825V121.431H374.023C374.042 122.101 374.157 122.684 374.367 123.181C374.577 123.659 374.855 124.051 375.199 124.357C375.543 124.663 375.935 124.893 376.375 125.046C376.834 125.179 377.293 125.246 377.752 125.246C378.727 125.246 379.463 125.103 379.96 124.816C380.458 124.529 380.811 124.109 381.022 123.554H384.492C384.186 125.141 383.431 126.336 382.226 127.139C381.022 127.943 379.53 128.344 377.752 128.344ZM377.608 115.551C377.169 115.551 376.729 115.609 376.289 115.723C375.868 115.838 375.495 116.02 375.17 116.268C374.845 116.517 374.577 116.852 374.367 117.272C374.157 117.693 374.042 118.2 374.023 118.793H381.108C381.089 118.161 380.983 117.636 380.792 117.215C380.62 116.794 380.372 116.46 380.046 116.211C379.741 115.962 379.377 115.79 378.956 115.695C378.536 115.599 378.086 115.551 377.608 115.551ZM387.506 112.798H391.035V115.035C391.417 114.347 392.019 113.744 392.842 113.228C393.664 112.712 394.706 112.453 395.968 112.453C397.995 112.453 399.573 113.084 400.701 114.347C401.848 115.59 402.422 117.464 402.422 119.969V120.542C402.422 123.162 401.839 125.122 400.672 126.422C399.525 127.704 397.957 128.344 395.968 128.344C394.936 128.344 394.018 128.124 393.215 127.684C392.431 127.226 391.79 126.633 391.293 125.906V133.737H387.506V112.798ZM395.079 125.132C396.073 125.132 396.905 124.759 397.574 124.013C398.244 123.248 398.578 122.091 398.578 120.542V119.969C398.578 118.534 398.253 117.464 397.603 116.756C396.953 116.029 396.112 115.666 395.079 115.666C393.989 115.666 393.081 115.982 392.354 116.613C391.646 117.224 391.293 118.152 391.293 119.395V121.116C391.293 122.474 391.637 123.487 392.325 124.156C393.033 124.807 393.951 125.132 395.079 125.132ZM407.879 128.344C407.209 128.344 406.636 128.105 406.158 127.627C405.68 127.149 405.441 126.575 405.441 125.906C405.441 125.199 405.68 124.615 406.158 124.156C406.636 123.697 407.209 123.468 407.879 123.468C408.548 123.468 409.122 123.697 409.6 124.156C410.078 124.615 410.317 125.199 410.317 125.906C410.317 126.575 410.078 127.149 409.6 127.627C409.122 128.105 408.548 128.344 407.879 128.344ZM407.879 117.33C407.209 117.33 406.636 117.091 406.158 116.613C405.68 116.135 405.441 115.561 405.441 114.892C405.441 114.184 405.68 113.601 406.158 113.142C406.636 112.683 407.209 112.453 407.879 112.453C408.548 112.453 409.122 112.683 409.6 113.142C410.078 113.601 410.317 114.184 410.317 114.892C410.317 115.561 410.078 116.135 409.6 116.613C409.122 117.091 408.548 117.33 407.879 117.33ZM420.774 124.443H425.363V112.281L420.774 115.551V111.363L425.621 107.921H429.666V124.443H433.395V128H420.774V124.443ZM442.427 128.344C440.515 128.344 438.975 127.933 437.809 127.111C436.642 126.289 435.935 125.007 435.686 123.267H439.702C439.893 123.764 440.199 124.137 440.62 124.386C441.06 124.615 441.71 124.73 442.57 124.73C443.087 124.73 443.565 124.654 444.004 124.501C444.463 124.328 444.865 124.032 445.209 123.611C445.553 123.172 445.831 122.579 446.041 121.833C446.251 121.087 446.385 120.131 446.442 118.965C446.194 119.347 445.888 119.672 445.525 119.94C445.161 120.188 444.76 120.399 444.32 120.571C443.899 120.724 443.45 120.839 442.972 120.915C442.513 120.992 442.044 121.03 441.566 121.03C439.539 121.03 437.981 120.485 436.891 119.395C435.801 118.286 435.256 116.727 435.256 114.719V114.404C435.256 113.39 435.438 112.463 435.801 111.622C436.164 110.78 436.661 110.063 437.292 109.47C437.943 108.858 438.717 108.39 439.616 108.065C440.515 107.74 441.499 107.577 442.57 107.577C445.113 107.577 447.064 108.323 448.422 109.815C449.779 111.306 450.458 113.735 450.458 117.1V117.645C450.458 119.577 450.257 121.221 449.856 122.579C449.454 123.917 448.89 125.017 448.164 125.877C447.456 126.738 446.605 127.369 445.611 127.771C444.635 128.153 443.574 128.344 442.427 128.344ZM442.857 117.703C443.89 117.703 444.693 117.416 445.266 116.842C445.859 116.268 446.156 115.523 446.156 114.605V114.318C446.156 113.419 445.85 112.673 445.238 112.081C444.645 111.488 443.851 111.191 442.857 111.191C441.824 111.191 441.012 111.488 440.419 112.081C439.845 112.654 439.558 113.4 439.558 114.318V114.605C439.558 115.523 439.845 116.268 440.419 116.842C441.012 117.416 441.824 117.703 442.857 117.703ZM452.753 124.873L459.78 118.821C460.431 118.248 460.985 117.75 461.444 117.33C461.903 116.89 462.276 116.488 462.563 116.125C462.85 115.762 463.05 115.408 463.165 115.064C463.299 114.719 463.366 114.347 463.366 113.945C463.366 113.123 463.136 112.463 462.677 111.966C462.219 111.45 461.54 111.191 460.641 111.191C459.608 111.191 458.796 111.478 458.203 112.052C457.629 112.606 457.342 113.572 457.342 114.949H453.04C453.04 112.673 453.68 110.876 454.962 109.556C456.262 108.237 458.155 107.577 460.641 107.577C461.807 107.577 462.821 107.74 463.681 108.065C464.561 108.371 465.297 108.811 465.89 109.384C466.483 109.939 466.923 110.608 467.209 111.392C467.515 112.176 467.668 113.027 467.668 113.945C467.668 114.633 467.544 115.293 467.296 115.924C467.047 116.536 466.703 117.129 466.263 117.703C465.842 118.276 465.345 118.84 464.771 119.395C464.198 119.93 463.586 120.466 462.936 121.001L458.805 124.443H467.955V128H452.753V124.873ZM473.537 128.344C472.868 128.344 472.294 128.105 471.816 127.627C471.338 127.149 471.099 126.575 471.099 125.906C471.099 125.199 471.338 124.615 471.816 124.156C472.294 123.697 472.868 123.468 473.537 123.468C474.207 123.468 474.78 123.697 475.258 124.156C475.736 124.615 475.975 125.199 475.975 125.906C475.975 126.575 475.736 127.149 475.258 127.627C474.78 128.105 474.207 128.344 473.537 128.344ZM479.262 124.443H483.851V112.281L479.262 115.551V111.363L484.109 107.921H488.154V124.443H491.883V128H479.262V124.443ZM501.775 128.344C500.513 128.344 499.394 128.163 498.419 127.799C497.444 127.436 496.622 126.872 495.952 126.107C495.283 125.323 494.767 124.328 494.403 123.124C494.059 121.919 493.887 120.485 493.887 118.821V118.248C493.887 116.335 494.088 114.71 494.489 113.371C494.891 112.014 495.455 110.905 496.182 110.044C496.908 109.184 497.769 108.562 498.763 108.18C499.777 107.778 500.876 107.577 502.062 107.577C503.917 107.577 505.418 107.969 506.565 108.753C507.713 109.537 508.411 110.838 508.659 112.654H504.643C504.261 111.679 503.353 111.191 501.919 111.191C501.364 111.191 500.848 111.277 500.37 111.45C499.911 111.602 499.5 111.899 499.136 112.339C498.792 112.759 498.515 113.343 498.304 114.088C498.094 114.834 497.96 115.79 497.903 116.957C498.151 116.574 498.457 116.259 498.821 116.01C499.184 115.743 499.576 115.532 499.997 115.379C500.437 115.207 500.886 115.083 501.345 115.006C501.823 114.93 502.301 114.892 502.779 114.892C504.806 114.892 506.365 115.446 507.454 116.555C508.544 117.645 509.089 119.194 509.089 121.202V121.517C509.089 122.531 508.908 123.458 508.544 124.3C508.181 125.141 507.674 125.868 507.024 126.48C506.393 127.073 505.628 127.531 504.73 127.857C503.831 128.182 502.846 128.344 501.775 128.344ZM501.488 124.73C502.521 124.73 503.324 124.443 503.898 123.87C504.49 123.277 504.787 122.521 504.787 121.604V121.317C504.787 120.399 504.49 119.653 503.898 119.079C503.324 118.506 502.521 118.219 501.488 118.219C500.456 118.219 499.643 118.506 499.05 119.079C498.476 119.653 498.19 120.399 498.19 121.317V121.604C498.19 122.521 498.476 123.277 499.05 123.87C499.643 124.443 500.456 124.73 501.488 124.73ZM519.416 128.344C518.211 128.344 517.121 128.21 516.146 127.943C515.19 127.656 514.377 127.264 513.708 126.767C513.057 126.25 512.551 125.638 512.187 124.931C511.843 124.204 511.671 123.401 511.671 122.521C511.671 121.393 512.015 120.389 512.704 119.51C513.392 118.611 514.415 117.98 515.773 117.617C514.759 117.291 513.918 116.727 513.249 115.924C512.579 115.121 512.245 114.165 512.245 113.056C512.245 112.253 512.398 111.516 512.704 110.847C513.029 110.178 513.497 109.604 514.109 109.126C514.721 108.629 515.467 108.247 516.346 107.979C517.245 107.711 518.268 107.577 519.416 107.577C520.563 107.577 521.576 107.711 522.456 107.979C523.355 108.247 524.11 108.629 524.722 109.126C525.353 109.604 525.822 110.178 526.128 110.847C526.453 111.516 526.615 112.253 526.615 113.056C526.615 114.165 526.281 115.111 525.611 115.895C524.942 116.66 524.091 117.234 523.058 117.617C525.793 118.458 527.16 120.093 527.16 122.521C527.16 123.401 526.979 124.204 526.615 124.931C526.271 125.638 525.764 126.25 525.095 126.767C524.445 127.264 523.642 127.656 522.686 127.943C521.729 128.21 520.639 128.344 519.416 128.344ZM519.416 124.73C520.601 124.73 521.471 124.501 522.026 124.042C522.58 123.583 522.858 122.961 522.858 122.177C522.858 121.317 522.533 120.638 521.882 120.141C521.251 119.624 520.429 119.29 519.416 119.137C518.402 119.29 517.57 119.624 516.92 120.141C516.289 120.638 515.974 121.317 515.974 122.177C515.974 122.961 516.26 123.583 516.834 124.042C517.408 124.501 518.268 124.73 519.416 124.73ZM519.416 116.211C520.276 116.058 520.974 115.762 521.509 115.322C522.045 114.863 522.313 114.232 522.313 113.429C522.313 112.683 522.054 112.128 521.538 111.765C521.041 111.383 520.333 111.191 519.416 111.191C518.517 111.191 517.809 111.383 517.293 111.765C516.796 112.128 516.547 112.683 516.547 113.429C516.547 114.232 516.805 114.863 517.322 115.322C517.857 115.762 518.555 116.058 519.416 116.211ZM532.894 128.344C532.224 128.344 531.651 128.105 531.173 127.627C530.694 127.149 530.455 126.575 530.455 125.906C530.455 125.199 530.694 124.615 531.173 124.156C531.651 123.697 532.224 123.468 532.894 123.468C533.563 123.468 534.137 123.697 534.615 124.156C535.093 124.615 535.332 125.199 535.332 125.906C535.332 126.575 535.093 127.149 534.615 127.627C534.137 128.105 533.563 128.344 532.894 128.344ZM538.618 124.443H543.207V112.281L538.618 115.551V111.363L543.466 107.921H547.51V124.443H551.239V128H538.618V124.443ZM560.988 128.344C559.898 128.344 558.875 128.172 557.919 127.828C556.982 127.465 556.169 126.881 555.481 126.078C554.792 125.256 554.247 124.185 553.846 122.866C553.444 121.527 553.243 119.892 553.243 117.961V117.387C553.243 115.59 553.444 114.069 553.846 112.826C554.247 111.583 554.792 110.579 555.481 109.815C556.169 109.031 556.982 108.466 557.919 108.122C558.875 107.759 559.898 107.577 560.988 107.577C562.078 107.577 563.091 107.759 564.028 108.122C564.984 108.466 565.807 109.031 566.495 109.815C567.184 110.579 567.729 111.583 568.13 112.826C568.532 114.069 568.732 115.59 568.732 117.387V117.961C568.732 119.892 568.532 121.527 568.13 122.866C567.729 124.185 567.184 125.256 566.495 126.078C565.807 126.881 564.984 127.465 564.028 127.828C563.091 128.172 562.078 128.344 560.988 128.344ZM560.988 124.73C561.466 124.73 561.915 124.634 562.336 124.443C562.757 124.252 563.12 123.908 563.426 123.411C563.751 122.894 564 122.196 564.172 121.317C564.344 120.437 564.43 119.318 564.43 117.961V117.387C564.43 116.163 564.344 115.159 564.172 114.375C564 113.572 563.751 112.941 563.426 112.482C563.12 112.004 562.757 111.669 562.336 111.478C561.915 111.287 561.466 111.191 560.988 111.191C560.491 111.191 560.032 111.287 559.611 111.478C559.21 111.669 558.846 112.004 558.521 112.482C558.215 112.941 557.976 113.572 557.804 114.375C557.632 115.159 557.546 116.163 557.546 117.387V117.961C557.546 119.318 557.632 120.437 557.804 121.317C557.976 122.196 558.215 122.894 558.521 123.411C558.846 123.908 559.21 124.252 559.611 124.443C560.032 124.634 560.491 124.73 560.988 124.73ZM574.603 128.344C573.933 128.344 573.36 128.105 572.882 127.627C572.403 127.149 572.164 126.575 572.164 125.906C572.164 125.199 572.403 124.615 572.882 124.156C573.36 123.697 573.933 123.468 574.603 123.468C575.272 123.468 575.846 123.697 576.324 124.156C576.802 124.615 577.041 125.199 577.041 125.906C577.041 126.575 576.802 127.149 576.324 127.627C575.846 128.105 575.272 128.344 574.603 128.344ZM580.327 124.443H584.916V112.281L580.327 115.551V111.363L585.175 107.921H589.219V124.443H592.948V128H580.327V124.443ZM594.809 124.443H599.398V112.281L594.809 115.551V111.363L599.656 107.921H603.701V124.443H607.43V128H594.809V124.443Z" fill="black"/>
<path d="M1367.69 813.959L1376.35 798.959L1359.03 798.959L1367.69 813.959ZM1366.19 743.322L1366.19 800.459L1369.19 800.459L1369.19 743.322L1366.19 743.322Z" fill="black"/>
<rect x="1244.83" y="813.959" width="245.727" height="59.3633" fill="#F3F3F3"/>
<path d="M1272.48 850.584H1277.07V838.422L1272.48 841.692V837.504L1277.33 834.062H1281.38V850.584H1285.1V854.141H1272.48V850.584ZM1295 854.485C1293.74 854.485 1292.62 854.303 1291.64 853.94C1290.67 853.577 1289.84 853.012 1289.17 852.248C1288.51 851.463 1287.99 850.469 1287.63 849.264C1287.28 848.06 1287.11 846.625 1287.11 844.962V844.388C1287.11 842.476 1287.31 840.851 1287.71 839.512C1288.11 838.154 1288.68 837.045 1289.4 836.185C1290.13 835.324 1290.99 834.703 1291.99 834.32C1293 833.919 1294.1 833.718 1295.28 833.718C1297.14 833.718 1298.64 834.11 1299.79 834.894C1300.93 835.678 1301.63 836.978 1301.88 838.795H1297.87C1297.48 837.82 1296.58 837.332 1295.14 837.332C1294.59 837.332 1294.07 837.418 1293.59 837.59C1293.13 837.743 1292.72 838.04 1292.36 838.479C1292.01 838.9 1291.74 839.483 1291.53 840.229C1291.32 840.975 1291.18 841.931 1291.13 843.097C1291.37 842.715 1291.68 842.399 1292.04 842.151C1292.41 841.883 1292.8 841.673 1293.22 841.52C1293.66 841.348 1294.11 841.223 1294.57 841.147C1295.05 841.07 1295.52 841.032 1296 841.032C1298.03 841.032 1299.59 841.587 1300.68 842.696C1301.77 843.786 1302.31 845.335 1302.31 847.343V847.658C1302.31 848.672 1302.13 849.599 1301.77 850.44C1301.4 851.282 1300.9 852.008 1300.25 852.62C1299.62 853.213 1298.85 853.672 1297.95 853.997C1297.05 854.322 1296.07 854.485 1295 854.485ZM1294.71 850.871C1295.74 850.871 1296.55 850.584 1297.12 850.01C1297.71 849.417 1298.01 848.662 1298.01 847.744V847.457C1298.01 846.539 1297.71 845.794 1297.12 845.22C1296.55 844.646 1295.74 844.359 1294.71 844.359C1293.68 844.359 1292.87 844.646 1292.27 845.22C1291.7 845.794 1291.41 846.539 1291.41 847.457V847.744C1291.41 848.662 1291.7 849.417 1292.27 850.01C1292.87 850.584 1293.68 850.871 1294.71 850.871ZM1312.64 854.485C1311.43 854.485 1310.34 854.351 1309.37 854.083C1308.41 853.796 1307.6 853.404 1306.93 852.907C1306.28 852.391 1305.77 851.779 1305.41 851.071C1305.07 850.345 1304.89 849.542 1304.89 848.662C1304.89 847.534 1305.24 846.53 1305.93 845.65C1306.61 844.751 1307.64 844.12 1309 843.757C1307.98 843.432 1307.14 842.868 1306.47 842.065C1305.8 841.262 1305.47 840.306 1305.47 839.196C1305.47 838.393 1305.62 837.657 1305.93 836.988C1306.25 836.318 1306.72 835.745 1307.33 835.267C1307.94 834.77 1308.69 834.387 1309.57 834.119C1310.47 833.852 1311.49 833.718 1312.64 833.718C1313.79 833.718 1314.8 833.852 1315.68 834.119C1316.58 834.387 1317.33 834.77 1317.94 835.267C1318.58 835.745 1319.04 836.318 1319.35 836.988C1319.67 837.657 1319.84 838.393 1319.84 839.196C1319.84 840.306 1319.5 841.252 1318.83 842.036C1318.16 842.801 1317.31 843.375 1316.28 843.757C1319.02 844.599 1320.38 846.233 1320.38 848.662C1320.38 849.542 1320.2 850.345 1319.84 851.071C1319.49 851.779 1318.99 852.391 1318.32 852.907C1317.67 853.404 1316.86 853.796 1315.91 854.083C1314.95 854.351 1313.86 854.485 1312.64 854.485ZM1312.64 850.871C1313.82 850.871 1314.69 850.641 1315.25 850.182C1315.8 849.723 1316.08 849.102 1316.08 848.318C1316.08 847.457 1315.75 846.778 1315.1 846.281C1314.47 845.765 1313.65 845.43 1312.64 845.277C1311.62 845.43 1310.79 845.765 1310.14 846.281C1309.51 846.778 1309.2 847.457 1309.2 848.318C1309.2 849.102 1309.48 849.723 1310.06 850.182C1310.63 850.641 1311.49 850.871 1312.64 850.871ZM1312.64 842.352C1313.5 842.199 1314.2 841.902 1314.73 841.462C1315.27 841.003 1315.53 840.372 1315.53 839.569C1315.53 838.824 1315.28 838.269 1314.76 837.906C1314.26 837.523 1313.56 837.332 1312.64 837.332C1311.74 837.332 1311.03 837.523 1310.52 837.906C1310.02 838.269 1309.77 838.824 1309.77 839.569C1309.77 840.372 1310.03 841.003 1310.54 841.462C1311.08 841.902 1311.78 842.199 1312.64 842.352ZM1329.7 844.331H1338.88V847.888H1329.7V844.331ZM1348.2 850.584H1352.79V838.422L1348.2 841.692V837.504L1353.05 834.062H1357.09V850.584H1360.82V854.141H1348.2V850.584ZM1362.25 851.014L1369.28 844.962C1369.93 844.388 1370.48 843.891 1370.94 843.47C1371.4 843.03 1371.77 842.629 1372.06 842.266C1372.35 841.902 1372.55 841.548 1372.66 841.204C1372.8 840.86 1372.86 840.487 1372.86 840.086C1372.86 839.263 1372.63 838.604 1372.18 838.106C1371.72 837.59 1371.04 837.332 1370.14 837.332C1369.11 837.332 1368.29 837.619 1367.7 838.192C1367.13 838.747 1366.84 839.713 1366.84 841.09H1362.54C1362.54 838.814 1363.18 837.016 1364.46 835.697C1365.76 834.378 1367.65 833.718 1370.14 833.718C1371.31 833.718 1372.32 833.88 1373.18 834.205C1374.06 834.511 1374.79 834.951 1375.39 835.525C1375.98 836.079 1376.42 836.749 1376.71 837.533C1377.01 838.317 1377.17 839.168 1377.17 840.086C1377.17 840.774 1377.04 841.434 1376.79 842.065C1376.54 842.677 1376.2 843.27 1375.76 843.843C1375.34 844.417 1374.84 844.981 1374.27 845.536C1373.7 846.071 1373.08 846.606 1372.43 847.142L1368.3 850.584H1377.45V854.141H1362.25V851.014ZM1387.62 854.485C1386.42 854.485 1385.33 854.351 1384.35 854.083C1383.4 853.796 1382.59 853.404 1381.92 852.907C1381.27 852.391 1380.76 851.779 1380.4 851.071C1380.05 850.345 1379.88 849.542 1379.88 848.662C1379.88 847.534 1380.22 846.53 1380.91 845.65C1381.6 844.751 1382.62 844.12 1383.98 843.757C1382.97 843.432 1382.13 842.868 1381.46 842.065C1380.79 841.262 1380.45 840.306 1380.45 839.196C1380.45 838.393 1380.61 837.657 1380.91 836.988C1381.24 836.318 1381.71 835.745 1382.32 835.267C1382.93 834.77 1383.68 834.387 1384.56 834.119C1385.45 833.852 1386.48 833.718 1387.62 833.718C1388.77 833.718 1389.79 833.852 1390.66 834.119C1391.56 834.387 1392.32 834.77 1392.93 835.267C1393.56 835.745 1394.03 836.318 1394.34 836.988C1394.66 837.657 1394.82 838.393 1394.82 839.196C1394.82 840.306 1394.49 841.252 1393.82 842.036C1393.15 842.801 1392.3 843.375 1391.27 843.757C1394 844.599 1395.37 846.233 1395.37 848.662C1395.37 849.542 1395.19 850.345 1394.82 851.071C1394.48 851.779 1393.97 852.391 1393.3 852.907C1392.65 853.404 1391.85 853.796 1390.89 854.083C1389.94 854.351 1388.85 854.485 1387.62 854.485ZM1387.62 850.871C1388.81 850.871 1389.68 850.641 1390.23 850.182C1390.79 849.723 1391.07 849.102 1391.07 848.318C1391.07 847.457 1390.74 846.778 1390.09 846.281C1389.46 845.765 1388.64 845.43 1387.62 845.277C1386.61 845.43 1385.78 845.765 1385.13 846.281C1384.5 846.778 1384.18 847.457 1384.18 848.318C1384.18 849.102 1384.47 849.723 1385.04 850.182C1385.62 850.641 1386.48 850.871 1387.62 850.871ZM1387.62 842.352C1388.48 842.199 1389.18 841.902 1389.72 841.462C1390.25 841.003 1390.52 840.372 1390.52 839.569C1390.52 838.824 1390.26 838.269 1389.75 837.906C1389.25 837.523 1388.54 837.332 1387.62 837.332C1386.73 837.332 1386.02 837.523 1385.5 837.906C1385 838.269 1384.76 838.824 1384.76 839.569C1384.76 840.372 1385.01 841.003 1385.53 841.462C1386.07 841.902 1386.76 842.199 1387.62 842.352ZM1404.97 845.478H1419.03V849.035H1404.97V845.478ZM1404.97 838.594H1419.03V842.151H1404.97V838.594ZM1437.4 849.895H1427.93V846.912L1437.4 834.062H1441.7V846.339H1443.99V849.895H1441.7V854.141H1437.4V849.895ZM1437.4 846.339V838.852L1431.95 846.339H1437.4ZM1454.55 854.485C1453.46 854.485 1452.43 854.313 1451.48 853.969C1450.54 853.605 1449.73 853.022 1449.04 852.219C1448.35 851.397 1447.81 850.326 1447.4 849.006C1447 847.668 1446.8 846.033 1446.8 844.101V843.528C1446.8 841.73 1447 840.21 1447.4 838.967C1447.81 837.724 1448.35 836.72 1449.04 835.955C1449.73 835.171 1450.54 834.607 1451.48 834.263C1452.43 833.9 1453.46 833.718 1454.55 833.718C1455.64 833.718 1456.65 833.9 1457.59 834.263C1458.54 834.607 1459.37 835.171 1460.05 835.955C1460.74 836.72 1461.29 837.724 1461.69 838.967C1462.09 840.21 1462.29 841.73 1462.29 843.528V844.101C1462.29 846.033 1462.09 847.668 1461.69 849.006C1461.29 850.326 1460.74 851.397 1460.05 852.219C1459.37 853.022 1458.54 853.605 1457.59 853.969C1456.65 854.313 1455.64 854.485 1454.55 854.485ZM1454.55 850.871C1455.03 850.871 1455.47 850.775 1455.9 850.584C1456.32 850.393 1456.68 850.048 1456.99 849.551C1457.31 849.035 1457.56 848.337 1457.73 847.457C1457.9 846.578 1457.99 845.459 1457.99 844.101V843.528C1457.99 842.304 1457.9 841.3 1457.73 840.516C1457.56 839.713 1457.31 839.082 1456.99 838.623C1456.68 838.145 1456.32 837.81 1455.9 837.619C1455.47 837.428 1455.03 837.332 1454.55 837.332C1454.05 837.332 1453.59 837.428 1453.17 837.619C1452.77 837.81 1452.41 838.145 1452.08 838.623C1451.77 839.082 1451.54 839.713 1451.36 840.516C1451.19 841.3 1451.11 842.304 1451.11 843.528V844.101C1451.11 845.459 1451.19 846.578 1451.36 847.457C1451.54 848.337 1451.77 849.035 1452.08 849.551C1452.41 850.048 1452.77 850.393 1453.17 850.584C1453.59 850.775 1454.05 850.871 1454.55 850.871Z" fill="black"/>
<rect x="1244.83" y="813.959" width="245.727" height="59.3633" stroke="#DADADA" stroke-width="2"/>
</svg>
