<svg width="1600" height="414" viewBox="0 0 1600 414" fill="none" xmlns="http://www.w3.org/2000/svg">
<rect x="75.7012" y="239.285" width="171.333" height="74" fill="#ABD4C1"/>
<path d="M124.05 257.553H126.096V264.059H134.191V257.553H136.236V272.785H134.191V265.844H126.096V272.785H124.05V257.553ZM143.434 273.003C142.796 273.003 142.23 272.916 141.737 272.742C141.258 272.553 140.852 272.299 140.518 271.98C140.184 271.661 139.93 271.284 139.756 270.848C139.582 270.413 139.495 269.935 139.495 269.412C139.495 268.266 139.829 267.439 140.496 266.932C141.178 266.424 142.15 266.17 143.412 266.17H147.155V265.387C147.155 264.4 146.93 263.718 146.48 263.341C146.045 262.964 145.385 262.775 144.5 262.775C143.673 262.775 143.071 262.935 142.694 263.254C142.317 263.559 142.106 263.907 142.063 264.299H140.148C140.177 263.834 140.3 263.406 140.518 263.015C140.75 262.609 141.055 262.26 141.432 261.97C141.824 261.68 142.288 261.455 142.825 261.296C143.361 261.122 143.956 261.035 144.609 261.035C145.973 261.035 147.053 261.361 147.851 262.014C148.664 262.652 149.07 263.704 149.07 265.169V269.848C149.07 270.457 149.07 270.994 149.07 271.458C149.084 271.907 149.121 272.35 149.179 272.785H147.503C147.459 272.451 147.43 272.14 147.416 271.849C147.401 271.545 147.394 271.204 147.394 270.827C147.09 271.436 146.596 271.951 145.914 272.372C145.233 272.792 144.406 273.003 143.434 273.003ZM143.847 271.262C144.297 271.262 144.718 271.204 145.109 271.088C145.516 270.957 145.871 270.776 146.176 270.544C146.48 270.297 146.72 270 146.894 269.652C147.068 269.304 147.155 268.897 147.155 268.433V267.65H143.738C143.028 267.65 142.469 267.795 142.063 268.085C141.657 268.361 141.454 268.803 141.454 269.412C141.454 269.949 141.642 270.392 142.019 270.74C142.411 271.088 143.02 271.262 143.847 271.262ZM159.132 268.194C158.799 268.397 158.393 268.578 157.914 268.738C157.45 268.897 156.862 268.977 156.151 268.977C155.484 268.977 154.882 268.905 154.345 268.759C153.823 268.614 153.38 268.382 153.018 268.063C152.655 267.744 152.379 267.331 152.191 266.823C152.002 266.315 151.908 265.691 151.908 264.951V261.252H153.823V264.625C153.823 265.118 153.866 265.532 153.953 265.865C154.055 266.199 154.215 266.467 154.432 266.67C154.65 266.874 154.925 267.019 155.259 267.106C155.593 267.193 155.999 267.236 156.478 267.236C157.13 267.236 157.689 267.171 158.153 267.04C158.617 266.91 158.944 266.772 159.132 266.627V261.252H161.047V272.785H159.132V268.194ZM167.808 273.003C167.17 273.003 166.604 272.916 166.111 272.742C165.632 272.553 165.226 272.299 164.892 271.98C164.558 271.661 164.305 271.284 164.13 270.848C163.956 270.413 163.869 269.935 163.869 269.412C163.869 268.266 164.203 267.439 164.87 266.932C165.552 266.424 166.524 266.17 167.786 266.17H171.529V265.387C171.529 264.4 171.304 263.718 170.854 263.341C170.419 262.964 169.759 262.775 168.874 262.775C168.047 262.775 167.445 262.935 167.068 263.254C166.691 263.559 166.481 263.907 166.437 264.299H164.522C164.551 263.834 164.674 263.406 164.892 263.015C165.124 262.609 165.429 262.26 165.806 261.97C166.198 261.68 166.662 261.455 167.199 261.296C167.735 261.122 168.33 261.035 168.983 261.035C170.347 261.035 171.427 261.361 172.225 262.014C173.038 262.652 173.444 263.704 173.444 265.169V269.848C173.444 270.457 173.444 270.994 173.444 271.458C173.458 271.907 173.495 272.35 173.553 272.785H171.877C171.834 272.451 171.805 272.14 171.79 271.849C171.776 271.545 171.768 271.204 171.768 270.827C171.464 271.436 170.97 271.951 170.289 272.372C169.607 272.792 168.78 273.003 167.808 273.003ZM168.221 271.262C168.671 271.262 169.092 271.204 169.483 271.088C169.89 270.957 170.245 270.776 170.55 270.544C170.854 270.297 171.094 270 171.268 269.652C171.442 269.304 171.529 268.897 171.529 268.433V267.65H168.113C167.402 267.65 166.843 267.795 166.437 268.085C166.031 268.361 165.828 268.803 165.828 269.412C165.828 269.949 166.016 270.392 166.394 270.74C166.785 271.088 167.395 271.262 168.221 271.262ZM176.282 273.003C176.064 273.003 175.847 272.981 175.629 272.937V271.023C175.702 271.037 175.811 271.044 175.956 271.044C176.275 271.044 176.55 270.943 176.783 270.74C177.029 270.537 177.225 270.181 177.37 269.673C177.515 269.166 177.624 268.477 177.697 267.606C177.769 266.736 177.805 265.633 177.805 264.299V261.252H186.074V272.785H184.159V262.949H179.72V264.734C179.72 266.344 179.648 267.679 179.503 268.738C179.358 269.797 179.14 270.645 178.85 271.284C178.574 271.907 178.219 272.35 177.784 272.611C177.348 272.872 176.848 273.003 176.282 273.003ZM194.342 273.003C193.602 273.003 192.899 272.887 192.232 272.655C191.564 272.408 190.977 272.045 190.469 271.567C189.961 271.073 189.555 270.457 189.25 269.717C188.946 268.977 188.793 268.114 188.793 267.127V266.692C188.793 265.764 188.946 264.944 189.25 264.233C189.555 263.523 189.961 262.935 190.469 262.471C190.977 261.992 191.564 261.637 192.232 261.404C192.899 261.158 193.602 261.035 194.342 261.035C195.082 261.035 195.786 261.158 196.453 261.404C197.12 261.637 197.708 261.992 198.216 262.471C198.723 262.935 199.13 263.523 199.434 264.233C199.739 264.944 199.891 265.764 199.891 266.692V267.127C199.891 268.114 199.739 268.977 199.434 269.717C199.13 270.457 198.723 271.073 198.216 271.567C197.708 272.045 197.12 272.408 196.453 272.655C195.786 272.887 195.082 273.003 194.342 273.003ZM194.342 271.262C194.778 271.262 195.213 271.189 195.648 271.044C196.083 270.885 196.468 270.645 196.801 270.326C197.135 269.993 197.403 269.565 197.606 269.042C197.824 268.52 197.933 267.882 197.933 267.127V266.692C197.933 265.996 197.824 265.401 197.606 264.908C197.403 264.415 197.135 264.008 196.801 263.689C196.468 263.37 196.083 263.138 195.648 262.993C195.213 262.848 194.778 262.775 194.342 262.775C193.907 262.775 193.472 262.848 193.037 262.993C192.601 263.138 192.217 263.37 191.883 263.689C191.55 264.008 191.274 264.415 191.057 264.908C190.853 265.401 190.752 265.996 190.752 266.692V267.127C190.752 267.882 190.853 268.52 191.057 269.042C191.274 269.565 191.55 269.993 191.883 270.326C192.217 270.645 192.601 270.885 193.037 271.044C193.472 271.189 193.907 271.262 194.342 271.262ZM131.372 285.252H133.287V290.083H134.81L139.118 285.252H141.381L136.376 290.779L141.599 296.785H139.162L134.81 291.737H133.287V296.785H131.372V285.252ZM146.961 297.003C146.323 297.003 145.757 296.916 145.264 296.742C144.785 296.553 144.379 296.299 144.045 295.98C143.712 295.661 143.458 295.284 143.284 294.848C143.11 294.413 143.023 293.935 143.023 293.412C143.023 292.266 143.356 291.439 144.024 290.932C144.706 290.424 145.678 290.17 146.94 290.17H150.682V289.387C150.682 288.4 150.458 287.718 150.008 287.341C149.573 286.964 148.913 286.775 148.028 286.775C147.201 286.775 146.599 286.935 146.222 287.254C145.844 287.559 145.634 287.907 145.59 288.299H143.676C143.705 287.834 143.828 287.406 144.045 287.015C144.278 286.609 144.582 286.26 144.959 285.97C145.351 285.68 145.815 285.455 146.352 285.296C146.889 285.122 147.484 285.035 148.136 285.035C149.5 285.035 150.581 285.361 151.379 286.014C152.191 286.652 152.597 287.704 152.597 289.169V293.848C152.597 294.457 152.597 294.994 152.597 295.458C152.612 295.907 152.648 296.35 152.706 296.785H151.031C150.987 296.451 150.958 296.14 150.944 295.849C150.929 295.545 150.922 295.204 150.922 294.827C150.617 295.436 150.124 295.951 149.442 296.372C148.76 296.792 147.933 297.003 146.961 297.003ZM147.375 295.262C147.825 295.262 148.245 295.204 148.637 295.088C149.043 294.957 149.399 294.776 149.703 294.544C150.008 294.297 150.247 294 150.421 293.652C150.595 293.304 150.682 292.897 150.682 292.433V291.65H147.266C146.555 291.65 145.997 291.795 145.59 292.085C145.184 292.361 144.981 292.803 144.981 293.412C144.981 293.949 145.17 294.392 145.547 294.74C145.939 295.088 146.548 295.262 147.375 295.262ZM154.674 295.088H156.088C156.248 294.87 156.393 294.537 156.524 294.087C156.654 293.637 156.77 293.108 156.872 292.498C156.973 291.889 157.046 291.229 157.089 290.518C157.147 289.793 157.176 289.053 157.176 288.299V285.252H165.228V295.088H166.86V299.505H165.032V296.785H156.502V299.505H154.674V295.088ZM163.313 295.088V286.949H159.048V288.734C159.048 289.343 159.026 289.952 158.982 290.562C158.939 291.156 158.874 291.73 158.787 292.281C158.7 292.818 158.591 293.333 158.46 293.826C158.344 294.304 158.206 294.725 158.047 295.088H163.313ZM169.155 285.252H170.939V287.428C171.331 286.659 171.875 286.072 172.571 285.666C173.282 285.245 174.102 285.035 175.03 285.035C176.481 285.035 177.641 285.513 178.512 286.471C179.382 287.414 179.817 288.821 179.817 290.692V291.127C179.817 292.114 179.701 292.977 179.469 293.717C179.237 294.442 178.911 295.052 178.49 295.545C178.069 296.024 177.561 296.386 176.967 296.633C176.386 296.879 175.741 297.003 175.03 297.003C174.044 297.003 173.217 296.785 172.549 296.35C171.897 295.915 171.403 295.371 171.07 294.718V301.137H169.155V285.252ZM174.595 295.305C175.059 295.305 175.494 295.218 175.9 295.044C176.307 294.856 176.655 294.587 176.945 294.239C177.25 293.891 177.482 293.456 177.641 292.934C177.815 292.411 177.902 291.809 177.902 291.127V290.692C177.902 290.068 177.815 289.51 177.641 289.017C177.482 288.523 177.25 288.11 176.945 287.776C176.655 287.428 176.307 287.167 175.9 286.993C175.494 286.819 175.059 286.732 174.595 286.732C174.073 286.732 173.594 286.819 173.159 286.993C172.723 287.153 172.353 287.385 172.049 287.689C171.744 287.979 171.505 288.328 171.331 288.734C171.157 289.14 171.07 289.575 171.07 290.039V291.78C171.07 292.303 171.157 292.781 171.331 293.216C171.505 293.652 171.744 294.022 172.049 294.326C172.353 294.631 172.723 294.87 173.159 295.044C173.594 295.218 174.073 295.305 174.595 295.305ZM185.828 297.003C185.19 297.003 184.624 296.916 184.131 296.742C183.652 296.553 183.246 296.299 182.912 295.98C182.579 295.661 182.325 295.284 182.151 294.848C181.977 294.413 181.89 293.935 181.89 293.412C181.89 292.266 182.223 291.439 182.891 290.932C183.572 290.424 184.544 290.17 185.806 290.17H189.549V289.387C189.549 288.4 189.324 287.718 188.875 287.341C188.439 286.964 187.779 286.775 186.894 286.775C186.068 286.775 185.466 286.935 185.088 287.254C184.711 287.559 184.501 287.907 184.457 288.299H182.542C182.571 287.834 182.695 287.406 182.912 287.015C183.144 286.609 183.449 286.26 183.826 285.97C184.218 285.68 184.682 285.455 185.219 285.296C185.756 285.122 186.35 285.035 187.003 285.035C188.367 285.035 189.448 285.361 190.246 286.014C191.058 286.652 191.464 287.704 191.464 289.169V293.848C191.464 294.457 191.464 294.994 191.464 295.458C191.479 295.907 191.515 296.35 191.573 296.785H189.897C189.854 296.451 189.825 296.14 189.81 295.849C189.796 295.545 189.789 295.204 189.789 294.827C189.484 295.436 188.991 295.951 188.309 296.372C187.627 296.792 186.8 297.003 185.828 297.003ZM186.242 295.262C186.691 295.262 187.112 295.204 187.504 295.088C187.91 294.957 188.265 294.776 188.57 294.544C188.875 294.297 189.114 294 189.288 293.652C189.462 293.304 189.549 292.897 189.549 292.433V291.65H186.133C185.422 291.65 184.864 291.795 184.457 292.085C184.051 292.361 183.848 292.803 183.848 293.412C183.848 293.949 184.037 294.392 184.414 294.74C184.806 295.088 185.415 295.262 186.242 295.262Z" fill="black"/>
<rect x="75.7012" y="239.285" width="171.333" height="74" stroke="#58A982"/>
<rect x="247.034" y="239.285" width="171.333" height="74" fill="#ABD4C1"/>
<path d="M284.4 280.999H277.959L276.501 284.785H274.369L280.2 269.553H282.246L288.078 284.785H285.858L284.4 280.999ZM278.634 279.215H283.726L281.18 272.164L278.634 279.215ZM289.371 283.088H290.786C290.945 282.87 291.09 282.537 291.221 282.087C291.351 281.637 291.468 281.108 291.569 280.498C291.671 279.889 291.743 279.229 291.787 278.518C291.845 277.793 291.874 277.053 291.874 276.299V273.252H299.925V283.088H301.557V287.505H299.729V284.785H291.199V287.505H289.371V283.088ZM298.01 283.088V274.949H293.745V276.734C293.745 277.343 293.723 277.952 293.68 278.562C293.636 279.156 293.571 279.73 293.484 280.281C293.397 280.818 293.288 281.333 293.158 281.826C293.042 282.304 292.904 282.725 292.744 283.088H298.01ZM303.852 273.252H305.636V275.428C306.028 274.659 306.572 274.072 307.269 273.666C307.979 273.245 308.799 273.035 309.727 273.035C311.178 273.035 312.339 273.513 313.209 274.471C314.079 275.414 314.515 276.821 314.515 278.692V279.127C314.515 280.114 314.399 280.977 314.167 281.717C313.934 282.442 313.608 283.052 313.187 283.545C312.767 284.024 312.259 284.386 311.664 284.633C311.084 284.879 310.438 285.003 309.727 285.003C308.741 285.003 307.914 284.785 307.247 284.35C306.594 283.915 306.101 283.371 305.767 282.718V289.137H303.852V273.252ZM309.292 283.305C309.756 283.305 310.192 283.218 310.598 283.044C311.004 282.856 311.352 282.587 311.642 282.239C311.947 281.891 312.179 281.456 312.339 280.934C312.513 280.411 312.6 279.809 312.6 279.127V278.692C312.6 278.068 312.513 277.51 312.339 277.017C312.179 276.523 311.947 276.11 311.642 275.776C311.352 275.428 311.004 275.167 310.598 274.993C310.192 274.819 309.756 274.732 309.292 274.732C308.77 274.732 308.291 274.819 307.856 274.993C307.421 275.153 307.051 275.385 306.746 275.689C306.442 275.979 306.202 276.328 306.028 276.734C305.854 277.14 305.767 277.575 305.767 278.039V279.78C305.767 280.303 305.854 280.781 306.028 281.216C306.202 281.652 306.442 282.022 306.746 282.326C307.051 282.631 307.421 282.87 307.856 283.044C308.291 283.218 308.77 283.305 309.292 283.305ZM322.027 285.003C321.287 285.003 320.584 284.887 319.916 284.655C319.249 284.422 318.662 284.067 318.154 283.588C317.646 283.095 317.24 282.479 316.935 281.739C316.631 280.999 316.478 280.128 316.478 279.127V278.692C316.478 277.735 316.623 276.908 316.913 276.212C317.204 275.501 317.588 274.913 318.067 274.449C318.56 273.97 319.126 273.615 319.764 273.383C320.417 273.151 321.099 273.035 321.81 273.035C323.507 273.035 324.82 273.499 325.748 274.427C326.677 275.356 327.141 276.669 327.141 278.366V279.584H318.393C318.393 280.266 318.502 280.839 318.72 281.304C318.937 281.768 319.22 282.145 319.568 282.435C319.916 282.725 320.301 282.936 320.722 283.066C321.157 283.197 321.592 283.262 322.027 283.262C322.898 283.262 323.565 283.117 324.029 282.827C324.508 282.537 324.849 282.138 325.052 281.63H326.923C326.807 282.181 326.597 282.667 326.292 283.088C326.002 283.509 325.639 283.864 325.204 284.154C324.783 284.43 324.297 284.64 323.746 284.785C323.209 284.93 322.636 285.003 322.027 285.003ZM321.918 274.775C321.469 274.775 321.033 274.841 320.613 274.971C320.192 275.087 319.815 275.283 319.481 275.559C319.162 275.82 318.901 276.154 318.698 276.56C318.495 276.966 318.393 277.452 318.393 278.018H325.335C325.32 277.423 325.219 276.922 325.03 276.516C324.856 276.096 324.617 275.762 324.312 275.515C324.007 275.254 323.645 275.066 323.224 274.949C322.818 274.833 322.383 274.775 321.918 274.775ZM334.323 285.003C333.584 285.003 332.894 284.887 332.256 284.655C331.618 284.408 331.067 284.045 330.602 283.567C330.138 283.073 329.768 282.457 329.493 281.717C329.232 280.977 329.101 280.114 329.101 279.127V278.692C329.101 277.764 329.246 276.944 329.536 276.233C329.826 275.523 330.211 274.935 330.689 274.471C331.168 273.992 331.719 273.637 332.343 273.404C332.982 273.158 333.642 273.035 334.323 273.035C335.005 273.035 335.615 273.129 336.151 273.317C336.703 273.506 337.174 273.767 337.566 274.101C337.972 274.434 338.298 274.826 338.545 275.276C338.806 275.726 338.995 276.212 339.111 276.734H337.152C337.036 276.458 336.898 276.204 336.739 275.972C336.594 275.726 336.405 275.515 336.173 275.341C335.955 275.167 335.694 275.029 335.39 274.928C335.085 274.826 334.73 274.775 334.323 274.775C333.903 274.775 333.497 274.855 333.105 275.015C332.713 275.16 332.365 275.392 332.06 275.711C331.756 276.016 331.509 276.415 331.32 276.908C331.146 277.401 331.059 277.996 331.059 278.692V279.127C331.059 279.867 331.146 280.506 331.32 281.042C331.509 281.565 331.756 281.993 332.06 282.326C332.365 282.645 332.713 282.885 333.105 283.044C333.497 283.189 333.903 283.262 334.323 283.262C335.034 283.262 335.629 283.088 336.108 282.74C336.601 282.392 336.949 281.913 337.152 281.304H339.111C338.835 282.45 338.269 283.356 337.413 284.024C336.557 284.676 335.527 285.003 334.323 285.003ZM345.006 285.003C344.368 285.003 343.802 284.916 343.309 284.742C342.83 284.553 342.424 284.299 342.09 283.98C341.757 283.661 341.503 283.284 341.329 282.848C341.154 282.413 341.067 281.935 341.067 281.412C341.067 280.266 341.401 279.439 342.068 278.932C342.75 278.424 343.722 278.17 344.984 278.17H348.727V277.387C348.727 276.4 348.502 275.718 348.053 275.341C347.617 274.964 346.957 274.775 346.072 274.775C345.245 274.775 344.643 274.935 344.266 275.254C343.889 275.559 343.679 275.907 343.635 276.299H341.72C341.749 275.834 341.873 275.406 342.09 275.015C342.322 274.609 342.627 274.26 343.004 273.97C343.396 273.68 343.86 273.455 344.397 273.296C344.934 273.122 345.528 273.035 346.181 273.035C347.545 273.035 348.626 273.361 349.423 274.014C350.236 274.652 350.642 275.704 350.642 277.169V281.848C350.642 282.457 350.642 282.994 350.642 283.458C350.656 283.907 350.693 284.35 350.751 284.785H349.075C349.032 284.451 349.003 284.14 348.988 283.849C348.974 283.545 348.966 283.204 348.966 282.827C348.662 283.436 348.169 283.951 347.487 284.372C346.805 284.792 345.978 285.003 345.006 285.003ZM345.42 283.262C345.869 283.262 346.29 283.204 346.682 283.088C347.088 282.957 347.443 282.776 347.748 282.544C348.053 282.297 348.292 282 348.466 281.652C348.64 281.304 348.727 280.897 348.727 280.433V279.65H345.311C344.6 279.65 344.041 279.795 343.635 280.085C343.229 280.361 343.026 280.803 343.026 281.412C343.026 281.949 343.214 282.392 343.592 282.74C343.983 283.088 344.593 283.262 345.42 283.262ZM363.403 284.785H354.024V273.252H355.939V283.088H361.466V273.252H363.381V283.088H365.231V287.505H363.403V284.785ZM367.518 273.252H369.433V281.956L375.395 273.252H377.31V284.785H375.395V276.081L369.433 284.785H367.518V273.252ZM383.063 280.215C382.105 279.998 381.416 279.606 380.995 279.04C380.575 278.46 380.364 277.72 380.364 276.821C380.364 275.689 380.705 274.812 381.387 274.188C382.083 273.564 383.193 273.252 384.716 273.252H389.721V284.785H387.806V280.39H384.869L382.062 284.785H379.929L383.063 280.215ZM382.279 276.821C382.279 277.43 382.453 277.894 382.802 278.214C383.164 278.533 383.766 278.692 384.608 278.692H387.806V274.949H384.608C383.766 274.949 383.164 275.109 382.802 275.428C382.453 275.747 382.279 276.212 382.279 276.821Z" fill="black"/>
<rect x="247.034" y="239.285" width="171.333" height="74" stroke="#58A982"/>
<rect x="418.368" y="239.285" width="76" height="74" fill="#ABD4C1"/>
<path d="M443.157 271.337H437.869V269.553H450.49V271.337H445.203V284.785H443.157V271.337ZM450.714 273.252H452.629V281.956L458.591 273.252H460.506V284.785H458.591V276.081L452.629 284.785H450.714V273.252ZM463.995 273.252H473.57V284.785H471.655V274.949H465.91V284.785H463.995V273.252Z" fill="black"/>
<rect x="418.368" y="239.285" width="76" height="74" stroke="#58A982"/>
<rect x="494.368" y="239.285" width="171.333" height="74" fill="#ABD4C1"/>
<path d="M519.852 285.003C519.693 285.003 519.533 284.996 519.374 284.981C519.229 284.981 519.098 284.974 518.982 284.959V283.131C519.098 283.146 519.229 283.16 519.374 283.175C519.533 283.175 519.693 283.175 519.852 283.175C520.157 283.175 520.418 283.153 520.636 283.11C520.853 283.052 521.042 282.957 521.202 282.827C521.376 282.682 521.528 282.493 521.659 282.261C521.804 282.029 521.956 281.724 522.116 281.347L515.827 269.553H518.046L523.138 279.236L527.447 269.553H529.536L523.987 281.804C523.74 282.355 523.486 282.834 523.225 283.24C522.964 283.646 522.674 283.98 522.355 284.241C522.036 284.502 521.673 284.691 521.267 284.807C520.861 284.937 520.389 285.003 519.852 285.003ZM530.839 273.252H540.413V284.785H538.499V274.949H532.754V284.785H530.839V273.252ZM543.887 273.252H545.671V275.428C546.063 274.659 546.607 274.072 547.303 273.666C548.014 273.245 548.833 273.035 549.762 273.035C551.213 273.035 552.373 273.513 553.244 274.471C554.114 275.414 554.549 276.821 554.549 278.692V279.127C554.549 280.114 554.433 280.977 554.201 281.717C553.969 282.442 553.643 283.052 553.222 283.545C552.801 284.024 552.293 284.386 551.699 284.633C551.118 284.879 550.473 285.003 549.762 285.003C548.775 285.003 547.949 284.785 547.281 284.35C546.628 283.915 546.135 283.371 545.802 282.718V289.137H543.887V273.252ZM549.327 283.305C549.791 283.305 550.226 283.218 550.632 283.044C551.039 282.856 551.387 282.587 551.677 282.239C551.981 281.891 552.214 281.456 552.373 280.934C552.547 280.411 552.634 279.809 552.634 279.127V278.692C552.634 278.068 552.547 277.51 552.373 277.017C552.214 276.523 551.981 276.11 551.677 275.776C551.387 275.428 551.039 275.167 550.632 274.993C550.226 274.819 549.791 274.732 549.327 274.732C548.804 274.732 548.326 274.819 547.891 274.993C547.455 275.153 547.085 275.385 546.781 275.689C546.476 275.979 546.237 276.328 546.063 276.734C545.889 277.14 545.802 277.575 545.802 278.039V279.78C545.802 280.303 545.889 280.781 546.063 281.216C546.237 281.652 546.476 282.022 546.781 282.326C547.085 282.631 547.455 282.87 547.891 283.044C548.326 283.218 548.804 283.305 549.327 283.305ZM560.56 285.003C559.922 285.003 559.356 284.916 558.863 284.742C558.384 284.553 557.978 284.299 557.644 283.98C557.311 283.661 557.057 283.284 556.883 282.848C556.709 282.413 556.622 281.935 556.622 281.412C556.622 280.266 556.955 279.439 557.623 278.932C558.304 278.424 559.276 278.17 560.538 278.17H564.281V277.387C564.281 276.4 564.056 275.718 563.607 275.341C563.171 274.964 562.511 274.775 561.626 274.775C560.8 274.775 560.197 274.935 559.82 275.254C559.443 275.559 559.233 275.907 559.189 276.299H557.274C557.303 275.834 557.427 275.406 557.644 275.015C557.876 274.609 558.181 274.26 558.558 273.97C558.95 273.68 559.414 273.455 559.951 273.296C560.488 273.122 561.082 273.035 561.735 273.035C563.099 273.035 564.18 273.361 564.978 274.014C565.79 274.652 566.196 275.704 566.196 277.169V281.848C566.196 282.457 566.196 282.994 566.196 283.458C566.211 283.907 566.247 284.35 566.305 284.785H564.629C564.586 284.451 564.557 284.14 564.542 283.849C564.528 283.545 564.521 283.204 564.521 282.827C564.216 283.436 563.723 283.951 563.041 284.372C562.359 284.792 561.532 285.003 560.56 285.003ZM560.974 283.262C561.423 283.262 561.844 283.204 562.236 283.088C562.642 282.957 562.997 282.776 563.302 282.544C563.607 282.297 563.846 282 564.02 281.652C564.194 281.304 564.281 280.897 564.281 280.433V279.65H560.865C560.154 279.65 559.595 279.795 559.189 280.085C558.783 280.361 558.58 280.803 558.58 281.412C558.58 281.949 558.769 282.392 559.146 282.74C559.537 283.088 560.147 283.262 560.974 283.262ZM569.578 273.252H574.583C576.005 273.252 577.049 273.55 577.717 274.144C578.384 274.725 578.718 275.479 578.718 276.407C578.718 276.654 578.674 276.908 578.587 277.169C578.5 277.416 578.377 277.648 578.217 277.865C578.072 278.083 577.891 278.272 577.673 278.431C577.47 278.591 577.238 278.714 576.977 278.801C577.688 278.975 578.224 279.309 578.587 279.802C578.964 280.281 579.153 280.847 579.153 281.499C579.153 282.5 578.819 283.298 578.152 283.893C577.485 284.488 576.44 284.785 575.018 284.785H569.578V273.252ZM575.018 283.088C575.831 283.088 576.404 282.943 576.737 282.653C577.071 282.363 577.238 281.949 577.238 281.412C577.238 280.861 577.071 280.44 576.737 280.15C576.404 279.846 575.831 279.693 575.018 279.693H571.493V283.088H575.018ZM574.583 278.126C575.41 278.126 575.983 277.981 576.302 277.691C576.636 277.401 576.803 277.002 576.803 276.494C576.803 276.016 576.636 275.639 576.302 275.363C575.983 275.087 575.41 274.949 574.583 274.949H571.493V278.126H574.583ZM581.338 285.003C581.121 285.003 580.903 284.981 580.685 284.937V283.023C580.758 283.037 580.867 283.044 581.012 283.044C581.331 283.044 581.607 282.943 581.839 282.74C582.085 282.537 582.281 282.181 582.426 281.673C582.571 281.166 582.68 280.477 582.753 279.606C582.825 278.736 582.861 277.633 582.861 276.299V273.252H591.13V284.785H589.215V274.949H584.776V276.734C584.776 278.344 584.704 279.679 584.559 280.738C584.414 281.797 584.196 282.645 583.906 283.284C583.63 283.907 583.275 284.35 582.84 284.611C582.404 284.872 581.904 285.003 581.338 285.003ZM599.398 285.003C598.659 285.003 597.955 284.887 597.288 284.655C596.62 284.422 596.033 284.067 595.525 283.588C595.017 283.095 594.611 282.479 594.307 281.739C594.002 280.999 593.85 280.128 593.85 279.127V278.692C593.85 277.735 593.995 276.908 594.285 276.212C594.575 275.501 594.959 274.913 595.438 274.449C595.931 273.97 596.497 273.615 597.135 273.383C597.788 273.151 598.47 273.035 599.181 273.035C600.878 273.035 602.191 273.499 603.119 274.427C604.048 275.356 604.512 276.669 604.512 278.366V279.584H595.764C595.764 280.266 595.873 280.839 596.091 281.304C596.308 281.768 596.591 282.145 596.94 282.435C597.288 282.725 597.672 282.936 598.093 283.066C598.528 283.197 598.963 283.262 599.398 283.262C600.269 283.262 600.936 283.117 601.4 282.827C601.879 282.537 602.22 282.138 602.423 281.63H604.295C604.178 282.181 603.968 282.667 603.663 283.088C603.373 283.509 603.011 283.864 602.575 284.154C602.155 284.43 601.669 284.64 601.118 284.785C600.581 284.93 600.008 285.003 599.398 285.003ZM599.29 274.775C598.84 274.775 598.405 274.841 597.984 274.971C597.563 275.087 597.186 275.283 596.853 275.559C596.533 275.82 596.272 276.154 596.069 276.56C595.866 276.966 595.764 277.452 595.764 278.018H602.706C602.692 277.423 602.59 276.922 602.401 276.516C602.227 276.096 601.988 275.762 601.683 275.515C601.379 275.254 601.016 275.066 600.595 274.949C600.189 274.833 599.754 274.775 599.29 274.775ZM607.234 273.252H609.149V278.061H615.111V273.252H617.026V284.785H615.111V279.759H609.149V284.785H607.234V273.252ZM620.515 273.252H622.43V281.956L628.393 273.252H630.308V284.785H628.393V276.081L622.43 284.785H620.515V273.252ZM638.584 285.003C637.844 285.003 637.141 284.887 636.473 284.655C635.806 284.422 635.218 284.067 634.711 283.588C634.203 283.095 633.797 282.479 633.492 281.739C633.188 280.999 633.035 280.128 633.035 279.127V278.692C633.035 277.735 633.18 276.908 633.47 276.212C633.761 275.501 634.145 274.913 634.624 274.449C635.117 273.97 635.683 273.615 636.321 273.383C636.974 273.151 637.656 273.035 638.366 273.035C640.064 273.035 641.377 273.499 642.305 274.427C643.234 275.356 643.698 276.669 643.698 278.366V279.584H634.95C634.95 280.266 635.059 280.839 635.277 281.304C635.494 281.768 635.777 282.145 636.125 282.435C636.473 282.725 636.858 282.936 637.278 283.066C637.714 283.197 638.149 283.262 638.584 283.262C639.455 283.262 640.122 283.117 640.586 282.827C641.065 282.537 641.406 282.138 641.609 281.63H643.48C643.364 282.181 643.154 282.667 642.849 283.088C642.559 283.509 642.196 283.864 641.761 284.154C641.34 284.43 640.854 284.64 640.303 284.785C639.766 284.93 639.193 285.003 638.584 285.003ZM638.475 274.775C638.026 274.775 637.59 274.841 637.17 274.971C636.749 275.087 636.372 275.283 636.038 275.559C635.719 275.82 635.458 276.154 635.255 276.56C635.052 276.966 634.95 277.452 634.95 278.018H641.892C641.877 277.423 641.776 276.922 641.587 276.516C641.413 276.096 641.174 275.762 640.869 275.515C640.564 275.254 640.202 275.066 639.781 274.949C639.375 274.833 638.94 274.775 638.475 274.775Z" fill="black"/>
<rect x="494.368" y="239.285" width="171.333" height="74" stroke="#58A982"/>
<rect x="665.701" y="239.285" width="300" height="74" fill="#F1F7F5"/>
<path d="M774.613 283.001H776.245C776.521 282.45 776.753 281.768 776.942 280.955C777.13 280.143 777.275 279.273 777.377 278.344C777.478 277.401 777.551 276.436 777.594 275.45C777.638 274.449 777.66 273.499 777.66 272.599V269.553H787.561V283.001H789.41V287.614H787.452V284.785H776.572V287.614H774.613V283.001ZM785.515 283.001V271.337H779.662V273.035C779.662 275.24 779.56 277.147 779.357 278.758C779.168 280.368 778.856 281.782 778.421 283.001H785.515ZM795.1 285.003C794.462 285.003 793.896 284.916 793.403 284.742C792.924 284.553 792.518 284.299 792.184 283.98C791.85 283.661 791.596 283.284 791.422 282.848C791.248 282.413 791.161 281.935 791.161 281.412C791.161 280.266 791.495 279.439 792.162 278.932C792.844 278.424 793.816 278.17 795.078 278.17H798.821V277.387C798.821 276.4 798.596 275.718 798.146 275.341C797.711 274.964 797.051 274.775 796.166 274.775C795.339 274.775 794.737 274.935 794.36 275.254C793.983 275.559 793.773 275.907 793.729 276.299H791.814C791.843 275.834 791.966 275.406 792.184 275.015C792.416 274.609 792.721 274.26 793.098 273.97C793.49 273.68 793.954 273.455 794.491 273.296C795.027 273.122 795.622 273.035 796.275 273.035C797.639 273.035 798.719 273.361 799.517 274.014C800.33 274.652 800.736 275.704 800.736 277.169V281.848C800.736 282.457 800.736 282.994 800.736 283.458C800.75 283.907 800.787 284.35 800.845 284.785H799.169C799.126 284.451 799.097 284.14 799.082 283.849C799.068 283.545 799.06 283.204 799.06 282.827C798.756 283.436 798.262 283.951 797.581 284.372C796.899 284.792 796.072 285.003 795.1 285.003ZM795.513 283.262C795.963 283.262 796.384 283.204 796.775 283.088C797.182 282.957 797.537 282.776 797.842 282.544C798.146 282.297 798.386 282 798.56 281.652C798.734 281.304 798.821 280.897 798.821 280.433V279.65H795.405C794.694 279.65 794.135 279.795 793.729 280.085C793.323 280.361 793.12 280.803 793.12 281.412C793.12 281.949 793.308 282.392 793.685 282.74C794.077 283.088 794.686 283.262 795.513 283.262ZM804.118 273.252H806.033V278.061H811.995V273.252H813.91V284.785H811.995V279.759H806.033V284.785H804.118V273.252ZM817.4 273.252H819.314V278.061H825.277V273.252H827.192V284.785H825.277V279.759H819.314V284.785H817.4V273.252ZM830.681 273.252H832.596V277.604H834.924C836.375 277.604 837.441 277.923 838.123 278.562C838.819 279.2 839.168 280.085 839.168 281.216C839.168 282.319 838.819 283.189 838.123 283.828C837.441 284.466 836.375 284.785 834.924 284.785H830.681V273.252ZM834.815 283.088C835.715 283.088 836.346 282.928 836.709 282.609C837.071 282.29 837.253 281.818 837.253 281.195C837.253 280.571 837.071 280.099 836.709 279.78C836.346 279.461 835.715 279.302 834.815 279.302H832.596V283.088H834.815ZM840.952 273.252H842.867V284.785H840.952V273.252ZM851.13 285.003C850.39 285.003 849.686 284.887 849.019 284.655C848.352 284.422 847.764 284.067 847.256 283.588C846.749 283.095 846.342 282.479 846.038 281.739C845.733 280.999 845.581 280.128 845.581 279.127V278.692C845.581 277.735 845.726 276.908 846.016 276.212C846.306 275.501 846.691 274.913 847.169 274.449C847.663 273.97 848.228 273.615 848.867 273.383C849.519 273.151 850.201 273.035 850.912 273.035C852.609 273.035 853.922 273.499 854.851 274.427C855.779 275.356 856.243 276.669 856.243 278.366V279.584H847.496C847.496 280.266 847.605 280.839 847.822 281.304C848.04 281.768 848.323 282.145 848.671 282.435C849.019 282.725 849.403 282.936 849.824 283.066C850.259 283.197 850.695 283.262 851.13 283.262C852 283.262 852.667 283.117 853.132 282.827C853.61 282.537 853.951 282.138 854.154 281.63H856.026C855.91 282.181 855.699 282.667 855.395 283.088C855.105 283.509 854.742 283.864 854.307 284.154C853.886 284.43 853.4 284.64 852.849 284.785C852.312 284.93 851.739 285.003 851.13 285.003ZM851.021 274.775C850.571 274.775 850.136 274.841 849.715 274.971C849.295 275.087 848.917 275.283 848.584 275.559C848.265 275.82 848.004 276.154 847.8 276.56C847.597 276.966 847.496 277.452 847.496 278.018H854.437C854.423 277.423 854.321 276.922 854.133 276.516C853.959 276.096 853.719 275.762 853.415 275.515C853.11 275.254 852.747 275.066 852.327 274.949C851.92 274.833 851.485 274.775 851.021 274.775Z" fill="black"/>
<rect x="665.701" y="239.285" width="300" height="74" stroke="#58A982"/>
<rect x="965.701" y="239.285" width="279.5" height="74" fill="#DBEEE5"/>
<path d="M1039.12 273.003C1038.25 273.003 1037.4 272.858 1036.59 272.568C1035.78 272.263 1035.06 271.799 1034.44 271.175C1033.81 270.551 1033.31 269.753 1032.94 268.781C1032.56 267.809 1032.37 266.641 1032.37 265.278V264.843C1032.37 263.537 1032.56 262.413 1032.94 261.47C1033.31 260.527 1033.81 259.751 1034.44 259.141C1035.06 258.518 1035.78 258.061 1036.59 257.771C1037.4 257.48 1038.25 257.335 1039.12 257.335C1039.99 257.335 1040.83 257.48 1041.64 257.771C1042.45 258.061 1043.17 258.518 1043.79 259.141C1044.42 259.751 1044.92 260.527 1045.3 261.47C1045.67 262.413 1045.86 263.537 1045.86 264.843V265.278C1045.86 266.641 1045.67 267.809 1045.3 268.781C1044.92 269.753 1044.42 270.551 1043.79 271.175C1043.17 271.799 1042.45 272.263 1041.64 272.568C1040.83 272.858 1039.99 273.003 1039.12 273.003ZM1039.12 271.175C1039.71 271.175 1040.28 271.066 1040.83 270.848C1041.39 270.631 1041.87 270.29 1042.29 269.826C1042.71 269.347 1043.05 268.738 1043.29 267.998C1043.55 267.244 1043.69 266.337 1043.69 265.278V264.843C1043.69 263.842 1043.55 262.986 1043.29 262.275C1043.05 261.55 1042.71 260.962 1042.29 260.512C1041.87 260.048 1041.39 259.707 1040.83 259.49C1040.28 259.272 1039.71 259.163 1039.12 259.163C1038.52 259.163 1037.95 259.272 1037.4 259.49C1036.85 259.707 1036.36 260.048 1035.94 260.512C1035.52 260.962 1035.18 261.55 1034.92 262.275C1034.67 262.986 1034.55 263.842 1034.55 264.843V265.278C1034.55 266.337 1034.67 267.244 1034.92 267.998C1035.18 268.738 1035.52 269.347 1035.94 269.826C1036.36 270.29 1036.85 270.631 1037.4 270.848C1037.95 271.066 1038.52 271.175 1039.12 271.175ZM1053.7 273.003C1052.93 273.003 1052.21 272.858 1051.55 272.568C1050.89 272.277 1050.32 271.857 1049.83 271.305C1049.35 270.74 1048.96 270.051 1048.67 269.238C1048.4 268.426 1048.26 267.505 1048.26 266.475V266.039C1048.26 264.734 1048.35 263.573 1048.54 262.558C1048.73 261.528 1049.05 260.657 1049.5 259.947C1049.96 259.221 1050.57 258.655 1051.31 258.249C1052.06 257.843 1053 257.611 1054.14 257.553C1055.05 257.509 1055.85 257.473 1056.53 257.444C1057.21 257.401 1057.79 257.256 1058.27 257.009V258.859C1058.04 258.989 1057.61 259.091 1056.99 259.163C1056.38 259.236 1055.54 259.286 1054.46 259.315C1053.77 259.33 1053.15 259.417 1052.61 259.577C1052.09 259.736 1051.64 259.99 1051.26 260.338C1050.9 260.686 1050.61 261.143 1050.39 261.709C1050.19 262.26 1050.06 262.942 1050 263.755C1050.35 262.986 1050.89 262.376 1051.61 261.927C1052.34 261.477 1053.18 261.252 1054.14 261.252C1054.88 261.252 1055.55 261.383 1056.16 261.644C1056.77 261.89 1057.29 262.246 1057.73 262.71C1058.18 263.174 1058.52 263.747 1058.77 264.429C1059.02 265.096 1059.14 265.851 1059.14 266.692V267.127C1059.14 268.027 1059 268.839 1058.73 269.565C1058.45 270.275 1058.07 270.892 1057.6 271.414C1057.12 271.922 1056.54 272.314 1055.88 272.589C1055.21 272.865 1054.48 273.003 1053.7 273.003ZM1053.7 271.262C1054.72 271.262 1055.55 270.914 1056.2 270.217C1056.86 269.507 1057.18 268.477 1057.18 267.127V266.692C1057.18 266.126 1057.09 265.619 1056.92 265.169C1056.75 264.719 1056.51 264.335 1056.2 264.016C1055.9 263.682 1055.53 263.428 1055.09 263.254C1054.67 263.08 1054.21 262.993 1053.7 262.993C1053.19 262.993 1052.72 263.08 1052.29 263.254C1051.87 263.428 1051.5 263.682 1051.2 264.016C1050.89 264.335 1050.65 264.719 1050.48 265.169C1050.31 265.619 1050.22 266.126 1050.22 266.692V267.127C1050.22 267.766 1050.31 268.346 1050.48 268.868C1050.67 269.376 1050.92 269.811 1051.24 270.174C1051.56 270.522 1051.93 270.79 1052.35 270.979C1052.77 271.168 1053.22 271.262 1053.7 271.262ZM1061.85 261.252H1063.77V266.061H1069.73V261.252H1071.65V272.785H1069.73V267.759H1063.77V272.785H1061.85V261.252ZM1078.42 273.003C1077.78 273.003 1077.22 272.916 1076.72 272.742C1076.25 272.553 1075.84 272.299 1075.51 271.98C1075.17 271.661 1074.92 271.284 1074.74 270.848C1074.57 270.413 1074.48 269.935 1074.48 269.412C1074.48 268.266 1074.82 267.439 1075.48 266.932C1076.17 266.424 1077.14 266.17 1078.4 266.17H1082.14V265.387C1082.14 264.4 1081.92 263.718 1081.47 263.341C1081.03 262.964 1080.37 262.775 1079.49 262.775C1078.66 262.775 1078.06 262.935 1077.68 263.254C1077.3 263.559 1077.09 263.907 1077.05 264.299H1075.14C1075.17 263.834 1075.29 263.406 1075.51 263.015C1075.74 262.609 1076.04 262.26 1076.42 261.97C1076.81 261.68 1077.28 261.455 1077.81 261.296C1078.35 261.122 1078.94 261.035 1079.6 261.035C1080.96 261.035 1082.04 261.361 1082.84 262.014C1083.65 262.652 1084.06 263.704 1084.06 265.169V269.848C1084.06 270.457 1084.06 270.994 1084.06 271.458C1084.07 271.907 1084.11 272.35 1084.17 272.785H1082.49C1082.45 272.451 1082.42 272.14 1082.4 271.849C1082.39 271.545 1082.38 271.204 1082.38 270.827C1082.08 271.436 1081.58 271.951 1080.9 272.372C1080.22 272.792 1079.39 273.003 1078.42 273.003ZM1078.84 271.262C1079.28 271.262 1079.71 271.204 1080.1 271.088C1080.5 270.957 1080.86 270.776 1081.16 270.544C1081.47 270.297 1081.71 270 1081.88 269.652C1082.06 269.304 1082.14 268.897 1082.14 268.433V267.65H1078.73C1078.02 267.65 1077.46 267.795 1077.05 268.085C1076.64 268.361 1076.44 268.803 1076.44 269.412C1076.44 269.949 1076.63 270.392 1077.01 270.74C1077.4 271.088 1078.01 271.262 1078.84 271.262ZM1087.44 261.252H1089.22V263.428C1089.62 262.659 1090.16 262.072 1090.86 261.666C1091.57 261.245 1092.39 261.035 1093.32 261.035C1094.77 261.035 1095.93 261.513 1096.8 262.471C1097.67 263.414 1098.1 264.821 1098.1 266.692V267.127C1098.1 268.114 1097.99 268.977 1097.75 269.717C1097.52 270.442 1097.2 271.052 1096.78 271.545C1096.35 272.024 1095.85 272.386 1095.25 272.633C1094.67 272.879 1094.03 273.003 1093.32 273.003C1092.33 273.003 1091.5 272.785 1090.83 272.35C1090.18 271.915 1089.69 271.371 1089.35 270.718V277.137H1087.44V261.252ZM1092.88 271.305C1093.34 271.305 1093.78 271.218 1094.19 271.044C1094.59 270.856 1094.94 270.587 1095.23 270.239C1095.53 269.891 1095.77 269.456 1095.93 268.934C1096.1 268.411 1096.19 267.809 1096.19 267.127V266.692C1096.19 266.068 1096.1 265.51 1095.93 265.017C1095.77 264.523 1095.53 264.11 1095.23 263.776C1094.94 263.428 1094.59 263.167 1094.19 262.993C1093.78 262.819 1093.34 262.732 1092.88 262.732C1092.36 262.732 1091.88 262.819 1091.44 262.993C1091.01 263.153 1090.64 263.385 1090.33 263.689C1090.03 263.979 1089.79 264.328 1089.62 264.734C1089.44 265.14 1089.35 265.575 1089.35 266.039V267.78C1089.35 268.303 1089.44 268.781 1089.62 269.216C1089.79 269.652 1090.03 270.022 1090.33 270.326C1090.64 270.631 1091.01 270.87 1091.44 271.044C1091.88 271.218 1092.36 271.305 1092.88 271.305ZM1101.93 277.355C1101.71 277.355 1101.49 277.333 1101.27 277.29V275.549C1101.49 275.592 1101.71 275.614 1101.93 275.614C1102.14 275.614 1102.33 275.578 1102.49 275.505C1102.65 275.433 1102.8 275.295 1102.95 275.092C1103.09 274.889 1103.25 274.599 1103.41 274.221C1103.58 273.859 1103.78 273.38 1103.99 272.785L1099.1 261.252H1101.23L1104.97 270.609L1108.37 261.252H1110.41L1106.06 272.785C1105.76 273.598 1105.47 274.294 1105.19 274.874C1104.91 275.454 1104.62 275.926 1104.3 276.289C1103.99 276.666 1103.65 276.934 1103.28 277.094C1102.9 277.268 1102.45 277.355 1101.93 277.355ZM1115.95 266.845L1111.81 261.252H1113.94L1117.47 266.083H1118.8V261.252H1120.71V266.083H1122.02L1125.61 261.252H1127.7L1123.56 266.779L1127.92 272.785H1125.65L1122.02 267.737H1120.71V272.785H1118.8V267.737H1117.47L1113.81 272.785H1111.59L1115.95 266.845ZM1134.56 273.003C1133.82 273.003 1133.11 272.887 1132.45 272.655C1131.78 272.422 1131.19 272.067 1130.68 271.588C1130.18 271.095 1129.77 270.479 1129.47 269.739C1129.16 268.999 1129.01 268.128 1129.01 267.127V266.692C1129.01 265.735 1129.15 264.908 1129.44 264.212C1129.73 263.501 1130.12 262.913 1130.6 262.449C1131.09 261.97 1131.66 261.615 1132.29 261.383C1132.95 261.151 1133.63 261.035 1134.34 261.035C1136.04 261.035 1137.35 261.499 1138.28 262.427C1139.21 263.356 1139.67 264.669 1139.67 266.366V267.584H1130.92C1130.92 268.266 1131.03 268.839 1131.25 269.304C1131.47 269.768 1131.75 270.145 1132.1 270.435C1132.45 270.725 1132.83 270.936 1133.25 271.066C1133.69 271.197 1134.12 271.262 1134.56 271.262C1135.43 271.262 1136.1 271.117 1136.56 270.827C1137.04 270.537 1137.38 270.138 1137.58 269.63H1139.45C1139.34 270.181 1139.13 270.667 1138.82 271.088C1138.53 271.509 1138.17 271.864 1137.73 272.154C1137.31 272.43 1136.83 272.64 1136.28 272.785C1135.74 272.93 1135.17 273.003 1134.56 273.003ZM1134.45 262.775C1134 262.775 1133.56 262.841 1133.14 262.971C1132.72 263.087 1132.35 263.283 1132.01 263.559C1131.69 263.82 1131.43 264.154 1131.23 264.56C1131.03 264.966 1130.92 265.452 1130.92 266.018H1137.87C1137.85 265.423 1137.75 264.922 1137.56 264.516C1137.39 264.096 1137.15 263.762 1136.84 263.515C1136.54 263.254 1136.18 263.066 1135.75 262.949C1135.35 262.833 1134.91 262.775 1134.45 262.775ZM1142.39 261.252H1144.31V266.061H1150.27V261.252H1152.19V272.785H1150.27V267.759H1144.31V272.785H1142.39V261.252ZM1155.67 261.252H1157.59V269.956L1163.55 261.252H1165.47V272.785H1163.55V264.081L1157.59 272.785H1155.67V261.252ZM1173.74 273.003C1173 273.003 1172.3 272.887 1171.63 272.655C1170.97 272.422 1170.38 272.067 1169.87 271.588C1169.36 271.095 1168.96 270.479 1168.65 269.739C1168.35 268.999 1168.19 268.128 1168.19 267.127V266.692C1168.19 265.735 1168.34 264.908 1168.63 264.212C1168.92 263.501 1169.3 262.913 1169.78 262.449C1170.28 261.97 1170.84 261.615 1171.48 261.383C1172.13 261.151 1172.82 261.035 1173.53 261.035C1175.22 261.035 1176.54 261.499 1177.46 262.427C1178.39 263.356 1178.86 264.669 1178.86 266.366V267.584H1170.11C1170.11 268.266 1170.22 268.839 1170.44 269.304C1170.65 269.768 1170.94 270.145 1171.28 270.435C1171.63 270.725 1172.02 270.936 1172.44 271.066C1172.87 271.197 1173.31 271.262 1173.74 271.262C1174.61 271.262 1175.28 271.117 1175.75 270.827C1176.22 270.537 1176.57 270.138 1176.77 269.63H1178.64C1178.52 270.181 1178.31 270.667 1178.01 271.088C1177.72 271.509 1177.36 271.864 1176.92 272.154C1176.5 272.43 1176.01 272.64 1175.46 272.785C1174.93 272.93 1174.35 273.003 1173.74 273.003ZM1173.63 262.775C1173.19 262.775 1172.75 262.841 1172.33 262.971C1171.91 263.087 1171.53 263.283 1171.2 263.559C1170.88 263.82 1170.62 264.154 1170.41 264.56C1170.21 264.966 1170.11 265.452 1170.11 266.018H1177.05C1177.04 265.423 1176.94 264.922 1176.75 264.516C1176.57 264.096 1176.33 263.762 1176.03 263.515C1175.72 263.254 1175.36 263.066 1174.94 262.949C1174.53 262.833 1174.1 262.775 1173.63 262.775ZM1070.75 297.003C1070.01 297.003 1069.31 296.887 1068.64 296.655C1067.98 296.408 1067.39 296.045 1066.88 295.567C1066.37 295.073 1065.97 294.457 1065.66 293.717C1065.36 292.977 1065.2 292.114 1065.2 291.127V290.692C1065.2 289.764 1065.36 288.944 1065.66 288.233C1065.97 287.523 1066.37 286.935 1066.88 286.471C1067.39 285.992 1067.98 285.637 1068.64 285.404C1069.31 285.158 1070.01 285.035 1070.75 285.035C1071.49 285.035 1072.2 285.158 1072.86 285.404C1073.53 285.637 1074.12 285.992 1074.63 286.471C1075.13 286.935 1075.54 287.523 1075.85 288.233C1076.15 288.944 1076.3 289.764 1076.3 290.692V291.127C1076.3 292.114 1076.15 292.977 1075.85 293.717C1075.54 294.457 1075.13 295.073 1074.63 295.567C1074.12 296.045 1073.53 296.408 1072.86 296.655C1072.2 296.887 1071.49 297.003 1070.75 297.003ZM1070.75 295.262C1071.19 295.262 1071.62 295.189 1072.06 295.044C1072.49 294.885 1072.88 294.645 1073.21 294.326C1073.55 293.993 1073.81 293.565 1074.02 293.042C1074.24 292.52 1074.34 291.882 1074.34 291.127V290.692C1074.34 289.996 1074.24 289.401 1074.02 288.908C1073.81 288.415 1073.55 288.008 1073.21 287.689C1072.88 287.37 1072.49 287.138 1072.06 286.993C1071.62 286.848 1071.19 286.775 1070.75 286.775C1070.32 286.775 1069.88 286.848 1069.45 286.993C1069.01 287.138 1068.63 287.37 1068.29 287.689C1067.96 288.008 1067.69 288.415 1067.47 288.908C1067.26 289.401 1067.16 289.996 1067.16 290.692V291.127C1067.16 291.882 1067.26 292.52 1067.47 293.042C1067.69 293.565 1067.96 293.993 1068.29 294.326C1068.63 294.645 1069.01 294.885 1069.45 295.044C1069.88 295.189 1070.32 295.262 1070.75 295.262ZM1079.01 285.252H1080.93V295.088H1085.13V285.252H1087.04V295.088H1091.24V285.252H1093.16V296.785H1079.01V285.252ZM1096.63 285.252H1098.55V293.956L1104.51 285.252H1106.42V296.785H1104.51V288.081L1098.55 296.785H1096.63V285.252ZM1114.7 297.003C1113.93 297.003 1113.21 296.858 1112.55 296.568C1111.89 296.277 1111.32 295.857 1110.83 295.305C1110.35 294.74 1109.96 294.051 1109.67 293.238C1109.4 292.426 1109.26 291.505 1109.26 290.475V290.039C1109.26 288.734 1109.35 287.573 1109.54 286.558C1109.73 285.528 1110.05 284.657 1110.5 283.947C1110.96 283.221 1111.57 282.655 1112.31 282.249C1113.06 281.843 1114 281.611 1115.13 281.553C1116.05 281.509 1116.85 281.473 1117.53 281.444C1118.21 281.401 1118.79 281.256 1119.27 281.009V282.859C1119.04 282.989 1118.61 283.091 1117.99 283.163C1117.38 283.236 1116.53 283.286 1115.46 283.315C1114.76 283.33 1114.15 283.417 1113.61 283.577C1113.09 283.736 1112.64 283.99 1112.26 284.338C1111.9 284.686 1111.61 285.143 1111.39 285.709C1111.19 286.26 1111.06 286.942 1111 287.755C1111.35 286.986 1111.89 286.376 1112.61 285.927C1113.34 285.477 1114.18 285.252 1115.13 285.252C1115.87 285.252 1116.55 285.383 1117.16 285.644C1117.77 285.89 1118.29 286.246 1118.73 286.71C1119.17 287.174 1119.52 287.747 1119.77 288.429C1120.02 289.096 1120.14 289.851 1120.14 290.692V291.127C1120.14 292.027 1120 292.839 1119.73 293.565C1119.45 294.275 1119.07 294.892 1118.59 295.414C1118.12 295.922 1117.54 296.314 1116.88 296.589C1116.21 296.865 1115.48 297.003 1114.7 297.003ZM1114.7 295.262C1115.71 295.262 1116.55 294.914 1117.2 294.217C1117.85 293.507 1118.18 292.477 1118.18 291.127V290.692C1118.18 290.126 1118.09 289.619 1117.92 289.169C1117.75 288.719 1117.51 288.335 1117.2 288.016C1116.9 287.682 1116.53 287.428 1116.09 287.254C1115.67 287.08 1115.21 286.993 1114.7 286.993C1114.19 286.993 1113.72 287.08 1113.29 287.254C1112.86 287.428 1112.5 287.682 1112.2 288.016C1111.89 288.335 1111.65 288.719 1111.48 289.169C1111.3 289.619 1111.22 290.126 1111.22 290.692V291.127C1111.22 291.766 1111.3 292.346 1111.48 292.868C1111.67 293.376 1111.92 293.811 1112.24 294.174C1112.56 294.522 1112.93 294.79 1113.35 294.979C1113.77 295.168 1114.22 295.262 1114.7 295.262ZM1127.64 297.003C1126.9 297.003 1126.2 296.887 1125.53 296.655C1124.86 296.408 1124.28 296.045 1123.77 295.567C1123.26 295.073 1122.85 294.457 1122.55 293.717C1122.24 292.977 1122.09 292.114 1122.09 291.127V290.692C1122.09 289.764 1122.24 288.944 1122.55 288.233C1122.85 287.523 1123.26 286.935 1123.77 286.471C1124.28 285.992 1124.86 285.637 1125.53 285.404C1126.2 285.158 1126.9 285.035 1127.64 285.035C1128.38 285.035 1129.08 285.158 1129.75 285.404C1130.42 285.637 1131.01 285.992 1131.51 286.471C1132.02 286.935 1132.43 287.523 1132.73 288.233C1133.04 288.944 1133.19 289.764 1133.19 290.692V291.127C1133.19 292.114 1133.04 292.977 1132.73 293.717C1132.43 294.457 1132.02 295.073 1131.51 295.567C1131.01 296.045 1130.42 296.408 1129.75 296.655C1129.08 296.887 1128.38 297.003 1127.64 297.003ZM1127.64 295.262C1128.08 295.262 1128.51 295.189 1128.95 295.044C1129.38 294.885 1129.77 294.645 1130.1 294.326C1130.43 293.993 1130.7 293.565 1130.9 293.042C1131.12 292.52 1131.23 291.882 1131.23 291.127V290.692C1131.23 289.996 1131.12 289.401 1130.9 288.908C1130.7 288.415 1130.43 288.008 1130.1 287.689C1129.77 287.37 1129.38 287.138 1128.95 286.993C1128.51 286.848 1128.08 286.775 1127.64 286.775C1127.21 286.775 1126.77 286.848 1126.34 286.993C1125.9 287.138 1125.52 287.37 1125.18 287.689C1124.85 288.008 1124.57 288.415 1124.36 288.908C1124.15 289.401 1124.05 289.996 1124.05 290.692V291.127C1124.05 291.882 1124.15 292.52 1124.36 293.042C1124.57 293.565 1124.85 293.993 1125.18 294.326C1125.52 294.645 1125.9 294.885 1126.34 295.044C1126.77 295.189 1127.21 295.262 1127.64 295.262ZM1135.9 285.252H1137.82V290.083H1139.34L1143.65 285.252H1145.91L1140.91 290.779L1146.13 296.785H1143.69L1139.34 291.737H1137.82V296.785H1135.9V285.252Z" fill="black"/>
<rect x="965.701" y="239.285" width="279.5" height="74" stroke="#58A982"/>
<rect x="1245.2" y="239.285" width="279.5" height="74" fill="#DBEEE5"/>
<path d="M1316.32 269.553H1318.37V276.103H1320.11L1326.07 269.553H1328.51L1321.85 276.821L1328.72 284.785H1326.11L1320.11 277.8H1318.37V284.785H1316.32V269.553ZM1335.48 285.003C1334.74 285.003 1334.04 284.887 1333.37 284.655C1332.71 284.408 1332.12 284.045 1331.61 283.567C1331.1 283.073 1330.7 282.457 1330.39 281.717C1330.09 280.977 1329.94 280.114 1329.94 279.127V278.692C1329.94 277.764 1330.09 276.944 1330.39 276.233C1330.7 275.523 1331.1 274.935 1331.61 274.471C1332.12 273.992 1332.71 273.637 1333.37 273.404C1334.04 273.158 1334.74 273.035 1335.48 273.035C1336.22 273.035 1336.93 273.158 1337.6 273.404C1338.26 273.637 1338.85 273.992 1339.36 274.471C1339.87 274.935 1340.27 275.523 1340.58 276.233C1340.88 276.944 1341.03 277.764 1341.03 278.692V279.127C1341.03 280.114 1340.88 280.977 1340.58 281.717C1340.27 282.457 1339.87 283.073 1339.36 283.567C1338.85 284.045 1338.26 284.408 1337.6 284.655C1336.93 284.887 1336.22 285.003 1335.48 285.003ZM1335.48 283.262C1335.92 283.262 1336.36 283.189 1336.79 283.044C1337.23 282.885 1337.61 282.645 1337.94 282.326C1338.28 281.993 1338.55 281.565 1338.75 281.042C1338.97 280.52 1339.08 279.882 1339.08 279.127V278.692C1339.08 277.996 1338.97 277.401 1338.75 276.908C1338.55 276.415 1338.28 276.008 1337.94 275.689C1337.61 275.37 1337.23 275.138 1336.79 274.993C1336.36 274.848 1335.92 274.775 1335.48 274.775C1335.05 274.775 1334.61 274.848 1334.18 274.993C1333.74 275.138 1333.36 275.37 1333.03 275.689C1332.69 276.008 1332.42 276.415 1332.2 276.908C1332 277.401 1331.89 277.996 1331.89 278.692V279.127C1331.89 279.882 1332 280.52 1332.2 281.042C1332.42 281.565 1332.69 281.993 1333.03 282.326C1333.36 282.645 1333.74 282.885 1334.18 283.044C1334.61 283.189 1335.05 283.262 1335.48 283.262ZM1343.75 273.252H1345.66V278.061H1351.62V273.252H1353.54V284.785H1351.62V279.759H1345.66V284.785H1343.75V273.252ZM1361.81 285.003C1361.07 285.003 1360.37 284.887 1359.7 284.655C1359.04 284.422 1358.45 284.067 1357.94 283.588C1357.43 283.095 1357.03 282.479 1356.72 281.739C1356.42 280.999 1356.27 280.128 1356.27 279.127V278.692C1356.27 277.735 1356.41 276.908 1356.7 276.212C1356.99 275.501 1357.37 274.913 1357.85 274.449C1358.35 273.97 1358.91 273.615 1359.55 273.383C1360.2 273.151 1360.89 273.035 1361.6 273.035C1363.29 273.035 1364.61 273.499 1365.53 274.427C1366.46 275.356 1366.93 276.669 1366.93 278.366V279.584H1358.18C1358.18 280.266 1358.29 280.839 1358.51 281.304C1358.72 281.768 1359.01 282.145 1359.36 282.435C1359.7 282.725 1360.09 282.936 1360.51 283.066C1360.94 283.197 1361.38 283.262 1361.81 283.262C1362.68 283.262 1363.35 283.117 1363.82 282.827C1364.29 282.537 1364.64 282.138 1364.84 281.63H1366.71C1366.59 282.181 1366.38 282.667 1366.08 283.088C1365.79 283.509 1365.43 283.864 1364.99 284.154C1364.57 284.43 1364.08 284.64 1363.53 284.785C1363 284.93 1362.42 285.003 1361.81 285.003ZM1361.71 274.775C1361.26 274.775 1360.82 274.841 1360.4 274.971C1359.98 275.087 1359.6 275.283 1359.27 275.559C1358.95 275.82 1358.69 276.154 1358.48 276.56C1358.28 276.966 1358.18 277.452 1358.18 278.018H1365.12C1365.11 277.423 1365.01 276.922 1364.82 276.516C1364.64 276.096 1364.4 275.762 1364.1 275.515C1363.79 275.254 1363.43 275.066 1363.01 274.949C1362.6 274.833 1362.17 274.775 1361.71 274.775ZM1379.03 284.785H1369.65V273.252H1371.56V283.088H1377.09V273.252H1379.01V283.088H1380.86V287.505H1379.03V284.785ZM1394.02 273.252H1395.94V278.083H1397.46L1401.77 273.252H1404.03L1399.03 278.779L1404.25 284.785H1401.81L1397.46 279.737H1395.94V284.785H1394.02V273.252ZM1409.61 285.003C1408.97 285.003 1408.41 284.916 1407.92 284.742C1407.44 284.553 1407.03 284.299 1406.7 283.98C1406.36 283.661 1406.11 283.284 1405.94 282.848C1405.76 282.413 1405.67 281.935 1405.67 281.412C1405.67 280.266 1406.01 279.439 1406.68 278.932C1407.36 278.424 1408.33 278.17 1409.59 278.17H1413.33V277.387C1413.33 276.4 1413.11 275.718 1412.66 275.341C1412.22 274.964 1411.56 274.775 1410.68 274.775C1409.85 274.775 1409.25 274.935 1408.87 275.254C1408.5 275.559 1408.29 275.907 1408.24 276.299H1406.33C1406.36 275.834 1406.48 275.406 1406.7 275.015C1406.93 274.609 1407.23 274.26 1407.61 273.97C1408 273.68 1408.47 273.455 1409 273.296C1409.54 273.122 1410.14 273.035 1410.79 273.035C1412.15 273.035 1413.23 273.361 1414.03 274.014C1414.84 274.652 1415.25 275.704 1415.25 277.169V281.848C1415.25 282.457 1415.25 282.994 1415.25 283.458C1415.26 283.907 1415.3 284.35 1415.36 284.785H1413.68C1413.64 284.451 1413.61 284.14 1413.6 283.849C1413.58 283.545 1413.57 283.204 1413.57 282.827C1413.27 283.436 1412.78 283.951 1412.09 284.372C1411.41 284.792 1410.59 285.003 1409.61 285.003ZM1410.03 283.262C1410.48 283.262 1410.9 283.204 1411.29 283.088C1411.7 282.957 1412.05 282.776 1412.36 282.544C1412.66 282.297 1412.9 282 1413.07 281.652C1413.25 281.304 1413.33 280.897 1413.33 280.433V279.65H1409.92C1409.21 279.65 1408.65 279.795 1408.24 280.085C1407.84 280.361 1407.63 280.803 1407.63 281.412C1407.63 281.949 1407.82 282.392 1408.2 282.74C1408.59 283.088 1409.2 283.262 1410.03 283.262ZM1417.33 283.088H1418.74C1418.9 282.87 1419.04 282.537 1419.18 282.087C1419.31 281.637 1419.42 281.108 1419.52 280.498C1419.63 279.889 1419.7 279.229 1419.74 278.518C1419.8 277.793 1419.83 277.053 1419.83 276.299V273.252H1427.88V283.088H1429.51V287.505H1427.68V284.785H1419.15V287.505H1417.33V283.088ZM1425.96 283.088V274.949H1421.7V276.734C1421.7 277.343 1421.68 277.952 1421.63 278.562C1421.59 279.156 1421.53 279.73 1421.44 280.281C1421.35 280.818 1421.24 281.333 1421.11 281.826C1421 282.304 1420.86 282.725 1420.7 283.088H1425.96ZM1431.81 273.252H1433.59V275.428C1433.98 274.659 1434.53 274.072 1435.22 273.666C1435.93 273.245 1436.75 273.035 1437.68 273.035C1439.13 273.035 1440.29 273.513 1441.16 274.471C1442.03 275.414 1442.47 276.821 1442.47 278.692V279.127C1442.47 280.114 1442.35 280.977 1442.12 281.717C1441.89 282.442 1441.56 283.052 1441.14 283.545C1440.72 284.024 1440.21 284.386 1439.62 284.633C1439.04 284.879 1438.39 285.003 1437.68 285.003C1436.7 285.003 1435.87 284.785 1435.2 284.35C1434.55 283.915 1434.06 283.371 1433.72 282.718V289.137H1431.81V273.252ZM1437.25 283.305C1437.71 283.305 1438.15 283.218 1438.55 283.044C1438.96 282.856 1439.31 282.587 1439.6 282.239C1439.9 281.891 1440.13 281.456 1440.29 280.934C1440.47 280.411 1440.55 279.809 1440.55 279.127V278.692C1440.55 278.068 1440.47 277.51 1440.29 277.017C1440.13 276.523 1439.9 276.11 1439.6 275.776C1439.31 275.428 1438.96 275.167 1438.55 274.993C1438.15 274.819 1437.71 274.732 1437.25 274.732C1436.72 274.732 1436.25 274.819 1435.81 274.993C1435.38 275.153 1435.01 275.385 1434.7 275.689C1434.4 275.979 1434.16 276.328 1433.98 276.734C1433.81 277.14 1433.72 277.575 1433.72 278.039V279.78C1433.72 280.303 1433.81 280.781 1433.98 281.216C1434.16 281.652 1434.4 282.022 1434.7 282.326C1435.01 282.631 1435.38 282.87 1435.81 283.044C1436.25 283.218 1436.72 283.305 1437.25 283.305ZM1448.48 285.003C1447.84 285.003 1447.28 284.916 1446.78 284.742C1446.3 284.553 1445.9 284.299 1445.56 283.98C1445.23 283.661 1444.98 283.284 1444.8 282.848C1444.63 282.413 1444.54 281.935 1444.54 281.412C1444.54 280.266 1444.88 279.439 1445.54 278.932C1446.22 278.424 1447.2 278.17 1448.46 278.17H1452.2V277.387C1452.2 276.4 1451.98 275.718 1451.53 275.341C1451.09 274.964 1450.43 274.775 1449.55 274.775C1448.72 274.775 1448.12 274.935 1447.74 275.254C1447.36 275.559 1447.15 275.907 1447.11 276.299H1445.19C1445.22 275.834 1445.35 275.406 1445.56 275.015C1445.8 274.609 1446.1 274.26 1446.48 273.97C1446.87 273.68 1447.33 273.455 1447.87 273.296C1448.41 273.122 1449 273.035 1449.66 273.035C1451.02 273.035 1452.1 273.361 1452.9 274.014C1453.71 274.652 1454.12 275.704 1454.12 277.169V281.848C1454.12 282.457 1454.12 282.994 1454.12 283.458C1454.13 283.907 1454.17 284.35 1454.22 284.785H1452.55C1452.51 284.451 1452.48 284.14 1452.46 283.849C1452.45 283.545 1452.44 283.204 1452.44 282.827C1452.14 283.436 1451.64 283.951 1450.96 284.372C1450.28 284.792 1449.45 285.003 1448.48 285.003ZM1448.89 283.262C1449.34 283.262 1449.76 283.204 1450.16 283.088C1450.56 282.957 1450.92 282.776 1451.22 282.544C1451.53 282.297 1451.77 282 1451.94 281.652C1452.11 281.304 1452.2 280.897 1452.2 280.433V279.65H1448.78C1448.07 279.65 1447.52 279.795 1447.11 280.085C1446.7 280.361 1446.5 280.803 1446.5 281.412C1446.5 281.949 1446.69 282.392 1447.07 282.74C1447.46 283.088 1448.07 283.262 1448.89 283.262Z" fill="black"/>
<rect x="1245.2" y="239.285" width="279.5" height="74" stroke="#58A982"/>
<g style="mix-blend-mode:multiply">
<path d="M650.202 239.283H75.2988L212.951 145.785H512.951L650.202 239.283Z" fill="url(#paint0_radial_374_105803)"/>
</g>
<g style="mix-blend-mode:multiply">
<path d="M1521.9 239.283H947L1084.65 145.785H1384.65L1521.9 239.283Z" fill="url(#paint1_radial_374_105803)"/>
</g>
<rect x="214.902" y="100.785" width="300" height="45" fill="#ABD4C1"/>
<path d="M315.638 132.003C314.738 132.003 313.94 131.894 313.244 131.676C312.548 131.444 311.953 131.125 311.46 130.719C310.967 130.313 310.575 129.834 310.285 129.283C309.995 128.717 309.82 128.1 309.762 127.433H311.808C311.924 128.26 312.316 128.927 312.983 129.435C313.65 129.928 314.535 130.175 315.638 130.175C316.987 130.175 317.959 129.936 318.554 129.457C319.163 128.978 319.468 128.333 319.468 127.52C319.468 126.737 319.177 126.091 318.597 125.583C318.017 125.061 317.067 124.8 315.747 124.8H313.679V123.103H315.747C316.835 123.103 317.632 122.871 318.14 122.406C318.662 121.928 318.924 121.326 318.924 120.6C318.924 119.875 318.648 119.287 318.097 118.838C317.545 118.388 316.726 118.163 315.638 118.163C314.477 118.163 313.621 118.388 313.07 118.838C312.533 119.273 312.221 119.853 312.134 120.579H310.089C310.147 119.969 310.299 119.404 310.546 118.881C310.807 118.359 311.17 117.909 311.634 117.532C312.098 117.155 312.664 116.865 313.331 116.662C313.998 116.444 314.767 116.335 315.638 116.335C317.393 116.335 318.72 116.727 319.62 117.51C320.519 118.294 320.969 119.324 320.969 120.6C320.969 121.398 320.737 122.08 320.273 122.646C319.823 123.197 319.221 123.596 318.467 123.843C319.381 124.06 320.113 124.481 320.664 125.105C321.23 125.729 321.513 126.534 321.513 127.52C321.513 128.173 321.382 128.775 321.121 129.326C320.875 129.863 320.498 130.334 319.99 130.741C319.497 131.132 318.887 131.444 318.162 131.676C317.437 131.894 316.595 132.003 315.638 132.003ZM327.598 132.003C326.96 132.003 326.394 131.916 325.901 131.742C325.422 131.553 325.016 131.299 324.682 130.98C324.349 130.661 324.095 130.284 323.921 129.848C323.747 129.413 323.66 128.935 323.66 128.412C323.66 127.266 323.993 126.439 324.661 125.932C325.342 125.424 326.314 125.17 327.577 125.17H331.319V124.387C331.319 123.4 331.094 122.718 330.645 122.341C330.21 121.964 329.549 121.775 328.665 121.775C327.838 121.775 327.236 121.935 326.858 122.254C326.481 122.559 326.271 122.907 326.227 123.299H324.312C324.342 122.834 324.465 122.406 324.682 122.015C324.915 121.609 325.219 121.26 325.596 120.97C325.988 120.68 326.452 120.455 326.989 120.296C327.526 120.122 328.121 120.035 328.773 120.035C330.137 120.035 331.218 120.361 332.016 121.014C332.828 121.652 333.234 122.704 333.234 124.169V128.848C333.234 129.457 333.234 129.994 333.234 130.458C333.249 130.907 333.285 131.35 333.343 131.785H331.667C331.624 131.451 331.595 131.14 331.58 130.849C331.566 130.545 331.559 130.204 331.559 129.827C331.254 130.436 330.761 130.951 330.079 131.372C329.397 131.792 328.57 132.003 327.598 132.003ZM328.012 130.262C328.461 130.262 328.882 130.204 329.274 130.088C329.68 129.957 330.035 129.776 330.34 129.544C330.645 129.297 330.884 129 331.058 128.652C331.232 128.304 331.319 127.897 331.319 127.433V126.65H327.903C327.192 126.65 326.634 126.795 326.227 127.085C325.821 127.361 325.618 127.803 325.618 128.412C325.618 128.949 325.807 129.392 326.184 129.74C326.576 130.088 327.185 130.262 328.012 130.262ZM336.616 120.252H344.45V121.949H338.531V131.785H336.616V120.252ZM351.2 132.003C350.46 132.003 349.757 131.887 349.089 131.655C348.422 131.408 347.835 131.045 347.327 130.567C346.819 130.073 346.413 129.457 346.108 128.717C345.804 127.977 345.651 127.114 345.651 126.127V125.692C345.651 124.764 345.804 123.944 346.108 123.233C346.413 122.523 346.819 121.935 347.327 121.471C347.835 120.992 348.422 120.637 349.089 120.404C349.757 120.158 350.46 120.035 351.2 120.035C351.94 120.035 352.644 120.158 353.311 120.404C353.978 120.637 354.566 120.992 355.073 121.471C355.581 121.935 355.987 122.523 356.292 123.233C356.597 123.944 356.749 124.764 356.749 125.692V126.127C356.749 127.114 356.597 127.977 356.292 128.717C355.987 129.457 355.581 130.073 355.073 130.567C354.566 131.045 353.978 131.408 353.311 131.655C352.644 131.887 351.94 132.003 351.2 132.003ZM351.2 130.262C351.635 130.262 352.071 130.189 352.506 130.044C352.941 129.885 353.325 129.645 353.659 129.326C353.993 128.993 354.261 128.565 354.464 128.042C354.682 127.52 354.791 126.882 354.791 126.127V125.692C354.791 124.996 354.682 124.401 354.464 123.908C354.261 123.415 353.993 123.008 353.659 122.689C353.325 122.37 352.941 122.138 352.506 121.993C352.071 121.848 351.635 121.775 351.2 121.775C350.765 121.775 350.33 121.848 349.895 121.993C349.459 122.138 349.075 122.37 348.741 122.689C348.408 123.008 348.132 123.415 347.914 123.908C347.711 124.401 347.61 124.996 347.61 125.692V126.127C347.61 126.882 347.711 127.52 347.914 128.042C348.132 128.565 348.408 128.993 348.741 129.326C349.075 129.645 349.459 129.885 349.895 130.044C350.33 130.189 350.765 130.262 351.2 130.262ZM358.704 132.003C358.486 132.003 358.269 131.981 358.051 131.937V130.023C358.124 130.037 358.233 130.044 358.378 130.044C358.697 130.044 358.972 129.943 359.205 129.74C359.451 129.537 359.647 129.181 359.792 128.673C359.937 128.166 360.046 127.477 360.118 126.606C360.191 125.736 360.227 124.633 360.227 123.299V120.252H368.496V131.785H366.581V121.949H362.142V123.734C362.142 125.344 362.07 126.679 361.925 127.738C361.78 128.797 361.562 129.645 361.272 130.284C360.996 130.907 360.641 131.35 360.206 131.611C359.77 131.872 359.27 132.003 358.704 132.003ZM376.764 132.003C376.024 132.003 375.321 131.887 374.654 131.655C373.986 131.408 373.399 131.045 372.891 130.567C372.383 130.073 371.977 129.457 371.672 128.717C371.368 127.977 371.215 127.114 371.215 126.127V125.692C371.215 124.764 371.368 123.944 371.672 123.233C371.977 122.523 372.383 121.935 372.891 121.471C373.399 120.992 373.986 120.637 374.654 120.404C375.321 120.158 376.024 120.035 376.764 120.035C377.504 120.035 378.208 120.158 378.875 120.404C379.542 120.637 380.13 120.992 380.638 121.471C381.145 121.935 381.552 122.523 381.856 123.233C382.161 123.944 382.313 124.764 382.313 125.692V126.127C382.313 127.114 382.161 127.977 381.856 128.717C381.552 129.457 381.145 130.073 380.638 130.567C380.13 131.045 379.542 131.408 378.875 131.655C378.208 131.887 377.504 132.003 376.764 132.003ZM376.764 130.262C377.199 130.262 377.635 130.189 378.07 130.044C378.505 129.885 378.89 129.645 379.223 129.326C379.557 128.993 379.825 128.565 380.028 128.042C380.246 127.52 380.355 126.882 380.355 126.127V125.692C380.355 124.996 380.246 124.401 380.028 123.908C379.825 123.415 379.557 123.008 379.223 122.689C378.89 122.37 378.505 122.138 378.07 121.993C377.635 121.848 377.199 121.775 376.764 121.775C376.329 121.775 375.894 121.848 375.459 121.993C375.023 122.138 374.639 122.37 374.305 122.689C373.972 123.008 373.696 123.415 373.478 123.908C373.275 124.401 373.174 124.996 373.174 125.692V126.127C373.174 126.882 373.275 127.52 373.478 128.042C373.696 128.565 373.972 128.993 374.305 129.326C374.639 129.645 375.023 129.885 375.459 130.044C375.894 130.189 376.329 130.262 376.764 130.262ZM385.025 120.252H390.03C391.451 120.252 392.496 120.55 393.163 121.144C393.83 121.725 394.164 122.479 394.164 123.407C394.164 123.654 394.121 123.908 394.034 124.169C393.946 124.416 393.823 124.648 393.664 124.865C393.519 125.083 393.337 125.272 393.12 125.431C392.916 125.591 392.684 125.714 392.423 125.801C393.134 125.975 393.671 126.309 394.034 126.802C394.411 127.281 394.599 127.847 394.599 128.499C394.599 129.5 394.266 130.298 393.598 130.893C392.931 131.488 391.886 131.785 390.465 131.785H385.025V120.252ZM390.465 130.088C391.277 130.088 391.85 129.943 392.184 129.653C392.518 129.363 392.684 128.949 392.684 128.412C392.684 127.861 392.518 127.44 392.184 127.15C391.85 126.846 391.277 126.693 390.465 126.693H386.94V130.088H390.465ZM390.03 125.126C390.856 125.126 391.43 124.981 391.749 124.691C392.082 124.401 392.249 124.002 392.249 123.494C392.249 123.016 392.082 122.639 391.749 122.363C391.43 122.087 390.856 121.949 390.03 121.949H386.94V125.126H390.03ZM402.116 132.003C401.376 132.003 400.672 131.887 400.005 131.655C399.338 131.408 398.75 131.045 398.243 130.567C397.735 130.073 397.329 129.457 397.024 128.717C396.719 127.977 396.567 127.114 396.567 126.127V125.692C396.567 124.764 396.719 123.944 397.024 123.233C397.329 122.523 397.735 121.935 398.243 121.471C398.75 120.992 399.338 120.637 400.005 120.404C400.672 120.158 401.376 120.035 402.116 120.035C402.856 120.035 403.559 120.158 404.227 120.404C404.894 120.637 405.482 120.992 405.989 121.471C406.497 121.935 406.903 122.523 407.208 123.233C407.513 123.944 407.665 124.764 407.665 125.692V126.127C407.665 127.114 407.513 127.977 407.208 128.717C406.903 129.457 406.497 130.073 405.989 130.567C405.482 131.045 404.894 131.408 404.227 131.655C403.559 131.887 402.856 132.003 402.116 132.003ZM402.116 130.262C402.551 130.262 402.986 130.189 403.422 130.044C403.857 129.885 404.241 129.645 404.575 129.326C404.909 128.993 405.177 128.565 405.38 128.042C405.598 127.52 405.706 126.882 405.706 126.127V125.692C405.706 124.996 405.598 124.401 405.38 123.908C405.177 123.415 404.909 123.008 404.575 122.689C404.241 122.37 403.857 122.138 403.422 121.993C402.986 121.848 402.551 121.775 402.116 121.775C401.681 121.775 401.246 121.848 400.81 121.993C400.375 122.138 399.991 122.37 399.657 122.689C399.323 123.008 399.048 123.415 398.83 123.908C398.627 124.401 398.525 124.996 398.525 125.692V126.127C398.525 126.882 398.627 127.52 398.83 128.042C399.048 128.565 399.323 128.993 399.657 129.326C399.991 129.645 400.375 129.885 400.81 130.044C401.246 130.189 401.681 130.262 402.116 130.262ZM410.376 120.252H412.291V125.083H413.815L418.123 120.252H420.386L415.381 125.779L420.604 131.785H418.167L413.815 126.737H412.291V131.785H410.376V120.252Z" fill="black"/>
<rect x="214.902" y="100.785" width="300" height="45" stroke="#58A982"/>
<rect x="514.902" y="100.785" width="570" height="45" fill="#F1F7F5"/>
<path d="M718.926 116.553H730.894V131.785H728.849V118.337H720.971V131.785H718.926V116.553ZM738.097 132.003C737.458 132.003 736.893 131.916 736.399 131.742C735.921 131.553 735.514 131.299 735.181 130.98C734.847 130.661 734.593 130.284 734.419 129.848C734.245 129.413 734.158 128.935 734.158 128.412C734.158 127.266 734.492 126.439 735.159 125.932C735.841 125.424 736.813 125.17 738.075 125.17H741.818V124.387C741.818 123.4 741.593 122.718 741.143 122.341C740.708 121.964 740.048 121.775 739.163 121.775C738.336 121.775 737.734 121.935 737.357 122.254C736.98 122.559 736.769 122.907 736.726 123.299H734.811C734.84 122.834 734.963 122.406 735.181 122.015C735.413 121.609 735.718 121.26 736.095 120.97C736.486 120.68 736.951 120.455 737.487 120.296C738.024 120.122 738.619 120.035 739.272 120.035C740.635 120.035 741.716 120.361 742.514 121.014C743.326 121.652 743.733 122.704 743.733 124.169V128.848C743.733 129.457 743.733 129.994 743.733 130.458C743.747 130.907 743.783 131.35 743.841 131.785H742.166C742.122 131.451 742.093 131.14 742.079 130.849C742.064 130.545 742.057 130.204 742.057 129.827C741.752 130.436 741.259 130.951 740.577 131.372C739.896 131.792 739.069 132.003 738.097 132.003ZM738.51 130.262C738.96 130.262 739.381 130.204 739.772 130.088C740.178 129.957 740.534 129.776 740.838 129.544C741.143 129.297 741.382 129 741.557 128.652C741.731 128.304 741.818 127.897 741.818 127.433V126.65H738.401C737.69 126.65 737.132 126.795 736.726 127.085C736.32 127.361 736.116 127.803 736.116 128.412C736.116 128.949 736.305 129.392 736.682 129.74C737.074 130.088 737.683 130.262 738.51 130.262ZM747.115 120.252H749.03V125.083H750.553L754.861 120.252H757.125L752.12 125.779L757.342 131.785H754.905L750.553 126.737H749.03V131.785H747.115V120.252ZM763.994 132.003C763.254 132.003 762.55 131.887 761.883 131.655C761.215 131.422 760.628 131.067 760.12 130.588C759.612 130.095 759.206 129.479 758.902 128.739C758.597 127.999 758.445 127.128 758.445 126.127V125.692C758.445 124.735 758.59 123.908 758.88 123.212C759.17 122.501 759.554 121.913 760.033 121.449C760.526 120.97 761.092 120.615 761.73 120.383C762.383 120.151 763.065 120.035 763.776 120.035C765.473 120.035 766.786 120.499 767.715 121.427C768.643 122.356 769.107 123.669 769.107 125.366V126.584H760.36C760.36 127.266 760.468 127.839 760.686 128.304C760.904 128.768 761.186 129.145 761.535 129.435C761.883 129.725 762.267 129.936 762.688 130.066C763.123 130.197 763.558 130.262 763.994 130.262C764.864 130.262 765.531 130.117 765.995 129.827C766.474 129.537 766.815 129.138 767.018 128.63H768.89C768.774 129.181 768.563 129.667 768.259 130.088C767.968 130.509 767.606 130.864 767.171 131.154C766.75 131.43 766.264 131.64 765.713 131.785C765.176 131.93 764.603 132.003 763.994 132.003ZM763.885 121.775C763.435 121.775 763 121.841 762.579 121.971C762.158 122.087 761.781 122.283 761.448 122.559C761.128 122.82 760.867 123.154 760.664 123.56C760.461 123.966 760.36 124.452 760.36 125.018H767.301C767.287 124.423 767.185 123.922 766.996 123.516C766.822 123.096 766.583 122.762 766.278 122.515C765.974 122.254 765.611 122.066 765.19 121.949C764.784 121.833 764.349 121.775 763.885 121.775ZM774.249 121.949H770.311V120.252H780.103V121.949H776.164V131.785H774.249V121.949ZM787.942 126.127C787.942 124.706 788.138 123.415 788.529 122.254C788.936 121.094 789.385 120.085 789.878 119.229C790.444 118.243 791.09 117.351 791.815 116.553H794.035C793.251 117.351 792.562 118.243 791.967 119.229C791.706 119.65 791.452 120.114 791.206 120.622C790.959 121.13 790.734 121.674 790.531 122.254C790.343 122.834 790.19 123.451 790.074 124.104C789.958 124.742 789.9 125.417 789.9 126.127V126.563C789.9 127.274 789.958 127.955 790.074 128.608C790.19 129.261 790.343 129.877 790.531 130.458C790.734 131.038 790.959 131.582 791.206 132.09C791.452 132.598 791.706 133.062 791.967 133.482C792.562 134.483 793.251 135.368 794.035 136.137H791.728C791.017 135.368 790.386 134.483 789.835 133.482C789.356 132.641 788.921 131.633 788.529 130.458C788.138 129.283 787.942 127.984 787.942 126.563V126.127ZM794.685 130.088H796.099C796.259 129.87 796.404 129.537 796.535 129.087C796.665 128.637 796.781 128.108 796.883 127.498C796.984 126.889 797.057 126.229 797.1 125.518C797.158 124.793 797.187 124.053 797.187 123.299V120.252H805.239V130.088H806.871V134.505H805.043V131.785H796.513V134.505H794.685V130.088ZM803.324 130.088V121.949H799.059V123.734C799.059 124.343 799.037 124.952 798.994 125.562C798.95 126.156 798.885 126.73 798.798 127.281C798.711 127.818 798.602 128.333 798.471 128.826C798.355 129.304 798.217 129.725 798.058 130.088H803.324ZM812.664 132.003C812.026 132.003 811.46 131.916 810.967 131.742C810.488 131.553 810.082 131.299 809.748 130.98C809.415 130.661 809.161 130.284 808.987 129.848C808.813 129.413 808.725 128.935 808.725 128.412C808.725 127.266 809.059 126.439 809.726 125.932C810.408 125.424 811.38 125.17 812.642 125.17H816.385V124.387C816.385 123.4 816.16 122.718 815.711 122.341C815.275 121.964 814.615 121.775 813.73 121.775C812.903 121.775 812.301 121.935 811.924 122.254C811.547 122.559 811.337 122.907 811.293 123.299H809.378C809.407 122.834 809.531 122.406 809.748 122.015C809.98 121.609 810.285 121.26 810.662 120.97C811.054 120.68 811.518 120.455 812.055 120.296C812.592 120.122 813.186 120.035 813.839 120.035C815.203 120.035 816.284 120.361 817.081 121.014C817.894 121.652 818.3 122.704 818.3 124.169V128.848C818.3 129.457 818.3 129.994 818.3 130.458C818.315 130.907 818.351 131.35 818.409 131.785H816.733C816.69 131.451 816.661 131.14 816.646 130.849C816.632 130.545 816.624 130.204 816.624 129.827C816.32 130.436 815.827 130.951 815.145 131.372C814.463 131.792 813.636 132.003 812.664 132.003ZM813.078 130.262C813.527 130.262 813.948 130.204 814.34 130.088C814.746 129.957 815.101 129.776 815.406 129.544C815.711 129.297 815.95 129 816.124 128.652C816.298 128.304 816.385 127.897 816.385 127.433V126.65H812.969C812.258 126.65 811.699 126.795 811.293 127.085C810.887 127.361 810.684 127.803 810.684 128.412C810.684 128.949 810.873 129.392 811.25 129.74C811.641 130.088 812.251 130.262 813.078 130.262ZM821.682 120.252H823.597V125.061H829.559V120.252H831.474V131.785H829.559V126.759H823.597V131.785H821.682V120.252ZM834.964 120.252H836.879V125.061H842.841V120.252H844.756V131.785H842.841V126.759H836.879V131.785H834.964V120.252ZM848.245 120.252H850.16V124.604H852.488C853.939 124.604 855.005 124.923 855.687 125.562C856.384 126.2 856.732 127.085 856.732 128.216C856.732 129.319 856.384 130.189 855.687 130.828C855.005 131.466 853.939 131.785 852.488 131.785H848.245V120.252ZM852.38 130.088C853.279 130.088 853.91 129.928 854.273 129.609C854.635 129.29 854.817 128.818 854.817 128.195C854.817 127.571 854.635 127.099 854.273 126.78C853.91 126.461 853.279 126.302 852.38 126.302H850.16V130.088H852.38ZM858.516 120.252H860.431V131.785H858.516V120.252ZM868.694 132.003C867.954 132.003 867.251 131.887 866.583 131.655C865.916 131.422 865.328 131.067 864.821 130.588C864.313 130.095 863.907 129.479 863.602 128.739C863.297 127.999 863.145 127.128 863.145 126.127V125.692C863.145 124.735 863.29 123.908 863.58 123.212C863.87 122.501 864.255 121.913 864.734 121.449C865.227 120.97 865.793 120.615 866.431 120.383C867.084 120.151 867.766 120.035 868.476 120.035C870.174 120.035 871.487 120.499 872.415 121.427C873.343 122.356 873.808 123.669 873.808 125.366V126.584H865.06C865.06 127.266 865.169 127.839 865.386 128.304C865.604 128.768 865.887 129.145 866.235 129.435C866.583 129.725 866.968 129.936 867.388 130.066C867.824 130.197 868.259 130.262 868.694 130.262C869.564 130.262 870.232 130.117 870.696 129.827C871.175 129.537 871.516 129.138 871.719 128.63H873.59C873.474 129.181 873.264 129.667 872.959 130.088C872.669 130.509 872.306 130.864 871.871 131.154C871.45 131.43 870.964 131.64 870.413 131.785C869.876 131.93 869.303 132.003 868.694 132.003ZM868.585 121.775C868.135 121.775 867.7 121.841 867.28 121.971C866.859 122.087 866.482 122.283 866.148 122.559C865.829 122.82 865.568 123.154 865.365 123.56C865.162 123.966 865.06 124.452 865.06 125.018H872.002C871.987 124.423 871.885 123.922 871.697 123.516C871.523 123.096 871.283 122.762 870.979 122.515C870.674 122.254 870.311 122.066 869.891 121.949C869.485 121.833 869.049 121.775 868.585 121.775ZM881.077 126.563C881.077 127.984 880.874 129.275 880.468 130.436C880.076 131.597 879.634 132.605 879.141 133.461C878.575 134.447 877.929 135.339 877.204 136.137H874.984C875.768 135.339 876.457 134.447 877.052 133.461C877.313 133.04 877.567 132.576 877.813 132.068C878.06 131.56 878.277 131.016 878.466 130.436C878.669 129.856 878.829 129.246 878.945 128.608C879.061 127.955 879.119 127.274 879.119 126.563V126.127C879.119 125.417 879.061 124.735 878.945 124.082C878.829 123.429 878.669 122.813 878.466 122.232C878.277 121.652 878.06 121.108 877.813 120.6C877.567 120.093 877.313 119.628 877.052 119.208C876.457 118.207 875.768 117.322 874.984 116.553H877.291C878.002 117.322 878.633 118.207 879.184 119.208C879.663 120.049 880.098 121.057 880.49 122.232C880.881 123.407 881.077 124.706 881.077 126.127V126.563Z" fill="black"/>
<rect x="514.902" y="100.785" width="570" height="45" stroke="#58A982"/>
<rect x="1084.9" y="100.785" width="300" height="45" fill="#DBEEE5"/>
<path d="M1184.4 116.553H1186.44V123.103H1188.19L1194.15 116.553H1196.58L1189.93 123.821L1196.8 131.785H1194.19L1188.19 124.8H1186.44V131.785H1184.4V116.553ZM1203.56 132.003C1202.82 132.003 1202.12 131.887 1201.45 131.655C1200.78 131.408 1200.2 131.045 1199.69 130.567C1199.18 130.073 1198.78 129.457 1198.47 128.717C1198.17 127.977 1198.01 127.114 1198.01 126.127V125.692C1198.01 124.764 1198.17 123.944 1198.47 123.233C1198.78 122.523 1199.18 121.935 1199.69 121.471C1200.2 120.992 1200.78 120.637 1201.45 120.404C1202.12 120.158 1202.82 120.035 1203.56 120.035C1204.3 120.035 1205.01 120.158 1205.67 120.404C1206.34 120.637 1206.93 120.992 1207.44 121.471C1207.94 121.935 1208.35 122.523 1208.65 123.233C1208.96 123.944 1209.11 124.764 1209.11 125.692V126.127C1209.11 127.114 1208.96 127.977 1208.65 128.717C1208.35 129.457 1207.94 130.073 1207.44 130.567C1206.93 131.045 1206.34 131.408 1205.67 131.655C1205.01 131.887 1204.3 132.003 1203.56 132.003ZM1203.56 130.262C1204 130.262 1204.43 130.189 1204.87 130.044C1205.3 129.885 1205.69 129.645 1206.02 129.326C1206.35 128.993 1206.62 128.565 1206.83 128.042C1207.04 127.52 1207.15 126.882 1207.15 126.127V125.692C1207.15 124.996 1207.04 124.401 1206.83 123.908C1206.62 123.415 1206.35 123.008 1206.02 122.689C1205.69 122.37 1205.3 122.138 1204.87 121.993C1204.43 121.848 1204 121.775 1203.56 121.775C1203.13 121.775 1202.69 121.848 1202.26 121.993C1201.82 122.138 1201.44 122.37 1201.1 122.689C1200.77 123.008 1200.49 123.415 1200.28 123.908C1200.07 124.401 1199.97 124.996 1199.97 125.692V126.127C1199.97 126.882 1200.07 127.52 1200.28 128.042C1200.49 128.565 1200.77 128.993 1201.1 129.326C1201.44 129.645 1201.82 129.885 1202.26 130.044C1202.69 130.189 1203.13 130.262 1203.56 130.262ZM1211.82 120.252H1213.74V125.061H1219.7V120.252H1221.61V131.785H1219.7V126.759H1213.74V131.785H1211.82V120.252ZM1234.48 131.785H1225.1V120.252H1227.02V130.088H1232.55V120.252H1234.46V130.088H1236.31V134.505H1234.48V131.785ZM1243.39 132.003C1242.65 132.003 1241.94 131.887 1241.27 131.655C1240.61 131.422 1240.02 131.067 1239.51 130.588C1239 130.095 1238.6 129.479 1238.29 128.739C1237.99 127.999 1237.84 127.128 1237.84 126.127V125.692C1237.84 124.735 1237.98 123.908 1238.27 123.212C1238.56 122.501 1238.95 121.913 1239.43 121.449C1239.92 120.97 1240.48 120.615 1241.12 120.383C1241.78 120.151 1242.46 120.035 1243.17 120.035C1244.87 120.035 1246.18 120.499 1247.11 121.427C1248.03 122.356 1248.5 123.669 1248.5 125.366V126.584H1239.75C1239.75 127.266 1239.86 127.839 1240.08 128.304C1240.3 128.768 1240.58 129.145 1240.93 129.435C1241.27 129.725 1241.66 129.936 1242.08 130.066C1242.52 130.197 1242.95 130.262 1243.39 130.262C1244.26 130.262 1244.92 130.117 1245.39 129.827C1245.87 129.537 1246.21 129.138 1246.41 128.63H1248.28C1248.17 129.181 1247.96 129.667 1247.65 130.088C1247.36 130.509 1247 130.864 1246.56 131.154C1246.14 131.43 1245.66 131.64 1245.1 131.785C1244.57 131.93 1243.99 132.003 1243.39 132.003ZM1243.28 121.775C1242.83 121.775 1242.39 121.841 1241.97 121.971C1241.55 122.087 1241.17 122.283 1240.84 122.559C1240.52 122.82 1240.26 123.154 1240.06 123.56C1239.85 123.966 1239.75 124.452 1239.75 125.018H1246.69C1246.68 124.423 1246.58 123.922 1246.39 123.516C1246.21 123.096 1245.97 122.762 1245.67 122.515C1245.37 122.254 1245 122.066 1244.58 121.949C1244.18 121.833 1243.74 121.775 1243.28 121.775ZM1251.22 120.252H1256.23C1257.65 120.252 1258.69 120.55 1259.36 121.144C1260.03 121.725 1260.36 122.479 1260.36 123.407C1260.36 123.654 1260.32 123.908 1260.23 124.169C1260.14 124.416 1260.02 124.648 1259.86 124.865C1259.71 125.083 1259.53 125.272 1259.32 125.431C1259.11 125.591 1258.88 125.714 1258.62 125.801C1259.33 125.975 1259.87 126.309 1260.23 126.802C1260.61 127.281 1260.8 127.847 1260.8 128.499C1260.8 129.5 1260.46 130.298 1259.79 130.893C1259.13 131.488 1258.08 131.785 1256.66 131.785H1251.22V120.252ZM1256.66 130.088C1257.47 130.088 1258.05 129.943 1258.38 129.653C1258.71 129.363 1258.88 128.949 1258.88 128.412C1258.88 127.861 1258.71 127.44 1258.38 127.15C1258.05 126.846 1257.47 126.693 1256.66 126.693H1253.14V130.088H1256.66ZM1256.23 125.126C1257.05 125.126 1257.63 124.981 1257.94 124.691C1258.28 124.401 1258.45 124.002 1258.45 123.494C1258.45 123.016 1258.28 122.639 1257.94 122.363C1257.63 122.087 1257.05 121.949 1256.23 121.949H1253.14V125.126H1256.23ZM1263.52 120.252H1265.44V128.956L1271.4 120.252H1273.32V131.785H1271.4V123.081L1265.44 131.785H1263.52V120.252ZM1276.81 120.252H1278.72V125.083H1280.24L1284.55 120.252H1286.82L1281.81 125.779L1287.03 131.785H1284.6L1280.24 126.737H1278.72V131.785H1276.81V120.252Z" fill="black"/>
<rect x="1084.9" y="100.785" width="300" height="45" stroke="#58A982"/>
<defs>
<radialGradient id="paint0_radial_374_105803" cx="0" cy="0" r="1" gradientUnits="userSpaceOnUse" gradientTransform="translate(362.75 145.785) rotate(90) scale(141.887 296.961)">
<stop stop-color="#E7F9F3"/>
<stop offset="1" stop-color="#ACDBCB" stop-opacity="0"/>
</radialGradient>
<radialGradient id="paint1_radial_374_105803" cx="0" cy="0" r="1" gradientUnits="userSpaceOnUse" gradientTransform="translate(1234.45 145.785) rotate(90) scale(141.887 296.961)">
<stop stop-color="#E7F9F3"/>
<stop offset="1" stop-color="#ACDBCB" stop-opacity="0"/>
</radialGradient>
</defs>
</svg>
