<svg width="1921" height="787" viewBox="0 0 1921 787" fill="none" xmlns="http://www.w3.org/2000/svg">
<path d="M333.742 341.502H407.148L530.386 271.305" stroke="#FFBD6E" stroke-width="8"/>
<circle cx="407.148" cy="136.588" r="36.2182" fill="#FEDE69"/>
<circle cx="334.306" cy="341.502" r="36.2182" fill="#E87F53"/>
<circle cx="581.64" cy="241.759" r="36.2182" fill="#58A982"/>
<circle cx="608.367" cy="341.502" r="36.2182" fill="#FEDE69"/>
<circle cx="581.64" cy="441.246" r="36.2182" fill="#FEDE69"/>
<circle cx="407.148" cy="540.989" r="36.2182" fill="#FEDE69"/>
<path d="M528.25 261.14L545.571 262.687L528.25 284.234L528.25 261.14Z" fill="#FFBD6E"/>
<path d="M1329.88 341.502L1531.5 341.502" stroke="#FFBD6E" stroke-width="8"/>
<path d="M1384.74 341.502L1511.84 268.122" stroke="#FFBD6E" stroke-width="8"/>
<path d="M1384.74 341.502L1511.84 414.882" stroke="#FFBD6E" stroke-width="8"/>
<path d="M1384.74 194.742L1384.74 488.262" stroke="#FFBD6E" stroke-width="8"/>
<circle cx="1385.33" cy="136.588" r="36.2182" fill="#58A982"/>
<circle cx="1312.49" cy="341.502" r="36.2182" fill="#E87F53"/>
<circle cx="1559.82" cy="241.759" r="36.2182" fill="#58A982"/>
<circle cx="1586.55" cy="341.502" r="36.2182" fill="#58A982"/>
<circle cx="1559.82" cy="441.246" r="36.2182" fill="#58A982"/>
<circle cx="1385.33" cy="540.989" r="36.2182" fill="#58A982"/>
<path d="M1506.28 259.959L1523.6 261.506L1506.28 283.053L1506.28 259.959Z" fill="#FFBD6E"/>
<path d="M1506.28 422.682L1523.6 421.135L1506.28 399.588L1506.28 422.682Z" fill="#FFBD6E"/>
<path d="M1523.6 329.766L1543.6 341.313L1523.6 352.86V329.766Z" fill="#FFBD6E"/>
<path d="M1373.19 204.742L1384.74 184.742L1396.29 204.742L1373.19 204.742Z" fill="#FFBD6E"/>
<path d="M1373.19 474.138L1384.74 494.138L1396.29 474.138L1373.19 474.138Z" fill="#FFBD6E"/>
<path d="M819.176 341.502H1043.99" stroke="#FFBD6E" stroke-width="8"/>
<path d="M897.969 341.502L1024.01 268.734" stroke="#FFBD6E" stroke-width="8"/>
<path d="M897.969 341.313L897.969 484.138" stroke="#FFBD6E" stroke-width="8"/>
<circle cx="896.238" cy="136.588" r="36.2182" fill="#FEDE69"/>
<circle cx="823.396" cy="341.502" r="36.2182" fill="#E87F53"/>
<circle cx="1070.73" cy="241.759" r="36.2182" fill="#58A982"/>
<circle cx="1097.46" cy="341.502" r="36.2182" fill="#58A982"/>
<circle cx="1070.73" cy="441.246" r="36.2182" fill="#FEDE69"/>
<circle cx="896.238" cy="540.989" r="36.2182" fill="#58A982"/>
<path d="M1017.19 261.011L1034.51 262.558L1017.19 284.105L1017.19 261.011Z" fill="#FFBD6E"/>
<path d="M1034.51 329.766L1054.51 341.313L1034.51 352.86V329.766Z" fill="#FFBD6E"/>
<path d="M909.516 479.842L897.969 499.842L886.422 479.842L909.516 479.842Z" fill="#FFBD6E"/>
<path d="M336.035 658.683C335.077 658.683 334.163 658.538 333.293 658.248C332.437 657.958 331.675 657.501 331.008 656.877C330.355 656.253 329.833 655.455 329.441 654.483C329.05 653.497 328.854 652.307 328.854 650.915V650.479C328.854 649.145 329.05 648.006 329.441 647.063C329.833 646.106 330.355 645.322 331.008 644.713C331.675 644.104 332.437 643.654 333.293 643.364C334.163 643.074 335.077 642.929 336.035 642.929C336.992 642.929 337.899 643.074 338.755 643.364C339.625 643.654 340.387 644.104 341.04 644.713C341.707 645.322 342.236 646.106 342.628 647.063C343.02 648.006 343.216 649.145 343.216 650.479V650.915C343.216 652.307 343.02 653.497 342.628 654.483C342.236 655.455 341.707 656.253 341.04 656.877C340.387 657.501 339.625 657.958 338.755 658.248C337.899 658.538 336.992 658.683 336.035 658.683ZM336.035 655.941C336.528 655.941 336.999 655.861 337.449 655.702C337.913 655.528 338.32 655.245 338.668 654.853C339.016 654.461 339.292 653.946 339.495 653.308C339.712 652.67 339.821 651.872 339.821 650.915V650.479C339.821 649.58 339.712 648.826 339.495 648.216C339.292 647.607 339.016 647.114 338.668 646.737C338.32 646.359 337.913 646.091 337.449 645.931C336.999 645.757 336.528 645.67 336.035 645.67C335.542 645.67 335.063 645.757 334.599 645.931C334.149 646.091 333.75 646.359 333.402 646.737C333.054 647.114 332.771 647.607 332.553 648.216C332.35 648.826 332.248 649.58 332.248 650.479V650.915C332.248 651.872 332.35 652.67 332.553 653.308C332.771 653.946 333.054 654.461 333.402 654.853C333.75 655.245 334.149 655.528 334.599 655.702C335.063 655.861 335.542 655.941 336.035 655.941ZM344.181 656.028H345.487C345.632 655.811 345.763 655.499 345.879 655.093C345.995 654.672 346.082 654.208 346.14 653.7C346.212 653.178 346.263 652.634 346.292 652.068C346.336 651.488 346.357 650.922 346.357 650.371V646.889H355.388V656.028H356.802V661.142H354.278V658.422H346.706V661.142H344.181V656.028ZM352.516 656.028V649.283H348.99V650.806C348.99 651.313 348.976 651.814 348.947 652.307C348.918 652.8 348.874 653.279 348.816 653.743C348.773 654.193 348.707 654.614 348.62 655.006C348.533 655.397 348.425 655.738 348.294 656.028H352.516ZM358.652 646.889H361.524V651.35H366.442V646.889H369.315V658.422H366.442V653.743H361.524V658.422H358.652V646.889ZM377.156 658.683C376.373 658.683 375.625 658.567 374.915 658.335C374.218 658.088 373.609 657.718 373.087 657.225C372.564 656.732 372.151 656.115 371.846 655.375C371.542 654.636 371.389 653.765 371.389 652.764V652.329C371.389 651.386 371.542 650.559 371.846 649.848C372.151 649.137 372.564 648.543 373.087 648.064C373.609 647.585 374.218 647.23 374.915 646.998C375.625 646.751 376.373 646.628 377.156 646.628C377.939 646.628 378.679 646.751 379.375 646.998C380.072 647.23 380.681 647.585 381.203 648.064C381.74 648.543 382.161 649.137 382.465 649.848C382.77 650.559 382.922 651.386 382.922 652.329V652.764C382.922 653.751 382.77 654.614 382.465 655.354C382.161 656.094 381.74 656.71 381.203 657.203C380.681 657.697 380.072 658.066 379.375 658.313C378.679 658.56 377.939 658.683 377.156 658.683ZM377.156 656.246C377.968 656.246 378.643 655.956 379.18 655.375C379.731 654.795 380.006 653.925 380.006 652.764V652.329C380.006 651.27 379.731 650.465 379.18 649.914C378.643 649.348 377.968 649.065 377.156 649.065C376.329 649.065 375.647 649.348 375.11 649.914C374.574 650.465 374.305 651.27 374.305 652.329V652.764C374.305 653.939 374.574 654.817 375.11 655.397C375.647 655.963 376.329 656.246 377.156 656.246ZM388.441 658.683C387.817 658.683 387.266 658.596 386.787 658.422C386.308 658.233 385.902 657.979 385.569 657.66C385.235 657.327 384.981 656.942 384.807 656.507C384.633 656.057 384.546 655.571 384.546 655.049C384.546 652.728 385.924 651.567 388.68 651.567H392.118V651.023C392.118 650.269 391.944 649.739 391.596 649.435C391.263 649.13 390.726 648.978 389.986 648.978C389.333 648.978 388.862 649.094 388.572 649.326C388.281 649.544 388.115 649.819 388.071 650.153H385.199C385.228 649.66 385.351 649.195 385.569 648.76C385.801 648.325 386.12 647.955 386.526 647.651C386.947 647.331 387.455 647.085 388.049 646.911C388.644 646.722 389.326 646.628 390.095 646.628C390.835 646.628 391.502 646.708 392.097 646.867C392.706 647.027 393.221 647.288 393.642 647.651C394.077 647.999 394.411 648.456 394.643 649.021C394.875 649.587 394.991 650.269 394.991 651.067V655.484C394.991 656.094 394.998 656.63 395.013 657.094C395.042 657.544 395.085 657.987 395.143 658.422H392.467C392.409 658.103 392.372 657.863 392.358 657.704C392.358 657.53 392.358 657.276 392.358 656.942C392.039 657.406 391.553 657.813 390.9 658.161C390.262 658.509 389.442 658.683 388.441 658.683ZM389.333 656.463C389.681 656.463 390.022 656.42 390.356 656.333C390.69 656.231 390.987 656.086 391.248 655.898C391.509 655.695 391.72 655.441 391.879 655.136C392.039 654.831 392.118 654.476 392.118 654.07V653.526H389.224C388.673 653.526 388.238 653.656 387.919 653.917C387.614 654.164 387.462 654.505 387.462 654.94C387.462 655.404 387.621 655.774 387.941 656.05C388.26 656.326 388.724 656.463 389.333 656.463ZM396.627 656.028H397.933C398.078 655.811 398.208 655.499 398.324 655.093C398.441 654.672 398.528 654.208 398.586 653.7C398.658 653.178 398.709 652.634 398.738 652.068C398.781 651.488 398.803 650.922 398.803 650.371V646.889H407.834V656.028H409.248V661.142H406.724V658.422H399.151V661.142H396.627V656.028ZM404.961 656.028V649.283H401.436V650.806C401.436 651.313 401.422 651.814 401.393 652.307C401.364 652.8 401.32 653.279 401.262 653.743C401.219 654.193 401.153 654.614 401.066 655.006C400.979 655.397 400.87 655.738 400.74 656.028H404.961ZM411.098 646.889H413.774V648.586C414.064 648.064 414.521 647.607 415.145 647.215C415.769 646.824 416.56 646.628 417.517 646.628C419.055 646.628 420.252 647.106 421.108 648.064C421.978 649.007 422.413 650.429 422.413 652.329V652.764C422.413 654.752 421.971 656.239 421.086 657.225C420.215 658.197 419.026 658.683 417.517 658.683C416.734 658.683 416.037 658.516 415.428 658.183C414.833 657.834 414.347 657.385 413.97 656.833V662.774H411.098V646.889ZM416.843 656.246C417.597 656.246 418.228 655.963 418.736 655.397C419.243 654.817 419.497 653.939 419.497 652.764V652.329C419.497 651.241 419.251 650.429 418.757 649.892C418.264 649.341 417.626 649.065 416.843 649.065C416.016 649.065 415.327 649.304 414.775 649.783C414.239 650.247 413.97 650.951 413.97 651.894V653.199C413.97 654.229 414.231 654.998 414.754 655.506C415.29 655.999 415.987 656.246 416.843 656.246ZM429.708 658.683C428.925 658.683 428.177 658.567 427.467 658.335C426.77 658.088 426.161 657.726 425.639 657.247C425.117 656.754 424.703 656.137 424.398 655.397C424.094 654.643 423.941 653.765 423.941 652.764V652.329C423.941 651.372 424.087 650.537 424.377 649.827C424.667 649.116 425.066 648.528 425.574 648.064C426.081 647.585 426.669 647.23 427.336 646.998C428.003 646.751 428.722 646.628 429.49 646.628C431.304 646.628 432.682 647.106 433.625 648.064C434.568 649.021 435.039 650.407 435.039 652.22V653.439H426.879C426.894 653.946 426.981 654.389 427.14 654.766C427.3 655.129 427.51 655.426 427.771 655.658C428.032 655.89 428.33 656.065 428.663 656.181C429.012 656.282 429.36 656.333 429.708 656.333C430.448 656.333 431.006 656.224 431.384 656.006C431.761 655.789 432.029 655.47 432.189 655.049H434.822C434.59 656.253 434.017 657.16 433.103 657.769C432.189 658.378 431.057 658.683 429.708 658.683ZM429.599 648.978C429.266 648.978 428.932 649.021 428.598 649.108C428.279 649.195 427.996 649.333 427.75 649.522C427.503 649.71 427.3 649.964 427.14 650.284C426.981 650.603 426.894 650.987 426.879 651.437H432.254C432.239 650.958 432.16 650.559 432.015 650.24C431.884 649.921 431.695 649.667 431.449 649.478C431.217 649.29 430.941 649.159 430.622 649.087C430.303 649.014 429.962 648.978 429.599 648.978ZM442.222 658.683C441.424 658.683 440.677 658.56 439.981 658.313C439.299 658.066 438.704 657.697 438.196 657.203C437.688 656.71 437.29 656.094 436.999 655.354C436.709 654.614 436.564 653.751 436.564 652.764V652.329C436.564 651.401 436.717 650.581 437.021 649.87C437.326 649.159 437.732 648.564 438.24 648.086C438.762 647.607 439.364 647.244 440.046 646.998C440.728 646.751 441.453 646.628 442.222 646.628C443.034 646.628 443.752 646.737 444.376 646.954C445.014 647.172 445.551 647.469 445.986 647.846C446.422 648.224 446.763 648.666 447.009 649.174C447.256 649.681 447.401 650.225 447.444 650.806H444.528C444.412 650.269 444.173 649.848 443.81 649.544C443.462 649.225 442.933 649.065 442.222 649.065C441.845 649.065 441.489 649.13 441.156 649.261C440.836 649.391 440.546 649.594 440.285 649.87C440.039 650.131 439.843 650.465 439.698 650.871C439.553 651.277 439.48 651.763 439.48 652.329V652.764C439.48 653.373 439.545 653.903 439.676 654.353C439.821 654.788 440.017 655.151 440.263 655.441C440.51 655.716 440.8 655.919 441.134 656.05C441.468 656.181 441.83 656.246 442.222 656.246C442.788 656.246 443.274 656.101 443.68 655.811C444.101 655.506 444.383 655.071 444.528 654.505H447.444C447.372 655.143 447.19 655.724 446.9 656.246C446.625 656.754 446.255 657.189 445.791 657.551C445.341 657.914 444.811 658.197 444.202 658.4C443.593 658.589 442.933 658.683 442.222 658.683ZM449.412 646.889H452.285V651.35H457.202V646.889H460.075V658.422H457.202V653.743H452.285V658.422H449.412V646.889ZM466.154 658.683C465.53 658.683 464.978 658.596 464.5 658.422C464.021 658.233 463.615 657.979 463.281 657.66C462.947 657.327 462.694 656.942 462.52 656.507C462.345 656.057 462.258 655.571 462.258 655.049C462.258 652.728 463.637 651.567 466.393 651.567H469.831V651.023C469.831 650.269 469.657 649.739 469.309 649.435C468.975 649.13 468.438 648.978 467.698 648.978C467.046 648.978 466.574 649.094 466.284 649.326C465.994 649.544 465.827 649.819 465.784 650.153H462.911C462.94 649.66 463.064 649.195 463.281 648.76C463.513 648.325 463.832 647.955 464.239 647.651C464.659 647.331 465.167 647.085 465.762 646.911C466.357 646.722 467.038 646.628 467.807 646.628C468.547 646.628 469.214 646.708 469.809 646.867C470.419 647.027 470.934 647.288 471.354 647.651C471.789 647.999 472.123 648.456 472.355 649.021C472.587 649.587 472.703 650.269 472.703 651.067V655.484C472.703 656.094 472.711 656.63 472.725 657.094C472.754 657.544 472.798 657.987 472.856 658.422H470.179C470.121 658.103 470.085 657.863 470.07 657.704C470.07 657.53 470.07 657.276 470.07 656.942C469.751 657.406 469.265 657.813 468.612 658.161C467.974 658.509 467.154 658.683 466.154 658.683ZM467.046 656.463C467.394 656.463 467.735 656.42 468.068 656.333C468.402 656.231 468.699 656.086 468.961 655.898C469.222 655.695 469.432 655.441 469.592 655.136C469.751 654.831 469.831 654.476 469.831 654.07V653.526H466.937C466.386 653.526 465.95 653.656 465.631 653.917C465.327 654.164 465.174 654.505 465.174 654.94C465.174 655.404 465.334 655.774 465.653 656.05C465.972 656.326 466.436 656.463 467.046 656.463ZM477.538 654.092C476.653 653.801 476.008 653.366 475.602 652.786C475.196 652.206 474.992 651.524 474.992 650.74C474.992 650.175 475.087 649.66 475.275 649.195C475.478 648.717 475.776 648.311 476.168 647.977C476.559 647.629 477.052 647.36 477.647 647.172C478.257 646.983 478.967 646.889 479.78 646.889H485.22V658.422H482.347V654.44H480.28L477.778 658.422H474.557L477.538 654.092ZM477.865 650.74C477.865 651.234 478.024 651.596 478.344 651.828C478.677 652.061 479.12 652.177 479.671 652.177H482.347V649.283H479.671C479.12 649.283 478.677 649.406 478.344 649.652C478.024 649.885 477.865 650.247 477.865 650.74ZM356.261 670.889H358.938V672.586C359.228 672.064 359.685 671.607 360.309 671.215C360.932 670.824 361.723 670.628 362.681 670.628C364.218 670.628 365.415 671.106 366.271 672.064C367.141 673.007 367.577 674.429 367.577 676.329V676.764C367.577 678.752 367.134 680.239 366.249 681.225C365.379 682.197 364.189 682.683 362.681 682.683C361.897 682.683 361.201 682.516 360.592 682.183C359.997 681.834 359.511 681.385 359.134 680.833V686.774H356.261V670.889ZM362.006 680.246C362.76 680.246 363.391 679.963 363.899 679.397C364.407 678.817 364.661 677.939 364.661 676.764V676.329C364.661 675.241 364.414 674.429 363.921 673.892C363.428 673.341 362.789 673.065 362.006 673.065C361.179 673.065 360.49 673.304 359.939 673.783C359.402 674.247 359.134 674.951 359.134 675.894V677.199C359.134 678.229 359.395 678.998 359.917 679.506C360.454 679.999 361.15 680.246 362.006 680.246ZM373.109 682.683C372.485 682.683 371.934 682.596 371.455 682.422C370.976 682.233 370.57 681.979 370.237 681.66C369.903 681.327 369.649 680.942 369.475 680.507C369.301 680.057 369.214 679.571 369.214 679.049C369.214 676.728 370.592 675.567 373.348 675.567H376.786V675.023C376.786 674.269 376.612 673.739 376.264 673.435C375.93 673.13 375.394 672.978 374.654 672.978C374.001 672.978 373.53 673.094 373.239 673.326C372.949 673.544 372.782 673.819 372.739 674.153H369.867C369.896 673.66 370.019 673.195 370.237 672.76C370.469 672.325 370.788 671.955 371.194 671.651C371.615 671.331 372.122 671.085 372.717 670.911C373.312 670.722 373.994 670.628 374.763 670.628C375.503 670.628 376.17 670.708 376.765 670.867C377.374 671.027 377.889 671.288 378.31 671.651C378.745 671.999 379.078 672.456 379.311 673.021C379.543 673.587 379.659 674.269 379.659 675.067V679.484C379.659 680.094 379.666 680.63 379.681 681.094C379.71 681.544 379.753 681.987 379.811 682.422H377.135C377.077 682.103 377.04 681.863 377.026 681.704C377.026 681.53 377.026 681.276 377.026 680.942C376.707 681.406 376.221 681.813 375.568 682.161C374.929 682.509 374.11 682.683 373.109 682.683ZM374.001 680.463C374.349 680.463 374.69 680.42 375.024 680.333C375.357 680.231 375.655 680.086 375.916 679.898C376.177 679.695 376.387 679.441 376.547 679.136C376.707 678.831 376.786 678.476 376.786 678.07V677.526H373.892C373.341 677.526 372.906 677.656 372.587 677.917C372.282 678.164 372.13 678.505 372.13 678.94C372.13 679.404 372.289 679.774 372.608 680.05C372.928 680.326 373.392 680.463 374.001 680.463ZM387.279 682.683C386.481 682.683 385.734 682.56 385.038 682.313C384.356 682.066 383.761 681.697 383.253 681.203C382.746 680.71 382.347 680.094 382.057 679.354C381.766 678.614 381.621 677.751 381.621 676.764V676.329C381.621 675.401 381.774 674.581 382.078 673.87C382.383 673.159 382.789 672.564 383.297 672.086C383.819 671.607 384.421 671.244 385.103 670.998C385.785 670.751 386.51 670.628 387.279 670.628C388.092 670.628 388.81 670.737 389.433 670.954C390.072 671.172 390.608 671.469 391.044 671.846C391.479 672.224 391.82 672.666 392.066 673.174C392.313 673.681 392.458 674.225 392.502 674.806H389.586C389.47 674.269 389.23 673.848 388.868 673.544C388.519 673.225 387.99 673.065 387.279 673.065C386.902 673.065 386.547 673.13 386.213 673.261C385.894 673.391 385.604 673.594 385.342 673.87C385.096 674.131 384.9 674.465 384.755 674.871C384.61 675.277 384.537 675.763 384.537 676.329V676.764C384.537 677.373 384.603 677.903 384.733 678.353C384.878 678.788 385.074 679.151 385.321 679.441C385.567 679.716 385.857 679.919 386.191 680.05C386.525 680.181 386.887 680.246 387.279 680.246C387.845 680.246 388.331 680.101 388.737 679.811C389.158 679.506 389.441 679.071 389.586 678.505H392.502C392.429 679.143 392.248 679.724 391.958 680.246C391.682 680.754 391.312 681.189 390.848 681.551C390.398 681.914 389.869 682.197 389.259 682.4C388.65 682.589 387.99 682.683 387.279 682.683ZM399.583 682.683C398.785 682.683 398.038 682.56 397.342 682.313C396.66 682.066 396.065 681.697 395.557 681.203C395.05 680.71 394.651 680.094 394.361 679.354C394.07 678.614 393.925 677.751 393.925 676.764V676.329C393.925 675.401 394.078 674.581 394.382 673.87C394.687 673.159 395.093 672.564 395.601 672.086C396.123 671.607 396.725 671.244 397.407 670.998C398.089 670.751 398.814 670.628 399.583 670.628C400.395 670.628 401.114 670.737 401.737 670.954C402.376 671.172 402.912 671.469 403.348 671.846C403.783 672.224 404.124 672.666 404.37 673.174C404.617 673.681 404.762 674.225 404.806 674.806H401.89C401.774 674.269 401.534 673.848 401.172 673.544C400.823 673.225 400.294 673.065 399.583 673.065C399.206 673.065 398.85 673.13 398.517 673.261C398.198 673.391 397.908 673.594 397.646 673.87C397.4 674.131 397.204 674.465 397.059 674.871C396.914 675.277 396.841 675.763 396.841 676.329V676.764C396.841 677.373 396.907 677.903 397.037 678.353C397.182 678.788 397.378 679.151 397.625 679.441C397.871 679.716 398.161 679.919 398.495 680.05C398.829 680.181 399.191 680.246 399.583 680.246C400.149 680.246 400.635 680.101 401.041 679.811C401.462 679.506 401.745 679.071 401.89 678.505H404.806C404.733 679.143 404.552 679.724 404.262 680.246C403.986 680.754 403.616 681.189 403.152 681.551C402.702 681.914 402.173 682.197 401.563 682.4C400.954 682.589 400.294 682.683 399.583 682.683ZM406.773 670.889H409.646V674.762H411.669C414.643 674.762 416.13 676.039 416.13 678.592C416.13 679.158 416.043 679.68 415.869 680.159C415.71 680.623 415.448 681.022 415.086 681.356C414.723 681.689 414.259 681.95 413.693 682.139C413.127 682.328 412.453 682.422 411.669 682.422H406.773V670.889ZM411.343 680.115C412.039 680.115 412.533 679.992 412.823 679.745C413.113 679.484 413.258 679.1 413.258 678.592C413.258 678.084 413.106 677.707 412.801 677.461C412.511 677.199 412.025 677.069 411.343 677.069H409.646V680.115H411.343ZM417.392 670.889H420.265V682.422H417.392V670.889ZM422.99 682.683C422.874 682.683 422.729 682.676 422.555 682.661C422.381 682.661 422.236 682.647 422.119 682.618V680.028C422.192 680.043 422.301 680.05 422.446 680.05C422.722 680.05 422.961 679.97 423.164 679.811C423.367 679.637 423.534 679.346 423.664 678.94C423.81 678.534 423.911 677.997 423.969 677.33C424.042 676.648 424.078 675.807 424.078 674.806V670.889H433.217V682.422H430.345V673.283H426.733V675.241C426.733 676.735 426.653 677.968 426.493 678.94C426.348 679.898 426.116 680.652 425.797 681.203C425.492 681.755 425.101 682.139 424.622 682.357C424.158 682.574 423.614 682.683 422.99 682.683ZM435.823 670.889H438.695V675.415H439.783L443.308 670.889H446.485L442.133 676.351L446.703 682.422H443.265L439.783 677.678H438.695V682.422H435.823V670.889ZM451.586 682.683C450.963 682.683 450.411 682.596 449.933 682.422C449.454 682.233 449.048 681.979 448.714 681.66C448.38 681.327 448.126 680.942 447.952 680.507C447.778 680.057 447.691 679.571 447.691 679.049C447.691 676.728 449.069 675.567 451.826 675.567H455.264V675.023C455.264 674.269 455.09 673.739 454.742 673.435C454.408 673.13 453.871 672.978 453.131 672.978C452.479 672.978 452.007 673.094 451.717 673.326C451.427 673.544 451.26 673.819 451.216 674.153H448.344C448.373 673.66 448.496 673.195 448.714 672.76C448.946 672.325 449.265 671.955 449.671 671.651C450.092 671.331 450.6 671.085 451.195 670.911C451.789 670.722 452.471 670.628 453.24 670.628C453.98 670.628 454.647 670.708 455.242 670.867C455.851 671.027 456.366 671.288 456.787 671.651C457.222 671.999 457.556 672.456 457.788 673.021C458.02 673.587 458.136 674.269 458.136 675.067V679.484C458.136 680.094 458.144 680.63 458.158 681.094C458.187 681.544 458.231 681.987 458.289 682.422H455.612C455.554 682.103 455.518 681.863 455.503 681.704C455.503 681.53 455.503 681.276 455.503 680.942C455.184 681.406 454.698 681.813 454.045 682.161C453.407 682.509 452.587 682.683 451.586 682.683ZM452.479 680.463C452.827 680.463 453.168 680.42 453.501 680.333C453.835 680.231 454.132 680.086 454.393 679.898C454.655 679.695 454.865 679.441 455.025 679.136C455.184 678.831 455.264 678.476 455.264 678.07V677.526H452.37C451.819 677.526 451.383 677.656 451.064 677.917C450.76 678.164 450.607 678.505 450.607 678.94C450.607 679.404 450.767 679.774 451.086 680.05C451.405 680.326 451.869 680.463 452.479 680.463Z" fill="black"/>
<path d="M812.285 643.19H815.549L820.184 651.763L824.797 643.19H827.953V658.422H824.689V648.739L821.098 655.375H819.14L815.549 648.739V658.422H812.285V643.19ZM830.997 646.889H833.869V651.35H838.787V646.889H841.659V658.422H838.787V653.743H833.869V658.422H830.997V646.889ZM849.5 658.683C848.717 658.683 847.97 658.567 847.259 658.335C846.563 658.088 845.954 657.718 845.431 657.225C844.909 656.732 844.496 656.115 844.191 655.375C843.886 654.636 843.734 653.765 843.734 652.764V652.329C843.734 651.386 843.886 650.559 844.191 649.848C844.496 649.137 844.909 648.543 845.431 648.064C845.954 647.585 846.563 647.23 847.259 646.998C847.97 646.751 848.717 646.628 849.5 646.628C850.284 646.628 851.024 646.751 851.72 646.998C852.416 647.23 853.026 647.585 853.548 648.064C854.085 648.543 854.505 649.137 854.81 649.848C855.115 650.559 855.267 651.386 855.267 652.329V652.764C855.267 653.751 855.115 654.614 854.81 655.354C854.505 656.094 854.085 656.71 853.548 657.203C853.026 657.697 852.416 658.066 851.72 658.313C851.024 658.56 850.284 658.683 849.5 658.683ZM849.5 656.246C850.313 656.246 850.987 655.956 851.524 655.375C852.075 654.795 852.351 653.925 852.351 652.764V652.329C852.351 651.27 852.075 650.465 851.524 649.914C850.987 649.348 850.313 649.065 849.5 649.065C848.674 649.065 847.992 649.348 847.455 649.914C846.918 650.465 846.65 651.27 846.65 652.329V652.764C846.65 653.939 846.918 654.817 847.455 655.397C847.992 655.963 848.674 656.246 849.5 656.246ZM857.543 646.889H865.812V649.283H860.416V658.422H857.543V646.889ZM872.557 658.683C871.774 658.683 871.027 658.567 870.316 658.335C869.619 658.088 869.01 657.718 868.488 657.225C867.966 656.732 867.552 656.115 867.248 655.375C866.943 654.636 866.791 653.765 866.791 652.764V652.329C866.791 651.386 866.943 650.559 867.248 649.848C867.552 649.137 867.966 648.543 868.488 648.064C869.01 647.585 869.619 647.23 870.316 646.998C871.027 646.751 871.774 646.628 872.557 646.628C873.34 646.628 874.08 646.751 874.777 646.998C875.473 647.23 876.082 647.585 876.604 648.064C877.141 648.543 877.562 649.137 877.867 649.848C878.171 650.559 878.324 651.386 878.324 652.329V652.764C878.324 653.751 878.171 654.614 877.867 655.354C877.562 656.094 877.141 656.71 876.604 657.203C876.082 657.697 875.473 658.066 874.777 658.313C874.08 658.56 873.34 658.683 872.557 658.683ZM872.557 656.246C873.369 656.246 874.044 655.956 874.581 655.375C875.132 654.795 875.408 653.925 875.408 652.764V652.329C875.408 651.27 875.132 650.465 874.581 649.914C874.044 649.348 873.369 649.065 872.557 649.065C871.73 649.065 871.048 649.348 870.512 649.914C869.975 650.465 869.706 651.27 869.706 652.329V652.764C869.706 653.939 869.975 654.817 870.512 655.397C871.048 655.963 871.73 656.246 872.557 656.246ZM883.842 658.683C883.218 658.683 882.667 658.596 882.188 658.422C881.71 658.233 881.303 657.979 880.97 657.66C880.636 657.327 880.382 656.942 880.208 656.507C880.034 656.057 879.947 655.571 879.947 655.049C879.947 652.728 881.325 651.567 884.082 651.567H887.52V651.023C887.52 650.269 887.346 649.739 886.997 649.435C886.664 649.13 886.127 648.978 885.387 648.978C884.734 648.978 884.263 649.094 883.973 649.326C883.683 649.544 883.516 649.819 883.472 650.153H880.6C880.629 649.66 880.752 649.195 880.97 648.76C881.202 648.325 881.521 647.955 881.927 647.651C882.348 647.331 882.856 647.085 883.451 646.911C884.045 646.722 884.727 646.628 885.496 646.628C886.236 646.628 886.903 646.708 887.498 646.867C888.107 647.027 888.622 647.288 889.043 647.651C889.478 647.999 889.812 648.456 890.044 649.021C890.276 649.587 890.392 650.269 890.392 651.067V655.484C890.392 656.094 890.399 656.63 890.414 657.094C890.443 657.544 890.486 657.987 890.544 658.422H887.868C887.81 658.103 887.774 657.863 887.759 657.704C887.759 657.53 887.759 657.276 887.759 656.942C887.44 657.406 886.954 657.813 886.301 658.161C885.663 658.509 884.843 658.683 883.842 658.683ZM884.734 656.463C885.083 656.463 885.423 656.42 885.757 656.333C886.091 656.231 886.388 656.086 886.649 655.898C886.91 655.695 887.121 655.441 887.28 655.136C887.44 654.831 887.52 654.476 887.52 654.07V653.526H884.626C884.074 653.526 883.639 653.656 883.32 653.917C883.015 654.164 882.863 654.505 882.863 654.94C882.863 655.404 883.023 655.774 883.342 656.05C883.661 656.326 884.125 656.463 884.734 656.463ZM892.028 656.028H893.334C893.479 655.811 893.61 655.499 893.726 655.093C893.842 654.672 893.929 654.208 893.987 653.7C894.059 653.178 894.11 652.634 894.139 652.068C894.183 651.488 894.204 650.922 894.204 650.371V646.889H903.235V656.028H904.649V661.142H902.125V658.422H894.553V661.142H892.028V656.028ZM900.363 656.028V649.283H896.837V650.806C896.837 651.313 896.823 651.814 896.794 652.307C896.765 652.8 896.721 653.279 896.663 653.743C896.62 654.193 896.554 654.614 896.467 655.006C896.38 655.397 896.272 655.738 896.141 656.028H900.363ZM906.499 646.889H909.175V648.586C909.466 648.064 909.923 647.607 910.546 647.215C911.17 646.824 911.961 646.628 912.918 646.628C914.456 646.628 915.653 647.106 916.509 648.064C917.379 649.007 917.814 650.429 917.814 652.329V652.764C917.814 654.752 917.372 656.239 916.487 657.225C915.617 658.197 914.427 658.683 912.918 658.683C912.135 658.683 911.439 658.516 910.829 658.183C910.234 657.834 909.749 657.385 909.371 656.833V662.774H906.499V646.889ZM912.244 656.246C912.998 656.246 913.629 655.963 914.137 655.397C914.645 654.817 914.898 653.939 914.898 652.764V652.329C914.898 651.241 914.652 650.429 914.159 649.892C913.665 649.341 913.027 649.065 912.244 649.065C911.417 649.065 910.728 649.304 910.176 649.783C909.64 650.247 909.371 650.951 909.371 651.894V653.199C909.371 654.229 909.632 654.998 910.155 655.506C910.691 655.999 911.388 656.246 912.244 656.246ZM925.109 658.683C924.326 658.683 923.579 658.567 922.868 658.335C922.172 658.088 921.562 657.726 921.04 657.247C920.518 656.754 920.104 656.137 919.8 655.397C919.495 654.643 919.343 653.765 919.343 652.764V652.329C919.343 651.372 919.488 650.537 919.778 649.827C920.068 649.116 920.467 648.528 920.975 648.064C921.482 647.585 922.07 647.23 922.737 646.998C923.405 646.751 924.123 646.628 924.892 646.628C926.705 646.628 928.083 647.106 929.026 648.064C929.969 649.021 930.44 650.407 930.44 652.22V653.439H922.28C922.295 653.946 922.382 654.389 922.541 654.766C922.701 655.129 922.911 655.426 923.172 655.658C923.434 655.89 923.731 656.065 924.065 656.181C924.413 656.282 924.761 656.333 925.109 656.333C925.849 656.333 926.408 656.224 926.785 656.006C927.162 655.789 927.43 655.47 927.59 655.049H930.223C929.991 656.253 929.418 657.16 928.504 657.769C927.59 658.378 926.458 658.683 925.109 658.683ZM925 648.978C924.667 648.978 924.333 649.021 923.999 649.108C923.68 649.195 923.397 649.333 923.151 649.522C922.904 649.71 922.701 649.964 922.541 650.284C922.382 650.603 922.295 650.987 922.28 651.437H927.655C927.641 650.958 927.561 650.559 927.416 650.24C927.285 649.921 927.097 649.667 926.85 649.478C926.618 649.29 926.342 649.159 926.023 649.087C925.704 649.014 925.363 648.978 925 648.978ZM937.623 658.683C936.825 658.683 936.078 658.56 935.382 658.313C934.7 658.066 934.105 657.697 933.597 657.203C933.09 656.71 932.691 656.094 932.401 655.354C932.11 654.614 931.965 653.751 931.965 652.764V652.329C931.965 651.401 932.118 650.581 932.422 649.87C932.727 649.159 933.133 648.564 933.641 648.086C934.163 647.607 934.765 647.244 935.447 646.998C936.129 646.751 936.854 646.628 937.623 646.628C938.435 646.628 939.154 646.737 939.777 646.954C940.416 647.172 940.952 647.469 941.388 647.846C941.823 648.224 942.164 648.666 942.41 649.174C942.657 649.681 942.802 650.225 942.846 650.806H939.93C939.814 650.269 939.574 649.848 939.212 649.544C938.863 649.225 938.334 649.065 937.623 649.065C937.246 649.065 936.89 649.13 936.557 649.261C936.238 649.391 935.948 649.594 935.686 649.87C935.44 650.131 935.244 650.465 935.099 650.871C934.954 651.277 934.881 651.763 934.881 652.329V652.764C934.881 653.373 934.947 653.903 935.077 654.353C935.222 654.788 935.418 655.151 935.665 655.441C935.911 655.716 936.201 655.919 936.535 656.05C936.869 656.181 937.231 656.246 937.623 656.246C938.189 656.246 938.675 656.101 939.081 655.811C939.502 655.506 939.785 655.071 939.93 654.505H942.846C942.773 655.143 942.592 655.724 942.302 656.246C942.026 656.754 941.656 657.189 941.192 657.551C940.742 657.914 940.213 658.197 939.603 658.4C938.994 658.589 938.334 658.683 937.623 658.683ZM944.813 646.889H947.686V651.35H952.604V646.889H955.476V658.422H952.604V653.743H947.686V658.422H944.813V646.889ZM961.555 658.683C960.931 658.683 960.38 658.596 959.901 658.422C959.422 658.233 959.016 657.979 958.682 657.66C958.349 657.327 958.095 656.942 957.921 656.507C957.747 656.057 957.66 655.571 957.66 655.049C957.66 652.728 959.038 651.567 961.794 651.567H965.232V651.023C965.232 650.269 965.058 649.739 964.71 649.435C964.376 649.13 963.84 648.978 963.1 648.978C962.447 648.978 961.975 649.094 961.685 649.326C961.395 649.544 961.228 649.819 961.185 650.153H958.312C958.341 649.66 958.465 649.195 958.682 648.76C958.914 648.325 959.234 647.955 959.64 647.651C960.06 647.331 960.568 647.085 961.163 646.911C961.758 646.722 962.44 646.628 963.208 646.628C963.948 646.628 964.616 646.708 965.21 646.867C965.82 647.027 966.335 647.288 966.755 647.651C967.191 647.999 967.524 648.456 967.756 649.021C967.988 649.587 968.105 650.269 968.105 651.067V655.484C968.105 656.094 968.112 656.63 968.126 657.094C968.155 657.544 968.199 657.987 968.257 658.422H965.58C965.522 658.103 965.486 657.863 965.472 657.704C965.472 657.53 965.472 657.276 965.472 656.942C965.152 657.406 964.666 657.813 964.014 658.161C963.375 658.509 962.556 658.683 961.555 658.683ZM962.447 656.463C962.795 656.463 963.136 656.42 963.47 656.333C963.803 656.231 964.101 656.086 964.362 655.898C964.623 655.695 964.833 655.441 964.993 655.136C965.152 654.831 965.232 654.476 965.232 654.07V653.526H962.338C961.787 653.526 961.352 653.656 961.032 653.917C960.728 654.164 960.575 654.505 960.575 654.94C960.575 655.404 960.735 655.774 961.054 656.05C961.373 656.326 961.838 656.463 962.447 656.463ZM972.94 654.092C972.055 653.801 971.409 653.366 971.003 652.786C970.597 652.206 970.394 651.524 970.394 650.74C970.394 650.175 970.488 649.66 970.677 649.195C970.88 648.717 971.177 648.311 971.569 647.977C971.96 647.629 972.454 647.36 973.048 647.172C973.658 646.983 974.369 646.889 975.181 646.889H980.621V658.422H977.749V654.44H975.681L973.179 658.422H969.958L972.94 654.092ZM973.266 650.74C973.266 651.234 973.426 651.596 973.745 651.828C974.078 652.061 974.521 652.177 975.072 652.177H977.749V649.283H975.072C974.521 649.283 974.078 649.406 973.745 649.652C973.426 649.885 973.266 650.247 973.266 650.74ZM845.351 670.889H848.028V672.586C848.318 672.064 848.775 671.607 849.399 671.215C850.022 670.824 850.813 670.628 851.77 670.628C853.308 670.628 854.505 671.106 855.361 672.064C856.231 673.007 856.666 674.429 856.666 676.329V676.764C856.666 678.752 856.224 680.239 855.339 681.225C854.469 682.197 853.279 682.683 851.77 682.683C850.987 682.683 850.291 682.516 849.681 682.183C849.087 681.834 848.601 681.385 848.223 680.833V686.774H845.351V670.889ZM851.096 680.246C851.85 680.246 852.481 679.963 852.989 679.397C853.497 678.817 853.751 677.939 853.751 676.764V676.329C853.751 675.241 853.504 674.429 853.011 673.892C852.518 673.341 851.879 673.065 851.096 673.065C850.269 673.065 849.58 673.304 849.029 673.783C848.492 674.247 848.223 674.951 848.223 675.894V677.199C848.223 678.229 848.485 678.998 849.007 679.506C849.544 679.999 850.24 680.246 851.096 680.246ZM862.199 682.683C861.575 682.683 861.024 682.596 860.545 682.422C860.066 682.233 859.66 681.979 859.326 681.66C858.993 681.327 858.739 680.942 858.565 680.507C858.391 680.057 858.304 679.571 858.304 679.049C858.304 676.728 859.682 675.567 862.438 675.567H865.876V675.023C865.876 674.269 865.702 673.739 865.354 673.435C865.02 673.13 864.484 672.978 863.744 672.978C863.091 672.978 862.619 673.094 862.329 673.326C862.039 673.544 861.872 673.819 861.829 674.153H858.956C858.985 673.66 859.109 673.195 859.326 672.76C859.558 672.325 859.878 671.955 860.284 671.651C860.705 671.331 861.212 671.085 861.807 670.911C862.402 670.722 863.084 670.628 863.853 670.628C864.592 670.628 865.26 670.708 865.854 670.867C866.464 671.027 866.979 671.288 867.399 671.651C867.835 671.999 868.168 672.456 868.4 673.021C868.633 673.587 868.749 674.269 868.749 675.067V679.484C868.749 680.094 868.756 680.63 868.77 681.094C868.799 681.544 868.843 681.987 868.901 682.422H866.224C866.166 682.103 866.13 681.863 866.116 681.704C866.116 681.53 866.116 681.276 866.116 680.942C865.796 681.406 865.31 681.813 864.658 682.161C864.019 682.509 863.2 682.683 862.199 682.683ZM863.091 680.463C863.439 680.463 863.78 680.42 864.114 680.333C864.447 680.231 864.745 680.086 865.006 679.898C865.267 679.695 865.477 679.441 865.637 679.136C865.796 678.831 865.876 678.476 865.876 678.07V677.526H862.982C862.431 677.526 861.996 677.656 861.676 677.917C861.372 678.164 861.22 678.505 861.22 678.94C861.22 679.404 861.379 679.774 861.698 680.05C862.017 680.326 862.482 680.463 863.091 680.463ZM876.369 682.683C875.571 682.683 874.824 682.56 874.128 682.313C873.446 682.066 872.851 681.697 872.343 681.203C871.836 680.71 871.437 680.094 871.146 679.354C870.856 678.614 870.711 677.751 870.711 676.764V676.329C870.711 675.401 870.864 674.581 871.168 673.87C871.473 673.159 871.879 672.564 872.387 672.086C872.909 671.607 873.511 671.244 874.193 670.998C874.875 670.751 875.6 670.628 876.369 670.628C877.181 670.628 877.899 670.737 878.523 670.954C879.162 671.172 879.698 671.469 880.134 671.846C880.569 672.224 880.91 672.666 881.156 673.174C881.403 673.681 881.548 674.225 881.591 674.806H878.676C878.56 674.269 878.32 673.848 877.957 673.544C877.609 673.225 877.08 673.065 876.369 673.065C875.992 673.065 875.636 673.13 875.303 673.261C874.984 673.391 874.693 673.594 874.432 673.87C874.186 674.131 873.99 674.465 873.845 674.871C873.7 675.277 873.627 675.763 873.627 676.329V676.764C873.627 677.373 873.692 677.903 873.823 678.353C873.968 678.788 874.164 679.151 874.411 679.441C874.657 679.716 874.947 679.919 875.281 680.05C875.615 680.181 875.977 680.246 876.369 680.246C876.935 680.246 877.421 680.101 877.827 679.811C878.248 679.506 878.53 679.071 878.676 678.505H881.591C881.519 679.143 881.338 679.724 881.047 680.246C880.772 680.754 880.402 681.189 879.938 681.551C879.488 681.914 878.958 682.197 878.349 682.4C877.74 682.589 877.08 682.683 876.369 682.683ZM888.673 682.683C887.875 682.683 887.128 682.56 886.432 682.313C885.75 682.066 885.155 681.697 884.647 681.203C884.139 680.71 883.741 680.094 883.45 679.354C883.16 678.614 883.015 677.751 883.015 676.764V676.329C883.015 675.401 883.168 674.581 883.472 673.87C883.777 673.159 884.183 672.564 884.691 672.086C885.213 671.607 885.815 671.244 886.497 670.998C887.179 670.751 887.904 670.628 888.673 670.628C889.485 670.628 890.203 670.737 890.827 670.954C891.465 671.172 892.002 671.469 892.437 671.846C892.873 672.224 893.214 672.666 893.46 673.174C893.707 673.681 893.852 674.225 893.895 674.806H890.98C890.863 674.269 890.624 673.848 890.261 673.544C889.913 673.225 889.384 673.065 888.673 673.065C888.296 673.065 887.94 673.13 887.607 673.261C887.287 673.391 886.997 673.594 886.736 673.87C886.49 674.131 886.294 674.465 886.149 674.871C886.004 675.277 885.931 675.763 885.931 676.329V676.764C885.931 677.373 885.996 677.903 886.127 678.353C886.272 678.788 886.468 679.151 886.714 679.441C886.961 679.716 887.251 679.919 887.585 680.05C887.919 680.181 888.281 680.246 888.673 680.246C889.239 680.246 889.725 680.101 890.131 679.811C890.552 679.506 890.834 679.071 890.98 678.505H893.895C893.823 679.143 893.642 679.724 893.351 680.246C893.076 680.754 892.706 681.189 892.242 681.551C891.792 681.914 891.262 682.197 890.653 682.4C890.044 682.589 889.384 682.683 888.673 682.683ZM895.863 670.889H898.736V674.762H900.759C903.733 674.762 905.22 676.039 905.22 678.592C905.22 679.158 905.133 679.68 904.959 680.159C904.799 680.623 904.538 681.022 904.176 681.356C903.813 681.689 903.349 681.95 902.783 682.139C902.217 682.328 901.543 682.422 900.759 682.422H895.863V670.889ZM900.433 680.115C901.129 680.115 901.622 679.992 901.913 679.745C902.203 679.484 902.348 679.1 902.348 678.592C902.348 678.084 902.195 677.707 901.891 677.461C901.601 677.199 901.115 677.069 900.433 677.069H898.736V680.115H900.433ZM906.482 670.889H909.355V682.422H906.482V670.889ZM912.08 682.683C911.964 682.683 911.819 682.676 911.645 682.661C911.47 682.661 911.325 682.647 911.209 682.618V680.028C911.282 680.043 911.391 680.05 911.536 680.05C911.811 680.05 912.051 679.97 912.254 679.811C912.457 679.637 912.624 679.346 912.754 678.94C912.899 678.534 913.001 677.997 913.059 677.33C913.131 676.648 913.168 675.807 913.168 674.806V670.889H922.307V682.422H919.435V673.283H915.823V675.241C915.823 676.735 915.743 677.968 915.583 678.94C915.438 679.898 915.206 680.652 914.887 681.203C914.582 681.755 914.19 682.139 913.712 682.357C913.248 682.574 912.704 682.683 912.08 682.683ZM924.912 670.889H927.785V675.415H928.873L932.398 670.889H935.575L931.223 676.351L935.793 682.422H932.354L928.873 677.678H927.785V682.422H924.912V670.889ZM940.676 682.683C940.052 682.683 939.501 682.596 939.022 682.422C938.544 682.233 938.138 681.979 937.804 681.66C937.47 681.327 937.216 680.942 937.042 680.507C936.868 680.057 936.781 679.571 936.781 679.049C936.781 676.728 938.159 675.567 940.916 675.567H944.354V675.023C944.354 674.269 944.18 673.739 943.831 673.435C943.498 673.13 942.961 672.978 942.221 672.978C941.568 672.978 941.097 673.094 940.807 673.326C940.517 673.544 940.35 673.819 940.306 674.153H937.434C937.463 673.66 937.586 673.195 937.804 672.76C938.036 672.325 938.355 671.955 938.761 671.651C939.182 671.331 939.69 671.085 940.285 670.911C940.879 670.722 941.561 670.628 942.33 670.628C943.07 670.628 943.737 670.708 944.332 670.867C944.941 671.027 945.456 671.288 945.877 671.651C946.312 671.999 946.646 672.456 946.878 673.021C947.11 673.587 947.226 674.269 947.226 675.067V679.484C947.226 680.094 947.233 680.63 947.248 681.094C947.277 681.544 947.32 681.987 947.378 682.422H944.702C944.644 682.103 944.608 681.863 944.593 681.704C944.593 681.53 944.593 681.276 944.593 680.942C944.274 681.406 943.788 681.813 943.135 682.161C942.497 682.509 941.677 682.683 940.676 682.683ZM941.568 680.463C941.917 680.463 942.257 680.42 942.591 680.333C942.925 680.231 943.222 680.086 943.483 679.898C943.744 679.695 943.955 679.441 944.114 679.136C944.274 678.831 944.354 678.476 944.354 678.07V677.526H941.46C940.908 677.526 940.473 677.656 940.154 677.917C939.849 678.164 939.697 678.505 939.697 678.94C939.697 679.404 939.857 679.774 940.176 680.05C940.495 680.326 940.959 680.463 941.568 680.463Z" fill="black"/>
<path d="M1271.33 643.19H1274.6V655.724H1278.73V643.19H1282V655.724H1286.13V643.19H1289.39V658.422H1271.33V643.19ZM1292.45 646.889H1295.32V654.287L1300.45 646.889H1303.11V658.422H1300.24V651.023L1295.1 658.422H1292.45V646.889ZM1305.73 646.889H1308.4V648.586C1308.69 648.064 1309.15 647.607 1309.78 647.215C1310.4 646.824 1311.19 646.628 1312.15 646.628C1313.68 646.628 1314.88 647.106 1315.74 648.064C1316.61 649.007 1317.04 650.429 1317.04 652.329V652.764C1317.04 654.752 1316.6 656.239 1315.72 657.225C1314.85 658.197 1313.66 658.683 1312.15 658.683C1311.36 658.683 1310.67 658.516 1310.06 658.183C1309.46 657.834 1308.98 657.385 1308.6 656.833V662.774H1305.73V646.889ZM1311.47 656.246C1312.23 656.246 1312.86 655.963 1313.37 655.397C1313.87 654.817 1314.13 653.939 1314.13 652.764V652.329C1314.13 651.241 1313.88 650.429 1313.39 649.892C1312.89 649.341 1312.26 649.065 1311.47 649.065C1310.65 649.065 1309.96 649.304 1309.41 649.783C1308.87 650.247 1308.6 650.951 1308.6 651.894V653.199C1308.6 654.229 1308.86 654.998 1309.38 655.506C1309.92 655.999 1310.62 656.246 1311.47 656.246ZM1324.34 658.683C1323.55 658.683 1322.81 658.567 1322.1 658.335C1321.4 658.088 1320.79 657.718 1320.27 657.225C1319.75 656.732 1319.33 656.115 1319.03 655.375C1318.72 654.636 1318.57 653.765 1318.57 652.764V652.329C1318.57 651.386 1318.72 650.559 1319.03 649.848C1319.33 649.137 1319.75 648.543 1320.27 648.064C1320.79 647.585 1321.4 647.23 1322.1 646.998C1322.81 646.751 1323.55 646.628 1324.34 646.628C1325.12 646.628 1325.86 646.751 1326.56 646.998C1327.25 647.23 1327.86 647.585 1328.39 648.064C1328.92 648.543 1329.34 649.137 1329.65 649.848C1329.95 650.559 1330.1 651.386 1330.1 652.329V652.764C1330.1 653.751 1329.95 654.614 1329.65 655.354C1329.34 656.094 1328.92 656.71 1328.39 657.203C1327.86 657.697 1327.25 658.066 1326.56 658.313C1325.86 658.56 1325.12 658.683 1324.34 658.683ZM1324.34 656.246C1325.15 656.246 1325.82 655.956 1326.36 655.375C1326.91 654.795 1327.19 653.925 1327.19 652.764V652.329C1327.19 651.27 1326.91 650.465 1326.36 649.914C1325.82 649.348 1325.15 649.065 1324.34 649.065C1323.51 649.065 1322.83 649.348 1322.29 649.914C1321.76 650.465 1321.49 651.27 1321.49 652.329V652.764C1321.49 653.939 1321.76 654.817 1322.29 655.397C1322.83 655.963 1323.51 656.246 1324.34 656.246ZM1332.16 646.889H1335.04V651.415H1336.12L1339.65 646.889H1342.83L1338.47 652.351L1343.04 658.422H1339.61L1336.12 653.678H1335.04V658.422H1332.16V646.889ZM1349.48 658.683C1348.69 658.683 1347.95 658.567 1347.24 658.335C1346.54 658.088 1345.93 657.718 1345.41 657.225C1344.89 656.732 1344.47 656.115 1344.17 655.375C1343.86 654.636 1343.71 653.765 1343.71 652.764V652.329C1343.71 651.386 1343.86 650.559 1344.17 649.848C1344.47 649.137 1344.89 648.543 1345.41 648.064C1345.93 647.585 1346.54 647.23 1347.24 646.998C1347.95 646.751 1348.69 646.628 1349.48 646.628C1350.26 646.628 1351 646.751 1351.7 646.998C1352.39 647.23 1353 647.585 1353.52 648.064C1354.06 648.543 1354.48 649.137 1354.79 649.848C1355.09 650.559 1355.24 651.386 1355.24 652.329V652.764C1355.24 653.751 1355.09 654.614 1354.79 655.354C1354.48 656.094 1354.06 656.71 1353.52 657.203C1353 657.697 1352.39 658.066 1351.7 658.313C1351 658.56 1350.26 658.683 1349.48 658.683ZM1349.48 656.246C1350.29 656.246 1350.96 655.956 1351.5 655.375C1352.05 654.795 1352.33 653.925 1352.33 652.764V652.329C1352.33 651.27 1352.05 650.465 1351.5 649.914C1350.96 649.348 1350.29 649.065 1349.48 649.065C1348.65 649.065 1347.97 649.348 1347.43 649.914C1346.89 650.465 1346.63 651.27 1346.63 652.329V652.764C1346.63 653.939 1346.89 654.817 1347.43 655.397C1347.97 655.963 1348.65 656.246 1349.48 656.246ZM1357.3 646.889H1363.09C1363.83 646.889 1364.46 646.969 1364.98 647.128C1365.52 647.273 1365.96 647.484 1366.31 647.759C1366.66 648.035 1366.91 648.361 1367.07 648.739C1367.23 649.116 1367.31 649.529 1367.31 649.979C1367.31 650.516 1367.15 651.023 1366.81 651.502C1366.49 651.966 1366.05 652.278 1365.48 652.438C1366.19 652.612 1366.75 652.946 1367.14 653.439C1367.54 653.917 1367.75 654.483 1367.75 655.136C1367.75 656.137 1367.4 656.935 1366.7 657.53C1366.01 658.124 1364.95 658.422 1363.53 658.422H1357.3V646.889ZM1362.96 656.115C1363.61 656.115 1364.09 656.021 1364.4 655.832C1364.72 655.629 1364.87 655.31 1364.87 654.875C1364.87 654.44 1364.72 654.128 1364.42 653.939C1364.13 653.736 1363.64 653.635 1362.96 653.635H1360.17V656.115H1362.96ZM1362.68 651.502C1363.34 651.502 1363.8 651.408 1364.05 651.219C1364.31 651.031 1364.44 650.74 1364.44 650.349C1364.44 649.972 1364.31 649.689 1364.05 649.5C1363.79 649.297 1363.33 649.195 1362.68 649.195H1360.17V651.502H1362.68ZM1375.04 658.683C1374.26 658.683 1373.51 658.567 1372.8 658.335C1372.1 658.088 1371.49 657.726 1370.97 657.247C1370.45 656.754 1370.04 656.137 1369.73 655.397C1369.43 654.643 1369.27 653.765 1369.27 652.764V652.329C1369.27 651.372 1369.42 650.537 1369.71 649.827C1370 649.116 1370.4 648.528 1370.91 648.064C1371.41 647.585 1372 647.23 1372.67 646.998C1373.34 646.751 1374.05 646.628 1374.82 646.628C1376.64 646.628 1378.02 647.106 1378.96 648.064C1379.9 649.021 1380.37 650.407 1380.37 652.22V653.439H1372.21C1372.23 653.946 1372.31 654.389 1372.47 654.766C1372.63 655.129 1372.84 655.426 1373.1 655.658C1373.37 655.89 1373.66 656.065 1374 656.181C1374.34 656.282 1374.69 656.333 1375.04 656.333C1375.78 656.333 1376.34 656.224 1376.72 656.006C1377.09 655.789 1377.36 655.47 1377.52 655.049H1380.15C1379.92 656.253 1379.35 657.16 1378.44 657.769C1377.52 658.378 1376.39 658.683 1375.04 658.683ZM1374.93 648.978C1374.6 648.978 1374.27 649.021 1373.93 649.108C1373.61 649.195 1373.33 649.333 1373.08 649.522C1372.84 649.71 1372.63 649.964 1372.47 650.284C1372.31 650.603 1372.23 650.987 1372.21 651.437H1377.59C1377.57 650.958 1377.49 650.559 1377.35 650.24C1377.22 649.921 1377.03 649.667 1376.78 649.478C1376.55 649.29 1376.27 649.159 1375.96 649.087C1375.64 649.014 1375.3 648.978 1374.93 648.978ZM1397 658.422H1382.44V646.889H1385.31V656.028H1388.73V646.889H1391.6V656.028H1395.02V646.889H1397.89V656.028H1399.52V661.142H1397V658.422ZM1405.03 658.683C1404.4 658.683 1403.85 658.596 1403.37 658.422C1402.89 658.233 1402.49 657.979 1402.15 657.66C1401.82 657.327 1401.57 656.942 1401.39 656.507C1401.22 656.057 1401.13 655.571 1401.13 655.049C1401.13 652.728 1402.51 651.567 1405.27 651.567H1408.7V651.023C1408.7 650.269 1408.53 649.739 1408.18 649.435C1407.85 649.13 1407.31 648.978 1406.57 648.978C1405.92 648.978 1405.45 649.094 1405.16 649.326C1404.87 649.544 1404.7 649.819 1404.66 650.153H1401.78C1401.81 649.66 1401.94 649.195 1402.15 648.76C1402.39 648.325 1402.71 647.955 1403.11 647.651C1403.53 647.331 1404.04 647.085 1404.63 646.911C1405.23 646.722 1405.91 646.628 1406.68 646.628C1407.42 646.628 1408.09 646.708 1408.68 646.867C1409.29 647.027 1409.81 647.288 1410.23 647.651C1410.66 647.999 1411 648.456 1411.23 649.021C1411.46 649.587 1411.58 650.269 1411.58 651.067V655.484C1411.58 656.094 1411.58 656.63 1411.6 657.094C1411.63 657.544 1411.67 657.987 1411.73 658.422H1409.05C1408.99 658.103 1408.96 657.863 1408.94 657.704C1408.94 657.53 1408.94 657.276 1408.94 656.942C1408.62 657.406 1408.14 657.813 1407.49 658.161C1406.85 658.509 1406.03 658.683 1405.03 658.683ZM1405.92 656.463C1406.27 656.463 1406.61 656.42 1406.94 656.333C1407.28 656.231 1407.57 656.086 1407.83 655.898C1408.09 655.695 1408.31 655.441 1408.46 655.136C1408.62 654.831 1408.7 654.476 1408.7 654.07V653.526H1405.81C1405.26 653.526 1404.82 653.656 1404.5 653.917C1404.2 654.164 1404.05 654.505 1404.05 654.94C1404.05 655.404 1404.21 655.774 1404.53 656.05C1404.85 656.326 1405.31 656.463 1405.92 656.463ZM1416.7 649.283H1413.02V646.889H1423.25V649.283H1419.57V658.422H1416.7V649.283ZM1429.99 658.683C1429.21 658.683 1428.46 658.567 1427.75 658.335C1427.06 658.088 1426.45 657.726 1425.93 657.247C1425.4 656.754 1424.99 656.137 1424.68 655.397C1424.38 654.643 1424.23 653.765 1424.23 652.764V652.329C1424.23 651.372 1424.37 650.537 1424.66 649.827C1424.95 649.116 1425.35 648.528 1425.86 648.064C1426.37 647.585 1426.96 647.23 1427.62 646.998C1428.29 646.751 1429.01 646.628 1429.78 646.628C1431.59 646.628 1432.97 647.106 1433.91 648.064C1434.85 649.021 1435.33 650.407 1435.33 652.22V653.439H1427.17C1427.18 653.946 1427.27 654.389 1427.43 654.766C1427.59 655.129 1427.8 655.426 1428.06 655.658C1428.32 655.89 1428.62 656.065 1428.95 656.181C1429.3 656.282 1429.65 656.333 1429.99 656.333C1430.73 656.333 1431.29 656.224 1431.67 656.006C1432.05 655.789 1432.32 655.47 1432.48 655.049H1435.11C1434.88 656.253 1434.3 657.16 1433.39 657.769C1432.48 658.378 1431.34 658.683 1429.99 658.683ZM1429.89 648.978C1429.55 648.978 1429.22 649.021 1428.88 649.108C1428.57 649.195 1428.28 649.333 1428.04 649.522C1427.79 649.71 1427.59 649.964 1427.43 650.284C1427.27 650.603 1427.18 650.987 1427.17 651.437H1432.54C1432.53 650.958 1432.45 650.559 1432.3 650.24C1432.17 649.921 1431.98 649.667 1431.74 649.478C1431.5 649.29 1431.23 649.159 1430.91 649.087C1430.59 649.014 1430.25 648.978 1429.89 648.978ZM1437.29 658.683C1437.17 658.683 1437.03 658.676 1436.86 658.661C1436.68 658.661 1436.54 658.647 1436.42 658.618V656.028C1436.49 656.043 1436.6 656.05 1436.75 656.05C1437.02 656.05 1437.26 655.97 1437.47 655.811C1437.67 655.637 1437.84 655.346 1437.97 654.94C1438.11 654.534 1438.21 653.997 1438.27 653.33C1438.34 652.648 1438.38 651.807 1438.38 650.806V646.889H1447.52V658.422H1444.65V649.283H1441.03V651.241C1441.03 652.735 1440.95 653.968 1440.79 654.94C1440.65 655.898 1440.42 656.652 1440.1 657.203C1439.79 657.755 1439.4 658.139 1438.92 658.357C1438.46 658.574 1437.91 658.683 1437.29 658.683ZM1450.12 646.889H1453V650.762H1455.45C1458.43 650.762 1459.92 652.039 1459.92 654.592C1459.92 655.158 1459.83 655.68 1459.65 656.159C1459.5 656.623 1459.23 657.022 1458.87 657.356C1458.51 657.689 1458.04 657.95 1457.48 658.139C1456.91 658.328 1456.24 658.422 1455.45 658.422H1450.12V646.889ZM1455.13 656.115C1455.82 656.115 1456.32 655.992 1456.61 655.745C1456.9 655.484 1457.04 655.1 1457.04 654.592C1457.04 654.084 1456.89 653.707 1456.59 653.461C1456.3 653.199 1455.81 653.069 1455.13 653.069H1453V656.115H1455.13ZM1461.77 646.889H1464.64V651.35H1469.56V646.889H1472.43V658.422H1469.56V653.743H1464.64V658.422H1461.77V646.889ZM1478.51 658.683C1477.89 658.683 1477.34 658.596 1476.86 658.422C1476.38 658.233 1475.97 657.979 1475.64 657.66C1475.3 657.327 1475.05 656.942 1474.88 656.507C1474.7 656.057 1474.62 655.571 1474.62 655.049C1474.62 652.728 1475.99 651.567 1478.75 651.567H1482.19V651.023C1482.19 650.269 1482.01 649.739 1481.67 649.435C1481.33 649.13 1480.8 648.978 1480.06 648.978C1479.4 648.978 1478.93 649.094 1478.64 649.326C1478.35 649.544 1478.18 649.819 1478.14 650.153H1475.27C1475.3 649.66 1475.42 649.195 1475.64 648.76C1475.87 648.325 1476.19 647.955 1476.6 647.651C1477.02 647.331 1477.52 647.085 1478.12 646.911C1478.71 646.722 1479.4 646.628 1480.16 646.628C1480.9 646.628 1481.57 646.708 1482.17 646.867C1482.78 647.027 1483.29 647.288 1483.71 647.651C1484.15 647.999 1484.48 648.456 1484.71 649.021C1484.94 649.587 1485.06 650.269 1485.06 651.067V655.484C1485.06 656.094 1485.07 656.63 1485.08 657.094C1485.11 657.544 1485.15 657.987 1485.21 658.422H1482.54C1482.48 658.103 1482.44 657.863 1482.43 657.704C1482.43 657.53 1482.43 657.276 1482.43 656.942C1482.11 657.406 1481.62 657.813 1480.97 658.161C1480.33 658.509 1479.51 658.683 1478.51 658.683ZM1479.4 656.463C1479.75 656.463 1480.09 656.42 1480.43 656.333C1480.76 656.231 1481.06 656.086 1481.32 655.898C1481.58 655.695 1481.79 655.441 1481.95 655.136C1482.11 654.831 1482.19 654.476 1482.19 654.07V653.526H1479.29C1478.74 653.526 1478.31 653.656 1477.99 653.917C1477.68 654.164 1477.53 654.505 1477.53 654.94C1477.53 655.404 1477.69 655.774 1478.01 656.05C1478.33 656.326 1478.79 656.463 1479.4 656.463ZM1489.9 654.092C1489.01 653.801 1488.36 653.366 1487.96 652.786C1487.55 652.206 1487.35 651.524 1487.35 650.74C1487.35 650.175 1487.44 649.66 1487.63 649.195C1487.84 648.717 1488.13 648.311 1488.52 647.977C1488.92 647.629 1489.41 647.36 1490 647.172C1490.61 646.983 1491.32 646.889 1492.14 646.889H1497.58V658.422H1494.7V654.44H1492.64L1490.13 658.422H1486.91L1489.9 654.092ZM1490.22 650.74C1490.22 651.234 1490.38 651.596 1490.7 651.828C1491.03 652.061 1491.48 652.177 1492.03 652.177H1494.7V649.283H1492.03C1491.48 649.283 1491.03 649.406 1490.7 649.652C1490.38 649.885 1490.22 650.247 1490.22 650.74ZM1333.35 670.889H1336.03V672.586C1336.32 672.064 1336.78 671.607 1337.4 671.215C1338.02 670.824 1338.81 670.628 1339.77 670.628C1341.31 670.628 1342.51 671.106 1343.36 672.064C1344.23 673.007 1344.67 674.429 1344.67 676.329V676.764C1344.67 678.752 1344.23 680.239 1343.34 681.225C1342.47 682.197 1341.28 682.683 1339.77 682.683C1338.99 682.683 1338.29 682.516 1337.68 682.183C1337.09 681.834 1336.6 681.385 1336.23 680.833V686.774H1333.35V670.889ZM1339.1 680.246C1339.85 680.246 1340.48 679.963 1340.99 679.397C1341.5 678.817 1341.75 677.939 1341.75 676.764V676.329C1341.75 675.241 1341.51 674.429 1341.01 673.892C1340.52 673.341 1339.88 673.065 1339.1 673.065C1338.27 673.065 1337.58 673.304 1337.03 673.783C1336.49 674.247 1336.23 674.951 1336.23 675.894V677.199C1336.23 678.229 1336.49 678.998 1337.01 679.506C1337.55 679.999 1338.24 680.246 1339.1 680.246ZM1350.2 682.683C1349.58 682.683 1349.03 682.596 1348.55 682.422C1348.07 682.233 1347.66 681.979 1347.33 681.66C1346.99 681.327 1346.74 680.942 1346.57 680.507C1346.39 680.057 1346.31 679.571 1346.31 679.049C1346.31 676.728 1347.68 675.567 1350.44 675.567H1353.88V675.023C1353.88 674.269 1353.7 673.739 1353.36 673.435C1353.02 673.13 1352.49 672.978 1351.75 672.978C1351.09 672.978 1350.62 673.094 1350.33 673.326C1350.04 673.544 1349.87 673.819 1349.83 674.153H1346.96C1346.99 673.66 1347.11 673.195 1347.33 672.76C1347.56 672.325 1347.88 671.955 1348.29 671.651C1348.71 671.331 1349.21 671.085 1349.81 670.911C1350.4 670.722 1351.09 670.628 1351.85 670.628C1352.59 670.628 1353.26 670.708 1353.86 670.867C1354.47 671.027 1354.98 671.288 1355.4 671.651C1355.84 671.999 1356.17 672.456 1356.4 673.021C1356.63 673.587 1356.75 674.269 1356.75 675.067V679.484C1356.75 680.094 1356.76 680.63 1356.77 681.094C1356.8 681.544 1356.84 681.987 1356.9 682.422H1354.23C1354.17 682.103 1354.13 681.863 1354.12 681.704C1354.12 681.53 1354.12 681.276 1354.12 680.942C1353.8 681.406 1353.31 681.813 1352.66 682.161C1352.02 682.509 1351.2 682.683 1350.2 682.683ZM1351.09 680.463C1351.44 680.463 1351.78 680.42 1352.12 680.333C1352.45 680.231 1352.75 680.086 1353.01 679.898C1353.27 679.695 1353.48 679.441 1353.64 679.136C1353.8 678.831 1353.88 678.476 1353.88 678.07V677.526H1350.98C1350.43 677.526 1350 677.656 1349.68 677.917C1349.37 678.164 1349.22 678.505 1349.22 678.94C1349.22 679.404 1349.38 679.774 1349.7 680.05C1350.02 680.326 1350.48 680.463 1351.09 680.463ZM1364.37 682.683C1363.57 682.683 1362.83 682.56 1362.13 682.313C1361.45 682.066 1360.85 681.697 1360.35 681.203C1359.84 680.71 1359.44 680.094 1359.15 679.354C1358.86 678.614 1358.71 677.751 1358.71 676.764V676.329C1358.71 675.401 1358.87 674.581 1359.17 673.87C1359.47 673.159 1359.88 672.564 1360.39 672.086C1360.91 671.607 1361.51 671.244 1362.19 670.998C1362.88 670.751 1363.6 670.628 1364.37 670.628C1365.18 670.628 1365.9 670.737 1366.53 670.954C1367.16 671.172 1367.7 671.469 1368.14 671.846C1368.57 672.224 1368.91 672.666 1369.16 673.174C1369.4 673.681 1369.55 674.225 1369.59 674.806H1366.68C1366.56 674.269 1366.32 673.848 1365.96 673.544C1365.61 673.225 1365.08 673.065 1364.37 673.065C1363.99 673.065 1363.64 673.13 1363.3 673.261C1362.99 673.391 1362.7 673.594 1362.43 673.87C1362.19 674.131 1361.99 674.465 1361.85 674.871C1361.7 675.277 1361.63 675.763 1361.63 676.329V676.764C1361.63 677.373 1361.69 677.903 1361.82 678.353C1361.97 678.788 1362.17 679.151 1362.41 679.441C1362.66 679.716 1362.95 679.919 1363.28 680.05C1363.62 680.181 1363.98 680.246 1364.37 680.246C1364.94 680.246 1365.42 680.101 1365.83 679.811C1366.25 679.506 1366.53 679.071 1366.68 678.505H1369.59C1369.52 679.143 1369.34 679.724 1369.05 680.246C1368.77 680.754 1368.4 681.189 1367.94 681.551C1367.49 681.914 1366.96 682.197 1366.35 682.4C1365.74 682.589 1365.08 682.683 1364.37 682.683ZM1376.67 682.683C1375.88 682.683 1375.13 682.56 1374.43 682.313C1373.75 682.066 1373.16 681.697 1372.65 681.203C1372.14 680.71 1371.74 680.094 1371.45 679.354C1371.16 678.614 1371.02 677.751 1371.02 676.764V676.329C1371.02 675.401 1371.17 674.581 1371.47 673.87C1371.78 673.159 1372.18 672.564 1372.69 672.086C1373.21 671.607 1373.82 671.244 1374.5 670.998C1375.18 670.751 1375.91 670.628 1376.67 670.628C1377.49 670.628 1378.21 670.737 1378.83 670.954C1379.47 671.172 1380 671.469 1380.44 671.846C1380.87 672.224 1381.22 672.666 1381.46 673.174C1381.71 673.681 1381.85 674.225 1381.9 674.806H1378.98C1378.87 674.269 1378.63 673.848 1378.26 673.544C1377.92 673.225 1377.39 673.065 1376.67 673.065C1376.3 673.065 1375.94 673.13 1375.61 673.261C1375.29 673.391 1375 673.594 1374.74 673.87C1374.49 674.131 1374.3 674.465 1374.15 674.871C1374.01 675.277 1373.93 675.763 1373.93 676.329V676.764C1373.93 677.373 1374 677.903 1374.13 678.353C1374.27 678.788 1374.47 679.151 1374.72 679.441C1374.96 679.716 1375.25 679.919 1375.59 680.05C1375.92 680.181 1376.28 680.246 1376.67 680.246C1377.24 680.246 1377.73 680.101 1378.13 679.811C1378.55 679.506 1378.84 679.071 1378.98 678.505H1381.9C1381.82 679.143 1381.64 679.724 1381.35 680.246C1381.08 680.754 1380.71 681.189 1380.24 681.551C1379.79 681.914 1379.26 682.197 1378.66 682.4C1378.05 682.589 1377.39 682.683 1376.67 682.683ZM1383.87 670.889H1386.74V674.762H1388.76C1391.74 674.762 1393.22 676.039 1393.22 678.592C1393.22 679.158 1393.14 679.68 1392.96 680.159C1392.8 680.623 1392.54 681.022 1392.18 681.356C1391.81 681.689 1391.35 681.95 1390.78 682.139C1390.22 682.328 1389.54 682.422 1388.76 682.422H1383.87V670.889ZM1388.43 680.115C1389.13 680.115 1389.62 679.992 1389.91 679.745C1390.2 679.484 1390.35 679.1 1390.35 678.592C1390.35 678.084 1390.2 677.707 1389.89 677.461C1389.6 677.199 1389.12 677.069 1388.43 677.069H1386.74V680.115H1388.43ZM1394.48 670.889H1397.36V682.422H1394.48V670.889ZM1400.08 682.683C1399.97 682.683 1399.82 682.676 1399.65 682.661C1399.47 682.661 1399.33 682.647 1399.21 682.618V680.028C1399.28 680.043 1399.39 680.05 1399.54 680.05C1399.81 680.05 1400.05 679.97 1400.26 679.811C1400.46 679.637 1400.63 679.346 1400.76 678.94C1400.9 678.534 1401 677.997 1401.06 677.33C1401.13 676.648 1401.17 675.807 1401.17 674.806V670.889H1410.31V682.422H1407.44V673.283H1403.82V675.241C1403.82 676.735 1403.74 677.968 1403.59 678.94C1403.44 679.898 1403.21 680.652 1402.89 681.203C1402.58 681.755 1402.19 682.139 1401.71 682.357C1401.25 682.574 1400.71 682.683 1400.08 682.683ZM1412.91 670.889H1415.79V675.415H1416.87L1420.4 670.889H1423.58L1419.22 676.351L1423.79 682.422H1420.36L1416.87 677.678H1415.79V682.422H1412.91V670.889ZM1428.68 682.683C1428.05 682.683 1427.5 682.596 1427.02 682.422C1426.55 682.233 1426.14 681.979 1425.81 681.66C1425.47 681.327 1425.22 680.942 1425.04 680.507C1424.87 680.057 1424.78 679.571 1424.78 679.049C1424.78 676.728 1426.16 675.567 1428.92 675.567H1432.36V675.023C1432.36 674.269 1432.18 673.739 1431.83 673.435C1431.5 673.13 1430.96 672.978 1430.22 672.978C1429.57 672.978 1429.1 673.094 1428.81 673.326C1428.52 673.544 1428.35 673.819 1428.31 674.153H1425.44C1425.46 673.66 1425.59 673.195 1425.81 672.76C1426.04 672.325 1426.36 671.955 1426.76 671.651C1427.18 671.331 1427.69 671.085 1428.29 670.911C1428.88 670.722 1429.56 670.628 1430.33 670.628C1431.07 670.628 1431.74 670.708 1432.33 670.867C1432.94 671.027 1433.46 671.288 1433.88 671.651C1434.31 671.999 1434.65 672.456 1434.88 673.021C1435.11 673.587 1435.23 674.269 1435.23 675.067V679.484C1435.23 680.094 1435.24 680.63 1435.25 681.094C1435.28 681.544 1435.32 681.987 1435.38 682.422H1432.7C1432.65 682.103 1432.61 681.863 1432.6 681.704C1432.6 681.53 1432.6 681.276 1432.6 680.942C1432.28 681.406 1431.79 681.813 1431.14 682.161C1430.5 682.509 1429.68 682.683 1428.68 682.683ZM1429.57 680.463C1429.92 680.463 1430.26 680.42 1430.59 680.333C1430.93 680.231 1431.22 680.086 1431.49 679.898C1431.75 679.695 1431.96 679.441 1432.12 679.136C1432.28 678.831 1432.36 678.476 1432.36 678.07V677.526H1429.46C1428.91 677.526 1428.48 677.656 1428.16 677.917C1427.85 678.164 1427.7 678.505 1427.7 678.94C1427.7 679.404 1427.86 679.774 1428.18 680.05C1428.5 680.326 1428.96 680.463 1429.57 680.463Z" fill="black"/>
</svg>
