<svg width="1201" height="618" viewBox="0 0 1201 618" fill="none" xmlns="http://www.w3.org/2000/svg">
<rect x="507.885" y="100.887" width="172" height="55" fill="#DAEBFB"/>
<path d="M570.013 121.654H572.058V136.887H570.013V121.654ZM584.929 133.1H578.488L577.03 136.887H574.897L580.729 121.654H582.774L588.606 136.887H586.387L584.929 133.1ZM579.162 131.316H584.254L581.708 124.266L579.162 131.316ZM591.216 121.654H593.218L601.4 133.514V121.654H603.402V136.887H601.4L593.218 125.027V136.887H591.216V121.654ZM616.039 133.1H609.598L608.14 136.887H606.008L611.839 121.654H613.885L619.717 136.887H617.497L616.039 133.1ZM610.273 131.316H615.365L612.819 124.266L610.273 131.316Z" fill="black"/>
<rect x="507.885" y="100.887" width="172" height="55" stroke="#4C89BE"/>
<path d="M709.884 123.387L915.971 123.387V133.387L709.884 133.387V123.387Z" fill="#FFBD6E"/>
<path d="M709.885 139.934L689.885 128.387L709.885 116.84V139.934Z" fill="#FFBD6E"/>
<rect x="935.971" y="100.887" width="172" height="55" fill="#DAEBFB"/>
<path d="M989.939 121.654H991.984V136.887H989.939V121.654ZM1002.11 137.104C1001.26 137.104 1000.44 136.959 999.676 136.669C998.907 136.364 998.225 135.9 997.63 135.276C997.035 134.638 996.564 133.833 996.216 132.861C995.867 131.889 995.693 130.729 995.693 129.379V128.944C995.693 127.639 995.867 126.514 996.216 125.571C996.564 124.628 997.035 123.852 997.63 123.243C998.225 122.634 998.907 122.184 999.676 121.894C1000.44 121.589 1001.26 121.437 1002.11 121.437C1002.94 121.437 1003.69 121.546 1004.38 121.763C1005.07 121.981 1005.68 122.293 1006.2 122.699C1006.73 123.105 1007.15 123.606 1007.47 124.2C1007.8 124.795 1008.01 125.47 1008.1 126.224H1005.92C1005.72 125.238 1005.29 124.498 1004.64 124.005C1003.98 123.511 1003.14 123.265 1002.11 123.265C1001.58 123.265 1001.05 123.366 1000.55 123.569C1000.04 123.772 999.581 124.099 999.175 124.549C998.783 124.984 998.464 125.564 998.218 126.289C997.985 127.015 997.869 127.9 997.869 128.944V129.379C997.869 130.482 998 131.41 998.261 132.165C998.522 132.905 998.856 133.507 999.262 133.971C999.668 134.435 1000.13 134.769 1000.63 134.972C1001.14 135.175 1001.63 135.276 1002.11 135.276C1003.24 135.276 1004.13 135.001 1004.77 134.45C1005.41 133.898 1005.79 133.187 1005.92 132.317H1008.1C1007.98 133.158 1007.75 133.884 1007.4 134.493C1007.05 135.088 1006.61 135.581 1006.07 135.973C1005.55 136.364 1004.95 136.655 1004.27 136.843C1003.6 137.017 1002.88 137.104 1002.11 137.104ZM1019.22 133.1H1012.78L1011.32 136.887H1009.19L1015.02 121.654H1017.07L1022.9 136.887H1020.68L1019.22 133.1ZM1013.45 131.316H1018.55L1016 124.266L1013.45 131.316ZM1025.51 121.654H1027.51L1035.69 133.514V121.654H1037.69V136.887H1035.69L1027.51 125.027V136.887H1025.51V121.654ZM1042.04 121.654H1044.04L1052.22 133.514V121.654H1054.23V136.887H1052.22L1044.04 125.027V136.887H1042.04V121.654Z" fill="black"/>
<rect x="935.971" y="100.887" width="172" height="55" stroke="#4C89BE"/>
<path d="M588.885 303.859L588.885 175.887L598.885 175.887L598.885 303.859L588.885 303.859Z" fill="#FFBD6E"/>
<path d="M605.432 303.859L593.885 323.859L582.338 303.859L605.432 303.859Z" fill="#FFBD6E"/>
<path d="M879.251 298.934L660.146 172.434L660.146 182.434L879.251 308.934L879.251 298.934Z" fill="#FFBD6E"/>
<path d="M879.252 315.481L896.572 313.934L879.252 292.387L879.252 315.481Z" fill="#FFBD6E"/>
<path d="M304.968 300.48L524.072 173.98L524.072 183.98L304.968 310.48L304.968 300.48Z" fill="#FFBD6E"/>
<path d="M304.967 317.028L287.646 315.481L304.967 293.934L304.967 317.028Z" fill="#FFBD6E"/>
<path d="M367.417 490.531C304.613 526.791 202.788 526.791 139.984 490.531C77.1799 454.271 77.1799 395.482 139.984 359.222C202.788 322.962 304.613 322.962 367.417 359.222C430.221 395.482 430.221 454.271 367.417 490.531Z" fill="#FAEEEE" stroke="#CD859B"/>
<path d="M203.583 418.143H205.629V433.375H203.583V418.143ZM210.208 418.143H215.431C216.432 418.143 217.302 418.259 218.042 418.491C218.782 418.723 219.391 419.049 219.87 419.47C220.363 419.876 220.726 420.37 220.958 420.95C221.19 421.516 221.306 422.139 221.306 422.821C221.306 423.503 221.19 424.134 220.958 424.714C220.726 425.28 220.363 425.773 219.87 426.194C219.391 426.6 218.782 426.919 218.042 427.152C217.302 427.384 216.432 427.5 215.431 427.5H212.254V433.375H210.208V418.143ZM215.322 425.715C216.047 425.715 216.657 425.65 217.15 425.52C217.658 425.374 218.064 425.179 218.368 424.932C218.688 424.685 218.912 424.381 219.043 424.018C219.188 423.655 219.261 423.256 219.261 422.821C219.261 422.386 219.188 421.987 219.043 421.624C218.912 421.262 218.688 420.957 218.368 420.71C218.064 420.464 217.658 420.275 217.15 420.145C216.657 420 216.047 419.927 215.322 419.927H212.254V425.715H215.322ZM223.162 426.39H229.69V428.174H223.162V426.39ZM235.584 433.593C234.946 433.593 234.38 433.506 233.887 433.331C233.408 433.143 233.002 432.889 232.668 432.57C232.335 432.251 232.081 431.874 231.907 431.438C231.733 431.003 231.646 430.524 231.646 430.002C231.646 428.856 231.979 428.029 232.647 427.521C233.328 427.014 234.3 426.76 235.562 426.76H239.305V425.976C239.305 424.99 239.08 424.308 238.631 423.931C238.195 423.554 237.535 423.365 236.65 423.365C235.824 423.365 235.222 423.525 234.844 423.844C234.467 424.149 234.257 424.497 234.213 424.888H232.298C232.327 424.424 232.451 423.996 232.668 423.605C232.9 423.198 233.205 422.85 233.582 422.56C233.974 422.27 234.438 422.045 234.975 421.886C235.512 421.711 236.106 421.624 236.759 421.624C238.123 421.624 239.204 421.951 240.002 422.604C240.814 423.242 241.22 424.294 241.22 425.759V430.437C241.22 431.047 241.22 431.583 241.22 432.048C241.235 432.497 241.271 432.94 241.329 433.375H239.653C239.61 433.041 239.581 432.729 239.566 432.439C239.552 432.135 239.545 431.794 239.545 431.417C239.24 432.026 238.747 432.541 238.065 432.962C237.383 433.382 236.556 433.593 235.584 433.593ZM235.998 431.852C236.447 431.852 236.868 431.794 237.26 431.678C237.666 431.547 238.021 431.366 238.326 431.134C238.631 430.887 238.87 430.59 239.044 430.242C239.218 429.893 239.305 429.487 239.305 429.023V428.24H235.889C235.178 428.24 234.62 428.385 234.213 428.675C233.807 428.95 233.604 429.393 233.604 430.002C233.604 430.539 233.793 430.981 234.17 431.33C234.562 431.678 235.171 431.852 235.998 431.852ZM243.297 431.678H244.711C244.871 431.46 245.016 431.126 245.146 430.677C245.277 430.227 245.393 429.698 245.495 429.088C245.596 428.479 245.669 427.819 245.712 427.108C245.77 426.383 245.799 425.643 245.799 424.888V421.842H253.851V431.678H255.483V436.095H253.655V433.375H245.125V436.095H243.297V431.678ZM251.936 431.678V423.539H247.671V425.324C247.671 425.933 247.649 426.542 247.605 427.152C247.562 427.746 247.496 428.319 247.409 428.871C247.322 429.407 247.214 429.922 247.083 430.416C246.967 430.894 246.829 431.315 246.67 431.678H251.936ZM257.778 421.842H259.562V424.018C259.954 423.249 260.498 422.662 261.194 422.255C261.905 421.835 262.724 421.624 263.653 421.624C265.104 421.624 266.264 422.103 267.135 423.061C268.005 424.004 268.44 425.411 268.44 427.282V427.717C268.44 428.704 268.324 429.567 268.092 430.307C267.86 431.032 267.533 431.641 267.113 432.135C266.692 432.613 266.184 432.976 265.59 433.223C265.009 433.469 264.364 433.593 263.653 433.593C262.666 433.593 261.84 433.375 261.172 432.94C260.519 432.505 260.026 431.961 259.692 431.308V437.727H257.778V421.842ZM263.218 431.895C263.682 431.895 264.117 431.808 264.523 431.634C264.929 431.446 265.278 431.177 265.568 430.829C265.872 430.481 266.105 430.046 266.264 429.523C266.438 429.001 266.525 428.399 266.525 427.717V427.282C266.525 426.658 266.438 426.1 266.264 425.607C266.105 425.113 265.872 424.7 265.568 424.366C265.278 424.018 264.929 423.757 264.523 423.583C264.117 423.409 263.682 423.322 263.218 423.322C262.695 423.322 262.217 423.409 261.781 423.583C261.346 423.742 260.976 423.975 260.672 424.279C260.367 424.569 260.128 424.917 259.954 425.324C259.78 425.73 259.692 426.165 259.692 426.629V428.37C259.692 428.892 259.78 429.371 259.954 429.806C260.128 430.242 260.367 430.611 260.672 430.916C260.976 431.221 261.346 431.46 261.781 431.634C262.217 431.808 262.695 431.895 263.218 431.895ZM275.953 433.593C275.213 433.593 274.509 433.477 273.842 433.244C273.175 433.012 272.587 432.657 272.079 432.178C271.571 431.685 271.165 431.068 270.861 430.329C270.556 429.589 270.404 428.718 270.404 427.717V427.282C270.404 426.325 270.549 425.498 270.839 424.801C271.129 424.091 271.513 423.503 271.992 423.039C272.485 422.56 273.051 422.205 273.689 421.973C274.342 421.74 275.024 421.624 275.735 421.624C277.432 421.624 278.745 422.089 279.674 423.017C280.602 423.946 281.066 425.258 281.066 426.956V428.174H272.319C272.319 428.856 272.427 429.429 272.645 429.893C272.863 430.358 273.145 430.735 273.494 431.025C273.842 431.315 274.226 431.525 274.647 431.656C275.082 431.786 275.517 431.852 275.953 431.852C276.823 431.852 277.49 431.707 277.955 431.417C278.433 431.126 278.774 430.727 278.977 430.22H280.849C280.733 430.771 280.522 431.257 280.218 431.678C279.927 432.098 279.565 432.454 279.13 432.744C278.709 433.02 278.223 433.23 277.672 433.375C277.135 433.52 276.562 433.593 275.953 433.593ZM275.844 423.365C275.394 423.365 274.959 423.431 274.538 423.561C274.117 423.677 273.74 423.873 273.407 424.149C273.087 424.41 272.826 424.743 272.623 425.15C272.42 425.556 272.319 426.042 272.319 426.608H279.26C279.246 426.013 279.144 425.512 278.956 425.106C278.781 424.685 278.542 424.352 278.237 424.105C277.933 423.844 277.57 423.655 277.149 423.539C276.743 423.423 276.308 423.365 275.844 423.365ZM288.249 433.593C287.509 433.593 286.82 433.477 286.182 433.244C285.543 432.998 284.992 432.635 284.528 432.156C284.064 431.663 283.694 431.047 283.418 430.307C283.157 429.567 283.026 428.704 283.026 427.717V427.282C283.026 426.354 283.171 425.534 283.462 424.823C283.752 424.112 284.136 423.525 284.615 423.061C285.094 422.582 285.645 422.226 286.269 421.994C286.907 421.748 287.567 421.624 288.249 421.624C288.931 421.624 289.54 421.719 290.077 421.907C290.628 422.096 291.099 422.357 291.491 422.691C291.897 423.024 292.224 423.416 292.47 423.866C292.732 424.315 292.92 424.801 293.036 425.324H291.078C290.962 425.048 290.824 424.794 290.664 424.562C290.519 424.315 290.331 424.105 290.099 423.931C289.881 423.757 289.62 423.619 289.315 423.518C289.01 423.416 288.655 423.365 288.249 423.365C287.828 423.365 287.422 423.445 287.03 423.605C286.639 423.75 286.29 423.982 285.986 424.301C285.681 424.606 285.435 425.005 285.246 425.498C285.072 425.991 284.985 426.586 284.985 427.282V427.717C284.985 428.457 285.072 429.095 285.246 429.632C285.435 430.154 285.681 430.582 285.986 430.916C286.29 431.235 286.639 431.475 287.03 431.634C287.422 431.779 287.828 431.852 288.249 431.852C288.96 431.852 289.555 431.678 290.033 431.33C290.526 430.981 290.875 430.503 291.078 429.893H293.036C292.761 431.039 292.195 431.946 291.339 432.613C290.483 433.266 289.453 433.593 288.249 433.593ZM298.932 433.593C298.293 433.593 297.727 433.506 297.234 433.331C296.755 433.143 296.349 432.889 296.016 432.57C295.682 432.251 295.428 431.874 295.254 431.438C295.08 431.003 294.993 430.524 294.993 430.002C294.993 428.856 295.327 428.029 295.994 427.521C296.676 427.014 297.648 426.76 298.91 426.76H302.653V425.976C302.653 424.99 302.428 424.308 301.978 423.931C301.543 423.554 300.883 423.365 299.998 423.365C299.171 423.365 298.569 423.525 298.192 423.844C297.814 424.149 297.604 424.497 297.561 424.888H295.646C295.675 424.424 295.798 423.996 296.016 423.605C296.248 423.198 296.552 422.85 296.93 422.56C297.321 422.27 297.785 422.045 298.322 421.886C298.859 421.711 299.454 421.624 300.107 421.624C301.47 421.624 302.551 421.951 303.349 422.604C304.161 423.242 304.567 424.294 304.567 425.759V430.437C304.567 431.047 304.567 431.583 304.567 432.048C304.582 432.497 304.618 432.94 304.676 433.375H303.001C302.957 433.041 302.928 432.729 302.914 432.439C302.899 432.135 302.892 431.794 302.892 431.417C302.587 432.026 302.094 432.541 301.412 432.962C300.73 433.382 299.903 433.593 298.932 433.593ZM299.345 431.852C299.795 431.852 300.215 431.794 300.607 431.678C301.013 431.547 301.369 431.366 301.673 431.134C301.978 430.887 302.217 430.59 302.391 430.242C302.565 429.893 302.653 429.487 302.653 429.023V428.24H299.236C298.525 428.24 297.967 428.385 297.561 428.675C297.154 428.95 296.951 429.393 296.951 430.002C296.951 430.539 297.14 430.981 297.517 431.33C297.909 431.678 298.518 431.852 299.345 431.852Z" fill="black"/>
<path d="M707.601 490.531C644.797 526.791 542.971 526.791 480.167 490.531C417.363 454.271 417.363 395.482 480.167 359.222C542.971 322.962 644.797 322.962 707.601 359.222C770.405 395.482 770.405 454.271 707.601 490.531Z" fill="#FAEEEE" stroke="#CD859B"/>
<path d="M511.569 418.143H513.615V430.111L521.71 418.143H523.755V433.375H521.71V421.407L513.615 433.375H511.569V418.143ZM527.667 421.842H529.712L533.825 429.023L537.938 421.842H539.853V433.375H537.938V424.997L534.522 430.873H532.998L529.582 424.997V433.375H527.667V421.842ZM548.116 433.593C547.376 433.593 546.672 433.477 546.005 433.244C545.338 433.012 544.75 432.657 544.242 432.178C543.735 431.685 543.329 431.068 543.024 430.329C542.719 429.589 542.567 428.718 542.567 427.717V427.282C542.567 426.325 542.712 425.498 543.002 424.801C543.292 424.091 543.677 423.503 544.155 423.039C544.649 422.56 545.214 422.205 545.853 421.973C546.506 421.74 547.187 421.624 547.898 421.624C549.595 421.624 550.908 422.089 551.837 423.017C552.765 423.946 553.229 425.258 553.229 426.956V428.174H544.482C544.482 428.856 544.591 429.429 544.808 429.893C545.026 430.358 545.309 430.735 545.657 431.025C546.005 431.315 546.389 431.525 546.81 431.656C547.245 431.786 547.681 431.852 548.116 431.852C548.986 431.852 549.654 431.707 550.118 431.417C550.596 431.126 550.937 430.727 551.14 430.22H553.012C552.896 430.771 552.685 431.257 552.381 431.678C552.091 432.098 551.728 432.454 551.293 432.744C550.872 433.02 550.386 433.23 549.835 433.375C549.298 433.52 548.725 433.593 548.116 433.593ZM548.007 423.365C547.557 423.365 547.122 423.431 546.701 423.561C546.281 423.677 545.903 423.873 545.57 424.149C545.251 424.41 544.99 424.743 544.786 425.15C544.583 425.556 544.482 426.042 544.482 426.608H551.423C551.409 426.013 551.307 425.512 551.119 425.106C550.945 424.685 550.705 424.352 550.401 424.105C550.096 423.844 549.733 423.655 549.313 423.539C548.906 423.423 548.471 423.365 548.007 423.365ZM555.951 421.842H557.866V426.651H563.828V421.842H565.743V433.375H563.828V428.348H557.866V433.375H555.951V421.842ZM572.518 433.593C571.88 433.593 571.314 433.506 570.821 433.331C570.342 433.143 569.936 432.889 569.603 432.57C569.269 432.251 569.015 431.874 568.841 431.438C568.667 431.003 568.58 430.524 568.58 430.002C568.58 428.856 568.914 428.029 569.581 427.521C570.263 427.014 571.235 426.76 572.497 426.76H576.24V425.976C576.24 424.99 576.015 424.308 575.565 423.931C575.13 423.554 574.47 423.365 573.585 423.365C572.758 423.365 572.156 423.525 571.779 423.844C571.401 424.149 571.191 424.497 571.148 424.888H569.233C569.262 424.424 569.385 423.996 569.603 423.605C569.835 423.198 570.139 422.85 570.517 422.56C570.908 422.27 571.372 422.045 571.909 421.886C572.446 421.711 573.041 421.624 573.694 421.624C575.057 421.624 576.138 421.951 576.936 422.604C577.748 423.242 578.154 424.294 578.154 425.759V430.437C578.154 431.047 578.154 431.583 578.154 432.048C578.169 432.497 578.205 432.94 578.263 433.375H576.588C576.544 433.041 576.515 432.729 576.501 432.439C576.486 432.135 576.479 431.794 576.479 431.417C576.174 432.026 575.681 432.541 574.999 432.962C574.317 433.382 573.49 433.593 572.518 433.593ZM572.932 431.852C573.382 431.852 573.802 431.794 574.194 431.678C574.6 431.547 574.956 431.366 575.26 431.134C575.565 430.887 575.804 430.59 575.978 430.242C576.152 429.893 576.24 429.487 576.24 429.023V428.24H572.823C572.112 428.24 571.554 428.385 571.148 428.675C570.741 428.95 570.538 429.393 570.538 430.002C570.538 430.539 570.727 430.981 571.104 431.33C571.496 431.678 572.105 431.852 572.932 431.852ZM585.671 431.678H587.086C587.245 431.46 587.39 431.126 587.521 430.677C587.651 430.227 587.767 429.698 587.869 429.088C587.97 428.479 588.043 427.819 588.086 427.108C588.145 426.383 588.174 425.643 588.174 424.888V421.842H596.225V431.678H597.857V436.095H596.029V433.375H587.499V436.095H585.671V431.678ZM594.31 431.678V423.539H590.045V425.324C590.045 425.933 590.023 426.542 589.98 427.152C589.936 427.746 589.871 428.319 589.784 428.871C589.697 429.407 589.588 429.922 589.457 430.416C589.341 430.894 589.204 431.315 589.044 431.678H594.31ZM604.939 433.593C604.199 433.593 603.496 433.477 602.828 433.244C602.161 432.998 601.574 432.635 601.066 432.156C600.558 431.663 600.152 431.047 599.847 430.307C599.543 429.567 599.39 428.704 599.39 427.717V427.282C599.39 426.354 599.543 425.534 599.847 424.823C600.152 424.112 600.558 423.525 601.066 423.061C601.574 422.582 602.161 422.226 602.828 421.994C603.496 421.748 604.199 421.624 604.939 421.624C605.679 421.624 606.383 421.748 607.05 421.994C607.717 422.226 608.305 422.582 608.813 423.061C609.32 423.525 609.726 424.112 610.031 424.823C610.336 425.534 610.488 426.354 610.488 427.282V427.717C610.488 428.704 610.336 429.567 610.031 430.307C609.726 431.047 609.32 431.663 608.813 432.156C608.305 432.635 607.717 432.998 607.05 433.244C606.383 433.477 605.679 433.593 604.939 433.593ZM604.939 431.852C605.374 431.852 605.81 431.779 606.245 431.634C606.68 431.475 607.064 431.235 607.398 430.916C607.732 430.582 608 430.154 608.203 429.632C608.421 429.11 608.53 428.472 608.53 427.717V427.282C608.53 426.586 608.421 425.991 608.203 425.498C608 425.005 607.732 424.598 607.398 424.279C607.064 423.96 606.68 423.728 606.245 423.583C605.81 423.438 605.374 423.365 604.939 423.365C604.504 423.365 604.069 423.438 603.634 423.583C603.198 423.728 602.814 423.96 602.48 424.279C602.147 424.598 601.871 425.005 601.653 425.498C601.45 425.991 601.349 426.586 601.349 427.282V427.717C601.349 428.472 601.45 429.11 601.653 429.632C601.871 430.154 602.147 430.582 602.48 430.916C602.814 431.235 603.198 431.475 603.634 431.634C604.069 431.779 604.504 431.852 604.939 431.852ZM613.2 421.842H615.245L619.358 429.023L623.471 421.842H625.385V433.375H623.471V424.997L620.054 430.873H618.531L615.115 424.997V433.375H613.2V421.842ZM633.648 433.593C632.909 433.593 632.205 433.477 631.538 433.244C630.87 433.012 630.283 432.657 629.775 432.178C629.267 431.685 628.861 431.068 628.556 430.329C628.252 429.589 628.1 428.718 628.1 427.717V427.282C628.1 426.325 628.245 425.498 628.535 424.801C628.825 424.091 629.209 423.503 629.688 423.039C630.181 422.56 630.747 422.205 631.385 421.973C632.038 421.74 632.72 421.624 633.431 421.624C635.128 421.624 636.441 422.089 637.369 423.017C638.298 423.946 638.762 425.258 638.762 426.956V428.174H630.014C630.014 428.856 630.123 429.429 630.341 429.893C630.558 430.358 630.841 430.735 631.189 431.025C631.538 431.315 631.922 431.525 632.343 431.656C632.778 431.786 633.213 431.852 633.648 431.852C634.519 431.852 635.186 431.707 635.65 431.417C636.129 431.126 636.47 430.727 636.673 430.22H638.544C638.428 430.771 638.218 431.257 637.913 431.678C637.623 432.098 637.261 432.454 636.825 432.744C636.405 433.02 635.919 433.23 635.367 433.375C634.831 433.52 634.258 433.593 633.648 433.593ZM633.54 423.365C633.09 423.365 632.655 423.431 632.234 423.561C631.813 423.677 631.436 423.873 631.102 424.149C630.783 424.41 630.522 424.743 630.319 425.15C630.116 425.556 630.014 426.042 630.014 426.608H636.956C636.941 426.013 636.84 425.512 636.651 425.106C636.477 424.685 636.238 424.352 635.933 424.105C635.629 423.844 635.266 423.655 634.845 423.539C634.439 423.423 634.004 423.365 633.54 423.365ZM641.484 421.842H643.399V426.651H649.361V421.842H651.276V433.375H649.361V428.348H643.399V433.375H641.484V421.842ZM659.553 433.593C658.813 433.593 658.109 433.477 657.442 433.244C656.775 432.998 656.187 432.635 655.679 432.156C655.171 431.663 654.765 431.047 654.461 430.307C654.156 429.567 654.004 428.704 654.004 427.717V427.282C654.004 426.354 654.156 425.534 654.461 424.823C654.765 424.112 655.171 423.525 655.679 423.061C656.187 422.582 656.775 422.226 657.442 421.994C658.109 421.748 658.813 421.624 659.553 421.624C660.292 421.624 660.996 421.748 661.663 421.994C662.331 422.226 662.918 422.582 663.426 423.061C663.934 423.525 664.34 424.112 664.645 424.823C664.949 425.534 665.101 426.354 665.101 427.282V427.717C665.101 428.704 664.949 429.567 664.645 430.307C664.34 431.047 663.934 431.663 663.426 432.156C662.918 432.635 662.331 432.998 661.663 433.244C660.996 433.477 660.292 433.593 659.553 433.593ZM659.553 431.852C659.988 431.852 660.423 431.779 660.858 431.634C661.293 431.475 661.678 431.235 662.011 430.916C662.345 430.582 662.614 430.154 662.817 429.632C663.034 429.11 663.143 428.472 663.143 427.717V427.282C663.143 426.586 663.034 425.991 662.817 425.498C662.614 425.005 662.345 424.598 662.011 424.279C661.678 423.96 661.293 423.728 660.858 423.583C660.423 423.438 659.988 423.365 659.553 423.365C659.117 423.365 658.682 423.438 658.247 423.583C657.812 423.728 657.427 423.96 657.094 424.279C656.76 424.598 656.484 425.005 656.267 425.498C656.064 425.991 655.962 426.586 655.962 427.282V427.717C655.962 428.472 656.064 429.11 656.267 429.632C656.484 430.154 656.76 430.582 657.094 430.916C657.427 431.235 657.812 431.475 658.247 431.634C658.682 431.779 659.117 431.852 659.553 431.852ZM667.813 421.842H672.818C674.24 421.842 675.284 422.139 675.951 422.734C676.619 423.314 676.952 424.069 676.952 424.997C676.952 425.244 676.909 425.498 676.822 425.759C676.735 426.005 676.611 426.238 676.452 426.455C676.307 426.673 676.125 426.861 675.908 427.021C675.705 427.181 675.473 427.304 675.212 427.391C675.922 427.565 676.459 427.899 676.822 428.392C677.199 428.871 677.388 429.436 677.388 430.089C677.388 431.09 677.054 431.888 676.387 432.483C675.719 433.078 674.675 433.375 673.253 433.375H667.813V421.842ZM673.253 431.678C674.065 431.678 674.638 431.533 674.972 431.242C675.306 430.952 675.473 430.539 675.473 430.002C675.473 429.451 675.306 429.03 674.972 428.74C674.638 428.435 674.065 428.283 673.253 428.283H669.728V431.678H673.253ZM672.818 426.716C673.645 426.716 674.218 426.571 674.537 426.281C674.871 425.991 675.037 425.592 675.037 425.084C675.037 424.606 674.871 424.228 674.537 423.953C674.218 423.677 673.645 423.539 672.818 423.539H669.728V426.716H672.818Z" fill="black"/>
<path d="M1048.57 490.531C985.762 526.791 883.936 526.791 821.132 490.531C758.328 454.271 758.328 395.482 821.132 359.222C883.936 322.962 985.762 322.962 1048.57 359.222C1111.37 395.482 1111.37 454.271 1048.57 490.531Z" fill="#FAEEEE" stroke="#CD859B"/>
<path d="M805.746 416.674H807.791V423.18H815.886V416.674H817.931V431.906H815.886V424.965H807.791V431.906H805.746V416.674ZM826.63 432.124C825.891 432.124 825.187 432.008 824.52 431.776C823.852 431.529 823.265 431.166 822.757 430.688C822.249 430.194 821.843 429.578 821.539 428.838C821.234 428.098 821.082 427.235 821.082 426.249V425.813C821.082 424.885 821.234 424.065 821.539 423.354C821.843 422.644 822.249 422.056 822.757 421.592C823.265 421.113 823.852 420.758 824.52 420.526C825.187 420.279 825.891 420.156 826.63 420.156C827.37 420.156 828.074 420.279 828.741 420.526C829.409 420.758 829.996 421.113 830.504 421.592C831.012 422.056 831.418 422.644 831.722 423.354C832.027 424.065 832.179 424.885 832.179 425.813V426.249C832.179 427.235 832.027 428.098 831.722 428.838C831.418 429.578 831.012 430.194 830.504 430.688C829.996 431.166 829.409 431.529 828.741 431.776C828.074 432.008 827.37 432.124 826.63 432.124ZM826.63 430.383C827.066 430.383 827.501 430.31 827.936 430.165C828.371 430.006 828.756 429.766 829.089 429.447C829.423 429.114 829.691 428.686 829.894 428.163C830.112 427.641 830.221 427.003 830.221 426.249V425.813C830.221 425.117 830.112 424.522 829.894 424.029C829.691 423.536 829.423 423.13 829.089 422.81C828.756 422.491 828.371 422.259 827.936 422.114C827.501 421.969 827.066 421.896 826.63 421.896C826.195 421.896 825.76 421.969 825.325 422.114C824.89 422.259 824.505 422.491 824.172 422.81C823.838 423.13 823.562 423.536 823.345 424.029C823.142 424.522 823.04 425.117 823.04 425.813V426.249C823.04 427.003 823.142 427.641 823.345 428.163C823.562 428.686 823.838 429.114 824.172 429.447C824.505 429.766 824.89 430.006 825.325 430.165C825.76 430.31 826.195 430.383 826.63 430.383ZM834.891 420.373H836.936L841.049 427.554L845.162 420.373H847.077V431.906H845.162V423.529L841.745 429.404H840.222L836.806 423.529V431.906H834.891V420.373ZM855.34 432.124C854.6 432.124 853.896 432.008 853.229 431.776C852.562 431.544 851.974 431.188 851.466 430.709C850.959 430.216 850.552 429.6 850.248 428.86C849.943 428.12 849.791 427.25 849.791 426.249V425.813C849.791 424.856 849.936 424.029 850.226 423.333C850.516 422.622 850.901 422.034 851.379 421.57C851.872 421.091 852.438 420.736 853.077 420.504C853.729 420.272 854.411 420.156 855.122 420.156C856.819 420.156 858.132 420.62 859.061 421.548C859.989 422.477 860.453 423.79 860.453 425.487V426.706H851.706C851.706 427.387 851.814 427.96 852.032 428.425C852.25 428.889 852.533 429.266 852.881 429.556C853.229 429.846 853.613 430.057 854.034 430.187C854.469 430.318 854.904 430.383 855.34 430.383C856.21 430.383 856.877 430.238 857.342 429.948C857.82 429.658 858.161 429.259 858.364 428.751H860.236C860.12 429.302 859.909 429.788 859.605 430.209C859.315 430.63 858.952 430.985 858.517 431.275C858.096 431.551 857.61 431.761 857.059 431.906C856.522 432.051 855.949 432.124 855.34 432.124ZM855.231 421.896C854.781 421.896 854.346 421.962 853.925 422.092C853.505 422.208 853.127 422.404 852.794 422.68C852.475 422.941 852.213 423.275 852.01 423.681C851.807 424.087 851.706 424.573 851.706 425.139H858.647C858.633 424.544 858.531 424.044 858.343 423.637C858.168 423.217 857.929 422.883 857.624 422.636C857.32 422.375 856.957 422.187 856.536 422.071C856.13 421.955 855.695 421.896 855.231 421.896ZM863.175 420.373H864.959V422.549C865.351 421.78 865.895 421.193 866.591 420.787C867.302 420.366 868.122 420.156 869.05 420.156C870.501 420.156 871.662 420.634 872.532 421.592C873.402 422.535 873.838 423.942 873.838 425.813V426.249C873.838 427.235 873.722 428.098 873.489 428.838C873.257 429.563 872.931 430.173 872.51 430.666C872.09 431.145 871.582 431.507 870.987 431.754C870.407 432.001 869.761 432.124 869.05 432.124C868.064 432.124 867.237 431.906 866.57 431.471C865.917 431.036 865.424 430.492 865.09 429.839V436.258H863.175V420.373ZM868.615 430.427C869.079 430.427 869.515 430.34 869.921 430.165C870.327 429.977 870.675 429.708 870.965 429.36C871.27 429.012 871.502 428.577 871.662 428.055C871.836 427.532 871.923 426.93 871.923 426.249V425.813C871.923 425.19 871.836 424.631 871.662 424.138C871.502 423.645 871.27 423.231 870.965 422.897C870.675 422.549 870.327 422.288 869.921 422.114C869.515 421.94 869.079 421.853 868.615 421.853C868.093 421.853 867.614 421.94 867.179 422.114C866.744 422.274 866.374 422.506 866.069 422.81C865.765 423.101 865.525 423.449 865.351 423.855C865.177 424.261 865.09 424.696 865.09 425.161V426.901C865.09 427.424 865.177 427.902 865.351 428.338C865.525 428.773 865.765 429.143 866.069 429.447C866.374 429.752 866.744 429.991 867.179 430.165C867.614 430.34 868.093 430.427 868.615 430.427ZM879.849 432.124C879.21 432.124 878.645 432.037 878.151 431.863C877.673 431.674 877.266 431.42 876.933 431.101C876.599 430.782 876.345 430.405 876.171 429.97C875.997 429.534 875.91 429.056 875.91 428.533C875.91 427.387 876.244 426.56 876.911 426.053C877.593 425.545 878.565 425.291 879.827 425.291H883.57V424.508C883.57 423.521 883.345 422.839 882.895 422.462C882.46 422.085 881.8 421.896 880.915 421.896C880.088 421.896 879.486 422.056 879.109 422.375C878.732 422.68 878.521 423.028 878.478 423.42H876.563C876.592 422.955 876.715 422.528 876.933 422.136C877.165 421.73 877.469 421.381 877.847 421.091C878.238 420.801 878.703 420.576 879.239 420.417C879.776 420.243 880.371 420.156 881.024 420.156C882.387 420.156 883.468 420.482 884.266 421.135C885.078 421.773 885.485 422.825 885.485 424.29V428.969C885.485 429.578 885.485 430.115 885.485 430.579C885.499 431.029 885.535 431.471 885.593 431.906H883.918C883.874 431.573 883.845 431.261 883.831 430.971C883.816 430.666 883.809 430.325 883.809 429.948C883.504 430.557 883.011 431.072 882.329 431.493C881.647 431.914 880.821 432.124 879.849 432.124ZM880.262 430.383C880.712 430.383 881.132 430.325 881.524 430.209C881.93 430.078 882.286 429.897 882.59 429.665C882.895 429.418 883.134 429.121 883.308 428.773C883.483 428.425 883.57 428.018 883.57 427.554V426.771H880.153C879.442 426.771 878.884 426.916 878.478 427.206C878.072 427.482 877.868 427.924 877.868 428.533C877.868 429.07 878.057 429.513 878.434 429.861C878.826 430.209 879.435 430.383 880.262 430.383ZM894.307 420.373H903.881V431.906H901.966V422.071H896.222V431.906H894.307V420.373ZM912.142 432.124C911.402 432.124 910.698 432.008 910.031 431.776C909.364 431.529 908.776 431.166 908.268 430.688C907.761 430.194 907.355 429.578 907.05 428.838C906.745 428.098 906.593 427.235 906.593 426.249V425.813C906.593 424.885 906.745 424.065 907.05 423.354C907.355 422.644 907.761 422.056 908.268 421.592C908.776 421.113 909.364 420.758 910.031 420.526C910.698 420.279 911.402 420.156 912.142 420.156C912.882 420.156 913.585 420.279 914.253 420.526C914.92 420.758 915.507 421.113 916.015 421.592C916.523 422.056 916.929 422.644 917.234 423.354C917.538 424.065 917.691 424.885 917.691 425.813V426.249C917.691 427.235 917.538 428.098 917.234 428.838C916.929 429.578 916.523 430.194 916.015 430.688C915.507 431.166 914.92 431.529 914.253 431.776C913.585 432.008 912.882 432.124 912.142 432.124ZM912.142 430.383C912.577 430.383 913.012 430.31 913.447 430.165C913.883 430.006 914.267 429.766 914.601 429.447C914.934 429.114 915.203 428.686 915.406 428.163C915.623 427.641 915.732 427.003 915.732 426.249V425.813C915.732 425.117 915.623 424.522 915.406 424.029C915.203 423.536 914.934 423.13 914.601 422.81C914.267 422.491 913.883 422.259 913.447 422.114C913.012 421.969 912.577 421.896 912.142 421.896C911.707 421.896 911.271 421.969 910.836 422.114C910.401 422.259 910.017 422.491 909.683 422.81C909.349 423.13 909.074 423.536 908.856 424.029C908.653 424.522 908.551 425.117 908.551 425.813V426.249C908.551 427.003 908.653 427.641 908.856 428.163C909.074 428.686 909.349 429.114 909.683 429.447C910.017 429.766 910.401 430.006 910.836 430.165C911.271 430.31 911.707 430.383 912.142 430.383ZM920.402 420.373H922.187V422.549C922.578 421.78 923.122 421.193 923.819 420.787C924.529 420.366 925.349 420.156 926.278 420.156C927.728 420.156 928.889 420.634 929.759 421.592C930.63 422.535 931.065 423.942 931.065 425.813V426.249C931.065 427.235 930.949 428.098 930.717 428.838C930.485 429.563 930.158 430.173 929.737 430.666C929.317 431.145 928.809 431.507 928.214 431.754C927.634 432.001 926.988 432.124 926.278 432.124C925.291 432.124 924.464 431.906 923.797 431.471C923.144 431.036 922.651 430.492 922.317 429.839V436.258H920.402V420.373ZM925.842 430.427C926.307 430.427 926.742 430.34 927.148 430.165C927.554 429.977 927.902 429.708 928.192 429.36C928.497 429.012 928.729 428.577 928.889 428.055C929.063 427.532 929.15 426.93 929.15 426.249V425.813C929.15 425.19 929.063 424.631 928.889 424.138C928.729 423.645 928.497 423.231 928.192 422.897C927.902 422.549 927.554 422.288 927.148 422.114C926.742 421.94 926.307 421.853 925.842 421.853C925.32 421.853 924.841 421.94 924.406 422.114C923.971 422.274 923.601 422.506 923.296 422.81C922.992 423.101 922.752 423.449 922.578 423.855C922.404 424.261 922.317 424.696 922.317 425.161V426.901C922.317 427.424 922.404 427.902 922.578 428.338C922.752 428.773 922.992 429.143 923.296 429.447C923.601 429.752 923.971 429.991 924.406 430.165C924.841 430.34 925.32 430.427 925.842 430.427ZM936.21 422.071H932.272V420.373H942.064V422.071H938.125V431.906H936.21V422.071ZM948.82 432.124C948.08 432.124 947.376 432.008 946.709 431.776C946.042 431.529 945.454 431.166 944.947 430.688C944.439 430.194 944.033 429.578 943.728 428.838C943.423 428.098 943.271 427.235 943.271 426.249V425.813C943.271 424.885 943.423 424.065 943.728 423.354C944.033 422.644 944.439 422.056 944.947 421.592C945.454 421.113 946.042 420.758 946.709 420.526C947.376 420.279 948.08 420.156 948.82 420.156C949.56 420.156 950.263 420.279 950.931 420.526C951.598 420.758 952.185 421.113 952.693 421.592C953.201 422.056 953.607 422.644 953.912 423.354C954.216 424.065 954.369 424.885 954.369 425.813V426.249C954.369 427.235 954.216 428.098 953.912 428.838C953.607 429.578 953.201 430.194 952.693 430.688C952.185 431.166 951.598 431.529 950.931 431.776C950.263 432.008 949.56 432.124 948.82 432.124ZM948.82 430.383C949.255 430.383 949.69 430.31 950.126 430.165C950.561 430.006 950.945 429.766 951.279 429.447C951.612 429.114 951.881 428.686 952.084 428.163C952.302 427.641 952.41 427.003 952.41 426.249V425.813C952.41 425.117 952.302 424.522 952.084 424.029C951.881 423.536 951.612 423.13 951.279 422.81C950.945 422.491 950.561 422.259 950.126 422.114C949.69 421.969 949.255 421.896 948.82 421.896C948.385 421.896 947.949 421.969 947.514 422.114C947.079 422.259 946.695 422.491 946.361 422.81C946.027 423.13 945.752 423.536 945.534 424.029C945.331 424.522 945.229 425.117 945.229 425.813V426.249C945.229 427.003 945.331 427.641 945.534 428.163C945.752 428.686 946.027 429.114 946.361 429.447C946.695 429.766 947.079 430.006 947.514 430.165C947.949 430.31 948.385 430.383 948.82 430.383ZM957.08 420.373H962.085C963.507 420.373 964.551 420.671 965.219 421.265C965.886 421.846 966.22 422.6 966.22 423.529C966.22 423.775 966.176 424.029 966.089 424.29C966.002 424.537 965.879 424.769 965.719 424.986C965.574 425.204 965.393 425.393 965.175 425.552C964.972 425.712 964.74 425.835 964.479 425.922C965.19 426.096 965.726 426.43 966.089 426.923C966.466 427.402 966.655 427.968 966.655 428.62C966.655 429.621 966.321 430.419 965.654 431.014C964.987 431.609 963.942 431.906 962.52 431.906H957.08V420.373ZM962.52 430.209C963.333 430.209 963.906 430.064 964.239 429.774C964.573 429.484 964.74 429.07 964.74 428.533C964.74 427.982 964.573 427.561 964.239 427.271C963.906 426.967 963.333 426.814 962.52 426.814H958.995V430.209H962.52ZM962.085 425.248C962.912 425.248 963.485 425.103 963.804 424.812C964.138 424.522 964.305 424.123 964.305 423.616C964.305 423.137 964.138 422.76 963.804 422.484C963.485 422.208 962.912 422.071 962.085 422.071H958.995V425.248H962.085ZM978.807 418.458H973.519V416.674H986.14V418.458H980.852V431.906H978.807V418.458ZM993.877 432.124C993.022 432.124 992.209 431.979 991.44 431.689C990.671 431.384 989.99 430.92 989.395 430.296C988.8 429.658 988.329 428.853 987.98 427.881C987.632 426.909 987.458 425.748 987.458 424.399V423.964C987.458 422.658 987.632 421.534 987.98 420.591C988.329 419.648 988.8 418.872 989.395 418.263C989.99 417.653 990.671 417.204 991.44 416.913C992.209 416.609 993.022 416.456 993.877 416.456C994.704 416.456 995.459 416.565 996.14 416.783C996.837 417 997.446 417.312 997.968 417.719C998.491 418.125 998.911 418.625 999.23 419.22C999.564 419.815 999.774 420.489 999.862 421.244H997.685C997.482 420.257 997.054 419.517 996.402 419.024C995.749 418.531 994.907 418.284 993.877 418.284C993.341 418.284 992.818 418.386 992.311 418.589C991.803 418.792 991.346 419.118 990.94 419.568C990.548 420.003 990.229 420.584 989.982 421.309C989.75 422.034 989.634 422.919 989.634 423.964V424.399C989.634 425.501 989.765 426.43 990.026 427.184C990.287 427.924 990.621 428.526 991.027 428.99C991.433 429.455 991.89 429.788 992.398 429.991C992.905 430.194 993.399 430.296 993.877 430.296C995.009 430.296 995.894 430.02 996.532 429.469C997.17 428.918 997.555 428.207 997.685 427.337H999.862C999.745 428.178 999.513 428.903 999.165 429.513C998.817 430.107 998.375 430.601 997.838 430.992C997.316 431.384 996.714 431.674 996.032 431.863C995.364 432.037 994.646 432.124 993.877 432.124ZM1003.12 416.674H1008.34C1009.34 416.674 1010.21 416.79 1010.95 417.022C1011.69 417.254 1012.3 417.581 1012.78 418.001C1013.27 418.408 1013.64 418.901 1013.87 419.481C1014.1 420.047 1014.22 420.671 1014.22 421.352C1014.22 422.034 1014.1 422.665 1013.87 423.246C1013.64 423.811 1013.27 424.305 1012.78 424.725C1012.3 425.132 1011.69 425.451 1010.95 425.683C1010.21 425.915 1009.34 426.031 1008.34 426.031H1005.16V431.906H1003.12V416.674ZM1008.23 424.247C1008.96 424.247 1009.57 424.181 1010.06 424.051C1010.57 423.906 1010.97 423.71 1011.28 423.463C1011.6 423.217 1011.82 422.912 1011.95 422.549C1012.1 422.187 1012.17 421.788 1012.17 421.352C1012.17 420.917 1012.1 420.518 1011.95 420.156C1011.82 419.793 1011.6 419.488 1011.28 419.242C1010.97 418.995 1010.57 418.807 1010.06 418.676C1009.57 418.531 1008.96 418.458 1008.23 418.458H1005.16V424.247H1008.23ZM1022.95 416.674H1024.78L1017.9 436.258H1016.07L1022.95 416.674ZM1033.6 432.124C1032.69 432.124 1031.86 431.993 1031.12 431.732C1030.39 431.471 1029.77 431.072 1029.25 430.535C1028.73 429.999 1028.32 429.324 1028.03 428.512C1027.75 427.685 1027.62 426.713 1027.62 425.596V416.674H1029.66V425.596C1029.66 427.25 1030.01 428.446 1030.71 429.186C1031.4 429.926 1032.37 430.296 1033.6 430.296C1034.83 430.296 1035.8 429.926 1036.49 429.186C1037.19 428.446 1037.54 427.25 1037.54 425.596V416.674H1039.58V425.596C1039.58 426.713 1039.44 427.685 1039.15 428.512C1038.87 429.324 1038.47 429.999 1037.95 430.535C1037.43 431.072 1036.8 431.471 1036.06 431.732C1035.33 431.993 1034.51 432.124 1033.6 432.124ZM1043.73 416.674H1048.19C1049.34 416.674 1050.36 416.834 1051.26 417.153C1052.16 417.457 1052.92 417.914 1053.54 418.524C1054.17 419.133 1054.64 419.895 1054.98 420.808C1055.31 421.722 1055.48 422.774 1055.48 423.964V424.399C1055.48 425.618 1055.3 426.698 1054.96 427.641C1054.62 428.57 1054.13 429.353 1053.48 429.991C1052.84 430.615 1052.06 431.094 1051.13 431.428C1050.2 431.747 1049.15 431.906 1047.97 431.906H1043.73V416.674ZM1047.75 430.122C1048.61 430.122 1049.38 430.013 1050.06 429.795C1050.76 429.578 1051.34 429.244 1051.82 428.795C1052.3 428.33 1052.66 427.736 1052.91 427.01C1053.17 426.285 1053.3 425.414 1053.3 424.399V423.964C1053.3 422.992 1053.18 422.158 1052.93 421.461C1052.69 420.765 1052.33 420.199 1051.87 419.764C1051.4 419.314 1050.84 418.988 1050.17 418.785C1049.52 418.567 1048.78 418.458 1047.97 418.458H1045.77V430.122H1047.75ZM1058.96 416.674H1064.19C1065.19 416.674 1066.06 416.79 1066.8 417.022C1067.54 417.254 1068.15 417.581 1068.63 418.001C1069.12 418.408 1069.48 418.901 1069.71 419.481C1069.95 420.047 1070.06 420.671 1070.06 421.352C1070.06 422.034 1069.95 422.665 1069.71 423.246C1069.48 423.811 1069.12 424.305 1068.63 424.725C1068.15 425.132 1067.54 425.451 1066.8 425.683C1066.06 425.915 1065.19 426.031 1064.19 426.031H1061.01V431.906H1058.96V416.674ZM1064.08 424.247C1064.8 424.247 1065.41 424.181 1065.91 424.051C1066.41 423.906 1066.82 423.71 1067.12 423.463C1067.44 423.217 1067.67 422.912 1067.8 422.549C1067.94 422.187 1068.02 421.788 1068.02 421.352C1068.02 420.917 1067.94 420.518 1067.8 420.156C1067.67 419.793 1067.44 419.488 1067.12 419.242C1066.82 418.995 1066.41 418.807 1065.91 418.676C1065.41 418.531 1064.8 418.458 1064.08 418.458H1061.01V424.247H1064.08Z" fill="black"/>
</svg>
