<svg width="1001" height="499" viewBox="0 0 1001 499" fill="none" xmlns="http://www.w3.org/2000/svg">
<path d="M326.894 393.503C325.98 393.503 325.183 393.394 324.501 393.177C323.819 392.959 323.246 392.662 322.782 392.285C322.317 391.893 321.948 391.443 321.672 390.936C321.411 390.413 321.229 389.855 321.128 389.26H323.173C323.246 389.594 323.369 389.913 323.543 390.217C323.717 390.508 323.949 390.761 324.24 390.979C324.544 391.197 324.914 391.371 325.349 391.501C325.785 391.617 326.3 391.675 326.894 391.675C328.113 391.675 329.034 391.443 329.658 390.979C330.296 390.515 330.615 389.942 330.615 389.26C330.615 388.839 330.543 388.484 330.398 388.194C330.267 387.904 330.035 387.65 329.701 387.432C329.382 387.215 328.954 387.019 328.418 386.845C327.895 386.67 327.25 386.496 326.481 386.322C325.625 386.134 324.885 385.931 324.261 385.713C323.652 385.481 323.144 385.198 322.738 384.864C322.346 384.516 322.049 384.103 321.846 383.624C321.657 383.145 321.563 382.558 321.563 381.861C321.563 381.296 321.686 380.773 321.933 380.295C322.18 379.801 322.528 379.374 322.978 379.011C323.442 378.648 324 378.365 324.653 378.162C325.32 377.945 326.067 377.836 326.894 377.836C327.707 377.836 328.418 377.945 329.027 378.162C329.636 378.365 330.151 378.648 330.572 379.011C331.007 379.374 331.348 379.801 331.595 380.295C331.841 380.773 332.015 381.296 332.117 381.861H330.071C329.999 381.557 329.89 381.274 329.745 381.013C329.6 380.737 329.397 380.505 329.136 380.316C328.889 380.113 328.577 379.954 328.2 379.838C327.837 379.722 327.402 379.664 326.894 379.664C325.85 379.664 325.037 379.881 324.457 380.316C323.891 380.737 323.609 381.252 323.609 381.861C323.609 382.253 323.681 382.594 323.826 382.884C323.971 383.16 324.196 383.406 324.501 383.624C324.805 383.827 325.19 384.008 325.654 384.168C326.133 384.313 326.699 384.458 327.351 384.603C328.294 384.806 329.099 385.038 329.767 385.3C330.449 385.546 331 385.851 331.421 386.214C331.856 386.576 332.168 387.004 332.356 387.497C332.559 387.991 332.661 388.578 332.661 389.26C332.661 389.855 332.53 390.413 332.269 390.936C332.008 391.443 331.631 391.893 331.138 392.285C330.644 392.662 330.042 392.959 329.332 393.177C328.621 393.394 327.808 393.503 326.894 393.503ZM334.29 381.753H336.379L338.599 390.674L341.602 381.753H343.299L346.411 390.674L348.609 381.753H350.611L347.455 393.286H345.54L342.407 384.364L339.36 393.286H337.446L334.29 381.753ZM353.212 381.753H355.127V393.286H353.212V381.753ZM354.17 380.229C353.793 380.229 353.481 380.106 353.234 379.86C352.988 379.613 352.864 379.301 352.864 378.924C352.864 378.547 352.988 378.235 353.234 377.988C353.481 377.742 353.793 377.618 354.17 377.618C354.547 377.618 354.859 377.742 355.106 377.988C355.352 378.235 355.476 378.547 355.476 378.924C355.476 379.301 355.352 379.613 355.106 379.86C354.859 380.106 354.547 380.229 354.17 380.229ZM363.061 393.394C361.828 393.394 360.935 393.119 360.384 392.568C359.847 392.002 359.579 391.153 359.579 390.022V383.45H357.838V381.753H359.579V379.141H361.494V381.753H364.584V383.45H361.494V389.804C361.494 390.457 361.632 390.928 361.907 391.218C362.183 391.509 362.713 391.654 363.496 391.654C363.931 391.654 364.366 391.632 364.802 391.588V393.286C364.526 393.315 364.25 393.336 363.975 393.351C363.699 393.38 363.394 393.394 363.061 393.394ZM371.991 393.503C371.251 393.503 370.562 393.387 369.924 393.155C369.285 392.908 368.734 392.546 368.27 392.067C367.806 391.574 367.436 390.957 367.16 390.217C366.899 389.478 366.769 388.614 366.769 387.628V387.193C366.769 386.264 366.914 385.445 367.204 384.734C367.494 384.023 367.878 383.435 368.357 382.971C368.836 382.493 369.387 382.137 370.011 381.905C370.649 381.658 371.309 381.535 371.991 381.535C372.673 381.535 373.282 381.629 373.819 381.818C374.37 382.007 374.842 382.268 375.233 382.601C375.639 382.935 375.966 383.327 376.212 383.776C376.474 384.226 376.662 384.712 376.778 385.234H374.82C374.704 384.959 374.566 384.705 374.406 384.473C374.261 384.226 374.073 384.016 373.841 383.842C373.623 383.668 373.362 383.53 373.057 383.428C372.753 383.327 372.397 383.276 371.991 383.276C371.57 383.276 371.164 383.356 370.772 383.515C370.381 383.66 370.033 383.892 369.728 384.212C369.423 384.516 369.177 384.915 368.988 385.408C368.814 385.902 368.727 386.496 368.727 387.193V387.628C368.727 388.368 368.814 389.006 368.988 389.543C369.177 390.065 369.423 390.493 369.728 390.827C370.033 391.146 370.381 391.385 370.772 391.545C371.164 391.69 371.57 391.762 371.991 391.762C372.702 391.762 373.297 391.588 373.775 391.24C374.269 390.892 374.617 390.413 374.82 389.804H376.778C376.503 390.95 375.937 391.857 375.081 392.524C374.225 393.177 373.195 393.503 371.991 393.503ZM379.388 378.053H381.303V383.82C381.448 383.515 381.636 383.225 381.868 382.949C382.101 382.674 382.376 382.434 382.695 382.231C383.015 382.014 383.377 381.847 383.783 381.731C384.19 381.6 384.632 381.535 385.111 381.535C386.561 381.535 387.635 381.927 388.331 382.71C389.042 383.479 389.398 384.611 389.398 386.105V393.286H387.483V386.54C387.483 385.466 387.258 384.654 386.808 384.103C386.358 383.552 385.604 383.276 384.545 383.276C383.979 383.276 383.486 383.37 383.065 383.559C382.659 383.747 382.325 383.994 382.064 384.299C381.803 384.603 381.607 384.951 381.477 385.343C381.361 385.735 381.303 386.134 381.303 386.54V393.286H379.388V378.053ZM401.915 384.603V386.301L392.123 390.674V388.629L399.521 385.495L392.123 382.362V380.229L401.915 384.603Z" fill="#58A982"/>
<path d="M416.673 381.753H418.457V383.929C418.849 383.16 419.393 382.572 420.089 382.166C420.8 381.745 421.62 381.535 422.548 381.535C423.999 381.535 425.159 382.014 426.03 382.971C426.9 383.914 427.335 385.321 427.335 387.193V387.628C427.335 388.614 427.219 389.478 426.987 390.217C426.755 390.943 426.429 391.552 426.008 392.045C425.587 392.524 425.08 392.887 424.485 393.133C423.904 393.38 423.259 393.503 422.548 393.503C421.562 393.503 420.735 393.286 420.067 392.85C419.415 392.415 418.921 391.871 418.588 391.218V397.638H416.673V381.753ZM422.113 391.806C422.577 391.806 423.012 391.719 423.418 391.545C423.825 391.356 424.173 391.088 424.463 390.74C424.768 390.392 425 389.956 425.159 389.434C425.333 388.912 425.42 388.31 425.42 387.628V387.193C425.42 386.569 425.333 386.01 425.159 385.517C425 385.024 424.768 384.611 424.463 384.277C424.173 383.929 423.825 383.668 423.418 383.493C423.012 383.319 422.577 383.232 422.113 383.232C421.591 383.232 421.112 383.319 420.677 383.493C420.241 383.653 419.872 383.885 419.567 384.19C419.262 384.48 419.023 384.828 418.849 385.234C418.675 385.641 418.588 386.076 418.588 386.54V388.281C418.588 388.803 418.675 389.282 418.849 389.717C419.023 390.152 419.262 390.522 419.567 390.827C419.872 391.131 420.241 391.371 420.677 391.545C421.112 391.719 421.591 391.806 422.113 391.806ZM430.278 381.753H432.193V393.286H430.278V381.753ZM431.236 380.229C430.858 380.229 430.546 380.106 430.3 379.86C430.053 379.613 429.93 379.301 429.93 378.924C429.93 378.547 430.053 378.235 430.3 377.988C430.546 377.742 430.858 377.618 431.236 377.618C431.613 377.618 431.925 377.742 432.171 377.988C432.418 378.235 432.541 378.547 432.541 378.924C432.541 379.301 432.418 379.613 432.171 379.86C431.925 380.106 431.613 380.229 431.236 380.229ZM435.883 381.753H437.667V383.929C437.798 383.61 437.979 383.305 438.211 383.015C438.444 382.725 438.719 382.471 439.038 382.253C439.372 382.036 439.749 381.861 440.17 381.731C440.605 381.6 441.084 381.535 441.606 381.535C443.057 381.535 444.13 381.927 444.827 382.71C445.537 383.479 445.893 384.611 445.893 386.105V393.286H443.978V386.54C443.978 385.466 443.753 384.654 443.303 384.103C442.854 383.552 442.099 383.276 441.04 383.276C440.474 383.276 439.981 383.37 439.561 383.559C439.154 383.747 438.821 383.994 438.56 384.299C438.298 384.603 438.103 384.951 437.972 385.343C437.856 385.735 437.798 386.134 437.798 386.54V393.286H435.883V381.753ZM453.84 397.855C452.999 397.855 452.281 397.768 451.686 397.594C451.091 397.435 450.598 397.21 450.206 396.92C449.829 396.629 449.539 396.281 449.336 395.875C449.133 395.483 449.002 395.055 448.944 394.591H450.946C451.019 394.823 451.12 395.034 451.251 395.222C451.382 395.411 451.556 395.57 451.773 395.701C451.991 395.832 452.266 395.933 452.6 396.006C452.948 396.078 453.362 396.114 453.84 396.114C455.016 396.114 455.879 395.832 456.43 395.266C456.981 394.7 457.257 393.895 457.257 392.85V391.001C456.923 391.77 456.408 392.343 455.712 392.72C455.03 393.097 454.225 393.286 453.296 393.286C452.586 393.286 451.933 393.162 451.338 392.916C450.758 392.669 450.257 392.306 449.837 391.828C449.416 391.349 449.089 390.754 448.857 390.043C448.625 389.318 448.509 388.477 448.509 387.519V387.084C448.509 386.199 448.625 385.416 448.857 384.734C449.104 384.037 449.438 383.457 449.858 382.993C450.279 382.514 450.779 382.152 451.36 381.905C451.955 381.658 452.6 381.535 453.296 381.535C454.283 381.535 455.139 381.76 455.864 382.21C456.59 382.645 457.097 383.218 457.387 383.929V381.753H459.172V392.85C459.172 394.417 458.715 395.643 457.801 396.528C456.887 397.413 455.567 397.855 453.84 397.855ZM453.732 391.588C454.254 391.588 454.733 391.509 455.168 391.349C455.603 391.175 455.973 390.936 456.278 390.631C456.582 390.326 456.822 389.964 456.996 389.543C457.17 389.122 457.257 388.665 457.257 388.172V386.431C457.257 385.996 457.17 385.582 456.996 385.191C456.822 384.799 456.582 384.458 456.278 384.168C455.973 383.878 455.603 383.653 455.168 383.493C454.733 383.319 454.254 383.232 453.732 383.232C453.267 383.232 452.832 383.319 452.426 383.493C452.02 383.668 451.664 383.921 451.36 384.255C451.07 384.589 450.838 384.995 450.663 385.474C450.504 385.938 450.424 386.475 450.424 387.084V387.519C450.424 388.172 450.504 388.752 450.663 389.26C450.838 389.768 451.07 390.196 451.36 390.544C451.664 390.892 452.02 391.153 452.426 391.327C452.832 391.501 453.267 391.588 453.732 391.588Z" fill="#CD859B"/>
<path d="M493.525 391.216H497.159V380.009L493.525 382.599V380.379L497.203 377.768H499.248V391.216H502.229V393H493.525V391.216ZM509.091 393.218C507.858 393.218 506.836 392.942 506.023 392.391C505.211 391.825 504.674 390.976 504.413 389.845H506.458C506.865 390.875 507.742 391.39 509.091 391.39C509.614 391.39 510.1 391.295 510.549 391.107C510.999 390.918 511.391 390.606 511.724 390.171C512.058 389.736 512.327 389.156 512.53 388.43C512.733 387.705 512.849 386.798 512.878 385.71C512.675 386.058 512.428 386.363 512.138 386.624C511.848 386.871 511.529 387.074 511.18 387.234C510.847 387.379 510.499 387.487 510.136 387.56C509.773 387.632 509.425 387.669 509.091 387.669C507.568 387.669 506.35 387.248 505.436 386.407C504.536 385.551 504.087 384.332 504.087 382.751V382.533C504.087 381.808 504.217 381.141 504.478 380.531C504.754 379.922 505.124 379.4 505.588 378.965C506.052 378.515 506.596 378.167 507.22 377.92C507.844 377.673 508.504 377.55 509.2 377.55C510.912 377.55 512.261 378.109 513.248 379.226C514.249 380.343 514.749 382.105 514.749 384.513V384.949C514.749 386.443 514.597 387.719 514.292 388.778C513.988 389.823 513.574 390.679 513.052 391.346C512.544 391.999 511.949 392.478 511.268 392.782C510.586 393.073 509.86 393.218 509.091 393.218ZM509.374 385.841C510.433 385.841 511.238 385.572 511.79 385.036C512.341 384.499 512.617 383.73 512.617 382.729V382.512C512.617 381.525 512.334 380.756 511.768 380.205C511.217 379.654 510.419 379.378 509.374 379.378C508.315 379.378 507.51 379.646 506.959 380.183C506.408 380.705 506.132 381.482 506.132 382.512V382.729C506.132 383.73 506.408 384.499 506.959 385.036C507.51 385.572 508.315 385.841 509.374 385.841ZM516.935 391.324L523.028 386.037C523.493 385.645 523.87 385.29 524.16 384.97C524.464 384.651 524.704 384.354 524.878 384.078C525.052 383.788 525.168 383.505 525.226 383.23C525.299 382.954 525.335 382.657 525.335 382.337C525.335 381.482 525.081 380.778 524.573 380.227C524.066 379.661 523.369 379.378 522.484 379.378C521.425 379.378 520.613 379.668 520.047 380.248C519.481 380.814 519.198 381.619 519.198 382.664H517.153C517.153 381.924 517.276 381.242 517.523 380.618C517.784 379.98 518.147 379.436 518.611 378.986C519.09 378.537 519.655 378.188 520.308 377.942C520.961 377.681 521.686 377.55 522.484 377.55C523.253 377.55 523.942 377.673 524.552 377.92C525.161 378.152 525.676 378.486 526.097 378.921C526.517 379.342 526.836 379.842 527.054 380.423C527.272 381.003 527.38 381.641 527.38 382.337C527.38 382.86 527.301 383.346 527.141 383.795C526.981 384.245 526.757 384.673 526.466 385.079C526.191 385.485 525.85 385.884 525.444 386.276C525.052 386.653 524.617 387.045 524.138 387.451L519.59 391.216H527.598V393H516.935V391.324ZM531.952 393.218C531.531 393.218 531.168 393.073 530.864 392.782C530.574 392.478 530.429 392.115 530.429 391.694C530.429 391.259 530.574 390.896 530.864 390.606C531.168 390.316 531.531 390.171 531.952 390.171C532.372 390.171 532.728 390.316 533.018 390.606C533.323 390.896 533.475 391.259 533.475 391.694C533.475 392.115 533.323 392.478 533.018 392.782C532.728 393.073 532.372 393.218 531.952 393.218ZM536.408 391.216H540.042V380.009L536.408 382.599V380.379L540.086 377.768H542.131V391.216H545.113V393H536.408V391.216ZM552.627 393.218C551.786 393.218 551.024 393.08 550.343 392.804C549.661 392.529 549.073 392.108 548.58 391.542C548.101 390.962 547.731 390.236 547.47 389.366C547.209 388.496 547.079 387.458 547.079 386.254V385.819C547.079 384.325 547.231 383.056 547.536 382.011C547.84 380.952 548.254 380.096 548.776 379.443C549.298 378.776 549.907 378.297 550.604 378.007C551.3 377.702 552.047 377.55 552.845 377.55C554.02 377.55 555.007 377.833 555.804 378.399C556.617 378.95 557.154 379.791 557.415 380.923H555.369C554.963 379.893 554.122 379.378 552.845 379.378C552.294 379.378 551.786 379.472 551.322 379.661C550.858 379.849 550.451 380.161 550.103 380.597C549.77 381.032 549.501 381.612 549.298 382.337C549.095 383.063 548.979 383.969 548.95 385.057C549.153 384.709 549.4 384.412 549.69 384.165C549.98 383.904 550.292 383.701 550.626 383.556C550.974 383.396 551.329 383.28 551.692 383.208C552.054 383.135 552.403 383.099 552.736 383.099C554.26 383.099 555.471 383.527 556.37 384.383C557.284 385.224 557.741 386.436 557.741 388.017V388.234C557.741 388.96 557.603 389.627 557.328 390.236C557.067 390.846 556.704 391.375 556.24 391.825C555.775 392.26 555.231 392.601 554.608 392.848C553.984 393.094 553.324 393.218 552.627 393.218ZM552.453 391.39C553.512 391.39 554.318 391.121 554.869 390.585C555.42 390.048 555.696 389.272 555.696 388.256V388.039C555.696 387.038 555.42 386.269 554.869 385.732C554.318 385.195 553.512 384.927 552.453 384.927C551.394 384.927 550.589 385.195 550.038 385.732C549.487 386.269 549.211 387.038 549.211 388.039V388.256C549.211 389.257 549.487 390.033 550.038 390.585C550.589 391.121 551.394 391.39 552.453 391.39ZM565.585 393.218C564.686 393.218 563.895 393.109 563.213 392.891C562.531 392.674 561.958 392.376 561.494 391.999C561.044 391.622 560.704 391.179 560.471 390.672C560.254 390.149 560.145 389.584 560.145 388.974C560.145 388.104 560.421 387.328 560.972 386.646C561.523 385.95 562.336 385.456 563.409 385.166C563.017 385.036 562.647 384.862 562.299 384.644C561.966 384.412 561.668 384.144 561.407 383.839C561.146 383.534 560.943 383.193 560.798 382.816C560.653 382.424 560.58 382.011 560.58 381.576C560.58 381.01 560.689 380.481 560.907 379.987C561.124 379.494 561.443 379.073 561.864 378.725C562.285 378.363 562.807 378.08 563.431 377.877C564.055 377.659 564.773 377.55 565.585 377.55C566.397 377.55 567.116 377.659 567.739 377.877C568.363 378.08 568.885 378.363 569.306 378.725C569.727 379.073 570.046 379.494 570.264 379.987C570.481 380.481 570.59 381.01 570.59 381.576C570.59 382.446 570.314 383.186 569.763 383.795C569.226 384.405 568.559 384.862 567.761 385.166C568.849 385.529 569.662 386.008 570.198 386.602C570.75 387.197 571.025 387.988 571.025 388.974C571.025 389.584 570.909 390.149 570.677 390.672C570.459 391.179 570.118 391.622 569.654 391.999C569.205 392.376 568.639 392.674 567.957 392.891C567.275 393.109 566.485 393.218 565.585 393.218ZM565.585 391.39C566.209 391.39 566.738 391.324 567.174 391.194C567.609 391.049 567.957 390.867 568.218 390.65C568.494 390.418 568.69 390.149 568.806 389.845C568.922 389.526 568.98 389.192 568.98 388.844C568.98 388.438 568.893 388.068 568.719 387.734C568.559 387.4 568.327 387.11 568.022 386.864C567.718 386.602 567.355 386.399 566.934 386.254C566.528 386.095 566.078 385.986 565.585 385.928C565.092 385.986 564.635 386.095 564.214 386.254C563.808 386.399 563.453 386.595 563.148 386.842C562.843 387.088 562.604 387.386 562.43 387.734C562.27 388.068 562.19 388.438 562.19 388.844C562.19 389.192 562.248 389.526 562.365 389.845C562.481 390.149 562.669 390.418 562.93 390.65C563.206 390.867 563.561 391.049 563.997 391.194C564.432 391.324 564.961 391.39 565.585 391.39ZM565.585 384.405C566.455 384.289 567.166 384.013 567.718 383.578C568.269 383.128 568.544 382.497 568.544 381.685C568.544 380.945 568.298 380.379 567.805 379.987C567.326 379.581 566.586 379.378 565.585 379.378C564.57 379.378 563.822 379.581 563.344 379.987C562.865 380.379 562.626 380.945 562.626 381.685C562.626 382.497 562.901 383.128 563.453 383.578C564.004 384.013 564.715 384.289 565.585 384.405ZM575.494 393.218C575.073 393.218 574.71 393.073 574.406 392.782C574.116 392.478 573.97 392.115 573.97 391.694C573.97 391.259 574.116 390.896 574.406 390.606C574.71 390.316 575.073 390.171 575.494 390.171C575.914 390.171 576.27 390.316 576.56 390.606C576.865 390.896 577.017 391.259 577.017 391.694C577.017 392.115 576.865 392.478 576.56 392.782C576.27 393.073 575.914 393.218 575.494 393.218ZM579.95 391.216H583.584V380.009L579.95 382.599V380.379L583.628 377.768H585.673V391.216H588.654V393H579.95V391.216ZM596.061 393.218C595.321 393.218 594.617 393.094 593.95 392.848C593.297 392.601 592.724 392.18 592.231 391.586C591.738 390.976 591.346 390.171 591.056 389.17C590.766 388.155 590.621 386.893 590.621 385.384V384.949C590.621 383.542 590.766 382.366 591.056 381.423C591.346 380.481 591.738 379.726 592.231 379.16C592.724 378.58 593.297 378.167 593.95 377.92C594.617 377.673 595.321 377.55 596.061 377.55C596.8 377.55 597.497 377.673 598.15 377.92C598.817 378.167 599.397 378.58 599.89 379.16C600.384 379.726 600.775 380.481 601.065 381.423C601.356 382.366 601.501 383.542 601.501 384.949V385.384C601.501 386.893 601.356 388.155 601.065 389.17C600.775 390.171 600.384 390.976 599.89 391.586C599.397 392.18 598.817 392.601 598.15 392.848C597.497 393.094 596.8 393.218 596.061 393.218ZM596.061 391.433C596.51 391.433 596.938 391.353 597.344 391.194C597.765 391.02 598.128 390.715 598.432 390.28C598.752 389.83 598.998 389.214 599.172 388.43C599.361 387.647 599.455 386.631 599.455 385.384V384.949C599.455 383.817 599.361 382.889 599.172 382.163C598.998 381.438 598.752 380.865 598.432 380.444C598.128 380.024 597.765 379.733 597.344 379.574C596.938 379.414 596.51 379.335 596.061 379.335C595.596 379.335 595.161 379.414 594.755 379.574C594.349 379.733 593.986 380.024 593.667 380.444C593.362 380.865 593.116 381.438 592.927 382.163C592.753 382.889 592.666 383.817 592.666 384.949V385.384C592.666 386.631 592.753 387.647 592.927 388.43C593.116 389.214 593.362 389.83 593.667 390.28C593.986 390.715 594.349 391.02 594.755 391.194C595.161 391.353 595.596 391.433 596.061 391.433ZM606.073 393.218C605.652 393.218 605.29 393.073 604.985 392.782C604.695 392.478 604.55 392.115 604.55 391.694C604.55 391.259 604.695 390.896 604.985 390.606C605.29 390.316 605.652 390.171 606.073 390.171C606.494 390.171 606.849 390.316 607.139 390.606C607.444 390.896 607.596 391.259 607.596 391.694C607.596 392.115 607.444 392.478 607.139 392.782C606.849 393.073 606.494 393.218 606.073 393.218ZM615.643 393.218C614.816 393.218 614.098 393.109 613.489 392.891C612.88 392.659 612.365 392.362 611.944 391.999C611.538 391.622 611.226 391.201 611.008 390.737C610.791 390.273 610.667 389.794 610.638 389.301H612.684C612.756 389.852 613.046 390.338 613.554 390.759C614.076 391.179 614.773 391.39 615.643 391.39C616.63 391.39 617.406 391.085 617.972 390.476C618.537 389.852 618.82 388.989 618.82 387.886C618.82 387.263 618.726 386.726 618.537 386.276C618.363 385.826 618.124 385.464 617.819 385.188C617.529 384.912 617.195 384.709 616.818 384.579C616.441 384.448 616.049 384.383 615.643 384.383C614.86 384.383 614.243 384.528 613.794 384.818C613.358 385.108 613.025 385.442 612.793 385.819H610.965V377.768H619.995V379.552H613.01V383.795C613.765 382.968 614.751 382.555 615.97 382.555C617.478 382.555 618.668 383.012 619.538 383.926C620.423 384.84 620.866 386.16 620.866 387.886C620.866 388.699 620.735 389.439 620.474 390.106C620.227 390.759 619.872 391.317 619.408 391.781C618.958 392.246 618.407 392.601 617.754 392.848C617.116 393.094 616.412 393.218 615.643 393.218Z" fill="#E87F53"/>
<path d="M361.468 366.823V329.057H172.682V261.474" stroke="black" stroke-width="2"/>
<path d="M317.4 122.611C316.486 122.611 315.688 122.502 315.007 122.284C314.325 122.067 313.752 121.769 313.288 121.392C312.823 121 312.453 120.551 312.178 120.043C311.917 119.521 311.735 118.962 311.634 118.367H313.679C313.752 118.701 313.875 119.02 314.049 119.325C314.223 119.615 314.455 119.869 314.745 120.086C315.05 120.304 315.42 120.478 315.855 120.609C316.29 120.725 316.805 120.783 317.4 120.783C318.619 120.783 319.54 120.551 320.164 120.086C320.802 119.622 321.121 119.049 321.121 118.367C321.121 117.947 321.049 117.591 320.904 117.301C320.773 117.011 320.541 116.757 320.207 116.54C319.888 116.322 319.46 116.126 318.923 115.952C318.401 115.778 317.756 115.604 316.987 115.43C316.131 115.241 315.391 115.038 314.767 114.82C314.158 114.588 313.65 114.305 313.244 113.972C312.852 113.624 312.555 113.21 312.352 112.731C312.163 112.253 312.069 111.665 312.069 110.969C312.069 110.403 312.192 109.881 312.439 109.402C312.685 108.909 313.034 108.481 313.483 108.118C313.948 107.756 314.506 107.473 315.159 107.27C315.826 107.052 316.573 106.943 317.4 106.943C318.213 106.943 318.923 107.052 319.533 107.27C320.142 107.473 320.657 107.756 321.078 108.118C321.513 108.481 321.854 108.909 322.1 109.402C322.347 109.881 322.521 110.403 322.623 110.969H320.577C320.505 110.664 320.396 110.381 320.251 110.12C320.106 109.845 319.903 109.612 319.642 109.424C319.395 109.221 319.083 109.061 318.706 108.945C318.343 108.829 317.908 108.771 317.4 108.771C316.356 108.771 315.543 108.989 314.963 109.424C314.397 109.845 314.114 110.36 314.114 110.969C314.114 111.361 314.187 111.701 314.332 111.992C314.477 112.267 314.702 112.514 315.007 112.731C315.311 112.935 315.696 113.116 316.16 113.275C316.639 113.421 317.204 113.566 317.857 113.711C318.8 113.914 319.605 114.146 320.273 114.407C320.954 114.654 321.506 114.958 321.926 115.321C322.362 115.684 322.673 116.112 322.862 116.605C323.065 117.098 323.167 117.686 323.167 118.367C323.167 118.962 323.036 119.521 322.775 120.043C322.514 120.551 322.137 121 321.643 121.392C321.15 121.769 320.548 122.067 319.837 122.284C319.127 122.502 318.314 122.611 317.4 122.611ZM324.796 110.86H326.885L329.105 119.782L332.108 110.86H333.805L336.917 119.782L339.115 110.86H341.116L337.961 122.393H336.046L332.913 113.471L329.866 122.393H327.951L324.796 110.86ZM343.718 110.86H345.633V122.393H343.718V110.86ZM344.676 109.337C344.299 109.337 343.987 109.214 343.74 108.967C343.493 108.72 343.37 108.408 343.37 108.031C343.37 107.654 343.493 107.342 343.74 107.096C343.987 106.849 344.299 106.726 344.676 106.726C345.053 106.726 345.365 106.849 345.611 107.096C345.858 107.342 345.981 107.654 345.981 108.031C345.981 108.408 345.858 108.72 345.611 108.967C345.365 109.214 345.053 109.337 344.676 109.337ZM353.567 122.502C352.334 122.502 351.441 122.226 350.89 121.675C350.353 121.109 350.085 120.261 350.085 119.129V112.557H348.344V110.86H350.085V108.249H352V110.86H355.09V112.557H352V118.911C352 119.564 352.138 120.036 352.413 120.326C352.689 120.616 353.218 120.761 354.002 120.761C354.437 120.761 354.872 120.739 355.307 120.696V122.393C355.032 122.422 354.756 122.444 354.481 122.458C354.205 122.487 353.9 122.502 353.567 122.502ZM362.497 122.611C361.757 122.611 361.068 122.495 360.43 122.263C359.791 122.016 359.24 121.653 358.776 121.174C358.312 120.681 357.942 120.065 357.666 119.325C357.405 118.585 357.274 117.722 357.274 116.735V116.3C357.274 115.372 357.419 114.552 357.71 113.841C358 113.13 358.384 112.543 358.863 112.079C359.342 111.6 359.893 111.245 360.517 111.012C361.155 110.766 361.815 110.642 362.497 110.642C363.179 110.642 363.788 110.737 364.325 110.925C364.876 111.114 365.347 111.375 365.739 111.709C366.145 112.042 366.472 112.434 366.718 112.884C366.979 113.334 367.168 113.819 367.284 114.342H365.326C365.21 114.066 365.072 113.812 364.912 113.58C364.767 113.334 364.579 113.123 364.346 112.949C364.129 112.775 363.868 112.637 363.563 112.536C363.258 112.434 362.903 112.383 362.497 112.383C362.076 112.383 361.67 112.463 361.278 112.623C360.887 112.768 360.538 113 360.234 113.319C359.929 113.624 359.683 114.023 359.494 114.516C359.32 115.009 359.233 115.604 359.233 116.3V116.735C359.233 117.475 359.32 118.114 359.494 118.65C359.683 119.173 359.929 119.6 360.234 119.934C360.538 120.253 360.887 120.493 361.278 120.652C361.67 120.797 362.076 120.87 362.497 120.87C363.208 120.87 363.802 120.696 364.281 120.348C364.774 119.999 365.123 119.521 365.326 118.911H367.284C367.008 120.057 366.443 120.964 365.587 121.631C364.731 122.284 363.701 122.611 362.497 122.611ZM369.894 107.161H371.809V112.927C371.954 112.623 372.142 112.333 372.374 112.057C372.606 111.781 372.882 111.542 373.201 111.339C373.52 111.121 373.883 110.954 374.289 110.838C374.695 110.708 375.138 110.642 375.617 110.642C377.067 110.642 378.141 111.034 378.837 111.818C379.548 112.586 379.903 113.718 379.903 115.212V122.393H377.989V115.647C377.989 114.574 377.764 113.761 377.314 113.21C376.864 112.659 376.11 112.383 375.051 112.383C374.485 112.383 373.992 112.478 373.571 112.666C373.165 112.855 372.831 113.101 372.57 113.406C372.309 113.711 372.113 114.059 371.983 114.451C371.867 114.842 371.809 115.241 371.809 115.647V122.393H369.894V107.161ZM392.421 113.711V115.408L382.629 119.782V117.736L390.027 114.603L382.629 111.469V109.337L392.421 113.711Z" fill="#58A982"/>
<path d="M408.731 122.611C407.962 122.611 407.294 122.524 406.729 122.35C406.177 122.161 405.706 121.914 405.314 121.61C404.923 121.305 404.618 120.95 404.4 120.543C404.183 120.137 404.03 119.702 403.943 119.238H405.858C405.96 119.702 406.228 120.108 406.663 120.456C407.113 120.79 407.802 120.957 408.731 120.957C409.267 120.957 409.717 120.913 410.08 120.826C410.442 120.725 410.733 120.601 410.95 120.456C411.182 120.297 411.349 120.115 411.451 119.912C411.552 119.695 411.603 119.47 411.603 119.238C411.603 118.991 411.552 118.774 411.451 118.585C411.364 118.396 411.197 118.23 410.95 118.085C410.718 117.925 410.392 117.787 409.971 117.671C409.565 117.541 409.05 117.432 408.426 117.345C407.788 117.258 407.207 117.134 406.685 116.975C406.177 116.801 405.742 116.576 405.38 116.3C405.031 116.025 404.756 115.698 404.553 115.321C404.364 114.929 404.27 114.458 404.27 113.907C404.27 113.471 404.364 113.058 404.553 112.666C404.741 112.275 405.024 111.926 405.401 111.622C405.778 111.317 406.243 111.078 406.794 110.904C407.345 110.73 407.991 110.642 408.731 110.642C409.412 110.642 410.007 110.737 410.515 110.925C411.023 111.099 411.451 111.339 411.799 111.643C412.162 111.948 412.444 112.304 412.647 112.71C412.851 113.116 412.996 113.551 413.083 114.015H411.168C411.052 113.508 410.805 113.094 410.428 112.775C410.051 112.456 409.485 112.296 408.731 112.296C407.788 112.296 407.128 112.456 406.75 112.775C406.373 113.08 406.185 113.457 406.185 113.907C406.185 114.168 406.228 114.393 406.315 114.581C406.417 114.77 406.576 114.937 406.794 115.082C407.026 115.227 407.323 115.35 407.686 115.452C408.063 115.539 408.528 115.618 409.079 115.691C409.79 115.778 410.421 115.908 410.972 116.083C411.523 116.242 411.987 116.467 412.365 116.757C412.742 117.033 413.025 117.374 413.213 117.78C413.416 118.186 413.518 118.672 413.518 119.238C413.518 119.702 413.416 120.137 413.213 120.543C413.025 120.95 412.735 121.305 412.343 121.61C411.951 121.914 411.451 122.161 410.841 122.35C410.247 122.524 409.543 122.611 408.731 122.611ZM416.244 107.161H418.159V112.927C418.304 112.623 418.492 112.333 418.725 112.057C418.957 111.781 419.232 111.542 419.551 111.339C419.871 111.121 420.233 110.954 420.639 110.838C421.046 110.708 421.488 110.642 421.967 110.642C423.418 110.642 424.491 111.034 425.187 111.818C425.898 112.586 426.254 113.718 426.254 115.212V122.393H424.339V115.647C424.339 114.574 424.114 113.761 423.664 113.21C423.214 112.659 422.46 112.383 421.401 112.383C420.835 112.383 420.342 112.478 419.921 112.666C419.515 112.855 419.182 113.101 418.92 113.406C418.659 113.711 418.463 114.059 418.333 114.451C418.217 114.842 418.159 115.241 418.159 115.647V122.393H416.244V107.161ZM434.419 122.611C433.679 122.611 432.975 122.495 432.308 122.263C431.641 122.016 431.053 121.653 430.546 121.174C430.038 120.681 429.632 120.065 429.327 119.325C429.022 118.585 428.87 117.722 428.87 116.735V116.3C428.87 115.372 429.022 114.552 429.327 113.841C429.632 113.13 430.038 112.543 430.546 112.079C431.053 111.6 431.641 111.245 432.308 111.012C432.975 110.766 433.679 110.642 434.419 110.642C435.159 110.642 435.862 110.766 436.53 111.012C437.197 111.245 437.784 111.6 438.292 112.079C438.8 112.543 439.206 113.13 439.511 113.841C439.815 114.552 439.968 115.372 439.968 116.3V116.735C439.968 117.722 439.815 118.585 439.511 119.325C439.206 120.065 438.8 120.681 438.292 121.174C437.784 121.653 437.197 122.016 436.53 122.263C435.862 122.495 435.159 122.611 434.419 122.611ZM434.419 120.87C434.854 120.87 435.289 120.797 435.725 120.652C436.16 120.493 436.544 120.253 436.878 119.934C437.211 119.6 437.48 119.173 437.683 118.65C437.901 118.128 438.009 117.49 438.009 116.735V116.3C438.009 115.604 437.901 115.009 437.683 114.516C437.48 114.023 437.211 113.616 436.878 113.297C436.544 112.978 436.16 112.746 435.725 112.601C435.289 112.456 434.854 112.383 434.419 112.383C433.984 112.383 433.548 112.456 433.113 112.601C432.678 112.746 432.294 112.978 431.96 113.297C431.626 113.616 431.351 114.023 431.133 114.516C430.93 115.009 430.828 115.604 430.828 116.3V116.735C430.828 117.49 430.93 118.128 431.133 118.65C431.351 119.173 431.626 119.6 431.96 119.934C432.294 120.253 432.678 120.493 433.113 120.652C433.548 120.797 433.984 120.87 434.419 120.87ZM441.379 110.86H443.468L445.687 119.782L448.69 110.86H450.388L453.499 119.782L455.697 110.86H457.699L454.544 122.393H452.629L449.495 113.471L446.449 122.393H444.534L441.379 110.86Z" fill="#CD859B"/>
<path d="M438.647 366.823V304.97H344.541V261.474" stroke="black" stroke-width="2"/>
<path d="M498.144 110.86H500.059V122.393H498.144V110.86ZM499.102 109.337C498.725 109.337 498.413 109.214 498.166 108.967C497.919 108.72 497.796 108.408 497.796 108.031C497.796 107.654 497.919 107.342 498.166 107.096C498.413 106.849 498.725 106.726 499.102 106.726C499.479 106.726 499.791 106.849 500.037 107.096C500.284 107.342 500.407 107.654 500.407 108.031C500.407 108.408 500.284 108.72 500.037 108.967C499.791 109.214 499.479 109.337 499.102 109.337ZM503.749 110.86H505.534V113.036C505.925 112.267 506.469 111.68 507.166 111.274C507.876 110.853 508.696 110.642 509.625 110.642C511.075 110.642 512.236 111.121 513.106 112.079C513.977 113.022 514.412 114.429 514.412 116.3V116.735C514.412 117.722 514.296 118.585 514.064 119.325C513.832 120.05 513.505 120.659 513.084 121.153C512.664 121.631 512.156 121.994 511.561 122.241C510.981 122.487 510.335 122.611 509.625 122.611C508.638 122.611 507.811 122.393 507.144 121.958C506.491 121.523 505.998 120.979 505.664 120.326V126.745H503.749V110.86ZM509.189 120.913C509.654 120.913 510.089 120.826 510.495 120.652C510.901 120.464 511.249 120.195 511.539 119.847C511.844 119.499 512.076 119.064 512.236 118.541C512.41 118.019 512.497 117.417 512.497 116.735V116.3C512.497 115.676 512.41 115.118 512.236 114.625C512.076 114.131 511.844 113.718 511.539 113.384C511.249 113.036 510.901 112.775 510.495 112.601C510.089 112.427 509.654 112.34 509.189 112.34C508.667 112.34 508.188 112.427 507.753 112.601C507.318 112.76 506.948 112.993 506.643 113.297C506.339 113.587 506.099 113.936 505.925 114.342C505.751 114.748 505.664 115.183 505.664 115.647V117.388C505.664 117.91 505.751 118.389 505.925 118.824C506.099 119.26 506.339 119.63 506.643 119.934C506.948 120.239 507.318 120.478 507.753 120.652C508.188 120.826 508.667 120.913 509.189 120.913Z" fill="#E87F53"/>
<path d="M527.594 110.86H529.378V113.036C529.77 112.267 530.314 111.68 531.01 111.274C531.721 110.853 532.54 110.642 533.469 110.642C534.92 110.642 536.08 111.121 536.95 112.079C537.821 113.022 538.256 114.429 538.256 116.3V116.735C538.256 117.722 538.14 118.585 537.908 119.325C537.676 120.05 537.349 120.659 536.929 121.153C536.508 121.631 536 121.994 535.406 122.241C534.825 122.487 534.18 122.611 533.469 122.611C532.482 122.611 531.655 122.393 530.988 121.958C530.335 121.523 529.842 120.979 529.508 120.326V126.745H527.594V110.86ZM533.034 120.913C533.498 120.913 533.933 120.826 534.339 120.652C534.745 120.464 535.094 120.195 535.384 119.847C535.688 119.499 535.921 119.064 536.08 118.541C536.254 118.019 536.341 117.417 536.341 116.735V116.3C536.341 115.676 536.254 115.118 536.08 114.625C535.921 114.131 535.688 113.718 535.384 113.384C535.094 113.036 534.745 112.775 534.339 112.601C533.933 112.427 533.498 112.34 533.034 112.34C532.511 112.34 532.033 112.427 531.597 112.601C531.162 112.76 530.792 112.993 530.488 113.297C530.183 113.587 529.944 113.936 529.77 114.342C529.595 114.748 529.508 115.183 529.508 115.647V117.388C529.508 117.91 529.595 118.389 529.77 118.824C529.944 119.26 530.183 119.63 530.488 119.934C530.792 120.239 531.162 120.478 531.597 120.652C532.033 120.826 532.511 120.913 533.034 120.913ZM540.981 110.86H542.766V113.036C543.012 112.354 543.418 111.789 543.984 111.339C544.564 110.875 545.268 110.642 546.095 110.642C546.385 110.642 546.617 110.657 546.791 110.686C546.98 110.715 547.147 110.751 547.292 110.795V112.579C547.103 112.507 546.915 112.456 546.726 112.427C546.552 112.398 546.305 112.383 545.986 112.383C545.551 112.383 545.145 112.463 544.768 112.623C544.39 112.782 544.064 113.007 543.788 113.297C543.513 113.573 543.295 113.914 543.136 114.32C542.976 114.726 542.896 115.169 542.896 115.647V122.393H540.981V110.86ZM554.035 122.611C553.295 122.611 552.591 122.495 551.924 122.263C551.257 122.016 550.669 121.653 550.162 121.174C549.654 120.681 549.248 120.065 548.943 119.325C548.638 118.585 548.486 117.722 548.486 116.735V116.3C548.486 115.372 548.638 114.552 548.943 113.841C549.248 113.13 549.654 112.543 550.162 112.079C550.669 111.6 551.257 111.245 551.924 111.012C552.591 110.766 553.295 110.642 554.035 110.642C554.775 110.642 555.478 110.766 556.146 111.012C556.813 111.245 557.401 111.6 557.908 112.079C558.416 112.543 558.822 113.13 559.127 113.841C559.431 114.552 559.584 115.372 559.584 116.3V116.735C559.584 117.722 559.431 118.585 559.127 119.325C558.822 120.065 558.416 120.681 557.908 121.174C557.401 121.653 556.813 122.016 556.146 122.263C555.478 122.495 554.775 122.611 554.035 122.611ZM554.035 120.87C554.47 120.87 554.905 120.797 555.341 120.652C555.776 120.493 556.16 120.253 556.494 119.934C556.827 119.6 557.096 119.173 557.299 118.65C557.517 118.128 557.625 117.49 557.625 116.735V116.3C557.625 115.604 557.517 115.009 557.299 114.516C557.096 114.023 556.827 113.616 556.494 113.297C556.16 112.978 555.776 112.746 555.341 112.601C554.905 112.456 554.47 112.383 554.035 112.383C553.6 112.383 553.165 112.456 552.729 112.601C552.294 112.746 551.91 112.978 551.576 113.297C551.242 113.616 550.967 114.023 550.749 114.516C550.546 115.009 550.444 115.604 550.444 116.3V116.735C550.444 117.49 550.546 118.128 550.749 118.65C550.967 119.173 551.242 119.6 551.576 119.934C551.91 120.253 552.294 120.493 552.729 120.652C553.165 120.797 553.6 120.87 554.035 120.87ZM566.539 122.502C565.306 122.502 564.413 122.226 563.862 121.675C563.325 121.109 563.057 120.261 563.057 119.129V112.557H561.316V110.86H563.057V108.249H564.972V110.86H568.062V112.557H564.972V118.911C564.972 119.564 565.11 120.036 565.385 120.326C565.661 120.616 566.19 120.761 566.974 120.761C567.409 120.761 567.844 120.739 568.279 120.696V122.393C568.004 122.422 567.728 122.444 567.453 122.458C567.177 122.487 566.872 122.502 566.539 122.502ZM575.795 122.611C575.055 122.611 574.352 122.495 573.685 122.263C573.017 122.016 572.43 121.653 571.922 121.174C571.414 120.681 571.008 120.065 570.703 119.325C570.399 118.585 570.246 117.722 570.246 116.735V116.3C570.246 115.372 570.399 114.552 570.703 113.841C571.008 113.13 571.414 112.543 571.922 112.079C572.43 111.6 573.017 111.245 573.685 111.012C574.352 110.766 575.055 110.642 575.795 110.642C576.535 110.642 577.239 110.766 577.906 111.012C578.573 111.245 579.161 111.6 579.669 112.079C580.176 112.543 580.583 113.13 580.887 113.841C581.192 114.552 581.344 115.372 581.344 116.3V116.735C581.344 117.722 581.192 118.585 580.887 119.325C580.583 120.065 580.176 120.681 579.669 121.174C579.161 121.653 578.573 122.016 577.906 122.263C577.239 122.495 576.535 122.611 575.795 122.611ZM575.795 120.87C576.23 120.87 576.666 120.797 577.101 120.652C577.536 120.493 577.921 120.253 578.254 119.934C578.588 119.6 578.856 119.173 579.059 118.65C579.277 118.128 579.386 117.49 579.386 116.735V116.3C579.386 115.604 579.277 115.009 579.059 114.516C578.856 114.023 578.588 113.616 578.254 113.297C577.921 112.978 577.536 112.746 577.101 112.601C576.666 112.456 576.23 112.383 575.795 112.383C575.36 112.383 574.925 112.456 574.49 112.601C574.054 112.746 573.67 112.978 573.336 113.297C573.003 113.616 572.727 114.023 572.509 114.516C572.306 115.009 572.205 115.604 572.205 116.3V116.735C572.205 117.49 572.306 118.128 572.509 118.65C572.727 119.173 573.003 119.6 573.336 119.934C573.67 120.253 574.054 120.493 574.49 120.652C574.925 120.797 575.36 120.87 575.795 120.87ZM588.517 122.611C587.777 122.611 587.088 122.495 586.449 122.263C585.811 122.016 585.26 121.653 584.796 121.174C584.331 120.681 583.961 120.065 583.686 119.325C583.425 118.585 583.294 117.722 583.294 116.735V116.3C583.294 115.372 583.439 114.552 583.729 113.841C584.019 113.13 584.404 112.543 584.883 112.079C585.361 111.6 585.913 111.245 586.536 111.012C587.175 110.766 587.835 110.642 588.517 110.642C589.198 110.642 589.808 110.737 590.344 110.925C590.896 111.114 591.367 111.375 591.759 111.709C592.165 112.042 592.491 112.434 592.738 112.884C592.999 113.334 593.188 113.819 593.304 114.342H591.345C591.229 114.066 591.092 113.812 590.932 113.58C590.787 113.334 590.598 113.123 590.366 112.949C590.149 112.775 589.887 112.637 589.583 112.536C589.278 112.434 588.923 112.383 588.517 112.383C588.096 112.383 587.69 112.463 587.298 112.623C586.906 112.768 586.558 113 586.253 113.319C585.949 113.624 585.702 114.023 585.514 114.516C585.34 115.009 585.253 115.604 585.253 116.3V116.735C585.253 117.475 585.34 118.114 585.514 118.65C585.702 119.173 585.949 119.6 586.253 119.934C586.558 120.253 586.906 120.493 587.298 120.652C587.69 120.797 588.096 120.87 588.517 120.87C589.227 120.87 589.822 120.696 590.301 120.348C590.794 119.999 591.142 119.521 591.345 118.911H593.304C593.028 120.057 592.462 120.964 591.607 121.631C590.751 122.284 589.721 122.611 588.517 122.611ZM600.701 122.611C599.961 122.611 599.257 122.495 598.59 122.263C597.923 122.016 597.335 121.653 596.827 121.174C596.32 120.681 595.913 120.065 595.609 119.325C595.304 118.585 595.152 117.722 595.152 116.735V116.3C595.152 115.372 595.304 114.552 595.609 113.841C595.913 113.13 596.32 112.543 596.827 112.079C597.335 111.6 597.923 111.245 598.59 111.012C599.257 110.766 599.961 110.642 600.701 110.642C601.441 110.642 602.144 110.766 602.811 111.012C603.479 111.245 604.066 111.6 604.574 112.079C605.082 112.543 605.488 113.13 605.793 113.841C606.097 114.552 606.25 115.372 606.25 116.3V116.735C606.25 117.722 606.097 118.585 605.793 119.325C605.488 120.065 605.082 120.681 604.574 121.174C604.066 121.653 603.479 122.016 602.811 122.263C602.144 122.495 601.441 122.611 600.701 122.611ZM600.701 120.87C601.136 120.87 601.571 120.797 602.006 120.652C602.441 120.493 602.826 120.253 603.16 119.934C603.493 119.6 603.762 119.173 603.965 118.65C604.182 118.128 604.291 117.49 604.291 116.735V116.3C604.291 115.604 604.182 115.009 603.965 114.516C603.762 114.023 603.493 113.616 603.16 113.297C602.826 112.978 602.441 112.746 602.006 112.601C601.571 112.456 601.136 112.383 600.701 112.383C600.265 112.383 599.83 112.456 599.395 112.601C598.96 112.746 598.575 112.978 598.242 113.297C597.908 113.616 597.632 114.023 597.415 114.516C597.212 115.009 597.11 115.604 597.11 116.3V116.735C597.11 117.49 597.212 118.128 597.415 118.65C597.632 119.173 597.908 119.6 598.242 119.934C598.575 120.253 598.96 120.493 599.395 120.652C599.83 120.797 600.265 120.87 600.701 120.87ZM612.443 122.502C611.239 122.502 610.376 122.212 609.853 121.631C609.331 121.051 609.07 120.108 609.07 118.803V107.161H610.985V118.803C610.985 119.557 611.108 120.072 611.355 120.348C611.601 120.623 612.037 120.761 612.66 120.761C612.82 120.761 612.958 120.761 613.074 120.761C613.19 120.747 613.306 120.732 613.422 120.718V122.415C613.306 122.444 613.139 122.466 612.921 122.48C612.718 122.495 612.559 122.502 612.443 122.502ZM619.957 122.611C619.188 122.611 618.521 122.524 617.955 122.35C617.404 122.161 616.932 121.914 616.541 121.61C616.149 121.305 615.844 120.95 615.627 120.543C615.409 120.137 615.257 119.702 615.17 119.238H617.085C617.186 119.702 617.454 120.108 617.89 120.456C618.339 120.79 619.028 120.957 619.957 120.957C620.494 120.957 620.943 120.913 621.306 120.826C621.669 120.725 621.959 120.601 622.176 120.456C622.409 120.297 622.575 120.115 622.677 119.912C622.778 119.695 622.829 119.47 622.829 119.238C622.829 118.991 622.778 118.774 622.677 118.585C622.59 118.396 622.423 118.23 622.176 118.085C621.944 117.925 621.618 117.787 621.197 117.671C620.791 117.541 620.276 117.432 619.652 117.345C619.014 117.258 618.434 117.134 617.911 116.975C617.404 116.801 616.968 116.576 616.606 116.3C616.258 116.025 615.982 115.698 615.779 115.321C615.59 114.929 615.496 114.458 615.496 113.907C615.496 113.471 615.59 113.058 615.779 112.666C615.967 112.275 616.25 111.926 616.628 111.622C617.005 111.317 617.469 111.078 618.02 110.904C618.571 110.73 619.217 110.642 619.957 110.642C620.639 110.642 621.233 110.737 621.741 110.925C622.249 111.099 622.677 111.339 623.025 111.643C623.388 111.948 623.671 112.304 623.874 112.71C624.077 113.116 624.222 113.551 624.309 114.015H622.394C622.278 113.508 622.031 113.094 621.654 112.775C621.277 112.456 620.711 112.296 619.957 112.296C619.014 112.296 618.354 112.456 617.977 112.775C617.6 113.08 617.411 113.457 617.411 113.907C617.411 114.168 617.454 114.393 617.541 114.581C617.643 114.77 617.803 114.937 618.02 115.082C618.252 115.227 618.55 115.35 618.912 115.452C619.29 115.539 619.754 115.618 620.305 115.691C621.016 115.778 621.647 115.908 622.198 116.083C622.749 116.242 623.214 116.467 623.591 116.757C623.968 117.033 624.251 117.374 624.44 117.78C624.643 118.186 624.744 118.672 624.744 119.238C624.744 119.702 624.643 120.137 624.44 120.543C624.251 120.95 623.961 121.305 623.569 121.61C623.177 121.914 622.677 122.161 622.068 122.35C621.473 122.524 620.769 122.611 619.957 122.611Z" fill="#E87F53"/>
<path d="M473.875 260L473.875 304.146L473.875 304.146L473.875 367" stroke="black" stroke-width="2"/>
<path d="M566.216 366.823V328.227H726.545V261.474" stroke="black" stroke-width="2"/>
<path d="M355.625 131.856V169.622H172.68V237.205" stroke="black" stroke-width="2"/>
<path d="M427.058 131.856V193.709H344.541V237.205" stroke="black" stroke-width="2"/>
<path d="M473.74 131.856V237.165" stroke="black" stroke-width="2"/>
<path d="M560.629 131.856V170.452H726.545V237.205" stroke="black" stroke-width="2"/>
<path d="M307.904 131.856H390.662" stroke="black" stroke-width="2"/>
<path d="M319.352 366.823H402.109" stroke="black" stroke-width="2"/>
<path d="M399.256 131.856H454.861" stroke="black" stroke-width="2"/>
<path d="M415.875 367L456.875 367.008" stroke="black" stroke-width="2"/>
<path d="M464.025 131.856H483.457" stroke="black" stroke-width="2"/>
<path d="M464.875 367H484.306" stroke="black" stroke-width="2"/>
<path d="M493.664 131.856L630.916 131.856" stroke="black" stroke-width="2"/>
<path d="M493.875 367H625.875" stroke="black" stroke-width="2"/>
<rect x="78" y="218.5" width="186" height="64" fill="#DBEEE5"/>
<path d="M99.676 243.768H111.644V259H109.599V245.552H101.722V259H99.676V243.768ZM115.561 247.467H117.345V249.643C117.737 248.874 118.281 248.287 118.977 247.88C119.688 247.46 120.508 247.249 121.436 247.249C122.887 247.249 124.048 247.728 124.918 248.686C125.788 249.629 126.224 251.036 126.224 252.907V253.342C126.224 254.329 126.108 255.192 125.875 255.932C125.643 256.657 125.317 257.266 124.896 257.76C124.476 258.238 123.968 258.601 123.373 258.848C122.793 259.094 122.147 259.218 121.436 259.218C120.45 259.218 119.623 259 118.956 258.565C118.303 258.13 117.81 257.586 117.476 256.933V263.352H115.561V247.467ZM121.001 257.52C121.465 257.52 121.901 257.433 122.307 257.259C122.713 257.071 123.061 256.802 123.351 256.454C123.656 256.106 123.888 255.671 124.048 255.148C124.222 254.626 124.309 254.024 124.309 253.342V252.907C124.309 252.283 124.222 251.725 124.048 251.232C123.888 250.738 123.656 250.325 123.351 249.991C123.061 249.643 122.713 249.382 122.307 249.208C121.901 249.034 121.465 248.947 121.001 248.947C120.479 248.947 120 249.034 119.565 249.208C119.13 249.367 118.76 249.6 118.455 249.904C118.151 250.194 117.911 250.542 117.737 250.949C117.563 251.355 117.476 251.79 117.476 252.254V253.995C117.476 254.517 117.563 254.996 117.737 255.431C117.911 255.867 118.151 256.236 118.455 256.541C118.76 256.846 119.13 257.085 119.565 257.259C120 257.433 120.479 257.52 121.001 257.52ZM128.949 247.467H130.864V256.171L136.826 247.467H138.741V259H136.826V250.296L130.864 259H128.949V247.467ZM142.23 247.467H150.064V249.164H144.145V259H142.23V247.467ZM150.824 259.218C150.606 259.218 150.389 259.196 150.171 259.152V257.237C150.244 257.252 150.352 257.259 150.498 257.259C150.817 257.259 151.092 257.158 151.324 256.955C151.571 256.751 151.767 256.396 151.912 255.888C152.057 255.381 152.166 254.691 152.238 253.821C152.311 252.951 152.347 251.848 152.347 250.513V247.467H160.616V259H158.701V249.164H154.262V250.949C154.262 252.559 154.19 253.894 154.044 254.953C153.899 256.012 153.682 256.86 153.392 257.499C153.116 258.122 152.761 258.565 152.325 258.826C151.89 259.087 151.39 259.218 150.824 259.218ZM167.383 259.218C166.744 259.218 166.179 259.131 165.685 258.956C165.207 258.768 164.8 258.514 164.467 258.195C164.133 257.876 163.879 257.499 163.705 257.063C163.531 256.628 163.444 256.149 163.444 255.627C163.444 254.481 163.778 253.654 164.445 253.146C165.127 252.639 166.099 252.385 167.361 252.385H171.104V251.601C171.104 250.615 170.879 249.933 170.429 249.556C169.994 249.179 169.334 248.99 168.449 248.99C167.622 248.99 167.02 249.15 166.643 249.469C166.266 249.774 166.055 250.122 166.012 250.513H164.097C164.126 250.049 164.249 249.621 164.467 249.23C164.699 248.823 165.004 248.475 165.381 248.185C165.772 247.895 166.237 247.67 166.773 247.511C167.31 247.336 167.905 247.249 168.558 247.249C169.921 247.249 171.002 247.576 171.8 248.229C172.612 248.867 173.019 249.919 173.019 251.384V256.062C173.019 256.672 173.019 257.208 173.019 257.673C173.033 258.122 173.069 258.565 173.127 259H171.452C171.408 258.666 171.379 258.354 171.365 258.064C171.35 257.76 171.343 257.419 171.343 257.042C171.038 257.651 170.545 258.166 169.863 258.587C169.182 259.007 168.355 259.218 167.383 259.218ZM167.796 257.477C168.246 257.477 168.667 257.419 169.058 257.303C169.464 257.172 169.82 256.991 170.124 256.759C170.429 256.512 170.668 256.215 170.843 255.867C171.017 255.518 171.104 255.112 171.104 254.648V253.865H167.687C166.976 253.865 166.418 254.01 166.012 254.3C165.606 254.575 165.402 255.018 165.402 255.627C165.402 256.164 165.591 256.606 165.968 256.955C166.36 257.303 166.969 257.477 167.796 257.477ZM176.401 247.467H178.316V257.303H182.515V247.467H184.43V257.303H188.63V247.467H190.545V259H176.401V247.467ZM198.805 259.218C198.065 259.218 197.361 259.102 196.694 258.869C196.027 258.637 195.439 258.282 194.931 257.803C194.424 257.31 194.017 256.693 193.713 255.954C193.408 255.214 193.256 254.343 193.256 253.342V252.907C193.256 251.95 193.401 251.123 193.691 250.426C193.981 249.716 194.366 249.128 194.844 248.664C195.337 248.185 195.903 247.83 196.542 247.598C197.194 247.365 197.876 247.249 198.587 247.249C200.284 247.249 201.597 247.714 202.526 248.642C203.454 249.571 203.918 250.883 203.918 252.581V253.799H195.171C195.171 254.481 195.279 255.054 195.497 255.518C195.715 255.983 195.998 256.36 196.346 256.65C196.694 256.94 197.078 257.15 197.499 257.281C197.934 257.411 198.369 257.477 198.805 257.477C199.675 257.477 200.342 257.332 200.807 257.042C201.285 256.751 201.626 256.352 201.829 255.845H203.701C203.585 256.396 203.374 256.882 203.07 257.303C202.78 257.723 202.417 258.079 201.982 258.369C201.561 258.645 201.075 258.855 200.524 259C199.987 259.145 199.414 259.218 198.805 259.218ZM198.696 248.99C198.246 248.99 197.811 249.056 197.39 249.186C196.97 249.302 196.592 249.498 196.259 249.774C195.94 250.035 195.678 250.368 195.475 250.775C195.272 251.181 195.171 251.667 195.171 252.233H202.112C202.098 251.638 201.996 251.137 201.808 250.731C201.633 250.31 201.394 249.977 201.089 249.73C200.785 249.469 200.422 249.28 200.001 249.164C199.595 249.048 199.16 248.99 198.696 248.99ZM206.64 247.467H208.555V252.276H214.517V247.467H216.432V259H214.517V253.973H208.555V259H206.64V247.467ZM219.922 247.467H221.836V256.171L227.799 247.467H229.714V259H227.799V250.296L221.836 259H219.922V247.467ZM237.99 259.218C237.25 259.218 236.547 259.102 235.88 258.869C235.212 258.637 234.625 258.282 234.117 257.803C233.609 257.31 233.203 256.693 232.898 255.954C232.594 255.214 232.441 254.343 232.441 253.342V252.907C232.441 251.95 232.586 251.123 232.877 250.426C233.167 249.716 233.551 249.128 234.03 248.664C234.523 248.185 235.089 247.83 235.727 247.598C236.38 247.365 237.062 247.249 237.773 247.249C239.47 247.249 240.783 247.714 241.711 248.642C242.64 249.571 243.104 250.883 243.104 252.581V253.799H234.356C234.356 254.481 234.465 255.054 234.683 255.518C234.9 255.983 235.183 256.36 235.531 256.65C235.88 256.94 236.264 257.15 236.685 257.281C237.12 257.411 237.555 257.477 237.99 257.477C238.861 257.477 239.528 257.332 239.992 257.042C240.471 256.751 240.812 256.352 241.015 255.845H242.886C242.77 256.396 242.56 256.882 242.255 257.303C241.965 257.723 241.602 258.079 241.167 258.369C240.747 258.645 240.261 258.855 239.709 259C239.173 259.145 238.6 259.218 237.99 259.218ZM237.881 248.99C237.432 248.99 236.997 249.056 236.576 249.186C236.155 249.302 235.778 249.498 235.444 249.774C235.125 250.035 234.864 250.368 234.661 250.775C234.458 251.181 234.356 251.667 234.356 252.233H241.298C241.283 251.638 241.182 251.137 240.993 250.731C240.819 250.31 240.58 249.977 240.275 249.73C239.97 249.469 239.608 249.28 239.187 249.164C238.781 249.048 238.346 248.99 237.881 248.99Z" fill="black"/>
<rect x="78" y="218.5" width="186" height="64" stroke="#58A982"/>
<rect x="271" y="218.5" width="134" height="64" fill="#FAEEEE"/>
<path d="M292.777 243.768H294.823V250.318H296.563L302.526 243.768H304.963L298.304 251.036L305.181 259H302.569L296.563 252.015H294.823V259H292.777V243.768ZM311.941 259.218C311.201 259.218 310.497 259.102 309.83 258.869C309.163 258.623 308.575 258.26 308.067 257.781C307.56 257.288 307.153 256.672 306.849 255.932C306.544 255.192 306.392 254.329 306.392 253.342V252.907C306.392 251.979 306.544 251.159 306.849 250.448C307.153 249.737 307.56 249.15 308.067 248.686C308.575 248.207 309.163 247.851 309.83 247.619C310.497 247.373 311.201 247.249 311.941 247.249C312.681 247.249 313.384 247.373 314.051 247.619C314.719 247.851 315.306 248.207 315.814 248.686C316.322 249.15 316.728 249.737 317.033 250.448C317.337 251.159 317.49 251.979 317.49 252.907V253.342C317.49 254.329 317.337 255.192 317.033 255.932C316.728 256.672 316.322 257.288 315.814 257.781C315.306 258.26 314.719 258.623 314.051 258.869C313.384 259.102 312.681 259.218 311.941 259.218ZM311.941 257.477C312.376 257.477 312.811 257.404 313.246 257.259C313.682 257.1 314.066 256.86 314.4 256.541C314.733 256.207 315.002 255.779 315.205 255.257C315.422 254.735 315.531 254.097 315.531 253.342V252.907C315.531 252.211 315.422 251.616 315.205 251.123C315.002 250.63 314.733 250.223 314.4 249.904C314.066 249.585 313.682 249.353 313.246 249.208C312.811 249.063 312.376 248.99 311.941 248.99C311.505 248.99 311.07 249.063 310.635 249.208C310.2 249.353 309.815 249.585 309.482 249.904C309.148 250.223 308.872 250.63 308.655 251.123C308.452 251.616 308.35 252.211 308.35 252.907V253.342C308.35 254.097 308.452 254.735 308.655 255.257C308.872 255.779 309.148 256.207 309.482 256.541C309.815 256.86 310.2 257.1 310.635 257.259C311.07 257.404 311.505 257.477 311.941 257.477ZM320.201 247.467H322.247L326.359 254.648L330.472 247.467H332.387V259H330.472V250.622L327.056 256.498H325.532L322.116 250.622V259H320.201V247.467ZM339.148 259.218C338.51 259.218 337.944 259.131 337.451 258.956C336.972 258.768 336.566 258.514 336.233 258.195C335.899 257.876 335.645 257.499 335.471 257.063C335.297 256.628 335.21 256.149 335.21 255.627C335.21 254.481 335.543 253.654 336.211 253.146C336.893 252.639 337.865 252.385 339.127 252.385H342.869V251.601C342.869 250.615 342.645 249.933 342.195 249.556C341.76 249.179 341.1 248.99 340.215 248.99C339.388 248.99 338.786 249.15 338.409 249.469C338.031 249.774 337.821 250.122 337.778 250.513H335.863C335.892 250.049 336.015 249.621 336.233 249.23C336.465 248.823 336.769 248.475 337.146 248.185C337.538 247.895 338.002 247.67 338.539 247.511C339.076 247.336 339.671 247.249 340.324 247.249C341.687 247.249 342.768 247.576 343.566 248.229C344.378 248.867 344.784 249.919 344.784 251.384V256.062C344.784 256.672 344.784 257.208 344.784 257.673C344.799 258.122 344.835 258.565 344.893 259H343.218C343.174 258.666 343.145 258.354 343.131 258.064C343.116 257.76 343.109 257.419 343.109 257.042C342.804 257.651 342.311 258.166 341.629 258.587C340.947 259.007 340.12 259.218 339.148 259.218ZM339.562 257.477C340.012 257.477 340.432 257.419 340.824 257.303C341.23 257.172 341.586 256.991 341.89 256.759C342.195 256.512 342.434 256.215 342.608 255.867C342.782 255.518 342.869 255.112 342.869 254.648V253.865H339.453C338.742 253.865 338.184 254.01 337.778 254.3C337.371 254.575 337.168 255.018 337.168 255.627C337.168 256.164 337.357 256.606 337.734 256.955C338.126 257.303 338.735 257.477 339.562 257.477ZM348.167 247.467H350.081V252.276H356.044V247.467H357.959V259H356.044V253.973H350.081V259H348.167V247.467ZM360.142 257.303H361.557C361.716 257.085 361.861 256.751 361.992 256.302C362.123 255.852 362.239 255.323 362.34 254.713C362.442 254.104 362.514 253.444 362.558 252.733C362.616 252.008 362.645 251.268 362.645 250.513V247.467H370.696V257.303H372.328V261.72H370.5V259H361.97V261.72H360.142V257.303ZM368.781 257.303V249.164H364.516V250.949C364.516 251.558 364.494 252.167 364.451 252.777C364.407 253.371 364.342 253.944 364.255 254.496C364.168 255.032 364.059 255.547 363.929 256.041C363.813 256.519 363.675 256.94 363.515 257.303H368.781ZM378.122 259.218C377.483 259.218 376.918 259.131 376.424 258.956C375.946 258.768 375.539 258.514 375.206 258.195C374.872 257.876 374.618 257.499 374.444 257.063C374.27 256.628 374.183 256.149 374.183 255.627C374.183 254.481 374.517 253.654 375.184 253.146C375.866 252.639 376.838 252.385 378.1 252.385H381.843V251.601C381.843 250.615 381.618 249.933 381.168 249.556C380.733 249.179 380.073 248.99 379.188 248.99C378.361 248.99 377.759 249.15 377.382 249.469C377.005 249.774 376.794 250.122 376.751 250.513H374.836C374.865 250.049 374.988 249.621 375.206 249.23C375.438 248.823 375.742 248.475 376.12 248.185C376.511 247.895 376.976 247.67 377.512 247.511C378.049 247.336 378.644 247.249 379.297 247.249C380.66 247.249 381.741 247.576 382.539 248.229C383.351 248.867 383.758 249.919 383.758 251.384V256.062C383.758 256.672 383.758 257.208 383.758 257.673C383.772 258.122 383.808 258.565 383.866 259H382.191C382.147 258.666 382.118 258.354 382.104 258.064C382.089 257.76 382.082 257.419 382.082 257.042C381.777 257.651 381.284 258.166 380.602 258.587C379.92 259.007 379.094 259.218 378.122 259.218ZM378.535 257.477C378.985 257.477 379.405 257.419 379.797 257.303C380.203 257.172 380.559 256.991 380.863 256.759C381.168 256.512 381.407 256.215 381.581 255.867C381.756 255.518 381.843 255.112 381.843 254.648V253.865H378.426C377.715 253.865 377.157 254.01 376.751 254.3C376.344 254.575 376.141 255.018 376.141 255.627C376.141 256.164 376.33 256.606 376.707 256.955C377.099 257.303 377.708 257.477 378.535 257.477Z" fill="black"/>
<rect x="271" y="218.5" width="134" height="64" stroke="#E6B9B7"/>
<rect x="412" y="218.5" width="120" height="64" fill="#DAEBFB"/>
<path d="M433.758 243.768H445.726V259H443.681V245.552H435.803V259H433.758V243.768ZM449.643 247.467H451.427V249.643C451.819 248.874 452.363 248.287 453.059 247.88C453.77 247.46 454.59 247.249 455.518 247.249C456.969 247.249 458.129 247.728 459 248.686C459.87 249.629 460.306 251.036 460.306 252.907V253.342C460.306 254.329 460.189 255.192 459.957 255.932C459.725 256.657 459.399 257.266 458.978 257.76C458.557 258.238 458.05 258.601 457.455 258.848C456.875 259.094 456.229 259.218 455.518 259.218C454.532 259.218 453.705 259 453.038 258.565C452.385 258.13 451.892 257.586 451.558 256.933V263.352H449.643V247.467ZM455.083 257.52C455.547 257.52 455.982 257.433 456.389 257.259C456.795 257.071 457.143 256.802 457.433 256.454C457.738 256.106 457.97 255.671 458.129 255.148C458.304 254.626 458.391 254.024 458.391 253.342V252.907C458.391 252.283 458.304 251.725 458.129 251.232C457.97 250.738 457.738 250.325 457.433 249.991C457.143 249.643 456.795 249.382 456.389 249.208C455.982 249.034 455.547 248.947 455.083 248.947C454.561 248.947 454.082 249.034 453.647 249.208C453.212 249.367 452.842 249.6 452.537 249.904C452.232 250.194 451.993 250.542 451.819 250.949C451.645 251.355 451.558 251.79 451.558 252.254V253.995C451.558 254.517 451.645 254.996 451.819 255.431C451.993 255.867 452.232 256.236 452.537 256.541C452.842 256.846 453.212 257.085 453.647 257.259C454.082 257.433 454.561 257.52 455.083 257.52ZM467.818 259.218C467.078 259.218 466.374 259.102 465.707 258.869C465.04 258.623 464.452 258.26 463.945 257.781C463.437 257.288 463.031 256.672 462.726 255.932C462.421 255.192 462.269 254.329 462.269 253.342V252.907C462.269 251.979 462.421 251.159 462.726 250.448C463.031 249.737 463.437 249.15 463.945 248.686C464.452 248.207 465.04 247.851 465.707 247.619C466.374 247.373 467.078 247.249 467.818 247.249C468.558 247.249 469.261 247.373 469.929 247.619C470.596 247.851 471.184 248.207 471.691 248.686C472.199 249.15 472.605 249.737 472.91 250.448C473.215 251.159 473.367 251.979 473.367 252.907V253.342C473.367 254.329 473.215 255.192 472.91 255.932C472.605 256.672 472.199 257.288 471.691 257.781C471.184 258.26 470.596 258.623 469.929 258.869C469.261 259.102 468.558 259.218 467.818 259.218ZM467.818 257.477C468.253 257.477 468.688 257.404 469.124 257.259C469.559 257.1 469.943 256.86 470.277 256.541C470.611 256.207 470.879 255.779 471.082 255.257C471.3 254.735 471.408 254.097 471.408 253.342V252.907C471.408 252.211 471.3 251.616 471.082 251.123C470.879 250.63 470.611 250.223 470.277 249.904C469.943 249.585 469.559 249.353 469.124 249.208C468.688 249.063 468.253 248.99 467.818 248.99C467.383 248.99 466.948 249.063 466.512 249.208C466.077 249.353 465.693 249.585 465.359 249.904C465.025 250.223 464.75 250.63 464.532 251.123C464.329 251.616 464.227 252.211 464.227 252.907V253.342C464.227 254.097 464.329 254.735 464.532 255.257C464.75 255.779 465.025 256.207 465.359 256.541C465.693 256.86 466.077 257.1 466.512 257.259C466.948 257.404 467.383 257.477 467.818 257.477ZM480.866 259.218C480.097 259.218 479.379 259.073 478.711 258.782C478.059 258.492 477.486 258.072 476.992 257.52C476.514 256.955 476.129 256.265 475.839 255.453C475.563 254.641 475.426 253.719 475.426 252.689V252.254C475.426 250.949 475.52 249.788 475.708 248.773C475.897 247.743 476.216 246.872 476.666 246.161C477.13 245.436 477.732 244.87 478.472 244.464C479.226 244.058 480.169 243.826 481.301 243.768C482.215 243.724 483.013 243.688 483.694 243.659C484.376 243.615 484.957 243.47 485.435 243.224V245.073C485.203 245.204 484.775 245.305 484.151 245.378C483.542 245.451 482.701 245.501 481.627 245.53C480.931 245.545 480.314 245.632 479.778 245.791C479.255 245.951 478.806 246.205 478.428 246.553C478.066 246.901 477.776 247.358 477.558 247.924C477.355 248.475 477.224 249.157 477.166 249.969C477.515 249.201 478.051 248.591 478.777 248.142C479.502 247.692 480.343 247.467 481.301 247.467C482.041 247.467 482.715 247.598 483.325 247.859C483.934 248.105 484.456 248.461 484.891 248.925C485.341 249.389 485.689 249.962 485.936 250.644C486.182 251.311 486.306 252.066 486.306 252.907V253.342C486.306 254.242 486.168 255.054 485.892 255.779C485.617 256.49 485.239 257.107 484.761 257.629C484.282 258.137 483.709 258.529 483.042 258.804C482.374 259.08 481.649 259.218 480.866 259.218ZM480.866 257.477C481.881 257.477 482.715 257.129 483.368 256.432C484.021 255.721 484.347 254.691 484.347 253.342V252.907C484.347 252.341 484.26 251.834 484.086 251.384C483.912 250.934 483.673 250.55 483.368 250.231C483.063 249.897 482.694 249.643 482.258 249.469C481.838 249.295 481.373 249.208 480.866 249.208C480.358 249.208 479.886 249.295 479.451 249.469C479.031 249.643 478.668 249.897 478.363 250.231C478.059 250.55 477.819 250.934 477.645 251.384C477.471 251.834 477.384 252.341 477.384 252.907V253.342C477.384 253.981 477.471 254.561 477.645 255.083C477.834 255.591 478.088 256.026 478.407 256.389C478.726 256.737 479.096 257.005 479.517 257.194C479.937 257.382 480.387 257.477 480.866 257.477ZM493.807 259.218C493.067 259.218 492.364 259.102 491.696 258.869C491.029 258.637 490.441 258.282 489.934 257.803C489.426 257.31 489.02 256.693 488.715 255.954C488.411 255.214 488.258 254.343 488.258 253.342V252.907C488.258 251.95 488.403 251.123 488.693 250.426C488.984 249.716 489.368 249.128 489.847 248.664C490.34 248.185 490.906 247.83 491.544 247.598C492.197 247.365 492.879 247.249 493.589 247.249C495.287 247.249 496.6 247.714 497.528 248.642C498.457 249.571 498.921 250.883 498.921 252.581V253.799H490.173C490.173 254.481 490.282 255.054 490.5 255.518C490.717 255.983 491 256.36 491.348 256.65C491.696 256.94 492.081 257.15 492.501 257.281C492.937 257.411 493.372 257.477 493.807 257.477C494.678 257.477 495.345 257.332 495.809 257.042C496.288 256.751 496.629 256.352 496.832 255.845H498.703C498.587 256.396 498.377 256.882 498.072 257.303C497.782 257.723 497.419 258.079 496.984 258.369C496.563 258.645 496.077 258.855 495.526 259C494.989 259.145 494.416 259.218 493.807 259.218ZM493.698 248.99C493.249 248.99 492.813 249.056 492.393 249.186C491.972 249.302 491.595 249.498 491.261 249.774C490.942 250.035 490.681 250.368 490.478 250.775C490.275 251.181 490.173 251.667 490.173 252.233H497.115C497.1 251.638 496.999 251.137 496.81 250.731C496.636 250.31 496.397 249.977 496.092 249.73C495.787 249.469 495.425 249.28 495.004 249.164C494.598 249.048 494.163 248.99 493.698 248.99ZM500.886 259.218C500.668 259.218 500.451 259.196 500.233 259.152V257.237C500.306 257.252 500.415 257.259 500.56 257.259C500.879 257.259 501.154 257.158 501.387 256.955C501.633 256.751 501.829 256.396 501.974 255.888C502.119 255.381 502.228 254.691 502.3 253.821C502.373 252.951 502.409 251.848 502.409 250.513V247.467H510.678V259H508.763V249.164H504.324V250.949C504.324 252.559 504.252 253.894 504.107 254.953C503.961 256.012 503.744 256.86 503.454 257.499C503.178 258.122 502.823 258.565 502.387 258.826C501.952 259.087 501.452 259.218 500.886 259.218Z" fill="black"/>
<rect x="412" y="218.5" width="120" height="64" stroke="#4C89BE"/>
<rect x="539" y="218.5" width="384" height="64" fill="#FCE0D2"/>
<path d="M560.878 243.768H562.924V250.318H564.665L570.627 243.768H573.064L566.405 251.036L573.282 259H570.67L564.665 252.015H562.924V259H560.878V243.768ZM575.561 259.218C575.343 259.218 575.125 259.196 574.908 259.152V257.237C574.98 257.252 575.089 257.259 575.234 257.259C575.553 257.259 575.829 257.158 576.061 256.955C576.308 256.751 576.504 256.396 576.649 255.888C576.794 255.381 576.902 254.691 576.975 253.821C577.048 252.951 577.084 251.848 577.084 250.513V247.467H585.353V259H583.438V249.164H578.999V250.949C578.999 252.559 578.926 253.894 578.781 254.953C578.636 256.012 578.418 256.86 578.128 257.499C577.853 258.122 577.497 258.565 577.062 258.826C576.627 259.087 576.126 259.218 575.561 259.218ZM588.834 247.467H590.748V252.276H592.38C592.438 251.449 592.62 250.724 592.924 250.1C593.229 249.462 593.614 248.932 594.078 248.512C594.556 248.091 595.101 247.779 595.71 247.576C596.319 247.358 596.965 247.249 597.646 247.249C598.386 247.249 599.075 247.373 599.714 247.619C600.367 247.851 600.932 248.207 601.411 248.686C601.89 249.15 602.267 249.737 602.543 250.448C602.833 251.159 602.978 251.979 602.978 252.907V253.342C602.978 254.329 602.833 255.192 602.543 255.932C602.267 256.672 601.89 257.288 601.411 257.781C600.932 258.26 600.367 258.623 599.714 258.869C599.075 259.102 598.386 259.218 597.646 259.218C596.965 259.218 596.312 259.116 595.688 258.913C595.079 258.695 594.535 258.369 594.056 257.934C593.592 257.499 593.207 256.955 592.903 256.302C592.613 255.634 592.438 254.858 592.38 253.973H590.748V259H588.834V247.467ZM597.646 257.477C598.082 257.477 598.502 257.404 598.909 257.259C599.315 257.1 599.67 256.86 599.975 256.541C600.294 256.207 600.548 255.779 600.736 255.257C600.925 254.735 601.019 254.097 601.019 253.342V252.907C601.019 252.211 600.925 251.616 600.736 251.123C600.548 250.63 600.294 250.223 599.975 249.904C599.67 249.585 599.315 249.353 598.909 249.208C598.502 249.063 598.082 248.99 597.646 248.99C597.211 248.99 596.791 249.063 596.384 249.208C595.978 249.353 595.615 249.585 595.296 249.904C594.992 250.223 594.745 250.63 594.556 251.123C594.368 251.616 594.274 252.211 594.274 252.907V253.342C594.274 254.097 594.368 254.735 594.556 255.257C594.745 255.779 594.992 256.207 595.296 256.541C595.615 256.86 595.978 257.1 596.384 257.259C596.791 257.404 597.211 257.477 597.646 257.477ZM612.387 254.409C612.053 254.612 611.647 254.793 611.168 254.953C610.704 255.112 610.116 255.192 609.406 255.192C608.738 255.192 608.136 255.119 607.599 254.974C607.077 254.829 606.635 254.597 606.272 254.278C605.909 253.959 605.634 253.545 605.445 253.038C605.257 252.53 605.162 251.906 605.162 251.166V247.467H607.077V250.84C607.077 251.333 607.121 251.747 607.208 252.08C607.309 252.414 607.469 252.682 607.686 252.885C607.904 253.088 608.18 253.234 608.513 253.321C608.847 253.408 609.253 253.451 609.732 253.451C610.385 253.451 610.943 253.386 611.408 253.255C611.872 253.125 612.198 252.987 612.387 252.842V247.467H614.302V259H612.387V254.409ZM622.564 259.218C621.824 259.218 621.12 259.102 620.453 258.869C619.786 258.637 619.198 258.282 618.69 257.803C618.183 257.31 617.776 256.693 617.472 255.954C617.167 255.214 617.015 254.343 617.015 253.342V252.907C617.015 251.95 617.16 251.123 617.45 250.426C617.74 249.716 618.125 249.128 618.603 248.664C619.097 248.185 619.662 247.83 620.301 247.598C620.953 247.365 621.635 247.249 622.346 247.249C624.043 247.249 625.356 247.714 626.285 248.642C627.213 249.571 627.677 250.883 627.677 252.581V253.799H618.93C618.93 254.481 619.039 255.054 619.256 255.518C619.474 255.983 619.757 256.36 620.105 256.65C620.453 256.94 620.837 257.15 621.258 257.281C621.693 257.411 622.129 257.477 622.564 257.477C623.434 257.477 624.101 257.332 624.566 257.042C625.044 256.751 625.385 256.352 625.588 255.845H627.46C627.344 256.396 627.133 256.882 626.829 257.303C626.539 257.723 626.176 258.079 625.741 258.369C625.32 258.645 624.834 258.855 624.283 259C623.746 259.145 623.173 259.218 622.564 259.218ZM622.455 248.99C622.005 248.99 621.57 249.056 621.149 249.186C620.729 249.302 620.351 249.498 620.018 249.774C619.699 250.035 619.438 250.368 619.234 250.775C619.031 251.181 618.93 251.667 618.93 252.233H625.871C625.857 251.638 625.755 251.137 625.567 250.731C625.393 250.31 625.153 249.977 624.849 249.73C624.544 249.469 624.181 249.28 623.761 249.164C623.354 249.048 622.919 248.99 622.455 248.99ZM630.399 247.467H635.404C636.826 247.467 637.87 247.764 638.538 248.359C639.205 248.939 639.539 249.694 639.539 250.622C639.539 250.869 639.495 251.123 639.408 251.384C639.321 251.63 639.198 251.863 639.038 252.08C638.893 252.298 638.712 252.486 638.494 252.646C638.291 252.806 638.059 252.929 637.798 253.016C638.509 253.19 639.045 253.524 639.408 254.017C639.785 254.496 639.974 255.061 639.974 255.714C639.974 256.715 639.64 257.513 638.973 258.108C638.305 258.703 637.261 259 635.839 259H630.399V247.467ZM635.839 257.303C636.652 257.303 637.225 257.158 637.558 256.867C637.892 256.577 638.059 256.164 638.059 255.627C638.059 255.076 637.892 254.655 637.558 254.365C637.225 254.06 636.652 253.908 635.839 253.908H632.314V257.303H635.839ZM635.404 252.341C636.231 252.341 636.804 252.196 637.123 251.906C637.457 251.616 637.624 251.217 637.624 250.709C637.624 250.231 637.457 249.853 637.123 249.578C636.804 249.302 636.231 249.164 635.404 249.164H632.314V252.341H635.404ZM642.703 247.467H644.618V251.819H646.946C648.397 251.819 649.463 252.138 650.145 252.777C650.842 253.415 651.19 254.3 651.19 255.431C651.19 256.534 650.842 257.404 650.145 258.043C649.463 258.681 648.397 259 646.946 259H642.703V247.467ZM646.838 257.303C647.737 257.303 648.368 257.143 648.731 256.824C649.093 256.505 649.275 256.033 649.275 255.41C649.275 254.786 649.093 254.314 648.731 253.995C648.368 253.676 647.737 253.516 646.838 253.516H644.618V257.303H646.838ZM652.974 247.467H654.889V259H652.974V247.467ZM663.152 259.218C662.412 259.218 661.708 259.102 661.041 258.869C660.374 258.637 659.786 258.282 659.279 257.803C658.771 257.31 658.365 256.693 658.06 255.954C657.755 255.214 657.603 254.343 657.603 253.342V252.907C657.603 251.95 657.748 251.123 658.038 250.426C658.328 249.716 658.713 249.128 659.192 248.664C659.685 248.185 660.251 247.83 660.889 247.598C661.542 247.365 662.223 247.249 662.934 247.249C664.632 247.249 665.944 247.714 666.873 248.642C667.801 249.571 668.266 250.883 668.266 252.581V253.799H659.518C659.518 254.481 659.627 255.054 659.844 255.518C660.062 255.983 660.345 256.36 660.693 256.65C661.041 256.94 661.426 257.15 661.846 257.281C662.282 257.411 662.717 257.477 663.152 257.477C664.022 257.477 664.69 257.332 665.154 257.042C665.633 256.751 665.974 256.352 666.177 255.845H668.048C667.932 256.396 667.722 256.882 667.417 257.303C667.127 257.723 666.764 258.079 666.329 258.369C665.908 258.645 665.422 258.855 664.871 259C664.334 259.145 663.761 259.218 663.152 259.218ZM663.043 248.99C662.593 248.99 662.158 249.056 661.737 249.186C661.317 249.302 660.94 249.498 660.606 249.774C660.287 250.035 660.026 250.368 659.823 250.775C659.619 251.181 659.518 251.667 659.518 252.233H666.459C666.445 251.638 666.343 251.137 666.155 250.731C665.981 250.31 665.741 249.977 665.437 249.73C665.132 249.469 664.769 249.28 664.349 249.164C663.943 249.048 663.507 248.99 663.043 248.99ZM680.888 259.218C680.148 259.218 679.459 259.102 678.821 258.869C678.183 258.623 677.632 258.26 677.167 257.781C676.703 257.288 676.333 256.672 676.058 255.932C675.796 255.192 675.666 254.329 675.666 253.342V252.907C675.666 251.979 675.811 251.159 676.101 250.448C676.391 249.737 676.776 249.15 677.254 248.686C677.733 248.207 678.284 247.851 678.908 247.619C679.546 247.373 680.206 247.249 680.888 247.249C681.57 247.249 682.179 247.344 682.716 247.532C683.267 247.721 683.739 247.982 684.131 248.316C684.537 248.649 684.863 249.041 685.11 249.491C685.371 249.94 685.56 250.426 685.676 250.949H683.717C683.601 250.673 683.463 250.419 683.304 250.187C683.159 249.94 682.97 249.73 682.738 249.556C682.52 249.382 682.259 249.244 681.955 249.143C681.65 249.041 681.294 248.99 680.888 248.99C680.468 248.99 680.061 249.07 679.67 249.23C679.278 249.375 678.93 249.607 678.625 249.926C678.321 250.231 678.074 250.63 677.885 251.123C677.711 251.616 677.624 252.211 677.624 252.907V253.342C677.624 254.082 677.711 254.72 677.885 255.257C678.074 255.779 678.321 256.207 678.625 256.541C678.93 256.86 679.278 257.1 679.67 257.259C680.061 257.404 680.468 257.477 680.888 257.477C681.599 257.477 682.194 257.303 682.673 256.955C683.166 256.606 683.514 256.128 683.717 255.518H685.676C685.4 256.664 684.834 257.571 683.978 258.238C683.122 258.891 682.092 259.218 680.888 259.218ZM687.741 259.218C687.523 259.218 687.306 259.196 687.088 259.152V257.237C687.161 257.252 687.27 257.259 687.415 257.259C687.734 257.259 688.009 257.158 688.242 256.955C688.488 256.751 688.684 256.396 688.829 255.888C688.974 255.381 689.083 254.691 689.156 253.821C689.228 252.951 689.264 251.848 689.264 250.513V247.467H697.533V259H695.618V249.164H691.179V250.949C691.179 252.559 691.107 253.894 690.962 254.953C690.817 256.012 690.599 256.86 690.309 257.499C690.033 258.122 689.678 258.565 689.243 258.826C688.807 259.087 688.307 259.218 687.741 259.218ZM705.801 259.218C705.061 259.218 704.358 259.102 703.691 258.869C703.023 258.623 702.436 258.26 701.928 257.781C701.42 257.288 701.014 256.672 700.709 255.932C700.405 255.192 700.252 254.329 700.252 253.342V252.907C700.252 251.979 700.405 251.159 700.709 250.448C701.014 249.737 701.42 249.15 701.928 248.686C702.436 248.207 703.023 247.851 703.691 247.619C704.358 247.373 705.061 247.249 705.801 247.249C706.541 247.249 707.245 247.373 707.912 247.619C708.579 247.851 709.167 248.207 709.675 248.686C710.182 249.15 710.589 249.737 710.893 250.448C711.198 251.159 711.35 251.979 711.35 252.907V253.342C711.35 254.329 711.198 255.192 710.893 255.932C710.589 256.672 710.182 257.288 709.675 257.781C709.167 258.26 708.579 258.623 707.912 258.869C707.245 259.102 706.541 259.218 705.801 259.218ZM705.801 257.477C706.237 257.477 706.672 257.404 707.107 257.259C707.542 257.1 707.927 256.86 708.26 256.541C708.594 256.207 708.862 255.779 709.065 255.257C709.283 254.735 709.392 254.097 709.392 253.342V252.907C709.392 252.211 709.283 251.616 709.065 251.123C708.862 250.63 708.594 250.223 708.26 249.904C707.927 249.585 707.542 249.353 707.107 249.208C706.672 249.063 706.237 248.99 705.801 248.99C705.366 248.99 704.931 249.063 704.496 249.208C704.061 249.353 703.676 249.585 703.342 249.904C703.009 250.223 702.733 250.63 702.516 251.123C702.312 251.616 702.211 252.211 702.211 252.907V253.342C702.211 254.097 702.312 254.735 702.516 255.257C702.733 255.779 703.009 256.207 703.342 256.541C703.676 256.86 704.061 257.1 704.496 257.259C704.931 257.404 705.366 257.477 705.801 257.477ZM714.062 247.467H719.067C720.488 247.467 721.533 247.764 722.2 248.359C722.867 248.939 723.201 249.694 723.201 250.622C723.201 250.869 723.158 251.123 723.071 251.384C722.984 251.63 722.86 251.863 722.701 252.08C722.556 252.298 722.374 252.486 722.157 252.646C721.954 252.806 721.721 252.929 721.46 253.016C722.171 253.19 722.708 253.524 723.071 254.017C723.448 254.496 723.636 255.061 723.636 255.714C723.636 256.715 723.303 257.513 722.635 258.108C721.968 258.703 720.924 259 719.502 259H714.062V247.467ZM719.502 257.303C720.314 257.303 720.887 257.158 721.221 256.867C721.555 256.577 721.721 256.164 721.721 255.627C721.721 255.076 721.555 254.655 721.221 254.365C720.887 254.06 720.314 253.908 719.502 253.908H715.977V257.303H719.502ZM719.067 252.341C719.894 252.341 720.467 252.196 720.786 251.906C721.119 251.616 721.286 251.217 721.286 250.709C721.286 250.231 721.119 249.853 720.786 249.578C720.467 249.302 719.894 249.164 719.067 249.164H715.977V252.341H719.067ZM729.652 259.218C729.013 259.218 728.447 259.131 727.954 258.956C727.476 258.768 727.069 258.514 726.736 258.195C726.402 257.876 726.148 257.499 725.974 257.063C725.8 256.628 725.713 256.149 725.713 255.627C725.713 254.481 726.047 253.654 726.714 253.146C727.396 252.639 728.368 252.385 729.63 252.385H733.373V251.601C733.373 250.615 733.148 249.933 732.698 249.556C732.263 249.179 731.603 248.99 730.718 248.99C729.891 248.99 729.289 249.15 728.912 249.469C728.535 249.774 728.324 250.122 728.281 250.513H726.366C726.395 250.049 726.518 249.621 726.736 249.23C726.968 248.823 727.272 248.475 727.65 248.185C728.041 247.895 728.506 247.67 729.042 247.511C729.579 247.336 730.174 247.249 730.827 247.249C732.19 247.249 733.271 247.576 734.069 248.229C734.881 248.867 735.287 249.919 735.287 251.384V256.062C735.287 256.672 735.287 257.208 735.287 257.673C735.302 258.122 735.338 258.565 735.396 259H733.721C733.677 258.666 733.648 258.354 733.634 258.064C733.619 257.76 733.612 257.419 733.612 257.042C733.307 257.651 732.814 258.166 732.132 258.587C731.45 259.007 730.624 259.218 729.652 259.218ZM730.065 257.477C730.515 257.477 730.935 257.419 731.327 257.303C731.733 257.172 732.089 256.991 732.393 256.759C732.698 256.512 732.937 256.215 733.111 255.867C733.286 255.518 733.373 255.112 733.373 254.648V253.865H729.956C729.245 253.865 728.687 254.01 728.281 254.3C727.874 254.575 727.671 255.018 727.671 255.627C727.671 256.164 727.86 256.606 728.237 256.955C728.629 257.303 729.238 257.477 730.065 257.477ZM744.11 247.467H746.025V256.171L751.987 247.467H753.902V259H751.987V250.296L746.025 259H744.11V247.467ZM756.847 259.218C756.63 259.218 756.412 259.196 756.194 259.152V257.237C756.267 257.252 756.376 257.259 756.521 257.259C756.84 257.259 757.116 257.158 757.348 256.955C757.594 256.751 757.79 256.396 757.935 255.888C758.08 255.381 758.189 254.691 758.262 253.821C758.334 252.951 758.37 251.848 758.37 250.513V247.467H766.639V259H764.724V249.164H760.285V250.949C760.285 252.559 760.213 253.894 760.068 254.953C759.923 256.012 759.705 256.86 759.415 257.499C759.139 258.122 758.784 258.565 758.349 258.826C757.913 259.087 757.413 259.218 756.847 259.218ZM770.12 247.467H772.035V256.171L777.997 247.467H779.912V259H777.997V250.296L772.035 259H770.12V247.467ZM792.128 259.218C791.489 259.218 790.923 259.131 790.43 258.956C789.952 258.768 789.545 258.514 789.212 258.195C788.878 257.876 788.624 257.499 788.45 257.063C788.276 256.628 788.189 256.149 788.189 255.627C788.189 254.481 788.523 253.654 789.19 253.146C789.872 252.639 790.844 252.385 792.106 252.385H795.849V251.601C795.849 250.615 795.624 249.933 795.174 249.556C794.739 249.179 794.079 248.99 793.194 248.99C792.367 248.99 791.765 249.15 791.388 249.469C791.011 249.774 790.8 250.122 790.757 250.513H788.842C788.871 250.049 788.994 249.621 789.212 249.23C789.444 248.823 789.748 248.475 790.126 248.185C790.517 247.895 790.982 247.67 791.518 247.511C792.055 247.336 792.65 247.249 793.303 247.249C794.666 247.249 795.747 247.576 796.545 248.229C797.357 248.867 797.763 249.919 797.763 251.384V256.062C797.763 256.672 797.763 257.208 797.763 257.673C797.778 258.122 797.814 258.565 797.872 259H796.197C796.153 258.666 796.124 258.354 796.11 258.064C796.095 257.76 796.088 257.419 796.088 257.042C795.783 257.651 795.29 258.166 794.608 258.587C793.926 259.007 793.1 259.218 792.128 259.218ZM792.541 257.477C792.991 257.477 793.411 257.419 793.803 257.303C794.209 257.172 794.565 256.991 794.869 256.759C795.174 256.512 795.413 256.215 795.587 255.867C795.762 255.518 795.849 255.112 795.849 254.648V253.865H792.432C791.721 253.865 791.163 254.01 790.757 254.3C790.35 254.575 790.147 255.018 790.147 255.627C790.147 256.164 790.336 256.606 790.713 256.955C791.105 257.303 791.714 257.477 792.541 257.477ZM801.146 247.467H802.93V249.643C803.322 248.874 803.866 248.287 804.562 247.88C805.273 247.46 806.093 247.249 807.021 247.249C808.472 247.249 809.632 247.728 810.503 248.686C811.373 249.629 811.808 251.036 811.808 252.907V253.342C811.808 254.329 811.692 255.192 811.46 255.932C811.228 256.657 810.902 257.266 810.481 257.76C810.06 258.238 809.552 258.601 808.958 258.848C808.377 259.094 807.732 259.218 807.021 259.218C806.034 259.218 805.208 259 804.54 258.565C803.887 258.13 803.394 257.586 803.061 256.933V263.352H801.146V247.467ZM806.586 257.52C807.05 257.52 807.485 257.433 807.891 257.259C808.298 257.071 808.646 256.802 808.936 256.454C809.241 256.106 809.473 255.671 809.632 255.148C809.806 254.626 809.893 254.024 809.893 253.342V252.907C809.893 252.283 809.806 251.725 809.632 251.232C809.473 250.738 809.241 250.325 808.936 249.991C808.646 249.643 808.298 249.382 807.891 249.208C807.485 249.034 807.05 248.947 806.586 248.947C806.064 248.947 805.585 249.034 805.15 249.208C804.714 249.367 804.344 249.6 804.04 249.904C803.735 250.194 803.496 250.542 803.322 250.949C803.148 251.355 803.061 251.79 803.061 252.254V253.995C803.061 254.517 803.148 254.996 803.322 255.431C803.496 255.867 803.735 256.236 804.04 256.541C804.344 256.846 804.714 257.085 805.15 257.259C805.585 257.433 806.064 257.52 806.586 257.52ZM814.533 247.467H822.367V249.164H816.448V259H814.533V247.467ZM826.491 263.57C826.273 263.57 826.055 263.548 825.838 263.504V261.764C826.055 261.807 826.273 261.829 826.491 261.829C826.708 261.829 826.897 261.793 827.056 261.72C827.216 261.648 827.368 261.51 827.513 261.307C827.658 261.104 827.811 260.813 827.97 260.436C828.144 260.074 828.34 259.595 828.558 259L823.662 247.467H825.794L829.537 256.824L832.932 247.467H834.977L830.625 259C830.32 259.812 830.03 260.509 829.755 261.089C829.479 261.669 829.182 262.141 828.862 262.503C828.558 262.881 828.217 263.149 827.84 263.309C827.462 263.483 827.013 263.57 826.491 263.57ZM837.144 247.467H839.189L843.302 254.648L847.415 247.467H849.33V259H847.415V250.622L843.998 256.498H842.475L839.059 250.622V259H837.144V247.467ZM857.593 259.218C856.853 259.218 856.149 259.102 855.482 258.869C854.814 258.637 854.227 258.282 853.719 257.803C853.211 257.31 852.805 256.693 852.501 255.954C852.196 255.214 852.044 254.343 852.044 253.342V252.907C852.044 251.95 852.189 251.123 852.479 250.426C852.769 249.716 853.153 249.128 853.632 248.664C854.125 248.185 854.691 247.83 855.329 247.598C855.982 247.365 856.664 247.249 857.375 247.249C859.072 247.249 860.385 247.714 861.314 248.642C862.242 249.571 862.706 250.883 862.706 252.581V253.799H853.959C853.959 254.481 854.067 255.054 854.285 255.518C854.503 255.983 854.785 256.36 855.134 256.65C855.482 256.94 855.866 257.15 856.287 257.281C856.722 257.411 857.157 257.477 857.593 257.477C858.463 257.477 859.13 257.332 859.594 257.042C860.073 256.751 860.414 256.352 860.617 255.845H862.489C862.373 256.396 862.162 256.882 861.858 257.303C861.567 257.723 861.205 258.079 860.77 258.369C860.349 258.645 859.863 258.855 859.312 259C858.775 259.145 858.202 259.218 857.593 259.218ZM857.484 248.99C857.034 248.99 856.599 249.056 856.178 249.186C855.757 249.302 855.38 249.498 855.047 249.774C854.727 250.035 854.466 250.368 854.263 250.775C854.06 251.181 853.959 251.667 853.959 252.233H860.9C860.886 251.638 860.784 251.137 860.595 250.731C860.421 250.31 860.182 249.977 859.877 249.73C859.573 249.469 859.21 249.28 858.789 249.164C858.383 249.048 857.948 248.99 857.484 248.99ZM865.428 247.467H867.343V252.276H873.305V247.467H875.22V259H873.305V253.973H867.343V259H865.428V247.467ZM881.342 249.164H877.404V247.467H887.196V249.164H883.257V259H881.342V249.164ZM889.377 247.467H891.292V251.819H893.62C895.071 251.819 896.137 252.138 896.819 252.777C897.515 253.415 897.864 254.3 897.864 255.431C897.864 256.534 897.515 257.404 896.819 258.043C896.137 258.681 895.071 259 893.62 259H889.377V247.467ZM893.512 257.303C894.411 257.303 895.042 257.143 895.405 256.824C895.767 256.505 895.949 256.033 895.949 255.41C895.949 254.786 895.767 254.314 895.405 253.995C895.042 253.676 894.411 253.516 893.512 253.516H891.292V257.303H893.512ZM899.648 247.467H901.563V259H899.648V247.467Z" fill="black"/>
<rect x="539" y="218.5" width="384" height="64" stroke="#E87F53"/>
</svg>
