<svg width="1201" height="540" viewBox="0 0 1201 540" fill="none" xmlns="http://www.w3.org/2000/svg">
<path d="M449.394 434.503C448.48 434.503 447.683 434.394 447.001 434.177C446.319 433.959 445.746 433.662 445.282 433.285C444.817 432.893 444.448 432.443 444.172 431.936C443.911 431.413 443.729 430.855 443.628 430.26H445.673C445.746 430.594 445.869 430.913 446.043 431.217C446.217 431.508 446.449 431.761 446.74 431.979C447.044 432.197 447.414 432.371 447.849 432.501C448.285 432.617 448.8 432.675 449.394 432.675C450.613 432.675 451.534 432.443 452.158 431.979C452.796 431.515 453.115 430.942 453.115 430.26C453.115 429.839 453.043 429.484 452.898 429.194C452.767 428.904 452.535 428.65 452.201 428.432C451.882 428.215 451.454 428.019 450.918 427.845C450.395 427.67 449.75 427.496 448.981 427.322C448.125 427.134 447.385 426.931 446.761 426.713C446.152 426.481 445.644 426.198 445.238 425.864C444.846 425.516 444.549 425.103 444.346 424.624C444.157 424.145 444.063 423.558 444.063 422.861C444.063 422.296 444.186 421.773 444.433 421.295C444.68 420.801 445.028 420.374 445.478 420.011C445.942 419.648 446.5 419.365 447.153 419.162C447.82 418.945 448.567 418.836 449.394 418.836C450.207 418.836 450.918 418.945 451.527 419.162C452.136 419.365 452.651 419.648 453.072 420.011C453.507 420.374 453.848 420.801 454.095 421.295C454.341 421.773 454.515 422.296 454.617 422.861H452.571C452.499 422.557 452.39 422.274 452.245 422.013C452.1 421.737 451.897 421.505 451.636 421.316C451.389 421.113 451.077 420.954 450.7 420.838C450.337 420.722 449.902 420.664 449.394 420.664C448.35 420.664 447.537 420.881 446.957 421.316C446.391 421.737 446.109 422.252 446.109 422.861C446.109 423.253 446.181 423.594 446.326 423.884C446.471 424.16 446.696 424.406 447.001 424.624C447.305 424.827 447.69 425.008 448.154 425.168C448.633 425.313 449.199 425.458 449.851 425.603C450.794 425.806 451.599 426.038 452.267 426.3C452.949 426.546 453.5 426.851 453.921 427.214C454.356 427.576 454.668 428.004 454.856 428.497C455.059 428.991 455.161 429.578 455.161 430.26C455.161 430.855 455.03 431.413 454.769 431.936C454.508 432.443 454.131 432.893 453.638 433.285C453.144 433.662 452.542 433.959 451.832 434.177C451.121 434.394 450.308 434.503 449.394 434.503ZM456.79 422.753H458.879L461.099 431.674L464.102 422.753H465.799L468.911 431.674L471.109 422.753H473.111L469.955 434.286H468.04L464.907 425.364L461.86 434.286H459.946L456.79 422.753ZM475.712 422.753H477.627V434.286H475.712V422.753ZM476.67 421.229C476.293 421.229 475.981 421.106 475.734 420.86C475.488 420.613 475.364 420.301 475.364 419.924C475.364 419.547 475.488 419.235 475.734 418.988C475.981 418.742 476.293 418.618 476.67 418.618C477.047 418.618 477.359 418.742 477.606 418.988C477.852 419.235 477.976 419.547 477.976 419.924C477.976 420.301 477.852 420.613 477.606 420.86C477.359 421.106 477.047 421.229 476.67 421.229ZM485.561 434.394C484.328 434.394 483.435 434.119 482.884 433.568C482.347 433.002 482.079 432.153 482.079 431.022V424.45H480.338V422.753H482.079V420.141H483.994V422.753H487.084V424.45H483.994V430.804C483.994 431.457 484.132 431.928 484.407 432.218C484.683 432.509 485.213 432.654 485.996 432.654C486.431 432.654 486.866 432.632 487.302 432.588V434.286C487.026 434.315 486.75 434.336 486.475 434.351C486.199 434.38 485.894 434.394 485.561 434.394ZM494.491 434.503C493.751 434.503 493.062 434.387 492.424 434.155C491.785 433.908 491.234 433.546 490.77 433.067C490.306 432.574 489.936 431.957 489.66 431.217C489.399 430.478 489.269 429.614 489.269 428.628V428.193C489.269 427.264 489.414 426.445 489.704 425.734C489.994 425.023 490.378 424.435 490.857 423.971C491.336 423.493 491.887 423.137 492.511 422.905C493.149 422.658 493.809 422.535 494.491 422.535C495.173 422.535 495.782 422.629 496.319 422.818C496.87 423.007 497.342 423.268 497.733 423.601C498.139 423.935 498.466 424.327 498.712 424.776C498.974 425.226 499.162 425.712 499.278 426.234H497.32C497.204 425.959 497.066 425.705 496.906 425.473C496.761 425.226 496.573 425.016 496.341 424.842C496.123 424.668 495.862 424.53 495.557 424.428C495.253 424.327 494.897 424.276 494.491 424.276C494.07 424.276 493.664 424.356 493.272 424.515C492.881 424.66 492.533 424.892 492.228 425.212C491.923 425.516 491.677 425.915 491.488 426.408C491.314 426.902 491.227 427.496 491.227 428.193V428.628C491.227 429.368 491.314 430.006 491.488 430.543C491.677 431.065 491.923 431.493 492.228 431.827C492.533 432.146 492.881 432.385 493.272 432.545C493.664 432.69 494.07 432.762 494.491 432.762C495.202 432.762 495.797 432.588 496.275 432.24C496.769 431.892 497.117 431.413 497.32 430.804H499.278C499.003 431.95 498.437 432.857 497.581 433.524C496.725 434.177 495.695 434.503 494.491 434.503ZM501.888 419.053H503.803V424.82C503.948 424.515 504.136 424.225 504.368 423.949C504.601 423.674 504.876 423.434 505.195 423.231C505.515 423.014 505.877 422.847 506.283 422.731C506.69 422.6 507.132 422.535 507.611 422.535C509.061 422.535 510.135 422.927 510.831 423.71C511.542 424.479 511.898 425.611 511.898 427.105V434.286H509.983V427.54C509.983 426.466 509.758 425.654 509.308 425.103C508.858 424.552 508.104 424.276 507.045 424.276C506.479 424.276 505.986 424.37 505.565 424.559C505.159 424.747 504.825 424.994 504.564 425.299C504.303 425.603 504.107 425.951 503.977 426.343C503.861 426.735 503.803 427.134 503.803 427.54V434.286H501.888V419.053ZM524.415 425.603V427.301L514.623 431.674V429.629L522.021 426.495L514.623 423.362V421.229L524.415 425.603Z" fill="#58A982"/>
<path d="M539.173 422.753H540.957V424.929C541.349 424.16 541.893 423.572 542.589 423.166C543.3 422.745 544.12 422.535 545.048 422.535C546.499 422.535 547.659 423.014 548.53 423.971C549.4 424.914 549.835 426.321 549.835 428.193V428.628C549.835 429.614 549.719 430.478 549.487 431.217C549.255 431.943 548.929 432.552 548.508 433.045C548.087 433.524 547.58 433.887 546.985 434.133C546.404 434.38 545.759 434.503 545.048 434.503C544.062 434.503 543.235 434.286 542.567 433.85C541.915 433.415 541.421 432.871 541.088 432.218V438.638H539.173V422.753ZM544.613 432.806C545.077 432.806 545.512 432.719 545.918 432.545C546.325 432.356 546.673 432.088 546.963 431.74C547.268 431.392 547.5 430.956 547.659 430.434C547.833 429.912 547.92 429.31 547.92 428.628V428.193C547.92 427.569 547.833 427.01 547.659 426.517C547.5 426.024 547.268 425.611 546.963 425.277C546.673 424.929 546.325 424.668 545.918 424.493C545.512 424.319 545.077 424.232 544.613 424.232C544.091 424.232 543.612 424.319 543.177 424.493C542.741 424.653 542.372 424.885 542.067 425.19C541.762 425.48 541.523 425.828 541.349 426.234C541.175 426.641 541.088 427.076 541.088 427.54V429.281C541.088 429.803 541.175 430.282 541.349 430.717C541.523 431.152 541.762 431.522 542.067 431.827C542.372 432.131 542.741 432.371 543.177 432.545C543.612 432.719 544.091 432.806 544.613 432.806ZM552.778 422.753H554.693V434.286H552.778V422.753ZM553.736 421.229C553.358 421.229 553.046 421.106 552.8 420.86C552.553 420.613 552.43 420.301 552.43 419.924C552.43 419.547 552.553 419.235 552.8 418.988C553.046 418.742 553.358 418.618 553.736 418.618C554.113 418.618 554.425 418.742 554.671 418.988C554.918 419.235 555.041 419.547 555.041 419.924C555.041 420.301 554.918 420.613 554.671 420.86C554.425 421.106 554.113 421.229 553.736 421.229ZM558.383 422.753H560.167V424.929C560.298 424.61 560.479 424.305 560.711 424.015C560.944 423.725 561.219 423.471 561.538 423.253C561.872 423.036 562.249 422.861 562.67 422.731C563.105 422.6 563.584 422.535 564.106 422.535C565.557 422.535 566.63 422.927 567.327 423.71C568.037 424.479 568.393 425.611 568.393 427.105V434.286H566.478V427.54C566.478 426.466 566.253 425.654 565.803 425.103C565.354 424.552 564.599 424.276 563.54 424.276C562.974 424.276 562.481 424.37 562.061 424.559C561.654 424.747 561.321 424.994 561.06 425.299C560.798 425.603 560.603 425.951 560.472 426.343C560.356 426.735 560.298 427.134 560.298 427.54V434.286H558.383V422.753ZM576.34 438.855C575.499 438.855 574.781 438.768 574.186 438.594C573.591 438.435 573.098 438.21 572.706 437.92C572.329 437.629 572.039 437.281 571.836 436.875C571.633 436.483 571.502 436.055 571.444 435.591H573.446C573.519 435.823 573.62 436.034 573.751 436.222C573.882 436.411 574.056 436.57 574.273 436.701C574.491 436.832 574.766 436.933 575.1 437.006C575.448 437.078 575.862 437.114 576.34 437.114C577.516 437.114 578.379 436.832 578.93 436.266C579.481 435.7 579.757 434.895 579.757 433.85V432.001C579.423 432.77 578.908 433.343 578.212 433.72C577.53 434.097 576.725 434.286 575.796 434.286C575.086 434.286 574.433 434.162 573.838 433.916C573.258 433.669 572.757 433.306 572.337 432.828C571.916 432.349 571.589 431.754 571.357 431.043C571.125 430.318 571.009 429.477 571.009 428.519V428.084C571.009 427.199 571.125 426.416 571.357 425.734C571.604 425.037 571.938 424.457 572.358 423.993C572.779 423.514 573.279 423.152 573.86 422.905C574.455 422.658 575.1 422.535 575.796 422.535C576.783 422.535 577.639 422.76 578.364 423.21C579.09 423.645 579.597 424.218 579.887 424.929V422.753H581.672V433.85C581.672 435.417 581.215 436.643 580.301 437.528C579.387 438.413 578.067 438.855 576.34 438.855ZM576.232 432.588C576.754 432.588 577.233 432.509 577.668 432.349C578.103 432.175 578.473 431.936 578.778 431.631C579.082 431.326 579.322 430.964 579.496 430.543C579.67 430.122 579.757 429.665 579.757 429.172V427.431C579.757 426.996 579.67 426.582 579.496 426.191C579.322 425.799 579.082 425.458 578.778 425.168C578.473 424.878 578.103 424.653 577.668 424.493C577.233 424.319 576.754 424.232 576.232 424.232C575.767 424.232 575.332 424.319 574.926 424.493C574.52 424.668 574.164 424.921 573.86 425.255C573.57 425.589 573.338 425.995 573.163 426.474C573.004 426.938 572.924 427.475 572.924 428.084V428.519C572.924 429.172 573.004 429.752 573.163 430.26C573.338 430.768 573.57 431.196 573.86 431.544C574.164 431.892 574.52 432.153 574.926 432.327C575.332 432.501 575.767 432.588 576.232 432.588Z" fill="#CD859B"/>
<path d="M616.025 432.216H619.659V421.009L616.025 423.599V421.379L619.703 418.768H621.748V432.216H624.729V434H616.025V432.216ZM631.591 434.218C630.358 434.218 629.336 433.942 628.523 433.391C627.711 432.825 627.174 431.976 626.913 430.845H628.958C629.365 431.875 630.242 432.39 631.591 432.39C632.114 432.39 632.6 432.295 633.049 432.107C633.499 431.918 633.891 431.606 634.224 431.171C634.558 430.736 634.827 430.156 635.03 429.43C635.233 428.705 635.349 427.798 635.378 426.71C635.175 427.058 634.928 427.363 634.638 427.624C634.348 427.871 634.029 428.074 633.68 428.234C633.347 428.379 632.999 428.487 632.636 428.56C632.273 428.632 631.925 428.669 631.591 428.669C630.068 428.669 628.85 428.248 627.936 427.407C627.036 426.551 626.587 425.332 626.587 423.751V423.533C626.587 422.808 626.717 422.141 626.978 421.531C627.254 420.922 627.624 420.4 628.088 419.965C628.552 419.515 629.096 419.167 629.72 418.92C630.344 418.673 631.004 418.55 631.7 418.55C633.412 418.55 634.761 419.109 635.748 420.226C636.749 421.343 637.249 423.105 637.249 425.513V425.949C637.249 427.443 637.097 428.719 636.792 429.778C636.488 430.823 636.074 431.679 635.552 432.346C635.044 432.999 634.449 433.478 633.768 433.782C633.086 434.073 632.36 434.218 631.591 434.218ZM631.874 426.841C632.933 426.841 633.738 426.572 634.29 426.036C634.841 425.499 635.117 424.73 635.117 423.729V423.512C635.117 422.525 634.834 421.756 634.268 421.205C633.717 420.654 632.919 420.378 631.874 420.378C630.815 420.378 630.01 420.646 629.459 421.183C628.908 421.705 628.632 422.482 628.632 423.512V423.729C628.632 424.73 628.908 425.499 629.459 426.036C630.01 426.572 630.815 426.841 631.874 426.841ZM639.435 432.324L645.528 427.037C645.993 426.645 646.37 426.29 646.66 425.97C646.964 425.651 647.204 425.354 647.378 425.078C647.552 424.788 647.668 424.505 647.726 424.23C647.799 423.954 647.835 423.657 647.835 423.337C647.835 422.482 647.581 421.778 647.073 421.227C646.566 420.661 645.869 420.378 644.984 420.378C643.925 420.378 643.113 420.668 642.547 421.248C641.981 421.814 641.698 422.619 641.698 423.664H639.653C639.653 422.924 639.776 422.242 640.023 421.618C640.284 420.98 640.647 420.436 641.111 419.986C641.59 419.537 642.155 419.188 642.808 418.942C643.461 418.681 644.186 418.55 644.984 418.55C645.753 418.55 646.442 418.673 647.052 418.92C647.661 419.152 648.176 419.486 648.597 419.921C649.017 420.342 649.336 420.842 649.554 421.423C649.772 422.003 649.88 422.641 649.88 423.337C649.88 423.86 649.801 424.346 649.641 424.795C649.481 425.245 649.257 425.673 648.966 426.079C648.691 426.485 648.35 426.884 647.944 427.276C647.552 427.653 647.117 428.045 646.638 428.451L642.09 432.216H650.098V434H639.435V432.324ZM654.452 434.218C654.031 434.218 653.668 434.073 653.364 433.782C653.074 433.478 652.929 433.115 652.929 432.694C652.929 432.259 653.074 431.896 653.364 431.606C653.668 431.316 654.031 431.171 654.452 431.171C654.872 431.171 655.228 431.316 655.518 431.606C655.823 431.896 655.975 432.259 655.975 432.694C655.975 433.115 655.823 433.478 655.518 433.782C655.228 434.073 654.872 434.218 654.452 434.218ZM658.908 432.216H662.542V421.009L658.908 423.599V421.379L662.586 418.768H664.631V432.216H667.613V434H658.908V432.216ZM675.127 434.218C674.286 434.218 673.524 434.08 672.843 433.804C672.161 433.529 671.573 433.108 671.08 432.542C670.601 431.962 670.231 431.236 669.97 430.366C669.709 429.496 669.579 428.458 669.579 427.254V426.819C669.579 425.325 669.731 424.056 670.036 423.011C670.34 421.952 670.754 421.096 671.276 420.443C671.798 419.776 672.407 419.297 673.104 419.007C673.8 418.702 674.547 418.55 675.345 418.55C676.52 418.55 677.507 418.833 678.304 419.399C679.117 419.95 679.654 420.791 679.915 421.923H677.869C677.463 420.893 676.622 420.378 675.345 420.378C674.794 420.378 674.286 420.472 673.822 420.661C673.358 420.849 672.951 421.161 672.603 421.597C672.27 422.032 672.001 422.612 671.798 423.337C671.595 424.063 671.479 424.969 671.45 426.057C671.653 425.709 671.9 425.412 672.19 425.165C672.48 424.904 672.792 424.701 673.126 424.556C673.474 424.396 673.829 424.28 674.192 424.208C674.554 424.135 674.903 424.099 675.236 424.099C676.76 424.099 677.971 424.527 678.87 425.383C679.784 426.224 680.241 427.436 680.241 429.017V429.234C680.241 429.96 680.103 430.627 679.828 431.236C679.567 431.846 679.204 432.375 678.74 432.825C678.275 433.26 677.731 433.601 677.108 433.848C676.484 434.094 675.824 434.218 675.127 434.218ZM674.953 432.39C676.012 432.39 676.818 432.121 677.369 431.585C677.92 431.048 678.196 430.272 678.196 429.256V429.039C678.196 428.038 677.92 427.269 677.369 426.732C676.818 426.195 676.012 425.927 674.953 425.927C673.894 425.927 673.089 426.195 672.538 426.732C671.987 427.269 671.711 428.038 671.711 429.039V429.256C671.711 430.257 671.987 431.033 672.538 431.585C673.089 432.121 673.894 432.39 674.953 432.39ZM688.085 434.218C687.186 434.218 686.395 434.109 685.713 433.891C685.031 433.674 684.458 433.376 683.994 432.999C683.544 432.622 683.204 432.179 682.971 431.672C682.754 431.149 682.645 430.584 682.645 429.974C682.645 429.104 682.921 428.328 683.472 427.646C684.023 426.95 684.836 426.456 685.909 426.166C685.517 426.036 685.147 425.862 684.799 425.644C684.466 425.412 684.168 425.144 683.907 424.839C683.646 424.534 683.443 424.193 683.298 423.816C683.153 423.424 683.08 423.011 683.08 422.576C683.08 422.01 683.189 421.481 683.407 420.987C683.624 420.494 683.943 420.073 684.364 419.725C684.785 419.363 685.307 419.08 685.931 418.877C686.555 418.659 687.273 418.55 688.085 418.55C688.897 418.55 689.616 418.659 690.239 418.877C690.863 419.08 691.385 419.363 691.806 419.725C692.227 420.073 692.546 420.494 692.764 420.987C692.981 421.481 693.09 422.01 693.09 422.576C693.09 423.446 692.814 424.186 692.263 424.795C691.726 425.405 691.059 425.862 690.261 426.166C691.349 426.529 692.162 427.008 692.698 427.602C693.25 428.197 693.525 428.988 693.525 429.974C693.525 430.584 693.409 431.149 693.177 431.672C692.959 432.179 692.618 432.622 692.154 432.999C691.705 433.376 691.139 433.674 690.457 433.891C689.775 434.109 688.985 434.218 688.085 434.218ZM688.085 432.39C688.709 432.39 689.238 432.324 689.674 432.194C690.109 432.049 690.457 431.867 690.718 431.65C690.994 431.418 691.19 431.149 691.306 430.845C691.422 430.526 691.48 430.192 691.48 429.844C691.48 429.438 691.393 429.068 691.219 428.734C691.059 428.4 690.827 428.11 690.522 427.864C690.218 427.602 689.855 427.399 689.434 427.254C689.028 427.095 688.578 426.986 688.085 426.928C687.592 426.986 687.135 427.095 686.714 427.254C686.308 427.399 685.953 427.595 685.648 427.842C685.343 428.088 685.104 428.386 684.93 428.734C684.77 429.068 684.69 429.438 684.69 429.844C684.69 430.192 684.748 430.526 684.865 430.845C684.981 431.149 685.169 431.418 685.43 431.65C685.706 431.867 686.061 432.049 686.497 432.194C686.932 432.324 687.461 432.39 688.085 432.39ZM688.085 425.405C688.955 425.289 689.666 425.013 690.218 424.578C690.769 424.128 691.044 423.497 691.044 422.685C691.044 421.945 690.798 421.379 690.305 420.987C689.826 420.581 689.086 420.378 688.085 420.378C687.07 420.378 686.322 420.581 685.844 420.987C685.365 421.379 685.126 421.945 685.126 422.685C685.126 423.497 685.401 424.128 685.953 424.578C686.504 425.013 687.215 425.289 688.085 425.405ZM697.994 434.218C697.573 434.218 697.21 434.073 696.906 433.782C696.616 433.478 696.47 433.115 696.47 432.694C696.47 432.259 696.616 431.896 696.906 431.606C697.21 431.316 697.573 431.171 697.994 431.171C698.414 431.171 698.77 431.316 699.06 431.606C699.365 431.896 699.517 432.259 699.517 432.694C699.517 433.115 699.365 433.478 699.06 433.782C698.77 434.073 698.414 434.218 697.994 434.218ZM702.45 432.216H706.084V421.009L702.45 423.599V421.379L706.128 418.768H708.173V432.216H711.154V434H702.45V432.216ZM718.561 434.218C717.821 434.218 717.117 434.094 716.45 433.848C715.797 433.601 715.224 433.18 714.731 432.586C714.238 431.976 713.846 431.171 713.556 430.17C713.266 429.155 713.121 427.893 713.121 426.384V425.949C713.121 424.542 713.266 423.366 713.556 422.423C713.846 421.481 714.238 420.726 714.731 420.16C715.224 419.58 715.797 419.167 716.45 418.92C717.117 418.673 717.821 418.55 718.561 418.55C719.3 418.55 719.997 418.673 720.65 418.92C721.317 419.167 721.897 419.58 722.39 420.16C722.884 420.726 723.275 421.481 723.565 422.423C723.856 423.366 724.001 424.542 724.001 425.949V426.384C724.001 427.893 723.856 429.155 723.565 430.17C723.275 431.171 722.884 431.976 722.39 432.586C721.897 433.18 721.317 433.601 720.65 433.848C719.997 434.094 719.3 434.218 718.561 434.218ZM718.561 432.433C719.01 432.433 719.438 432.353 719.844 432.194C720.265 432.02 720.628 431.715 720.932 431.28C721.252 430.83 721.498 430.214 721.672 429.43C721.861 428.647 721.955 427.631 721.955 426.384V425.949C721.955 424.817 721.861 423.889 721.672 423.163C721.498 422.438 721.252 421.865 720.932 421.444C720.628 421.024 720.265 420.733 719.844 420.574C719.438 420.414 719.01 420.335 718.561 420.335C718.096 420.335 717.661 420.414 717.255 420.574C716.849 420.733 716.486 421.024 716.167 421.444C715.862 421.865 715.616 422.438 715.427 423.163C715.253 423.889 715.166 424.817 715.166 425.949V426.384C715.166 427.631 715.253 428.647 715.427 429.43C715.616 430.214 715.862 430.83 716.167 431.28C716.486 431.715 716.849 432.02 717.255 432.194C717.661 432.353 718.096 432.433 718.561 432.433ZM728.573 434.218C728.152 434.218 727.79 434.073 727.485 433.782C727.195 433.478 727.05 433.115 727.05 432.694C727.05 432.259 727.195 431.896 727.485 431.606C727.79 431.316 728.152 431.171 728.573 431.171C728.994 431.171 729.349 431.316 729.639 431.606C729.944 431.896 730.096 432.259 730.096 432.694C730.096 433.115 729.944 433.478 729.639 433.782C729.349 434.073 728.994 434.218 728.573 434.218ZM738.143 434.218C737.316 434.218 736.598 434.109 735.989 433.891C735.38 433.659 734.865 433.362 734.444 432.999C734.038 432.622 733.726 432.201 733.508 431.737C733.291 431.273 733.167 430.794 733.138 430.301H735.184C735.256 430.852 735.546 431.338 736.054 431.759C736.576 432.179 737.273 432.39 738.143 432.39C739.13 432.39 739.906 432.085 740.472 431.476C741.037 430.852 741.32 429.989 741.32 428.886C741.32 428.263 741.226 427.726 741.037 427.276C740.863 426.826 740.624 426.464 740.319 426.188C740.029 425.912 739.695 425.709 739.318 425.579C738.941 425.448 738.549 425.383 738.143 425.383C737.36 425.383 736.743 425.528 736.294 425.818C735.858 426.108 735.525 426.442 735.293 426.819H733.465V418.768H742.495V420.552H735.51V424.795C736.265 423.968 737.251 423.555 738.47 423.555C739.978 423.555 741.168 424.012 742.038 424.926C742.923 425.84 743.366 427.16 743.366 428.886C743.366 429.699 743.235 430.439 742.974 431.106C742.727 431.759 742.372 432.317 741.908 432.781C741.458 433.246 740.907 433.601 740.254 433.848C739.616 434.094 738.912 434.218 738.143 434.218Z" fill="#E87F53"/>
<path d="M483.966 407.823V370.057H188.85V302.474" stroke="black" stroke-width="2"/>
<path d="M439.9 122.611C438.986 122.611 438.188 122.502 437.507 122.284C436.825 122.067 436.252 121.769 435.788 121.392C435.323 121 434.953 120.551 434.678 120.043C434.417 119.521 434.235 118.962 434.134 118.367H436.179C436.252 118.701 436.375 119.02 436.549 119.325C436.723 119.615 436.955 119.869 437.245 120.086C437.55 120.304 437.92 120.478 438.355 120.609C438.79 120.725 439.305 120.783 439.9 120.783C441.119 120.783 442.04 120.551 442.664 120.086C443.302 119.622 443.621 119.049 443.621 118.367C443.621 117.947 443.549 117.591 443.404 117.301C443.273 117.011 443.041 116.757 442.707 116.54C442.388 116.322 441.96 116.126 441.423 115.952C440.901 115.778 440.256 115.604 439.487 115.43C438.631 115.241 437.891 115.038 437.267 114.82C436.658 114.588 436.15 114.305 435.744 113.972C435.352 113.624 435.055 113.21 434.852 112.731C434.663 112.253 434.569 111.665 434.569 110.969C434.569 110.403 434.692 109.881 434.939 109.402C435.185 108.909 435.534 108.481 435.983 108.118C436.448 107.756 437.006 107.473 437.659 107.27C438.326 107.052 439.073 106.943 439.9 106.943C440.713 106.943 441.423 107.052 442.033 107.27C442.642 107.473 443.157 107.756 443.578 108.118C444.013 108.481 444.354 108.909 444.6 109.402C444.847 109.881 445.021 110.403 445.123 110.969H443.077C443.005 110.664 442.896 110.381 442.751 110.12C442.606 109.845 442.403 109.612 442.142 109.424C441.895 109.221 441.583 109.061 441.206 108.945C440.843 108.829 440.408 108.771 439.9 108.771C438.856 108.771 438.043 108.989 437.463 109.424C436.897 109.845 436.614 110.36 436.614 110.969C436.614 111.361 436.687 111.701 436.832 111.992C436.977 112.267 437.202 112.514 437.507 112.731C437.811 112.935 438.196 113.116 438.66 113.275C439.139 113.421 439.704 113.566 440.357 113.711C441.3 113.914 442.105 114.146 442.773 114.407C443.454 114.654 444.006 114.958 444.426 115.321C444.862 115.684 445.173 116.112 445.362 116.605C445.565 117.098 445.667 117.686 445.667 118.367C445.667 118.962 445.536 119.521 445.275 120.043C445.014 120.551 444.637 121 444.143 121.392C443.65 121.769 443.048 122.067 442.337 122.284C441.627 122.502 440.814 122.611 439.9 122.611ZM447.296 110.86H449.385L451.605 119.782L454.608 110.86H456.305L459.417 119.782L461.615 110.86H463.616L460.461 122.393H458.546L455.413 113.471L452.366 122.393H450.451L447.296 110.86ZM466.218 110.86H468.133V122.393H466.218V110.86ZM467.176 109.337C466.799 109.337 466.487 109.214 466.24 108.967C465.993 108.72 465.87 108.408 465.87 108.031C465.87 107.654 465.993 107.342 466.24 107.096C466.487 106.849 466.799 106.726 467.176 106.726C467.553 106.726 467.865 106.849 468.111 107.096C468.358 107.342 468.481 107.654 468.481 108.031C468.481 108.408 468.358 108.72 468.111 108.967C467.865 109.214 467.553 109.337 467.176 109.337ZM476.067 122.502C474.834 122.502 473.941 122.226 473.39 121.675C472.853 121.109 472.585 120.261 472.585 119.129V112.557H470.844V110.86H472.585V108.249H474.5V110.86H477.59V112.557H474.5V118.911C474.5 119.564 474.638 120.036 474.913 120.326C475.189 120.616 475.718 120.761 476.502 120.761C476.937 120.761 477.372 120.739 477.807 120.696V122.393C477.532 122.422 477.256 122.444 476.981 122.458C476.705 122.487 476.4 122.502 476.067 122.502ZM484.997 122.611C484.257 122.611 483.568 122.495 482.93 122.263C482.291 122.016 481.74 121.653 481.276 121.174C480.812 120.681 480.442 120.065 480.166 119.325C479.905 118.585 479.774 117.722 479.774 116.735V116.3C479.774 115.372 479.919 114.552 480.21 113.841C480.5 113.13 480.884 112.543 481.363 112.079C481.842 111.6 482.393 111.245 483.017 111.012C483.655 110.766 484.315 110.642 484.997 110.642C485.679 110.642 486.288 110.737 486.825 110.925C487.376 111.114 487.847 111.375 488.239 111.709C488.645 112.042 488.972 112.434 489.218 112.884C489.479 113.334 489.668 113.819 489.784 114.342H487.826C487.71 114.066 487.572 113.812 487.412 113.58C487.267 113.334 487.079 113.123 486.846 112.949C486.629 112.775 486.368 112.637 486.063 112.536C485.758 112.434 485.403 112.383 484.997 112.383C484.576 112.383 484.17 112.463 483.778 112.623C483.387 112.768 483.038 113 482.734 113.319C482.429 113.624 482.183 114.023 481.994 114.516C481.82 115.009 481.733 115.604 481.733 116.3V116.735C481.733 117.475 481.82 118.114 481.994 118.65C482.183 119.173 482.429 119.6 482.734 119.934C483.038 120.253 483.387 120.493 483.778 120.652C484.17 120.797 484.576 120.87 484.997 120.87C485.708 120.87 486.302 120.696 486.781 120.348C487.274 119.999 487.623 119.521 487.826 118.911H489.784C489.508 120.057 488.943 120.964 488.087 121.631C487.231 122.284 486.201 122.611 484.997 122.611ZM492.394 107.161H494.309V112.927C494.454 112.623 494.642 112.333 494.874 112.057C495.106 111.781 495.382 111.542 495.701 111.339C496.02 111.121 496.383 110.954 496.789 110.838C497.195 110.708 497.638 110.642 498.117 110.642C499.567 110.642 500.641 111.034 501.337 111.818C502.048 112.586 502.403 113.718 502.403 115.212V122.393H500.489V115.647C500.489 114.574 500.264 113.761 499.814 113.21C499.364 112.659 498.61 112.383 497.551 112.383C496.985 112.383 496.492 112.478 496.071 112.666C495.665 112.855 495.331 113.101 495.07 113.406C494.809 113.711 494.613 114.059 494.483 114.451C494.367 114.842 494.309 115.241 494.309 115.647V122.393H492.394V107.161ZM514.921 113.711V115.408L505.129 119.782V117.736L512.527 114.603L505.129 111.469V109.337L514.921 113.711Z" fill="#58A982"/>
<path d="M531.231 122.611C530.462 122.611 529.794 122.524 529.229 122.35C528.677 122.161 528.206 121.914 527.814 121.61C527.423 121.305 527.118 120.95 526.9 120.543C526.683 120.137 526.53 119.702 526.443 119.238H528.358C528.46 119.702 528.728 120.108 529.163 120.456C529.613 120.79 530.302 120.957 531.231 120.957C531.767 120.957 532.217 120.913 532.58 120.826C532.942 120.725 533.233 120.601 533.45 120.456C533.682 120.297 533.849 120.115 533.951 119.912C534.052 119.695 534.103 119.47 534.103 119.238C534.103 118.991 534.052 118.774 533.951 118.585C533.864 118.396 533.697 118.23 533.45 118.085C533.218 117.925 532.892 117.787 532.471 117.671C532.065 117.541 531.55 117.432 530.926 117.345C530.288 117.258 529.707 117.134 529.185 116.975C528.677 116.801 528.242 116.576 527.88 116.3C527.531 116.025 527.256 115.698 527.053 115.321C526.864 114.929 526.77 114.458 526.77 113.907C526.77 113.471 526.864 113.058 527.053 112.666C527.241 112.275 527.524 111.926 527.901 111.622C528.278 111.317 528.743 111.078 529.294 110.904C529.845 110.73 530.491 110.642 531.231 110.642C531.912 110.642 532.507 110.737 533.015 110.925C533.523 111.099 533.951 111.339 534.299 111.643C534.662 111.948 534.944 112.304 535.147 112.71C535.351 113.116 535.496 113.551 535.583 114.015H533.668C533.552 113.508 533.305 113.094 532.928 112.775C532.551 112.456 531.985 112.296 531.231 112.296C530.288 112.296 529.628 112.456 529.25 112.775C528.873 113.08 528.685 113.457 528.685 113.907C528.685 114.168 528.728 114.393 528.815 114.581C528.917 114.77 529.076 114.937 529.294 115.082C529.526 115.227 529.823 115.35 530.186 115.452C530.563 115.539 531.028 115.618 531.579 115.691C532.29 115.778 532.921 115.908 533.472 116.083C534.023 116.242 534.487 116.467 534.865 116.757C535.242 117.033 535.525 117.374 535.713 117.78C535.916 118.186 536.018 118.672 536.018 119.238C536.018 119.702 535.916 120.137 535.713 120.543C535.525 120.95 535.235 121.305 534.843 121.61C534.451 121.914 533.951 122.161 533.341 122.35C532.747 122.524 532.043 122.611 531.231 122.611ZM538.744 107.161H540.659V112.927C540.804 112.623 540.992 112.333 541.225 112.057C541.457 111.781 541.732 111.542 542.051 111.339C542.371 111.121 542.733 110.954 543.139 110.838C543.546 110.708 543.988 110.642 544.467 110.642C545.918 110.642 546.991 111.034 547.687 111.818C548.398 112.586 548.754 113.718 548.754 115.212V122.393H546.839V115.647C546.839 114.574 546.614 113.761 546.164 113.21C545.714 112.659 544.96 112.383 543.901 112.383C543.335 112.383 542.842 112.478 542.421 112.666C542.015 112.855 541.682 113.101 541.42 113.406C541.159 113.711 540.963 114.059 540.833 114.451C540.717 114.842 540.659 115.241 540.659 115.647V122.393H538.744V107.161ZM556.919 122.611C556.179 122.611 555.475 122.495 554.808 122.263C554.141 122.016 553.553 121.653 553.046 121.174C552.538 120.681 552.132 120.065 551.827 119.325C551.522 118.585 551.37 117.722 551.37 116.735V116.3C551.37 115.372 551.522 114.552 551.827 113.841C552.132 113.13 552.538 112.543 553.046 112.079C553.553 111.6 554.141 111.245 554.808 111.012C555.475 110.766 556.179 110.642 556.919 110.642C557.659 110.642 558.362 110.766 559.03 111.012C559.697 111.245 560.284 111.6 560.792 112.079C561.3 112.543 561.706 113.13 562.011 113.841C562.315 114.552 562.468 115.372 562.468 116.3V116.735C562.468 117.722 562.315 118.585 562.011 119.325C561.706 120.065 561.3 120.681 560.792 121.174C560.284 121.653 559.697 122.016 559.03 122.263C558.362 122.495 557.659 122.611 556.919 122.611ZM556.919 120.87C557.354 120.87 557.789 120.797 558.225 120.652C558.66 120.493 559.044 120.253 559.378 119.934C559.711 119.6 559.98 119.173 560.183 118.65C560.401 118.128 560.509 117.49 560.509 116.735V116.3C560.509 115.604 560.401 115.009 560.183 114.516C559.98 114.023 559.711 113.616 559.378 113.297C559.044 112.978 558.66 112.746 558.225 112.601C557.789 112.456 557.354 112.383 556.919 112.383C556.484 112.383 556.048 112.456 555.613 112.601C555.178 112.746 554.794 112.978 554.46 113.297C554.126 113.616 553.851 114.023 553.633 114.516C553.43 115.009 553.328 115.604 553.328 116.3V116.735C553.328 117.49 553.43 118.128 553.633 118.65C553.851 119.173 554.126 119.6 554.46 119.934C554.794 120.253 555.178 120.493 555.613 120.652C556.048 120.797 556.484 120.87 556.919 120.87ZM563.879 110.86H565.968L568.187 119.782L571.19 110.86H572.888L575.999 119.782L578.197 110.86H580.199L577.044 122.393H575.129L571.995 113.471L568.949 122.393H567.034L563.879 110.86Z" fill="#CD859B"/>
<path d="M561.147 407.823V345.97H394.01V302.474" stroke="black" stroke-width="2"/>
<path d="M620.644 110.86H622.559V122.393H620.644V110.86ZM621.602 109.337C621.225 109.337 620.913 109.214 620.666 108.967C620.419 108.72 620.296 108.408 620.296 108.031C620.296 107.654 620.419 107.342 620.666 107.096C620.913 106.849 621.225 106.726 621.602 106.726C621.979 106.726 622.291 106.849 622.537 107.096C622.784 107.342 622.907 107.654 622.907 108.031C622.907 108.408 622.784 108.72 622.537 108.967C622.291 109.214 621.979 109.337 621.602 109.337ZM626.249 110.86H628.034V113.036C628.425 112.267 628.969 111.68 629.666 111.274C630.376 110.853 631.196 110.642 632.125 110.642C633.575 110.642 634.736 111.121 635.606 112.079C636.477 113.022 636.912 114.429 636.912 116.3V116.735C636.912 117.722 636.796 118.585 636.564 119.325C636.332 120.05 636.005 120.659 635.584 121.153C635.164 121.631 634.656 121.994 634.061 122.241C633.481 122.487 632.835 122.611 632.125 122.611C631.138 122.611 630.311 122.393 629.644 121.958C628.991 121.523 628.498 120.979 628.164 120.326V126.745H626.249V110.86ZM631.689 120.913C632.154 120.913 632.589 120.826 632.995 120.652C633.401 120.464 633.749 120.195 634.039 119.847C634.344 119.499 634.576 119.064 634.736 118.541C634.91 118.019 634.997 117.417 634.997 116.735V116.3C634.997 115.676 634.91 115.118 634.736 114.625C634.576 114.131 634.344 113.718 634.039 113.384C633.749 113.036 633.401 112.775 632.995 112.601C632.589 112.427 632.154 112.34 631.689 112.34C631.167 112.34 630.688 112.427 630.253 112.601C629.818 112.76 629.448 112.993 629.143 113.297C628.839 113.587 628.599 113.936 628.425 114.342C628.251 114.748 628.164 115.183 628.164 115.647V117.388C628.164 117.91 628.251 118.389 628.425 118.824C628.599 119.26 628.839 119.63 629.143 119.934C629.448 120.239 629.818 120.478 630.253 120.652C630.688 120.826 631.167 120.913 631.689 120.913Z" fill="#E87F53"/>
<path d="M650.094 110.86H651.878V113.036C652.27 112.267 652.814 111.68 653.51 111.274C654.221 110.853 655.04 110.642 655.969 110.642C657.42 110.642 658.58 111.121 659.45 112.079C660.321 113.022 660.756 114.429 660.756 116.3V116.735C660.756 117.722 660.64 118.585 660.408 119.325C660.176 120.05 659.849 120.659 659.429 121.153C659.008 121.631 658.5 121.994 657.906 122.241C657.325 122.487 656.68 122.611 655.969 122.611C654.982 122.611 654.155 122.393 653.488 121.958C652.835 121.523 652.342 120.979 652.008 120.326V126.745H650.094V110.86ZM655.534 120.913C655.998 120.913 656.433 120.826 656.839 120.652C657.245 120.464 657.594 120.195 657.884 119.847C658.188 119.499 658.421 119.064 658.58 118.541C658.754 118.019 658.841 117.417 658.841 116.735V116.3C658.841 115.676 658.754 115.118 658.58 114.625C658.421 114.131 658.188 113.718 657.884 113.384C657.594 113.036 657.245 112.775 656.839 112.601C656.433 112.427 655.998 112.34 655.534 112.34C655.011 112.34 654.533 112.427 654.097 112.601C653.662 112.76 653.292 112.993 652.988 113.297C652.683 113.587 652.444 113.936 652.27 114.342C652.095 114.748 652.008 115.183 652.008 115.647V117.388C652.008 117.91 652.095 118.389 652.27 118.824C652.444 119.26 652.683 119.63 652.988 119.934C653.292 120.239 653.662 120.478 654.097 120.652C654.533 120.826 655.011 120.913 655.534 120.913ZM663.481 110.86H665.266V113.036C665.512 112.354 665.918 111.789 666.484 111.339C667.064 110.875 667.768 110.642 668.595 110.642C668.885 110.642 669.117 110.657 669.291 110.686C669.48 110.715 669.647 110.751 669.792 110.795V112.579C669.603 112.507 669.415 112.456 669.226 112.427C669.052 112.398 668.805 112.383 668.486 112.383C668.051 112.383 667.645 112.463 667.268 112.623C666.89 112.782 666.564 113.007 666.288 113.297C666.013 113.573 665.795 113.914 665.636 114.32C665.476 114.726 665.396 115.169 665.396 115.647V122.393H663.481V110.86ZM676.535 122.611C675.795 122.611 675.091 122.495 674.424 122.263C673.757 122.016 673.169 121.653 672.662 121.174C672.154 120.681 671.748 120.065 671.443 119.325C671.138 118.585 670.986 117.722 670.986 116.735V116.3C670.986 115.372 671.138 114.552 671.443 113.841C671.748 113.13 672.154 112.543 672.662 112.079C673.169 111.6 673.757 111.245 674.424 111.012C675.091 110.766 675.795 110.642 676.535 110.642C677.275 110.642 677.978 110.766 678.646 111.012C679.313 111.245 679.901 111.6 680.408 112.079C680.916 112.543 681.322 113.13 681.627 113.841C681.931 114.552 682.084 115.372 682.084 116.3V116.735C682.084 117.722 681.931 118.585 681.627 119.325C681.322 120.065 680.916 120.681 680.408 121.174C679.901 121.653 679.313 122.016 678.646 122.263C677.978 122.495 677.275 122.611 676.535 122.611ZM676.535 120.87C676.97 120.87 677.405 120.797 677.841 120.652C678.276 120.493 678.66 120.253 678.994 119.934C679.327 119.6 679.596 119.173 679.799 118.65C680.017 118.128 680.125 117.49 680.125 116.735V116.3C680.125 115.604 680.017 115.009 679.799 114.516C679.596 114.023 679.327 113.616 678.994 113.297C678.66 112.978 678.276 112.746 677.841 112.601C677.405 112.456 676.97 112.383 676.535 112.383C676.1 112.383 675.665 112.456 675.229 112.601C674.794 112.746 674.41 112.978 674.076 113.297C673.742 113.616 673.467 114.023 673.249 114.516C673.046 115.009 672.944 115.604 672.944 116.3V116.735C672.944 117.49 673.046 118.128 673.249 118.65C673.467 119.173 673.742 119.6 674.076 119.934C674.41 120.253 674.794 120.493 675.229 120.652C675.665 120.797 676.1 120.87 676.535 120.87ZM689.039 122.502C687.806 122.502 686.913 122.226 686.362 121.675C685.825 121.109 685.557 120.261 685.557 119.129V112.557H683.816V110.86H685.557V108.249H687.472V110.86H690.562V112.557H687.472V118.911C687.472 119.564 687.61 120.036 687.885 120.326C688.161 120.616 688.69 120.761 689.474 120.761C689.909 120.761 690.344 120.739 690.779 120.696V122.393C690.504 122.422 690.228 122.444 689.953 122.458C689.677 122.487 689.372 122.502 689.039 122.502ZM698.295 122.611C697.555 122.611 696.852 122.495 696.185 122.263C695.517 122.016 694.93 121.653 694.422 121.174C693.914 120.681 693.508 120.065 693.203 119.325C692.899 118.585 692.746 117.722 692.746 116.735V116.3C692.746 115.372 692.899 114.552 693.203 113.841C693.508 113.13 693.914 112.543 694.422 112.079C694.93 111.6 695.517 111.245 696.185 111.012C696.852 110.766 697.555 110.642 698.295 110.642C699.035 110.642 699.739 110.766 700.406 111.012C701.073 111.245 701.661 111.6 702.169 112.079C702.676 112.543 703.083 113.13 703.387 113.841C703.692 114.552 703.844 115.372 703.844 116.3V116.735C703.844 117.722 703.692 118.585 703.387 119.325C703.083 120.065 702.676 120.681 702.169 121.174C701.661 121.653 701.073 122.016 700.406 122.263C699.739 122.495 699.035 122.611 698.295 122.611ZM698.295 120.87C698.73 120.87 699.166 120.797 699.601 120.652C700.036 120.493 700.421 120.253 700.754 119.934C701.088 119.6 701.356 119.173 701.559 118.65C701.777 118.128 701.886 117.49 701.886 116.735V116.3C701.886 115.604 701.777 115.009 701.559 114.516C701.356 114.023 701.088 113.616 700.754 113.297C700.421 112.978 700.036 112.746 699.601 112.601C699.166 112.456 698.73 112.383 698.295 112.383C697.86 112.383 697.425 112.456 696.99 112.601C696.554 112.746 696.17 112.978 695.836 113.297C695.503 113.616 695.227 114.023 695.009 114.516C694.806 115.009 694.705 115.604 694.705 116.3V116.735C694.705 117.49 694.806 118.128 695.009 118.65C695.227 119.173 695.503 119.6 695.836 119.934C696.17 120.253 696.554 120.493 696.99 120.652C697.425 120.797 697.86 120.87 698.295 120.87ZM711.017 122.611C710.277 122.611 709.588 122.495 708.949 122.263C708.311 122.016 707.76 121.653 707.296 121.174C706.831 120.681 706.461 120.065 706.186 119.325C705.925 118.585 705.794 117.722 705.794 116.735V116.3C705.794 115.372 705.939 114.552 706.229 113.841C706.519 113.13 706.904 112.543 707.383 112.079C707.861 111.6 708.413 111.245 709.036 111.012C709.675 110.766 710.335 110.642 711.017 110.642C711.698 110.642 712.308 110.737 712.844 110.925C713.396 111.114 713.867 111.375 714.259 111.709C714.665 112.042 714.991 112.434 715.238 112.884C715.499 113.334 715.688 113.819 715.804 114.342H713.845C713.729 114.066 713.592 113.812 713.432 113.58C713.287 113.334 713.098 113.123 712.866 112.949C712.649 112.775 712.387 112.637 712.083 112.536C711.778 112.434 711.423 112.383 711.017 112.383C710.596 112.383 710.19 112.463 709.798 112.623C709.406 112.768 709.058 113 708.753 113.319C708.449 113.624 708.202 114.023 708.014 114.516C707.84 115.009 707.753 115.604 707.753 116.3V116.735C707.753 117.475 707.84 118.114 708.014 118.65C708.202 119.173 708.449 119.6 708.753 119.934C709.058 120.253 709.406 120.493 709.798 120.652C710.19 120.797 710.596 120.87 711.017 120.87C711.727 120.87 712.322 120.696 712.801 120.348C713.294 119.999 713.642 119.521 713.845 118.911H715.804C715.528 120.057 714.962 120.964 714.107 121.631C713.251 122.284 712.221 122.611 711.017 122.611ZM723.201 122.611C722.461 122.611 721.757 122.495 721.09 122.263C720.423 122.016 719.835 121.653 719.327 121.174C718.82 120.681 718.413 120.065 718.109 119.325C717.804 118.585 717.652 117.722 717.652 116.735V116.3C717.652 115.372 717.804 114.552 718.109 113.841C718.413 113.13 718.82 112.543 719.327 112.079C719.835 111.6 720.423 111.245 721.09 111.012C721.757 110.766 722.461 110.642 723.201 110.642C723.941 110.642 724.644 110.766 725.311 111.012C725.979 111.245 726.566 111.6 727.074 112.079C727.582 112.543 727.988 113.13 728.293 113.841C728.597 114.552 728.75 115.372 728.75 116.3V116.735C728.75 117.722 728.597 118.585 728.293 119.325C727.988 120.065 727.582 120.681 727.074 121.174C726.566 121.653 725.979 122.016 725.311 122.263C724.644 122.495 723.941 122.611 723.201 122.611ZM723.201 120.87C723.636 120.87 724.071 120.797 724.506 120.652C724.941 120.493 725.326 120.253 725.66 119.934C725.993 119.6 726.262 119.173 726.465 118.65C726.682 118.128 726.791 117.49 726.791 116.735V116.3C726.791 115.604 726.682 115.009 726.465 114.516C726.262 114.023 725.993 113.616 725.66 113.297C725.326 112.978 724.941 112.746 724.506 112.601C724.071 112.456 723.636 112.383 723.201 112.383C722.765 112.383 722.33 112.456 721.895 112.601C721.46 112.746 721.075 112.978 720.742 113.297C720.408 113.616 720.132 114.023 719.915 114.516C719.712 115.009 719.61 115.604 719.61 116.3V116.735C719.61 117.49 719.712 118.128 719.915 118.65C720.132 119.173 720.408 119.6 720.742 119.934C721.075 120.253 721.46 120.493 721.895 120.652C722.33 120.797 722.765 120.87 723.201 120.87ZM734.943 122.502C733.739 122.502 732.876 122.212 732.353 121.631C731.831 121.051 731.57 120.108 731.57 118.803V107.161H733.485V118.803C733.485 119.557 733.608 120.072 733.855 120.348C734.101 120.623 734.537 120.761 735.16 120.761C735.32 120.761 735.458 120.761 735.574 120.761C735.69 120.747 735.806 120.732 735.922 120.718V122.415C735.806 122.444 735.639 122.466 735.421 122.48C735.218 122.495 735.059 122.502 734.943 122.502ZM742.457 122.611C741.688 122.611 741.021 122.524 740.455 122.35C739.904 122.161 739.432 121.914 739.041 121.61C738.649 121.305 738.344 120.95 738.127 120.543C737.909 120.137 737.757 119.702 737.67 119.238H739.585C739.686 119.702 739.954 120.108 740.39 120.456C740.839 120.79 741.528 120.957 742.457 120.957C742.994 120.957 743.443 120.913 743.806 120.826C744.169 120.725 744.459 120.601 744.676 120.456C744.909 120.297 745.075 120.115 745.177 119.912C745.278 119.695 745.329 119.47 745.329 119.238C745.329 118.991 745.278 118.774 745.177 118.585C745.09 118.396 744.923 118.23 744.676 118.085C744.444 117.925 744.118 117.787 743.697 117.671C743.291 117.541 742.776 117.432 742.152 117.345C741.514 117.258 740.934 117.134 740.411 116.975C739.904 116.801 739.468 116.576 739.106 116.3C738.758 116.025 738.482 115.698 738.279 115.321C738.09 114.929 737.996 114.458 737.996 113.907C737.996 113.471 738.09 113.058 738.279 112.666C738.467 112.275 738.75 111.926 739.128 111.622C739.505 111.317 739.969 111.078 740.52 110.904C741.071 110.73 741.717 110.642 742.457 110.642C743.139 110.642 743.733 110.737 744.241 110.925C744.749 111.099 745.177 111.339 745.525 111.643C745.888 111.948 746.171 112.304 746.374 112.71C746.577 113.116 746.722 113.551 746.809 114.015H744.894C744.778 113.508 744.531 113.094 744.154 112.775C743.777 112.456 743.211 112.296 742.457 112.296C741.514 112.296 740.854 112.456 740.477 112.775C740.1 113.08 739.911 113.457 739.911 113.907C739.911 114.168 739.954 114.393 740.041 114.581C740.143 114.77 740.303 114.937 740.52 115.082C740.752 115.227 741.05 115.35 741.412 115.452C741.79 115.539 742.254 115.618 742.805 115.691C743.516 115.778 744.147 115.908 744.698 116.083C745.249 116.242 745.714 116.467 746.091 116.757C746.468 117.033 746.751 117.374 746.94 117.78C747.143 118.186 747.244 118.672 747.244 119.238C747.244 119.702 747.143 120.137 746.94 120.543C746.751 120.95 746.461 121.305 746.069 121.61C745.677 121.914 745.177 122.161 744.568 122.35C743.973 122.524 743.269 122.611 742.457 122.611Z" fill="#E87F53"/>
<path d="M596.375 301L596.375 345.146L596.375 345.146L596.375 408" stroke="black" stroke-width="2"/>
<rect x="81.125" y="236.5" width="186" height="64" fill="#DBEEE5"/>
<path d="M102.801 261.768H114.769V277H112.724V263.552H104.847V277H102.801V261.768ZM118.686 265.467H120.47V267.643C120.862 266.874 121.406 266.287 122.102 265.88C122.813 265.46 123.633 265.249 124.561 265.249C126.012 265.249 127.173 265.728 128.043 266.686C128.913 267.629 129.349 269.036 129.349 270.907V271.342C129.349 272.329 129.233 273.192 129 273.932C128.768 274.657 128.442 275.266 128.021 275.76C127.601 276.238 127.093 276.601 126.498 276.848C125.918 277.094 125.272 277.218 124.561 277.218C123.575 277.218 122.748 277 122.081 276.565C121.428 276.13 120.935 275.586 120.601 274.933V281.352H118.686V265.467ZM124.126 275.52C124.59 275.52 125.026 275.433 125.432 275.259C125.838 275.071 126.186 274.802 126.476 274.454C126.781 274.106 127.013 273.671 127.173 273.148C127.347 272.626 127.434 272.024 127.434 271.342V270.907C127.434 270.283 127.347 269.725 127.173 269.232C127.013 268.738 126.781 268.325 126.476 267.991C126.186 267.643 125.838 267.382 125.432 267.208C125.026 267.034 124.59 266.947 124.126 266.947C123.604 266.947 123.125 267.034 122.69 267.208C122.255 267.367 121.885 267.6 121.58 267.904C121.276 268.194 121.036 268.542 120.862 268.949C120.688 269.355 120.601 269.79 120.601 270.254V271.995C120.601 272.517 120.688 272.996 120.862 273.431C121.036 273.867 121.276 274.236 121.58 274.541C121.885 274.846 122.255 275.085 122.69 275.259C123.125 275.433 123.604 275.52 124.126 275.52ZM132.074 265.467H133.989V274.171L139.951 265.467H141.866V277H139.951V268.296L133.989 277H132.074V265.467ZM145.355 265.467H153.189V267.164H147.27V277H145.355V265.467ZM153.949 277.218C153.731 277.218 153.514 277.196 153.296 277.152V275.237C153.369 275.252 153.477 275.259 153.623 275.259C153.942 275.259 154.217 275.158 154.449 274.955C154.696 274.751 154.892 274.396 155.037 273.888C155.182 273.381 155.291 272.691 155.363 271.821C155.436 270.951 155.472 269.848 155.472 268.513V265.467H163.741V277H161.826V267.164H157.387V268.949C157.387 270.559 157.315 271.894 157.169 272.953C157.024 274.012 156.807 274.86 156.517 275.499C156.241 276.122 155.886 276.565 155.45 276.826C155.015 277.087 154.515 277.218 153.949 277.218ZM170.508 277.218C169.869 277.218 169.304 277.131 168.81 276.956C168.332 276.768 167.925 276.514 167.592 276.195C167.258 275.876 167.004 275.499 166.83 275.063C166.656 274.628 166.569 274.149 166.569 273.627C166.569 272.481 166.903 271.654 167.57 271.146C168.252 270.639 169.224 270.385 170.486 270.385H174.229V269.601C174.229 268.615 174.004 267.933 173.554 267.556C173.119 267.179 172.459 266.99 171.574 266.99C170.747 266.99 170.145 267.15 169.768 267.469C169.391 267.774 169.18 268.122 169.137 268.513H167.222C167.251 268.049 167.374 267.621 167.592 267.23C167.824 266.823 168.129 266.475 168.506 266.185C168.897 265.895 169.362 265.67 169.898 265.511C170.435 265.336 171.03 265.249 171.683 265.249C173.046 265.249 174.127 265.576 174.925 266.229C175.737 266.867 176.144 267.919 176.144 269.384V274.062C176.144 274.672 176.144 275.208 176.144 275.673C176.158 276.122 176.194 276.565 176.252 277H174.577C174.533 276.666 174.504 276.354 174.49 276.064C174.475 275.76 174.468 275.419 174.468 275.042C174.163 275.651 173.67 276.166 172.988 276.587C172.307 277.007 171.48 277.218 170.508 277.218ZM170.921 275.477C171.371 275.477 171.792 275.419 172.183 275.303C172.589 275.172 172.945 274.991 173.249 274.759C173.554 274.512 173.793 274.215 173.968 273.867C174.142 273.518 174.229 273.112 174.229 272.648V271.865H170.812C170.101 271.865 169.543 272.01 169.137 272.3C168.731 272.575 168.527 273.018 168.527 273.627C168.527 274.164 168.716 274.606 169.093 274.955C169.485 275.303 170.094 275.477 170.921 275.477ZM179.526 265.467H181.441V275.303H185.64V265.467H187.555V275.303H191.755V265.467H193.67V277H179.526V265.467ZM201.93 277.218C201.19 277.218 200.486 277.102 199.819 276.869C199.152 276.637 198.564 276.282 198.056 275.803C197.549 275.31 197.142 274.693 196.838 273.954C196.533 273.214 196.381 272.343 196.381 271.342V270.907C196.381 269.95 196.526 269.123 196.816 268.426C197.106 267.716 197.491 267.128 197.969 266.664C198.462 266.185 199.028 265.83 199.667 265.598C200.319 265.365 201.001 265.249 201.712 265.249C203.409 265.249 204.722 265.714 205.651 266.642C206.579 267.571 207.043 268.883 207.043 270.581V271.799H198.296C198.296 272.481 198.404 273.054 198.622 273.518C198.84 273.983 199.123 274.36 199.471 274.65C199.819 274.94 200.203 275.15 200.624 275.281C201.059 275.411 201.494 275.477 201.93 275.477C202.8 275.477 203.467 275.332 203.932 275.042C204.41 274.751 204.751 274.352 204.954 273.845H206.826C206.71 274.396 206.499 274.882 206.195 275.303C205.905 275.723 205.542 276.079 205.107 276.369C204.686 276.645 204.2 276.855 203.649 277C203.112 277.145 202.539 277.218 201.93 277.218ZM201.821 266.99C201.371 266.99 200.936 267.056 200.515 267.186C200.095 267.302 199.717 267.498 199.384 267.774C199.065 268.035 198.803 268.368 198.6 268.775C198.397 269.181 198.296 269.667 198.296 270.233H205.237C205.223 269.638 205.121 269.137 204.933 268.731C204.758 268.31 204.519 267.977 204.214 267.73C203.91 267.469 203.547 267.28 203.126 267.164C202.72 267.048 202.285 266.99 201.821 266.99ZM209.765 265.467H211.68V270.276H217.642V265.467H219.557V277H217.642V271.973H211.68V277H209.765V265.467ZM223.047 265.467H224.961V274.171L230.924 265.467H232.839V277H230.924V268.296L224.961 277H223.047V265.467ZM241.115 277.218C240.375 277.218 239.672 277.102 239.005 276.869C238.337 276.637 237.75 276.282 237.242 275.803C236.734 275.31 236.328 274.693 236.023 273.954C235.719 273.214 235.566 272.343 235.566 271.342V270.907C235.566 269.95 235.711 269.123 236.002 268.426C236.292 267.716 236.676 267.128 237.155 266.664C237.648 266.185 238.214 265.83 238.852 265.598C239.505 265.365 240.187 265.249 240.898 265.249C242.595 265.249 243.908 265.714 244.836 266.642C245.765 267.571 246.229 268.883 246.229 270.581V271.799H237.481C237.481 272.481 237.59 273.054 237.808 273.518C238.025 273.983 238.308 274.36 238.656 274.65C239.005 274.94 239.389 275.15 239.81 275.281C240.245 275.411 240.68 275.477 241.115 275.477C241.986 275.477 242.653 275.332 243.117 275.042C243.596 274.751 243.937 274.352 244.14 273.845H246.011C245.895 274.396 245.685 274.882 245.38 275.303C245.09 275.723 244.727 276.079 244.292 276.369C243.872 276.645 243.386 276.855 242.834 277C242.298 277.145 241.725 277.218 241.115 277.218ZM241.006 266.99C240.557 266.99 240.122 267.056 239.701 267.186C239.28 267.302 238.903 267.498 238.569 267.774C238.25 268.035 237.989 268.368 237.786 268.775C237.583 269.181 237.481 269.667 237.481 270.233H244.423C244.408 269.638 244.307 269.137 244.118 268.731C243.944 268.31 243.705 267.977 243.4 267.73C243.095 267.469 242.733 267.28 242.312 267.164C241.906 267.048 241.471 266.99 241.006 266.99Z" fill="black"/>
<rect x="81.125" y="236.5" width="186" height="64" stroke="#58A982"/>
<path d="M691.589 407.823V369.227H934.375V302.474" stroke="black" stroke-width="2"/>
<rect x="323.625" y="237.973" width="134" height="64" fill="#FAEEEE"/>
<path d="M345.402 263.241H347.448V269.791H349.188L355.151 263.241H357.588L350.929 270.509L357.806 278.473H355.194L349.188 271.488H347.448V278.473H345.402V263.241ZM364.566 278.691C363.826 278.691 363.122 278.575 362.455 278.343C361.788 278.096 361.2 277.733 360.692 277.255C360.185 276.761 359.778 276.145 359.474 275.405C359.169 274.665 359.017 273.802 359.017 272.815V272.38C359.017 271.452 359.169 270.632 359.474 269.921C359.778 269.21 360.185 268.623 360.692 268.159C361.2 267.68 361.788 267.325 362.455 267.092C363.122 266.846 363.826 266.723 364.566 266.723C365.306 266.723 366.009 266.846 366.676 267.092C367.344 267.325 367.931 267.68 368.439 268.159C368.947 268.623 369.353 269.21 369.658 269.921C369.962 270.632 370.115 271.452 370.115 272.38V272.815C370.115 273.802 369.962 274.665 369.658 275.405C369.353 276.145 368.947 276.761 368.439 277.255C367.931 277.733 367.344 278.096 366.676 278.343C366.009 278.575 365.306 278.691 364.566 278.691ZM364.566 276.95C365.001 276.95 365.436 276.877 365.871 276.732C366.307 276.573 366.691 276.333 367.025 276.014C367.358 275.681 367.627 275.253 367.83 274.73C368.047 274.208 368.156 273.57 368.156 272.815V272.38C368.156 271.684 368.047 271.089 367.83 270.596C367.627 270.103 367.358 269.696 367.025 269.377C366.691 269.058 366.307 268.826 365.871 268.681C365.436 268.536 365.001 268.463 364.566 268.463C364.13 268.463 363.695 268.536 363.26 268.681C362.825 268.826 362.44 269.058 362.107 269.377C361.773 269.696 361.497 270.103 361.28 270.596C361.077 271.089 360.975 271.684 360.975 272.38V272.815C360.975 273.57 361.077 274.208 361.28 274.73C361.497 275.253 361.773 275.681 362.107 276.014C362.44 276.333 362.825 276.573 363.26 276.732C363.695 276.877 364.13 276.95 364.566 276.95ZM372.826 266.94H374.872L378.984 274.121L383.097 266.94H385.012V278.473H383.097V270.095L379.681 275.971H378.157L374.741 270.095V278.473H372.826V266.94ZM391.773 278.691C391.135 278.691 390.569 278.604 390.076 278.43C389.597 278.241 389.191 277.987 388.858 277.668C388.524 277.349 388.27 276.972 388.096 276.536C387.922 276.101 387.835 275.623 387.835 275.1C387.835 273.954 388.168 273.127 388.836 272.62C389.518 272.112 390.49 271.858 391.752 271.858H395.494V271.075C395.494 270.088 395.27 269.406 394.82 269.029C394.385 268.652 393.725 268.463 392.84 268.463C392.013 268.463 391.411 268.623 391.034 268.942C390.656 269.247 390.446 269.595 390.403 269.987H388.488C388.517 269.522 388.64 269.094 388.858 268.703C389.09 268.297 389.394 267.948 389.771 267.658C390.163 267.368 390.627 267.143 391.164 266.984C391.701 266.81 392.296 266.723 392.949 266.723C394.312 266.723 395.393 267.049 396.191 267.702C397.003 268.34 397.409 269.392 397.409 270.857V275.535C397.409 276.145 397.409 276.682 397.409 277.146C397.424 277.595 397.46 278.038 397.518 278.473H395.843C395.799 278.139 395.77 277.828 395.756 277.537C395.741 277.233 395.734 276.892 395.734 276.515C395.429 277.124 394.936 277.639 394.254 278.06C393.572 278.48 392.745 278.691 391.773 278.691ZM392.187 276.95C392.637 276.95 393.057 276.892 393.449 276.776C393.855 276.645 394.211 276.464 394.515 276.232C394.82 275.985 395.059 275.688 395.233 275.34C395.407 274.991 395.494 274.585 395.494 274.121V273.338H392.078C391.367 273.338 390.809 273.483 390.403 273.773C389.996 274.049 389.793 274.491 389.793 275.1C389.793 275.637 389.982 276.08 390.359 276.428C390.751 276.776 391.36 276.95 392.187 276.95ZM400.792 266.94H402.706V271.749H408.669V266.94H410.584V278.473H408.669V273.447H402.706V278.473H400.792V266.94ZM412.767 276.776H414.182C414.341 276.558 414.486 276.225 414.617 275.775C414.748 275.325 414.864 274.796 414.965 274.186C415.067 273.577 415.139 272.917 415.183 272.206C415.241 271.481 415.27 270.741 415.27 269.987V266.94H423.321V276.776H424.953V281.193H423.125V278.473H414.595V281.193H412.767V276.776ZM421.406 276.776V268.637H417.141V270.422C417.141 271.031 417.119 271.64 417.076 272.25C417.032 272.844 416.967 273.417 416.88 273.969C416.793 274.506 416.684 275.021 416.554 275.514C416.438 275.992 416.3 276.413 416.14 276.776H421.406ZM430.747 278.691C430.108 278.691 429.543 278.604 429.049 278.43C428.571 278.241 428.164 277.987 427.831 277.668C427.497 277.349 427.243 276.972 427.069 276.536C426.895 276.101 426.808 275.623 426.808 275.1C426.808 273.954 427.142 273.127 427.809 272.62C428.491 272.112 429.463 271.858 430.725 271.858H434.468V271.075C434.468 270.088 434.243 269.406 433.793 269.029C433.358 268.652 432.698 268.463 431.813 268.463C430.986 268.463 430.384 268.623 430.007 268.942C429.63 269.247 429.419 269.595 429.376 269.987H427.461C427.49 269.522 427.613 269.094 427.831 268.703C428.063 268.297 428.367 267.948 428.745 267.658C429.136 267.368 429.601 267.143 430.137 266.984C430.674 266.81 431.269 266.723 431.922 266.723C433.285 266.723 434.366 267.049 435.164 267.702C435.976 268.34 436.383 269.392 436.383 270.857V275.535C436.383 276.145 436.383 276.682 436.383 277.146C436.397 277.595 436.433 278.038 436.491 278.473H434.816C434.772 278.139 434.743 277.828 434.729 277.537C434.714 277.233 434.707 276.892 434.707 276.515C434.402 277.124 433.909 277.639 433.227 278.06C432.545 278.48 431.719 278.691 430.747 278.691ZM431.16 276.95C431.61 276.95 432.03 276.892 432.422 276.776C432.828 276.645 433.184 276.464 433.488 276.232C433.793 275.985 434.032 275.688 434.206 275.34C434.381 274.991 434.468 274.585 434.468 274.121V273.338H431.051C430.34 273.338 429.782 273.483 429.376 273.773C428.969 274.049 428.766 274.491 428.766 275.1C428.766 275.637 428.955 276.08 429.332 276.428C429.724 276.776 430.333 276.95 431.16 276.95Z" fill="black"/>
<rect x="323.625" y="237.973" width="134" height="64" stroke="#E6B9B7"/>
<rect x="534.875" y="237.5" width="120" height="64" fill="#DAEBFB"/>
<path d="M556.633 262.768H568.601V278H566.556V264.552H558.678V278H556.633V262.768ZM572.518 266.467H574.302V268.643C574.694 267.874 575.238 267.287 575.934 266.88C576.645 266.46 577.465 266.249 578.393 266.249C579.844 266.249 581.004 266.728 581.875 267.686C582.745 268.629 583.181 270.036 583.181 271.907V272.342C583.181 273.329 583.064 274.192 582.832 274.932C582.6 275.657 582.274 276.266 581.853 276.76C581.432 277.238 580.925 277.601 580.33 277.848C579.75 278.094 579.104 278.218 578.393 278.218C577.407 278.218 576.58 278 575.913 277.565C575.26 277.13 574.767 276.586 574.433 275.933V282.352H572.518V266.467ZM577.958 276.52C578.422 276.52 578.857 276.433 579.264 276.259C579.67 276.071 580.018 275.802 580.308 275.454C580.613 275.106 580.845 274.671 581.004 274.148C581.179 273.626 581.266 273.024 581.266 272.342V271.907C581.266 271.283 581.179 270.725 581.004 270.232C580.845 269.738 580.613 269.325 580.308 268.991C580.018 268.643 579.67 268.382 579.264 268.208C578.857 268.034 578.422 267.947 577.958 267.947C577.436 267.947 576.957 268.034 576.522 268.208C576.087 268.367 575.717 268.6 575.412 268.904C575.107 269.194 574.868 269.542 574.694 269.949C574.52 270.355 574.433 270.79 574.433 271.254V272.995C574.433 273.517 574.52 273.996 574.694 274.431C574.868 274.867 575.107 275.236 575.412 275.541C575.717 275.846 576.087 276.085 576.522 276.259C576.957 276.433 577.436 276.52 577.958 276.52ZM590.693 278.218C589.953 278.218 589.249 278.102 588.582 277.869C587.915 277.623 587.327 277.26 586.82 276.781C586.312 276.288 585.906 275.672 585.601 274.932C585.296 274.192 585.144 273.329 585.144 272.342V271.907C585.144 270.979 585.296 270.159 585.601 269.448C585.906 268.737 586.312 268.15 586.82 267.686C587.327 267.207 587.915 266.851 588.582 266.619C589.249 266.373 589.953 266.249 590.693 266.249C591.433 266.249 592.136 266.373 592.804 266.619C593.471 266.851 594.059 267.207 594.566 267.686C595.074 268.15 595.48 268.737 595.785 269.448C596.09 270.159 596.242 270.979 596.242 271.907V272.342C596.242 273.329 596.09 274.192 595.785 274.932C595.48 275.672 595.074 276.288 594.566 276.781C594.059 277.26 593.471 277.623 592.804 277.869C592.136 278.102 591.433 278.218 590.693 278.218ZM590.693 276.477C591.128 276.477 591.563 276.404 591.999 276.259C592.434 276.1 592.818 275.86 593.152 275.541C593.486 275.207 593.754 274.779 593.957 274.257C594.175 273.735 594.283 273.097 594.283 272.342V271.907C594.283 271.211 594.175 270.616 593.957 270.123C593.754 269.63 593.486 269.223 593.152 268.904C592.818 268.585 592.434 268.353 591.999 268.208C591.563 268.063 591.128 267.99 590.693 267.99C590.258 267.99 589.823 268.063 589.387 268.208C588.952 268.353 588.568 268.585 588.234 268.904C587.9 269.223 587.625 269.63 587.407 270.123C587.204 270.616 587.102 271.211 587.102 271.907V272.342C587.102 273.097 587.204 273.735 587.407 274.257C587.625 274.779 587.9 275.207 588.234 275.541C588.568 275.86 588.952 276.1 589.387 276.259C589.823 276.404 590.258 276.477 590.693 276.477ZM603.741 278.218C602.972 278.218 602.254 278.073 601.586 277.782C600.934 277.492 600.361 277.072 599.867 276.52C599.389 275.955 599.004 275.265 598.714 274.453C598.438 273.641 598.301 272.719 598.301 271.689V271.254C598.301 269.949 598.395 268.788 598.583 267.773C598.772 266.743 599.091 265.872 599.541 265.161C600.005 264.436 600.607 263.87 601.347 263.464C602.101 263.058 603.044 262.826 604.176 262.768C605.09 262.724 605.888 262.688 606.569 262.659C607.251 262.615 607.832 262.47 608.31 262.224V264.073C608.078 264.204 607.65 264.305 607.026 264.378C606.417 264.451 605.576 264.501 604.502 264.53C603.806 264.545 603.189 264.632 602.653 264.791C602.13 264.951 601.681 265.205 601.303 265.553C600.941 265.901 600.651 266.358 600.433 266.924C600.23 267.475 600.099 268.157 600.041 268.969C600.39 268.201 600.926 267.591 601.652 267.142C602.377 266.692 603.218 266.467 604.176 266.467C604.916 266.467 605.59 266.598 606.2 266.859C606.809 267.105 607.331 267.461 607.766 267.925C608.216 268.389 608.564 268.962 608.811 269.644C609.057 270.311 609.181 271.066 609.181 271.907V272.342C609.181 273.242 609.043 274.054 608.767 274.779C608.492 275.49 608.114 276.107 607.636 276.629C607.157 277.137 606.584 277.529 605.917 277.804C605.249 278.08 604.524 278.218 603.741 278.218ZM603.741 276.477C604.756 276.477 605.59 276.129 606.243 275.432C606.896 274.721 607.222 273.691 607.222 272.342V271.907C607.222 271.341 607.135 270.834 606.961 270.384C606.787 269.934 606.548 269.55 606.243 269.231C605.938 268.897 605.569 268.643 605.133 268.469C604.713 268.295 604.248 268.208 603.741 268.208C603.233 268.208 602.761 268.295 602.326 268.469C601.906 268.643 601.543 268.897 601.238 269.231C600.934 269.55 600.694 269.934 600.52 270.384C600.346 270.834 600.259 271.341 600.259 271.907V272.342C600.259 272.981 600.346 273.561 600.52 274.083C600.709 274.591 600.963 275.026 601.282 275.389C601.601 275.737 601.971 276.005 602.392 276.194C602.812 276.382 603.262 276.477 603.741 276.477ZM616.682 278.218C615.942 278.218 615.239 278.102 614.571 277.869C613.904 277.637 613.316 277.282 612.809 276.803C612.301 276.31 611.895 275.693 611.59 274.954C611.286 274.214 611.133 273.343 611.133 272.342V271.907C611.133 270.95 611.278 270.123 611.568 269.426C611.859 268.716 612.243 268.128 612.722 267.664C613.215 267.185 613.781 266.83 614.419 266.598C615.072 266.365 615.754 266.249 616.464 266.249C618.162 266.249 619.475 266.714 620.403 267.642C621.332 268.571 621.796 269.883 621.796 271.581V272.799H613.048C613.048 273.481 613.157 274.054 613.375 274.518C613.592 274.983 613.875 275.36 614.223 275.65C614.571 275.94 614.956 276.15 615.376 276.281C615.812 276.411 616.247 276.477 616.682 276.477C617.553 276.477 618.22 276.332 618.684 276.042C619.163 275.751 619.504 275.352 619.707 274.845H621.578C621.462 275.396 621.252 275.882 620.947 276.303C620.657 276.723 620.294 277.079 619.859 277.369C619.438 277.645 618.952 277.855 618.401 278C617.864 278.145 617.291 278.218 616.682 278.218ZM616.573 267.99C616.124 267.99 615.688 268.056 615.268 268.186C614.847 268.302 614.47 268.498 614.136 268.774C613.817 269.035 613.556 269.368 613.353 269.775C613.15 270.181 613.048 270.667 613.048 271.233H619.99C619.975 270.638 619.874 270.137 619.685 269.731C619.511 269.31 619.272 268.977 618.967 268.73C618.662 268.469 618.3 268.28 617.879 268.164C617.473 268.048 617.038 267.99 616.573 267.99ZM623.761 278.218C623.543 278.218 623.326 278.196 623.108 278.152V276.237C623.181 276.252 623.29 276.259 623.435 276.259C623.754 276.259 624.029 276.158 624.262 275.955C624.508 275.751 624.704 275.396 624.849 274.888C624.994 274.381 625.103 273.691 625.175 272.821C625.248 271.951 625.284 270.848 625.284 269.513V266.467H633.553V278H631.638V268.164H627.199V269.949C627.199 271.559 627.127 272.894 626.982 273.953C626.836 275.012 626.619 275.86 626.329 276.499C626.053 277.122 625.698 277.565 625.262 277.826C624.827 278.087 624.327 278.218 623.761 278.218Z" fill="black"/>
<rect x="534.875" y="237.5" width="120" height="64" stroke="#4C89BE"/>
<rect x="735.875" y="236.5" width="384" height="64" fill="#FCE0D2"/>
<path d="M757.753 261.768H759.799V268.318H761.54L767.502 261.768H769.939L763.28 269.036L770.157 277H767.545L761.54 270.015H759.799V277H757.753V261.768ZM772.436 277.218C772.218 277.218 772 277.196 771.783 277.152V275.237C771.855 275.252 771.964 275.259 772.109 275.259C772.428 275.259 772.704 275.158 772.936 274.955C773.183 274.751 773.379 274.396 773.524 273.888C773.669 273.381 773.777 272.691 773.85 271.821C773.923 270.951 773.959 269.848 773.959 268.513V265.467H782.228V277H780.313V267.164H775.874V268.949C775.874 270.559 775.801 271.894 775.656 272.953C775.511 274.012 775.293 274.86 775.003 275.499C774.728 276.122 774.372 276.565 773.937 276.826C773.502 277.087 773.001 277.218 772.436 277.218ZM785.709 265.467H787.623V270.276H789.255C789.313 269.449 789.495 268.724 789.799 268.1C790.104 267.462 790.489 266.932 790.953 266.512C791.431 266.091 791.976 265.779 792.585 265.576C793.194 265.358 793.84 265.249 794.521 265.249C795.261 265.249 795.95 265.373 796.589 265.619C797.242 265.851 797.807 266.207 798.286 266.686C798.765 267.15 799.142 267.737 799.418 268.448C799.708 269.159 799.853 269.979 799.853 270.907V271.342C799.853 272.329 799.708 273.192 799.418 273.932C799.142 274.672 798.765 275.288 798.286 275.781C797.807 276.26 797.242 276.623 796.589 276.869C795.95 277.102 795.261 277.218 794.521 277.218C793.84 277.218 793.187 277.116 792.563 276.913C791.954 276.695 791.41 276.369 790.931 275.934C790.467 275.499 790.082 274.955 789.778 274.302C789.488 273.634 789.313 272.858 789.255 271.973H787.623V277H785.709V265.467ZM794.521 275.477C794.957 275.477 795.377 275.404 795.784 275.259C796.19 275.1 796.545 274.86 796.85 274.541C797.169 274.207 797.423 273.779 797.611 273.257C797.8 272.735 797.894 272.097 797.894 271.342V270.907C797.894 270.211 797.8 269.616 797.611 269.123C797.423 268.63 797.169 268.223 796.85 267.904C796.545 267.585 796.19 267.353 795.784 267.208C795.377 267.063 794.957 266.99 794.521 266.99C794.086 266.99 793.666 267.063 793.259 267.208C792.853 267.353 792.49 267.585 792.171 267.904C791.867 268.223 791.62 268.63 791.431 269.123C791.243 269.616 791.149 270.211 791.149 270.907V271.342C791.149 272.097 791.243 272.735 791.431 273.257C791.62 273.779 791.867 274.207 792.171 274.541C792.49 274.86 792.853 275.1 793.259 275.259C793.666 275.404 794.086 275.477 794.521 275.477ZM809.262 272.409C808.928 272.612 808.522 272.793 808.043 272.953C807.579 273.112 806.991 273.192 806.281 273.192C805.613 273.192 805.011 273.119 804.474 272.974C803.952 272.829 803.51 272.597 803.147 272.278C802.784 271.959 802.509 271.545 802.32 271.038C802.132 270.53 802.037 269.906 802.037 269.166V265.467H803.952V268.84C803.952 269.333 803.996 269.747 804.083 270.08C804.184 270.414 804.344 270.682 804.561 270.885C804.779 271.088 805.055 271.234 805.388 271.321C805.722 271.408 806.128 271.451 806.607 271.451C807.26 271.451 807.818 271.386 808.283 271.255C808.747 271.125 809.073 270.987 809.262 270.842V265.467H811.177V277H809.262V272.409ZM819.439 277.218C818.699 277.218 817.995 277.102 817.328 276.869C816.661 276.637 816.073 276.282 815.565 275.803C815.058 275.31 814.651 274.693 814.347 273.954C814.042 273.214 813.89 272.343 813.89 271.342V270.907C813.89 269.95 814.035 269.123 814.325 268.426C814.615 267.716 815 267.128 815.478 266.664C815.972 266.185 816.537 265.83 817.176 265.598C817.828 265.365 818.51 265.249 819.221 265.249C820.918 265.249 822.231 265.714 823.16 266.642C824.088 267.571 824.552 268.883 824.552 270.581V271.799H815.805C815.805 272.481 815.914 273.054 816.131 273.518C816.349 273.983 816.632 274.36 816.98 274.65C817.328 274.94 817.712 275.15 818.133 275.281C818.568 275.411 819.004 275.477 819.439 275.477C820.309 275.477 820.976 275.332 821.441 275.042C821.919 274.751 822.26 274.352 822.463 273.845H824.335C824.219 274.396 824.008 274.882 823.704 275.303C823.414 275.723 823.051 276.079 822.616 276.369C822.195 276.645 821.709 276.855 821.158 277C820.621 277.145 820.048 277.218 819.439 277.218ZM819.33 266.99C818.88 266.99 818.445 267.056 818.024 267.186C817.604 267.302 817.226 267.498 816.893 267.774C816.574 268.035 816.313 268.368 816.109 268.775C815.906 269.181 815.805 269.667 815.805 270.233H822.746C822.732 269.638 822.63 269.137 822.442 268.731C822.268 268.31 822.028 267.977 821.724 267.73C821.419 267.469 821.056 267.28 820.636 267.164C820.229 267.048 819.794 266.99 819.33 266.99ZM827.274 265.467H832.279C833.701 265.467 834.745 265.764 835.413 266.359C836.08 266.939 836.414 267.694 836.414 268.622C836.414 268.869 836.37 269.123 836.283 269.384C836.196 269.63 836.073 269.863 835.913 270.08C835.768 270.298 835.587 270.486 835.369 270.646C835.166 270.806 834.934 270.929 834.673 271.016C835.384 271.19 835.92 271.524 836.283 272.017C836.66 272.496 836.849 273.061 836.849 273.714C836.849 274.715 836.515 275.513 835.848 276.108C835.18 276.703 834.136 277 832.714 277H827.274V265.467ZM832.714 275.303C833.527 275.303 834.1 275.158 834.433 274.867C834.767 274.577 834.934 274.164 834.934 273.627C834.934 273.076 834.767 272.655 834.433 272.365C834.1 272.06 833.527 271.908 832.714 271.908H829.189V275.303H832.714ZM832.279 270.341C833.106 270.341 833.679 270.196 833.998 269.906C834.332 269.616 834.499 269.217 834.499 268.709C834.499 268.231 834.332 267.853 833.998 267.578C833.679 267.302 833.106 267.164 832.279 267.164H829.189V270.341H832.279ZM839.578 265.467H841.493V269.819H843.821C845.272 269.819 846.338 270.138 847.02 270.777C847.717 271.415 848.065 272.3 848.065 273.431C848.065 274.534 847.717 275.404 847.02 276.043C846.338 276.681 845.272 277 843.821 277H839.578V265.467ZM843.713 275.303C844.612 275.303 845.243 275.143 845.606 274.824C845.968 274.505 846.15 274.033 846.15 273.41C846.15 272.786 845.968 272.314 845.606 271.995C845.243 271.676 844.612 271.516 843.713 271.516H841.493V275.303H843.713ZM849.849 265.467H851.764V277H849.849V265.467ZM860.027 277.218C859.287 277.218 858.583 277.102 857.916 276.869C857.249 276.637 856.661 276.282 856.154 275.803C855.646 275.31 855.24 274.693 854.935 273.954C854.63 273.214 854.478 272.343 854.478 271.342V270.907C854.478 269.95 854.623 269.123 854.913 268.426C855.203 267.716 855.588 267.128 856.067 266.664C856.56 266.185 857.126 265.83 857.764 265.598C858.417 265.365 859.098 265.249 859.809 265.249C861.507 265.249 862.819 265.714 863.748 266.642C864.676 267.571 865.141 268.883 865.141 270.581V271.799H856.393C856.393 272.481 856.502 273.054 856.719 273.518C856.937 273.983 857.22 274.36 857.568 274.65C857.916 274.94 858.301 275.15 858.721 275.281C859.157 275.411 859.592 275.477 860.027 275.477C860.897 275.477 861.565 275.332 862.029 275.042C862.508 274.751 862.849 274.352 863.052 273.845H864.923C864.807 274.396 864.597 274.882 864.292 275.303C864.002 275.723 863.639 276.079 863.204 276.369C862.783 276.645 862.297 276.855 861.746 277C861.209 277.145 860.636 277.218 860.027 277.218ZM859.918 266.99C859.468 266.99 859.033 267.056 858.612 267.186C858.192 267.302 857.815 267.498 857.481 267.774C857.162 268.035 856.901 268.368 856.698 268.775C856.494 269.181 856.393 269.667 856.393 270.233H863.334C863.32 269.638 863.218 269.137 863.03 268.731C862.856 268.31 862.616 267.977 862.312 267.73C862.007 267.469 861.644 267.28 861.224 267.164C860.818 267.048 860.382 266.99 859.918 266.99ZM877.763 277.218C877.023 277.218 876.334 277.102 875.696 276.869C875.058 276.623 874.507 276.26 874.042 275.781C873.578 275.288 873.208 274.672 872.933 273.932C872.671 273.192 872.541 272.329 872.541 271.342V270.907C872.541 269.979 872.686 269.159 872.976 268.448C873.266 267.737 873.651 267.15 874.129 266.686C874.608 266.207 875.159 265.851 875.783 265.619C876.421 265.373 877.081 265.249 877.763 265.249C878.445 265.249 879.054 265.344 879.591 265.532C880.142 265.721 880.614 265.982 881.006 266.316C881.412 266.649 881.738 267.041 881.985 267.491C882.246 267.94 882.435 268.426 882.551 268.949H880.592C880.476 268.673 880.338 268.419 880.179 268.187C880.034 267.94 879.845 267.73 879.613 267.556C879.395 267.382 879.134 267.244 878.83 267.143C878.525 267.041 878.169 266.99 877.763 266.99C877.343 266.99 876.936 267.07 876.545 267.23C876.153 267.375 875.805 267.607 875.5 267.926C875.196 268.231 874.949 268.63 874.76 269.123C874.586 269.616 874.499 270.211 874.499 270.907V271.342C874.499 272.082 874.586 272.72 874.76 273.257C874.949 273.779 875.196 274.207 875.5 274.541C875.805 274.86 876.153 275.1 876.545 275.259C876.936 275.404 877.343 275.477 877.763 275.477C878.474 275.477 879.069 275.303 879.548 274.955C880.041 274.606 880.389 274.128 880.592 273.518H882.551C882.275 274.664 881.709 275.571 880.853 276.238C879.997 276.891 878.967 277.218 877.763 277.218ZM884.616 277.218C884.398 277.218 884.181 277.196 883.963 277.152V275.237C884.036 275.252 884.145 275.259 884.29 275.259C884.609 275.259 884.884 275.158 885.117 274.955C885.363 274.751 885.559 274.396 885.704 273.888C885.849 273.381 885.958 272.691 886.031 271.821C886.103 270.951 886.139 269.848 886.139 268.513V265.467H894.408V277H892.493V267.164H888.054V268.949C888.054 270.559 887.982 271.894 887.837 272.953C887.692 274.012 887.474 274.86 887.184 275.499C886.908 276.122 886.553 276.565 886.118 276.826C885.682 277.087 885.182 277.218 884.616 277.218ZM902.676 277.218C901.936 277.218 901.233 277.102 900.566 276.869C899.898 276.623 899.311 276.26 898.803 275.781C898.295 275.288 897.889 274.672 897.584 273.932C897.28 273.192 897.127 272.329 897.127 271.342V270.907C897.127 269.979 897.28 269.159 897.584 268.448C897.889 267.737 898.295 267.15 898.803 266.686C899.311 266.207 899.898 265.851 900.566 265.619C901.233 265.373 901.936 265.249 902.676 265.249C903.416 265.249 904.12 265.373 904.787 265.619C905.454 265.851 906.042 266.207 906.55 266.686C907.057 267.15 907.464 267.737 907.768 268.448C908.073 269.159 908.225 269.979 908.225 270.907V271.342C908.225 272.329 908.073 273.192 907.768 273.932C907.464 274.672 907.057 275.288 906.55 275.781C906.042 276.26 905.454 276.623 904.787 276.869C904.12 277.102 903.416 277.218 902.676 277.218ZM902.676 275.477C903.112 275.477 903.547 275.404 903.982 275.259C904.417 275.1 904.802 274.86 905.135 274.541C905.469 274.207 905.737 273.779 905.94 273.257C906.158 272.735 906.267 272.097 906.267 271.342V270.907C906.267 270.211 906.158 269.616 905.94 269.123C905.737 268.63 905.469 268.223 905.135 267.904C904.802 267.585 904.417 267.353 903.982 267.208C903.547 267.063 903.112 266.99 902.676 266.99C902.241 266.99 901.806 267.063 901.371 267.208C900.936 267.353 900.551 267.585 900.217 267.904C899.884 268.223 899.608 268.63 899.391 269.123C899.187 269.616 899.086 270.211 899.086 270.907V271.342C899.086 272.097 899.187 272.735 899.391 273.257C899.608 273.779 899.884 274.207 900.217 274.541C900.551 274.86 900.936 275.1 901.371 275.259C901.806 275.404 902.241 275.477 902.676 275.477ZM910.937 265.467H915.942C917.363 265.467 918.408 265.764 919.075 266.359C919.742 266.939 920.076 267.694 920.076 268.622C920.076 268.869 920.033 269.123 919.946 269.384C919.859 269.63 919.735 269.863 919.576 270.08C919.431 270.298 919.249 270.486 919.032 270.646C918.829 270.806 918.596 270.929 918.335 271.016C919.046 271.19 919.583 271.524 919.946 272.017C920.323 272.496 920.511 273.061 920.511 273.714C920.511 274.715 920.178 275.513 919.51 276.108C918.843 276.703 917.799 277 916.377 277H910.937V265.467ZM916.377 275.303C917.189 275.303 917.762 275.158 918.096 274.867C918.43 274.577 918.596 274.164 918.596 273.627C918.596 273.076 918.43 272.655 918.096 272.365C917.762 272.06 917.189 271.908 916.377 271.908H912.852V275.303H916.377ZM915.942 270.341C916.769 270.341 917.342 270.196 917.661 269.906C917.994 269.616 918.161 269.217 918.161 268.709C918.161 268.231 917.994 267.853 917.661 267.578C917.342 267.302 916.769 267.164 915.942 267.164H912.852V270.341H915.942ZM926.527 277.218C925.888 277.218 925.322 277.131 924.829 276.956C924.351 276.768 923.944 276.514 923.611 276.195C923.277 275.876 923.023 275.499 922.849 275.063C922.675 274.628 922.588 274.149 922.588 273.627C922.588 272.481 922.922 271.654 923.589 271.146C924.271 270.639 925.243 270.385 926.505 270.385H930.248V269.601C930.248 268.615 930.023 267.933 929.573 267.556C929.138 267.179 928.478 266.99 927.593 266.99C926.766 266.99 926.164 267.15 925.787 267.469C925.41 267.774 925.199 268.122 925.156 268.513H923.241C923.27 268.049 923.393 267.621 923.611 267.23C923.843 266.823 924.147 266.475 924.525 266.185C924.916 265.895 925.381 265.67 925.917 265.511C926.454 265.336 927.049 265.249 927.702 265.249C929.065 265.249 930.146 265.576 930.944 266.229C931.756 266.867 932.162 267.919 932.162 269.384V274.062C932.162 274.672 932.162 275.208 932.162 275.673C932.177 276.122 932.213 276.565 932.271 277H930.596C930.552 276.666 930.523 276.354 930.509 276.064C930.494 275.76 930.487 275.419 930.487 275.042C930.182 275.651 929.689 276.166 929.007 276.587C928.325 277.007 927.499 277.218 926.527 277.218ZM926.94 275.477C927.39 275.477 927.81 275.419 928.202 275.303C928.608 275.172 928.964 274.991 929.268 274.759C929.573 274.512 929.812 274.215 929.986 273.867C930.161 273.518 930.248 273.112 930.248 272.648V271.865H926.831C926.12 271.865 925.562 272.01 925.156 272.3C924.749 272.575 924.546 273.018 924.546 273.627C924.546 274.164 924.735 274.606 925.112 274.955C925.504 275.303 926.113 275.477 926.94 275.477ZM940.985 265.467H942.9V274.171L948.862 265.467H950.777V277H948.862V268.296L942.9 277H940.985V265.467ZM953.722 277.218C953.505 277.218 953.287 277.196 953.069 277.152V275.237C953.142 275.252 953.251 275.259 953.396 275.259C953.715 275.259 953.991 275.158 954.223 274.955C954.469 274.751 954.665 274.396 954.81 273.888C954.955 273.381 955.064 272.691 955.137 271.821C955.209 270.951 955.245 269.848 955.245 268.513V265.467H963.514V277H961.599V267.164H957.16V268.949C957.16 270.559 957.088 271.894 956.943 272.953C956.798 274.012 956.58 274.86 956.29 275.499C956.014 276.122 955.659 276.565 955.224 276.826C954.788 277.087 954.288 277.218 953.722 277.218ZM966.995 265.467H968.91V274.171L974.872 265.467H976.787V277H974.872V268.296L968.91 277H966.995V265.467ZM989.003 277.218C988.364 277.218 987.798 277.131 987.305 276.956C986.827 276.768 986.42 276.514 986.087 276.195C985.753 275.876 985.499 275.499 985.325 275.063C985.151 274.628 985.064 274.149 985.064 273.627C985.064 272.481 985.398 271.654 986.065 271.146C986.747 270.639 987.719 270.385 988.981 270.385H992.724V269.601C992.724 268.615 992.499 267.933 992.049 267.556C991.614 267.179 990.954 266.99 990.069 266.99C989.242 266.99 988.64 267.15 988.263 267.469C987.886 267.774 987.675 268.122 987.632 268.513H985.717C985.746 268.049 985.869 267.621 986.087 267.23C986.319 266.823 986.623 266.475 987.001 266.185C987.392 265.895 987.857 265.67 988.393 265.511C988.93 265.336 989.525 265.249 990.178 265.249C991.541 265.249 992.622 265.576 993.42 266.229C994.232 266.867 994.638 267.919 994.638 269.384V274.062C994.638 274.672 994.638 275.208 994.638 275.673C994.653 276.122 994.689 276.565 994.747 277H993.072C993.028 276.666 992.999 276.354 992.985 276.064C992.97 275.76 992.963 275.419 992.963 275.042C992.658 275.651 992.165 276.166 991.483 276.587C990.801 277.007 989.975 277.218 989.003 277.218ZM989.416 275.477C989.866 275.477 990.286 275.419 990.678 275.303C991.084 275.172 991.44 274.991 991.744 274.759C992.049 274.512 992.288 274.215 992.462 273.867C992.637 273.518 992.724 273.112 992.724 272.648V271.865H989.307C988.596 271.865 988.038 272.01 987.632 272.3C987.225 272.575 987.022 273.018 987.022 273.627C987.022 274.164 987.211 274.606 987.588 274.955C987.98 275.303 988.589 275.477 989.416 275.477ZM998.021 265.467H999.805V267.643C1000.2 266.874 1000.74 266.287 1001.44 265.88C1002.15 265.46 1002.97 265.249 1003.9 265.249C1005.35 265.249 1006.51 265.728 1007.38 266.686C1008.25 267.629 1008.68 269.036 1008.68 270.907V271.342C1008.68 272.329 1008.57 273.192 1008.34 273.932C1008.1 274.657 1007.78 275.266 1007.36 275.76C1006.94 276.238 1006.43 276.601 1005.83 276.848C1005.25 277.094 1004.61 277.218 1003.9 277.218C1002.91 277.218 1002.08 277 1001.42 276.565C1000.76 276.13 1000.27 275.586 999.936 274.933V281.352H998.021V265.467ZM1003.46 275.52C1003.92 275.52 1004.36 275.433 1004.77 275.259C1005.17 275.071 1005.52 274.802 1005.81 274.454C1006.12 274.106 1006.35 273.671 1006.51 273.148C1006.68 272.626 1006.77 272.024 1006.77 271.342V270.907C1006.77 270.283 1006.68 269.725 1006.51 269.232C1006.35 268.738 1006.12 268.325 1005.81 267.991C1005.52 267.643 1005.17 267.382 1004.77 267.208C1004.36 267.034 1003.92 266.947 1003.46 266.947C1002.94 266.947 1002.46 267.034 1002.02 267.208C1001.59 267.367 1001.22 267.6 1000.91 267.904C1000.61 268.194 1000.37 268.542 1000.2 268.949C1000.02 269.355 999.936 269.79 999.936 270.254V271.995C999.936 272.517 1000.02 272.996 1000.2 273.431C1000.37 273.867 1000.61 274.236 1000.91 274.541C1001.22 274.846 1001.59 275.085 1002.02 275.259C1002.46 275.433 1002.94 275.52 1003.46 275.52ZM1011.41 265.467H1019.24V267.164H1013.32V277H1011.41V265.467ZM1023.37 281.57C1023.15 281.57 1022.93 281.548 1022.71 281.504V279.764C1022.93 279.807 1023.15 279.829 1023.37 279.829C1023.58 279.829 1023.77 279.793 1023.93 279.72C1024.09 279.648 1024.24 279.51 1024.39 279.307C1024.53 279.104 1024.69 278.813 1024.85 278.436C1025.02 278.074 1025.22 277.595 1025.43 277L1020.54 265.467H1022.67L1026.41 274.824L1029.81 265.467H1031.85L1027.5 277C1027.2 277.812 1026.91 278.509 1026.63 279.089C1026.35 279.669 1026.06 280.141 1025.74 280.503C1025.43 280.881 1025.09 281.149 1024.71 281.309C1024.34 281.483 1023.89 281.57 1023.37 281.57ZM1034.02 265.467H1036.06L1040.18 272.648L1044.29 265.467H1046.2V277H1044.29V268.622L1040.87 274.498H1039.35L1035.93 268.622V277H1034.02V265.467ZM1054.47 277.218C1053.73 277.218 1053.02 277.102 1052.36 276.869C1051.69 276.637 1051.1 276.282 1050.59 275.803C1050.09 275.31 1049.68 274.693 1049.38 273.954C1049.07 273.214 1048.92 272.343 1048.92 271.342V270.907C1048.92 269.95 1049.06 269.123 1049.35 268.426C1049.64 267.716 1050.03 267.128 1050.51 266.664C1051 266.185 1051.57 265.83 1052.2 265.598C1052.86 265.365 1053.54 265.249 1054.25 265.249C1055.95 265.249 1057.26 265.714 1058.19 266.642C1059.12 267.571 1059.58 268.883 1059.58 270.581V271.799H1050.83C1050.83 272.481 1050.94 273.054 1051.16 273.518C1051.38 273.983 1051.66 274.36 1052.01 274.65C1052.36 274.94 1052.74 275.15 1053.16 275.281C1053.6 275.411 1054.03 275.477 1054.47 275.477C1055.34 275.477 1056.01 275.332 1056.47 275.042C1056.95 274.751 1057.29 274.352 1057.49 273.845H1059.36C1059.25 274.396 1059.04 274.882 1058.73 275.303C1058.44 275.723 1058.08 276.079 1057.64 276.369C1057.22 276.645 1056.74 276.855 1056.19 277C1055.65 277.145 1055.08 277.218 1054.47 277.218ZM1054.36 266.99C1053.91 266.99 1053.47 267.056 1053.05 267.186C1052.63 267.302 1052.26 267.498 1051.92 267.774C1051.6 268.035 1051.34 268.368 1051.14 268.775C1050.94 269.181 1050.83 269.667 1050.83 270.233H1057.78C1057.76 269.638 1057.66 269.137 1057.47 268.731C1057.3 268.31 1057.06 267.977 1056.75 267.73C1056.45 267.469 1056.09 267.28 1055.66 267.164C1055.26 267.048 1054.82 266.99 1054.36 266.99ZM1062.3 265.467H1064.22V270.276H1070.18V265.467H1072.1V277H1070.18V271.973H1064.22V277H1062.3V265.467ZM1078.22 267.164H1074.28V265.467H1084.07V267.164H1080.13V277H1078.22V267.164ZM1086.25 265.467H1088.17V269.819H1090.5C1091.95 269.819 1093.01 270.138 1093.69 270.777C1094.39 271.415 1094.74 272.3 1094.74 273.431C1094.74 274.534 1094.39 275.404 1093.69 276.043C1093.01 276.681 1091.95 277 1090.5 277H1086.25V265.467ZM1090.39 275.303C1091.29 275.303 1091.92 275.143 1092.28 274.824C1092.64 274.505 1092.82 274.033 1092.82 273.41C1092.82 272.786 1092.64 272.314 1092.28 271.995C1091.92 271.676 1091.29 271.516 1090.39 271.516H1088.17V275.303H1090.39ZM1096.52 265.467H1098.44V277H1096.52V265.467Z" fill="black"/>
<rect x="735.875" y="236.5" width="384" height="64" stroke="#E87F53"/>
<path d="M478.125 131.856V169.622H188.85V237.205" stroke="black" stroke-width="2"/>
<path d="M549.558 131.856V193.709H394.01V237.205" stroke="black" stroke-width="2"/>
<path d="M596.24 131.856V237.165" stroke="black" stroke-width="2"/>
<path d="M683.13 131.856V170.452H934.375V237.205" stroke="black" stroke-width="2"/>
<path d="M430.404 131.856H513.162" stroke="black" stroke-width="2"/>
<path d="M441.852 407.823H524.609" stroke="black" stroke-width="2"/>
<path d="M521.756 131.856H577.361" stroke="black" stroke-width="2"/>
<path d="M538.375 408L579.375 408.008" stroke="black" stroke-width="2"/>
<path d="M586.525 131.856H605.957" stroke="black" stroke-width="2"/>
<path d="M587.375 408H606.806" stroke="black" stroke-width="2"/>
<path d="M616.164 131.856L753.416 131.856" stroke="black" stroke-width="2"/>
<path d="M616.375 408H748.375" stroke="black" stroke-width="2"/>
</svg>
