<svg width="1517" height="437" viewBox="0 0 1517 437" fill="none" xmlns="http://www.w3.org/2000/svg">
<rect x="100.804" y="100.744" width="99" height="45" fill="#F1F7F5"/>
<path d="M126.567 128.177H129.984V116.731L126.502 119.169L125.653 117.928L130.441 114.512H131.659V128.177H135.01V129.744H126.567V128.177ZM139.615 128.177H143.031V116.731L139.55 119.169L138.701 117.928L143.488 114.512H144.707V128.177H148.058V129.744H139.615V128.177ZM152.663 128.177H156.079V116.731L152.597 119.169L151.749 117.928L156.536 114.512H157.755V128.177H161.106V129.744H152.663V128.177ZM165.71 128.177H169.127V116.731L165.645 119.169L164.796 117.928L169.584 114.512H170.802V128.177H174.153V129.744H165.71V128.177Z" fill="black"/>
<rect x="100.804" y="100.744" width="99" height="45" stroke="#ABD4C1"/>
<rect x="199.804" y="100.744" width="99" height="45" fill="#F1F7F5"/>
<path d="M225.567 128.177H228.984V116.731L225.502 119.169L224.653 117.928L229.441 114.512H230.659V128.177H234.01V129.744H225.567V128.177ZM238.615 128.177H242.031V116.731L238.55 119.169L237.701 117.928L242.488 114.512H243.707V128.177H247.058V129.744H238.615V128.177ZM251.663 128.177H255.079V116.731L251.597 119.169L250.749 117.928L255.536 114.512H256.755V128.177H260.106V129.744H251.663V128.177ZM264.71 128.177H268.127V116.731L264.645 119.169L263.796 117.928L268.584 114.512H269.802V128.177H273.153V129.744H264.71V128.177Z" fill="black"/>
<rect x="199.804" y="100.744" width="99" height="45" stroke="#ABD4C1"/>
<rect x="298.804" y="100.744" width="99" height="45" fill="#F1F7F5"/>
<path d="M324.567 128.177H327.984V116.731L324.502 119.169L323.653 117.928L328.441 114.512H329.659V128.177H333.01V129.744H324.567V128.177ZM337.615 128.177H341.031V116.731L337.55 119.169L336.701 117.928L341.488 114.512H342.707V128.177H346.058V129.744H337.615V128.177ZM350.663 128.177H354.079V116.731L350.597 119.169L349.749 117.928L354.536 114.512H355.755V128.177H359.106V129.744H350.663V128.177ZM363.71 128.177H367.127V116.731L363.645 119.169L362.796 117.928L367.584 114.512H368.802V128.177H372.153V129.744H363.71V128.177Z" fill="black"/>
<rect x="298.804" y="100.744" width="99" height="45" stroke="#ABD4C1"/>
<rect x="397.804" y="100.744" width="99" height="45" fill="#F1F7F5"/>
<path d="M423.567 128.177H426.984V116.731L423.502 119.169L422.653 117.928L427.441 114.512H428.659V128.177H432.01V129.744H423.567V128.177ZM436.615 128.177H440.031V116.731L436.55 119.169L435.701 117.928L440.488 114.512H441.707V128.177H445.058V129.744H436.615V128.177ZM449.663 128.177H453.079V116.731L449.597 119.169L448.749 117.928L453.536 114.512H454.755V128.177H458.106V129.744H449.663V128.177ZM462.71 128.177H466.127V116.731L462.645 119.169L461.796 117.928L466.584 114.512H467.802V128.177H471.153V129.744H462.71V128.177Z" fill="black"/>
<rect x="397.804" y="100.744" width="99" height="45" stroke="#ABD4C1"/>
<rect x="496.804" y="100.744" width="99" height="45" fill="#F1F7F5"/>
<path d="M522.567 128.177H525.984V116.731L522.502 119.169L521.653 117.928L526.441 114.512H527.659V128.177H531.01V129.744H522.567V128.177ZM535.615 128.177H539.031V116.731L535.55 119.169L534.701 117.928L539.488 114.512H540.707V128.177H544.058V129.744H535.615V128.177ZM548.663 128.177H552.079V116.731L548.597 119.169L547.749 117.928L552.536 114.512H553.755V128.177H557.106V129.744H548.663V128.177ZM561.71 128.177H565.127V116.731L561.645 119.169L560.796 117.928L565.584 114.512H566.802V128.177H570.153V129.744H561.71V128.177Z" fill="black"/>
<rect x="496.804" y="100.744" width="99" height="45" stroke="#ABD4C1"/>
<rect x="595.804" y="100.744" width="99" height="45" fill="#F1F7F5"/>
<path d="M621.567 128.177H624.984V116.731L621.502 119.169L620.653 117.928L625.441 114.512H626.659V128.177H630.01V129.744H621.567V128.177ZM634.615 128.177H638.031V116.731L634.55 119.169L633.701 117.928L638.488 114.512H639.707V128.177H643.058V129.744H634.615V128.177ZM647.663 128.177H651.079V116.731L647.597 119.169L646.749 117.928L651.536 114.512H652.755V128.177H656.106V129.744H647.663V128.177ZM660.71 128.177H664.127V116.731L660.645 119.169L659.796 117.928L664.584 114.512H665.802V128.177H669.153V129.744H660.71V128.177Z" fill="black"/>
<rect x="595.804" y="100.744" width="99" height="45" stroke="#ABD4C1"/>
<rect x="694.804" y="100.744" width="99" height="45" fill="#F1F7F5"/>
<path d="M720.567 128.177H723.984V116.731L720.502 119.169L719.653 117.928L724.441 114.512H725.659V128.177H729.01V129.744H720.567V128.177ZM733.615 128.177H737.031V116.731L733.55 119.169L732.701 117.928L737.488 114.512H738.707V128.177H742.058V129.744H733.615V128.177ZM746.663 128.177H750.079V116.731L746.597 119.169L745.749 117.928L750.536 114.512H751.755V128.177H755.106V129.744H746.663V128.177ZM759.71 128.177H763.127V116.731L759.645 119.169L758.796 117.928L763.584 114.512H764.802V128.177H768.153V129.744H759.71V128.177Z" fill="black"/>
<rect x="694.804" y="100.744" width="99" height="45" stroke="#ABD4C1"/>
<rect x="793.804" y="100.744" width="99" height="45" fill="#F1F7F5"/>
<path d="M819.567 128.177H822.984V116.731L819.502 119.169L818.653 117.928L823.441 114.512H824.659V128.177H828.01V129.744H819.567V128.177ZM832.615 128.177H836.031V116.731L832.55 119.169L831.701 117.928L836.488 114.512H837.707V128.177H841.058V129.744H832.615V128.177ZM845.663 128.177H849.079V116.731L845.597 119.169L844.749 117.928L849.536 114.512H850.755V128.177H854.106V129.744H845.663V128.177ZM858.71 128.177H862.127V116.731L858.645 119.169L857.796 117.928L862.584 114.512H863.802V128.177H867.153V129.744H858.71V128.177Z" fill="black"/>
<rect x="793.804" y="100.744" width="99" height="45" stroke="#ABD4C1"/>
<rect x="892.804" y="100.744" width="98" height="45" fill="#F1F7F5"/>
<path d="M918.067 128.177H921.484V116.731L918.002 119.169L917.153 117.928L921.941 114.512H923.159V128.177H926.51V129.744H918.067V128.177ZM931.115 128.177H934.531V116.731L931.05 119.169L930.201 117.928L934.988 114.512H936.207V128.177H939.558V129.744H931.115V128.177ZM944.163 128.177H947.579V116.731L944.097 119.169L943.249 117.928L948.036 114.512H949.255V128.177H952.606V129.744H944.163V128.177ZM957.21 128.177H960.627V116.731L957.145 119.169L956.296 117.928L961.084 114.512H962.302V128.177H965.653V129.744H957.21V128.177Z" fill="black"/>
<rect x="892.804" y="100.744" width="98" height="45" stroke="#ABD4C1"/>
<rect x="990.804" y="100.744" width="99" height="45" fill="#F1F7F5"/>
<path d="M1016.57 128.177H1019.98V116.731L1016.5 119.169L1015.65 117.928L1020.44 114.512H1021.66V128.177H1025.01V129.744H1016.57V128.177ZM1029.61 128.177H1033.03V116.731L1029.55 119.169L1028.7 117.928L1033.49 114.512H1034.71V128.177H1038.06V129.744H1029.61V128.177ZM1042.66 128.177H1046.08V116.731L1042.6 119.169L1041.75 117.928L1046.54 114.512H1047.75V128.177H1051.11V129.744H1042.66V128.177ZM1055.71 128.177H1059.13V116.731L1055.65 119.169L1054.8 117.928L1059.58 114.512H1060.8V128.177H1064.15V129.744H1055.71V128.177Z" fill="black"/>
<rect x="990.804" y="100.744" width="99" height="45" stroke="#ABD4C1"/>
<rect x="1089.8" y="100.744" width="99" height="45" fill="#F1F7F5"/>
<path d="M1115.57 128.177H1118.98V116.731L1115.5 119.169L1114.65 117.928L1119.44 114.512H1120.66V128.177H1124.01V129.744H1115.57V128.177ZM1128.61 128.177H1132.03V116.731L1128.55 119.169L1127.7 117.928L1132.49 114.512H1133.71V128.177H1137.06V129.744H1128.61V128.177ZM1141.66 128.177H1145.08V116.731L1141.6 119.169L1140.75 117.928L1145.54 114.512H1146.75V128.177H1150.11V129.744H1141.66V128.177ZM1154.71 128.177H1158.13V116.731L1154.65 119.169L1153.8 117.928L1158.58 114.512H1159.8V128.177H1163.15V129.744H1154.71V128.177Z" fill="black"/>
<rect x="1089.8" y="100.744" width="99" height="45" stroke="#ABD4C1"/>
<rect x="1188.8" y="100.744" width="98" height="45" fill="#F1F7F5"/>
<path d="M1214.07 128.177H1217.48V116.731L1214 119.169L1213.15 117.928L1217.94 114.512H1219.16V128.177H1222.51V129.744H1214.07V128.177ZM1227.11 128.177H1230.53V116.731L1227.05 119.169L1226.2 117.928L1230.99 114.512H1232.21V128.177H1235.56V129.744H1227.11V128.177ZM1240.16 128.177H1243.58V116.731L1240.1 119.169L1239.25 117.928L1244.04 114.512H1245.25V128.177H1248.61V129.744H1240.16V128.177ZM1253.21 128.177H1256.63V116.731L1253.15 119.169L1252.3 117.928L1257.08 114.512H1258.3V128.177H1261.65V129.744H1253.21V128.177Z" fill="black"/>
<rect x="1188.8" y="100.744" width="98" height="45" stroke="#ABD4C1"/>
<rect x="1310.2" y="100.744" width="105" height="45" fill="#F1F7F5"/>
<path d="M1320.28 125.194H1330.08V126.979H1320.28V125.194ZM1320.28 120.842H1330.08V122.627H1320.28V120.842ZM1344.78 128.067H1337.04V126.5L1344.56 116.512H1346.83V126.282H1348.79V128.067H1346.83V131.744H1344.78V128.067ZM1344.78 126.282V118.906L1339.21 126.282H1344.78ZM1356.52 131.962C1355.62 131.962 1354.83 131.853 1354.15 131.635C1353.46 131.418 1352.89 131.12 1352.43 130.743C1351.98 130.366 1351.64 129.924 1351.41 129.416C1351.19 128.894 1351.08 128.328 1351.08 127.718C1351.08 126.848 1351.35 126.072 1351.91 125.39C1352.46 124.694 1353.27 124.201 1354.34 123.91C1353.95 123.78 1353.58 123.606 1353.23 123.388C1352.9 123.156 1352.6 122.888 1352.34 122.583C1352.08 122.278 1351.88 121.937 1351.73 121.56C1351.59 121.169 1351.51 120.755 1351.51 120.32C1351.51 119.754 1351.62 119.225 1351.84 118.731C1352.06 118.238 1352.38 117.818 1352.8 117.469C1353.22 117.107 1353.74 116.824 1354.36 116.621C1354.99 116.403 1355.71 116.294 1356.52 116.294C1357.33 116.294 1358.05 116.403 1358.67 116.621C1359.3 116.824 1359.82 117.107 1360.24 117.469C1360.66 117.818 1360.98 118.238 1361.2 118.731C1361.41 119.225 1361.52 119.754 1361.52 120.32C1361.52 121.19 1361.25 121.93 1360.7 122.54C1360.16 123.149 1359.49 123.606 1358.69 123.91C1359.78 124.273 1360.6 124.752 1361.13 125.347C1361.68 125.941 1361.96 126.732 1361.96 127.718C1361.96 128.328 1361.84 128.894 1361.61 129.416C1361.39 129.924 1361.05 130.366 1360.59 130.743C1360.14 131.12 1359.57 131.418 1358.89 131.635C1358.21 131.853 1357.42 131.962 1356.52 131.962ZM1356.52 130.134C1357.14 130.134 1357.67 130.069 1358.11 129.938C1358.54 129.793 1358.89 129.612 1359.15 129.394C1359.43 129.162 1359.62 128.894 1359.74 128.589C1359.86 128.27 1359.91 127.936 1359.91 127.588C1359.91 127.182 1359.83 126.812 1359.65 126.478C1359.49 126.144 1359.26 125.854 1358.96 125.608C1358.65 125.347 1358.29 125.144 1357.87 124.998C1357.46 124.839 1357.01 124.73 1356.52 124.672C1356.03 124.73 1355.57 124.839 1355.15 124.998C1354.74 125.144 1354.39 125.339 1354.08 125.586C1353.78 125.833 1353.54 126.13 1353.36 126.478C1353.2 126.812 1353.12 127.182 1353.12 127.588C1353.12 127.936 1353.18 128.27 1353.3 128.589C1353.41 128.894 1353.6 129.162 1353.86 129.394C1354.14 129.612 1354.49 129.793 1354.93 129.938C1355.37 130.069 1355.89 130.134 1356.52 130.134ZM1356.52 123.149C1357.39 123.033 1358.1 122.757 1358.65 122.322C1359.2 121.872 1359.48 121.241 1359.48 120.429C1359.48 119.689 1359.23 119.123 1358.74 118.731C1358.26 118.325 1357.52 118.122 1356.52 118.122C1355.5 118.122 1354.76 118.325 1354.28 118.731C1353.8 119.123 1353.56 119.689 1353.56 120.429C1353.56 121.241 1353.83 121.872 1354.39 122.322C1354.94 122.757 1355.65 123.033 1356.52 123.149ZM1375.13 131.962C1374.36 131.962 1373.64 131.817 1372.98 131.527C1372.32 131.236 1371.75 130.816 1371.26 130.264C1370.78 129.699 1370.39 129.01 1370.1 128.197C1369.83 127.385 1369.69 126.464 1369.69 125.434V124.998C1369.69 123.693 1369.79 122.532 1369.97 121.517C1370.16 120.487 1370.48 119.616 1370.93 118.906C1371.4 118.18 1372 117.614 1372.74 117.208C1373.49 116.802 1374.44 116.57 1375.57 116.512C1376.48 116.468 1377.28 116.432 1377.96 116.403C1378.64 116.36 1379.22 116.215 1379.7 115.968V117.818C1379.47 117.948 1379.04 118.05 1378.42 118.122C1377.81 118.195 1376.97 118.245 1375.89 118.274C1375.2 118.289 1374.58 118.376 1374.04 118.536C1373.52 118.695 1373.07 118.949 1372.69 119.297C1372.33 119.645 1372.04 120.102 1371.82 120.668C1371.62 121.219 1371.49 121.901 1371.43 122.714C1371.78 121.945 1372.32 121.335 1373.04 120.886C1373.77 120.436 1374.61 120.211 1375.57 120.211C1376.31 120.211 1376.98 120.342 1377.59 120.603C1378.2 120.849 1378.72 121.205 1379.16 121.669C1379.61 122.133 1379.95 122.706 1380.2 123.388C1380.45 124.055 1380.57 124.81 1380.57 125.651V126.086C1380.57 126.986 1380.43 127.798 1380.16 128.524C1379.88 129.234 1379.51 129.851 1379.03 130.373C1378.55 130.881 1377.97 131.273 1377.31 131.548C1376.64 131.824 1375.91 131.962 1375.13 131.962ZM1375.13 130.221C1376.15 130.221 1376.98 129.873 1377.63 129.176C1378.29 128.466 1378.61 127.436 1378.61 126.086V125.651C1378.61 125.085 1378.53 124.578 1378.35 124.128C1378.18 123.678 1377.94 123.294 1377.63 122.975C1377.33 122.641 1376.96 122.387 1376.52 122.213C1376.1 122.039 1375.64 121.952 1375.13 121.952C1374.62 121.952 1374.15 122.039 1373.72 122.213C1373.3 122.387 1372.93 122.641 1372.63 122.975C1372.32 123.294 1372.08 123.678 1371.91 124.128C1371.74 124.578 1371.65 125.085 1371.65 125.651V126.086C1371.65 126.725 1371.74 127.305 1371.91 127.827C1372.1 128.335 1372.35 128.77 1372.67 129.133C1372.99 129.481 1373.36 129.749 1373.78 129.938C1374.2 130.127 1374.65 130.221 1375.13 130.221ZM1383.29 120.211H1385.2V128.915L1391.16 120.211H1393.08V131.744H1391.16V123.04L1385.2 131.744H1383.29V120.211ZM1399.2 121.908H1395.26V120.211H1405.05V121.908H1401.11V131.744H1399.2V121.908Z" fill="black"/>
<rect x="1310.2" y="100.744" width="105" height="45" stroke="#ABD4C1"/>
<rect x="1310.2" y="194.391" width="104" height="45" fill="#ABD4C1"/>
<path d="M1321.28 218.841H1331.08V220.625H1321.28V218.841ZM1321.28 214.489H1331.08V216.273H1321.28V214.489ZM1338.8 223.606H1342.43V212.4L1338.8 214.989V212.77L1342.47 210.158H1344.52V223.606H1347.5V225.391H1338.8V223.606ZM1349.03 223.715L1355.13 218.427C1355.59 218.036 1355.97 217.68 1356.26 217.361C1356.56 217.042 1356.8 216.745 1356.97 216.469C1357.15 216.179 1357.26 215.896 1357.32 215.62C1357.4 215.345 1357.43 215.047 1357.43 214.728C1357.43 213.872 1357.18 213.169 1356.67 212.617C1356.16 212.052 1355.47 211.769 1354.58 211.769C1353.52 211.769 1352.71 212.059 1352.14 212.639C1351.58 213.205 1351.3 214.01 1351.3 215.054H1349.25C1349.25 214.315 1349.37 213.633 1349.62 213.009C1349.88 212.371 1350.24 211.827 1350.71 211.377C1351.19 210.927 1351.75 210.579 1352.41 210.332C1353.06 210.071 1353.78 209.941 1354.58 209.941C1355.35 209.941 1356.04 210.064 1356.65 210.311C1357.26 210.543 1357.77 210.876 1358.19 211.312C1358.61 211.732 1358.93 212.233 1359.15 212.813C1359.37 213.393 1359.48 214.032 1359.48 214.728C1359.48 215.25 1359.4 215.736 1359.24 216.186C1359.08 216.636 1358.85 217.064 1358.56 217.47C1358.29 217.876 1357.95 218.275 1357.54 218.667C1357.15 219.044 1356.71 219.436 1356.23 219.842L1351.69 223.606H1359.69V225.391H1349.03V223.715ZM1367.97 210.158H1369.88V215.925C1370.03 215.62 1370.21 215.33 1370.45 215.054C1370.68 214.779 1370.95 214.539 1371.27 214.336C1371.59 214.119 1371.95 213.952 1372.36 213.836C1372.77 213.705 1373.21 213.64 1373.69 213.64C1375.14 213.64 1376.21 214.032 1376.91 214.815C1377.62 215.584 1377.98 216.715 1377.98 218.21V225.391H1376.06V218.645C1376.06 217.571 1375.84 216.759 1375.39 216.208C1374.94 215.656 1374.18 215.381 1373.12 215.381C1372.56 215.381 1372.06 215.475 1371.64 215.664C1371.24 215.852 1370.9 216.099 1370.64 216.404C1370.38 216.708 1370.18 217.056 1370.05 217.448C1369.94 217.84 1369.88 218.239 1369.88 218.645V225.391H1367.97V210.158ZM1386.14 225.608C1385.4 225.608 1384.7 225.492 1384.03 225.26C1383.36 225.028 1382.77 224.673 1382.27 224.194C1381.76 223.701 1381.35 223.084 1381.05 222.344C1380.74 221.604 1380.59 220.734 1380.59 219.733V219.298C1380.59 218.34 1380.74 217.513 1381.03 216.817C1381.32 216.106 1381.7 215.519 1382.18 215.054C1382.67 214.576 1383.24 214.22 1383.88 213.988C1384.53 213.756 1385.21 213.64 1385.92 213.64C1387.62 213.64 1388.93 214.104 1389.86 215.033C1390.79 215.961 1391.25 217.274 1391.25 218.971V220.19H1382.51C1382.51 220.872 1382.62 221.445 1382.83 221.909C1383.05 222.373 1383.33 222.75 1383.68 223.041C1384.03 223.331 1384.41 223.541 1384.83 223.672C1385.27 223.802 1385.71 223.867 1386.14 223.867C1387.01 223.867 1387.68 223.722 1388.14 223.432C1388.62 223.142 1388.96 222.743 1389.17 222.235H1391.04C1390.92 222.787 1390.71 223.273 1390.41 223.693C1390.12 224.114 1389.75 224.469 1389.32 224.76C1388.9 225.035 1388.41 225.246 1387.86 225.391C1387.32 225.536 1386.75 225.608 1386.14 225.608ZM1386.03 215.381C1385.58 215.381 1385.15 215.446 1384.73 215.577C1384.31 215.693 1383.93 215.889 1383.59 216.164C1383.28 216.425 1383.01 216.759 1382.81 217.165C1382.61 217.571 1382.51 218.057 1382.51 218.623H1389.45C1389.43 218.028 1389.33 217.528 1389.14 217.122C1388.97 216.701 1388.73 216.367 1388.43 216.121C1388.12 215.86 1387.76 215.671 1387.34 215.555C1386.93 215.439 1386.5 215.381 1386.03 215.381ZM1396.68 219.537L1392.57 213.858H1394.79L1397.84 218.057L1400.88 213.858H1403.02L1398.9 219.428L1403.23 225.391H1400.97L1397.75 220.886L1394.53 225.391H1392.35L1396.68 219.537Z" fill="black"/>
<rect x="1310.2" y="194.391" width="104" height="45" stroke="#508C6D"/>
<rect x="1310.2" y="291.863" width="106" height="45" fill="#DAEBFB"/>
<path d="M1321.28 316.313H1331.08V318.098H1321.28V316.313ZM1321.28 311.961H1331.08V313.746H1321.28V311.961ZM1344.45 323.081C1343.61 323.081 1342.85 322.943 1342.17 322.667C1341.49 322.392 1340.9 321.971 1340.41 321.405C1339.93 320.825 1339.56 320.1 1339.3 319.229C1339.04 318.359 1338.91 317.322 1338.91 316.118V315.682C1338.91 314.188 1339.06 312.919 1339.36 311.874C1339.67 310.815 1340.08 309.959 1340.6 309.307C1341.13 308.639 1341.73 308.161 1342.43 307.87C1343.13 307.566 1343.87 307.413 1344.67 307.413C1345.85 307.413 1346.83 307.696 1347.63 308.262C1348.44 308.813 1348.98 309.655 1349.24 310.786H1347.2C1346.79 309.756 1345.95 309.241 1344.67 309.241C1344.12 309.241 1343.61 309.336 1343.15 309.524C1342.68 309.713 1342.28 310.025 1341.93 310.46C1341.6 310.895 1341.33 311.475 1341.13 312.201C1340.92 312.926 1340.81 313.833 1340.78 314.921C1340.98 314.573 1341.23 314.275 1341.52 314.029C1341.81 313.767 1342.12 313.564 1342.45 313.419C1342.8 313.26 1343.16 313.144 1343.52 313.071C1343.88 312.999 1344.23 312.962 1344.56 312.962C1346.09 312.962 1347.3 313.39 1348.2 314.246C1349.11 315.088 1349.57 316.299 1349.57 317.88V318.098C1349.57 318.823 1349.43 319.49 1349.16 320.1C1348.89 320.709 1348.53 321.239 1348.07 321.688C1347.6 322.123 1347.06 322.464 1346.44 322.711C1345.81 322.958 1345.15 323.081 1344.45 323.081ZM1344.28 321.253C1345.34 321.253 1346.14 320.985 1346.7 320.448C1347.25 319.911 1347.52 319.135 1347.52 318.12V317.902C1347.52 316.901 1347.25 316.132 1346.7 315.595C1346.14 315.059 1345.34 314.79 1344.28 314.79C1343.22 314.79 1342.42 315.059 1341.87 315.595C1341.31 316.132 1341.04 316.901 1341.04 317.902V318.12C1341.04 319.121 1341.31 319.897 1341.87 320.448C1342.42 320.985 1343.22 321.253 1344.28 321.253ZM1362.74 323.081C1361.97 323.081 1361.26 322.936 1360.59 322.646C1359.94 322.356 1359.36 321.935 1358.87 321.384C1358.39 320.818 1358.01 320.129 1357.72 319.316C1357.44 318.504 1357.3 317.583 1357.3 316.553V316.118C1357.3 314.812 1357.4 313.651 1357.59 312.636C1357.78 311.606 1358.09 310.736 1358.54 310.025C1359.01 309.299 1359.61 308.734 1360.35 308.327C1361.1 307.921 1362.05 307.689 1363.18 307.631C1364.09 307.588 1364.89 307.551 1365.57 307.522C1366.25 307.479 1366.83 307.334 1367.31 307.087V308.937C1367.08 309.067 1366.65 309.169 1366.03 309.241C1365.42 309.314 1364.58 309.365 1363.51 309.394C1362.81 309.408 1362.19 309.495 1361.66 309.655C1361.13 309.814 1360.68 310.068 1360.31 310.416C1359.94 310.765 1359.65 311.221 1359.44 311.787C1359.23 312.339 1359.1 313.02 1359.04 313.833C1359.39 313.064 1359.93 312.455 1360.65 312.005C1361.38 311.555 1362.22 311.33 1363.18 311.33C1363.92 311.33 1364.59 311.461 1365.2 311.722C1365.81 311.969 1366.33 312.324 1366.77 312.788C1367.22 313.252 1367.57 313.825 1367.81 314.507C1368.06 315.175 1368.18 315.929 1368.18 316.77V317.206C1368.18 318.105 1368.05 318.917 1367.77 319.643C1367.49 320.354 1367.12 320.97 1366.64 321.492C1366.16 322 1365.59 322.392 1364.92 322.667C1364.25 322.943 1363.53 323.081 1362.74 323.081ZM1362.74 321.34C1363.76 321.34 1364.59 320.992 1365.25 320.296C1365.9 319.585 1366.23 318.555 1366.23 317.206V316.77C1366.23 316.205 1366.14 315.697 1365.96 315.247C1365.79 314.797 1365.55 314.413 1365.25 314.094C1364.94 313.76 1364.57 313.506 1364.14 313.332C1363.72 313.158 1363.25 313.071 1362.74 313.071C1362.24 313.071 1361.76 313.158 1361.33 313.332C1360.91 313.506 1360.55 313.76 1360.24 314.094C1359.94 314.413 1359.7 314.797 1359.52 315.247C1359.35 315.697 1359.26 316.205 1359.26 316.77V317.206C1359.26 317.844 1359.35 318.424 1359.52 318.946C1359.71 319.454 1359.97 319.889 1360.28 320.252C1360.6 320.6 1360.97 320.869 1361.39 321.057C1361.82 321.246 1362.26 321.34 1362.74 321.34ZM1374.18 323.081C1373.55 323.081 1372.98 322.994 1372.49 322.82C1372.01 322.631 1371.6 322.377 1371.27 322.058C1370.93 321.739 1370.68 321.362 1370.51 320.927C1370.33 320.491 1370.25 320.013 1370.25 319.49C1370.25 318.344 1370.58 317.517 1371.25 317.01C1371.93 316.502 1372.9 316.248 1374.16 316.248H1377.9V315.465C1377.9 314.478 1377.68 313.796 1377.23 313.419C1376.79 313.042 1376.13 312.854 1375.25 312.854C1374.42 312.854 1373.82 313.013 1373.44 313.332C1373.07 313.637 1372.86 313.985 1372.81 314.377H1370.9C1370.93 313.913 1371.05 313.485 1371.27 313.093C1371.5 312.687 1371.8 312.339 1372.18 312.048C1372.57 311.758 1373.04 311.533 1373.57 311.374C1374.11 311.2 1374.71 311.113 1375.36 311.113C1376.72 311.113 1377.8 311.439 1378.6 312.092C1379.41 312.73 1379.82 313.782 1379.82 315.247V319.926C1379.82 320.535 1379.82 321.072 1379.82 321.536C1379.83 321.986 1379.87 322.428 1379.93 322.863H1378.25C1378.21 322.53 1378.18 322.218 1378.17 321.928C1378.15 321.623 1378.14 321.282 1378.14 320.905C1377.84 321.514 1377.35 322.029 1376.66 322.45C1375.98 322.871 1375.16 323.081 1374.18 323.081ZM1374.6 321.34C1375.05 321.34 1375.47 321.282 1375.86 321.166C1376.27 321.035 1376.62 320.854 1376.93 320.622C1377.23 320.375 1377.47 320.078 1377.64 319.73C1377.82 319.382 1377.9 318.975 1377.9 318.511V317.728H1374.49C1373.78 317.728 1373.22 317.873 1372.81 318.163C1372.41 318.439 1372.2 318.881 1372.2 319.49C1372.2 320.027 1372.39 320.47 1372.77 320.818C1373.16 321.166 1373.77 321.34 1374.6 321.34ZM1383.2 311.33H1385.12V320.034L1391.08 311.33H1392.99V322.863H1391.08V314.159L1385.12 322.863H1383.2V311.33ZM1388.1 309.916C1386.97 309.916 1386.14 309.677 1385.62 309.198C1385.09 308.705 1384.83 308.001 1384.83 307.087H1386.71C1386.71 308.073 1387.17 308.567 1388.1 308.567C1389.06 308.567 1389.53 308.073 1389.53 307.087H1391.36C1391.36 308.001 1391.1 308.705 1390.58 309.198C1390.06 309.677 1389.23 309.916 1388.1 309.916ZM1399.12 313.028H1395.18V311.33H1404.97V313.028H1401.03V322.863H1399.12V313.028Z" fill="black"/>
<rect x="1310.2" y="291.863" width="106" height="45" stroke="#63A8E9"/>
<rect x="100.804" y="194.391" width="99" height="45" fill="#ABD4C1"/>
<path d="M111.913 223.391V208.158H113.611V221.78H116.483V208.158H118.18V221.78H121.053V208.158H122.75V223.391H111.913ZM135.363 222.02C135.102 222.252 134.79 222.469 134.427 222.673C134.079 222.876 133.694 223.05 133.274 223.195C132.853 223.34 132.41 223.449 131.946 223.521C131.497 223.608 131.04 223.652 130.575 223.652C129.705 223.652 128.936 223.521 128.269 223.26C127.601 222.984 127.043 222.6 126.593 222.107C126.144 221.599 125.803 220.997 125.57 220.301C125.338 219.604 125.222 218.821 125.222 217.951C125.222 217.037 125.346 216.224 125.592 215.513C125.853 214.803 126.223 214.208 126.702 213.729C127.181 213.25 127.761 212.888 128.443 212.641C129.125 212.38 129.886 212.249 130.728 212.249C131.337 212.249 131.939 212.329 132.534 212.489C133.129 212.648 133.651 212.953 134.101 213.403C134.565 213.838 134.92 214.447 135.167 215.23C135.413 215.999 135.5 217 135.428 218.233H127.007C127.007 219.539 127.355 220.518 128.051 221.171C128.762 221.809 129.705 222.129 130.88 222.129C131.272 222.129 131.656 222.085 132.033 221.998C132.425 221.896 132.795 221.78 133.143 221.65C133.491 221.519 133.796 221.374 134.057 221.215C134.333 221.055 134.543 220.91 134.688 220.779L135.363 222.02ZM130.771 213.686C130.292 213.686 129.836 213.736 129.4 213.838C128.98 213.939 128.602 214.113 128.269 214.36C127.95 214.592 127.681 214.904 127.464 215.296C127.261 215.673 127.13 216.144 127.072 216.71H133.839C133.767 215.753 133.455 215.013 132.904 214.491C132.367 213.954 131.656 213.686 130.771 213.686ZM146.452 214.186C146.118 214.07 145.756 213.976 145.364 213.903C144.987 213.816 144.61 213.773 144.232 213.773C142.811 213.773 141.752 214.106 141.055 214.774C140.359 215.441 140.011 216.5 140.011 217.951C140.011 218.589 140.112 219.162 140.316 219.67C140.519 220.163 140.809 220.584 141.186 220.932C141.563 221.28 142.013 221.548 142.535 221.737C143.072 221.925 143.659 222.02 144.298 222.02C144.979 222.02 145.64 221.904 146.278 221.672C146.931 221.439 147.475 221.135 147.91 220.758L148.671 222.02C148.468 222.194 148.215 222.375 147.91 222.564C147.605 222.752 147.25 222.934 146.844 223.108C146.452 223.267 146.009 223.398 145.516 223.499C145.038 223.601 144.515 223.652 143.949 223.652C143.007 223.652 142.172 223.521 141.447 223.26C140.736 222.984 140.141 222.6 139.663 222.107C139.184 221.599 138.821 220.997 138.575 220.301C138.328 219.59 138.205 218.806 138.205 217.951C138.205 217.037 138.328 216.224 138.575 215.513C138.836 214.803 139.206 214.208 139.684 213.729C140.163 213.25 140.743 212.888 141.425 212.641C142.107 212.38 142.869 212.249 143.71 212.249C144.784 212.249 145.654 212.344 146.321 212.532C147.003 212.721 147.576 212.931 148.04 213.163L148.019 213.229V216.253H146.452V214.186ZM151.078 212.51H161.872V216.58H160.392V213.99H157.324V221.933H159.957V223.391H152.906V221.933H155.626V213.99H152.558V216.58H151.078V212.51ZM172.439 218.56H166.585V223.391H164.909V212.51H166.585V217.037H172.439V212.51H174.136V223.391H172.439V218.56ZM181.112 222.194C181.112 221.73 181.243 221.374 181.504 221.128C181.765 220.866 182.113 220.736 182.549 220.736C183.013 220.736 183.375 220.866 183.637 221.128C183.898 221.374 184.028 221.73 184.028 222.194C184.028 222.615 183.898 222.963 183.637 223.238C183.375 223.514 183.013 223.652 182.549 223.652C182.113 223.652 181.765 223.514 181.504 223.238C181.243 222.963 181.112 222.615 181.112 222.194Z" fill="black"/>
<rect x="100.804" y="194.391" width="99" height="45" stroke="#508C6D"/>
<rect x="101.196" y="291.863" width="198" height="45" fill="#DAEBFB"/>
<path d="M176.046 305.631H184.315V307.241H177.853V311.811C178.099 311.767 178.404 311.724 178.766 311.68C179.129 311.637 179.477 311.615 179.811 311.615C180.551 311.615 181.254 311.688 181.922 311.833C182.589 311.963 183.177 312.195 183.684 312.529C184.192 312.863 184.591 313.32 184.881 313.9C185.186 314.466 185.338 315.184 185.338 316.054C185.338 316.925 185.186 317.679 184.881 318.317C184.576 318.941 184.17 319.456 183.663 319.862C183.155 320.254 182.56 320.551 181.878 320.754C181.211 320.943 180.507 321.037 179.767 321.037C179.521 321.037 179.238 321.03 178.919 321.016C178.614 321.016 178.288 321.001 177.94 320.972C177.606 320.943 177.272 320.907 176.939 320.863C176.619 320.834 176.322 320.783 176.046 320.711V305.631ZM179.985 319.471C180.449 319.471 180.892 319.413 181.312 319.297C181.733 319.166 182.096 318.97 182.4 318.709C182.72 318.448 182.966 318.121 183.14 317.73C183.329 317.338 183.423 316.881 183.423 316.359C183.423 315.692 183.314 315.148 183.097 314.727C182.894 314.306 182.618 313.987 182.27 313.769C181.922 313.537 181.516 313.385 181.051 313.312C180.602 313.225 180.13 313.182 179.637 313.182C179.506 313.182 179.354 313.189 179.18 313.204C179.006 313.218 178.832 313.233 178.658 313.247C178.484 313.262 178.324 313.283 178.179 313.312C178.034 313.327 177.925 313.341 177.853 313.356V319.34C177.954 319.369 178.085 319.391 178.244 319.405C178.418 319.42 178.6 319.434 178.788 319.449C178.991 319.463 179.194 319.471 179.398 319.471C179.601 319.471 179.796 319.471 179.985 319.471ZM189.094 310.832C189.718 310.469 190.421 310.208 191.205 310.048C191.988 309.889 192.757 309.809 193.511 309.809C194.251 309.809 194.853 309.925 195.318 310.157C195.796 310.389 196.166 310.694 196.427 311.071C196.703 311.434 196.884 311.854 196.971 312.333C197.073 312.797 197.124 313.269 197.124 313.748C197.124 314.299 197.109 314.886 197.08 315.51C197.051 316.134 197.029 316.758 197.015 317.382C197.015 318.107 197.058 318.796 197.145 319.449H198.603V320.863H195.709L195.513 319.231H195.405C195.318 319.362 195.187 319.529 195.013 319.732C194.839 319.935 194.607 320.138 194.317 320.341C194.041 320.53 193.7 320.696 193.294 320.842C192.888 320.987 192.409 321.059 191.858 321.059C190.784 321.059 189.936 320.783 189.312 320.232C188.688 319.681 188.376 318.927 188.376 317.969C188.376 317.229 188.536 316.613 188.855 316.12C189.188 315.626 189.66 315.249 190.269 314.988C190.878 314.727 191.611 314.575 192.467 314.531C193.337 314.487 194.309 314.546 195.383 314.705C195.455 314.038 195.463 313.487 195.405 313.051C195.361 312.602 195.245 312.246 195.056 311.985C194.882 311.724 194.628 311.543 194.295 311.441C193.976 311.325 193.577 311.267 193.098 311.267C192.445 311.267 191.821 311.361 191.227 311.55C190.632 311.724 190.102 311.905 189.638 312.094L189.094 310.832ZM192.293 319.601C192.699 319.601 193.076 319.536 193.424 319.405C193.773 319.275 194.077 319.108 194.338 318.905C194.599 318.702 194.817 318.484 194.991 318.252C195.165 318.005 195.296 317.773 195.383 317.556V316.032C194.628 315.902 193.932 315.837 193.294 315.837C192.656 315.837 192.104 315.909 191.64 316.054C191.176 316.185 190.813 316.395 190.552 316.685C190.291 316.975 190.16 317.353 190.16 317.817C190.16 318.296 190.32 318.716 190.639 319.079C190.973 319.427 191.524 319.601 192.293 319.601ZM209.301 314.031L209.366 312.594H209.301L203.186 320.863H201.641V309.983H203.339V317.012L203.273 318.383H203.36L209.432 309.983H210.998V320.863H209.301V314.031ZM204.47 305.588C204.615 306.255 204.862 306.719 205.21 306.98C205.573 307.241 205.986 307.372 206.45 307.372C206.915 307.372 207.328 307.234 207.691 306.958C208.053 306.683 208.3 306.233 208.431 305.609L209.736 306.023C209.606 306.864 209.228 307.51 208.605 307.959C207.995 308.409 207.263 308.634 206.407 308.634C206.015 308.634 205.623 308.583 205.232 308.482C204.855 308.38 204.514 308.228 204.209 308.025C203.904 307.822 203.643 307.56 203.426 307.241C203.208 306.922 203.063 306.545 202.99 306.11L204.47 305.588ZM213.971 309.983H224.764V314.052H223.284V311.463H220.216V319.405H222.849V320.863H215.799V319.405H218.519V311.463H215.451V314.052H213.971V309.983Z" fill="black"/>
<rect x="101.196" y="291.863" width="198" height="45" stroke="#63A8E9"/>
<rect x="299.196" y="291.863" width="198" height="45" fill="#DAEBFB"/>
<path d="M374.046 305.631H382.315V307.241H375.853V311.811C376.099 311.767 376.404 311.724 376.766 311.68C377.129 311.637 377.477 311.615 377.811 311.615C378.551 311.615 379.254 311.688 379.922 311.833C380.589 311.963 381.177 312.195 381.684 312.529C382.192 312.863 382.591 313.32 382.881 313.9C383.186 314.466 383.338 315.184 383.338 316.054C383.338 316.925 383.186 317.679 382.881 318.317C382.576 318.941 382.17 319.456 381.663 319.862C381.155 320.254 380.56 320.551 379.878 320.754C379.211 320.943 378.507 321.037 377.767 321.037C377.521 321.037 377.238 321.03 376.919 321.016C376.614 321.016 376.288 321.001 375.94 320.972C375.606 320.943 375.272 320.907 374.939 320.863C374.619 320.834 374.322 320.783 374.046 320.711V305.631ZM377.985 319.471C378.449 319.471 378.892 319.413 379.312 319.297C379.733 319.166 380.096 318.97 380.4 318.709C380.72 318.448 380.966 318.121 381.14 317.73C381.329 317.338 381.423 316.881 381.423 316.359C381.423 315.692 381.314 315.148 381.097 314.727C380.894 314.306 380.618 313.987 380.27 313.769C379.922 313.537 379.516 313.385 379.051 313.312C378.602 313.225 378.13 313.182 377.637 313.182C377.506 313.182 377.354 313.189 377.18 313.204C377.006 313.218 376.832 313.233 376.658 313.247C376.484 313.262 376.324 313.283 376.179 313.312C376.034 313.327 375.925 313.341 375.853 313.356V319.34C375.954 319.369 376.085 319.391 376.244 319.405C376.418 319.42 376.6 319.434 376.788 319.449C376.991 319.463 377.194 319.471 377.398 319.471C377.601 319.471 377.796 319.471 377.985 319.471ZM387.094 310.832C387.718 310.469 388.421 310.208 389.205 310.048C389.988 309.889 390.757 309.809 391.511 309.809C392.251 309.809 392.853 309.925 393.318 310.157C393.796 310.389 394.166 310.694 394.427 311.071C394.703 311.434 394.884 311.854 394.971 312.333C395.073 312.797 395.124 313.269 395.124 313.748C395.124 314.299 395.109 314.886 395.08 315.51C395.051 316.134 395.029 316.758 395.015 317.382C395.015 318.107 395.058 318.796 395.145 319.449H396.603V320.863H393.709L393.513 319.231H393.405C393.318 319.362 393.187 319.529 393.013 319.732C392.839 319.935 392.607 320.138 392.317 320.341C392.041 320.53 391.7 320.696 391.294 320.842C390.888 320.987 390.409 321.059 389.858 321.059C388.784 321.059 387.936 320.783 387.312 320.232C386.688 319.681 386.376 318.927 386.376 317.969C386.376 317.229 386.536 316.613 386.855 316.12C387.188 315.626 387.66 315.249 388.269 314.988C388.878 314.727 389.611 314.575 390.467 314.531C391.337 314.487 392.309 314.546 393.383 314.705C393.455 314.038 393.463 313.487 393.405 313.051C393.361 312.602 393.245 312.246 393.056 311.985C392.882 311.724 392.628 311.543 392.295 311.441C391.976 311.325 391.577 311.267 391.098 311.267C390.445 311.267 389.821 311.361 389.227 311.55C388.632 311.724 388.102 311.905 387.638 312.094L387.094 310.832ZM390.293 319.601C390.699 319.601 391.076 319.536 391.424 319.405C391.773 319.275 392.077 319.108 392.338 318.905C392.599 318.702 392.817 318.484 392.991 318.252C393.165 318.005 393.296 317.773 393.383 317.556V316.032C392.628 315.902 391.932 315.837 391.294 315.837C390.656 315.837 390.104 315.909 389.64 316.054C389.176 316.185 388.813 316.395 388.552 316.685C388.291 316.975 388.16 317.353 388.16 317.817C388.16 318.296 388.32 318.716 388.639 319.079C388.973 319.427 389.524 319.601 390.293 319.601ZM407.301 314.031L407.366 312.594H407.301L401.186 320.863H399.641V309.983H401.339V317.012L401.273 318.383H401.36L407.432 309.983H408.998V320.863H407.301V314.031ZM402.47 305.588C402.615 306.255 402.862 306.719 403.21 306.98C403.573 307.241 403.986 307.372 404.45 307.372C404.915 307.372 405.328 307.234 405.691 306.958C406.053 306.683 406.3 306.233 406.431 305.609L407.736 306.023C407.606 306.864 407.228 307.51 406.605 307.959C405.995 308.409 405.263 308.634 404.407 308.634C404.015 308.634 403.623 308.583 403.232 308.482C402.855 308.38 402.514 308.228 402.209 308.025C401.904 307.822 401.643 307.56 401.426 307.241C401.208 306.922 401.063 306.545 400.99 306.11L402.47 305.588ZM411.971 309.983H422.764V314.052H421.284V311.463H418.216V319.405H420.849V320.863H413.799V319.405H416.519V311.463H413.451V314.052H411.971V309.983Z" fill="black"/>
<rect x="299.196" y="291.863" width="198" height="45" stroke="#63A8E9"/>
<rect x="497.196" y="291.863" width="198" height="45" fill="#DAEBFB"/>
<path d="M572.046 305.631H580.315V307.241H573.853V311.811C574.099 311.767 574.404 311.724 574.766 311.68C575.129 311.637 575.477 311.615 575.811 311.615C576.551 311.615 577.254 311.688 577.922 311.833C578.589 311.963 579.177 312.195 579.684 312.529C580.192 312.863 580.591 313.32 580.881 313.9C581.186 314.466 581.338 315.184 581.338 316.054C581.338 316.925 581.186 317.679 580.881 318.317C580.576 318.941 580.17 319.456 579.663 319.862C579.155 320.254 578.56 320.551 577.878 320.754C577.211 320.943 576.507 321.037 575.767 321.037C575.521 321.037 575.238 321.03 574.919 321.016C574.614 321.016 574.288 321.001 573.94 320.972C573.606 320.943 573.272 320.907 572.939 320.863C572.619 320.834 572.322 320.783 572.046 320.711V305.631ZM575.985 319.471C576.449 319.471 576.892 319.413 577.312 319.297C577.733 319.166 578.096 318.97 578.4 318.709C578.72 318.448 578.966 318.121 579.14 317.73C579.329 317.338 579.423 316.881 579.423 316.359C579.423 315.692 579.314 315.148 579.097 314.727C578.894 314.306 578.618 313.987 578.27 313.769C577.922 313.537 577.516 313.385 577.051 313.312C576.602 313.225 576.13 313.182 575.637 313.182C575.506 313.182 575.354 313.189 575.18 313.204C575.006 313.218 574.832 313.233 574.658 313.247C574.484 313.262 574.324 313.283 574.179 313.312C574.034 313.327 573.925 313.341 573.853 313.356V319.34C573.954 319.369 574.085 319.391 574.244 319.405C574.418 319.42 574.6 319.434 574.788 319.449C574.991 319.463 575.194 319.471 575.398 319.471C575.601 319.471 575.796 319.471 575.985 319.471ZM585.094 310.832C585.718 310.469 586.421 310.208 587.205 310.048C587.988 309.889 588.757 309.809 589.511 309.809C590.251 309.809 590.853 309.925 591.318 310.157C591.796 310.389 592.166 310.694 592.427 311.071C592.703 311.434 592.884 311.854 592.971 312.333C593.073 312.797 593.124 313.269 593.124 313.748C593.124 314.299 593.109 314.886 593.08 315.51C593.051 316.134 593.029 316.758 593.015 317.382C593.015 318.107 593.058 318.796 593.145 319.449H594.603V320.863H591.709L591.513 319.231H591.405C591.318 319.362 591.187 319.529 591.013 319.732C590.839 319.935 590.607 320.138 590.317 320.341C590.041 320.53 589.7 320.696 589.294 320.842C588.888 320.987 588.409 321.059 587.858 321.059C586.784 321.059 585.936 320.783 585.312 320.232C584.688 319.681 584.376 318.927 584.376 317.969C584.376 317.229 584.536 316.613 584.855 316.12C585.188 315.626 585.66 315.249 586.269 314.988C586.878 314.727 587.611 314.575 588.467 314.531C589.337 314.487 590.309 314.546 591.383 314.705C591.455 314.038 591.463 313.487 591.405 313.051C591.361 312.602 591.245 312.246 591.056 311.985C590.882 311.724 590.628 311.543 590.295 311.441C589.976 311.325 589.577 311.267 589.098 311.267C588.445 311.267 587.821 311.361 587.227 311.55C586.632 311.724 586.102 311.905 585.638 312.094L585.094 310.832ZM588.293 319.601C588.699 319.601 589.076 319.536 589.424 319.405C589.773 319.275 590.077 319.108 590.338 318.905C590.599 318.702 590.817 318.484 590.991 318.252C591.165 318.005 591.296 317.773 591.383 317.556V316.032C590.628 315.902 589.932 315.837 589.294 315.837C588.656 315.837 588.104 315.909 587.64 316.054C587.176 316.185 586.813 316.395 586.552 316.685C586.291 316.975 586.16 317.353 586.16 317.817C586.16 318.296 586.32 318.716 586.639 319.079C586.973 319.427 587.524 319.601 588.293 319.601ZM605.301 314.031L605.366 312.594H605.301L599.186 320.863H597.641V309.983H599.339V317.012L599.273 318.383H599.36L605.432 309.983H606.998V320.863H605.301V314.031ZM600.47 305.588C600.615 306.255 600.862 306.719 601.21 306.98C601.573 307.241 601.986 307.372 602.45 307.372C602.915 307.372 603.328 307.234 603.691 306.958C604.053 306.683 604.3 306.233 604.431 305.609L605.736 306.023C605.606 306.864 605.228 307.51 604.605 307.959C603.995 308.409 603.263 308.634 602.407 308.634C602.015 308.634 601.623 308.583 601.232 308.482C600.855 308.38 600.514 308.228 600.209 308.025C599.904 307.822 599.643 307.56 599.426 307.241C599.208 306.922 599.063 306.545 598.99 306.11L600.47 305.588ZM609.971 309.983H620.764V314.052H619.284V311.463H616.216V319.405H618.849V320.863H611.799V319.405H614.519V311.463H611.451V314.052H609.971V309.983Z" fill="black"/>
<rect x="497.196" y="291.863" width="198" height="45" stroke="#63A8E9"/>
<rect x="695.196" y="291.863" width="198" height="45" fill="#DAEBFB"/>
<path d="M770.046 305.631H778.315V307.241H771.853V311.811C772.099 311.767 772.404 311.724 772.766 311.68C773.129 311.637 773.477 311.615 773.811 311.615C774.551 311.615 775.254 311.688 775.922 311.833C776.589 311.963 777.177 312.195 777.684 312.529C778.192 312.863 778.591 313.32 778.881 313.9C779.186 314.466 779.338 315.184 779.338 316.054C779.338 316.925 779.186 317.679 778.881 318.317C778.576 318.941 778.17 319.456 777.663 319.862C777.155 320.254 776.56 320.551 775.878 320.754C775.211 320.943 774.507 321.037 773.767 321.037C773.521 321.037 773.238 321.03 772.919 321.016C772.614 321.016 772.288 321.001 771.94 320.972C771.606 320.943 771.272 320.907 770.939 320.863C770.619 320.834 770.322 320.783 770.046 320.711V305.631ZM773.985 319.471C774.449 319.471 774.892 319.413 775.312 319.297C775.733 319.166 776.096 318.97 776.4 318.709C776.72 318.448 776.966 318.121 777.14 317.73C777.329 317.338 777.423 316.881 777.423 316.359C777.423 315.692 777.314 315.148 777.097 314.727C776.894 314.306 776.618 313.987 776.27 313.769C775.922 313.537 775.516 313.385 775.051 313.312C774.602 313.225 774.13 313.182 773.637 313.182C773.506 313.182 773.354 313.189 773.18 313.204C773.006 313.218 772.832 313.233 772.658 313.247C772.484 313.262 772.324 313.283 772.179 313.312C772.034 313.327 771.925 313.341 771.853 313.356V319.34C771.954 319.369 772.085 319.391 772.244 319.405C772.418 319.42 772.6 319.434 772.788 319.449C772.991 319.463 773.194 319.471 773.398 319.471C773.601 319.471 773.796 319.471 773.985 319.471ZM783.094 310.832C783.718 310.469 784.421 310.208 785.205 310.048C785.988 309.889 786.757 309.809 787.511 309.809C788.251 309.809 788.853 309.925 789.318 310.157C789.796 310.389 790.166 310.694 790.427 311.071C790.703 311.434 790.884 311.854 790.971 312.333C791.073 312.797 791.124 313.269 791.124 313.748C791.124 314.299 791.109 314.886 791.08 315.51C791.051 316.134 791.029 316.758 791.015 317.382C791.015 318.107 791.058 318.796 791.145 319.449H792.603V320.863H789.709L789.513 319.231H789.405C789.318 319.362 789.187 319.529 789.013 319.732C788.839 319.935 788.607 320.138 788.317 320.341C788.041 320.53 787.7 320.696 787.294 320.842C786.888 320.987 786.409 321.059 785.858 321.059C784.784 321.059 783.936 320.783 783.312 320.232C782.688 319.681 782.376 318.927 782.376 317.969C782.376 317.229 782.536 316.613 782.855 316.12C783.188 315.626 783.66 315.249 784.269 314.988C784.878 314.727 785.611 314.575 786.467 314.531C787.337 314.487 788.309 314.546 789.383 314.705C789.455 314.038 789.463 313.487 789.405 313.051C789.361 312.602 789.245 312.246 789.056 311.985C788.882 311.724 788.628 311.543 788.295 311.441C787.976 311.325 787.577 311.267 787.098 311.267C786.445 311.267 785.821 311.361 785.227 311.55C784.632 311.724 784.102 311.905 783.638 312.094L783.094 310.832ZM786.293 319.601C786.699 319.601 787.076 319.536 787.424 319.405C787.773 319.275 788.077 319.108 788.338 318.905C788.599 318.702 788.817 318.484 788.991 318.252C789.165 318.005 789.296 317.773 789.383 317.556V316.032C788.628 315.902 787.932 315.837 787.294 315.837C786.656 315.837 786.104 315.909 785.64 316.054C785.176 316.185 784.813 316.395 784.552 316.685C784.291 316.975 784.16 317.353 784.16 317.817C784.16 318.296 784.32 318.716 784.639 319.079C784.973 319.427 785.524 319.601 786.293 319.601ZM803.301 314.031L803.366 312.594H803.301L797.186 320.863H795.641V309.983H797.339V317.012L797.273 318.383H797.36L803.432 309.983H804.998V320.863H803.301V314.031ZM798.47 305.588C798.615 306.255 798.862 306.719 799.21 306.98C799.573 307.241 799.986 307.372 800.45 307.372C800.915 307.372 801.328 307.234 801.691 306.958C802.053 306.683 802.3 306.233 802.431 305.609L803.736 306.023C803.606 306.864 803.228 307.51 802.605 307.959C801.995 308.409 801.263 308.634 800.407 308.634C800.015 308.634 799.623 308.583 799.232 308.482C798.855 308.38 798.514 308.228 798.209 308.025C797.904 307.822 797.643 307.56 797.426 307.241C797.208 306.922 797.063 306.545 796.99 306.11L798.47 305.588ZM807.971 309.983H818.764V314.052H817.284V311.463H814.216V319.405H816.849V320.863H809.799V319.405H812.519V311.463H809.451V314.052H807.971V309.983Z" fill="black"/>
<rect x="695.196" y="291.863" width="198" height="45" stroke="#63A8E9"/>
<rect x="893.196" y="291.863" width="198" height="45" fill="#DAEBFB"/>
<path d="M968.046 305.631H976.315V307.241H969.853V311.811C970.099 311.767 970.404 311.724 970.766 311.68C971.129 311.637 971.477 311.615 971.811 311.615C972.551 311.615 973.254 311.688 973.922 311.833C974.589 311.963 975.177 312.195 975.684 312.529C976.192 312.863 976.591 313.32 976.881 313.9C977.186 314.466 977.338 315.184 977.338 316.054C977.338 316.925 977.186 317.679 976.881 318.317C976.576 318.941 976.17 319.456 975.663 319.862C975.155 320.254 974.56 320.551 973.878 320.754C973.211 320.943 972.507 321.037 971.767 321.037C971.521 321.037 971.238 321.03 970.919 321.016C970.614 321.016 970.288 321.001 969.94 320.972C969.606 320.943 969.272 320.907 968.939 320.863C968.619 320.834 968.322 320.783 968.046 320.711V305.631ZM971.985 319.471C972.449 319.471 972.892 319.413 973.312 319.297C973.733 319.166 974.096 318.97 974.4 318.709C974.72 318.448 974.966 318.121 975.14 317.73C975.329 317.338 975.423 316.881 975.423 316.359C975.423 315.692 975.314 315.148 975.097 314.727C974.894 314.306 974.618 313.987 974.27 313.769C973.922 313.537 973.516 313.385 973.051 313.312C972.602 313.225 972.13 313.182 971.637 313.182C971.506 313.182 971.354 313.189 971.18 313.204C971.006 313.218 970.832 313.233 970.658 313.247C970.484 313.262 970.324 313.283 970.179 313.312C970.034 313.327 969.925 313.341 969.853 313.356V319.34C969.954 319.369 970.085 319.391 970.244 319.405C970.418 319.42 970.6 319.434 970.788 319.449C970.991 319.463 971.194 319.471 971.398 319.471C971.601 319.471 971.796 319.471 971.985 319.471ZM981.094 310.832C981.718 310.469 982.421 310.208 983.205 310.048C983.988 309.889 984.757 309.809 985.511 309.809C986.251 309.809 986.853 309.925 987.318 310.157C987.796 310.389 988.166 310.694 988.427 311.071C988.703 311.434 988.884 311.854 988.971 312.333C989.073 312.797 989.124 313.269 989.124 313.748C989.124 314.299 989.109 314.886 989.08 315.51C989.051 316.134 989.029 316.758 989.015 317.382C989.015 318.107 989.058 318.796 989.145 319.449H990.603V320.863H987.709L987.513 319.231H987.405C987.318 319.362 987.187 319.529 987.013 319.732C986.839 319.935 986.607 320.138 986.317 320.341C986.041 320.53 985.7 320.696 985.294 320.842C984.888 320.987 984.409 321.059 983.858 321.059C982.784 321.059 981.936 320.783 981.312 320.232C980.688 319.681 980.376 318.927 980.376 317.969C980.376 317.229 980.536 316.613 980.855 316.12C981.188 315.626 981.66 315.249 982.269 314.988C982.878 314.727 983.611 314.575 984.467 314.531C985.337 314.487 986.309 314.546 987.383 314.705C987.455 314.038 987.463 313.487 987.405 313.051C987.361 312.602 987.245 312.246 987.056 311.985C986.882 311.724 986.628 311.543 986.295 311.441C985.976 311.325 985.577 311.267 985.098 311.267C984.445 311.267 983.821 311.361 983.227 311.55C982.632 311.724 982.102 311.905 981.638 312.094L981.094 310.832ZM984.293 319.601C984.699 319.601 985.076 319.536 985.424 319.405C985.773 319.275 986.077 319.108 986.338 318.905C986.599 318.702 986.817 318.484 986.991 318.252C987.165 318.005 987.296 317.773 987.383 317.556V316.032C986.628 315.902 985.932 315.837 985.294 315.837C984.656 315.837 984.104 315.909 983.64 316.054C983.176 316.185 982.813 316.395 982.552 316.685C982.291 316.975 982.16 317.353 982.16 317.817C982.16 318.296 982.32 318.716 982.639 319.079C982.973 319.427 983.524 319.601 984.293 319.601ZM1001.3 314.031L1001.37 312.594H1001.3L995.186 320.863H993.641V309.983H995.339V317.012L995.273 318.383H995.36L1001.43 309.983H1003V320.863H1001.3V314.031ZM996.47 305.588C996.615 306.255 996.862 306.719 997.21 306.98C997.573 307.241 997.986 307.372 998.45 307.372C998.915 307.372 999.328 307.234 999.691 306.958C1000.05 306.683 1000.3 306.233 1000.43 305.609L1001.74 306.023C1001.61 306.864 1001.23 307.51 1000.6 307.959C999.995 308.409 999.263 308.634 998.407 308.634C998.015 308.634 997.623 308.583 997.232 308.482C996.855 308.38 996.514 308.228 996.209 308.025C995.904 307.822 995.643 307.56 995.426 307.241C995.208 306.922 995.063 306.545 994.99 306.11L996.47 305.588ZM1005.97 309.983H1016.76V314.052H1015.28V311.463H1012.22V319.405H1014.85V320.863H1007.8V319.405H1010.52V311.463H1007.45V314.052H1005.97V309.983Z" fill="black"/>
<rect x="893.196" y="291.863" width="198" height="45" stroke="#63A8E9"/>
<rect x="1091.2" y="291.863" width="198" height="45" fill="#DAEBFB"/>
<path d="M1166.05 305.631H1174.32V307.241H1167.85V311.811C1168.1 311.767 1168.4 311.724 1168.77 311.68C1169.13 311.637 1169.48 311.615 1169.81 311.615C1170.55 311.615 1171.25 311.688 1171.92 311.833C1172.59 311.963 1173.18 312.195 1173.68 312.529C1174.19 312.863 1174.59 313.32 1174.88 313.9C1175.19 314.466 1175.34 315.184 1175.34 316.054C1175.34 316.925 1175.19 317.679 1174.88 318.317C1174.58 318.941 1174.17 319.456 1173.66 319.862C1173.15 320.254 1172.56 320.551 1171.88 320.754C1171.21 320.943 1170.51 321.037 1169.77 321.037C1169.52 321.037 1169.24 321.03 1168.92 321.016C1168.61 321.016 1168.29 321.001 1167.94 320.972C1167.61 320.943 1167.27 320.907 1166.94 320.863C1166.62 320.834 1166.32 320.783 1166.05 320.711V305.631ZM1169.99 319.471C1170.45 319.471 1170.89 319.413 1171.31 319.297C1171.73 319.166 1172.1 318.97 1172.4 318.709C1172.72 318.448 1172.97 318.121 1173.14 317.73C1173.33 317.338 1173.42 316.881 1173.42 316.359C1173.42 315.692 1173.31 315.148 1173.1 314.727C1172.89 314.306 1172.62 313.987 1172.27 313.769C1171.92 313.537 1171.52 313.385 1171.05 313.312C1170.6 313.225 1170.13 313.182 1169.64 313.182C1169.51 313.182 1169.35 313.189 1169.18 313.204C1169.01 313.218 1168.83 313.233 1168.66 313.247C1168.48 313.262 1168.32 313.283 1168.18 313.312C1168.03 313.327 1167.93 313.341 1167.85 313.356V319.34C1167.95 319.369 1168.08 319.391 1168.24 319.405C1168.42 319.42 1168.6 319.434 1168.79 319.449C1168.99 319.463 1169.19 319.471 1169.4 319.471C1169.6 319.471 1169.8 319.471 1169.99 319.471ZM1179.09 310.832C1179.72 310.469 1180.42 310.208 1181.2 310.048C1181.99 309.889 1182.76 309.809 1183.51 309.809C1184.25 309.809 1184.85 309.925 1185.32 310.157C1185.8 310.389 1186.17 310.694 1186.43 311.071C1186.7 311.434 1186.88 311.854 1186.97 312.333C1187.07 312.797 1187.12 313.269 1187.12 313.748C1187.12 314.299 1187.11 314.886 1187.08 315.51C1187.05 316.134 1187.03 316.758 1187.01 317.382C1187.01 318.107 1187.06 318.796 1187.15 319.449H1188.6V320.863H1185.71L1185.51 319.231H1185.4C1185.32 319.362 1185.19 319.529 1185.01 319.732C1184.84 319.935 1184.61 320.138 1184.32 320.341C1184.04 320.53 1183.7 320.696 1183.29 320.842C1182.89 320.987 1182.41 321.059 1181.86 321.059C1180.78 321.059 1179.94 320.783 1179.31 320.232C1178.69 319.681 1178.38 318.927 1178.38 317.969C1178.38 317.229 1178.54 316.613 1178.85 316.12C1179.19 315.626 1179.66 315.249 1180.27 314.988C1180.88 314.727 1181.61 314.575 1182.47 314.531C1183.34 314.487 1184.31 314.546 1185.38 314.705C1185.46 314.038 1185.46 313.487 1185.4 313.051C1185.36 312.602 1185.25 312.246 1185.06 311.985C1184.88 311.724 1184.63 311.543 1184.29 311.441C1183.98 311.325 1183.58 311.267 1183.1 311.267C1182.45 311.267 1181.82 311.361 1181.23 311.55C1180.63 311.724 1180.1 311.905 1179.64 312.094L1179.09 310.832ZM1182.29 319.601C1182.7 319.601 1183.08 319.536 1183.42 319.405C1183.77 319.275 1184.08 319.108 1184.34 318.905C1184.6 318.702 1184.82 318.484 1184.99 318.252C1185.17 318.005 1185.3 317.773 1185.38 317.556V316.032C1184.63 315.902 1183.93 315.837 1183.29 315.837C1182.66 315.837 1182.1 315.909 1181.64 316.054C1181.18 316.185 1180.81 316.395 1180.55 316.685C1180.29 316.975 1180.16 317.353 1180.16 317.817C1180.16 318.296 1180.32 318.716 1180.64 319.079C1180.97 319.427 1181.52 319.601 1182.29 319.601ZM1199.3 314.031L1199.37 312.594H1199.3L1193.19 320.863H1191.64V309.983H1193.34V317.012L1193.27 318.383H1193.36L1199.43 309.983H1201V320.863H1199.3V314.031ZM1194.47 305.588C1194.62 306.255 1194.86 306.719 1195.21 306.98C1195.57 307.241 1195.99 307.372 1196.45 307.372C1196.91 307.372 1197.33 307.234 1197.69 306.958C1198.05 306.683 1198.3 306.233 1198.43 305.609L1199.74 306.023C1199.61 306.864 1199.23 307.51 1198.6 307.959C1198 308.409 1197.26 308.634 1196.41 308.634C1196.02 308.634 1195.62 308.583 1195.23 308.482C1194.85 308.38 1194.51 308.228 1194.21 308.025C1193.9 307.822 1193.64 307.56 1193.43 307.241C1193.21 306.922 1193.06 306.545 1192.99 306.11L1194.47 305.588ZM1203.97 309.983H1214.76V314.052H1213.28V311.463H1210.22V319.405H1212.85V320.863H1205.8V319.405H1208.52V311.463H1205.45V314.052H1203.97V309.983Z" fill="black"/>
<rect x="1091.2" y="291.863" width="198" height="45" stroke="#63A8E9"/>
<rect x="199.804" y="194.391" width="99" height="45" fill="#ABD4C1"/>
<path d="M210.913 223.391V208.158H212.611V221.78H215.483V208.158H217.18V221.78H220.053V208.158H221.75V223.391H210.913ZM234.363 222.02C234.102 222.252 233.79 222.469 233.427 222.673C233.079 222.876 232.694 223.05 232.274 223.195C231.853 223.34 231.41 223.449 230.946 223.521C230.497 223.608 230.04 223.652 229.575 223.652C228.705 223.652 227.936 223.521 227.269 223.26C226.601 222.984 226.043 222.6 225.593 222.107C225.144 221.599 224.803 220.997 224.57 220.301C224.338 219.604 224.222 218.821 224.222 217.951C224.222 217.037 224.346 216.224 224.592 215.513C224.853 214.803 225.223 214.208 225.702 213.729C226.181 213.25 226.761 212.888 227.443 212.641C228.125 212.38 228.886 212.249 229.728 212.249C230.337 212.249 230.939 212.329 231.534 212.489C232.129 212.648 232.651 212.953 233.101 213.403C233.565 213.838 233.92 214.447 234.167 215.23C234.413 215.999 234.5 217 234.428 218.233H226.007C226.007 219.539 226.355 220.518 227.051 221.171C227.762 221.809 228.705 222.129 229.88 222.129C230.272 222.129 230.656 222.085 231.033 221.998C231.425 221.896 231.795 221.78 232.143 221.65C232.491 221.519 232.796 221.374 233.057 221.215C233.333 221.055 233.543 220.91 233.688 220.779L234.363 222.02ZM229.771 213.686C229.292 213.686 228.836 213.736 228.4 213.838C227.98 213.939 227.602 214.113 227.269 214.36C226.95 214.592 226.681 214.904 226.464 215.296C226.261 215.673 226.13 216.144 226.072 216.71H232.839C232.767 215.753 232.455 215.013 231.904 214.491C231.367 213.954 230.656 213.686 229.771 213.686ZM245.452 214.186C245.118 214.07 244.756 213.976 244.364 213.903C243.987 213.816 243.61 213.773 243.232 213.773C241.811 213.773 240.752 214.106 240.055 214.774C239.359 215.441 239.011 216.5 239.011 217.951C239.011 218.589 239.112 219.162 239.316 219.67C239.519 220.163 239.809 220.584 240.186 220.932C240.563 221.28 241.013 221.548 241.535 221.737C242.072 221.925 242.659 222.02 243.298 222.02C243.979 222.02 244.64 221.904 245.278 221.672C245.931 221.439 246.475 221.135 246.91 220.758L247.671 222.02C247.468 222.194 247.215 222.375 246.91 222.564C246.605 222.752 246.25 222.934 245.844 223.108C245.452 223.267 245.009 223.398 244.516 223.499C244.038 223.601 243.515 223.652 242.949 223.652C242.007 223.652 241.172 223.521 240.447 223.26C239.736 222.984 239.141 222.6 238.663 222.107C238.184 221.599 237.821 220.997 237.575 220.301C237.328 219.59 237.205 218.806 237.205 217.951C237.205 217.037 237.328 216.224 237.575 215.513C237.836 214.803 238.206 214.208 238.684 213.729C239.163 213.25 239.743 212.888 240.425 212.641C241.107 212.38 241.869 212.249 242.71 212.249C243.784 212.249 244.654 212.344 245.321 212.532C246.003 212.721 246.576 212.931 247.04 213.163L247.019 213.229V216.253H245.452V214.186ZM250.078 212.51H260.872V216.58H259.392V213.99H256.324V221.933H258.957V223.391H251.906V221.933H254.626V213.99H251.558V216.58H250.078V212.51ZM271.439 218.56H265.585V223.391H263.909V212.51H265.585V217.037H271.439V212.51H273.136V223.391H271.439V218.56ZM280.112 222.194C280.112 221.73 280.243 221.374 280.504 221.128C280.765 220.866 281.113 220.736 281.549 220.736C282.013 220.736 282.375 220.866 282.637 221.128C282.898 221.374 283.028 221.73 283.028 222.194C283.028 222.615 282.898 222.963 282.637 223.238C282.375 223.514 282.013 223.652 281.549 223.652C281.113 223.652 280.765 223.514 280.504 223.238C280.243 222.963 280.112 222.615 280.112 222.194Z" fill="black"/>
<rect x="199.804" y="194.391" width="99" height="45" stroke="#508C6D"/>
<rect x="298.804" y="194.391" width="99" height="45" fill="#ABD4C1"/>
<path d="M309.913 223.391V208.158H311.611V221.78H314.483V208.158H316.18V221.78H319.053V208.158H320.75V223.391H309.913ZM333.363 222.02C333.102 222.252 332.79 222.469 332.427 222.673C332.079 222.876 331.694 223.05 331.274 223.195C330.853 223.34 330.41 223.449 329.946 223.521C329.497 223.608 329.04 223.652 328.575 223.652C327.705 223.652 326.936 223.521 326.269 223.26C325.601 222.984 325.043 222.6 324.593 222.107C324.144 221.599 323.803 220.997 323.57 220.301C323.338 219.604 323.222 218.821 323.222 217.951C323.222 217.037 323.346 216.224 323.592 215.513C323.853 214.803 324.223 214.208 324.702 213.729C325.181 213.25 325.761 212.888 326.443 212.641C327.125 212.38 327.886 212.249 328.728 212.249C329.337 212.249 329.939 212.329 330.534 212.489C331.129 212.648 331.651 212.953 332.101 213.403C332.565 213.838 332.92 214.447 333.167 215.23C333.413 215.999 333.5 217 333.428 218.233H325.007C325.007 219.539 325.355 220.518 326.051 221.171C326.762 221.809 327.705 222.129 328.88 222.129C329.272 222.129 329.656 222.085 330.033 221.998C330.425 221.896 330.795 221.78 331.143 221.65C331.491 221.519 331.796 221.374 332.057 221.215C332.333 221.055 332.543 220.91 332.688 220.779L333.363 222.02ZM328.771 213.686C328.292 213.686 327.836 213.736 327.4 213.838C326.98 213.939 326.602 214.113 326.269 214.36C325.95 214.592 325.681 214.904 325.464 215.296C325.261 215.673 325.13 216.144 325.072 216.71H331.839C331.767 215.753 331.455 215.013 330.904 214.491C330.367 213.954 329.656 213.686 328.771 213.686ZM344.452 214.186C344.118 214.07 343.756 213.976 343.364 213.903C342.987 213.816 342.61 213.773 342.232 213.773C340.811 213.773 339.752 214.106 339.055 214.774C338.359 215.441 338.011 216.5 338.011 217.951C338.011 218.589 338.112 219.162 338.316 219.67C338.519 220.163 338.809 220.584 339.186 220.932C339.563 221.28 340.013 221.548 340.535 221.737C341.072 221.925 341.659 222.02 342.298 222.02C342.979 222.02 343.64 221.904 344.278 221.672C344.931 221.439 345.475 221.135 345.91 220.758L346.671 222.02C346.468 222.194 346.215 222.375 345.91 222.564C345.605 222.752 345.25 222.934 344.844 223.108C344.452 223.267 344.009 223.398 343.516 223.499C343.038 223.601 342.515 223.652 341.949 223.652C341.007 223.652 340.172 223.521 339.447 223.26C338.736 222.984 338.141 222.6 337.663 222.107C337.184 221.599 336.821 220.997 336.575 220.301C336.328 219.59 336.205 218.806 336.205 217.951C336.205 217.037 336.328 216.224 336.575 215.513C336.836 214.803 337.206 214.208 337.684 213.729C338.163 213.25 338.743 212.888 339.425 212.641C340.107 212.38 340.869 212.249 341.71 212.249C342.784 212.249 343.654 212.344 344.321 212.532C345.003 212.721 345.576 212.931 346.04 213.163L346.019 213.229V216.253H344.452V214.186ZM349.078 212.51H359.872V216.58H358.392V213.99H355.324V221.933H357.957V223.391H350.906V221.933H353.626V213.99H350.558V216.58H349.078V212.51ZM370.439 218.56H364.585V223.391H362.909V212.51H364.585V217.037H370.439V212.51H372.136V223.391H370.439V218.56ZM379.112 222.194C379.112 221.73 379.243 221.374 379.504 221.128C379.765 220.866 380.113 220.736 380.549 220.736C381.013 220.736 381.375 220.866 381.637 221.128C381.898 221.374 382.028 221.73 382.028 222.194C382.028 222.615 381.898 222.963 381.637 223.238C381.375 223.514 381.013 223.652 380.549 223.652C380.113 223.652 379.765 223.514 379.504 223.238C379.243 222.963 379.112 222.615 379.112 222.194Z" fill="black"/>
<rect x="298.804" y="194.391" width="99" height="45" stroke="#508C6D"/>
<rect x="397.804" y="194.391" width="99" height="45" fill="#ABD4C1"/>
<path d="M408.913 223.391V208.158H410.611V221.78H413.483V208.158H415.18V221.78H418.053V208.158H419.75V223.391H408.913ZM432.363 222.02C432.102 222.252 431.79 222.469 431.427 222.673C431.079 222.876 430.694 223.05 430.274 223.195C429.853 223.34 429.41 223.449 428.946 223.521C428.497 223.608 428.04 223.652 427.575 223.652C426.705 223.652 425.936 223.521 425.269 223.26C424.601 222.984 424.043 222.6 423.593 222.107C423.144 221.599 422.803 220.997 422.57 220.301C422.338 219.604 422.222 218.821 422.222 217.951C422.222 217.037 422.346 216.224 422.592 215.513C422.853 214.803 423.223 214.208 423.702 213.729C424.181 213.25 424.761 212.888 425.443 212.641C426.125 212.38 426.886 212.249 427.728 212.249C428.337 212.249 428.939 212.329 429.534 212.489C430.129 212.648 430.651 212.953 431.101 213.403C431.565 213.838 431.92 214.447 432.167 215.23C432.413 215.999 432.5 217 432.428 218.233H424.007C424.007 219.539 424.355 220.518 425.051 221.171C425.762 221.809 426.705 222.129 427.88 222.129C428.272 222.129 428.656 222.085 429.033 221.998C429.425 221.896 429.795 221.78 430.143 221.65C430.491 221.519 430.796 221.374 431.057 221.215C431.333 221.055 431.543 220.91 431.688 220.779L432.363 222.02ZM427.771 213.686C427.292 213.686 426.836 213.736 426.4 213.838C425.98 213.939 425.602 214.113 425.269 214.36C424.95 214.592 424.681 214.904 424.464 215.296C424.261 215.673 424.13 216.144 424.072 216.71H430.839C430.767 215.753 430.455 215.013 429.904 214.491C429.367 213.954 428.656 213.686 427.771 213.686ZM443.452 214.186C443.118 214.07 442.756 213.976 442.364 213.903C441.987 213.816 441.61 213.773 441.232 213.773C439.811 213.773 438.752 214.106 438.055 214.774C437.359 215.441 437.011 216.5 437.011 217.951C437.011 218.589 437.112 219.162 437.316 219.67C437.519 220.163 437.809 220.584 438.186 220.932C438.563 221.28 439.013 221.548 439.535 221.737C440.072 221.925 440.659 222.02 441.298 222.02C441.979 222.02 442.64 221.904 443.278 221.672C443.931 221.439 444.475 221.135 444.91 220.758L445.671 222.02C445.468 222.194 445.215 222.375 444.91 222.564C444.605 222.752 444.25 222.934 443.844 223.108C443.452 223.267 443.009 223.398 442.516 223.499C442.038 223.601 441.515 223.652 440.949 223.652C440.007 223.652 439.172 223.521 438.447 223.26C437.736 222.984 437.141 222.6 436.663 222.107C436.184 221.599 435.821 220.997 435.575 220.301C435.328 219.59 435.205 218.806 435.205 217.951C435.205 217.037 435.328 216.224 435.575 215.513C435.836 214.803 436.206 214.208 436.684 213.729C437.163 213.25 437.743 212.888 438.425 212.641C439.107 212.38 439.869 212.249 440.71 212.249C441.784 212.249 442.654 212.344 443.321 212.532C444.003 212.721 444.576 212.931 445.04 213.163L445.019 213.229V216.253H443.452V214.186ZM448.078 212.51H458.872V216.58H457.392V213.99H454.324V221.933H456.957V223.391H449.906V221.933H452.626V213.99H449.558V216.58H448.078V212.51ZM469.439 218.56H463.585V223.391H461.909V212.51H463.585V217.037H469.439V212.51H471.136V223.391H469.439V218.56ZM478.112 222.194C478.112 221.73 478.243 221.374 478.504 221.128C478.765 220.866 479.113 220.736 479.549 220.736C480.013 220.736 480.375 220.866 480.637 221.128C480.898 221.374 481.028 221.73 481.028 222.194C481.028 222.615 480.898 222.963 480.637 223.238C480.375 223.514 480.013 223.652 479.549 223.652C479.113 223.652 478.765 223.514 478.504 223.238C478.243 222.963 478.112 222.615 478.112 222.194Z" fill="black"/>
<rect x="397.804" y="194.391" width="99" height="45" stroke="#508C6D"/>
<rect x="496.804" y="194.391" width="99" height="45" fill="#ABD4C1"/>
<path d="M507.913 223.391V208.158H509.611V221.78H512.483V208.158H514.18V221.78H517.053V208.158H518.75V223.391H507.913ZM531.363 222.02C531.102 222.252 530.79 222.469 530.427 222.673C530.079 222.876 529.694 223.05 529.274 223.195C528.853 223.34 528.41 223.449 527.946 223.521C527.497 223.608 527.04 223.652 526.575 223.652C525.705 223.652 524.936 223.521 524.269 223.26C523.601 222.984 523.043 222.6 522.593 222.107C522.144 221.599 521.803 220.997 521.57 220.301C521.338 219.604 521.222 218.821 521.222 217.951C521.222 217.037 521.346 216.224 521.592 215.513C521.853 214.803 522.223 214.208 522.702 213.729C523.181 213.25 523.761 212.888 524.443 212.641C525.125 212.38 525.886 212.249 526.728 212.249C527.337 212.249 527.939 212.329 528.534 212.489C529.129 212.648 529.651 212.953 530.101 213.403C530.565 213.838 530.92 214.447 531.167 215.23C531.413 215.999 531.5 217 531.428 218.233H523.007C523.007 219.539 523.355 220.518 524.051 221.171C524.762 221.809 525.705 222.129 526.88 222.129C527.272 222.129 527.656 222.085 528.033 221.998C528.425 221.896 528.795 221.78 529.143 221.65C529.491 221.519 529.796 221.374 530.057 221.215C530.333 221.055 530.543 220.91 530.688 220.779L531.363 222.02ZM526.771 213.686C526.292 213.686 525.836 213.736 525.4 213.838C524.98 213.939 524.602 214.113 524.269 214.36C523.95 214.592 523.681 214.904 523.464 215.296C523.261 215.673 523.13 216.144 523.072 216.71H529.839C529.767 215.753 529.455 215.013 528.904 214.491C528.367 213.954 527.656 213.686 526.771 213.686ZM542.452 214.186C542.118 214.07 541.756 213.976 541.364 213.903C540.987 213.816 540.61 213.773 540.232 213.773C538.811 213.773 537.752 214.106 537.055 214.774C536.359 215.441 536.011 216.5 536.011 217.951C536.011 218.589 536.112 219.162 536.316 219.67C536.519 220.163 536.809 220.584 537.186 220.932C537.563 221.28 538.013 221.548 538.535 221.737C539.072 221.925 539.659 222.02 540.298 222.02C540.979 222.02 541.64 221.904 542.278 221.672C542.931 221.439 543.475 221.135 543.91 220.758L544.671 222.02C544.468 222.194 544.215 222.375 543.91 222.564C543.605 222.752 543.25 222.934 542.844 223.108C542.452 223.267 542.009 223.398 541.516 223.499C541.038 223.601 540.515 223.652 539.949 223.652C539.007 223.652 538.172 223.521 537.447 223.26C536.736 222.984 536.141 222.6 535.663 222.107C535.184 221.599 534.821 220.997 534.575 220.301C534.328 219.59 534.205 218.806 534.205 217.951C534.205 217.037 534.328 216.224 534.575 215.513C534.836 214.803 535.206 214.208 535.684 213.729C536.163 213.25 536.743 212.888 537.425 212.641C538.107 212.38 538.869 212.249 539.71 212.249C540.784 212.249 541.654 212.344 542.321 212.532C543.003 212.721 543.576 212.931 544.04 213.163L544.019 213.229V216.253H542.452V214.186ZM547.078 212.51H557.872V216.58H556.392V213.99H553.324V221.933H555.957V223.391H548.906V221.933H551.626V213.99H548.558V216.58H547.078V212.51ZM568.439 218.56H562.585V223.391H560.909V212.51H562.585V217.037H568.439V212.51H570.136V223.391H568.439V218.56ZM577.112 222.194C577.112 221.73 577.243 221.374 577.504 221.128C577.765 220.866 578.113 220.736 578.549 220.736C579.013 220.736 579.375 220.866 579.637 221.128C579.898 221.374 580.028 221.73 580.028 222.194C580.028 222.615 579.898 222.963 579.637 223.238C579.375 223.514 579.013 223.652 578.549 223.652C578.113 223.652 577.765 223.514 577.504 223.238C577.243 222.963 577.112 222.615 577.112 222.194Z" fill="black"/>
<rect x="496.804" y="194.391" width="99" height="45" stroke="#508C6D"/>
<rect x="595.804" y="194.391" width="99" height="45" fill="#ABD4C1"/>
<path d="M606.913 223.391V208.158H608.611V221.78H611.483V208.158H613.18V221.78H616.053V208.158H617.75V223.391H606.913ZM630.363 222.02C630.102 222.252 629.79 222.469 629.427 222.673C629.079 222.876 628.694 223.05 628.274 223.195C627.853 223.34 627.41 223.449 626.946 223.521C626.497 223.608 626.04 223.652 625.575 223.652C624.705 223.652 623.936 223.521 623.269 223.26C622.601 222.984 622.043 222.6 621.593 222.107C621.144 221.599 620.803 220.997 620.57 220.301C620.338 219.604 620.222 218.821 620.222 217.951C620.222 217.037 620.346 216.224 620.592 215.513C620.853 214.803 621.223 214.208 621.702 213.729C622.181 213.25 622.761 212.888 623.443 212.641C624.125 212.38 624.886 212.249 625.728 212.249C626.337 212.249 626.939 212.329 627.534 212.489C628.129 212.648 628.651 212.953 629.101 213.403C629.565 213.838 629.92 214.447 630.167 215.23C630.413 215.999 630.5 217 630.428 218.233H622.007C622.007 219.539 622.355 220.518 623.051 221.171C623.762 221.809 624.705 222.129 625.88 222.129C626.272 222.129 626.656 222.085 627.033 221.998C627.425 221.896 627.795 221.78 628.143 221.65C628.491 221.519 628.796 221.374 629.057 221.215C629.333 221.055 629.543 220.91 629.688 220.779L630.363 222.02ZM625.771 213.686C625.292 213.686 624.836 213.736 624.4 213.838C623.98 213.939 623.602 214.113 623.269 214.36C622.95 214.592 622.681 214.904 622.464 215.296C622.261 215.673 622.13 216.144 622.072 216.71H628.839C628.767 215.753 628.455 215.013 627.904 214.491C627.367 213.954 626.656 213.686 625.771 213.686ZM641.452 214.186C641.118 214.07 640.756 213.976 640.364 213.903C639.987 213.816 639.61 213.773 639.232 213.773C637.811 213.773 636.752 214.106 636.055 214.774C635.359 215.441 635.011 216.5 635.011 217.951C635.011 218.589 635.112 219.162 635.316 219.67C635.519 220.163 635.809 220.584 636.186 220.932C636.563 221.28 637.013 221.548 637.535 221.737C638.072 221.925 638.659 222.02 639.298 222.02C639.979 222.02 640.64 221.904 641.278 221.672C641.931 221.439 642.475 221.135 642.91 220.758L643.671 222.02C643.468 222.194 643.215 222.375 642.91 222.564C642.605 222.752 642.25 222.934 641.844 223.108C641.452 223.267 641.009 223.398 640.516 223.499C640.038 223.601 639.515 223.652 638.949 223.652C638.007 223.652 637.172 223.521 636.447 223.26C635.736 222.984 635.141 222.6 634.663 222.107C634.184 221.599 633.821 220.997 633.575 220.301C633.328 219.59 633.205 218.806 633.205 217.951C633.205 217.037 633.328 216.224 633.575 215.513C633.836 214.803 634.206 214.208 634.684 213.729C635.163 213.25 635.743 212.888 636.425 212.641C637.107 212.38 637.869 212.249 638.71 212.249C639.784 212.249 640.654 212.344 641.321 212.532C642.003 212.721 642.576 212.931 643.04 213.163L643.019 213.229V216.253H641.452V214.186ZM646.078 212.51H656.872V216.58H655.392V213.99H652.324V221.933H654.957V223.391H647.906V221.933H650.626V213.99H647.558V216.58H646.078V212.51ZM667.439 218.56H661.585V223.391H659.909V212.51H661.585V217.037H667.439V212.51H669.136V223.391H667.439V218.56ZM676.112 222.194C676.112 221.73 676.243 221.374 676.504 221.128C676.765 220.866 677.113 220.736 677.549 220.736C678.013 220.736 678.375 220.866 678.637 221.128C678.898 221.374 679.028 221.73 679.028 222.194C679.028 222.615 678.898 222.963 678.637 223.238C678.375 223.514 678.013 223.652 677.549 223.652C677.113 223.652 676.765 223.514 676.504 223.238C676.243 222.963 676.112 222.615 676.112 222.194Z" fill="black"/>
<rect x="595.804" y="194.391" width="99" height="45" stroke="#508C6D"/>
<rect x="694.804" y="194.391" width="99" height="45" fill="#ABD4C1"/>
<path d="M705.913 223.391V208.158H707.611V221.78H710.483V208.158H712.18V221.78H715.053V208.158H716.75V223.391H705.913ZM729.363 222.02C729.102 222.252 728.79 222.469 728.427 222.673C728.079 222.876 727.694 223.05 727.274 223.195C726.853 223.34 726.41 223.449 725.946 223.521C725.497 223.608 725.04 223.652 724.575 223.652C723.705 223.652 722.936 223.521 722.269 223.26C721.601 222.984 721.043 222.6 720.593 222.107C720.144 221.599 719.803 220.997 719.57 220.301C719.338 219.604 719.222 218.821 719.222 217.951C719.222 217.037 719.346 216.224 719.592 215.513C719.853 214.803 720.223 214.208 720.702 213.729C721.181 213.25 721.761 212.888 722.443 212.641C723.125 212.38 723.886 212.249 724.728 212.249C725.337 212.249 725.939 212.329 726.534 212.489C727.129 212.648 727.651 212.953 728.101 213.403C728.565 213.838 728.92 214.447 729.167 215.23C729.413 215.999 729.5 217 729.428 218.233H721.007C721.007 219.539 721.355 220.518 722.051 221.171C722.762 221.809 723.705 222.129 724.88 222.129C725.272 222.129 725.656 222.085 726.033 221.998C726.425 221.896 726.795 221.78 727.143 221.65C727.491 221.519 727.796 221.374 728.057 221.215C728.333 221.055 728.543 220.91 728.688 220.779L729.363 222.02ZM724.771 213.686C724.292 213.686 723.836 213.736 723.4 213.838C722.98 213.939 722.602 214.113 722.269 214.36C721.95 214.592 721.681 214.904 721.464 215.296C721.261 215.673 721.13 216.144 721.072 216.71H727.839C727.767 215.753 727.455 215.013 726.904 214.491C726.367 213.954 725.656 213.686 724.771 213.686ZM740.452 214.186C740.118 214.07 739.756 213.976 739.364 213.903C738.987 213.816 738.61 213.773 738.232 213.773C736.811 213.773 735.752 214.106 735.055 214.774C734.359 215.441 734.011 216.5 734.011 217.951C734.011 218.589 734.112 219.162 734.316 219.67C734.519 220.163 734.809 220.584 735.186 220.932C735.563 221.28 736.013 221.548 736.535 221.737C737.072 221.925 737.659 222.02 738.298 222.02C738.979 222.02 739.64 221.904 740.278 221.672C740.931 221.439 741.475 221.135 741.91 220.758L742.671 222.02C742.468 222.194 742.215 222.375 741.91 222.564C741.605 222.752 741.25 222.934 740.844 223.108C740.452 223.267 740.009 223.398 739.516 223.499C739.038 223.601 738.515 223.652 737.949 223.652C737.007 223.652 736.172 223.521 735.447 223.26C734.736 222.984 734.141 222.6 733.663 222.107C733.184 221.599 732.821 220.997 732.575 220.301C732.328 219.59 732.205 218.806 732.205 217.951C732.205 217.037 732.328 216.224 732.575 215.513C732.836 214.803 733.206 214.208 733.684 213.729C734.163 213.25 734.743 212.888 735.425 212.641C736.107 212.38 736.869 212.249 737.71 212.249C738.784 212.249 739.654 212.344 740.321 212.532C741.003 212.721 741.576 212.931 742.04 213.163L742.019 213.229V216.253H740.452V214.186ZM745.078 212.51H755.872V216.58H754.392V213.99H751.324V221.933H753.957V223.391H746.906V221.933H749.626V213.99H746.558V216.58H745.078V212.51ZM766.439 218.56H760.585V223.391H758.909V212.51H760.585V217.037H766.439V212.51H768.136V223.391H766.439V218.56ZM775.112 222.194C775.112 221.73 775.243 221.374 775.504 221.128C775.765 220.866 776.113 220.736 776.549 220.736C777.013 220.736 777.375 220.866 777.637 221.128C777.898 221.374 778.028 221.73 778.028 222.194C778.028 222.615 777.898 222.963 777.637 223.238C777.375 223.514 777.013 223.652 776.549 223.652C776.113 223.652 775.765 223.514 775.504 223.238C775.243 222.963 775.112 222.615 775.112 222.194Z" fill="black"/>
<rect x="694.804" y="194.391" width="99" height="45" stroke="#508C6D"/>
<rect x="793.804" y="194.391" width="99" height="45" fill="#ABD4C1"/>
<path d="M804.913 223.391V208.158H806.611V221.78H809.483V208.158H811.18V221.78H814.053V208.158H815.75V223.391H804.913ZM828.363 222.02C828.102 222.252 827.79 222.469 827.427 222.673C827.079 222.876 826.694 223.05 826.274 223.195C825.853 223.34 825.41 223.449 824.946 223.521C824.497 223.608 824.04 223.652 823.575 223.652C822.705 223.652 821.936 223.521 821.269 223.26C820.601 222.984 820.043 222.6 819.593 222.107C819.144 221.599 818.803 220.997 818.57 220.301C818.338 219.604 818.222 218.821 818.222 217.951C818.222 217.037 818.346 216.224 818.592 215.513C818.853 214.803 819.223 214.208 819.702 213.729C820.181 213.25 820.761 212.888 821.443 212.641C822.125 212.38 822.886 212.249 823.728 212.249C824.337 212.249 824.939 212.329 825.534 212.489C826.129 212.648 826.651 212.953 827.101 213.403C827.565 213.838 827.92 214.447 828.167 215.23C828.413 215.999 828.5 217 828.428 218.233H820.007C820.007 219.539 820.355 220.518 821.051 221.171C821.762 221.809 822.705 222.129 823.88 222.129C824.272 222.129 824.656 222.085 825.033 221.998C825.425 221.896 825.795 221.78 826.143 221.65C826.491 221.519 826.796 221.374 827.057 221.215C827.333 221.055 827.543 220.91 827.688 220.779L828.363 222.02ZM823.771 213.686C823.292 213.686 822.836 213.736 822.4 213.838C821.98 213.939 821.602 214.113 821.269 214.36C820.95 214.592 820.681 214.904 820.464 215.296C820.261 215.673 820.13 216.144 820.072 216.71H826.839C826.767 215.753 826.455 215.013 825.904 214.491C825.367 213.954 824.656 213.686 823.771 213.686ZM839.452 214.186C839.118 214.07 838.756 213.976 838.364 213.903C837.987 213.816 837.61 213.773 837.232 213.773C835.811 213.773 834.752 214.106 834.055 214.774C833.359 215.441 833.011 216.5 833.011 217.951C833.011 218.589 833.112 219.162 833.316 219.67C833.519 220.163 833.809 220.584 834.186 220.932C834.563 221.28 835.013 221.548 835.535 221.737C836.072 221.925 836.659 222.02 837.298 222.02C837.979 222.02 838.64 221.904 839.278 221.672C839.931 221.439 840.475 221.135 840.91 220.758L841.671 222.02C841.468 222.194 841.215 222.375 840.91 222.564C840.605 222.752 840.25 222.934 839.844 223.108C839.452 223.267 839.009 223.398 838.516 223.499C838.038 223.601 837.515 223.652 836.949 223.652C836.007 223.652 835.172 223.521 834.447 223.26C833.736 222.984 833.141 222.6 832.663 222.107C832.184 221.599 831.821 220.997 831.575 220.301C831.328 219.59 831.205 218.806 831.205 217.951C831.205 217.037 831.328 216.224 831.575 215.513C831.836 214.803 832.206 214.208 832.684 213.729C833.163 213.25 833.743 212.888 834.425 212.641C835.107 212.38 835.869 212.249 836.71 212.249C837.784 212.249 838.654 212.344 839.321 212.532C840.003 212.721 840.576 212.931 841.04 213.163L841.019 213.229V216.253H839.452V214.186ZM844.078 212.51H854.872V216.58H853.392V213.99H850.324V221.933H852.957V223.391H845.906V221.933H848.626V213.99H845.558V216.58H844.078V212.51ZM865.439 218.56H859.585V223.391H857.909V212.51H859.585V217.037H865.439V212.51H867.136V223.391H865.439V218.56ZM874.112 222.194C874.112 221.73 874.243 221.374 874.504 221.128C874.765 220.866 875.113 220.736 875.549 220.736C876.013 220.736 876.375 220.866 876.637 221.128C876.898 221.374 877.028 221.73 877.028 222.194C877.028 222.615 876.898 222.963 876.637 223.238C876.375 223.514 876.013 223.652 875.549 223.652C875.113 223.652 874.765 223.514 874.504 223.238C874.243 222.963 874.112 222.615 874.112 222.194Z" fill="black"/>
<rect x="793.804" y="194.391" width="99" height="45" stroke="#508C6D"/>
<rect x="892.804" y="194.391" width="99" height="45" fill="#ABD4C1"/>
<path d="M903.913 223.391V208.158H905.611V221.78H908.483V208.158H910.18V221.78H913.053V208.158H914.75V223.391H903.913ZM927.363 222.02C927.102 222.252 926.79 222.469 926.427 222.673C926.079 222.876 925.694 223.05 925.274 223.195C924.853 223.34 924.41 223.449 923.946 223.521C923.497 223.608 923.04 223.652 922.575 223.652C921.705 223.652 920.936 223.521 920.269 223.26C919.601 222.984 919.043 222.6 918.593 222.107C918.144 221.599 917.803 220.997 917.57 220.301C917.338 219.604 917.222 218.821 917.222 217.951C917.222 217.037 917.346 216.224 917.592 215.513C917.853 214.803 918.223 214.208 918.702 213.729C919.181 213.25 919.761 212.888 920.443 212.641C921.125 212.38 921.886 212.249 922.728 212.249C923.337 212.249 923.939 212.329 924.534 212.489C925.129 212.648 925.651 212.953 926.101 213.403C926.565 213.838 926.92 214.447 927.167 215.23C927.413 215.999 927.5 217 927.428 218.233H919.007C919.007 219.539 919.355 220.518 920.051 221.171C920.762 221.809 921.705 222.129 922.88 222.129C923.272 222.129 923.656 222.085 924.033 221.998C924.425 221.896 924.795 221.78 925.143 221.65C925.491 221.519 925.796 221.374 926.057 221.215C926.333 221.055 926.543 220.91 926.688 220.779L927.363 222.02ZM922.771 213.686C922.292 213.686 921.836 213.736 921.4 213.838C920.98 213.939 920.602 214.113 920.269 214.36C919.95 214.592 919.681 214.904 919.464 215.296C919.261 215.673 919.13 216.144 919.072 216.71H925.839C925.767 215.753 925.455 215.013 924.904 214.491C924.367 213.954 923.656 213.686 922.771 213.686ZM938.452 214.186C938.118 214.07 937.756 213.976 937.364 213.903C936.987 213.816 936.61 213.773 936.232 213.773C934.811 213.773 933.752 214.106 933.055 214.774C932.359 215.441 932.011 216.5 932.011 217.951C932.011 218.589 932.112 219.162 932.316 219.67C932.519 220.163 932.809 220.584 933.186 220.932C933.563 221.28 934.013 221.548 934.535 221.737C935.072 221.925 935.659 222.02 936.298 222.02C936.979 222.02 937.64 221.904 938.278 221.672C938.931 221.439 939.475 221.135 939.91 220.758L940.671 222.02C940.468 222.194 940.215 222.375 939.91 222.564C939.605 222.752 939.25 222.934 938.844 223.108C938.452 223.267 938.009 223.398 937.516 223.499C937.038 223.601 936.515 223.652 935.949 223.652C935.007 223.652 934.172 223.521 933.447 223.26C932.736 222.984 932.141 222.6 931.663 222.107C931.184 221.599 930.821 220.997 930.575 220.301C930.328 219.59 930.205 218.806 930.205 217.951C930.205 217.037 930.328 216.224 930.575 215.513C930.836 214.803 931.206 214.208 931.684 213.729C932.163 213.25 932.743 212.888 933.425 212.641C934.107 212.38 934.869 212.249 935.71 212.249C936.784 212.249 937.654 212.344 938.321 212.532C939.003 212.721 939.576 212.931 940.04 213.163L940.019 213.229V216.253H938.452V214.186ZM943.078 212.51H953.872V216.58H952.392V213.99H949.324V221.933H951.957V223.391H944.906V221.933H947.626V213.99H944.558V216.58H943.078V212.51ZM964.439 218.56H958.585V223.391H956.909V212.51H958.585V217.037H964.439V212.51H966.136V223.391H964.439V218.56ZM973.112 222.194C973.112 221.73 973.243 221.374 973.504 221.128C973.765 220.866 974.113 220.736 974.549 220.736C975.013 220.736 975.375 220.866 975.637 221.128C975.898 221.374 976.028 221.73 976.028 222.194C976.028 222.615 975.898 222.963 975.637 223.238C975.375 223.514 975.013 223.652 974.549 223.652C974.113 223.652 973.765 223.514 973.504 223.238C973.243 222.963 973.112 222.615 973.112 222.194Z" fill="black"/>
<rect x="892.804" y="194.391" width="99" height="45" stroke="#508C6D"/>
<rect x="991.804" y="194.391" width="99" height="45" fill="#ABD4C1"/>
<path d="M1002.91 223.391V208.158H1004.61V221.78H1007.48V208.158H1009.18V221.78H1012.05V208.158H1013.75V223.391H1002.91ZM1026.36 222.02C1026.1 222.252 1025.79 222.469 1025.43 222.673C1025.08 222.876 1024.69 223.05 1024.27 223.195C1023.85 223.34 1023.41 223.449 1022.95 223.521C1022.5 223.608 1022.04 223.652 1021.58 223.652C1020.7 223.652 1019.94 223.521 1019.27 223.26C1018.6 222.984 1018.04 222.6 1017.59 222.107C1017.14 221.599 1016.8 220.997 1016.57 220.301C1016.34 219.604 1016.22 218.821 1016.22 217.951C1016.22 217.037 1016.35 216.224 1016.59 215.513C1016.85 214.803 1017.22 214.208 1017.7 213.729C1018.18 213.25 1018.76 212.888 1019.44 212.641C1020.12 212.38 1020.89 212.249 1021.73 212.249C1022.34 212.249 1022.94 212.329 1023.53 212.489C1024.13 212.648 1024.65 212.953 1025.1 213.403C1025.56 213.838 1025.92 214.447 1026.17 215.23C1026.41 215.999 1026.5 217 1026.43 218.233H1018.01C1018.01 219.539 1018.35 220.518 1019.05 221.171C1019.76 221.809 1020.7 222.129 1021.88 222.129C1022.27 222.129 1022.66 222.085 1023.03 221.998C1023.42 221.896 1023.79 221.78 1024.14 221.65C1024.49 221.519 1024.8 221.374 1025.06 221.215C1025.33 221.055 1025.54 220.91 1025.69 220.779L1026.36 222.02ZM1021.77 213.686C1021.29 213.686 1020.84 213.736 1020.4 213.838C1019.98 213.939 1019.6 214.113 1019.27 214.36C1018.95 214.592 1018.68 214.904 1018.46 215.296C1018.26 215.673 1018.13 216.144 1018.07 216.71H1024.84C1024.77 215.753 1024.45 215.013 1023.9 214.491C1023.37 213.954 1022.66 213.686 1021.77 213.686ZM1037.45 214.186C1037.12 214.07 1036.76 213.976 1036.36 213.903C1035.99 213.816 1035.61 213.773 1035.23 213.773C1033.81 213.773 1032.75 214.106 1032.06 214.774C1031.36 215.441 1031.01 216.5 1031.01 217.951C1031.01 218.589 1031.11 219.162 1031.32 219.67C1031.52 220.163 1031.81 220.584 1032.19 220.932C1032.56 221.28 1033.01 221.548 1033.54 221.737C1034.07 221.925 1034.66 222.02 1035.3 222.02C1035.98 222.02 1036.64 221.904 1037.28 221.672C1037.93 221.439 1038.47 221.135 1038.91 220.758L1039.67 222.02C1039.47 222.194 1039.21 222.375 1038.91 222.564C1038.61 222.752 1038.25 222.934 1037.84 223.108C1037.45 223.267 1037.01 223.398 1036.52 223.499C1036.04 223.601 1035.52 223.652 1034.95 223.652C1034.01 223.652 1033.17 223.521 1032.45 223.26C1031.74 222.984 1031.14 222.6 1030.66 222.107C1030.18 221.599 1029.82 220.997 1029.57 220.301C1029.33 219.59 1029.2 218.806 1029.2 217.951C1029.2 217.037 1029.33 216.224 1029.57 215.513C1029.84 214.803 1030.21 214.208 1030.68 213.729C1031.16 213.25 1031.74 212.888 1032.43 212.641C1033.11 212.38 1033.87 212.249 1034.71 212.249C1035.78 212.249 1036.65 212.344 1037.32 212.532C1038 212.721 1038.58 212.931 1039.04 213.163L1039.02 213.229V216.253H1037.45V214.186ZM1042.08 212.51H1052.87V216.58H1051.39V213.99H1048.32V221.933H1050.96V223.391H1043.91V221.933H1046.63V213.99H1043.56V216.58H1042.08V212.51ZM1063.44 218.56H1057.59V223.391H1055.91V212.51H1057.59V217.037H1063.44V212.51H1065.14V223.391H1063.44V218.56ZM1072.11 222.194C1072.11 221.73 1072.24 221.374 1072.5 221.128C1072.77 220.866 1073.11 220.736 1073.55 220.736C1074.01 220.736 1074.38 220.866 1074.64 221.128C1074.9 221.374 1075.03 221.73 1075.03 222.194C1075.03 222.615 1074.9 222.963 1074.64 223.238C1074.38 223.514 1074.01 223.652 1073.55 223.652C1073.11 223.652 1072.77 223.514 1072.5 223.238C1072.24 222.963 1072.11 222.615 1072.11 222.194Z" fill="black"/>
<rect x="991.804" y="194.391" width="99" height="45" stroke="#508C6D"/>
<rect x="1090.8" y="194.391" width="99" height="45" fill="#ABD4C1"/>
<path d="M1101.91 223.391V208.158H1103.61V221.78H1106.48V208.158H1108.18V221.78H1111.05V208.158H1112.75V223.391H1101.91ZM1125.36 222.02C1125.1 222.252 1124.79 222.469 1124.43 222.673C1124.08 222.876 1123.69 223.05 1123.27 223.195C1122.85 223.34 1122.41 223.449 1121.95 223.521C1121.5 223.608 1121.04 223.652 1120.58 223.652C1119.7 223.652 1118.94 223.521 1118.27 223.26C1117.6 222.984 1117.04 222.6 1116.59 222.107C1116.14 221.599 1115.8 220.997 1115.57 220.301C1115.34 219.604 1115.22 218.821 1115.22 217.951C1115.22 217.037 1115.35 216.224 1115.59 215.513C1115.85 214.803 1116.22 214.208 1116.7 213.729C1117.18 213.25 1117.76 212.888 1118.44 212.641C1119.12 212.38 1119.89 212.249 1120.73 212.249C1121.34 212.249 1121.94 212.329 1122.53 212.489C1123.13 212.648 1123.65 212.953 1124.1 213.403C1124.56 213.838 1124.92 214.447 1125.17 215.23C1125.41 215.999 1125.5 217 1125.43 218.233H1117.01C1117.01 219.539 1117.35 220.518 1118.05 221.171C1118.76 221.809 1119.7 222.129 1120.88 222.129C1121.27 222.129 1121.66 222.085 1122.03 221.998C1122.42 221.896 1122.79 221.78 1123.14 221.65C1123.49 221.519 1123.8 221.374 1124.06 221.215C1124.33 221.055 1124.54 220.91 1124.69 220.779L1125.36 222.02ZM1120.77 213.686C1120.29 213.686 1119.84 213.736 1119.4 213.838C1118.98 213.939 1118.6 214.113 1118.27 214.36C1117.95 214.592 1117.68 214.904 1117.46 215.296C1117.26 215.673 1117.13 216.144 1117.07 216.71H1123.84C1123.77 215.753 1123.45 215.013 1122.9 214.491C1122.37 213.954 1121.66 213.686 1120.77 213.686ZM1136.45 214.186C1136.12 214.07 1135.76 213.976 1135.36 213.903C1134.99 213.816 1134.61 213.773 1134.23 213.773C1132.81 213.773 1131.75 214.106 1131.06 214.774C1130.36 215.441 1130.01 216.5 1130.01 217.951C1130.01 218.589 1130.11 219.162 1130.32 219.67C1130.52 220.163 1130.81 220.584 1131.19 220.932C1131.56 221.28 1132.01 221.548 1132.54 221.737C1133.07 221.925 1133.66 222.02 1134.3 222.02C1134.98 222.02 1135.64 221.904 1136.28 221.672C1136.93 221.439 1137.47 221.135 1137.91 220.758L1138.67 222.02C1138.47 222.194 1138.21 222.375 1137.91 222.564C1137.61 222.752 1137.25 222.934 1136.84 223.108C1136.45 223.267 1136.01 223.398 1135.52 223.499C1135.04 223.601 1134.52 223.652 1133.95 223.652C1133.01 223.652 1132.17 223.521 1131.45 223.26C1130.74 222.984 1130.14 222.6 1129.66 222.107C1129.18 221.599 1128.82 220.997 1128.57 220.301C1128.33 219.59 1128.2 218.806 1128.2 217.951C1128.2 217.037 1128.33 216.224 1128.57 215.513C1128.84 214.803 1129.21 214.208 1129.68 213.729C1130.16 213.25 1130.74 212.888 1131.43 212.641C1132.11 212.38 1132.87 212.249 1133.71 212.249C1134.78 212.249 1135.65 212.344 1136.32 212.532C1137 212.721 1137.58 212.931 1138.04 213.163L1138.02 213.229V216.253H1136.45V214.186ZM1141.08 212.51H1151.87V216.58H1150.39V213.99H1147.32V221.933H1149.96V223.391H1142.91V221.933H1145.63V213.99H1142.56V216.58H1141.08V212.51ZM1162.44 218.56H1156.59V223.391H1154.91V212.51H1156.59V217.037H1162.44V212.51H1164.14V223.391H1162.44V218.56ZM1171.11 222.194C1171.11 221.73 1171.24 221.374 1171.5 221.128C1171.77 220.866 1172.11 220.736 1172.55 220.736C1173.01 220.736 1173.38 220.866 1173.64 221.128C1173.9 221.374 1174.03 221.73 1174.03 222.194C1174.03 222.615 1173.9 222.963 1173.64 223.238C1173.38 223.514 1173.01 223.652 1172.55 223.652C1172.11 223.652 1171.77 223.514 1171.5 223.238C1171.24 222.963 1171.11 222.615 1171.11 222.194Z" fill="black"/>
<rect x="1090.8" y="194.391" width="99" height="45" stroke="#508C6D"/>
<rect x="1189.8" y="194.391" width="99" height="45" fill="#ABD4C1"/>
<path d="M1200.91 223.391V208.158H1202.61V221.78H1205.48V208.158H1207.18V221.78H1210.05V208.158H1211.75V223.391H1200.91ZM1224.36 222.02C1224.1 222.252 1223.79 222.469 1223.43 222.673C1223.08 222.876 1222.69 223.05 1222.27 223.195C1221.85 223.34 1221.41 223.449 1220.95 223.521C1220.5 223.608 1220.04 223.652 1219.58 223.652C1218.7 223.652 1217.94 223.521 1217.27 223.26C1216.6 222.984 1216.04 222.6 1215.59 222.107C1215.14 221.599 1214.8 220.997 1214.57 220.301C1214.34 219.604 1214.22 218.821 1214.22 217.951C1214.22 217.037 1214.35 216.224 1214.59 215.513C1214.85 214.803 1215.22 214.208 1215.7 213.729C1216.18 213.25 1216.76 212.888 1217.44 212.641C1218.12 212.38 1218.89 212.249 1219.73 212.249C1220.34 212.249 1220.94 212.329 1221.53 212.489C1222.13 212.648 1222.65 212.953 1223.1 213.403C1223.56 213.838 1223.92 214.447 1224.17 215.23C1224.41 215.999 1224.5 217 1224.43 218.233H1216.01C1216.01 219.539 1216.35 220.518 1217.05 221.171C1217.76 221.809 1218.7 222.129 1219.88 222.129C1220.27 222.129 1220.66 222.085 1221.03 221.998C1221.42 221.896 1221.79 221.78 1222.14 221.65C1222.49 221.519 1222.8 221.374 1223.06 221.215C1223.33 221.055 1223.54 220.91 1223.69 220.779L1224.36 222.02ZM1219.77 213.686C1219.29 213.686 1218.84 213.736 1218.4 213.838C1217.98 213.939 1217.6 214.113 1217.27 214.36C1216.95 214.592 1216.68 214.904 1216.46 215.296C1216.26 215.673 1216.13 216.144 1216.07 216.71H1222.84C1222.77 215.753 1222.45 215.013 1221.9 214.491C1221.37 213.954 1220.66 213.686 1219.77 213.686ZM1235.45 214.186C1235.12 214.07 1234.76 213.976 1234.36 213.903C1233.99 213.816 1233.61 213.773 1233.23 213.773C1231.81 213.773 1230.75 214.106 1230.06 214.774C1229.36 215.441 1229.01 216.5 1229.01 217.951C1229.01 218.589 1229.11 219.162 1229.32 219.67C1229.52 220.163 1229.81 220.584 1230.19 220.932C1230.56 221.28 1231.01 221.548 1231.54 221.737C1232.07 221.925 1232.66 222.02 1233.3 222.02C1233.98 222.02 1234.64 221.904 1235.28 221.672C1235.93 221.439 1236.47 221.135 1236.91 220.758L1237.67 222.02C1237.47 222.194 1237.21 222.375 1236.91 222.564C1236.61 222.752 1236.25 222.934 1235.84 223.108C1235.45 223.267 1235.01 223.398 1234.52 223.499C1234.04 223.601 1233.52 223.652 1232.95 223.652C1232.01 223.652 1231.17 223.521 1230.45 223.26C1229.74 222.984 1229.14 222.6 1228.66 222.107C1228.18 221.599 1227.82 220.997 1227.57 220.301C1227.33 219.59 1227.2 218.806 1227.2 217.951C1227.2 217.037 1227.33 216.224 1227.57 215.513C1227.84 214.803 1228.21 214.208 1228.68 213.729C1229.16 213.25 1229.74 212.888 1230.43 212.641C1231.11 212.38 1231.87 212.249 1232.71 212.249C1233.78 212.249 1234.65 212.344 1235.32 212.532C1236 212.721 1236.58 212.931 1237.04 213.163L1237.02 213.229V216.253H1235.45V214.186ZM1240.08 212.51H1250.87V216.58H1249.39V213.99H1246.32V221.933H1248.96V223.391H1241.91V221.933H1244.63V213.99H1241.56V216.58H1240.08V212.51ZM1261.44 218.56H1255.59V223.391H1253.91V212.51H1255.59V217.037H1261.44V212.51H1263.14V223.391H1261.44V218.56ZM1270.11 222.194C1270.11 221.73 1270.24 221.374 1270.5 221.128C1270.77 220.866 1271.11 220.736 1271.55 220.736C1272.01 220.736 1272.38 220.866 1272.64 221.128C1272.9 221.374 1273.03 221.73 1273.03 222.194C1273.03 222.615 1272.9 222.963 1272.64 223.238C1272.38 223.514 1272.01 223.652 1271.55 223.652C1271.11 223.652 1270.77 223.514 1270.5 223.238C1270.24 222.963 1270.11 222.615 1270.11 222.194Z" fill="black"/>
<rect x="1189.8" y="194.391" width="99" height="45" stroke="#508C6D"/>
<path d="M275.804 248.141L275.804 260.158C275.804 264.577 272.222 268.158 267.804 268.158L237.054 268.158L217.679 268.158L208.871 268.158C205.535 268.158 202.549 270.228 201.379 273.352L198.585 280.811L195.34 273.066C194.094 270.093 191.185 268.158 187.962 268.158L178.929 268.158L159.554 268.158L128.804 268.158C124.385 268.158 120.804 264.577 120.804 260.158L120.804 248.141" stroke="#696969" stroke-linejoin="round"/>
<path d="M474.004 248.141L474.004 260.158C474.004 264.577 470.422 268.158 466.004 268.158L435.254 268.158L415.879 268.158L407.071 268.158C403.735 268.158 400.749 270.228 399.579 273.352L396.785 280.811L393.54 273.066C392.294 270.093 389.385 268.158 386.162 268.158L377.129 268.158L357.754 268.158L327.004 268.158C322.586 268.158 319.004 264.577 319.004 260.158L319.004 248.141" stroke="#696969" stroke-linejoin="round"/>
<path d="M672.204 248.141L672.204 260.158C672.204 264.577 668.622 268.158 664.204 268.158L633.454 268.158L614.079 268.158L605.271 268.158C601.935 268.158 598.949 270.228 597.779 273.352L594.986 280.811L591.74 273.066C590.494 270.093 587.586 268.158 584.362 268.158L575.329 268.158L555.954 268.158L525.204 268.158C520.786 268.158 517.204 264.577 517.204 260.158L517.204 248.141" stroke="#696969" stroke-linejoin="round"/>
<path d="M870.404 248.141L870.404 260.158C870.404 264.577 866.823 268.158 862.404 268.158L831.654 268.158L812.279 268.158L803.471 268.158C800.135 268.158 797.15 270.228 795.979 273.352L793.186 280.811L789.94 273.066C788.695 270.093 785.786 268.158 782.562 268.158L773.529 268.158L754.154 268.158L723.404 268.158C718.986 268.158 715.404 264.577 715.404 260.158L715.404 248.141" stroke="#696969" stroke-linejoin="round"/>
<path d="M1068.6 248.141L1068.6 260.158C1068.6 264.577 1065.02 268.158 1060.6 268.158L1029.85 268.158L1010.48 268.158L1001.67 268.158C998.336 268.158 995.35 270.228 994.18 273.352L991.386 280.811L988.141 273.066C986.895 270.093 983.986 268.158 980.762 268.158L971.729 268.158L952.354 268.158L921.604 268.158C917.186 268.158 913.604 264.577 913.604 260.158L913.604 248.141" stroke="#696969" stroke-linejoin="round"/>
<path d="M1266.8 248.141L1266.8 260.158C1266.8 264.577 1263.22 268.158 1258.8 268.158L1228.05 268.158L1208.68 268.158L1199.87 268.158C1196.54 268.158 1193.55 270.228 1192.38 273.352L1189.59 280.811L1186.34 273.066C1185.09 270.093 1182.19 268.158 1178.96 268.158L1169.93 268.158L1150.55 268.158L1119.8 268.158C1115.39 268.158 1111.8 264.577 1111.8 260.158L1111.8 248.141" stroke="#696969" stroke-linejoin="round"/>
<path d="M189.09 154.494L189.09 166.512C189.09 170.93 185.508 174.512 181.09 174.512L169.893 174.512L160.295 174.512L159.836 174.512C155.981 174.512 152.674 177.262 151.97 181.052L150.836 187.164L149.533 180.886C148.762 177.173 145.491 174.512 141.7 174.512L141.098 174.512L131.5 174.512L120.304 174.512C115.885 174.512 112.304 170.93 112.304 166.512L112.304 154.494" stroke="#696969" stroke-linejoin="round"/>
<path d="M287.697 154.494L287.697 166.512C287.697 170.93 284.116 174.512 279.697 174.512L268.501 174.512L258.902 174.512L258.443 174.512C254.588 174.512 251.281 177.262 250.578 181.052L249.444 187.164L248.14 180.886C247.369 177.173 244.099 174.512 240.307 174.512L239.706 174.512L230.108 174.512L218.911 174.512C214.493 174.512 210.911 170.93 210.911 166.512L210.911 154.494" stroke="#696969" stroke-linejoin="round"/>
<path d="M386.305 154.494L386.305 166.512C386.305 170.93 382.723 174.512 378.305 174.512L367.108 174.512L357.51 174.512L357.051 174.512C353.195 174.512 349.889 177.262 349.185 181.052L348.051 187.164L346.748 180.886C345.977 177.173 342.706 174.512 338.915 174.512L338.313 174.512L328.715 174.512L317.518 174.512C313.1 174.512 309.518 170.93 309.518 166.512L309.518 154.494" stroke="#696969" stroke-linejoin="round"/>
<path d="M484.912 154.494L484.912 166.512C484.912 170.93 481.33 174.512 476.912 174.512L465.716 174.512L456.117 174.512L455.658 174.512C451.803 174.512 448.496 177.262 447.793 181.052L446.658 187.164L445.355 180.886C444.584 177.173 441.314 174.512 437.522 174.512L436.921 174.512L427.322 174.512L416.126 174.512C411.708 174.512 408.126 170.93 408.126 166.512L408.126 154.494" stroke="#696969" stroke-linejoin="round"/>
<path d="M583.52 154.494L583.52 166.512C583.52 170.93 579.938 174.512 575.52 174.512L564.323 174.512L554.725 174.512L554.266 174.512C550.41 174.512 547.103 177.262 546.4 181.052L545.266 187.164L543.962 180.886C543.192 177.173 539.921 174.512 536.129 174.512L535.528 174.512L525.93 174.512L514.733 174.512C510.315 174.512 506.733 170.93 506.733 166.512L506.733 154.494" stroke="#696969" stroke-linejoin="round"/>
<path d="M682.127 154.494L682.127 166.512C682.127 170.93 678.545 174.512 674.127 174.512L662.93 174.512L653.332 174.512L652.873 174.512C649.018 174.512 645.711 177.262 645.007 181.052L643.873 187.164L642.57 180.886C641.799 177.173 638.528 174.512 634.737 174.512L634.136 174.512L624.537 174.512L613.341 174.512C608.922 174.512 605.341 170.93 605.341 166.512L605.341 154.494" stroke="#696969" stroke-linejoin="round"/>
<path d="M780.734 154.494L780.734 166.512C780.734 170.93 777.153 174.512 772.734 174.512L761.538 174.512L751.94 174.512L751.481 174.512C747.625 174.512 744.318 177.262 743.615 181.052L742.481 187.164L741.177 180.886C740.407 177.173 737.136 174.512 733.344 174.512L732.743 174.512L723.145 174.512L711.948 174.512C707.53 174.512 703.948 170.93 703.948 166.512L703.948 154.494" stroke="#696969" stroke-linejoin="round"/>
<path d="M879.342 154.494L879.342 166.512C879.342 170.93 875.76 174.512 871.342 174.512L860.145 174.512L850.547 174.512L850.088 174.512C846.233 174.512 842.926 177.262 842.222 181.052L841.088 187.164L839.785 180.886C839.014 177.173 835.743 174.512 831.952 174.512L831.35 174.512L821.752 174.512L810.556 174.512C806.137 174.512 802.556 170.93 802.556 166.512L802.556 154.494" stroke="#696969" stroke-linejoin="round"/>
<path d="M977.949 154.494L977.949 166.512C977.949 170.93 974.367 174.512 969.949 174.512L958.753 174.512L949.154 174.512L948.695 174.512C944.84 174.512 941.533 177.262 940.83 181.052L939.696 187.164L938.392 180.886C937.621 177.173 934.351 174.512 930.559 174.512L929.958 174.512L920.36 174.512L909.163 174.512C904.745 174.512 901.163 170.93 901.163 166.512L901.163 154.494" stroke="#696969" stroke-linejoin="round"/>
<path d="M1076.56 154.494L1076.56 166.512C1076.56 170.93 1072.97 174.512 1068.56 174.512L1057.36 174.512L1047.76 174.512L1047.3 174.512C1043.45 174.512 1040.14 177.262 1039.44 181.052L1038.3 187.164L1037 180.886C1036.23 177.173 1032.96 174.512 1029.17 174.512L1028.57 174.512L1018.97 174.512L1007.77 174.512C1003.35 174.512 999.77 170.93 999.77 166.512L999.77 154.494" stroke="#696969" stroke-linejoin="round"/>
<path d="M1175.16 154.494L1175.16 166.512C1175.16 170.93 1171.58 174.512 1167.16 174.512L1155.97 174.512L1146.37 174.512L1145.91 174.512C1142.05 174.512 1138.75 177.262 1138.04 181.052L1136.91 187.164L1135.61 180.886C1134.84 177.173 1131.57 174.512 1127.77 174.512L1127.17 174.512L1117.57 174.512L1106.38 174.512C1101.96 174.512 1098.38 170.93 1098.38 166.512L1098.38 154.494" stroke="#696969" stroke-linejoin="round"/>
<path d="M1273.77 154.494L1273.77 166.512C1273.77 170.93 1270.19 174.512 1265.77 174.512L1254.57 174.512L1244.98 174.512L1244.52 174.512C1240.66 174.512 1237.36 177.262 1236.65 181.052L1235.52 187.164L1234.21 180.886C1233.44 177.173 1230.17 174.512 1226.38 174.512L1225.78 174.512L1216.18 174.512L1204.99 174.512C1200.57 174.512 1196.99 170.93 1196.99 166.512L1196.99 154.494" stroke="#696969" stroke-linejoin="round"/>
</svg>
