<svg width="896" height="703" viewBox="0 0 896 703" fill="none" xmlns="http://www.w3.org/2000/svg">
<rect x="100.951" y="211.34" width="249" height="44" fill="#DBEEE5"/>
<path d="M197.218 226.608H201.679C202.825 226.608 203.848 226.767 204.747 227.086C205.646 227.391 206.408 227.848 207.032 228.457C207.656 229.067 208.134 229.828 208.468 230.742C208.802 231.656 208.969 232.708 208.969 233.897V234.333C208.969 235.551 208.794 236.632 208.446 237.575C208.113 238.503 207.619 239.287 206.967 239.925C206.328 240.549 205.545 241.027 204.616 241.361C203.688 241.68 202.636 241.84 201.461 241.84H197.218V226.608ZM201.244 240.055C202.1 240.055 202.868 239.947 203.55 239.729C204.247 239.511 204.834 239.178 205.313 238.728C205.792 238.264 206.154 237.669 206.401 236.944C206.662 236.218 206.793 235.348 206.793 234.333V233.897C206.793 232.925 206.669 232.091 206.423 231.395C206.176 230.699 205.821 230.133 205.356 229.698C204.892 229.248 204.326 228.921 203.659 228.718C203.006 228.501 202.274 228.392 201.461 228.392H199.263V240.055H201.244ZM212.454 226.608H214.5V233.114H222.595V226.608H224.64V241.84H222.595V234.898H214.5V241.84H212.454V226.608ZM234.536 242.057C233.68 242.057 232.868 241.912 232.099 241.622C231.33 241.318 230.648 240.853 230.053 240.23C229.459 239.591 228.987 238.786 228.639 237.814C228.291 236.842 228.117 235.682 228.117 234.333V233.897C228.117 232.592 228.291 231.467 228.639 230.524C228.987 229.582 229.459 228.805 230.053 228.196C230.648 227.587 231.33 227.137 232.099 226.847C232.868 226.542 233.68 226.39 234.536 226.39C235.363 226.39 236.117 226.499 236.799 226.716C237.496 226.934 238.105 227.246 238.627 227.652C239.149 228.058 239.57 228.559 239.889 229.154C240.223 229.748 240.433 230.423 240.52 231.177H238.344C238.141 230.191 237.713 229.451 237.06 228.958C236.408 228.464 235.566 228.218 234.536 228.218C233.999 228.218 233.477 228.319 232.969 228.523C232.462 228.726 232.005 229.052 231.598 229.502C231.207 229.937 230.888 230.517 230.641 231.243C230.409 231.968 230.293 232.853 230.293 233.897V234.333C230.293 235.435 230.423 236.363 230.685 237.118C230.946 237.858 231.279 238.46 231.686 238.924C232.092 239.388 232.549 239.722 233.056 239.925C233.564 240.128 234.057 240.23 234.536 240.23C235.668 240.23 236.553 239.954 237.191 239.403C237.829 238.851 238.214 238.141 238.344 237.27H240.52C240.404 238.112 240.172 238.837 239.824 239.446C239.476 240.041 239.033 240.534 238.497 240.926C237.974 241.318 237.372 241.608 236.69 241.796C236.023 241.97 235.305 242.057 234.536 242.057ZM243.777 226.608H249C250.001 226.608 250.871 226.724 251.611 226.956C252.351 227.188 252.96 227.514 253.439 227.935C253.932 228.341 254.295 228.834 254.527 229.415C254.759 229.98 254.875 230.604 254.875 231.286C254.875 231.968 254.759 232.599 254.527 233.179C254.295 233.745 253.932 234.238 253.439 234.659C252.96 235.065 252.351 235.384 251.611 235.616C250.871 235.848 250.001 235.965 249 235.965H245.823V241.84H243.777V226.608ZM248.891 234.18C249.616 234.18 250.226 234.115 250.719 233.984C251.227 233.839 251.633 233.643 251.938 233.397C252.257 233.15 252.482 232.846 252.612 232.483C252.757 232.12 252.83 231.721 252.83 231.286C252.83 230.851 252.757 230.452 252.612 230.089C252.482 229.727 252.257 229.422 251.938 229.175C251.633 228.929 251.227 228.74 250.719 228.61C250.226 228.464 249.616 228.392 248.891 228.392H245.823V234.18H248.891Z" fill="black"/>
<rect x="100.951" y="211.34" width="249" height="44" stroke="#58A982"/>
<rect x="136.951" y="156.34" width="249" height="44" fill="#DBEEE5"/>
<path d="M240.783 171.608H245.244C246.39 171.608 247.413 171.767 248.312 172.086C249.212 172.391 249.973 172.848 250.597 173.457C251.221 174.067 251.7 174.828 252.033 175.742C252.367 176.656 252.534 177.708 252.534 178.897V179.333C252.534 180.551 252.36 181.632 252.011 182.575C251.678 183.503 251.185 184.287 250.532 184.925C249.893 185.549 249.11 186.027 248.182 186.361C247.253 186.68 246.201 186.84 245.026 186.84H240.783V171.608ZM244.809 185.055C245.665 185.055 246.434 184.947 247.115 184.729C247.812 184.511 248.399 184.178 248.878 183.728C249.357 183.264 249.719 182.669 249.966 181.944C250.227 181.218 250.358 180.348 250.358 179.333V178.897C250.358 177.925 250.234 177.091 249.988 176.395C249.741 175.699 249.386 175.133 248.921 174.698C248.457 174.248 247.891 173.921 247.224 173.718C246.571 173.501 245.839 173.392 245.026 173.392H242.829V185.055H244.809ZM256.02 171.608H258.022L266.203 183.467V171.608H268.205V186.84H266.203L258.022 174.98V186.84H256.02V171.608ZM277.34 187.057C276.426 187.057 275.628 186.949 274.946 186.731C274.264 186.513 273.691 186.216 273.227 185.839C272.763 185.447 272.393 184.997 272.117 184.49C271.856 183.967 271.675 183.409 271.573 182.814H273.619C273.691 183.148 273.814 183.467 273.989 183.772C274.163 184.062 274.395 184.316 274.685 184.533C274.99 184.751 275.359 184.925 275.795 185.055C276.23 185.172 276.745 185.23 277.34 185.23C278.558 185.23 279.479 184.997 280.103 184.533C280.741 184.069 281.061 183.496 281.061 182.814C281.061 182.393 280.988 182.038 280.843 181.748C280.712 181.458 280.48 181.204 280.147 180.986C279.828 180.769 279.4 180.573 278.863 180.399C278.341 180.225 277.695 180.051 276.926 179.877C276.07 179.688 275.33 179.485 274.707 179.267C274.097 179.035 273.59 178.752 273.183 178.419C272.792 178.07 272.494 177.657 272.291 177.178C272.103 176.7 272.008 176.112 272.008 175.416C272.008 174.85 272.132 174.328 272.378 173.849C272.625 173.356 272.973 172.928 273.423 172.565C273.887 172.202 274.446 171.919 275.098 171.716C275.766 171.499 276.513 171.39 277.34 171.39C278.152 171.39 278.863 171.499 279.472 171.716C280.081 171.919 280.596 172.202 281.017 172.565C281.452 172.928 281.793 173.356 282.04 173.849C282.286 174.328 282.461 174.85 282.562 175.416H280.517C280.444 175.111 280.335 174.828 280.19 174.567C280.045 174.291 279.842 174.059 279.581 173.871C279.334 173.668 279.022 173.508 278.645 173.392C278.283 173.276 277.847 173.218 277.34 173.218C276.295 173.218 275.483 173.435 274.902 173.871C274.337 174.291 274.054 174.806 274.054 175.416C274.054 175.807 274.126 176.148 274.271 176.438C274.416 176.714 274.641 176.961 274.946 177.178C275.251 177.381 275.635 177.563 276.099 177.722C276.578 177.867 277.144 178.012 277.797 178.157C278.74 178.361 279.545 178.593 280.212 178.854C280.894 179.1 281.445 179.405 281.866 179.768C282.301 180.13 282.613 180.558 282.801 181.052C283.005 181.545 283.106 182.132 283.106 182.814C283.106 183.409 282.976 183.967 282.714 184.49C282.453 184.997 282.076 185.447 281.583 185.839C281.09 186.216 280.488 186.513 279.777 186.731C279.066 186.949 278.254 187.057 277.34 187.057Z" fill="black"/>
<rect x="136.951" y="156.34" width="249" height="44" stroke="#58A982"/>
<rect x="174.951" y="101.34" width="249" height="44" fill="#DBEEE5"/>
<path d="M274.698 132.057C273.784 132.057 272.987 131.949 272.305 131.731C271.623 131.513 271.05 131.216 270.586 130.839C270.121 130.447 269.751 129.997 269.476 129.49C269.215 128.967 269.033 128.409 268.932 127.814H270.977C271.05 128.148 271.173 128.467 271.347 128.772C271.521 129.062 271.753 129.316 272.044 129.533C272.348 129.751 272.718 129.925 273.153 130.055C273.589 130.172 274.104 130.23 274.698 130.23C275.917 130.23 276.838 129.997 277.462 129.533C278.1 129.069 278.419 128.496 278.419 127.814C278.419 127.393 278.347 127.038 278.202 126.748C278.071 126.458 277.839 126.204 277.505 125.986C277.186 125.769 276.758 125.573 276.222 125.399C275.699 125.225 275.054 125.051 274.285 124.877C273.429 124.688 272.689 124.485 272.065 124.267C271.456 124.035 270.948 123.752 270.542 123.419C270.15 123.07 269.853 122.657 269.65 122.178C269.461 121.7 269.367 121.112 269.367 120.416C269.367 119.85 269.49 119.328 269.737 118.849C269.984 118.356 270.332 117.928 270.781 117.565C271.246 117.202 271.804 116.919 272.457 116.716C273.124 116.499 273.871 116.39 274.698 116.39C275.511 116.39 276.222 116.499 276.831 116.716C277.44 116.919 277.955 117.202 278.376 117.565C278.811 117.928 279.152 118.356 279.399 118.849C279.645 119.328 279.819 119.85 279.921 120.416H277.875C277.803 120.111 277.694 119.828 277.549 119.567C277.404 119.291 277.201 119.059 276.94 118.871C276.693 118.668 276.381 118.508 276.004 118.392C275.641 118.276 275.206 118.218 274.698 118.218C273.654 118.218 272.841 118.435 272.261 118.871C271.695 119.291 271.413 119.806 271.413 120.416C271.413 120.807 271.485 121.148 271.63 121.438C271.775 121.714 272 121.961 272.305 122.178C272.609 122.381 272.994 122.563 273.458 122.722C273.937 122.867 274.503 123.012 275.155 123.157C276.098 123.361 276.903 123.593 277.571 123.854C278.253 124.1 278.804 124.405 279.225 124.768C279.66 125.13 279.972 125.558 280.16 126.052C280.363 126.545 280.465 127.132 280.465 127.814C280.465 128.409 280.334 128.967 280.073 129.49C279.812 129.997 279.435 130.447 278.942 130.839C278.448 131.216 277.846 131.513 277.136 131.731C276.425 131.949 275.612 132.057 274.698 132.057ZM283.83 116.608H285.832L294.014 128.467V116.608H296.016V131.84H294.014L285.832 119.98V131.84H283.83V116.608ZM300.363 116.608H302.495L307.587 126.291L312.679 116.608H314.725V131.84H312.679V120.307L308.305 128.576H306.782L302.408 120.307V131.84H300.363V116.608ZM319.084 116.608H324.307C325.308 116.608 326.178 116.724 326.918 116.956C327.658 117.188 328.267 117.514 328.746 117.935C329.239 118.341 329.602 118.834 329.834 119.415C330.066 119.98 330.182 120.604 330.182 121.286C330.182 121.968 330.066 122.599 329.834 123.179C329.602 123.745 329.239 124.238 328.746 124.659C328.267 125.065 327.658 125.384 326.918 125.616C326.178 125.848 325.308 125.965 324.307 125.965H321.13V131.84H319.084V116.608ZM324.198 124.18C324.923 124.18 325.533 124.115 326.026 123.984C326.534 123.839 326.94 123.643 327.244 123.397C327.564 123.15 327.789 122.846 327.919 122.483C328.064 122.12 328.137 121.721 328.137 121.286C328.137 120.851 328.064 120.452 327.919 120.089C327.789 119.727 327.564 119.422 327.244 119.175C326.94 118.929 326.534 118.74 326.026 118.61C325.533 118.464 324.923 118.392 324.198 118.392H321.13V124.18H324.198Z" fill="black"/>
<rect x="174.951" y="101.34" width="249" height="44" stroke="#58A982"/>
<rect x="473.654" y="101.34" width="249" height="44" fill="#DBEEE5"/>
<path d="M576.571 118.392H571.283V116.608H583.904V118.392H578.616V131.84H576.571V118.392ZM586.518 116.608H596.31V118.392H588.563V123.332H595.657V125.116H588.563V131.84H586.518V116.608ZM603.431 118.392H598.143V116.608H610.764V118.392H605.476V131.84H603.431V118.392ZM613.378 116.608H618.601C619.602 116.608 620.472 116.724 621.212 116.956C621.952 117.188 622.561 117.514 623.04 117.935C623.533 118.341 623.896 118.834 624.128 119.415C624.36 119.98 624.476 120.604 624.476 121.286C624.476 121.968 624.36 122.599 624.128 123.179C623.896 123.745 623.533 124.238 623.04 124.659C622.561 125.065 621.952 125.384 621.212 125.616C620.472 125.848 619.602 125.965 618.601 125.965H615.424V131.84H613.378V116.608ZM618.492 124.18C619.217 124.18 619.826 124.115 620.32 123.984C620.827 123.839 621.234 123.643 621.538 123.397C621.857 123.15 622.082 122.846 622.213 122.483C622.358 122.12 622.43 121.721 622.43 121.286C622.43 120.851 622.358 120.452 622.213 120.089C622.082 119.727 621.857 119.422 621.538 119.175C621.234 118.929 620.827 118.74 620.32 118.61C619.826 118.464 619.217 118.392 618.492 118.392H615.424V124.18H618.492Z" fill="black"/>
<rect x="473.654" y="101.34" width="249" height="44" stroke="#58A982"/>
<rect x="509.451" y="156.34" width="249" height="44" fill="#DBEEE5"/>
<path d="M610.671 171.608H612.891L617.656 184.229L622.248 171.608H624.38L618.657 186.84H616.612L610.671 171.608ZM630.045 187.057C629.306 187.057 628.602 186.941 627.935 186.709C627.267 186.463 626.68 186.1 626.172 185.621C625.664 185.128 625.258 184.511 624.953 183.772C624.649 183.032 624.496 182.169 624.496 181.182V180.747C624.496 179.819 624.649 178.999 624.953 178.288C625.258 177.577 625.664 176.99 626.172 176.525C626.68 176.047 627.267 175.691 627.935 175.459C628.602 175.213 629.306 175.089 630.045 175.089C630.785 175.089 631.489 175.213 632.156 175.459C632.823 175.691 633.411 176.047 633.919 176.525C634.426 176.99 634.833 177.577 635.137 178.288C635.442 178.999 635.594 179.819 635.594 180.747V181.182C635.594 182.169 635.442 183.032 635.137 183.772C634.833 184.511 634.426 185.128 633.919 185.621C633.411 186.1 632.823 186.463 632.156 186.709C631.489 186.941 630.785 187.057 630.045 187.057ZM630.045 185.317C630.481 185.317 630.916 185.244 631.351 185.099C631.786 184.939 632.171 184.7 632.504 184.381C632.838 184.047 633.106 183.619 633.309 183.097C633.527 182.575 633.636 181.937 633.636 181.182V180.747C633.636 180.051 633.527 179.456 633.309 178.963C633.106 178.469 632.838 178.063 632.504 177.744C632.171 177.425 631.786 177.193 631.351 177.048C630.916 176.903 630.481 176.83 630.045 176.83C629.61 176.83 629.175 176.903 628.74 177.048C628.305 177.193 627.92 177.425 627.586 177.744C627.253 178.063 626.977 178.469 626.76 178.963C626.556 179.456 626.455 180.051 626.455 180.747V181.182C626.455 181.937 626.556 182.575 626.76 183.097C626.977 183.619 627.253 184.047 627.586 184.381C627.92 184.7 628.305 184.939 628.74 185.099C629.175 185.244 629.61 185.317 630.045 185.317ZM638.959 171.608H641.004V186.84H638.959V171.608ZM645.584 171.608H650.806C651.807 171.608 652.677 171.724 653.417 171.956C654.157 172.188 654.766 172.514 655.245 172.935C655.738 173.341 656.101 173.834 656.333 174.415C656.565 174.98 656.681 175.604 656.681 176.286C656.681 176.968 656.565 177.599 656.333 178.179C656.101 178.745 655.738 179.238 655.245 179.659C654.766 180.065 654.157 180.384 653.417 180.616C652.677 180.848 651.807 180.965 650.806 180.965H647.629V186.84H645.584V171.608ZM650.697 179.18C651.423 179.18 652.032 179.115 652.525 178.984C653.033 178.839 653.439 178.643 653.744 178.397C654.063 178.15 654.288 177.846 654.418 177.483C654.563 177.12 654.636 176.721 654.636 176.286C654.636 175.851 654.563 175.452 654.418 175.089C654.288 174.727 654.063 174.422 653.744 174.175C653.439 173.929 653.033 173.74 652.525 173.61C652.032 173.464 651.423 173.392 650.697 173.392H647.629V179.18H650.697Z" fill="black"/>
<rect x="509.451" y="156.34" width="249" height="44" stroke="#58A982"/>
<rect x="545.654" y="211.34" width="249" height="44" fill="#DBEEE5"/>
<path d="M563.008 226.608H568.448C569.362 226.608 570.145 226.709 570.798 226.912C571.451 227.115 571.988 227.398 572.408 227.761C572.844 228.109 573.163 228.537 573.366 229.045C573.569 229.538 573.671 230.082 573.671 230.677C573.671 231.46 573.453 232.135 573.018 232.7C572.583 233.252 572.046 233.651 571.407 233.897C572.307 234.1 573.018 234.514 573.54 235.138C574.062 235.747 574.323 236.545 574.323 237.531C574.323 238.155 574.222 238.728 574.019 239.25C573.816 239.773 573.496 240.23 573.061 240.621C572.626 240.998 572.06 241.296 571.364 241.513C570.682 241.731 569.855 241.84 568.883 241.84H563.008V226.608ZM568.883 240.055C569.536 240.055 570.08 239.997 570.515 239.881C570.95 239.751 571.299 239.577 571.56 239.359C571.821 239.127 572.002 238.851 572.104 238.532C572.22 238.213 572.278 237.858 572.278 237.466C572.278 237.074 572.22 236.719 572.104 236.4C572.002 236.066 571.821 235.79 571.56 235.573C571.299 235.341 570.943 235.167 570.494 235.051C570.058 234.92 569.514 234.855 568.861 234.855H565.053V240.055H568.883ZM568.448 233.157C569.057 233.157 569.565 233.099 569.971 232.983C570.377 232.867 570.704 232.7 570.95 232.483C571.197 232.265 571.371 232.011 571.473 231.721C571.574 231.431 571.625 231.112 571.625 230.764C571.625 230.416 571.574 230.097 571.473 229.806C571.371 229.502 571.197 229.248 570.95 229.045C570.704 228.842 570.377 228.682 569.971 228.566C569.565 228.45 569.057 228.392 568.448 228.392H565.053V233.157H568.448ZM577.15 230.307H579.065V239.011L585.028 230.307H586.943V241.84H585.028V233.136L579.065 241.84H577.15V230.307ZM589.126 240.143H590.541C590.7 239.925 590.845 239.591 590.976 239.142C591.107 238.692 591.223 238.162 591.324 237.553C591.426 236.944 591.498 236.284 591.542 235.573C591.6 234.848 591.629 234.108 591.629 233.353V230.307H599.68V240.143H601.312V244.56H599.484V241.84H590.954V244.56H589.126V240.143ZM597.765 240.143V232.004H593.5V233.789C593.5 234.398 593.478 235.007 593.435 235.616C593.391 236.211 593.326 236.784 593.239 237.335C593.152 237.872 593.043 238.387 592.913 238.88C592.797 239.359 592.659 239.78 592.499 240.143H597.765ZM608.394 242.057C607.655 242.057 606.951 241.941 606.284 241.709C605.616 241.477 605.029 241.122 604.521 240.643C604.013 240.15 603.607 239.533 603.303 238.793C602.998 238.054 602.846 237.183 602.846 236.182V235.747C602.846 234.789 602.991 233.963 603.281 233.266C603.571 232.555 603.955 231.968 604.434 231.504C604.927 231.025 605.493 230.67 606.131 230.437C606.784 230.205 607.466 230.089 608.177 230.089C609.874 230.089 611.187 230.553 612.115 231.482C613.044 232.41 613.508 233.723 613.508 235.421V236.639H604.76C604.76 237.321 604.869 237.894 605.087 238.358C605.304 238.822 605.587 239.2 605.936 239.49C606.284 239.78 606.668 239.99 607.089 240.121C607.524 240.251 607.959 240.317 608.394 240.317C609.265 240.317 609.932 240.172 610.396 239.881C610.875 239.591 611.216 239.192 611.419 238.685H613.291C613.174 239.236 612.964 239.722 612.659 240.143C612.369 240.563 612.007 240.919 611.571 241.209C611.151 241.484 610.665 241.695 610.113 241.84C609.577 241.985 609.004 242.057 608.394 242.057ZM608.286 231.83C607.836 231.83 607.401 231.895 606.98 232.026C606.559 232.142 606.182 232.338 605.848 232.613C605.529 232.875 605.268 233.208 605.065 233.614C604.862 234.021 604.76 234.507 604.76 235.072H611.702C611.687 234.478 611.586 233.977 611.397 233.571C611.223 233.15 610.984 232.817 610.679 232.57C610.375 232.309 610.012 232.12 609.591 232.004C609.185 231.888 608.75 231.83 608.286 231.83ZM621.017 242.057C620.277 242.057 619.574 241.941 618.906 241.709C618.239 241.463 617.652 241.1 617.144 240.621C616.636 240.128 616.23 239.511 615.925 238.772C615.621 238.032 615.468 237.169 615.468 236.182V235.747C615.468 234.819 615.621 233.999 615.925 233.288C616.23 232.577 616.636 231.99 617.144 231.525C617.652 231.047 618.239 230.691 618.906 230.459C619.574 230.213 620.277 230.089 621.017 230.089C621.757 230.089 622.461 230.213 623.128 230.459C623.795 230.691 624.383 231.047 624.89 231.525C625.398 231.99 625.804 232.577 626.109 233.288C626.414 233.999 626.566 234.819 626.566 235.747V236.182C626.566 237.169 626.414 238.032 626.109 238.772C625.804 239.511 625.398 240.128 624.89 240.621C624.383 241.1 623.795 241.463 623.128 241.709C622.461 241.941 621.757 242.057 621.017 242.057ZM621.017 240.317C621.452 240.317 621.888 240.244 622.323 240.099C622.758 239.939 623.142 239.7 623.476 239.381C623.81 239.047 624.078 238.619 624.281 238.097C624.499 237.575 624.608 236.937 624.608 236.182V235.747C624.608 235.051 624.499 234.456 624.281 233.963C624.078 233.469 623.81 233.063 623.476 232.744C623.142 232.425 622.758 232.193 622.323 232.048C621.888 231.903 621.452 231.83 621.017 231.83C620.582 231.83 620.147 231.903 619.712 232.048C619.276 232.193 618.892 232.425 618.558 232.744C618.225 233.063 617.949 233.469 617.731 233.963C617.528 234.456 617.427 235.051 617.427 235.747V236.182C617.427 236.937 617.528 237.575 617.731 238.097C617.949 238.619 618.225 239.047 618.558 239.381C618.892 239.7 619.276 239.939 619.712 240.099C620.147 240.244 620.582 240.317 621.017 240.317ZM634.718 230.307H636.633V235.138H638.156L642.464 230.307H644.727L639.723 235.834L644.945 241.84H642.508L638.156 236.791H636.633V241.84H634.718V230.307ZM651.596 242.057C650.857 242.057 650.153 241.941 649.486 241.709C648.818 241.463 648.231 241.1 647.723 240.621C647.215 240.128 646.809 239.511 646.504 238.772C646.2 238.032 646.047 237.169 646.047 236.182V235.747C646.047 234.819 646.2 233.999 646.504 233.288C646.809 232.577 647.215 231.99 647.723 231.525C648.231 231.047 648.818 230.691 649.486 230.459C650.153 230.213 650.857 230.089 651.596 230.089C652.336 230.089 653.04 230.213 653.707 230.459C654.374 230.691 654.962 231.047 655.47 231.525C655.977 231.99 656.384 232.577 656.688 233.288C656.993 233.999 657.145 234.819 657.145 235.747V236.182C657.145 237.169 656.993 238.032 656.688 238.772C656.384 239.511 655.977 240.128 655.47 240.621C654.962 241.1 654.374 241.463 653.707 241.709C653.04 241.941 652.336 242.057 651.596 242.057ZM651.596 240.317C652.032 240.317 652.467 240.244 652.902 240.099C653.337 239.939 653.722 239.7 654.055 239.381C654.389 239.047 654.657 238.619 654.86 238.097C655.078 237.575 655.187 236.937 655.187 236.182V235.747C655.187 235.051 655.078 234.456 654.86 233.963C654.657 233.469 654.389 233.063 654.055 232.744C653.722 232.425 653.337 232.193 652.902 232.048C652.467 231.903 652.032 231.83 651.596 231.83C651.161 231.83 650.726 231.903 650.291 232.048C649.856 232.193 649.471 232.425 649.137 232.744C648.804 233.063 648.528 233.469 648.311 233.963C648.107 234.456 648.006 235.051 648.006 235.747V236.182C648.006 236.937 648.107 237.575 648.311 238.097C648.528 238.619 648.804 239.047 649.137 239.381C649.471 239.7 649.856 239.939 650.291 240.099C650.726 240.244 651.161 240.317 651.596 240.317ZM659.857 230.307H661.772V235.116H667.734V230.307H669.649V241.84H667.734V236.813H661.772V241.84H659.857V230.307ZM678.491 242.057C676.489 242.057 674.966 241.55 673.922 240.534C672.892 239.519 672.377 238.075 672.377 236.204V235.769C672.377 233.984 672.892 232.592 673.922 231.591C674.966 230.59 676.489 230.089 678.491 230.089V226.608H680.406V230.089C682.408 230.089 683.924 230.59 684.954 231.591C685.999 232.592 686.521 233.984 686.521 235.769V236.204C686.521 238.075 685.999 239.519 684.954 240.534C683.924 241.55 682.408 242.057 680.406 242.057V246.192H678.491V242.057ZM684.562 235.769C684.562 234.449 684.222 233.462 683.54 232.809C682.872 232.156 681.821 231.83 680.384 231.83V240.317C681.821 240.317 682.872 239.983 683.54 239.316C684.222 238.648 684.562 237.611 684.562 236.204V235.769ZM674.335 236.204C674.335 237.611 674.669 238.648 675.336 239.316C676.018 239.983 677.077 240.317 678.513 240.317V231.83C677.077 231.83 676.018 232.156 675.336 232.809C674.669 233.462 674.335 234.449 674.335 235.769V236.204ZM694.033 242.057C693.293 242.057 692.59 241.941 691.923 241.709C691.255 241.477 690.668 241.122 690.16 240.643C689.652 240.15 689.246 239.533 688.941 238.793C688.637 238.054 688.484 237.183 688.484 236.182V235.747C688.484 234.789 688.629 233.963 688.92 233.266C689.21 232.555 689.594 231.968 690.073 231.504C690.566 231.025 691.132 230.67 691.77 230.437C692.423 230.205 693.105 230.089 693.816 230.089C695.513 230.089 696.826 230.553 697.754 231.482C698.683 232.41 699.147 233.723 699.147 235.421V236.639H690.399C690.399 237.321 690.508 237.894 690.726 238.358C690.943 238.822 691.226 239.2 691.574 239.49C691.923 239.78 692.307 239.99 692.728 240.121C693.163 240.251 693.598 240.317 694.033 240.317C694.904 240.317 695.571 240.172 696.035 239.881C696.514 239.591 696.855 239.192 697.058 238.685H698.929C698.813 239.236 698.603 239.722 698.298 240.143C698.008 240.563 697.646 240.919 697.21 241.209C696.79 241.484 696.304 241.695 695.752 241.84C695.216 241.985 694.643 242.057 694.033 242.057ZM693.925 231.83C693.475 231.83 693.04 231.895 692.619 232.026C692.198 232.142 691.821 232.338 691.487 232.613C691.168 232.875 690.907 233.208 690.704 233.614C690.501 234.021 690.399 234.507 690.399 235.072H697.341C697.326 234.478 697.225 233.977 697.036 233.571C696.862 233.15 696.623 232.817 696.318 232.57C696.014 232.309 695.651 232.12 695.23 232.004C694.824 231.888 694.389 231.83 693.925 231.83ZM701.869 230.307H703.653V232.483C704.045 231.714 704.589 231.126 705.285 230.72C705.996 230.3 706.816 230.089 707.744 230.089C709.195 230.089 710.355 230.568 711.226 231.525C712.096 232.468 712.531 233.876 712.531 235.747V236.182C712.531 237.169 712.415 238.032 712.183 238.772C711.951 239.497 711.625 240.106 711.204 240.6C710.783 241.078 710.275 241.441 709.681 241.688C709.1 241.934 708.455 242.057 707.744 242.057C706.758 242.057 705.931 241.84 705.263 241.405C704.611 240.969 704.117 240.425 703.784 239.773V246.192H701.869V230.307ZM707.309 240.36C707.773 240.36 708.208 240.273 708.614 240.099C709.021 239.91 709.369 239.642 709.659 239.294C709.964 238.946 710.196 238.511 710.355 237.988C710.529 237.466 710.616 236.864 710.616 236.182V235.747C710.616 235.123 710.529 234.565 710.355 234.071C710.196 233.578 709.964 233.165 709.659 232.831C709.369 232.483 709.021 232.222 708.614 232.048C708.208 231.874 707.773 231.787 707.309 231.787C706.787 231.787 706.308 231.874 705.873 232.048C705.437 232.207 705.067 232.439 704.763 232.744C704.458 233.034 704.219 233.382 704.045 233.789C703.871 234.195 703.784 234.63 703.784 235.094V236.835C703.784 237.357 703.871 237.836 704.045 238.271C704.219 238.706 704.458 239.076 704.763 239.381C705.067 239.686 705.437 239.925 705.873 240.099C706.308 240.273 706.787 240.36 707.309 240.36ZM720.044 242.057C719.304 242.057 718.6 241.941 717.933 241.709C717.266 241.477 716.678 241.122 716.17 240.643C715.663 240.15 715.256 239.533 714.952 238.793C714.647 238.054 714.495 237.183 714.495 236.182V235.747C714.495 234.789 714.64 233.963 714.93 233.266C715.22 232.555 715.605 231.968 716.083 231.504C716.577 231.025 717.142 230.67 717.781 230.437C718.433 230.205 719.115 230.089 719.826 230.089C721.523 230.089 722.836 230.553 723.765 231.482C724.693 232.41 725.157 233.723 725.157 235.421V236.639H716.41C716.41 237.321 716.519 237.894 716.736 238.358C716.954 238.822 717.237 239.2 717.585 239.49C717.933 239.78 718.317 239.99 718.738 240.121C719.173 240.251 719.609 240.317 720.044 240.317C720.914 240.317 721.581 240.172 722.046 239.881C722.524 239.591 722.865 239.192 723.068 238.685H724.94C724.824 239.236 724.613 239.722 724.309 240.143C724.019 240.563 723.656 240.919 723.221 241.209C722.8 241.484 722.314 241.695 721.763 241.84C721.226 241.985 720.653 242.057 720.044 242.057ZM719.935 231.83C719.485 231.83 719.05 231.895 718.629 232.026C718.209 232.142 717.831 232.338 717.498 232.613C717.179 232.875 716.917 233.208 716.714 233.614C716.511 234.021 716.41 234.507 716.41 235.072H723.351C723.337 234.478 723.235 233.977 723.047 233.571C722.873 233.15 722.633 232.817 722.329 232.57C722.024 232.309 721.661 232.12 721.241 232.004C720.834 231.888 720.399 231.83 719.935 231.83ZM727.879 230.307H729.794V235.116H735.756V230.307H737.671V241.84H735.756V236.813H729.794V241.84H727.879V230.307ZM750.539 241.84H741.161V230.307H743.076V240.143H748.603V230.307H750.518V240.143H752.367V244.56H750.539V241.84ZM754.655 230.307H756.569V239.011L762.532 230.307H764.447V241.84H762.532V233.136L756.569 241.84H754.655V230.307ZM767.936 230.307H769.851V239.011L775.813 230.307H777.728V241.84H775.813V233.136L769.851 241.84H767.936V230.307Z" fill="black"/>
<rect x="545.654" y="211.34" width="249" height="44" stroke="#58A982"/>
<rect x="298.303" y="419.34" width="299" height="44" fill="#DBEEE5"/>
<path d="M433.05 450.057C432.136 450.057 431.309 449.927 430.569 449.666C429.844 449.405 429.22 449.006 428.698 448.469C428.176 447.932 427.769 447.258 427.479 446.445C427.204 445.618 427.066 444.646 427.066 443.529V434.608H429.111V443.529C429.111 445.183 429.459 446.38 430.156 447.12C430.852 447.86 431.817 448.23 433.05 448.23C434.283 448.23 435.248 447.86 435.944 447.12C436.64 446.38 436.989 445.183 436.989 443.529V434.608H439.034V443.529C439.034 444.646 438.889 445.618 438.599 446.445C438.323 447.258 437.924 447.932 437.402 448.469C436.88 449.006 436.249 449.405 435.509 449.666C434.783 449.927 433.964 450.057 433.05 450.057ZM443.179 434.608H447.64C448.786 434.608 449.808 434.767 450.708 435.086C451.607 435.391 452.369 435.848 452.993 436.457C453.616 437.067 454.095 437.828 454.429 438.742C454.762 439.656 454.929 440.708 454.929 441.897V442.333C454.929 443.551 454.755 444.632 454.407 445.575C454.073 446.503 453.58 447.287 452.927 447.925C452.289 448.549 451.506 449.027 450.577 449.361C449.649 449.68 448.597 449.84 447.422 449.84H443.179V434.608ZM447.204 448.055C448.06 448.055 448.829 447.947 449.511 447.729C450.207 447.511 450.795 447.178 451.274 446.728C451.752 446.264 452.115 445.669 452.362 444.944C452.623 444.218 452.753 443.348 452.753 442.333V441.897C452.753 440.925 452.63 440.091 452.383 439.395C452.137 438.699 451.781 438.133 451.317 437.698C450.853 437.248 450.287 436.921 449.62 436.718C448.967 436.501 448.234 436.392 447.422 436.392H445.224V448.055H447.204ZM458.415 434.608H463.638C464.639 434.608 465.509 434.724 466.249 434.956C466.989 435.188 467.598 435.514 468.077 435.935C468.57 436.341 468.933 436.834 469.165 437.415C469.397 437.98 469.513 438.604 469.513 439.286C469.513 439.968 469.397 440.599 469.165 441.179C468.933 441.745 468.57 442.238 468.077 442.659C467.598 443.065 466.989 443.384 466.249 443.616C465.509 443.848 464.639 443.965 463.638 443.965H460.461V449.84H458.415V434.608ZM463.529 442.18C464.254 442.18 464.863 442.115 465.357 441.984C465.864 441.839 466.271 441.643 466.575 441.397C466.894 441.15 467.119 440.846 467.25 440.483C467.395 440.12 467.467 439.721 467.467 439.286C467.467 438.851 467.395 438.452 467.25 438.089C467.119 437.727 466.894 437.422 466.575 437.175C466.271 436.929 465.864 436.74 465.357 436.61C464.863 436.464 464.254 436.392 463.529 436.392H460.461V442.18H463.529Z" fill="black"/>
<rect x="298.303" y="419.34" width="299" height="44" stroke="#58A982"/>
<rect x="248.303" y="558.34" width="399" height="44" fill="#ABD4C1"/>
<path d="M439.646 573.608H441.691V588.84H439.646V573.608ZM446.271 573.608H451.493C452.494 573.608 453.364 573.724 454.104 573.956C454.844 574.188 455.453 574.514 455.932 574.935C456.425 575.341 456.788 575.834 457.02 576.415C457.252 576.98 457.368 577.604 457.368 578.286C457.368 578.968 457.252 579.599 457.02 580.179C456.788 580.745 456.425 581.238 455.932 581.659C455.453 582.065 454.844 582.384 454.104 582.616C453.364 582.848 452.494 582.965 451.493 582.965H448.316V588.84H446.271V573.608ZM451.384 581.18C452.11 581.18 452.719 581.115 453.212 580.984C453.72 580.839 454.126 580.643 454.431 580.397C454.75 580.15 454.975 579.846 455.105 579.483C455.25 579.12 455.323 578.721 455.323 578.286C455.323 577.851 455.25 577.452 455.105 577.089C454.975 576.727 454.75 576.422 454.431 576.175C454.126 575.929 453.72 575.74 453.212 575.61C452.719 575.464 452.11 575.392 451.384 575.392H448.316V581.18H451.384Z" fill="black"/>
<rect x="248.303" y="558.34" width="399" height="44" stroke="#58A982"/>
<path d="M459.35 493.84L447.803 473.84L436.256 493.84L459.35 493.84Z" fill="#FFBD6E"/>
<path d="M442.803 527.84L442.803 493.84L452.803 493.84L452.803 527.84L442.803 527.84Z" fill="#FFBD6E"/>
<path d="M459.35 527.84L447.803 547.84L436.256 527.84L459.35 527.84Z" fill="#FFBD6E"/>
<path d="M422.35 175.84L410.803 155.84L399.256 175.84L422.35 175.84Z" fill="#FFBD6E"/>
<path d="M405.803 388.84L405.803 175.84L415.803 175.84L415.803 388.84L405.803 388.84Z" fill="#FFBD6E"/>
<path d="M422.35 388.84L410.803 408.84L399.256 388.84L422.35 388.84Z" fill="#FFBD6E"/>
<path d="M386.35 230.84L374.803 210.84L363.256 230.84L386.35 230.84Z" fill="#FFBD6E"/>
<path d="M369.803 388.84L369.803 230.84L379.803 230.84L379.803 388.84L369.803 388.84Z" fill="#FFBD6E"/>
<path d="M386.35 388.84L374.803 408.84L363.256 388.84L386.35 388.84Z" fill="#FFBD6E"/>
<path d="M532.35 230.84L520.803 210.84L509.256 230.84L532.35 230.84Z" fill="#FFBD6E"/>
<path d="M515.803 388.84L515.803 230.84L525.803 230.84L525.803 388.84L515.803 388.84Z" fill="#FFBD6E"/>
<path d="M532.35 388.84L520.803 408.84L509.256 388.84L532.35 388.84Z" fill="#FFBD6E"/>
<path d="M568.35 285.84L556.803 265.84L545.256 285.84L568.35 285.84Z" fill="#FFBD6E"/>
<path d="M551.803 388.84L551.803 285.84L561.803 285.84L561.803 388.84L551.803 388.84Z" fill="#FFBD6E"/>
<path d="M568.35 388.84L556.803 408.84L545.256 388.84L568.35 388.84Z" fill="#FFBD6E"/>
<path d="M350.35 285.84L338.803 265.84L327.256 285.84L350.35 285.84Z" fill="#FFBD6E"/>
<path d="M333.803 388.84L333.803 285.84L343.803 285.84L343.803 388.84L333.803 388.84Z" fill="#FFBD6E"/>
<path d="M350.35 388.84L338.803 408.84L327.256 388.84L350.35 388.84Z" fill="#FFBD6E"/>
<path d="M496.35 175.84L484.803 155.84L473.256 175.84L496.35 175.84Z" fill="#FFBD6E"/>
<path d="M479.803 388.84L479.803 175.84L489.803 175.84L489.803 388.84L479.803 388.84Z" fill="#FFBD6E"/>
<path d="M496.35 388.84L484.803 408.84L473.256 388.84L496.35 388.84Z" fill="#FFBD6E"/>
</svg>
