<svg width="1400" height="580" viewBox="0 0 1400 580" fill="none" xmlns="http://www.w3.org/2000/svg">
<path d="M898.664 107.552H893.376V105.768H905.997V107.552H900.71V121H898.664V107.552ZM913.735 121.218C912.879 121.218 912.067 121.073 911.298 120.782C910.529 120.478 909.847 120.014 909.252 119.39C908.658 118.751 908.186 117.946 907.838 116.974C907.49 116.002 907.316 114.842 907.316 113.493V113.057C907.316 111.752 907.49 110.628 907.838 109.685C908.186 108.742 908.658 107.966 909.252 107.356C909.847 106.747 910.529 106.297 911.298 106.007C912.067 105.702 912.879 105.55 913.735 105.55C914.562 105.55 915.316 105.659 915.998 105.877C916.694 106.094 917.304 106.406 917.826 106.812C918.348 107.218 918.769 107.719 919.088 108.314C919.422 108.908 919.632 109.583 919.719 110.337H917.543C917.34 109.351 916.912 108.611 916.259 108.118C915.606 107.625 914.765 107.378 913.735 107.378C913.198 107.378 912.676 107.48 912.168 107.683C911.661 107.886 911.204 108.212 910.797 108.662C910.406 109.097 910.087 109.677 909.84 110.403C909.608 111.128 909.492 112.013 909.492 113.057V113.493C909.492 114.595 909.622 115.524 909.883 116.278C910.145 117.018 910.478 117.62 910.884 118.084C911.291 118.548 911.748 118.882 912.255 119.085C912.763 119.288 913.256 119.39 913.735 119.39C914.867 119.39 915.751 119.114 916.39 118.563C917.028 118.012 917.413 117.301 917.543 116.43H919.719C919.603 117.272 919.371 117.997 919.023 118.606C918.675 119.201 918.232 119.694 917.695 120.086C917.173 120.478 916.571 120.768 915.889 120.956C915.222 121.131 914.504 121.218 913.735 121.218ZM922.976 105.768H928.199C929.2 105.768 930.07 105.884 930.81 106.116C931.55 106.348 932.159 106.674 932.638 107.095C933.131 107.501 933.494 107.995 933.726 108.575C933.958 109.141 934.074 109.764 934.074 110.446C934.074 111.128 933.958 111.759 933.726 112.339C933.494 112.905 933.131 113.398 932.638 113.819C932.159 114.225 931.55 114.544 930.81 114.777C930.07 115.009 929.2 115.125 928.199 115.125H925.022V121H922.976V105.768ZM928.09 113.34C928.815 113.34 929.425 113.275 929.918 113.145C930.426 112.999 930.832 112.804 931.136 112.557C931.456 112.31 931.68 112.006 931.811 111.643C931.956 111.28 932.029 110.881 932.029 110.446C932.029 110.011 931.956 109.612 931.811 109.249C931.68 108.887 931.456 108.582 931.136 108.335C930.832 108.089 930.426 107.9 929.918 107.77C929.425 107.625 928.815 107.552 928.09 107.552H925.022V113.34H928.09ZM942.675 105.768H944.808L949.9 115.451L954.992 105.768H957.037V121H954.992V109.467L950.618 117.736H949.095L944.721 109.467V121H942.675V105.768ZM966.184 121.218C965.27 121.218 964.472 121.109 963.791 120.891C963.109 120.674 962.536 120.376 962.072 119.999C961.607 119.607 961.237 119.158 960.962 118.65C960.701 118.128 960.519 117.569 960.418 116.974H962.463C962.536 117.308 962.659 117.627 962.833 117.932C963.007 118.222 963.239 118.476 963.529 118.693C963.834 118.911 964.204 119.085 964.639 119.216C965.074 119.332 965.589 119.39 966.184 119.39C967.403 119.39 968.324 119.158 968.948 118.693C969.586 118.229 969.905 117.656 969.905 116.974C969.905 116.554 969.833 116.198 969.688 115.908C969.557 115.618 969.325 115.364 968.991 115.146C968.672 114.929 968.244 114.733 967.707 114.559C967.185 114.385 966.54 114.211 965.771 114.037C964.915 113.848 964.175 113.645 963.551 113.427C962.942 113.195 962.434 112.912 962.028 112.579C961.636 112.231 961.339 111.817 961.136 111.338C960.947 110.86 960.853 110.272 960.853 109.576C960.853 109.01 960.976 108.488 961.223 108.009C961.47 107.516 961.818 107.088 962.267 106.725C962.732 106.363 963.29 106.08 963.943 105.877C964.61 105.659 965.357 105.55 966.184 105.55C966.997 105.55 967.707 105.659 968.317 105.877C968.926 106.08 969.441 106.363 969.862 106.725C970.297 107.088 970.638 107.516 970.884 108.009C971.131 108.488 971.305 109.01 971.407 109.576H969.361C969.289 109.271 969.18 108.988 969.035 108.727C968.89 108.452 968.687 108.219 968.426 108.031C968.179 107.828 967.867 107.668 967.49 107.552C967.127 107.436 966.692 107.378 966.184 107.378C965.14 107.378 964.327 107.596 963.747 108.031C963.181 108.452 962.898 108.967 962.898 109.576C962.898 109.968 962.971 110.308 963.116 110.599C963.261 110.874 963.486 111.121 963.791 111.338C964.095 111.542 964.48 111.723 964.944 111.882C965.423 112.027 965.988 112.173 966.641 112.318C967.584 112.521 968.389 112.753 969.057 113.014C969.738 113.261 970.29 113.565 970.71 113.928C971.146 114.291 971.458 114.719 971.646 115.212C971.849 115.705 971.951 116.293 971.951 116.974C971.951 117.569 971.82 118.128 971.559 118.65C971.298 119.158 970.921 119.607 970.428 119.999C969.934 120.376 969.332 120.674 968.621 120.891C967.911 121.109 967.098 121.218 966.184 121.218ZM980.103 121.218C979.189 121.218 978.391 121.109 977.71 120.891C977.028 120.674 976.455 120.376 975.991 119.999C975.526 119.607 975.156 119.158 974.881 118.65C974.62 118.128 974.438 117.569 974.337 116.974H976.382C976.455 117.308 976.578 117.627 976.752 117.932C976.926 118.222 977.158 118.476 977.448 118.693C977.753 118.911 978.123 119.085 978.558 119.216C978.993 119.332 979.508 119.39 980.103 119.39C981.322 119.39 982.243 119.158 982.867 118.693C983.505 118.229 983.824 117.656 983.824 116.974C983.824 116.554 983.752 116.198 983.607 115.908C983.476 115.618 983.244 115.364 982.91 115.146C982.591 114.929 982.163 114.733 981.626 114.559C981.104 114.385 980.459 114.211 979.69 114.037C978.834 113.848 978.094 113.645 977.47 113.427C976.861 113.195 976.353 112.912 975.947 112.579C975.555 112.231 975.258 111.817 975.055 111.338C974.866 110.86 974.772 110.272 974.772 109.576C974.772 109.01 974.895 108.488 975.142 108.009C975.388 107.516 975.737 107.088 976.186 106.725C976.651 106.363 977.209 106.08 977.862 105.877C978.529 105.659 979.276 105.55 980.103 105.55C980.916 105.55 981.626 105.659 982.236 105.877C982.845 106.08 983.36 106.363 983.781 106.725C984.216 107.088 984.557 107.516 984.803 108.009C985.05 108.488 985.224 109.01 985.326 109.576H983.28C983.208 109.271 983.099 108.988 982.954 108.727C982.809 108.452 982.606 108.219 982.345 108.031C982.098 107.828 981.786 107.668 981.409 107.552C981.046 107.436 980.611 107.378 980.103 107.378C979.059 107.378 978.246 107.596 977.666 108.031C977.1 108.452 976.817 108.967 976.817 109.576C976.817 109.968 976.89 110.308 977.035 110.599C977.18 110.874 977.405 111.121 977.71 111.338C978.014 111.542 978.399 111.723 978.863 111.882C979.342 112.027 979.907 112.173 980.56 112.318C981.503 112.521 982.308 112.753 982.976 113.014C983.657 113.261 984.209 113.565 984.629 113.928C985.065 114.291 985.376 114.719 985.565 115.212C985.768 115.705 985.87 116.293 985.87 116.974C985.87 117.569 985.739 118.128 985.478 118.65C985.217 119.158 984.84 119.607 984.346 119.999C983.853 120.376 983.251 120.674 982.54 120.891C981.83 121.109 981.017 121.218 980.103 121.218Z" fill="black"/>
<path d="M848 151.094L828 139.547L848 128V151.094Z" fill="#FFBD6E"/>
<path d="M1032 134.547L848 134.547V144.547L1032 144.547V134.547Z" fill="#FFBD6E"/>
<path d="M1032 151.094L1052 139.547L1032 128V151.094Z" fill="#FFBD6E"/>
<path d="M665.067 156.862H667.113V172.094H665.067V156.862ZM671.692 156.862H676.915C677.916 156.862 678.786 156.978 679.526 157.21C680.266 157.442 680.875 157.768 681.354 158.189C681.847 158.595 682.21 159.088 682.442 159.669C682.674 160.234 682.79 160.858 682.79 161.54C682.79 162.222 682.674 162.853 682.442 163.433C682.21 163.999 681.847 164.492 681.354 164.913C680.875 165.319 680.266 165.638 679.526 165.87C678.786 166.102 677.916 166.218 676.915 166.218H673.738V172.094H671.692V156.862ZM676.806 164.434C677.531 164.434 678.141 164.369 678.634 164.238C679.142 164.093 679.548 163.897 679.853 163.651C680.172 163.404 680.397 163.099 680.527 162.737C680.672 162.374 680.745 161.975 680.745 161.54C680.745 161.105 680.672 160.706 680.527 160.343C680.397 159.98 680.172 159.676 679.853 159.429C679.548 159.183 679.142 158.994 678.634 158.863C678.141 158.718 677.531 158.646 676.806 158.646H673.738V164.434H676.806ZM691.391 156.862H693.524L698.616 166.545L703.708 156.862H705.753V172.094H703.708V160.561L699.334 168.83H697.811L693.437 160.561V172.094H691.391V156.862ZM713.66 158.646H708.372V156.862H720.993V158.646H715.705V172.094H713.66V158.646ZM729.373 172.311C728.46 172.311 727.633 172.181 726.893 171.92C726.167 171.659 725.544 171.26 725.021 170.723C724.499 170.186 724.093 169.512 723.803 168.699C723.527 167.872 723.389 166.9 723.389 165.783V156.862H725.435V165.783C725.435 167.437 725.783 168.634 726.479 169.374C727.176 170.114 728.14 170.483 729.373 170.483C730.607 170.483 731.571 170.114 732.268 169.374C732.964 168.634 733.312 167.437 733.312 165.783V156.862H735.358V165.783C735.358 166.9 735.213 167.872 734.922 168.699C734.647 169.512 734.248 170.186 733.726 170.723C733.203 171.26 732.572 171.659 731.832 171.92C731.107 172.181 730.287 172.311 729.373 172.311Z" fill="black"/>
<path d="M370 202.094L350 190.547L370 179V202.094Z" fill="#FFBD6E"/>
<path d="M1030 185.547L370 185.547V195.547L1030 195.547V185.547Z" fill="#FFBD6E"/>
<path d="M1030 202.094L1050 190.547L1030 179V202.094Z" fill="#FFBD6E"/>
<path d="M629.797 214.955H639.59V216.74H631.843V221.462H638.937V223.246H631.843V228.403H639.59V230.188H629.797V214.955ZM646.887 230.296C645.654 230.296 644.762 230.021 644.21 229.469C643.674 228.904 643.405 228.055 643.405 226.923V220.352H641.664V218.655H643.405V216.043H645.32V218.655H648.41V220.352H645.32V226.706C645.32 227.359 645.458 227.83 645.734 228.12C646.009 228.41 646.539 228.555 647.322 228.555C647.757 228.555 648.193 228.534 648.628 228.49V230.188C648.352 230.217 648.076 230.238 647.801 230.253C647.525 230.282 647.221 230.296 646.887 230.296ZM651.356 214.955H653.271V220.722C653.416 220.417 653.605 220.127 653.837 219.851C654.069 219.576 654.345 219.336 654.664 219.133C654.983 218.916 655.346 218.749 655.752 218.633C656.158 218.502 656.601 218.437 657.079 218.437C658.53 218.437 659.603 218.829 660.3 219.612C661.011 220.381 661.366 221.512 661.366 223.007V230.188H659.451V223.442C659.451 222.368 659.226 221.556 658.777 221.005C658.327 220.453 657.572 220.178 656.513 220.178C655.948 220.178 655.454 220.272 655.034 220.461C654.628 220.649 654.294 220.896 654.033 221.2C653.772 221.505 653.576 221.853 653.445 222.245C653.329 222.637 653.271 223.036 653.271 223.442V230.188H651.356V214.955ZM669.531 230.405C668.791 230.405 668.088 230.289 667.421 230.057C666.753 229.825 666.166 229.469 665.658 228.991C665.15 228.497 664.744 227.881 664.439 227.141C664.135 226.401 663.982 225.531 663.982 224.53V224.095C663.982 223.137 664.127 222.31 664.418 221.614C664.708 220.903 665.092 220.316 665.571 219.851C666.064 219.373 666.63 219.017 667.268 218.785C667.921 218.553 668.603 218.437 669.314 218.437C671.011 218.437 672.324 218.901 673.252 219.83C674.181 220.758 674.645 222.071 674.645 223.768V224.987H665.897C665.897 225.669 666.006 226.242 666.224 226.706C666.441 227.17 666.724 227.547 667.072 227.837C667.421 228.128 667.805 228.338 668.226 228.468C668.661 228.599 669.096 228.664 669.531 228.664C670.402 228.664 671.069 228.519 671.533 228.229C672.012 227.939 672.353 227.54 672.556 227.032H674.427C674.311 227.584 674.101 228.069 673.796 228.49C673.506 228.911 673.143 229.266 672.708 229.556C672.288 229.832 671.802 230.042 671.25 230.188C670.714 230.333 670.141 230.405 669.531 230.405ZM669.422 220.178C668.973 220.178 668.538 220.243 668.117 220.374C667.696 220.49 667.319 220.685 666.985 220.961C666.666 221.222 666.405 221.556 666.202 221.962C665.999 222.368 665.897 222.854 665.897 223.42H672.839C672.824 222.825 672.723 222.325 672.534 221.919C672.36 221.498 672.121 221.164 671.816 220.918C671.511 220.656 671.149 220.468 670.728 220.352C670.322 220.236 669.887 220.178 669.422 220.178ZM677.367 218.655H679.151V220.831C679.398 220.149 679.804 219.583 680.37 219.133C680.95 218.669 681.653 218.437 682.48 218.437C682.771 218.437 683.003 218.451 683.177 218.48C683.365 218.509 683.532 218.546 683.677 218.589V220.374C683.489 220.301 683.3 220.25 683.111 220.221C682.937 220.192 682.691 220.178 682.372 220.178C681.936 220.178 681.53 220.258 681.153 220.417C680.776 220.577 680.449 220.802 680.174 221.092C679.898 221.367 679.681 221.708 679.521 222.114C679.361 222.521 679.282 222.963 679.282 223.442V230.188H677.367V218.655ZM685.846 218.655H687.63V220.831C687.76 220.511 687.942 220.207 688.174 219.917C688.406 219.626 688.682 219.373 689.001 219.155C689.334 218.937 689.712 218.763 690.132 218.633C690.568 218.502 691.046 218.437 691.569 218.437C693.019 218.437 694.093 218.829 694.789 219.612C695.5 220.381 695.855 221.512 695.855 223.007V230.188H693.94V223.442C693.94 222.368 693.716 221.556 693.266 221.005C692.816 220.453 692.062 220.178 691.003 220.178C690.437 220.178 689.944 220.272 689.523 220.461C689.117 220.649 688.783 220.896 688.522 221.2C688.261 221.505 688.065 221.853 687.935 222.245C687.819 222.637 687.76 223.036 687.76 223.442V230.188H685.846V218.655ZM704.021 230.405C703.281 230.405 702.577 230.289 701.91 230.057C701.242 229.825 700.655 229.469 700.147 228.991C699.639 228.497 699.233 227.881 698.929 227.141C698.624 226.401 698.472 225.531 698.472 224.53V224.095C698.472 223.137 698.617 222.31 698.907 221.614C699.197 220.903 699.581 220.316 700.06 219.851C700.553 219.373 701.119 219.017 701.757 218.785C702.41 218.553 703.092 218.437 703.803 218.437C705.5 218.437 706.813 218.901 707.742 219.83C708.67 220.758 709.134 222.071 709.134 223.768V224.987H700.387C700.387 225.669 700.495 226.242 700.713 226.706C700.931 227.17 701.213 227.547 701.562 227.837C701.91 228.128 702.294 228.338 702.715 228.468C703.15 228.599 703.585 228.664 704.021 228.664C704.891 228.664 705.558 228.519 706.023 228.229C706.501 227.939 706.842 227.54 707.045 227.032H708.917C708.801 227.584 708.59 228.069 708.286 228.49C707.995 228.911 707.633 229.266 707.198 229.556C706.777 229.832 706.291 230.042 705.74 230.188C705.203 230.333 704.63 230.405 704.021 230.405ZM703.912 220.178C703.462 220.178 703.027 220.243 702.606 220.374C702.185 220.49 701.808 220.685 701.475 220.961C701.155 221.222 700.894 221.556 700.691 221.962C700.488 222.368 700.387 222.854 700.387 223.42H707.328C707.314 222.825 707.212 222.325 707.023 221.919C706.849 221.498 706.61 221.164 706.305 220.918C706.001 220.656 705.638 220.468 705.217 220.352C704.811 220.236 704.376 220.178 703.912 220.178ZM716.099 230.296C714.866 230.296 713.974 230.021 713.423 229.469C712.886 228.904 712.618 228.055 712.618 226.923V220.352H710.877V218.655H712.618V216.043H714.533V218.655H717.622V220.352H714.533V226.706C714.533 227.359 714.67 227.83 714.946 228.12C715.222 228.41 715.751 228.555 716.534 228.555C716.97 228.555 717.405 228.534 717.84 228.49V230.188C717.564 230.217 717.289 230.238 717.013 230.253C716.738 230.282 716.433 230.296 716.099 230.296ZM726.444 214.955H728.576L733.668 224.639L738.76 214.955H740.806V230.188H738.76V218.655L734.386 226.923H732.863L728.489 218.655V230.188H726.444V214.955ZM748.712 216.74H743.425V214.955H756.046V216.74H750.758V230.188H748.712V216.74ZM764.426 230.405C763.512 230.405 762.685 230.275 761.945 230.013C761.22 229.752 760.596 229.353 760.074 228.817C759.552 228.28 759.145 227.605 758.855 226.793C758.58 225.966 758.442 224.994 758.442 223.877V214.955H760.487V223.877C760.487 225.531 760.835 226.728 761.532 227.467C762.228 228.207 763.193 228.577 764.426 228.577C765.659 228.577 766.624 228.207 767.32 227.467C768.016 226.728 768.365 225.531 768.365 223.877V214.955H770.41V223.877C770.41 224.994 770.265 225.966 769.975 226.793C769.699 227.605 769.3 228.28 768.778 228.817C768.256 229.353 767.625 229.752 766.885 230.013C766.16 230.275 765.34 230.405 764.426 230.405Z" fill="black"/>
<path d="M370 260.094L350 248.547L370 237V260.094Z" fill="#FFBD6E"/>
<path d="M1030 243.547L370 243.547V253.547L1030 253.547V243.547Z" fill="#FFBD6E"/>
<path d="M1030 260.094L1050 248.547L1030 237V260.094Z" fill="#FFBD6E"/>
<rect x="100" y="278.738" width="240" height="65" fill="#ABD4C1"/>
<path d="M176.573 304.506H186.365V306.29H178.618V311.012H185.712V312.797H178.618V317.954H186.365V319.738H176.573V304.506ZM193.662 319.847C192.429 319.847 191.537 319.571 190.986 319.02C190.449 318.454 190.181 317.606 190.181 316.474V309.903H188.44V308.205H190.181V305.594H192.096V308.205H195.186V309.903H192.096V316.257C192.096 316.909 192.233 317.381 192.509 317.671C192.785 317.961 193.314 318.106 194.098 318.106C194.533 318.106 194.968 318.084 195.403 318.041V319.738C195.128 319.767 194.852 319.789 194.576 319.804C194.301 319.833 193.996 319.847 193.662 319.847ZM198.132 304.506H200.047V310.273C200.192 309.968 200.38 309.678 200.612 309.402C200.844 309.126 201.12 308.887 201.439 308.684C201.758 308.466 202.121 308.3 202.527 308.184C202.933 308.053 203.376 307.988 203.855 307.988C205.305 307.988 206.379 308.379 207.075 309.163C207.786 309.932 208.141 311.063 208.141 312.557V319.738H206.227V312.993C206.227 311.919 206.002 311.107 205.552 310.555C205.102 310.004 204.348 309.729 203.289 309.729C202.723 309.729 202.23 309.823 201.809 310.011C201.403 310.2 201.069 310.447 200.808 310.751C200.547 311.056 200.351 311.404 200.221 311.796C200.105 312.187 200.047 312.586 200.047 312.993V319.738H198.132V304.506ZM216.307 319.956C215.567 319.956 214.863 319.84 214.196 319.608C213.529 319.376 212.941 319.02 212.433 318.541C211.926 318.048 211.519 317.432 211.215 316.692C210.91 315.952 210.758 315.082 210.758 314.081V313.645C210.758 312.688 210.903 311.861 211.193 311.165C211.483 310.454 211.868 309.866 212.346 309.402C212.84 308.923 213.405 308.568 214.044 308.336C214.696 308.104 215.378 307.988 216.089 307.988C217.786 307.988 219.099 308.452 220.028 309.38C220.956 310.309 221.42 311.622 221.42 313.319V314.538H212.673C212.673 315.219 212.782 315.792 212.999 316.257C213.217 316.721 213.5 317.098 213.848 317.388C214.196 317.678 214.58 317.889 215.001 318.019C215.436 318.15 215.871 318.215 216.307 318.215C217.177 318.215 217.844 318.07 218.309 317.78C218.787 317.49 219.128 317.091 219.331 316.583H221.203C221.087 317.134 220.876 317.62 220.572 318.041C220.282 318.462 219.919 318.817 219.484 319.107C219.063 319.383 218.577 319.593 218.026 319.738C217.489 319.883 216.916 319.956 216.307 319.956ZM216.198 309.729C215.748 309.729 215.313 309.794 214.892 309.924C214.472 310.04 214.094 310.236 213.761 310.512C213.442 310.773 213.18 311.107 212.977 311.513C212.774 311.919 212.673 312.405 212.673 312.971H219.614C219.6 312.376 219.498 311.876 219.31 311.469C219.136 311.049 218.896 310.715 218.592 310.468C218.287 310.207 217.924 310.019 217.504 309.903C217.097 309.787 216.662 309.729 216.198 309.729ZM224.142 308.205H225.926V310.381C226.173 309.7 226.579 309.134 227.145 308.684C227.725 308.22 228.429 307.988 229.256 307.988C229.546 307.988 229.778 308.002 229.952 308.031C230.141 308.06 230.308 308.096 230.453 308.14V309.924C230.264 309.852 230.075 309.801 229.887 309.772C229.713 309.743 229.466 309.729 229.147 309.729C228.712 309.729 228.306 309.808 227.928 309.968C227.551 310.127 227.225 310.352 226.949 310.642C226.674 310.918 226.456 311.259 226.296 311.665C226.137 312.071 226.057 312.514 226.057 312.993V319.738H224.142V308.205ZM232.621 308.205H234.405V310.381C234.536 310.062 234.717 309.758 234.949 309.467C235.181 309.177 235.457 308.923 235.776 308.706C236.11 308.488 236.487 308.314 236.908 308.184C237.343 308.053 237.822 307.988 238.344 307.988C239.795 307.988 240.868 308.379 241.565 309.163C242.275 309.932 242.631 311.063 242.631 312.557V319.738H240.716V312.993C240.716 311.919 240.491 311.107 240.041 310.555C239.592 310.004 238.837 309.729 237.778 309.729C237.212 309.729 236.719 309.823 236.298 310.011C235.892 310.2 235.559 310.447 235.298 310.751C235.036 311.056 234.841 311.404 234.71 311.796C234.594 312.187 234.536 312.586 234.536 312.993V319.738H232.621V308.205ZM250.796 319.956C250.056 319.956 249.353 319.84 248.685 319.608C248.018 319.376 247.43 319.02 246.923 318.541C246.415 318.048 246.009 317.432 245.704 316.692C245.399 315.952 245.247 315.082 245.247 314.081V313.645C245.247 312.688 245.392 311.861 245.682 311.165C245.972 310.454 246.357 309.866 246.836 309.402C247.329 308.923 247.895 308.568 248.533 308.336C249.186 308.104 249.868 307.988 250.578 307.988C252.276 307.988 253.589 308.452 254.517 309.38C255.445 310.309 255.91 311.622 255.91 313.319V314.538H247.162C247.162 315.219 247.271 315.792 247.488 316.257C247.706 316.721 247.989 317.098 248.337 317.388C248.685 317.678 249.07 317.889 249.49 318.019C249.926 318.15 250.361 318.215 250.796 318.215C251.666 318.215 252.334 318.07 252.798 317.78C253.277 317.49 253.618 317.091 253.821 316.583H255.692C255.576 317.134 255.366 317.62 255.061 318.041C254.771 318.462 254.408 318.817 253.973 319.107C253.552 319.383 253.066 319.593 252.515 319.738C251.978 319.883 251.405 319.956 250.796 319.956ZM250.687 309.729C250.237 309.729 249.802 309.794 249.382 309.924C248.961 310.04 248.584 310.236 248.25 310.512C247.931 310.773 247.67 311.107 247.467 311.513C247.264 311.919 247.162 312.405 247.162 312.971H254.104C254.089 312.376 253.988 311.876 253.799 311.469C253.625 311.049 253.385 310.715 253.081 310.468C252.776 310.207 252.414 310.019 251.993 309.903C251.587 309.787 251.151 309.729 250.687 309.729ZM262.875 319.847C261.642 319.847 260.749 319.571 260.198 319.02C259.661 318.454 259.393 317.606 259.393 316.474V309.903H257.652V308.205H259.393V305.594H261.308V308.205H264.398V309.903H261.308V316.257C261.308 316.909 261.446 317.381 261.721 317.671C261.997 317.961 262.527 318.106 263.31 318.106C263.745 318.106 264.18 318.084 264.616 318.041V319.738C264.34 319.767 264.064 319.789 263.789 319.804C263.513 319.833 263.208 319.847 262.875 319.847Z" fill="black"/>
<rect x="100" y="278.738" width="240" height="65" stroke="black"/>
<rect x="340" y="278.738" width="240" height="65" fill="#DBEEE5"/>
<path d="M438.901 304.506H440.947V319.738H438.901V304.506ZM445.526 304.506H450.749C451.75 304.506 452.62 304.622 453.36 304.854C454.1 305.086 454.709 305.413 455.188 305.833C455.681 306.24 456.044 306.733 456.276 307.313C456.508 307.879 456.624 308.503 456.624 309.185C456.624 309.866 456.508 310.497 456.276 311.078C456.044 311.643 455.681 312.137 455.188 312.557C454.709 312.964 454.1 313.283 453.36 313.515C452.62 313.747 451.75 313.863 450.749 313.863H447.572V319.738H445.526V304.506ZM450.64 312.079C451.365 312.079 451.975 312.013 452.468 311.883C452.976 311.738 453.382 311.542 453.687 311.295C454.006 311.049 454.231 310.744 454.361 310.381C454.506 310.019 454.579 309.62 454.579 309.185C454.579 308.749 454.506 308.35 454.361 307.988C454.231 307.625 454.006 307.32 453.687 307.074C453.382 306.827 452.976 306.639 452.468 306.508C451.975 306.363 451.365 306.29 450.64 306.29H447.572V312.079H450.64ZM458.47 308.205H460.602L464.345 317.78L467.739 308.205H469.785L465.433 319.738H463.257L458.47 308.205ZM478.393 316.061H470.646V314.494L478.175 304.506H480.438V314.276H482.397V316.061H480.438V319.738H478.393V316.061ZM478.393 314.276V306.9L472.822 314.276H478.393Z" fill="black"/>
<rect x="340" y="278.738" width="240" height="65" stroke="black"/>
<rect x="580" y="278.738" width="240" height="65" fill="#ABCFF4"/>
<path d="M684.664 306.29H679.376V304.506H691.997V306.29H686.709V319.738H684.664V306.29ZM699.735 319.956C698.879 319.956 698.067 319.811 697.298 319.521C696.529 319.216 695.847 318.752 695.252 318.128C694.657 317.49 694.186 316.685 693.838 315.713C693.49 314.741 693.315 313.58 693.315 312.231V311.796C693.315 310.49 693.49 309.366 693.838 308.423C694.186 307.48 694.657 306.704 695.252 306.095C695.847 305.485 696.529 305.036 697.298 304.745C698.067 304.441 698.879 304.288 699.735 304.288C700.562 304.288 701.316 304.397 701.998 304.615C702.694 304.832 703.303 305.144 703.826 305.551C704.348 305.957 704.769 306.457 705.088 307.052C705.422 307.647 705.632 308.321 705.719 309.076H703.543C703.34 308.089 702.912 307.349 702.259 306.856C701.606 306.363 700.765 306.116 699.735 306.116C699.198 306.116 698.676 306.218 698.168 306.421C697.66 306.624 697.203 306.95 696.797 307.4C696.405 307.835 696.086 308.416 695.84 309.141C695.608 309.866 695.492 310.751 695.492 311.796V312.231C695.492 313.333 695.622 314.262 695.883 315.016C696.144 315.756 696.478 316.358 696.884 316.822C697.29 317.287 697.747 317.62 698.255 317.823C698.763 318.026 699.256 318.128 699.735 318.128C700.866 318.128 701.751 317.852 702.39 317.301C703.028 316.75 703.412 316.039 703.543 315.169H705.719C705.603 316.01 705.371 316.735 705.023 317.345C704.674 317.939 704.232 318.433 703.695 318.824C703.173 319.216 702.571 319.506 701.889 319.695C701.222 319.869 700.504 319.956 699.735 319.956ZM708.976 304.506H714.199C715.2 304.506 716.07 304.622 716.81 304.854C717.55 305.086 718.159 305.413 718.638 305.833C719.131 306.24 719.494 306.733 719.726 307.313C719.958 307.879 720.074 308.503 720.074 309.185C720.074 309.866 719.958 310.497 719.726 311.078C719.494 311.643 719.131 312.137 718.638 312.557C718.159 312.964 717.55 313.283 716.81 313.515C716.07 313.747 715.2 313.863 714.199 313.863H711.022V319.738H708.976V304.506ZM714.09 312.079C714.815 312.079 715.424 312.013 715.918 311.883C716.425 311.738 716.832 311.542 717.136 311.295C717.455 311.049 717.68 310.744 717.811 310.381C717.956 310.019 718.028 309.62 718.028 309.185C718.028 308.749 717.956 308.35 717.811 307.988C717.68 307.625 717.455 307.32 717.136 307.074C716.832 306.827 716.425 306.639 715.918 306.508C715.424 306.363 714.815 306.29 714.09 306.29H711.022V312.079H714.09Z" fill="black"/>
<rect x="580" y="278.738" width="240" height="65" stroke="black"/>
<rect x="820" y="278.738" width="240" height="65" fill="#FFECB3"/>
<path d="M839.314 304.506H851.282V319.738H849.236V306.29H841.359V319.738H839.314V304.506ZM859.986 319.956C859.246 319.956 858.543 319.84 857.875 319.608C857.208 319.361 856.62 318.998 856.113 318.52C855.605 318.026 855.199 317.41 854.894 316.67C854.59 315.93 854.437 315.067 854.437 314.081V313.645C854.437 312.717 854.59 311.897 854.894 311.186C855.199 310.476 855.605 309.888 856.113 309.424C856.62 308.945 857.208 308.59 857.875 308.358C858.543 308.111 859.246 307.988 859.986 307.988C860.726 307.988 861.43 308.111 862.097 308.358C862.764 308.59 863.352 308.945 863.859 309.424C864.367 309.888 864.773 310.476 865.078 311.186C865.383 311.897 865.535 312.717 865.535 313.645V314.081C865.535 315.067 865.383 315.93 865.078 316.67C864.773 317.41 864.367 318.026 863.859 318.52C863.352 318.998 862.764 319.361 862.097 319.608C861.43 319.84 860.726 319.956 859.986 319.956ZM859.986 318.215C860.421 318.215 860.857 318.143 861.292 317.997C861.727 317.838 862.111 317.599 862.445 317.279C862.779 316.946 863.047 316.518 863.25 315.996C863.468 315.473 863.577 314.835 863.577 314.081V313.645C863.577 312.949 863.468 312.354 863.25 311.861C863.047 311.368 862.779 310.962 862.445 310.642C862.111 310.323 861.727 310.091 861.292 309.946C860.857 309.801 860.421 309.729 859.986 309.729C859.551 309.729 859.116 309.801 858.68 309.946C858.245 310.091 857.861 310.323 857.527 310.642C857.194 310.962 856.918 311.368 856.7 311.861C856.497 312.354 856.396 312.949 856.396 313.645V314.081C856.396 314.835 856.497 315.473 856.7 315.996C856.918 316.518 857.194 316.946 857.527 317.279C857.861 317.599 858.245 317.838 858.68 317.997C859.116 318.143 859.551 318.215 859.986 318.215ZM867.49 319.956C867.272 319.956 867.055 319.934 866.837 319.891V317.976C866.91 317.99 867.019 317.997 867.164 317.997C867.483 317.997 867.758 317.896 867.991 317.693C868.237 317.49 868.433 317.134 868.578 316.627C868.723 316.119 868.832 315.43 868.904 314.559C868.977 313.689 869.013 312.586 869.013 311.252V308.205H877.282V319.738H875.367V309.903H870.928V311.687C870.928 313.297 870.856 314.632 870.711 315.691C870.565 316.75 870.348 317.599 870.058 318.237C869.782 318.861 869.427 319.303 868.991 319.564C868.556 319.825 868.056 319.956 867.49 319.956ZM885.55 319.956C884.81 319.956 884.107 319.84 883.439 319.608C882.772 319.376 882.185 319.02 881.677 318.541C881.169 318.048 880.763 317.432 880.458 316.692C880.154 315.952 880.001 315.082 880.001 314.081V313.645C880.001 312.688 880.146 311.861 880.437 311.165C880.727 310.454 881.111 309.866 881.59 309.402C882.083 308.923 882.649 308.568 883.287 308.336C883.94 308.104 884.622 307.988 885.333 307.988C887.03 307.988 888.343 308.452 889.271 309.38C890.2 310.309 890.664 311.622 890.664 313.319V314.538H881.916C881.916 315.219 882.025 315.792 882.243 316.257C882.46 316.721 882.743 317.098 883.091 317.388C883.439 317.678 883.824 317.889 884.245 318.019C884.68 318.15 885.115 318.215 885.55 318.215C886.421 318.215 887.088 318.07 887.552 317.78C888.031 317.49 888.372 317.091 888.575 316.583H890.446C890.33 317.134 890.12 317.62 889.815 318.041C889.525 318.462 889.162 318.817 888.727 319.107C888.307 319.383 887.821 319.593 887.269 319.738C886.733 319.883 886.16 319.956 885.55 319.956ZM885.441 309.729C884.992 309.729 884.557 309.794 884.136 309.924C883.715 310.04 883.338 310.236 883.004 310.512C882.685 310.773 882.424 311.107 882.221 311.513C882.018 311.919 881.916 312.405 881.916 312.971H888.858C888.843 312.376 888.742 311.876 888.553 311.469C888.379 311.049 888.14 310.715 887.835 310.468C887.53 310.207 887.168 310.019 886.747 309.903C886.341 309.787 885.906 309.729 885.441 309.729ZM897.303 319.956C895.852 319.956 894.713 319.651 893.886 319.042C893.059 318.433 892.602 317.577 892.515 316.474H894.43C894.532 317.04 894.829 317.475 895.322 317.78C895.83 318.07 896.49 318.215 897.303 318.215C898.304 318.215 899.029 318.048 899.479 317.715C899.943 317.366 900.175 316.953 900.175 316.474C900.175 315.908 899.986 315.466 899.609 315.147C899.232 314.813 898.579 314.646 897.651 314.646H895.671V313.08H897.52C898.318 313.08 898.884 312.927 899.217 312.623C899.566 312.318 899.74 311.89 899.74 311.339C899.74 310.904 899.537 310.526 899.13 310.207C898.724 309.888 898.115 309.729 897.303 309.729C896.418 309.729 895.772 309.874 895.366 310.164C894.974 310.439 894.735 310.838 894.648 311.361H892.733C892.776 310.882 892.907 310.439 893.125 310.033C893.357 309.612 893.669 309.25 894.06 308.945C894.452 308.641 894.916 308.408 895.453 308.249C896.004 308.075 896.621 307.988 897.303 307.988C898.042 307.988 898.681 308.075 899.217 308.249C899.769 308.408 900.226 308.641 900.588 308.945C900.951 309.235 901.219 309.583 901.393 309.99C901.568 310.396 901.655 310.846 901.655 311.339C901.655 311.89 901.517 312.376 901.241 312.797C900.966 313.203 900.523 313.522 899.914 313.754C900.726 313.972 901.292 314.32 901.611 314.799C901.93 315.277 902.09 315.836 902.09 316.474C902.09 316.953 901.988 317.403 901.785 317.823C901.582 318.244 901.277 318.614 900.871 318.933C900.48 319.238 899.979 319.484 899.37 319.673C898.775 319.862 898.086 319.956 897.303 319.956ZM904.818 308.205H906.733V313.014H912.696V308.205H914.611V319.738H912.696V314.712H906.733V319.738H904.818V308.205ZM921.386 319.956C920.747 319.956 920.182 319.869 919.688 319.695C919.21 319.506 918.803 319.252 918.47 318.933C918.136 318.614 917.882 318.237 917.708 317.802C917.534 317.366 917.447 316.888 917.447 316.365C917.447 315.219 917.781 314.392 918.448 313.885C919.13 313.377 920.102 313.123 921.364 313.123H925.107V312.34C925.107 311.353 924.882 310.671 924.432 310.294C923.997 309.917 923.337 309.729 922.452 309.729C921.625 309.729 921.023 309.888 920.646 310.207C920.269 310.512 920.058 310.86 920.015 311.252H918.1C918.129 310.788 918.252 310.36 918.47 309.968C918.702 309.562 919.007 309.214 919.384 308.923C919.775 308.633 920.24 308.408 920.776 308.249C921.313 308.075 921.908 307.988 922.561 307.988C923.924 307.988 925.005 308.314 925.803 308.967C926.615 309.605 927.022 310.657 927.022 312.122V316.801C927.022 317.41 927.022 317.947 927.022 318.411C927.036 318.861 927.072 319.303 927.13 319.738H925.455C925.411 319.405 925.382 319.093 925.368 318.803C925.353 318.498 925.346 318.157 925.346 317.78C925.041 318.389 924.548 318.904 923.866 319.325C923.184 319.746 922.358 319.956 921.386 319.956ZM921.799 318.215C922.249 318.215 922.67 318.157 923.061 318.041C923.467 317.91 923.823 317.729 924.127 317.497C924.432 317.25 924.671 316.953 924.846 316.605C925.02 316.257 925.107 315.85 925.107 315.386V314.603H921.69C920.979 314.603 920.421 314.748 920.015 315.038C919.609 315.314 919.405 315.756 919.405 316.365C919.405 316.902 919.594 317.345 919.971 317.693C920.363 318.041 920.972 318.215 921.799 318.215ZM932.667 315.169C931.709 314.951 931.02 314.559 930.6 313.994C930.179 313.413 929.969 312.673 929.969 311.774C929.969 310.642 930.309 309.765 930.991 309.141C931.688 308.517 932.797 308.205 934.321 308.205H939.326V319.738H937.411V315.343H934.473L931.666 319.738H929.533L932.667 315.169ZM931.883 311.774C931.883 312.383 932.058 312.848 932.406 313.167C932.768 313.486 933.37 313.645 934.212 313.645H937.411V309.903H934.212C933.37 309.903 932.768 310.062 932.406 310.381C932.058 310.7 931.883 311.165 931.883 311.774ZM948.254 308.205H950.169V313.014H956.131V308.205H958.046V319.738H956.131V314.712H950.169V319.738H948.254V308.205ZM964.821 319.956C964.183 319.956 963.617 319.869 963.124 319.695C962.645 319.506 962.239 319.252 961.905 318.933C961.572 318.614 961.318 318.237 961.144 317.802C960.97 317.366 960.883 316.888 960.883 316.365C960.883 315.219 961.216 314.392 961.884 313.885C962.566 313.377 963.537 313.123 964.8 313.123H968.542V312.34C968.542 311.353 968.317 310.671 967.868 310.294C967.433 309.917 966.773 309.729 965.888 309.729C965.061 309.729 964.459 309.888 964.081 310.207C963.704 310.512 963.494 310.86 963.45 311.252H961.536C961.565 310.788 961.688 310.36 961.905 309.968C962.138 309.562 962.442 309.214 962.819 308.923C963.211 308.633 963.675 308.408 964.212 308.249C964.749 308.075 965.344 307.988 965.996 307.988C967.36 307.988 968.441 308.314 969.239 308.967C970.051 309.605 970.457 310.657 970.457 312.122V316.801C970.457 317.41 970.457 317.947 970.457 318.411C970.472 318.861 970.508 319.303 970.566 319.738H968.891C968.847 319.405 968.818 319.093 968.803 318.803C968.789 318.498 968.782 318.157 968.782 317.78C968.477 318.389 967.984 318.904 967.302 319.325C966.62 319.746 965.793 319.956 964.821 319.956ZM965.235 318.215C965.684 318.215 966.105 318.157 966.497 318.041C966.903 317.91 967.258 317.729 967.563 317.497C967.868 317.25 968.107 316.953 968.281 316.605C968.455 316.257 968.542 315.85 968.542 315.386V314.603H965.126C964.415 314.603 963.857 314.748 963.45 315.038C963.044 315.314 962.841 315.756 962.841 316.365C962.841 316.902 963.03 317.345 963.407 317.693C963.799 318.041 964.408 318.215 965.235 318.215ZM973.839 308.205H981.673V309.903H975.754V319.738H973.839V308.205ZM983.848 308.205H985.633V310.381C986.024 309.612 986.568 309.025 987.265 308.619C987.976 308.198 988.795 307.988 989.724 307.988C991.174 307.988 992.335 308.466 993.205 309.424C994.076 310.367 994.511 311.774 994.511 313.645V314.081C994.511 315.067 994.395 315.93 994.163 316.67C993.931 317.395 993.604 318.005 993.184 318.498C992.763 318.977 992.255 319.339 991.66 319.586C991.08 319.833 990.435 319.956 989.724 319.956C988.737 319.956 987.91 319.738 987.243 319.303C986.59 318.868 986.097 318.324 985.763 317.671V324.09H983.848V308.205ZM989.288 318.259C989.753 318.259 990.188 318.172 990.594 317.997C991 317.809 991.348 317.54 991.639 317.192C991.943 316.844 992.175 316.409 992.335 315.887C992.509 315.364 992.596 314.762 992.596 314.081V313.645C992.596 313.022 992.509 312.463 992.335 311.97C992.175 311.477 991.943 311.063 991.639 310.729C991.348 310.381 991 310.12 990.594 309.946C990.188 309.772 989.753 309.685 989.288 309.685C988.766 309.685 988.287 309.772 987.852 309.946C987.417 310.106 987.047 310.338 986.743 310.642C986.438 310.933 986.199 311.281 986.024 311.687C985.85 312.093 985.763 312.528 985.763 312.993V314.733C985.763 315.256 985.85 315.734 986.024 316.17C986.199 316.605 986.438 316.975 986.743 317.279C987.047 317.584 987.417 317.823 987.852 317.997C988.287 318.172 988.766 318.259 989.288 318.259ZM998.334 324.308C998.117 324.308 997.899 324.286 997.682 324.243V322.502C997.899 322.545 998.117 322.567 998.334 322.567C998.552 322.567 998.741 322.531 998.9 322.458C999.06 322.386 999.212 322.248 999.357 322.045C999.502 321.842 999.654 321.552 999.814 321.174C999.988 320.812 1000.18 320.333 1000.4 319.738L995.505 308.205H997.638L1001.38 317.562L1004.78 308.205H1006.82L1002.47 319.738C1002.16 320.551 1001.87 321.247 1001.6 321.827C1001.32 322.408 1001.03 322.879 1000.71 323.242C1000.4 323.619 1000.06 323.887 999.683 324.047C999.306 324.221 998.857 324.308 998.334 324.308ZM1012.48 319.956C1011.03 319.956 1009.89 319.651 1009.06 319.042C1008.24 318.433 1007.78 317.577 1007.69 316.474H1009.61C1009.71 317.04 1010.01 317.475 1010.5 317.78C1011.01 318.07 1011.67 318.215 1012.48 318.215C1013.48 318.215 1014.21 318.048 1014.66 317.715C1015.12 317.366 1015.35 316.953 1015.35 316.474C1015.35 315.908 1015.16 315.466 1014.79 315.147C1014.41 314.813 1013.76 314.646 1012.83 314.646H1010.85V313.08H1012.7C1013.49 313.08 1014.06 312.927 1014.39 312.623C1014.74 312.318 1014.92 311.89 1014.92 311.339C1014.92 310.904 1014.71 310.526 1014.31 310.207C1013.9 309.888 1013.29 309.729 1012.48 309.729C1011.59 309.729 1010.95 309.874 1010.54 310.164C1010.15 310.439 1009.91 310.838 1009.82 311.361H1007.91C1007.95 310.882 1008.08 310.439 1008.3 310.033C1008.53 309.612 1008.85 309.25 1009.24 308.945C1009.63 308.641 1010.09 308.408 1010.63 308.249C1011.18 308.075 1011.8 307.988 1012.48 307.988C1013.22 307.988 1013.86 308.075 1014.39 308.249C1014.95 308.408 1015.4 308.641 1015.77 308.945C1016.13 309.235 1016.4 309.583 1016.57 309.99C1016.74 310.396 1016.83 310.846 1016.83 311.339C1016.83 311.89 1016.69 312.376 1016.42 312.797C1016.14 313.203 1015.7 313.522 1015.09 313.754C1015.9 313.972 1016.47 314.32 1016.79 314.799C1017.11 315.277 1017.27 315.836 1017.27 316.474C1017.27 316.953 1017.17 317.403 1016.96 317.823C1016.76 318.244 1016.45 318.614 1016.05 318.933C1015.66 319.238 1015.16 319.484 1014.55 319.673C1013.95 319.862 1013.26 319.956 1012.48 319.956ZM1020 308.205H1021.91V313.036H1023.43L1027.74 308.205H1030L1025 313.732L1030.22 319.738H1027.79L1023.43 314.69H1021.91V319.738H1020V308.205ZM1035.58 319.956C1034.95 319.956 1034.38 319.869 1033.89 319.695C1033.41 319.506 1033 319.252 1032.67 318.933C1032.34 318.614 1032.08 318.237 1031.91 317.802C1031.73 317.366 1031.65 316.888 1031.65 316.365C1031.65 315.219 1031.98 314.392 1032.65 313.885C1033.33 313.377 1034.3 313.123 1035.56 313.123H1039.31V312.34C1039.31 311.353 1039.08 310.671 1038.63 310.294C1038.2 309.917 1037.54 309.729 1036.65 309.729C1035.82 309.729 1035.22 309.888 1034.85 310.207C1034.47 310.512 1034.26 310.86 1034.21 311.252H1032.3C1032.33 310.788 1032.45 310.36 1032.67 309.968C1032.9 309.562 1033.21 309.214 1033.58 308.923C1033.97 308.633 1034.44 308.408 1034.98 308.249C1035.51 308.075 1036.11 307.988 1036.76 307.988C1038.12 307.988 1039.2 308.314 1040 308.967C1040.81 309.605 1041.22 310.657 1041.22 312.122V316.801C1041.22 317.41 1041.22 317.947 1041.22 318.411C1041.24 318.861 1041.27 319.303 1041.33 319.738H1039.65C1039.61 319.405 1039.58 319.093 1039.57 318.803C1039.55 318.498 1039.55 318.157 1039.55 317.78C1039.24 318.389 1038.75 318.904 1038.07 319.325C1037.38 319.746 1036.56 319.956 1035.58 319.956ZM1036 318.215C1036.45 318.215 1036.87 318.157 1037.26 318.041C1037.67 317.91 1038.02 317.729 1038.33 317.497C1038.63 317.25 1038.87 316.953 1039.04 316.605C1039.22 316.257 1039.31 315.85 1039.31 315.386V314.603H1035.89C1035.18 314.603 1034.62 314.748 1034.21 315.038C1033.81 315.314 1033.6 315.756 1033.6 316.365C1033.6 316.902 1033.79 317.345 1034.17 317.693C1034.56 318.041 1035.17 318.215 1036 318.215Z" fill="black"/>
<rect x="820" y="278.738" width="240" height="65" stroke="black"/>
<rect x="1060" y="278.738" width="240" height="65" fill="#ABD4C1"/>
<path d="M1161.4 304.506H1171.2V306.29H1163.45V311.23H1170.54V313.014H1163.45V319.738H1161.4V304.506ZM1179.79 319.956C1178.93 319.956 1178.12 319.811 1177.35 319.521C1176.58 319.216 1175.9 318.752 1175.31 318.128C1174.71 317.49 1174.24 316.685 1173.89 315.713C1173.54 314.741 1173.37 313.58 1173.37 312.231V311.796C1173.37 310.49 1173.54 309.366 1173.89 308.423C1174.24 307.48 1174.71 306.704 1175.31 306.095C1175.9 305.485 1176.58 305.036 1177.35 304.745C1178.12 304.441 1178.93 304.288 1179.79 304.288C1180.61 304.288 1181.37 304.397 1182.05 304.615C1182.75 304.832 1183.36 305.144 1183.88 305.551C1184.4 305.957 1184.82 306.457 1185.14 307.052C1185.47 307.647 1185.68 308.321 1185.77 309.076H1183.6C1183.39 308.089 1182.96 307.349 1182.31 306.856C1181.66 306.363 1180.82 306.116 1179.79 306.116C1179.25 306.116 1178.73 306.218 1178.22 306.421C1177.71 306.624 1177.26 306.95 1176.85 307.4C1176.46 307.835 1176.14 308.416 1175.89 309.141C1175.66 309.866 1175.54 310.751 1175.54 311.796V312.231C1175.54 313.333 1175.68 314.262 1175.94 315.016C1176.2 315.756 1176.53 316.358 1176.94 316.822C1177.34 317.287 1177.8 317.62 1178.31 317.823C1178.82 318.026 1179.31 318.128 1179.79 318.128C1180.92 318.128 1181.8 317.852 1182.44 317.301C1183.08 316.75 1183.47 316.039 1183.6 315.169H1185.77C1185.66 316.01 1185.42 316.735 1185.08 317.345C1184.73 317.939 1184.29 318.433 1183.75 318.824C1183.23 319.216 1182.62 319.506 1181.94 319.695C1181.27 319.869 1180.56 319.956 1179.79 319.956ZM1193.82 319.956C1192.9 319.956 1192.1 319.847 1191.42 319.629C1190.74 319.412 1190.17 319.114 1189.7 318.737C1189.24 318.346 1188.87 317.896 1188.59 317.388C1188.33 316.866 1188.15 316.307 1188.05 315.713H1190.1C1190.17 316.046 1190.29 316.365 1190.47 316.67C1190.64 316.96 1190.87 317.214 1191.16 317.432C1191.47 317.649 1191.84 317.823 1192.27 317.954C1192.71 318.07 1193.22 318.128 1193.82 318.128C1195.04 318.128 1195.96 317.896 1196.58 317.432C1197.22 316.967 1197.54 316.394 1197.54 315.713C1197.54 315.292 1197.47 314.936 1197.32 314.646C1197.19 314.356 1196.96 314.102 1196.62 313.885C1196.3 313.667 1195.88 313.471 1195.34 313.297C1194.82 313.123 1194.17 312.949 1193.4 312.775C1192.55 312.586 1191.81 312.383 1191.18 312.166C1190.57 311.934 1190.07 311.651 1189.66 311.317C1189.27 310.969 1188.97 310.555 1188.77 310.077C1188.58 309.598 1188.49 309.01 1188.49 308.314C1188.49 307.748 1188.61 307.226 1188.86 306.747C1189.1 306.254 1189.45 305.826 1189.9 305.463C1190.36 305.101 1190.92 304.818 1191.58 304.615C1192.24 304.397 1192.99 304.288 1193.82 304.288C1194.63 304.288 1195.34 304.397 1195.95 304.615C1196.56 304.818 1197.07 305.101 1197.49 305.463C1197.93 305.826 1198.27 306.254 1198.52 306.747C1198.76 307.226 1198.94 307.748 1199.04 308.314H1196.99C1196.92 308.009 1196.81 307.727 1196.67 307.465C1196.52 307.19 1196.32 306.958 1196.06 306.769C1195.81 306.566 1195.5 306.406 1195.12 306.29C1194.76 306.174 1194.32 306.116 1193.82 306.116C1192.77 306.116 1191.96 306.334 1191.38 306.769C1190.81 307.19 1190.53 307.705 1190.53 308.314C1190.53 308.706 1190.6 309.047 1190.75 309.337C1190.89 309.612 1191.12 309.859 1191.42 310.077C1191.73 310.28 1192.11 310.461 1192.58 310.621C1193.05 310.766 1193.62 310.911 1194.27 311.056C1195.22 311.259 1196.02 311.491 1196.69 311.752C1197.37 311.999 1197.92 312.303 1198.34 312.666C1198.78 313.029 1199.09 313.457 1199.28 313.95C1199.48 314.443 1199.58 315.031 1199.58 315.713C1199.58 316.307 1199.45 316.866 1199.19 317.388C1198.93 317.896 1198.55 318.346 1198.06 318.737C1197.57 319.114 1196.96 319.412 1196.25 319.629C1195.54 319.847 1194.73 319.956 1193.82 319.956Z" fill="black"/>
<rect x="1060" y="278.738" width="240" height="65" stroke="black"/>
<path d="M420.495 381.508L426.588 376.22C427.052 375.829 427.429 375.473 427.719 375.154C428.024 374.835 428.263 374.537 428.437 374.262C428.611 373.972 428.727 373.689 428.785 373.413C428.858 373.138 428.894 372.84 428.894 372.521C428.894 371.665 428.64 370.962 428.133 370.41C427.625 369.844 426.929 369.562 426.044 369.562C424.985 369.562 424.172 369.852 423.606 370.432C423.041 370.998 422.758 371.803 422.758 372.847H420.712C420.712 372.108 420.836 371.426 421.082 370.802C421.343 370.164 421.706 369.62 422.17 369.17C422.649 368.72 423.215 368.372 423.868 368.125C424.52 367.864 425.246 367.734 426.044 367.734C426.813 367.734 427.502 367.857 428.111 368.104C428.72 368.336 429.235 368.669 429.656 369.105C430.077 369.525 430.396 370.026 430.613 370.606C430.831 371.186 430.94 371.825 430.94 372.521C430.94 373.043 430.86 373.529 430.7 373.979C430.541 374.429 430.316 374.857 430.026 375.263C429.75 375.669 429.409 376.068 429.003 376.46C428.611 376.837 428.176 377.229 427.697 377.635L423.15 381.399H431.157V383.184H420.495V381.508ZM438.993 383.401C438.253 383.401 437.549 383.278 436.882 383.031C436.229 382.785 435.656 382.364 435.163 381.769C434.67 381.16 434.278 380.355 433.988 379.354C433.698 378.338 433.553 377.076 433.553 375.567V375.132C433.553 373.725 433.698 372.55 433.988 371.607C434.278 370.664 434.67 369.91 435.163 369.344C435.656 368.764 436.229 368.35 436.882 368.104C437.549 367.857 438.253 367.734 438.993 367.734C439.733 367.734 440.429 367.857 441.082 368.104C441.749 368.35 442.329 368.764 442.823 369.344C443.316 369.91 443.708 370.664 443.998 371.607C444.288 372.55 444.433 373.725 444.433 375.132V375.567C444.433 377.076 444.288 378.338 443.998 379.354C443.708 380.355 443.316 381.16 442.823 381.769C442.329 382.364 441.749 382.785 441.082 383.031C440.429 383.278 439.733 383.401 438.993 383.401ZM438.993 381.617C439.442 381.617 439.87 381.537 440.277 381.377C440.697 381.203 441.06 380.899 441.365 380.464C441.684 380.014 441.93 379.397 442.104 378.614C442.293 377.831 442.387 376.815 442.387 375.567V375.132C442.387 374.001 442.293 373.072 442.104 372.347C441.93 371.622 441.684 371.049 441.365 370.628C441.06 370.207 440.697 369.917 440.277 369.757C439.87 369.598 439.442 369.518 438.993 369.518C438.529 369.518 438.093 369.598 437.687 369.757C437.281 369.917 436.918 370.207 436.599 370.628C436.294 371.049 436.048 371.622 435.859 372.347C435.685 373.072 435.598 374.001 435.598 375.132V375.567C435.598 376.815 435.685 377.831 435.859 378.614C436.048 379.397 436.294 380.014 436.599 380.464C436.918 380.899 437.281 381.203 437.687 381.377C438.093 381.537 438.529 381.617 438.993 381.617ZM457.709 383.401C456.94 383.401 456.222 383.256 455.555 382.966C454.902 382.676 454.329 382.255 453.836 381.704C453.357 381.138 452.973 380.449 452.683 379.637C452.407 378.824 452.269 377.903 452.269 376.873V376.438C452.269 375.132 452.363 373.972 452.552 372.956C452.741 371.926 453.06 371.056 453.509 370.345C453.974 369.62 454.576 369.054 455.316 368.648C456.07 368.241 457.013 368.009 458.144 367.951C459.058 367.908 459.856 367.872 460.538 367.843C461.22 367.799 461.8 367.654 462.279 367.407V369.257C462.047 369.388 461.619 369.489 460.995 369.562C460.386 369.634 459.544 369.685 458.471 369.714C457.774 369.728 457.158 369.815 456.621 369.975C456.099 370.135 455.649 370.389 455.272 370.737C454.909 371.085 454.619 371.542 454.402 372.108C454.199 372.659 454.068 373.341 454.01 374.153C454.358 373.384 454.895 372.775 455.62 372.325C456.346 371.875 457.187 371.651 458.144 371.651C458.884 371.651 459.559 371.781 460.168 372.042C460.777 372.289 461.3 372.644 461.735 373.109C462.185 373.573 462.533 374.146 462.779 374.828C463.026 375.495 463.149 376.249 463.149 377.091V377.526C463.149 378.425 463.011 379.238 462.736 379.963C462.46 380.674 462.083 381.29 461.604 381.813C461.126 382.32 460.553 382.712 459.885 382.988C459.218 383.263 458.493 383.401 457.709 383.401ZM457.709 381.66C458.725 381.66 459.559 381.312 460.212 380.616C460.864 379.905 461.191 378.875 461.191 377.526V377.091C461.191 376.525 461.104 376.017 460.93 375.567C460.756 375.118 460.516 374.733 460.212 374.414C459.907 374.081 459.537 373.827 459.102 373.653C458.681 373.478 458.217 373.391 457.709 373.391C457.201 373.391 456.73 373.478 456.295 373.653C455.874 373.827 455.511 374.081 455.207 374.414C454.902 374.733 454.663 375.118 454.489 375.567C454.315 376.017 454.228 376.525 454.228 377.091V377.526C454.228 378.164 454.315 378.744 454.489 379.267C454.677 379.774 454.931 380.21 455.25 380.572C455.569 380.921 455.939 381.189 456.36 381.377C456.781 381.566 457.23 381.66 457.709 381.66ZM469.149 383.401C468.511 383.401 467.945 383.314 467.452 383.14C466.973 382.951 466.567 382.698 466.233 382.378C465.9 382.059 465.646 381.682 465.472 381.247C465.298 380.812 465.211 380.333 465.211 379.811C465.211 378.665 465.544 377.838 466.212 377.33C466.893 376.822 467.865 376.568 469.127 376.568H472.87V375.785C472.87 374.799 472.645 374.117 472.196 373.74C471.76 373.362 471.1 373.174 470.215 373.174C469.389 373.174 468.787 373.333 468.409 373.653C468.032 373.957 467.822 374.305 467.778 374.697H465.863C465.892 374.233 466.016 373.805 466.233 373.413C466.465 373.007 466.77 372.659 467.147 372.369C467.539 372.079 468.003 371.854 468.54 371.694C469.077 371.52 469.671 371.433 470.324 371.433C471.688 371.433 472.769 371.759 473.567 372.412C474.379 373.051 474.785 374.102 474.785 375.567V380.246C474.785 380.855 474.785 381.392 474.785 381.856C474.8 382.306 474.836 382.748 474.894 383.184H473.218C473.175 382.85 473.146 382.538 473.131 382.248C473.117 381.943 473.11 381.602 473.11 381.225C472.805 381.834 472.312 382.349 471.63 382.77C470.948 383.191 470.121 383.401 469.149 383.401ZM469.563 381.66C470.012 381.66 470.433 381.602 470.825 381.486C471.231 381.356 471.586 381.174 471.891 380.942C472.196 380.696 472.435 380.398 472.609 380.05C472.783 379.702 472.87 379.296 472.87 378.832V378.048H469.454C468.743 378.048 468.184 378.193 467.778 378.483C467.372 378.759 467.169 379.201 467.169 379.811C467.169 380.347 467.358 380.79 467.735 381.138C468.126 381.486 468.736 381.66 469.563 381.66ZM478.167 371.651H480.082V380.355L486.045 371.651H487.959V383.184H486.045V374.479L480.082 383.184H478.167V371.651ZM483.063 370.236C481.932 370.236 481.105 369.997 480.583 369.518C480.06 369.025 479.799 368.321 479.799 367.407H481.671C481.671 368.394 482.135 368.887 483.063 368.887C484.021 368.887 484.5 368.394 484.5 367.407H486.327C486.327 368.321 486.066 369.025 485.544 369.518C485.022 369.997 484.195 370.236 483.063 370.236ZM494.082 373.348H490.143V371.651H499.935V373.348H495.997V383.184H494.082V373.348Z" fill="black"/>
<path d="M660.495 381.508L666.588 376.22C667.052 375.829 667.429 375.473 667.719 375.154C668.024 374.835 668.263 374.537 668.437 374.262C668.611 373.972 668.727 373.689 668.785 373.413C668.858 373.138 668.894 372.84 668.894 372.521C668.894 371.665 668.64 370.962 668.133 370.41C667.625 369.844 666.929 369.562 666.044 369.562C664.985 369.562 664.172 369.852 663.606 370.432C663.041 370.998 662.758 371.803 662.758 372.847H660.712C660.712 372.108 660.836 371.426 661.082 370.802C661.343 370.164 661.706 369.62 662.17 369.17C662.649 368.72 663.215 368.372 663.868 368.125C664.52 367.864 665.246 367.734 666.044 367.734C666.813 367.734 667.502 367.857 668.111 368.104C668.72 368.336 669.235 368.669 669.656 369.105C670.077 369.525 670.396 370.026 670.613 370.606C670.831 371.186 670.94 371.825 670.94 372.521C670.94 373.043 670.86 373.529 670.7 373.979C670.541 374.429 670.316 374.857 670.026 375.263C669.75 375.669 669.409 376.068 669.003 376.46C668.611 376.837 668.176 377.229 667.697 377.635L663.15 381.399H671.157V383.184H660.495V381.508ZM678.993 383.401C678.253 383.401 677.549 383.278 676.882 383.031C676.229 382.785 675.656 382.364 675.163 381.769C674.67 381.16 674.278 380.355 673.988 379.354C673.698 378.338 673.553 377.076 673.553 375.567V375.132C673.553 373.725 673.698 372.55 673.988 371.607C674.278 370.664 674.67 369.91 675.163 369.344C675.656 368.764 676.229 368.35 676.882 368.104C677.549 367.857 678.253 367.734 678.993 367.734C679.733 367.734 680.429 367.857 681.082 368.104C681.749 368.35 682.329 368.764 682.823 369.344C683.316 369.91 683.708 370.664 683.998 371.607C684.288 372.55 684.433 373.725 684.433 375.132V375.567C684.433 377.076 684.288 378.338 683.998 379.354C683.708 380.355 683.316 381.16 682.823 381.769C682.329 382.364 681.749 382.785 681.082 383.031C680.429 383.278 679.733 383.401 678.993 383.401ZM678.993 381.617C679.442 381.617 679.87 381.537 680.277 381.377C680.697 381.203 681.06 380.899 681.365 380.464C681.684 380.014 681.93 379.397 682.104 378.614C682.293 377.831 682.387 376.815 682.387 375.567V375.132C682.387 374.001 682.293 373.072 682.104 372.347C681.93 371.622 681.684 371.049 681.365 370.628C681.06 370.207 680.697 369.917 680.277 369.757C679.87 369.598 679.442 369.518 678.993 369.518C678.529 369.518 678.093 369.598 677.687 369.757C677.281 369.917 676.918 370.207 676.599 370.628C676.294 371.049 676.048 371.622 675.859 372.347C675.685 373.072 675.598 374.001 675.598 375.132V375.567C675.598 376.815 675.685 377.831 675.859 378.614C676.048 379.397 676.294 380.014 676.599 380.464C676.918 380.899 677.281 381.203 677.687 381.377C678.093 381.537 678.529 381.617 678.993 381.617ZM697.709 383.401C696.94 383.401 696.222 383.256 695.555 382.966C694.902 382.676 694.329 382.255 693.836 381.704C693.357 381.138 692.973 380.449 692.683 379.637C692.407 378.824 692.269 377.903 692.269 376.873V376.438C692.269 375.132 692.363 373.972 692.552 372.956C692.741 371.926 693.06 371.056 693.509 370.345C693.974 369.62 694.576 369.054 695.316 368.648C696.07 368.241 697.013 368.009 698.144 367.951C699.058 367.908 699.856 367.872 700.538 367.843C701.22 367.799 701.8 367.654 702.279 367.407V369.257C702.047 369.388 701.619 369.489 700.995 369.562C700.386 369.634 699.544 369.685 698.471 369.714C697.774 369.728 697.158 369.815 696.621 369.975C696.099 370.135 695.649 370.389 695.272 370.737C694.909 371.085 694.619 371.542 694.402 372.108C694.199 372.659 694.068 373.341 694.01 374.153C694.358 373.384 694.895 372.775 695.62 372.325C696.346 371.875 697.187 371.651 698.144 371.651C698.884 371.651 699.559 371.781 700.168 372.042C700.777 372.289 701.3 372.644 701.735 373.109C702.185 373.573 702.533 374.146 702.779 374.828C703.026 375.495 703.149 376.249 703.149 377.091V377.526C703.149 378.425 703.011 379.238 702.736 379.963C702.46 380.674 702.083 381.29 701.604 381.813C701.126 382.32 700.553 382.712 699.885 382.988C699.218 383.263 698.493 383.401 697.709 383.401ZM697.709 381.66C698.725 381.66 699.559 381.312 700.212 380.616C700.864 379.905 701.191 378.875 701.191 377.526V377.091C701.191 376.525 701.104 376.017 700.93 375.567C700.756 375.118 700.516 374.733 700.212 374.414C699.907 374.081 699.537 373.827 699.102 373.653C698.681 373.478 698.217 373.391 697.709 373.391C697.201 373.391 696.73 373.478 696.295 373.653C695.874 373.827 695.511 374.081 695.207 374.414C694.902 374.733 694.663 375.118 694.489 375.567C694.315 376.017 694.228 376.525 694.228 377.091V377.526C694.228 378.164 694.315 378.744 694.489 379.267C694.677 379.774 694.931 380.21 695.25 380.572C695.569 380.921 695.939 381.189 696.36 381.377C696.781 381.566 697.23 381.66 697.709 381.66ZM709.149 383.401C708.511 383.401 707.945 383.314 707.452 383.14C706.973 382.951 706.567 382.698 706.233 382.378C705.9 382.059 705.646 381.682 705.472 381.247C705.298 380.812 705.211 380.333 705.211 379.811C705.211 378.665 705.544 377.838 706.212 377.33C706.893 376.822 707.865 376.568 709.127 376.568H712.87V375.785C712.87 374.799 712.645 374.117 712.196 373.74C711.76 373.362 711.1 373.174 710.215 373.174C709.389 373.174 708.787 373.333 708.409 373.653C708.032 373.957 707.822 374.305 707.778 374.697H705.863C705.892 374.233 706.016 373.805 706.233 373.413C706.465 373.007 706.77 372.659 707.147 372.369C707.539 372.079 708.003 371.854 708.54 371.694C709.077 371.52 709.671 371.433 710.324 371.433C711.688 371.433 712.769 371.759 713.567 372.412C714.379 373.051 714.785 374.102 714.785 375.567V380.246C714.785 380.855 714.785 381.392 714.785 381.856C714.8 382.306 714.836 382.748 714.894 383.184H713.218C713.175 382.85 713.146 382.538 713.131 382.248C713.117 381.943 713.11 381.602 713.11 381.225C712.805 381.834 712.312 382.349 711.63 382.77C710.948 383.191 710.121 383.401 709.149 383.401ZM709.563 381.66C710.012 381.66 710.433 381.602 710.825 381.486C711.231 381.356 711.586 381.174 711.891 380.942C712.196 380.696 712.435 380.398 712.609 380.05C712.783 379.702 712.87 379.296 712.87 378.832V378.048H709.454C708.743 378.048 708.184 378.193 707.778 378.483C707.372 378.759 707.169 379.201 707.169 379.811C707.169 380.347 707.358 380.79 707.735 381.138C708.126 381.486 708.736 381.66 709.563 381.66ZM718.167 371.651H720.082V380.355L726.045 371.651H727.959V383.184H726.045V374.479L720.082 383.184H718.167V371.651ZM723.063 370.236C721.932 370.236 721.105 369.997 720.583 369.518C720.06 369.025 719.799 368.321 719.799 367.407H721.671C721.671 368.394 722.135 368.887 723.063 368.887C724.021 368.887 724.5 368.394 724.5 367.407H726.327C726.327 368.321 726.066 369.025 725.544 369.518C725.022 369.997 724.195 370.236 723.063 370.236ZM734.082 373.348H730.143V371.651H739.935V373.348H735.997V383.184H734.082V373.348Z" fill="black"/>
<path d="M888.623 381.399H892.257V370.193L888.623 372.782V370.563L892.301 367.951H894.346V381.399H897.328V383.184H888.623V381.399ZM906.17 379.506H898.423V377.939L905.952 367.951H908.215V377.722H910.174V379.506H908.215V383.184H906.17V379.506ZM906.17 377.722V370.345L900.599 377.722H906.17ZM918.124 383.401C917.283 383.401 916.521 383.263 915.839 382.988C915.157 382.712 914.57 382.291 914.077 381.726C913.598 381.145 913.228 380.42 912.967 379.55C912.706 378.679 912.575 377.642 912.575 376.438V376.003C912.575 374.508 912.727 373.239 913.032 372.195C913.337 371.136 913.75 370.28 914.272 369.627C914.795 368.96 915.404 368.481 916.1 368.191C916.797 367.886 917.544 367.734 918.342 367.734C919.517 367.734 920.503 368.017 921.301 368.582C922.113 369.134 922.65 369.975 922.911 371.107H920.866C920.46 370.077 919.618 369.562 918.342 369.562C917.79 369.562 917.283 369.656 916.818 369.844C916.354 370.033 915.948 370.345 915.6 370.78C915.266 371.215 914.998 371.796 914.795 372.521C914.592 373.246 914.476 374.153 914.447 375.241C914.65 374.893 914.896 374.596 915.186 374.349C915.477 374.088 915.788 373.885 916.122 373.74C916.47 373.58 916.826 373.464 917.188 373.391C917.551 373.319 917.899 373.283 918.233 373.283C919.756 373.283 920.967 373.711 921.867 374.566C922.781 375.408 923.238 376.619 923.238 378.2V378.418C923.238 379.143 923.1 379.811 922.824 380.42C922.563 381.029 922.2 381.559 921.736 382.009C921.272 382.444 920.728 382.785 920.104 383.031C919.48 383.278 918.82 383.401 918.124 383.401ZM917.95 381.573C919.009 381.573 919.814 381.305 920.365 380.768C920.917 380.231 921.192 379.455 921.192 378.44V378.222C921.192 377.221 920.917 376.452 920.365 375.916C919.814 375.379 919.009 375.111 917.95 375.111C916.891 375.111 916.086 375.379 915.535 375.916C914.983 376.452 914.708 377.221 914.708 378.222V378.44C914.708 379.441 914.983 380.217 915.535 380.768C916.086 381.305 916.891 381.573 917.95 381.573ZM931.19 383.401C930.451 383.401 929.747 383.278 929.08 383.031C928.427 382.785 927.854 382.364 927.361 381.769C926.867 381.16 926.476 380.355 926.186 379.354C925.895 378.338 925.75 377.076 925.75 375.567V375.132C925.75 373.725 925.895 372.55 926.186 371.607C926.476 370.664 926.867 369.91 927.361 369.344C927.854 368.764 928.427 368.35 929.08 368.104C929.747 367.857 930.451 367.734 931.19 367.734C931.93 367.734 932.627 367.857 933.279 368.104C933.947 368.35 934.527 368.764 935.02 369.344C935.514 369.91 935.905 370.664 936.195 371.607C936.485 372.55 936.631 373.725 936.631 375.132V375.567C936.631 377.076 936.485 378.338 936.195 379.354C935.905 380.355 935.514 381.16 935.02 381.769C934.527 382.364 933.947 382.785 933.279 383.031C932.627 383.278 931.93 383.401 931.19 383.401ZM931.19 381.617C931.64 381.617 932.068 381.537 932.474 381.377C932.895 381.203 933.258 380.899 933.562 380.464C933.881 380.014 934.128 379.397 934.302 378.614C934.491 377.831 934.585 376.815 934.585 375.567V375.132C934.585 374.001 934.491 373.072 934.302 372.347C934.128 371.622 933.881 371.049 933.562 370.628C933.258 370.207 932.895 369.917 932.474 369.757C932.068 369.598 931.64 369.518 931.19 369.518C930.726 369.518 930.291 369.598 929.885 369.757C929.479 369.917 929.116 370.207 928.797 370.628C928.492 371.049 928.246 371.622 928.057 372.347C927.883 373.072 927.796 374.001 927.796 375.132V375.567C927.796 376.815 927.883 377.831 928.057 378.614C928.246 379.397 928.492 380.014 928.797 380.464C929.116 380.899 929.479 381.203 929.885 381.377C930.291 381.537 930.726 381.617 931.19 381.617ZM949.907 383.401C949.138 383.401 948.42 383.256 947.753 382.966C947.1 382.676 946.527 382.255 946.034 381.704C945.555 381.138 945.17 380.449 944.88 379.637C944.605 378.824 944.467 377.903 944.467 376.873V376.438C944.467 375.132 944.561 373.972 944.75 372.956C944.938 371.926 945.257 371.056 945.707 370.345C946.171 369.62 946.773 369.054 947.513 368.648C948.268 368.241 949.211 368.009 950.342 367.951C951.256 367.908 952.054 367.872 952.736 367.843C953.418 367.799 953.998 367.654 954.477 367.407V369.257C954.244 369.388 953.817 369.489 953.193 369.562C952.583 369.634 951.742 369.685 950.669 369.714C949.972 369.728 949.356 369.815 948.819 369.975C948.297 370.135 947.847 370.389 947.47 370.737C947.107 371.085 946.817 371.542 946.599 372.108C946.396 372.659 946.266 373.341 946.208 374.153C946.556 373.384 947.093 372.775 947.818 372.325C948.543 371.875 949.385 371.651 950.342 371.651C951.082 371.651 951.757 371.781 952.366 372.042C952.975 372.289 953.497 372.644 953.933 373.109C954.382 373.573 954.73 374.146 954.977 374.828C955.224 375.495 955.347 376.249 955.347 377.091V377.526C955.347 378.425 955.209 379.238 954.934 379.963C954.658 380.674 954.281 381.29 953.802 381.813C953.323 382.32 952.75 382.712 952.083 382.988C951.416 383.263 950.69 383.401 949.907 383.401ZM949.907 381.66C950.922 381.66 951.757 381.312 952.409 380.616C953.062 379.905 953.389 378.875 953.389 377.526V377.091C953.389 376.525 953.302 376.017 953.127 375.567C952.953 375.118 952.714 374.733 952.409 374.414C952.105 374.081 951.735 373.827 951.3 373.653C950.879 373.478 950.415 373.391 949.907 373.391C949.399 373.391 948.928 373.478 948.492 373.653C948.072 373.827 947.709 374.081 947.404 374.414C947.1 374.733 946.86 375.118 946.686 375.567C946.512 376.017 946.425 376.525 946.425 377.091V377.526C946.425 378.164 946.512 378.744 946.686 379.267C946.875 379.774 947.129 380.21 947.448 380.572C947.767 380.921 948.137 381.189 948.558 381.377C948.978 381.566 949.428 381.66 949.907 381.66ZM961.347 383.401C960.709 383.401 960.143 383.314 959.65 383.14C959.171 382.951 958.765 382.698 958.431 382.378C958.097 382.059 957.843 381.682 957.669 381.247C957.495 380.812 957.408 380.333 957.408 379.811C957.408 378.665 957.742 377.838 958.409 377.33C959.091 376.822 960.063 376.568 961.325 376.568H965.068V375.785C965.068 374.799 964.843 374.117 964.393 373.74C963.958 373.362 963.298 373.174 962.413 373.174C961.586 373.174 960.984 373.333 960.607 373.653C960.23 373.957 960.02 374.305 959.976 374.697H958.061C958.09 374.233 958.213 373.805 958.431 373.413C958.663 373.007 958.968 372.659 959.345 372.369C959.737 372.079 960.201 371.854 960.738 371.694C961.274 371.52 961.869 371.433 962.522 371.433C963.886 371.433 964.966 371.759 965.764 372.412C966.577 373.051 966.983 374.102 966.983 375.567V380.246C966.983 380.855 966.983 381.392 966.983 381.856C966.997 382.306 967.034 382.748 967.092 383.184H965.416C965.373 382.85 965.344 382.538 965.329 382.248C965.315 381.943 965.307 381.602 965.307 381.225C965.003 381.834 964.509 382.349 963.828 382.77C963.146 383.191 962.319 383.401 961.347 383.401ZM961.76 381.66C962.21 381.66 962.631 381.602 963.022 381.486C963.429 381.356 963.784 381.174 964.089 380.942C964.393 380.696 964.633 380.398 964.807 380.05C964.981 379.702 965.068 379.296 965.068 378.832V378.048H961.652C960.941 378.048 960.382 378.193 959.976 378.483C959.57 378.759 959.367 379.201 959.367 379.811C959.367 380.347 959.555 380.79 959.932 381.138C960.324 381.486 960.933 381.66 961.76 381.66ZM970.365 371.651H972.28V380.355L978.242 371.651H980.157V383.184H978.242V374.479L972.28 383.184H970.365V371.651ZM975.261 370.236C974.13 370.236 973.303 369.997 972.78 369.518C972.258 369.025 971.997 368.321 971.997 367.407H973.868C973.868 368.394 974.333 368.887 975.261 368.887C976.219 368.887 976.697 368.394 976.697 367.407H978.525C978.525 368.321 978.264 369.025 977.742 369.518C977.22 369.997 976.393 370.236 975.261 370.236ZM986.28 373.348H982.341V371.651H992.133V373.348H988.194V383.184H986.28V373.348Z" fill="black"/>
<path d="M646.073 447.622H649.707V436.415L646.073 439.005V436.785L649.751 434.174H651.796V447.622H654.778V449.406H646.073V447.622ZM667.189 449.624C666.362 449.624 665.644 449.515 665.034 449.297C664.425 449.065 663.91 448.768 663.489 448.405C663.083 448.028 662.771 447.607 662.554 447.143C662.336 446.679 662.213 446.2 662.184 445.707H664.229C664.302 446.258 664.592 446.744 665.1 447.165C665.622 447.586 666.318 447.796 667.189 447.796C668.175 447.796 668.951 447.491 669.517 446.882C670.083 446.258 670.366 445.395 670.366 444.293C670.366 443.669 670.271 443.132 670.083 442.682C669.909 442.233 669.669 441.87 669.365 441.594C669.075 441.319 668.741 441.116 668.364 440.985C667.987 440.854 667.595 440.789 667.189 440.789C666.405 440.789 665.789 440.934 665.339 441.224C664.904 441.514 664.57 441.848 664.338 442.225H662.51V434.174H671.541V435.958H664.556V440.202C665.31 439.375 666.296 438.961 667.515 438.961C669.024 438.961 670.213 439.418 671.084 440.332C671.969 441.246 672.411 442.566 672.411 444.293C672.411 445.105 672.281 445.845 672.019 446.512C671.773 447.165 671.417 447.723 670.953 448.188C670.503 448.652 669.952 449.007 669.299 449.254C668.661 449.501 667.957 449.624 667.189 449.624ZM680.247 449.624C679.507 449.624 678.803 449.501 678.136 449.254C677.483 449.007 676.91 448.587 676.417 447.992C675.923 447.383 675.532 446.577 675.242 445.576C674.952 444.561 674.806 443.299 674.806 441.79V441.355C674.806 439.948 674.952 438.773 675.242 437.83C675.532 436.887 675.923 436.132 676.417 435.567C676.91 434.986 677.483 434.573 678.136 434.326C678.803 434.08 679.507 433.956 680.247 433.956C680.986 433.956 681.683 434.08 682.336 434.326C683.003 434.573 683.583 434.986 684.076 435.567C684.57 436.132 684.961 436.887 685.251 437.83C685.542 438.773 685.687 439.948 685.687 441.355V441.79C685.687 443.299 685.542 444.561 685.251 445.576C684.961 446.577 684.57 447.383 684.076 447.992C683.583 448.587 683.003 449.007 682.336 449.254C681.683 449.501 680.986 449.624 680.247 449.624ZM680.247 447.84C680.696 447.84 681.124 447.76 681.53 447.6C681.951 447.426 682.314 447.121 682.618 446.686C682.938 446.236 683.184 445.62 683.358 444.837C683.547 444.053 683.641 443.038 683.641 441.79V441.355C683.641 440.223 683.547 439.295 683.358 438.57C683.184 437.844 682.938 437.271 682.618 436.851C682.314 436.43 681.951 436.14 681.53 435.98C681.124 435.821 680.696 435.741 680.247 435.741C679.782 435.741 679.347 435.821 678.941 435.98C678.535 436.14 678.172 436.43 677.853 436.851C677.548 437.271 677.302 437.844 677.113 438.57C676.939 439.295 676.852 440.223 676.852 441.355V441.79C676.852 443.038 676.939 444.053 677.113 444.837C677.302 445.62 677.548 446.236 677.853 446.686C678.172 447.121 678.535 447.426 678.941 447.6C679.347 447.76 679.782 447.84 680.247 447.84ZM693.74 449.624C693.001 449.624 692.297 449.501 691.63 449.254C690.977 449.007 690.404 448.587 689.911 447.992C689.417 447.383 689.026 446.577 688.736 445.576C688.445 444.561 688.3 443.299 688.3 441.79V441.355C688.3 439.948 688.445 438.773 688.736 437.83C689.026 436.887 689.417 436.132 689.911 435.567C690.404 434.986 690.977 434.573 691.63 434.326C692.297 434.08 693.001 433.956 693.74 433.956C694.48 433.956 695.177 434.08 695.829 434.326C696.497 434.573 697.077 434.986 697.57 435.567C698.064 436.132 698.455 436.887 698.745 437.83C699.036 438.773 699.181 439.948 699.181 441.355V441.79C699.181 443.299 699.036 444.561 698.745 445.576C698.455 446.577 698.064 447.383 697.57 447.992C697.077 448.587 696.497 449.007 695.829 449.254C695.177 449.501 694.48 449.624 693.74 449.624ZM693.74 447.84C694.19 447.84 694.618 447.76 695.024 447.6C695.445 447.426 695.808 447.121 696.112 446.686C696.432 446.236 696.678 445.62 696.852 444.837C697.041 444.053 697.135 443.038 697.135 441.79V441.355C697.135 440.223 697.041 439.295 696.852 438.57C696.678 437.844 696.432 437.271 696.112 436.851C695.808 436.43 695.445 436.14 695.024 435.98C694.618 435.821 694.19 435.741 693.74 435.741C693.276 435.741 692.841 435.821 692.435 435.98C692.029 436.14 691.666 436.43 691.347 436.851C691.042 437.271 690.796 437.844 690.607 438.57C690.433 439.295 690.346 440.223 690.346 441.355V441.79C690.346 443.038 690.433 444.053 690.607 444.837C690.796 445.62 691.042 446.236 691.347 446.686C691.666 447.121 692.029 447.426 692.435 447.6C692.841 447.76 693.276 447.84 693.74 447.84ZM712.457 449.624C711.688 449.624 710.97 449.479 710.303 449.189C709.65 448.899 709.077 448.478 708.584 447.927C708.105 447.361 707.72 446.672 707.43 445.859C707.155 445.047 707.017 444.126 707.017 443.096V442.661C707.017 441.355 707.111 440.194 707.3 439.179C707.488 438.149 707.807 437.278 708.257 436.568C708.721 435.842 709.323 435.277 710.063 434.87C710.818 434.464 711.761 434.232 712.892 434.174C713.806 434.13 714.604 434.094 715.286 434.065C715.968 434.022 716.548 433.877 717.027 433.63V435.48C716.795 435.61 716.367 435.712 715.743 435.784C715.133 435.857 714.292 435.908 713.219 435.937C712.522 435.951 711.906 436.038 711.369 436.198C710.847 436.357 710.397 436.611 710.02 436.959C709.657 437.307 709.367 437.764 709.149 438.33C708.946 438.881 708.816 439.563 708.758 440.376C709.106 439.607 709.643 438.998 710.368 438.548C711.093 438.098 711.935 437.873 712.892 437.873C713.632 437.873 714.307 438.004 714.916 438.265C715.525 438.512 716.047 438.867 716.483 439.331C716.932 439.795 717.28 440.368 717.527 441.05C717.774 441.718 717.897 442.472 717.897 443.313V443.749C717.897 444.648 717.759 445.46 717.484 446.186C717.208 446.897 716.831 447.513 716.352 448.035C715.873 448.543 715.3 448.935 714.633 449.21C713.966 449.486 713.24 449.624 712.457 449.624ZM712.457 447.883C713.472 447.883 714.307 447.535 714.959 446.839C715.612 446.128 715.939 445.098 715.939 443.749V443.313C715.939 442.748 715.852 442.24 715.677 441.79C715.503 441.34 715.264 440.956 714.959 440.637C714.655 440.303 714.285 440.049 713.85 439.875C713.429 439.701 712.965 439.614 712.457 439.614C711.949 439.614 711.478 439.701 711.043 439.875C710.622 440.049 710.259 440.303 709.955 440.637C709.65 440.956 709.411 441.34 709.236 441.79C709.062 442.24 708.975 442.748 708.975 443.313V443.749C708.975 444.387 709.062 444.967 709.236 445.489C709.425 445.997 709.679 446.432 709.998 446.795C710.317 447.143 710.687 447.412 711.108 447.6C711.529 447.789 711.978 447.883 712.457 447.883ZM723.897 449.624C723.259 449.624 722.693 449.537 722.2 449.363C721.721 449.174 721.315 448.92 720.981 448.601C720.647 448.282 720.394 447.905 720.219 447.47C720.045 447.034 719.958 446.556 719.958 446.033C719.958 444.887 720.292 444.06 720.959 443.553C721.641 443.045 722.613 442.791 723.875 442.791H727.618V442.008C727.618 441.021 727.393 440.339 726.943 439.962C726.508 439.585 725.848 439.396 724.963 439.396C724.136 439.396 723.534 439.556 723.157 439.875C722.78 440.18 722.57 440.528 722.526 440.92H720.611C720.64 440.455 720.763 440.028 720.981 439.636C721.213 439.23 721.518 438.881 721.895 438.591C722.287 438.301 722.751 438.076 723.288 437.917C723.824 437.743 724.419 437.656 725.072 437.656C726.436 437.656 727.516 437.982 728.314 438.635C729.127 439.273 729.533 440.325 729.533 441.79V446.469C729.533 447.078 729.533 447.615 729.533 448.079C729.547 448.529 729.584 448.971 729.642 449.406H727.966C727.923 449.073 727.894 448.761 727.879 448.471C727.865 448.166 727.857 447.825 727.857 447.448C727.553 448.057 727.059 448.572 726.378 448.993C725.696 449.414 724.869 449.624 723.897 449.624ZM724.31 447.883C724.76 447.883 725.181 447.825 725.572 447.709C725.979 447.578 726.334 447.397 726.639 447.165C726.943 446.918 727.183 446.621 727.357 446.273C727.531 445.925 727.618 445.518 727.618 445.054V444.271H724.202C723.491 444.271 722.932 444.416 722.526 444.706C722.12 444.982 721.917 445.424 721.917 446.033C721.917 446.57 722.105 447.013 722.483 447.361C722.874 447.709 723.483 447.883 724.31 447.883ZM732.915 437.873H734.83V446.577L740.792 437.873H742.707V449.406H740.792V440.702L734.83 449.406H732.915V437.873ZM737.811 436.459C736.68 436.459 735.853 436.219 735.33 435.741C734.808 435.248 734.547 434.544 734.547 433.63H736.418C736.418 434.616 736.883 435.11 737.811 435.11C738.769 435.11 739.247 434.616 739.247 433.63H741.075C741.075 434.544 740.814 435.248 740.292 435.741C739.77 436.219 738.943 436.459 737.811 436.459ZM748.83 439.571H744.891V437.873H754.683V439.571H750.744V449.406H748.83V439.571Z" fill="black"/>
<path d="M370 479.5L350 467.953L370 456.406V479.5Z" fill="#FFBD6E"/>
<path d="M1030 462.953L370 462.953V472.953L1030 472.953V462.953Z" fill="#FFBD6E"/>
<path d="M1030 479.5L1050 467.953L1030 456.406V479.5Z" fill="#FFBD6E"/>
</svg>
