<svg width="1084" height="413" viewBox="0 0 1084 413" fill="none" xmlns="http://www.w3.org/2000/svg">
<rect x="275" y="210.362" width="532" height="45" fill="#DBEEE5"/>
<path d="M374.143 237.796H377.56V226.35L374.078 228.787L373.229 227.546L378.017 224.13H379.235V237.796H382.586V239.362H374.143V237.796ZM387.191 237.796H390.607V226.35L387.126 228.787L386.277 227.546L391.064 224.13H392.283V237.796H395.634V239.362H387.191V237.796ZM398.672 231.746C398.672 230.513 398.781 229.411 398.998 228.439C399.216 227.452 399.542 226.625 399.978 225.958C400.413 225.276 400.964 224.761 401.631 224.413C402.299 224.05 403.089 223.869 404.003 223.869C404.975 223.869 405.795 224.043 406.462 224.391C407.144 224.739 407.695 225.247 408.116 225.914C408.537 226.582 408.841 227.409 409.03 228.395C409.219 229.367 409.313 230.484 409.313 231.746C409.313 232.979 409.204 234.089 408.986 235.076C408.769 236.047 408.442 236.874 408.007 237.556C407.572 238.224 407.021 238.739 406.353 239.101C405.686 239.449 404.895 239.623 403.982 239.623C403.024 239.623 402.204 239.435 401.523 239.058C400.855 238.666 400.304 238.122 399.869 237.426C399.448 236.729 399.143 235.902 398.955 234.945C398.766 233.973 398.672 232.907 398.672 231.746ZM407.528 231.746C407.528 230.977 407.485 230.245 407.398 229.548L400.935 235.445C401.182 236.272 401.552 236.932 402.045 237.426C402.538 237.919 403.184 238.165 403.982 238.165C405.258 238.165 406.165 237.636 406.702 236.577C407.253 235.518 407.528 233.908 407.528 231.746ZM400.478 231.746C400.478 232.109 400.485 232.457 400.5 232.791C400.529 233.124 400.558 233.451 400.587 233.77L407.072 227.895C406.825 227.111 406.455 226.487 405.962 226.023C405.483 225.559 404.83 225.327 404.003 225.327C402.712 225.327 401.798 225.864 401.261 226.937C400.739 227.996 400.478 229.599 400.478 231.746ZM411.72 231.746C411.72 230.513 411.829 229.411 412.046 228.439C412.264 227.452 412.59 226.625 413.025 225.958C413.461 225.276 414.012 224.761 414.679 224.413C415.346 224.05 416.137 223.869 417.051 223.869C418.023 223.869 418.843 224.043 419.51 224.391C420.192 224.739 420.743 225.247 421.164 225.914C421.584 226.582 421.889 227.409 422.078 228.395C422.266 229.367 422.361 230.484 422.361 231.746C422.361 232.979 422.252 234.089 422.034 235.076C421.817 236.047 421.49 236.874 421.055 237.556C420.62 238.224 420.068 238.739 419.401 239.101C418.734 239.449 417.943 239.623 417.029 239.623C416.072 239.623 415.252 239.435 414.57 239.058C413.903 238.666 413.352 238.122 412.917 237.426C412.496 236.729 412.191 235.902 412.003 234.945C411.814 233.973 411.72 232.907 411.72 231.746ZM420.576 231.746C420.576 230.977 420.533 230.245 420.446 229.548L413.983 235.445C414.229 236.272 414.599 236.932 415.093 237.426C415.586 237.919 416.231 238.165 417.029 238.165C418.306 238.165 419.213 237.636 419.749 236.577C420.301 235.518 420.576 233.908 420.576 231.746ZM413.526 231.746C413.526 232.109 413.533 232.457 413.548 232.791C413.577 233.124 413.606 233.451 413.635 233.77L420.119 227.895C419.873 227.111 419.503 226.487 419.009 226.023C418.531 225.559 417.878 225.327 417.051 225.327C415.76 225.327 414.846 225.864 414.309 226.937C413.787 227.996 413.526 229.599 413.526 231.746ZM424.767 231.746C424.767 230.513 424.876 229.411 425.094 228.439C425.311 227.452 425.638 226.625 426.073 225.958C426.508 225.276 427.06 224.761 427.727 224.413C428.394 224.05 429.185 223.869 430.099 223.869C431.071 223.869 431.89 224.043 432.558 224.391C433.239 224.739 433.791 225.247 434.211 225.914C434.632 226.582 434.937 227.409 435.125 228.395C435.314 229.367 435.408 230.484 435.408 231.746C435.408 232.979 435.299 234.089 435.082 235.076C434.864 236.047 434.538 236.874 434.103 237.556C433.667 238.224 433.116 238.739 432.449 239.101C431.782 239.449 430.991 239.623 430.077 239.623C429.12 239.623 428.3 239.435 427.618 239.058C426.951 238.666 426.399 238.122 425.964 237.426C425.544 236.729 425.239 235.902 425.05 234.945C424.862 233.973 424.767 232.907 424.767 231.746ZM433.624 231.746C433.624 230.977 433.58 230.245 433.493 229.548L427.031 235.445C427.277 236.272 427.647 236.932 428.14 237.426C428.634 237.919 429.279 238.165 430.077 238.165C431.354 238.165 432.26 237.636 432.797 236.577C433.348 235.518 433.624 233.908 433.624 231.746ZM426.574 231.746C426.574 232.109 426.581 232.457 426.595 232.791C426.624 233.124 426.653 233.451 426.682 233.77L433.167 227.895C432.92 227.111 432.55 226.487 432.057 226.023C431.578 225.559 430.926 225.327 430.099 225.327C428.808 225.327 427.894 225.864 427.357 226.937C426.835 227.996 426.574 229.599 426.574 231.746ZM437.815 231.746C437.815 230.513 437.924 229.411 438.142 228.439C438.359 227.452 438.686 226.625 439.121 225.958C439.556 225.276 440.107 224.761 440.775 224.413C441.442 224.05 442.232 223.869 443.146 223.869C444.118 223.869 444.938 224.043 445.605 224.391C446.287 224.739 446.838 225.247 447.259 225.914C447.68 226.582 447.984 227.409 448.173 228.395C448.362 229.367 448.456 230.484 448.456 231.746C448.456 232.979 448.347 234.089 448.13 235.076C447.912 236.047 447.586 236.874 447.15 237.556C446.715 238.224 446.164 238.739 445.497 239.101C444.829 239.449 444.039 239.623 443.125 239.623C442.167 239.623 441.348 239.435 440.666 239.058C439.998 238.666 439.447 238.122 439.012 237.426C438.591 236.729 438.287 235.902 438.098 234.945C437.909 233.973 437.815 232.907 437.815 231.746ZM446.672 231.746C446.672 230.977 446.628 230.245 446.541 229.548L440.078 235.445C440.325 236.272 440.695 236.932 441.188 237.426C441.681 237.919 442.327 238.165 443.125 238.165C444.401 238.165 445.308 237.636 445.845 236.577C446.396 235.518 446.672 233.908 446.672 231.746ZM439.621 231.746C439.621 232.109 439.629 232.457 439.643 232.791C439.672 233.124 439.701 233.451 439.73 233.77L446.215 227.895C445.968 227.111 445.598 226.487 445.105 226.023C444.626 225.559 443.973 225.327 443.146 225.327C441.855 225.327 440.941 225.864 440.405 226.937C439.882 227.996 439.621 229.599 439.621 231.746ZM450.863 231.746C450.863 230.513 450.972 229.411 451.189 228.439C451.407 227.452 451.733 226.625 452.168 225.958C452.604 225.276 453.155 224.761 453.822 224.413C454.49 224.05 455.28 223.869 456.194 223.869C457.166 223.869 457.986 224.043 458.653 224.391C459.335 224.739 459.886 225.247 460.307 225.914C460.728 226.582 461.032 227.409 461.221 228.395C461.409 229.367 461.504 230.484 461.504 231.746C461.504 232.979 461.395 234.089 461.177 235.076C460.96 236.047 460.633 236.874 460.198 237.556C459.763 238.224 459.212 238.739 458.544 239.101C457.877 239.449 457.086 239.623 456.172 239.623C455.215 239.623 454.395 239.435 453.713 239.058C453.046 238.666 452.495 238.122 452.06 237.426C451.639 236.729 451.334 235.902 451.146 234.945C450.957 233.973 450.863 232.907 450.863 231.746ZM459.719 231.746C459.719 230.977 459.676 230.245 459.589 229.548L453.126 235.445C453.373 236.272 453.742 236.932 454.236 237.426C454.729 237.919 455.374 238.165 456.172 238.165C457.449 238.165 458.356 237.636 458.892 236.577C459.444 235.518 459.719 233.908 459.719 231.746ZM452.669 231.746C452.669 232.109 452.676 232.457 452.691 232.791C452.72 233.124 452.749 233.451 452.778 233.77L459.262 227.895C459.016 227.111 458.646 226.487 458.153 226.023C457.674 225.559 457.021 225.327 456.194 225.327C454.903 225.327 453.989 225.864 453.452 226.937C452.93 227.996 452.669 229.599 452.669 231.746ZM463.911 231.746C463.911 230.513 464.019 229.411 464.237 228.439C464.455 227.452 464.781 226.625 465.216 225.958C465.651 225.276 466.203 224.761 466.87 224.413C467.537 224.05 468.328 223.869 469.242 223.869C470.214 223.869 471.033 224.043 471.701 224.391C472.383 224.739 472.934 225.247 473.355 225.914C473.775 226.582 474.08 227.409 474.268 228.395C474.457 229.367 474.551 230.484 474.551 231.746C474.551 232.979 474.443 234.089 474.225 235.076C474.007 236.047 473.681 236.874 473.246 237.556C472.811 238.224 472.259 238.739 471.592 239.101C470.925 239.449 470.134 239.623 469.22 239.623C468.263 239.623 467.443 239.435 466.761 239.058C466.094 238.666 465.543 238.122 465.107 237.426C464.687 236.729 464.382 235.902 464.193 234.945C464.005 233.973 463.911 232.907 463.911 231.746ZM472.767 231.746C472.767 230.977 472.724 230.245 472.636 229.548L466.174 235.445C466.42 236.272 466.79 236.932 467.283 237.426C467.777 237.919 468.422 238.165 469.22 238.165C470.497 238.165 471.403 237.636 471.94 236.577C472.491 235.518 472.767 233.908 472.767 231.746ZM465.717 231.746C465.717 232.109 465.724 232.457 465.738 232.791C465.767 233.124 465.796 233.451 465.825 233.77L472.31 227.895C472.063 227.111 471.694 226.487 471.2 226.023C470.722 225.559 470.069 225.327 469.242 225.327C467.951 225.327 467.037 225.864 466.5 226.937C465.978 227.996 465.717 229.599 465.717 231.746ZM491.573 237.796H494.989V226.35L491.507 228.787L490.659 227.546L495.446 224.13H496.665V237.796H500.016V239.362H491.573V237.796ZM503.054 231.746C503.054 230.513 503.162 229.411 503.38 228.439C503.598 227.452 503.924 226.625 504.359 225.958C504.795 225.276 505.346 224.761 506.013 224.413C506.68 224.05 507.471 223.869 508.385 223.869C509.357 223.869 510.177 224.043 510.844 224.391C511.526 224.739 512.077 225.247 512.498 225.914C512.918 226.582 513.223 227.409 513.412 228.395C513.6 229.367 513.695 230.484 513.695 231.746C513.695 232.979 513.586 234.089 513.368 235.076C513.15 236.047 512.824 236.874 512.389 237.556C511.954 238.224 511.402 238.739 510.735 239.101C510.068 239.449 509.277 239.623 508.363 239.623C507.406 239.623 506.586 239.435 505.904 239.058C505.237 238.666 504.686 238.122 504.251 237.426C503.83 236.729 503.525 235.902 503.337 234.945C503.148 233.973 503.054 232.907 503.054 231.746ZM511.91 231.746C511.91 230.977 511.867 230.245 511.78 229.548L505.317 235.445C505.563 236.272 505.933 236.932 506.427 237.426C506.92 237.919 507.565 238.165 508.363 238.165C509.64 238.165 510.547 237.636 511.083 236.577C511.635 235.518 511.91 233.908 511.91 231.746ZM504.86 231.746C504.86 232.109 504.867 232.457 504.882 232.791C504.911 233.124 504.94 233.451 504.969 233.77L511.453 227.895C511.207 227.111 510.837 226.487 510.343 226.023C509.865 225.559 509.212 225.327 508.385 225.327C507.094 225.327 506.18 225.864 505.643 226.937C505.121 227.996 504.86 229.599 504.86 231.746ZM517.668 237.796H521.085V226.35L517.603 228.787L516.754 227.546L521.541 224.13H522.76V237.796H526.111V239.362H517.668V237.796ZM529.149 231.746C529.149 230.513 529.258 229.411 529.476 228.439C529.693 227.452 530.02 226.625 530.455 225.958C530.89 225.276 531.441 224.761 532.109 224.413C532.776 224.05 533.566 223.869 534.48 223.869C535.452 223.869 536.272 224.043 536.939 224.391C537.621 224.739 538.172 225.247 538.593 225.914C539.014 226.582 539.318 227.409 539.507 228.395C539.696 229.367 539.79 230.484 539.79 231.746C539.79 232.979 539.681 234.089 539.464 235.076C539.246 236.047 538.92 236.874 538.484 237.556C538.049 238.224 537.498 238.739 536.831 239.101C536.163 239.449 535.373 239.623 534.459 239.623C533.501 239.623 532.682 239.435 532 239.058C531.332 238.666 530.781 238.122 530.346 237.426C529.925 236.729 529.621 235.902 529.432 234.945C529.243 233.973 529.149 232.907 529.149 231.746ZM538.006 231.746C538.006 230.977 537.962 230.245 537.875 229.548L531.412 235.445C531.659 236.272 532.029 236.932 532.522 237.426C533.015 237.919 533.661 238.165 534.459 238.165C535.735 238.165 536.642 237.636 537.179 236.577C537.73 235.518 538.006 233.908 538.006 231.746ZM530.955 231.746C530.955 232.109 530.962 232.457 530.977 232.791C531.006 233.124 531.035 233.451 531.064 233.77L537.549 227.895C537.302 227.111 536.932 226.487 536.439 226.023C535.96 225.559 535.307 225.327 534.48 225.327C533.189 225.327 532.275 225.864 531.739 226.937C531.216 227.996 530.955 229.599 530.955 231.746ZM543.764 237.796H547.18V226.35L543.698 228.787L542.85 227.546L547.637 224.13H548.855V237.796H552.207V239.362H543.764V237.796ZM555.245 231.746C555.245 230.513 555.353 229.411 555.571 228.439C555.789 227.452 556.115 226.625 556.55 225.958C556.985 225.276 557.537 224.761 558.204 224.413C558.871 224.05 559.662 223.869 560.576 223.869C561.548 223.869 562.367 224.043 563.035 224.391C563.717 224.739 564.268 225.247 564.689 225.914C565.109 226.582 565.414 227.409 565.602 228.395C565.791 229.367 565.885 230.484 565.885 231.746C565.885 232.979 565.777 234.089 565.559 235.076C565.341 236.047 565.015 236.874 564.58 237.556C564.145 238.224 563.593 238.739 562.926 239.101C562.259 239.449 561.468 239.623 560.554 239.623C559.597 239.623 558.777 239.435 558.095 239.058C557.428 238.666 556.877 238.122 556.441 237.426C556.021 236.729 555.716 235.902 555.527 234.945C555.339 233.973 555.245 232.907 555.245 231.746ZM564.101 231.746C564.101 230.977 564.057 230.245 563.97 229.548L557.508 235.445C557.754 236.272 558.124 236.932 558.617 237.426C559.111 237.919 559.756 238.165 560.554 238.165C561.831 238.165 562.737 237.636 563.274 236.577C563.825 235.518 564.101 233.908 564.101 231.746ZM557.051 231.746C557.051 232.109 557.058 232.457 557.072 232.791C557.101 233.124 557.13 233.451 557.159 233.77L563.644 227.895C563.397 227.111 563.027 226.487 562.534 226.023C562.056 225.559 561.403 225.327 560.576 225.327C559.285 225.327 558.371 225.864 557.834 226.937C557.312 227.996 557.051 229.599 557.051 231.746ZM568.292 231.746C568.292 230.513 568.401 229.411 568.619 228.439C568.836 227.452 569.163 226.625 569.598 225.958C570.033 225.276 570.584 224.761 571.252 224.413C571.919 224.05 572.71 223.869 573.624 223.869C574.595 223.869 575.415 224.043 576.082 224.391C576.764 224.739 577.316 225.247 577.736 225.914C578.157 226.582 578.462 227.409 578.65 228.395C578.839 229.367 578.933 230.484 578.933 231.746C578.933 232.979 578.824 234.089 578.607 235.076C578.389 236.047 578.063 236.874 577.627 237.556C577.192 238.224 576.641 238.739 575.974 239.101C575.306 239.449 574.516 239.623 573.602 239.623C572.644 239.623 571.825 239.435 571.143 239.058C570.476 238.666 569.924 238.122 569.489 237.426C569.068 236.729 568.764 235.902 568.575 234.945C568.387 233.973 568.292 232.907 568.292 231.746ZM577.149 231.746C577.149 230.977 577.105 230.245 577.018 229.548L570.555 235.445C570.802 236.272 571.172 236.932 571.665 237.426C572.158 237.919 572.804 238.165 573.602 238.165C574.878 238.165 575.785 237.636 576.322 236.577C576.873 235.518 577.149 233.908 577.149 231.746ZM570.098 231.746C570.098 232.109 570.106 232.457 570.12 232.791C570.149 233.124 570.178 233.451 570.207 233.77L576.692 227.895C576.445 227.111 576.075 226.487 575.582 226.023C575.103 225.559 574.45 225.327 573.624 225.327C572.332 225.327 571.418 225.864 570.882 226.937C570.359 227.996 570.098 229.599 570.098 231.746ZM581.34 231.746C581.34 230.513 581.449 229.411 581.666 228.439C581.884 227.452 582.21 226.625 582.646 225.958C583.081 225.276 583.632 224.761 584.299 224.413C584.967 224.05 585.757 223.869 586.671 223.869C587.643 223.869 588.463 224.043 589.13 224.391C589.812 224.739 590.363 225.247 590.784 225.914C591.205 226.582 591.509 227.409 591.698 228.395C591.886 229.367 591.981 230.484 591.981 231.746C591.981 232.979 591.872 234.089 591.654 235.076C591.437 236.047 591.11 236.874 590.675 237.556C590.24 238.224 589.689 238.739 589.021 239.101C588.354 239.449 587.563 239.623 586.649 239.623C585.692 239.623 584.872 239.435 584.191 239.058C583.523 238.666 582.972 238.122 582.537 237.426C582.116 236.729 581.811 235.902 581.623 234.945C581.434 233.973 581.34 232.907 581.34 231.746ZM590.196 231.746C590.196 230.977 590.153 230.245 590.066 229.548L583.603 235.445C583.85 236.272 584.22 236.932 584.713 237.426C585.206 237.919 585.852 238.165 586.649 238.165C587.926 238.165 588.833 237.636 589.37 236.577C589.921 235.518 590.196 233.908 590.196 231.746ZM583.146 231.746C583.146 232.109 583.153 232.457 583.168 232.791C583.197 233.124 583.226 233.451 583.255 233.77L589.739 227.895C589.493 227.111 589.123 226.487 588.63 226.023C588.151 225.559 587.498 225.327 586.671 225.327C585.38 225.327 584.466 225.864 583.929 226.937C583.407 227.996 583.146 229.599 583.146 231.746ZM607.435 231.746C607.435 230.513 607.544 229.411 607.762 228.439C607.979 227.452 608.306 226.625 608.741 225.958C609.176 225.276 609.727 224.761 610.395 224.413C611.062 224.05 611.853 223.869 612.767 223.869C613.739 223.869 614.558 224.043 615.226 224.391C615.907 224.739 616.459 225.247 616.879 225.914C617.3 226.582 617.605 227.409 617.793 228.395C617.982 229.367 618.076 230.484 618.076 231.746C618.076 232.979 617.967 234.089 617.75 235.076C617.532 236.047 617.206 236.874 616.771 237.556C616.335 238.224 615.784 238.739 615.117 239.101C614.449 239.449 613.659 239.623 612.745 239.623C611.787 239.623 610.968 239.435 610.286 239.058C609.619 238.666 609.067 238.122 608.632 237.426C608.211 236.729 607.907 235.902 607.718 234.945C607.53 233.973 607.435 232.907 607.435 231.746ZM616.292 231.746C616.292 230.977 616.248 230.245 616.161 229.548L609.698 235.445C609.945 236.272 610.315 236.932 610.808 237.426C611.301 237.919 611.947 238.165 612.745 238.165C614.021 238.165 614.928 237.636 615.465 236.577C616.016 235.518 616.292 233.908 616.292 231.746ZM609.241 231.746C609.241 232.109 609.249 232.457 609.263 232.791C609.292 233.124 609.321 233.451 609.35 233.77L615.835 227.895C615.588 227.111 615.218 226.487 614.725 226.023C614.246 225.559 613.594 225.327 612.767 225.327C611.476 225.327 610.562 225.864 610.025 226.937C609.503 227.996 609.241 229.599 609.241 231.746ZM620.483 231.746C620.483 230.513 620.592 229.411 620.809 228.439C621.027 227.452 621.353 226.625 621.789 225.958C622.224 225.276 622.775 224.761 623.442 224.413C624.11 224.05 624.9 223.869 625.814 223.869C626.786 223.869 627.606 224.043 628.273 224.391C628.955 224.739 629.506 225.247 629.927 225.914C630.348 226.582 630.652 227.409 630.841 228.395C631.03 229.367 631.124 230.484 631.124 231.746C631.124 232.979 631.015 234.089 630.797 235.076C630.58 236.047 630.253 236.874 629.818 237.556C629.383 238.224 628.832 238.739 628.164 239.101C627.497 239.449 626.707 239.623 625.793 239.623C624.835 239.623 624.016 239.435 623.334 239.058C622.666 238.666 622.115 238.122 621.68 237.426C621.259 236.729 620.955 235.902 620.766 234.945C620.577 233.973 620.483 232.907 620.483 231.746ZM629.34 231.746C629.34 230.977 629.296 230.245 629.209 229.548L622.746 235.445C622.993 236.272 623.363 236.932 623.856 237.426C624.349 237.919 624.995 238.165 625.793 238.165C627.069 238.165 627.976 237.636 628.513 236.577C629.064 235.518 629.34 233.908 629.34 231.746ZM622.289 231.746C622.289 232.109 622.296 232.457 622.311 232.791C622.34 233.124 622.369 233.451 622.398 233.77L628.883 227.895C628.636 227.111 628.266 226.487 627.773 226.023C627.294 225.559 626.641 225.327 625.814 225.327C624.523 225.327 623.609 225.864 623.073 226.937C622.55 227.996 622.289 229.599 622.289 231.746ZM633.531 231.746C633.531 230.513 633.64 229.411 633.857 228.439C634.075 227.452 634.401 226.625 634.836 225.958C635.272 225.276 635.823 224.761 636.49 224.413C637.158 224.05 637.948 223.869 638.862 223.869C639.834 223.869 640.654 224.043 641.321 224.391C642.003 224.739 642.554 225.247 642.975 225.914C643.395 226.582 643.7 227.409 643.889 228.395C644.077 229.367 644.172 230.484 644.172 231.746C644.172 232.979 644.063 234.089 643.845 235.076C643.628 236.047 643.301 236.874 642.866 237.556C642.431 238.224 641.88 238.739 641.212 239.101C640.545 239.449 639.754 239.623 638.84 239.623C637.883 239.623 637.063 239.435 636.381 239.058C635.714 238.666 635.163 238.122 634.728 237.426C634.307 236.729 634.002 235.902 633.814 234.945C633.625 233.973 633.531 232.907 633.531 231.746ZM642.387 231.746C642.387 230.977 642.344 230.245 642.257 229.548L635.794 235.445C636.04 236.272 636.41 236.932 636.904 237.426C637.397 237.919 638.042 238.165 638.84 238.165C640.117 238.165 641.024 237.636 641.56 236.577C642.112 235.518 642.387 233.908 642.387 231.746ZM635.337 231.746C635.337 232.109 635.344 232.457 635.359 232.791C635.388 233.124 635.417 233.451 635.446 233.77L641.93 227.895C641.684 227.111 641.314 226.487 640.821 226.023C640.342 225.559 639.689 225.327 638.862 225.327C637.571 225.327 636.657 225.864 636.12 226.937C635.598 227.996 635.337 229.599 635.337 231.746ZM646.578 231.746C646.578 230.513 646.687 229.411 646.905 228.439C647.122 227.452 647.449 226.625 647.884 225.958C648.319 225.276 648.871 224.761 649.538 224.413C650.205 224.05 650.996 223.869 651.91 223.869C652.882 223.869 653.701 224.043 654.369 224.391C655.051 224.739 655.602 225.247 656.022 225.914C656.443 226.582 656.748 227.409 656.936 228.395C657.125 229.367 657.219 230.484 657.219 231.746C657.219 232.979 657.11 234.089 656.893 235.076C656.675 236.047 656.349 236.874 655.914 237.556C655.478 238.224 654.927 238.739 654.26 239.101C653.593 239.449 652.802 239.623 651.888 239.623C650.931 239.623 650.111 239.435 649.429 239.058C648.762 238.666 648.21 238.122 647.775 237.426C647.355 236.729 647.05 235.902 646.861 234.945C646.673 233.973 646.578 232.907 646.578 231.746ZM655.435 231.746C655.435 230.977 655.391 230.245 655.304 229.548L648.842 235.445C649.088 236.272 649.458 236.932 649.951 237.426C650.445 237.919 651.09 238.165 651.888 238.165C653.165 238.165 654.071 237.636 654.608 236.577C655.159 235.518 655.435 233.908 655.435 231.746ZM648.385 231.746C648.385 232.109 648.392 232.457 648.406 232.791C648.435 233.124 648.464 233.451 648.493 233.77L654.978 227.895C654.731 227.111 654.361 226.487 653.868 226.023C653.389 225.559 652.737 225.327 651.91 225.327C650.619 225.327 649.705 225.864 649.168 226.937C648.646 227.996 648.385 229.599 648.385 231.746ZM661.193 237.796H664.609V226.35L661.128 228.787L660.279 227.546L665.066 224.13H666.285V237.796H669.636V239.362H661.193V237.796ZM672.674 231.746C672.674 230.513 672.783 229.411 673 228.439C673.218 227.452 673.544 226.625 673.98 225.958C674.415 225.276 674.966 224.761 675.633 224.413C676.301 224.05 677.091 223.869 678.005 223.869C678.977 223.869 679.797 224.043 680.464 224.391C681.146 224.739 681.697 225.247 682.118 225.914C682.539 226.582 682.843 227.409 683.032 228.395C683.22 229.367 683.315 230.484 683.315 231.746C683.315 232.979 683.206 234.089 682.988 235.076C682.771 236.047 682.444 236.874 682.009 237.556C681.574 238.224 681.023 238.739 680.355 239.101C679.688 239.449 678.897 239.623 677.983 239.623C677.026 239.623 676.206 239.435 675.525 239.058C674.857 238.666 674.306 238.122 673.871 237.426C673.45 236.729 673.145 235.902 672.957 234.945C672.768 233.973 672.674 232.907 672.674 231.746ZM681.53 231.746C681.53 230.977 681.487 230.245 681.4 229.548L674.937 235.445C675.184 236.272 675.554 236.932 676.047 237.426C676.54 237.919 677.186 238.165 677.983 238.165C679.26 238.165 680.167 237.636 680.704 236.577C681.255 235.518 681.53 233.908 681.53 231.746ZM674.48 231.746C674.48 232.109 674.487 232.457 674.502 232.791C674.531 233.124 674.56 233.451 674.589 233.77L681.073 227.895C680.827 227.111 680.457 226.487 679.964 226.023C679.485 225.559 678.832 225.327 678.005 225.327C676.714 225.327 675.8 225.864 675.263 226.937C674.741 227.996 674.48 229.599 674.48 231.746ZM687.288 237.796H690.705V226.35L687.223 228.787L686.374 227.546L691.162 224.13H692.38V237.796H695.731V239.362H687.288V237.796ZM698.769 231.746C698.769 230.513 698.878 229.411 699.096 228.439C699.313 227.452 699.64 226.625 700.075 225.958C700.51 225.276 701.061 224.761 701.729 224.413C702.396 224.05 703.187 223.869 704.101 223.869C705.073 223.869 705.892 224.043 706.56 224.391C707.241 224.739 707.793 225.247 708.213 225.914C708.634 226.582 708.939 227.409 709.127 228.395C709.316 229.367 709.41 230.484 709.41 231.746C709.41 232.979 709.301 234.089 709.084 235.076C708.866 236.047 708.54 236.874 708.105 237.556C707.669 238.224 707.118 238.739 706.451 239.101C705.783 239.449 704.993 239.623 704.079 239.623C703.121 239.623 702.302 239.435 701.62 239.058C700.953 238.666 700.401 238.122 699.966 237.426C699.545 236.729 699.241 235.902 699.052 234.945C698.864 233.973 698.769 232.907 698.769 231.746ZM707.626 231.746C707.626 230.977 707.582 230.245 707.495 229.548L701.032 235.445C701.279 236.272 701.649 236.932 702.142 237.426C702.635 237.919 703.281 238.165 704.079 238.165C705.355 238.165 706.262 237.636 706.799 236.577C707.35 235.518 707.626 233.908 707.626 231.746ZM700.575 231.746C700.575 232.109 700.583 232.457 700.597 232.791C700.626 233.124 700.655 233.451 700.684 233.77L707.169 227.895C706.922 227.111 706.552 226.487 706.059 226.023C705.58 225.559 704.928 225.327 704.101 225.327C702.81 225.327 701.896 225.864 701.359 226.937C700.837 227.996 700.575 229.599 700.575 231.746Z" fill="black"/>
<rect x="275" y="210.362" width="532" height="45" stroke="#58A982"/>
<rect x="807" y="210.362" width="177" height="45" fill="#F1F7F5"/>
<path d="M844.506 231.746C844.506 230.513 844.615 229.411 844.832 228.439C845.05 227.452 845.376 226.625 845.812 225.958C846.247 225.276 846.798 224.761 847.465 224.413C848.133 224.05 848.923 223.869 849.837 223.869C850.809 223.869 851.629 224.043 852.296 224.391C852.978 224.739 853.529 225.247 853.95 225.914C854.371 226.582 854.675 227.409 854.864 228.395C855.052 229.367 855.147 230.484 855.147 231.746C855.147 232.979 855.038 234.089 854.82 235.076C854.603 236.047 854.276 236.874 853.841 237.556C853.406 238.224 852.855 238.739 852.187 239.101C851.52 239.449 850.729 239.623 849.816 239.623C848.858 239.623 848.038 239.435 847.357 239.058C846.689 238.666 846.138 238.122 845.703 237.426C845.282 236.729 844.977 235.902 844.789 234.945C844.6 233.973 844.506 232.907 844.506 231.746ZM853.362 231.746C853.362 230.977 853.319 230.245 853.232 229.548L846.769 235.445C847.016 236.272 847.386 236.932 847.879 237.426C848.372 237.919 849.018 238.165 849.816 238.165C851.092 238.165 851.999 237.636 852.536 236.577C853.087 235.518 853.362 233.908 853.362 231.746ZM846.312 231.746C846.312 232.109 846.319 232.457 846.334 232.791C846.363 233.124 846.392 233.451 846.421 233.77L852.905 227.895C852.659 227.111 852.289 226.487 851.796 226.023C851.317 225.559 850.664 225.327 849.837 225.327C848.546 225.327 847.632 225.864 847.095 226.937C846.573 227.996 846.312 229.599 846.312 231.746ZM857.554 231.746C857.554 230.513 857.662 229.411 857.88 228.439C858.098 227.452 858.424 226.625 858.859 225.958C859.295 225.276 859.846 224.761 860.513 224.413C861.18 224.05 861.971 223.869 862.885 223.869C863.857 223.869 864.677 224.043 865.344 224.391C866.026 224.739 866.577 225.247 866.998 225.914C867.418 226.582 867.723 227.409 867.912 228.395C868.1 229.367 868.195 230.484 868.195 231.746C868.195 232.979 868.086 234.089 867.868 235.076C867.65 236.047 867.324 236.874 866.889 237.556C866.454 238.224 865.902 238.739 865.235 239.101C864.568 239.449 863.777 239.623 862.863 239.623C861.906 239.623 861.086 239.435 860.404 239.058C859.737 238.666 859.186 238.122 858.751 237.426C858.33 236.729 858.025 235.902 857.837 234.945C857.648 233.973 857.554 232.907 857.554 231.746ZM866.41 231.746C866.41 230.977 866.367 230.245 866.28 229.548L859.817 235.445C860.063 236.272 860.433 236.932 860.927 237.426C861.42 237.919 862.065 238.165 862.863 238.165C864.14 238.165 865.047 237.636 865.583 236.577C866.135 235.518 866.41 233.908 866.41 231.746ZM859.36 231.746C859.36 232.109 859.367 232.457 859.382 232.791C859.411 233.124 859.44 233.451 859.469 233.77L865.953 227.895C865.707 227.111 865.337 226.487 864.843 226.023C864.365 225.559 863.712 225.327 862.885 225.327C861.594 225.327 860.68 225.864 860.143 226.937C859.621 227.996 859.36 229.599 859.36 231.746ZM870.601 231.746C870.601 230.513 870.71 229.411 870.928 228.439C871.145 227.452 871.472 226.625 871.907 225.958C872.342 225.276 872.893 224.761 873.561 224.413C874.228 224.05 875.019 223.869 875.933 223.869C876.905 223.869 877.724 224.043 878.392 224.391C879.073 224.739 879.625 225.247 880.045 225.914C880.466 226.582 880.771 227.409 880.959 228.395C881.148 229.367 881.242 230.484 881.242 231.746C881.242 232.979 881.133 234.089 880.916 235.076C880.698 236.047 880.372 236.874 879.937 237.556C879.501 238.224 878.95 238.739 878.283 239.101C877.615 239.449 876.825 239.623 875.911 239.623C874.953 239.623 874.134 239.435 873.452 239.058C872.785 238.666 872.233 238.122 871.798 237.426C871.378 236.729 871.073 235.902 870.884 234.945C870.696 233.973 870.601 232.907 870.601 231.746ZM879.458 231.746C879.458 230.977 879.414 230.245 879.327 229.548L872.864 235.445C873.111 236.272 873.481 236.932 873.974 237.426C874.467 237.919 875.113 238.165 875.911 238.165C877.188 238.165 878.094 237.636 878.631 236.577C879.182 235.518 879.458 233.908 879.458 231.746ZM872.408 231.746C872.408 232.109 872.415 232.457 872.429 232.791C872.458 233.124 872.487 233.451 872.516 233.77L879.001 227.895C878.754 227.111 878.384 226.487 877.891 226.023C877.412 225.559 876.76 225.327 875.933 225.327C874.642 225.327 873.728 225.864 873.191 226.937C872.669 227.996 872.408 229.599 872.408 231.746ZM883.649 231.746C883.649 230.513 883.758 229.411 883.976 228.439C884.193 227.452 884.52 226.625 884.955 225.958C885.39 225.276 885.941 224.761 886.609 224.413C887.276 224.05 888.066 223.869 888.98 223.869C889.952 223.869 890.772 224.043 891.439 224.391C892.121 224.739 892.672 225.247 893.093 225.914C893.514 226.582 893.818 227.409 894.007 228.395C894.196 229.367 894.29 230.484 894.29 231.746C894.29 232.979 894.181 234.089 893.964 235.076C893.746 236.047 893.42 236.874 892.984 237.556C892.549 238.224 891.998 238.739 891.331 239.101C890.663 239.449 889.873 239.623 888.959 239.623C888.001 239.623 887.182 239.435 886.5 239.058C885.832 238.666 885.281 238.122 884.846 237.426C884.425 236.729 884.121 235.902 883.932 234.945C883.743 233.973 883.649 232.907 883.649 231.746ZM892.506 231.746C892.506 230.977 892.462 230.245 892.375 229.548L885.912 235.445C886.159 236.272 886.529 236.932 887.022 237.426C887.515 237.919 888.161 238.165 888.959 238.165C890.235 238.165 891.142 237.636 891.679 236.577C892.23 235.518 892.506 233.908 892.506 231.746ZM885.455 231.746C885.455 232.109 885.462 232.457 885.477 232.791C885.506 233.124 885.535 233.451 885.564 233.77L892.049 227.895C891.802 227.111 891.432 226.487 890.939 226.023C890.46 225.559 889.807 225.327 888.98 225.327C887.689 225.327 886.775 225.864 886.239 226.937C885.716 227.996 885.455 229.599 885.455 231.746ZM898.264 237.796H901.68V226.35L898.198 228.787L897.35 227.546L902.137 224.13H903.355V237.796H906.707V239.362H898.264V237.796ZM909.745 231.746C909.745 230.513 909.853 229.411 910.071 228.439C910.289 227.452 910.615 226.625 911.05 225.958C911.485 225.276 912.037 224.761 912.704 224.413C913.371 224.05 914.162 223.869 915.076 223.869C916.048 223.869 916.867 224.043 917.535 224.391C918.217 224.739 918.768 225.247 919.189 225.914C919.609 226.582 919.914 227.409 920.102 228.395C920.291 229.367 920.385 230.484 920.385 231.746C920.385 232.979 920.277 234.089 920.059 235.076C919.841 236.047 919.515 236.874 919.08 237.556C918.645 238.224 918.093 238.739 917.426 239.101C916.759 239.449 915.968 239.623 915.054 239.623C914.097 239.623 913.277 239.435 912.595 239.058C911.928 238.666 911.377 238.122 910.941 237.426C910.521 236.729 910.216 235.902 910.027 234.945C909.839 233.973 909.745 232.907 909.745 231.746ZM918.601 231.746C918.601 230.977 918.557 230.245 918.47 229.548L912.008 235.445C912.254 236.272 912.624 236.932 913.117 237.426C913.611 237.919 914.256 238.165 915.054 238.165C916.331 238.165 917.237 237.636 917.774 236.577C918.325 235.518 918.601 233.908 918.601 231.746ZM911.551 231.746C911.551 232.109 911.558 232.457 911.572 232.791C911.601 233.124 911.63 233.451 911.659 233.77L918.144 227.895C917.897 227.111 917.527 226.487 917.034 226.023C916.556 225.559 915.903 225.327 915.076 225.327C913.785 225.327 912.871 225.864 912.334 226.937C911.812 227.996 911.551 229.599 911.551 231.746ZM924.359 237.796H927.775V226.35L924.294 228.787L923.445 227.546L928.232 224.13H929.451V237.796H932.802V239.362H924.359V237.796ZM935.84 231.746C935.84 230.513 935.949 229.411 936.166 228.439C936.384 227.452 936.71 226.625 937.146 225.958C937.581 225.276 938.132 224.761 938.799 224.413C939.467 224.05 940.257 223.869 941.171 223.869C942.143 223.869 942.963 224.043 943.63 224.391C944.312 224.739 944.863 225.247 945.284 225.914C945.705 226.582 946.009 227.409 946.198 228.395C946.386 229.367 946.481 230.484 946.481 231.746C946.481 232.979 946.372 234.089 946.154 235.076C945.937 236.047 945.61 236.874 945.175 237.556C944.74 238.224 944.189 238.739 943.521 239.101C942.854 239.449 942.063 239.623 941.149 239.623C940.192 239.623 939.372 239.435 938.691 239.058C938.023 238.666 937.472 238.122 937.037 237.426C936.616 236.729 936.311 235.902 936.123 234.945C935.934 233.973 935.84 232.907 935.84 231.746ZM944.696 231.746C944.696 230.977 944.653 230.245 944.566 229.548L938.103 235.445C938.35 236.272 938.72 236.932 939.213 237.426C939.706 237.919 940.352 238.165 941.149 238.165C942.426 238.165 943.333 237.636 943.87 236.577C944.421 235.518 944.696 233.908 944.696 231.746ZM937.646 231.746C937.646 232.109 937.653 232.457 937.668 232.791C937.697 233.124 937.726 233.451 937.755 233.77L944.239 227.895C943.993 227.111 943.623 226.487 943.13 226.023C942.651 225.559 941.998 225.327 941.171 225.327C939.88 225.327 938.966 225.864 938.429 226.937C937.907 227.996 937.646 229.599 937.646 231.746Z" fill="black"/>
<rect x="807" y="210.362" width="177" height="45" stroke="#58A982"/>
<path d="M275.055 189.517V156.017H984V189.517" stroke="#696969"/>
<path d="M375.57 187.732H379.204V176.526L375.57 179.115V176.896L379.248 174.284H381.293V187.732H384.274V189.517H375.57V187.732ZM391.136 189.734C389.903 189.734 388.881 189.459 388.068 188.907C387.256 188.342 386.719 187.493 386.458 186.361H388.503C388.91 187.391 389.787 187.906 391.136 187.906C391.659 187.906 392.145 187.812 392.594 187.623C393.044 187.435 393.436 187.123 393.769 186.688C394.103 186.253 394.371 185.672 394.575 184.947C394.778 184.222 394.894 183.315 394.923 182.227C394.72 182.575 394.473 182.88 394.183 183.141C393.893 183.387 393.574 183.591 393.225 183.75C392.892 183.895 392.544 184.004 392.181 184.077C391.818 184.149 391.47 184.185 391.136 184.185C389.613 184.185 388.395 183.765 387.481 182.923C386.581 182.067 386.132 180.849 386.132 179.267V179.05C386.132 178.325 386.262 177.657 386.523 177.048C386.799 176.439 387.169 175.916 387.633 175.481C388.097 175.031 388.641 174.683 389.265 174.437C389.889 174.19 390.549 174.067 391.245 174.067C392.957 174.067 394.306 174.625 395.293 175.742C396.294 176.859 396.794 178.622 396.794 181.03V181.465C396.794 182.959 396.642 184.236 396.337 185.295C396.033 186.34 395.619 187.195 395.097 187.863C394.589 188.516 393.994 188.994 393.312 189.299C392.631 189.589 391.905 189.734 391.136 189.734ZM391.419 182.357C392.478 182.357 393.283 182.089 393.835 181.552C394.386 181.016 394.662 180.247 394.662 179.246V179.028C394.662 178.042 394.379 177.273 393.813 176.722C393.262 176.17 392.464 175.895 391.419 175.895C390.36 175.895 389.555 176.163 389.004 176.7C388.453 177.222 388.177 177.998 388.177 179.028V179.246C388.177 180.247 388.453 181.016 389.004 181.552C389.555 182.089 390.36 182.357 391.419 182.357ZM398.98 187.841L405.073 182.553C405.537 182.162 405.915 181.806 406.205 181.487C406.509 181.168 406.749 180.87 406.923 180.595C407.097 180.305 407.213 180.022 407.271 179.746C407.344 179.471 407.38 179.173 407.38 178.854C407.38 177.998 407.126 177.295 406.618 176.743C406.11 176.178 405.414 175.895 404.529 175.895C403.47 175.895 402.658 176.185 402.092 176.765C401.526 177.331 401.243 178.136 401.243 179.18H399.198C399.198 178.441 399.321 177.759 399.568 177.135C399.829 176.497 400.192 175.953 400.656 175.503C401.135 175.053 401.7 174.705 402.353 174.458C403.006 174.197 403.731 174.067 404.529 174.067C405.298 174.067 405.987 174.19 406.596 174.437C407.206 174.669 407.721 175.002 408.141 175.438C408.562 175.858 408.881 176.359 409.099 176.939C409.317 177.519 409.425 178.158 409.425 178.854C409.425 179.376 409.346 179.862 409.186 180.312C409.026 180.762 408.802 181.19 408.511 181.596C408.236 182.002 407.895 182.401 407.489 182.793C407.097 183.17 406.662 183.562 406.183 183.968L401.635 187.732H409.643V189.517H398.98V187.841ZM457.517 189.734C457.097 189.734 456.734 189.589 456.429 189.299C456.139 188.994 455.994 188.632 455.994 188.211C455.994 187.776 456.139 187.413 456.429 187.123C456.734 186.833 457.097 186.688 457.517 186.688C457.938 186.688 458.294 186.833 458.584 187.123C458.888 187.413 459.041 187.776 459.041 188.211C459.041 188.632 458.888 188.994 458.584 189.299C458.294 189.589 457.938 189.734 457.517 189.734ZM505.495 187.732H509.129V176.526L505.495 179.115V176.896L509.172 174.284H511.218V187.732H514.199V189.517H505.495V187.732ZM521.714 189.734C520.872 189.734 520.111 189.596 519.429 189.321C518.747 189.045 518.16 188.624 517.666 188.059C517.188 187.478 516.818 186.753 516.557 185.883C516.295 185.012 516.165 183.975 516.165 182.771V182.336C516.165 180.841 516.317 179.572 516.622 178.528C516.927 177.469 517.34 176.613 517.862 175.96C518.384 175.293 518.994 174.814 519.69 174.524C520.386 174.219 521.134 174.067 521.931 174.067C523.106 174.067 524.093 174.35 524.891 174.915C525.703 175.467 526.24 176.308 526.501 177.44H524.456C524.049 176.41 523.208 175.895 521.931 175.895C521.38 175.895 520.872 175.989 520.408 176.178C519.944 176.366 519.538 176.678 519.19 177.113C518.856 177.548 518.588 178.129 518.384 178.854C518.181 179.579 518.065 180.486 518.036 181.574C518.239 181.226 518.486 180.929 518.776 180.682C519.066 180.421 519.378 180.218 519.712 180.073C520.06 179.913 520.415 179.797 520.778 179.724C521.141 179.652 521.489 179.616 521.823 179.616C523.346 179.616 524.557 180.044 525.457 180.9C526.371 181.741 526.828 182.952 526.828 184.533V184.751C526.828 185.476 526.69 186.144 526.414 186.753C526.153 187.362 525.79 187.892 525.326 188.342C524.862 188.777 524.318 189.118 523.694 189.364C523.07 189.611 522.41 189.734 521.714 189.734ZM521.54 187.906C522.599 187.906 523.404 187.638 523.955 187.101C524.506 186.564 524.782 185.788 524.782 184.773V184.555C524.782 183.554 524.506 182.785 523.955 182.249C523.404 181.712 522.599 181.444 521.54 181.444C520.481 181.444 519.676 181.712 519.124 182.249C518.573 182.785 518.297 183.554 518.297 184.555V184.773C518.297 185.774 518.573 186.55 519.124 187.101C519.676 187.638 520.481 187.906 521.54 187.906ZM534.671 189.734C533.772 189.734 532.981 189.625 532.3 189.408C531.618 189.19 531.045 188.893 530.58 188.516C530.131 188.138 529.79 187.696 529.558 187.188C529.34 186.666 529.231 186.1 529.231 185.491C529.231 184.621 529.507 183.844 530.058 183.163C530.61 182.466 531.422 181.973 532.495 181.683C532.104 181.552 531.734 181.378 531.386 181.161C531.052 180.929 530.755 180.66 530.493 180.355C530.232 180.051 530.029 179.71 529.884 179.333C529.739 178.941 529.667 178.528 529.667 178.092C529.667 177.527 529.775 176.997 529.993 176.504C530.211 176.011 530.53 175.59 530.95 175.242C531.371 174.879 531.893 174.596 532.517 174.393C533.141 174.176 533.859 174.067 534.671 174.067C535.484 174.067 536.202 174.176 536.826 174.393C537.45 174.596 537.972 174.879 538.392 175.242C538.813 175.59 539.132 176.011 539.35 176.504C539.568 176.997 539.676 177.527 539.676 178.092C539.676 178.963 539.401 179.703 538.849 180.312C538.313 180.921 537.645 181.378 536.847 181.683C537.935 182.046 538.748 182.524 539.285 183.119C539.836 183.714 540.112 184.504 540.112 185.491C540.112 186.1 539.995 186.666 539.763 187.188C539.546 187.696 539.205 188.138 538.741 188.516C538.291 188.893 537.725 189.19 537.043 189.408C536.361 189.625 535.571 189.734 534.671 189.734ZM534.671 187.906C535.295 187.906 535.825 187.841 536.26 187.71C536.695 187.565 537.043 187.384 537.304 187.166C537.58 186.934 537.776 186.666 537.892 186.361C538.008 186.042 538.066 185.709 538.066 185.36C538.066 184.954 537.979 184.584 537.805 184.251C537.645 183.917 537.413 183.627 537.109 183.38C536.804 183.119 536.441 182.916 536.021 182.771C535.614 182.611 535.165 182.503 534.671 182.444C534.178 182.503 533.721 182.611 533.301 182.771C532.894 182.916 532.539 183.112 532.234 183.358C531.93 183.605 531.69 183.902 531.516 184.251C531.357 184.584 531.277 184.954 531.277 185.36C531.277 185.709 531.335 186.042 531.451 186.361C531.567 186.666 531.756 186.934 532.017 187.166C532.292 187.384 532.648 187.565 533.083 187.71C533.518 187.841 534.048 187.906 534.671 187.906ZM534.671 180.921C535.542 180.805 536.253 180.53 536.804 180.094C537.355 179.645 537.631 179.014 537.631 178.201C537.631 177.461 537.384 176.896 536.891 176.504C536.412 176.098 535.672 175.895 534.671 175.895C533.656 175.895 532.909 176.098 532.43 176.504C531.951 176.896 531.712 177.461 531.712 178.201C531.712 179.014 531.988 179.645 532.539 180.094C533.09 180.53 533.801 180.805 534.671 180.921ZM588.101 189.734C587.68 189.734 587.317 189.589 587.013 189.299C586.723 188.994 586.578 188.632 586.578 188.211C586.578 187.776 586.723 187.413 587.013 187.123C587.317 186.833 587.68 186.688 588.101 186.688C588.521 186.688 588.877 186.833 589.167 187.123C589.472 187.413 589.624 187.776 589.624 188.211C589.624 188.632 589.472 188.994 589.167 189.299C588.877 189.589 588.521 189.734 588.101 189.734ZM636.078 187.732H639.712V176.526L636.078 179.115V176.896L639.756 174.284H641.801V187.732H644.782V189.517H636.078V187.732ZM652.188 189.734C651.449 189.734 650.745 189.611 650.078 189.364C649.425 189.118 648.852 188.697 648.359 188.102C647.865 187.493 647.474 186.688 647.184 185.687C646.893 184.671 646.748 183.409 646.748 181.9V181.465C646.748 180.058 646.893 178.883 647.184 177.94C647.474 176.997 647.865 176.243 648.359 175.677C648.852 175.097 649.425 174.683 650.078 174.437C650.745 174.19 651.449 174.067 652.188 174.067C652.928 174.067 653.625 174.19 654.277 174.437C654.945 174.683 655.525 175.097 656.018 175.677C656.511 176.243 656.903 176.997 657.193 177.94C657.483 178.883 657.628 180.058 657.628 181.465V181.9C657.628 183.409 657.483 184.671 657.193 185.687C656.903 186.688 656.511 187.493 656.018 188.102C655.525 188.697 654.945 189.118 654.277 189.364C653.625 189.611 652.928 189.734 652.188 189.734ZM652.188 187.95C652.638 187.95 653.066 187.87 653.472 187.71C653.893 187.536 654.256 187.232 654.56 186.797C654.879 186.347 655.126 185.73 655.3 184.947C655.489 184.164 655.583 183.148 655.583 181.9V181.465C655.583 180.334 655.489 179.405 655.3 178.68C655.126 177.955 654.879 177.382 654.56 176.961C654.256 176.54 653.893 176.25 653.472 176.09C653.066 175.931 652.638 175.851 652.188 175.851C651.724 175.851 651.289 175.931 650.883 176.09C650.477 176.25 650.114 176.54 649.795 176.961C649.49 177.382 649.243 177.955 649.055 178.68C648.881 179.405 648.794 180.334 648.794 181.465V181.9C648.794 183.148 648.881 184.164 649.055 184.947C649.243 185.73 649.49 186.347 649.795 186.797C650.114 187.232 650.477 187.536 650.883 187.71C651.289 187.87 651.724 187.95 652.188 187.95ZM705.721 189.734C705.301 189.734 704.938 189.589 704.633 189.299C704.343 188.994 704.198 188.632 704.198 188.211C704.198 187.776 704.343 187.413 704.633 187.123C704.938 186.833 705.301 186.688 705.721 186.688C706.142 186.688 706.498 186.833 706.788 187.123C707.092 187.413 707.245 187.776 707.245 188.211C707.245 188.632 707.092 188.994 706.788 189.299C706.498 189.589 706.142 189.734 705.721 189.734Z" fill="black"/>
<path d="M884.544 187.732H888.178V176.526L884.544 179.115V176.896L888.222 174.284H890.267V187.732H893.248V189.517H884.544V187.732ZM900.654 189.734C899.915 189.734 899.211 189.611 898.544 189.364C897.891 189.118 897.318 188.697 896.825 188.102C896.331 187.493 895.94 186.688 895.65 185.687C895.359 184.671 895.214 183.409 895.214 181.9V181.465C895.214 180.058 895.359 178.883 895.65 177.94C895.94 176.997 896.331 176.243 896.825 175.677C897.318 175.097 897.891 174.683 898.544 174.437C899.211 174.19 899.915 174.067 900.654 174.067C901.394 174.067 902.091 174.19 902.743 174.437C903.411 174.683 903.991 175.097 904.484 175.677C904.977 176.243 905.369 176.997 905.659 177.94C905.949 178.883 906.095 180.058 906.095 181.465V181.9C906.095 183.409 905.949 184.671 905.659 185.687C905.369 186.688 904.977 187.493 904.484 188.102C903.991 188.697 903.411 189.118 902.743 189.364C902.091 189.611 901.394 189.734 900.654 189.734ZM900.654 187.95C901.104 187.95 901.532 187.87 901.938 187.71C902.359 187.536 902.722 187.232 903.026 186.797C903.345 186.347 903.592 185.73 903.766 184.947C903.955 184.164 904.049 183.148 904.049 181.9V181.465C904.049 180.334 903.955 179.405 903.766 178.68C903.592 177.955 903.345 177.382 903.026 176.961C902.722 176.54 902.359 176.25 901.938 176.09C901.532 175.931 901.104 175.851 900.654 175.851C900.19 175.851 899.755 175.931 899.349 176.09C898.943 176.25 898.58 176.54 898.261 176.961C897.956 177.382 897.71 177.955 897.521 178.68C897.347 179.405 897.26 180.334 897.26 181.465V181.9C897.26 183.148 897.347 184.164 897.521 184.947C897.71 185.73 897.956 186.347 898.261 186.797C898.58 187.232 898.943 187.536 899.349 187.71C899.755 187.87 900.19 187.95 900.654 187.95Z" fill="black"/>
<path d="M822.963 135.432C822.804 135.432 822.644 135.425 822.485 135.41C822.34 135.396 822.209 135.381 822.093 135.367V132.777C822.209 132.792 822.34 132.806 822.485 132.821C822.644 132.821 822.804 132.821 822.963 132.821C823.283 132.821 823.536 132.792 823.725 132.734C823.928 132.676 824.095 132.589 824.225 132.473C824.356 132.342 824.472 132.182 824.574 131.994C824.675 131.791 824.791 131.551 824.922 131.276L818.72 119.939H822.245L826.51 128.099L829.905 119.939H833.3L828.142 131.689C827.838 132.371 827.526 132.951 827.207 133.43C826.902 133.894 826.554 134.279 826.162 134.583C825.77 134.874 825.313 135.084 824.791 135.214C824.284 135.359 823.674 135.432 822.963 135.432ZM838.318 135.432C836.65 135.432 835.38 135.091 834.51 134.409C833.64 133.727 833.168 132.748 833.096 131.472H836.011C836.04 131.718 836.098 131.936 836.186 132.124C836.273 132.313 836.403 132.473 836.577 132.603C836.751 132.734 836.976 132.835 837.252 132.908C837.542 132.966 837.897 132.995 838.318 132.995C839.159 132.995 839.754 132.872 840.102 132.625C840.451 132.364 840.625 132.052 840.625 131.689C840.625 131.254 840.48 130.928 840.189 130.71C839.899 130.492 839.384 130.384 838.644 130.384H836.904V128.251H838.492C839.043 128.251 839.464 128.135 839.754 127.903C840.044 127.671 840.189 127.366 840.189 126.989C840.189 126.655 840.044 126.38 839.754 126.162C839.479 125.93 839 125.814 838.318 125.814C837.607 125.814 837.092 125.937 836.773 126.184C836.468 126.416 836.287 126.764 836.229 127.228H833.313C833.386 125.981 833.843 125.031 834.684 124.378C835.525 123.71 836.737 123.377 838.318 123.377C839.159 123.377 839.878 123.457 840.472 123.616C841.082 123.776 841.582 124.008 841.974 124.312C842.365 124.603 842.648 124.958 842.822 125.379C843.011 125.785 843.105 126.242 843.105 126.75C843.105 127.301 842.96 127.794 842.67 128.229C842.394 128.665 841.952 128.984 841.343 129.187C842.17 129.39 842.743 129.724 843.062 130.188C843.381 130.637 843.541 131.174 843.541 131.798C843.541 132.32 843.432 132.806 843.214 133.256C843.011 133.691 842.692 134.076 842.257 134.409C841.836 134.728 841.299 134.982 840.646 135.171C839.994 135.345 839.217 135.432 838.318 135.432ZM845.715 135.432C845.599 135.432 845.454 135.425 845.28 135.41C845.106 135.41 844.96 135.396 844.844 135.367V132.777C844.917 132.792 845.026 132.799 845.171 132.799C845.446 132.799 845.686 132.719 845.889 132.56C846.092 132.386 846.259 132.095 846.389 131.689C846.534 131.283 846.636 130.746 846.694 130.079C846.767 129.397 846.803 128.556 846.803 127.555V123.638H855.942V135.171H853.07V126.032H849.458V127.99C849.458 129.484 849.378 130.717 849.218 131.689C849.073 132.647 848.841 133.401 848.522 133.952C848.217 134.504 847.826 134.888 847.347 135.106C846.883 135.323 846.339 135.432 845.715 135.432ZM863.77 135.432C862.987 135.432 862.24 135.316 861.529 135.084C860.832 134.837 860.223 134.467 859.701 133.974C859.179 133.481 858.765 132.864 858.46 132.124C858.156 131.385 858.003 130.514 858.003 129.513V129.078C858.003 128.135 858.156 127.308 858.46 126.597C858.765 125.886 859.179 125.292 859.701 124.813C860.223 124.334 860.832 123.979 861.529 123.747C862.24 123.5 862.987 123.377 863.77 123.377C864.553 123.377 865.293 123.5 865.99 123.747C866.686 123.979 867.295 124.334 867.817 124.813C868.354 125.292 868.775 125.886 869.08 126.597C869.384 127.308 869.536 128.135 869.536 129.078V129.513C869.536 130.5 869.384 131.363 869.08 132.103C868.775 132.843 868.354 133.459 867.817 133.952C867.295 134.446 866.686 134.815 865.99 135.062C865.293 135.309 864.553 135.432 863.77 135.432ZM863.77 132.995C864.582 132.995 865.257 132.705 865.794 132.124C866.345 131.544 866.621 130.674 866.621 129.513V129.078C866.621 128.019 866.345 127.214 865.794 126.663C865.257 126.097 864.582 125.814 863.77 125.814C862.943 125.814 862.261 126.097 861.725 126.663C861.188 127.214 860.919 128.019 860.919 129.078V129.513C860.919 130.688 861.188 131.566 861.725 132.146C862.261 132.712 862.943 132.995 863.77 132.995ZM871.595 123.638H877.383C878.123 123.638 878.754 123.718 879.277 123.877C879.813 124.022 880.256 124.233 880.604 124.508C880.952 124.784 881.206 125.11 881.366 125.488C881.525 125.865 881.605 126.278 881.605 126.728C881.605 127.265 881.438 127.772 881.104 128.251C880.785 128.715 880.343 129.027 879.777 129.187C880.488 129.361 881.039 129.695 881.431 130.188C881.837 130.667 882.04 131.232 882.04 131.885C882.04 132.886 881.692 133.684 880.996 134.279C880.299 134.874 879.24 135.171 877.819 135.171H871.595V123.638ZM877.253 132.864C877.906 132.864 878.384 132.77 878.689 132.581C879.008 132.378 879.168 132.059 879.168 131.624C879.168 131.189 879.015 130.877 878.711 130.688C878.421 130.485 877.935 130.384 877.253 130.384H874.468V132.864H877.253ZM876.97 128.251C877.637 128.251 878.094 128.157 878.341 127.968C878.602 127.78 878.733 127.489 878.733 127.098C878.733 126.721 878.602 126.438 878.341 126.249C878.08 126.046 877.623 125.945 876.97 125.945H874.468V128.251H876.97ZM887.572 135.432C886.948 135.432 886.396 135.345 885.918 135.171C885.439 134.982 885.033 134.728 884.699 134.409C884.366 134.076 884.112 133.691 883.938 133.256C883.763 132.806 883.676 132.32 883.676 131.798C883.676 129.477 885.055 128.316 887.811 128.316H891.249V127.772C891.249 127.018 891.075 126.489 890.727 126.184C890.393 125.879 889.856 125.727 889.117 125.727C888.464 125.727 887.992 125.843 887.702 126.075C887.412 126.293 887.245 126.568 887.202 126.902H884.329C884.358 126.409 884.482 125.945 884.699 125.509C884.931 125.074 885.25 124.704 885.657 124.4C886.077 124.08 886.585 123.834 887.18 123.66C887.775 123.471 888.456 123.377 889.225 123.377C889.965 123.377 890.633 123.457 891.227 123.616C891.837 123.776 892.352 124.037 892.772 124.4C893.207 124.748 893.541 125.205 893.773 125.77C894.005 126.336 894.121 127.018 894.121 127.816V132.233C894.121 132.843 894.129 133.379 894.143 133.844C894.172 134.293 894.216 134.736 894.274 135.171H891.597C891.539 134.852 891.503 134.612 891.488 134.453C891.488 134.279 891.488 134.025 891.488 133.691C891.169 134.155 890.683 134.562 890.03 134.91C889.392 135.258 888.573 135.432 887.572 135.432ZM888.464 133.212C888.812 133.212 889.153 133.169 889.486 133.082C889.82 132.98 890.118 132.835 890.379 132.647C890.64 132.444 890.85 132.19 891.01 131.885C891.169 131.58 891.249 131.225 891.249 130.819V130.275H888.355C887.804 130.275 887.368 130.405 887.049 130.667C886.745 130.913 886.592 131.254 886.592 131.689C886.592 132.153 886.752 132.523 887.071 132.799C887.39 133.075 887.854 133.212 888.464 133.212ZM898.956 130.841C898.072 130.55 897.426 130.115 897.02 129.535C896.614 128.955 896.411 128.273 896.411 127.489C896.411 126.924 896.505 126.409 896.693 125.945C896.896 125.466 897.194 125.06 897.586 124.726C897.977 124.378 898.47 124.109 899.065 123.921C899.675 123.732 900.385 123.638 901.198 123.638H906.638V135.171H903.766V131.189H901.698L899.196 135.171H895.975L898.956 130.841ZM899.283 127.489C899.283 127.983 899.442 128.345 899.762 128.578C900.095 128.81 900.538 128.926 901.089 128.926H903.766V126.032H901.089C900.538 126.032 900.095 126.155 899.762 126.401C899.442 126.634 899.283 126.996 899.283 127.489ZM921.502 130.928C921.168 131.131 920.769 131.312 920.305 131.472C919.841 131.631 919.275 131.711 918.608 131.711C917.201 131.711 916.142 131.377 915.431 130.71C914.72 130.043 914.365 128.991 914.365 127.555V123.638H917.237V127.228C917.237 127.983 917.396 128.512 917.716 128.817C918.035 129.122 918.586 129.274 919.369 129.274C919.921 129.274 920.37 129.209 920.719 129.078C921.081 128.947 921.342 128.824 921.502 128.708V123.638H924.374V135.171H921.502V130.928ZM930.455 135.432C929.831 135.432 929.28 135.345 928.801 135.171C928.322 134.982 927.916 134.728 927.582 134.409C927.249 134.076 926.995 133.691 926.821 133.256C926.647 132.806 926.56 132.32 926.56 131.798C926.56 129.477 927.938 128.316 930.694 128.316H934.132V127.772C934.132 127.018 933.958 126.489 933.61 126.184C933.276 125.879 932.74 125.727 932 125.727C931.347 125.727 930.875 125.843 930.585 126.075C930.295 126.293 930.128 126.568 930.085 126.902H927.212C927.241 126.409 927.365 125.945 927.582 125.509C927.814 125.074 928.134 124.704 928.54 124.4C928.961 124.08 929.468 123.834 930.063 123.66C930.658 123.471 931.34 123.377 932.109 123.377C932.848 123.377 933.516 123.457 934.11 123.616C934.72 123.776 935.235 124.037 935.655 124.4C936.091 124.748 936.424 125.205 936.656 125.77C936.889 126.336 937.005 127.018 937.005 127.816V132.233C937.005 132.843 937.012 133.379 937.026 133.844C937.055 134.293 937.099 134.736 937.157 135.171H934.48C934.422 134.852 934.386 134.612 934.372 134.453C934.372 134.279 934.372 134.025 934.372 133.691C934.052 134.155 933.566 134.562 932.914 134.91C932.275 135.258 931.456 135.432 930.455 135.432ZM931.347 133.212C931.695 133.212 932.036 133.169 932.37 133.082C932.703 132.98 933.001 132.835 933.262 132.647C933.523 132.444 933.733 132.19 933.893 131.885C934.052 131.58 934.132 131.225 934.132 130.819V130.275H931.238C930.687 130.275 930.252 130.405 929.933 130.667C929.628 130.913 929.476 131.254 929.476 131.689C929.476 132.153 929.635 132.523 929.954 132.799C930.273 133.075 930.738 133.212 931.347 133.212ZM944.625 135.432C943.827 135.432 943.08 135.309 942.384 135.062C941.702 134.815 941.107 134.446 940.599 133.952C940.092 133.459 939.693 132.843 939.403 132.103C939.112 131.363 938.967 130.5 938.967 129.513V129.078C938.967 128.15 939.12 127.33 939.424 126.619C939.729 125.908 940.135 125.313 940.643 124.835C941.165 124.356 941.767 123.993 942.449 123.747C943.131 123.5 943.856 123.377 944.625 123.377C945.437 123.377 946.155 123.486 946.779 123.703C947.418 123.921 947.954 124.218 948.39 124.595C948.825 124.973 949.166 125.415 949.412 125.923C949.659 126.43 949.804 126.974 949.847 127.555H946.932C946.816 127.018 946.576 126.597 946.213 126.293C945.865 125.974 945.336 125.814 944.625 125.814C944.248 125.814 943.892 125.879 943.559 126.01C943.24 126.14 942.949 126.343 942.688 126.619C942.442 126.88 942.246 127.214 942.101 127.62C941.956 128.026 941.883 128.512 941.883 129.078V129.513C941.883 130.122 941.948 130.652 942.079 131.102C942.224 131.537 942.42 131.9 942.667 132.19C942.913 132.465 943.203 132.668 943.537 132.799C943.871 132.93 944.233 132.995 944.625 132.995C945.191 132.995 945.677 132.85 946.083 132.56C946.504 132.255 946.787 131.82 946.932 131.254H949.847C949.775 131.892 949.594 132.473 949.303 132.995C949.028 133.503 948.658 133.938 948.194 134.3C947.744 134.663 947.214 134.946 946.605 135.149C945.996 135.338 945.336 135.432 944.625 135.432ZM954.622 126.032H950.945V123.638H961.172V126.032H957.495V135.171H954.622V126.032ZM962.908 123.638H965.78V127.511H968.239C971.213 127.511 972.7 128.788 972.7 131.341C972.7 131.907 972.613 132.429 972.439 132.908C972.279 133.372 972.018 133.771 971.656 134.105C971.293 134.438 970.829 134.699 970.263 134.888C969.697 135.077 969.023 135.171 968.239 135.171H962.908V123.638ZM967.913 132.864C968.609 132.864 969.102 132.741 969.393 132.494C969.683 132.233 969.828 131.849 969.828 131.341C969.828 130.833 969.675 130.456 969.371 130.21C969.081 129.948 968.595 129.818 967.913 129.818H965.78V132.864H967.913Z" fill="black"/>
<path d="M484.889 135.432C483.888 135.432 482.967 135.287 482.125 134.997C481.298 134.707 480.58 134.257 479.971 133.648C479.362 133.024 478.883 132.219 478.535 131.232C478.201 130.246 478.034 129.056 478.034 127.664V127.228C478.034 125.894 478.208 124.755 478.557 123.812C478.919 122.855 479.405 122.071 480.014 121.462C480.638 120.853 481.364 120.403 482.191 120.113C483.032 119.823 483.931 119.678 484.889 119.678C485.745 119.678 486.55 119.779 487.304 119.982C488.059 120.185 488.719 120.504 489.284 120.94C489.865 121.36 490.329 121.904 490.677 122.572C491.04 123.239 491.25 124.03 491.308 124.944H487.913C487.754 124.073 487.406 123.435 486.869 123.029C486.332 122.622 485.672 122.419 484.889 122.419C484.439 122.419 484.004 122.499 483.583 122.659C483.177 122.818 482.814 123.087 482.495 123.464C482.176 123.841 481.915 124.334 481.712 124.944C481.523 125.553 481.429 126.314 481.429 127.228V127.664C481.429 128.621 481.53 129.426 481.734 130.079C481.937 130.717 482.198 131.232 482.517 131.624C482.851 132.001 483.221 132.277 483.627 132.451C484.047 132.61 484.468 132.69 484.889 132.69C485.716 132.69 486.398 132.48 486.934 132.059C487.471 131.624 487.797 130.993 487.913 130.166H491.308C491.236 131.123 491.025 131.936 490.677 132.603C490.329 133.27 489.872 133.815 489.306 134.235C488.74 134.656 488.08 134.961 487.326 135.149C486.572 135.338 485.759 135.432 484.889 135.432ZM498.711 135.432C497.927 135.432 497.18 135.316 496.47 135.084C495.773 134.837 495.164 134.475 494.642 133.996C494.119 133.503 493.706 132.886 493.401 132.146C493.097 131.392 492.944 130.514 492.944 129.513V129.078C492.944 128.121 493.089 127.286 493.38 126.576C493.67 125.865 494.069 125.277 494.576 124.813C495.084 124.334 495.672 123.979 496.339 123.747C497.006 123.5 497.724 123.377 498.493 123.377C500.307 123.377 501.685 123.856 502.628 124.813C503.571 125.77 504.042 127.156 504.042 128.969V130.188H495.882C495.897 130.696 495.984 131.138 496.143 131.515C496.303 131.878 496.513 132.175 496.774 132.407C497.035 132.639 497.333 132.814 497.666 132.93C498.015 133.031 498.363 133.082 498.711 133.082C499.451 133.082 500.009 132.973 500.386 132.755C500.764 132.538 501.032 132.219 501.192 131.798H503.825C503.592 133.002 503.019 133.909 502.105 134.518C501.192 135.127 500.06 135.432 498.711 135.432ZM498.602 125.727C498.268 125.727 497.935 125.77 497.601 125.857C497.282 125.945 496.999 126.082 496.752 126.271C496.506 126.46 496.303 126.713 496.143 127.033C495.984 127.352 495.897 127.736 495.882 128.186H501.257C501.242 127.707 501.163 127.308 501.017 126.989C500.887 126.67 500.698 126.416 500.452 126.227C500.22 126.039 499.944 125.908 499.625 125.836C499.306 125.763 498.965 125.727 498.602 125.727ZM508.706 126.032H505.028V123.638H515.256V126.032H511.578V135.171H508.706V126.032ZM522.001 135.432C521.218 135.432 520.471 135.316 519.76 135.084C519.064 134.837 518.454 134.475 517.932 133.996C517.41 133.503 516.996 132.886 516.692 132.146C516.387 131.392 516.235 130.514 516.235 129.513V129.078C516.235 128.121 516.38 127.286 516.67 126.576C516.96 125.865 517.359 125.277 517.867 124.813C518.375 124.334 518.962 123.979 519.629 123.747C520.297 123.5 521.015 123.377 521.784 123.377C523.597 123.377 524.975 123.856 525.918 124.813C526.861 125.77 527.333 127.156 527.333 128.969V130.188H519.172C519.187 130.696 519.274 131.138 519.434 131.515C519.593 131.878 519.803 132.175 520.065 132.407C520.326 132.639 520.623 132.814 520.957 132.93C521.305 133.031 521.653 133.082 522.001 133.082C522.741 133.082 523.3 132.973 523.677 132.755C524.054 132.538 524.322 132.219 524.482 131.798H527.115C526.883 133.002 526.31 133.909 525.396 134.518C524.482 135.127 523.35 135.432 522.001 135.432ZM521.892 125.727C521.559 125.727 521.225 125.77 520.891 125.857C520.572 125.945 520.289 126.082 520.043 126.271C519.796 126.46 519.593 126.713 519.434 127.033C519.274 127.352 519.187 127.736 519.172 128.186H524.547C524.533 127.707 524.453 127.308 524.308 126.989C524.177 126.67 523.989 126.416 523.742 126.227C523.51 126.039 523.234 125.908 522.915 125.836C522.596 125.763 522.255 125.727 521.892 125.727ZM529.401 123.638H535.19C535.93 123.638 536.561 123.718 537.083 123.877C537.62 124.022 538.062 124.233 538.41 124.508C538.758 124.784 539.012 125.11 539.172 125.488C539.331 125.865 539.411 126.278 539.411 126.728C539.411 127.265 539.244 127.772 538.911 128.251C538.592 128.715 538.149 129.027 537.583 129.187C538.294 129.361 538.845 129.695 539.237 130.188C539.643 130.667 539.846 131.232 539.846 131.885C539.846 132.886 539.498 133.684 538.802 134.279C538.106 134.874 537.047 135.171 535.625 135.171H529.401V123.638ZM535.059 132.864C535.712 132.864 536.191 132.77 536.495 132.581C536.814 132.378 536.974 132.059 536.974 131.624C536.974 131.189 536.822 130.877 536.517 130.688C536.227 130.485 535.741 130.384 535.059 130.384H532.274V132.864H535.059ZM534.776 128.251C535.444 128.251 535.901 128.157 536.147 127.968C536.408 127.78 536.539 127.489 536.539 127.098C536.539 126.721 536.408 126.438 536.147 126.249C535.886 126.046 535.429 125.945 534.776 125.945H532.274V128.251H534.776ZM545.378 135.432C544.754 135.432 544.203 135.345 543.724 135.171C543.245 134.982 542.839 134.728 542.505 134.409C542.172 134.076 541.918 133.691 541.744 133.256C541.57 132.806 541.483 132.32 541.483 131.798C541.483 129.477 542.861 128.316 545.617 128.316H549.055V127.772C549.055 127.018 548.881 126.489 548.533 126.184C548.199 125.879 547.663 125.727 546.923 125.727C546.27 125.727 545.799 125.843 545.508 126.075C545.218 126.293 545.051 126.568 545.008 126.902H542.136C542.165 126.409 542.288 125.945 542.505 125.509C542.738 125.074 543.057 124.704 543.463 124.4C543.884 124.08 544.391 123.834 544.986 123.66C545.581 123.471 546.263 123.377 547.032 123.377C547.771 123.377 548.439 123.457 549.034 123.616C549.643 123.776 550.158 124.037 550.579 124.4C551.014 124.748 551.347 125.205 551.58 125.77C551.812 126.336 551.928 127.018 551.928 127.816V132.233C551.928 132.843 551.935 133.379 551.949 133.844C551.978 134.293 552.022 134.736 552.08 135.171H549.403C549.345 134.852 549.309 134.612 549.295 134.453C549.295 134.279 549.295 134.025 549.295 133.691C548.976 134.155 548.49 134.562 547.837 134.91C547.198 135.258 546.379 135.432 545.378 135.432ZM546.27 133.212C546.618 133.212 546.959 133.169 547.293 133.082C547.626 132.98 547.924 132.835 548.185 132.647C548.446 132.444 548.656 132.19 548.816 131.885C548.976 131.58 549.055 131.225 549.055 130.819V130.275H546.161C545.61 130.275 545.175 130.405 544.856 130.667C544.551 130.913 544.399 131.254 544.399 131.689C544.399 132.153 544.558 132.523 544.877 132.799C545.196 133.075 545.661 133.212 546.27 133.212ZM556.763 130.841C555.878 130.55 555.232 130.115 554.826 129.535C554.42 128.955 554.217 128.273 554.217 127.489C554.217 126.924 554.311 126.409 554.5 125.945C554.703 125.466 555 125.06 555.392 124.726C555.784 124.378 556.277 124.109 556.872 123.921C557.481 123.732 558.192 123.638 559.004 123.638H564.444V135.171H561.572V131.189H559.505L557.002 135.171H553.782L556.763 130.841ZM557.089 127.489C557.089 127.983 557.249 128.345 557.568 128.578C557.902 128.81 558.344 128.926 558.895 128.926H561.572V126.032H558.895C558.344 126.032 557.902 126.155 557.568 126.401C557.249 126.634 557.089 126.996 557.089 127.489ZM579.308 130.928C578.974 131.131 578.576 131.312 578.111 131.472C577.647 131.631 577.081 131.711 576.414 131.711C575.007 131.711 573.948 131.377 573.237 130.71C572.526 130.043 572.171 128.991 572.171 127.555V123.638H575.043V127.228C575.043 127.983 575.203 128.512 575.522 128.817C575.841 129.122 576.392 129.274 577.176 129.274C577.727 129.274 578.177 129.209 578.525 129.078C578.887 128.947 579.149 128.824 579.308 128.708V123.638H582.181V135.171H579.308V130.928ZM588.261 135.432C587.637 135.432 587.086 135.345 586.607 135.171C586.128 134.982 585.722 134.728 585.389 134.409C585.055 134.076 584.801 133.691 584.627 133.256C584.453 132.806 584.366 132.32 584.366 131.798C584.366 129.477 585.744 128.316 588.5 128.316H591.938V127.772C591.938 127.018 591.764 126.489 591.416 126.184C591.083 125.879 590.546 125.727 589.806 125.727C589.153 125.727 588.682 125.843 588.392 126.075C588.101 126.293 587.935 126.568 587.891 126.902H585.019C585.048 126.409 585.171 125.945 585.389 125.509C585.621 125.074 585.94 124.704 586.346 124.4C586.767 124.08 587.275 123.834 587.869 123.66C588.464 123.471 589.146 123.377 589.915 123.377C590.655 123.377 591.322 123.457 591.917 123.616C592.526 123.776 593.041 124.037 593.462 124.4C593.897 124.748 594.231 125.205 594.463 125.77C594.695 126.336 594.811 127.018 594.811 127.816V132.233C594.811 132.843 594.818 133.379 594.833 133.844C594.862 134.293 594.905 134.736 594.963 135.171H592.287C592.229 134.852 592.192 134.612 592.178 134.453C592.178 134.279 592.178 134.025 592.178 133.691C591.859 134.155 591.373 134.562 590.72 134.91C590.082 135.258 589.262 135.432 588.261 135.432ZM589.153 133.212C589.501 133.212 589.842 133.169 590.176 133.082C590.51 132.98 590.807 132.835 591.068 132.647C591.329 132.444 591.54 132.19 591.699 131.885C591.859 131.58 591.938 131.225 591.938 130.819V130.275H589.044C588.493 130.275 588.058 130.405 587.739 130.667C587.434 130.913 587.282 131.254 587.282 131.689C587.282 132.153 587.441 132.523 587.761 132.799C588.08 133.075 588.544 133.212 589.153 133.212ZM602.431 135.432C601.633 135.432 600.886 135.309 600.19 135.062C599.508 134.815 598.913 134.446 598.406 133.952C597.898 133.459 597.499 132.843 597.209 132.103C596.919 131.363 596.774 130.5 596.774 129.513V129.078C596.774 128.15 596.926 127.33 597.231 126.619C597.535 125.908 597.941 125.313 598.449 124.835C598.971 124.356 599.573 123.993 600.255 123.747C600.937 123.5 601.662 123.377 602.431 123.377C603.244 123.377 603.962 123.486 604.586 123.703C605.224 123.921 605.761 124.218 606.196 124.595C606.631 124.973 606.972 125.415 607.219 125.923C607.465 126.43 607.61 126.974 607.654 127.555H604.738C604.622 127.018 604.382 126.597 604.02 126.293C603.672 125.974 603.142 125.814 602.431 125.814C602.054 125.814 601.699 125.879 601.365 126.01C601.046 126.14 600.756 126.343 600.495 126.619C600.248 126.88 600.052 127.214 599.907 127.62C599.762 128.026 599.689 128.512 599.689 129.078V129.513C599.689 130.122 599.755 130.652 599.885 131.102C600.03 131.537 600.226 131.9 600.473 132.19C600.719 132.465 601.01 132.668 601.343 132.799C601.677 132.93 602.04 132.995 602.431 132.995C602.997 132.995 603.483 132.85 603.889 132.56C604.31 132.255 604.593 131.82 604.738 131.254H607.654C607.581 131.892 607.4 132.473 607.11 132.995C606.834 133.503 606.464 133.938 606 134.3C605.55 134.663 605.021 134.946 604.411 135.149C603.802 135.338 603.142 135.432 602.431 135.432ZM612.429 126.032H608.751V123.638H618.978V126.032H615.301V135.171H612.429V126.032ZM620.714 123.638H623.587V127.511H626.045C629.019 127.511 630.506 128.788 630.506 131.341C630.506 131.907 630.419 132.429 630.245 132.908C630.086 133.372 629.824 133.771 629.462 134.105C629.099 134.438 628.635 134.699 628.069 134.888C627.503 135.077 626.829 135.171 626.045 135.171H620.714V123.638ZM625.719 132.864C626.415 132.864 626.909 132.741 627.199 132.494C627.489 132.233 627.634 131.849 627.634 131.341C627.634 130.833 627.482 130.456 627.177 130.21C626.887 129.948 626.401 129.818 625.719 129.818H623.587V132.864H625.719Z" fill="black"/>
<path d="M111.836 174.284H115.1V189.517H111.836V174.284ZM118.801 174.284H124.676C126.736 174.284 128.267 174.741 129.267 175.655C130.268 176.555 130.769 177.766 130.769 179.289C130.769 180.812 130.268 182.031 129.267 182.945C128.267 183.844 126.736 184.294 124.676 184.294H122.065V189.517H118.801V174.284ZM124.35 181.596C125.51 181.596 126.323 181.4 126.787 181.008C127.266 180.617 127.505 180.044 127.505 179.289C127.505 178.549 127.266 177.984 126.787 177.592C126.323 177.186 125.51 176.983 124.35 176.983H122.065V181.596H124.35ZM132.302 177.984H135.522L138.656 185.926L141.528 177.984H144.487L140.048 189.517H137.176L132.302 177.984ZM152.323 186.296H145.142V184.033L152.323 174.284H155.587V183.598H157.328V186.296H155.587V189.517H152.323V186.296ZM152.323 183.598V177.918L148.188 183.598H152.323ZM159.023 182.075H165.987V184.773H159.023V182.075ZM171.402 189.778C170.779 189.778 170.227 189.691 169.749 189.517C169.27 189.328 168.864 189.074 168.53 188.755C168.196 188.421 167.943 188.037 167.769 187.602C167.594 187.152 167.507 186.666 167.507 186.144C167.507 183.823 168.886 182.662 171.642 182.662H175.08V182.118C175.08 181.364 174.906 180.834 174.558 180.53C174.224 180.225 173.687 180.073 172.947 180.073C172.295 180.073 171.823 180.189 171.533 180.421C171.243 180.638 171.076 180.914 171.033 181.248H168.16C168.189 180.754 168.313 180.29 168.53 179.855C168.762 179.42 169.081 179.05 169.488 178.745C169.908 178.426 170.416 178.179 171.011 178.005C171.606 177.817 172.287 177.722 173.056 177.722C173.796 177.722 174.463 177.802 175.058 177.962C175.668 178.121 176.183 178.383 176.603 178.745C177.038 179.093 177.372 179.55 177.604 180.116C177.836 180.682 177.952 181.364 177.952 182.162V186.579C177.952 187.188 177.96 187.725 177.974 188.189C178.003 188.639 178.047 189.081 178.105 189.517H175.428C175.37 189.197 175.334 188.958 175.319 188.799C175.319 188.624 175.319 188.371 175.319 188.037C175 188.501 174.514 188.907 173.861 189.255C173.223 189.604 172.403 189.778 171.402 189.778ZM172.295 187.558C172.643 187.558 172.984 187.515 173.317 187.428C173.651 187.326 173.948 187.181 174.21 186.992C174.471 186.789 174.681 186.535 174.841 186.231C175 185.926 175.08 185.571 175.08 185.165V184.621H172.186C171.635 184.621 171.199 184.751 170.88 185.012C170.576 185.259 170.423 185.6 170.423 186.035C170.423 186.499 170.583 186.869 170.902 187.145C171.221 187.42 171.685 187.558 172.295 187.558ZM179.589 187.123H180.894C181.039 186.905 181.17 186.593 181.286 186.187C181.402 185.767 181.489 185.302 181.547 184.795C181.62 184.272 181.67 183.728 181.699 183.163C181.743 182.582 181.765 182.017 181.765 181.465V177.984H190.795V187.123H192.21V192.237H189.685V189.517H182.113V192.237H179.589V187.123ZM187.923 187.123V180.377H184.398V181.9C184.398 182.408 184.383 182.909 184.354 183.402C184.325 183.895 184.282 184.374 184.224 184.838C184.18 185.288 184.115 185.709 184.028 186.1C183.941 186.492 183.832 186.833 183.701 187.123H187.923ZM194.059 177.984H196.736V179.681C197.026 179.159 197.483 178.702 198.107 178.31C198.73 177.918 199.521 177.722 200.479 177.722C202.016 177.722 203.213 178.201 204.069 179.159C204.939 180.102 205.375 181.523 205.375 183.424V183.859C205.375 185.846 204.932 187.333 204.047 188.32C203.177 189.292 201.987 189.778 200.479 189.778C199.695 189.778 198.999 189.611 198.39 189.277C197.795 188.929 197.309 188.479 196.932 187.928V193.869H194.059V177.984ZM199.804 187.341C200.558 187.341 201.189 187.058 201.697 186.492C202.205 185.912 202.459 185.034 202.459 183.859V183.424C202.459 182.336 202.212 181.523 201.719 180.987C201.226 180.435 200.587 180.16 199.804 180.16C198.977 180.16 198.288 180.399 197.737 180.878C197.2 181.342 196.932 182.046 196.932 182.988V184.294C196.932 185.324 197.193 186.093 197.715 186.601C198.252 187.094 198.948 187.341 199.804 187.341ZM212.669 189.778C211.886 189.778 211.139 189.662 210.428 189.43C209.732 189.183 209.123 188.82 208.6 188.342C208.078 187.848 207.665 187.232 207.36 186.492C207.055 185.738 206.903 184.86 206.903 183.859V183.424C206.903 182.466 207.048 181.632 207.338 180.921C207.628 180.21 208.027 179.623 208.535 179.159C209.043 178.68 209.63 178.325 210.298 178.092C210.965 177.846 211.683 177.722 212.452 177.722C214.265 177.722 215.643 178.201 216.586 179.159C217.529 180.116 218.001 181.502 218.001 183.315V184.533H209.841C209.855 185.041 209.942 185.484 210.102 185.861C210.261 186.224 210.472 186.521 210.733 186.753C210.994 186.985 211.291 187.159 211.625 187.275C211.973 187.377 212.321 187.428 212.669 187.428C213.409 187.428 213.968 187.319 214.345 187.101C214.722 186.884 214.991 186.564 215.15 186.144H217.783C217.551 187.348 216.978 188.255 216.064 188.864C215.15 189.473 214.019 189.778 212.669 189.778ZM212.561 180.073C212.227 180.073 211.893 180.116 211.56 180.203C211.241 180.29 210.958 180.428 210.711 180.617C210.464 180.805 210.261 181.059 210.102 181.378C209.942 181.697 209.855 182.082 209.841 182.532H215.215C215.201 182.053 215.121 181.654 214.976 181.335C214.845 181.016 214.657 180.762 214.41 180.573C214.178 180.385 213.903 180.254 213.583 180.181C213.264 180.109 212.923 180.073 212.561 180.073ZM225.183 189.778C224.385 189.778 223.638 189.654 222.942 189.408C222.26 189.161 221.665 188.791 221.158 188.298C220.65 187.805 220.251 187.188 219.961 186.448C219.671 185.709 219.526 184.845 219.526 183.859V183.424C219.526 182.495 219.678 181.676 219.983 180.965C220.287 180.254 220.693 179.659 221.201 179.18C221.723 178.702 222.325 178.339 223.007 178.092C223.689 177.846 224.414 177.722 225.183 177.722C225.996 177.722 226.714 177.831 227.338 178.049C227.976 178.267 228.513 178.564 228.948 178.941C229.383 179.318 229.724 179.761 229.971 180.268C230.217 180.776 230.362 181.32 230.406 181.9H227.49C227.374 181.364 227.135 180.943 226.772 180.638C226.424 180.319 225.894 180.16 225.183 180.16C224.806 180.16 224.451 180.225 224.117 180.355C223.798 180.486 223.508 180.689 223.247 180.965C223 181.226 222.804 181.56 222.659 181.966C222.514 182.372 222.442 182.858 222.442 183.424V183.859C222.442 184.468 222.507 184.998 222.637 185.447C222.782 185.883 222.978 186.245 223.225 186.535C223.472 186.811 223.762 187.014 224.095 187.145C224.429 187.275 224.792 187.341 225.183 187.341C225.749 187.341 226.235 187.195 226.641 186.905C227.062 186.601 227.345 186.166 227.49 185.6H230.406C230.333 186.238 230.152 186.818 229.862 187.341C229.586 187.848 229.216 188.284 228.752 188.646C228.302 189.009 227.773 189.292 227.164 189.495C226.554 189.683 225.894 189.778 225.183 189.778Z" fill="black"/>
<path d="M807 100.321L807 312.442" stroke="#58A982" stroke-dasharray="2 2"/>
</svg>
