<svg width="1080" height="355" viewBox="0 0 1080 355" fill="none" xmlns="http://www.w3.org/2000/svg">
<path d="M101.741 132.828H105.005L109.64 141.402L114.253 132.828H117.408V148.061H114.144V138.377L110.554 145.014H108.595L105.005 138.377V148.061H101.741V132.828ZM123.912 148.322C123.288 148.322 122.737 148.235 122.258 148.061C121.78 147.872 121.373 147.618 121.04 147.299C120.706 146.965 120.452 146.581 120.278 146.146C120.104 145.696 120.017 145.21 120.017 144.688C120.017 142.367 121.395 141.206 124.151 141.206H127.59V140.662C127.59 139.908 127.415 139.378 127.067 139.074C126.734 138.769 126.197 138.617 125.457 138.617C124.804 138.617 124.333 138.733 124.043 138.965C123.752 139.182 123.586 139.458 123.542 139.792H120.67C120.699 139.298 120.822 138.834 121.04 138.399C121.272 137.964 121.591 137.594 121.997 137.289C122.418 136.97 122.926 136.723 123.52 136.549C124.115 136.361 124.797 136.266 125.566 136.266C126.306 136.266 126.973 136.346 127.568 136.506C128.177 136.665 128.692 136.927 129.113 137.289C129.548 137.637 129.882 138.094 130.114 138.66C130.346 139.226 130.462 139.908 130.462 140.706V145.123C130.462 145.732 130.469 146.269 130.484 146.733C130.513 147.183 130.556 147.625 130.614 148.061H127.938C127.88 147.741 127.843 147.502 127.829 147.342C127.829 147.168 127.829 146.915 127.829 146.581C127.51 147.045 127.024 147.451 126.371 147.799C125.733 148.148 124.913 148.322 123.912 148.322ZM124.804 146.102C125.152 146.102 125.493 146.059 125.827 145.972C126.161 145.87 126.458 145.725 126.719 145.536C126.98 145.333 127.191 145.079 127.35 144.775C127.51 144.47 127.59 144.115 127.59 143.708V143.164H124.695C124.144 143.164 123.709 143.295 123.39 143.556C123.085 143.803 122.933 144.144 122.933 144.579C122.933 145.043 123.092 145.413 123.412 145.689C123.731 145.964 124.195 146.102 124.804 146.102ZM138.082 148.322C137.284 148.322 136.537 148.198 135.841 147.952C135.159 147.705 134.564 147.335 134.057 146.842C133.549 146.349 133.15 145.732 132.86 144.992C132.57 144.252 132.425 143.389 132.425 142.403V141.968C132.425 141.039 132.577 140.22 132.882 139.509C133.186 138.798 133.592 138.203 134.1 137.724C134.622 137.246 135.224 136.883 135.906 136.636C136.588 136.39 137.313 136.266 138.082 136.266C138.895 136.266 139.613 136.375 140.237 136.593C140.875 136.81 141.412 137.108 141.847 137.485C142.282 137.862 142.623 138.305 142.87 138.812C143.116 139.32 143.261 139.864 143.305 140.444H140.389C140.273 139.908 140.033 139.487 139.671 139.182C139.323 138.863 138.793 138.704 138.082 138.704C137.705 138.704 137.35 138.769 137.016 138.899C136.697 139.03 136.407 139.233 136.146 139.509C135.899 139.77 135.703 140.104 135.558 140.51C135.413 140.916 135.341 141.402 135.341 141.968V142.403C135.341 143.012 135.406 143.542 135.536 143.991C135.681 144.427 135.877 144.789 136.124 145.079C136.37 145.355 136.661 145.558 136.994 145.689C137.328 145.819 137.691 145.885 138.082 145.885C138.648 145.885 139.134 145.739 139.54 145.449C139.961 145.145 140.244 144.709 140.389 144.144H143.305C143.232 144.782 143.051 145.362 142.761 145.885C142.485 146.392 142.115 146.827 141.651 147.19C141.201 147.553 140.672 147.836 140.063 148.039C139.453 148.227 138.793 148.322 138.082 148.322ZM145.273 136.528H148.145V141.054H149.233L152.758 136.528H155.935L151.583 141.989L156.153 148.061H152.715L149.233 143.317H148.145V148.061H145.273V136.528ZM161.036 148.322C160.413 148.322 159.861 148.235 159.383 148.061C158.904 147.872 158.498 147.618 158.164 147.299C157.83 146.965 157.577 146.581 157.402 146.146C157.228 145.696 157.141 145.21 157.141 144.688C157.141 142.367 158.519 141.206 161.276 141.206H164.714V140.662C164.714 139.908 164.54 139.378 164.192 139.074C163.858 138.769 163.321 138.617 162.581 138.617C161.929 138.617 161.457 138.733 161.167 138.965C160.877 139.182 160.71 139.458 160.666 139.792H157.794C157.823 139.298 157.946 138.834 158.164 138.399C158.396 137.964 158.715 137.594 159.122 137.289C159.542 136.97 160.05 136.723 160.645 136.549C161.24 136.361 161.921 136.266 162.69 136.266C163.43 136.266 164.097 136.346 164.692 136.506C165.301 136.665 165.816 136.927 166.237 137.289C166.672 137.637 167.006 138.094 167.238 138.66C167.47 139.226 167.586 139.908 167.586 140.706V145.123C167.586 145.732 167.594 146.269 167.608 146.733C167.637 147.183 167.681 147.625 167.739 148.061H165.062C165.004 147.741 164.968 147.502 164.953 147.342C164.953 147.168 164.953 146.915 164.953 146.581C164.634 147.045 164.148 147.451 163.495 147.799C162.857 148.148 162.037 148.322 161.036 148.322ZM161.929 146.102C162.277 146.102 162.618 146.059 162.951 145.972C163.285 145.87 163.582 145.725 163.844 145.536C164.105 145.333 164.315 145.079 164.475 144.775C164.634 144.47 164.714 144.115 164.714 143.708V143.164H161.82C161.269 143.164 160.833 143.295 160.514 143.556C160.21 143.803 160.057 144.144 160.057 144.579C160.057 145.043 160.217 145.413 160.536 145.689C160.855 145.964 161.319 146.102 161.929 146.102ZM175.533 136.528H185.978V148.061H183.106V138.921H178.405V148.061H175.533V136.528ZM193.803 148.322C193.02 148.322 192.273 148.206 191.562 147.974C190.866 147.727 190.256 147.357 189.734 146.864C189.212 146.37 188.798 145.754 188.494 145.014C188.189 144.274 188.037 143.404 188.037 142.403V141.968C188.037 141.025 188.189 140.198 188.494 139.487C188.798 138.776 189.212 138.181 189.734 137.703C190.256 137.224 190.866 136.868 191.562 136.636C192.273 136.39 193.02 136.266 193.803 136.266C194.587 136.266 195.326 136.39 196.023 136.636C196.719 136.868 197.328 137.224 197.851 137.703C198.387 138.181 198.808 138.776 199.113 139.487C199.417 140.198 199.57 141.025 199.57 141.968V142.403C199.57 143.389 199.417 144.252 199.113 144.992C198.808 145.732 198.387 146.349 197.851 146.842C197.328 147.335 196.719 147.705 196.023 147.952C195.326 148.198 194.587 148.322 193.803 148.322ZM193.803 145.885C194.616 145.885 195.29 145.594 195.827 145.014C196.378 144.434 196.654 143.563 196.654 142.403V141.968C196.654 140.909 196.378 140.104 195.827 139.552C195.29 138.986 194.616 138.704 193.803 138.704C192.976 138.704 192.295 138.986 191.758 139.552C191.221 140.104 190.953 140.909 190.953 141.968V142.403C190.953 143.578 191.221 144.456 191.758 145.036C192.295 145.602 192.976 145.885 193.803 145.885ZM200.546 145.667H201.851C201.996 145.449 202.127 145.137 202.243 144.731C202.359 144.311 202.446 143.846 202.504 143.339C202.577 142.816 202.627 142.272 202.656 141.707C202.7 141.126 202.722 140.56 202.722 140.009V136.528H211.752V145.667H213.167V150.781H210.642V148.061H203.07V150.781H200.546V145.667ZM208.88 145.667V138.921H205.355V140.444C205.355 140.952 205.34 141.453 205.311 141.946C205.282 142.439 205.239 142.918 205.181 143.382C205.137 143.832 205.072 144.252 204.985 144.644C204.898 145.036 204.789 145.377 204.658 145.667H208.88ZM220.13 148.322C219.332 148.322 218.585 148.198 217.889 147.952C217.207 147.705 216.612 147.335 216.104 146.842C215.596 146.349 215.198 145.732 214.907 144.992C214.617 144.252 214.472 143.389 214.472 142.403V141.968C214.472 141.039 214.625 140.22 214.929 139.509C215.234 138.798 215.64 138.203 216.148 137.724C216.67 137.246 217.272 136.883 217.954 136.636C218.636 136.39 219.361 136.266 220.13 136.266C220.942 136.266 221.66 136.375 222.284 136.593C222.922 136.81 223.459 137.108 223.894 137.485C224.33 137.862 224.671 138.305 224.917 138.812C225.164 139.32 225.309 139.864 225.352 140.444H222.436C222.32 139.908 222.081 139.487 221.718 139.182C221.37 138.863 220.841 138.704 220.13 138.704C219.753 138.704 219.397 138.769 219.064 138.899C218.744 139.03 218.454 139.233 218.193 139.509C217.947 139.77 217.751 140.104 217.606 140.51C217.461 140.916 217.388 141.402 217.388 141.968V142.403C217.388 143.012 217.453 143.542 217.584 143.991C217.729 144.427 217.925 144.789 218.171 145.079C218.418 145.355 218.708 145.558 219.042 145.689C219.376 145.819 219.738 145.885 220.13 145.885C220.696 145.885 221.182 145.739 221.588 145.449C222.009 145.145 222.291 144.709 222.436 144.144H225.352C225.28 144.782 225.098 145.362 224.808 145.885C224.533 146.392 224.163 146.827 223.699 147.19C223.249 147.553 222.719 147.836 222.11 148.039C221.501 148.227 220.841 148.322 220.13 148.322ZM232.543 148.322C231.759 148.322 231.012 148.206 230.301 147.974C229.605 147.727 228.996 147.364 228.473 146.885C227.951 146.392 227.538 145.776 227.233 145.036C226.928 144.281 226.776 143.404 226.776 142.403V141.968C226.776 141.01 226.921 140.176 227.211 139.465C227.501 138.754 227.9 138.167 228.408 137.703C228.916 137.224 229.503 136.868 230.171 136.636C230.838 136.39 231.556 136.266 232.325 136.266C234.138 136.266 235.517 136.745 236.459 137.703C237.402 138.66 237.874 140.045 237.874 141.859V143.077H229.714C229.728 143.585 229.815 144.028 229.975 144.405C230.134 144.767 230.345 145.065 230.606 145.297C230.867 145.529 231.164 145.703 231.498 145.819C231.846 145.921 232.194 145.972 232.543 145.972C233.282 145.972 233.841 145.863 234.218 145.645C234.595 145.428 234.864 145.108 235.023 144.688H237.656C237.424 145.892 236.851 146.798 235.937 147.408C235.023 148.017 233.892 148.322 232.543 148.322ZM232.434 138.617C232.1 138.617 231.767 138.66 231.433 138.747C231.114 138.834 230.831 138.972 230.584 139.161C230.338 139.349 230.134 139.603 229.975 139.922C229.815 140.241 229.728 140.626 229.714 141.075H235.089C235.074 140.597 234.994 140.198 234.849 139.879C234.719 139.56 234.53 139.306 234.283 139.117C234.051 138.928 233.776 138.798 233.457 138.725C233.137 138.653 232.796 138.617 232.434 138.617ZM242.537 138.921H238.86V136.528H249.087V138.921H245.41V148.061H242.537V138.921ZM250.823 136.528H253.695V143.926L258.831 136.528H261.486V148.061H258.613V140.662L253.478 148.061H250.823V136.528Z" fill="black"/>
<path d="M802.456 100.723L802.456 254.215" stroke="#58A982" stroke-dasharray="2 2"/>
<path d="M399.749 145.689L405.081 141.098C405.574 140.663 405.995 140.285 406.343 139.966C406.691 139.633 406.974 139.328 407.191 139.052C407.409 138.777 407.561 138.508 407.648 138.247C407.75 137.986 407.801 137.703 407.801 137.398C407.801 136.775 407.627 136.274 407.278 135.897C406.93 135.505 406.415 135.309 405.733 135.309C404.95 135.309 404.334 135.527 403.884 135.962C403.449 136.383 403.231 137.116 403.231 138.16H399.967C399.967 136.434 400.453 135.07 401.425 134.069C402.411 133.068 403.848 132.568 405.733 132.568C406.618 132.568 407.387 132.691 408.04 132.938C408.707 133.17 409.266 133.503 409.716 133.939C410.165 134.359 410.499 134.867 410.717 135.462C410.949 136.057 411.065 136.702 411.065 137.398C411.065 137.921 410.97 138.421 410.782 138.9C410.593 139.364 410.332 139.814 409.999 140.249C409.679 140.684 409.302 141.112 408.867 141.533C408.432 141.939 407.968 142.345 407.474 142.752L404.341 145.363H411.282V148.061H399.749V145.689ZM418.672 148.322C417.7 148.322 416.874 148.199 416.192 147.952C415.524 147.706 414.973 147.379 414.538 146.973C414.103 146.552 413.776 146.074 413.559 145.537C413.356 144.986 413.247 144.413 413.232 143.818H416.496C416.54 144.34 416.736 144.768 417.084 145.102C417.447 145.421 417.976 145.58 418.672 145.58C420.268 145.58 421.066 144.681 421.066 142.882C421.066 142.403 421.001 141.997 420.87 141.663C420.74 141.33 420.566 141.061 420.348 140.858C420.13 140.655 419.876 140.51 419.586 140.423C419.296 140.322 418.992 140.271 418.672 140.271C418.165 140.271 417.744 140.365 417.41 140.554C417.077 140.742 416.808 140.996 416.605 141.315H413.559V132.829H423.481V135.527H416.823V138.312C417.127 138.037 417.497 137.841 417.933 137.725C418.382 137.594 418.883 137.529 419.434 137.529C420.174 137.529 420.841 137.645 421.436 137.877C422.045 138.095 422.56 138.428 422.981 138.878C423.416 139.328 423.75 139.886 423.982 140.554C424.214 141.221 424.33 141.99 424.33 142.86C424.33 143.687 424.192 144.442 423.917 145.123C423.656 145.791 423.278 146.364 422.785 146.842C422.292 147.321 421.697 147.691 421.001 147.952C420.304 148.199 419.528 148.322 418.672 148.322ZM431.72 148.322C430.748 148.322 429.921 148.199 429.239 147.952C428.572 147.706 428.021 147.379 427.586 146.973C427.15 146.552 426.824 146.074 426.606 145.537C426.403 144.986 426.295 144.413 426.28 143.818H429.544C429.588 144.34 429.783 144.768 430.132 145.102C430.494 145.421 431.024 145.58 431.72 145.58C433.316 145.58 434.114 144.681 434.114 142.882C434.114 142.403 434.048 141.997 433.918 141.663C433.787 141.33 433.613 141.061 433.396 140.858C433.178 140.655 432.924 140.51 432.634 140.423C432.344 140.322 432.039 140.271 431.72 140.271C431.212 140.271 430.792 140.365 430.458 140.554C430.124 140.742 429.856 140.996 429.653 141.315H426.606V132.829H436.529V135.527H429.87V138.312C430.175 138.037 430.545 137.841 430.98 137.725C431.43 137.594 431.93 137.529 432.482 137.529C433.222 137.529 433.889 137.645 434.484 137.877C435.093 138.095 435.608 138.428 436.029 138.878C436.464 139.328 436.798 139.886 437.03 140.554C437.262 141.221 437.378 141.99 437.378 142.86C437.378 143.687 437.24 144.442 436.964 145.123C436.703 145.791 436.326 146.364 435.833 146.842C435.34 147.321 434.745 147.691 434.048 147.952C433.352 148.199 432.576 148.322 431.72 148.322ZM474.253 148.322C473.745 148.322 473.31 148.141 472.947 147.778C472.585 147.415 472.403 146.98 472.403 146.473C472.403 145.936 472.585 145.493 472.947 145.145C473.31 144.797 473.745 144.623 474.253 144.623C474.761 144.623 475.196 144.797 475.559 145.145C475.921 145.493 476.103 145.936 476.103 146.473C476.103 146.98 475.921 147.415 475.559 147.778C475.196 148.141 474.761 148.322 474.253 148.322ZM516.35 145.689L521.681 141.098C522.175 140.663 522.595 140.285 522.943 139.966C523.292 139.633 523.574 139.328 523.792 139.052C524.01 138.777 524.162 138.508 524.249 138.247C524.351 137.986 524.401 137.703 524.401 137.398C524.401 136.775 524.227 136.274 523.879 135.897C523.531 135.505 523.016 135.309 522.334 135.309C521.551 135.309 520.934 135.527 520.484 135.962C520.049 136.383 519.832 137.116 519.832 138.16H516.568C516.568 136.434 517.054 135.07 518.026 134.069C519.012 133.068 520.448 132.568 522.334 132.568C523.219 132.568 523.988 132.691 524.641 132.938C525.308 133.17 525.867 133.503 526.316 133.939C526.766 134.359 527.1 134.867 527.317 135.462C527.549 136.057 527.665 136.702 527.665 137.398C527.665 137.921 527.571 138.421 527.383 138.9C527.194 139.364 526.933 139.814 526.599 140.249C526.28 140.684 525.903 141.112 525.468 141.533C525.032 141.939 524.568 142.345 524.075 142.752L520.941 145.363H527.883V148.061H516.35V145.689ZM535.273 148.322C534.301 148.322 533.474 148.199 532.792 147.952C532.125 147.706 531.574 147.379 531.139 146.973C530.703 146.552 530.377 146.074 530.159 145.537C529.956 144.986 529.847 144.413 529.833 143.818H533.097C533.14 144.34 533.336 144.768 533.685 145.102C534.047 145.421 534.577 145.58 535.273 145.58C536.869 145.58 537.667 144.681 537.667 142.882C537.667 142.403 537.601 141.997 537.471 141.663C537.34 141.33 537.166 141.061 536.949 140.858C536.731 140.655 536.477 140.51 536.187 140.423C535.897 140.322 535.592 140.271 535.273 140.271C534.765 140.271 534.345 140.365 534.011 140.554C533.677 140.742 533.409 140.996 533.206 141.315H530.159V132.829H540.082V135.527H533.423V138.312C533.728 138.037 534.098 137.841 534.533 137.725C534.983 137.594 535.483 137.529 536.035 137.529C536.774 137.529 537.442 137.645 538.037 137.877C538.646 138.095 539.161 138.428 539.582 138.878C540.017 139.328 540.35 139.886 540.583 140.554C540.815 141.221 540.931 141.99 540.931 142.86C540.931 143.687 540.793 144.442 540.517 145.123C540.256 145.791 539.879 146.364 539.386 146.842C538.892 147.321 538.298 147.691 537.601 147.952C536.905 148.199 536.129 148.322 535.273 148.322ZM548.321 148.322C547.349 148.322 546.522 148.199 545.84 147.952C545.173 147.706 544.621 147.379 544.186 146.973C543.751 146.552 543.425 146.074 543.207 145.537C543.004 144.986 542.895 144.413 542.881 143.818H546.145C546.188 144.34 546.384 144.768 546.732 145.102C547.095 145.421 547.624 145.58 548.321 145.58C549.916 145.58 550.714 144.681 550.714 142.882C550.714 142.403 550.649 141.997 550.519 141.663C550.388 141.33 550.214 141.061 549.996 140.858C549.779 140.655 549.525 140.51 549.235 140.423C548.945 140.322 548.64 140.271 548.321 140.271C547.813 140.271 547.392 140.365 547.059 140.554C546.725 140.742 546.457 140.996 546.253 141.315H543.207V132.829H553.13V135.527H546.471V138.312C546.776 138.037 547.146 137.841 547.581 137.725C548.031 137.594 548.531 137.529 549.082 137.529C549.822 137.529 550.49 137.645 551.084 137.877C551.694 138.095 552.209 138.428 552.629 138.878C553.064 139.328 553.398 139.886 553.63 140.554C553.862 141.221 553.978 141.99 553.978 142.86C553.978 143.687 553.841 144.442 553.565 145.123C553.304 145.791 552.927 146.364 552.433 146.842C551.94 147.321 551.345 147.691 550.649 147.952C549.953 148.199 549.177 148.322 548.321 148.322ZM590.854 148.322C590.346 148.322 589.911 148.141 589.548 147.778C589.185 147.415 589.004 146.98 589.004 146.473C589.004 145.936 589.185 145.493 589.548 145.145C589.911 144.797 590.346 144.623 590.854 144.623C591.361 144.623 591.797 144.797 592.159 145.145C592.522 145.493 592.703 145.936 592.703 146.473C592.703 146.98 592.522 147.415 592.159 147.778C591.797 148.141 591.361 148.322 590.854 148.322ZM632.951 145.689L638.282 141.098C638.775 140.663 639.196 140.285 639.544 139.966C639.892 139.633 640.175 139.328 640.393 139.052C640.61 138.777 640.763 138.508 640.85 138.247C640.951 137.986 641.002 137.703 641.002 137.398C641.002 136.775 640.828 136.274 640.48 135.897C640.132 135.505 639.617 135.309 638.935 135.309C638.151 135.309 637.535 135.527 637.085 135.962C636.65 136.383 636.432 137.116 636.432 138.16H633.168C633.168 136.434 633.654 135.07 634.626 134.069C635.613 133.068 637.049 132.568 638.935 132.568C639.82 132.568 640.589 132.691 641.241 132.938C641.909 133.17 642.467 133.503 642.917 133.939C643.367 134.359 643.7 134.867 643.918 135.462C644.15 136.057 644.266 136.702 644.266 137.398C644.266 137.921 644.172 138.421 643.983 138.9C643.795 139.364 643.533 139.814 643.2 140.249C642.881 140.684 642.503 141.112 642.068 141.533C641.633 141.939 641.169 142.345 640.676 142.752L637.542 145.363H644.484V148.061H632.951V145.689ZM651.874 148.322C650.902 148.322 650.075 148.199 649.393 147.952C648.726 147.706 648.174 147.379 647.739 146.973C647.304 146.552 646.978 146.074 646.76 145.537C646.557 144.986 646.448 144.413 646.434 143.818H649.698C649.741 144.34 649.937 144.768 650.285 145.102C650.648 145.421 651.177 145.58 651.874 145.58C653.469 145.58 654.267 144.681 654.267 142.882C654.267 142.403 654.202 141.997 654.071 141.663C653.941 141.33 653.767 141.061 653.549 140.858C653.332 140.655 653.078 140.51 652.788 140.423C652.497 140.322 652.193 140.271 651.874 140.271C651.366 140.271 650.945 140.365 650.612 140.554C650.278 140.742 650.009 140.996 649.806 141.315H646.76V132.829H656.683V135.527H650.024V138.312C650.329 138.037 650.699 137.841 651.134 137.725C651.583 137.594 652.084 137.529 652.635 137.529C653.375 137.529 654.042 137.645 654.637 137.877C655.246 138.095 655.761 138.428 656.182 138.878C656.617 139.328 656.951 139.886 657.183 140.554C657.415 141.221 657.531 141.99 657.531 142.86C657.531 143.687 657.394 144.442 657.118 145.123C656.857 145.791 656.48 146.364 655.986 146.842C655.493 147.321 654.898 147.691 654.202 147.952C653.506 148.199 652.73 148.322 651.874 148.322ZM664.921 148.322C663.949 148.322 663.122 148.199 662.441 147.952C661.773 147.706 661.222 147.379 660.787 146.973C660.352 146.552 660.025 146.074 659.808 145.537C659.605 144.986 659.496 144.413 659.481 143.818H662.745C662.789 144.34 662.985 144.768 663.333 145.102C663.696 145.421 664.225 145.58 664.921 145.58C666.517 145.58 667.315 144.681 667.315 142.882C667.315 142.403 667.25 141.997 667.119 141.663C666.989 141.33 666.815 141.061 666.597 140.858C666.379 140.655 666.125 140.51 665.835 140.423C665.545 140.322 665.241 140.271 664.921 140.271C664.414 140.271 663.993 140.365 663.659 140.554C663.326 140.742 663.057 140.996 662.854 141.315H659.808V132.829H669.73V135.527H663.072V138.312C663.376 138.037 663.746 137.841 664.182 137.725C664.631 137.594 665.132 137.529 665.683 137.529C666.423 137.529 667.09 137.645 667.685 137.877C668.294 138.095 668.809 138.428 669.23 138.878C669.665 139.328 669.999 139.886 670.231 140.554C670.463 141.221 670.579 141.99 670.579 142.86C670.579 143.687 670.441 144.442 670.166 145.123C669.904 145.791 669.527 146.364 669.034 146.842C668.541 147.321 667.946 147.691 667.25 147.952C666.553 148.199 665.777 148.322 664.921 148.322ZM707.454 148.322C706.947 148.322 706.511 148.141 706.149 147.778C705.786 147.415 705.605 146.98 705.605 146.473C705.605 145.936 705.786 145.493 706.149 145.145C706.511 144.797 706.947 144.623 707.454 144.623C707.962 144.623 708.397 144.797 708.76 145.145C709.123 145.493 709.304 145.936 709.304 146.473C709.304 146.98 709.123 147.415 708.76 147.778C708.397 148.141 707.962 148.322 707.454 148.322Z" fill="black"/>
<path d="M890.835 148.322C890.008 148.322 889.232 148.191 888.507 147.93C887.796 147.654 887.179 147.212 886.657 146.603C886.135 145.979 885.721 145.166 885.417 144.165C885.112 143.15 884.96 141.91 884.96 140.444V140.009C884.96 138.646 885.112 137.492 885.417 136.549C885.721 135.606 886.135 134.845 886.657 134.264C887.179 133.67 887.796 133.242 888.507 132.981C889.232 132.705 890.008 132.567 890.835 132.567C891.662 132.567 892.431 132.705 893.141 132.981C893.867 133.242 894.491 133.67 895.013 134.264C895.535 134.845 895.949 135.606 896.253 136.549C896.558 137.492 896.71 138.646 896.71 140.009V140.444C896.71 141.91 896.558 143.15 896.253 144.165C895.949 145.166 895.535 145.979 895.013 146.603C894.491 147.212 893.867 147.654 893.141 147.93C892.431 148.191 891.662 148.322 890.835 148.322ZM890.835 145.58C891.198 145.58 891.538 145.507 891.858 145.362C892.177 145.217 892.452 144.956 892.685 144.579C892.931 144.187 893.12 143.658 893.25 142.99C893.381 142.323 893.446 141.474 893.446 140.444V140.009C893.446 139.081 893.381 138.319 893.25 137.724C893.12 137.115 892.931 136.636 892.685 136.288C892.452 135.926 892.177 135.672 891.858 135.527C891.538 135.382 891.198 135.309 890.835 135.309C890.458 135.309 890.11 135.382 889.79 135.527C889.486 135.672 889.21 135.926 888.963 136.288C888.731 136.636 888.55 137.115 888.419 137.724C888.289 138.319 888.224 139.081 888.224 140.009V140.444C888.224 141.474 888.289 142.323 888.419 142.99C888.55 143.658 888.731 144.187 888.963 144.579C889.21 144.956 889.486 145.217 889.79 145.362C890.11 145.507 890.458 145.58 890.835 145.58Z" fill="black"/>
<rect x="270.456" y="166.682" width="532" height="45" fill="#DBEEE5"/>
<path d="M369.22 194.115H372.636V182.669L369.154 185.106L368.306 183.866L373.093 180.449H374.312V194.115H377.663V195.682H369.22V194.115ZM382.267 194.115H385.684V182.669L382.202 185.106L381.353 183.866L386.141 180.449H387.359V194.115H390.71V195.682H382.267V194.115ZM395.315 194.115H398.731V182.669L395.25 185.106L394.401 183.866L399.188 180.449H400.407V194.115H403.758V195.682H395.315V194.115ZM408.363 194.115H411.779V182.669L408.297 185.106L407.449 183.866L412.236 180.449H413.455V194.115H416.806V195.682H408.363V194.115ZM421.41 194.115H424.827V182.669L421.345 185.106L420.497 183.866L425.284 180.449H426.502V194.115H429.853V195.682H421.41V194.115ZM434.458 194.115H437.875V182.669L434.393 185.106L433.544 183.866L438.332 180.449H439.55V194.115H442.901V195.682H434.458V194.115ZM447.506 194.115H450.922V182.669L447.441 185.106L446.592 183.866L451.379 180.449H452.598V194.115H455.949V195.682H447.506V194.115ZM460.554 194.115H463.97V182.669L460.488 185.106L459.64 183.866L464.427 180.449H465.646V194.115H468.997V195.682H460.554V194.115ZM486.649 194.115H490.065V182.669L486.584 185.106L485.735 183.866L490.522 180.449H491.741V194.115H495.092V195.682H486.649V194.115ZM499.697 194.115H503.113V182.669L499.631 185.106L498.783 183.866L503.57 180.449H504.789V194.115H508.14V195.682H499.697V194.115ZM512.744 194.115H516.161V182.669L512.679 185.106L511.83 183.866L516.618 180.449H517.836V194.115H521.187V195.682H512.744V194.115ZM525.792 194.115H529.209V182.669L525.727 185.106L524.878 183.866L529.665 180.449H530.884V194.115H534.235V195.682H525.792V194.115ZM538.84 194.115H542.256V182.669L538.775 185.106L537.926 183.866L542.713 180.449H543.932V194.115H547.283V195.682H538.84V194.115ZM551.888 194.115H555.304V182.669L551.822 185.106L550.974 183.866L555.761 180.449H556.979V194.115H560.331V195.682H551.888V194.115ZM564.935 194.115H568.352V182.669L564.87 185.106L564.021 183.866L568.809 180.449H570.027V194.115H573.378V195.682H564.935V194.115ZM577.983 194.115H581.399V182.669L577.918 185.106L577.069 183.866L581.856 180.449H583.075V194.115H586.426V195.682H577.983V194.115ZM604.078 194.115H607.495V182.669L604.013 185.106L603.164 183.866L607.952 180.449H609.17V194.115H612.521V195.682H604.078V194.115ZM617.126 194.115H620.542V182.669L617.061 185.106L616.212 183.866L620.999 180.449H622.218V194.115H625.569V195.682H617.126V194.115ZM630.174 194.115H633.59V182.669L630.109 185.106L629.26 183.866L634.047 180.449H635.266V194.115H638.617V195.682H630.174V194.115ZM643.222 194.115H646.638V182.669L643.156 185.106L642.308 183.866L647.095 180.449H648.313V194.115H651.665V195.682H643.222V194.115ZM656.269 194.115H659.686V182.669L656.204 185.106L655.355 183.866L660.143 180.449H661.361V194.115H664.712V195.682H656.269V194.115ZM669.317 194.115H672.733V182.669L669.252 185.106L668.403 183.866L673.19 180.449H674.409V194.115H677.76V195.682H669.317V194.115ZM682.365 194.115H685.781V182.669L682.299 185.106L681.451 183.866L686.238 180.449H687.457V194.115H690.808V195.682H682.365V194.115ZM695.412 194.115H698.829V182.669L695.347 185.106L694.498 183.866L699.286 180.449H700.504V194.115H703.855V195.682H695.412V194.115Z" fill="black"/>
<rect x="270.456" y="166.682" width="532" height="45" stroke="#58A982"/>
<rect x="802.456" y="166.682" width="177" height="45" fill="#F1F7F5"/>
<path d="M839.962 188.066C839.962 186.832 840.071 185.73 840.288 184.758C840.506 183.771 840.832 182.945 841.268 182.277C841.703 181.595 842.254 181.08 842.921 180.732C843.589 180.37 844.379 180.188 845.293 180.188C846.265 180.188 847.085 180.362 847.752 180.711C848.434 181.059 848.985 181.566 849.406 182.234C849.827 182.901 850.131 183.728 850.32 184.714C850.509 185.686 850.603 186.803 850.603 188.066C850.603 189.299 850.494 190.408 850.276 191.395C850.059 192.367 849.732 193.194 849.297 193.876C848.862 194.543 848.311 195.058 847.643 195.421C846.976 195.769 846.185 195.943 845.272 195.943C844.314 195.943 843.494 195.754 842.813 195.377C842.145 194.985 841.594 194.441 841.159 193.745C840.738 193.049 840.434 192.222 840.245 191.264C840.056 190.292 839.962 189.226 839.962 188.066ZM848.818 188.066C848.818 187.297 848.775 186.564 848.688 185.868L842.225 191.765C842.472 192.592 842.842 193.252 843.335 193.745C843.828 194.238 844.474 194.485 845.272 194.485C846.548 194.485 847.455 193.955 847.992 192.896C848.543 191.837 848.818 190.227 848.818 188.066ZM841.768 188.066C841.768 188.428 841.775 188.776 841.79 189.11C841.819 189.444 841.848 189.77 841.877 190.089L848.362 184.214C848.115 183.431 847.745 182.807 847.252 182.343C846.773 181.878 846.12 181.646 845.293 181.646C844.002 181.646 843.088 182.183 842.552 183.256C842.029 184.315 841.768 185.918 841.768 188.066ZM853.01 188.066C853.01 186.832 853.119 185.73 853.336 184.758C853.554 183.771 853.88 182.945 854.315 182.277C854.751 181.595 855.302 181.08 855.969 180.732C856.636 180.37 857.427 180.188 858.341 180.188C859.313 180.188 860.133 180.362 860.8 180.711C861.482 181.059 862.033 181.566 862.454 182.234C862.874 182.901 863.179 183.728 863.368 184.714C863.556 185.686 863.651 186.803 863.651 188.066C863.651 189.299 863.542 190.408 863.324 191.395C863.107 192.367 862.78 193.194 862.345 193.876C861.91 194.543 861.358 195.058 860.691 195.421C860.024 195.769 859.233 195.943 858.319 195.943C857.362 195.943 856.542 195.754 855.86 195.377C855.193 194.985 854.642 194.441 854.207 193.745C853.786 193.049 853.481 192.222 853.293 191.264C853.104 190.292 853.01 189.226 853.01 188.066ZM861.866 188.066C861.866 187.297 861.823 186.564 861.736 185.868L855.273 191.765C855.519 192.592 855.889 193.252 856.383 193.745C856.876 194.238 857.521 194.485 858.319 194.485C859.596 194.485 860.503 193.955 861.039 192.896C861.591 191.837 861.866 190.227 861.866 188.066ZM854.816 188.066C854.816 188.428 854.823 188.776 854.838 189.11C854.867 189.444 854.896 189.77 854.925 190.089L861.409 184.214C861.163 183.431 860.793 182.807 860.299 182.343C859.821 181.878 859.168 181.646 858.341 181.646C857.05 181.646 856.136 182.183 855.599 183.256C855.077 184.315 854.816 185.918 854.816 188.066ZM866.057 188.066C866.057 186.832 866.166 185.73 866.384 184.758C866.601 183.771 866.928 182.945 867.363 182.277C867.798 181.595 868.35 181.08 869.017 180.732C869.684 180.37 870.475 180.188 871.389 180.188C872.361 180.188 873.18 180.362 873.848 180.711C874.529 181.059 875.081 181.566 875.501 182.234C875.922 182.901 876.227 183.728 876.415 184.714C876.604 185.686 876.698 186.803 876.698 188.066C876.698 189.299 876.589 190.408 876.372 191.395C876.154 192.367 875.828 193.194 875.393 193.876C874.957 194.543 874.406 195.058 873.739 195.421C873.072 195.769 872.281 195.943 871.367 195.943C870.41 195.943 869.59 195.754 868.908 195.377C868.241 194.985 867.689 194.441 867.254 193.745C866.834 193.049 866.529 192.222 866.34 191.264C866.152 190.292 866.057 189.226 866.057 188.066ZM874.914 188.066C874.914 187.297 874.87 186.564 874.783 185.868L868.321 191.765C868.567 192.592 868.937 193.252 869.43 193.745C869.924 194.238 870.569 194.485 871.367 194.485C872.644 194.485 873.55 193.955 874.087 192.896C874.638 191.837 874.914 190.227 874.914 188.066ZM867.864 188.066C867.864 188.428 867.871 188.776 867.885 189.11C867.914 189.444 867.943 189.77 867.972 190.089L874.457 184.214C874.21 183.431 873.84 182.807 873.347 182.343C872.868 181.878 872.216 181.646 871.389 181.646C870.098 181.646 869.184 182.183 868.647 183.256C868.125 184.315 867.864 185.918 867.864 188.066ZM879.105 188.066C879.105 186.832 879.214 185.73 879.432 184.758C879.649 183.771 879.976 182.945 880.411 182.277C880.846 181.595 881.397 181.08 882.065 180.732C882.732 180.37 883.523 180.188 884.436 180.188C885.408 180.188 886.228 180.362 886.895 180.711C887.577 181.059 888.128 181.566 888.549 182.234C888.97 182.901 889.275 183.728 889.463 184.714C889.652 185.686 889.746 186.803 889.746 188.066C889.746 189.299 889.637 190.408 889.42 191.395C889.202 192.367 888.876 193.194 888.44 193.876C888.005 194.543 887.454 195.058 886.787 195.421C886.119 195.769 885.329 195.943 884.415 195.943C883.457 195.943 882.638 195.754 881.956 195.377C881.288 194.985 880.737 194.441 880.302 193.745C879.881 193.049 879.577 192.222 879.388 191.264C879.199 190.292 879.105 189.226 879.105 188.066ZM887.962 188.066C887.962 187.297 887.918 186.564 887.831 185.868L881.368 191.765C881.615 192.592 881.985 193.252 882.478 193.745C882.971 194.238 883.617 194.485 884.415 194.485C885.691 194.485 886.598 193.955 887.135 192.896C887.686 191.837 887.962 190.227 887.962 188.066ZM880.911 188.066C880.911 188.428 880.919 188.776 880.933 189.11C880.962 189.444 880.991 189.77 881.02 190.089L887.505 184.214C887.258 183.431 886.888 182.807 886.395 182.343C885.916 181.878 885.263 181.646 884.436 181.646C883.145 181.646 882.231 182.183 881.695 183.256C881.172 184.315 880.911 185.918 880.911 188.066ZM892.153 188.066C892.153 186.832 892.262 185.73 892.479 184.758C892.697 183.771 893.023 182.945 893.458 182.277C893.894 181.595 894.445 181.08 895.112 180.732C895.78 180.37 896.57 180.188 897.484 180.188C898.456 180.188 899.276 180.362 899.943 180.711C900.625 181.059 901.176 181.566 901.597 182.234C902.018 182.901 902.322 183.728 902.511 184.714C902.699 185.686 902.794 186.803 902.794 188.066C902.794 189.299 902.685 190.408 902.467 191.395C902.25 192.367 901.923 193.194 901.488 193.876C901.053 194.543 900.502 195.058 899.834 195.421C899.167 195.769 898.376 195.943 897.462 195.943C896.505 195.943 895.685 195.754 895.003 195.377C894.336 194.985 893.785 194.441 893.35 193.745C892.929 193.049 892.624 192.222 892.436 191.264C892.247 190.292 892.153 189.226 892.153 188.066ZM901.009 188.066C901.009 187.297 900.966 186.564 900.879 185.868L894.416 191.765C894.663 192.592 895.032 193.252 895.526 193.745C896.019 194.238 896.665 194.485 897.462 194.485C898.739 194.485 899.646 193.955 900.182 192.896C900.734 191.837 901.009 190.227 901.009 188.066ZM893.959 188.066C893.959 188.428 893.966 188.776 893.981 189.11C894.01 189.444 894.039 189.77 894.068 190.089L900.552 184.214C900.306 183.431 899.936 182.807 899.443 182.343C898.964 181.878 898.311 181.646 897.484 181.646C896.193 181.646 895.279 182.183 894.742 183.256C894.22 184.315 893.959 185.918 893.959 188.066ZM905.201 188.066C905.201 186.832 905.309 185.73 905.527 184.758C905.745 183.771 906.071 182.945 906.506 182.277C906.941 181.595 907.493 181.08 908.16 180.732C908.827 180.37 909.618 180.188 910.532 180.188C911.504 180.188 912.323 180.362 912.991 180.711C913.673 181.059 914.224 181.566 914.645 182.234C915.065 182.901 915.37 183.728 915.559 184.714C915.747 185.686 915.841 186.803 915.841 188.066C915.841 189.299 915.733 190.408 915.515 191.395C915.297 192.367 914.971 193.194 914.536 193.876C914.101 194.543 913.549 195.058 912.882 195.421C912.215 195.769 911.424 195.943 910.51 195.943C909.553 195.943 908.733 195.754 908.051 195.377C907.384 194.985 906.833 194.441 906.397 193.745C905.977 193.049 905.672 192.222 905.483 191.264C905.295 190.292 905.201 189.226 905.201 188.066ZM914.057 188.066C914.057 187.297 914.014 186.564 913.926 185.868L907.464 191.765C907.71 192.592 908.08 193.252 908.573 193.745C909.067 194.238 909.712 194.485 910.51 194.485C911.787 194.485 912.693 193.955 913.23 192.896C913.781 191.837 914.057 190.227 914.057 188.066ZM907.007 188.066C907.007 188.428 907.014 188.776 907.028 189.11C907.057 189.444 907.086 189.77 907.115 190.089L913.6 184.214C913.353 183.431 912.984 182.807 912.49 182.343C912.012 181.878 911.359 181.646 910.532 181.646C909.241 181.646 908.327 182.183 907.79 183.256C907.268 184.315 907.007 185.918 907.007 188.066ZM918.248 188.066C918.248 186.832 918.357 185.73 918.575 184.758C918.792 183.771 919.119 182.945 919.554 182.277C919.989 181.595 920.54 181.08 921.208 180.732C921.875 180.37 922.666 180.188 923.58 180.188C924.552 180.188 925.371 180.362 926.038 180.711C926.72 181.059 927.272 181.566 927.692 182.234C928.113 182.901 928.418 183.728 928.606 184.714C928.795 185.686 928.889 186.803 928.889 188.066C928.889 189.299 928.78 190.408 928.563 191.395C928.345 192.367 928.019 193.194 927.583 193.876C927.148 194.543 926.597 195.058 925.93 195.421C925.262 195.769 924.472 195.943 923.558 195.943C922.6 195.943 921.781 195.754 921.099 195.377C920.432 194.985 919.88 194.441 919.445 193.745C919.024 193.049 918.72 192.222 918.531 191.264C918.343 190.292 918.248 189.226 918.248 188.066ZM927.105 188.066C927.105 187.297 927.061 186.564 926.974 185.868L920.511 191.765C920.758 192.592 921.128 193.252 921.621 193.745C922.114 194.238 922.76 194.485 923.558 194.485C924.834 194.485 925.741 193.955 926.278 192.896C926.829 191.837 927.105 190.227 927.105 188.066ZM920.054 188.066C920.054 188.428 920.062 188.776 920.076 189.11C920.105 189.444 920.134 189.77 920.163 190.089L926.648 184.214C926.401 183.431 926.031 182.807 925.538 182.343C925.059 181.878 924.406 181.646 923.58 181.646C922.288 181.646 921.375 182.183 920.838 183.256C920.316 184.315 920.054 185.918 920.054 188.066ZM931.296 188.066C931.296 186.832 931.405 185.73 931.622 184.758C931.84 183.771 932.166 182.945 932.602 182.277C933.037 181.595 933.588 181.08 934.255 180.732C934.923 180.37 935.713 180.188 936.627 180.188C937.599 180.188 938.419 180.362 939.086 180.711C939.768 181.059 940.319 181.566 940.74 182.234C941.161 182.901 941.465 183.728 941.654 184.714C941.843 185.686 941.937 186.803 941.937 188.066C941.937 189.299 941.828 190.408 941.61 191.395C941.393 192.367 941.066 193.194 940.631 193.876C940.196 194.543 939.645 195.058 938.977 195.421C938.31 195.769 937.519 195.943 936.606 195.943C935.648 195.943 934.828 195.754 934.147 195.377C933.479 194.985 932.928 194.441 932.493 193.745C932.072 193.049 931.767 192.222 931.579 191.264C931.39 190.292 931.296 189.226 931.296 188.066ZM940.152 188.066C940.152 187.297 940.109 186.564 940.022 185.868L933.559 191.765C933.806 192.592 934.176 193.252 934.669 193.745C935.162 194.238 935.808 194.485 936.606 194.485C937.882 194.485 938.789 193.955 939.326 192.896C939.877 191.837 940.152 190.227 940.152 188.066ZM933.102 188.066C933.102 188.428 933.109 188.776 933.124 189.11C933.153 189.444 933.182 189.77 933.211 190.089L939.695 184.214C939.449 183.431 939.079 182.807 938.586 182.343C938.107 181.878 937.454 181.646 936.627 181.646C935.336 181.646 934.422 182.183 933.885 183.256C933.363 184.315 933.102 185.918 933.102 188.066Z" fill="black"/>
<rect x="802.456" y="166.682" width="177" height="45" stroke="#58A982"/>
</svg>
