<svg width="1468" height="720" viewBox="0 0 1468 720" fill="none" xmlns="http://www.w3.org/2000/svg">
<rect x="100.451" y="100.094" width="1267.26" height="130" fill="#F1F7F5" stroke="#58A982"/>
<rect x="100.451" y="229.891" width="1267.26" height="130" fill="#F1F7F5" stroke="#58A982"/>
<rect x="100.451" y="359.699" width="1267.26" height="130" fill="#F1F7F5" stroke="#58A982"/>
<rect x="100.451" y="489.496" width="1267.26" height="130" fill="#F1F7F5" stroke="#58A982"/>
<path d="M619.24 121.781V299.402" stroke="black" stroke-width="2"/>
<rect x="319.373" y="116.98" width="179" height="72" fill="#FBFCFC"/>
<path d="M390.489 146.248H400.282V148.033H392.535V152.972H399.629V154.757H392.535V161.48H390.489V146.248ZM407.403 148.033H402.115V146.248H414.736V148.033H409.448V161.48H407.403V148.033ZM417.35 146.248H422.572C423.573 146.248 424.444 146.364 425.184 146.596C425.923 146.828 426.533 147.155 427.011 147.576C427.505 147.982 427.867 148.475 428.099 149.055C428.332 149.621 428.448 150.245 428.448 150.927C428.448 151.609 428.332 152.24 428.099 152.82C427.867 153.386 427.505 153.879 427.011 154.3C426.533 154.706 425.923 155.025 425.184 155.257C424.444 155.489 423.573 155.605 422.572 155.605H419.395V161.48H417.35V146.248ZM422.463 153.821C423.189 153.821 423.798 153.756 424.291 153.625C424.799 153.48 425.205 153.284 425.51 153.037C425.829 152.791 426.054 152.486 426.185 152.124C426.33 151.761 426.402 151.362 426.402 150.927C426.402 150.491 426.33 150.093 426.185 149.73C426.054 149.367 425.829 149.063 425.51 148.816C425.205 148.569 424.799 148.381 424.291 148.25C423.798 148.105 423.189 148.033 422.463 148.033H419.395V153.821H422.463Z" fill="black"/>
<rect x="319.373" y="116.98" width="179" height="72" stroke="#58A982"/>
<path d="M137.301 161.742C137.141 161.742 136.982 161.734 136.822 161.72C136.677 161.705 136.546 161.691 136.43 161.676V159.087C136.546 159.101 136.677 159.116 136.822 159.13C136.982 159.13 137.141 159.13 137.301 159.13C137.62 159.13 137.874 159.101 138.062 159.043C138.265 158.985 138.432 158.898 138.563 158.782C138.693 158.652 138.809 158.492 138.911 158.303C139.013 158.1 139.129 157.861 139.259 157.585L133.057 146.248H136.583L140.848 154.408L144.242 146.248H147.637L142.48 157.999C142.175 158.681 141.863 159.261 141.544 159.74C141.239 160.204 140.891 160.588 140.499 160.893C140.108 161.183 139.651 161.393 139.129 161.524C138.621 161.669 138.012 161.742 137.301 161.742ZM148.298 149.947H150.975V151.645C151.265 151.123 151.722 150.666 152.346 150.274C152.969 149.882 153.76 149.686 154.717 149.686C156.255 149.686 157.452 150.165 158.308 151.123C159.178 152.065 159.614 153.487 159.614 155.388V155.823C159.614 157.81 159.171 159.297 158.286 160.284C157.416 161.256 156.226 161.742 154.717 161.742C153.934 161.742 153.238 161.575 152.629 161.241C152.034 160.893 151.548 160.443 151.171 159.892V165.833H148.298V149.947ZM154.043 159.304C154.797 159.304 155.428 159.022 155.936 158.456C156.444 157.876 156.698 156.998 156.698 155.823V155.388C156.698 154.3 156.451 153.487 155.958 152.95C155.465 152.399 154.826 152.124 154.043 152.124C153.216 152.124 152.527 152.363 151.976 152.842C151.439 153.306 151.171 154.009 151.171 154.952V156.258C151.171 157.288 151.432 158.057 151.954 158.565C152.491 159.058 153.187 159.304 154.043 159.304ZM166.908 161.742C166.125 161.742 165.378 161.626 164.667 161.393C163.971 161.147 163.361 160.777 162.839 160.284C162.317 159.79 161.904 159.174 161.599 158.434C161.294 157.694 161.142 156.824 161.142 155.823V155.388C161.142 154.445 161.294 153.618 161.599 152.907C161.904 152.196 162.317 151.601 162.839 151.123C163.361 150.644 163.971 150.288 164.667 150.056C165.378 149.81 166.125 149.686 166.908 149.686C167.692 149.686 168.432 149.81 169.128 150.056C169.824 150.288 170.434 150.644 170.956 151.123C171.493 151.601 171.913 152.196 172.218 152.907C172.523 153.618 172.675 154.445 172.675 155.388V155.823C172.675 156.809 172.523 157.672 172.218 158.412C171.913 159.152 171.493 159.769 170.956 160.262C170.434 160.755 169.824 161.125 169.128 161.372C168.432 161.618 167.692 161.742 166.908 161.742ZM166.908 159.304C167.721 159.304 168.395 159.014 168.932 158.434C169.483 157.854 169.759 156.983 169.759 155.823V155.388C169.759 154.329 169.483 153.523 168.932 152.972C168.395 152.406 167.721 152.124 166.908 152.124C166.081 152.124 165.4 152.406 164.863 152.972C164.326 153.523 164.058 154.329 164.058 155.388V155.823C164.058 156.998 164.326 157.876 164.863 158.456C165.4 159.022 166.081 159.304 166.908 159.304ZM174.734 149.947H180.522C181.262 149.947 181.893 150.027 182.415 150.187C182.952 150.332 183.394 150.542 183.742 150.818C184.091 151.094 184.344 151.42 184.504 151.797C184.664 152.174 184.743 152.588 184.743 153.037C184.743 153.574 184.577 154.082 184.243 154.561C183.924 155.025 183.481 155.337 182.916 155.496C183.626 155.67 184.178 156.004 184.569 156.497C184.975 156.976 185.179 157.542 185.179 158.195C185.179 159.196 184.83 159.994 184.134 160.588C183.438 161.183 182.379 161.48 180.957 161.48H174.734V149.947ZM180.391 159.174C181.044 159.174 181.523 159.08 181.827 158.891C182.147 158.688 182.306 158.369 182.306 157.934C182.306 157.498 182.154 157.186 181.849 156.998C181.559 156.795 181.073 156.693 180.391 156.693H177.606V159.174H180.391ZM180.108 154.561C180.776 154.561 181.233 154.466 181.479 154.278C181.74 154.089 181.871 153.799 181.871 153.407C181.871 153.03 181.74 152.747 181.479 152.559C181.218 152.356 180.761 152.254 180.108 152.254H177.606V154.561H180.108ZM192.473 161.742C191.689 161.742 190.942 161.626 190.231 161.393C189.535 161.147 188.926 160.784 188.403 160.305C187.881 159.812 187.468 159.196 187.163 158.456C186.858 157.701 186.706 156.824 186.706 155.823V155.388C186.706 154.43 186.851 153.596 187.141 152.885C187.431 152.174 187.83 151.587 188.338 151.123C188.846 150.644 189.433 150.288 190.101 150.056C190.768 149.81 191.486 149.686 192.255 149.686C194.068 149.686 195.446 150.165 196.389 151.123C197.332 152.08 197.804 153.465 197.804 155.279V156.497H189.644C189.658 157.005 189.745 157.448 189.905 157.825C190.064 158.187 190.275 158.485 190.536 158.717C190.797 158.949 191.094 159.123 191.428 159.239C191.776 159.341 192.124 159.391 192.473 159.391C193.212 159.391 193.771 159.283 194.148 159.065C194.525 158.847 194.794 158.528 194.953 158.108H197.586C197.354 159.312 196.781 160.218 195.867 160.828C194.953 161.437 193.822 161.742 192.473 161.742ZM192.364 152.036C192.03 152.036 191.696 152.08 191.363 152.167C191.044 152.254 190.761 152.392 190.514 152.58C190.268 152.769 190.064 153.023 189.905 153.342C189.745 153.661 189.658 154.046 189.644 154.495H195.019C195.004 154.017 194.924 153.618 194.779 153.299C194.649 152.979 194.46 152.726 194.213 152.537C193.981 152.348 193.706 152.218 193.386 152.145C193.067 152.073 192.726 152.036 192.364 152.036ZM199.873 149.947H202.745V154.408H207.663V149.947H210.535V161.48H207.663V156.802H202.745V161.48H199.873V149.947ZM213.154 149.947H216.027V153.821H218.486C221.459 153.821 222.946 155.097 222.946 157.651C222.946 158.216 222.859 158.739 222.685 159.217C222.526 159.682 222.265 160.081 221.902 160.414C221.539 160.748 221.075 161.009 220.509 161.198C219.943 161.386 219.269 161.48 218.486 161.48H213.154V149.947ZM218.159 159.174C218.855 159.174 219.349 159.051 219.639 158.804C219.929 158.543 220.074 158.158 220.074 157.651C220.074 157.143 219.922 156.766 219.617 156.519C219.327 156.258 218.841 156.127 218.159 156.127H216.027V159.174H218.159ZM134.145 173.947H144.59V185.48H141.718V176.341H137.018V185.48H134.145V173.947ZM147.193 173.947H149.87V175.645C150.16 175.123 150.617 174.666 151.241 174.274C151.864 173.882 152.655 173.686 153.612 173.686C155.15 173.686 156.347 174.165 157.203 175.123C158.073 176.065 158.509 177.487 158.509 179.388V179.823C158.509 181.81 158.066 183.297 157.181 184.284C156.311 185.256 155.121 185.742 153.612 185.742C152.829 185.742 152.133 185.575 151.523 185.241C150.929 184.893 150.443 184.443 150.066 183.892V189.833H147.193V173.947ZM152.938 183.304C153.692 183.304 154.323 183.022 154.831 182.456C155.339 181.876 155.593 180.998 155.593 179.823V179.388C155.593 178.3 155.346 177.487 154.853 176.95C154.36 176.399 153.721 176.124 152.938 176.124C152.111 176.124 151.422 176.363 150.871 176.842C150.334 177.306 150.066 178.009 150.066 178.952V180.258C150.066 181.288 150.327 182.057 150.849 182.565C151.386 183.058 152.082 183.304 152.938 183.304ZM165.803 185.742C165.02 185.742 164.273 185.626 163.562 185.393C162.866 185.147 162.256 184.777 161.734 184.284C161.212 183.79 160.798 183.174 160.494 182.434C160.189 181.694 160.037 180.824 160.037 179.823V179.388C160.037 178.445 160.189 177.618 160.494 176.907C160.798 176.196 161.212 175.601 161.734 175.123C162.256 174.644 162.866 174.288 163.562 174.056C164.273 173.81 165.02 173.686 165.803 173.686C166.587 173.686 167.327 173.81 168.023 174.056C168.719 174.288 169.329 174.644 169.851 175.123C170.388 175.601 170.808 176.196 171.113 176.907C171.418 177.618 171.57 178.445 171.57 179.388V179.823C171.57 180.809 171.418 181.672 171.113 182.412C170.808 183.152 170.388 183.769 169.851 184.262C169.329 184.755 168.719 185.125 168.023 185.372C167.327 185.618 166.587 185.742 165.803 185.742ZM165.803 183.304C166.616 183.304 167.29 183.014 167.827 182.434C168.378 181.854 168.654 180.983 168.654 179.823V179.388C168.654 178.329 168.378 177.523 167.827 176.972C167.29 176.406 166.616 176.124 165.803 176.124C164.976 176.124 164.295 176.406 163.758 176.972C163.221 177.523 162.953 178.329 162.953 179.388V179.823C162.953 180.998 163.221 181.876 163.758 182.456C164.295 183.022 164.976 183.304 165.803 183.304ZM173.629 173.947H176.501V181.346L181.636 173.947H184.291V185.48H181.419V178.082L176.283 185.48H173.629V173.947ZM187.019 185.742C186.903 185.742 186.758 185.734 186.584 185.72C186.41 185.72 186.265 185.705 186.148 185.676V183.087C186.221 183.101 186.33 183.109 186.475 183.109C186.75 183.109 186.99 183.029 187.193 182.869C187.396 182.695 187.563 182.405 187.693 181.999C187.839 181.593 187.94 181.056 187.998 180.389C188.071 179.707 188.107 178.865 188.107 177.864V173.947H197.246V185.48H194.374V176.341H190.762V178.3C190.762 179.794 190.682 181.027 190.522 181.999C190.377 182.956 190.145 183.711 189.826 184.262C189.521 184.813 189.13 185.198 188.651 185.415C188.187 185.633 187.643 185.742 187.019 185.742ZM205.074 185.742C204.291 185.742 203.544 185.626 202.833 185.393C202.136 185.147 201.527 184.777 201.005 184.284C200.483 183.79 200.069 183.174 199.764 182.434C199.46 181.694 199.308 180.824 199.308 179.823V179.388C199.308 178.445 199.46 177.618 199.764 176.907C200.069 176.196 200.483 175.601 201.005 175.123C201.527 174.644 202.136 174.288 202.833 174.056C203.544 173.81 204.291 173.686 205.074 173.686C205.857 173.686 206.597 173.81 207.294 174.056C207.99 174.288 208.599 174.644 209.121 175.123C209.658 175.601 210.079 176.196 210.384 176.907C210.688 177.618 210.84 178.445 210.84 179.388V179.823C210.84 180.809 210.688 181.672 210.384 182.412C210.079 183.152 209.658 183.769 209.121 184.262C208.599 184.755 207.99 185.125 207.294 185.372C206.597 185.618 205.857 185.742 205.074 185.742ZM205.074 183.304C205.886 183.304 206.561 183.014 207.098 182.434C207.649 181.854 207.925 180.983 207.925 179.823V179.388C207.925 178.329 207.649 177.523 207.098 176.972C206.561 176.406 205.886 176.124 205.074 176.124C204.247 176.124 203.565 176.406 203.029 176.972C202.492 177.523 202.223 178.329 202.223 179.388V179.823C202.223 180.998 202.492 181.876 203.029 182.456C203.565 183.022 204.247 183.304 205.074 183.304ZM215.586 179.475L211.713 173.947H214.716L217.806 178.474H218.654V173.947H221.527V178.474H222.397L225.509 173.947H228.468L224.616 179.409L228.686 185.48H225.465L222.397 180.737H221.527V185.48H218.654V180.737H217.784L214.628 185.48H211.495L215.586 179.475ZM235.122 185.742C234.339 185.742 233.592 185.626 232.881 185.393C232.184 185.147 231.575 184.784 231.053 184.305C230.531 183.812 230.117 183.196 229.812 182.456C229.508 181.701 229.355 180.824 229.355 179.823V179.388C229.355 178.43 229.501 177.596 229.791 176.885C230.081 176.174 230.48 175.587 230.988 175.123C231.495 174.644 232.083 174.288 232.75 174.056C233.417 173.81 234.136 173.686 234.904 173.686C236.718 173.686 238.096 174.165 239.039 175.123C239.982 176.08 240.453 177.465 240.453 179.279V180.497H232.293C232.308 181.005 232.395 181.448 232.554 181.825C232.714 182.187 232.924 182.485 233.185 182.717C233.446 182.949 233.744 183.123 234.077 183.239C234.426 183.341 234.774 183.391 235.122 183.391C235.862 183.391 236.42 183.283 236.798 183.065C237.175 182.847 237.443 182.528 237.603 182.108H240.236C240.004 183.312 239.431 184.218 238.517 184.828C237.603 185.437 236.471 185.742 235.122 185.742ZM235.013 176.036C234.68 176.036 234.346 176.08 234.012 176.167C233.693 176.254 233.41 176.392 233.164 176.58C232.917 176.769 232.714 177.023 232.554 177.342C232.395 177.661 232.308 178.046 232.293 178.495H237.668C237.653 178.017 237.574 177.618 237.429 177.299C237.298 176.979 237.109 176.726 236.863 176.537C236.631 176.348 236.355 176.218 236.036 176.145C235.717 176.073 235.376 176.036 235.013 176.036ZM242.522 173.947H245.395V178.408H250.312V173.947H253.185V185.48H250.312V180.802H245.395V185.48H242.522V173.947ZM255.804 173.947H258.676V181.346L263.811 173.947H266.466V185.48H263.594V178.082L258.458 185.48H255.804V173.947ZM269.085 173.947H271.957V181.346L277.093 173.947H279.748V185.48H276.875V178.082L271.74 185.48H269.085V173.947ZM274.416 172.751C273.125 172.751 272.182 172.475 271.588 171.924C271.007 171.373 270.717 170.56 270.717 169.487H273.263C273.263 170.052 273.357 170.451 273.546 170.683C273.749 170.901 274.039 171.01 274.416 171.01C274.823 171.01 275.12 170.901 275.309 170.683C275.512 170.451 275.613 170.052 275.613 169.487H278.116C278.116 170.56 277.818 171.373 277.224 171.924C276.643 172.475 275.708 172.751 274.416 172.751Z" fill="black"/>
<path d="M138.171 276.157H133.275V273.459H146.331V276.157H141.435V288.691H138.171V276.157ZM146.322 277.158H148.998V278.856C149.289 278.333 149.746 277.877 150.369 277.485C150.993 277.093 151.784 276.897 152.741 276.897C154.279 276.897 155.476 277.376 156.332 278.333C157.202 279.276 157.637 280.698 157.637 282.599V283.034C157.637 285.021 157.195 286.508 156.31 287.495C155.439 288.467 154.25 288.953 152.741 288.953C151.958 288.953 151.262 288.786 150.652 288.452C150.057 288.104 149.571 287.654 149.194 287.103V293.043H146.322V277.158ZM152.067 286.515C152.821 286.515 153.452 286.232 153.96 285.667C154.468 285.086 154.721 284.209 154.721 283.034V282.599C154.721 281.51 154.475 280.698 153.982 280.161C153.488 279.61 152.85 279.334 152.067 279.334C151.24 279.334 150.551 279.574 149.999 280.053C149.463 280.517 149.194 281.22 149.194 282.163V283.469C149.194 284.499 149.455 285.268 149.978 285.776C150.514 286.269 151.211 286.515 152.067 286.515ZM163.17 288.953C162.546 288.953 161.994 288.865 161.516 288.691C161.037 288.503 160.631 288.249 160.297 287.93C159.963 287.596 159.71 287.212 159.536 286.776C159.361 286.327 159.274 285.841 159.274 285.319C159.274 282.997 160.653 281.837 163.409 281.837H166.847V281.293C166.847 280.539 166.673 280.009 166.325 279.704C165.991 279.4 165.454 279.247 164.715 279.247C164.062 279.247 163.59 279.363 163.3 279.596C163.01 279.813 162.843 280.089 162.8 280.422H159.927C159.956 279.929 160.08 279.465 160.297 279.03C160.529 278.595 160.848 278.225 161.255 277.92C161.675 277.601 162.183 277.354 162.778 277.18C163.373 276.992 164.054 276.897 164.823 276.897C165.563 276.897 166.23 276.977 166.825 277.137C167.435 277.296 167.95 277.557 168.37 277.92C168.805 278.268 169.139 278.725 169.371 279.291C169.603 279.857 169.719 280.539 169.719 281.336V285.754C169.719 286.363 169.727 286.9 169.741 287.364C169.77 287.814 169.814 288.256 169.872 288.691H167.195C167.137 288.372 167.101 288.133 167.086 287.973C167.086 287.799 167.086 287.545 167.086 287.212C166.767 287.676 166.281 288.082 165.628 288.43C164.99 288.778 164.17 288.953 163.17 288.953ZM164.062 286.733C164.41 286.733 164.751 286.689 165.084 286.602C165.418 286.501 165.715 286.356 165.977 286.167C166.238 285.964 166.448 285.71 166.608 285.406C166.767 285.101 166.847 284.746 166.847 284.339V283.795H163.953C163.402 283.795 162.966 283.926 162.647 284.187C162.343 284.434 162.19 284.775 162.19 285.21C162.19 285.674 162.35 286.044 162.669 286.32C162.988 286.595 163.452 286.733 164.062 286.733ZM172.226 277.158H175.098V281.619H180.016V277.158H182.889V288.691H180.016V284.013H175.098V288.691H172.226V277.158ZM190.621 288.953C189.823 288.953 189.076 288.829 188.38 288.583C187.698 288.336 187.103 287.966 186.596 287.473C186.088 286.98 185.689 286.363 185.399 285.623C185.109 284.883 184.964 284.02 184.964 283.034V282.599C184.964 281.67 185.116 280.85 185.42 280.14C185.725 279.429 186.131 278.834 186.639 278.355C187.161 277.877 187.763 277.514 188.445 277.267C189.127 277.021 189.852 276.897 190.621 276.897C191.434 276.897 192.152 277.006 192.775 277.224C193.414 277.441 193.951 277.739 194.386 278.116C194.821 278.493 195.162 278.936 195.409 279.443C195.655 279.951 195.8 280.495 195.844 281.075H192.928C192.812 280.539 192.572 280.118 192.21 279.813C191.862 279.494 191.332 279.334 190.621 279.334C190.244 279.334 189.889 279.4 189.555 279.53C189.236 279.661 188.946 279.864 188.685 280.14C188.438 280.401 188.242 280.734 188.097 281.141C187.952 281.547 187.879 282.033 187.879 282.599V283.034C187.879 283.643 187.945 284.173 188.075 284.622C188.22 285.057 188.416 285.42 188.663 285.71C188.909 285.986 189.2 286.189 189.533 286.32C189.867 286.45 190.23 286.515 190.621 286.515C191.187 286.515 191.673 286.37 192.079 286.08C192.5 285.776 192.783 285.34 192.928 284.775H195.844C195.771 285.413 195.59 285.993 195.3 286.515C195.024 287.023 194.654 287.458 194.19 287.821C193.74 288.184 193.211 288.467 192.601 288.67C191.992 288.858 191.332 288.953 190.621 288.953ZM197.811 277.158H208.256V288.691H205.384V279.552H200.684V288.691H197.811V277.158ZM216.082 288.953C215.298 288.953 214.551 288.836 213.84 288.604C213.144 288.358 212.535 287.988 212.012 287.495C211.49 287.001 211.077 286.385 210.772 285.645C210.468 284.905 210.315 284.035 210.315 283.034V282.599C210.315 281.656 210.468 280.829 210.772 280.118C211.077 279.407 211.49 278.812 212.012 278.333C212.535 277.855 213.144 277.499 213.84 277.267C214.551 277.021 215.298 276.897 216.082 276.897C216.865 276.897 217.605 277.021 218.301 277.267C218.998 277.499 219.607 277.855 220.129 278.333C220.666 278.812 221.087 279.407 221.391 280.118C221.696 280.829 221.848 281.656 221.848 282.599V283.034C221.848 284.02 221.696 284.883 221.391 285.623C221.087 286.363 220.666 286.98 220.129 287.473C219.607 287.966 218.998 288.336 218.301 288.583C217.605 288.829 216.865 288.953 216.082 288.953ZM216.082 286.515C216.894 286.515 217.569 286.225 218.105 285.645C218.657 285.065 218.932 284.194 218.932 283.034V282.599C218.932 281.54 218.657 280.734 218.105 280.183C217.569 279.617 216.894 279.334 216.082 279.334C215.255 279.334 214.573 279.617 214.036 280.183C213.499 280.734 213.231 281.54 213.231 282.599V283.034C213.231 284.209 213.499 285.086 214.036 285.667C214.573 286.232 215.255 286.515 216.082 286.515ZM223.907 277.158H226.583V278.856C226.874 278.333 227.331 277.877 227.954 277.485C228.578 277.093 229.369 276.897 230.326 276.897C231.864 276.897 233.061 277.376 233.917 278.333C234.787 279.276 235.222 280.698 235.222 282.599V283.034C235.222 285.021 234.78 286.508 233.895 287.495C233.024 288.467 231.835 288.953 230.326 288.953C229.543 288.953 228.847 288.786 228.237 288.452C227.642 288.104 227.156 287.654 226.779 287.103V293.043H223.907V277.158ZM229.652 286.515C230.406 286.515 231.037 286.232 231.545 285.667C232.053 285.086 232.306 284.209 232.306 283.034V282.599C232.306 281.51 232.06 280.698 231.567 280.161C231.073 279.61 230.435 279.334 229.652 279.334C228.825 279.334 228.136 279.574 227.584 280.053C227.048 280.517 226.779 281.22 226.779 282.163V283.469C226.779 284.499 227.04 285.268 227.563 285.776C228.099 286.269 228.796 286.515 229.652 286.515ZM239.889 279.552H236.212V277.158H246.439V279.552H242.762V288.691H239.889V279.552ZM248.175 277.158H251.047V281.619H255.965V277.158H258.837V288.691H255.965V284.013H251.047V288.691H248.175V277.158ZM261.456 277.158H264.329V281.032H266.352C269.326 281.032 270.813 282.308 270.813 284.862C270.813 285.427 270.726 285.95 270.552 286.428C270.393 286.893 270.131 287.291 269.769 287.625C269.406 287.959 268.942 288.22 268.376 288.409C267.81 288.597 267.136 288.691 266.352 288.691H261.456V277.158ZM266.026 286.385C266.722 286.385 267.215 286.262 267.506 286.015C267.796 285.754 267.941 285.369 267.941 284.862C267.941 284.354 267.789 283.977 267.484 283.73C267.194 283.469 266.708 283.338 266.026 283.338H264.329V286.385H266.026ZM272.075 277.158H274.948V288.691H272.075V277.158ZM277.564 277.158H280.436V284.557L285.572 277.158H288.227V288.691H285.354V281.293L280.219 288.691H277.564V277.158ZM282.895 275.962C281.604 275.962 280.661 275.686 280.066 275.135C279.486 274.583 279.196 273.771 279.196 272.698H281.742C281.742 273.263 281.836 273.662 282.025 273.894C282.228 274.112 282.518 274.221 282.895 274.221C283.301 274.221 283.599 274.112 283.787 273.894C283.991 273.662 284.092 273.263 284.092 272.698H286.595C286.595 273.771 286.297 274.583 285.702 275.135C285.122 275.686 284.186 275.962 282.895 275.962ZM136.104 317.305C135.886 317.305 135.669 317.283 135.451 317.239V314.802C135.669 314.846 135.886 314.867 136.104 314.867C136.539 314.867 136.873 314.701 137.105 314.367C137.351 314.048 137.627 313.489 137.932 312.691L133.057 301.158H136.278L139.411 309.123L142.284 301.158H145.243L140.804 312.691C140.485 313.504 140.18 314.2 139.89 314.78C139.615 315.375 139.303 315.854 138.955 316.217C138.606 316.594 138.207 316.869 137.758 317.043C137.308 317.218 136.757 317.305 136.104 317.305ZM146.768 301.158H149.445V302.856C149.735 302.333 150.192 301.877 150.816 301.485C151.439 301.093 152.23 300.897 153.187 300.897C154.725 300.897 155.922 301.376 156.778 302.333C157.648 303.276 158.084 304.698 158.084 306.599V307.034C158.084 309.021 157.641 310.508 156.756 311.495C155.886 312.467 154.696 312.953 153.187 312.953C152.404 312.953 151.708 312.786 151.098 312.452C150.504 312.104 150.018 311.654 149.641 311.103V317.043H146.768V301.158ZM152.513 310.515C153.267 310.515 153.898 310.232 154.406 309.667C154.914 309.086 155.168 308.209 155.168 307.034V306.599C155.168 305.51 154.921 304.698 154.428 304.161C153.935 303.61 153.296 303.334 152.513 303.334C151.686 303.334 150.997 303.574 150.446 304.053C149.909 304.517 149.641 305.22 149.641 306.163V307.469C149.641 308.499 149.902 309.268 150.424 309.776C150.961 310.269 151.657 310.515 152.513 310.515ZM165.378 312.953C164.595 312.953 163.848 312.836 163.137 312.604C162.441 312.358 161.831 311.988 161.309 311.495C160.787 311.001 160.373 310.385 160.069 309.645C159.764 308.905 159.612 308.035 159.612 307.034V306.599C159.612 305.656 159.764 304.829 160.069 304.118C160.373 303.407 160.787 302.812 161.309 302.333C161.831 301.855 162.441 301.499 163.137 301.267C163.848 301.021 164.595 300.897 165.378 300.897C166.162 300.897 166.902 301.021 167.598 301.267C168.294 301.499 168.904 301.855 169.426 302.333C169.963 302.812 170.383 303.407 170.688 304.118C170.993 304.829 171.145 305.656 171.145 306.599V307.034C171.145 308.02 170.993 308.883 170.688 309.623C170.383 310.363 169.963 310.98 169.426 311.473C168.904 311.966 168.294 312.336 167.598 312.583C166.902 312.829 166.162 312.953 165.378 312.953ZM165.378 310.515C166.191 310.515 166.865 310.225 167.402 309.645C167.953 309.065 168.229 308.194 168.229 307.034V306.599C168.229 305.54 167.953 304.734 167.402 304.183C166.865 303.617 166.191 303.334 165.378 303.334C164.551 303.334 163.87 303.617 163.333 304.183C162.796 304.734 162.528 305.54 162.528 306.599V307.034C162.528 308.209 162.796 309.086 163.333 309.667C163.87 310.232 164.551 310.515 165.378 310.515ZM173.204 301.158H178.992C179.732 301.158 180.363 301.238 180.885 301.398C181.422 301.543 181.864 301.753 182.212 302.029C182.561 302.304 182.814 302.631 182.974 303.008C183.134 303.385 183.213 303.799 183.213 304.248C183.213 304.785 183.047 305.293 182.713 305.772C182.394 306.236 181.951 306.548 181.385 306.707C182.096 306.881 182.648 307.215 183.039 307.708C183.445 308.187 183.649 308.753 183.649 309.406C183.649 310.407 183.3 311.204 182.604 311.799C181.908 312.394 180.849 312.691 179.427 312.691H173.204V301.158ZM178.861 310.385C179.514 310.385 179.993 310.291 180.297 310.102C180.617 309.899 180.776 309.58 180.776 309.144C180.776 308.709 180.624 308.397 180.319 308.209C180.029 308.006 179.543 307.904 178.861 307.904H176.076V310.385H178.861ZM178.578 305.772C179.246 305.772 179.703 305.677 179.949 305.489C180.21 305.3 180.341 305.01 180.341 304.618C180.341 304.241 180.21 303.958 179.949 303.77C179.688 303.567 179.231 303.465 178.578 303.465H176.076V305.772H178.578ZM190.943 312.953C190.159 312.953 189.412 312.836 188.701 312.604C188.005 312.358 187.396 311.995 186.873 311.516C186.351 311.023 185.938 310.407 185.633 309.667C185.328 308.912 185.176 308.035 185.176 307.034V306.599C185.176 305.641 185.321 304.807 185.611 304.096C185.901 303.385 186.3 302.798 186.808 302.333C187.316 301.855 187.903 301.499 188.571 301.267C189.238 301.021 189.956 300.897 190.725 300.897C192.538 300.897 193.916 301.376 194.859 302.333C195.802 303.291 196.274 304.676 196.274 306.49V307.708H188.114C188.128 308.216 188.215 308.658 188.375 309.036C188.534 309.398 188.745 309.696 189.006 309.928C189.267 310.16 189.564 310.334 189.898 310.45C190.246 310.552 190.594 310.602 190.943 310.602C191.682 310.602 192.241 310.494 192.618 310.276C192.995 310.058 193.264 309.739 193.423 309.319H196.056C195.824 310.523 195.251 311.429 194.337 312.039C193.423 312.648 192.292 312.953 190.943 312.953ZM190.834 303.247C190.5 303.247 190.166 303.291 189.833 303.378C189.514 303.465 189.231 303.603 188.984 303.791C188.737 303.98 188.534 304.234 188.375 304.553C188.215 304.872 188.128 305.257 188.114 305.706H193.488C193.474 305.228 193.394 304.829 193.249 304.51C193.119 304.19 192.93 303.936 192.683 303.748C192.451 303.559 192.176 303.429 191.856 303.356C191.537 303.284 191.196 303.247 190.834 303.247ZM198.343 301.158H201.215V305.619H206.133V301.158H209.005V312.691H206.133V308.013H201.215V312.691H198.343V301.158ZM211.624 301.158H214.497V305.032H216.955C219.929 305.032 221.416 306.308 221.416 308.862C221.416 309.427 221.329 309.95 221.155 310.428C220.996 310.893 220.735 311.291 220.372 311.625C220.009 311.959 219.545 312.22 218.979 312.409C218.413 312.597 217.739 312.691 216.955 312.691H211.624V301.158ZM216.629 310.385C217.325 310.385 217.819 310.262 218.109 310.015C218.399 309.754 218.544 309.369 218.544 308.862C218.544 308.354 218.392 307.977 218.087 307.73C217.797 307.469 217.311 307.338 216.629 307.338H214.497V310.385H216.629Z" fill="black"/>
<path d="M134.581 400.67H137.845V410.789L144.482 400.67H147.637V415.902H144.373V405.784L137.714 415.902H134.581V400.67ZM150.678 404.369H153.551V408.83H158.468V404.369H161.341V415.902H158.468V411.224H153.551V415.902H150.678V404.369ZM166.767 406.763H163.089V404.369H173.317V406.763H169.639V415.902H166.767V406.763ZM180.062 416.163C179.279 416.163 178.532 416.047 177.821 415.815C177.125 415.569 176.515 415.206 175.993 414.727C175.471 414.234 175.057 413.618 174.753 412.878C174.448 412.123 174.296 411.246 174.296 410.245V409.809C174.296 408.852 174.441 408.018 174.731 407.307C175.021 406.596 175.42 406.009 175.928 405.544C176.436 405.066 177.023 404.71 177.69 404.478C178.358 404.232 179.076 404.108 179.845 404.108C181.658 404.108 183.036 404.587 183.979 405.544C184.922 406.502 185.394 407.887 185.394 409.701V410.919H177.234C177.248 411.427 177.335 411.869 177.495 412.247C177.654 412.609 177.865 412.907 178.126 413.139C178.387 413.371 178.684 413.545 179.018 413.661C179.366 413.763 179.714 413.813 180.062 413.813C180.802 413.813 181.361 413.705 181.738 413.487C182.115 413.269 182.383 412.95 182.543 412.529H185.176C184.944 413.734 184.371 414.64 183.457 415.25C182.543 415.859 181.411 416.163 180.062 416.163ZM179.954 406.458C179.62 406.458 179.286 406.502 178.953 406.589C178.633 406.676 178.351 406.814 178.104 407.002C177.857 407.191 177.654 407.445 177.495 407.764C177.335 408.083 177.248 408.468 177.234 408.917H182.608C182.594 408.439 182.514 408.04 182.369 407.72C182.238 407.401 182.05 407.147 181.803 406.959C181.571 406.77 181.295 406.64 180.976 406.567C180.657 406.495 180.316 406.458 179.954 406.458ZM187.463 404.369H190.139V406.067C190.429 405.544 190.886 405.087 191.51 404.696C192.134 404.304 192.924 404.108 193.882 404.108C195.42 404.108 196.616 404.587 197.472 405.544C198.343 406.487 198.778 407.909 198.778 409.809V410.245C198.778 412.232 198.335 413.719 197.451 414.706C196.58 415.677 195.391 416.163 193.882 416.163C193.099 416.163 192.402 415.997 191.793 415.663C191.198 415.315 190.712 414.865 190.335 414.314V420.254H187.463V404.369ZM193.207 413.726C193.962 413.726 194.593 413.443 195.1 412.878C195.608 412.297 195.862 411.42 195.862 410.245V409.809C195.862 408.721 195.615 407.909 195.122 407.372C194.629 406.821 193.991 406.545 193.207 406.545C192.38 406.545 191.691 406.785 191.14 407.263C190.603 407.728 190.335 408.431 190.335 409.374V410.68C190.335 411.71 190.596 412.479 191.118 412.986C191.655 413.48 192.351 413.726 193.207 413.726ZM200.85 404.369H203.723V408.83H208.64V404.369H211.513V415.902H208.64V411.224H203.723V415.902H200.85V404.369ZM219.354 416.163C218.571 416.163 217.824 416.047 217.113 415.815C216.417 415.569 215.807 415.206 215.285 414.727C214.763 414.234 214.349 413.618 214.045 412.878C213.74 412.123 213.588 411.246 213.588 410.245V409.809C213.588 408.852 213.733 408.018 214.023 407.307C214.313 406.596 214.712 406.009 215.22 405.544C215.728 405.066 216.315 404.71 216.982 404.478C217.65 404.232 218.368 404.108 219.137 404.108C220.95 404.108 222.328 404.587 223.271 405.544C224.214 406.502 224.686 407.887 224.686 409.701V410.919H216.525C216.54 411.427 216.627 411.869 216.787 412.247C216.946 412.609 217.156 412.907 217.418 413.139C217.679 413.371 217.976 413.545 218.31 413.661C218.658 413.763 219.006 413.813 219.354 413.813C220.094 413.813 220.653 413.705 221.03 413.487C221.407 413.269 221.675 412.95 221.835 412.529H224.468C224.236 413.734 223.663 414.64 222.749 415.25C221.835 415.859 220.703 416.163 219.354 416.163ZM219.245 406.458C218.912 406.458 218.578 406.502 218.244 406.589C217.925 406.676 217.642 406.814 217.396 407.002C217.149 407.191 216.946 407.445 216.787 407.764C216.627 408.083 216.54 408.468 216.525 408.917H221.9C221.886 408.439 221.806 408.04 221.661 407.72C221.53 407.401 221.342 407.147 221.095 406.959C220.863 406.77 220.587 406.64 220.268 406.567C219.949 406.495 219.608 406.458 219.245 406.458ZM229.349 406.763H225.672V404.369H235.899V406.763H232.221V415.902H229.349V406.763Z" fill="black"/>
<path d="M137.301 543.37C137.141 543.37 136.982 543.363 136.822 543.349C136.677 543.334 136.546 543.32 136.43 543.305V540.716C136.546 540.73 136.677 540.745 136.822 540.759C136.982 540.759 137.141 540.759 137.301 540.759C137.62 540.759 137.874 540.73 138.062 540.672C138.265 540.614 138.432 540.527 138.563 540.411C138.693 540.281 138.809 540.121 138.911 539.932C139.013 539.729 139.129 539.49 139.259 539.214L133.057 527.877H136.583L140.848 536.037L144.242 527.877H147.637L142.48 539.628C142.175 540.31 141.863 540.89 141.544 541.369C141.239 541.833 140.891 542.217 140.499 542.522C140.108 542.812 139.651 543.022 139.129 543.153C138.621 543.298 138.012 543.37 137.301 543.37ZM148.298 531.576H150.975V533.274C151.265 532.751 151.722 532.294 152.346 531.903C152.969 531.511 153.76 531.315 154.717 531.315C156.255 531.315 157.452 531.794 158.308 532.751C159.178 533.694 159.614 535.116 159.614 537.016V537.452C159.614 539.439 159.171 540.926 158.286 541.913C157.416 542.885 156.226 543.37 154.717 543.37C153.934 543.37 153.238 543.204 152.629 542.87C152.034 542.522 151.548 542.072 151.171 541.521V547.461H148.298V531.576ZM154.043 540.933C154.797 540.933 155.428 540.65 155.936 540.085C156.444 539.504 156.698 538.627 156.698 537.452V537.016C156.698 535.928 156.451 535.116 155.958 534.579C155.465 534.028 154.826 533.752 154.043 533.752C153.216 533.752 152.527 533.992 151.976 534.471C151.439 534.935 151.171 535.638 151.171 536.581V537.887C151.171 538.917 151.432 539.686 151.954 540.193C152.491 540.687 153.187 540.933 154.043 540.933ZM166.908 543.37C166.125 543.37 165.378 543.254 164.667 543.022C163.971 542.776 163.361 542.406 162.839 541.913C162.317 541.419 161.904 540.803 161.599 540.063C161.294 539.323 161.142 538.453 161.142 537.452V537.016C161.142 536.074 161.294 535.247 161.599 534.536C161.904 533.825 162.317 533.23 162.839 532.751C163.361 532.273 163.971 531.917 164.667 531.685C165.378 531.439 166.125 531.315 166.908 531.315C167.692 531.315 168.432 531.439 169.128 531.685C169.824 531.917 170.434 532.273 170.956 532.751C171.493 533.23 171.913 533.825 172.218 534.536C172.523 535.247 172.675 536.074 172.675 537.016V537.452C172.675 538.438 172.523 539.301 172.218 540.041C171.913 540.781 171.493 541.398 170.956 541.891C170.434 542.384 169.824 542.754 169.128 543.001C168.432 543.247 167.692 543.37 166.908 543.37ZM166.908 540.933C167.721 540.933 168.395 540.643 168.932 540.063C169.483 539.483 169.759 538.612 169.759 537.452V537.016C169.759 535.957 169.483 535.152 168.932 534.601C168.395 534.035 167.721 533.752 166.908 533.752C166.081 533.752 165.4 534.035 164.863 534.601C164.326 535.152 164.058 535.957 164.058 537.016V537.452C164.058 538.627 164.326 539.504 164.863 540.085C165.4 540.65 166.081 540.933 166.908 540.933ZM174.734 531.576H180.522C181.262 531.576 181.893 531.656 182.415 531.816C182.952 531.961 183.394 532.171 183.742 532.447C184.091 532.722 184.344 533.049 184.504 533.426C184.664 533.803 184.743 534.217 184.743 534.666C184.743 535.203 184.577 535.711 184.243 536.19C183.924 536.654 183.481 536.966 182.916 537.125C183.626 537.299 184.178 537.633 184.569 538.126C184.975 538.605 185.179 539.171 185.179 539.824C185.179 540.825 184.83 541.622 184.134 542.217C183.438 542.812 182.379 543.109 180.957 543.109H174.734V531.576ZM180.391 540.803C181.044 540.803 181.523 540.708 181.827 540.52C182.147 540.317 182.306 539.998 182.306 539.562C182.306 539.127 182.154 538.815 181.849 538.627C181.559 538.424 181.073 538.322 180.391 538.322H177.606V540.803H180.391ZM180.108 536.19C180.776 536.19 181.233 536.095 181.479 535.907C181.74 535.718 181.871 535.428 181.871 535.036C181.871 534.659 181.74 534.376 181.479 534.188C181.218 533.985 180.761 533.883 180.108 533.883H177.606V536.19H180.108ZM192.473 543.37C191.689 543.37 190.942 543.254 190.231 543.022C189.535 542.776 188.926 542.413 188.403 541.934C187.881 541.441 187.468 540.825 187.163 540.085C186.858 539.33 186.706 538.453 186.706 537.452V537.016C186.706 536.059 186.851 535.225 187.141 534.514C187.431 533.803 187.83 533.216 188.338 532.751C188.846 532.273 189.433 531.917 190.101 531.685C190.768 531.439 191.486 531.315 192.255 531.315C194.068 531.315 195.446 531.794 196.389 532.751C197.332 533.709 197.804 535.094 197.804 536.908V538.126H189.644C189.658 538.634 189.745 539.076 189.905 539.454C190.064 539.816 190.275 540.114 190.536 540.346C190.797 540.578 191.094 540.752 191.428 540.868C191.776 540.97 192.124 541.02 192.473 541.02C193.212 541.02 193.771 540.912 194.148 540.694C194.525 540.476 194.794 540.157 194.953 539.737H197.586C197.354 540.941 196.781 541.847 195.867 542.457C194.953 543.066 193.822 543.37 192.473 543.37ZM192.364 533.665C192.03 533.665 191.696 533.709 191.363 533.796C191.044 533.883 190.761 534.021 190.514 534.209C190.268 534.398 190.064 534.652 189.905 534.971C189.745 535.29 189.658 535.675 189.644 536.124H195.019C195.004 535.646 194.924 535.247 194.779 534.927C194.649 534.608 194.46 534.354 194.213 534.166C193.981 533.977 193.706 533.847 193.386 533.774C193.067 533.702 192.726 533.665 192.364 533.665ZM199.873 531.576H202.745V536.037H207.663V531.576H210.535V543.109H207.663V538.431H202.745V543.109H199.873V531.576ZM213.154 531.576H216.027V535.45H218.486C221.459 535.45 222.946 536.726 222.946 539.28C222.946 539.845 222.859 540.368 222.685 540.846C222.526 541.311 222.265 541.709 221.902 542.043C221.539 542.377 221.075 542.638 220.509 542.826C219.943 543.015 219.269 543.109 218.486 543.109H213.154V531.576ZM218.159 540.803C218.855 540.803 219.349 540.679 219.639 540.433C219.929 540.172 220.074 539.787 220.074 539.28C220.074 538.772 219.922 538.395 219.617 538.148C219.327 537.887 218.841 537.756 218.159 537.756H216.027V540.803H218.159ZM235.353 543.37C234.555 543.37 233.808 543.247 233.112 543.001C232.43 542.754 231.835 542.384 231.328 541.891C230.82 541.398 230.421 540.781 230.131 540.041C229.841 539.301 229.695 538.438 229.695 537.452V537.016C229.695 536.088 229.848 535.268 230.152 534.558C230.457 533.847 230.863 533.252 231.371 532.773C231.893 532.294 232.495 531.932 233.177 531.685C233.859 531.439 234.584 531.315 235.353 531.315C236.166 531.315 236.884 531.424 237.507 531.642C238.146 531.859 238.683 532.157 239.118 532.534C239.553 532.911 239.894 533.353 240.14 533.861C240.387 534.369 240.532 534.913 240.576 535.493H237.66C237.544 534.956 237.304 534.536 236.942 534.231C236.594 533.912 236.064 533.752 235.353 533.752C234.976 533.752 234.621 533.818 234.287 533.948C233.968 534.079 233.678 534.282 233.417 534.558C233.17 534.819 232.974 535.152 232.829 535.559C232.684 535.965 232.611 536.451 232.611 537.016V537.452C232.611 538.061 232.677 538.59 232.807 539.04C232.952 539.475 233.148 539.838 233.395 540.128C233.641 540.404 233.932 540.607 234.265 540.737C234.599 540.868 234.962 540.933 235.353 540.933C235.919 540.933 236.405 540.788 236.811 540.498C237.232 540.193 237.515 539.758 237.66 539.193H240.576C240.503 539.831 240.322 540.411 240.032 540.933C239.756 541.441 239.386 541.876 238.922 542.239C238.472 542.602 237.943 542.885 237.333 543.088C236.724 543.276 236.064 543.37 235.353 543.37ZM247.766 543.37C246.983 543.37 246.235 543.254 245.525 543.022C244.828 542.776 244.219 542.413 243.697 541.934C243.175 541.441 242.761 540.825 242.456 540.085C242.152 539.33 241.999 538.453 241.999 537.452V537.016C241.999 536.059 242.145 535.225 242.435 534.514C242.725 533.803 243.124 533.216 243.631 532.751C244.139 532.273 244.727 531.917 245.394 531.685C246.061 531.439 246.779 531.315 247.548 531.315C249.362 531.315 250.74 531.794 251.683 532.751C252.626 533.709 253.097 535.094 253.097 536.908V538.126H244.937C244.952 538.634 245.039 539.076 245.198 539.454C245.358 539.816 245.568 540.114 245.829 540.346C246.09 540.578 246.388 540.752 246.721 540.868C247.07 540.97 247.418 541.02 247.766 541.02C248.506 541.02 249.064 540.912 249.441 540.694C249.819 540.476 250.087 540.157 250.247 539.737H252.88C252.648 540.941 252.074 541.847 251.161 542.457C250.247 543.066 249.115 543.37 247.766 543.37ZM247.657 533.665C247.323 533.665 246.99 533.709 246.656 533.796C246.337 533.883 246.054 534.021 245.808 534.209C245.561 534.398 245.358 534.652 245.198 534.971C245.039 535.29 244.952 535.675 244.937 536.124H250.312C250.297 535.646 250.218 535.247 250.073 534.927C249.942 534.608 249.753 534.354 249.507 534.166C249.275 533.977 248.999 533.847 248.68 533.774C248.361 533.702 248.02 533.665 247.657 533.665ZM257.761 533.97H254.083V531.576H264.311V533.97H260.633V543.109H257.761V533.97ZM271.056 543.37C270.273 543.37 269.526 543.254 268.815 543.022C268.119 542.776 267.509 542.413 266.987 541.934C266.465 541.441 266.051 540.825 265.747 540.085C265.442 539.33 265.29 538.453 265.29 537.452V537.016C265.29 536.059 265.435 535.225 265.725 534.514C266.015 533.803 266.414 533.216 266.922 532.751C267.43 532.273 268.017 531.917 268.684 531.685C269.352 531.439 270.07 531.315 270.839 531.315C272.652 531.315 274.03 531.794 274.973 532.751C275.916 533.709 276.388 535.094 276.388 536.908V538.126H268.227C268.242 538.634 268.329 539.076 268.489 539.454C268.648 539.816 268.859 540.114 269.12 540.346C269.381 540.578 269.678 540.752 270.012 540.868C270.36 540.97 270.708 541.02 271.056 541.02C271.796 541.02 272.355 540.912 272.732 540.694C273.109 540.476 273.377 540.157 273.537 539.737H276.17C275.938 540.941 275.365 541.847 274.451 542.457C273.537 543.066 272.405 543.37 271.056 543.37ZM270.948 533.665C270.614 533.665 270.28 533.709 269.947 533.796C269.627 533.883 269.345 534.021 269.098 534.209C268.851 534.398 268.648 534.652 268.489 534.971C268.329 535.29 268.242 535.675 268.227 536.124H273.602C273.588 535.646 273.508 535.247 273.363 534.927C273.232 534.608 273.044 534.354 272.797 534.166C272.565 533.977 272.289 533.847 271.97 533.774C271.651 533.702 271.31 533.665 270.948 533.665ZM278.457 531.576H284.245C284.985 531.576 285.616 531.656 286.138 531.816C286.675 531.961 287.117 532.171 287.465 532.447C287.813 532.722 288.067 533.049 288.227 533.426C288.387 533.803 288.466 534.217 288.466 534.666C288.466 535.203 288.299 535.711 287.966 536.19C287.647 536.654 287.204 536.966 286.638 537.125C287.349 537.299 287.901 537.633 288.292 538.126C288.698 538.605 288.901 539.171 288.901 539.824C288.901 540.825 288.553 541.622 287.857 542.217C287.161 542.812 286.102 543.109 284.68 543.109H278.457V531.576ZM284.114 540.803C284.767 540.803 285.246 540.708 285.55 540.52C285.87 540.317 286.029 539.998 286.029 539.562C286.029 539.127 285.877 538.815 285.572 538.627C285.282 538.424 284.796 538.322 284.114 538.322H281.329V540.803H284.114ZM283.831 536.19C284.499 536.19 284.956 536.095 285.202 535.907C285.463 535.718 285.594 535.428 285.594 535.036C285.594 534.659 285.463 534.376 285.202 534.188C284.941 533.985 284.484 533.883 283.831 533.883H281.329V536.19H283.831ZM296.195 543.37C295.412 543.37 294.665 543.254 293.954 543.022C293.258 542.776 292.649 542.406 292.126 541.913C291.604 541.419 291.191 540.803 290.886 540.063C290.581 539.323 290.429 538.453 290.429 537.452V537.016C290.429 536.074 290.581 535.247 290.886 534.536C291.191 533.825 291.604 533.23 292.126 532.751C292.649 532.273 293.258 531.917 293.954 531.685C294.665 531.439 295.412 531.315 296.195 531.315C296.979 531.315 297.719 531.439 298.415 531.685C299.111 531.917 299.721 532.273 300.243 532.751C300.78 533.23 301.2 533.825 301.505 534.536C301.81 535.247 301.962 536.074 301.962 537.016V537.452C301.962 538.438 301.81 539.301 301.505 540.041C301.2 540.781 300.78 541.398 300.243 541.891C299.721 542.384 299.111 542.754 298.415 543.001C297.719 543.247 296.979 543.37 296.195 543.37ZM296.195 540.933C297.008 540.933 297.682 540.643 298.219 540.063C298.77 539.483 299.046 538.612 299.046 537.452V537.016C299.046 535.957 298.77 535.152 298.219 534.601C297.682 534.035 297.008 533.752 296.195 533.752C295.369 533.752 294.687 534.035 294.15 534.601C293.613 535.152 293.345 535.957 293.345 537.016V537.452C293.345 538.627 293.613 539.504 294.15 540.085C294.687 540.65 295.369 540.933 296.195 540.933ZM304.238 531.576H312.507V533.97H307.111V543.109H304.238V531.576ZM319.252 543.37C318.469 543.37 317.722 543.254 317.011 543.022C316.314 542.776 315.705 542.406 315.183 541.913C314.661 541.419 314.247 540.803 313.943 540.063C313.638 539.323 313.486 538.453 313.486 537.452V537.016C313.486 536.074 313.638 535.247 313.943 534.536C314.247 533.825 314.661 533.23 315.183 532.751C315.705 532.273 316.314 531.917 317.011 531.685C317.722 531.439 318.469 531.315 319.252 531.315C320.035 531.315 320.775 531.439 321.472 531.685C322.168 531.917 322.777 532.273 323.3 532.751C323.836 533.23 324.257 533.825 324.562 534.536C324.866 535.247 325.019 536.074 325.019 537.016V537.452C325.019 538.438 324.866 539.301 324.562 540.041C324.257 540.781 323.836 541.398 323.3 541.891C322.777 542.384 322.168 542.754 321.472 543.001C320.775 543.247 320.035 543.37 319.252 543.37ZM319.252 540.933C320.064 540.933 320.739 540.643 321.276 540.063C321.827 539.483 322.103 538.612 322.103 537.452V537.016C322.103 535.957 321.827 535.152 321.276 534.601C320.739 534.035 320.064 533.752 319.252 533.752C318.425 533.752 317.743 534.035 317.207 534.601C316.67 535.152 316.401 535.957 316.401 537.016V537.452C316.401 538.627 316.67 539.504 317.207 540.085C317.743 540.65 318.425 540.933 319.252 540.933ZM133.275 564.716H134.581C134.726 564.498 134.856 564.186 134.972 563.78C135.088 563.359 135.175 562.895 135.233 562.387C135.306 561.865 135.357 561.321 135.386 560.755C135.429 560.175 135.451 559.609 135.451 559.058V555.576H144.482V564.716H145.896V569.829H143.372V567.109H135.799V569.829H133.275V564.716ZM141.609 564.716V557.97H138.084V559.493C138.084 560.001 138.07 560.501 138.041 560.995C138.012 561.488 137.968 561.967 137.91 562.431C137.866 562.881 137.801 563.301 137.714 563.693C137.627 564.085 137.518 564.426 137.388 564.716H141.609ZM152.968 567.37C152.185 567.37 151.438 567.254 150.727 567.022C150.031 566.776 149.421 566.406 148.899 565.913C148.377 565.419 147.963 564.803 147.659 564.063C147.354 563.323 147.202 562.453 147.202 561.452V561.016C147.202 560.074 147.354 559.247 147.659 558.536C147.963 557.825 148.377 557.23 148.899 556.751C149.421 556.273 150.031 555.917 150.727 555.685C151.438 555.439 152.185 555.315 152.968 555.315C153.752 555.315 154.491 555.439 155.188 555.685C155.884 555.917 156.493 556.273 157.016 556.751C157.552 557.23 157.973 557.825 158.278 558.536C158.582 559.247 158.735 560.074 158.735 561.016V561.452C158.735 562.438 158.582 563.301 158.278 564.041C157.973 564.781 157.552 565.398 157.016 565.891C156.493 566.384 155.884 566.754 155.188 567.001C154.491 567.247 153.752 567.37 152.968 567.37ZM152.968 564.933C153.781 564.933 154.455 564.643 154.992 564.063C155.543 563.483 155.819 562.612 155.819 561.452V561.016C155.819 559.957 155.543 559.152 154.992 558.601C154.455 558.035 153.781 557.752 152.968 557.752C152.141 557.752 151.459 558.035 150.923 558.601C150.386 559.152 150.118 559.957 150.118 561.016V561.452C150.118 562.627 150.386 563.504 150.923 564.085C151.459 564.65 152.141 564.933 152.968 564.933ZM165.907 567.37C165.109 567.37 164.362 567.247 163.666 567.001C162.984 566.754 162.389 566.384 161.881 565.891C161.374 565.398 160.975 564.781 160.685 564.041C160.394 563.301 160.249 562.438 160.249 561.452V561.016C160.249 560.088 160.402 559.268 160.706 558.558C161.011 557.847 161.417 557.252 161.925 556.773C162.447 556.294 163.049 555.932 163.731 555.685C164.413 555.439 165.138 555.315 165.907 555.315C166.719 555.315 167.438 555.424 168.061 555.642C168.7 555.859 169.236 556.157 169.672 556.534C170.107 556.911 170.448 557.353 170.694 557.861C170.941 558.369 171.086 558.913 171.13 559.493H168.214C168.098 558.956 167.858 558.536 167.496 558.231C167.147 557.912 166.618 557.752 165.907 557.752C165.53 557.752 165.174 557.818 164.841 557.948C164.522 558.079 164.232 558.282 163.97 558.558C163.724 558.819 163.528 559.152 163.383 559.559C163.238 559.965 163.165 560.451 163.165 561.016V561.452C163.165 562.061 163.231 562.59 163.361 563.04C163.506 563.475 163.702 563.838 163.949 564.128C164.195 564.404 164.485 564.607 164.819 564.737C165.153 564.868 165.515 564.933 165.907 564.933C166.473 564.933 166.959 564.788 167.365 564.498C167.786 564.193 168.069 563.758 168.214 563.193H171.13C171.057 563.831 170.876 564.411 170.586 564.933C170.31 565.441 169.94 565.876 169.476 566.239C169.026 566.602 168.497 566.885 167.887 567.088C167.278 567.276 166.618 567.37 165.907 567.37ZM175.904 557.97H172.227V555.576H182.454V557.97H178.777V567.109H175.904V557.97ZM186.573 571.723C186.356 571.723 186.138 571.701 185.921 571.657V569.22C186.138 569.264 186.356 569.285 186.573 569.285C187.009 569.285 187.342 569.119 187.574 568.785C187.821 568.466 188.097 567.907 188.401 567.109L183.527 555.576H186.748L189.881 563.541L192.753 555.576H195.713L191.274 567.109C190.955 567.922 190.65 568.618 190.36 569.198C190.084 569.793 189.772 570.272 189.424 570.635C189.076 571.012 188.677 571.287 188.227 571.461C187.778 571.636 187.226 571.723 186.573 571.723ZM197.238 555.576H207.683V567.109H204.81V557.97H200.11V567.109H197.238V555.576ZM213.745 567.37C213.122 567.37 212.57 567.283 212.092 567.109C211.613 566.921 211.207 566.667 210.873 566.348C210.539 566.014 210.285 565.63 210.111 565.194C209.937 564.745 209.85 564.259 209.85 563.737C209.85 561.415 211.228 560.255 213.985 560.255H217.423V559.711C217.423 558.956 217.249 558.427 216.901 558.122C216.567 557.818 216.03 557.665 215.29 557.665C214.638 557.665 214.166 557.781 213.876 558.014C213.586 558.231 213.419 558.507 213.375 558.84H210.503C210.532 558.347 210.655 557.883 210.873 557.448C211.105 557.013 211.424 556.643 211.83 556.338C212.251 556.019 212.759 555.772 213.354 555.598C213.948 555.41 214.63 555.315 215.399 555.315C216.139 555.315 216.806 555.395 217.401 555.555C218.01 555.714 218.525 555.975 218.946 556.338C219.381 556.686 219.715 557.143 219.947 557.709C220.179 558.275 220.295 558.956 220.295 559.754V564.172C220.295 564.781 220.302 565.318 220.317 565.782C220.346 566.232 220.389 566.674 220.448 567.109H217.771C217.713 566.79 217.677 566.551 217.662 566.391C217.662 566.217 217.662 565.963 217.662 565.63C217.343 566.094 216.857 566.5 216.204 566.848C215.566 567.196 214.746 567.37 213.745 567.37ZM214.638 565.151C214.986 565.151 215.327 565.107 215.66 565.02C215.994 564.919 216.291 564.774 216.552 564.585C216.814 564.382 217.024 564.128 217.183 563.824C217.343 563.519 217.423 563.163 217.423 562.757V562.213H214.529C213.977 562.213 213.542 562.344 213.223 562.605C212.918 562.852 212.766 563.193 212.766 563.628C212.766 564.092 212.926 564.462 213.245 564.737C213.564 565.013 214.028 565.151 214.638 565.151Z" fill="black"/>
<rect x="524.49" y="116.98" width="179" height="72" fill="#FBFCFC"/>
<path d="M586.841 146.248H588.886V152.755H596.981V146.248H599.027V161.48H596.981V154.539H588.886V161.48H586.841V146.248ZM606.921 148.033H601.633V146.248H614.254V148.033H608.966V161.48H606.921V148.033ZM621.286 148.033H615.998V146.248H628.619V148.033H623.331V161.48H621.286V148.033ZM631.233 146.248H636.455C637.456 146.248 638.327 146.364 639.066 146.596C639.806 146.828 640.416 147.155 640.894 147.576C641.388 147.982 641.75 148.475 641.982 149.055C642.214 149.621 642.331 150.245 642.331 150.927C642.331 151.609 642.214 152.24 641.982 152.82C641.75 153.386 641.388 153.879 640.894 154.3C640.416 154.706 639.806 155.025 639.066 155.257C638.327 155.489 637.456 155.605 636.455 155.605H633.278V161.48H631.233V146.248ZM636.346 153.821C637.072 153.821 637.681 153.756 638.174 153.625C638.682 153.48 639.088 153.284 639.393 153.037C639.712 152.791 639.937 152.486 640.067 152.124C640.213 151.761 640.285 151.362 640.285 150.927C640.285 150.491 640.213 150.093 640.067 149.73C639.937 149.367 639.712 149.063 639.393 148.816C639.088 148.569 638.682 148.381 638.174 148.25C637.681 148.105 637.072 148.033 636.346 148.033H633.278V153.821H636.346Z" fill="black"/>
<rect x="524.49" y="116.98" width="179" height="72" stroke="#58A982"/>
<rect x="729.607" y="116.98" width="179" height="72" fill="#FBFCFC"/>
<path d="M795.874 161.698C794.96 161.698 794.162 161.589 793.48 161.372C792.799 161.154 792.226 160.857 791.761 160.479C791.297 160.088 790.927 159.638 790.652 159.13C790.39 158.608 790.209 158.05 790.108 157.455H792.153C792.226 157.788 792.349 158.108 792.523 158.412C792.697 158.702 792.929 158.956 793.219 159.174C793.524 159.391 793.894 159.566 794.329 159.696C794.764 159.812 795.279 159.87 795.874 159.87C797.093 159.87 798.014 159.638 798.638 159.174C799.276 158.71 799.595 158.137 799.595 157.455C799.595 157.034 799.522 156.679 799.377 156.389C799.247 156.098 799.015 155.845 798.681 155.627C798.362 155.409 797.934 155.213 797.397 155.039C796.875 154.865 796.229 154.691 795.461 154.517C794.605 154.329 793.865 154.125 793.241 153.908C792.632 153.676 792.124 153.393 791.718 153.059C791.326 152.711 791.029 152.298 790.826 151.819C790.637 151.34 790.543 150.753 790.543 150.056C790.543 149.491 790.666 148.968 790.913 148.49C791.159 147.996 791.507 147.568 791.957 147.206C792.421 146.843 792.98 146.56 793.633 146.357C794.3 146.139 795.047 146.031 795.874 146.031C796.686 146.031 797.397 146.139 798.007 146.357C798.616 146.56 799.131 146.843 799.551 147.206C799.987 147.568 800.328 147.996 800.574 148.49C800.821 148.968 800.995 149.491 801.096 150.056H799.051C798.978 149.752 798.87 149.469 798.725 149.208C798.58 148.932 798.376 148.7 798.115 148.511C797.869 148.308 797.557 148.149 797.18 148.033C796.817 147.917 796.382 147.858 795.874 147.858C794.83 147.858 794.017 148.076 793.437 148.511C792.871 148.932 792.588 149.447 792.588 150.056C792.588 150.448 792.661 150.789 792.806 151.079C792.951 151.355 793.176 151.601 793.48 151.819C793.785 152.022 794.169 152.203 794.634 152.363C795.112 152.508 795.678 152.653 796.331 152.798C797.274 153.001 798.079 153.233 798.746 153.494C799.428 153.741 799.979 154.046 800.4 154.408C800.835 154.771 801.147 155.199 801.336 155.692C801.539 156.185 801.64 156.773 801.64 157.455C801.64 158.05 801.51 158.608 801.249 159.13C800.988 159.638 800.611 160.088 800.117 160.479C799.624 160.857 799.022 161.154 798.311 161.372C797.6 161.589 796.788 161.698 795.874 161.698ZM805.006 146.248H807.138L812.23 155.932L817.322 146.248H819.368V161.48H817.322V149.947L812.948 158.216H811.425L807.051 149.947V161.48H805.006V146.248ZM827.274 148.033H821.986V146.248H834.607V148.033H829.32V161.48H827.274V148.033ZM837.221 146.248H842.444C843.445 146.248 844.315 146.364 845.055 146.596C845.795 146.828 846.404 147.155 846.883 147.576C847.376 147.982 847.739 148.475 847.971 149.055C848.203 149.621 848.319 150.245 848.319 150.927C848.319 151.609 848.203 152.24 847.971 152.82C847.739 153.386 847.376 153.879 846.883 154.3C846.404 154.706 845.795 155.025 845.055 155.257C844.315 155.489 843.445 155.605 842.444 155.605H839.267V161.48H837.221V146.248ZM842.335 153.821C843.06 153.821 843.67 153.756 844.163 153.625C844.671 153.48 845.077 153.284 845.381 153.037C845.7 152.791 845.925 152.486 846.056 152.124C846.201 151.761 846.274 151.362 846.274 150.927C846.274 150.491 846.201 150.093 846.056 149.73C845.925 149.367 845.7 149.063 845.381 148.816C845.077 148.569 844.671 148.381 844.163 148.25C843.67 148.105 843.06 148.033 842.335 148.033H839.267V153.821H842.335Z" fill="black"/>
<rect x="729.607" y="116.98" width="179" height="72" stroke="#58A982"/>
<rect x="934.725" y="116.98" width="179" height="72" fill="#FBFCFC"/>
<path d="M1003.56 146.248H1008.02C1009.16 146.248 1010.19 146.408 1011.09 146.727C1011.99 147.032 1012.75 147.489 1013.37 148.098C1013.99 148.707 1014.47 149.469 1014.81 150.383C1015.14 151.297 1015.31 152.348 1015.31 153.538V153.973C1015.31 155.192 1015.13 156.272 1014.78 157.215C1014.45 158.144 1013.96 158.927 1013.31 159.566C1012.67 160.189 1011.88 160.668 1010.96 161.002C1010.03 161.321 1008.97 161.48 1007.8 161.48H1003.56V146.248ZM1007.58 159.696C1008.44 159.696 1009.21 159.587 1009.89 159.37C1010.59 159.152 1011.17 158.818 1011.65 158.369C1012.13 157.905 1012.49 157.31 1012.74 156.584C1013 155.859 1013.13 154.989 1013.13 153.973V153.538C1013.13 152.566 1013.01 151.732 1012.76 151.036C1012.51 150.339 1012.16 149.773 1011.69 149.338C1011.23 148.888 1010.66 148.562 1010 148.359C1009.34 148.141 1008.61 148.033 1007.8 148.033H1005.6V159.696H1007.58ZM1018.79 146.248H1020.79L1028.98 158.108V146.248H1030.98V161.48H1028.98L1020.79 149.621V161.48H1018.79V146.248ZM1040.11 161.698C1039.2 161.698 1038.4 161.589 1037.72 161.372C1037.04 161.154 1036.46 160.857 1036 160.479C1035.54 160.088 1035.17 159.638 1034.89 159.13C1034.63 158.608 1034.45 158.05 1034.35 157.455H1036.39C1036.46 157.788 1036.59 158.108 1036.76 158.412C1036.94 158.702 1037.17 158.956 1037.46 159.174C1037.76 159.391 1038.13 159.566 1038.57 159.696C1039 159.812 1039.52 159.87 1040.11 159.87C1041.33 159.87 1042.25 159.638 1042.88 159.174C1043.51 158.71 1043.83 158.137 1043.83 157.455C1043.83 157.034 1043.76 156.679 1043.62 156.389C1043.49 156.098 1043.25 155.845 1042.92 155.627C1042.6 155.409 1042.17 155.213 1041.64 155.039C1041.11 154.865 1040.47 154.691 1039.7 154.517C1038.84 154.329 1038.1 154.125 1037.48 153.908C1036.87 153.676 1036.36 153.393 1035.96 153.059C1035.57 152.711 1035.27 152.298 1035.06 151.819C1034.88 151.34 1034.78 150.753 1034.78 150.056C1034.78 149.491 1034.91 148.968 1035.15 148.49C1035.4 147.996 1035.75 147.568 1036.2 147.206C1036.66 146.843 1037.22 146.56 1037.87 146.357C1038.54 146.139 1039.29 146.031 1040.11 146.031C1040.93 146.031 1041.64 146.139 1042.25 146.357C1042.85 146.56 1043.37 146.843 1043.79 147.206C1044.23 147.568 1044.57 147.996 1044.81 148.49C1045.06 148.968 1045.23 149.491 1045.34 150.056H1043.29C1043.22 149.752 1043.11 149.469 1042.96 149.208C1042.82 148.932 1042.62 148.7 1042.35 148.511C1042.11 148.308 1041.8 148.149 1041.42 148.033C1041.06 147.917 1040.62 147.858 1040.11 147.858C1039.07 147.858 1038.26 148.076 1037.68 148.511C1037.11 148.932 1036.83 149.447 1036.83 150.056C1036.83 150.448 1036.9 150.789 1037.04 151.079C1037.19 151.355 1037.41 151.601 1037.72 151.819C1038.02 152.022 1038.41 152.203 1038.87 152.363C1039.35 152.508 1039.92 152.653 1040.57 152.798C1041.51 153.001 1042.32 153.233 1042.99 153.494C1043.67 153.741 1044.22 154.046 1044.64 154.408C1045.07 154.771 1045.39 155.199 1045.57 155.692C1045.78 156.185 1045.88 156.773 1045.88 157.455C1045.88 158.05 1045.75 158.608 1045.49 159.13C1045.23 159.638 1044.85 160.088 1044.36 160.479C1043.86 160.857 1043.26 161.154 1042.55 161.372C1041.84 161.589 1041.03 161.698 1040.11 161.698Z" fill="black"/>
<rect x="934.725" y="116.98" width="179" height="72" stroke="#58A982"/>
<rect x="1139.84" y="116.98" width="179" height="72" fill="#FBFCFC"/>
<path d="M1207.76 148.033H1202.47V146.248H1215.09V148.033H1209.8V161.48H1207.76V148.033ZM1217.71 146.248H1227.5V148.033H1219.75V152.972H1226.84V154.757H1219.75V161.48H1217.71V146.248ZM1234.62 148.033H1229.33V146.248H1241.95V148.033H1236.66V161.48H1234.62V148.033ZM1244.57 146.248H1249.79C1250.79 146.248 1251.66 146.364 1252.4 146.596C1253.14 146.828 1253.75 147.155 1254.23 147.576C1254.72 147.982 1255.08 148.475 1255.32 149.055C1255.55 149.621 1255.66 150.245 1255.66 150.927C1255.66 151.609 1255.55 152.24 1255.32 152.82C1255.08 153.386 1254.72 153.879 1254.23 154.3C1253.75 154.706 1253.14 155.025 1252.4 155.257C1251.66 155.489 1250.79 155.605 1249.79 155.605H1246.61V161.48H1244.57V146.248ZM1249.68 153.821C1250.4 153.821 1251.01 153.756 1251.51 153.625C1252.01 153.48 1252.42 153.284 1252.73 153.037C1253.04 152.791 1253.27 152.486 1253.4 152.124C1253.55 151.761 1253.62 151.362 1253.62 150.927C1253.62 150.491 1253.55 150.093 1253.4 149.73C1253.27 149.367 1253.04 149.063 1252.73 148.816C1252.42 148.569 1252.01 148.381 1251.51 148.25C1251.01 148.105 1250.4 148.033 1249.68 148.033H1246.61V153.821H1249.68Z" fill="black"/>
<rect x="1139.84" y="116.98" width="179" height="72" stroke="#58A982"/>
<path d="M425.596 188.98L616.852 299.402" stroke="black" stroke-width="2"/>
<path d="M627.852 299.402L819.108 188.98" stroke="black" stroke-width="2"/>
<path d="M1038.09 299.402L1229.34 188.98" stroke="black" stroke-width="2"/>
<path d="M928.596 399.113L1119.85 288.691" stroke="black" stroke-width="2"/>
<path d="M1010.36 188.98L1201.62 299.402" stroke="black" stroke-width="2"/>
<path d="M616.852 296.98L808.108 407.402" stroke="black" stroke-width="2"/>
<path d="M865.518 419.902L1056.77 530.324" stroke="black" stroke-width="2"/>
<path d="M672.777 530.324L864.034 419.902" stroke="black" stroke-width="2"/>
<path d="M627.852 299.402L1010.36 188.98" stroke="black" stroke-width="2"/>
<rect x="529.74" y="250.445" width="179" height="72" fill="#FBFCFC"/>
<path d="M603.904 281.497H598.616V279.713H611.237V281.497H605.95V294.945H603.904V281.497ZM618.975 295.163C618.119 295.163 617.307 295.018 616.538 294.728C615.769 294.423 615.087 293.959 614.492 293.335C613.898 292.697 613.426 291.892 613.078 290.92C612.73 289.948 612.556 288.787 612.556 287.438V287.003C612.556 285.697 612.73 284.573 613.078 283.63C613.426 282.687 613.898 281.911 614.492 281.302C615.087 280.692 615.769 280.243 616.538 279.952C617.307 279.648 618.119 279.495 618.975 279.495C619.802 279.495 620.556 279.604 621.238 279.822C621.934 280.039 622.544 280.351 623.066 280.758C623.588 281.164 624.009 281.664 624.328 282.259C624.662 282.854 624.872 283.528 624.959 284.283H622.783C622.58 283.296 622.152 282.556 621.499 282.063C620.846 281.57 620.005 281.323 618.975 281.323C618.438 281.323 617.916 281.425 617.408 281.628C616.901 281.831 616.444 282.157 616.037 282.607C615.646 283.042 615.327 283.623 615.08 284.348C614.848 285.073 614.732 285.958 614.732 287.003V287.438C614.732 288.541 614.862 289.469 615.123 290.223C615.385 290.963 615.718 291.565 616.124 292.029C616.531 292.494 616.988 292.827 617.495 293.03C618.003 293.233 618.496 293.335 618.975 293.335C620.107 293.335 620.991 293.059 621.63 292.508C622.268 291.957 622.653 291.246 622.783 290.376H624.959C624.843 291.217 624.611 291.942 624.263 292.552C623.915 293.146 623.472 293.64 622.935 294.031C622.413 294.423 621.811 294.713 621.129 294.902C620.462 295.076 619.744 295.163 618.975 295.163ZM628.216 279.713H633.439C634.44 279.713 635.31 279.829 636.05 280.061C636.79 280.293 637.399 280.62 637.878 281.04C638.371 281.447 638.734 281.94 638.966 282.52C639.198 283.086 639.314 283.71 639.314 284.392C639.314 285.073 639.198 285.704 638.966 286.285C638.734 286.85 638.371 287.344 637.878 287.764C637.399 288.171 636.79 288.49 636.05 288.722C635.31 288.954 634.44 289.07 633.439 289.07H630.262V294.945H628.216V279.713ZM633.33 287.286C634.055 287.286 634.665 287.22 635.158 287.09C635.666 286.945 636.072 286.749 636.377 286.502C636.696 286.256 636.921 285.951 637.051 285.588C637.196 285.226 637.269 284.827 637.269 284.392C637.269 283.956 637.196 283.557 637.051 283.195C636.921 282.832 636.696 282.527 636.377 282.281C636.072 282.034 635.666 281.846 635.158 281.715C634.665 281.57 634.055 281.497 633.33 281.497H630.262V287.286H633.33Z" fill="black"/>
<rect x="529.74" y="250.445" width="179" height="72" stroke="#58A982"/>
<rect x="1024.22" y="250.445" width="179" height="72" fill="#FBFCFC"/>
<path d="M1098.97 295.163C1098.06 295.163 1097.23 295.032 1096.49 294.771C1095.77 294.51 1095.14 294.111 1094.62 293.574C1094.1 293.038 1093.69 292.363 1093.4 291.551C1093.13 290.724 1092.99 289.752 1092.99 288.635V279.713H1095.03V288.635C1095.03 290.289 1095.38 291.485 1096.08 292.225C1096.77 292.965 1097.74 293.335 1098.97 293.335C1100.2 293.335 1101.17 292.965 1101.87 292.225C1102.56 291.485 1102.91 290.289 1102.91 288.635V279.713H1104.96V288.635C1104.96 289.752 1104.81 290.724 1104.52 291.551C1104.25 292.363 1103.85 293.038 1103.32 293.574C1102.8 294.111 1102.17 294.51 1101.43 294.771C1100.71 295.032 1099.89 295.163 1098.97 295.163ZM1109.1 279.713H1113.56C1114.71 279.713 1115.73 279.873 1116.63 280.192C1117.53 280.496 1118.29 280.953 1118.91 281.563C1119.54 282.172 1120.02 282.934 1120.35 283.848C1120.68 284.761 1120.85 285.813 1120.85 287.003V287.438C1120.85 288.657 1120.68 289.737 1120.33 290.68C1120 291.609 1119.5 292.392 1118.85 293.03C1118.21 293.654 1117.43 294.133 1116.5 294.467C1115.57 294.786 1114.52 294.945 1113.34 294.945H1109.1V279.713ZM1113.13 293.161C1113.98 293.161 1114.75 293.052 1115.43 292.835C1116.13 292.617 1116.72 292.283 1117.2 291.834C1117.67 291.369 1118.04 290.775 1118.28 290.049C1118.54 289.324 1118.68 288.453 1118.68 287.438V287.003C1118.68 286.031 1118.55 285.197 1118.31 284.5C1118.06 283.804 1117.7 283.238 1117.24 282.803C1116.77 282.353 1116.21 282.027 1115.54 281.824C1114.89 281.606 1114.16 281.497 1113.34 281.497H1111.15V293.161H1113.13ZM1124.34 279.713H1129.56C1130.56 279.713 1131.43 279.829 1132.17 280.061C1132.91 280.293 1133.52 280.62 1134 281.04C1134.49 281.447 1134.85 281.94 1135.09 282.52C1135.32 283.086 1135.43 283.71 1135.43 284.392C1135.43 285.073 1135.32 285.704 1135.09 286.285C1134.85 286.85 1134.49 287.344 1134 287.764C1133.52 288.171 1132.91 288.49 1132.17 288.722C1131.43 288.954 1130.56 289.07 1129.56 289.07H1126.38V294.945H1124.34V279.713ZM1129.45 287.286C1130.18 287.286 1130.79 287.22 1131.28 287.09C1131.79 286.945 1132.19 286.749 1132.5 286.502C1132.82 286.256 1133.04 285.951 1133.17 285.588C1133.32 285.226 1133.39 284.827 1133.39 284.392C1133.39 283.956 1133.32 283.557 1133.17 283.195C1133.04 282.832 1132.82 282.527 1132.5 282.281C1132.19 282.034 1131.79 281.846 1131.28 281.715C1130.79 281.57 1130.18 281.497 1129.45 281.497H1126.38V287.286H1129.45Z" fill="black"/>
<rect x="1024.22" y="250.445" width="179" height="72" stroke="#58A982"/>
<rect x="772.073" y="386.297" width="179" height="72" fill="#FBFCFC"/>
<path d="M853.416 415.565H855.462V430.797H853.416V415.565ZM860.041 415.565H865.264C866.265 415.565 867.135 415.681 867.875 415.913C868.615 416.145 869.224 416.471 869.703 416.892C870.196 417.298 870.559 417.791 870.791 418.372C871.023 418.937 871.139 419.561 871.139 420.243C871.139 420.925 871.023 421.556 870.791 422.136C870.559 422.702 870.196 423.195 869.703 423.616C869.224 424.022 868.615 424.341 867.875 424.573C867.135 424.806 866.265 424.922 865.264 424.922H862.087V430.797H860.041V415.565ZM865.155 423.137C865.88 423.137 866.489 423.072 866.983 422.941C867.49 422.796 867.897 422.6 868.201 422.354C868.52 422.107 868.745 421.803 868.876 421.44C869.021 421.077 869.093 420.678 869.093 420.243C869.093 419.808 869.021 419.409 868.876 419.046C868.745 418.684 868.52 418.379 868.201 418.132C867.897 417.886 867.49 417.697 866.983 417.567C866.489 417.422 865.88 417.349 865.155 417.349H862.087V423.137H865.155Z" fill="black"/>
<rect x="772.073" y="386.297" width="179" height="72" stroke="#58A982"/>
<rect x="519.74" y="511.113" width="188" height="72" fill="#FBFCFC"/>
<path d="M555.468 543.831C555.25 543.831 555.033 543.809 554.815 543.766V541.764C554.888 541.778 554.997 541.785 555.142 541.785C555.432 541.785 555.686 541.742 555.903 541.655C556.135 541.553 556.331 541.379 556.491 541.133C556.665 540.871 556.81 540.509 556.926 540.045C557.056 539.58 557.158 538.986 557.231 538.26C557.303 537.52 557.354 536.628 557.383 535.584C557.412 534.539 557.426 533.299 557.426 531.863V528.381H567.654V543.613H565.608V530.165H559.472V532.298C559.472 533.908 559.436 535.315 559.363 536.519C559.291 537.709 559.182 538.732 559.037 539.588C558.892 540.444 558.71 541.147 558.493 541.698C558.275 542.25 558.014 542.685 557.709 543.004C557.419 543.309 557.085 543.519 556.708 543.635C556.331 543.766 555.918 543.831 555.468 543.831ZM576.355 543.831C575.615 543.831 574.911 543.715 574.244 543.483C573.576 543.236 572.989 542.873 572.481 542.395C571.973 541.901 571.567 541.285 571.263 540.545C570.958 539.805 570.806 538.942 570.806 537.956V537.52C570.806 536.592 570.958 535.772 571.263 535.061C571.567 534.351 571.973 533.763 572.481 533.299C572.989 532.82 573.576 532.465 574.244 532.233C574.911 531.986 575.615 531.863 576.355 531.863C577.094 531.863 577.798 531.986 578.465 532.233C579.133 532.465 579.72 532.82 580.228 533.299C580.736 533.763 581.142 534.351 581.446 535.061C581.751 535.772 581.903 536.592 581.903 537.52V537.956C581.903 538.942 581.751 539.805 581.446 540.545C581.142 541.285 580.736 541.901 580.228 542.395C579.72 542.873 579.133 543.236 578.465 543.483C577.798 543.715 577.094 543.831 576.355 543.831ZM576.355 542.09C576.79 542.09 577.225 542.018 577.66 541.872C578.095 541.713 578.48 541.474 578.813 541.154C579.147 540.821 579.415 540.393 579.619 539.871C579.836 539.348 579.945 538.71 579.945 537.956V537.52C579.945 536.824 579.836 536.229 579.619 535.736C579.415 535.243 579.147 534.837 578.813 534.517C578.48 534.198 578.095 533.966 577.66 533.821C577.225 533.676 576.79 533.604 576.355 533.604C575.919 533.604 575.484 533.676 575.049 533.821C574.614 533.966 574.229 534.198 573.896 534.517C573.562 534.837 573.286 535.243 573.069 535.736C572.866 536.229 572.764 536.824 572.764 537.52V537.956C572.764 538.71 572.866 539.348 573.069 539.871C573.286 540.393 573.562 540.821 573.896 541.154C574.229 541.474 574.614 541.713 575.049 541.872C575.484 542.018 575.919 542.09 576.355 542.09ZM584.615 532.08H586.53V536.911H588.053L592.362 532.08H594.625L589.62 537.607L594.842 543.613H592.405L588.053 538.565H586.53V543.613H584.615V532.08ZM600.205 543.831C599.566 543.831 599.001 543.744 598.507 543.57C598.029 543.381 597.622 543.127 597.289 542.808C596.955 542.489 596.701 542.112 596.527 541.677C596.353 541.241 596.266 540.763 596.266 540.24C596.266 539.094 596.6 538.267 597.267 537.76C597.949 537.252 598.921 536.998 600.183 536.998H603.926V536.215C603.926 535.228 603.701 534.546 603.251 534.169C602.816 533.792 602.156 533.604 601.271 533.604C600.444 533.604 599.842 533.763 599.465 534.082C599.088 534.387 598.877 534.735 598.834 535.127H596.919C596.948 534.663 597.071 534.235 597.289 533.843C597.521 533.437 597.826 533.089 598.203 532.798C598.594 532.508 599.059 532.283 599.595 532.124C600.132 531.95 600.727 531.863 601.38 531.863C602.743 531.863 603.824 532.189 604.622 532.842C605.434 533.48 605.841 534.532 605.841 535.997V540.676C605.841 541.285 605.841 541.822 605.841 542.286C605.855 542.736 605.891 543.178 605.949 543.613H604.274C604.23 543.28 604.201 542.968 604.187 542.678C604.172 542.373 604.165 542.032 604.165 541.655C603.86 542.264 603.367 542.779 602.685 543.2C602.004 543.621 601.177 543.831 600.205 543.831ZM600.618 542.09C601.068 542.09 601.489 542.032 601.88 541.916C602.286 541.785 602.642 541.604 602.947 541.372C603.251 541.125 603.491 540.828 603.665 540.48C603.839 540.132 603.926 539.725 603.926 539.261V538.478H600.509C599.799 538.478 599.24 538.623 598.834 538.913C598.428 539.189 598.225 539.631 598.225 540.24C598.225 540.777 598.413 541.22 598.79 541.568C599.182 541.916 599.791 542.09 600.618 542.09ZM608.679 543.831C608.461 543.831 608.244 543.809 608.026 543.766V541.851C608.099 541.865 608.207 541.872 608.352 541.872C608.672 541.872 608.947 541.771 609.179 541.568C609.426 541.365 609.622 541.009 609.767 540.502C609.912 539.994 610.021 539.305 610.093 538.434C610.166 537.564 610.202 536.461 610.202 535.127V532.08H618.471V543.613H616.556V533.778H612.117V535.562C612.117 537.172 612.044 538.507 611.899 539.566C611.754 540.625 611.537 541.474 611.247 542.112C610.971 542.736 610.616 543.178 610.18 543.439C609.745 543.7 609.245 543.831 608.679 543.831ZM621.952 532.08H623.867V536.432H626.63C628.081 536.432 629.147 536.752 629.829 537.39C630.525 538.028 630.874 538.913 630.874 540.045C630.874 541.147 630.525 542.018 629.829 542.656C629.147 543.294 628.081 543.613 626.63 543.613H621.952V532.08ZM626.521 541.916C627.421 541.916 628.052 541.756 628.415 541.437C628.777 541.118 628.959 540.647 628.959 540.023C628.959 539.399 628.777 538.928 628.415 538.608C628.052 538.289 627.421 538.13 626.521 538.13H623.867V541.916H626.521ZM633.384 532.08H635.299V536.889H641.262V532.08H643.177V543.613H641.262V538.587H635.299V543.613H633.384V532.08ZM646.666 532.08H648.581V536.432H650.909C652.36 536.432 653.426 536.752 654.108 537.39C654.804 538.028 655.152 538.913 655.152 540.045C655.152 541.147 654.804 542.018 654.108 542.656C653.426 543.294 652.36 543.613 650.909 543.613H646.666V532.08ZM650.8 541.916C651.7 541.916 652.331 541.756 652.694 541.437C653.056 541.118 653.238 540.647 653.238 540.023C653.238 539.399 653.056 538.928 652.694 538.608C652.331 538.289 651.7 538.13 650.8 538.13H648.581V541.916H650.8ZM656.937 532.08H658.852V543.613H656.937V532.08ZM667.115 543.831C666.375 543.831 665.671 543.715 665.004 543.483C664.337 543.251 663.749 542.895 663.241 542.416C662.734 541.923 662.327 541.307 662.023 540.567C661.718 539.827 661.566 538.957 661.566 537.956V537.52C661.566 536.563 661.711 535.736 662.001 535.04C662.291 534.329 662.676 533.741 663.154 533.277C663.648 532.798 664.213 532.443 664.852 532.211C665.504 531.979 666.186 531.863 666.897 531.863C668.594 531.863 669.907 532.327 670.836 533.255C671.764 534.184 672.228 535.497 672.228 537.194V538.413H663.481C663.481 539.094 663.59 539.667 663.807 540.132C664.025 540.596 664.308 540.973 664.656 541.263C665.004 541.553 665.388 541.764 665.809 541.894C666.244 542.025 666.68 542.09 667.115 542.09C667.985 542.09 668.652 541.945 669.117 541.655C669.595 541.365 669.936 540.966 670.139 540.458H672.011C671.895 541.009 671.684 541.495 671.38 541.916C671.09 542.337 670.727 542.692 670.292 542.982C669.871 543.258 669.385 543.468 668.834 543.613C668.297 543.758 667.724 543.831 667.115 543.831ZM667.006 533.604C666.556 533.604 666.121 533.669 665.7 533.799C665.28 533.915 664.902 534.111 664.569 534.387C664.25 534.648 663.988 534.982 663.785 535.388C663.582 535.794 663.481 536.28 663.481 536.846H670.422C670.408 536.251 670.306 535.751 670.118 535.344C669.944 534.924 669.704 534.59 669.4 534.343C669.095 534.082 668.732 533.894 668.312 533.778C667.905 533.662 667.47 533.604 667.006 533.604ZM595.833 567.831C595.094 567.831 594.404 567.715 593.766 567.483C593.128 567.236 592.577 566.873 592.112 566.395C591.648 565.901 591.278 565.285 591.003 564.545C590.741 563.805 590.611 562.942 590.611 561.956V561.52C590.611 560.592 590.756 559.772 591.046 559.061C591.336 558.351 591.721 557.763 592.199 557.299C592.678 556.82 593.229 556.465 593.853 556.233C594.492 555.986 595.152 555.863 595.833 555.863C596.515 555.863 597.125 555.957 597.661 556.146C598.213 556.334 598.684 556.595 599.076 556.929C599.482 557.263 599.808 557.654 600.055 558.104C600.316 558.554 600.505 559.04 600.621 559.562H598.662C598.546 559.286 598.408 559.032 598.249 558.8C598.104 558.554 597.915 558.343 597.683 558.169C597.465 557.995 597.204 557.857 596.9 557.756C596.595 557.654 596.24 557.604 595.833 557.604C595.413 557.604 595.007 557.683 594.615 557.843C594.223 557.988 593.875 558.22 593.57 558.539C593.266 558.844 593.019 559.243 592.83 559.736C592.656 560.229 592.569 560.824 592.569 561.52V561.956C592.569 562.695 592.656 563.334 592.83 563.871C593.019 564.393 593.266 564.821 593.57 565.154C593.875 565.474 594.223 565.713 594.615 565.872C595.007 566.018 595.413 566.09 595.833 566.09C596.544 566.09 597.139 565.916 597.618 565.568C598.111 565.22 598.459 564.741 598.662 564.132H600.621C600.345 565.278 599.779 566.184 598.923 566.852C598.067 567.504 597.037 567.831 595.833 567.831ZM608.018 567.831C607.278 567.831 606.574 567.715 605.907 567.483C605.239 567.251 604.652 566.895 604.144 566.416C603.636 565.923 603.23 565.307 602.926 564.567C602.621 563.827 602.469 562.957 602.469 561.956V561.52C602.469 560.563 602.614 559.736 602.904 559.04C603.194 558.329 603.578 557.741 604.057 557.277C604.55 556.798 605.116 556.443 605.754 556.211C606.407 555.979 607.089 555.863 607.8 555.863C609.497 555.863 610.81 556.327 611.739 557.255C612.667 558.184 613.131 559.497 613.131 561.194V562.413H604.384C604.384 563.094 604.492 563.667 604.71 564.132C604.928 564.596 605.21 564.973 605.559 565.263C605.907 565.553 606.291 565.764 606.712 565.894C607.147 566.025 607.582 566.09 608.018 566.09C608.888 566.09 609.555 565.945 610.019 565.655C610.498 565.365 610.839 564.966 611.042 564.458H612.914C612.798 565.009 612.587 565.495 612.283 565.916C611.992 566.337 611.63 566.692 611.195 566.982C610.774 567.258 610.288 567.468 609.737 567.613C609.2 567.758 608.627 567.831 608.018 567.831ZM607.909 557.604C607.459 557.604 607.024 557.669 606.603 557.799C606.182 557.915 605.805 558.111 605.472 558.387C605.152 558.648 604.891 558.982 604.688 559.388C604.485 559.794 604.384 560.28 604.384 560.846H611.325C611.311 560.251 611.209 559.751 611.02 559.344C610.846 558.924 610.607 558.59 610.302 558.343C609.998 558.082 609.635 557.894 609.214 557.778C608.808 557.662 608.373 557.604 607.909 557.604ZM618.273 557.778H614.335V556.08H624.127V557.778H620.188V567.613H618.273V557.778ZM626.308 556.08H628.223V564.784L634.185 556.08H636.1V567.613H634.185V558.909L628.223 567.613H626.308V556.08Z" fill="black"/>
<rect x="519.74" y="511.113" width="188" height="72" stroke="#58A982"/>
<rect x="1024.22" y="511.113" width="188" height="72" fill="#FBFCFC"/>
<path d="M1046.13 528.381H1058.1V543.613H1056.05V530.165H1048.18V543.613H1046.13V528.381ZM1066.8 543.831C1066.06 543.831 1065.36 543.715 1064.69 543.483C1064.02 543.236 1063.44 542.873 1062.93 542.395C1062.42 541.901 1062.02 541.285 1061.71 540.545C1061.41 539.805 1061.25 538.942 1061.25 537.956V537.52C1061.25 536.592 1061.41 535.772 1061.71 535.061C1062.02 534.351 1062.42 533.763 1062.93 533.299C1063.44 532.82 1064.02 532.465 1064.69 532.233C1065.36 531.986 1066.06 531.863 1066.8 531.863C1067.54 531.863 1068.25 531.986 1068.91 532.233C1069.58 532.465 1070.17 532.82 1070.68 533.299C1071.18 533.763 1071.59 534.351 1071.89 535.061C1072.2 535.772 1072.35 536.592 1072.35 537.52V537.956C1072.35 538.942 1072.2 539.805 1071.89 540.545C1071.59 541.285 1071.18 541.901 1070.68 542.395C1070.17 542.873 1069.58 543.236 1068.91 543.483C1068.25 543.715 1067.54 543.831 1066.8 543.831ZM1066.8 542.09C1067.24 542.09 1067.67 542.018 1068.11 541.872C1068.54 541.713 1068.93 541.474 1069.26 541.154C1069.6 540.821 1069.86 540.393 1070.07 539.871C1070.28 539.348 1070.39 538.71 1070.39 537.956V537.52C1070.39 536.824 1070.28 536.229 1070.07 535.736C1069.86 535.243 1069.6 534.837 1069.26 534.517C1068.93 534.198 1068.54 533.966 1068.11 533.821C1067.67 533.676 1067.24 533.604 1066.8 533.604C1066.37 533.604 1065.93 533.676 1065.5 533.821C1065.06 533.966 1064.68 534.198 1064.34 534.517C1064.01 534.837 1063.73 535.243 1063.52 535.736C1063.31 536.229 1063.21 536.824 1063.21 537.52V537.956C1063.21 538.71 1063.31 539.348 1063.52 539.871C1063.73 540.393 1064.01 540.821 1064.34 541.154C1064.68 541.474 1065.06 541.713 1065.5 541.872C1065.93 542.018 1066.37 542.09 1066.8 542.09ZM1073.55 541.916H1074.96C1075.12 541.698 1075.26 541.365 1075.39 540.915C1075.53 540.465 1075.64 539.936 1075.74 539.326C1075.84 538.717 1075.92 538.057 1075.96 537.346C1076.02 536.621 1076.05 535.881 1076.05 535.127V532.08H1084.1V541.916H1085.73V546.333H1083.9V543.613H1075.37V546.333H1073.55V541.916ZM1082.18 541.916V533.778H1077.92V535.562C1077.92 536.171 1077.9 536.781 1077.85 537.39C1077.81 537.985 1077.75 538.558 1077.66 539.109C1077.57 539.646 1077.46 540.161 1077.33 540.654C1077.22 541.133 1077.08 541.553 1076.92 541.916H1082.18ZM1088.03 532.08H1089.94V536.911H1091.46L1095.77 532.08H1098.04L1093.03 537.607L1098.25 543.613H1095.82L1091.46 538.565H1089.94V543.613H1088.03V532.08ZM1100.42 543.831C1100.21 543.831 1099.99 543.809 1099.77 543.766V541.851C1099.84 541.865 1099.95 541.872 1100.1 541.872C1100.42 541.872 1100.69 541.771 1100.92 541.568C1101.17 541.365 1101.37 541.009 1101.51 540.502C1101.66 539.994 1101.77 539.305 1101.84 538.434C1101.91 537.564 1101.95 536.461 1101.95 535.127V532.08H1110.22V543.613H1108.3V533.778H1103.86V535.562C1103.86 537.172 1103.79 538.507 1103.64 539.566C1103.5 540.625 1103.28 541.474 1102.99 542.112C1102.72 542.736 1102.36 543.178 1101.93 543.439C1101.49 543.7 1100.99 543.831 1100.42 543.831ZM1113.7 532.08H1115.61V536.889H1117.24C1117.3 536.062 1117.48 535.337 1117.79 534.713C1118.09 534.075 1118.48 533.545 1118.94 533.125C1119.42 532.704 1119.96 532.392 1120.57 532.189C1121.18 531.971 1121.83 531.863 1122.51 531.863C1123.25 531.863 1123.94 531.986 1124.58 532.233C1125.23 532.465 1125.8 532.82 1126.27 533.299C1126.75 533.763 1127.13 534.351 1127.41 535.061C1127.7 535.772 1127.84 536.592 1127.84 537.52V537.956C1127.84 538.942 1127.7 539.805 1127.41 540.545C1127.13 541.285 1126.75 541.901 1126.27 542.395C1125.8 542.873 1125.23 543.236 1124.58 543.483C1123.94 543.715 1123.25 543.831 1122.51 543.831C1121.83 543.831 1121.17 543.729 1120.55 543.526C1119.94 543.309 1119.4 542.982 1118.92 542.547C1118.45 542.112 1118.07 541.568 1117.77 540.915C1117.48 540.248 1117.3 539.472 1117.24 538.587H1115.61V543.613H1113.7V532.08ZM1122.51 542.09C1122.94 542.09 1123.37 542.018 1123.77 541.872C1124.18 541.713 1124.53 541.474 1124.84 541.154C1125.16 540.821 1125.41 540.393 1125.6 539.871C1125.79 539.348 1125.88 538.71 1125.88 537.956V537.52C1125.88 536.824 1125.79 536.229 1125.6 535.736C1125.41 535.243 1125.16 534.837 1124.84 534.517C1124.53 534.198 1124.18 533.966 1123.77 533.821C1123.37 533.676 1122.94 533.604 1122.51 533.604C1122.07 533.604 1121.65 533.676 1121.25 533.821C1120.84 533.966 1120.48 534.198 1120.16 534.517C1119.85 534.837 1119.61 535.243 1119.42 535.736C1119.23 536.229 1119.14 536.824 1119.14 537.52V537.956C1119.14 538.71 1119.23 539.348 1119.42 539.871C1119.61 540.393 1119.85 540.821 1120.16 541.154C1120.48 541.474 1120.84 541.713 1121.25 541.872C1121.65 542.018 1122.07 542.09 1122.51 542.09ZM1137.25 539.022C1136.92 539.225 1136.51 539.406 1136.03 539.566C1135.57 539.725 1134.98 539.805 1134.27 539.805C1133.6 539.805 1133 539.733 1132.46 539.588C1131.94 539.443 1131.5 539.21 1131.14 538.891C1130.77 538.572 1130.5 538.159 1130.31 537.651C1130.12 537.143 1130.03 536.519 1130.03 535.78V532.08H1131.94V535.453C1131.94 535.946 1131.98 536.36 1132.07 536.693C1132.17 537.027 1132.33 537.296 1132.55 537.499C1132.77 537.702 1133.04 537.847 1133.38 537.934C1133.71 538.021 1134.12 538.064 1134.6 538.064C1135.25 538.064 1135.81 537.999 1136.27 537.869C1136.73 537.738 1137.06 537.6 1137.25 537.455V532.08H1139.16V543.613H1137.25V539.022ZM1147.43 543.831C1146.69 543.831 1145.98 543.715 1145.32 543.483C1144.65 543.251 1144.06 542.895 1143.55 542.416C1143.05 541.923 1142.64 541.307 1142.33 540.567C1142.03 539.827 1141.88 538.957 1141.88 537.956V537.52C1141.88 536.563 1142.02 535.736 1142.31 535.04C1142.6 534.329 1142.99 533.741 1143.47 533.277C1143.96 532.798 1144.53 532.443 1145.16 532.211C1145.82 531.979 1146.5 531.863 1147.21 531.863C1148.91 531.863 1150.22 532.327 1151.15 533.255C1152.08 534.184 1152.54 535.497 1152.54 537.194V538.413H1143.79C1143.79 539.094 1143.9 539.667 1144.12 540.132C1144.34 540.596 1144.62 540.973 1144.97 541.263C1145.32 541.553 1145.7 541.764 1146.12 541.894C1146.56 542.025 1146.99 542.09 1147.43 542.09C1148.3 542.09 1148.96 541.945 1149.43 541.655C1149.91 541.365 1150.25 540.966 1150.45 540.458H1152.32C1152.21 541.009 1152 541.495 1151.69 541.916C1151.4 542.337 1151.04 542.692 1150.6 542.982C1150.18 543.258 1149.7 543.468 1149.15 543.613C1148.61 543.758 1148.04 543.831 1147.43 543.831ZM1147.32 533.604C1146.87 533.604 1146.43 533.669 1146.01 533.799C1145.59 533.915 1145.21 534.111 1144.88 534.387C1144.56 534.648 1144.3 534.982 1144.1 535.388C1143.89 535.794 1143.79 536.28 1143.79 536.846H1150.73C1150.72 536.251 1150.62 535.751 1150.43 535.344C1150.26 534.924 1150.02 534.59 1149.71 534.343C1149.41 534.082 1149.04 533.894 1148.62 533.778C1148.22 533.662 1147.78 533.604 1147.32 533.604ZM1155.26 532.08H1157.18V536.889H1163.14V532.08H1165.05V543.613H1163.14V538.587H1157.18V543.613H1155.26V532.08ZM1168.54 532.08H1170.46V540.784L1176.42 532.08H1178.34V543.613H1176.42V534.909L1170.46 543.613H1168.54V532.08ZM1184.09 539.044C1183.13 538.826 1182.44 538.434 1182.02 537.869C1181.6 537.288 1181.39 536.548 1181.39 535.649C1181.39 534.517 1181.73 533.64 1182.41 533.016C1183.11 532.392 1184.22 532.08 1185.74 532.08H1190.75V543.613H1188.83V539.218H1185.89L1183.09 543.613H1180.95L1184.09 539.044ZM1183.3 535.649C1183.3 536.258 1183.48 536.723 1183.83 537.042C1184.19 537.361 1184.79 537.52 1185.63 537.52H1188.83V533.778H1185.63C1184.79 533.778 1184.19 533.937 1183.83 534.256C1183.48 534.575 1183.3 535.04 1183.3 535.649ZM1093.53 552.381H1095.7L1098.84 564.349L1102.4 552.381H1104.23L1107.87 564.349L1111.02 552.381H1113.11L1109.02 567.613H1106.97L1103.27 555.645L1099.66 567.613H1097.62L1093.53 552.381ZM1122.93 563.827H1116.49L1115.03 567.613H1112.9L1118.73 552.381H1120.78L1126.61 567.613H1124.39L1122.93 563.827ZM1117.17 562.043H1122.26L1119.71 554.992L1117.17 562.043ZM1129.22 552.381H1131.22L1139.4 564.24V552.381H1141.41V567.613H1139.4L1131.22 555.754V567.613H1129.22V552.381Z" fill="black"/>
<rect x="1024.22" y="511.113" width="188" height="72" stroke="#58A982"/>
<rect x="100.451" y="229.891" width="1267.26" height="130" stroke="#FFBD6E" stroke-width="10"/>
</svg>
