<svg width="658" height="345" viewBox="0 0 658 345" fill="none" xmlns="http://www.w3.org/2000/svg">
<rect x="100" y="142.395" width="281" height="45" fill="#DBEEE5"/>
<path d="M112.786 169.828H116.203V158.382L112.721 160.819L111.873 159.579L116.66 156.162H117.878V169.828H121.229V171.395H112.786V169.828ZM125.769 171.395L132.428 157.729H124.572V156.162H134.19V157.577L127.553 171.395H125.769ZM146.998 160.014C146.998 161.349 146.367 162.835 145.105 164.475C143.843 166.114 142.081 167.898 139.818 169.828H147.477V171.395H137.816V169.828C138.091 169.567 138.468 169.226 138.947 168.805C139.426 168.384 139.941 167.92 140.492 167.412C141.043 166.89 141.602 166.332 142.168 165.737C142.748 165.142 143.27 164.533 143.734 163.909C144.199 163.285 144.576 162.661 144.866 162.038C145.156 161.414 145.301 160.812 145.301 160.231C145.301 159.361 145.069 158.679 144.605 158.186C144.155 157.678 143.473 157.424 142.559 157.424C141.776 157.424 141.116 157.511 140.579 157.686C140.042 157.86 139.556 158.113 139.121 158.447L138.381 157.25C139.034 156.786 139.723 156.445 140.449 156.228C141.188 156.01 141.994 155.901 142.864 155.901C144.228 155.901 145.258 156.271 145.954 157.011C146.65 157.751 146.998 158.752 146.998 160.014ZM154.236 170.198C154.236 169.733 154.367 169.378 154.628 169.131C154.889 168.87 155.237 168.74 155.672 168.74C156.137 168.74 156.499 168.87 156.76 169.131C157.022 169.378 157.152 169.733 157.152 170.198C157.152 170.618 157.022 170.967 156.76 171.242C156.499 171.518 156.137 171.656 155.672 171.656C155.237 171.656 154.889 171.518 154.628 171.242C154.367 170.967 154.236 170.618 154.236 170.198ZM191.073 169.828H194.489V158.382L191.007 160.819L190.159 159.579L194.946 156.162H196.165V169.828H199.516V171.395H191.073V169.828ZM213.086 166.803C213.086 167.427 212.97 168.029 212.738 168.609C212.52 169.189 212.194 169.704 211.758 170.154C211.323 170.604 210.786 170.967 210.148 171.242C209.51 171.518 208.77 171.656 207.928 171.656C207.145 171.656 206.434 171.532 205.796 171.286C205.158 171.039 204.606 170.691 204.142 170.241C203.678 169.777 203.315 169.211 203.054 168.544C202.808 167.877 202.684 167.13 202.684 166.303C202.684 164.939 202.88 163.648 203.272 162.429C203.678 161.211 204.236 160.137 204.947 159.209C205.673 158.28 206.529 157.526 207.515 156.946C208.516 156.365 209.611 156.017 210.801 155.901L211.106 157.294C210.192 157.41 209.35 157.678 208.581 158.099C207.827 158.52 207.167 159.042 206.601 159.666C206.035 160.289 205.571 160.979 205.208 161.733C204.86 162.487 204.635 163.256 204.534 164.04C204.65 163.851 204.817 163.655 205.034 163.452C205.266 163.249 205.535 163.075 205.84 162.93C206.159 162.77 206.507 162.64 206.884 162.538C207.276 162.437 207.696 162.386 208.146 162.386C208.915 162.386 209.604 162.495 210.213 162.712C210.823 162.915 211.338 163.213 211.758 163.604C212.194 163.982 212.52 164.446 212.738 164.997C212.97 165.534 213.086 166.136 213.086 166.803ZM211.301 166.977C211.301 165.962 211.018 165.186 210.453 164.649C209.887 164.112 209.017 163.844 207.841 163.844C207.421 163.844 207.029 163.894 206.666 163.996C206.304 164.098 205.977 164.235 205.687 164.409C205.397 164.569 205.143 164.758 204.926 164.975C204.708 165.193 204.541 165.41 204.425 165.628C204.396 165.831 204.382 165.991 204.382 166.107C204.382 166.223 204.382 166.361 204.382 166.52C204.382 166.955 204.454 167.398 204.599 167.848C204.744 168.283 204.962 168.674 205.252 169.023C205.557 169.371 205.934 169.654 206.384 169.871C206.833 170.089 207.363 170.198 207.972 170.198C208.465 170.198 208.915 170.111 209.321 169.937C209.727 169.763 210.076 169.53 210.366 169.24C210.67 168.95 210.902 168.609 211.062 168.218C211.222 167.826 211.301 167.412 211.301 166.977ZM219.475 170.198C219.475 169.733 219.605 169.378 219.866 169.131C220.128 168.87 220.476 168.74 220.911 168.74C221.375 168.74 221.738 168.87 221.999 169.131C222.26 169.378 222.391 169.733 222.391 170.198C222.391 170.618 222.26 170.967 221.999 171.242C221.738 171.518 221.375 171.656 220.911 171.656C220.476 171.656 220.128 171.518 219.866 171.242C219.605 170.967 219.475 170.618 219.475 170.198ZM267.792 163.778C267.792 162.545 267.901 161.443 268.119 160.471C268.336 159.484 268.663 158.657 269.098 157.99C269.533 157.308 270.084 156.793 270.752 156.445C271.419 156.082 272.21 155.901 273.124 155.901C274.095 155.901 274.915 156.075 275.582 156.423C276.264 156.772 276.816 157.279 277.236 157.947C277.657 158.614 277.962 159.441 278.15 160.427C278.339 161.399 278.433 162.516 278.433 163.778C278.433 165.011 278.324 166.121 278.107 167.108C277.889 168.08 277.563 168.907 277.127 169.588C276.692 170.256 276.141 170.771 275.474 171.133C274.806 171.482 274.016 171.656 273.102 171.656C272.144 171.656 271.325 171.467 270.643 171.09C269.976 170.698 269.424 170.154 268.989 169.458C268.568 168.762 268.264 167.935 268.075 166.977C267.887 166.005 267.792 164.939 267.792 163.778ZM276.649 163.778C276.649 163.01 276.605 162.277 276.518 161.581L270.055 167.478C270.302 168.305 270.672 168.965 271.165 169.458C271.658 169.951 272.304 170.198 273.102 170.198C274.378 170.198 275.285 169.668 275.822 168.609C276.373 167.55 276.649 165.94 276.649 163.778ZM269.598 163.778C269.598 164.141 269.606 164.489 269.62 164.823C269.649 165.157 269.678 165.483 269.707 165.802L276.192 159.927C275.945 159.143 275.575 158.52 275.082 158.055C274.603 157.591 273.95 157.359 273.124 157.359C271.832 157.359 270.918 157.896 270.382 158.969C269.859 160.028 269.598 161.631 269.598 163.778ZM280.84 163.778C280.84 162.545 280.949 161.443 281.166 160.471C281.384 159.484 281.71 158.657 282.146 157.99C282.581 157.308 283.132 156.793 283.799 156.445C284.467 156.082 285.257 155.901 286.171 155.901C287.143 155.901 287.963 156.075 288.63 156.423C289.312 156.772 289.863 157.279 290.284 157.947C290.705 158.614 291.009 159.441 291.198 160.427C291.386 161.399 291.481 162.516 291.481 163.778C291.481 165.011 291.372 166.121 291.154 167.108C290.937 168.08 290.61 168.907 290.175 169.588C289.74 170.256 289.189 170.771 288.521 171.133C287.854 171.482 287.063 171.656 286.149 171.656C285.192 171.656 284.372 171.467 283.691 171.09C283.023 170.698 282.472 170.154 282.037 169.458C281.616 168.762 281.311 167.935 281.123 166.977C280.934 166.005 280.84 164.939 280.84 163.778ZM289.696 163.778C289.696 163.01 289.653 162.277 289.566 161.581L283.103 167.478C283.35 168.305 283.72 168.965 284.213 169.458C284.706 169.951 285.352 170.198 286.149 170.198C287.426 170.198 288.333 169.668 288.87 168.609C289.421 167.55 289.696 165.94 289.696 163.778ZM282.646 163.778C282.646 164.141 282.653 164.489 282.668 164.823C282.697 165.157 282.726 165.483 282.755 165.802L289.239 159.927C288.993 159.143 288.623 158.52 288.13 158.055C287.651 157.591 286.998 157.359 286.171 157.359C284.88 157.359 283.966 157.896 283.429 158.969C282.907 160.028 282.646 161.631 282.646 163.778ZM293.888 163.778C293.888 162.545 293.996 161.443 294.214 160.471C294.432 159.484 294.758 158.657 295.193 157.99C295.628 157.308 296.18 156.793 296.847 156.445C297.514 156.082 298.305 155.901 299.219 155.901C300.191 155.901 301.011 156.075 301.678 156.423C302.36 156.772 302.911 157.279 303.332 157.947C303.752 158.614 304.057 159.441 304.246 160.427C304.434 161.399 304.528 162.516 304.528 163.778C304.528 165.011 304.42 166.121 304.202 167.108C303.984 168.08 303.658 168.907 303.223 169.588C302.788 170.256 302.236 170.771 301.569 171.133C300.902 171.482 300.111 171.656 299.197 171.656C298.24 171.656 297.42 171.467 296.738 171.09C296.071 170.698 295.52 170.154 295.084 169.458C294.664 168.762 294.359 167.935 294.171 166.977C293.982 166.005 293.888 164.939 293.888 163.778ZM302.744 163.778C302.744 163.01 302.701 162.277 302.614 161.581L296.151 167.478C296.397 168.305 296.767 168.965 297.261 169.458C297.754 169.951 298.399 170.198 299.197 170.198C300.474 170.198 301.38 169.668 301.917 168.609C302.468 167.55 302.744 165.94 302.744 163.778ZM295.694 163.778C295.694 164.141 295.701 164.489 295.716 164.823C295.745 165.157 295.774 165.483 295.803 165.802L302.287 159.927C302.041 159.143 301.671 158.52 301.177 158.055C300.699 157.591 300.046 157.359 299.219 157.359C297.928 157.359 297.014 157.896 296.477 158.969C295.955 160.028 295.694 161.631 295.694 163.778ZM306.935 163.778C306.935 162.545 307.044 161.443 307.262 160.471C307.479 159.484 307.806 158.657 308.241 157.99C308.676 157.308 309.227 156.793 309.895 156.445C310.562 156.082 311.353 155.901 312.267 155.901C313.239 155.901 314.058 156.075 314.726 156.423C315.407 156.772 315.959 157.279 316.379 157.947C316.8 158.614 317.105 159.441 317.293 160.427C317.482 161.399 317.576 162.516 317.576 163.778C317.576 165.011 317.467 166.121 317.25 167.108C317.032 168.08 316.706 168.907 316.271 169.588C315.835 170.256 315.284 170.771 314.617 171.133C313.949 171.482 313.159 171.656 312.245 171.656C311.287 171.656 310.468 171.467 309.786 171.09C309.119 170.698 308.567 170.154 308.132 169.458C307.711 168.762 307.407 167.935 307.218 166.977C307.03 166.005 306.935 164.939 306.935 163.778ZM315.792 163.778C315.792 163.01 315.748 162.277 315.661 161.581L309.198 167.478C309.445 168.305 309.815 168.965 310.308 169.458C310.801 169.951 311.447 170.198 312.245 170.198C313.521 170.198 314.428 169.668 314.965 168.609C315.516 167.55 315.792 165.94 315.792 163.778ZM308.741 163.778C308.741 164.141 308.749 164.489 308.763 164.823C308.792 165.157 308.821 165.483 308.85 165.802L315.335 159.927C315.088 159.143 314.718 158.52 314.225 158.055C313.746 157.591 313.094 157.359 312.267 157.359C310.976 157.359 310.062 157.896 309.525 158.969C309.003 160.028 308.741 161.631 308.741 163.778ZM333.031 163.778C333.031 162.545 333.14 161.443 333.357 160.471C333.575 159.484 333.901 158.657 334.336 157.99C334.772 157.308 335.323 156.793 335.99 156.445C336.658 156.082 337.448 155.901 338.362 155.901C339.334 155.901 340.154 156.075 340.821 156.423C341.503 156.772 342.054 157.279 342.475 157.947C342.895 158.614 343.2 159.441 343.389 160.427C343.577 161.399 343.672 162.516 343.672 163.778C343.672 165.011 343.563 166.121 343.345 167.108C343.128 168.08 342.801 168.907 342.366 169.588C341.931 170.256 341.38 170.771 340.712 171.133C340.045 171.482 339.254 171.656 338.34 171.656C337.383 171.656 336.563 171.467 335.881 171.09C335.214 170.698 334.663 170.154 334.228 169.458C333.807 168.762 333.502 167.935 333.314 166.977C333.125 166.005 333.031 164.939 333.031 163.778ZM341.887 163.778C341.887 163.01 341.844 162.277 341.757 161.581L335.294 167.478C335.54 168.305 335.91 168.965 336.404 169.458C336.897 169.951 337.542 170.198 338.34 170.198C339.617 170.198 340.524 169.668 341.06 168.609C341.612 167.55 341.887 165.94 341.887 163.778ZM334.837 163.778C334.837 164.141 334.844 164.489 334.859 164.823C334.888 165.157 334.917 165.483 334.946 165.802L341.43 159.927C341.184 159.143 340.814 158.52 340.321 158.055C339.842 157.591 339.189 157.359 338.362 157.359C337.071 157.359 336.157 157.896 335.62 158.969C335.098 160.028 334.837 161.631 334.837 163.778ZM346.078 163.778C346.078 162.545 346.187 161.443 346.405 160.471C346.622 159.484 346.949 158.657 347.384 157.99C347.819 157.308 348.371 156.793 349.038 156.445C349.705 156.082 350.496 155.901 351.41 155.901C352.382 155.901 353.201 156.075 353.869 156.423C354.551 156.772 355.102 157.279 355.522 157.947C355.943 158.614 356.248 159.441 356.436 160.427C356.625 161.399 356.719 162.516 356.719 163.778C356.719 165.011 356.61 166.121 356.393 167.108C356.175 168.08 355.849 168.907 355.414 169.588C354.978 170.256 354.427 170.771 353.76 171.133C353.093 171.482 352.302 171.656 351.388 171.656C350.431 171.656 349.611 171.467 348.929 171.09C348.262 170.698 347.711 170.154 347.275 169.458C346.855 168.762 346.55 167.935 346.361 166.977C346.173 166.005 346.078 164.939 346.078 163.778ZM354.935 163.778C354.935 163.01 354.891 162.277 354.804 161.581L348.342 167.478C348.588 168.305 348.958 168.965 349.451 169.458C349.945 169.951 350.59 170.198 351.388 170.198C352.665 170.198 353.571 169.668 354.108 168.609C354.659 167.55 354.935 165.94 354.935 163.778ZM347.885 163.778C347.885 164.141 347.892 164.489 347.906 164.823C347.935 165.157 347.964 165.483 347.993 165.802L354.478 159.927C354.231 159.143 353.861 158.52 353.368 158.055C352.889 157.591 352.237 157.359 351.41 157.359C350.119 157.359 349.205 157.896 348.668 158.969C348.146 160.028 347.885 161.631 347.885 163.778ZM359.126 163.778C359.126 162.545 359.235 161.443 359.453 160.471C359.67 159.484 359.997 158.657 360.432 157.99C360.867 157.308 361.418 156.793 362.086 156.445C362.753 156.082 363.544 155.901 364.457 155.901C365.429 155.901 366.249 156.075 366.916 156.423C367.598 156.772 368.149 157.279 368.57 157.947C368.991 158.614 369.296 159.441 369.484 160.427C369.673 161.399 369.767 162.516 369.767 163.778C369.767 165.011 369.658 166.121 369.441 167.108C369.223 168.08 368.897 168.907 368.461 169.588C368.026 170.256 367.475 170.771 366.808 171.133C366.14 171.482 365.35 171.656 364.436 171.656C363.478 171.656 362.659 171.467 361.977 171.09C361.309 170.698 360.758 170.154 360.323 169.458C359.902 168.762 359.598 167.935 359.409 166.977C359.22 166.005 359.126 164.939 359.126 163.778ZM367.983 163.778C367.983 163.01 367.939 162.277 367.852 161.581L361.389 167.478C361.636 168.305 362.006 168.965 362.499 169.458C362.992 169.951 363.638 170.198 364.436 170.198C365.712 170.198 366.619 169.668 367.156 168.609C367.707 167.55 367.983 165.94 367.983 163.778ZM360.932 163.778C360.932 164.141 360.94 164.489 360.954 164.823C360.983 165.157 361.012 165.483 361.041 165.802L367.526 159.927C367.279 159.143 366.909 158.52 366.416 158.055C365.937 157.591 365.284 157.359 364.457 157.359C363.166 157.359 362.252 157.896 361.716 158.969C361.193 160.028 360.932 161.631 360.932 163.778Z" fill="black"/>
<rect x="100" y="142.395" width="281" height="45" stroke="#58A982"/>
<rect x="381" y="142.395" width="177" height="45" fill="#F1F7F5"/>
<path d="M392.411 163.778C392.411 162.545 392.519 161.443 392.737 160.471C392.955 159.484 393.281 158.657 393.716 157.99C394.151 157.308 394.703 156.793 395.37 156.445C396.037 156.082 396.828 155.901 397.742 155.901C398.714 155.901 399.533 156.075 400.201 156.423C400.883 156.772 401.434 157.279 401.855 157.947C402.275 158.614 402.58 159.441 402.768 160.427C402.957 161.399 403.051 162.516 403.051 163.778C403.051 165.011 402.943 166.121 402.725 167.108C402.507 168.08 402.181 168.907 401.746 169.588C401.311 170.256 400.759 170.771 400.092 171.133C399.425 171.482 398.634 171.656 397.72 171.656C396.763 171.656 395.943 171.467 395.261 171.09C394.594 170.698 394.043 170.154 393.607 169.458C393.187 168.762 392.882 167.935 392.693 166.977C392.505 166.005 392.411 164.939 392.411 163.778ZM401.267 163.778C401.267 163.01 401.224 162.277 401.136 161.581L394.674 167.478C394.92 168.305 395.29 168.965 395.783 169.458C396.277 169.951 396.922 170.198 397.72 170.198C398.997 170.198 399.903 169.668 400.44 168.609C400.991 167.55 401.267 165.94 401.267 163.778ZM394.217 163.778C394.217 164.141 394.224 164.489 394.238 164.823C394.267 165.157 394.296 165.483 394.325 165.802L400.81 159.927C400.563 159.143 400.194 158.52 399.7 158.055C399.222 157.591 398.569 157.359 397.742 157.359C396.451 157.359 395.537 157.896 395 158.969C394.478 160.028 394.217 161.631 394.217 163.778ZM409.332 170.198C409.332 169.733 409.462 169.378 409.723 169.131C409.984 168.87 410.333 168.74 410.768 168.74C411.232 168.74 411.595 168.87 411.856 169.131C412.117 169.378 412.248 169.733 412.248 170.198C412.248 170.618 412.117 170.967 411.856 171.242C411.595 171.518 411.232 171.656 410.768 171.656C410.333 171.656 409.984 171.518 409.723 171.242C409.462 170.967 409.332 170.618 409.332 170.198ZM431.554 163.778C431.554 162.545 431.662 161.443 431.88 160.471C432.098 159.484 432.424 158.657 432.859 157.99C433.295 157.308 433.846 156.793 434.513 156.445C435.18 156.082 435.971 155.901 436.885 155.901C437.857 155.901 438.677 156.075 439.344 156.423C440.026 156.772 440.577 157.279 440.998 157.947C441.418 158.614 441.723 159.441 441.912 160.427C442.1 161.399 442.195 162.516 442.195 163.778C442.195 165.011 442.086 166.121 441.868 167.108C441.65 168.08 441.324 168.907 440.889 169.588C440.454 170.256 439.902 170.771 439.235 171.133C438.568 171.482 437.777 171.656 436.863 171.656C435.906 171.656 435.086 171.467 434.404 171.09C433.737 170.698 433.186 170.154 432.751 169.458C432.33 168.762 432.025 167.935 431.837 166.977C431.648 166.005 431.554 164.939 431.554 163.778ZM440.41 163.778C440.41 163.01 440.367 162.277 440.28 161.581L433.817 167.478C434.063 168.305 434.433 168.965 434.927 169.458C435.42 169.951 436.065 170.198 436.863 170.198C438.14 170.198 439.047 169.668 439.583 168.609C440.135 167.55 440.41 165.94 440.41 163.778ZM433.36 163.778C433.36 164.141 433.367 164.489 433.382 164.823C433.411 165.157 433.44 165.483 433.469 165.802L439.953 159.927C439.707 159.143 439.337 158.52 438.843 158.055C438.365 157.591 437.712 157.359 436.885 157.359C435.594 157.359 434.68 157.896 434.143 158.969C433.621 160.028 433.36 161.631 433.36 163.778ZM444.601 163.778C444.601 162.545 444.71 161.443 444.928 160.471C445.145 159.484 445.472 158.657 445.907 157.99C446.342 157.308 446.893 156.793 447.561 156.445C448.228 156.082 449.019 155.901 449.933 155.901C450.905 155.901 451.724 156.075 452.392 156.423C453.073 156.772 453.625 157.279 454.045 157.947C454.466 158.614 454.771 159.441 454.959 160.427C455.148 161.399 455.242 162.516 455.242 163.778C455.242 165.011 455.133 166.121 454.916 167.108C454.698 168.08 454.372 168.907 453.937 169.588C453.501 170.256 452.95 170.771 452.283 171.133C451.615 171.482 450.825 171.656 449.911 171.656C448.953 171.656 448.134 171.467 447.452 171.09C446.785 170.698 446.233 170.154 445.798 169.458C445.378 168.762 445.073 167.935 444.884 166.977C444.696 166.005 444.601 164.939 444.601 163.778ZM453.458 163.778C453.458 163.01 453.414 162.277 453.327 161.581L446.864 167.478C447.111 168.305 447.481 168.965 447.974 169.458C448.467 169.951 449.113 170.198 449.911 170.198C451.188 170.198 452.094 169.668 452.631 168.609C453.182 167.55 453.458 165.94 453.458 163.778ZM446.408 163.778C446.408 164.141 446.415 164.489 446.429 164.823C446.458 165.157 446.487 165.483 446.516 165.802L453.001 159.927C452.754 159.143 452.384 158.52 451.891 158.055C451.412 157.591 450.76 157.359 449.933 157.359C448.642 157.359 447.728 157.896 447.191 158.969C446.669 160.028 446.408 161.631 446.408 163.778ZM457.649 163.778C457.649 162.545 457.758 161.443 457.976 160.471C458.193 159.484 458.52 158.657 458.955 157.99C459.39 157.308 459.941 156.793 460.609 156.445C461.276 156.082 462.066 155.901 462.98 155.901C463.952 155.901 464.772 156.075 465.439 156.423C466.121 156.772 466.672 157.279 467.093 157.947C467.514 158.614 467.818 159.441 468.007 160.427C468.196 161.399 468.29 162.516 468.29 163.778C468.29 165.011 468.181 166.121 467.964 167.108C467.746 168.08 467.42 168.907 466.984 169.588C466.549 170.256 465.998 170.771 465.331 171.133C464.663 171.482 463.873 171.656 462.959 171.656C462.001 171.656 461.182 171.467 460.5 171.09C459.832 170.698 459.281 170.154 458.846 169.458C458.425 168.762 458.121 167.935 457.932 166.977C457.743 166.005 457.649 164.939 457.649 163.778ZM466.506 163.778C466.506 163.01 466.462 162.277 466.375 161.581L459.912 167.478C460.159 168.305 460.529 168.965 461.022 169.458C461.515 169.951 462.161 170.198 462.959 170.198C464.235 170.198 465.142 169.668 465.679 168.609C466.23 167.55 466.506 165.94 466.506 163.778ZM459.455 163.778C459.455 164.141 459.462 164.489 459.477 164.823C459.506 165.157 459.535 165.483 459.564 165.802L466.049 159.927C465.802 159.143 465.432 158.52 464.939 158.055C464.46 157.591 463.807 157.359 462.98 157.359C461.689 157.359 460.775 157.896 460.239 158.969C459.716 160.028 459.455 161.631 459.455 163.778ZM470.697 163.778C470.697 162.545 470.806 161.443 471.023 160.471C471.241 159.484 471.567 158.657 472.002 157.99C472.438 157.308 472.989 156.793 473.656 156.445C474.324 156.082 475.114 155.901 476.028 155.901C477 155.901 477.82 156.075 478.487 156.423C479.169 156.772 479.72 157.279 480.141 157.947C480.562 158.614 480.866 159.441 481.055 160.427C481.243 161.399 481.338 162.516 481.338 163.778C481.338 165.011 481.229 166.121 481.011 167.108C480.794 168.08 480.467 168.907 480.032 169.588C479.597 170.256 479.046 170.771 478.378 171.133C477.711 171.482 476.92 171.656 476.006 171.656C475.049 171.656 474.229 171.467 473.547 171.09C472.88 170.698 472.329 170.154 471.894 169.458C471.473 168.762 471.168 167.935 470.98 166.977C470.791 166.005 470.697 164.939 470.697 163.778ZM479.553 163.778C479.553 163.01 479.51 162.277 479.423 161.581L472.96 167.478C473.207 168.305 473.576 168.965 474.07 169.458C474.563 169.951 475.208 170.198 476.006 170.198C477.283 170.198 478.19 169.668 478.726 168.609C479.278 167.55 479.553 165.94 479.553 163.778ZM472.503 163.778C472.503 164.141 472.51 164.489 472.525 164.823C472.554 165.157 472.583 165.483 472.612 165.802L479.096 159.927C478.85 159.143 478.48 158.52 477.987 158.055C477.508 157.591 476.855 157.359 476.028 157.359C474.737 157.359 473.823 157.896 473.286 158.969C472.764 160.028 472.503 161.631 472.503 163.778ZM496.792 163.778C496.792 162.545 496.901 161.443 497.119 160.471C497.336 159.484 497.663 158.657 498.098 157.99C498.533 157.308 499.084 156.793 499.752 156.445C500.419 156.082 501.21 155.901 502.124 155.901C503.095 155.901 503.915 156.075 504.582 156.423C505.264 156.772 505.816 157.279 506.236 157.947C506.657 158.614 506.962 159.441 507.15 160.427C507.339 161.399 507.433 162.516 507.433 163.778C507.433 165.011 507.324 166.121 507.107 167.108C506.889 168.08 506.563 168.907 506.127 169.588C505.692 170.256 505.141 170.771 504.474 171.133C503.806 171.482 503.016 171.656 502.102 171.656C501.144 171.656 500.325 171.467 499.643 171.09C498.976 170.698 498.424 170.154 497.989 169.458C497.568 168.762 497.264 167.935 497.075 166.977C496.887 166.005 496.792 164.939 496.792 163.778ZM505.649 163.778C505.649 163.01 505.605 162.277 505.518 161.581L499.055 167.478C499.302 168.305 499.672 168.965 500.165 169.458C500.658 169.951 501.304 170.198 502.102 170.198C503.378 170.198 504.285 169.668 504.822 168.609C505.373 167.55 505.649 165.94 505.649 163.778ZM498.598 163.778C498.598 164.141 498.606 164.489 498.62 164.823C498.649 165.157 498.678 165.483 498.707 165.802L505.192 159.927C504.945 159.143 504.575 158.52 504.082 158.055C503.603 157.591 502.95 157.359 502.124 157.359C500.832 157.359 499.918 157.896 499.382 158.969C498.859 160.028 498.598 161.631 498.598 163.778ZM509.84 163.778C509.84 162.545 509.949 161.443 510.166 160.471C510.384 159.484 510.71 158.657 511.146 157.99C511.581 157.308 512.132 156.793 512.799 156.445C513.467 156.082 514.257 155.901 515.171 155.901C516.143 155.901 516.963 156.075 517.63 156.423C518.312 156.772 518.863 157.279 519.284 157.947C519.705 158.614 520.009 159.441 520.198 160.427C520.386 161.399 520.481 162.516 520.481 163.778C520.481 165.011 520.372 166.121 520.154 167.108C519.937 168.08 519.61 168.907 519.175 169.588C518.74 170.256 518.189 170.771 517.521 171.133C516.854 171.482 516.063 171.656 515.149 171.656C514.192 171.656 513.372 171.467 512.691 171.09C512.023 170.698 511.472 170.154 511.037 169.458C510.616 168.762 510.311 167.935 510.123 166.977C509.934 166.005 509.84 164.939 509.84 163.778ZM518.696 163.778C518.696 163.01 518.653 162.277 518.566 161.581L512.103 167.478C512.35 168.305 512.72 168.965 513.213 169.458C513.706 169.951 514.352 170.198 515.149 170.198C516.426 170.198 517.333 169.668 517.87 168.609C518.421 167.55 518.696 165.94 518.696 163.778ZM511.646 163.778C511.646 164.141 511.653 164.489 511.668 164.823C511.697 165.157 511.726 165.483 511.755 165.802L518.239 159.927C517.993 159.143 517.623 158.52 517.13 158.055C516.651 157.591 515.998 157.359 515.171 157.359C513.88 157.359 512.966 157.896 512.429 158.969C511.907 160.028 511.646 161.631 511.646 163.778ZM522.888 163.778C522.888 162.545 522.996 161.443 523.214 160.471C523.432 159.484 523.758 158.657 524.193 157.99C524.628 157.308 525.18 156.793 525.847 156.445C526.514 156.082 527.305 155.901 528.219 155.901C529.191 155.901 530.011 156.075 530.678 156.423C531.36 156.772 531.911 157.279 532.332 157.947C532.752 158.614 533.057 159.441 533.246 160.427C533.434 161.399 533.528 162.516 533.528 163.778C533.528 165.011 533.42 166.121 533.202 167.108C532.984 168.08 532.658 168.907 532.223 169.588C531.788 170.256 531.236 170.771 530.569 171.133C529.902 171.482 529.111 171.656 528.197 171.656C527.24 171.656 526.42 171.467 525.738 171.09C525.071 170.698 524.52 170.154 524.084 169.458C523.664 168.762 523.359 167.935 523.171 166.977C522.982 166.005 522.888 164.939 522.888 163.778ZM531.744 163.778C531.744 163.01 531.701 162.277 531.614 161.581L525.151 167.478C525.397 168.305 525.767 168.965 526.261 169.458C526.754 169.951 527.399 170.198 528.197 170.198C529.474 170.198 530.38 169.668 530.917 168.609C531.468 167.55 531.744 165.94 531.744 163.778ZM524.694 163.778C524.694 164.141 524.701 164.489 524.716 164.823C524.745 165.157 524.774 165.483 524.803 165.802L531.287 159.927C531.041 159.143 530.671 158.52 530.177 158.055C529.699 157.591 529.046 157.359 528.219 157.359C526.928 157.359 526.014 157.896 525.477 158.969C524.955 160.028 524.694 161.631 524.694 163.778ZM535.935 163.778C535.935 162.545 536.044 161.443 536.262 160.471C536.479 159.484 536.806 158.657 537.241 157.99C537.676 157.308 538.227 156.793 538.895 156.445C539.562 156.082 540.353 155.901 541.267 155.901C542.239 155.901 543.058 156.075 543.726 156.423C544.407 156.772 544.959 157.279 545.379 157.947C545.8 158.614 546.105 159.441 546.293 160.427C546.482 161.399 546.576 162.516 546.576 163.778C546.576 165.011 546.467 166.121 546.25 167.108C546.032 168.08 545.706 168.907 545.271 169.588C544.835 170.256 544.284 170.771 543.617 171.133C542.949 171.482 542.159 171.656 541.245 171.656C540.287 171.656 539.468 171.467 538.786 171.09C538.119 170.698 537.567 170.154 537.132 169.458C536.711 168.762 536.407 167.935 536.218 166.977C536.03 166.005 535.935 164.939 535.935 163.778ZM544.792 163.778C544.792 163.01 544.748 162.277 544.661 161.581L538.198 167.478C538.445 168.305 538.815 168.965 539.308 169.458C539.801 169.951 540.447 170.198 541.245 170.198C542.522 170.198 543.428 169.668 543.965 168.609C544.516 167.55 544.792 165.94 544.792 163.778ZM537.741 163.778C537.741 164.141 537.749 164.489 537.763 164.823C537.792 165.157 537.821 165.483 537.85 165.802L544.335 159.927C544.088 159.143 543.718 158.52 543.225 158.055C542.746 157.591 542.094 157.359 541.267 157.359C539.976 157.359 539.062 157.896 538.525 158.969C538.003 160.028 537.741 161.631 537.741 163.778Z" fill="black"/>
<rect x="381" y="142.395" width="177" height="45" stroke="#58A982"/>
<rect x="100" y="199.082" width="281" height="45" fill="#DBEEE5"/>
<path d="M120.903 216.701C120.903 218.036 120.272 219.523 119.01 221.162C117.748 222.802 115.985 224.586 113.722 226.515H121.382V228.082H111.72V226.515C111.996 226.254 112.373 225.913 112.852 225.493C113.33 225.072 113.845 224.608 114.397 224.1C114.948 223.578 115.507 223.019 116.072 222.424C116.653 221.83 117.175 221.22 117.639 220.596C118.103 219.973 118.48 219.349 118.771 218.725C119.061 218.101 119.206 217.499 119.206 216.919C119.206 216.049 118.974 215.367 118.509 214.873C118.06 214.366 117.378 214.112 116.464 214.112C115.681 214.112 115.021 214.199 114.484 214.373C113.947 214.547 113.461 214.801 113.026 215.135L112.286 213.938C112.939 213.474 113.628 213.133 114.353 212.915C115.093 212.697 115.898 212.589 116.769 212.589C118.132 212.589 119.162 212.959 119.859 213.698C120.555 214.438 120.903 215.439 120.903 216.701ZM128.641 226.82C129.193 226.82 129.7 226.755 130.164 226.624C130.629 226.479 131.02 226.269 131.34 225.993C131.673 225.703 131.927 225.347 132.101 224.927C132.29 224.506 132.384 224.013 132.384 223.447C132.384 222.403 132.007 221.612 131.253 221.075C130.513 220.524 129.497 220.248 128.206 220.248L126.161 220.357V212.85H133.624V214.417H127.793V218.834L128.881 218.79C130.491 218.79 131.76 219.182 132.689 219.965C133.617 220.749 134.081 221.866 134.081 223.317C134.081 224.129 133.936 224.847 133.646 225.471C133.371 226.095 132.986 226.624 132.493 227.059C132 227.48 131.412 227.799 130.73 228.017C130.063 228.234 129.33 228.343 128.532 228.343C128.097 228.343 127.684 228.307 127.292 228.234C126.9 228.176 126.545 228.104 126.226 228.017C125.907 227.915 125.624 227.814 125.377 227.712C125.145 227.596 124.978 227.495 124.877 227.407L125.573 225.993C125.82 226.138 126.197 226.312 126.705 226.515C127.212 226.718 127.858 226.82 128.641 226.82ZM141.689 226.82C142.24 226.82 142.748 226.755 143.212 226.624C143.676 226.479 144.068 226.269 144.387 225.993C144.721 225.703 144.975 225.347 145.149 224.927C145.337 224.506 145.432 224.013 145.432 223.447C145.432 222.403 145.055 221.612 144.3 221.075C143.56 220.524 142.545 220.248 141.254 220.248L139.208 220.357V212.85H146.672V214.417H140.84V218.834L141.928 218.79C143.539 218.79 144.808 219.182 145.736 219.965C146.665 220.749 147.129 221.866 147.129 223.317C147.129 224.129 146.984 224.847 146.694 225.471C146.418 226.095 146.034 226.624 145.541 227.059C145.047 227.48 144.46 227.799 143.778 228.017C143.111 228.234 142.378 228.343 141.58 228.343C141.145 228.343 140.732 228.307 140.34 228.234C139.948 228.176 139.593 228.104 139.274 228.017C138.954 227.915 138.672 227.814 138.425 227.712C138.193 227.596 138.026 227.495 137.924 227.407L138.621 225.993C138.867 226.138 139.245 226.312 139.752 226.515C140.26 226.718 140.906 226.82 141.689 226.82ZM154.236 226.885C154.236 226.421 154.367 226.066 154.628 225.819C154.889 225.558 155.237 225.427 155.672 225.427C156.137 225.427 156.499 225.558 156.76 225.819C157.022 226.066 157.152 226.421 157.152 226.885C157.152 227.306 157.022 227.654 156.76 227.93C156.499 228.205 156.137 228.343 155.672 228.343C155.237 228.343 154.889 228.205 154.628 227.93C154.367 227.654 154.236 227.306 154.236 226.885ZM199.189 216.701C199.189 218.036 198.558 219.523 197.296 221.162C196.034 222.802 194.271 224.586 192.008 226.515H199.668V228.082H190.006V226.515C190.282 226.254 190.659 225.913 191.138 225.493C191.617 225.072 192.132 224.608 192.683 224.1C193.234 223.578 193.793 223.019 194.359 222.424C194.939 221.83 195.461 221.22 195.925 220.596C196.39 219.973 196.767 219.349 197.057 218.725C197.347 218.101 197.492 217.499 197.492 216.919C197.492 216.049 197.26 215.367 196.796 214.873C196.346 214.366 195.664 214.112 194.75 214.112C193.967 214.112 193.307 214.199 192.77 214.373C192.233 214.547 191.747 214.801 191.312 215.135L190.572 213.938C191.225 213.474 191.914 213.133 192.639 212.915C193.379 212.697 194.184 212.589 195.055 212.589C196.419 212.589 197.449 212.959 198.145 213.698C198.841 214.438 199.189 215.439 199.189 216.701ZM206.928 226.82C207.479 226.82 207.987 226.755 208.451 226.624C208.915 226.479 209.307 226.269 209.626 225.993C209.959 225.703 210.213 225.347 210.387 224.927C210.576 224.506 210.67 224.013 210.67 223.447C210.67 222.403 210.293 221.612 209.539 221.075C208.799 220.524 207.783 220.248 206.492 220.248L204.447 220.357V212.85H211.911V214.417H206.079V218.834L207.167 218.79C208.777 218.79 210.047 219.182 210.975 219.965C211.903 220.749 212.368 221.866 212.368 223.317C212.368 224.129 212.223 224.847 211.932 225.471C211.657 226.095 211.272 226.624 210.779 227.059C210.286 227.48 209.698 227.799 209.017 228.017C208.349 228.234 207.617 228.343 206.819 228.343C206.384 228.343 205.97 228.307 205.578 228.234C205.187 228.176 204.831 228.104 204.512 228.017C204.193 227.915 203.91 227.814 203.663 227.712C203.431 227.596 203.265 227.495 203.163 227.407L203.859 225.993C204.106 226.138 204.483 226.312 204.991 226.515C205.499 226.718 206.144 226.82 206.928 226.82ZM219.975 226.82C220.526 226.82 221.034 226.755 221.498 226.624C221.963 226.479 222.354 226.269 222.674 225.993C223.007 225.703 223.261 225.347 223.435 224.927C223.624 224.506 223.718 224.013 223.718 223.447C223.718 222.403 223.341 221.612 222.586 221.075C221.847 220.524 220.831 220.248 219.54 220.248L217.495 220.357V212.85H224.958V214.417H219.127V218.834L220.215 218.79C221.825 218.79 223.094 219.182 224.023 219.965C224.951 220.749 225.415 221.866 225.415 223.317C225.415 224.129 225.27 224.847 224.98 225.471C224.704 226.095 224.32 226.624 223.827 227.059C223.334 227.48 222.746 227.799 222.064 228.017C221.397 228.234 220.664 228.343 219.866 228.343C219.431 228.343 219.018 228.307 218.626 228.234C218.234 228.176 217.879 228.104 217.56 228.017C217.241 227.915 216.958 227.814 216.711 227.712C216.479 227.596 216.312 227.495 216.211 227.407L216.907 225.993C217.154 226.138 217.531 226.312 218.039 226.515C218.546 226.718 219.192 226.82 219.975 226.82ZM232.522 226.885C232.522 226.421 232.653 226.066 232.914 225.819C233.175 225.558 233.523 225.427 233.959 225.427C234.423 225.427 234.786 225.558 235.047 225.819C235.308 226.066 235.438 226.421 235.438 226.885C235.438 227.306 235.308 227.654 235.047 227.93C234.786 228.205 234.423 228.343 233.959 228.343C233.523 228.343 233.175 228.205 232.914 227.93C232.653 227.654 232.522 227.306 232.522 226.885ZM269.359 226.515H272.775V215.069L269.294 217.507L268.445 216.266L273.232 212.85H274.451V226.515H277.802V228.082H269.359V226.515ZM282.407 226.515H285.823V215.069L282.341 217.507L281.493 216.266L286.28 212.85H287.499V226.515H290.85V228.082H282.407V226.515ZM295.454 226.515H298.871V215.069L295.389 217.507L294.54 216.266L299.328 212.85H300.546V226.515H303.897V228.082H295.454V226.515ZM308.502 226.515H311.918V215.069L308.437 217.507L307.588 216.266L312.375 212.85H313.594V226.515H316.945V228.082H308.502V226.515ZM334.598 226.515H338.014V215.069L334.532 217.507L333.684 216.266L338.471 212.85H339.689V226.515H343.041V228.082H334.598V226.515ZM347.645 226.515H351.062V215.069L347.58 217.507L346.731 216.266L351.519 212.85H352.737V226.515H356.088V228.082H347.645V226.515ZM360.693 226.515H364.109V215.069L360.628 217.507L359.779 216.266L364.566 212.85H365.785V226.515H369.136V228.082H360.693V226.515Z" fill="black"/>
<rect x="100" y="199.082" width="281" height="45" stroke="#58A982"/>
<rect x="381" y="199.082" width="177" height="45" fill="#F1F7F5"/>
<path d="M392.411 220.466C392.411 219.233 392.519 218.13 392.737 217.158C392.955 216.172 393.281 215.345 393.716 214.678C394.151 213.996 394.703 213.481 395.37 213.133C396.037 212.77 396.828 212.589 397.742 212.589C398.714 212.589 399.533 212.763 400.201 213.111C400.883 213.459 401.434 213.967 401.855 214.634C402.275 215.301 402.58 216.128 402.768 217.115C402.957 218.087 403.051 219.204 403.051 220.466C403.051 221.699 402.943 222.809 402.725 223.795C402.507 224.767 402.181 225.594 401.746 226.276C401.311 226.943 400.759 227.458 400.092 227.821C399.425 228.169 398.634 228.343 397.72 228.343C396.763 228.343 395.943 228.155 395.261 227.777C394.594 227.386 394.043 226.842 393.607 226.145C393.187 225.449 392.882 224.622 392.693 223.665C392.505 222.693 392.411 221.626 392.411 220.466ZM401.267 220.466C401.267 219.697 401.224 218.964 401.136 218.268L394.674 224.165C394.92 224.992 395.29 225.652 395.783 226.145C396.277 226.639 396.922 226.885 397.72 226.885C398.997 226.885 399.903 226.356 400.44 225.297C400.991 224.238 401.267 222.627 401.267 220.466ZM394.217 220.466C394.217 220.829 394.224 221.177 394.238 221.51C394.267 221.844 394.296 222.17 394.325 222.49L400.81 216.614C400.563 215.831 400.194 215.207 399.7 214.743C399.222 214.279 398.569 214.047 397.742 214.047C396.451 214.047 395.537 214.583 395 215.657C394.478 216.716 394.217 218.319 394.217 220.466ZM409.332 226.885C409.332 226.421 409.462 226.066 409.723 225.819C409.984 225.558 410.333 225.427 410.768 225.427C411.232 225.427 411.595 225.558 411.856 225.819C412.117 226.066 412.248 226.421 412.248 226.885C412.248 227.306 412.117 227.654 411.856 227.93C411.595 228.205 411.232 228.343 410.768 228.343C410.333 228.343 409.984 228.205 409.723 227.93C409.462 227.654 409.332 227.306 409.332 226.885ZM431.554 220.466C431.554 219.233 431.662 218.13 431.88 217.158C432.098 216.172 432.424 215.345 432.859 214.678C433.295 213.996 433.846 213.481 434.513 213.133C435.18 212.77 435.971 212.589 436.885 212.589C437.857 212.589 438.677 212.763 439.344 213.111C440.026 213.459 440.577 213.967 440.998 214.634C441.418 215.301 441.723 216.128 441.912 217.115C442.1 218.087 442.195 219.204 442.195 220.466C442.195 221.699 442.086 222.809 441.868 223.795C441.65 224.767 441.324 225.594 440.889 226.276C440.454 226.943 439.902 227.458 439.235 227.821C438.568 228.169 437.777 228.343 436.863 228.343C435.906 228.343 435.086 228.155 434.404 227.777C433.737 227.386 433.186 226.842 432.751 226.145C432.33 225.449 432.025 224.622 431.837 223.665C431.648 222.693 431.554 221.626 431.554 220.466ZM440.41 220.466C440.41 219.697 440.367 218.964 440.28 218.268L433.817 224.165C434.063 224.992 434.433 225.652 434.927 226.145C435.42 226.639 436.065 226.885 436.863 226.885C438.14 226.885 439.047 226.356 439.583 225.297C440.135 224.238 440.41 222.627 440.41 220.466ZM433.36 220.466C433.36 220.829 433.367 221.177 433.382 221.51C433.411 221.844 433.44 222.17 433.469 222.49L439.953 216.614C439.707 215.831 439.337 215.207 438.843 214.743C438.365 214.279 437.712 214.047 436.885 214.047C435.594 214.047 434.68 214.583 434.143 215.657C433.621 216.716 433.36 218.319 433.36 220.466ZM444.601 220.466C444.601 219.233 444.71 218.13 444.928 217.158C445.145 216.172 445.472 215.345 445.907 214.678C446.342 213.996 446.893 213.481 447.561 213.133C448.228 212.77 449.019 212.589 449.933 212.589C450.905 212.589 451.724 212.763 452.392 213.111C453.073 213.459 453.625 213.967 454.045 214.634C454.466 215.301 454.771 216.128 454.959 217.115C455.148 218.087 455.242 219.204 455.242 220.466C455.242 221.699 455.133 222.809 454.916 223.795C454.698 224.767 454.372 225.594 453.937 226.276C453.501 226.943 452.95 227.458 452.283 227.821C451.615 228.169 450.825 228.343 449.911 228.343C448.953 228.343 448.134 228.155 447.452 227.777C446.785 227.386 446.233 226.842 445.798 226.145C445.378 225.449 445.073 224.622 444.884 223.665C444.696 222.693 444.601 221.626 444.601 220.466ZM453.458 220.466C453.458 219.697 453.414 218.964 453.327 218.268L446.864 224.165C447.111 224.992 447.481 225.652 447.974 226.145C448.467 226.639 449.113 226.885 449.911 226.885C451.188 226.885 452.094 226.356 452.631 225.297C453.182 224.238 453.458 222.627 453.458 220.466ZM446.408 220.466C446.408 220.829 446.415 221.177 446.429 221.51C446.458 221.844 446.487 222.17 446.516 222.49L453.001 216.614C452.754 215.831 452.384 215.207 451.891 214.743C451.412 214.279 450.76 214.047 449.933 214.047C448.642 214.047 447.728 214.583 447.191 215.657C446.669 216.716 446.408 218.319 446.408 220.466ZM457.649 220.466C457.649 219.233 457.758 218.13 457.976 217.158C458.193 216.172 458.52 215.345 458.955 214.678C459.39 213.996 459.941 213.481 460.609 213.133C461.276 212.77 462.066 212.589 462.98 212.589C463.952 212.589 464.772 212.763 465.439 213.111C466.121 213.459 466.672 213.967 467.093 214.634C467.514 215.301 467.818 216.128 468.007 217.115C468.196 218.087 468.29 219.204 468.29 220.466C468.29 221.699 468.181 222.809 467.964 223.795C467.746 224.767 467.42 225.594 466.984 226.276C466.549 226.943 465.998 227.458 465.331 227.821C464.663 228.169 463.873 228.343 462.959 228.343C462.001 228.343 461.182 228.155 460.5 227.777C459.832 227.386 459.281 226.842 458.846 226.145C458.425 225.449 458.121 224.622 457.932 223.665C457.743 222.693 457.649 221.626 457.649 220.466ZM466.506 220.466C466.506 219.697 466.462 218.964 466.375 218.268L459.912 224.165C460.159 224.992 460.529 225.652 461.022 226.145C461.515 226.639 462.161 226.885 462.959 226.885C464.235 226.885 465.142 226.356 465.679 225.297C466.23 224.238 466.506 222.627 466.506 220.466ZM459.455 220.466C459.455 220.829 459.462 221.177 459.477 221.51C459.506 221.844 459.535 222.17 459.564 222.49L466.049 216.614C465.802 215.831 465.432 215.207 464.939 214.743C464.46 214.279 463.807 214.047 462.98 214.047C461.689 214.047 460.775 214.583 460.239 215.657C459.716 216.716 459.455 218.319 459.455 220.466ZM470.697 220.466C470.697 219.233 470.806 218.13 471.023 217.158C471.241 216.172 471.567 215.345 472.002 214.678C472.438 213.996 472.989 213.481 473.656 213.133C474.324 212.77 475.114 212.589 476.028 212.589C477 212.589 477.82 212.763 478.487 213.111C479.169 213.459 479.72 213.967 480.141 214.634C480.562 215.301 480.866 216.128 481.055 217.115C481.243 218.087 481.338 219.204 481.338 220.466C481.338 221.699 481.229 222.809 481.011 223.795C480.794 224.767 480.467 225.594 480.032 226.276C479.597 226.943 479.046 227.458 478.378 227.821C477.711 228.169 476.92 228.343 476.006 228.343C475.049 228.343 474.229 228.155 473.547 227.777C472.88 227.386 472.329 226.842 471.894 226.145C471.473 225.449 471.168 224.622 470.98 223.665C470.791 222.693 470.697 221.626 470.697 220.466ZM479.553 220.466C479.553 219.697 479.51 218.964 479.423 218.268L472.96 224.165C473.207 224.992 473.576 225.652 474.07 226.145C474.563 226.639 475.208 226.885 476.006 226.885C477.283 226.885 478.19 226.356 478.726 225.297C479.278 224.238 479.553 222.627 479.553 220.466ZM472.503 220.466C472.503 220.829 472.51 221.177 472.525 221.51C472.554 221.844 472.583 222.17 472.612 222.49L479.096 216.614C478.85 215.831 478.48 215.207 477.987 214.743C477.508 214.279 476.855 214.047 476.028 214.047C474.737 214.047 473.823 214.583 473.286 215.657C472.764 216.716 472.503 218.319 472.503 220.466ZM496.792 220.466C496.792 219.233 496.901 218.13 497.119 217.158C497.336 216.172 497.663 215.345 498.098 214.678C498.533 213.996 499.084 213.481 499.752 213.133C500.419 212.77 501.21 212.589 502.124 212.589C503.095 212.589 503.915 212.763 504.582 213.111C505.264 213.459 505.816 213.967 506.236 214.634C506.657 215.301 506.962 216.128 507.15 217.115C507.339 218.087 507.433 219.204 507.433 220.466C507.433 221.699 507.324 222.809 507.107 223.795C506.889 224.767 506.563 225.594 506.127 226.276C505.692 226.943 505.141 227.458 504.474 227.821C503.806 228.169 503.016 228.343 502.102 228.343C501.144 228.343 500.325 228.155 499.643 227.777C498.976 227.386 498.424 226.842 497.989 226.145C497.568 225.449 497.264 224.622 497.075 223.665C496.887 222.693 496.792 221.626 496.792 220.466ZM505.649 220.466C505.649 219.697 505.605 218.964 505.518 218.268L499.055 224.165C499.302 224.992 499.672 225.652 500.165 226.145C500.658 226.639 501.304 226.885 502.102 226.885C503.378 226.885 504.285 226.356 504.822 225.297C505.373 224.238 505.649 222.627 505.649 220.466ZM498.598 220.466C498.598 220.829 498.606 221.177 498.62 221.51C498.649 221.844 498.678 222.17 498.707 222.49L505.192 216.614C504.945 215.831 504.575 215.207 504.082 214.743C503.603 214.279 502.95 214.047 502.124 214.047C500.832 214.047 499.918 214.583 499.382 215.657C498.859 216.716 498.598 218.319 498.598 220.466ZM509.84 220.466C509.84 219.233 509.949 218.13 510.166 217.158C510.384 216.172 510.71 215.345 511.146 214.678C511.581 213.996 512.132 213.481 512.799 213.133C513.467 212.77 514.257 212.589 515.171 212.589C516.143 212.589 516.963 212.763 517.63 213.111C518.312 213.459 518.863 213.967 519.284 214.634C519.705 215.301 520.009 216.128 520.198 217.115C520.386 218.087 520.481 219.204 520.481 220.466C520.481 221.699 520.372 222.809 520.154 223.795C519.937 224.767 519.61 225.594 519.175 226.276C518.74 226.943 518.189 227.458 517.521 227.821C516.854 228.169 516.063 228.343 515.149 228.343C514.192 228.343 513.372 228.155 512.691 227.777C512.023 227.386 511.472 226.842 511.037 226.145C510.616 225.449 510.311 224.622 510.123 223.665C509.934 222.693 509.84 221.626 509.84 220.466ZM518.696 220.466C518.696 219.697 518.653 218.964 518.566 218.268L512.103 224.165C512.35 224.992 512.72 225.652 513.213 226.145C513.706 226.639 514.352 226.885 515.149 226.885C516.426 226.885 517.333 226.356 517.87 225.297C518.421 224.238 518.696 222.627 518.696 220.466ZM511.646 220.466C511.646 220.829 511.653 221.177 511.668 221.51C511.697 221.844 511.726 222.17 511.755 222.49L518.239 216.614C517.993 215.831 517.623 215.207 517.13 214.743C516.651 214.279 515.998 214.047 515.171 214.047C513.88 214.047 512.966 214.583 512.429 215.657C511.907 216.716 511.646 218.319 511.646 220.466ZM522.888 220.466C522.888 219.233 522.996 218.13 523.214 217.158C523.432 216.172 523.758 215.345 524.193 214.678C524.628 213.996 525.18 213.481 525.847 213.133C526.514 212.77 527.305 212.589 528.219 212.589C529.191 212.589 530.011 212.763 530.678 213.111C531.36 213.459 531.911 213.967 532.332 214.634C532.752 215.301 533.057 216.128 533.246 217.115C533.434 218.087 533.528 219.204 533.528 220.466C533.528 221.699 533.42 222.809 533.202 223.795C532.984 224.767 532.658 225.594 532.223 226.276C531.788 226.943 531.236 227.458 530.569 227.821C529.902 228.169 529.111 228.343 528.197 228.343C527.24 228.343 526.42 228.155 525.738 227.777C525.071 227.386 524.52 226.842 524.084 226.145C523.664 225.449 523.359 224.622 523.171 223.665C522.982 222.693 522.888 221.626 522.888 220.466ZM531.744 220.466C531.744 219.697 531.701 218.964 531.614 218.268L525.151 224.165C525.397 224.992 525.767 225.652 526.261 226.145C526.754 226.639 527.399 226.885 528.197 226.885C529.474 226.885 530.38 226.356 530.917 225.297C531.468 224.238 531.744 222.627 531.744 220.466ZM524.694 220.466C524.694 220.829 524.701 221.177 524.716 221.51C524.745 221.844 524.774 222.17 524.803 222.49L531.287 216.614C531.041 215.831 530.671 215.207 530.177 214.743C529.699 214.279 529.046 214.047 528.219 214.047C526.928 214.047 526.014 214.583 525.477 215.657C524.955 216.716 524.694 218.319 524.694 220.466ZM535.935 220.466C535.935 219.233 536.044 218.13 536.262 217.158C536.479 216.172 536.806 215.345 537.241 214.678C537.676 213.996 538.227 213.481 538.895 213.133C539.562 212.77 540.353 212.589 541.267 212.589C542.239 212.589 543.058 212.763 543.726 213.111C544.407 213.459 544.959 213.967 545.379 214.634C545.8 215.301 546.105 216.128 546.293 217.115C546.482 218.087 546.576 219.204 546.576 220.466C546.576 221.699 546.467 222.809 546.25 223.795C546.032 224.767 545.706 225.594 545.271 226.276C544.835 226.943 544.284 227.458 543.617 227.821C542.949 228.169 542.159 228.343 541.245 228.343C540.287 228.343 539.468 228.155 538.786 227.777C538.119 227.386 537.567 226.842 537.132 226.145C536.711 225.449 536.407 224.622 536.218 223.665C536.03 222.693 535.935 221.626 535.935 220.466ZM544.792 220.466C544.792 219.697 544.748 218.964 544.661 218.268L538.198 224.165C538.445 224.992 538.815 225.652 539.308 226.145C539.801 226.639 540.447 226.885 541.245 226.885C542.522 226.885 543.428 226.356 543.965 225.297C544.516 224.238 544.792 222.627 544.792 220.466ZM537.741 220.466C537.741 220.829 537.749 221.177 537.763 221.51C537.792 221.844 537.821 222.17 537.85 222.49L544.335 216.614C544.088 215.831 543.718 215.207 543.225 214.743C542.746 214.279 542.094 214.047 541.267 214.047C539.976 214.047 539.062 214.583 538.525 215.657C538.003 216.716 537.741 218.319 537.741 220.466Z" fill="black"/>
<rect x="381" y="199.082" width="177" height="45" stroke="#58A982"/>
<path d="M355 116.848L264 116.848V106.848L355 106.848V116.848Z" fill="#FFBD6E"/>
<path d="M355 100.301L375 111.848L355 123.395V100.301Z" fill="#FFBD6E"/>
</svg>
