<svg width="723" height="345" viewBox="0 0 723 345" fill="none" xmlns="http://www.w3.org/2000/svg">
<rect x="100" y="142.57" width="255" height="45" fill="#DBEEE5"/>
<path d="M112.834 170.004H116.251V158.558L112.769 160.995L111.92 159.754L116.708 156.338H117.926V170.004H121.277V171.57H112.834V170.004ZM124.315 163.954C124.315 162.721 124.424 161.619 124.642 160.647C124.859 159.66 125.186 158.833 125.621 158.166C126.056 157.484 126.607 156.969 127.275 156.621C127.942 156.258 128.732 156.077 129.646 156.077C130.618 156.077 131.438 156.251 132.105 156.599C132.787 156.947 133.338 157.455 133.759 158.122C134.18 158.79 134.484 159.617 134.673 160.603C134.862 161.575 134.956 162.692 134.956 163.954C134.956 165.187 134.847 166.297 134.63 167.284C134.412 168.255 134.086 169.082 133.65 169.764C133.215 170.432 132.664 170.947 131.997 171.309C131.329 171.657 130.539 171.831 129.625 171.831C128.667 171.831 127.848 171.643 127.166 171.266C126.498 170.874 125.947 170.33 125.512 169.634C125.091 168.937 124.787 168.11 124.598 167.153C124.409 166.181 124.315 165.115 124.315 163.954ZM133.172 163.954C133.172 163.185 133.128 162.453 133.041 161.756L126.578 167.653C126.825 168.48 127.195 169.14 127.688 169.634C128.181 170.127 128.827 170.373 129.625 170.373C130.901 170.373 131.808 169.844 132.345 168.785C132.896 167.726 133.172 166.116 133.172 163.954ZM126.121 163.954C126.121 164.317 126.129 164.665 126.143 164.999C126.172 165.332 126.201 165.659 126.23 165.978L132.715 160.103C132.468 159.319 132.098 158.695 131.605 158.231C131.126 157.767 130.473 157.535 129.646 157.535C128.355 157.535 127.441 158.072 126.905 159.145C126.382 160.204 126.121 161.807 126.121 163.954ZM141.236 170.373C141.236 169.909 141.367 169.554 141.628 169.307C141.889 169.046 142.237 168.916 142.672 168.916C143.137 168.916 143.499 169.046 143.76 169.307C144.022 169.554 144.152 169.909 144.152 170.373C144.152 170.794 144.022 171.142 143.76 171.418C143.499 171.694 143.137 171.831 142.672 171.831C142.237 171.831 141.889 171.694 141.628 171.418C141.367 171.142 141.236 170.794 141.236 170.373ZM189.554 163.954C189.554 162.721 189.662 161.619 189.88 160.647C190.098 159.66 190.424 158.833 190.859 158.166C191.295 157.484 191.846 156.969 192.513 156.621C193.18 156.258 193.971 156.077 194.885 156.077C195.857 156.077 196.677 156.251 197.344 156.599C198.026 156.947 198.577 157.455 198.998 158.122C199.418 158.79 199.723 159.617 199.912 160.603C200.1 161.575 200.195 162.692 200.195 163.954C200.195 165.187 200.086 166.297 199.868 167.284C199.65 168.255 199.324 169.082 198.889 169.764C198.454 170.432 197.902 170.947 197.235 171.309C196.568 171.657 195.777 171.831 194.863 171.831C193.906 171.831 193.086 171.643 192.404 171.266C191.737 170.874 191.186 170.33 190.751 169.634C190.33 168.937 190.025 168.11 189.837 167.153C189.648 166.181 189.554 165.115 189.554 163.954ZM198.41 163.954C198.41 163.185 198.367 162.453 198.28 161.756L191.817 167.653C192.063 168.48 192.433 169.14 192.927 169.634C193.42 170.127 194.065 170.373 194.863 170.373C196.14 170.373 197.047 169.844 197.583 168.785C198.135 167.726 198.41 166.116 198.41 163.954ZM191.36 163.954C191.36 164.317 191.367 164.665 191.382 164.999C191.411 165.332 191.44 165.659 191.469 165.978L197.953 160.103C197.707 159.319 197.337 158.695 196.843 158.231C196.365 157.767 195.712 157.535 194.885 157.535C193.594 157.535 192.68 158.072 192.143 159.145C191.621 160.204 191.36 161.807 191.36 163.954ZM202.601 163.954C202.601 162.721 202.71 161.619 202.928 160.647C203.145 159.66 203.472 158.833 203.907 158.166C204.342 157.484 204.893 156.969 205.561 156.621C206.228 156.258 207.019 156.077 207.933 156.077C208.905 156.077 209.724 156.251 210.392 156.599C211.073 156.947 211.625 157.455 212.045 158.122C212.466 158.79 212.771 159.617 212.959 160.603C213.148 161.575 213.242 162.692 213.242 163.954C213.242 165.187 213.133 166.297 212.916 167.284C212.698 168.255 212.372 169.082 211.937 169.764C211.501 170.432 210.95 170.947 210.283 171.309C209.615 171.657 208.825 171.831 207.911 171.831C206.953 171.831 206.134 171.643 205.452 171.266C204.785 170.874 204.233 170.33 203.798 169.634C203.378 168.937 203.073 168.11 202.884 167.153C202.696 166.181 202.601 165.115 202.601 163.954ZM211.458 163.954C211.458 163.185 211.414 162.453 211.327 161.756L204.864 167.653C205.111 168.48 205.481 169.14 205.974 169.634C206.467 170.127 207.113 170.373 207.911 170.373C209.188 170.373 210.094 169.844 210.631 168.785C211.182 167.726 211.458 166.116 211.458 163.954ZM204.408 163.954C204.408 164.317 204.415 164.665 204.429 164.999C204.458 165.332 204.487 165.659 204.516 165.978L211.001 160.103C210.754 159.319 210.384 158.695 209.891 158.231C209.412 157.767 208.76 157.535 207.933 157.535C206.642 157.535 205.728 158.072 205.191 159.145C204.669 160.204 204.408 161.807 204.408 163.954ZM215.649 163.954C215.649 162.721 215.758 161.619 215.976 160.647C216.193 159.66 216.52 158.833 216.955 158.166C217.39 157.484 217.941 156.969 218.609 156.621C219.276 156.258 220.066 156.077 220.98 156.077C221.952 156.077 222.772 156.251 223.439 156.599C224.121 156.947 224.672 157.455 225.093 158.122C225.514 158.79 225.818 159.617 226.007 160.603C226.196 161.575 226.29 162.692 226.29 163.954C226.29 165.187 226.181 166.297 225.964 167.284C225.746 168.255 225.42 169.082 224.984 169.764C224.549 170.432 223.998 170.947 223.331 171.309C222.663 171.657 221.873 171.831 220.959 171.831C220.001 171.831 219.182 171.643 218.5 171.266C217.832 170.874 217.281 170.33 216.846 169.634C216.425 168.937 216.121 168.11 215.932 167.153C215.743 166.181 215.649 165.115 215.649 163.954ZM224.506 163.954C224.506 163.185 224.462 162.453 224.375 161.756L217.912 167.653C218.159 168.48 218.529 169.14 219.022 169.634C219.515 170.127 220.161 170.373 220.959 170.373C222.235 170.373 223.142 169.844 223.679 168.785C224.23 167.726 224.506 166.116 224.506 163.954ZM217.455 163.954C217.455 164.317 217.462 164.665 217.477 164.999C217.506 165.332 217.535 165.659 217.564 165.978L224.049 160.103C223.802 159.319 223.432 158.695 222.939 158.231C222.46 157.767 221.807 157.535 220.98 157.535C219.689 157.535 218.775 158.072 218.239 159.145C217.716 160.204 217.455 161.807 217.455 163.954ZM228.697 163.954C228.697 162.721 228.806 161.619 229.023 160.647C229.241 159.66 229.567 158.833 230.002 158.166C230.438 157.484 230.989 156.969 231.656 156.621C232.324 156.258 233.114 156.077 234.028 156.077C235 156.077 235.82 156.251 236.487 156.599C237.169 156.947 237.72 157.455 238.141 158.122C238.562 158.79 238.866 159.617 239.055 160.603C239.243 161.575 239.338 162.692 239.338 163.954C239.338 165.187 239.229 166.297 239.011 167.284C238.794 168.255 238.467 169.082 238.032 169.764C237.597 170.432 237.046 170.947 236.378 171.309C235.711 171.657 234.92 171.831 234.006 171.831C233.049 171.831 232.229 171.643 231.547 171.266C230.88 170.874 230.329 170.33 229.894 169.634C229.473 168.937 229.168 168.11 228.98 167.153C228.791 166.181 228.697 165.115 228.697 163.954ZM237.553 163.954C237.553 163.185 237.51 162.453 237.423 161.756L230.96 167.653C231.207 168.48 231.576 169.14 232.07 169.634C232.563 170.127 233.208 170.373 234.006 170.373C235.283 170.373 236.19 169.844 236.726 168.785C237.278 167.726 237.553 166.116 237.553 163.954ZM230.503 163.954C230.503 164.317 230.51 164.665 230.525 164.999C230.554 165.332 230.583 165.659 230.612 165.978L237.096 160.103C236.85 159.319 236.48 158.695 235.987 158.231C235.508 157.767 234.855 157.535 234.028 157.535C232.737 157.535 231.823 158.072 231.286 159.145C230.764 160.204 230.503 161.807 230.503 163.954ZM254.792 163.954C254.792 162.721 254.901 161.619 255.119 160.647C255.336 159.66 255.663 158.833 256.098 158.166C256.533 157.484 257.084 156.969 257.752 156.621C258.419 156.258 259.21 156.077 260.124 156.077C261.095 156.077 261.915 156.251 262.582 156.599C263.264 156.947 263.816 157.455 264.236 158.122C264.657 158.79 264.962 159.617 265.15 160.603C265.339 161.575 265.433 162.692 265.433 163.954C265.433 165.187 265.324 166.297 265.107 167.284C264.889 168.255 264.563 169.082 264.127 169.764C263.692 170.432 263.141 170.947 262.474 171.309C261.806 171.657 261.016 171.831 260.102 171.831C259.144 171.831 258.325 171.643 257.643 171.266C256.976 170.874 256.424 170.33 255.989 169.634C255.568 168.937 255.264 168.11 255.075 167.153C254.887 166.181 254.792 165.115 254.792 163.954ZM263.649 163.954C263.649 163.185 263.605 162.453 263.518 161.756L257.055 167.653C257.302 168.48 257.672 169.14 258.165 169.634C258.658 170.127 259.304 170.373 260.102 170.373C261.378 170.373 262.285 169.844 262.822 168.785C263.373 167.726 263.649 166.116 263.649 163.954ZM256.598 163.954C256.598 164.317 256.606 164.665 256.62 164.999C256.649 165.332 256.678 165.659 256.707 165.978L263.192 160.103C262.945 159.319 262.575 158.695 262.082 158.231C261.603 157.767 260.95 157.535 260.124 157.535C258.832 157.535 257.918 158.072 257.382 159.145C256.859 160.204 256.598 161.807 256.598 163.954ZM267.84 163.954C267.84 162.721 267.949 161.619 268.166 160.647C268.384 159.66 268.71 158.833 269.146 158.166C269.581 157.484 270.132 156.969 270.799 156.621C271.467 156.258 272.257 156.077 273.171 156.077C274.143 156.077 274.963 156.251 275.63 156.599C276.312 156.947 276.863 157.455 277.284 158.122C277.705 158.79 278.009 159.617 278.198 160.603C278.386 161.575 278.481 162.692 278.481 163.954C278.481 165.187 278.372 166.297 278.154 167.284C277.937 168.255 277.61 169.082 277.175 169.764C276.74 170.432 276.189 170.947 275.521 171.309C274.854 171.657 274.063 171.831 273.149 171.831C272.192 171.831 271.372 171.643 270.691 171.266C270.023 170.874 269.472 170.33 269.037 169.634C268.616 168.937 268.311 168.11 268.123 167.153C267.934 166.181 267.84 165.115 267.84 163.954ZM276.696 163.954C276.696 163.185 276.653 162.453 276.566 161.756L270.103 167.653C270.35 168.48 270.72 169.14 271.213 169.634C271.706 170.127 272.352 170.373 273.149 170.373C274.426 170.373 275.333 169.844 275.87 168.785C276.421 167.726 276.696 166.116 276.696 163.954ZM269.646 163.954C269.646 164.317 269.653 164.665 269.668 164.999C269.697 165.332 269.726 165.659 269.755 165.978L276.239 160.103C275.993 159.319 275.623 158.695 275.13 158.231C274.651 157.767 273.998 157.535 273.171 157.535C271.88 157.535 270.966 158.072 270.429 159.145C269.907 160.204 269.646 161.807 269.646 163.954ZM280.888 163.954C280.888 162.721 280.996 161.619 281.214 160.647C281.432 159.66 281.758 158.833 282.193 158.166C282.628 157.484 283.18 156.969 283.847 156.621C284.514 156.258 285.305 156.077 286.219 156.077C287.191 156.077 288.011 156.251 288.678 156.599C289.36 156.947 289.911 157.455 290.332 158.122C290.752 158.79 291.057 159.617 291.246 160.603C291.434 161.575 291.528 162.692 291.528 163.954C291.528 165.187 291.42 166.297 291.202 167.284C290.984 168.255 290.658 169.082 290.223 169.764C289.788 170.432 289.236 170.947 288.569 171.309C287.902 171.657 287.111 171.831 286.197 171.831C285.24 171.831 284.42 171.643 283.738 171.266C283.071 170.874 282.52 170.33 282.084 169.634C281.664 168.937 281.359 168.11 281.171 167.153C280.982 166.181 280.888 165.115 280.888 163.954ZM289.744 163.954C289.744 163.185 289.701 162.453 289.614 161.756L283.151 167.653C283.397 168.48 283.767 169.14 284.261 169.634C284.754 170.127 285.399 170.373 286.197 170.373C287.474 170.373 288.38 169.844 288.917 168.785C289.468 167.726 289.744 166.116 289.744 163.954ZM282.694 163.954C282.694 164.317 282.701 164.665 282.716 164.999C282.745 165.332 282.774 165.659 282.803 165.978L289.287 160.103C289.041 159.319 288.671 158.695 288.177 158.231C287.699 157.767 287.046 157.535 286.219 157.535C284.928 157.535 284.014 158.072 283.477 159.145C282.955 160.204 282.694 161.807 282.694 163.954ZM293.935 163.954C293.935 162.721 294.044 161.619 294.262 160.647C294.479 159.66 294.806 158.833 295.241 158.166C295.676 157.484 296.227 156.969 296.895 156.621C297.562 156.258 298.353 156.077 299.267 156.077C300.239 156.077 301.058 156.251 301.726 156.599C302.407 156.947 302.959 157.455 303.379 158.122C303.8 158.79 304.105 159.617 304.293 160.603C304.482 161.575 304.576 162.692 304.576 163.954C304.576 165.187 304.467 166.297 304.25 167.284C304.032 168.255 303.706 169.082 303.271 169.764C302.835 170.432 302.284 170.947 301.617 171.309C300.949 171.657 300.159 171.831 299.245 171.831C298.287 171.831 297.468 171.643 296.786 171.266C296.119 170.874 295.567 170.33 295.132 169.634C294.711 168.937 294.407 168.11 294.218 167.153C294.03 166.181 293.935 165.115 293.935 163.954ZM302.792 163.954C302.792 163.185 302.748 162.453 302.661 161.756L296.198 167.653C296.445 168.48 296.815 169.14 297.308 169.634C297.801 170.127 298.447 170.373 299.245 170.373C300.522 170.373 301.428 169.844 301.965 168.785C302.516 167.726 302.792 166.116 302.792 163.954ZM295.741 163.954C295.741 164.317 295.749 164.665 295.763 164.999C295.792 165.332 295.821 165.659 295.85 165.978L302.335 160.103C302.088 159.319 301.718 158.695 301.225 158.231C300.746 157.767 300.094 157.535 299.267 157.535C297.976 157.535 297.062 158.072 296.525 159.145C296.003 160.204 295.741 161.807 295.741 163.954ZM310.856 170.373C310.856 169.909 310.987 169.554 311.248 169.307C311.509 169.046 311.857 168.916 312.293 168.916C312.757 168.916 313.119 169.046 313.381 169.307C313.642 169.554 313.772 169.909 313.772 170.373C313.772 170.794 313.642 171.142 313.381 171.418C313.119 171.694 312.757 171.831 312.293 171.831C311.857 171.831 311.509 171.694 311.248 171.418C310.987 171.142 310.856 170.794 310.856 170.373ZM320.031 163.954C320.031 162.721 320.14 161.619 320.357 160.647C320.575 159.66 320.901 158.833 321.336 158.166C321.772 157.484 322.323 156.969 322.99 156.621C323.658 156.258 324.448 156.077 325.362 156.077C326.334 156.077 327.154 156.251 327.821 156.599C328.503 156.947 329.054 157.455 329.475 158.122C329.895 158.79 330.2 159.617 330.389 160.603C330.577 161.575 330.672 162.692 330.672 163.954C330.672 165.187 330.563 166.297 330.345 167.284C330.128 168.255 329.801 169.082 329.366 169.764C328.931 170.432 328.38 170.947 327.712 171.309C327.045 171.657 326.254 171.831 325.34 171.831C324.383 171.831 323.563 171.643 322.881 171.266C322.214 170.874 321.663 170.33 321.228 169.634C320.807 168.937 320.502 168.11 320.314 167.153C320.125 166.181 320.031 165.115 320.031 163.954ZM328.887 163.954C328.887 163.185 328.844 162.453 328.757 161.756L322.294 167.653C322.54 168.48 322.91 169.14 323.404 169.634C323.897 170.127 324.542 170.373 325.34 170.373C326.617 170.373 327.524 169.844 328.06 168.785C328.612 167.726 328.887 166.116 328.887 163.954ZM321.837 163.954C321.837 164.317 321.844 164.665 321.859 164.999C321.888 165.332 321.917 165.659 321.946 165.978L328.43 160.103C328.184 159.319 327.814 158.695 327.321 158.231C326.842 157.767 326.189 157.535 325.362 157.535C324.071 157.535 323.157 158.072 322.62 159.145C322.098 160.204 321.837 161.807 321.837 163.954ZM333.079 163.954C333.079 162.721 333.187 161.619 333.405 160.647C333.623 159.66 333.949 158.833 334.384 158.166C334.819 157.484 335.371 156.969 336.038 156.621C336.705 156.258 337.496 156.077 338.41 156.077C339.382 156.077 340.201 156.251 340.869 156.599C341.551 156.947 342.102 157.455 342.522 158.122C342.943 158.79 343.248 159.617 343.436 160.603C343.625 161.575 343.719 162.692 343.719 163.954C343.719 165.187 343.611 166.297 343.393 167.284C343.175 168.255 342.849 169.082 342.414 169.764C341.978 170.432 341.427 170.947 340.76 171.309C340.093 171.657 339.302 171.831 338.388 171.831C337.431 171.831 336.611 171.643 335.929 171.266C335.262 170.874 334.711 170.33 334.275 169.634C333.855 168.937 333.55 168.11 333.361 167.153C333.173 166.181 333.079 165.115 333.079 163.954ZM341.935 163.954C341.935 163.185 341.891 162.453 341.804 161.756L335.342 167.653C335.588 168.48 335.958 169.14 336.451 169.634C336.945 170.127 337.59 170.373 338.388 170.373C339.665 170.373 340.571 169.844 341.108 168.785C341.659 167.726 341.935 166.116 341.935 163.954ZM334.885 163.954C334.885 164.317 334.892 164.665 334.906 164.999C334.935 165.332 334.964 165.659 334.993 165.978L341.478 160.103C341.231 159.319 340.861 158.695 340.368 158.231C339.889 157.767 339.237 157.535 338.41 157.535C337.119 157.535 336.205 158.072 335.668 159.145C335.146 160.204 334.885 161.807 334.885 163.954Z" fill="black"/>
<rect x="100" y="142.57" width="255" height="45" stroke="#58A982"/>
<rect x="355" y="142.57" width="268" height="45" fill="#F1F7F5"/>
<path d="M366.244 163.954C366.244 162.721 366.352 161.619 366.57 160.647C366.788 159.66 367.114 158.833 367.549 158.166C367.984 157.484 368.536 156.969 369.203 156.621C369.87 156.258 370.661 156.077 371.575 156.077C372.547 156.077 373.366 156.251 374.034 156.599C374.716 156.947 375.267 157.455 375.688 158.122C376.108 158.79 376.413 159.617 376.602 160.603C376.79 161.575 376.884 162.692 376.884 163.954C376.884 165.187 376.776 166.297 376.558 167.284C376.34 168.255 376.014 169.082 375.579 169.764C375.144 170.432 374.592 170.947 373.925 171.309C373.258 171.657 372.467 171.831 371.553 171.831C370.596 171.831 369.776 171.643 369.094 171.266C368.427 170.874 367.876 170.33 367.44 169.634C367.02 168.937 366.715 168.11 366.526 167.153C366.338 166.181 366.244 165.115 366.244 163.954ZM375.1 163.954C375.1 163.185 375.057 162.453 374.969 161.756L368.507 167.653C368.753 168.48 369.123 169.14 369.616 169.634C370.11 170.127 370.755 170.373 371.553 170.373C372.83 170.373 373.736 169.844 374.273 168.785C374.824 167.726 375.1 166.116 375.1 163.954ZM368.05 163.954C368.05 164.317 368.057 164.665 368.071 164.999C368.1 165.332 368.129 165.659 368.158 165.978L374.643 160.103C374.396 159.319 374.027 158.695 373.533 158.231C373.055 157.767 372.402 157.535 371.575 157.535C370.284 157.535 369.37 158.072 368.833 159.145C368.311 160.204 368.05 161.807 368.05 163.954ZM379.291 163.954C379.291 162.721 379.4 161.619 379.618 160.647C379.835 159.66 380.162 158.833 380.597 158.166C381.032 157.484 381.583 156.969 382.251 156.621C382.918 156.258 383.709 156.077 384.623 156.077C385.595 156.077 386.414 156.251 387.081 156.599C387.763 156.947 388.315 157.455 388.735 158.122C389.156 158.79 389.461 159.617 389.649 160.603C389.838 161.575 389.932 162.692 389.932 163.954C389.932 165.187 389.823 166.297 389.606 167.284C389.388 168.255 389.062 169.082 388.626 169.764C388.191 170.432 387.64 170.947 386.973 171.309C386.305 171.657 385.515 171.831 384.601 171.831C383.643 171.831 382.824 171.643 382.142 171.266C381.475 170.874 380.923 170.33 380.488 169.634C380.067 168.937 379.763 168.11 379.574 167.153C379.386 166.181 379.291 165.115 379.291 163.954ZM388.148 163.954C388.148 163.185 388.104 162.453 388.017 161.756L381.554 167.653C381.801 168.48 382.171 169.14 382.664 169.634C383.157 170.127 383.803 170.373 384.601 170.373C385.877 170.373 386.784 169.844 387.321 168.785C387.872 167.726 388.148 166.116 388.148 163.954ZM381.097 163.954C381.097 164.317 381.105 164.665 381.119 164.999C381.148 165.332 381.177 165.659 381.206 165.978L387.691 160.103C387.444 159.319 387.074 158.695 386.581 158.231C386.102 157.767 385.449 157.535 384.623 157.535C383.331 157.535 382.418 158.072 381.881 159.145C381.359 160.204 381.097 161.807 381.097 163.954ZM405.387 163.954C405.387 162.721 405.496 161.619 405.713 160.647C405.931 159.66 406.257 158.833 406.692 158.166C407.128 157.484 407.679 156.969 408.346 156.621C409.013 156.258 409.804 156.077 410.718 156.077C411.69 156.077 412.51 156.251 413.177 156.599C413.859 156.947 414.41 157.455 414.831 158.122C415.251 158.79 415.556 159.617 415.745 160.603C415.933 161.575 416.028 162.692 416.028 163.954C416.028 165.187 415.919 166.297 415.701 167.284C415.484 168.255 415.157 169.082 414.722 169.764C414.287 170.432 413.735 170.947 413.068 171.309C412.401 171.657 411.61 171.831 410.696 171.831C409.739 171.831 408.919 171.643 408.237 171.266C407.57 170.874 407.019 170.33 406.584 169.634C406.163 168.937 405.858 168.11 405.67 167.153C405.481 166.181 405.387 165.115 405.387 163.954ZM414.243 163.954C414.243 163.185 414.2 162.453 414.113 161.756L407.65 167.653C407.896 168.48 408.266 169.14 408.76 169.634C409.253 170.127 409.898 170.373 410.696 170.373C411.973 170.373 412.88 169.844 413.416 168.785C413.968 167.726 414.243 166.116 414.243 163.954ZM407.193 163.954C407.193 164.317 407.2 164.665 407.215 164.999C407.244 165.332 407.273 165.659 407.302 165.978L413.786 160.103C413.54 159.319 413.17 158.695 412.676 158.231C412.198 157.767 411.545 157.535 410.718 157.535C409.427 157.535 408.513 158.072 407.976 159.145C407.454 160.204 407.193 161.807 407.193 163.954ZM418.434 163.954C418.434 162.721 418.543 161.619 418.761 160.647C418.978 159.66 419.305 158.833 419.74 158.166C420.175 157.484 420.727 156.969 421.394 156.621C422.061 156.258 422.852 156.077 423.766 156.077C424.738 156.077 425.557 156.251 426.225 156.599C426.906 156.947 427.458 157.455 427.878 158.122C428.299 158.79 428.604 159.617 428.792 160.603C428.981 161.575 429.075 162.692 429.075 163.954C429.075 165.187 428.966 166.297 428.749 167.284C428.531 168.255 428.205 169.082 427.77 169.764C427.334 170.432 426.783 170.947 426.116 171.309C425.449 171.657 424.658 171.831 423.744 171.831C422.786 171.831 421.967 171.643 421.285 171.266C420.618 170.874 420.066 170.33 419.631 169.634C419.211 168.937 418.906 168.11 418.717 167.153C418.529 166.181 418.434 165.115 418.434 163.954ZM427.291 163.954C427.291 163.185 427.247 162.453 427.16 161.756L420.697 167.653C420.944 168.48 421.314 169.14 421.807 169.634C422.301 170.127 422.946 170.373 423.744 170.373C425.021 170.373 425.927 169.844 426.464 168.785C427.015 167.726 427.291 166.116 427.291 163.954ZM420.241 163.954C420.241 164.317 420.248 164.665 420.262 164.999C420.291 165.332 420.32 165.659 420.349 165.978L426.834 160.103C426.587 159.319 426.217 158.695 425.724 158.231C425.245 157.767 424.593 157.535 423.766 157.535C422.475 157.535 421.561 158.072 421.024 159.145C420.502 160.204 420.241 161.807 420.241 163.954ZM431.482 163.954C431.482 162.721 431.591 161.619 431.809 160.647C432.026 159.66 432.353 158.833 432.788 158.166C433.223 157.484 433.774 156.969 434.442 156.621C435.109 156.258 435.899 156.077 436.813 156.077C437.785 156.077 438.605 156.251 439.272 156.599C439.954 156.947 440.505 157.455 440.926 158.122C441.347 158.79 441.651 159.617 441.84 160.603C442.029 161.575 442.123 162.692 442.123 163.954C442.123 165.187 442.014 166.297 441.797 167.284C441.579 168.255 441.253 169.082 440.817 169.764C440.382 170.432 439.831 170.947 439.164 171.309C438.496 171.657 437.706 171.831 436.792 171.831C435.834 171.831 435.015 171.643 434.333 171.266C433.665 170.874 433.114 170.33 432.679 169.634C432.258 168.937 431.954 168.11 431.765 167.153C431.576 166.181 431.482 165.115 431.482 163.954ZM440.339 163.954C440.339 163.185 440.295 162.453 440.208 161.756L433.745 167.653C433.992 168.48 434.362 169.14 434.855 169.634C435.348 170.127 435.994 170.373 436.792 170.373C438.068 170.373 438.975 169.844 439.512 168.785C440.063 167.726 440.339 166.116 440.339 163.954ZM433.288 163.954C433.288 164.317 433.295 164.665 433.31 164.999C433.339 165.332 433.368 165.659 433.397 165.978L439.882 160.103C439.635 159.319 439.265 158.695 438.772 158.231C438.293 157.767 437.64 157.535 436.813 157.535C435.522 157.535 434.608 158.072 434.072 159.145C433.549 160.204 433.288 161.807 433.288 163.954ZM444.53 163.954C444.53 162.721 444.639 161.619 444.856 160.647C445.074 159.66 445.4 158.833 445.835 158.166C446.271 157.484 446.822 156.969 447.489 156.621C448.157 156.258 448.947 156.077 449.861 156.077C450.833 156.077 451.653 156.251 452.32 156.599C453.002 156.947 453.553 157.455 453.974 158.122C454.395 158.79 454.699 159.617 454.888 160.603C455.076 161.575 455.171 162.692 455.171 163.954C455.171 165.187 455.062 166.297 454.844 167.284C454.627 168.255 454.3 169.082 453.865 169.764C453.43 170.432 452.879 170.947 452.211 171.309C451.544 171.657 450.753 171.831 449.839 171.831C448.882 171.831 448.062 171.643 447.38 171.266C446.713 170.874 446.162 170.33 445.727 169.634C445.306 168.937 445.001 168.11 444.813 167.153C444.624 166.181 444.53 165.115 444.53 163.954ZM453.386 163.954C453.386 163.185 453.343 162.453 453.256 161.756L446.793 167.653C447.04 168.48 447.409 169.14 447.903 169.634C448.396 170.127 449.041 170.373 449.839 170.373C451.116 170.373 452.023 169.844 452.559 168.785C453.111 167.726 453.386 166.116 453.386 163.954ZM446.336 163.954C446.336 164.317 446.343 164.665 446.358 164.999C446.387 165.332 446.416 165.659 446.445 165.978L452.929 160.103C452.683 159.319 452.313 158.695 451.82 158.231C451.341 157.767 450.688 157.535 449.861 157.535C448.57 157.535 447.656 158.072 447.119 159.145C446.597 160.204 446.336 161.807 446.336 163.954ZM457.578 163.954C457.578 162.721 457.686 161.619 457.904 160.647C458.122 159.66 458.448 158.833 458.883 158.166C459.318 157.484 459.87 156.969 460.537 156.621C461.204 156.258 461.995 156.077 462.909 156.077C463.881 156.077 464.7 156.251 465.368 156.599C466.05 156.947 466.601 157.455 467.022 158.122C467.442 158.79 467.747 159.617 467.935 160.603C468.124 161.575 468.218 162.692 468.218 163.954C468.218 165.187 468.11 166.297 467.892 167.284C467.674 168.255 467.348 169.082 466.913 169.764C466.478 170.432 465.926 170.947 465.259 171.309C464.592 171.657 463.801 171.831 462.887 171.831C461.93 171.831 461.11 171.643 460.428 171.266C459.761 170.874 459.21 170.33 458.774 169.634C458.354 168.937 458.049 168.11 457.86 167.153C457.672 166.181 457.578 165.115 457.578 163.954ZM466.434 163.954C466.434 163.185 466.39 162.453 466.303 161.756L459.841 167.653C460.087 168.48 460.457 169.14 460.95 169.634C461.444 170.127 462.089 170.373 462.887 170.373C464.164 170.373 465.07 169.844 465.607 168.785C466.158 167.726 466.434 166.116 466.434 163.954ZM459.384 163.954C459.384 164.317 459.391 164.665 459.405 164.999C459.434 165.332 459.463 165.659 459.492 165.978L465.977 160.103C465.73 159.319 465.361 158.695 464.867 158.231C464.389 157.767 463.736 157.535 462.909 157.535C461.618 157.535 460.704 158.072 460.167 159.145C459.645 160.204 459.384 161.807 459.384 163.954ZM474.499 170.373C474.499 169.909 474.629 169.554 474.89 169.307C475.151 169.046 475.5 168.916 475.935 168.916C476.399 168.916 476.762 169.046 477.023 169.307C477.284 169.554 477.414 169.909 477.414 170.373C477.414 170.794 477.284 171.142 477.023 171.418C476.762 171.694 476.399 171.831 475.935 171.831C475.5 171.831 475.151 171.694 474.89 171.418C474.629 171.142 474.499 170.794 474.499 170.373ZM496.721 163.954C496.721 162.721 496.829 161.619 497.047 160.647C497.265 159.66 497.591 158.833 498.026 158.166C498.462 157.484 499.013 156.969 499.68 156.621C500.347 156.258 501.138 156.077 502.052 156.077C503.024 156.077 503.844 156.251 504.511 156.599C505.193 156.947 505.744 157.455 506.165 158.122C506.585 158.79 506.89 159.617 507.079 160.603C507.267 161.575 507.361 162.692 507.361 163.954C507.361 165.187 507.253 166.297 507.035 167.284C506.817 168.255 506.491 169.082 506.056 169.764C505.621 170.432 505.069 170.947 504.402 171.309C503.735 171.657 502.944 171.831 502.03 171.831C501.073 171.831 500.253 171.643 499.571 171.266C498.904 170.874 498.353 170.33 497.918 169.634C497.497 168.937 497.192 168.11 497.004 167.153C496.815 166.181 496.721 165.115 496.721 163.954ZM505.577 163.954C505.577 163.185 505.534 162.453 505.447 161.756L498.984 167.653C499.23 168.48 499.6 169.14 500.094 169.634C500.587 170.127 501.232 170.373 502.03 170.373C503.307 170.373 504.213 169.844 504.75 168.785C505.302 167.726 505.577 166.116 505.577 163.954ZM498.527 163.954C498.527 164.317 498.534 164.665 498.549 164.999C498.578 165.332 498.607 165.659 498.636 165.978L505.12 160.103C504.874 159.319 504.504 158.695 504.01 158.231C503.532 157.767 502.879 157.535 502.052 157.535C500.761 157.535 499.847 158.072 499.31 159.145C498.788 160.204 498.527 161.807 498.527 163.954ZM509.768 163.954C509.768 162.721 509.877 161.619 510.095 160.647C510.312 159.66 510.639 158.833 511.074 158.166C511.509 157.484 512.06 156.969 512.728 156.621C513.395 156.258 514.186 156.077 515.1 156.077C516.072 156.077 516.891 156.251 517.559 156.599C518.24 156.947 518.792 157.455 519.212 158.122C519.633 158.79 519.938 159.617 520.126 160.603C520.315 161.575 520.409 162.692 520.409 163.954C520.409 165.187 520.3 166.297 520.083 167.284C519.865 168.255 519.539 169.082 519.104 169.764C518.668 170.432 518.117 170.947 517.45 171.309C516.782 171.657 515.992 171.831 515.078 171.831C514.12 171.831 513.301 171.643 512.619 171.266C511.952 170.874 511.4 170.33 510.965 169.634C510.545 168.937 510.24 168.11 510.051 167.153C509.863 166.181 509.768 165.115 509.768 163.954ZM518.625 163.954C518.625 163.185 518.581 162.453 518.494 161.756L512.031 167.653C512.278 168.48 512.648 169.14 513.141 169.634C513.634 170.127 514.28 170.373 515.078 170.373C516.355 170.373 517.261 169.844 517.798 168.785C518.349 167.726 518.625 166.116 518.625 163.954ZM511.574 163.954C511.574 164.317 511.582 164.665 511.596 164.999C511.625 165.332 511.654 165.659 511.683 165.978L518.168 160.103C517.921 159.319 517.551 158.695 517.058 158.231C516.579 157.767 515.927 157.535 515.1 157.535C513.809 157.535 512.895 158.072 512.358 159.145C511.836 160.204 511.574 161.807 511.574 163.954ZM522.816 163.954C522.816 162.721 522.925 161.619 523.142 160.647C523.36 159.66 523.686 158.833 524.122 158.166C524.557 157.484 525.108 156.969 525.775 156.621C526.443 156.258 527.233 156.077 528.147 156.077C529.119 156.077 529.939 156.251 530.606 156.599C531.288 156.947 531.839 157.455 532.26 158.122C532.681 158.79 532.985 159.617 533.174 160.603C533.363 161.575 533.457 162.692 533.457 163.954C533.457 165.187 533.348 166.297 533.13 167.284C532.913 168.255 532.586 169.082 532.151 169.764C531.716 170.432 531.165 170.947 530.497 171.309C529.83 171.657 529.04 171.831 528.126 171.831C527.168 171.831 526.349 171.643 525.667 171.266C524.999 170.874 524.448 170.33 524.013 169.634C523.592 168.937 523.288 168.11 523.099 167.153C522.91 166.181 522.816 165.115 522.816 163.954ZM531.673 163.954C531.673 163.185 531.629 162.453 531.542 161.756L525.079 167.653C525.326 168.48 525.696 169.14 526.189 169.634C526.682 170.127 527.328 170.373 528.126 170.373C529.402 170.373 530.309 169.844 530.846 168.785C531.397 167.726 531.673 166.116 531.673 163.954ZM524.622 163.954C524.622 164.317 524.629 164.665 524.644 164.999C524.673 165.332 524.702 165.659 524.731 165.978L531.216 160.103C530.969 159.319 530.599 158.695 530.106 158.231C529.627 157.767 528.974 157.535 528.147 157.535C526.856 157.535 525.942 158.072 525.406 159.145C524.883 160.204 524.622 161.807 524.622 163.954ZM535.864 163.954C535.864 162.721 535.973 161.619 536.19 160.647C536.408 159.66 536.734 158.833 537.169 158.166C537.605 157.484 538.156 156.969 538.823 156.621C539.491 156.258 540.281 156.077 541.195 156.077C542.167 156.077 542.987 156.251 543.654 156.599C544.336 156.947 544.887 157.455 545.308 158.122C545.729 158.79 546.033 159.617 546.222 160.603C546.41 161.575 546.505 162.692 546.505 163.954C546.505 165.187 546.396 166.297 546.178 167.284C545.961 168.255 545.634 169.082 545.199 169.764C544.764 170.432 544.213 170.947 543.545 171.309C542.878 171.657 542.087 171.831 541.173 171.831C540.216 171.831 539.396 171.643 538.714 171.266C538.047 170.874 537.496 170.33 537.061 169.634C536.64 168.937 536.335 168.11 536.147 167.153C535.958 166.181 535.864 165.115 535.864 163.954ZM544.72 163.954C544.72 163.185 544.677 162.453 544.59 161.756L538.127 167.653C538.374 168.48 538.743 169.14 539.237 169.634C539.73 170.127 540.375 170.373 541.173 170.373C542.45 170.373 543.357 169.844 543.893 168.785C544.445 167.726 544.72 166.116 544.72 163.954ZM537.67 163.954C537.67 164.317 537.677 164.665 537.692 164.999C537.721 165.332 537.75 165.659 537.779 165.978L544.263 160.103C544.017 159.319 543.647 158.695 543.154 158.231C542.675 157.767 542.022 157.535 541.195 157.535C539.904 157.535 538.99 158.072 538.453 159.145C537.931 160.204 537.67 161.807 537.67 163.954ZM561.959 163.954C561.959 162.721 562.068 161.619 562.286 160.647C562.503 159.66 562.83 158.833 563.265 158.166C563.7 157.484 564.251 156.969 564.919 156.621C565.586 156.258 566.377 156.077 567.29 156.077C568.262 156.077 569.082 156.251 569.749 156.599C570.431 156.947 570.983 157.455 571.403 158.122C571.824 158.79 572.129 159.617 572.317 160.603C572.506 161.575 572.6 162.692 572.6 163.954C572.6 165.187 572.491 166.297 572.274 167.284C572.056 168.255 571.73 169.082 571.294 169.764C570.859 170.432 570.308 170.947 569.641 171.309C568.973 171.657 568.183 171.831 567.269 171.831C566.311 171.831 565.492 171.643 564.81 171.266C564.142 170.874 563.591 170.33 563.156 169.634C562.735 168.937 562.431 168.11 562.242 167.153C562.054 166.181 561.959 165.115 561.959 163.954ZM570.816 163.954C570.816 163.185 570.772 162.453 570.685 161.756L564.222 167.653C564.469 168.48 564.839 169.14 565.332 169.634C565.825 170.127 566.471 170.373 567.269 170.373C568.545 170.373 569.452 169.844 569.989 168.785C570.54 167.726 570.816 166.116 570.816 163.954ZM563.765 163.954C563.765 164.317 563.773 164.665 563.787 164.999C563.816 165.332 563.845 165.659 563.874 165.978L570.359 160.103C570.112 159.319 569.742 158.695 569.249 158.231C568.77 157.767 568.117 157.535 567.29 157.535C565.999 157.535 565.085 158.072 564.549 159.145C564.026 160.204 563.765 161.807 563.765 163.954ZM575.007 163.954C575.007 162.721 575.116 161.619 575.333 160.647C575.551 159.66 575.877 158.833 576.313 158.166C576.748 157.484 577.299 156.969 577.966 156.621C578.634 156.258 579.424 156.077 580.338 156.077C581.31 156.077 582.13 156.251 582.797 156.599C583.479 156.947 584.03 157.455 584.451 158.122C584.872 158.79 585.176 159.617 585.365 160.603C585.553 161.575 585.648 162.692 585.648 163.954C585.648 165.187 585.539 166.297 585.321 167.284C585.104 168.255 584.777 169.082 584.342 169.764C583.907 170.432 583.356 170.947 582.688 171.309C582.021 171.657 581.23 171.831 580.316 171.831C579.359 171.831 578.539 171.643 577.858 171.266C577.19 170.874 576.639 170.33 576.204 169.634C575.783 168.937 575.478 168.11 575.29 167.153C575.101 166.181 575.007 165.115 575.007 163.954ZM583.863 163.954C583.863 163.185 583.82 162.453 583.733 161.756L577.27 167.653C577.517 168.48 577.887 169.14 578.38 169.634C578.873 170.127 579.519 170.373 580.316 170.373C581.593 170.373 582.5 169.844 583.037 168.785C583.588 167.726 583.863 166.116 583.863 163.954ZM576.813 163.954C576.813 164.317 576.82 164.665 576.835 164.999C576.864 165.332 576.893 165.659 576.922 165.978L583.406 160.103C583.16 159.319 582.79 158.695 582.297 158.231C581.818 157.767 581.165 157.535 580.338 157.535C579.047 157.535 578.133 158.072 577.596 159.145C577.074 160.204 576.813 161.807 576.813 163.954ZM588.055 163.954C588.055 162.721 588.163 161.619 588.381 160.647C588.599 159.66 588.925 158.833 589.36 158.166C589.795 157.484 590.347 156.969 591.014 156.621C591.681 156.258 592.472 156.077 593.386 156.077C594.358 156.077 595.178 156.251 595.845 156.599C596.527 156.947 597.078 157.455 597.499 158.122C597.919 158.79 598.224 159.617 598.413 160.603C598.601 161.575 598.695 162.692 598.695 163.954C598.695 165.187 598.587 166.297 598.369 167.284C598.151 168.255 597.825 169.082 597.39 169.764C596.955 170.432 596.403 170.947 595.736 171.309C595.069 171.657 594.278 171.831 593.364 171.831C592.407 171.831 591.587 171.643 590.905 171.266C590.238 170.874 589.687 170.33 589.251 169.634C588.831 168.937 588.526 168.11 588.338 167.153C588.149 166.181 588.055 165.115 588.055 163.954ZM596.911 163.954C596.911 163.185 596.868 162.453 596.781 161.756L590.318 167.653C590.564 168.48 590.934 169.14 591.427 169.634C591.921 170.127 592.566 170.373 593.364 170.373C594.641 170.373 595.547 169.844 596.084 168.785C596.635 167.726 596.911 166.116 596.911 163.954ZM589.861 163.954C589.861 164.317 589.868 164.665 589.883 164.999C589.912 165.332 589.941 165.659 589.97 165.978L596.454 160.103C596.208 159.319 595.838 158.695 595.344 158.231C594.866 157.767 594.213 157.535 593.386 157.535C592.095 157.535 591.181 158.072 590.644 159.145C590.122 160.204 589.861 161.807 589.861 163.954ZM601.102 163.954C601.102 162.721 601.211 161.619 601.429 160.647C601.646 159.66 601.973 158.833 602.408 158.166C602.843 157.484 603.394 156.969 604.062 156.621C604.729 156.258 605.52 156.077 606.434 156.077C607.406 156.077 608.225 156.251 608.893 156.599C609.574 156.947 610.126 157.455 610.546 158.122C610.967 158.79 611.272 159.617 611.46 160.603C611.649 161.575 611.743 162.692 611.743 163.954C611.743 165.187 611.634 166.297 611.417 167.284C611.199 168.255 610.873 169.082 610.438 169.764C610.002 170.432 609.451 170.947 608.784 171.309C608.116 171.657 607.326 171.831 606.412 171.831C605.454 171.831 604.635 171.643 603.953 171.266C603.286 170.874 602.734 170.33 602.299 169.634C601.878 168.937 601.574 168.11 601.385 167.153C601.197 166.181 601.102 165.115 601.102 163.954ZM609.959 163.954C609.959 163.185 609.915 162.453 609.828 161.756L603.365 167.653C603.612 168.48 603.982 169.14 604.475 169.634C604.968 170.127 605.614 170.373 606.412 170.373C607.688 170.373 608.595 169.844 609.132 168.785C609.683 167.726 609.959 166.116 609.959 163.954ZM602.908 163.954C602.908 164.317 602.916 164.665 602.93 164.999C602.959 165.332 602.988 165.659 603.017 165.978L609.502 160.103C609.255 159.319 608.885 158.695 608.392 158.231C607.913 157.767 607.261 157.535 606.434 157.535C605.143 157.535 604.229 158.072 603.692 159.145C603.17 160.204 602.908 161.807 602.908 163.954Z" fill="black"/>
<rect x="355" y="142.57" width="268" height="45" stroke="#58A982"/>
<rect x="100" y="199.258" width="255" height="45" fill="#DBEEE5"/>
<path d="M120.951 216.877C120.951 218.212 120.32 219.699 119.058 221.338C117.796 222.977 116.033 224.762 113.77 226.691H121.43V228.258H111.768V226.691C112.044 226.43 112.421 226.089 112.899 225.668C113.378 225.248 113.893 224.783 114.444 224.276C114.996 223.753 115.554 223.195 116.12 222.6C116.7 222.005 117.223 221.396 117.687 220.772C118.151 220.148 118.528 219.525 118.818 218.901C119.108 218.277 119.253 217.675 119.253 217.095C119.253 216.224 119.021 215.543 118.557 215.049C118.107 214.542 117.426 214.288 116.512 214.288C115.728 214.288 115.068 214.375 114.531 214.549C113.995 214.723 113.509 214.977 113.074 215.31L112.334 214.114C112.987 213.649 113.676 213.308 114.401 213.091C115.141 212.873 115.946 212.764 116.816 212.764C118.18 212.764 119.21 213.134 119.906 213.874C120.603 214.614 120.951 215.615 120.951 216.877ZM128.689 226.996C129.24 226.996 129.748 226.93 130.212 226.8C130.676 226.655 131.068 226.444 131.387 226.169C131.721 225.879 131.975 225.523 132.149 225.103C132.337 224.682 132.432 224.189 132.432 223.623C132.432 222.578 132.055 221.788 131.3 221.251C130.56 220.7 129.545 220.424 128.254 220.424L126.208 220.533V213.026H133.672V214.592H127.84V219.01L128.928 218.966C130.539 218.966 131.808 219.358 132.736 220.141C133.665 220.925 134.129 222.042 134.129 223.492C134.129 224.305 133.984 225.023 133.694 225.647C133.418 226.27 133.034 226.8 132.541 227.235C132.047 227.656 131.46 227.975 130.778 228.193C130.111 228.41 129.378 228.519 128.58 228.519C128.145 228.519 127.732 228.483 127.34 228.41C126.948 228.352 126.593 228.28 126.274 228.193C125.954 228.091 125.672 227.989 125.425 227.888C125.193 227.772 125.026 227.67 124.924 227.583L125.621 226.169C125.867 226.314 126.245 226.488 126.752 226.691C127.26 226.894 127.906 226.996 128.689 226.996ZM141.737 226.996C142.288 226.996 142.796 226.93 143.26 226.8C143.724 226.655 144.116 226.444 144.435 226.169C144.769 225.879 145.022 225.523 145.197 225.103C145.385 224.682 145.479 224.189 145.479 223.623C145.479 222.578 145.102 221.788 144.348 221.251C143.608 220.7 142.593 220.424 141.301 220.424L139.256 220.533V213.026H146.72V214.592H140.888V219.01L141.976 218.966C143.586 218.966 144.856 219.358 145.784 220.141C146.713 220.925 147.177 222.042 147.177 223.492C147.177 224.305 147.032 225.023 146.742 225.647C146.466 226.27 146.082 226.8 145.588 227.235C145.095 227.656 144.508 227.975 143.826 228.193C143.158 228.41 142.426 228.519 141.628 228.519C141.193 228.519 140.779 228.483 140.388 228.41C139.996 228.352 139.64 228.28 139.321 228.193C139.002 228.091 138.719 227.989 138.473 227.888C138.241 227.772 138.074 227.67 137.972 227.583L138.668 226.169C138.915 226.314 139.292 226.488 139.8 226.691C140.308 226.894 140.953 226.996 141.737 226.996ZM154.284 227.061C154.284 226.597 154.414 226.241 154.676 225.995C154.937 225.734 155.285 225.603 155.72 225.603C156.184 225.603 156.547 225.734 156.808 225.995C157.069 226.241 157.2 226.597 157.2 227.061C157.2 227.482 157.069 227.83 156.808 228.105C156.547 228.381 156.184 228.519 155.72 228.519C155.285 228.519 154.937 228.381 154.676 228.105C154.414 227.83 154.284 227.482 154.284 227.061ZM191.12 226.691H194.537V215.245L191.055 217.682L190.207 216.442L194.994 213.026H196.212V226.691H199.563V228.258H191.12V226.691ZM204.168 226.691H207.585V215.245L204.103 217.682L203.254 216.442L208.041 213.026H209.26V226.691H212.611V228.258H204.168V226.691ZM217.216 226.691H220.632V215.245L217.151 217.682L216.302 216.442L221.089 213.026H222.308V226.691H225.659V228.258H217.216V226.691ZM230.264 226.691H233.68V215.245L230.198 217.682L229.35 216.442L234.137 213.026H235.355V226.691H238.707V228.258H230.264V226.691ZM256.359 226.691H259.775V215.245L256.294 217.682L255.445 216.442L260.232 213.026H261.451V226.691H264.802V228.258H256.359V226.691ZM269.407 226.691H272.823V215.245L269.341 217.682L268.493 216.442L273.28 213.026H274.499V226.691H277.85V228.258H269.407V226.691ZM282.454 226.691H285.871V215.245L282.389 217.682L281.54 216.442L286.328 213.026H287.546V226.691H290.897V228.258H282.454V226.691ZM295.502 226.691H298.918V215.245L295.437 217.682L294.588 216.442L299.375 213.026H300.594V226.691H303.945V228.258H295.502V226.691ZM310.856 227.061C310.856 226.597 310.987 226.241 311.248 225.995C311.509 225.734 311.857 225.603 312.293 225.603C312.757 225.603 313.119 225.734 313.381 225.995C313.642 226.241 313.772 226.597 313.772 227.061C313.772 227.482 313.642 227.83 313.381 228.105C313.119 228.381 312.757 228.519 312.293 228.519C311.857 228.519 311.509 228.381 311.248 228.105C310.987 227.83 310.856 227.482 310.856 227.061ZM321.598 226.691H325.014V215.245L321.532 217.682L320.684 216.442L325.471 213.026H326.689V226.691H330.041V228.258H321.598V226.691ZM334.645 226.691H338.062V215.245L334.58 217.682L333.731 216.442L338.519 213.026H339.737V226.691H343.088V228.258H334.645V226.691Z" fill="black"/>
<rect x="100" y="199.258" width="255" height="45" stroke="#58A982"/>
<rect x="355" y="199.258" width="268" height="45" fill="#F1F7F5"/>
<path d="M366.244 220.642C366.244 219.409 366.352 218.306 366.57 217.334C366.788 216.348 367.114 215.521 367.549 214.853C367.984 214.172 368.536 213.657 369.203 213.308C369.87 212.946 370.661 212.764 371.575 212.764C372.547 212.764 373.366 212.939 374.034 213.287C374.716 213.635 375.267 214.143 375.688 214.81C376.108 215.477 376.413 216.304 376.602 217.291C376.79 218.263 376.884 219.38 376.884 220.642C376.884 221.875 376.776 222.985 376.558 223.971C376.34 224.943 376.014 225.77 375.579 226.452C375.144 227.119 374.592 227.634 373.925 227.997C373.258 228.345 372.467 228.519 371.553 228.519C370.596 228.519 369.776 228.33 369.094 227.953C368.427 227.561 367.876 227.017 367.44 226.321C367.02 225.625 366.715 224.798 366.526 223.84C366.338 222.868 366.244 221.802 366.244 220.642ZM375.1 220.642C375.1 219.873 375.057 219.14 374.969 218.444L368.507 224.341C368.753 225.168 369.123 225.828 369.616 226.321C370.11 226.814 370.755 227.061 371.553 227.061C372.83 227.061 373.736 226.531 374.273 225.472C374.824 224.413 375.1 222.803 375.1 220.642ZM368.05 220.642C368.05 221.004 368.057 221.353 368.071 221.686C368.1 222.02 368.129 222.346 368.158 222.665L374.643 216.79C374.396 216.007 374.027 215.383 373.533 214.919C373.055 214.454 372.402 214.222 371.575 214.222C370.284 214.222 369.37 214.759 368.833 215.833C368.311 216.892 368.05 218.495 368.05 220.642ZM379.291 220.642C379.291 219.409 379.4 218.306 379.618 217.334C379.835 216.348 380.162 215.521 380.597 214.853C381.032 214.172 381.583 213.657 382.251 213.308C382.918 212.946 383.709 212.764 384.623 212.764C385.595 212.764 386.414 212.939 387.081 213.287C387.763 213.635 388.315 214.143 388.735 214.81C389.156 215.477 389.461 216.304 389.649 217.291C389.838 218.263 389.932 219.38 389.932 220.642C389.932 221.875 389.823 222.985 389.606 223.971C389.388 224.943 389.062 225.77 388.626 226.452C388.191 227.119 387.64 227.634 386.973 227.997C386.305 228.345 385.515 228.519 384.601 228.519C383.643 228.519 382.824 228.33 382.142 227.953C381.475 227.561 380.923 227.017 380.488 226.321C380.067 225.625 379.763 224.798 379.574 223.84C379.386 222.868 379.291 221.802 379.291 220.642ZM388.148 220.642C388.148 219.873 388.104 219.14 388.017 218.444L381.554 224.341C381.801 225.168 382.171 225.828 382.664 226.321C383.157 226.814 383.803 227.061 384.601 227.061C385.877 227.061 386.784 226.531 387.321 225.472C387.872 224.413 388.148 222.803 388.148 220.642ZM381.097 220.642C381.097 221.004 381.105 221.353 381.119 221.686C381.148 222.02 381.177 222.346 381.206 222.665L387.691 216.79C387.444 216.007 387.074 215.383 386.581 214.919C386.102 214.454 385.449 214.222 384.623 214.222C383.331 214.222 382.418 214.759 381.881 215.833C381.359 216.892 381.097 218.495 381.097 220.642ZM405.387 220.642C405.387 219.409 405.496 218.306 405.713 217.334C405.931 216.348 406.257 215.521 406.692 214.853C407.128 214.172 407.679 213.657 408.346 213.308C409.013 212.946 409.804 212.764 410.718 212.764C411.69 212.764 412.51 212.939 413.177 213.287C413.859 213.635 414.41 214.143 414.831 214.81C415.251 215.477 415.556 216.304 415.745 217.291C415.933 218.263 416.028 219.38 416.028 220.642C416.028 221.875 415.919 222.985 415.701 223.971C415.484 224.943 415.157 225.77 414.722 226.452C414.287 227.119 413.735 227.634 413.068 227.997C412.401 228.345 411.61 228.519 410.696 228.519C409.739 228.519 408.919 228.33 408.237 227.953C407.57 227.561 407.019 227.017 406.584 226.321C406.163 225.625 405.858 224.798 405.67 223.84C405.481 222.868 405.387 221.802 405.387 220.642ZM414.243 220.642C414.243 219.873 414.2 219.14 414.113 218.444L407.65 224.341C407.896 225.168 408.266 225.828 408.76 226.321C409.253 226.814 409.898 227.061 410.696 227.061C411.973 227.061 412.88 226.531 413.416 225.472C413.968 224.413 414.243 222.803 414.243 220.642ZM407.193 220.642C407.193 221.004 407.2 221.353 407.215 221.686C407.244 222.02 407.273 222.346 407.302 222.665L413.786 216.79C413.54 216.007 413.17 215.383 412.676 214.919C412.198 214.454 411.545 214.222 410.718 214.222C409.427 214.222 408.513 214.759 407.976 215.833C407.454 216.892 407.193 218.495 407.193 220.642ZM418.434 220.642C418.434 219.409 418.543 218.306 418.761 217.334C418.978 216.348 419.305 215.521 419.74 214.853C420.175 214.172 420.727 213.657 421.394 213.308C422.061 212.946 422.852 212.764 423.766 212.764C424.738 212.764 425.557 212.939 426.225 213.287C426.906 213.635 427.458 214.143 427.878 214.81C428.299 215.477 428.604 216.304 428.792 217.291C428.981 218.263 429.075 219.38 429.075 220.642C429.075 221.875 428.966 222.985 428.749 223.971C428.531 224.943 428.205 225.77 427.77 226.452C427.334 227.119 426.783 227.634 426.116 227.997C425.449 228.345 424.658 228.519 423.744 228.519C422.786 228.519 421.967 228.33 421.285 227.953C420.618 227.561 420.066 227.017 419.631 226.321C419.211 225.625 418.906 224.798 418.717 223.84C418.529 222.868 418.434 221.802 418.434 220.642ZM427.291 220.642C427.291 219.873 427.247 219.14 427.16 218.444L420.697 224.341C420.944 225.168 421.314 225.828 421.807 226.321C422.301 226.814 422.946 227.061 423.744 227.061C425.021 227.061 425.927 226.531 426.464 225.472C427.015 224.413 427.291 222.803 427.291 220.642ZM420.241 220.642C420.241 221.004 420.248 221.353 420.262 221.686C420.291 222.02 420.32 222.346 420.349 222.665L426.834 216.79C426.587 216.007 426.217 215.383 425.724 214.919C425.245 214.454 424.593 214.222 423.766 214.222C422.475 214.222 421.561 214.759 421.024 215.833C420.502 216.892 420.241 218.495 420.241 220.642ZM431.482 220.642C431.482 219.409 431.591 218.306 431.809 217.334C432.026 216.348 432.353 215.521 432.788 214.853C433.223 214.172 433.774 213.657 434.442 213.308C435.109 212.946 435.899 212.764 436.813 212.764C437.785 212.764 438.605 212.939 439.272 213.287C439.954 213.635 440.505 214.143 440.926 214.81C441.347 215.477 441.651 216.304 441.84 217.291C442.029 218.263 442.123 219.38 442.123 220.642C442.123 221.875 442.014 222.985 441.797 223.971C441.579 224.943 441.253 225.77 440.817 226.452C440.382 227.119 439.831 227.634 439.164 227.997C438.496 228.345 437.706 228.519 436.792 228.519C435.834 228.519 435.015 228.33 434.333 227.953C433.665 227.561 433.114 227.017 432.679 226.321C432.258 225.625 431.954 224.798 431.765 223.84C431.576 222.868 431.482 221.802 431.482 220.642ZM440.339 220.642C440.339 219.873 440.295 219.14 440.208 218.444L433.745 224.341C433.992 225.168 434.362 225.828 434.855 226.321C435.348 226.814 435.994 227.061 436.792 227.061C438.068 227.061 438.975 226.531 439.512 225.472C440.063 224.413 440.339 222.803 440.339 220.642ZM433.288 220.642C433.288 221.004 433.295 221.353 433.31 221.686C433.339 222.02 433.368 222.346 433.397 222.665L439.882 216.79C439.635 216.007 439.265 215.383 438.772 214.919C438.293 214.454 437.64 214.222 436.813 214.222C435.522 214.222 434.608 214.759 434.072 215.833C433.549 216.892 433.288 218.495 433.288 220.642ZM444.53 220.642C444.53 219.409 444.639 218.306 444.856 217.334C445.074 216.348 445.4 215.521 445.835 214.853C446.271 214.172 446.822 213.657 447.489 213.308C448.157 212.946 448.947 212.764 449.861 212.764C450.833 212.764 451.653 212.939 452.32 213.287C453.002 213.635 453.553 214.143 453.974 214.81C454.395 215.477 454.699 216.304 454.888 217.291C455.076 218.263 455.171 219.38 455.171 220.642C455.171 221.875 455.062 222.985 454.844 223.971C454.627 224.943 454.3 225.77 453.865 226.452C453.43 227.119 452.879 227.634 452.211 227.997C451.544 228.345 450.753 228.519 449.839 228.519C448.882 228.519 448.062 228.33 447.38 227.953C446.713 227.561 446.162 227.017 445.727 226.321C445.306 225.625 445.001 224.798 444.813 223.84C444.624 222.868 444.53 221.802 444.53 220.642ZM453.386 220.642C453.386 219.873 453.343 219.14 453.256 218.444L446.793 224.341C447.04 225.168 447.409 225.828 447.903 226.321C448.396 226.814 449.041 227.061 449.839 227.061C451.116 227.061 452.023 226.531 452.559 225.472C453.111 224.413 453.386 222.803 453.386 220.642ZM446.336 220.642C446.336 221.004 446.343 221.353 446.358 221.686C446.387 222.02 446.416 222.346 446.445 222.665L452.929 216.79C452.683 216.007 452.313 215.383 451.82 214.919C451.341 214.454 450.688 214.222 449.861 214.222C448.57 214.222 447.656 214.759 447.119 215.833C446.597 216.892 446.336 218.495 446.336 220.642ZM457.578 220.642C457.578 219.409 457.686 218.306 457.904 217.334C458.122 216.348 458.448 215.521 458.883 214.853C459.318 214.172 459.87 213.657 460.537 213.308C461.204 212.946 461.995 212.764 462.909 212.764C463.881 212.764 464.7 212.939 465.368 213.287C466.05 213.635 466.601 214.143 467.022 214.81C467.442 215.477 467.747 216.304 467.935 217.291C468.124 218.263 468.218 219.38 468.218 220.642C468.218 221.875 468.11 222.985 467.892 223.971C467.674 224.943 467.348 225.77 466.913 226.452C466.478 227.119 465.926 227.634 465.259 227.997C464.592 228.345 463.801 228.519 462.887 228.519C461.93 228.519 461.11 228.33 460.428 227.953C459.761 227.561 459.21 227.017 458.774 226.321C458.354 225.625 458.049 224.798 457.86 223.84C457.672 222.868 457.578 221.802 457.578 220.642ZM466.434 220.642C466.434 219.873 466.39 219.14 466.303 218.444L459.841 224.341C460.087 225.168 460.457 225.828 460.95 226.321C461.444 226.814 462.089 227.061 462.887 227.061C464.164 227.061 465.07 226.531 465.607 225.472C466.158 224.413 466.434 222.803 466.434 220.642ZM459.384 220.642C459.384 221.004 459.391 221.353 459.405 221.686C459.434 222.02 459.463 222.346 459.492 222.665L465.977 216.79C465.73 216.007 465.361 215.383 464.867 214.919C464.389 214.454 463.736 214.222 462.909 214.222C461.618 214.222 460.704 214.759 460.167 215.833C459.645 216.892 459.384 218.495 459.384 220.642ZM474.499 227.061C474.499 226.597 474.629 226.241 474.89 225.995C475.151 225.734 475.5 225.603 475.935 225.603C476.399 225.603 476.762 225.734 477.023 225.995C477.284 226.241 477.414 226.597 477.414 227.061C477.414 227.482 477.284 227.83 477.023 228.105C476.762 228.381 476.399 228.519 475.935 228.519C475.5 228.519 475.151 228.381 474.89 228.105C474.629 227.83 474.499 227.482 474.499 227.061ZM496.721 220.642C496.721 219.409 496.829 218.306 497.047 217.334C497.265 216.348 497.591 215.521 498.026 214.853C498.462 214.172 499.013 213.657 499.68 213.308C500.347 212.946 501.138 212.764 502.052 212.764C503.024 212.764 503.844 212.939 504.511 213.287C505.193 213.635 505.744 214.143 506.165 214.81C506.585 215.477 506.89 216.304 507.079 217.291C507.267 218.263 507.361 219.38 507.361 220.642C507.361 221.875 507.253 222.985 507.035 223.971C506.817 224.943 506.491 225.77 506.056 226.452C505.621 227.119 505.069 227.634 504.402 227.997C503.735 228.345 502.944 228.519 502.03 228.519C501.073 228.519 500.253 228.33 499.571 227.953C498.904 227.561 498.353 227.017 497.918 226.321C497.497 225.625 497.192 224.798 497.004 223.84C496.815 222.868 496.721 221.802 496.721 220.642ZM505.577 220.642C505.577 219.873 505.534 219.14 505.447 218.444L498.984 224.341C499.23 225.168 499.6 225.828 500.094 226.321C500.587 226.814 501.232 227.061 502.03 227.061C503.307 227.061 504.213 226.531 504.75 225.472C505.302 224.413 505.577 222.803 505.577 220.642ZM498.527 220.642C498.527 221.004 498.534 221.353 498.549 221.686C498.578 222.02 498.607 222.346 498.636 222.665L505.12 216.79C504.874 216.007 504.504 215.383 504.01 214.919C503.532 214.454 502.879 214.222 502.052 214.222C500.761 214.222 499.847 214.759 499.31 215.833C498.788 216.892 498.527 218.495 498.527 220.642ZM509.768 220.642C509.768 219.409 509.877 218.306 510.095 217.334C510.312 216.348 510.639 215.521 511.074 214.853C511.509 214.172 512.06 213.657 512.728 213.308C513.395 212.946 514.186 212.764 515.1 212.764C516.072 212.764 516.891 212.939 517.559 213.287C518.24 213.635 518.792 214.143 519.212 214.81C519.633 215.477 519.938 216.304 520.126 217.291C520.315 218.263 520.409 219.38 520.409 220.642C520.409 221.875 520.3 222.985 520.083 223.971C519.865 224.943 519.539 225.77 519.104 226.452C518.668 227.119 518.117 227.634 517.45 227.997C516.782 228.345 515.992 228.519 515.078 228.519C514.12 228.519 513.301 228.33 512.619 227.953C511.952 227.561 511.4 227.017 510.965 226.321C510.545 225.625 510.24 224.798 510.051 223.84C509.863 222.868 509.768 221.802 509.768 220.642ZM518.625 220.642C518.625 219.873 518.581 219.14 518.494 218.444L512.031 224.341C512.278 225.168 512.648 225.828 513.141 226.321C513.634 226.814 514.28 227.061 515.078 227.061C516.355 227.061 517.261 226.531 517.798 225.472C518.349 224.413 518.625 222.803 518.625 220.642ZM511.574 220.642C511.574 221.004 511.582 221.353 511.596 221.686C511.625 222.02 511.654 222.346 511.683 222.665L518.168 216.79C517.921 216.007 517.551 215.383 517.058 214.919C516.579 214.454 515.927 214.222 515.1 214.222C513.809 214.222 512.895 214.759 512.358 215.833C511.836 216.892 511.574 218.495 511.574 220.642ZM522.816 220.642C522.816 219.409 522.925 218.306 523.142 217.334C523.36 216.348 523.686 215.521 524.122 214.853C524.557 214.172 525.108 213.657 525.775 213.308C526.443 212.946 527.233 212.764 528.147 212.764C529.119 212.764 529.939 212.939 530.606 213.287C531.288 213.635 531.839 214.143 532.26 214.81C532.681 215.477 532.985 216.304 533.174 217.291C533.363 218.263 533.457 219.38 533.457 220.642C533.457 221.875 533.348 222.985 533.13 223.971C532.913 224.943 532.586 225.77 532.151 226.452C531.716 227.119 531.165 227.634 530.497 227.997C529.83 228.345 529.04 228.519 528.126 228.519C527.168 228.519 526.349 228.33 525.667 227.953C524.999 227.561 524.448 227.017 524.013 226.321C523.592 225.625 523.288 224.798 523.099 223.84C522.91 222.868 522.816 221.802 522.816 220.642ZM531.673 220.642C531.673 219.873 531.629 219.14 531.542 218.444L525.079 224.341C525.326 225.168 525.696 225.828 526.189 226.321C526.682 226.814 527.328 227.061 528.126 227.061C529.402 227.061 530.309 226.531 530.846 225.472C531.397 224.413 531.673 222.803 531.673 220.642ZM524.622 220.642C524.622 221.004 524.629 221.353 524.644 221.686C524.673 222.02 524.702 222.346 524.731 222.665L531.216 216.79C530.969 216.007 530.599 215.383 530.106 214.919C529.627 214.454 528.974 214.222 528.147 214.222C526.856 214.222 525.942 214.759 525.406 215.833C524.883 216.892 524.622 218.495 524.622 220.642ZM535.864 220.642C535.864 219.409 535.973 218.306 536.19 217.334C536.408 216.348 536.734 215.521 537.169 214.853C537.605 214.172 538.156 213.657 538.823 213.308C539.491 212.946 540.281 212.764 541.195 212.764C542.167 212.764 542.987 212.939 543.654 213.287C544.336 213.635 544.887 214.143 545.308 214.81C545.729 215.477 546.033 216.304 546.222 217.291C546.41 218.263 546.505 219.38 546.505 220.642C546.505 221.875 546.396 222.985 546.178 223.971C545.961 224.943 545.634 225.77 545.199 226.452C544.764 227.119 544.213 227.634 543.545 227.997C542.878 228.345 542.087 228.519 541.173 228.519C540.216 228.519 539.396 228.33 538.714 227.953C538.047 227.561 537.496 227.017 537.061 226.321C536.64 225.625 536.335 224.798 536.147 223.84C535.958 222.868 535.864 221.802 535.864 220.642ZM544.72 220.642C544.72 219.873 544.677 219.14 544.59 218.444L538.127 224.341C538.374 225.168 538.743 225.828 539.237 226.321C539.73 226.814 540.375 227.061 541.173 227.061C542.45 227.061 543.357 226.531 543.893 225.472C544.445 224.413 544.72 222.803 544.72 220.642ZM537.67 220.642C537.67 221.004 537.677 221.353 537.692 221.686C537.721 222.02 537.75 222.346 537.779 222.665L544.263 216.79C544.017 216.007 543.647 215.383 543.154 214.919C542.675 214.454 542.022 214.222 541.195 214.222C539.904 214.222 538.99 214.759 538.453 215.833C537.931 216.892 537.67 218.495 537.67 220.642ZM561.959 220.642C561.959 219.409 562.068 218.306 562.286 217.334C562.503 216.348 562.83 215.521 563.265 214.853C563.7 214.172 564.251 213.657 564.919 213.308C565.586 212.946 566.377 212.764 567.29 212.764C568.262 212.764 569.082 212.939 569.749 213.287C570.431 213.635 570.983 214.143 571.403 214.81C571.824 215.477 572.129 216.304 572.317 217.291C572.506 218.263 572.6 219.38 572.6 220.642C572.6 221.875 572.491 222.985 572.274 223.971C572.056 224.943 571.73 225.77 571.294 226.452C570.859 227.119 570.308 227.634 569.641 227.997C568.973 228.345 568.183 228.519 567.269 228.519C566.311 228.519 565.492 228.33 564.81 227.953C564.142 227.561 563.591 227.017 563.156 226.321C562.735 225.625 562.431 224.798 562.242 223.84C562.054 222.868 561.959 221.802 561.959 220.642ZM570.816 220.642C570.816 219.873 570.772 219.14 570.685 218.444L564.222 224.341C564.469 225.168 564.839 225.828 565.332 226.321C565.825 226.814 566.471 227.061 567.269 227.061C568.545 227.061 569.452 226.531 569.989 225.472C570.54 224.413 570.816 222.803 570.816 220.642ZM563.765 220.642C563.765 221.004 563.773 221.353 563.787 221.686C563.816 222.02 563.845 222.346 563.874 222.665L570.359 216.79C570.112 216.007 569.742 215.383 569.249 214.919C568.77 214.454 568.117 214.222 567.29 214.222C565.999 214.222 565.085 214.759 564.549 215.833C564.026 216.892 563.765 218.495 563.765 220.642ZM575.007 220.642C575.007 219.409 575.116 218.306 575.333 217.334C575.551 216.348 575.877 215.521 576.313 214.853C576.748 214.172 577.299 213.657 577.966 213.308C578.634 212.946 579.424 212.764 580.338 212.764C581.31 212.764 582.13 212.939 582.797 213.287C583.479 213.635 584.03 214.143 584.451 214.81C584.872 215.477 585.176 216.304 585.365 217.291C585.553 218.263 585.648 219.38 585.648 220.642C585.648 221.875 585.539 222.985 585.321 223.971C585.104 224.943 584.777 225.77 584.342 226.452C583.907 227.119 583.356 227.634 582.688 227.997C582.021 228.345 581.23 228.519 580.316 228.519C579.359 228.519 578.539 228.33 577.858 227.953C577.19 227.561 576.639 227.017 576.204 226.321C575.783 225.625 575.478 224.798 575.29 223.84C575.101 222.868 575.007 221.802 575.007 220.642ZM583.863 220.642C583.863 219.873 583.82 219.14 583.733 218.444L577.27 224.341C577.517 225.168 577.887 225.828 578.38 226.321C578.873 226.814 579.519 227.061 580.316 227.061C581.593 227.061 582.5 226.531 583.037 225.472C583.588 224.413 583.863 222.803 583.863 220.642ZM576.813 220.642C576.813 221.004 576.82 221.353 576.835 221.686C576.864 222.02 576.893 222.346 576.922 222.665L583.406 216.79C583.16 216.007 582.79 215.383 582.297 214.919C581.818 214.454 581.165 214.222 580.338 214.222C579.047 214.222 578.133 214.759 577.596 215.833C577.074 216.892 576.813 218.495 576.813 220.642ZM588.055 220.642C588.055 219.409 588.163 218.306 588.381 217.334C588.599 216.348 588.925 215.521 589.36 214.853C589.795 214.172 590.347 213.657 591.014 213.308C591.681 212.946 592.472 212.764 593.386 212.764C594.358 212.764 595.178 212.939 595.845 213.287C596.527 213.635 597.078 214.143 597.499 214.81C597.919 215.477 598.224 216.304 598.413 217.291C598.601 218.263 598.695 219.38 598.695 220.642C598.695 221.875 598.587 222.985 598.369 223.971C598.151 224.943 597.825 225.77 597.39 226.452C596.955 227.119 596.403 227.634 595.736 227.997C595.069 228.345 594.278 228.519 593.364 228.519C592.407 228.519 591.587 228.33 590.905 227.953C590.238 227.561 589.687 227.017 589.251 226.321C588.831 225.625 588.526 224.798 588.338 223.84C588.149 222.868 588.055 221.802 588.055 220.642ZM596.911 220.642C596.911 219.873 596.868 219.14 596.781 218.444L590.318 224.341C590.564 225.168 590.934 225.828 591.427 226.321C591.921 226.814 592.566 227.061 593.364 227.061C594.641 227.061 595.547 226.531 596.084 225.472C596.635 224.413 596.911 222.803 596.911 220.642ZM589.861 220.642C589.861 221.004 589.868 221.353 589.883 221.686C589.912 222.02 589.941 222.346 589.97 222.665L596.454 216.79C596.208 216.007 595.838 215.383 595.344 214.919C594.866 214.454 594.213 214.222 593.386 214.222C592.095 214.222 591.181 214.759 590.644 215.833C590.122 216.892 589.861 218.495 589.861 220.642ZM601.102 220.642C601.102 219.409 601.211 218.306 601.429 217.334C601.646 216.348 601.973 215.521 602.408 214.853C602.843 214.172 603.394 213.657 604.062 213.308C604.729 212.946 605.52 212.764 606.434 212.764C607.406 212.764 608.225 212.939 608.893 213.287C609.574 213.635 610.126 214.143 610.546 214.81C610.967 215.477 611.272 216.304 611.46 217.291C611.649 218.263 611.743 219.38 611.743 220.642C611.743 221.875 611.634 222.985 611.417 223.971C611.199 224.943 610.873 225.77 610.438 226.452C610.002 227.119 609.451 227.634 608.784 227.997C608.116 228.345 607.326 228.519 606.412 228.519C605.454 228.519 604.635 228.33 603.953 227.953C603.286 227.561 602.734 227.017 602.299 226.321C601.878 225.625 601.574 224.798 601.385 223.84C601.197 222.868 601.102 221.802 601.102 220.642ZM609.959 220.642C609.959 219.873 609.915 219.14 609.828 218.444L603.365 224.341C603.612 225.168 603.982 225.828 604.475 226.321C604.968 226.814 605.614 227.061 606.412 227.061C607.688 227.061 608.595 226.531 609.132 225.472C609.683 224.413 609.959 222.803 609.959 220.642ZM602.908 220.642C602.908 221.004 602.916 221.353 602.93 221.686C602.959 222.02 602.988 222.346 603.017 222.665L609.502 216.79C609.255 216.007 608.885 215.383 608.392 214.919C607.913 214.454 607.261 214.222 606.434 214.222C605.143 214.222 604.229 214.759 603.692 215.833C603.17 216.892 602.908 218.495 602.908 220.642Z" fill="black"/>
<rect x="355" y="199.258" width="268" height="45" stroke="#58A982"/>
<path d="M340 116.848L189 116.848V106.848L340 106.848V116.848Z" fill="#FFBD6E"/>
<path d="M340 100.301L360 111.848L340 123.395V100.301Z" fill="#FFBD6E"/>
</svg>
