<svg width="823" height="703" viewBox="0 0 823 703" fill="none" xmlns="http://www.w3.org/2000/svg">
<rect x="100.951" y="221.284" width="249" height="44" fill="#DBEEE5"/>
<path d="M198.302 236.552H200.347V243.058H208.442V236.552H210.488V251.784H208.442V244.843H200.347V251.784H198.302V236.552ZM218.381 238.336H213.094V236.552H225.715V238.336H220.427V251.784H218.381V238.336ZM232.747 238.336H227.459V236.552H240.08V238.336H234.792V251.784H232.747V238.336ZM242.694 236.552H247.916C248.917 236.552 249.788 236.668 250.527 236.9C251.267 237.132 251.877 237.459 252.355 237.879C252.849 238.286 253.211 238.779 253.443 239.359C253.675 239.925 253.791 240.549 253.791 241.23C253.791 241.912 253.675 242.543 253.443 243.124C253.211 243.689 252.849 244.183 252.355 244.603C251.877 245.009 251.267 245.329 250.527 245.561C249.788 245.793 248.917 245.909 247.916 245.909H244.739V251.784H242.694V236.552ZM247.807 244.125C248.533 244.125 249.142 244.059 249.635 243.929C250.143 243.784 250.549 243.588 250.854 243.341C251.173 243.095 251.398 242.79 251.528 242.427C251.673 242.065 251.746 241.666 251.746 241.23C251.746 240.795 251.673 240.396 251.528 240.034C251.398 239.671 251.173 239.366 250.854 239.12C250.549 238.873 250.143 238.684 249.635 238.554C249.142 238.409 248.533 238.336 247.807 238.336H244.739V244.125H247.807Z" fill="black"/>
<rect x="100.951" y="221.284" width="249" height="44" stroke="#58A982"/>
<rect x="138.951" y="101.284" width="249" height="44" fill="#DBEEE5"/>
<path d="M245.068 116.552H254.86V118.336H247.113V123.276H254.207V125.06H247.113V131.784H245.068V116.552ZM261.981 118.336H256.693V116.552H269.314V118.336H264.026V131.784H261.981V118.336ZM271.928 116.552H277.15C278.151 116.552 279.022 116.668 279.762 116.9C280.502 117.132 281.111 117.459 281.59 117.879C282.083 118.286 282.445 118.779 282.678 119.359C282.91 119.925 283.026 120.549 283.026 121.23C283.026 121.912 282.91 122.543 282.678 123.124C282.445 123.689 282.083 124.183 281.59 124.603C281.111 125.009 280.502 125.329 279.762 125.561C279.022 125.793 278.151 125.909 277.15 125.909H273.973V131.784H271.928V116.552ZM277.042 124.125C277.767 124.125 278.376 124.059 278.869 123.929C279.377 123.784 279.783 123.588 280.088 123.341C280.407 123.095 280.632 122.79 280.763 122.427C280.908 122.065 280.98 121.666 280.98 121.23C280.98 120.795 280.908 120.396 280.763 120.034C280.632 119.671 280.407 119.366 280.088 119.12C279.783 118.873 279.377 118.684 278.869 118.554C278.376 118.409 277.767 118.336 277.042 118.336H273.973V124.125H277.042Z" fill="black"/>
<rect x="138.951" y="101.284" width="249" height="44" stroke="#58A982"/>
<rect x="437.654" y="101.284" width="249" height="44" fill="#DBEEE5"/>
<path d="M538.921 132.002C538.007 132.002 537.209 131.893 536.527 131.675C535.845 131.458 535.272 131.16 534.808 130.783C534.344 130.392 533.974 129.942 533.698 129.434C533.437 128.912 533.256 128.353 533.154 127.759H535.2C535.272 128.092 535.396 128.411 535.57 128.716C535.744 129.006 535.976 129.26 536.266 129.478C536.571 129.695 536.941 129.869 537.376 130C537.811 130.116 538.326 130.174 538.921 130.174C540.139 130.174 541.061 129.942 541.684 129.478C542.323 129.013 542.642 128.44 542.642 127.759C542.642 127.338 542.569 126.982 542.424 126.692C542.294 126.402 542.062 126.148 541.728 125.931C541.409 125.713 540.981 125.517 540.444 125.343C539.922 125.169 539.276 124.995 538.507 124.821C537.652 124.632 536.912 124.429 536.288 124.212C535.679 123.979 535.171 123.697 534.765 123.363C534.373 123.015 534.076 122.601 533.872 122.123C533.684 121.644 533.59 121.056 533.59 120.36C533.59 119.794 533.713 119.272 533.96 118.793C534.206 118.3 534.554 117.872 535.004 117.509C535.468 117.147 536.027 116.864 536.68 116.661C537.347 116.443 538.094 116.334 538.921 116.334C539.733 116.334 540.444 116.443 541.053 116.661C541.663 116.864 542.178 117.147 542.598 117.509C543.034 117.872 543.374 118.3 543.621 118.793C543.868 119.272 544.042 119.794 544.143 120.36H542.098C542.025 120.055 541.917 119.772 541.771 119.511C541.626 119.236 541.423 119.004 541.162 118.815C540.916 118.612 540.604 118.452 540.226 118.336C539.864 118.22 539.429 118.162 538.921 118.162C537.876 118.162 537.064 118.38 536.484 118.815C535.918 119.236 535.635 119.751 535.635 120.36C535.635 120.752 535.708 121.093 535.853 121.383C535.998 121.658 536.223 121.905 536.527 122.123C536.832 122.326 537.216 122.507 537.681 122.667C538.159 122.812 538.725 122.957 539.378 123.102C540.321 123.305 541.126 123.537 541.793 123.798C542.475 124.045 543.026 124.349 543.447 124.712C543.882 125.075 544.194 125.503 544.383 125.996C544.586 126.489 544.687 127.077 544.687 127.759C544.687 128.353 544.557 128.912 544.296 129.434C544.035 129.942 543.657 130.392 543.164 130.783C542.671 131.16 542.069 131.458 541.358 131.675C540.647 131.893 539.835 132.002 538.921 132.002ZM548.053 116.552H550.185L555.277 126.235L560.369 116.552H562.414V131.784H560.369V120.251L555.995 128.52H554.472L550.098 120.251V131.784H548.053V116.552ZM570.321 118.336H565.033V116.552H577.654V118.336H572.367V131.784H570.321V118.336ZM580.268 116.552H585.491C586.492 116.552 587.362 116.668 588.102 116.9C588.842 117.132 589.451 117.459 589.93 117.879C590.423 118.286 590.786 118.779 591.018 119.359C591.25 119.925 591.366 120.549 591.366 121.23C591.366 121.912 591.25 122.543 591.018 123.124C590.786 123.689 590.423 124.183 589.93 124.603C589.451 125.009 588.842 125.329 588.102 125.561C587.362 125.793 586.492 125.909 585.491 125.909H582.314V131.784H580.268V116.552ZM585.382 124.125C586.107 124.125 586.716 124.059 587.21 123.929C587.717 123.784 588.124 123.588 588.428 123.341C588.747 123.095 588.972 122.79 589.103 122.427C589.248 122.065 589.32 121.666 589.32 121.23C589.32 120.795 589.248 120.396 589.103 120.034C588.972 119.671 588.747 119.366 588.428 119.12C588.124 118.873 587.717 118.684 587.21 118.554C586.716 118.409 586.107 118.336 585.382 118.336H582.314V124.125H585.382Z" fill="black"/>
<rect x="437.654" y="101.284" width="249" height="44" stroke="#58A982"/>
<rect x="473.451" y="221.284" width="249" height="44" fill="#DBEEE5"/>
<path d="M582.729 252.002C581.815 252.002 581.017 251.893 580.335 251.675C579.654 251.458 579.081 251.16 578.616 250.783C578.152 250.392 577.782 249.942 577.507 249.434C577.246 248.912 577.064 248.353 576.963 247.759H579.008C579.081 248.092 579.204 248.411 579.378 248.716C579.552 249.006 579.784 249.26 580.074 249.478C580.379 249.695 580.749 249.869 581.184 250C581.619 250.116 582.134 250.174 582.729 250.174C583.948 250.174 584.869 249.942 585.493 249.478C586.131 249.013 586.45 248.44 586.45 247.759C586.45 247.338 586.378 246.982 586.233 246.692C586.102 246.402 585.87 246.148 585.536 245.931C585.217 245.713 584.789 245.517 584.252 245.343C583.73 245.169 583.085 244.995 582.316 244.821C581.46 244.632 580.72 244.429 580.096 244.212C579.487 243.979 578.979 243.697 578.573 243.363C578.181 243.015 577.884 242.601 577.681 242.123C577.492 241.644 577.398 241.056 577.398 240.36C577.398 239.794 577.521 239.272 577.768 238.793C578.014 238.3 578.363 237.872 578.812 237.509C579.276 237.147 579.835 236.864 580.488 236.661C581.155 236.443 581.902 236.334 582.729 236.334C583.542 236.334 584.252 236.443 584.862 236.661C585.471 236.864 585.986 237.147 586.407 237.509C586.842 237.872 587.183 238.3 587.429 238.793C587.676 239.272 587.85 239.794 587.952 240.36H585.906C585.834 240.055 585.725 239.772 585.58 239.511C585.435 239.236 585.232 239.004 584.97 238.815C584.724 238.612 584.412 238.452 584.035 238.336C583.672 238.22 583.237 238.162 582.729 238.162C581.685 238.162 580.872 238.38 580.292 238.815C579.726 239.236 579.443 239.751 579.443 240.36C579.443 240.752 579.516 241.093 579.661 241.383C579.806 241.658 580.031 241.905 580.335 242.123C580.64 242.326 581.025 242.507 581.489 242.667C581.968 242.812 582.533 242.957 583.186 243.102C584.129 243.305 584.934 243.537 585.601 243.798C586.283 244.045 586.835 244.349 587.255 244.712C587.69 245.075 588.002 245.503 588.191 245.996C588.394 246.489 588.496 247.077 588.496 247.759C588.496 248.353 588.365 248.912 588.104 249.434C587.843 249.942 587.466 250.392 586.972 250.783C586.479 251.16 585.877 251.458 585.166 251.675C584.455 251.893 583.643 252.002 582.729 252.002ZM596.648 252.002C595.734 252.002 594.936 251.893 594.254 251.675C593.573 251.458 593 251.16 592.535 250.783C592.071 250.392 591.701 249.942 591.426 249.434C591.164 248.912 590.983 248.353 590.882 247.759H592.927C593 248.092 593.123 248.411 593.297 248.716C593.471 249.006 593.703 249.26 593.993 249.478C594.298 249.695 594.668 249.869 595.103 250C595.538 250.116 596.053 250.174 596.648 250.174C597.867 250.174 598.788 249.942 599.412 249.478C600.05 249.013 600.369 248.44 600.369 247.759C600.369 247.338 600.297 246.982 600.152 246.692C600.021 246.402 599.789 246.148 599.455 245.931C599.136 245.713 598.708 245.517 598.171 245.343C597.649 245.169 597.004 244.995 596.235 244.821C595.379 244.632 594.639 244.429 594.015 244.212C593.406 243.979 592.898 243.697 592.492 243.363C592.1 243.015 591.803 242.601 591.6 242.123C591.411 241.644 591.317 241.056 591.317 240.36C591.317 239.794 591.44 239.272 591.687 238.793C591.933 238.3 592.282 237.872 592.731 237.509C593.195 237.147 593.754 236.864 594.407 236.661C595.074 236.443 595.821 236.334 596.648 236.334C597.46 236.334 598.171 236.443 598.781 236.661C599.39 236.864 599.905 237.147 600.326 237.509C600.761 237.872 601.102 238.3 601.348 238.793C601.595 239.272 601.769 239.794 601.871 240.36H599.825C599.753 240.055 599.644 239.772 599.499 239.511C599.354 239.236 599.151 239.004 598.889 238.815C598.643 238.612 598.331 238.452 597.954 238.336C597.591 238.22 597.156 238.162 596.648 238.162C595.604 238.162 594.791 238.38 594.211 238.815C593.645 239.236 593.362 239.751 593.362 240.36C593.362 240.752 593.435 241.093 593.58 241.383C593.725 241.658 593.95 241.905 594.254 242.123C594.559 242.326 594.944 242.507 595.408 242.667C595.886 242.812 596.452 242.957 597.105 243.102C598.048 243.305 598.853 243.537 599.52 243.798C600.202 244.045 600.754 244.349 601.174 244.712C601.609 245.075 601.921 245.503 602.11 245.996C602.313 246.489 602.415 247.077 602.415 247.759C602.415 248.353 602.284 248.912 602.023 249.434C601.762 249.942 601.385 250.392 600.891 250.783C600.398 251.16 599.796 251.458 599.085 251.675C598.374 251.893 597.562 252.002 596.648 252.002ZM605.78 236.552H607.825V243.058H615.92V236.552H617.966V251.784H615.92V244.843H607.825V251.784H605.78V236.552Z" fill="black"/>
<rect x="473.451" y="221.284" width="249" height="44" stroke="#58A982"/>
<rect x="262.303" y="419.284" width="299" height="44" fill="#DBEEE5"/>
<path d="M396.467 436.336H391.179V434.552H403.8V436.336H398.512V449.784H396.467V436.336ZM411.538 450.002C410.682 450.002 409.869 449.857 409.1 449.567C408.332 449.262 407.65 448.798 407.055 448.174C406.46 447.536 405.989 446.73 405.64 445.759C405.292 444.787 405.118 443.626 405.118 442.277V441.842C405.118 440.536 405.292 439.412 405.64 438.469C405.989 437.526 406.46 436.75 407.055 436.14C407.65 435.531 408.332 435.081 409.1 434.791C409.869 434.487 410.682 434.334 411.538 434.334C412.364 434.334 413.119 434.443 413.801 434.661C414.497 434.878 415.106 435.19 415.628 435.596C416.151 436.003 416.571 436.503 416.891 437.098C417.224 437.693 417.435 438.367 417.522 439.122H415.346C415.142 438.135 414.715 437.395 414.062 436.902C413.409 436.409 412.568 436.162 411.538 436.162C411.001 436.162 410.479 436.264 409.971 436.467C409.463 436.67 409.006 436.996 408.6 437.446C408.208 437.881 407.889 438.462 407.642 439.187C407.41 439.912 407.294 440.797 407.294 441.842V442.277C407.294 443.379 407.425 444.308 407.686 445.062C407.947 445.802 408.281 446.404 408.687 446.868C409.093 447.333 409.55 447.666 410.058 447.869C410.566 448.072 411.059 448.174 411.538 448.174C412.669 448.174 413.554 447.898 414.192 447.347C414.831 446.796 415.215 446.085 415.346 445.215H417.522C417.406 446.056 417.173 446.781 416.825 447.391C416.477 447.985 416.035 448.479 415.498 448.87C414.976 449.262 414.374 449.552 413.692 449.741C413.024 449.915 412.306 450.002 411.538 450.002ZM420.779 434.552H426.001C427.002 434.552 427.873 434.668 428.613 434.9C429.352 435.132 429.962 435.459 430.44 435.879C430.934 436.286 431.296 436.779 431.528 437.359C431.761 437.925 431.877 438.549 431.877 439.23C431.877 439.912 431.761 440.543 431.528 441.124C431.296 441.689 430.934 442.183 430.44 442.603C429.962 443.009 429.352 443.329 428.613 443.561C427.873 443.793 427.002 443.909 426.001 443.909H422.824V449.784H420.779V434.552ZM425.893 442.125C426.618 442.125 427.227 442.059 427.72 441.929C428.228 441.784 428.634 441.588 428.939 441.341C429.258 441.095 429.483 440.79 429.614 440.427C429.759 440.065 429.831 439.666 429.831 439.23C429.831 438.795 429.759 438.396 429.614 438.034C429.483 437.671 429.258 437.366 428.939 437.12C428.634 436.873 428.228 436.684 427.72 436.554C427.227 436.409 426.618 436.336 425.893 436.336H422.824V442.125H425.893Z" fill="black"/>
<rect x="262.303" y="419.284" width="299" height="44" stroke="#58A982"/>
<rect x="212.303" y="558.284" width="399" height="44" fill="#ABD4C1"/>
<path d="M403.646 573.552H405.691V588.784H403.646V573.552ZM410.271 573.552H415.493C416.494 573.552 417.364 573.668 418.104 573.9C418.844 574.132 419.453 574.459 419.932 574.879C420.425 575.286 420.788 575.779 421.02 576.359C421.252 576.925 421.368 577.549 421.368 578.23C421.368 578.912 421.252 579.543 421.02 580.124C420.788 580.689 420.425 581.183 419.932 581.603C419.453 582.009 418.844 582.329 418.104 582.561C417.364 582.793 416.494 582.909 415.493 582.909H412.316V588.784H410.271V573.552ZM415.384 581.125C416.11 581.125 416.719 581.059 417.212 580.929C417.72 580.784 418.126 580.588 418.431 580.341C418.75 580.095 418.975 579.79 419.105 579.427C419.25 579.065 419.323 578.666 419.323 578.23C419.323 577.795 419.25 577.396 419.105 577.034C418.975 576.671 418.75 576.366 418.431 576.12C418.126 575.873 417.72 575.684 417.212 575.554C416.719 575.409 416.11 575.336 415.384 575.336H412.316V581.125H415.384Z" fill="black"/>
<rect x="212.303" y="558.284" width="399" height="44" stroke="#58A982"/>
<path d="M423.35 493.784L411.803 473.784L400.256 493.784L423.35 493.784Z" fill="#FFBD6E"/>
<path d="M406.803 527.784L406.803 493.784L416.803 493.784L416.803 527.784L406.803 527.784Z" fill="#FFBD6E"/>
<path d="M423.35 527.784L411.803 547.784L400.256 527.784L423.35 527.784Z" fill="#FFBD6E"/>
<path d="M386.35 175.784L374.803 155.784L363.256 175.784L386.35 175.784Z" fill="#FFBD6E"/>
<path d="M369.803 388.784L369.803 175.784L379.803 175.784L379.803 388.784L369.803 388.784Z" fill="#FFBD6E"/>
<path d="M386.35 388.784L374.803 408.784L363.256 388.784L386.35 388.784Z" fill="#FFBD6E"/>
<path d="M349.897 295.634L338.35 275.634L326.803 295.634L349.897 295.634Z" fill="#FFBD6E"/>
<path d="M333.35 388.634L333.35 295.634L343.35 295.634L343.35 388.634L333.35 388.634Z" fill="#FFBD6E"/>
<path d="M349.897 388.634L338.35 408.634L326.803 388.634L349.897 388.634Z" fill="#FFBD6E"/>
<path d="M495.897 295.634L484.35 275.634L472.803 295.634L495.897 295.634Z" fill="#FFBD6E"/>
<path d="M479.35 388.634L479.35 295.634L489.35 295.634L489.35 388.634L479.35 388.634Z" fill="#FFBD6E"/>
<path d="M495.897 388.634L484.35 408.634L472.803 388.634L495.897 388.634Z" fill="#FFBD6E"/>
<path d="M460.35 175.784L448.803 155.784L437.256 175.784L460.35 175.784Z" fill="#FFBD6E"/>
<path d="M443.803 388.784L443.803 175.784L453.803 175.784L453.803 388.784L443.803 388.784Z" fill="#FFBD6E"/>
<path d="M460.35 388.784L448.803 408.784L437.256 388.784L460.35 388.784Z" fill="#FFBD6E"/>
</svg>
