<svg version="1.1" preserveAspectRatio="none" x="0px" y="0px" width="800px" height="270px" viewBox="0 0 503 170" xmlns="http://www.w3.org/2000/svg">
  <defs>
    <linearGradient id="Gradient_1" gradientUnits="userSpaceOnUse" x1="81.575" y1="-5.3" x2="85.825" y2="-5.3" spreadMethod="pad">
      <stop offset="0" stop-color="#000000" stop-opacity="0.15294117647058825"/>
      <stop offset="1" stop-color="#000000" stop-opacity="0.35294117647058826"/>
    </linearGradient>
    <linearGradient id="Gradient_2" gradientUnits="userSpaceOnUse" x1="63.575" y1="-6.6" x2="70.825" y2="-6.6" spreadMethod="pad">
      <stop offset="0" stop-color="#000000" stop-opacity="0.15294117647058825"/>
      <stop offset="1" stop-color="#000000" stop-opacity="0.35294117647058826"/>
    </linearGradient>
    <linearGradient id="Gradient_3" gradientUnits="userSpaceOnUse" x1="78.95" y1="-2.6499999999999995" x2="78.95" y2="-11.05" spreadMethod="pad">
      <stop offset="0" stop-color="#FFFFFF" stop-opacity="0.25098039215686274"/>
      <stop offset="1" stop-color="#000000" stop-opacity="0.15294117647058825"/>
    </linearGradient>
    <linearGradient id="Gradient_4" gradientUnits="userSpaceOnUse" x1="62.224999999999994" y1="-21.75" x2="74.875" y2="-21.75" spreadMethod="pad">
      <stop offset="0" stop-color="#000000" stop-opacity="0.15294117647058825"/>
      <stop offset="1" stop-color="#000000" stop-opacity="0.35294117647058826"/>
    </linearGradient>
    <linearGradient id="Gradient_5" gradientUnits="userSpaceOnUse" x1="63.3" y1="-25.95" x2="67.2" y2="-25.95" spreadMethod="pad">
      <stop offset="0" stop-color="#000000" stop-opacity="0.15294117647058825"/>
      <stop offset="1" stop-color="#000000" stop-opacity="0.35294117647058826"/>
    </linearGradient>
    <linearGradient id="Gradient_6" gradientUnits="userSpaceOnUse" x1="35.5" y1="-3.1499999999999986" x2="35.5" y2="-13.25" spreadMethod="pad">
      <stop offset="0" stop-color="#FFFFFF" stop-opacity="0.25098039215686274"/>
      <stop offset="1" stop-color="#000000" stop-opacity="0.10196078431372549"/>
    </linearGradient>
    <linearGradient id="Gradient_7" gradientUnits="userSpaceOnUse" x1="42.75" y1="-20.775" x2="42.75" y2="-30.225" spreadMethod="pad">
      <stop offset="0" stop-color="#FFFFFF" stop-opacity="0.25098039215686274"/>
      <stop offset="1" stop-color="#000000" stop-opacity="0.15294117647058825"/>
    </linearGradient>
    <linearGradient id="Gradient_8" gradientUnits="userSpaceOnUse" x1="43" y1="-70.625" x2="43" y2="-73.975" spreadMethod="pad">
      <stop offset="0" stop-color="#FFFFFF" stop-opacity="0.25098039215686274"/>
      <stop offset="1" stop-color="#000000" stop-opacity="0.15294117647058825"/>
    </linearGradient>
    <linearGradient id="Gradient_9" gradientUnits="userSpaceOnUse" x1="68.475" y1="-50.8" x2="75.225" y2="-50.8" spreadMethod="pad">
      <stop offset="0" stop-color="#000000" stop-opacity="0.15294117647058825"/>
      <stop offset="1" stop-color="#000000" stop-opacity="0.35294117647058826"/>
    </linearGradient>
    <linearGradient id="Gradient_10" gradientUnits="userSpaceOnUse" x1="97.25" y1="-45.4" x2="128.75" y2="-45.4" spreadMethod="pad">
      <stop offset="0" stop-color="#000000" stop-opacity="0.15294117647058825"/>
      <stop offset="1" stop-color="#000000" stop-opacity="0.35294117647058826"/>
    </linearGradient>
    <linearGradient id="Gradient_11" gradientUnits="userSpaceOnUse" x1="64.35" y1="-45.4" x2="64.35" y2="-76.4" spreadMethod="pad">
      <stop offset="0" stop-color="#FFFFFF" stop-opacity="0.25098039215686274"/>
      <stop offset="1" stop-color="#000000" stop-opacity="0.15294117647058825"/>
    </linearGradient>
    <linearGradient id="Gradient_12" gradientUnits="userSpaceOnUse" x1="59.3" y1="-7.6" x2="59.3" y2="-19.1" spreadMethod="pad">
      <stop offset="0" stop-color="#FFFFFF" stop-opacity="0.25098039215686274"/>
      <stop offset="1" stop-color="#000000" stop-opacity="0.15294117647058825"/>
    </linearGradient>
    <linearGradient id="Gradient_13" gradientUnits="userSpaceOnUse" x1="96.7625" y1="-30.3625" x2="104.53750000000001" y2="-38.1375" spreadMethod="pad">
      <stop offset="0" stop-color="#000000" stop-opacity="0.15294117647058825"/>
      <stop offset="1" stop-color="#000000" stop-opacity="0.35294117647058826"/>
    </linearGradient>
    <linearGradient id="Gradient_14" gradientUnits="userSpaceOnUse" x1="84.0625" y1="-27.962500000000002" x2="93.5375" y2="-37.4375" spreadMethod="pad">
      <stop offset="0" stop-color="#FFFFFF" stop-opacity="0.25098039215686274"/>
      <stop offset="1" stop-color="#000000" stop-opacity="0.15294117647058825"/>
    </linearGradient>
    <filter id="Filter_1" x="-32.34389260912062%" y="-24.404791070084574%" width="164.68778521824123%" height="148.80958214016914%" color-interpolation-filters="sRGB">
      <feFlood flood-color="#000000" flood-opacity="1" in="SourceGraphic" result="result1"/>
      <feComposite in2="SourceGraphic" in="result1" operator="in" result="result2"/>
      <feGaussianBlur in="result2" stdDeviation="1,1" result="result3"/>
      <feOffset dx="1.2246467991473532e-16" dy="2" in="result3" result="result4"/>
      <feComposite in2="result4" in="SourceGraphic" operator="over" result="result5"/>
    </filter>
    <filter id="Filter_2" x="-20%" y="-30.907131460672918%" width="140%" height="161.81426292134583%" color-interpolation-filters="sRGB">
      <feFlood flood-color="#918F90" flood-opacity="1" in="SourceGraphic" result="result1"/>
      <feComposite in2="SourceGraphic" in="result1" operator="in" result="result2"/>
      <feGaussianBlur in="result2" stdDeviation="1.3333333333333333,1.3333333333333333" result="result3"/>
      <feOffset dx="2.158019262266913" dy="2.0839752550558197" in="result3" result="result4"/>
      <feComposite in2="result4" in="SourceGraphic" operator="over" result="result5"/>
    </filter>
    <g id="FL_01_topology_icons_uid5838tg0i_01_topology_icons_computer_0_Layer1_0_FILL">
      <path fill="#237AA7" stroke="none" d=" M 25.4 -74 L 10.75 -70.65 10.75 -27.05 16.7 -27.05 10.6 -20.8 10.45 -20.8 10.45 -17.45 16 -17.45 16 -13.25 7.4 -13.25 0.15 -3.15 0 -3.15 0 0.05 63.6 0.05 70.85 -7.2 70.85 -13.25 64.25 -13.25 71.5 -20.5 71.5 -22.35 Q 89.05 -22.15 89.2 -18.45 89.2 -17.2 86.95 -15.85 L 86.95 -15.9 83.25 -14.4 Q 81.4 -14.05 80.65 -13.6 79.8 -13.05 80.35 -12.3 80.8 -11.55 81.1 -11.05 L 76.25 -11.05 72.05 -2.65 72.05 0.2 81.8 0.2 81.8 0 85.85 -5.15 85.85 -10.75 86 -11.05 81.4 -11.05 81.4 -11.1 Q 81.05 -11.65 80.6 -12.45 80.25 -12.95 80.85 -13.3 81.5 -13.8 83.35 -14.1 L 87.05 -15.6 87.1 -15.6 Q 89.5 -17.1 89.5 -18.45 89.35 -22.45 71.5 -22.65 L 71.5 -23.45 74.9 -26.9 74.9 -30.25 71.4 -30.25 75.25 -33.8 75.25 -74 25.4 -74 Z"/>
    </g>
    <g id="FL_01_topology_icons_uid5838tg0i_01_topology_icons_computer_0_Layer0_0_FILL">
      <path fill="#57BDB4" stroke="none" d=" M 81.8 0 L 81.6 0.2 81.8 0.2 81.8 0 Z"/>
      <path fill="#000000" fill-opacity="0.08235294117647059" stroke="none" d=" M 81.6 -2.65 L 72.05 -2.65 72.05 0.2 81.6 0.2 81.6 -2.65 M 71.5 -22.65 Q 71.45 -22.65 71.4 -22.6 71.35 -22.55 71.35 -22.5 71.35 -22.45 71.4 -22.4 71.45 -22.35 71.5 -22.35 75.2 -22.3 78.1 -22.1 89.05 -21.4 89.2 -18.45 89.2 -18 88.9 -17.5 88.8 -17.4 88.7 -17.25 88.15 -16.6 86.95 -15.85 L 86.95 -15.9 83.25 -14.4 Q 81.4 -14.05 80.65 -13.6 79.8 -13.05 80.35 -12.3 80.8 -11.55 81.1 -11.05 81.1 -11 81.15 -10.95 81.15 -10.9 81.25 -10.9 81.3 -10.9 81.35 -10.9 81.4 -10.95 81.4 -11 L 81.4 -11.05 81.4 -11.1 Q 81.05 -11.65 80.6 -12.45 80.25 -12.95 80.85 -13.3 81.5 -13.8 83.35 -14.1 L 87.05 -15.6 87.1 -15.6 Q 88.4 -16.45 89.05 -17.2 89.1 -17.3 89.2 -17.4 89.5 -17.95 89.5 -18.45 89.4 -21.6 78.35 -22.35 75.35 -22.6 71.5 -22.65 M 0.15 -3.15 L 0 -3.15 0 0.05 63.6 0.05 63.6 -3.15 0.15 -3.15 Z"/>
      <path fill="url(#Gradient_1)" stroke="none" d=" M 85.85 -10.75 L 85.7 -10.8 81.6 -2.65 81.6 0.2 81.8 0 85.85 -5.15 85.85 -10.75 Z"/>
      <path fill="#80CDC6" stroke="none" d=" M 85.85 -11.05 L 85.85 -10.75 86 -11.05 85.85 -11.05 Z"/>
      <path fill="#007A68" stroke="none" d=" M 85.85 -11.05 L 85.7 -10.8 85.85 -10.75 85.85 -11.05 Z"/>
      <path fill="url(#Gradient_2)" stroke="none" d=" M 70.85 -13.25 L 63.6 -3.15 63.6 0.05 70.85 -7.2 70.85 -13.25 Z"/>
      <path fill="url(#Gradient_3)" stroke="none" d=" M 76.25 -11.05 L 72.05 -2.65 81.6 -2.65 85.7 -10.8 85.85 -11.05 81.4 -11.05 81.4 -11 Q 81.4 -10.95 81.35 -10.9 81.3 -10.9 81.25 -10.9 81.15 -10.9 81.15 -10.95 81.1 -11 81.1 -11.05 L 76.25 -11.05 Z"/>
      <path fill="url(#Gradient_4)" stroke="none" d=" M 74.9 -26.9 L 74.9 -30.25 65.65 -20.8 65.65 -17.45 62.25 -17.45 62.25 -13.25 64.25 -13.25 71.5 -20.5 71.5 -22.35 Q 71.45 -22.35 71.4 -22.4 71.35 -22.45 71.35 -22.5 71.35 -22.55 71.4 -22.6 71.45 -22.65 71.5 -22.65 L 71.5 -23.45 74.9 -26.9 Z"/>
      <path fill="url(#Gradient_5)" stroke="none" d=" M 65.65 -24.85 L 66.8 -26.7 67.2 -27.05 63.3 -27.05 65.65 -24.85 Z"/>
      <path fill="#000000" fill-opacity="0.011764705882352941" stroke="none" d=" M 10.45 -17.45 L 16 -17.45 62.25 -17.45 65.65 -17.45 65.65 -20.8 10.6 -20.8 10.45 -20.8 10.45 -17.45 M 10.75 -27.05 L 16.7 -27.05 63.3 -27.05 67.2 -27.05 68.5 -27.05 68.5 -27.55 68.5 -70.65 10.75 -70.65 10.75 -27.05 M 59.75 -66.1 Q 64.45 -66.1 64.45 -61.2 L 64.45 -35.65 Q 64.45 -30.95 59.75 -30.9 L 19.2 -30.9 Q 15.8 -30.95 14.75 -33.2 14.3 -34.2 14.3 -35.65 L 14.3 -61.2 Q 14.3 -62.7 14.75 -63.75 15.8 -66.1 19.2 -66.1 L 59.75 -66.1 Z"/>
      <path fill="#000000" fill-opacity="0.25098039215686274" stroke="none" d=" M 16 -17.45 L 16 -13.25 62.25 -13.25 62.25 -17.45 16 -17.45 Z"/>
      <path fill="url(#Gradient_6)" stroke="none" d=" M 16 -13.25 L 7.4 -13.25 0.15 -3.15 63.6 -3.15 70.85 -13.25 64.25 -13.25 62.25 -13.25 16 -13.25 Z"/>
      <path fill="#FFFFFF" fill-opacity="0.4" stroke="none" d=" M 64.45 -61.2 Q 64.45 -66.1 59.75 -66.1 L 19.2 -66.1 Q 15.8 -66.1 14.75 -63.75 14.3 -62.7 14.3 -61.2 L 14.3 -35.65 Q 14.3 -34.2 14.75 -33.2 15.8 -30.95 19.2 -30.9 L 59.75 -30.9 Q 64.45 -30.95 64.45 -35.65 L 64.45 -61.2 Z"/>
      <path fill="#000000" fill-opacity="0.15294117647058825" stroke="none" d=" M 16.7 -27.05 L 19 -24.85 65.65 -24.85 63.3 -27.05 16.7 -27.05 Z"/>
      <path fill="url(#Gradient_7)" stroke="none" d=" M 19 -24.85 L 16.7 -27.05 10.6 -20.8 65.65 -20.8 74.9 -30.25 71.4 -30.25 68.5 -27.55 68.5 -27.05 67.2 -27.05 66.8 -26.7 65.65 -24.85 19 -24.85 Z"/>
      <path fill="url(#Gradient_8)" stroke="none" d=" M 68.5 -70.65 L 75.25 -74 25.4 -74 10.75 -70.65 68.5 -70.65 Z"/>
      <path fill="url(#Gradient_9)" stroke="none" d=" M 75.25 -74 L 68.5 -70.65 68.5 -27.55 71.4 -30.25 75.25 -33.8 75.25 -74 Z"/>
    </g>
    <g id="FL_05_shapes_uidap1ps698_05_shapes_z_box_flat_narrow_divided_0_Layer1_0_FILL">
      <path fill="#237AA7" stroke="none" d=" M 2.1 -9.2 L 0 -7.6 0 0 97.25 0 115.8 -19 115.8 -26.25 113.65 -26.25 115.75 -28.3 115.8 -64 23.55 -64 0 -45.4 0 -9.2 2.1 -9.2 Z"/>
    </g>
    <g id="FL_05_shapes_uidap1ps698_05_shapes_z_box_flat_narrow_divided_0_Layer0_0_FILL">
      <path fill="#000000" fill-opacity="0.011764705882352941" stroke="none" d=" M 97.25 -7.6 L 0 -7.6 0 0 97.25 0 97.25 -7.6 M 0 -7.6 L 2.1 -9.2 97.25 -9.2 97.25 -45.4 0 -45.4 0 -7.6 Z"/>
      <path fill="url(#Gradient_10)" stroke="none" d=" M 103.05 -5.9 L 103.05 -6 115.8 -19 115.8 -21.4 115.75 -21.35 115.8 -26.25 97.25 -7.6 97.25 0 103.05 -5.9 M 113.85 -26.4 L 115.75 -28.3 115.8 -64 97.25 -45.4 97.25 -9.2 97.3 -9.2 113.7 -26.25 113.65 -26.25 113.85 -26.4 Z"/>
      <path fill="url(#Gradient_11)" stroke="none" d=" M 23.55 -64 L 0 -45.4 97.25 -45.4 115.8 -64 23.55 -64 Z"/>
      <path fill="url(#Gradient_12)" stroke="none" d=" M 2.1 -9.2 L 0 -7.6 97.25 -7.6 115.8 -26.25 113.7 -26.25 97.3 -9.2 97.25 -9.2 2.1 -9.2 Z"/>
    </g>
    <g id="FL_01_topology_icons_uidyzpjp2mt_01_topology_icons_printer_0_Layer1_0_FILL">
      <path fill="#237AA7" stroke="none" d=" M 67.95 -20.9 L 67.95 -18.15 93.8 -25.85 106.15 -38.4 106.15 -41.15 80.75 -33.55 67.95 -20.9 Z"/>
    </g>
    <g id="FL_01_topology_icons_uidyzpjp2mt_01_topology_icons_printer_0_Layer0_0_FILL">
      <path fill="url(#Gradient_13)" stroke="none" d=" M 106.15 -38.4 L 106.15 -41.15 93.8 -28.6 93.8 -25.85 106.15 -38.4 Z"/>
      <path fill="#000000" fill-opacity="0.011764705882352941" stroke="none" d=" M 67.95 -20.9 L 67.95 -18.15 93.8 -25.85 93.8 -28.6 67.95 -20.9 Z"/>
      <path fill="url(#Gradient_14)" stroke="none" d=" M 80.75 -33.55 L 67.95 -20.9 93.8 -28.6 106.15 -41.15 80.75 -33.55 Z"/>
    </g>
    <g id="uid1j7fc3u9_bubble___shadow_0_Layer0_0_FILL">
      <path fill="#FFFFFF" stroke="none" d=" M 28.95 -29.25 L 39.55 -42.7 -26.95 -39.2 -26.8 -23.7 -4.65 -23.85 -4.7 3.15 81.8 -22.45 28.95 -29.25 Z"/>
    </g>
    <path id="uid4z210uqz_Main_0_Layer1_0_1_STROKES" stroke="#000000" stroke-width="2" stroke-linejoin="round" stroke-linecap="round" fill="none" d=" M 137.55 147.25 L 526.9 147.25"/>
  </defs>
  <g transform="matrix( 1, 0, 0, 1, -99,-25) ">
    <g transform="matrix( 1, 0, 0, 1, 0,0) ">
      <path stroke="#000000" stroke-width="2" stroke-linejoin="round" stroke-linecap="round" fill="none" d=" M 137.55 147.25 L 526.9 147.25" transform="matrix(1, 0, 0, 1, 0, 0)"/>
    </g>
    <g transform="matrix( 0.5999908447265625, 0, 0, 0.5999908447265625, 314.05,158.4) ">
      <g transform="matrix( 1, 0, 0, 1, 0,0) ">
        <g transform="matrix(1, 0, 0, 1, 0, 0)">
          <path fill="#237AA7" stroke="none" d=" M 25.4 -74 L 10.75 -70.65 10.75 -27.05 16.7 -27.05 10.6 -20.8 10.45 -20.8 10.45 -17.45 16 -17.45 16 -13.25 7.4 -13.25 0.15 -3.15 0 -3.15 0 0.05 63.6 0.05 70.85 -7.2 70.85 -13.25 64.25 -13.25 71.5 -20.5 71.5 -22.35 Q 89.05 -22.15 89.2 -18.45 89.2 -17.2 86.95 -15.85 L 86.95 -15.9 83.25 -14.4 Q 81.4 -14.05 80.65 -13.6 79.8 -13.05 80.35 -12.3 80.8 -11.55 81.1 -11.05 L 76.25 -11.05 72.05 -2.65 72.05 0.2 81.8 0.2 81.8 0 85.85 -5.15 85.85 -10.75 86 -11.05 81.4 -11.05 81.4 -11.1 Q 81.05 -11.65 80.6 -12.45 80.25 -12.95 80.85 -13.3 81.5 -13.8 83.35 -14.1 L 87.05 -15.6 87.1 -15.6 Q 89.5 -17.1 89.5 -18.45 89.35 -22.45 71.5 -22.65 L 71.5 -23.45 74.9 -26.9 74.9 -30.25 71.4 -30.25 75.25 -33.8 75.25 -74 25.4 -74 Z"/>
        </g>
      </g>
      <g transform="matrix( 1, 0, 0, 1, 0,0) ">
        <g transform="matrix(1, 0, 0, 1, 0, 0)">
          <path fill="#57BDB4" stroke="none" d=" M 81.8 0 L 81.6 0.2 81.8 0.2 81.8 0 Z"/>
          <path fill="#000000" fill-opacity="0.08235294117647059" stroke="none" d=" M 81.6 -2.65 L 72.05 -2.65 72.05 0.2 81.6 0.2 81.6 -2.65 M 71.5 -22.65 Q 71.45 -22.65 71.4 -22.6 71.35 -22.55 71.35 -22.5 71.35 -22.45 71.4 -22.4 71.45 -22.35 71.5 -22.35 75.2 -22.3 78.1 -22.1 89.05 -21.4 89.2 -18.45 89.2 -18 88.9 -17.5 88.8 -17.4 88.7 -17.25 88.15 -16.6 86.95 -15.85 L 86.95 -15.9 83.25 -14.4 Q 81.4 -14.05 80.65 -13.6 79.8 -13.05 80.35 -12.3 80.8 -11.55 81.1 -11.05 81.1 -11 81.15 -10.95 81.15 -10.9 81.25 -10.9 81.3 -10.9 81.35 -10.9 81.4 -10.95 81.4 -11 L 81.4 -11.05 81.4 -11.1 Q 81.05 -11.65 80.6 -12.45 80.25 -12.95 80.85 -13.3 81.5 -13.8 83.35 -14.1 L 87.05 -15.6 87.1 -15.6 Q 88.4 -16.45 89.05 -17.2 89.1 -17.3 89.2 -17.4 89.5 -17.95 89.5 -18.45 89.4 -21.6 78.35 -22.35 75.35 -22.6 71.5 -22.65 M 0.15 -3.15 L 0 -3.15 0 0.05 63.6 0.05 63.6 -3.15 0.15 -3.15 Z"/>
          <path fill="url(#Gradient_1)" stroke="none" d=" M 85.85 -10.75 L 85.7 -10.8 81.6 -2.65 81.6 0.2 81.8 0 85.85 -5.15 85.85 -10.75 Z"/>
          <path fill="#80CDC6" stroke="none" d=" M 85.85 -11.05 L 85.85 -10.75 86 -11.05 85.85 -11.05 Z"/>
          <path fill="#007A68" stroke="none" d=" M 85.85 -11.05 L 85.7 -10.8 85.85 -10.75 85.85 -11.05 Z"/>
          <path fill="url(#Gradient_2)" stroke="none" d=" M 70.85 -13.25 L 63.6 -3.15 63.6 0.05 70.85 -7.2 70.85 -13.25 Z"/>
          <path fill="url(#Gradient_3)" stroke="none" d=" M 76.25 -11.05 L 72.05 -2.65 81.6 -2.65 85.7 -10.8 85.85 -11.05 81.4 -11.05 81.4 -11 Q 81.4 -10.95 81.35 -10.9 81.3 -10.9 81.25 -10.9 81.15 -10.9 81.15 -10.95 81.1 -11 81.1 -11.05 L 76.25 -11.05 Z"/>
          <path fill="url(#Gradient_4)" stroke="none" d=" M 74.9 -26.9 L 74.9 -30.25 65.65 -20.8 65.65 -17.45 62.25 -17.45 62.25 -13.25 64.25 -13.25 71.5 -20.5 71.5 -22.35 Q 71.45 -22.35 71.4 -22.4 71.35 -22.45 71.35 -22.5 71.35 -22.55 71.4 -22.6 71.45 -22.65 71.5 -22.65 L 71.5 -23.45 74.9 -26.9 Z"/>
          <path fill="url(#Gradient_5)" stroke="none" d=" M 65.65 -24.85 L 66.8 -26.7 67.2 -27.05 63.3 -27.05 65.65 -24.85 Z"/>
          <path fill="#000000" fill-opacity="0.011764705882352941" stroke="none" d=" M 10.45 -17.45 L 16 -17.45 62.25 -17.45 65.65 -17.45 65.65 -20.8 10.6 -20.8 10.45 -20.8 10.45 -17.45 M 10.75 -27.05 L 16.7 -27.05 63.3 -27.05 67.2 -27.05 68.5 -27.05 68.5 -27.55 68.5 -70.65 10.75 -70.65 10.75 -27.05 M 59.75 -66.1 Q 64.45 -66.1 64.45 -61.2 L 64.45 -35.65 Q 64.45 -30.95 59.75 -30.9 L 19.2 -30.9 Q 15.8 -30.95 14.75 -33.2 14.3 -34.2 14.3 -35.65 L 14.3 -61.2 Q 14.3 -62.7 14.75 -63.75 15.8 -66.1 19.2 -66.1 L 59.75 -66.1 Z"/>
          <path fill="#000000" fill-opacity="0.25098039215686274" stroke="none" d=" M 16 -17.45 L 16 -13.25 62.25 -13.25 62.25 -17.45 16 -17.45 Z"/>
          <path fill="url(#Gradient_6)" stroke="none" d=" M 16 -13.25 L 7.4 -13.25 0.15 -3.15 63.6 -3.15 70.85 -13.25 64.25 -13.25 62.25 -13.25 16 -13.25 Z"/>
          <path fill="#FFFFFF" fill-opacity="0.4" stroke="none" d=" M 64.45 -61.2 Q 64.45 -66.1 59.75 -66.1 L 19.2 -66.1 Q 15.8 -66.1 14.75 -63.75 14.3 -62.7 14.3 -61.2 L 14.3 -35.65 Q 14.3 -34.2 14.75 -33.2 15.8 -30.95 19.2 -30.9 L 59.75 -30.9 Q 64.45 -30.95 64.45 -35.65 L 64.45 -61.2 Z"/>
          <path fill="#000000" fill-opacity="0.15294117647058825" stroke="none" d=" M 16.7 -27.05 L 19 -24.85 65.65 -24.85 63.3 -27.05 16.7 -27.05 Z"/>
          <path fill="url(#Gradient_7)" stroke="none" d=" M 19 -24.85 L 16.7 -27.05 10.6 -20.8 65.65 -20.8 74.9 -30.25 71.4 -30.25 68.5 -27.55 68.5 -27.05 67.2 -27.05 66.8 -26.7 65.65 -24.85 19 -24.85 Z"/>
          <path fill="url(#Gradient_8)" stroke="none" d=" M 68.5 -70.65 L 75.25 -74 25.4 -74 10.75 -70.65 68.5 -70.65 Z"/>
          <path fill="url(#Gradient_9)" stroke="none" d=" M 75.25 -74 L 68.5 -70.65 68.5 -27.55 71.4 -30.25 75.25 -33.8 75.25 -74 Z"/>
        </g>
      </g>
    </g>
    <g transform="matrix( 0.5999908447265625, 0, 0, 0.5999908447265625, 498.2,158.4) ">
      <g transform="matrix( 1, 0, 0, 1, 0,0) ">
        <g transform="matrix(1, 0, 0, 1, 0, 0)">
          <path fill="#237AA7" stroke="none" d=" M 25.4 -74 L 10.75 -70.65 10.75 -27.05 16.7 -27.05 10.6 -20.8 10.45 -20.8 10.45 -17.45 16 -17.45 16 -13.25 7.4 -13.25 0.15 -3.15 0 -3.15 0 0.05 63.6 0.05 70.85 -7.2 70.85 -13.25 64.25 -13.25 71.5 -20.5 71.5 -22.35 Q 89.05 -22.15 89.2 -18.45 89.2 -17.2 86.95 -15.85 L 86.95 -15.9 83.25 -14.4 Q 81.4 -14.05 80.65 -13.6 79.8 -13.05 80.35 -12.3 80.8 -11.55 81.1 -11.05 L 76.25 -11.05 72.05 -2.65 72.05 0.2 81.8 0.2 81.8 0 85.85 -5.15 85.85 -10.75 86 -11.05 81.4 -11.05 81.4 -11.1 Q 81.05 -11.65 80.6 -12.45 80.25 -12.95 80.85 -13.3 81.5 -13.8 83.35 -14.1 L 87.05 -15.6 87.1 -15.6 Q 89.5 -17.1 89.5 -18.45 89.35 -22.45 71.5 -22.65 L 71.5 -23.45 74.9 -26.9 74.9 -30.25 71.4 -30.25 75.25 -33.8 75.25 -74 25.4 -74 Z"/>
        </g>
      </g>
      <g transform="matrix( 1, 0, 0, 1, 0,0) ">
        <g transform="matrix(1, 0, 0, 1, 0, 0)">
          <path fill="#57BDB4" stroke="none" d=" M 81.8 0 L 81.6 0.2 81.8 0.2 81.8 0 Z"/>
          <path fill="#000000" fill-opacity="0.08235294117647059" stroke="none" d=" M 81.6 -2.65 L 72.05 -2.65 72.05 0.2 81.6 0.2 81.6 -2.65 M 71.5 -22.65 Q 71.45 -22.65 71.4 -22.6 71.35 -22.55 71.35 -22.5 71.35 -22.45 71.4 -22.4 71.45 -22.35 71.5 -22.35 75.2 -22.3 78.1 -22.1 89.05 -21.4 89.2 -18.45 89.2 -18 88.9 -17.5 88.8 -17.4 88.7 -17.25 88.15 -16.6 86.95 -15.85 L 86.95 -15.9 83.25 -14.4 Q 81.4 -14.05 80.65 -13.6 79.8 -13.05 80.35 -12.3 80.8 -11.55 81.1 -11.05 81.1 -11 81.15 -10.95 81.15 -10.9 81.25 -10.9 81.3 -10.9 81.35 -10.9 81.4 -10.95 81.4 -11 L 81.4 -11.05 81.4 -11.1 Q 81.05 -11.65 80.6 -12.45 80.25 -12.95 80.85 -13.3 81.5 -13.8 83.35 -14.1 L 87.05 -15.6 87.1 -15.6 Q 88.4 -16.45 89.05 -17.2 89.1 -17.3 89.2 -17.4 89.5 -17.95 89.5 -18.45 89.4 -21.6 78.35 -22.35 75.35 -22.6 71.5 -22.65 M 0.15 -3.15 L 0 -3.15 0 0.05 63.6 0.05 63.6 -3.15 0.15 -3.15 Z"/>
          <path fill="url(#Gradient_1)" stroke="none" d=" M 85.85 -10.75 L 85.7 -10.8 81.6 -2.65 81.6 0.2 81.8 0 85.85 -5.15 85.85 -10.75 Z"/>
          <path fill="#80CDC6" stroke="none" d=" M 85.85 -11.05 L 85.85 -10.75 86 -11.05 85.85 -11.05 Z"/>
          <path fill="#007A68" stroke="none" d=" M 85.85 -11.05 L 85.7 -10.8 85.85 -10.75 85.85 -11.05 Z"/>
          <path fill="url(#Gradient_2)" stroke="none" d=" M 70.85 -13.25 L 63.6 -3.15 63.6 0.05 70.85 -7.2 70.85 -13.25 Z"/>
          <path fill="url(#Gradient_3)" stroke="none" d=" M 76.25 -11.05 L 72.05 -2.65 81.6 -2.65 85.7 -10.8 85.85 -11.05 81.4 -11.05 81.4 -11 Q 81.4 -10.95 81.35 -10.9 81.3 -10.9 81.25 -10.9 81.15 -10.9 81.15 -10.95 81.1 -11 81.1 -11.05 L 76.25 -11.05 Z"/>
          <path fill="url(#Gradient_4)" stroke="none" d=" M 74.9 -26.9 L 74.9 -30.25 65.65 -20.8 65.65 -17.45 62.25 -17.45 62.25 -13.25 64.25 -13.25 71.5 -20.5 71.5 -22.35 Q 71.45 -22.35 71.4 -22.4 71.35 -22.45 71.35 -22.5 71.35 -22.55 71.4 -22.6 71.45 -22.65 71.5 -22.65 L 71.5 -23.45 74.9 -26.9 Z"/>
          <path fill="url(#Gradient_5)" stroke="none" d=" M 65.65 -24.85 L 66.8 -26.7 67.2 -27.05 63.3 -27.05 65.65 -24.85 Z"/>
          <path fill="#000000" fill-opacity="0.011764705882352941" stroke="none" d=" M 10.45 -17.45 L 16 -17.45 62.25 -17.45 65.65 -17.45 65.65 -20.8 10.6 -20.8 10.45 -20.8 10.45 -17.45 M 10.75 -27.05 L 16.7 -27.05 63.3 -27.05 67.2 -27.05 68.5 -27.05 68.5 -27.55 68.5 -70.65 10.75 -70.65 10.75 -27.05 M 59.75 -66.1 Q 64.45 -66.1 64.45 -61.2 L 64.45 -35.65 Q 64.45 -30.95 59.75 -30.9 L 19.2 -30.9 Q 15.8 -30.95 14.75 -33.2 14.3 -34.2 14.3 -35.65 L 14.3 -61.2 Q 14.3 -62.7 14.75 -63.75 15.8 -66.1 19.2 -66.1 L 59.75 -66.1 Z"/>
          <path fill="#000000" fill-opacity="0.25098039215686274" stroke="none" d=" M 16 -17.45 L 16 -13.25 62.25 -13.25 62.25 -17.45 16 -17.45 Z"/>
          <path fill="url(#Gradient_6)" stroke="none" d=" M 16 -13.25 L 7.4 -13.25 0.15 -3.15 63.6 -3.15 70.85 -13.25 64.25 -13.25 62.25 -13.25 16 -13.25 Z"/>
          <path fill="#FFFFFF" fill-opacity="0.4" stroke="none" d=" M 64.45 -61.2 Q 64.45 -66.1 59.75 -66.1 L 19.2 -66.1 Q 15.8 -66.1 14.75 -63.75 14.3 -62.7 14.3 -61.2 L 14.3 -35.65 Q 14.3 -34.2 14.75 -33.2 15.8 -30.95 19.2 -30.9 L 59.75 -30.9 Q 64.45 -30.95 64.45 -35.65 L 64.45 -61.2 Z"/>
          <path fill="#000000" fill-opacity="0.15294117647058825" stroke="none" d=" M 16.7 -27.05 L 19 -24.85 65.65 -24.85 63.3 -27.05 16.7 -27.05 Z"/>
          <path fill="url(#Gradient_7)" stroke="none" d=" M 19 -24.85 L 16.7 -27.05 10.6 -20.8 65.65 -20.8 74.9 -30.25 71.4 -30.25 68.5 -27.55 68.5 -27.05 67.2 -27.05 66.8 -26.7 65.65 -24.85 19 -24.85 Z"/>
          <path fill="url(#Gradient_8)" stroke="none" d=" M 68.5 -70.65 L 75.25 -74 25.4 -74 10.75 -70.65 68.5 -70.65 Z"/>
          <path fill="url(#Gradient_9)" stroke="none" d=" M 75.25 -74 L 68.5 -70.65 68.5 -27.55 71.4 -30.25 75.25 -33.8 75.25 -74 Z"/>
        </g>
      </g>
    </g>
    <g transform="matrix( 0.6999969482421875, 0, 0, 0.6999969482421875, 109.3,157.5) ">
      <g transform="matrix( 0.6999969482421875, 0, 0, 0.6999969482421875, 0,0) ">
        <g transform="matrix( 1, 0, 0, 1, 0,0) ">
          <g transform="matrix(1, 0, 0, 1, 0, 0)">
            <path fill="#237AA7" stroke="none" d=" M 2.1 -9.2 L 0 -7.6 0 0 97.25 0 115.8 -19 115.8 -26.25 113.65 -26.25 115.75 -28.3 115.8 -64 23.55 -64 0 -45.4 0 -9.2 2.1 -9.2 Z"/>
          </g>
        </g>
        <g transform="matrix( 1, 0, 0, 1, 0,0) ">
          <g transform="matrix(1, 0, 0, 1, 0, 0)">
            <path fill="#000000" fill-opacity="0.011764705882352941" stroke="none" d=" M 97.25 -7.6 L 0 -7.6 0 0 97.25 0 97.25 -7.6 M 0 -7.6 L 2.1 -9.2 97.25 -9.2 97.25 -45.4 0 -45.4 0 -7.6 Z"/>
            <path fill="url(#Gradient_10)" stroke="none" d=" M 103.05 -5.9 L 103.05 -6 115.8 -19 115.8 -21.4 115.75 -21.35 115.8 -26.25 97.25 -7.6 97.25 0 103.05 -5.9 M 113.85 -26.4 L 115.75 -28.3 115.8 -64 97.25 -45.4 97.25 -9.2 97.3 -9.2 113.7 -26.25 113.65 -26.25 113.85 -26.4 Z"/>
            <path fill="url(#Gradient_11)" stroke="none" d=" M 23.55 -64 L 0 -45.4 97.25 -45.4 115.8 -64 23.55 -64 Z"/>
            <path fill="url(#Gradient_12)" stroke="none" d=" M 2.1 -9.2 L 0 -7.6 97.25 -7.6 115.8 -26.25 113.7 -26.25 97.3 -9.2 97.25 -9.2 2.1 -9.2 Z"/>
          </g>
        </g>
      </g>
      <g transform="matrix( 1, 0, 0, 1, 0,0) ">
        <g transform="matrix(1, 0, 0, 1, 0, 0)">
          <path fill="#237AA7" stroke="none" d=" M 67.95 -20.9 L 67.95 -18.15 93.8 -25.85 106.15 -38.4 106.15 -41.15 80.75 -33.55 67.95 -20.9 Z"/>
        </g>
      </g>
      <g transform="matrix( 1, 0, 0, 1, 0,0) ">
        <g transform="matrix(1, 0, 0, 1, 0, 0)">
          <path fill="url(#Gradient_13)" stroke="none" d=" M 106.15 -38.4 L 106.15 -41.15 93.8 -28.6 93.8 -25.85 106.15 -38.4 Z"/>
          <path fill="#000000" fill-opacity="0.011764705882352941" stroke="none" d=" M 67.95 -20.9 L 67.95 -18.15 93.8 -25.85 93.8 -28.6 67.95 -20.9 Z"/>
          <path fill="url(#Gradient_14)" stroke="none" d=" M 80.75 -33.55 L 67.95 -20.9 93.8 -28.6 106.15 -41.15 80.75 -33.55 Z"/>
        </g>
      </g>
    </g>
    <g transform="matrix( 0.865447998046875, 0, 0, 1, 290,168) "/>
    <g transform="matrix( 0.865447998046875, 0, 0, 1, 476,168) "/>
    <g transform="matrix( 0.119293212890625, -0.001556396484375, 0.0098876953125, 0.75335693359375, 504.15,7.05) ">
      <g filter="url(#Filter_1)" transform="matrix( 8.381271362304688, 0.017303466796875, -0.1100006103515625, 1.3271636962890625, -3397.6,16.8) ">
        <g transform="matrix( 0.119293212890625, -0.001556396484375, 0.0098876953125, 0.75335693359375, 421.4,84.65) ">
          <g transform="matrix( 1, 0, 0, 1, 0,0) ">
            <g transform="matrix(1, 0, 0, 1, 0, 0)">
              <path fill="#FFFFFF" stroke="none" d=" M 28.95 -29.25 L 39.55 -42.7 -26.95 -39.2 -26.8 -23.7 -4.65 -23.85 -4.7 3.15 81.8 -22.45 28.95 -29.25 Z"/>
            </g>
          </g>
        </g>
      </g>
    </g>
    <g filter="url(#Filter_2)" transform="matrix( 1, 0, 0, 1, 99,25) ">
      <g transform="matrix( 0.930572509765625, 0, 0, 1.711761474609375, 369.85,39.45) "/>
    </g>
    <g transform="matrix( -0.119293212890625, -0.001556396484375, -0.0098876953125, 0.75335693359375, 364.7,7.05) ">
      <g filter="url(#Filter_1)" transform="matrix( -8.381271362304688, -0.017303466796875, -0.1100006103515625, 1.3271636962890625, 2224.9,28.4) ">
        <g transform="matrix( -0.119293212890625, -0.001556396484375, -0.0098876953125, 0.75335693359375, 249.4,84.65) ">
          <g transform="matrix( 1, 0, 0, 1, 0,0) ">
            <g transform="matrix(1, 0, 0, 1, 0, 0)">
              <path fill="#FFFFFF" stroke="none" d=" M 28.95 -29.25 L 39.55 -42.7 -26.95 -39.2 -26.8 -23.7 -4.65 -23.85 -4.7 3.15 81.8 -22.45 28.95 -29.25 Z"/>
            </g>
          </g>
        </g>
      </g>
    </g>
    <g filter="url(#Filter_2)" transform="matrix( 1, 0, 0, 1, 99,25) ">
      <g transform="matrix( 0.930572509765625, 0, 0, 1.711761474609375, 190.75,36.75) "/>
    </g>
  </g>
  <rect x="189.601" y="44.89" width="99.54" height="41.545" style="fill: rgb(216, 216, 216); stroke: rgb(0, 0, 0);"/>
  <text style="white-space: pre; fill: rgb(51, 51, 51); font-family: Arial, sans-serif; font-size: 7.8px; text-anchor: middle;" x="164.507" y="13.662" transform="matrix(1, 0, 0, 1, 74.95565, 51.582596)">У меня есть принтер <tspan x="164.5070037841797" dy="1em">​</tspan>для совместного доступа</text>
  <rect x="372.371" y="45.278" width="99.54" height="41.545" style="fill: rgb(216, 216, 216); stroke: rgb(0, 0, 0);"/>
  <text style="white-space: pre; fill: rgb(51, 51, 51); font-family: Arial, sans-serif; font-size: 7.8px; text-anchor: middle;" x="164.507" y="13.662" transform="matrix(1, 0, 0, 1, 257.773193, 52.810287)">У меня есть файлы для<tspan x="164.5070037841797" dy="1em">​</tspan>совместного доступа</text>
  <text style="white-space: pre; fill: rgb(51, 51, 51); font-family: Arial, sans-serif; font-size: 7.8px;" x="182.072" y="152.207">Совместный доступ к принтеру</text>
  <text style="white-space: pre; fill: rgb(51, 51, 51); font-family: Arial, sans-serif; font-size: 7.8px;" x="359.405" y="153.208">Совместный доступ к файлам</text>
</svg>