<?xml version="1.0" encoding="utf-8"?>
<svg version="1.1" preserveAspectRatio="none" x="0px" y="0px" width="800px" height="364px" viewBox="0 0 550 250" xmlns="http://www.w3.org/2000/svg">
  <defs>
    <linearGradient id="Gradient_1" gradientUnits="userSpaceOnUse" x1="81.575" y1="-5.3" x2="85.825" y2="-5.3" spreadMethod="pad">
      <stop offset="0" stop-color="#000000" stop-opacity="0.15294117647058825"/>
      <stop offset="1" stop-color="#000000" stop-opacity="0.35294117647058826"/>
    </linearGradient>
    <linearGradient id="Gradient_2" gradientUnits="userSpaceOnUse" x1="63.575" y1="-6.6" x2="70.825" y2="-6.6" spreadMethod="pad">
      <stop offset="0" stop-color="#000000" stop-opacity="0.15294117647058825"/>
      <stop offset="1" stop-color="#000000" stop-opacity="0.35294117647058826"/>
    </linearGradient>
    <linearGradient id="Gradient_3" gradientUnits="userSpaceOnUse" x1="78.95" y1="-2.6499999999999995" x2="78.95" y2="-11.05" spreadMethod="pad">
      <stop offset="0" stop-color="#FFFFFF" stop-opacity="0.25098039215686274"/>
      <stop offset="1" stop-color="#000000" stop-opacity="0.15294117647058825"/>
    </linearGradient>
    <linearGradient id="Gradient_4" gradientUnits="userSpaceOnUse" x1="62.224999999999994" y1="-21.75" x2="74.875" y2="-21.75" spreadMethod="pad">
      <stop offset="0" stop-color="#000000" stop-opacity="0.15294117647058825"/>
      <stop offset="1" stop-color="#000000" stop-opacity="0.35294117647058826"/>
    </linearGradient>
    <linearGradient id="Gradient_5" gradientUnits="userSpaceOnUse" x1="63.3" y1="-25.95" x2="67.2" y2="-25.95" spreadMethod="pad">
      <stop offset="0" stop-color="#000000" stop-opacity="0.15294117647058825"/>
      <stop offset="1" stop-color="#000000" stop-opacity="0.35294117647058826"/>
    </linearGradient>
    <linearGradient id="Gradient_6" gradientUnits="userSpaceOnUse" x1="35.5" y1="-3.1499999999999986" x2="35.5" y2="-13.25" spreadMethod="pad">
      <stop offset="0" stop-color="#FFFFFF" stop-opacity="0.25098039215686274"/>
      <stop offset="1" stop-color="#000000" stop-opacity="0.10196078431372549"/>
    </linearGradient>
    <linearGradient id="Gradient_7" gradientUnits="userSpaceOnUse" x1="42.75" y1="-20.775" x2="42.75" y2="-30.225" spreadMethod="pad">
      <stop offset="0" stop-color="#FFFFFF" stop-opacity="0.25098039215686274"/>
      <stop offset="1" stop-color="#000000" stop-opacity="0.15294117647058825"/>
    </linearGradient>
    <linearGradient id="Gradient_8" gradientUnits="userSpaceOnUse" x1="43" y1="-70.625" x2="43" y2="-73.975" spreadMethod="pad">
      <stop offset="0" stop-color="#FFFFFF" stop-opacity="0.25098039215686274"/>
      <stop offset="1" stop-color="#000000" stop-opacity="0.15294117647058825"/>
    </linearGradient>
    <linearGradient id="Gradient_9" gradientUnits="userSpaceOnUse" x1="68.475" y1="-50.8" x2="75.225" y2="-50.8" spreadMethod="pad">
      <stop offset="0" stop-color="#000000" stop-opacity="0.15294117647058825"/>
      <stop offset="1" stop-color="#000000" stop-opacity="0.35294117647058826"/>
    </linearGradient>
    <linearGradient id="Gradient_10" gradientUnits="userSpaceOnUse" x1="53" y1="-32.25" x2="63.5" y2="-32.25" spreadMethod="pad">
      <stop offset="0" stop-color="#000000" stop-opacity="0.15294117647058825"/>
      <stop offset="1" stop-color="#000000" stop-opacity="0.35294117647058826"/>
    </linearGradient>
    <linearGradient id="Gradient_11" gradientUnits="userSpaceOnUse" x1="15" y1="-5.4" x2="15" y2="-16.9" spreadMethod="pad">
      <stop offset="0" stop-color="#FFFFFF" stop-opacity="0.25098039215686274"/>
      <stop offset="1" stop-color="#000000" stop-opacity="0.15294117647058825"/>
    </linearGradient>
    <linearGradient id="Gradient_12" gradientUnits="userSpaceOnUse" x1="15" y1="-53" x2="15" y2="-64.5" spreadMethod="pad">
      <stop offset="0" stop-color="#FFFFFF" stop-opacity="0.25098039215686274"/>
      <stop offset="1" stop-color="#000000" stop-opacity="0.15294117647058825"/>
    </linearGradient>
    <linearGradient id="Gradient_13" gradientUnits="userSpaceOnUse" x1="15" y1="-83" x2="15" y2="-94.5" spreadMethod="pad">
      <stop offset="0" stop-color="#FFFFFF" stop-opacity="0.25098039215686274"/>
      <stop offset="1" stop-color="#000000" stop-opacity="0.15294117647058825"/>
    </linearGradient>
    <linearGradient id="Gradient_14" gradientUnits="userSpaceOnUse" x1="53" y1="-70.75" x2="63.5" y2="-70.75" spreadMethod="pad">
      <stop offset="0" stop-color="#000000" stop-opacity="0.15294117647058825"/>
      <stop offset="1" stop-color="#000000" stop-opacity="0.35294117647058826"/>
    </linearGradient>
    <linearGradient id="Gradient_15" gradientUnits="userSpaceOnUse" x1="-84.525" y1="-4.25" x2="84.525" y2="-4.25" spreadMethod="pad">
      <stop offset="0" stop-color="#FFFFFF" stop-opacity="0"/>
      <stop offset="0.4706" stop-color="#FFFFFF" stop-opacity="0.7019607843137254"/>
      <stop offset="1" stop-color="#FFFFFF" stop-opacity="0"/>
    </linearGradient>
    <g id="FL_01_topology_icons_uidbzacejsu_01_topology_icons_computer_0_Layer1_0_FILL">
      <path fill="#237AA7" stroke="none" d=" M 25.4 -74 L 10.75 -70.65 10.75 -27.05 16.7 -27.05 10.6 -20.8 10.45 -20.8 10.45 -17.45 16 -17.45 16 -13.25 7.4 -13.25 0.15 -3.15 0 -3.15 0 0.05 63.6 0.05 70.85 -7.2 70.85 -13.25 64.25 -13.25 71.5 -20.5 71.5 -22.35 Q 89.05 -22.15 89.2 -18.45 89.2 -17.2 86.95 -15.85 L 86.95 -15.9 83.25 -14.4 Q 81.4 -14.05 80.65 -13.6 79.8 -13.05 80.35 -12.3 80.8 -11.55 81.1 -11.05 L 76.25 -11.05 72.05 -2.65 72.05 0.2 81.8 0.2 81.8 0 85.85 -5.15 85.85 -10.75 86 -11.05 81.4 -11.05 81.4 -11.1 Q 81.05 -11.65 80.6 -12.45 80.25 -12.95 80.85 -13.3 81.5 -13.8 83.35 -14.1 L 87.05 -15.6 87.1 -15.6 Q 89.5 -17.1 89.5 -18.45 89.35 -22.45 71.5 -22.65 L 71.5 -23.45 74.9 -26.9 74.9 -30.25 71.4 -30.25 75.25 -33.8 75.25 -74 25.4 -74 Z"/>
    </g>
    <g id="FL_01_topology_icons_uidbzacejsu_01_topology_icons_computer_0_Layer0_0_FILL">
      <path fill="#57BDB4" stroke="none" d=" M 81.6 0.2 L 81.8 0.2 81.8 0 81.6 0.2 Z"/>
      <path fill="#000000" fill-opacity="0.08235294117647059" stroke="none" d=" M 81.6 -2.65 L 72.05 -2.65 72.05 0.2 81.6 0.2 81.6 -2.65 M 71.4 -22.4 Q 71.45 -22.35 71.5 -22.35 75.2 -22.3 78.1 -22.1 89.05 -21.4 89.2 -18.45 89.2 -18 88.9 -17.5 88.8 -17.4 88.7 -17.25 88.15 -16.6 86.95 -15.85 L 86.95 -15.9 83.25 -14.4 Q 81.4 -14.05 80.65 -13.6 79.8 -13.05 80.35 -12.3 80.8 -11.55 81.1 -11.05 81.1 -11 81.15 -10.95 81.15 -10.9 81.25 -10.9 81.3 -10.9 81.35 -10.9 81.4 -10.95 81.4 -11 L 81.4 -11.05 81.4 -11.1 Q 81.05 -11.65 80.6 -12.45 80.25 -12.95 80.85 -13.3 81.5 -13.8 83.35 -14.1 L 87.05 -15.6 87.1 -15.6 Q 88.4 -16.45 89.05 -17.2 89.1 -17.3 89.2 -17.4 89.5 -17.95 89.5 -18.45 89.4 -21.6 78.35 -22.35 75.35 -22.6 71.5 -22.65 71.45 -22.65 71.4 -22.6 71.35 -22.55 71.35 -22.5 71.35 -22.45 71.4 -22.4 M 0.15 -3.15 L 0 -3.15 0 0.05 63.6 0.05 63.6 -3.15 0.15 -3.15 Z"/>
      <path fill="url(#Gradient_1)" stroke="none" d=" M 85.85 -10.75 L 85.7 -10.8 81.6 -2.65 81.6 0.2 81.8 0 85.85 -5.15 85.85 -10.75 Z"/>
      <path fill="#007A68" stroke="none" d=" M 85.85 -10.75 L 85.85 -11.05 85.7 -10.8 85.85 -10.75 Z"/>
      <path fill="#80CDC6" stroke="none" d=" M 85.85 -10.75 L 86 -11.05 85.85 -11.05 85.85 -10.75 Z"/>
      <path fill="url(#Gradient_2)" stroke="none" d=" M 70.85 -7.2 L 70.85 -13.25 63.6 -3.15 63.6 0.05 70.85 -7.2 Z"/>
      <path fill="url(#Gradient_3)" stroke="none" d=" M 76.25 -11.05 L 72.05 -2.65 81.6 -2.65 85.7 -10.8 85.85 -11.05 81.4 -11.05 81.4 -11 Q 81.4 -10.95 81.35 -10.9 81.3 -10.9 81.25 -10.9 81.15 -10.9 81.15 -10.95 81.1 -11 81.1 -11.05 L 76.25 -11.05 Z"/>
      <path fill="url(#Gradient_4)" stroke="none" d=" M 74.9 -26.9 L 74.9 -30.25 65.65 -20.8 65.65 -17.45 62.25 -17.45 62.25 -13.25 64.25 -13.25 71.5 -20.5 71.5 -22.35 Q 71.45 -22.35 71.4 -22.4 71.35 -22.45 71.35 -22.5 71.35 -22.55 71.4 -22.6 71.45 -22.65 71.5 -22.65 L 71.5 -23.45 74.9 -26.9 Z"/>
      <path fill="url(#Gradient_5)" stroke="none" d=" M 63.3 -27.05 L 65.65 -24.85 66.8 -26.7 67.2 -27.05 63.3 -27.05 Z"/>
      <path fill="#000000" fill-opacity="0.011764705882352941" stroke="none" d=" M 10.6 -20.8 L 10.45 -20.8 10.45 -17.45 16 -17.45 62.25 -17.45 65.65 -17.45 65.65 -20.8 10.6 -20.8 M 10.75 -27.05 L 16.7 -27.05 63.3 -27.05 67.2 -27.05 68.5 -27.05 68.5 -27.55 68.5 -70.65 10.75 -70.65 10.75 -27.05 M 59.75 -66.1 Q 64.45 -66.1 64.45 -61.2 L 64.45 -35.65 Q 64.45 -30.95 59.75 -30.9 L 19.2 -30.9 Q 15.8 -30.95 14.75 -33.2 14.3 -34.2 14.3 -35.65 L 14.3 -61.2 Q 14.3 -62.7 14.75 -63.75 15.8 -66.1 19.2 -66.1 L 59.75 -66.1 Z"/>
      <path fill="#000000" fill-opacity="0.25098039215686274" stroke="none" d=" M 16 -17.45 L 16 -13.25 62.25 -13.25 62.25 -17.45 16 -17.45 Z"/>
      <path fill="url(#Gradient_6)" stroke="none" d=" M 16 -13.25 L 7.4 -13.25 0.15 -3.15 63.6 -3.15 70.85 -13.25 64.25 -13.25 62.25 -13.25 16 -13.25 Z"/>
      <path fill="#000000" fill-opacity="0.15294117647058825" stroke="none" d=" M 16.7 -27.05 L 19 -24.85 65.65 -24.85 63.3 -27.05 16.7 -27.05 Z"/>
      <path fill="url(#Gradient_7)" stroke="none" d=" M 19 -24.85 L 16.7 -27.05 10.6 -20.8 65.65 -20.8 74.9 -30.25 71.4 -30.25 68.5 -27.55 68.5 -27.05 67.2 -27.05 66.8 -26.7 65.65 -24.85 19 -24.85 Z"/>
      <path fill="#FFFFFF" fill-opacity="0.4" stroke="none" d=" M 64.45 -61.2 Q 64.45 -66.1 59.75 -66.1 L 19.2 -66.1 Q 15.8 -66.1 14.75 -63.75 14.3 -62.7 14.3 -61.2 L 14.3 -35.65 Q 14.3 -34.2 14.75 -33.2 15.8 -30.95 19.2 -30.9 L 59.75 -30.9 Q 64.45 -30.95 64.45 -35.65 L 64.45 -61.2 Z"/>
      <path fill="url(#Gradient_8)" stroke="none" d=" M 68.5 -70.65 L 75.25 -74 25.4 -74 10.75 -70.65 68.5 -70.65 Z"/>
      <path fill="url(#Gradient_9)" stroke="none" d=" M 75.25 -74 L 68.5 -70.65 68.5 -27.55 71.4 -30.25 75.25 -33.8 75.25 -74 Z"/>
    </g>
    <g id="FL_05_shapes_uidrcivcb6u_05_shapes_z_box_square_tall_two_0_Layer1_0_FILL">
      <path fill="#237AA7" stroke="none" d=" M 63.5 -66.1 L 63.5 -89.35 15 -89.35 0 -83 0 -54.6 2.1 -54.6 0 -53 0 -7 2.1 -7 0 -5.4 0 0 53 0 63.5 -13.15 63.5 -17.9 62.05 -17.9 63.5 -19.4 63.5 -64.5 62.05 -64.5 63.5 -66.1 Z"/>
    </g>
    <g id="FL_05_shapes_uidrcivcb6u_05_shapes_z_box_square_tall_two_0_Layer0_0_FILL">
      <path fill="#000000" fill-opacity="0.011764705882352941" stroke="none" d=" M 53 -5.4 L 0 -5.4 0 0 53 0 53 -5.4 M 0 -5.4 L 2.1 -7 53 -7 53 -53 0 -53 0 -5.4 M 53 -54.6 L 53 -83 0 -83 0 -54.6 2.1 -54.6 53 -54.6 Z"/>
      <path fill="url(#Gradient_10)" stroke="none" d=" M 63.5 -13.15 L 63.5 -17.9 53 -5.4 53 0 63.5 -13.15 M 63.5 -64.5 L 53 -53 53 -7 63.45 -19.35 63.5 -17.9 63.5 -64.5 Z"/>
      <path fill="url(#Gradient_11)" stroke="none" d=" M 2.1 -7 L 0 -5.4 53 -5.4 63.5 -17.9 63.45 -19.35 53 -7 2.1 -7 Z"/>
      <path fill="url(#Gradient_12)" stroke="none" d=" M 53 -53 L 63.5 -64.5 62.05 -64.5 53 -54.6 2.1 -54.6 0 -53 53 -53 Z"/>
      <path fill="url(#Gradient_13)" stroke="none" d=" M 53 -83 L 63.5 -89.35 15 -89.35 0 -83 53 -83 Z"/>
      <path fill="url(#Gradient_14)" stroke="none" d=" M 63.5 -66.1 L 63.5 -89.35 53 -83 53 -54.6 62.05 -64.5 63.5 -66.1 Z"/>
    </g>
    <g id="FL_01_topology_icons_uid3apb6fl0_01_topology_icons_Server_file_0_Layer0_0_FILL">
      <path fill="#FFFFFF" stroke="none" d=" M 6 -72.8 L 6 -70.5 21.65 -70.5 21.65 -72.8 6 -72.8 Z"/>
      <path fill="#000000" fill-opacity="0.5019607843137255" stroke="none" d=" M 4 -68.5 L 2.5 -67 25.15 -67 23.65 -68.5 4 -68.5 Z"/>
      <path fill="#FFFFFF" fill-opacity="0.25098039215686274" stroke="none" d=" M 4 -74.8 L 2.5 -76.3 2.5 -67 4 -68.5 4 -74.8 Z"/>
      <path fill="#FFFFFF" fill-opacity="0.5019607843137255" stroke="none" d=" M 23.65 -74.8 L 25.15 -76.3 2.5 -76.3 4 -74.8 23.65 -74.8 Z"/>
      <path fill="#000000" fill-opacity="0.25098039215686274" stroke="none" d=" M 25.15 -76.3 L 23.65 -74.8 23.65 -68.5 25.15 -67 25.15 -76.3 Z"/>
    </g>
    <g id="FL_01_topology_icons_uidm7l5qn4f_01_topology_icons_Cloud_0_Layer2_0_FILL">
      <path fill="#237AA7" stroke="none" d=" M 39.95 -38.75 Q 35.9 -42.8 30.4 -43.45 28.95 -45.65 26.95 -47.65 19.25 -55.35 8.3 -55.35 -2.65 -55.35 -10.4 -47.65 -13.15 -44.9 -14.9 -41.7 -21.7 -47.45 -30.8 -47.45 -41.1 -47.45 -48.4 -40.15 -52.9 -35.65 -54.6 -30 -66.75 -29.65 -75.45 -21 -80.5 -15.9 -82.75 -9.6 -83.35 -7.95 -83.75 -6.15 -84.5 -2.75 -84.5 0.95 -84.5 4.65 -83.75 8.05 -83.35 9.8 -82.75 11.5 -80.5 17.8 -75.45 22.85 -68.35 29.95 -58.9 31.55 -56.9 35 -53.9 38 -45.05 46.85 -32.55 46.85 -23.75 46.85 -16.8 42.5 -16.55 42.8 -16.2 43.15 -14.25 45.1 -11.55 45.1 -8.85 45.1 -6.95 43.15 -6.8 43 -6.6 42.85 -3.85 44.85 -0.2 44.85 4.4 44.85 7.65 41.6 9.45 39.8 10.25 37.6 19.9 46.85 33.45 46.85 47.4 46.85 57.25 37 60.65 33.6 62.9 29.7 63.85 29.8 64.9 29.8 72.15 29.8 77.25 24.7 82.35 19.6 82.35 12.35 82.35 9.8 81.75 7.55 84.55 2.45 84.55 -3.85 84.55 -13.65 77.65 -20.55 70.75 -27.45 60.95 -27.45 56.6 -27.45 52.8 -26.05 52.35 -26.55 51.85 -27.05 48 -30.9 43.55 -33.45 42.35 -36.35 39.95 -38.75 Z"/>
    </g>
    <g id="FL_01_topology_icons_uidm7l5qn4f_01_topology_icons_Cloud_0_Layer1_0_FILL">
      <path fill="url(#Gradient_15)" stroke="none" d=" M 39.95 -38.75 Q 35.9 -42.8 30.4 -43.45 28.95 -45.65 26.95 -47.65 19.25 -55.35 8.3 -55.35 -2.65 -55.35 -10.4 -47.65 -13.15 -44.9 -14.9 -41.7 -21.7 -47.45 -30.8 -47.45 -41.1 -47.45 -48.4 -40.15 -52.9 -35.65 -54.6 -30 -66.75 -29.65 -75.45 -21 -80.5 -15.9 -82.75 -9.6 -83.35 -7.95 -83.75 -6.15 -84.5 -2.75 -84.5 0.95 -84.5 4.65 -83.75 8.05 -83.35 9.8 -82.75 11.5 -80.5 17.8 -75.45 22.85 -68.35 29.95 -58.9 31.55 -56.9 35 -53.9 38 -45.05 46.85 -32.55 46.85 -23.75 46.85 -16.8 42.5 -16.55 42.8 -16.2 43.15 -14.25 45.1 -11.55 45.1 -8.85 45.1 -6.95 43.15 -6.8 43 -6.6 42.85 -3.85 44.85 -0.2 44.85 4.4 44.85 7.65 41.6 9.45 39.8 10.25 37.6 19.9 46.85 33.45 46.85 47.4 46.85 57.25 37 60.65 33.6 62.9 29.7 63.85 29.8 64.9 29.8 72.15 29.8 77.25 24.7 82.35 19.6 82.35 12.35 82.35 9.8 81.75 7.55 84.55 2.45 84.55 -3.85 84.55 -13.65 77.65 -20.55 70.75 -27.45 60.95 -27.45 56.6 -27.45 52.8 -26.05 52.35 -26.55 51.85 -27.05 48 -30.9 43.55 -33.45 42.35 -36.35 39.95 -38.75 Z"/>
    </g>
    <g id="FL_01_topology_icons_uidm7l5qn4f_01_topology_icons_Cloud_0_Layer0_0_FILL">
      <path fill="#FFFFFF" stroke="none" d=" M 26.25 -40.7 Q 25.05 -42.5 23.45 -44.1 17.2 -50.35 8.3 -50.35 -0.55 -50.35 -6.85 -44.1 -9.1 -41.85 -10.5 -39.3 -11.25 -38 -12.6 -37.25 -14 -36.6 -15.45 -36.75 -16.95 -36.9 -18.1 -37.9 -23.55 -42.45 -30.8 -42.45 -39.05 -42.45 -44.85 -36.6 -48.45 -33.05 -49.85 -28.55 -50.3 -27 -51.6 -26.05 -52.85 -25.05 -54.45 -25 -64.6 -24.7 -71.9 -17.45 -79.5 -9.8 -79.5 0.95 -79.5 11.75 -71.9 19.35 -65.95 25.3 -58.1 26.6 -57 26.8 -56.05 27.45 -55.1 28.05 -54.55 29.05 -52.9 31.95 -50.35 34.5 -43 41.85 -32.55 41.85 -25.25 41.9 -19.45 38.25 -17.85 37.2 -15.95 37.55 -14.05 37.9 -12.85 39.4 -12.8 39.5 -12.65 39.65 -12.2 40.1 -11.55 40.1 -10.95 40.1 -10.5 39.65 -10.5 39.6 -10.45 39.6 -10.3 39.45 -10.2 39.35 -8.9 38 -7.05 37.85 -5.2 37.7 -3.65 38.8 -2.15 39.85 -0.2 39.85 2.35 39.85 4.15 38.1 5.1 37.1 5.55 35.9 6.15 34.3 7.6 33.4 9.05 32.45 10.75 32.65 12.45 32.8 13.7 34 21.95 41.85 33.45 41.85 45.35 41.85 53.75 33.5 56.65 30.55 58.55 27.25 59.25 25.95 60.6 25.25 61.9 24.55 63.4 24.75 64.1 24.8 64.9 24.8 70.1 24.8 73.75 21.2 77.35 17.55 77.35 12.35 77.35 10.5 76.9 8.85 76.35 6.9 77.35 5.1 79.55 1.1 79.55 -3.85 79.55 -11.6 74.15 -17 68.7 -22.45 60.95 -22.45 57.5 -22.45 54.5 -21.35 53.1 -20.85 51.65 -21.2 50.2 -21.55 49.2 -22.6 48.75 -23.1 48.35 -23.5 44.95 -26.9 41.1 -29.1 39.6 -29.95 38.95 -31.5 38.1 -33.55 36.45 -35.2 33.6 -38.05 29.8 -38.5 28.7 -38.65 27.8 -39.2 26.85 -39.8 26.25 -40.7 Z"/>
    </g>
    <path id="Layer2_0_1_STROKES" stroke="#000000" stroke-width="2" stroke-linejoin="round" stroke-linecap="round" fill="none" d=" M 86.05 140.55 L 462 140.55"/>
  </defs>
  <g transform="matrix( 1, 0, 0, 1, 0,0) ">
    <path stroke="#000000" stroke-width="2" stroke-linejoin="round" stroke-linecap="round" fill="none" d=" M 86.05 140.55 L 462 140.55" transform="matrix(1, 0, 0, 1, 0, 0)"/>
  </g>
  <g transform="matrix( 0.79998779296875, 0, 0, 0.79998779296875, 50.25,170.2) ">
    <g transform="matrix( 1, 0, 0, 1, 0,-0.2) ">
      <g transform="matrix( 1, 0, 0, 1, 0,0) ">
        <g transform="matrix(1, 0, 0, 1, 0, 0)">
          <path fill="#237AA7" stroke="none" d=" M 25.4 -74 L 10.75 -70.65 10.75 -27.05 16.7 -27.05 10.6 -20.8 10.45 -20.8 10.45 -17.45 16 -17.45 16 -13.25 7.4 -13.25 0.15 -3.15 0 -3.15 0 0.05 63.6 0.05 70.85 -7.2 70.85 -13.25 64.25 -13.25 71.5 -20.5 71.5 -22.35 Q 89.05 -22.15 89.2 -18.45 89.2 -17.2 86.95 -15.85 L 86.95 -15.9 83.25 -14.4 Q 81.4 -14.05 80.65 -13.6 79.8 -13.05 80.35 -12.3 80.8 -11.55 81.1 -11.05 L 76.25 -11.05 72.05 -2.65 72.05 0.2 81.8 0.2 81.8 0 85.85 -5.15 85.85 -10.75 86 -11.05 81.4 -11.05 81.4 -11.1 Q 81.05 -11.65 80.6 -12.45 80.25 -12.95 80.85 -13.3 81.5 -13.8 83.35 -14.1 L 87.05 -15.6 87.1 -15.6 Q 89.5 -17.1 89.5 -18.45 89.35 -22.45 71.5 -22.65 L 71.5 -23.45 74.9 -26.9 74.9 -30.25 71.4 -30.25 75.25 -33.8 75.25 -74 25.4 -74 Z"/>
        </g>
      </g>
      <g transform="matrix( 1, 0, 0, 1, 0,0) ">
        <g transform="matrix(1, 0, 0, 1, 0, 0)">
          <path fill="#57BDB4" stroke="none" d=" M 81.6 0.2 L 81.8 0.2 81.8 0 81.6 0.2 Z"/>
          <path fill="#000000" fill-opacity="0.08235294117647059" stroke="none" d=" M 81.6 -2.65 L 72.05 -2.65 72.05 0.2 81.6 0.2 81.6 -2.65 M 71.4 -22.4 Q 71.45 -22.35 71.5 -22.35 75.2 -22.3 78.1 -22.1 89.05 -21.4 89.2 -18.45 89.2 -18 88.9 -17.5 88.8 -17.4 88.7 -17.25 88.15 -16.6 86.95 -15.85 L 86.95 -15.9 83.25 -14.4 Q 81.4 -14.05 80.65 -13.6 79.8 -13.05 80.35 -12.3 80.8 -11.55 81.1 -11.05 81.1 -11 81.15 -10.95 81.15 -10.9 81.25 -10.9 81.3 -10.9 81.35 -10.9 81.4 -10.95 81.4 -11 L 81.4 -11.05 81.4 -11.1 Q 81.05 -11.65 80.6 -12.45 80.25 -12.95 80.85 -13.3 81.5 -13.8 83.35 -14.1 L 87.05 -15.6 87.1 -15.6 Q 88.4 -16.45 89.05 -17.2 89.1 -17.3 89.2 -17.4 89.5 -17.95 89.5 -18.45 89.4 -21.6 78.35 -22.35 75.35 -22.6 71.5 -22.65 71.45 -22.65 71.4 -22.6 71.35 -22.55 71.35 -22.5 71.35 -22.45 71.4 -22.4 M 0.15 -3.15 L 0 -3.15 0 0.05 63.6 0.05 63.6 -3.15 0.15 -3.15 Z"/>
          <path fill="url(#Gradient_1)" stroke="none" d=" M 85.85 -10.75 L 85.7 -10.8 81.6 -2.65 81.6 0.2 81.8 0 85.85 -5.15 85.85 -10.75 Z"/>
          <path fill="#007A68" stroke="none" d=" M 85.85 -10.75 L 85.85 -11.05 85.7 -10.8 85.85 -10.75 Z"/>
          <path fill="#80CDC6" stroke="none" d=" M 85.85 -10.75 L 86 -11.05 85.85 -11.05 85.85 -10.75 Z"/>
          <path fill="url(#Gradient_2)" stroke="none" d=" M 70.85 -7.2 L 70.85 -13.25 63.6 -3.15 63.6 0.05 70.85 -7.2 Z"/>
          <path fill="url(#Gradient_3)" stroke="none" d=" M 76.25 -11.05 L 72.05 -2.65 81.6 -2.65 85.7 -10.8 85.85 -11.05 81.4 -11.05 81.4 -11 Q 81.4 -10.95 81.35 -10.9 81.3 -10.9 81.25 -10.9 81.15 -10.9 81.15 -10.95 81.1 -11 81.1 -11.05 L 76.25 -11.05 Z"/>
          <path fill="url(#Gradient_4)" stroke="none" d=" M 74.9 -26.9 L 74.9 -30.25 65.65 -20.8 65.65 -17.45 62.25 -17.45 62.25 -13.25 64.25 -13.25 71.5 -20.5 71.5 -22.35 Q 71.45 -22.35 71.4 -22.4 71.35 -22.45 71.35 -22.5 71.35 -22.55 71.4 -22.6 71.45 -22.65 71.5 -22.65 L 71.5 -23.45 74.9 -26.9 Z"/>
          <path fill="url(#Gradient_5)" stroke="none" d=" M 63.3 -27.05 L 65.65 -24.85 66.8 -26.7 67.2 -27.05 63.3 -27.05 Z"/>
          <path fill="#000000" fill-opacity="0.011764705882352941" stroke="none" d=" M 10.6 -20.8 L 10.45 -20.8 10.45 -17.45 16 -17.45 62.25 -17.45 65.65 -17.45 65.65 -20.8 10.6 -20.8 M 10.75 -27.05 L 16.7 -27.05 63.3 -27.05 67.2 -27.05 68.5 -27.05 68.5 -27.55 68.5 -70.65 10.75 -70.65 10.75 -27.05 M 59.75 -66.1 Q 64.45 -66.1 64.45 -61.2 L 64.45 -35.65 Q 64.45 -30.95 59.75 -30.9 L 19.2 -30.9 Q 15.8 -30.95 14.75 -33.2 14.3 -34.2 14.3 -35.65 L 14.3 -61.2 Q 14.3 -62.7 14.75 -63.75 15.8 -66.1 19.2 -66.1 L 59.75 -66.1 Z"/>
          <path fill="#000000" fill-opacity="0.25098039215686274" stroke="none" d=" M 16 -17.45 L 16 -13.25 62.25 -13.25 62.25 -17.45 16 -17.45 Z"/>
          <path fill="url(#Gradient_6)" stroke="none" d=" M 16 -13.25 L 7.4 -13.25 0.15 -3.15 63.6 -3.15 70.85 -13.25 64.25 -13.25 62.25 -13.25 16 -13.25 Z"/>
          <path fill="#000000" fill-opacity="0.15294117647058825" stroke="none" d=" M 16.7 -27.05 L 19 -24.85 65.65 -24.85 63.3 -27.05 16.7 -27.05 Z"/>
          <path fill="url(#Gradient_7)" stroke="none" d=" M 19 -24.85 L 16.7 -27.05 10.6 -20.8 65.65 -20.8 74.9 -30.25 71.4 -30.25 68.5 -27.55 68.5 -27.05 67.2 -27.05 66.8 -26.7 65.65 -24.85 19 -24.85 Z"/>
          <path fill="#FFFFFF" fill-opacity="0.4" stroke="none" d=" M 64.45 -61.2 Q 64.45 -66.1 59.75 -66.1 L 19.2 -66.1 Q 15.8 -66.1 14.75 -63.75 14.3 -62.7 14.3 -61.2 L 14.3 -35.65 Q 14.3 -34.2 14.75 -33.2 15.8 -30.95 19.2 -30.9 L 59.75 -30.9 Q 64.45 -30.95 64.45 -35.65 L 64.45 -61.2 Z"/>
          <path fill="url(#Gradient_8)" stroke="none" d=" M 68.5 -70.65 L 75.25 -74 25.4 -74 10.75 -70.65 68.5 -70.65 Z"/>
          <path fill="url(#Gradient_9)" stroke="none" d=" M 75.25 -74 L 68.5 -70.65 68.5 -27.55 71.4 -30.25 75.25 -33.8 75.25 -74 Z"/>
        </g>
      </g>
    </g>
  </g>
  <g transform="matrix( 0.79998779296875, 0, 0, 0.79998779296875, 436.6,176.3) ">
    <g transform="matrix( 1, 0, 0, 1, 0,0) ">
      <g transform="matrix( 1, 0, 0, 1, 0,0) ">
        <g transform="matrix(1, 0, 0, 1, 0, 0)">
          <path fill="#237AA7" stroke="none" d=" M 63.5 -66.1 L 63.5 -89.35 15 -89.35 0 -83 0 -54.6 2.1 -54.6 0 -53 0 -7 2.1 -7 0 -5.4 0 0 53 0 63.5 -13.15 63.5 -17.9 62.05 -17.9 63.5 -19.4 63.5 -64.5 62.05 -64.5 63.5 -66.1 Z"/>
        </g>
      </g>
      <g transform="matrix( 1, 0, 0, 1, 0,0) ">
        <g transform="matrix(1, 0, 0, 1, 0, 0)">
          <path fill="#000000" fill-opacity="0.011764705882352941" stroke="none" d=" M 53 -5.4 L 0 -5.4 0 0 53 0 53 -5.4 M 0 -5.4 L 2.1 -7 53 -7 53 -53 0 -53 0 -5.4 M 53 -54.6 L 53 -83 0 -83 0 -54.6 2.1 -54.6 53 -54.6 Z"/>
          <path fill="url(#Gradient_10)" stroke="none" d=" M 63.5 -13.15 L 63.5 -17.9 53 -5.4 53 0 63.5 -13.15 M 63.5 -64.5 L 53 -53 53 -7 63.45 -19.35 63.5 -17.9 63.5 -64.5 Z"/>
          <path fill="url(#Gradient_11)" stroke="none" d=" M 2.1 -7 L 0 -5.4 53 -5.4 63.5 -17.9 63.45 -19.35 53 -7 2.1 -7 Z"/>
          <path fill="url(#Gradient_12)" stroke="none" d=" M 53 -53 L 63.5 -64.5 62.05 -64.5 53 -54.6 2.1 -54.6 0 -53 53 -53 Z"/>
          <path fill="url(#Gradient_13)" stroke="none" d=" M 53 -83 L 63.5 -89.35 15 -89.35 0 -83 53 -83 Z"/>
          <path fill="url(#Gradient_14)" stroke="none" d=" M 63.5 -66.1 L 63.5 -89.35 53 -83 53 -54.6 62.05 -64.5 63.5 -66.1 Z"/>
        </g>
      </g>
    </g>
    <g transform="matrix( 1, 0, 0, 1, 0,0) ">
      <g transform="matrix(1, 0, 0, 1, 0, 0)">
        <path fill="#FFFFFF" stroke="none" d=" M 6 -72.8 L 6 -70.5 21.65 -70.5 21.65 -72.8 6 -72.8 Z"/>
        <path fill="#000000" fill-opacity="0.5019607843137255" stroke="none" d=" M 4 -68.5 L 2.5 -67 25.15 -67 23.65 -68.5 4 -68.5 Z"/>
        <path fill="#FFFFFF" fill-opacity="0.25098039215686274" stroke="none" d=" M 4 -74.8 L 2.5 -76.3 2.5 -67 4 -68.5 4 -74.8 Z"/>
        <path fill="#FFFFFF" fill-opacity="0.5019607843137255" stroke="none" d=" M 23.65 -74.8 L 25.15 -76.3 2.5 -76.3 4 -74.8 23.65 -74.8 Z"/>
        <path fill="#000000" fill-opacity="0.25098039215686274" stroke="none" d=" M 25.15 -76.3 L 23.65 -74.8 23.65 -68.5 25.15 -67 25.15 -76.3 Z"/>
      </g>
    </g>
  </g>
  <g transform="matrix( 0.639984130859375, 0, 0, 0.639984130859375, 275,140.2) ">
    <g transform="matrix( 1, 0, 0, 1, 0,0) ">
      <g transform="matrix(1, 0, 0, 1, 0, 0)">
        <path fill="#237AA7" stroke="none" d=" M 39.95 -38.75 Q 35.9 -42.8 30.4 -43.45 28.95 -45.65 26.95 -47.65 19.25 -55.35 8.3 -55.35 -2.65 -55.35 -10.4 -47.65 -13.15 -44.9 -14.9 -41.7 -21.7 -47.45 -30.8 -47.45 -41.1 -47.45 -48.4 -40.15 -52.9 -35.65 -54.6 -30 -66.75 -29.65 -75.45 -21 -80.5 -15.9 -82.75 -9.6 -83.35 -7.95 -83.75 -6.15 -84.5 -2.75 -84.5 0.95 -84.5 4.65 -83.75 8.05 -83.35 9.8 -82.75 11.5 -80.5 17.8 -75.45 22.85 -68.35 29.95 -58.9 31.55 -56.9 35 -53.9 38 -45.05 46.85 -32.55 46.85 -23.75 46.85 -16.8 42.5 -16.55 42.8 -16.2 43.15 -14.25 45.1 -11.55 45.1 -8.85 45.1 -6.95 43.15 -6.8 43 -6.6 42.85 -3.85 44.85 -0.2 44.85 4.4 44.85 7.65 41.6 9.45 39.8 10.25 37.6 19.9 46.85 33.45 46.85 47.4 46.85 57.25 37 60.65 33.6 62.9 29.7 63.85 29.8 64.9 29.8 72.15 29.8 77.25 24.7 82.35 19.6 82.35 12.35 82.35 9.8 81.75 7.55 84.55 2.45 84.55 -3.85 84.55 -13.65 77.65 -20.55 70.75 -27.45 60.95 -27.45 56.6 -27.45 52.8 -26.05 52.35 -26.55 51.85 -27.05 48 -30.9 43.55 -33.45 42.35 -36.35 39.95 -38.75 Z"/>
      </g>
    </g>
    <g transform="matrix( 1, 0, 0, 1, 0,0) ">
      <g transform="matrix(1, 0, 0, 1, 0, 0)">
        <path fill="url(#Gradient_15)" stroke="none" d=" M 39.95 -38.75 Q 35.9 -42.8 30.4 -43.45 28.95 -45.65 26.95 -47.65 19.25 -55.35 8.3 -55.35 -2.65 -55.35 -10.4 -47.65 -13.15 -44.9 -14.9 -41.7 -21.7 -47.45 -30.8 -47.45 -41.1 -47.45 -48.4 -40.15 -52.9 -35.65 -54.6 -30 -66.75 -29.65 -75.45 -21 -80.5 -15.9 -82.75 -9.6 -83.35 -7.95 -83.75 -6.15 -84.5 -2.75 -84.5 0.95 -84.5 4.65 -83.75 8.05 -83.35 9.8 -82.75 11.5 -80.5 17.8 -75.45 22.85 -68.35 29.95 -58.9 31.55 -56.9 35 -53.9 38 -45.05 46.85 -32.55 46.85 -23.75 46.85 -16.8 42.5 -16.55 42.8 -16.2 43.15 -14.25 45.1 -11.55 45.1 -8.85 45.1 -6.95 43.15 -6.8 43 -6.6 42.85 -3.85 44.85 -0.2 44.85 4.4 44.85 7.65 41.6 9.45 39.8 10.25 37.6 19.9 46.85 33.45 46.85 47.4 46.85 57.25 37 60.65 33.6 62.9 29.7 63.85 29.8 64.9 29.8 72.15 29.8 77.25 24.7 82.35 19.6 82.35 12.35 82.35 9.8 81.75 7.55 84.55 2.45 84.55 -3.85 84.55 -13.65 77.65 -20.55 70.75 -27.45 60.95 -27.45 56.6 -27.45 52.8 -26.05 52.35 -26.55 51.85 -27.05 48 -30.9 43.55 -33.45 42.35 -36.35 39.95 -38.75 Z"/>
      </g>
    </g>
    <g transform="matrix( 1, 0, 0, 1, 0,0) ">
      <g transform="matrix(1, 0, 0, 1, 0, 0)">
        <path fill="#FFFFFF" stroke="none" d=" M 26.25 -40.7 Q 25.05 -42.5 23.45 -44.1 17.2 -50.35 8.3 -50.35 -0.55 -50.35 -6.85 -44.1 -9.1 -41.85 -10.5 -39.3 -11.25 -38 -12.6 -37.25 -14 -36.6 -15.45 -36.75 -16.95 -36.9 -18.1 -37.9 -23.55 -42.45 -30.8 -42.45 -39.05 -42.45 -44.85 -36.6 -48.45 -33.05 -49.85 -28.55 -50.3 -27 -51.6 -26.05 -52.85 -25.05 -54.45 -25 -64.6 -24.7 -71.9 -17.45 -79.5 -9.8 -79.5 0.95 -79.5 11.75 -71.9 19.35 -65.95 25.3 -58.1 26.6 -57 26.8 -56.05 27.45 -55.1 28.05 -54.55 29.05 -52.9 31.95 -50.35 34.5 -43 41.85 -32.55 41.85 -25.25 41.9 -19.45 38.25 -17.85 37.2 -15.95 37.55 -14.05 37.9 -12.85 39.4 -12.8 39.5 -12.65 39.65 -12.2 40.1 -11.55 40.1 -10.95 40.1 -10.5 39.65 -10.5 39.6 -10.45 39.6 -10.3 39.45 -10.2 39.35 -8.9 38 -7.05 37.85 -5.2 37.7 -3.65 38.8 -2.15 39.85 -0.2 39.85 2.35 39.85 4.15 38.1 5.1 37.1 5.55 35.9 6.15 34.3 7.6 33.4 9.05 32.45 10.75 32.65 12.45 32.8 13.7 34 21.95 41.85 33.45 41.85 45.35 41.85 53.75 33.5 56.65 30.55 58.55 27.25 59.25 25.95 60.6 25.25 61.9 24.55 63.4 24.75 64.1 24.8 64.9 24.8 70.1 24.8 73.75 21.2 77.35 17.55 77.35 12.35 77.35 10.5 76.9 8.85 76.35 6.9 77.35 5.1 79.55 1.1 79.55 -3.85 79.55 -11.6 74.15 -17 68.7 -22.45 60.95 -22.45 57.5 -22.45 54.5 -21.35 53.1 -20.85 51.65 -21.2 50.2 -21.55 49.2 -22.6 48.75 -23.1 48.35 -23.5 44.95 -26.9 41.1 -29.1 39.6 -29.95 38.95 -31.5 38.1 -33.55 36.45 -35.2 33.6 -38.05 29.8 -38.5 28.7 -38.65 27.8 -39.2 26.85 -39.8 26.25 -40.7 Z"/>
      </g>
    </g>
  </g>
  <g transform="matrix( 0.865447998046875, 0, 0, 1, 39.05,79) "/>
  <g transform="matrix( 0.865447998046875, 0, 0, 1, 229.9,132.95) "/>
  <g transform="matrix( 0.865447998046875, 0, 0, 1, 417,79) "/>
  <text style="white-space: pre; fill: rgb(51, 51, 51); font-family: Arial, sans-serif; font-size: 8.5px;" x="254.878" y="142.683">Интернет</text>
  <text style="white-space: pre; fill: rgb(51, 51, 51); font-family: Arial, sans-serif; font-size: 8.5px;" x="71.952" y="97.561">Клиент</text>
  <text style="white-space: pre; fill: rgb(51, 51, 51); font-family: Arial, sans-serif; font-size: 8.5px;" x="448.475" y="95.427">Сервер</text>
</svg>