<?xml version="1.0" encoding="utf-8"?>
<svg version="1.1" preserveAspectRatio="none" x="0px" y="0px" width="800px" height="233px" viewBox="0 0 648 189" xmlns="http://www.w3.org/2000/svg">
  <defs>
    <linearGradient id="Gradient_1" gradientUnits="userSpaceOnUse" x1="-0.025000000000005684" y1="-23.9" x2="92.625" y2="-23.9" spreadMethod="pad">
      <stop offset="0" stop-color="#000000" stop-opacity="0.35294117647058826"/>
      <stop offset="0.1569" stop-color="#000000" stop-opacity="0.15294117647058825"/>
      <stop offset="0.2627" stop-color="#FFFFFF" stop-opacity="0.15294117647058825"/>
      <stop offset="0.4627" stop-color="#FFFFFF" stop-opacity="0.4"/>
      <stop offset="0.6235" stop-color="#000000" stop-opacity="0.15294117647058825"/>
      <stop offset="0.8157" stop-color="#000000" stop-opacity="0.35294117647058826"/>
      <stop offset="1" stop-color="#000000" stop-opacity="0.5019607843137255"/>
    </linearGradient>
    <linearGradient id="Gradient_2" gradientUnits="userSpaceOnUse" x1="38.0875" y1="-70.425" x2="54.612500000000004" y2="-25.674999999999997" spreadMethod="pad">
      <stop offset="0" stop-color="#000000" stop-opacity="0.15294117647058825"/>
      <stop offset="0.4314" stop-color="#FFFFFF" stop-opacity="0.10196078431372549"/>
      <stop offset="0.651" stop-color="#000000" stop-opacity="0.10196078431372549"/>
      <stop offset="0.7529" stop-color="#000000" stop-opacity="0.2"/>
      <stop offset="1" stop-color="#000000" stop-opacity="0.4"/>
    </linearGradient>
    <linearGradient id="Gradient_3" gradientUnits="userSpaceOnUse" x1="1.5125000000000002" y1="-24.75" x2="-2.2125" y2="-24.75" spreadMethod="pad">
      <stop offset="0" stop-color="#FFFFFF" stop-opacity="0.25098039215686274"/>
      <stop offset="1" stop-color="#000000" stop-opacity="0.15294117647058825"/>
    </linearGradient>
    <linearGradient id="Gradient_4" gradientUnits="userSpaceOnUse" x1="15" y1="-53" x2="15" y2="-64.5" spreadMethod="pad">
      <stop offset="0" stop-color="#FFFFFF" stop-opacity="0.25098039215686274"/>
      <stop offset="1" stop-color="#000000" stop-opacity="0.15294117647058825"/>
    </linearGradient>
    <linearGradient id="Gradient_5" gradientUnits="userSpaceOnUse" x1="53" y1="-32.25" x2="63.5" y2="-32.25" spreadMethod="pad">
      <stop offset="0" stop-color="#000000" stop-opacity="0.15294117647058825"/>
      <stop offset="1" stop-color="#000000" stop-opacity="0.35294117647058826"/>
    </linearGradient>
    <linearGradient id="Gradient_6" gradientUnits="userSpaceOnUse" x1="97.25" y1="-31" x2="128.75" y2="-31" spreadMethod="pad">
      <stop offset="0" stop-color="#000000" stop-opacity="0.15294117647058825"/>
      <stop offset="1" stop-color="#000000" stop-opacity="0.35294117647058826"/>
    </linearGradient>
    <linearGradient id="Gradient_7" gradientUnits="userSpaceOnUse" x1="64.35" y1="-31" x2="64.35" y2="-62" spreadMethod="pad">
      <stop offset="0" stop-color="#FFFFFF" stop-opacity="0.25098039215686274"/>
      <stop offset="1" stop-color="#000000" stop-opacity="0.15294117647058825"/>
    </linearGradient>
    <linearGradient id="Gradient_8" gradientUnits="userSpaceOnUse" x1="53.25" y1="-16.35" x2="63.75" y2="-23.15" spreadMethod="pad">
      <stop offset="0" stop-color="#000000" stop-opacity="0.15294117647058825"/>
      <stop offset="1" stop-color="#000000" stop-opacity="0.35294117647058826"/>
    </linearGradient>
    <radialGradient id="Gradient_9" gradientUnits="userSpaceOnUse" cx="0" cy="0" r="4.949747468305833" gradientTransform="matrix( 0.7071067811865476, 0.7071067811865476, -0.7071067811865476, 0.7071067811865476, 1.5,-3.45) " spreadMethod="pad">
      <stop offset="0" stop-color="#FFFFFF" stop-opacity="0.25098039215686274"/>
      <stop offset="0.6039" stop-color="#000000" stop-opacity="0.25098039215686274"/>
      <stop offset="1" stop-color="#000000" stop-opacity="0.5019607843137255"/>
    </radialGradient>
    <linearGradient id="Gradient_10" gradientUnits="userSpaceOnUse" x1="9.4" y1="-12.15" x2="11.200000000000001" y2="-10.35" spreadMethod="pad">
      <stop offset="0" stop-color="#000000" stop-opacity="0.5019607843137255"/>
      <stop offset="0.4235" stop-color="#FFFFFF" stop-opacity="0.25098039215686274"/>
      <stop offset="1" stop-color="#000000" stop-opacity="0.5019607843137255"/>
    </linearGradient>
    <linearGradient id="Gradient_11" gradientUnits="userSpaceOnUse" x1="18.375" y1="-45.275" x2="45.425" y2="-18.225" spreadMethod="pad">
      <stop offset="0" stop-color="#000000" stop-opacity="0.5019607843137255"/>
      <stop offset="0.4078" stop-color="#000000" stop-opacity="0.25098039215686274"/>
      <stop offset="1" stop-color="#000000" stop-opacity="0.7529411764705882"/>
    </linearGradient>
    <linearGradient id="Gradient_12" gradientUnits="userSpaceOnUse" x1="5.0375" y1="-16.225" x2="22.0625" y2="-25.975" spreadMethod="pad">
      <stop offset="0" stop-color="#000000" stop-opacity="0.5019607843137255"/>
      <stop offset="0.4078" stop-color="#000000" stop-opacity="0.25098039215686274"/>
      <stop offset="1" stop-color="#000000" stop-opacity="0.7529411764705882"/>
    </linearGradient>
    <linearGradient id="Gradient_13" gradientUnits="userSpaceOnUse" x1="51.3875" y1="-28.137499999999996" x2="45.5125" y2="-50.1625" spreadMethod="pad">
      <stop offset="0" stop-color="#000000" stop-opacity="0.5019607843137255"/>
      <stop offset="0.4078" stop-color="#000000" stop-opacity="0.25098039215686274"/>
      <stop offset="1" stop-color="#000000" stop-opacity="0.7529411764705882"/>
    </linearGradient>
    <filter id="Filter_1" x="-20%" y="-20%" width="140%" height="140%" color-interpolation-filters="sRGB">
      <feFlood flood-color="#000000" flood-opacity="1" in="SourceGraphic" result="result1"/>
      <feComposite in2="SourceGraphic" in="result1" operator="in" result="result2"/>
      <feGaussianBlur in="result2" stdDeviation="2,2" result="result3"/>
      <feOffset dx="3.6739403974420594e-16" dy="6" in="result3" result="result4"/>
      <feComposite in2="result4" in="SourceGraphic" operator="over" result="result5"/>
    </filter>
    <g id="uid9hvhl6zc_j3e9dfgd3206mrt4rvsbm39u060prb19pk9hkrqzjgrpurpleShapes_0_Layer0_0_FILL">
      <path fill="#FFFFFF" stroke="none" d=" M 589.45 -0.7 L -0.55 -0.7 -0.55 119.3 589.45 119.3 589.45 -0.7 Z"/>
    </g>
    <g id="FL_05_shapes_uidtzytoc9t_05_shapes_k6ehdcsg9jgnyfyit7xsj05_shapes_89v3ozeif83lc1qxonoscc05_shapes_yr3qfg33imrngq8jrznrna05_shapes_m4sxf0s76ml6jldsgoo2k05_shapes_z_router_basic_0_Layer1_0_FILL">
      <path fill="#237AA7" stroke="none" d=" M 79.05 -61.25 Q 65.5 -66.75 46.3 -66.75 27.1 -66.75 13.55 -61.25 0.65 -56 0.05 -48.75 0 -48.45 0 -48.15 L 0 -18.5 Q 0.2 -10.9 13.55 -5.5 27.1 0 46.3 0 65.5 0 79.05 -5.5 92.05 -10.8 92.65 -18.15 L 92.6 -48.7 Q 91.95 -56 79.05 -61.25 Z"/>
    </g>
    <g id="FL_05_shapes_uidtzytoc9t_05_shapes_k6ehdcsg9jgnyfyit7xsj05_shapes_89v3ozeif83lc1qxonoscc05_shapes_yr3qfg33imrngq8jrznrna05_shapes_m4sxf0s76ml6jldsgoo2k05_shapes_z_router_basic_0_Layer0_0_FILL">
      <path fill="url(#Gradient_1)" stroke="none" d=" M 13.55 -34.75 Q 7.35 -37.25 4 -40.25 0.1 -43.7 0 -47.75 L 0 -18.5 Q 0.15 -13.7 5.55 -9.75 8.7 -7.5 13.55 -5.5 27.1 0 46.3 0 65.5 0 79.05 -5.5 92.05 -10.8 92.65 -18.15 L 92.6 -47.4 Q 92.05 -40.05 79.05 -34.75 65.5 -29.25 46.3 -29.25 27.1 -29.25 13.55 -34.75 Z"/>
      <path fill="url(#Gradient_2)" stroke="none" d=" M 79.05 -61.25 Q 65.5 -66.75 46.3 -66.75 27.1 -66.75 13.55 -61.25 0.65 -56 0.05 -48.75 0 -48.45 0 -48.15 L 0 -47.75 Q 0.1 -43.7 4 -40.25 7.35 -37.25 13.55 -34.75 27.1 -29.25 46.3 -29.25 65.5 -29.25 79.05 -34.75 92.05 -40.05 92.6 -47.4 L 92.6 -48.7 Q 92.4 -50.95 91.05 -53 88 -57.6 79.05 -61.25 Z"/>
    </g>
    <g id="FL_05_shapes_uiddxh2c19d_05_shapes_ojfelg3zdcy93p5wxms805_shapes_ou4lfqbgf5fd7ekd6w5y8u05_shapes_y9yv5jxx5ym42q4g4bvfr05_shapes_jh825bc2soblum14k59l0l05_shapes______0_Layer1_0_FILL">
      <path fill="#FFFFFF" stroke="none" d=" M -25.65 -13.2 L -31.3 -10.85 -17.4 -4.9 -19.65 -3.95 -2.55 -1.4 -9.1 -8.3 -11.6 -7.35 -19.95 -10.85 Q -22.7322265625 -11.98671875 -25.55 -13.15 L -25.65 -13.2 M 0.75 2.7 L 0.7 2.65 -4.9 0.35 -19.1 6.2 -21.5 5.25 -28.55 12.25 -11.15 9.55 -12.3 9.05 Q -12.876171875 8.8150390625 -13.45 8.55 L -13.5 8.55 -13.5 8.5 0.75 2.7 M 26.15 13 L 31.8 10.65 17.9 4.7 20.15 3.75 3.05 1.15 9.6 8.1 12.1 7.15 20.45 10.6 Q 23.2322265625 11.78671875 26 12.95 L 26.15 13 M 0.25 -2.35 L 5.8 -0.05 20.05 -5.9 22.4 -4.9 29.5 -11.9 12.1 -9.2 13.25 -8.7 Q 13.826171875 -8.4650390625 14.4 -8.25 L 14.45 -8.2 14.4 -8.2 0.2 -2.35 0.25 -2.35 Z"/>
    </g>
    <g id="FL_05_shapes_uiddxh2c19d_05_shapes_ojfelg3zdcy93p5wxms805_shapes_ou4lfqbgf5fd7ekd6w5y8u05_shapes_y9yv5jxx5ym42q4g4bvfr05_shapes_jh825bc2soblum14k59l0l05_shapes______0_Layer0_0_FILL">
      <path fill="#000000" fill-opacity="0.5019607843137255" stroke="none" d=" M -12.9 9.8 L -11.15 9.55 -13.45 8.55 -13.5 9.5 -13.5 9.55 -13.45 9.55 Q -13.1595703125 9.696484375 -12.9 9.8 M -17.4 -3.9 L -17.4 -4.9 -19.65 -3.95 -17.9 -3.7 -17.4 -3.9 M -31.3 -10.85 L -30.15 -10.35 -25.65 -12.2 -25.55 -12.15 Q -22.7322265625 -10.98671875 -19.95 -9.85 L -11.6 -6.35 -9.1 -7.3 -3.65 -1.55 -2.55 -1.4 -9.1 -8.3 -11.6 -7.35 -19.95 -10.85 Q -22.7322265625 -11.98671875 -25.55 -13.15 L -25.65 -13.2 -31.3 -10.85 M 20.15 3.75 L 3.05 1.15 4.15 2.35 18.4 4.5 20.15 3.75 M 0.75 2.7 L 0.7 2.65 -4.9 0.35 -19.1 6.2 -21.5 5.25 -28.55 12.25 -27.35 12.05 -21.5 6.25 -19.1 7.2 -4.9 1.35 -0.45 3.2 0.75 2.7 M 30.6 11.15 L 31.8 10.65 17.9 4.7 17.9 5.7 30.6 11.15 M 12.1 -9.2 L 13.25 -8.7 Q 13.5345703125 -8.583984375 13.8 -8.5 L 28.3 -10.75 29.5 -11.9 12.1 -9.2 M 0.2 -2.35 L 0.25 -2.35 1.4 -1.85 14.4 -7.2 14.45 -7.2 14.45 -8.15 0.2 -2.35 Z"/>
    </g>
    <g id="FL_04_photos_and_graphics_WirelessAntenna_0_Layer1_0_FILL">
      <path fill="#237AA7" stroke="none" d=" M 1.7 -14.6 L 2.8 -14.6 2.8 -21.25 -2.85 -21.25 -2.85 -14.6 -1.3 -14.6 -1.3 3.05 -2.85 3.05 -2.85 19.75 Q -0.3 22.7 2.8 19.75 L 2.8 3.05 1.7 3.05 1.7 -14.6 Z"/>
    </g>
    <g id="FL_04_photos_and_graphics_WirelessAntenna_0_Layer0_0_FILL">
      <path fill="url(#Gradient_3)" stroke="none" d=" M 2.75 -14.7 L 2.75 -21.35 -2.9 -21.35 -2.9 -14.7 -1.35 -14.7 -1.35 2.95 -2.9 2.95 -2.9 19.65 Q -0.35 22.6 2.75 19.65 L 2.75 2.95 1.65 2.95 1.65 -14.7 2.75 -14.7 Z"/>
    </g>
    <g id="FL_05_shapes_uid17sq1wud_05_shapes_lmk733e6fmbeoyq2yw5e1d05_shapes_n92olm8ltzg7vj5sclpddp05_shapes_e6vpoahm4t5p7gzt95r9sm05_shapes_m1if88pm04mvs1a211hya05_shapes_z_box_square_0_Layer1_0_FILL">
      <path fill="#237AA7" stroke="none" d=" M 15 -64.5 L 0 -53 0 0 53 0 63.5 -13.15 63.5 -64.5 15 -64.5 Z"/>
    </g>
    <g id="FL_05_shapes_uid17sq1wud_05_shapes_lmk733e6fmbeoyq2yw5e1d05_shapes_n92olm8ltzg7vj5sclpddp05_shapes_e6vpoahm4t5p7gzt95r9sm05_shapes_m1if88pm04mvs1a211hya05_shapes_z_box_square_0_Layer0_0_FILL">
      <path fill="#000000" fill-opacity="0.011764705882352941" stroke="none" d=" M 53 -53 L 0 -53 0 0 53 0 53 -53 Z"/>
      <path fill="url(#Gradient_4)" stroke="none" d=" M 53 -53 L 63.5 -64.5 15 -64.5 0 -53 53 -53 Z"/>
      <path fill="url(#Gradient_5)" stroke="none" d=" M 63.5 -64.5 L 53 -53 53 0 63.5 -13.15 63.5 -64.5 Z"/>
    </g>
    <g id="FL_05_shapes_uidjgcrifzo_05_shapes_tnzqollm9mx7syina47v05_shapes_8e8t5a028bc6koevcl5msk05_shapes_Sun_Arrow_Icon__0_Layer1_0_FILL">
      <path fill="#000000" fill-opacity="0.5019607843137255" stroke="none" d=" M 17.3 -17.3 L 18.65 -15.9 12.6 -9.85 Q 8.9265625 -12.9498046875 4.1 -13.4 L 4.1 -20.95 6 -20.95 2.45 -30.55 -1.05 -20.95 0.85 -20.95 0.85 -13.4 Q -3.9341796875 -12.977734375 -7.65 -9.95 L -13.7 -15.95 -12.35 -17.35 -21.65 -21.6 -17.35 -12.35 -16 -13.7 -9.95 -7.65 Q -13.0205078125 -3.8904296875 -13.45 0.95 L -21 0.95 -21 -1 -30.6 2.55 -21 6.1 -21 4.15 -13.45 4.15 Q -12.9669921875 8.952734375 -9.9 12.6 L -16 18.75 -17.35 17.35 -21.65 26.65 -12.35 22.35 -13.7 21 -7.6 14.85 Q -3.9072265625 17.9359375 0.85 18.35 L 0.85 25.95 -1.05 25.95 2.45 35.55 6 25.95 4.05 25.95 4.05 18.35 Q 8.857421875 17.919140625 12.5 14.85 L 18.65 20.95 17.3 22.35 26.6 26.6 22.3 17.3 20.9 18.7 14.8 12.55 Q 17.876171875 8.9189453125 18.3 4.15 L 25.9 4.15 25.9 6.1 35.5 2.55 25.9 -1 25.9 0.95 18.3 0.95 Q 17.92890625 -3.8462890625 14.85 -7.55 L 20.95 -13.65 22.3 -12.3 26.6 -21.6 17.3 -17.3 Z"/>
    </g>
    <g id="FL_05_shapes_uidjgcrifzo_05_shapes_tnzqollm9mx7syina47v05_shapes_8e8t5a028bc6koevcl5msk05_shapes_Sun_Arrow_Icon__0_Layer0_0_FILL">
      <path fill="#FFFFFF" stroke="none" d=" M 14.8 -19.8 L 16.15 -18.4 10.1 -12.35 Q 6.4265625 -15.4498046875 1.6 -15.9 L 1.6 -23.45 3.5 -23.45 -0.05 -33.05 -3.55 -23.45 -1.65 -23.45 -1.65 -15.9 Q -6.4341796875 -15.477734375 -10.15 -12.45 L -16.2 -18.45 -14.85 -19.85 -24.15 -24.1 -19.85 -14.85 -18.5 -16.2 -12.45 -10.15 Q -15.5205078125 -6.3904296875 -15.95 -1.55 L -23.5 -1.55 -23.5 -3.5 -33.1 0.05 -23.5 3.6 -23.5 1.65 -15.95 1.65 Q -15.4669921875 6.452734375 -12.4 10.1 L -18.5 16.25 -19.85 14.85 -24.15 24.15 -14.85 19.85 -16.2 18.5 -10.1 12.35 Q -6.4072265625 15.4359375 -1.65 15.85 L -1.65 23.45 -3.55 23.45 -0.05 33.05 3.5 23.45 1.55 23.45 1.55 15.85 Q 6.357421875 15.419140625 10 12.35 L 16.15 18.45 14.8 19.85 24.1 24.1 19.8 14.8 18.4 16.2 12.3 10.05 Q 15.376171875 6.4189453125 15.8 1.65 L 23.4 1.65 23.4 3.6 33 0.05 23.4 -3.5 23.4 -1.55 15.8 -1.55 Q 15.42890625 -6.3462890625 12.35 -10.05 L 18.45 -16.15 19.8 -14.8 24.1 -24.1 14.8 -19.8 Z"/>
    </g>
    <g id="FL_05_shapes_uidvciavxy7_05_shapes_i9sdnhkn4p40v7geo3r9305_shapes_sxmccx2nmwk6e23c4sdp805_shapes_z_box_flat_0_Layer1_0_FILL">
      <path fill="#237AA7" stroke="none" d=" M 39.25 -62 L 0 -31 0 0 97.25 0 128.75 -32.05 128.75 -62 39.25 -62 Z"/>
    </g>
    <g id="FL_05_shapes_uidvciavxy7_05_shapes_i9sdnhkn4p40v7geo3r9305_shapes_sxmccx2nmwk6e23c4sdp805_shapes_z_box_flat_0_Layer0_0_FILL">
      <path fill="#000000" fill-opacity="0.011764705882352941" stroke="none" d=" M 97.25 -31 L 0 -31 0 0 97.25 0 97.25 -31 Z"/>
      <path fill="url(#Gradient_6)" stroke="none" d=" M 102.9 -37.2 L 97.25 -31 97.25 0 128.75 -32.05 128.75 -62 102.9 -37.2 Z"/>
      <path fill="url(#Gradient_7)" stroke="none" d=" M 39.25 -62 L 0 -31 97.25 -31 102.9 -37.2 128.75 -62 39.25 -62 Z"/>
    </g>
    <g id="FL_05_shapes_uid256ldps6_05_shapes_einqq1mfl2k2gj603lcqtk05_shapes_nbitdlvfk4inymkflkhju05_shapes______0_Layer1_0_FILL">
      <path fill="#FFFFFF" stroke="none" d=" M -29.2 11.6 L -1.25 11.55 1.55 8.9 -26.2 8.95 -24.25 7.35 -50.7 10.25 -31.2 13.15 -29.2 11.6 M 15.85 3.95 L 14.1 5.45 39.7 2.65 20.05 -0.05 18.55 1.45 -8.7 1.4 -11.6 3.9 15.85 3.95 M 3.9 -9.55 L 30.25 -9.55 28.65 -8.15 53.05 -10.8 34.2 -13.3 32.7 -11.95 6.55 -11.85 3.9 -9.55 M 14.1 -2.55 L 16.75 -5.05 -9.85 -4.95 -8.25 -6.45 -33.35 -3.8 -14.45 -1 -12.75 -2.55 14.1 -2.55 Z"/>
    </g>
    <g id="FL_05_shapes_uid256ldps6_05_shapes_einqq1mfl2k2gj603lcqtk05_shapes_nbitdlvfk4inymkflkhju05_shapes______0_Layer0_0_FILL">
      <path fill="#343125" fill-opacity="0.7529411764705882" stroke="none" d=" M 15.9 4 L 14.1 5.45 15.45 5.3 15.85 4.95 15.9 4 M -8.7 1.4 L -11.6 3.9 -10.45 3.9 -8.7 2.4 18.55 2.45 20.05 0.95 35.65 3.1 39.7 2.65 20.05 -0.05 18.55 1.45 -8.7 1.4 M -26.15 8.95 L -26.2 9.95 0.5 9.9 1.55 8.9 -26.15 8.95 M -25.65 8.5 L -24.25 7.35 -50.7 10.25 -46.85 10.85 -25.65 8.5 M -33.35 -3.8 L -29.4 -3.2 -9.5 -5.3 -8.25 -6.45 -33.35 -3.8 M 30.25 -8.55 L 30.3 -9.5 28.65 -8.15 30 -8.3 30.25 -8.55 M 6.55 -11.85 L 3.9 -9.55 5.05 -9.55 6.55 -10.85 32.7 -10.95 34.2 -12.3 48.9 -10.35 53.05 -10.8 34.2 -13.3 32.7 -11.95 6.55 -11.85 M 15.7 -4.05 L 16.75 -5.05 -9.85 -4.95 -9.85 -3.95 15.7 -4.05 Z"/>
    </g>
    <g id="FL_05_shapes_uidrr0fjcf5_05_shapes_sknslong9ofhcyerzzl8n05_shapes_pyarom77cvye01aps4l905_shapes_z_firewall_square_bottom_0_Layer4_0_FILL">
      <path fill="#990000" stroke="none" d=" M 63.4 -40.75 L 63.35 -40.7 54.35 -29.7 54.1 -29.4 53.1 -28.2 52.8 -27.8 52.7 -27.8 51.8 -27.8 0 -27.8 0 0 52.7 0 52.8 0 53.1 -0.4 54.1 -1.6 54.35 -1.9 63.35 -12.9 63.4 -12.95 63.4 -40.75 Z"/>
    </g>
    <g id="FL_05_shapes_uidrr0fjcf5_05_shapes_sknslong9ofhcyerzzl8n05_shapes_pyarom77cvye01aps4l905_shapes_z_firewall_square_bottom_0_Layer3_0_FILL">
      <path fill="#000000" fill-opacity="0.10196078431372549" stroke="none" d=" M 52.8 0 L 53 0 53 -0.25 52.8 0 M 52.7 -27.8 L 0 -27.8 0 0 52.7 0 52.7 -27.8 Z"/>
      <path fill="url(#Gradient_8)" stroke="none" d=" M 53.55 -0.95 L 53.5 -0.9 53.5 -0.65 53.55 -0.7 53.55 -0.95 Z"/>
    </g>
    <g id="FL_05_shapes_uidrr0fjcf5_05_shapes_sknslong9ofhcyerzzl8n05_shapes_pyarom77cvye01aps4l905_shapes_z_firewall_square_bottom_0_Layer0_0_FILL">
      <path fill="#000000" fill-opacity="0.30196078431372547" stroke="none" d=" M 63.4 -40.75 L 63.35 -40.7 54.35 -29.7 54.1 -29.4 53.85 -29.1 53.85 -1.3 54.1 -1.6 54.35 -1.9 63.35 -12.9 63.4 -12.95 63.4 -40.75 Z"/>
    </g>
    <g id="FL_05_shapes_uid7t1hi80j_05_shapes_1d6dn43sjbs5k449unbd3805_shapes_vel5iiewf194xhugxmwndr05_shapes_arrow_and_shadow___left_short_0_Layer1_0_FILL">
      <path fill="#000000" fill-opacity="0.4" stroke="none" d=" M 13.2 -9.65 L 0.85 -4.75 13.2 0 13.2 -2.8 22.6 -2.8 22.6 -6.85 13.2 -6.85 13.2 -9.65 Z"/>
    </g>
    <g id="FL_05_shapes_uid7t1hi80j_05_shapes_1d6dn43sjbs5k449unbd3805_shapes_vel5iiewf194xhugxmwndr05_shapes_arrow_and_shadow___left_short_0_Layer0_0_FILL">
      <path fill="#FFFFFF" stroke="none" d=" M 12.35 -7.95 L 12.35 -10.75 0 -5.85 12.35 -1.1 12.35 -3.9 21.75 -3.9 21.75 -7.95 12.35 -7.95 Z"/>
    </g>
    <g id="FL_05_shapes_uid8bemdxvy_05_shapes_vw9xlil7968f7bovyisyzh05_shapes_3vqd83llmzxshxja0nouwo05_shapes_arrow_and_shadow___right__short_0_Layer1_0_FILL">
      <path fill="#000000" fill-opacity="0.4" stroke="none" d=" M 0.9 -6.85 L 0.9 -2.8 10.3 -2.8 10.3 0 22.65 -4.75 10.3 -9.65 10.3 -6.85 0.9 -6.85 Z"/>
    </g>
    <g id="FL_05_shapes_uid8bemdxvy_05_shapes_vw9xlil7968f7bovyisyzh05_shapes_3vqd83llmzxshxja0nouwo05_shapes_arrow_and_shadow___right__short_0_Layer0_0_FILL">
      <path fill="#FFFFFF" stroke="none" d=" M 9.4 -10.75 L 9.4 -7.95 0 -7.95 0 -3.9 9.4 -3.9 9.4 -1.1 21.75 -5.85 9.4 -10.75 Z"/>
    </g>
    <g id="FL_01_topology_icons_uidsqdps7qw_01_topology_icons_ui81lwr75ai2rp3x6ekj8u01_topology_icons_32ju84deqij3txe9p0zyqs01_topology_icons_ASA_5500__Adaptive_Security_Appliance__0_Layer1_0_FILL">
      <path fill="#FFFFFF" stroke="none" d=" M 39.75 -48.85 L 39.75 -45.05 41.65 -45.05 41.65 -45.35 47.65 -45.35 47.65 -47.1 41.65 -47.1 41.65 -48.85 39.75 -48.85 M 7.95 -58.2 L 7.95 -56.45 17.25 -56.45 17.25 -58.2 7.95 -58.2 Z"/>
    </g>
    <g id="FL_01_topology_icons_uid5aw2g3aa_01_topology_icons_up62giq53yl1koom5582iz01_topology_icons_e1q7rf2xl6l7ipz6wuceco01_topology_icons_Magnifying_Glass_0_Layer3_0_FILL">
      <path fill="#343125" fill-opacity="0.4" stroke="none" d=" M 36.1 -48.55 Q 34.15 -48.55 32.4 -48.2 26.1 -47.5 21.45 -42.85 21.4 -42.8 21.3 -42.7 15.7 -37.15 15.7 -29.2 15.7 -23.15 19 -18.4 L 3.55 -2.95 3.8 -2.75 Q 2.9 -1.8 2.9 -0.5 2.9 0.9 3.9 1.9 4.85 2.85 6.25 2.85 7.55 2.85 8.5 2 L 8.65 2.1 24.05 -13.35 Q 28.75 -10.05 34.8 -10.05 38.65 -10.05 42 -11.4 41 -10.95 39.95 -10.6 45.4 -11.7 49.65 -15.85 55.25 -21.5 55.25 -29.4 55.25 -37.35 49.65 -42.9 44 -48.55 36.1 -48.55 M 34.8 -46.35 L 34.85 -46.35 Q 41.9 -46.35 46.95 -41.3 51.95 -36.3 51.95 -29.2 51.95 -22.15 46.95 -17.1 45.25 -15.45 43.4 -14.35 40.35 -13.1 36.8 -13.1 31.4 -13.1 27.2 -16 25.9 -16.9 24.7 -18.1 23.55 -19.25 22.65 -20.55 19.65 -24.8 19.7 -30.2 19.7 -37.3 24.7 -42.3 26.35 -44 28.25 -45.1 31.25 -46.35 34.8 -46.35 Z"/>
    </g>
    <g id="FL_01_topology_icons_uid5aw2g3aa_01_topology_icons_up62giq53yl1koom5582iz01_topology_icons_e1q7rf2xl6l7ipz6wuceco01_topology_icons_Magnifying_Glass_0_Layer2_0_FILL">
      <path fill="#FFFFFF" stroke="none" d=" M 33.15 -51.1 Q 31.2 -51.1 29.45 -50.75 23.15 -50.05 18.5 -45.4 18.45 -45.35 18.35 -45.25 12.75 -39.7 12.75 -31.75 12.75 -25.7 16.05 -20.95 L 0.6 -5.5 0.85 -5.3 Q -0.05 -4.35 -0.05 -3.05 -0.05 -1.65 0.95 -0.65 1.9 0.3 3.3 0.3 4.6 0.3 5.55 -0.55 L 5.7 -0.45 21.1 -15.9 Q 25.8 -12.6 31.85 -12.6 35.7 -12.6 39.05 -13.95 38.05 -13.5 37 -13.15 42.45 -14.25 46.7 -18.4 52.3 -24.05 52.3 -31.95 52.3 -39.9 46.7 -45.45 41.05 -51.1 33.15 -51.1 M 31.85 -48.9 L 31.9 -48.9 Q 38.95 -48.9 44 -43.85 49 -38.85 49 -31.75 49 -24.7 44 -19.65 42.3 -18 40.45 -16.9 37.4 -15.65 33.85 -15.65 28.45 -15.65 24.25 -18.55 22.95 -19.45 21.75 -20.65 20.6 -21.8 19.7 -23.1 16.7 -27.35 16.75 -32.75 16.75 -39.85 21.75 -44.85 23.4 -46.55 25.3 -47.65 28.3 -48.9 31.85 -48.9 Z"/>
    </g>
    <g id="FL_01_topology_icons_uid5aw2g3aa_01_topology_icons_up62giq53yl1koom5582iz01_topology_icons_e1q7rf2xl6l7ipz6wuceco01_topology_icons_Magnifying_Glass_0_Layer1_0_FILL">
      <path fill="url(#Gradient_9)" stroke="none" d=" M 5.55 -0.55 L 0.85 -5.3 Q -0.05 -4.35 -0.05 -3.05 -0.05 -1.65 0.95 -0.65 1.9 0.3 3.3 0.3 4.6 0.3 5.55 -0.55 Z"/>
      <path fill="url(#Gradient_10)" stroke="none" d=" M 5.55 -0.55 L 5.7 -0.45 21.1 -15.9 Q 19.65 -16.9 18.35 -18.2 17.05 -19.55 16.05 -20.95 L 0.6 -5.5 0.85 -5.3 5.55 -0.55 Z"/>
      <path fill="url(#Gradient_11)" stroke="none" d=" M 31.85 -50.9 Q 30.6 -50.9 29.45 -50.75 23.05 -50 18.35 -45.25 12.75 -39.7 12.75 -31.75 12.75 -25.7 16.05 -20.95 17.05 -19.55 18.35 -18.2 19.65 -16.9 21.1 -15.9 25.8 -12.6 31.85 -12.6 35.7 -12.6 39.05 -13.95 42.5 -15.35 45.4 -18.2 51 -23.85 51 -31.75 51 -39.7 45.4 -45.25 39.75 -50.9 31.85 -50.9 M 31.85 -48.9 L 31.9 -48.9 Q 38.95 -48.9 44 -43.85 49 -38.85 49 -31.75 49 -24.7 44 -19.65 42.3 -18 40.45 -16.9 36.6 -14.65 31.85 -14.65 26.45 -14.65 22.25 -17.55 20.95 -18.45 19.75 -19.65 18.6 -20.8 17.7 -22.1 14.7 -26.35 14.75 -31.75 14.75 -38.85 19.75 -43.85 22.25 -46.4 25.3 -47.65 28.3 -48.9 31.85 -48.9 Z"/>
      <path fill="url(#Gradient_12)" stroke="none" d=" M 21.75 -44.85 Q 23.4 -46.55 25.3 -47.65 22.25 -46.4 19.75 -43.85 14.75 -38.85 14.75 -31.75 14.7 -26.35 17.7 -22.1 18.6 -20.8 19.75 -19.65 20.95 -18.45 22.25 -17.55 26.45 -14.65 31.85 -14.65 36.6 -14.65 40.45 -16.9 37.4 -15.65 33.85 -15.65 28.45 -15.65 24.25 -18.55 22.95 -19.45 21.75 -20.65 20.6 -21.8 19.7 -23.1 16.7 -27.35 16.75 -32.75 16.75 -39.85 21.75 -44.85 Z"/>
      <path fill="url(#Gradient_13)" stroke="none" d=" M 33.15 -51.1 Q 31.2 -51.1 29.45 -50.75 30.6 -50.9 31.85 -50.9 39.75 -50.9 45.4 -45.25 51 -39.7 51 -31.75 51 -23.85 45.4 -18.2 42.5 -15.35 39.05 -13.95 38.05 -13.5 37 -13.15 42.45 -14.25 46.7 -18.4 52.3 -24.05 52.3 -31.95 52.3 -39.9 46.7 -45.45 41.05 -51.1 33.15 -51.1 Z"/>
    </g>
    <g id="FL_01_topology_icons_uid5aw2g3aa_01_topology_icons_up62giq53yl1koom5582iz01_topology_icons_e1q7rf2xl6l7ipz6wuceco01_topology_icons_Magnifying_Glass_0_Layer0_0_FILL">
      <path fill="#FFFFFF" fill-opacity="0.30196078431372547" stroke="none" d=" M 33.15 -51.1 Q 31.2 -51.1 29.45 -50.75 23.15 -50.05 18.5 -45.4 18.45 -45.35 18.35 -45.25 12.75 -39.7 12.75 -31.75 12.75 -25.7 16.05 -20.95 L 0.6 -5.5 0.85 -5.3 Q -0.05 -4.35 -0.05 -3.05 -0.05 -1.65 0.95 -0.65 1.9 0.3 3.3 0.3 4.6 0.3 5.55 -0.55 L 5.7 -0.45 21.1 -15.9 Q 25.8 -12.6 31.85 -12.6 35.7 -12.6 39.05 -13.95 38.05 -13.5 37 -13.15 42.45 -14.25 46.7 -18.4 52.3 -24.05 52.3 -31.95 52.3 -39.9 46.7 -45.45 41.05 -51.1 33.15 -51.1 M 31.85 -48.9 L 31.9 -48.9 Q 38.95 -48.9 44 -43.85 49 -38.85 49 -31.75 49 -24.7 44 -19.65 42.3 -18 40.45 -16.9 37.4 -15.65 33.85 -15.65 28.45 -15.65 24.25 -18.55 22.95 -19.45 21.75 -20.65 20.6 -21.8 19.7 -23.1 16.7 -27.35 16.75 -32.75 16.75 -39.85 21.75 -44.85 23.4 -46.55 25.3 -47.65 28.3 -48.9 31.85 -48.9 Z"/>
    </g>
    <path id="FL_05_shapes_uidrr0fjcf5_05_shapes_sknslong9ofhcyerzzl8n05_shapes_pyarom77cvye01aps4l905_shapes_z_firewall_square_bottom_0_Layer2_0_1_STROKES" stroke="#000000" stroke-opacity="0.5019607843137255" stroke-width="0.5" stroke-linejoin="round" stroke-linecap="round" fill="none" d=" M 18 -21.15 L 18 -14.15 26.8 -14.15 35.6 -14.15 35.6 -21.15 26.8 -21.15 18 -21.15 9.2 -21.15 0.4 -21.15 0.4 -14.15 9.2 -14.15 18 -14.15 M 63.4 -12.8 L 61.1 -9.95 56.1 -3.75 54.1 -1.225 53.2 -0.1 35.6 -0.15 18 -0.15 0.4 -0.15 0.4 -7.15 0.4 -14.15 M 0.4 -7.15 L 9.2 -7.15 9.2 -14.15 M 35.6 -0.15 L 35.6 -7.15 26.8 -7.15 18 -7.15 18 -0.15 M 9.2 -7.15 L 18 -7.15 M 26.8 -7.15 L 26.8 -14.15 M 58.6 -34.65 L 58.6 -27.65 58.75 -27.8 61.1 -30.95 63.4 -34 M 56.1 -24.35 L 54.1 -22.1 53.375 -21.3 53.2 -21.1 53.2 -14.15 53.25 -14.05 53.25 -14.1 54.1 -15.075 56.1 -17.35 56.1 -24.35 58.6 -27.65 M 53.2 -21.1 L 53.2 -21.15 44.4 -21.15 35.6 -21.15 M 53.2 -21.15 L 53.2 -21.2 53.2 -27.75 M 53.2 -21.2 L 53.375 -21.3 M 53.25 -14.05 L 53.2 -14.1 53.2 -7.2 53.2 -7.15 53.2 -7.1 54.1 -8.1 56.1 -10.35 58.6 -13.65 58.6 -20.65 56.25 -17.5 56.1 -17.35 M 53.2 -7.1 L 53.2 -0.1 M 56.1 -3.75 L 56.1 -10.35 M 35.6 -14.15 L 44.4 -14.15 53.2 -14.15 M 44.4 -14.15 L 44.4 -7.15 53.2 -7.15 M 63.4 -20 L 61.1 -16.95 61.1 -9.95 M 58.6 -20.65 L 61.1 -23.95 61.1 -30.95 M 58.6 -13.65 L 61.1 -16.95 M 63.4 -27 L 61.1 -23.95 M 44.4 -7.15 L 35.6 -7.15"/>
    <path id="FL_05_shapes_uidrr0fjcf5_05_shapes_sknslong9ofhcyerzzl8n05_shapes_pyarom77cvye01aps4l905_shapes_z_firewall_square_bottom_0_Layer2_0_2_STROKES" stroke="#000000" stroke-opacity="0.5019607843137255" stroke-width="0.5" stroke-linejoin="round" stroke-linecap="butt" fill="none" d=" M 9.2 -21.15 L 9.2 -27.7 M 0.4 -21.15 L 0.4 -27.8 M 26.8 -27.7 L 26.8 -21.15 M 44.4 -21.15 L 44.4 -27.7"/>
    <path id="FL_05_shapes_uidrr0fjcf5_05_shapes_sknslong9ofhcyerzzl8n05_shapes_pyarom77cvye01aps4l905_shapes_z_firewall_square_bottom_0_Layer1_0_1_STROKES" stroke="#FFFFFF" stroke-opacity="0.7019607843137254" stroke-width="0.5" stroke-linejoin="round" stroke-linecap="round" fill="none" d=" M 18.2 -20.85 L 18.2 -13.85 27 -13.85 35.8 -13.85 35.8 -20.85 27 -20.85 18.2 -20.85 9.4 -20.85 0.6 -20.85 0.6 -13.85 9.4 -13.85 18.2 -13.85 M 0.6 -13.85 L 0.6 -6.85 9.4 -6.85 9.4 -13.85 M 9.4 -6.85 L 18.2 -6.85 27 -6.85 27 -13.85 M 27 -6.85 L 35.8 -6.85 44.6 -6.85 44.6 -13.85 35.8 -13.85 M 0.6 -20.85 L 0.6 -27.7 M 9.4 -20.85 L 9.4 -27.75 M 27 -27.75 L 27 -20.85 M 58.8 -34.55 L 58.8 -27.35 58.95 -27.5 61.3 -30.65 63.6 -33.7 M 54.1 -21.575 L 53.6 -21 53.4 -20.8 53.4 -13.85 53.45 -13.75 53.45 -13.8 54.1 -14.55 56.3 -17.05 56.3 -24.05 54.1 -21.575 Z M 53.4 -27.85 L 53.4 -20.9 53.6 -21 M 53.4 -20.8 L 53.4 -20.85 44.6 -20.85 35.8 -20.85 M 53.4 -20.85 L 53.4 -20.9 M 53.45 -13.75 L 53.4 -13.8 53.4 -6.9 53.4 -6.85 53.4 -6.8 54.1 -7.575 56.3 -10.05 58.8 -13.35 58.8 -20.35 56.45 -17.2 56.3 -17.05 M 63.6 -12.5 L 61.3 -9.65 56.3 -3.45 54.1 -0.675 53.4 0.2 35.8 0.15 18.2 0.15 0.6 0.15 0.6 -6.85 M 56.3 -3.45 L 56.3 -10.05 M 44.6 -13.85 L 53.4 -13.85 M 53.4 -6.85 L 44.6 -6.85 M 63.6 -19.7 L 61.3 -16.65 61.3 -9.65 M 44.6 -27.75 L 44.6 -20.85 M 56.3 -24.05 L 58.8 -27.35 M 63.6 -26.7 L 61.3 -23.65 58.8 -20.35 M 58.8 -13.35 L 61.3 -16.65 M 61.3 -23.65 L 61.3 -30.65 M 18.2 -6.85 L 18.2 0.15 M 35.8 -6.85 L 35.8 0.15 M 53.4 0.2 L 53.4 -6.8"/>
  </defs>
  <g transform="matrix( 1, 0, 0, 1, -16,-50) ">
    <g id="slide01" transform="matrix( 1, 0, 0, 1, 0,0) ">
      <g filter="url(#Filter_1)" transform="matrix( 1, 0, 0, 1, 16,50) ">
        <g transform="matrix( 1.06439208984375, 0, 0, 1.4000091552734375, 10,10.75) ">
          <g transform="matrix( 1, 0, 0, 1, 0.55,0.7) ">
            <g transform="matrix(1, 0, 0, 1, 0, 0)">
              <path fill="#FFFFFF" stroke="none" d=" M 589.45 -0.7 L -0.55 -0.7 -0.55 119.3 589.45 119.3 589.45 -0.7 Z"/>
            </g>
          </g>
        </g>
      </g>
      <g transform="matrix( 0.431640625, 0, 0, 0.4311065673828125, 232.9,107.95) ">
        <g transform="matrix( 1, 0, 0, 1, 0,0) ">
          <g transform="matrix( 1, 0, 0, 1, 0,0) ">
            <g transform="matrix( 1, 0, 0, 1, 0,0) ">
              <g transform="matrix(1, 0, 0, 1, 0, 0)">
                <path fill="#237AA7" stroke="none" d=" M 79.05 -61.25 Q 65.5 -66.75 46.3 -66.75 27.1 -66.75 13.55 -61.25 0.65 -56 0.05 -48.75 0 -48.45 0 -48.15 L 0 -18.5 Q 0.2 -10.9 13.55 -5.5 27.1 0 46.3 0 65.5 0 79.05 -5.5 92.05 -10.8 92.65 -18.15 L 92.6 -48.7 Q 91.95 -56 79.05 -61.25 Z"/>
              </g>
            </g>
            <g transform="matrix( 1, 0, 0, 1, 0,0) ">
              <g transform="matrix(1, 0, 0, 1, 0, 0)">
                <path fill="url(#Gradient_1)" stroke="none" d=" M 13.55 -34.75 Q 7.35 -37.25 4 -40.25 0.1 -43.7 0 -47.75 L 0 -18.5 Q 0.15 -13.7 5.55 -9.75 8.7 -7.5 13.55 -5.5 27.1 0 46.3 0 65.5 0 79.05 -5.5 92.05 -10.8 92.65 -18.15 L 92.6 -47.4 Q 92.05 -40.05 79.05 -34.75 65.5 -29.25 46.3 -29.25 27.1 -29.25 13.55 -34.75 Z"/>
                <path fill="url(#Gradient_2)" stroke="none" d=" M 79.05 -61.25 Q 65.5 -66.75 46.3 -66.75 27.1 -66.75 13.55 -61.25 0.65 -56 0.05 -48.75 0 -48.45 0 -48.15 L 0 -47.75 Q 0.1 -43.7 4 -40.25 7.35 -37.25 13.55 -34.75 27.1 -29.25 46.3 -29.25 65.5 -29.25 79.05 -34.75 92.05 -40.05 92.6 -47.4 L 92.6 -48.7 Q 92.4 -50.95 91.05 -53 88 -57.6 79.05 -61.25 Z"/>
              </g>
            </g>
          </g>
          <g transform="matrix( 1, 0, 0, 1, 46.05,-47.85) ">
            <g transform="matrix( 1, 0, 0, 1, 0,0) ">
              <g transform="matrix(1, 0, 0, 1, 0, 0)">
                <path fill="#FFFFFF" stroke="none" d=" M -25.65 -13.2 L -31.3 -10.85 -17.4 -4.9 -19.65 -3.95 -2.55 -1.4 -9.1 -8.3 -11.6 -7.35 -19.95 -10.85 Q -22.7322265625 -11.98671875 -25.55 -13.15 L -25.65 -13.2 M 0.75 2.7 L 0.7 2.65 -4.9 0.35 -19.1 6.2 -21.5 5.25 -28.55 12.25 -11.15 9.55 -12.3 9.05 Q -12.876171875 8.8150390625 -13.45 8.55 L -13.5 8.55 -13.5 8.5 0.75 2.7 M 26.15 13 L 31.8 10.65 17.9 4.7 20.15 3.75 3.05 1.15 9.6 8.1 12.1 7.15 20.45 10.6 Q 23.2322265625 11.78671875 26 12.95 L 26.15 13 M 0.25 -2.35 L 5.8 -0.05 20.05 -5.9 22.4 -4.9 29.5 -11.9 12.1 -9.2 13.25 -8.7 Q 13.826171875 -8.4650390625 14.4 -8.25 L 14.45 -8.2 14.4 -8.2 0.2 -2.35 0.25 -2.35 Z"/>
              </g>
            </g>
            <g transform="matrix( 1, 0, 0, 1, 0,0) ">
              <g transform="matrix(1, 0, 0, 1, 0, 0)">
                <path fill="#000000" fill-opacity="0.5019607843137255" stroke="none" d=" M -12.9 9.8 L -11.15 9.55 -13.45 8.55 -13.5 9.5 -13.5 9.55 -13.45 9.55 Q -13.1595703125 9.696484375 -12.9 9.8 M -17.4 -3.9 L -17.4 -4.9 -19.65 -3.95 -17.9 -3.7 -17.4 -3.9 M -31.3 -10.85 L -30.15 -10.35 -25.65 -12.2 -25.55 -12.15 Q -22.7322265625 -10.98671875 -19.95 -9.85 L -11.6 -6.35 -9.1 -7.3 -3.65 -1.55 -2.55 -1.4 -9.1 -8.3 -11.6 -7.35 -19.95 -10.85 Q -22.7322265625 -11.98671875 -25.55 -13.15 L -25.65 -13.2 -31.3 -10.85 M 20.15 3.75 L 3.05 1.15 4.15 2.35 18.4 4.5 20.15 3.75 M 0.75 2.7 L 0.7 2.65 -4.9 0.35 -19.1 6.2 -21.5 5.25 -28.55 12.25 -27.35 12.05 -21.5 6.25 -19.1 7.2 -4.9 1.35 -0.45 3.2 0.75 2.7 M 30.6 11.15 L 31.8 10.65 17.9 4.7 17.9 5.7 30.6 11.15 M 12.1 -9.2 L 13.25 -8.7 Q 13.5345703125 -8.583984375 13.8 -8.5 L 28.3 -10.75 29.5 -11.9 12.1 -9.2 M 0.2 -2.35 L 0.25 -2.35 1.4 -1.85 14.4 -7.2 14.45 -7.2 14.45 -8.15 0.2 -2.35 Z"/>
              </g>
            </g>
          </g>
        </g>
        <g transform="matrix( 1, 0, 0, 1, 11.85,-78.55) ">
          <g transform="matrix( 1, 0, 0, 1, 0,0) ">
            <g transform="matrix(1, 0, 0, 1, 0, 0)">
              <path fill="#237AA7" stroke="none" d=" M 1.7 -14.6 L 2.8 -14.6 2.8 -21.25 -2.85 -21.25 -2.85 -14.6 -1.3 -14.6 -1.3 3.05 -2.85 3.05 -2.85 19.75 Q -0.3 22.7 2.8 19.75 L 2.8 3.05 1.7 3.05 1.7 -14.6 Z"/>
            </g>
          </g>
          <g transform="matrix( 1, 0, 0, 1, 0,0) ">
            <g transform="matrix(1, 0, 0, 1, 0, 0)">
              <path fill="url(#Gradient_3)" stroke="none" d=" M 2.75 -14.7 L 2.75 -21.35 -2.9 -21.35 -2.9 -14.7 -1.35 -14.7 -1.35 2.95 -2.9 2.95 -2.9 19.65 Q -0.35 22.6 2.75 19.65 L 2.75 2.95 1.65 2.95 1.65 -14.7 2.75 -14.7 Z"/>
            </g>
          </g>
        </g>
        <g transform="matrix( 1, 0, 0, 1, 80.9,-78.55) ">
          <g transform="matrix( 1, 0, 0, 1, 0,0) ">
            <g transform="matrix(1, 0, 0, 1, 0, 0)">
              <path fill="#237AA7" stroke="none" d=" M 1.7 -14.6 L 2.8 -14.6 2.8 -21.25 -2.85 -21.25 -2.85 -14.6 -1.3 -14.6 -1.3 3.05 -2.85 3.05 -2.85 19.75 Q -0.3 22.7 2.8 19.75 L 2.8 3.05 1.7 3.05 1.7 -14.6 Z"/>
            </g>
          </g>
          <g transform="matrix( 1, 0, 0, 1, 0,0) ">
            <g transform="matrix(1, 0, 0, 1, 0, 0)">
              <path fill="url(#Gradient_3)" stroke="none" d=" M 2.75 -14.7 L 2.75 -21.35 -2.9 -21.35 -2.9 -14.7 -1.35 -14.7 -1.35 2.95 -2.9 2.95 -2.9 19.65 Q -0.35 22.6 2.75 19.65 L 2.75 2.95 1.65 2.95 1.65 -14.7 2.75 -14.7 Z"/>
            </g>
          </g>
        </g>
      </g>
      <g transform="matrix( 0.6299285888671875, 0, 0, 0.62945556640625, 293.2,189.25) ">
        <g transform="matrix( 1, 0, 0, 1, 0,0) ">
          <g transform="matrix( 1, 0, 0, 1, 0,0) ">
            <g transform="matrix(1, 0, 0, 1, 0, 0)">
              <path fill="#237AA7" stroke="none" d=" M 15 -64.5 L 0 -53 0 0 53 0 63.5 -13.15 63.5 -64.5 15 -64.5 Z"/>
            </g>
          </g>
          <g transform="matrix( 1, 0, 0, 1, 0,0) ">
            <g transform="matrix(1, 0, 0, 1, 0, 0)">
              <path fill="#000000" fill-opacity="0.011764705882352941" stroke="none" d=" M 53 -53 L 0 -53 0 0 53 0 53 -53 Z"/>
              <path fill="url(#Gradient_4)" stroke="none" d=" M 53 -53 L 63.5 -64.5 15 -64.5 0 -53 53 -53 Z"/>
              <path fill="url(#Gradient_5)" stroke="none" d=" M 63.5 -64.5 L 53 -53 53 0 63.5 -13.15 63.5 -64.5 Z"/>
            </g>
          </g>
        </g>
        <g transform="matrix( 0.733001708984375, 0, 0, 0.733001708984375, 26.4,-26.75) ">
          <g transform="matrix( 1, 0, 0, 1, 0,0) ">
            <g transform="matrix(1, 0, 0, 1, 0, 0)">
              <path fill="#000000" fill-opacity="0.5019607843137255" stroke="none" d=" M 17.3 -17.3 L 18.65 -15.9 12.6 -9.85 Q 8.9265625 -12.9498046875 4.1 -13.4 L 4.1 -20.95 6 -20.95 2.45 -30.55 -1.05 -20.95 0.85 -20.95 0.85 -13.4 Q -3.9341796875 -12.977734375 -7.65 -9.95 L -13.7 -15.95 -12.35 -17.35 -21.65 -21.6 -17.35 -12.35 -16 -13.7 -9.95 -7.65 Q -13.0205078125 -3.8904296875 -13.45 0.95 L -21 0.95 -21 -1 -30.6 2.55 -21 6.1 -21 4.15 -13.45 4.15 Q -12.9669921875 8.952734375 -9.9 12.6 L -16 18.75 -17.35 17.35 -21.65 26.65 -12.35 22.35 -13.7 21 -7.6 14.85 Q -3.9072265625 17.9359375 0.85 18.35 L 0.85 25.95 -1.05 25.95 2.45 35.55 6 25.95 4.05 25.95 4.05 18.35 Q 8.857421875 17.919140625 12.5 14.85 L 18.65 20.95 17.3 22.35 26.6 26.6 22.3 17.3 20.9 18.7 14.8 12.55 Q 17.876171875 8.9189453125 18.3 4.15 L 25.9 4.15 25.9 6.1 35.5 2.55 25.9 -1 25.9 0.95 18.3 0.95 Q 17.92890625 -3.8462890625 14.85 -7.55 L 20.95 -13.65 22.3 -12.3 26.6 -21.6 17.3 -17.3 Z"/>
            </g>
          </g>
          <g transform="matrix( 1, 0, 0, 1, 0,0) ">
            <g transform="matrix(1, 0, 0, 1, 0, 0)">
              <path fill="#FFFFFF" stroke="none" d=" M 14.8 -19.8 L 16.15 -18.4 10.1 -12.35 Q 6.4265625 -15.4498046875 1.6 -15.9 L 1.6 -23.45 3.5 -23.45 -0.05 -33.05 -3.55 -23.45 -1.65 -23.45 -1.65 -15.9 Q -6.4341796875 -15.477734375 -10.15 -12.45 L -16.2 -18.45 -14.85 -19.85 -24.15 -24.1 -19.85 -14.85 -18.5 -16.2 -12.45 -10.15 Q -15.5205078125 -6.3904296875 -15.95 -1.55 L -23.5 -1.55 -23.5 -3.5 -33.1 0.05 -23.5 3.6 -23.5 1.65 -15.95 1.65 Q -15.4669921875 6.452734375 -12.4 10.1 L -18.5 16.25 -19.85 14.85 -24.15 24.15 -14.85 19.85 -16.2 18.5 -10.1 12.35 Q -6.4072265625 15.4359375 -1.65 15.85 L -1.65 23.45 -3.55 23.45 -0.05 33.05 3.5 23.45 1.55 23.45 1.55 15.85 Q 6.357421875 15.419140625 10 12.35 L 16.15 18.45 14.8 19.85 24.1 24.1 19.8 14.8 18.4 16.2 12.3 10.05 Q 15.376171875 6.4189453125 15.8 1.65 L 23.4 1.65 23.4 3.6 33 0.05 23.4 -3.5 23.4 -1.55 15.8 -1.55 Q 15.42890625 -6.3462890625 12.35 -10.05 L 18.45 -16.15 19.8 -14.8 24.1 -24.1 14.8 -19.8 Z"/>
            </g>
          </g>
        </g>
      </g>
      <g transform="matrix( 0.3883514404296875, 0, 0, 0.387908935546875, 386.6,106) ">
        <g transform="matrix( 1, 0, 0, 1, 0,0) ">
          <g transform="matrix( 1, 0, 0, 1, 0,0) ">
            <g transform="matrix(1, 0, 0, 1, 0, 0)">
              <path fill="#237AA7" stroke="none" d=" M 39.25 -62 L 0 -31 0 0 97.25 0 128.75 -32.05 128.75 -62 39.25 -62 Z"/>
            </g>
          </g>
          <g transform="matrix( 1, 0, 0, 1, 0,0) ">
            <g transform="matrix(1, 0, 0, 1, 0, 0)">
              <path fill="#000000" fill-opacity="0.011764705882352941" stroke="none" d=" M 97.25 -31 L 0 -31 0 0 97.25 0 97.25 -31 Z"/>
              <path fill="url(#Gradient_6)" stroke="none" d=" M 102.9 -37.2 L 97.25 -31 97.25 0 128.75 -32.05 128.75 -62 102.9 -37.2 Z"/>
              <path fill="url(#Gradient_7)" stroke="none" d=" M 39.25 -62 L 0 -31 97.25 -31 102.9 -37.2 128.75 -62 39.25 -62 Z"/>
            </g>
          </g>
        </g>
        <g transform="matrix( 1, 0, 0, 1, 64.55,-47.15) ">
          <g transform="matrix( 1, 0, 0, 1, 0,0) ">
            <g transform="matrix(1, 0, 0, 1, 0, 0)">
              <path fill="#FFFFFF" stroke="none" d=" M -29.2 11.6 L -1.25 11.55 1.55 8.9 -26.2 8.95 -24.25 7.35 -50.7 10.25 -31.2 13.15 -29.2 11.6 M 15.85 3.95 L 14.1 5.45 39.7 2.65 20.05 -0.05 18.55 1.45 -8.7 1.4 -11.6 3.9 15.85 3.95 M 3.9 -9.55 L 30.25 -9.55 28.65 -8.15 53.05 -10.8 34.2 -13.3 32.7 -11.95 6.55 -11.85 3.9 -9.55 M 14.1 -2.55 L 16.75 -5.05 -9.85 -4.95 -8.25 -6.45 -33.35 -3.8 -14.45 -1 -12.75 -2.55 14.1 -2.55 Z"/>
            </g>
          </g>
          <g transform="matrix( 1, 0, 0, 1, 0,0) ">
            <g transform="matrix(1, 0, 0, 1, 0, 0)">
              <path fill="#343125" fill-opacity="0.7529411764705882" stroke="none" d=" M 15.9 4 L 14.1 5.45 15.45 5.3 15.85 4.95 15.9 4 M -8.7 1.4 L -11.6 3.9 -10.45 3.9 -8.7 2.4 18.55 2.45 20.05 0.95 35.65 3.1 39.7 2.65 20.05 -0.05 18.55 1.45 -8.7 1.4 M -26.15 8.95 L -26.2 9.95 0.5 9.9 1.55 8.9 -26.15 8.95 M -25.65 8.5 L -24.25 7.35 -50.7 10.25 -46.85 10.85 -25.65 8.5 M -33.35 -3.8 L -29.4 -3.2 -9.5 -5.3 -8.25 -6.45 -33.35 -3.8 M 30.25 -8.55 L 30.3 -9.5 28.65 -8.15 30 -8.3 30.25 -8.55 M 6.55 -11.85 L 3.9 -9.55 5.05 -9.55 6.55 -10.85 32.7 -10.95 34.2 -12.3 48.9 -10.35 53.05 -10.8 34.2 -13.3 32.7 -11.95 6.55 -11.85 M 15.7 -4.05 L 16.75 -5.05 -9.85 -4.95 -9.85 -3.95 15.7 -4.05 Z"/>
            </g>
          </g>
        </g>
      </g>
      <g transform="matrix( 0.431732177734375, 0, 0, 0.43145751953125, 553.65,107.95) ">
        <g transform="matrix( 1, 0, 0, 1, 0,0) ">
          <g transform="matrix( 1, 0, 0, 1, 0,0) ">
            <g transform="matrix(1, 0, 0, 1, 0, 0)">
              <path fill="#237AA7" stroke="none" d=" M 79.05 -61.25 Q 65.5 -66.75 46.3 -66.75 27.1 -66.75 13.55 -61.25 0.65 -56 0.05 -48.75 0 -48.45 0 -48.15 L 0 -18.5 Q 0.2 -10.9 13.55 -5.5 27.1 0 46.3 0 65.5 0 79.05 -5.5 92.05 -10.8 92.65 -18.15 L 92.6 -48.7 Q 91.95 -56 79.05 -61.25 Z"/>
            </g>
          </g>
          <g transform="matrix( 1, 0, 0, 1, 0,0) ">
            <g transform="matrix(1, 0, 0, 1, 0, 0)">
              <path fill="url(#Gradient_1)" stroke="none" d=" M 13.55 -34.75 Q 7.35 -37.25 4 -40.25 0.1 -43.7 0 -47.75 L 0 -18.5 Q 0.15 -13.7 5.55 -9.75 8.7 -7.5 13.55 -5.5 27.1 0 46.3 0 65.5 0 79.05 -5.5 92.05 -10.8 92.65 -18.15 L 92.6 -47.4 Q 92.05 -40.05 79.05 -34.75 65.5 -29.25 46.3 -29.25 27.1 -29.25 13.55 -34.75 Z"/>
              <path fill="url(#Gradient_2)" stroke="none" d=" M 79.05 -61.25 Q 65.5 -66.75 46.3 -66.75 27.1 -66.75 13.55 -61.25 0.65 -56 0.05 -48.75 0 -48.45 0 -48.15 L 0 -47.75 Q 0.1 -43.7 4 -40.25 7.35 -37.25 13.55 -34.75 27.1 -29.25 46.3 -29.25 65.5 -29.25 79.05 -34.75 92.05 -40.05 92.6 -47.4 L 92.6 -48.7 Q 92.4 -50.95 91.05 -53 88 -57.6 79.05 -61.25 Z"/>
            </g>
          </g>
        </g>
        <g transform="matrix( 1, 0, 0, 1, 46.05,-47.85) ">
          <g transform="matrix( 1, 0, 0, 1, 0,0) ">
            <g transform="matrix(1, 0, 0, 1, 0, 0)">
              <path fill="#FFFFFF" stroke="none" d=" M -25.65 -13.2 L -31.3 -10.85 -17.4 -4.9 -19.65 -3.95 -2.55 -1.4 -9.1 -8.3 -11.6 -7.35 -19.95 -10.85 Q -22.7322265625 -11.98671875 -25.55 -13.15 L -25.65 -13.2 M 0.75 2.7 L 0.7 2.65 -4.9 0.35 -19.1 6.2 -21.5 5.25 -28.55 12.25 -11.15 9.55 -12.3 9.05 Q -12.876171875 8.8150390625 -13.45 8.55 L -13.5 8.55 -13.5 8.5 0.75 2.7 M 26.15 13 L 31.8 10.65 17.9 4.7 20.15 3.75 3.05 1.15 9.6 8.1 12.1 7.15 20.45 10.6 Q 23.2322265625 11.78671875 26 12.95 L 26.15 13 M 0.25 -2.35 L 5.8 -0.05 20.05 -5.9 22.4 -4.9 29.5 -11.9 12.1 -9.2 13.25 -8.7 Q 13.826171875 -8.4650390625 14.4 -8.25 L 14.45 -8.2 14.4 -8.2 0.2 -2.35 0.25 -2.35 Z"/>
            </g>
          </g>
          <g transform="matrix( 1, 0, 0, 1, 0,0) ">
            <g transform="matrix(1, 0, 0, 1, 0, 0)">
              <path fill="#000000" fill-opacity="0.5019607843137255" stroke="none" d=" M -12.9 9.8 L -11.15 9.55 -13.45 8.55 -13.5 9.5 -13.5 9.55 -13.45 9.55 Q -13.1595703125 9.696484375 -12.9 9.8 M -17.4 -3.9 L -17.4 -4.9 -19.65 -3.95 -17.9 -3.7 -17.4 -3.9 M -31.3 -10.85 L -30.15 -10.35 -25.65 -12.2 -25.55 -12.15 Q -22.7322265625 -10.98671875 -19.95 -9.85 L -11.6 -6.35 -9.1 -7.3 -3.65 -1.55 -2.55 -1.4 -9.1 -8.3 -11.6 -7.35 -19.95 -10.85 Q -22.7322265625 -11.98671875 -25.55 -13.15 L -25.65 -13.2 -31.3 -10.85 M 20.15 3.75 L 3.05 1.15 4.15 2.35 18.4 4.5 20.15 3.75 M 0.75 2.7 L 0.7 2.65 -4.9 0.35 -19.1 6.2 -21.5 5.25 -28.55 12.25 -27.35 12.05 -21.5 6.25 -19.1 7.2 -4.9 1.35 -0.45 3.2 0.75 2.7 M 30.6 11.15 L 31.8 10.65 17.9 4.7 17.9 5.7 30.6 11.15 M 12.1 -9.2 L 13.25 -8.7 Q 13.5345703125 -8.583984375 13.8 -8.5 L 28.3 -10.75 29.5 -11.9 12.1 -9.2 M 0.2 -2.35 L 0.25 -2.35 1.4 -1.85 14.4 -7.2 14.45 -7.2 14.45 -8.15 0.2 -2.35 Z"/>
            </g>
          </g>
        </g>
      </g>
      <g transform="matrix( 0.471710205078125, 0, 0, 0.4715423583984375, 497.15,188.9) ">
        <g transform="matrix( 1, 0, 0, 1, 0,-27.55) ">
          <g transform="matrix( 1, 0, 0, 1, 0,0) ">
            <g transform="matrix(1, 0, 0, 1, 0, 0)">
              <path fill="#237AA7" stroke="none" d=" M 15 -64.5 L 0 -53 0 0 53 0 63.5 -13.15 63.5 -64.5 15 -64.5 Z"/>
            </g>
          </g>
          <g transform="matrix( 1, 0, 0, 1, 0,0) ">
            <g transform="matrix(1, 0, 0, 1, 0, 0)">
              <path fill="#000000" fill-opacity="0.011764705882352941" stroke="none" d=" M 53 -53 L 0 -53 0 0 53 0 53 -53 Z"/>
              <path fill="url(#Gradient_4)" stroke="none" d=" M 53 -53 L 63.5 -64.5 15 -64.5 0 -53 53 -53 Z"/>
              <path fill="url(#Gradient_5)" stroke="none" d=" M 63.5 -64.5 L 53 -53 53 0 63.5 -13.15 63.5 -64.5 Z"/>
            </g>
          </g>
        </g>
        <g transform="matrix( 1, 0, 0, 1, 0,0) ">
          <g transform="matrix( 1, 0, 0, 1, 0,0) ">
            <g transform="matrix(1, 0, 0, 1, 0, 0)">
              <path fill="#990000" stroke="none" d=" M 63.4 -40.75 L 63.35 -40.7 54.35 -29.7 54.1 -29.4 53.1 -28.2 52.8 -27.8 52.7 -27.8 51.8 -27.8 0 -27.8 0 0 52.7 0 52.8 0 53.1 -0.4 54.1 -1.6 54.35 -1.9 63.35 -12.9 63.4 -12.95 63.4 -40.75 Z"/>
            </g>
          </g>
          <g transform="matrix( 1, 0, 0, 1, 0,0) ">
            <g transform="matrix(1, 0, 0, 1, 0, 0)">
              <path fill="#000000" fill-opacity="0.10196078431372549" stroke="none" d=" M 52.8 0 L 53 0 53 -0.25 52.8 0 M 52.7 -27.8 L 0 -27.8 0 0 52.7 0 52.7 -27.8 Z"/>
              <path fill="url(#Gradient_8)" stroke="none" d=" M 53.55 -0.95 L 53.5 -0.9 53.5 -0.65 53.55 -0.7 53.55 -0.95 Z"/>
            </g>
          </g>
          <g transform="matrix( 1, 0, 0, 1, 0,0) ">
            <path stroke="#000000" stroke-opacity="0.5019607843137255" stroke-width="0.5" stroke-linejoin="round" stroke-linecap="round" fill="none" d=" M 18 -21.15 L 18 -14.15 26.8 -14.15 35.6 -14.15 35.6 -21.15 26.8 -21.15 18 -21.15 9.2 -21.15 0.4 -21.15 0.4 -14.15 9.2 -14.15 18 -14.15 M 63.4 -12.8 L 61.1 -9.95 56.1 -3.75 54.1 -1.225 53.2 -0.1 35.6 -0.15 18 -0.15 0.4 -0.15 0.4 -7.15 0.4 -14.15 M 0.4 -7.15 L 9.2 -7.15 9.2 -14.15 M 35.6 -0.15 L 35.6 -7.15 26.8 -7.15 18 -7.15 18 -0.15 M 9.2 -7.15 L 18 -7.15 M 26.8 -7.15 L 26.8 -14.15 M 58.6 -34.65 L 58.6 -27.65 58.75 -27.8 61.1 -30.95 63.4 -34 M 56.1 -24.35 L 54.1 -22.1 53.375 -21.3 53.2 -21.1 53.2 -14.15 53.25 -14.05 53.25 -14.1 54.1 -15.075 56.1 -17.35 56.1 -24.35 58.6 -27.65 M 53.2 -21.1 L 53.2 -21.15 44.4 -21.15 35.6 -21.15 M 53.2 -21.15 L 53.2 -21.2 53.2 -27.75 M 53.2 -21.2 L 53.375 -21.3 M 53.25 -14.05 L 53.2 -14.1 53.2 -7.2 53.2 -7.15 53.2 -7.1 54.1 -8.1 56.1 -10.35 58.6 -13.65 58.6 -20.65 56.25 -17.5 56.1 -17.35 M 53.2 -7.1 L 53.2 -0.1 M 56.1 -3.75 L 56.1 -10.35 M 35.6 -14.15 L 44.4 -14.15 53.2 -14.15 M 44.4 -14.15 L 44.4 -7.15 53.2 -7.15 M 63.4 -20 L 61.1 -16.95 61.1 -9.95 M 58.6 -20.65 L 61.1 -23.95 61.1 -30.95 M 58.6 -13.65 L 61.1 -16.95 M 63.4 -27 L 61.1 -23.95 M 44.4 -7.15 L 35.6 -7.15" transform="matrix(1, 0, 0, 1, 0, 0)"/>
            <path stroke="#000000" stroke-opacity="0.5019607843137255" stroke-width="0.5" stroke-linejoin="round" stroke-linecap="butt" fill="none" d=" M 9.2 -21.15 L 9.2 -27.7 M 0.4 -21.15 L 0.4 -27.8 M 26.8 -27.7 L 26.8 -21.15 M 44.4 -21.15 L 44.4 -27.7" transform="matrix(1, 0, 0, 1, 0, 0)"/>
          </g>
          <g transform="matrix( 1, 0, 0, 1, 0,0) ">
            <path stroke="#FFFFFF" stroke-opacity="0.7019607843137254" stroke-width="0.5" stroke-linejoin="round" stroke-linecap="round" fill="none" d=" M 18.2 -20.85 L 18.2 -13.85 27 -13.85 35.8 -13.85 35.8 -20.85 27 -20.85 18.2 -20.85 9.4 -20.85 0.6 -20.85 0.6 -13.85 9.4 -13.85 18.2 -13.85 M 0.6 -13.85 L 0.6 -6.85 9.4 -6.85 9.4 -13.85 M 9.4 -6.85 L 18.2 -6.85 27 -6.85 27 -13.85 M 27 -6.85 L 35.8 -6.85 44.6 -6.85 44.6 -13.85 35.8 -13.85 M 0.6 -20.85 L 0.6 -27.7 M 9.4 -20.85 L 9.4 -27.75 M 27 -27.75 L 27 -20.85 M 58.8 -34.55 L 58.8 -27.35 58.95 -27.5 61.3 -30.65 63.6 -33.7 M 54.1 -21.575 L 53.6 -21 53.4 -20.8 53.4 -13.85 53.45 -13.75 53.45 -13.8 54.1 -14.55 56.3 -17.05 56.3 -24.05 54.1 -21.575 Z M 53.4 -27.85 L 53.4 -20.9 53.6 -21 M 53.4 -20.8 L 53.4 -20.85 44.6 -20.85 35.8 -20.85 M 53.4 -20.85 L 53.4 -20.9 M 53.45 -13.75 L 53.4 -13.8 53.4 -6.9 53.4 -6.85 53.4 -6.8 54.1 -7.575 56.3 -10.05 58.8 -13.35 58.8 -20.35 56.45 -17.2 56.3 -17.05 M 63.6 -12.5 L 61.3 -9.65 56.3 -3.45 54.1 -0.675 53.4 0.2 35.8 0.15 18.2 0.15 0.6 0.15 0.6 -6.85 M 56.3 -3.45 L 56.3 -10.05 M 44.6 -13.85 L 53.4 -13.85 M 53.4 -6.85 L 44.6 -6.85 M 63.6 -19.7 L 61.3 -16.65 61.3 -9.65 M 44.6 -27.75 L 44.6 -20.85 M 56.3 -24.05 L 58.8 -27.35 M 63.6 -26.7 L 61.3 -23.65 58.8 -20.35 M 58.8 -13.35 L 61.3 -16.65 M 61.3 -23.65 L 61.3 -30.65 M 18.2 -6.85 L 18.2 0.15 M 35.8 -6.85 L 35.8 0.15 M 53.4 0.2 L 53.4 -6.8" transform="matrix(1, 0, 0, 1, 0, 0)"/>
          </g>
          <g transform="matrix( 1, 0, 0, 1, 0,0) ">
            <g transform="matrix(1, 0, 0, 1, 0, 0)">
              <path fill="#000000" fill-opacity="0.30196078431372547" stroke="none" d=" M 63.4 -40.75 L 63.35 -40.7 54.35 -29.7 54.1 -29.4 53.85 -29.1 53.85 -1.3 54.1 -1.6 54.35 -1.9 63.35 -12.9 63.4 -12.95 63.4 -40.75 Z"/>
            </g>
          </g>
        </g>
        <g transform="matrix( 1, 0, 0, 1, 18.1,-40.75) ">
          <g transform="matrix( 1, 0, 0, 1, 0,0) ">
            <g transform="matrix(1, 0, 0, 1, 0, 0)">
              <path fill="#000000" fill-opacity="0.4" stroke="none" d=" M 13.2 -9.65 L 0.85 -4.75 13.2 0 13.2 -2.8 22.6 -2.8 22.6 -6.85 13.2 -6.85 13.2 -9.65 Z"/>
            </g>
          </g>
          <g transform="matrix( 1, 0, 0, 1, 0,-0.15) ">
            <g transform="matrix(1, 0, 0, 1, 0, 0)">
              <path fill="#FFFFFF" stroke="none" d=" M 12.35 -7.95 L 12.35 -10.75 0 -5.85 12.35 -1.1 12.35 -3.9 21.75 -3.9 21.75 -7.95 12.35 -7.95 Z"/>
            </g>
          </g>
        </g>
        <g transform="matrix( 1, 0, 0, 1, 14.95,-52) ">
          <g transform="matrix( 1, 0, 0, 1, 0,0) ">
            <g transform="matrix(1, 0, 0, 1, 0, 0)">
              <path fill="#000000" fill-opacity="0.4" stroke="none" d=" M 0.9 -6.85 L 0.9 -2.8 10.3 -2.8 10.3 0 22.65 -4.75 10.3 -9.65 10.3 -6.85 0.9 -6.85 Z"/>
            </g>
          </g>
          <g transform="matrix( 1, 0, 0, 1, 0,0.15) ">
            <g transform="matrix(1, 0, 0, 1, 0, 0)">
              <path fill="#FFFFFF" stroke="none" d=" M 9.4 -10.75 L 9.4 -7.95 0 -7.95 0 -3.9 9.4 -3.9 9.4 -1.1 21.75 -5.85 9.4 -10.75 Z"/>
            </g>
          </g>
        </g>
        <g transform="matrix( 1, 0, 0, 1, 0,0) ">
          <g transform="matrix(1, 0, 0, 1, 0, 0)">
            <path fill="#FFFFFF" stroke="none" d=" M 39.75 -48.85 L 39.75 -45.05 41.65 -45.05 41.65 -45.35 47.65 -45.35 47.65 -47.1 41.65 -47.1 41.65 -48.85 39.75 -48.85 M 7.95 -58.2 L 7.95 -56.45 17.25 -56.45 17.25 -58.2 7.95 -58.2 Z"/>
          </g>
        </g>
        <g transform="matrix( 0.7953033447265625, -0.0838165283203125, 0.0838165283203125, 0.7953033447265625, 6.3,-26.45) ">
          <g transform="matrix( 1, 0, 0, 1, 0,0) ">
            <g transform="matrix(1, 0, 0, 1, 0, 0)">
              <path fill="#343125" fill-opacity="0.4" stroke="none" d=" M 36.1 -48.55 Q 34.15 -48.55 32.4 -48.2 26.1 -47.5 21.45 -42.85 21.4 -42.8 21.3 -42.7 15.7 -37.15 15.7 -29.2 15.7 -23.15 19 -18.4 L 3.55 -2.95 3.8 -2.75 Q 2.9 -1.8 2.9 -0.5 2.9 0.9 3.9 1.9 4.85 2.85 6.25 2.85 7.55 2.85 8.5 2 L 8.65 2.1 24.05 -13.35 Q 28.75 -10.05 34.8 -10.05 38.65 -10.05 42 -11.4 41 -10.95 39.95 -10.6 45.4 -11.7 49.65 -15.85 55.25 -21.5 55.25 -29.4 55.25 -37.35 49.65 -42.9 44 -48.55 36.1 -48.55 M 34.8 -46.35 L 34.85 -46.35 Q 41.9 -46.35 46.95 -41.3 51.95 -36.3 51.95 -29.2 51.95 -22.15 46.95 -17.1 45.25 -15.45 43.4 -14.35 40.35 -13.1 36.8 -13.1 31.4 -13.1 27.2 -16 25.9 -16.9 24.7 -18.1 23.55 -19.25 22.65 -20.55 19.65 -24.8 19.7 -30.2 19.7 -37.3 24.7 -42.3 26.35 -44 28.25 -45.1 31.25 -46.35 34.8 -46.35 Z"/>
            </g>
          </g>
          <g transform="matrix( 1, 0, 0, 1, 0,0) ">
            <g transform="matrix(1, 0, 0, 1, 0, 0)">
              <path fill="#FFFFFF" stroke="none" d=" M 33.15 -51.1 Q 31.2 -51.1 29.45 -50.75 23.15 -50.05 18.5 -45.4 18.45 -45.35 18.35 -45.25 12.75 -39.7 12.75 -31.75 12.75 -25.7 16.05 -20.95 L 0.6 -5.5 0.85 -5.3 Q -0.05 -4.35 -0.05 -3.05 -0.05 -1.65 0.95 -0.65 1.9 0.3 3.3 0.3 4.6 0.3 5.55 -0.55 L 5.7 -0.45 21.1 -15.9 Q 25.8 -12.6 31.85 -12.6 35.7 -12.6 39.05 -13.95 38.05 -13.5 37 -13.15 42.45 -14.25 46.7 -18.4 52.3 -24.05 52.3 -31.95 52.3 -39.9 46.7 -45.45 41.05 -51.1 33.15 -51.1 M 31.85 -48.9 L 31.9 -48.9 Q 38.95 -48.9 44 -43.85 49 -38.85 49 -31.75 49 -24.7 44 -19.65 42.3 -18 40.45 -16.9 37.4 -15.65 33.85 -15.65 28.45 -15.65 24.25 -18.55 22.95 -19.45 21.75 -20.65 20.6 -21.8 19.7 -23.1 16.7 -27.35 16.75 -32.75 16.75 -39.85 21.75 -44.85 23.4 -46.55 25.3 -47.65 28.3 -48.9 31.85 -48.9 Z"/>
            </g>
          </g>
          <g transform="matrix( 1, 0, 0, 1, 0,0) ">
            <g transform="matrix(1, 0, 0, 1, 0, 0)">
              <path fill="url(#Gradient_9)" stroke="none" d=" M 5.55 -0.55 L 0.85 -5.3 Q -0.05 -4.35 -0.05 -3.05 -0.05 -1.65 0.95 -0.65 1.9 0.3 3.3 0.3 4.6 0.3 5.55 -0.55 Z"/>
              <path fill="url(#Gradient_10)" stroke="none" d=" M 5.55 -0.55 L 5.7 -0.45 21.1 -15.9 Q 19.65 -16.9 18.35 -18.2 17.05 -19.55 16.05 -20.95 L 0.6 -5.5 0.85 -5.3 5.55 -0.55 Z"/>
              <path fill="url(#Gradient_11)" stroke="none" d=" M 31.85 -50.9 Q 30.6 -50.9 29.45 -50.75 23.05 -50 18.35 -45.25 12.75 -39.7 12.75 -31.75 12.75 -25.7 16.05 -20.95 17.05 -19.55 18.35 -18.2 19.65 -16.9 21.1 -15.9 25.8 -12.6 31.85 -12.6 35.7 -12.6 39.05 -13.95 42.5 -15.35 45.4 -18.2 51 -23.85 51 -31.75 51 -39.7 45.4 -45.25 39.75 -50.9 31.85 -50.9 M 31.85 -48.9 L 31.9 -48.9 Q 38.95 -48.9 44 -43.85 49 -38.85 49 -31.75 49 -24.7 44 -19.65 42.3 -18 40.45 -16.9 36.6 -14.65 31.85 -14.65 26.45 -14.65 22.25 -17.55 20.95 -18.45 19.75 -19.65 18.6 -20.8 17.7 -22.1 14.7 -26.35 14.75 -31.75 14.75 -38.85 19.75 -43.85 22.25 -46.4 25.3 -47.65 28.3 -48.9 31.85 -48.9 Z"/>
              <path fill="url(#Gradient_12)" stroke="none" d=" M 21.75 -44.85 Q 23.4 -46.55 25.3 -47.65 22.25 -46.4 19.75 -43.85 14.75 -38.85 14.75 -31.75 14.7 -26.35 17.7 -22.1 18.6 -20.8 19.75 -19.65 20.95 -18.45 22.25 -17.55 26.45 -14.65 31.85 -14.65 36.6 -14.65 40.45 -16.9 37.4 -15.65 33.85 -15.65 28.45 -15.65 24.25 -18.55 22.95 -19.45 21.75 -20.65 20.6 -21.8 19.7 -23.1 16.7 -27.35 16.75 -32.75 16.75 -39.85 21.75 -44.85 Z"/>
              <path fill="url(#Gradient_13)" stroke="none" d=" M 33.15 -51.1 Q 31.2 -51.1 29.45 -50.75 30.6 -50.9 31.85 -50.9 39.75 -50.9 45.4 -45.25 51 -39.7 51 -31.75 51 -23.85 45.4 -18.2 42.5 -15.35 39.05 -13.95 38.05 -13.5 37 -13.15 42.45 -14.25 46.7 -18.4 52.3 -24.05 52.3 -31.95 52.3 -39.9 46.7 -45.45 41.05 -51.1 33.15 -51.1 Z"/>
            </g>
          </g>
          <g transform="matrix( 1, 0, 0, 1, 0,0) ">
            <g transform="matrix(1, 0, 0, 1, 0, 0)">
              <path fill="#FFFFFF" fill-opacity="0.30196078431372547" stroke="none" d=" M 33.15 -51.1 Q 31.2 -51.1 29.45 -50.75 23.15 -50.05 18.5 -45.4 18.45 -45.35 18.35 -45.25 12.75 -39.7 12.75 -31.75 12.75 -25.7 16.05 -20.95 L 0.6 -5.5 0.85 -5.3 Q -0.05 -4.35 -0.05 -3.05 -0.05 -1.65 0.95 -0.65 1.9 0.3 3.3 0.3 4.6 0.3 5.55 -0.55 L 5.7 -0.45 21.1 -15.9 Q 25.8 -12.6 31.85 -12.6 35.7 -12.6 39.05 -13.95 38.05 -13.5 37 -13.15 42.45 -14.25 46.7 -18.4 52.3 -24.05 52.3 -31.95 52.3 -39.9 46.7 -45.45 41.05 -51.1 33.15 -51.1 M 31.85 -48.9 L 31.9 -48.9 Q 38.95 -48.9 44 -43.85 49 -38.85 49 -31.75 49 -24.7 44 -19.65 42.3 -18 40.45 -16.9 37.4 -15.65 33.85 -15.65 28.45 -15.65 24.25 -18.55 22.95 -19.45 21.75 -20.65 20.6 -21.8 19.7 -23.1 16.7 -27.35 16.75 -32.75 16.75 -39.85 21.75 -44.85 23.4 -46.55 25.3 -47.65 28.3 -48.9 31.85 -48.9 Z"/>
            </g>
          </g>
        </g>
      </g>
      <g transform="matrix( 1, 0, 0, 1, 36,135.5) "/>
      <g transform="matrix( 1, 0, 0, 1, 199.95,109.5) "/>
      <g transform="matrix( 1, 0, 0, 1, 356.95,109.5) "/>
      <g transform="matrix( 1, 0, 0, 1, 520.95,109.5) "/>
      <g transform="matrix( 1, 0, 0, 1, 260,191.5) "/>
      <g transform="matrix( 1, 0, 0, 1, 460.95,191.5) "/>
    </g>
  </g>
  <text style="fill: rgb(51, 51, 51); font-family: Arial, sans-serif; font-size: 10.1px; font-weight: 700; white-space: pre;" x="33.765" y="89.082"> <tspan x="33.76499938964844" dy="1em"></tspan></text>
  <text style="fill: rgb(51, 51, 51); font-family: Arial, sans-serif; font-size: 8px; text-anchor: middle; white-space: pre;" transform="matrix(1, 0, 0, 1, 28.736143, -10.902439)"><tspan x="206.9" y="81.18"></tspan><tspan x="206.9" dy="1em"></tspan><tspan></tspan></text>
  <text style="fill: rgb(51, 51, 51); font-family: Arial, sans-serif; font-size: 8px; text-anchor: middle; white-space: pre;" transform="matrix(1, 0, 0, 1, 89.082275, 69.097153)" x="206.89999389648438" y="81.18000030517578"><tspan x="206.89999389648438" dy="1em"></tspan></text>
  <text style="fill: rgb(51, 51, 51); font-family: Arial, sans-serif; font-size: 8px; text-anchor: middle; white-space: pre;" transform="matrix(1, 0, 0, 1, 185.11554, -11.004841)" x="206.89999389648438" y="81.18000030517578"><tspan x="206.89999389648438" dy="1em"></tspan> </text>
  <text style="fill: rgb(51, 51, 51); font-family: Arial, sans-serif; font-size: 8px; text-anchor: middle; white-space: pre;" transform="matrix(1, 0, 0, 1, 288.924866, 71.252365)"><tspan x="206.9" y="81.18"> <tspan x="206.89999389648438" dy="1em"></tspan> </tspan></text>
  <text style="fill: rgb(51, 51, 51); font-family: Arial, sans-serif; font-size: 8px; text-anchor: middle; white-space: pre;" transform="matrix(1, 0, 0, 1, 350.581177, -11.364042)" y="81.18000030517578" x="206.89999389648438"><tspan></tspan></text>
</svg>