<svg width="1201" height="487" viewBox="0 0 1201 487" fill="none" xmlns="http://www.w3.org/2000/svg">
<path d="M191.812 100.635L186.039 110.635H197.586L191.812 100.635ZM191.812 334.201H190.812V335.201H191.812V334.201ZM1173.42 334.201L1163.42 328.427V339.974L1173.42 334.201ZM190.812 109.635V334.201H192.812V109.635H190.812ZM191.812 335.201H1164.42V333.201H191.812V335.201Z" fill="black"/>
<path d="M29.5896 204.789H31.6351V211.296H39.7299V204.789H41.7754V220.021H39.7299V213.08H31.6351V220.021H29.5896V204.789ZM48.973 220.239C48.3347 220.239 47.7689 220.152 47.2757 219.978C46.797 219.789 46.3908 219.536 46.0571 219.216C45.7234 218.897 45.4696 218.52 45.2955 218.085C45.1214 217.65 45.0344 217.171 45.0344 216.649C45.0344 215.503 45.368 214.676 46.0353 214.168C46.7172 213.66 47.6891 213.406 48.9512 213.406H52.694V212.623C52.694 211.636 52.4692 210.955 52.0194 210.577C51.5842 210.2 50.9242 210.012 50.0393 210.012C49.2124 210.012 48.6103 210.171 48.2331 210.49C47.856 210.795 47.6456 211.143 47.6021 211.535H45.6872C45.7162 211.071 45.8395 210.643 46.0571 210.251C46.2892 209.845 46.5939 209.497 46.971 209.207C47.3627 208.916 47.8269 208.692 48.3637 208.532C48.9005 208.358 49.4952 208.271 50.1481 208.271C51.5117 208.271 52.5925 208.597 53.3903 209.25C54.2027 209.888 54.6089 210.94 54.6089 212.405V217.084C54.6089 217.693 54.6089 218.23 54.6089 218.694C54.6234 219.144 54.6597 219.586 54.7177 220.021H53.0422C52.9987 219.688 52.9696 219.376 52.9551 219.086C52.9406 218.781 52.9334 218.44 52.9334 218.063C52.6287 218.672 52.1355 219.187 51.4537 219.608C50.7719 220.029 49.945 220.239 48.973 220.239ZM49.3864 218.498C49.8362 218.498 50.2569 218.44 50.6485 218.324C51.0547 218.194 51.4102 218.012 51.7148 217.78C52.0194 217.534 52.2588 217.236 52.4329 216.888C52.607 216.54 52.694 216.134 52.694 215.669V214.886H49.2776C48.5668 214.886 48.0083 215.031 47.6021 215.321C47.1959 215.597 46.9928 216.039 46.9928 216.649C46.9928 217.185 47.1814 217.628 47.5586 217.976C47.9503 218.324 48.5595 218.498 49.3864 218.498ZM57.9911 208.488H67.5657V220.021H65.6508V210.186H59.906V220.021H57.9911V208.488ZM71.0388 208.488H72.8232V210.665C73.2149 209.896 73.7589 209.308 74.4552 208.902C75.1661 208.481 75.9857 208.271 76.9141 208.271C78.3648 208.271 79.5254 208.75 80.3958 209.707C81.2662 210.65 81.7014 212.057 81.7014 213.929V214.364C81.7014 215.35 81.5854 216.213 81.3532 216.953C81.1211 217.679 80.7947 218.288 80.374 218.781C79.9533 219.26 79.4456 219.623 78.8508 219.869C78.2705 220.116 77.625 220.239 76.9141 220.239C75.9277 220.239 75.1008 220.021 74.4335 219.586C73.7806 219.151 73.2874 218.607 72.9538 217.954V224.374H71.0388V208.488ZM76.4789 218.542C76.9431 218.542 77.3784 218.455 77.7845 218.281C78.1907 218.092 78.5389 217.824 78.829 217.476C79.1337 217.127 79.3658 216.692 79.5254 216.17C79.6995 215.648 79.7865 215.046 79.7865 214.364V213.929C79.7865 213.305 79.6995 212.746 79.5254 212.253C79.3658 211.76 79.1337 211.346 78.829 211.013C78.5389 210.665 78.1907 210.403 77.7845 210.229C77.3784 210.055 76.9431 209.968 76.4789 209.968C75.9567 209.968 75.478 210.055 75.0427 210.229C74.6075 210.389 74.2376 210.621 73.933 210.926C73.6283 211.216 73.389 211.564 73.2149 211.97C73.0408 212.376 72.9538 212.812 72.9538 213.276V215.017C72.9538 215.539 73.0408 216.018 73.2149 216.453C73.389 216.888 73.6283 217.258 73.933 217.563C74.2376 217.867 74.6075 218.107 75.0427 218.281C75.478 218.455 75.9567 218.542 76.4789 218.542ZM86.6896 215.452C85.7322 215.234 85.0431 214.843 84.6224 214.277C84.2017 213.696 83.9913 212.957 83.9913 212.057C83.9913 210.926 84.3323 210.048 85.0141 209.424C85.7104 208.8 86.8202 208.488 88.3434 208.488H93.3483V220.021H91.4334V215.626H88.4957L85.6887 220.021H83.5561L86.6896 215.452ZM85.9063 212.057C85.9063 212.666 86.0803 213.131 86.4285 213.45C86.7912 213.769 87.3932 213.929 88.2346 213.929H91.4334V210.186H88.2346C87.3932 210.186 86.7912 210.345 86.4285 210.665C86.0803 210.984 85.9063 211.448 85.9063 212.057ZM99.992 214.081L95.8575 208.488H97.9901L101.515 213.319H102.843V208.488H104.758V213.319H106.063L109.654 208.488H111.743L107.608 214.016L111.96 220.021H109.697L106.063 214.973H104.758V220.021H102.843V214.973H101.515L97.8595 220.021H95.6399L99.992 214.081ZM118.603 220.239C117.863 220.239 117.16 220.123 116.492 219.891C115.825 219.659 115.237 219.303 114.73 218.825C114.222 218.331 113.816 217.715 113.511 216.975C113.206 216.235 113.054 215.365 113.054 214.364V213.929C113.054 212.971 113.199 212.144 113.489 211.448C113.78 210.737 114.164 210.15 114.643 209.685C115.136 209.207 115.702 208.851 116.34 208.619C116.993 208.387 117.675 208.271 118.385 208.271C120.083 208.271 121.396 208.735 122.324 209.664C123.253 210.592 123.717 211.905 123.717 213.602V214.821H114.969C114.969 215.503 115.078 216.076 115.295 216.54C115.513 217.004 115.796 217.381 116.144 217.671C116.492 217.962 116.877 218.172 117.297 218.302C117.733 218.433 118.168 218.498 118.603 218.498C119.473 218.498 120.141 218.353 120.605 218.063C121.084 217.773 121.425 217.374 121.628 216.866H123.499C123.383 217.417 123.173 217.903 122.868 218.324C122.578 218.745 122.215 219.1 121.78 219.39C121.359 219.666 120.873 219.876 120.322 220.021C119.785 220.167 119.212 220.239 118.603 220.239ZM118.494 210.012C118.045 210.012 117.609 210.077 117.189 210.208C116.768 210.324 116.391 210.519 116.057 210.795C115.738 211.056 115.477 211.39 115.274 211.796C115.071 212.202 114.969 212.688 114.969 213.254H121.911C121.896 212.659 121.795 212.159 121.606 211.753C121.432 211.332 121.193 210.998 120.888 210.752C120.583 210.49 120.221 210.302 119.8 210.186C119.394 210.07 118.958 210.012 118.494 210.012ZM126.438 208.488H128.353V213.298H134.316V208.488H136.231V220.021H134.316V214.995H128.353V220.021H126.438V208.488ZM139.72 208.488H141.635V217.193L147.597 208.488H149.512V220.021H147.597V211.317L141.635 220.021H139.72V208.488ZM157.789 220.239C157.049 220.239 156.345 220.123 155.678 219.891C155.011 219.659 154.423 219.303 153.915 218.825C153.408 218.331 153.001 217.715 152.697 216.975C152.392 216.235 152.24 215.365 152.24 214.364V213.929C152.24 212.971 152.385 212.144 152.675 211.448C152.965 210.737 153.35 210.15 153.828 209.685C154.322 209.207 154.887 208.851 155.526 208.619C156.178 208.387 156.86 208.271 157.571 208.271C159.268 208.271 160.581 208.735 161.51 209.664C162.438 210.592 162.902 211.905 162.902 213.602V214.821H154.155C154.155 215.503 154.264 216.076 154.481 216.54C154.699 217.004 154.982 217.381 155.33 217.671C155.678 217.962 156.062 218.172 156.483 218.302C156.918 218.433 157.353 218.498 157.789 218.498C158.659 218.498 159.326 218.353 159.791 218.063C160.269 217.773 160.61 217.374 160.813 216.866H162.685C162.569 217.417 162.358 217.903 162.054 218.324C161.764 218.745 161.401 219.1 160.966 219.39C160.545 219.666 160.059 219.876 159.508 220.021C158.971 220.167 158.398 220.239 157.789 220.239ZM157.68 210.012C157.23 210.012 156.795 210.077 156.374 210.208C155.954 210.324 155.576 210.519 155.243 210.795C154.924 211.056 154.662 211.39 154.459 211.796C154.256 212.202 154.155 212.688 154.155 213.254H161.096C161.082 212.659 160.98 212.159 160.792 211.753C160.618 211.332 160.378 210.998 160.074 210.752C159.769 210.49 159.406 210.302 158.985 210.186C158.579 210.07 158.144 210.012 157.68 210.012Z" fill="black"/>
<path d="M626.318 353.403H631.758C632.672 353.403 633.455 353.504 634.108 353.707C634.761 353.91 635.298 354.193 635.718 354.556C636.154 354.904 636.473 355.332 636.676 355.84C636.879 356.333 636.981 356.877 636.981 357.472C636.981 358.255 636.763 358.93 636.328 359.495C635.892 360.047 635.356 360.446 634.717 360.692C635.617 360.895 636.328 361.309 636.85 361.933C637.372 362.542 637.633 363.34 637.633 364.326C637.633 364.95 637.532 365.523 637.329 366.045C637.126 366.568 636.806 367.024 636.371 367.416C635.936 367.793 635.37 368.091 634.674 368.308C633.992 368.526 633.165 368.635 632.193 368.635H626.318V353.403ZM632.193 366.85C632.846 366.85 633.39 366.792 633.825 366.676C634.26 366.546 634.609 366.372 634.87 366.154C635.131 365.922 635.312 365.646 635.414 365.327C635.53 365.008 635.588 364.653 635.588 364.261C635.588 363.869 635.53 363.514 635.414 363.195C635.312 362.861 635.131 362.585 634.87 362.368C634.609 362.136 634.253 361.962 633.803 361.846C633.368 361.715 632.824 361.65 632.171 361.65H628.363V366.85H632.193ZM631.758 359.952C632.367 359.952 632.875 359.894 633.281 359.778C633.687 359.662 634.014 359.495 634.26 359.278C634.507 359.06 634.681 358.806 634.783 358.516C634.884 358.226 634.935 357.907 634.935 357.559C634.935 357.211 634.884 356.891 634.783 356.601C634.681 356.297 634.507 356.043 634.26 355.84C634.014 355.637 633.687 355.477 633.281 355.361C632.875 355.245 632.367 355.187 631.758 355.187H628.363V359.952H631.758ZM640.46 357.102H642.245V359.278C642.636 358.509 643.181 357.921 643.877 357.515C644.588 357.095 645.407 356.884 646.336 356.884C647.786 356.884 648.947 357.363 649.817 358.32C650.688 359.263 651.123 360.67 651.123 362.542V362.977C651.123 363.964 651.007 364.827 650.775 365.567C650.543 366.292 650.216 366.901 649.796 367.394C649.375 367.873 648.867 368.236 648.272 368.482C647.692 368.729 647.047 368.852 646.336 368.852C645.349 368.852 644.522 368.635 643.855 368.2C643.202 367.764 642.709 367.22 642.375 366.568V372.987H640.46V357.102ZM645.901 367.155C646.365 367.155 646.8 367.068 647.206 366.894C647.612 366.705 647.961 366.437 648.251 366.089C648.555 365.741 648.787 365.305 648.947 364.783C649.121 364.261 649.208 363.659 649.208 362.977V362.542C649.208 361.918 649.121 361.36 648.947 360.866C648.787 360.373 648.555 359.96 648.251 359.626C647.961 359.278 647.612 359.017 647.206 358.843C646.8 358.669 646.365 358.581 645.901 358.581C645.378 358.581 644.9 358.669 644.464 358.843C644.029 359.002 643.659 359.234 643.355 359.539C643.05 359.829 642.811 360.177 642.636 360.583C642.462 360.99 642.375 361.425 642.375 361.889V363.63C642.375 364.152 642.462 364.631 642.636 365.066C642.811 365.501 643.05 365.871 643.355 366.176C643.659 366.48 644.029 366.72 644.464 366.894C644.9 367.068 645.378 367.155 645.901 367.155ZM658.635 368.852C657.896 368.852 657.192 368.736 656.525 368.504C655.857 368.272 655.27 367.917 654.762 367.438C654.254 366.945 653.848 366.328 653.544 365.588C653.239 364.848 653.087 363.978 653.087 362.977V362.542C653.087 361.584 653.232 360.758 653.522 360.061C653.812 359.35 654.196 358.763 654.675 358.299C655.168 357.82 655.734 357.464 656.372 357.232C657.025 357 657.707 356.884 658.418 356.884C660.115 356.884 661.428 357.348 662.356 358.277C663.285 359.205 663.749 360.518 663.749 362.215V363.434H655.001C655.001 364.116 655.11 364.689 655.328 365.153C655.545 365.617 655.828 365.995 656.177 366.285C656.525 366.575 656.909 366.785 657.33 366.916C657.765 367.046 658.2 367.112 658.635 367.112C659.506 367.112 660.173 366.966 660.637 366.676C661.116 366.386 661.457 365.987 661.66 365.48H663.532C663.415 366.031 663.205 366.517 662.9 366.937C662.61 367.358 662.248 367.714 661.812 368.004C661.392 368.279 660.906 368.49 660.355 368.635C659.818 368.78 659.245 368.852 658.635 368.852ZM658.527 358.625C658.077 358.625 657.642 358.69 657.221 358.821C656.8 358.937 656.423 359.133 656.089 359.408C655.77 359.67 655.509 360.003 655.306 360.409C655.103 360.816 655.001 361.302 655.001 361.867H661.943C661.929 361.273 661.827 360.772 661.638 360.366C661.464 359.945 661.225 359.611 660.92 359.365C660.616 359.104 660.253 358.915 659.832 358.799C659.426 358.683 658.991 358.625 658.527 358.625ZM666.471 357.102H668.516L672.629 364.283L676.742 357.102H678.657V368.635H676.742V360.257L673.325 366.132H671.802L668.386 360.257V368.635H666.471V357.102ZM684.395 364.065C683.438 363.847 682.749 363.456 682.328 362.89C681.908 362.31 681.697 361.57 681.697 360.67C681.697 359.539 682.038 358.661 682.72 358.037C683.416 357.414 684.526 357.102 686.049 357.102H691.054V368.635H689.139V364.239H686.202L683.394 368.635H681.262L684.395 364.065ZM683.612 360.67C683.612 361.28 683.786 361.744 684.134 362.063C684.497 362.382 685.099 362.542 685.94 362.542H689.139V358.799H685.94C685.099 358.799 684.497 358.959 684.134 359.278C683.786 359.597 683.612 360.061 683.612 360.67Z" fill="black"/>
<path d="M250.65 104.775V317.636" stroke="#D4D4D4"/>
<path d="M1148.02 242.564L223.376 242.564" stroke="#D4D4D4"/>
<path d="M375.148 104.775V317.636" stroke="#D4D4D4"/>
<path d="M499.641 104.775V317.636" stroke="#D4D4D4"/>
<path d="M624.115 104.775V317.636" stroke="#D4D4D4"/>
<path d="M748.613 104.775V317.636" stroke="#D4D4D4"/>
<path d="M873.111 104.775V317.636" stroke="#D4D4D4"/>
<path d="M997.607 104.775V317.636" stroke="#D4D4D4"/>
<path d="M1122.11 104.775V317.636" stroke="#D4D4D4"/>
<path d="M313.145 126.993C312.405 126.993 311.702 126.87 311.034 126.623C310.382 126.376 309.809 125.956 309.315 125.361C308.822 124.752 308.43 123.947 308.14 122.946C307.85 121.93 307.705 120.668 307.705 119.159V118.724C307.705 117.317 307.85 116.142 308.14 115.199C308.43 114.256 308.822 113.502 309.315 112.936C309.809 112.356 310.382 111.942 311.034 111.695C311.702 111.449 312.405 111.326 313.145 111.326C313.885 111.326 314.581 111.449 315.234 111.695C315.902 111.942 316.482 112.356 316.975 112.936C317.468 113.502 317.86 114.256 318.15 115.199C318.44 116.142 318.585 117.317 318.585 118.724V119.159C318.585 120.668 318.44 121.93 318.15 122.946C317.86 123.947 317.468 124.752 316.975 125.361C316.482 125.956 315.902 126.376 315.234 126.623C314.581 126.87 313.885 126.993 313.145 126.993ZM313.145 125.209C313.595 125.209 314.023 125.129 314.429 124.969C314.85 124.795 315.212 124.491 315.517 124.055C315.836 123.606 316.083 122.989 316.257 122.206C316.446 121.422 316.54 120.407 316.54 119.159V118.724C316.54 117.593 316.446 116.664 316.257 115.939C316.083 115.213 315.836 114.64 315.517 114.22C315.212 113.799 314.85 113.509 314.429 113.349C314.023 113.19 313.595 113.11 313.145 113.11C312.681 113.11 312.246 113.19 311.84 113.349C311.433 113.509 311.071 113.799 310.752 114.22C310.447 114.64 310.2 115.213 310.012 115.939C309.838 116.664 309.751 117.593 309.751 118.724V119.159C309.751 120.407 309.838 121.422 310.012 122.206C310.2 122.989 310.447 123.606 310.752 124.055C311.071 124.491 311.433 124.795 311.84 124.969C312.246 125.129 312.681 125.209 313.145 125.209Z" fill="black"/>
<path d="M433.635 124.991H437.269V113.784L433.635 116.374V114.154L437.313 111.543H439.358V124.991H442.34V126.775H433.635V124.991Z" fill="black"/>
<path d="M562.286 126.993C561.546 126.993 560.842 126.87 560.175 126.623C559.522 126.376 558.949 125.956 558.456 125.361C557.963 124.752 557.571 123.947 557.281 122.946C556.991 121.93 556.846 120.668 556.846 119.159V118.724C556.846 117.317 556.991 116.142 557.281 115.199C557.571 114.256 557.963 113.502 558.456 112.936C558.949 112.356 559.522 111.942 560.175 111.695C560.842 111.449 561.546 111.326 562.286 111.326C563.026 111.326 563.722 111.449 564.375 111.695C565.042 111.942 565.622 112.356 566.116 112.936C566.609 113.502 567.001 114.256 567.291 115.199C567.581 116.142 567.726 117.317 567.726 118.724V119.159C567.726 120.668 567.581 121.93 567.291 122.946C567.001 123.947 566.609 124.752 566.116 125.361C565.622 125.956 565.042 126.376 564.375 126.623C563.722 126.87 563.026 126.993 562.286 126.993ZM562.286 125.209C562.736 125.209 563.164 125.129 563.57 124.969C563.99 124.795 564.353 124.491 564.658 124.055C564.977 123.606 565.223 122.989 565.398 122.206C565.586 121.422 565.68 120.407 565.68 119.159V118.724C565.68 117.593 565.586 116.664 565.398 115.939C565.223 115.213 564.977 114.64 564.658 114.22C564.353 113.799 563.99 113.509 563.57 113.349C563.164 113.19 562.736 113.11 562.286 113.11C561.822 113.11 561.386 113.19 560.98 113.349C560.574 113.509 560.211 113.799 559.892 114.22C559.588 114.64 559.341 115.213 559.152 115.939C558.978 116.664 558.891 117.593 558.891 118.724V119.159C558.891 120.407 558.978 121.422 559.152 122.206C559.341 122.989 559.588 123.606 559.892 124.055C560.211 124.491 560.574 124.795 560.98 124.969C561.386 125.129 561.822 125.209 562.286 125.209Z" fill="black"/>
<path d="M686.858 126.993C686.118 126.993 685.415 126.87 684.747 126.623C684.095 126.376 683.522 125.956 683.028 125.361C682.535 124.752 682.143 123.947 681.853 122.946C681.563 121.93 681.418 120.668 681.418 119.159V118.724C681.418 117.317 681.563 116.142 681.853 115.199C682.143 114.256 682.535 113.502 683.028 112.936C683.522 112.356 684.095 111.942 684.747 111.695C685.415 111.449 686.118 111.326 686.858 111.326C687.598 111.326 688.294 111.449 688.947 111.695C689.614 111.942 690.195 112.356 690.688 112.936C691.181 113.502 691.573 114.256 691.863 115.199C692.153 116.142 692.298 117.317 692.298 118.724V119.159C692.298 120.668 692.153 121.93 691.863 122.946C691.573 123.947 691.181 124.752 690.688 125.361C690.195 125.956 689.614 126.376 688.947 126.623C688.294 126.87 687.598 126.993 686.858 126.993ZM686.858 125.209C687.308 125.209 687.736 125.129 688.142 124.969C688.563 124.795 688.925 124.491 689.23 124.055C689.549 123.606 689.796 122.989 689.97 122.206C690.158 121.422 690.253 120.407 690.253 119.159V118.724C690.253 117.593 690.158 116.664 689.97 115.939C689.796 115.213 689.549 114.64 689.23 114.22C688.925 113.799 688.563 113.509 688.142 113.349C687.736 113.19 687.308 113.11 686.858 113.11C686.394 113.11 685.959 113.19 685.552 113.349C685.146 113.509 684.784 113.799 684.464 114.22C684.16 114.64 683.913 115.213 683.725 115.939C683.551 116.664 683.464 117.593 683.464 118.724V119.159C683.464 120.407 683.551 121.422 683.725 122.206C683.913 122.989 684.16 123.606 684.464 124.055C684.784 124.491 685.146 124.795 685.552 124.969C685.959 125.129 686.394 125.209 686.858 125.209Z" fill="black"/>
<path d="M807.344 124.991H810.978V113.784L807.344 116.374V114.154L811.022 111.543H813.067V124.991H816.049V126.775H807.344V124.991Z" fill="black"/>
<path d="M931.919 124.991H935.553V113.784L931.919 116.374V114.154L935.596 111.543H937.642V124.991H940.623V126.775H931.919V124.991Z" fill="black"/>
<path d="M1060.57 126.993C1059.83 126.993 1059.12 126.87 1058.46 126.623C1057.8 126.376 1057.23 125.956 1056.74 125.361C1056.24 124.752 1055.85 123.947 1055.56 122.946C1055.27 121.93 1055.13 120.668 1055.13 119.159V118.724C1055.13 117.317 1055.27 116.142 1055.56 115.199C1055.85 114.256 1056.24 113.502 1056.74 112.936C1057.23 112.356 1057.8 111.942 1058.46 111.695C1059.12 111.449 1059.83 111.326 1060.57 111.326C1061.31 111.326 1062 111.449 1062.66 111.695C1063.32 111.942 1063.9 112.356 1064.4 112.936C1064.89 113.502 1065.28 114.256 1065.57 115.199C1065.86 116.142 1066.01 117.317 1066.01 118.724V119.159C1066.01 120.668 1065.86 121.93 1065.57 122.946C1065.28 123.947 1064.89 124.752 1064.4 125.361C1063.9 125.956 1063.32 126.376 1062.66 126.623C1062 126.87 1061.31 126.993 1060.57 126.993ZM1060.57 125.209C1061.02 125.209 1061.44 125.129 1061.85 124.969C1062.27 124.795 1062.63 124.491 1062.94 124.055C1063.26 123.606 1063.5 122.989 1063.68 122.206C1063.87 121.422 1063.96 120.407 1063.96 119.159V118.724C1063.96 117.593 1063.87 116.664 1063.68 115.939C1063.5 115.213 1063.26 114.64 1062.94 114.22C1062.63 113.799 1062.27 113.509 1061.85 113.349C1061.44 113.19 1061.02 113.11 1060.57 113.11C1060.1 113.11 1059.67 113.19 1059.26 113.349C1058.86 113.509 1058.49 113.799 1058.17 114.22C1057.87 114.64 1057.62 115.213 1057.43 115.939C1057.26 116.664 1057.17 117.593 1057.17 118.724V119.159C1057.17 120.407 1057.26 121.422 1057.43 122.206C1057.62 122.989 1057.87 123.606 1058.17 124.055C1058.49 124.491 1058.86 124.795 1059.26 124.969C1059.67 125.129 1060.1 125.209 1060.57 125.209Z" fill="black"/>
<path d="M250.859 203.16H313.394V281.967H437.391" stroke="#4C89BE" stroke-width="3"/>
<path d="M312.896 281.965H436.281V203.158H561.891" stroke="#4C89BE" stroke-width="3"/>
<path d="M499.646 203.16H561.338V281.967H624.143" stroke="#4C89BE" stroke-width="3"/>
<path d="M561.891 281.965H623.582V203.158H686.387" stroke="#4C89BE" stroke-width="3"/>
<path d="M810.889 203.16H872.58V281.967H935.385" stroke="#4C89BE" stroke-width="3"/>
<path d="M873.133 281.965H934.825V203.158H997.63" stroke="#4C89BE" stroke-width="3"/>
<path d="M997.635 203.16H1059.33V281.967H1122.13" stroke="#4C89BE" stroke-width="3"/>
<path d="M624.137 203.16H685.828V281.967H748.633" stroke="#4C89BE" stroke-width="3"/>
<path d="M748.637 281.965H810.328V203.158H873.133" stroke="#4C89BE" stroke-width="3"/>
<path d="M452.005 188.628H455.639V177.421L452.005 180.011V177.791L455.683 175.18H457.728V188.628H460.71V190.412H452.005V188.628Z" fill="#FFBD6E"/>
<path d="M828.072 188.628H831.706V177.421L828.072 180.011V177.791L831.749 175.18H833.795V188.628H836.776V190.412H828.072V188.628Z" fill="#FFBD6E"/>
<path d="M952.029 188.628H955.663V177.421L952.029 180.011V177.791L955.706 175.18H957.752V188.628H960.733V190.412H952.029V188.628Z" fill="#FFBD6E"/>
<path d="M1079.5 310.102C1078.76 310.102 1078.06 309.979 1077.39 309.732C1076.74 309.486 1076.16 309.065 1075.67 308.47C1075.18 307.861 1074.78 307.056 1074.49 306.055C1074.2 305.039 1074.06 303.777 1074.06 302.269V301.833C1074.06 300.426 1074.2 299.251 1074.49 298.308C1074.78 297.365 1075.18 296.611 1075.67 296.045C1076.16 295.465 1076.74 295.051 1077.39 294.805C1078.06 294.558 1078.76 294.435 1079.5 294.435C1080.24 294.435 1080.94 294.558 1081.59 294.805C1082.26 295.051 1082.84 295.465 1083.33 296.045C1083.82 296.611 1084.21 297.365 1084.5 298.308C1084.79 299.251 1084.94 300.426 1084.94 301.833V302.269C1084.94 303.777 1084.79 305.039 1084.5 306.055C1084.21 307.056 1083.82 307.861 1083.33 308.47C1082.84 309.065 1082.26 309.486 1081.59 309.732C1080.94 309.979 1080.24 310.102 1079.5 310.102ZM1079.5 308.318C1079.95 308.318 1080.38 308.238 1080.78 308.079C1081.2 307.905 1081.57 307.6 1081.87 307.165C1082.19 306.715 1082.44 306.098 1082.61 305.315C1082.8 304.532 1082.89 303.516 1082.89 302.269V301.833C1082.89 300.702 1082.8 299.773 1082.61 299.048C1082.44 298.323 1082.19 297.75 1081.87 297.329C1081.57 296.908 1081.2 296.618 1080.78 296.459C1080.38 296.299 1079.95 296.219 1079.5 296.219C1079.04 296.219 1078.6 296.299 1078.19 296.459C1077.79 296.618 1077.43 296.908 1077.11 297.329C1076.8 297.75 1076.55 298.323 1076.37 299.048C1076.19 299.773 1076.11 300.702 1076.11 301.833V302.269C1076.11 303.516 1076.19 304.532 1076.37 305.315C1076.55 306.098 1076.8 306.715 1077.11 307.165C1077.43 307.6 1077.79 307.905 1078.19 308.079C1078.6 308.238 1079.04 308.318 1079.5 308.318Z" fill="#FFBD6E"/>
<path d="M436.342 195.709L442.548 184.959H430.135L436.342 195.709ZM435.267 174.58V186.034H437.417V174.58H435.267Z" fill="#FFBD6E"/>
<path d="M811.43 195.709L817.636 184.959H805.223L811.43 195.709ZM810.355 174.58V186.034H812.505V174.58H810.355Z" fill="#FFBD6E"/>
<path d="M935.385 195.709L941.591 184.959H929.178L935.385 195.709ZM934.31 174.58V186.034H936.46V174.58H934.31Z" fill="#FFBD6E"/>
<path d="M313.988 288.756L320.195 299.506H307.782L313.988 288.756ZM312.913 309.885V298.431H315.063V309.885H312.913Z" fill="#FFBD6E"/>
<path d="M562.291 288.756L568.498 299.506H556.084L562.291 288.756ZM561.216 309.885V298.431H563.366V309.885H561.216Z" fill="#FFBD6E"/>
<path d="M1060.57 288.756L1066.78 299.506H1054.37L1060.57 288.756ZM1059.5 309.885V298.431H1061.65V309.885H1059.5Z" fill="#FFBD6E"/>
<path d="M686.857 288.756L693.064 299.506H680.651L686.857 288.756ZM685.782 309.885V298.431H687.932V309.885H685.782Z" fill="#FFBD6E"/>
<path d="M705.787 310.102C705.047 310.102 704.343 309.979 703.676 309.732C703.023 309.486 702.45 309.065 701.957 308.47C701.464 307.861 701.072 307.056 700.782 306.055C700.492 305.039 700.347 303.777 700.347 302.269V301.833C700.347 300.426 700.492 299.251 700.782 298.308C701.072 297.365 701.464 296.611 701.957 296.045C702.45 295.465 703.023 295.051 703.676 294.805C704.343 294.558 705.047 294.435 705.787 294.435C706.527 294.435 707.223 294.558 707.876 294.805C708.543 295.051 709.123 295.465 709.617 296.045C710.11 296.611 710.501 297.365 710.792 298.308C711.082 299.251 711.227 300.426 711.227 301.833V302.269C711.227 303.777 711.082 305.039 710.792 306.055C710.501 307.056 710.11 307.861 709.617 308.47C709.123 309.065 708.543 309.486 707.876 309.732C707.223 309.979 706.527 310.102 705.787 310.102ZM705.787 308.318C706.236 308.318 706.664 308.238 707.071 308.079C707.491 307.905 707.854 307.6 708.159 307.165C708.478 306.715 708.724 306.098 708.898 305.315C709.087 304.532 709.181 303.516 709.181 302.269V301.833C709.181 300.702 709.087 299.773 708.898 299.048C708.724 298.323 708.478 297.75 708.159 297.329C707.854 296.908 707.491 296.618 707.071 296.459C706.664 296.299 706.236 296.219 705.787 296.219C705.323 296.219 704.887 296.299 704.481 296.459C704.075 296.618 703.712 296.908 703.393 297.329C703.088 297.75 702.842 298.323 702.653 299.048C702.479 299.773 702.392 300.702 702.392 301.833V302.269C702.392 303.516 702.479 304.532 702.653 305.315C702.842 306.098 703.088 306.715 703.393 307.165C703.712 307.6 704.075 307.905 704.481 308.079C704.887 308.238 705.323 308.318 705.787 308.318Z" fill="#FFBD6E"/>
<path d="M580.377 310.102C579.637 310.102 578.933 309.979 578.266 309.732C577.613 309.486 577.04 309.065 576.547 308.47C576.054 307.861 575.662 307.056 575.372 306.055C575.082 305.039 574.936 303.777 574.936 302.269V301.833C574.936 300.426 575.082 299.251 575.372 298.308C575.662 297.365 576.054 296.611 576.547 296.045C577.04 295.465 577.613 295.051 578.266 294.805C578.933 294.558 579.637 294.435 580.377 294.435C581.116 294.435 581.813 294.558 582.466 294.805C583.133 295.051 583.713 295.465 584.206 296.045C584.7 296.611 585.091 297.365 585.381 298.308C585.672 299.251 585.817 300.426 585.817 301.833V302.269C585.817 303.777 585.672 305.039 585.381 306.055C585.091 307.056 584.7 307.861 584.206 308.47C583.713 309.065 583.133 309.486 582.466 309.732C581.813 309.979 581.116 310.102 580.377 310.102ZM580.377 308.318C580.826 308.318 581.254 308.238 581.66 308.079C582.081 307.905 582.444 307.6 582.748 307.165C583.068 306.715 583.314 306.098 583.488 305.315C583.677 304.532 583.771 303.516 583.771 302.269V301.833C583.771 300.702 583.677 299.773 583.488 299.048C583.314 298.323 583.068 297.75 582.748 297.329C582.444 296.908 582.081 296.618 581.66 296.459C581.254 296.299 580.826 296.219 580.377 296.219C579.912 296.219 579.477 296.299 579.071 296.459C578.665 296.618 578.302 296.908 577.983 297.329C577.678 297.75 577.432 298.323 577.243 299.048C577.069 299.773 576.982 300.702 576.982 301.833V302.269C576.982 303.516 577.069 304.532 577.243 305.315C577.432 306.098 577.678 306.715 577.983 307.165C578.302 307.6 578.665 307.905 579.071 308.079C579.477 308.238 579.912 308.318 580.377 308.318Z" fill="#FFBD6E"/>
<path d="M332.076 310.102C331.336 310.102 330.632 309.979 329.965 309.732C329.312 309.486 328.739 309.065 328.246 308.47C327.753 307.861 327.361 307.056 327.071 306.055C326.781 305.039 326.636 303.777 326.636 302.269V301.833C326.636 300.426 326.781 299.251 327.071 298.308C327.361 297.365 327.753 296.611 328.246 296.045C328.739 295.465 329.312 295.051 329.965 294.805C330.632 294.558 331.336 294.435 332.076 294.435C332.816 294.435 333.512 294.558 334.165 294.805C334.832 295.051 335.412 295.465 335.906 296.045C336.399 296.611 336.791 297.365 337.081 298.308C337.371 299.251 337.516 300.426 337.516 301.833V302.269C337.516 303.777 337.371 305.039 337.081 306.055C336.791 307.056 336.399 307.861 335.906 308.47C335.412 309.065 334.832 309.486 334.165 309.732C333.512 309.979 332.816 310.102 332.076 310.102ZM332.076 308.318C332.526 308.318 332.953 308.238 333.36 308.079C333.78 307.905 334.143 307.6 334.448 307.165C334.767 306.715 335.013 306.098 335.188 305.315C335.376 304.532 335.47 303.516 335.47 302.269V301.833C335.47 300.702 335.376 299.773 335.188 299.048C335.013 298.323 334.767 297.75 334.448 297.329C334.143 296.908 333.78 296.618 333.36 296.459C332.953 296.299 332.526 296.219 332.076 296.219C331.612 296.219 331.176 296.299 330.77 296.459C330.364 296.618 330.001 296.908 329.682 297.329C329.378 297.75 329.131 298.323 328.942 299.048C328.768 299.773 328.681 300.702 328.681 301.833V302.269C328.681 303.516 328.768 304.532 328.942 305.315C329.131 306.098 329.378 306.715 329.682 307.165C330.001 307.6 330.364 307.905 330.77 308.079C331.176 308.238 331.612 308.318 332.076 308.318Z" fill="#FFBD6E"/>
</svg>
