<svg width="1301" height="933" viewBox="0 0 1301 933" fill="none" xmlns="http://www.w3.org/2000/svg">
<path d="M347.67 100.218V832.256" stroke="#949494" stroke-dasharray="4 4"/>
<path d="M447.67 100.218V832.256" stroke="#949494" stroke-dasharray="4 4"/>
<path d="M547.67 100.218V832.256" stroke="#949494" stroke-dasharray="4 4"/>
<path d="M647.67 100.218V832.256" stroke="#949494" stroke-dasharray="4 4"/>
<path d="M747.67 100.218V832.256" stroke="#949494" stroke-dasharray="4 4"/>
<path d="M847.67 100.218V832.256" stroke="#949494" stroke-dasharray="4 4"/>
<path d="M947.67 100.218V832.256" stroke="#949494" stroke-dasharray="4 4"/>
<path d="M1047.67 100.218V832.256" stroke="#949494" stroke-dasharray="4 4"/>
<path d="M1147.67 100.218V832.256" stroke="#949494" stroke-dasharray="4 4"/>
<path d="M184.258 144.328L178.484 154.328H190.031L184.258 144.328ZM184.258 266.928H183.258V267.928H184.258V266.928ZM1184.31 266.928L1174.31 261.154V272.701L1184.31 266.928ZM183.258 153.328V266.928H185.258V153.328H183.258ZM184.258 267.928H1175.31V265.928H184.258V267.928Z" fill="black"/>
<path d="M1206.35 247.697H1211.79C1212.7 247.697 1213.48 247.799 1214.14 248.002C1214.79 248.205 1215.33 248.488 1215.75 248.85C1216.18 249.198 1216.5 249.626 1216.7 250.134C1216.91 250.627 1217.01 251.171 1217.01 251.766C1217.01 252.55 1216.79 253.224 1216.36 253.79C1215.92 254.341 1215.38 254.74 1214.75 254.987C1215.65 255.19 1216.36 255.603 1216.88 256.227C1217.4 256.836 1217.66 257.634 1217.66 258.621C1217.66 259.244 1217.56 259.817 1217.36 260.34C1217.15 260.862 1216.83 261.319 1216.4 261.711C1215.96 262.088 1215.4 262.385 1214.7 262.603C1214.02 262.82 1213.19 262.929 1212.22 262.929H1206.35V247.697ZM1212.22 261.145C1212.87 261.145 1213.42 261.087 1213.85 260.971C1214.29 260.84 1214.64 260.666 1214.9 260.449C1215.16 260.216 1215.34 259.941 1215.44 259.622C1215.56 259.302 1215.62 258.947 1215.62 258.555C1215.62 258.164 1215.56 257.808 1215.44 257.489C1215.34 257.155 1215.16 256.88 1214.9 256.662C1214.64 256.43 1214.28 256.256 1213.83 256.14C1213.4 256.009 1212.85 255.944 1212.2 255.944H1208.39V261.145H1212.22ZM1211.79 254.247C1212.4 254.247 1212.9 254.189 1213.31 254.073C1213.72 253.957 1214.04 253.79 1214.29 253.572C1214.54 253.355 1214.71 253.101 1214.81 252.811C1214.91 252.52 1214.96 252.201 1214.96 251.853C1214.96 251.505 1214.91 251.186 1214.81 250.896C1214.71 250.591 1214.54 250.337 1214.29 250.134C1214.04 249.931 1213.72 249.771 1213.31 249.655C1212.9 249.539 1212.4 249.481 1211.79 249.481H1208.39V254.247H1211.79ZM1220.49 251.396H1222.27V253.572C1222.66 252.803 1223.21 252.216 1223.91 251.81C1224.62 251.389 1225.44 251.179 1226.36 251.179C1227.81 251.179 1228.98 251.657 1229.85 252.615C1230.72 253.558 1231.15 254.965 1231.15 256.836V257.272C1231.15 258.258 1231.04 259.121 1230.8 259.861C1230.57 260.586 1230.24 261.196 1229.82 261.689C1229.4 262.168 1228.9 262.53 1228.3 262.777C1227.72 263.023 1227.07 263.147 1226.36 263.147C1225.38 263.147 1224.55 262.929 1223.88 262.494C1223.23 262.059 1222.74 261.515 1222.4 260.862V267.281H1220.49V251.396ZM1225.93 261.449C1226.39 261.449 1226.83 261.362 1227.23 261.188C1227.64 261 1227.99 260.731 1228.28 260.383C1228.58 260.035 1228.82 259.6 1228.98 259.078C1229.15 258.555 1229.24 257.953 1229.24 257.272V256.836C1229.24 256.213 1229.15 255.654 1228.98 255.161C1228.82 254.668 1228.58 254.254 1228.28 253.92C1227.99 253.572 1227.64 253.311 1227.23 253.137C1226.83 252.963 1226.39 252.876 1225.93 252.876C1225.41 252.876 1224.93 252.963 1224.49 253.137C1224.06 253.297 1223.69 253.529 1223.38 253.833C1223.08 254.124 1222.84 254.472 1222.66 254.878C1222.49 255.284 1222.4 255.719 1222.4 256.183V257.924C1222.4 258.447 1222.49 258.925 1222.66 259.361C1222.84 259.796 1223.08 260.166 1223.38 260.47C1223.69 260.775 1224.06 261.014 1224.49 261.188C1224.93 261.362 1225.41 261.449 1225.93 261.449ZM1238.66 263.147C1237.92 263.147 1237.22 263.031 1236.55 262.799C1235.89 262.567 1235.3 262.211 1234.79 261.732C1234.28 261.239 1233.88 260.623 1233.57 259.883C1233.27 259.143 1233.11 258.272 1233.11 257.272V256.836C1233.11 255.879 1233.26 255.052 1233.55 254.356C1233.84 253.645 1234.22 253.057 1234.7 252.593C1235.2 252.114 1235.76 251.759 1236.4 251.527C1237.05 251.295 1237.74 251.179 1238.45 251.179C1240.14 251.179 1241.46 251.643 1242.38 252.571C1243.31 253.5 1243.78 254.813 1243.78 256.51V257.728H1235.03C1235.03 258.41 1235.14 258.983 1235.36 259.448C1235.57 259.912 1235.86 260.289 1236.2 260.579C1236.55 260.869 1236.94 261.08 1237.36 261.21C1237.79 261.341 1238.23 261.406 1238.66 261.406C1239.53 261.406 1240.2 261.261 1240.67 260.971C1241.14 260.681 1241.49 260.282 1241.69 259.774H1243.56C1243.44 260.325 1243.23 260.811 1242.93 261.232C1242.64 261.653 1242.28 262.008 1241.84 262.298C1241.42 262.574 1240.93 262.784 1240.38 262.929C1239.85 263.074 1239.27 263.147 1238.66 263.147ZM1238.55 252.919C1238.11 252.919 1237.67 252.985 1237.25 253.115C1236.83 253.231 1236.45 253.427 1236.12 253.703C1235.8 253.964 1235.54 254.298 1235.33 254.704C1235.13 255.11 1235.03 255.596 1235.03 256.162H1241.97C1241.96 255.567 1241.86 255.066 1241.67 254.66C1241.49 254.24 1241.25 253.906 1240.95 253.659C1240.64 253.398 1240.28 253.21 1239.86 253.094C1239.45 252.977 1239.02 252.919 1238.55 252.919ZM1246.5 251.396H1248.54L1252.66 258.577L1256.77 251.396H1258.68V262.929H1256.77V254.551L1253.35 260.427H1251.83L1248.41 254.551V262.929H1246.5V251.396ZM1264.42 258.36C1263.47 258.142 1262.78 257.75 1262.36 257.184C1261.94 256.604 1261.73 255.864 1261.73 254.965C1261.73 253.833 1262.07 252.956 1262.75 252.332C1263.44 251.708 1264.55 251.396 1266.08 251.396H1271.08V262.929H1269.17V258.534H1266.23L1263.42 262.929H1261.29L1264.42 258.36ZM1263.64 254.965C1263.64 255.574 1263.81 256.038 1264.16 256.358C1264.53 256.677 1265.13 256.836 1265.97 256.836H1269.17V253.094H1265.97C1265.13 253.094 1264.53 253.253 1264.16 253.572C1263.81 253.891 1263.64 254.356 1263.64 254.965Z" fill="black"/>
<path d="M30.0076 190.4H32.0531V196.906H40.1479V190.4H42.1934V205.632H40.1479V198.691H32.0531V205.632H30.0076V190.4ZM49.391 205.85C48.7527 205.85 48.1869 205.763 47.6937 205.589C47.2149 205.4 46.8087 205.146 46.4751 204.827C46.1414 204.508 45.8875 204.131 45.7135 203.696C45.5394 203.26 45.4523 202.782 45.4523 202.259C45.4523 201.113 45.786 200.287 46.4533 199.779C47.1351 199.271 48.1071 199.017 49.3692 199.017H53.112V198.234C53.112 197.247 52.8871 196.566 52.4374 196.188C52.0022 195.811 51.3421 195.623 50.4572 195.623C49.6303 195.623 49.0283 195.782 48.6511 196.101C48.2739 196.406 48.0636 196.754 48.0201 197.146H46.1052C46.1342 196.682 46.2575 196.254 46.4751 195.862C46.7072 195.456 47.0118 195.108 47.389 194.817C47.7807 194.527 48.2449 194.302 48.7817 194.143C49.3184 193.969 49.9132 193.882 50.566 193.882C51.9297 193.882 53.0104 194.208 53.8083 194.861C54.6207 195.499 55.0269 196.551 55.0269 198.016V202.695C55.0269 203.304 55.0269 203.841 55.0269 204.305C55.0414 204.755 55.0777 205.197 55.1357 205.632H53.4601C53.4166 205.299 53.3876 204.987 53.3731 204.697C53.3586 204.392 53.3513 204.051 53.3513 203.674C53.0467 204.283 52.5535 204.798 51.8716 205.219C51.1898 205.64 50.3629 205.85 49.391 205.85ZM49.8044 204.109C50.2541 204.109 50.6748 204.051 51.0665 203.935C51.4727 203.804 51.8281 203.623 52.1328 203.391C52.4374 203.144 52.6768 202.847 52.8509 202.499C53.0249 202.151 53.112 201.744 53.112 201.28V200.497H49.6956C48.9848 200.497 48.4263 200.642 48.0201 200.932C47.6139 201.208 47.4108 201.65 47.4108 202.259C47.4108 202.796 47.5994 203.239 47.9765 203.587C48.3682 203.935 48.9775 204.109 49.8044 204.109ZM58.4091 194.099H67.9837V205.632H66.0687V195.797H60.324V205.632H58.4091V194.099ZM71.4568 194.099H73.2412V196.275C73.6328 195.507 74.1769 194.919 74.8732 194.513C75.584 194.092 76.4037 193.882 77.3321 193.882C78.7828 193.882 79.9433 194.36 80.8138 195.318C81.6842 196.261 82.1194 197.668 82.1194 199.539V199.975C82.1194 200.961 82.0033 201.824 81.7712 202.564C81.5391 203.289 81.2127 203.899 80.792 204.392C80.3713 204.871 79.8636 205.233 79.2688 205.48C78.6885 205.727 78.0429 205.85 77.3321 205.85C76.3456 205.85 75.5187 205.632 74.8514 205.197C74.1986 204.762 73.7054 204.218 73.3717 203.565V209.984H71.4568V194.099ZM76.8969 204.153C77.3611 204.153 77.7963 204.066 78.2025 203.891C78.6087 203.703 78.9569 203.435 79.247 203.086C79.5517 202.738 79.7838 202.303 79.9433 201.781C80.1174 201.258 80.2045 200.656 80.2045 199.975V199.539C80.2045 198.916 80.1174 198.357 79.9433 197.864C79.7838 197.371 79.5517 196.957 79.247 196.624C78.9569 196.275 78.6087 196.014 78.2025 195.84C77.7963 195.666 77.3611 195.579 76.8969 195.579C76.3746 195.579 75.8959 195.666 75.4607 195.84C75.0255 196 74.6556 196.232 74.3509 196.536C74.0463 196.827 73.8069 197.175 73.6328 197.581C73.4588 197.987 73.3717 198.422 73.3717 198.887V200.627C73.3717 201.15 73.4588 201.628 73.6328 202.064C73.8069 202.499 74.0463 202.869 74.3509 203.173C74.6556 203.478 75.0255 203.717 75.4607 203.891C75.8959 204.066 76.3746 204.153 76.8969 204.153ZM87.1076 201.063C86.1501 200.845 85.4611 200.453 85.0404 199.888C84.6197 199.307 84.4093 198.567 84.4093 197.668C84.4093 196.536 84.7502 195.659 85.4321 195.035C86.1284 194.411 87.2382 194.099 88.7614 194.099H93.7663V205.632H91.8514V201.237H88.9137L86.1066 205.632H83.9741L87.1076 201.063ZM86.3242 197.668C86.3242 198.277 86.4983 198.742 86.8465 199.061C87.2091 199.38 87.8112 199.539 88.6526 199.539H91.8514V195.797H88.6526C87.8112 195.797 87.2091 195.956 86.8465 196.275C86.4983 196.595 86.3242 197.059 86.3242 197.668ZM100.41 199.692L96.2755 194.099H98.408L101.933 198.93H103.261V194.099H105.175V198.93H106.481L110.072 194.099H112.161L108.026 199.626L112.378 205.632H110.115L106.481 200.584H105.175V205.632H103.261V200.584H101.933L98.2775 205.632H96.0579L100.41 199.692ZM119.021 205.85C118.281 205.85 117.578 205.734 116.91 205.502C116.243 205.27 115.655 204.914 115.148 204.436C114.64 203.942 114.234 203.326 113.929 202.586C113.624 201.846 113.472 200.976 113.472 199.975V199.539C113.472 198.582 113.617 197.755 113.907 197.059C114.197 196.348 114.582 195.76 115.061 195.296C115.554 194.817 116.12 194.462 116.758 194.23C117.411 193.998 118.093 193.882 118.803 193.882C120.501 193.882 121.814 194.346 122.742 195.274C123.67 196.203 124.135 197.516 124.135 199.213V200.432H115.387C115.387 201.113 115.496 201.686 115.713 202.151C115.931 202.615 116.214 202.992 116.562 203.282C116.91 203.572 117.295 203.783 117.715 203.913C118.151 204.044 118.586 204.109 119.021 204.109C119.891 204.109 120.559 203.964 121.023 203.674C121.502 203.384 121.843 202.985 122.046 202.477H123.917C123.801 203.028 123.591 203.514 123.286 203.935C122.996 204.356 122.633 204.711 122.198 205.001C121.777 205.277 121.291 205.487 120.74 205.632C120.203 205.777 119.63 205.85 119.021 205.85ZM118.912 195.623C118.463 195.623 118.027 195.688 117.607 195.818C117.186 195.934 116.809 196.13 116.475 196.406C116.156 196.667 115.895 197.001 115.692 197.407C115.489 197.813 115.387 198.299 115.387 198.865H122.329C122.314 198.27 122.213 197.77 122.024 197.363C121.85 196.943 121.611 196.609 121.306 196.362C121.001 196.101 120.639 195.913 120.218 195.797C119.812 195.681 119.376 195.623 118.912 195.623ZM126.856 194.099H128.771V198.908H134.734V194.099H136.649V205.632H134.734V200.606H128.771V205.632H126.856V194.099ZM140.138 194.099H142.053V202.803L148.015 194.099H149.93V205.632H148.015V196.928L142.053 205.632H140.138V194.099ZM158.207 205.85C157.467 205.85 156.763 205.734 156.096 205.502C155.429 205.27 154.841 204.914 154.333 204.436C153.826 203.942 153.419 203.326 153.115 202.586C152.81 201.846 152.658 200.976 152.658 199.975V199.539C152.658 198.582 152.803 197.755 153.093 197.059C153.383 196.348 153.768 195.76 154.246 195.296C154.739 194.817 155.305 194.462 155.944 194.23C156.596 193.998 157.278 193.882 157.989 193.882C159.686 193.882 160.999 194.346 161.928 195.274C162.856 196.203 163.32 197.516 163.32 199.213V200.432H154.573C154.573 201.113 154.681 201.686 154.899 202.151C155.117 202.615 155.4 202.992 155.748 203.282C156.096 203.572 156.48 203.783 156.901 203.913C157.336 204.044 157.771 204.109 158.207 204.109C159.077 204.109 159.744 203.964 160.209 203.674C160.687 203.384 161.028 202.985 161.231 202.477H163.103C162.987 203.028 162.776 203.514 162.472 203.935C162.182 204.356 161.819 204.711 161.384 205.001C160.963 205.277 160.477 205.487 159.926 205.632C159.389 205.777 158.816 205.85 158.207 205.85ZM158.098 195.623C157.648 195.623 157.213 195.688 156.792 195.818C156.372 195.934 155.994 196.13 155.661 196.406C155.342 196.667 155.08 197.001 154.877 197.407C154.674 197.813 154.573 198.299 154.573 198.865H161.514C161.5 198.27 161.398 197.77 161.21 197.363C161.035 196.943 160.796 196.609 160.491 196.362C160.187 196.101 159.824 195.913 159.403 195.797C158.997 195.681 158.562 195.623 158.098 195.623Z" fill="black"/>
<path d="M222.528 205.628H210.669V190.396H212.714V203.844H220.374V190.396H222.419V203.844H224.486V208.457H222.528V205.628ZM226.872 194.095H228.787V202.8L234.75 194.095H236.665V205.628H234.75V196.924L228.787 205.628H226.872V194.095ZM245.507 205.846C243.505 205.846 241.982 205.338 240.937 204.323C239.907 203.307 239.392 201.864 239.392 199.992V199.557C239.392 197.773 239.907 196.38 240.937 195.379C241.982 194.378 243.505 193.878 245.507 193.878V190.396H247.422V193.878C249.424 193.878 250.94 194.378 251.97 195.379C253.014 196.38 253.537 197.773 253.537 199.557V199.992C253.537 201.864 253.014 203.307 251.97 204.323C250.94 205.338 249.424 205.846 247.422 205.846V209.98H245.507V205.846ZM251.578 199.557C251.578 198.237 251.237 197.251 250.555 196.598C249.888 195.945 248.836 195.619 247.4 195.619V204.105C248.836 204.105 249.888 203.772 250.555 203.104C251.237 202.437 251.578 201.4 251.578 199.992V199.557ZM241.351 199.992C241.351 201.4 241.684 202.437 242.352 203.104C243.034 203.772 244.093 204.105 245.529 204.105V195.619C244.093 195.619 243.034 195.945 242.352 196.598C241.684 197.251 241.351 198.237 241.351 199.557V199.992ZM256.262 194.095H258.046V196.271C258.438 195.503 258.982 194.915 259.678 194.509C260.389 194.088 261.209 193.878 262.137 193.878C263.588 193.878 264.748 194.357 265.619 195.314C266.489 196.257 266.924 197.664 266.924 199.536V199.971C266.924 200.957 266.808 201.82 266.576 202.56C266.344 203.286 266.018 203.895 265.597 204.388C265.176 204.867 264.668 205.229 264.074 205.476C263.493 205.723 262.848 205.846 262.137 205.846C261.151 205.846 260.324 205.628 259.656 205.193C259.003 204.758 258.51 204.214 258.177 203.561V209.98H256.262V194.095ZM261.702 204.149C262.166 204.149 262.601 204.062 263.007 203.888C263.414 203.699 263.762 203.431 264.052 203.082C264.357 202.734 264.589 202.299 264.748 201.777C264.922 201.255 265.009 200.653 265.009 199.971V199.536C265.009 198.912 264.922 198.353 264.748 197.86C264.589 197.367 264.357 196.953 264.052 196.62C263.762 196.271 263.414 196.01 263.007 195.836C262.601 195.662 262.166 195.575 261.702 195.575C261.18 195.575 260.701 195.662 260.266 195.836C259.83 195.996 259.46 196.228 259.156 196.533C258.851 196.823 258.612 197.171 258.438 197.577C258.264 197.983 258.177 198.418 258.177 198.883V200.624C258.177 201.146 258.264 201.625 258.438 202.06C258.612 202.495 258.851 202.865 259.156 203.169C259.46 203.474 259.83 203.714 260.266 203.888C260.701 204.062 261.18 204.149 261.702 204.149ZM274.437 205.846C273.697 205.846 272.993 205.73 272.326 205.498C271.659 205.251 271.071 204.889 270.563 204.41C270.056 203.917 269.649 203.3 269.345 202.56C269.04 201.82 268.888 200.957 268.888 199.971V199.536C268.888 198.607 269.04 197.787 269.345 197.077C269.649 196.366 270.056 195.778 270.563 195.314C271.071 194.835 271.659 194.48 272.326 194.248C272.993 194.001 273.697 193.878 274.437 193.878C275.177 193.878 275.88 194.001 276.547 194.248C277.215 194.48 277.802 194.835 278.31 195.314C278.818 195.778 279.224 196.366 279.529 197.077C279.833 197.787 279.986 198.607 279.986 199.536V199.971C279.986 200.957 279.833 201.82 279.529 202.56C279.224 203.3 278.818 203.917 278.31 204.41C277.802 204.889 277.215 205.251 276.547 205.498C275.88 205.73 275.177 205.846 274.437 205.846ZM274.437 204.105C274.872 204.105 275.307 204.033 275.742 203.888C276.178 203.728 276.562 203.489 276.896 203.169C277.229 202.836 277.498 202.408 277.701 201.886C277.918 201.363 278.027 200.725 278.027 199.971V199.536C278.027 198.839 277.918 198.244 277.701 197.751C277.498 197.258 277.229 196.852 276.896 196.533C276.562 196.213 276.178 195.981 275.742 195.836C275.307 195.691 274.872 195.619 274.437 195.619C274.001 195.619 273.566 195.691 273.131 195.836C272.696 195.981 272.311 196.213 271.978 196.533C271.644 196.852 271.368 197.258 271.151 197.751C270.948 198.244 270.846 198.839 270.846 199.536V199.971C270.846 200.725 270.948 201.363 271.151 201.886C271.368 202.408 271.644 202.836 271.978 203.169C272.311 203.489 272.696 203.728 273.131 203.888C273.566 204.033 274.001 204.105 274.437 204.105ZM282.697 194.095H287.702C289.124 194.095 290.168 194.393 290.835 194.988C291.503 195.568 291.836 196.322 291.836 197.251C291.836 197.497 291.793 197.751 291.706 198.012C291.619 198.259 291.496 198.491 291.336 198.709C291.191 198.926 291.01 199.115 290.792 199.274C290.589 199.434 290.357 199.557 290.096 199.644C290.806 199.818 291.343 200.152 291.706 200.645C292.083 201.124 292.272 201.69 292.272 202.343C292.272 203.344 291.938 204.141 291.271 204.736C290.603 205.331 289.559 205.628 288.137 205.628H282.697V194.095ZM288.137 203.931C288.95 203.931 289.523 203.786 289.856 203.496C290.19 203.206 290.357 202.792 290.357 202.256C290.357 201.704 290.19 201.284 289.856 200.993C289.523 200.689 288.95 200.536 288.137 200.536H284.612V203.931H288.137ZM287.702 198.97C288.529 198.97 289.102 198.825 289.421 198.535C289.755 198.244 289.922 197.845 289.922 197.338C289.922 196.859 289.755 196.482 289.421 196.206C289.102 195.931 288.529 195.793 287.702 195.793H284.612V198.97H287.702ZM299.788 205.846C299.048 205.846 298.345 205.73 297.678 205.498C297.01 205.251 296.423 204.889 295.915 204.41C295.407 203.917 295.001 203.3 294.696 202.56C294.392 201.82 294.239 200.957 294.239 199.971V199.536C294.239 198.607 294.392 197.787 294.696 197.077C295.001 196.366 295.407 195.778 295.915 195.314C296.423 194.835 297.01 194.48 297.678 194.248C298.345 194.001 299.048 193.878 299.788 193.878C300.528 193.878 301.232 194.001 301.899 194.248C302.566 194.48 303.154 194.835 303.662 195.314C304.169 195.778 304.576 196.366 304.88 197.077C305.185 197.787 305.337 198.607 305.337 199.536V199.971C305.337 200.957 305.185 201.82 304.88 202.56C304.576 203.3 304.169 203.917 303.662 204.41C303.154 204.889 302.566 205.251 301.899 205.498C301.232 205.73 300.528 205.846 299.788 205.846ZM299.788 204.105C300.224 204.105 300.659 204.033 301.094 203.888C301.529 203.728 301.914 203.489 302.247 203.169C302.581 202.836 302.849 202.408 303.052 201.886C303.27 201.363 303.379 200.725 303.379 199.971V199.536C303.379 198.839 303.27 198.244 303.052 197.751C302.849 197.258 302.581 196.852 302.247 196.533C301.914 196.213 301.529 195.981 301.094 195.836C300.659 195.691 300.224 195.619 299.788 195.619C299.353 195.619 298.918 195.691 298.483 195.836C298.048 195.981 297.663 196.213 297.329 196.533C296.996 196.852 296.72 197.258 296.503 197.751C296.299 198.244 296.198 198.839 296.198 199.536V199.971C296.198 200.725 296.299 201.363 296.503 201.886C296.72 202.408 296.996 202.836 297.329 203.169C297.663 203.489 298.048 203.728 298.483 203.888C298.918 204.033 299.353 204.105 299.788 204.105ZM308.049 194.095H309.964V202.8L315.926 194.095H317.841V205.628H315.926V196.924L309.964 205.628H308.049V194.095ZM312.945 192.681C311.813 192.681 310.986 192.442 310.464 191.963C309.942 191.47 309.681 190.766 309.681 189.852H311.552C311.552 190.839 312.016 191.332 312.945 191.332C313.902 191.332 314.381 190.839 314.381 189.852H316.209C316.209 190.766 315.948 191.47 315.426 191.963C314.903 192.442 314.076 192.681 312.945 192.681ZM233.511 229.846C232.772 229.846 232.083 229.73 231.444 229.498C230.806 229.251 230.255 228.889 229.79 228.41C229.326 227.917 228.956 227.3 228.681 226.56C228.42 225.82 228.289 224.957 228.289 223.971V223.536C228.289 222.607 228.434 221.787 228.724 221.077C229.014 220.366 229.399 219.778 229.878 219.314C230.356 218.835 230.908 218.48 231.531 218.248C232.17 218.001 232.83 217.878 233.511 217.878C234.193 217.878 234.803 217.972 235.339 218.161C235.891 218.349 236.362 218.61 236.754 218.944C237.16 219.278 237.486 219.669 237.733 220.119C237.994 220.569 238.183 221.055 238.299 221.577H236.34C236.224 221.301 236.086 221.048 235.927 220.815C235.782 220.569 235.593 220.359 235.361 220.184C235.144 220.01 234.882 219.873 234.578 219.771C234.273 219.669 233.918 219.619 233.511 219.619C233.091 219.619 232.685 219.698 232.293 219.858C231.901 220.003 231.553 220.235 231.248 220.554C230.944 220.859 230.697 221.258 230.509 221.751C230.334 222.244 230.247 222.839 230.247 223.536V223.971C230.247 224.711 230.334 225.349 230.509 225.886C230.697 226.408 230.944 226.836 231.248 227.169C231.553 227.489 231.901 227.728 232.293 227.888C232.685 228.033 233.091 228.105 233.511 228.105C234.222 228.105 234.817 227.931 235.296 227.583C235.789 227.235 236.137 226.756 236.34 226.147H238.299C238.023 227.293 237.457 228.199 236.601 228.867C235.746 229.52 234.716 229.846 233.511 229.846ZM240.908 218.095H242.823V226.8L248.786 218.095H250.7V229.628H248.786V220.924L242.823 229.628H240.908V218.095ZM254.19 218.095H262.024V219.793H256.105V229.628H254.19V218.095ZM264.199 218.095H266.114V222.904H272.076V218.095H273.991V229.628H272.076V224.602H266.114V229.628H264.199V218.095ZM280.766 229.846C280.128 229.846 279.562 229.759 279.069 229.585C278.59 229.396 278.184 229.142 277.85 228.823C277.516 228.504 277.263 228.127 277.088 227.692C276.914 227.257 276.827 226.778 276.827 226.256C276.827 225.11 277.161 224.283 277.828 223.775C278.51 223.267 279.482 223.013 280.744 223.013H284.487V222.23C284.487 221.243 284.262 220.562 283.812 220.184C283.377 219.807 282.717 219.619 281.832 219.619C281.005 219.619 280.403 219.778 280.026 220.097C279.649 220.402 279.439 220.75 279.395 221.142H277.48C277.509 220.678 277.632 220.25 277.85 219.858C278.082 219.452 278.387 219.104 278.764 218.814C279.156 218.523 279.62 218.299 280.157 218.139C280.693 217.965 281.288 217.878 281.941 217.878C283.305 217.878 284.385 218.204 285.183 218.857C285.996 219.495 286.402 220.547 286.402 222.012V226.691C286.402 227.3 286.402 227.837 286.402 228.301C286.416 228.751 286.453 229.193 286.511 229.628H284.835C284.792 229.295 284.763 228.983 284.748 228.693C284.734 228.388 284.726 228.047 284.726 227.67C284.422 228.279 283.928 228.794 283.247 229.215C282.565 229.636 281.738 229.846 280.766 229.846ZM281.179 228.105C281.629 228.105 282.05 228.047 282.442 227.931C282.848 227.801 283.203 227.619 283.508 227.387C283.812 227.14 284.052 226.843 284.226 226.495C284.4 226.147 284.487 225.741 284.487 225.276V224.493H281.071C280.36 224.493 279.801 224.638 279.395 224.928C278.989 225.204 278.786 225.646 278.786 226.256C278.786 226.792 278.974 227.235 279.352 227.583C279.743 227.931 280.353 228.105 281.179 228.105ZM289.24 229.846C289.022 229.846 288.805 229.824 288.587 229.781V227.866C288.66 227.88 288.769 227.888 288.914 227.888C289.233 227.888 289.508 227.786 289.741 227.583C289.987 227.38 290.183 227.024 290.328 226.517C290.473 226.009 290.582 225.32 290.655 224.449C290.727 223.579 290.763 222.477 290.763 221.142V218.095H299.032V229.628H297.117V219.793H292.678V221.577C292.678 223.187 292.606 224.522 292.461 225.581C292.316 226.64 292.098 227.489 291.808 228.127C291.532 228.751 291.177 229.193 290.742 229.454C290.306 229.715 289.806 229.846 289.24 229.846Z" fill="black"/>
<path d="M184.258 332.773L178.484 342.773H190.031L184.258 332.773ZM184.258 455.373H183.258V456.373H184.258V455.373ZM1184.31 455.373L1174.31 449.599V461.146L1184.31 455.373ZM183.258 341.773V455.373H185.258V341.773H183.258ZM184.258 456.373H1175.31V454.373H184.258V456.373Z" fill="black"/>
<path d="M1206.35 436.142H1211.79C1212.7 436.142 1213.48 436.244 1214.14 436.447C1214.79 436.65 1215.33 436.933 1215.75 437.296C1216.18 437.644 1216.5 438.072 1216.7 438.579C1216.91 439.073 1217.01 439.617 1217.01 440.211C1217.01 440.995 1216.79 441.669 1216.36 442.235C1215.92 442.786 1215.38 443.185 1214.75 443.432C1215.65 443.635 1216.36 444.049 1216.88 444.672C1217.4 445.282 1217.66 446.079 1217.66 447.066C1217.66 447.69 1217.56 448.263 1217.36 448.785C1217.15 449.307 1216.83 449.764 1216.4 450.156C1215.96 450.533 1215.4 450.831 1214.7 451.048C1214.02 451.266 1213.19 451.375 1212.22 451.375H1206.35V436.142ZM1212.22 449.59C1212.87 449.59 1213.42 449.532 1213.85 449.416C1214.29 449.286 1214.64 449.111 1214.9 448.894C1215.16 448.662 1215.34 448.386 1215.44 448.067C1215.56 447.748 1215.62 447.392 1215.62 447.001C1215.62 446.609 1215.56 446.254 1215.44 445.934C1215.34 445.601 1215.16 445.325 1214.9 445.108C1214.64 444.875 1214.28 444.701 1213.83 444.585C1213.4 444.455 1212.85 444.389 1212.2 444.389H1208.39V449.59H1212.22ZM1211.79 442.692C1212.4 442.692 1212.9 442.634 1213.31 442.518C1213.72 442.402 1214.04 442.235 1214.29 442.018C1214.54 441.8 1214.71 441.546 1214.81 441.256C1214.91 440.966 1214.96 440.647 1214.96 440.298C1214.96 439.95 1214.91 439.631 1214.81 439.341C1214.71 439.036 1214.54 438.783 1214.29 438.579C1214.04 438.376 1213.72 438.217 1213.31 438.101C1212.9 437.985 1212.4 437.927 1211.79 437.927H1208.39V442.692H1211.79ZM1220.49 439.842H1222.27V442.018C1222.66 441.249 1223.21 440.661 1223.91 440.255C1224.62 439.834 1225.44 439.624 1226.36 439.624C1227.81 439.624 1228.98 440.103 1229.85 441.06C1230.72 442.003 1231.15 443.41 1231.15 445.282V445.717C1231.15 446.703 1231.04 447.566 1230.8 448.306C1230.57 449.032 1230.24 449.641 1229.82 450.134C1229.4 450.613 1228.9 450.976 1228.3 451.222C1227.72 451.469 1227.07 451.592 1226.36 451.592C1225.38 451.592 1224.55 451.375 1223.88 450.939C1223.23 450.504 1222.74 449.96 1222.4 449.307V455.727H1220.49V439.842ZM1225.93 449.895C1226.39 449.895 1226.83 449.808 1227.23 449.634C1227.64 449.445 1227.99 449.177 1228.28 448.829C1228.58 448.48 1228.82 448.045 1228.98 447.523C1229.15 447.001 1229.24 446.399 1229.24 445.717V445.282C1229.24 444.658 1229.15 444.099 1228.98 443.606C1228.82 443.113 1228.58 442.699 1228.28 442.366C1227.99 442.018 1227.64 441.756 1227.23 441.582C1226.83 441.408 1226.39 441.321 1225.93 441.321C1225.41 441.321 1224.93 441.408 1224.49 441.582C1224.06 441.742 1223.69 441.974 1223.38 442.279C1223.08 442.569 1222.84 442.917 1222.66 443.323C1222.49 443.729 1222.4 444.165 1222.4 444.629V446.37C1222.4 446.892 1222.49 447.371 1222.66 447.806C1222.84 448.241 1223.08 448.611 1223.38 448.916C1223.69 449.22 1224.06 449.46 1224.49 449.634C1224.93 449.808 1225.41 449.895 1225.93 449.895ZM1238.66 451.592C1237.92 451.592 1237.22 451.476 1236.55 451.244C1235.89 451.012 1235.3 450.656 1234.79 450.178C1234.28 449.684 1233.88 449.068 1233.57 448.328C1233.27 447.588 1233.11 446.718 1233.11 445.717V445.282C1233.11 444.324 1233.26 443.497 1233.55 442.801C1233.84 442.09 1234.22 441.503 1234.7 441.038C1235.2 440.56 1235.76 440.204 1236.4 439.972C1237.05 439.74 1237.74 439.624 1238.45 439.624C1240.14 439.624 1241.46 440.088 1242.38 441.017C1243.31 441.945 1243.78 443.258 1243.78 444.955V446.174H1235.03C1235.03 446.856 1235.14 447.429 1235.36 447.893C1235.57 448.357 1235.86 448.734 1236.2 449.024C1236.55 449.315 1236.94 449.525 1237.36 449.655C1237.79 449.786 1238.23 449.851 1238.66 449.851C1239.53 449.851 1240.2 449.706 1240.67 449.416C1241.14 449.126 1241.49 448.727 1241.69 448.219H1243.56C1243.44 448.771 1243.23 449.257 1242.93 449.677C1242.64 450.098 1242.28 450.453 1241.84 450.743C1241.42 451.019 1240.93 451.229 1240.38 451.375C1239.85 451.52 1239.27 451.592 1238.66 451.592ZM1238.55 441.365C1238.11 441.365 1237.67 441.43 1237.25 441.561C1236.83 441.677 1236.45 441.872 1236.12 442.148C1235.8 442.409 1235.54 442.743 1235.33 443.149C1235.13 443.555 1235.03 444.041 1235.03 444.607H1241.97C1241.96 444.012 1241.86 443.512 1241.67 443.106C1241.49 442.685 1241.25 442.351 1240.95 442.105C1240.64 441.843 1240.28 441.655 1239.86 441.539C1239.45 441.423 1239.02 441.365 1238.55 441.365ZM1246.5 439.842H1248.54L1252.66 447.022L1256.77 439.842H1258.68V451.375H1256.77V442.997L1253.35 448.872H1251.83L1248.41 442.997V451.375H1246.5V439.842ZM1264.42 446.805C1263.47 446.587 1262.78 446.196 1262.36 445.63C1261.94 445.05 1261.73 444.31 1261.73 443.41C1261.73 442.279 1262.07 441.401 1262.75 440.777C1263.44 440.153 1264.55 439.842 1266.08 439.842H1271.08V451.375H1269.17V446.979H1266.23L1263.42 451.375H1261.29L1264.42 446.805ZM1263.64 443.41C1263.64 444.02 1263.81 444.484 1264.16 444.803C1264.53 445.122 1265.13 445.282 1265.97 445.282H1269.17V441.539H1265.97C1265.13 441.539 1264.53 441.698 1264.16 442.018C1263.81 442.337 1263.64 442.801 1263.64 443.41Z" fill="black"/>
<path d="M30.0076 378.845H32.0531V385.352H40.1479V378.845H42.1934V394.078H40.1479V387.136H32.0531V394.078H30.0076V378.845ZM49.391 394.295C48.7527 394.295 48.1869 394.208 47.6937 394.034C47.2149 393.846 46.8087 393.592 46.4751 393.273C46.1414 392.953 45.8875 392.576 45.7135 392.141C45.5394 391.706 45.4523 391.227 45.4523 390.705C45.4523 389.559 45.786 388.732 46.4533 388.224C47.1351 387.716 48.1071 387.462 49.3692 387.462H53.112V386.679C53.112 385.693 52.8871 385.011 52.4374 384.634C52.0022 384.256 51.3421 384.068 50.4572 384.068C49.6303 384.068 49.0283 384.227 48.6511 384.547C48.2739 384.851 48.0636 385.199 48.0201 385.591H46.1052C46.1342 385.127 46.2575 384.699 46.4751 384.307C46.7072 383.901 47.0118 383.553 47.389 383.263C47.7807 382.973 48.2449 382.748 48.7817 382.588C49.3184 382.414 49.9132 382.327 50.566 382.327C51.9297 382.327 53.0104 382.653 53.8083 383.306C54.6207 383.945 55.0269 384.996 55.0269 386.462V391.14C55.0269 391.749 55.0269 392.286 55.0269 392.75C55.0414 393.2 55.0777 393.642 55.1357 394.078H53.4601C53.4166 393.744 53.3876 393.432 53.3731 393.142C53.3586 392.837 53.3513 392.496 53.3513 392.119C53.0467 392.728 52.5535 393.243 51.8716 393.664C51.1898 394.085 50.3629 394.295 49.391 394.295ZM49.8044 392.554C50.2541 392.554 50.6748 392.496 51.0665 392.38C51.4727 392.25 51.8281 392.068 52.1328 391.836C52.4374 391.59 52.6768 391.292 52.8509 390.944C53.0249 390.596 53.112 390.19 53.112 389.726V388.942H49.6956C48.9848 388.942 48.4263 389.087 48.0201 389.377C47.6139 389.653 47.4108 390.095 47.4108 390.705C47.4108 391.242 47.5994 391.684 47.9765 392.032C48.3682 392.38 48.9775 392.554 49.8044 392.554ZM58.4091 382.545H67.9837V394.078H66.0687V384.242H60.324V394.078H58.4091V382.545ZM71.4568 382.545H73.2412V384.721C73.6328 383.952 74.1769 383.364 74.8732 382.958C75.584 382.537 76.4037 382.327 77.3321 382.327C78.7828 382.327 79.9433 382.806 80.8138 383.763C81.6842 384.706 82.1194 386.113 82.1194 387.985V388.42C82.1194 389.406 82.0033 390.27 81.7712 391.009C81.5391 391.735 81.2127 392.344 80.792 392.837C80.3713 393.316 79.8636 393.679 79.2688 393.925C78.6885 394.172 78.0429 394.295 77.3321 394.295C76.3456 394.295 75.5187 394.078 74.8514 393.642C74.1986 393.207 73.7054 392.663 73.3717 392.01V398.43H71.4568V382.545ZM76.8969 392.598C77.3611 392.598 77.7963 392.511 78.2025 392.337C78.6087 392.148 78.9569 391.88 79.247 391.532C79.5517 391.184 79.7838 390.748 79.9433 390.226C80.1174 389.704 80.2045 389.102 80.2045 388.42V387.985C80.2045 387.361 80.1174 386.802 79.9433 386.309C79.7838 385.816 79.5517 385.403 79.247 385.069C78.9569 384.721 78.6087 384.46 78.2025 384.285C77.7963 384.111 77.3611 384.024 76.8969 384.024C76.3746 384.024 75.8959 384.111 75.4607 384.285C75.0255 384.445 74.6556 384.677 74.3509 384.982C74.0463 385.272 73.8069 385.62 73.6328 386.026C73.4588 386.433 73.3717 386.868 73.3717 387.332V389.073C73.3717 389.595 73.4588 390.074 73.6328 390.509C73.8069 390.944 74.0463 391.314 74.3509 391.619C74.6556 391.923 75.0255 392.163 75.4607 392.337C75.8959 392.511 76.3746 392.598 76.8969 392.598ZM87.1076 389.508C86.1501 389.29 85.4611 388.899 85.0404 388.333C84.6197 387.753 84.4093 387.013 84.4093 386.113C84.4093 384.982 84.7502 384.104 85.4321 383.48C86.1284 382.857 87.2382 382.545 88.7614 382.545H93.7663V394.078H91.8514V389.682H88.9137L86.1066 394.078H83.9741L87.1076 389.508ZM86.3242 386.113C86.3242 386.723 86.4983 387.187 86.8465 387.506C87.2091 387.825 87.8112 387.985 88.6526 387.985H91.8514V384.242H88.6526C87.8112 384.242 87.2091 384.402 86.8465 384.721C86.4983 385.04 86.3242 385.504 86.3242 386.113ZM100.41 388.137L96.2755 382.545H98.408L101.933 387.375H103.261V382.545H105.175V387.375H106.481L110.072 382.545H112.161L108.026 388.072L112.378 394.078H110.115L106.481 389.029H105.175V394.078H103.261V389.029H101.933L98.2775 394.078H96.0579L100.41 388.137ZM119.021 394.295C118.281 394.295 117.578 394.179 116.91 393.947C116.243 393.715 115.655 393.36 115.148 392.881C114.64 392.388 114.234 391.771 113.929 391.031C113.624 390.291 113.472 389.421 113.472 388.42V387.985C113.472 387.027 113.617 386.2 113.907 385.504C114.197 384.793 114.582 384.206 115.061 383.741C115.554 383.263 116.12 382.907 116.758 382.675C117.411 382.443 118.093 382.327 118.803 382.327C120.501 382.327 121.814 382.791 122.742 383.72C123.67 384.648 124.135 385.961 124.135 387.658V388.877H115.387C115.387 389.559 115.496 390.132 115.713 390.596C115.931 391.06 116.214 391.437 116.562 391.728C116.91 392.018 117.295 392.228 117.715 392.359C118.151 392.489 118.586 392.554 119.021 392.554C119.891 392.554 120.559 392.409 121.023 392.119C121.502 391.829 121.843 391.43 122.046 390.922H123.917C123.801 391.474 123.591 391.96 123.286 392.38C122.996 392.801 122.633 393.156 122.198 393.447C121.777 393.722 121.291 393.933 120.74 394.078C120.203 394.223 119.63 394.295 119.021 394.295ZM118.912 384.068C118.463 384.068 118.027 384.133 117.607 384.264C117.186 384.38 116.809 384.576 116.475 384.851C116.156 385.112 115.895 385.446 115.692 385.852C115.489 386.258 115.387 386.744 115.387 387.31H122.329C122.314 386.715 122.213 386.215 122.024 385.809C121.85 385.388 121.611 385.054 121.306 384.808C121.001 384.547 120.639 384.358 120.218 384.242C119.812 384.126 119.376 384.068 118.912 384.068ZM126.856 382.545H128.771V387.354H134.734V382.545H136.649V394.078H134.734V389.051H128.771V394.078H126.856V382.545ZM140.138 382.545H142.053V391.249L148.015 382.545H149.93V394.078H148.015V385.373L142.053 394.078H140.138V382.545ZM158.207 394.295C157.467 394.295 156.763 394.179 156.096 393.947C155.429 393.715 154.841 393.36 154.333 392.881C153.826 392.388 153.419 391.771 153.115 391.031C152.81 390.291 152.658 389.421 152.658 388.42V387.985C152.658 387.027 152.803 386.2 153.093 385.504C153.383 384.793 153.768 384.206 154.246 383.741C154.739 383.263 155.305 382.907 155.944 382.675C156.596 382.443 157.278 382.327 157.989 382.327C159.686 382.327 160.999 382.791 161.928 383.72C162.856 384.648 163.32 385.961 163.32 387.658V388.877H154.573C154.573 389.559 154.681 390.132 154.899 390.596C155.117 391.06 155.4 391.437 155.748 391.728C156.096 392.018 156.48 392.228 156.901 392.359C157.336 392.489 157.771 392.554 158.207 392.554C159.077 392.554 159.744 392.409 160.209 392.119C160.687 391.829 161.028 391.43 161.231 390.922H163.103C162.987 391.474 162.776 391.96 162.472 392.38C162.182 392.801 161.819 393.156 161.384 393.447C160.963 393.722 160.477 393.933 159.926 394.078C159.389 394.223 158.816 394.295 158.207 394.295ZM158.098 384.068C157.648 384.068 157.213 384.133 156.792 384.264C156.372 384.38 155.994 384.576 155.661 384.851C155.342 385.112 155.08 385.446 154.877 385.852C154.674 386.258 154.573 386.744 154.573 387.31H161.514C161.5 386.715 161.398 386.215 161.21 385.809C161.035 385.388 160.796 385.054 160.491 384.808C160.187 384.547 159.824 384.358 159.403 384.242C158.997 384.126 158.562 384.068 158.098 384.068Z" fill="black"/>
<path d="M257.858 390.287H251.417L249.959 394.074H247.827L253.658 378.841H255.704L261.536 394.074H259.316L257.858 390.287ZM252.092 388.503H257.184L254.638 381.453L252.092 388.503ZM264.145 378.841H266.278L271.37 388.525L276.461 378.841H278.507V394.074H276.461V382.541L272.088 390.81H270.564L266.191 382.541V394.074H264.145V378.841Z" fill="black"/>
<path d="M184.258 521.218L178.484 531.218H190.031L184.258 521.218ZM184.258 643.818H183.258V644.818H184.258V643.818ZM1184.31 643.818L1174.31 638.045V649.592L1184.31 643.818ZM183.258 530.218V643.818H185.258V530.218H183.258ZM184.258 644.818H1175.31V642.818H184.258V644.818Z" fill="black"/>
<path d="M1206.35 624.588H1211.79C1212.7 624.588 1213.48 624.689 1214.14 624.892C1214.79 625.095 1215.33 625.378 1215.75 625.741C1216.18 626.089 1216.5 626.517 1216.7 627.025C1216.91 627.518 1217.01 628.062 1217.01 628.657C1217.01 629.44 1216.79 630.115 1216.36 630.68C1215.92 631.232 1215.38 631.631 1214.75 631.877C1215.65 632.08 1216.36 632.494 1216.88 633.118C1217.4 633.727 1217.66 634.525 1217.66 635.511C1217.66 636.135 1217.56 636.708 1217.36 637.23C1217.15 637.753 1216.83 638.21 1216.4 638.601C1215.96 638.978 1215.4 639.276 1214.7 639.493C1214.02 639.711 1213.19 639.82 1212.22 639.82H1206.35V624.588ZM1212.22 638.035C1212.87 638.035 1213.42 637.977 1213.85 637.861C1214.29 637.731 1214.64 637.557 1214.9 637.339C1215.16 637.107 1215.34 636.831 1215.44 636.512C1215.56 636.193 1215.62 635.838 1215.62 635.446C1215.62 635.054 1215.56 634.699 1215.44 634.38C1215.34 634.046 1215.16 633.77 1214.9 633.553C1214.64 633.321 1214.28 633.147 1213.83 633.031C1213.4 632.9 1212.85 632.835 1212.2 632.835H1208.39V638.035H1212.22ZM1211.79 631.137C1212.4 631.137 1212.9 631.079 1213.31 630.963C1213.72 630.847 1214.04 630.68 1214.29 630.463C1214.54 630.245 1214.71 629.991 1214.81 629.701C1214.91 629.411 1214.96 629.092 1214.96 628.744C1214.96 628.396 1214.91 628.076 1214.81 627.786C1214.71 627.482 1214.54 627.228 1214.29 627.025C1214.04 626.822 1213.72 626.662 1213.31 626.546C1212.9 626.43 1212.4 626.372 1211.79 626.372H1208.39V631.137H1211.79ZM1220.49 628.287H1222.27V630.463C1222.66 629.694 1223.21 629.106 1223.91 628.7C1224.62 628.28 1225.44 628.069 1226.36 628.069C1227.81 628.069 1228.98 628.548 1229.85 629.505C1230.72 630.448 1231.15 631.856 1231.15 633.727V634.162C1231.15 635.149 1231.04 636.012 1230.8 636.752C1230.57 637.477 1230.24 638.086 1229.82 638.579C1229.4 639.058 1228.9 639.421 1228.3 639.668C1227.72 639.914 1227.07 640.037 1226.36 640.037C1225.38 640.037 1224.55 639.82 1223.88 639.385C1223.23 638.949 1222.74 638.405 1222.4 637.753V644.172H1220.49V628.287ZM1225.93 638.34C1226.39 638.34 1226.83 638.253 1227.23 638.079C1227.64 637.89 1227.99 637.622 1228.28 637.274C1228.58 636.926 1228.82 636.49 1228.98 635.968C1229.15 635.446 1229.24 634.844 1229.24 634.162V633.727C1229.24 633.103 1229.15 632.545 1228.98 632.051C1228.82 631.558 1228.58 631.145 1228.28 630.811C1227.99 630.463 1227.64 630.202 1227.23 630.028C1226.83 629.854 1226.39 629.767 1225.93 629.767C1225.41 629.767 1224.93 629.854 1224.49 630.028C1224.06 630.187 1223.69 630.419 1223.38 630.724C1223.08 631.014 1222.84 631.362 1222.66 631.768C1222.49 632.175 1222.4 632.61 1222.4 633.074V634.815C1222.4 635.337 1222.49 635.816 1222.66 636.251C1222.84 636.686 1223.08 637.056 1223.38 637.361C1223.69 637.666 1224.06 637.905 1224.49 638.079C1224.93 638.253 1225.41 638.34 1225.93 638.34ZM1238.66 640.037C1237.92 640.037 1237.22 639.921 1236.55 639.689C1235.89 639.457 1235.3 639.102 1234.79 638.623C1234.28 638.13 1233.88 637.513 1233.57 636.773C1233.27 636.034 1233.11 635.163 1233.11 634.162V633.727C1233.11 632.769 1233.26 631.943 1233.55 631.246C1233.84 630.535 1234.22 629.948 1234.7 629.484C1235.2 629.005 1235.76 628.65 1236.4 628.417C1237.05 628.185 1237.74 628.069 1238.45 628.069C1240.14 628.069 1241.46 628.533 1242.38 629.462C1243.31 630.39 1243.78 631.703 1243.78 633.401V634.619H1235.03C1235.03 635.301 1235.14 635.874 1235.36 636.338C1235.57 636.802 1235.86 637.18 1236.2 637.47C1236.55 637.76 1236.94 637.97 1237.36 638.101C1237.79 638.231 1238.23 638.297 1238.66 638.297C1239.53 638.297 1240.2 638.152 1240.67 637.861C1241.14 637.571 1241.49 637.172 1241.69 636.665H1243.56C1243.44 637.216 1243.23 637.702 1242.93 638.123C1242.64 638.543 1242.28 638.899 1241.84 639.189C1241.42 639.464 1240.93 639.675 1240.38 639.82C1239.85 639.965 1239.27 640.037 1238.66 640.037ZM1238.55 629.81C1238.11 629.81 1237.67 629.875 1237.25 630.006C1236.83 630.122 1236.45 630.318 1236.12 630.593C1235.8 630.855 1235.54 631.188 1235.33 631.594C1235.13 632.001 1235.03 632.487 1235.03 633.052H1241.97C1241.96 632.458 1241.86 631.957 1241.67 631.551C1241.49 631.13 1241.25 630.797 1240.95 630.55C1240.64 630.289 1240.28 630.1 1239.86 629.984C1239.45 629.868 1239.02 629.81 1238.55 629.81ZM1246.5 628.287H1248.54L1252.66 635.468L1256.77 628.287H1258.68V639.82H1256.77V631.442L1253.35 637.317H1251.83L1248.41 631.442V639.82H1246.5V628.287ZM1264.42 635.25C1263.47 635.033 1262.78 634.641 1262.36 634.075C1261.94 633.495 1261.73 632.755 1261.73 631.856C1261.73 630.724 1262.07 629.846 1262.75 629.223C1263.44 628.599 1264.55 628.287 1266.08 628.287H1271.08V639.82H1269.17V635.424H1266.23L1263.42 639.82H1261.29L1264.42 635.25ZM1263.64 631.856C1263.64 632.465 1263.81 632.929 1264.16 633.248C1264.53 633.567 1265.13 633.727 1265.97 633.727H1269.17V629.984H1265.97C1265.13 629.984 1264.53 630.144 1264.16 630.463C1263.81 630.782 1263.64 631.246 1263.64 631.856Z" fill="black"/>
<path d="M30.0076 567.291H32.0531V573.797H40.1479V567.291H42.1934V582.523H40.1479V575.581H32.0531V582.523H30.0076V567.291ZM49.391 582.741C48.7527 582.741 48.1869 582.654 47.6937 582.479C47.2149 582.291 46.8087 582.037 46.4751 581.718C46.1414 581.399 45.8875 581.021 45.7135 580.586C45.5394 580.151 45.4523 579.672 45.4523 579.15C45.4523 578.004 45.786 577.177 46.4533 576.669C47.1351 576.162 48.1071 575.908 49.3692 575.908H53.112V575.124C53.112 574.138 52.8871 573.456 52.4374 573.079C52.0022 572.702 51.3421 572.513 50.4572 572.513C49.6303 572.513 49.0283 572.673 48.6511 572.992C48.2739 573.297 48.0636 573.645 48.0201 574.036H46.1052C46.1342 573.572 46.2575 573.144 46.4751 572.753C46.7072 572.346 47.0118 571.998 47.389 571.708C47.7807 571.418 48.2449 571.193 48.7817 571.033C49.3184 570.859 49.9132 570.772 50.566 570.772C51.9297 570.772 53.0104 571.099 53.8083 571.752C54.6207 572.39 55.0269 573.442 55.0269 574.907V579.585C55.0269 580.195 55.0269 580.731 55.0269 581.196C55.0414 581.645 55.0777 582.088 55.1357 582.523H53.4601C53.4166 582.189 53.3876 581.877 53.3731 581.587C53.3586 581.283 53.3513 580.942 53.3513 580.565C53.0467 581.174 52.5535 581.689 51.8716 582.11C51.1898 582.53 50.3629 582.741 49.391 582.741ZM49.8044 581C50.2541 581 50.6748 580.942 51.0665 580.826C51.4727 580.695 51.8281 580.514 52.1328 580.282C52.4374 580.035 52.6768 579.738 52.8509 579.389C53.0249 579.041 53.112 578.635 53.112 578.171V577.388H49.6956C48.9848 577.388 48.4263 577.533 48.0201 577.823C47.6139 578.098 47.4108 578.541 47.4108 579.15C47.4108 579.687 47.5994 580.129 47.9765 580.477C48.3682 580.826 48.9775 581 49.8044 581ZM58.4091 570.99H67.9837V582.523H66.0687V572.687H60.324V582.523H58.4091V570.99ZM71.4568 570.99H73.2412V573.166C73.6328 572.397 74.1769 571.81 74.8732 571.403C75.584 570.983 76.4037 570.772 77.3321 570.772C78.7828 570.772 79.9433 571.251 80.8138 572.209C81.6842 573.151 82.1194 574.559 82.1194 576.43V576.865C82.1194 577.852 82.0033 578.715 81.7712 579.455C81.5391 580.18 81.2127 580.789 80.792 581.283C80.3713 581.761 79.8636 582.124 79.2688 582.371C78.6885 582.617 78.0429 582.741 77.3321 582.741C76.3456 582.741 75.5187 582.523 74.8514 582.088C74.1986 581.653 73.7054 581.109 73.3717 580.456V586.875H71.4568V570.99ZM76.8969 581.043C77.3611 581.043 77.7963 580.956 78.2025 580.782C78.6087 580.594 78.9569 580.325 79.247 579.977C79.5517 579.629 79.7838 579.194 79.9433 578.671C80.1174 578.149 80.2045 577.547 80.2045 576.865V576.43C80.2045 575.806 80.1174 575.248 79.9433 574.755C79.7838 574.261 79.5517 573.848 79.247 573.514C78.9569 573.166 78.6087 572.905 78.2025 572.731C77.7963 572.557 77.3611 572.47 76.8969 572.47C76.3746 572.47 75.8959 572.557 75.4607 572.731C75.0255 572.89 74.6556 573.122 74.3509 573.427C74.0463 573.717 73.8069 574.065 73.6328 574.472C73.4588 574.878 73.3717 575.313 73.3717 575.777V577.518C73.3717 578.04 73.4588 578.519 73.6328 578.954C73.8069 579.389 74.0463 579.759 74.3509 580.064C74.6556 580.369 75.0255 580.608 75.4607 580.782C75.8959 580.956 76.3746 581.043 76.8969 581.043ZM87.1076 577.953C86.1501 577.736 85.4611 577.344 85.0404 576.778C84.6197 576.198 84.4093 575.458 84.4093 574.559C84.4093 573.427 84.7502 572.549 85.4321 571.926C86.1284 571.302 87.2382 570.99 88.7614 570.99H93.7663V582.523H91.8514V578.127H88.9137L86.1066 582.523H83.9741L87.1076 577.953ZM86.3242 574.559C86.3242 575.168 86.4983 575.632 86.8465 575.951C87.2091 576.27 87.8112 576.43 88.6526 576.43H91.8514V572.687H88.6526C87.8112 572.687 87.2091 572.847 86.8465 573.166C86.4983 573.485 86.3242 573.949 86.3242 574.559ZM100.41 576.582L96.2755 570.99H98.408L101.933 575.821H103.261V570.99H105.175V575.821H106.481L110.072 570.99H112.161L108.026 576.517L112.378 582.523H110.115L106.481 577.475H105.175V582.523H103.261V577.475H101.933L98.2775 582.523H96.0579L100.41 576.582ZM119.021 582.741C118.281 582.741 117.578 582.624 116.91 582.392C116.243 582.16 115.655 581.805 115.148 581.326C114.64 580.833 114.234 580.216 113.929 579.477C113.624 578.737 113.472 577.866 113.472 576.865V576.43C113.472 575.473 113.617 574.646 113.907 573.949C114.197 573.239 114.582 572.651 115.061 572.187C115.554 571.708 116.12 571.353 116.758 571.121C117.411 570.888 118.093 570.772 118.803 570.772C120.501 570.772 121.814 571.237 122.742 572.165C123.67 573.093 124.135 574.406 124.135 576.104V577.322H115.387C115.387 578.004 115.496 578.577 115.713 579.041C115.931 579.506 116.214 579.883 116.562 580.173C116.91 580.463 117.295 580.673 117.715 580.804C118.151 580.934 118.586 581 119.021 581C119.891 581 120.559 580.855 121.023 580.565C121.502 580.274 121.843 579.875 122.046 579.368H123.917C123.801 579.919 123.591 580.405 123.286 580.826C122.996 581.246 122.633 581.602 122.198 581.892C121.777 582.168 121.291 582.378 120.74 582.523C120.203 582.668 119.63 582.741 119.021 582.741ZM118.912 572.513C118.463 572.513 118.027 572.578 117.607 572.709C117.186 572.825 116.809 573.021 116.475 573.297C116.156 573.558 115.895 573.891 115.692 574.298C115.489 574.704 115.387 575.19 115.387 575.755H122.329C122.314 575.161 122.213 574.66 122.024 574.254C121.85 573.833 121.611 573.5 121.306 573.253C121.001 572.992 120.639 572.803 120.218 572.687C119.812 572.571 119.376 572.513 118.912 572.513ZM126.856 570.99H128.771V575.799H134.734V570.99H136.649V582.523H134.734V577.496H128.771V582.523H126.856V570.99ZM140.138 570.99H142.053V579.694L148.015 570.99H149.93V582.523H148.015V573.819L142.053 582.523H140.138V570.99ZM158.207 582.741C157.467 582.741 156.763 582.624 156.096 582.392C155.429 582.16 154.841 581.805 154.333 581.326C153.826 580.833 153.419 580.216 153.115 579.477C152.81 578.737 152.658 577.866 152.658 576.865V576.43C152.658 575.473 152.803 574.646 153.093 573.949C153.383 573.239 153.768 572.651 154.246 572.187C154.739 571.708 155.305 571.353 155.944 571.121C156.596 570.888 157.278 570.772 157.989 570.772C159.686 570.772 160.999 571.237 161.928 572.165C162.856 573.093 163.32 574.406 163.32 576.104V577.322H154.573C154.573 578.004 154.681 578.577 154.899 579.041C155.117 579.506 155.4 579.883 155.748 580.173C156.096 580.463 156.48 580.673 156.901 580.804C157.336 580.934 157.771 581 158.207 581C159.077 581 159.744 580.855 160.209 580.565C160.687 580.274 161.028 579.875 161.231 579.368H163.103C162.987 579.919 162.776 580.405 162.472 580.826C162.182 581.246 161.819 581.602 161.384 581.892C160.963 582.168 160.477 582.378 159.926 582.523C159.389 582.668 158.816 582.741 158.207 582.741ZM158.098 572.513C157.648 572.513 157.213 572.578 156.792 572.709C156.372 572.825 155.994 573.021 155.661 573.297C155.342 573.558 155.08 573.891 154.877 574.298C154.674 574.704 154.573 575.19 154.573 575.755H161.514C161.5 575.161 161.398 574.66 161.21 574.254C161.035 573.833 160.796 573.5 160.491 573.253C160.187 572.992 159.824 572.803 159.403 572.687C158.997 572.571 158.562 572.513 158.098 572.513Z" fill="black"/>
<path d="M250.386 567.287H260.178V569.071H252.431V574.011H259.525V575.795H252.431V582.519H250.386V567.287ZM263.327 567.287H265.46L270.551 576.97L275.643 567.287H277.689V582.519H275.643V570.986L271.27 579.255H269.746L265.372 570.986V582.519H263.327V567.287Z" fill="black"/>
<path d="M184.258 709.664L178.484 719.664H190.031L184.258 709.664ZM184.258 832.264H183.258V833.264H184.258V832.264ZM1184.31 832.264L1174.31 826.49V838.037L1184.31 832.264ZM183.258 718.664V832.264H185.258V718.664H183.258ZM184.258 833.264H1175.31V831.264H184.258V833.264Z" fill="black"/>
<path d="M1206.35 813.033H1211.79C1212.7 813.033 1213.48 813.134 1214.14 813.338C1214.79 813.541 1215.33 813.824 1215.75 814.186C1216.18 814.534 1216.5 814.962 1216.7 815.47C1216.91 815.963 1217.01 816.507 1217.01 817.102C1217.01 817.885 1216.79 818.56 1216.36 819.126C1215.92 819.677 1215.38 820.076 1214.75 820.323C1215.65 820.526 1216.36 820.939 1216.88 821.563C1217.4 822.172 1217.66 822.97 1217.66 823.957C1217.66 824.58 1217.56 825.153 1217.36 825.676C1217.15 826.198 1216.83 826.655 1216.4 827.047C1215.96 827.424 1215.4 827.721 1214.7 827.939C1214.02 828.156 1213.19 828.265 1212.22 828.265H1206.35V813.033ZM1212.22 826.481C1212.87 826.481 1213.42 826.423 1213.85 826.307C1214.29 826.176 1214.64 826.002 1214.9 825.784C1215.16 825.552 1215.34 825.277 1215.44 824.958C1215.56 824.638 1215.62 824.283 1215.62 823.891C1215.62 823.5 1215.56 823.144 1215.44 822.825C1215.34 822.491 1215.16 822.216 1214.9 821.998C1214.64 821.766 1214.28 821.592 1213.83 821.476C1213.4 821.345 1212.85 821.28 1212.2 821.28H1208.39V826.481H1212.22ZM1211.79 819.583C1212.4 819.583 1212.9 819.525 1213.31 819.409C1213.72 819.293 1214.04 819.126 1214.29 818.908C1214.54 818.691 1214.71 818.437 1214.81 818.147C1214.91 817.856 1214.96 817.537 1214.96 817.189C1214.96 816.841 1214.91 816.522 1214.81 816.232C1214.71 815.927 1214.54 815.673 1214.29 815.47C1214.04 815.267 1213.72 815.107 1213.31 814.991C1212.9 814.875 1212.4 814.817 1211.79 814.817H1208.39V819.583H1211.79ZM1220.49 816.732H1222.27V818.908C1222.66 818.139 1223.21 817.552 1223.91 817.146C1224.62 816.725 1225.44 816.515 1226.36 816.515C1227.81 816.515 1228.98 816.993 1229.85 817.951C1230.72 818.894 1231.15 820.301 1231.15 822.172V822.607C1231.15 823.594 1231.04 824.457 1230.8 825.197C1230.57 825.922 1230.24 826.532 1229.82 827.025C1229.4 827.504 1228.9 827.866 1228.3 828.113C1227.72 828.359 1227.07 828.483 1226.36 828.483C1225.38 828.483 1224.55 828.265 1223.88 827.83C1223.23 827.395 1222.74 826.851 1222.4 826.198V832.617H1220.49V816.732ZM1225.93 826.785C1226.39 826.785 1226.83 826.698 1227.23 826.524C1227.64 826.336 1227.99 826.067 1228.28 825.719C1228.58 825.371 1228.82 824.936 1228.98 824.414C1229.15 823.891 1229.24 823.289 1229.24 822.607V822.172C1229.24 821.548 1229.15 820.99 1228.98 820.497C1228.82 820.003 1228.58 819.59 1228.28 819.256C1227.99 818.908 1227.64 818.647 1227.23 818.473C1226.83 818.299 1226.39 818.212 1225.93 818.212C1225.41 818.212 1224.93 818.299 1224.49 818.473C1224.06 818.633 1223.69 818.865 1223.38 819.169C1223.08 819.459 1222.84 819.808 1222.66 820.214C1222.49 820.62 1222.4 821.055 1222.4 821.519V823.26C1222.4 823.783 1222.49 824.261 1222.66 824.696C1222.84 825.132 1223.08 825.502 1223.38 825.806C1223.69 826.111 1224.06 826.35 1224.49 826.524C1224.93 826.698 1225.41 826.785 1225.93 826.785ZM1238.66 828.483C1237.92 828.483 1237.22 828.367 1236.55 828.135C1235.89 827.902 1235.3 827.547 1234.79 827.068C1234.28 826.575 1233.88 825.959 1233.57 825.219C1233.27 824.479 1233.11 823.608 1233.11 822.607V822.172C1233.11 821.215 1233.26 820.388 1233.55 819.692C1233.84 818.981 1234.22 818.393 1234.7 817.929C1235.2 817.45 1235.76 817.095 1236.4 816.863C1237.05 816.631 1237.74 816.515 1238.45 816.515C1240.14 816.515 1241.46 816.979 1242.38 817.907C1243.31 818.836 1243.78 820.149 1243.78 821.846V823.064H1235.03C1235.03 823.746 1235.14 824.319 1235.36 824.783C1235.57 825.248 1235.86 825.625 1236.2 825.915C1236.55 826.205 1236.94 826.416 1237.36 826.546C1237.79 826.677 1238.23 826.742 1238.66 826.742C1239.53 826.742 1240.2 826.597 1240.67 826.307C1241.14 826.017 1241.49 825.618 1241.69 825.11H1243.56C1243.44 825.661 1243.23 826.147 1242.93 826.568C1242.64 826.989 1242.28 827.344 1241.84 827.634C1241.42 827.91 1240.93 828.12 1240.38 828.265C1239.85 828.41 1239.27 828.483 1238.66 828.483ZM1238.55 818.255C1238.11 818.255 1237.67 818.321 1237.25 818.451C1236.83 818.567 1236.45 818.763 1236.12 819.039C1235.8 819.3 1235.54 819.634 1235.33 820.04C1235.13 820.446 1235.03 820.932 1235.03 821.498H1241.97C1241.96 820.903 1241.86 820.402 1241.67 819.996C1241.49 819.576 1241.25 819.242 1240.95 818.995C1240.64 818.734 1240.28 818.546 1239.86 818.429C1239.45 818.313 1239.02 818.255 1238.55 818.255ZM1246.5 816.732H1248.54L1252.66 823.913L1256.77 816.732H1258.68V828.265H1256.77V819.887L1253.35 825.763H1251.83L1248.41 819.887V828.265H1246.5V816.732ZM1264.42 823.695C1263.47 823.478 1262.78 823.086 1262.36 822.52C1261.94 821.94 1261.73 821.2 1261.73 820.301C1261.73 819.169 1262.07 818.292 1262.75 817.668C1263.44 817.044 1264.55 816.732 1266.08 816.732H1271.08V828.265H1269.17V823.87H1266.23L1263.42 828.265H1261.29L1264.42 823.695ZM1263.64 820.301C1263.64 820.91 1263.81 821.374 1264.16 821.694C1264.53 822.013 1265.13 822.172 1265.97 822.172H1269.17V818.429H1265.97C1265.13 818.429 1264.53 818.589 1264.16 818.908C1263.81 819.227 1263.64 819.692 1263.64 820.301Z" fill="black"/>
<path d="M30.0076 755.736H32.0531V762.242H40.1479V755.736H42.1934V770.968H40.1479V764.027H32.0531V770.968H30.0076V755.736ZM49.391 771.186C48.7527 771.186 48.1869 771.099 47.6937 770.925C47.2149 770.736 46.8087 770.482 46.4751 770.163C46.1414 769.844 45.8875 769.467 45.7135 769.032C45.5394 768.596 45.4523 768.118 45.4523 767.595C45.4523 766.449 45.786 765.622 46.4533 765.115C47.1351 764.607 48.1071 764.353 49.3692 764.353H53.112V763.57C53.112 762.583 52.8871 761.901 52.4374 761.524C52.0022 761.147 51.3421 760.959 50.4572 760.959C49.6303 760.959 49.0283 761.118 48.6511 761.437C48.2739 761.742 48.0636 762.09 48.0201 762.482H46.1052C46.1342 762.018 46.2575 761.59 46.4751 761.198C46.7072 760.792 47.0118 760.444 47.389 760.153C47.7807 759.863 48.2449 759.638 48.7817 759.479C49.3184 759.305 49.9132 759.218 50.566 759.218C51.9297 759.218 53.0104 759.544 53.8083 760.197C54.6207 760.835 55.0269 761.887 55.0269 763.352V768.031C55.0269 768.64 55.0269 769.177 55.0269 769.641C55.0414 770.091 55.0777 770.533 55.1357 770.968H53.4601C53.4166 770.635 53.3876 770.323 53.3731 770.033C53.3586 769.728 53.3513 769.387 53.3513 769.01C53.0467 769.619 52.5535 770.134 51.8716 770.555C51.1898 770.976 50.3629 771.186 49.391 771.186ZM49.8044 769.445C50.2541 769.445 50.6748 769.387 51.0665 769.271C51.4727 769.14 51.8281 768.959 52.1328 768.727C52.4374 768.48 52.6768 768.183 52.8509 767.835C53.0249 767.487 53.112 767.08 53.112 766.616V765.833H49.6956C48.9848 765.833 48.4263 765.978 48.0201 766.268C47.6139 766.544 47.4108 766.986 47.4108 767.595C47.4108 768.132 47.5994 768.575 47.9765 768.923C48.3682 769.271 48.9775 769.445 49.8044 769.445ZM58.4091 759.435H67.9837V770.968H66.0687V761.133H60.324V770.968H58.4091V759.435ZM71.4568 759.435H73.2412V761.611C73.6328 760.842 74.1769 760.255 74.8732 759.849C75.584 759.428 76.4037 759.218 77.3321 759.218C78.7828 759.218 79.9433 759.696 80.8138 760.654C81.6842 761.597 82.1194 763.004 82.1194 764.875V765.311C82.1194 766.297 82.0033 767.16 81.7712 767.9C81.5391 768.625 81.2127 769.235 80.792 769.728C80.3713 770.207 79.8636 770.569 79.2688 770.816C78.6885 771.063 78.0429 771.186 77.3321 771.186C76.3456 771.186 75.5187 770.968 74.8514 770.533C74.1986 770.098 73.7054 769.554 73.3717 768.901V775.32H71.4568V759.435ZM76.8969 769.489C77.3611 769.489 77.7963 769.402 78.2025 769.227C78.6087 769.039 78.9569 768.77 79.247 768.422C79.5517 768.074 79.7838 767.639 79.9433 767.117C80.1174 766.594 80.2045 765.992 80.2045 765.311V764.875C80.2045 764.252 80.1174 763.693 79.9433 763.2C79.7838 762.707 79.5517 762.293 79.247 761.959C78.9569 761.611 78.6087 761.35 78.2025 761.176C77.7963 761.002 77.3611 760.915 76.8969 760.915C76.3746 760.915 75.8959 761.002 75.4607 761.176C75.0255 761.336 74.6556 761.568 74.3509 761.872C74.0463 762.163 73.8069 762.511 73.6328 762.917C73.4588 763.323 73.3717 763.758 73.3717 764.223V765.963C73.3717 766.486 73.4588 766.964 73.6328 767.4C73.8069 767.835 74.0463 768.205 74.3509 768.509C74.6556 768.814 75.0255 769.053 75.4607 769.227C75.8959 769.402 76.3746 769.489 76.8969 769.489ZM87.1076 766.399C86.1501 766.181 85.4611 765.789 85.0404 765.224C84.6197 764.643 84.4093 763.903 84.4093 763.004C84.4093 761.872 84.7502 760.995 85.4321 760.371C86.1284 759.747 87.2382 759.435 88.7614 759.435H93.7663V770.968H91.8514V766.573H88.9137L86.1066 770.968H83.9741L87.1076 766.399ZM86.3242 763.004C86.3242 763.613 86.4983 764.077 86.8465 764.397C87.2091 764.716 87.8112 764.875 88.6526 764.875H91.8514V761.133H88.6526C87.8112 761.133 87.2091 761.292 86.8465 761.611C86.4983 761.93 86.3242 762.395 86.3242 763.004ZM100.41 765.028L96.2755 759.435H98.408L101.933 764.266H103.261V759.435H105.175V764.266H106.481L110.072 759.435H112.161L108.026 764.962L112.378 770.968H110.115L106.481 765.92H105.175V770.968H103.261V765.92H101.933L98.2775 770.968H96.0579L100.41 765.028ZM119.021 771.186C118.281 771.186 117.578 771.07 116.91 770.838C116.243 770.606 115.655 770.25 115.148 769.771C114.64 769.278 114.234 768.662 113.929 767.922C113.624 767.182 113.472 766.312 113.472 765.311V764.875C113.472 763.918 113.617 763.091 113.907 762.395C114.197 761.684 114.582 761.096 115.061 760.632C115.554 760.153 116.12 759.798 116.758 759.566C117.411 759.334 118.093 759.218 118.803 759.218C120.501 759.218 121.814 759.682 122.742 760.61C123.67 761.539 124.135 762.852 124.135 764.549V765.768H115.387C115.387 766.449 115.496 767.022 115.713 767.487C115.931 767.951 116.214 768.328 116.562 768.618C116.91 768.908 117.295 769.119 117.715 769.249C118.151 769.38 118.586 769.445 119.021 769.445C119.891 769.445 120.559 769.3 121.023 769.01C121.502 768.72 121.843 768.321 122.046 767.813H123.917C123.801 768.364 123.591 768.85 123.286 769.271C122.996 769.692 122.633 770.047 122.198 770.337C121.777 770.613 121.291 770.823 120.74 770.968C120.203 771.113 119.63 771.186 119.021 771.186ZM118.912 760.959C118.463 760.959 118.027 761.024 117.607 761.154C117.186 761.27 116.809 761.466 116.475 761.742C116.156 762.003 115.895 762.337 115.692 762.743C115.489 763.149 115.387 763.635 115.387 764.201H122.329C122.314 763.606 122.213 763.106 122.024 762.699C121.85 762.279 121.611 761.945 121.306 761.698C121.001 761.437 120.639 761.249 120.218 761.133C119.812 761.017 119.376 760.959 118.912 760.959ZM126.856 759.435H128.771V764.244H134.734V759.435H136.649V770.968H134.734V765.942H128.771V770.968H126.856V759.435ZM140.138 759.435H142.053V768.139L148.015 759.435H149.93V770.968H148.015V762.264L142.053 770.968H140.138V759.435ZM158.207 771.186C157.467 771.186 156.763 771.07 156.096 770.838C155.429 770.606 154.841 770.25 154.333 769.771C153.826 769.278 153.419 768.662 153.115 767.922C152.81 767.182 152.658 766.312 152.658 765.311V764.875C152.658 763.918 152.803 763.091 153.093 762.395C153.383 761.684 153.768 761.096 154.246 760.632C154.739 760.153 155.305 759.798 155.944 759.566C156.596 759.334 157.278 759.218 157.989 759.218C159.686 759.218 160.999 759.682 161.928 760.61C162.856 761.539 163.32 762.852 163.32 764.549V765.768H154.573C154.573 766.449 154.681 767.022 154.899 767.487C155.117 767.951 155.4 768.328 155.748 768.618C156.096 768.908 156.48 769.119 156.901 769.249C157.336 769.38 157.771 769.445 158.207 769.445C159.077 769.445 159.744 769.3 160.209 769.01C160.687 768.72 161.028 768.321 161.231 767.813H163.103C162.987 768.364 162.776 768.85 162.472 769.271C162.182 769.692 161.819 770.047 161.384 770.337C160.963 770.613 160.477 770.823 159.926 770.968C159.389 771.113 158.816 771.186 158.207 771.186ZM158.098 760.959C157.648 760.959 157.213 761.024 156.792 761.154C156.372 761.27 155.994 761.466 155.661 761.742C155.342 762.003 155.08 762.337 154.877 762.743C154.674 763.149 154.573 763.635 154.573 764.201H161.514C161.5 763.606 161.398 763.106 161.21 762.699C161.035 762.279 160.796 761.945 160.491 761.698C160.187 761.437 159.824 761.249 159.403 761.133C158.997 761.017 158.562 760.959 158.098 760.959Z" fill="black"/>
<path d="M250.227 755.732H255.449C256.45 755.732 257.321 755.848 258.061 756.08C258.8 756.312 259.41 756.639 259.888 757.059C260.382 757.466 260.744 757.959 260.976 758.539C261.209 759.105 261.325 759.729 261.325 760.411C261.325 761.092 261.209 761.723 260.976 762.304C260.744 762.87 260.382 763.363 259.888 763.783C259.41 764.19 258.8 764.509 258.061 764.741C257.321 764.973 256.45 765.089 255.449 765.089H252.272V770.964H250.227V755.732ZM255.34 763.305C256.066 763.305 256.675 763.239 257.168 763.109C257.676 762.964 258.082 762.768 258.387 762.521C258.706 762.275 258.931 761.97 259.061 761.607C259.207 761.245 259.279 760.846 259.279 760.411C259.279 759.975 259.207 759.576 259.061 759.214C258.931 758.851 258.706 758.546 258.387 758.3C258.082 758.053 257.676 757.865 257.168 757.734C256.675 757.589 256.066 757.516 255.34 757.516H252.272V763.305H255.34ZM264.486 755.732H266.618L271.71 765.415L276.802 755.732H278.848V770.964H276.802V759.431L272.428 767.7H270.905L266.531 759.431V770.964H264.486V755.732Z" fill="black"/>
<path d="M397.669 139.545C396.929 139.545 396.225 139.422 395.558 139.175C394.905 138.929 394.332 138.508 393.839 137.913C393.346 137.304 392.954 136.499 392.664 135.498C392.374 134.482 392.229 133.22 392.229 131.712V131.276C392.229 129.869 392.374 128.694 392.664 127.751C392.954 126.808 393.346 126.054 393.839 125.488C394.332 124.908 394.905 124.494 395.558 124.248C396.225 124.001 396.929 123.878 397.669 123.878C398.408 123.878 399.105 124.001 399.758 124.248C400.425 124.494 401.005 124.908 401.498 125.488C401.992 126.054 402.383 126.808 402.674 127.751C402.964 128.694 403.109 129.869 403.109 131.276V131.712C403.109 133.22 402.964 134.482 402.674 135.498C402.383 136.499 401.992 137.304 401.498 137.913C401.005 138.508 400.425 138.929 399.758 139.175C399.105 139.422 398.408 139.545 397.669 139.545ZM397.669 137.761C398.118 137.761 398.546 137.681 398.953 137.522C399.373 137.347 399.736 137.043 400.041 136.608C400.36 136.158 400.606 135.541 400.78 134.758C400.969 133.975 401.063 132.959 401.063 131.712V131.276C401.063 130.145 400.969 129.216 400.78 128.491C400.606 127.766 400.36 127.193 400.041 126.772C399.736 126.351 399.373 126.061 398.953 125.902C398.546 125.742 398.118 125.662 397.669 125.662C397.204 125.662 396.769 125.742 396.363 125.902C395.957 126.061 395.594 126.351 395.275 126.772C394.97 127.193 394.724 127.766 394.535 128.491C394.361 129.216 394.274 130.145 394.274 131.276V131.712C394.274 132.959 394.361 133.975 394.535 134.758C394.724 135.541 394.97 136.158 395.275 136.608C395.594 137.043 395.957 137.347 396.363 137.522C396.769 137.681 397.204 137.761 397.669 137.761Z" fill="black"/>
<path d="M493.586 137.543H497.22V126.337L493.586 128.926V126.707L497.264 124.095H499.309V137.543H502.29V139.328H493.586V137.543Z" fill="black"/>
<path d="M597.669 139.545C596.929 139.545 596.225 139.422 595.558 139.175C594.905 138.929 594.332 138.508 593.839 137.913C593.346 137.304 592.954 136.499 592.664 135.498C592.374 134.482 592.229 133.22 592.229 131.712V131.276C592.229 129.869 592.374 128.694 592.664 127.751C592.954 126.808 593.346 126.054 593.839 125.488C594.332 124.908 594.905 124.494 595.558 124.248C596.225 124.001 596.929 123.878 597.669 123.878C598.408 123.878 599.105 124.001 599.758 124.248C600.425 124.494 601.005 124.908 601.498 125.488C601.992 126.054 602.383 126.808 602.674 127.751C602.964 128.694 603.109 129.869 603.109 131.276V131.712C603.109 133.22 602.964 134.482 602.674 135.498C602.383 136.499 601.992 137.304 601.498 137.913C601.005 138.508 600.425 138.929 599.758 139.175C599.105 139.422 598.408 139.545 597.669 139.545ZM597.669 137.761C598.118 137.761 598.546 137.681 598.953 137.522C599.373 137.347 599.736 137.043 600.041 136.608C600.36 136.158 600.606 135.541 600.78 134.758C600.969 133.975 601.063 132.959 601.063 131.712V131.276C601.063 130.145 600.969 129.216 600.78 128.491C600.606 127.766 600.36 127.193 600.041 126.772C599.736 126.351 599.373 126.061 598.953 125.902C598.546 125.742 598.118 125.662 597.669 125.662C597.204 125.662 596.769 125.742 596.363 125.902C595.957 126.061 595.594 126.351 595.275 126.772C594.97 127.193 594.724 127.766 594.535 128.491C594.361 129.216 594.274 130.145 594.274 131.276V131.712C594.274 132.959 594.361 133.975 594.535 134.758C594.724 135.541 594.97 136.158 595.275 136.608C595.594 137.043 595.957 137.347 596.363 137.522C596.769 137.681 597.204 137.761 597.669 137.761Z" fill="black"/>
<path d="M693.586 137.543H697.22V126.337L693.586 128.926V126.707L697.264 124.095H699.309V137.543H702.29V139.328H693.586V137.543Z" fill="black"/>
<path d="M793.586 137.543H797.22V126.337L793.586 128.926V126.707L797.264 124.095H799.309V137.543H802.29V139.328H793.586V137.543Z" fill="black"/>
<path d="M897.669 139.545C896.929 139.545 896.225 139.422 895.558 139.175C894.905 138.929 894.332 138.508 893.839 137.913C893.346 137.304 892.954 136.499 892.664 135.498C892.374 134.482 892.229 133.22 892.229 131.712V131.276C892.229 129.869 892.374 128.694 892.664 127.751C892.954 126.808 893.346 126.054 893.839 125.488C894.332 124.908 894.905 124.494 895.558 124.248C896.225 124.001 896.929 123.878 897.669 123.878C898.408 123.878 899.105 124.001 899.758 124.248C900.425 124.494 901.005 124.908 901.498 125.488C901.992 126.054 902.383 126.808 902.674 127.751C902.964 128.694 903.109 129.869 903.109 131.276V131.712C903.109 133.22 902.964 134.482 902.674 135.498C902.383 136.499 901.992 137.304 901.498 137.913C901.005 138.508 900.425 138.929 899.758 139.175C899.105 139.422 898.408 139.545 897.669 139.545ZM897.669 137.761C898.118 137.761 898.546 137.681 898.953 137.522C899.373 137.347 899.736 137.043 900.041 136.608C900.36 136.158 900.606 135.541 900.78 134.758C900.969 133.975 901.063 132.959 901.063 131.712V131.276C901.063 130.145 900.969 129.216 900.78 128.491C900.606 127.766 900.36 127.193 900.041 126.772C899.736 126.351 899.373 126.061 898.953 125.902C898.546 125.742 898.118 125.662 897.669 125.662C897.204 125.662 896.769 125.742 896.363 125.902C895.957 126.061 895.594 126.351 895.275 126.772C894.97 127.193 894.724 127.766 894.535 128.491C894.361 129.216 894.274 130.145 894.274 131.276V131.712C894.274 132.959 894.361 133.975 894.535 134.758C894.724 135.541 894.97 136.158 895.275 136.608C895.594 137.043 895.957 137.347 896.363 137.522C896.769 137.681 897.204 137.761 897.669 137.761Z" fill="black"/>
<path d="M993.586 137.543H997.22V126.337L993.586 128.926V126.707L997.264 124.095H999.309V137.543H1002.29V139.328H993.586V137.543Z" fill="black"/>
<path d="M1093.59 137.543H1097.22V126.337L1093.59 128.926V126.707L1097.26 124.095H1099.31V137.543H1102.29V139.328H1093.59V137.543Z" fill="black"/>
<path d="M349.223 233.058H447.612V172.8H547.776V233.058H647.747V172.8H847.709V233.058H947.699V172.8H1147.62V233.058" stroke="#4C89BE" stroke-width="3"/>
<path d="M347.67 403.207C356.179 420.658 360.976 417.916 369.485 403.207" stroke="#4C89BE" stroke-width="3"/>
<path d="M391.301 403.207C399.81 420.658 404.607 417.916 413.116 403.207" stroke="#4C89BE" stroke-width="3"/>
<path d="M556.68 403.207C563.915 420.658 567.993 417.916 575.229 403.207" stroke="#4C89BE" stroke-width="3"/>
<path d="M852.154 403.207C859.389 420.658 863.468 417.916 870.703 403.207" stroke="#4C89BE" stroke-width="3"/>
<path d="M593.775 403.207C601.011 420.658 605.089 417.916 612.324 403.207" stroke="#4C89BE" stroke-width="3"/>
<path d="M889.25 403.207C896.485 420.658 900.564 417.916 907.799 403.207" stroke="#4C89BE" stroke-width="3"/>
<path d="M434.93 403.207C446.802 446.724 453.495 439.888 465.367 403.207" stroke="#4C89BE" stroke-width="3"/>
<path d="M630.871 403.207C641.661 446.724 647.743 439.888 658.533 403.207" stroke="#4C89BE" stroke-width="3"/>
<path d="M686.193 403.207C696.983 446.724 703.065 439.888 713.855 403.207" stroke="#4C89BE" stroke-width="3"/>
<path d="M741.514 403.207C752.303 446.724 758.386 439.888 769.175 403.207" stroke="#4C89BE" stroke-width="3"/>
<path d="M796.836 403.207C807.626 446.724 813.708 439.888 824.498 403.207" stroke="#4C89BE" stroke-width="3"/>
<path d="M926.346 403.207C937.135 446.724 943.218 439.888 954.007 403.207" stroke="#4C89BE" stroke-width="3"/>
<path d="M981.666 403.207C992.456 446.724 998.538 439.888 1009.33 403.207" stroke="#4C89BE" stroke-width="3"/>
<path d="M1036.98 403.207C1047.77 446.724 1053.86 439.888 1064.65 403.207" stroke="#4C89BE" stroke-width="3"/>
<path d="M1092.3 403.207C1103.09 446.724 1109.17 439.888 1119.96 403.207" stroke="#4C89BE" stroke-width="3"/>
<path d="M495.803 403.207C507.675 446.724 514.368 439.888 526.24 403.207" stroke="#4C89BE" stroke-width="3"/>
<path d="M391.301 403.207C382.792 385.755 377.995 388.497 369.486 403.207" stroke="#4C89BE" stroke-width="3"/>
<path d="M434.93 403.207C426.42 385.755 421.624 388.497 413.114 403.207" stroke="#4C89BE" stroke-width="3"/>
<path d="M593.775 403.207C586.54 385.755 582.462 388.497 575.227 403.207" stroke="#4C89BE" stroke-width="3"/>
<path d="M889.25 403.207C882.015 385.755 877.936 388.497 870.701 403.207" stroke="#4C89BE" stroke-width="3"/>
<path d="M630.871 403.207C623.636 385.755 619.557 388.497 612.322 403.207" stroke="#4C89BE" stroke-width="3"/>
<path d="M926.346 403.207C919.111 385.755 915.032 388.497 907.797 403.207" stroke="#4C89BE" stroke-width="3"/>
<path d="M495.803 403.207C483.93 359.689 477.238 366.525 465.365 403.207" stroke="#4C89BE" stroke-width="3"/>
<path d="M686.193 403.207C675.404 359.689 669.321 366.525 658.532 403.207" stroke="#4C89BE" stroke-width="3"/>
<path d="M741.514 403.207C730.724 359.689 724.642 366.525 713.852 403.207" stroke="#4C89BE" stroke-width="3"/>
<path d="M796.836 403.207C786.046 359.689 779.964 366.525 769.174 403.207" stroke="#4C89BE" stroke-width="3"/>
<path d="M852.154 403.207C841.365 359.689 835.282 366.525 824.493 403.207" stroke="#4C89BE" stroke-width="3"/>
<path d="M981.666 403.207C970.876 359.689 964.794 366.525 954.004 403.207" stroke="#4C89BE" stroke-width="3"/>
<path d="M1036.98 403.207C1026.19 359.689 1020.11 366.525 1009.32 403.207" stroke="#4C89BE" stroke-width="3"/>
<path d="M1092.3 403.207C1081.51 359.689 1075.43 366.525 1064.64 403.207" stroke="#4C89BE" stroke-width="3"/>
<path d="M1147.62 403.207C1136.83 359.689 1130.75 366.525 1119.96 403.207" stroke="#4C89BE" stroke-width="3"/>
<path d="M556.68 403.207C544.807 359.689 538.115 366.525 526.242 403.207" stroke="#4C89BE" stroke-width="3"/>
<path d="M373.318 592.023C392.488 636.066 403.294 629.147 422.463 592.023" stroke="#4C89BE" stroke-width="3"/>
<path d="M574.461 592.023C592.339 636.066 602.417 629.147 620.295 592.023" stroke="#4C89BE" stroke-width="3"/>
<path d="M873.002 592.023C890.88 636.066 900.958 629.147 918.836 592.023" stroke="#4C89BE" stroke-width="3"/>
<path d="M422.467 592.023C432.511 572.571 440.259 561.412 448.117 561.531" stroke="#4C89BE" stroke-width="3"/>
<path d="M620.299 592.023C629.666 572.571 636.892 561.412 644.221 561.531" stroke="#4C89BE" stroke-width="3"/>
<path d="M918.834 592.023C928.201 572.571 935.427 561.412 942.756 561.531" stroke="#4C89BE" stroke-width="3"/>
<path d="M373.412 592.234C363.217 572.242 355.646 561.403 347.67 561.525" stroke="#4C89BE" stroke-width="3"/>
<path d="M574.549 592.234C565.04 572.242 557.98 561.403 550.541 561.525" stroke="#4C89BE" stroke-width="3"/>
<path d="M873.09 592.234C863.581 572.242 856.521 561.403 849.082 561.525" stroke="#4C89BE" stroke-width="3"/>
<path d="M455.436 592.023C460.283 636.066 463.015 629.147 467.863 592.023" stroke="#4C89BE" stroke-width="3"/>
<path d="M651.539 592.023C656.386 636.066 659.119 629.147 663.966 592.023" stroke="#4C89BE" stroke-width="3"/>
<path d="M950.074 592.023C954.921 636.066 957.654 629.147 962.501 592.023" stroke="#4C89BE" stroke-width="3"/>
<path d="M753.971 592.023C758.818 636.066 761.551 629.147 766.398 592.023" stroke="#4C89BE" stroke-width="3"/>
<path d="M1052.51 592.023C1057.36 636.066 1060.09 629.147 1064.93 592.023" stroke="#4C89BE" stroke-width="3"/>
<path d="M480.834 592.023C485.681 636.066 488.414 629.147 493.261 592.023" stroke="#4C89BE" stroke-width="3"/>
<path d="M676.938 592.023C681.785 636.066 684.517 629.147 689.365 592.023" stroke="#4C89BE" stroke-width="3"/>
<path d="M975.477 592.023C980.324 636.066 983.056 629.147 987.904 592.023" stroke="#4C89BE" stroke-width="3"/>
<path d="M779.369 592.023C784.216 636.066 786.949 629.147 791.796 592.023" stroke="#4C89BE" stroke-width="3"/>
<path d="M1077.91 592.023C1082.76 636.066 1085.49 629.147 1090.34 592.023" stroke="#4C89BE" stroke-width="3"/>
<path d="M506.232 592.023C511.08 636.066 513.812 629.147 518.66 592.023" stroke="#4C89BE" stroke-width="3"/>
<path d="M702.336 592.023C707.183 636.066 709.916 629.147 714.763 592.023" stroke="#4C89BE" stroke-width="3"/>
<path d="M1000.87 592.023C1005.72 636.066 1008.45 629.147 1013.3 592.023" stroke="#4C89BE" stroke-width="3"/>
<path d="M804.768 592.023C809.615 636.066 812.347 629.147 817.195 592.023" stroke="#4C89BE" stroke-width="3"/>
<path d="M1103.3 592.023C1108.15 636.066 1110.88 629.147 1115.73 592.023" stroke="#4C89BE" stroke-width="3"/>
<path d="M531.631 592.023C536.478 636.066 539.211 629.147 544.058 592.023" stroke="#4C89BE" stroke-width="3"/>
<path d="M727.734 592.023C732.582 636.066 735.314 629.147 740.161 592.023" stroke="#4C89BE" stroke-width="3"/>
<path d="M1026.28 592.023C1031.12 636.066 1033.86 629.147 1038.7 592.023" stroke="#4C89BE" stroke-width="3"/>
<path d="M830.168 592.023C835.015 636.066 837.748 629.147 842.595 592.023" stroke="#4C89BE" stroke-width="3"/>
<path d="M1128.71 592.023C1133.55 636.066 1136.29 629.147 1141.13 592.023" stroke="#4C89BE" stroke-width="3"/>
<path d="M467.86 592.023C470.399 572.571 472.359 561.412 474.346 561.531" stroke="#4C89BE" stroke-width="3"/>
<path d="M663.963 592.023C666.503 572.571 668.462 561.412 670.449 561.531" stroke="#4C89BE" stroke-width="3"/>
<path d="M962.502 592.023C965.042 572.571 967.001 561.412 968.988 561.531" stroke="#4C89BE" stroke-width="3"/>
<path d="M766.395 592.023C768.935 572.571 770.894 561.412 772.881 561.531" stroke="#4C89BE" stroke-width="3"/>
<path d="M1064.94 592.023C1067.48 572.571 1069.43 561.412 1071.42 561.531" stroke="#4C89BE" stroke-width="3"/>
<path d="M493.262 592.023C495.802 572.571 497.761 561.412 499.748 561.531" stroke="#4C89BE" stroke-width="3"/>
<path d="M689.366 592.023C691.905 572.571 693.865 561.412 695.852 561.531" stroke="#4C89BE" stroke-width="3"/>
<path d="M987.907 592.023C990.446 572.571 992.406 561.412 994.393 561.531" stroke="#4C89BE" stroke-width="3"/>
<path d="M791.799 592.023C794.339 572.571 796.298 561.412 798.285 561.531" stroke="#4C89BE" stroke-width="3"/>
<path d="M1090.34 592.023C1092.88 572.571 1094.84 561.412 1096.82 561.531" stroke="#4C89BE" stroke-width="3"/>
<path d="M518.66 592.023C521.2 572.571 523.159 561.412 525.146 561.531" stroke="#4C89BE" stroke-width="3"/>
<path d="M714.764 592.023C717.304 572.571 719.263 561.412 721.25 561.531" stroke="#4C89BE" stroke-width="3"/>
<path d="M1013.3 592.023C1015.84 572.571 1017.8 561.412 1019.79 561.531" stroke="#4C89BE" stroke-width="3"/>
<path d="M817.198 592.023C819.737 572.571 821.697 561.412 823.684 561.531" stroke="#4C89BE" stroke-width="3"/>
<path d="M1115.73 592.023C1118.27 572.571 1120.23 561.412 1122.22 561.531" stroke="#4C89BE" stroke-width="3"/>
<path d="M544.059 592.023C546.599 572.571 548.558 561.412 550.545 561.531" stroke="#4C89BE" stroke-width="3"/>
<path d="M740.162 592.023C742.702 572.571 744.661 561.412 746.648 561.531" stroke="#4C89BE" stroke-width="3"/>
<path d="M1038.7 592.023C1041.24 572.571 1043.2 561.412 1045.19 561.531" stroke="#4C89BE" stroke-width="3"/>
<path d="M842.596 592.023C845.136 572.571 847.095 561.412 849.082 561.531" stroke="#4C89BE" stroke-width="3"/>
<path d="M1141.14 592.023C1143.68 572.571 1145.64 561.412 1147.62 561.531" stroke="#4C89BE" stroke-width="3"/>
<path d="M455.461 592.234C452.552 572.242 450.393 561.403 448.117 561.525" stroke="#4C89BE" stroke-width="3"/>
<path d="M651.565 592.234C648.656 572.242 646.496 561.403 644.221 561.525" stroke="#4C89BE" stroke-width="3"/>
<path d="M950.1 592.234C947.191 572.242 945.031 561.403 942.756 561.525" stroke="#4C89BE" stroke-width="3"/>
<path d="M753.996 592.234C751.088 572.242 748.928 561.403 746.652 561.525" stroke="#4C89BE" stroke-width="3"/>
<path d="M1052.53 592.234C1049.62 572.242 1047.47 561.403 1045.19 561.525" stroke="#4C89BE" stroke-width="3"/>
<path d="M480.855 592.234C478.277 572.242 476.363 561.403 474.346 561.525" stroke="#4C89BE" stroke-width="3"/>
<path d="M676.959 592.234C674.38 572.242 672.466 561.403 670.449 561.525" stroke="#4C89BE" stroke-width="3"/>
<path d="M975.498 592.234C972.92 572.242 971.005 561.403 968.988 561.525" stroke="#4C89BE" stroke-width="3"/>
<path d="M779.39 592.234C776.812 572.242 774.898 561.403 772.881 561.525" stroke="#4C89BE" stroke-width="3"/>
<path d="M1077.93 592.234C1075.35 572.242 1073.44 561.403 1071.42 561.525" stroke="#4C89BE" stroke-width="3"/>
<path d="M506.257 592.234C503.679 572.242 501.765 561.403 499.748 561.525" stroke="#4C89BE" stroke-width="3"/>
<path d="M702.361 592.234C699.783 572.242 697.869 561.403 695.852 561.525" stroke="#4C89BE" stroke-width="3"/>
<path d="M1000.9 592.234C998.324 572.242 996.41 561.403 994.393 561.525" stroke="#4C89BE" stroke-width="3"/>
<path d="M804.794 592.234C802.216 572.242 800.302 561.403 798.285 561.525" stroke="#4C89BE" stroke-width="3"/>
<path d="M1103.33 592.234C1100.76 572.242 1098.84 561.403 1096.82 561.525" stroke="#4C89BE" stroke-width="3"/>
<path d="M531.656 592.234C529.078 572.242 527.163 561.403 525.146 561.525" stroke="#4C89BE" stroke-width="3"/>
<path d="M727.759 592.234C725.181 572.242 723.267 561.403 721.25 561.525" stroke="#4C89BE" stroke-width="3"/>
<path d="M1026.3 592.234C1023.72 572.242 1021.8 561.403 1019.79 561.525" stroke="#4C89BE" stroke-width="3"/>
<path d="M830.193 592.234C827.615 572.242 825.701 561.403 823.684 561.525" stroke="#4C89BE" stroke-width="3"/>
<path d="M1128.73 592.234C1126.15 572.242 1124.24 561.403 1122.22 561.525" stroke="#4C89BE" stroke-width="3"/>
<path d="M372.668 762.601C367.709 742.655 363.883 731.971 360.539 731.971L360.146 731.971C356.395 731.971 352.555 742.986 347.67 762.392" stroke="#4C89BE" stroke-width="3"/>
<path d="M1097.62 762.601C1092.67 742.655 1088.84 731.971 1085.5 731.971L1085.1 731.971C1081.35 731.971 1077.51 742.986 1072.63 762.392" stroke="#4C89BE" stroke-width="3"/>
<path d="M672.65 762.601C667.691 742.655 663.866 731.971 660.521 731.971L660.129 731.971C656.377 731.971 652.538 742.986 647.652 762.392" stroke="#4C89BE" stroke-width="3"/>
<path d="M472.666 762.335C467.707 782.281 463.881 792.965 460.537 792.965L460.144 792.965C456.393 792.965 452.553 781.951 447.668 762.544" stroke="#4C89BE" stroke-width="3"/>
<path d="M772.648 762.335C767.689 782.281 763.864 792.965 760.519 792.965L760.127 792.965C756.375 792.965 752.536 781.951 747.65 762.544" stroke="#4C89BE" stroke-width="3"/>
<path d="M572.66 762.335C567.701 782.281 563.876 792.965 560.531 792.965L560.139 792.965C556.387 792.965 552.548 781.951 547.662 762.544" stroke="#4C89BE" stroke-width="3"/>
<path d="M872.642 762.335C867.683 782.281 863.858 792.965 860.513 792.965L860.121 792.965C856.37 792.965 852.53 781.951 847.645 762.544" stroke="#4C89BE" stroke-width="3"/>
<path d="M422.664 762.601C417.705 742.655 413.88 731.971 410.535 731.971L410.143 731.971C406.391 731.971 402.552 742.986 397.666 762.392" stroke="#4C89BE" stroke-width="3"/>
<path d="M1147.62 762.601C1142.66 742.655 1138.84 731.971 1135.49 731.971L1135.1 731.971C1131.35 731.971 1127.51 742.986 1122.62 762.392" stroke="#4C89BE" stroke-width="3"/>
<path d="M722.646 762.601C717.687 742.655 713.862 731.971 710.517 731.971L710.125 731.971C706.373 731.971 702.534 742.986 697.648 762.392" stroke="#4C89BE" stroke-width="3"/>
<path d="M522.658 762.335C517.699 782.281 513.874 792.965 510.529 792.965L510.137 792.965C506.385 792.965 502.546 781.951 497.66 762.544" stroke="#4C89BE" stroke-width="3"/>
<path d="M822.64 762.335C817.681 782.281 813.856 792.965 810.511 792.965L810.119 792.965C806.368 792.965 802.528 781.951 797.643 762.544" stroke="#4C89BE" stroke-width="3"/>
<path d="M622.658 762.335C617.699 782.281 613.874 792.965 610.529 792.965L610.137 792.965C606.385 792.965 602.546 781.951 597.66 762.544" stroke="#4C89BE" stroke-width="3"/>
<path d="M922.638 762.335C917.679 782.281 913.854 792.965 910.509 792.965L910.117 792.965C906.366 792.965 902.526 781.951 897.641 762.544" stroke="#4C89BE" stroke-width="3"/>
<path d="M1047.63 762.335C1042.67 782.281 1038.85 792.965 1035.5 792.965L1035.11 792.965C1031.36 792.965 1027.52 781.951 1022.63 762.544" stroke="#4C89BE" stroke-width="3"/>
<path d="M997.634 762.335C992.675 782.281 988.85 792.965 985.505 792.965L985.113 792.965C981.362 792.965 977.522 781.951 972.637 762.544" stroke="#4C89BE" stroke-width="3"/>
<path d="M397.666 762.335C392.707 782.281 388.881 792.965 385.537 792.965L385.144 792.965C381.393 792.965 377.553 781.951 372.668 762.544" stroke="#4C89BE" stroke-width="3"/>
<path d="M1122.62 762.335C1117.66 782.281 1113.84 792.965 1110.49 792.965L1110.1 792.965C1106.35 792.965 1102.51 781.951 1097.62 762.544" stroke="#4C89BE" stroke-width="3"/>
<path d="M697.648 762.335C692.689 782.281 688.864 792.965 685.519 792.965L685.127 792.965C681.375 792.965 677.536 781.951 672.65 762.544" stroke="#4C89BE" stroke-width="3"/>
<path d="M497.664 762.601C492.705 742.655 488.88 731.971 485.535 731.971L485.143 731.971C481.391 731.971 477.552 742.986 472.666 762.392" stroke="#4C89BE" stroke-width="3"/>
<path d="M797.646 762.601C792.687 742.655 788.862 731.971 785.517 731.971L785.125 731.971C781.373 731.971 777.534 742.986 772.648 762.392" stroke="#4C89BE" stroke-width="3"/>
<path d="M597.658 762.601C592.699 742.655 588.874 731.971 585.529 731.971L585.137 731.971C581.385 731.971 577.546 742.986 572.66 762.392" stroke="#4C89BE" stroke-width="3"/>
<path d="M897.64 762.601C892.681 742.655 888.856 731.971 885.511 731.971L885.119 731.971C881.368 731.971 877.528 742.986 872.643 762.392" stroke="#4C89BE" stroke-width="3"/>
<path d="M972.636 762.601C967.677 742.655 963.852 731.971 960.507 731.971L960.115 731.971C956.364 731.971 952.524 742.986 947.639 762.392" stroke="#4C89BE" stroke-width="3"/>
<path d="M947.632 762.601C942.673 742.655 938.848 731.971 935.504 731.971L935.111 731.971C931.36 731.971 927.52 742.986 922.635 762.392" stroke="#4C89BE" stroke-width="3"/>
<path d="M1022.63 762.601C1017.67 742.655 1013.84 731.971 1010.5 731.971L1010.11 731.971C1006.36 731.971 1002.52 742.986 997.631 762.392" stroke="#4C89BE" stroke-width="3"/>
<path d="M447.664 762.335C442.705 782.281 438.88 792.965 435.535 792.965L435.143 792.965C431.391 792.965 427.552 781.951 422.666 762.544" stroke="#4C89BE" stroke-width="3"/>
<path d="M1072.63 762.335C1067.68 782.281 1063.85 792.965 1060.51 792.965L1060.11 792.965C1056.36 792.965 1052.52 781.951 1047.64 762.544" stroke="#4C89BE" stroke-width="3"/>
<path d="M747.644 762.335C742.685 782.281 738.86 792.965 735.515 792.965L735.123 792.965C731.371 792.965 727.532 781.951 722.646 762.544" stroke="#4C89BE" stroke-width="3"/>
<path d="M547.662 762.601C542.703 742.655 538.878 731.971 535.533 731.971L535.141 731.971C531.389 731.971 527.55 742.986 522.664 762.392" stroke="#4C89BE" stroke-width="3"/>
<path d="M847.644 762.601C842.685 742.655 838.86 731.971 835.515 731.971L835.123 731.971C831.371 731.971 827.532 742.986 822.646 762.392" stroke="#4C89BE" stroke-width="3"/>
<path d="M647.656 762.601C642.697 742.655 638.872 731.971 635.527 731.971L635.135 731.971C631.383 731.971 627.544 742.986 622.658 762.392" stroke="#4C89BE" stroke-width="3"/>
</svg>
