<svg width="1201" height="451" viewBox="0 0 1201 451" fill="none" xmlns="http://www.w3.org/2000/svg">
<rect x="36.5547" y="100.183" width="250.547" height="59.8252" fill="url(#paint0_linear_374_105698)"/>
<rect x="287.102" y="100.183" width="250.547" height="59.8252" fill="url(#paint1_linear_374_105698)"/>
<rect x="537.646" y="100.183" width="250.547" height="59.8252" fill="url(#paint2_linear_374_105698)"/>
<rect x="788.193" y="100.183" width="250.547" height="59.8252" fill="url(#paint3_linear_374_105698)"/>
<path d="M1038.74 100.183H1164.01V160.008H1038.74V100.183Z" fill="url(#paint4_linear_374_105698)"/>
<path d="M291.67 190.066L291.67 230.066L281.67 230.066L281.67 190.066L291.67 190.066Z" fill="#58A982"/>
<path d="M275.123 190.066L286.67 170.066L298.217 190.066L275.123 190.066Z" fill="#58A982"/>
<path d="M542.67 190.066L542.67 230.066L532.67 230.066L532.67 190.066L542.67 190.066Z" fill="#58A982"/>
<path d="M526.123 190.066L537.67 170.066L549.217 190.066L526.123 190.066Z" fill="#58A982"/>
<path d="M793.67 190.066L793.67 230.066L783.67 230.066L783.67 190.066L793.67 190.066Z" fill="#58A982"/>
<path d="M777.123 190.066L788.67 170.066L800.217 190.066L777.123 190.066Z" fill="#58A982"/>
<path d="M1043.67 190.066L1043.67 230.066L1033.67 230.066L1033.67 190.066L1043.67 190.066Z" fill="#58A982"/>
<path d="M1027.12 190.066L1038.67 170.066L1050.22 190.066L1027.12 190.066Z" fill="#58A982"/>
<path d="M194.826 261.955C193.971 261.955 193.158 261.81 192.389 261.52C191.62 261.216 190.939 260.751 190.344 260.128C189.749 259.489 189.278 258.684 188.929 257.712C188.581 256.74 188.407 255.58 188.407 254.23V253.795C188.407 252.49 188.581 251.365 188.929 250.422C189.278 249.479 189.749 248.703 190.344 248.094C190.939 247.485 191.62 247.035 192.389 246.745C193.158 246.44 193.971 246.288 194.826 246.288C195.653 246.288 196.408 246.397 197.09 246.614C197.786 246.832 198.395 247.144 198.917 247.55C199.44 247.956 199.86 248.457 200.18 249.052C200.513 249.646 200.724 250.321 200.811 251.075H198.635C198.431 250.089 198.003 249.349 197.351 248.856C196.698 248.362 195.856 248.116 194.826 248.116C194.29 248.116 193.767 248.217 193.26 248.42C192.752 248.624 192.295 248.95 191.889 249.4C191.497 249.835 191.178 250.415 190.931 251.141C190.699 251.866 190.583 252.751 190.583 253.795V254.23C190.583 255.333 190.714 256.261 190.975 257.016C191.236 257.756 191.57 258.358 191.976 258.822C192.382 259.286 192.839 259.62 193.347 259.823C193.855 260.026 194.348 260.128 194.826 260.128C195.958 260.128 196.843 259.852 197.481 259.301C198.12 258.749 198.504 258.039 198.635 257.168H200.811C200.695 258.01 200.462 258.735 200.114 259.344C199.766 259.939 199.324 260.432 198.787 260.824C198.265 261.216 197.663 261.506 196.981 261.694C196.313 261.868 195.595 261.955 194.826 261.955ZM203.633 250.205H208.638C210.059 250.205 211.104 250.502 211.771 251.097C212.438 251.677 212.772 252.432 212.772 253.36C212.772 253.607 212.728 253.861 212.641 254.122C212.554 254.368 212.431 254.6 212.271 254.818C212.126 255.036 211.945 255.224 211.727 255.384C211.524 255.543 211.292 255.667 211.031 255.754C211.742 255.928 212.279 256.261 212.641 256.755C213.019 257.233 213.207 257.799 213.207 258.452C213.207 259.453 212.874 260.251 212.206 260.846C211.539 261.44 210.494 261.738 209.073 261.738H203.633V250.205ZM209.073 260.04C209.885 260.04 210.458 259.895 210.792 259.605C211.125 259.315 211.292 258.902 211.292 258.365C211.292 257.814 211.125 257.393 210.792 257.103C210.458 256.798 209.885 256.646 209.073 256.646H205.548V260.04H209.073ZM208.638 255.079C209.464 255.079 210.037 254.934 210.357 254.644C210.69 254.354 210.857 253.955 210.857 253.447C210.857 252.968 210.69 252.591 210.357 252.316C210.037 252.04 209.464 251.902 208.638 251.902H205.548V255.079H208.638ZM220.724 261.955C219.984 261.955 219.28 261.839 218.613 261.607C217.946 261.375 217.358 261.02 216.851 260.541C216.343 260.048 215.937 259.431 215.632 258.691C215.327 257.951 215.175 257.081 215.175 256.08V255.645C215.175 254.687 215.32 253.861 215.61 253.164C215.9 252.453 216.285 251.866 216.763 251.402C217.257 250.923 217.822 250.567 218.461 250.335C219.114 250.103 219.795 249.987 220.506 249.987C222.204 249.987 223.516 250.451 224.445 251.38C225.373 252.308 225.838 253.621 225.838 255.318V256.537H217.09C217.09 257.219 217.199 257.792 217.416 258.256C217.634 258.72 217.917 259.098 218.265 259.388C218.613 259.678 218.998 259.888 219.418 260.019C219.853 260.149 220.289 260.215 220.724 260.215C221.594 260.215 222.262 260.069 222.726 259.779C223.205 259.489 223.545 259.09 223.749 258.583H225.62C225.504 259.134 225.294 259.62 224.989 260.04C224.699 260.461 224.336 260.817 223.901 261.107C223.48 261.382 222.994 261.593 222.443 261.738C221.906 261.883 221.333 261.955 220.724 261.955ZM220.615 251.728C220.165 251.728 219.73 251.793 219.309 251.924C218.889 252.04 218.512 252.236 218.178 252.511C217.859 252.773 217.598 253.106 217.395 253.512C217.191 253.919 217.09 254.405 217.09 254.97H224.031C224.017 254.376 223.915 253.875 223.727 253.469C223.553 253.048 223.313 252.715 223.009 252.468C222.704 252.207 222.341 252.018 221.921 251.902C221.514 251.786 221.079 251.728 220.615 251.728ZM230.98 251.902H227.041V250.205H236.833V251.902H232.895V261.738H230.98V251.902ZM243.589 261.955C242.849 261.955 242.146 261.839 241.478 261.607C240.811 261.361 240.224 260.998 239.716 260.519C239.208 260.026 238.802 259.409 238.497 258.67C238.193 257.93 238.04 257.067 238.04 256.08V255.645C238.04 254.716 238.193 253.897 238.497 253.186C238.802 252.475 239.208 251.888 239.716 251.423C240.224 250.945 240.811 250.589 241.478 250.357C242.146 250.111 242.849 249.987 243.589 249.987C244.329 249.987 245.033 250.111 245.7 250.357C246.367 250.589 246.955 250.945 247.463 251.423C247.97 251.888 248.376 252.475 248.681 253.186C248.986 253.897 249.138 254.716 249.138 255.645V256.08C249.138 257.067 248.986 257.93 248.681 258.67C248.376 259.409 247.97 260.026 247.463 260.519C246.955 260.998 246.367 261.361 245.7 261.607C245.033 261.839 244.329 261.955 243.589 261.955ZM243.589 260.215C244.024 260.215 244.46 260.142 244.895 259.997C245.33 259.837 245.714 259.598 246.048 259.279C246.382 258.945 246.65 258.517 246.853 257.995C247.071 257.473 247.18 256.834 247.18 256.08V255.645C247.18 254.949 247.071 254.354 246.853 253.861C246.65 253.367 246.382 252.961 246.048 252.642C245.714 252.323 245.33 252.091 244.895 251.946C244.46 251.801 244.024 251.728 243.589 251.728C243.154 251.728 242.719 251.801 242.284 251.946C241.848 252.091 241.464 252.323 241.13 252.642C240.797 252.961 240.521 253.367 240.303 253.861C240.1 254.354 239.999 254.949 239.999 255.645V256.08C239.999 256.834 240.1 257.473 240.303 257.995C240.521 258.517 240.797 258.945 241.13 259.279C241.464 259.598 241.848 259.837 242.284 259.997C242.719 260.142 243.154 260.215 243.589 260.215ZM251.85 250.205H256.855C258.276 250.205 259.321 250.502 259.988 251.097C260.655 251.677 260.989 252.432 260.989 253.36C260.989 253.607 260.945 253.861 260.858 254.122C260.771 254.368 260.648 254.6 260.489 254.818C260.343 255.036 260.162 255.224 259.945 255.384C259.741 255.543 259.509 255.667 259.248 255.754C259.959 255.928 260.496 256.261 260.858 256.755C261.236 257.233 261.424 257.799 261.424 258.452C261.424 259.453 261.091 260.251 260.423 260.846C259.756 261.44 258.711 261.738 257.29 261.738H251.85V250.205ZM257.29 260.04C258.102 260.04 258.675 259.895 259.009 259.605C259.342 259.315 259.509 258.902 259.509 258.365C259.509 257.814 259.342 257.393 259.009 257.103C258.675 256.798 258.102 256.646 257.29 256.646H253.765V260.04H257.29ZM256.855 255.079C257.681 255.079 258.254 254.934 258.574 254.644C258.907 254.354 259.074 253.955 259.074 253.447C259.074 252.968 258.907 252.591 258.574 252.316C258.254 252.04 257.681 251.902 256.855 251.902H253.765V255.079H256.855ZM268.941 261.955C268.201 261.955 267.497 261.839 266.83 261.607C266.163 261.361 265.575 260.998 265.068 260.519C264.56 260.026 264.154 259.409 263.849 258.67C263.544 257.93 263.392 257.067 263.392 256.08V255.645C263.392 254.716 263.544 253.897 263.849 253.186C264.154 252.475 264.56 251.888 265.068 251.423C265.575 250.945 266.163 250.589 266.83 250.357C267.497 250.111 268.201 249.987 268.941 249.987C269.681 249.987 270.384 250.111 271.052 250.357C271.719 250.589 272.306 250.945 272.814 251.423C273.322 251.888 273.728 252.475 274.033 253.186C274.337 253.897 274.49 254.716 274.49 255.645V256.08C274.49 257.067 274.337 257.93 274.033 258.67C273.728 259.409 273.322 260.026 272.814 260.519C272.306 260.998 271.719 261.361 271.052 261.607C270.384 261.839 269.681 261.955 268.941 261.955ZM268.941 260.215C269.376 260.215 269.811 260.142 270.246 259.997C270.682 259.837 271.066 259.598 271.4 259.279C271.733 258.945 272.002 258.517 272.205 257.995C272.423 257.473 272.531 256.834 272.531 256.08V255.645C272.531 254.949 272.423 254.354 272.205 253.861C272.002 253.367 271.733 252.961 271.4 252.642C271.066 252.323 270.682 252.091 270.246 251.946C269.811 251.801 269.376 251.728 268.941 251.728C268.506 251.728 268.07 251.801 267.635 251.946C267.2 252.091 266.816 252.323 266.482 252.642C266.148 252.961 265.873 253.367 265.655 253.861C265.452 254.354 265.35 254.949 265.35 255.645V256.08C265.35 256.834 265.452 257.473 265.655 257.995C265.873 258.517 266.148 258.945 266.482 259.279C266.816 259.598 267.2 259.837 267.635 259.997C268.07 260.142 268.506 260.215 268.941 260.215ZM277.201 250.205H279.116V258.909L285.079 250.205H286.993V261.738H285.079V253.034L279.116 261.738H277.201V250.205ZM282.097 248.79C280.966 248.79 280.139 248.551 279.617 248.072C279.094 247.579 278.833 246.875 278.833 245.962H280.705C280.705 246.948 281.169 247.441 282.097 247.441C283.055 247.441 283.534 246.948 283.534 245.962H285.361C285.361 246.875 285.1 247.579 284.578 248.072C284.056 248.551 283.229 248.79 282.097 248.79ZM295.923 250.205H297.838V258.909L303.8 250.205H305.715V261.738H303.8V253.034L297.838 261.738H295.923V250.205ZM309.204 250.205H311.25L315.363 257.386L319.475 250.205H321.39V261.738H319.475V253.36L316.059 259.235H314.536L311.119 253.36V261.738H309.204V250.205ZM324.866 250.205H334.44V261.738H332.525V251.902H326.781V261.738H324.866V250.205ZM339.437 266.307C339.219 266.307 339.002 266.286 338.784 266.242V264.501C339.002 264.545 339.219 264.567 339.437 264.567C339.654 264.567 339.843 264.53 340.003 264.458C340.162 264.385 340.314 264.247 340.459 264.044C340.605 263.841 340.757 263.551 340.916 263.174C341.091 262.811 341.286 262.333 341.504 261.738L336.608 250.205H338.74L342.483 259.562L345.878 250.205H347.923L343.571 261.738C343.267 262.55 342.976 263.247 342.701 263.827C342.425 264.407 342.128 264.879 341.809 265.241C341.504 265.618 341.163 265.887 340.786 266.046C340.409 266.22 339.959 266.307 339.437 266.307ZM349.121 261.955C348.903 261.955 348.686 261.934 348.468 261.89V259.975C348.541 259.99 348.649 259.997 348.795 259.997C349.114 259.997 349.389 259.895 349.621 259.692C349.868 259.489 350.064 259.134 350.209 258.626C350.354 258.118 350.463 257.429 350.535 256.559C350.608 255.688 350.644 254.586 350.644 253.251V250.205H358.913V261.738H356.998V251.902H352.559V253.686C352.559 255.297 352.487 256.631 352.341 257.69C352.196 258.749 351.979 259.598 351.689 260.236C351.413 260.86 351.058 261.303 350.622 261.564C350.187 261.825 349.687 261.955 349.121 261.955ZM362.394 250.205H364.309V254.557H367.072C368.523 254.557 369.589 254.876 370.271 255.514C370.968 256.153 371.316 257.038 371.316 258.169C371.316 259.272 370.968 260.142 370.271 260.78C369.589 261.419 368.523 261.738 367.072 261.738H362.394V250.205ZM366.964 260.04C367.863 260.04 368.494 259.881 368.857 259.562C369.219 259.243 369.401 258.771 369.401 258.147C369.401 257.524 369.219 257.052 368.857 256.733C368.494 256.414 367.863 256.254 366.964 256.254H364.309V260.04H366.964ZM378.5 261.955C377.76 261.955 377.071 261.839 376.433 261.607C375.794 261.361 375.243 260.998 374.779 260.519C374.315 260.026 373.945 259.409 373.669 258.67C373.408 257.93 373.277 257.067 373.277 256.08V255.645C373.277 254.716 373.423 253.897 373.713 253.186C374.003 252.475 374.387 251.888 374.866 251.423C375.345 250.945 375.896 250.589 376.52 250.357C377.158 250.111 377.818 249.987 378.5 249.987C379.182 249.987 379.791 250.081 380.328 250.27C380.879 250.459 381.351 250.72 381.742 251.053C382.148 251.387 382.475 251.779 382.721 252.229C382.983 252.678 383.171 253.164 383.287 253.686H381.329C381.213 253.411 381.075 253.157 380.915 252.925C380.77 252.678 380.582 252.468 380.35 252.294C380.132 252.12 379.871 251.982 379.566 251.88C379.262 251.779 378.906 251.728 378.5 251.728C378.079 251.728 377.673 251.808 377.281 251.967C376.89 252.112 376.542 252.345 376.237 252.664C375.932 252.968 375.686 253.367 375.497 253.861C375.323 254.354 375.236 254.949 375.236 255.645V256.08C375.236 256.82 375.323 257.458 375.497 257.995C375.686 258.517 375.932 258.945 376.237 259.279C376.542 259.598 376.89 259.837 377.281 259.997C377.673 260.142 378.079 260.215 378.5 260.215C379.211 260.215 379.806 260.04 380.284 259.692C380.778 259.344 381.126 258.865 381.329 258.256H383.287C383.012 259.402 382.446 260.309 381.59 260.976C380.734 261.629 379.704 261.955 378.5 261.955Z" fill="black"/>
<path d="M445.371 261.955C444.516 261.955 443.703 261.81 442.934 261.52C442.165 261.216 441.484 260.751 440.889 260.128C440.294 259.489 439.823 258.684 439.474 257.712C439.126 256.74 438.952 255.58 438.952 254.23V253.795C438.952 252.49 439.126 251.365 439.474 250.422C439.823 249.479 440.294 248.703 440.889 248.094C441.484 247.485 442.165 247.035 442.934 246.745C443.703 246.44 444.516 246.288 445.371 246.288C446.198 246.288 446.953 246.397 447.634 246.614C448.331 246.832 448.94 247.144 449.462 247.55C449.985 247.956 450.405 248.457 450.724 249.052C451.058 249.646 451.268 250.321 451.356 251.075H449.179C448.976 250.089 448.548 249.349 447.896 248.856C447.243 248.362 446.401 248.116 445.371 248.116C444.835 248.116 444.312 248.217 443.805 248.42C443.297 248.624 442.84 248.95 442.434 249.4C442.042 249.835 441.723 250.415 441.476 251.141C441.244 251.866 441.128 252.751 441.128 253.795V254.23C441.128 255.333 441.259 256.261 441.52 257.016C441.781 257.756 442.115 258.358 442.521 258.822C442.927 259.286 443.384 259.62 443.892 259.823C444.399 260.026 444.893 260.128 445.371 260.128C446.503 260.128 447.388 259.852 448.026 259.301C448.664 258.749 449.049 258.039 449.179 257.168H451.356C451.239 258.01 451.007 258.735 450.659 259.344C450.311 259.939 449.869 260.432 449.332 260.824C448.81 261.216 448.208 261.506 447.526 261.694C446.858 261.868 446.14 261.955 445.371 261.955ZM454.178 250.205H459.182C460.604 250.205 461.649 250.502 462.316 251.097C462.983 251.677 463.317 252.432 463.317 253.36C463.317 253.607 463.273 253.861 463.186 254.122C463.099 254.368 462.976 254.6 462.816 254.818C462.671 255.036 462.49 255.224 462.272 255.384C462.069 255.543 461.837 255.667 461.576 255.754C462.287 255.928 462.824 256.261 463.186 256.755C463.564 257.233 463.752 257.799 463.752 258.452C463.752 259.453 463.418 260.251 462.751 260.846C462.084 261.44 461.039 261.738 459.618 261.738H454.178V250.205ZM459.618 260.04C460.43 260.04 461.003 259.895 461.337 259.605C461.67 259.315 461.837 258.902 461.837 258.365C461.837 257.814 461.67 257.393 461.337 257.103C461.003 256.798 460.43 256.646 459.618 256.646H456.092V260.04H459.618ZM459.182 255.079C460.009 255.079 460.582 254.934 460.901 254.644C461.235 254.354 461.402 253.955 461.402 253.447C461.402 252.968 461.235 252.591 460.901 252.316C460.582 252.04 460.009 251.902 459.182 251.902H456.092V255.079H459.182ZM471.269 261.955C470.529 261.955 469.825 261.839 469.158 261.607C468.491 261.375 467.903 261.02 467.395 260.541C466.888 260.048 466.481 259.431 466.177 258.691C465.872 257.951 465.72 257.081 465.72 256.08V255.645C465.72 254.687 465.865 253.861 466.155 253.164C466.445 252.453 466.83 251.866 467.308 251.402C467.802 250.923 468.367 250.567 469.006 250.335C469.659 250.103 470.34 249.987 471.051 249.987C472.748 249.987 474.061 250.451 474.99 251.38C475.918 252.308 476.382 253.621 476.382 255.318V256.537H467.635C467.635 257.219 467.744 257.792 467.961 258.256C468.179 258.72 468.462 259.098 468.81 259.388C469.158 259.678 469.542 259.888 469.963 260.019C470.398 260.149 470.834 260.215 471.269 260.215C472.139 260.215 472.807 260.069 473.271 259.779C473.749 259.489 474.09 259.09 474.293 258.583H476.165C476.049 259.134 475.838 259.62 475.534 260.04C475.244 260.461 474.881 260.817 474.446 261.107C474.025 261.382 473.539 261.593 472.988 261.738C472.451 261.883 471.878 261.955 471.269 261.955ZM471.16 251.728C470.71 251.728 470.275 251.793 469.854 251.924C469.434 252.04 469.056 252.236 468.723 252.511C468.404 252.773 468.143 253.106 467.939 253.512C467.736 253.919 467.635 254.405 467.635 254.97H474.576C474.562 254.376 474.46 253.875 474.272 253.469C474.098 253.048 473.858 252.715 473.554 252.468C473.249 252.207 472.886 252.018 472.466 251.902C472.059 251.786 471.624 251.728 471.16 251.728ZM481.525 251.902H477.586V250.205H487.378V251.902H483.44V261.738H481.525V251.902ZM494.134 261.955C493.394 261.955 492.691 261.839 492.023 261.607C491.356 261.361 490.769 260.998 490.261 260.519C489.753 260.026 489.347 259.409 489.042 258.67C488.738 257.93 488.585 257.067 488.585 256.08V255.645C488.585 254.716 488.738 253.897 489.042 253.186C489.347 252.475 489.753 251.888 490.261 251.423C490.769 250.945 491.356 250.589 492.023 250.357C492.691 250.111 493.394 249.987 494.134 249.987C494.874 249.987 495.578 250.111 496.245 250.357C496.912 250.589 497.5 250.945 498.007 251.423C498.515 251.888 498.921 252.475 499.226 253.186C499.531 253.897 499.683 254.716 499.683 255.645V256.08C499.683 257.067 499.531 257.93 499.226 258.67C498.921 259.409 498.515 260.026 498.007 260.519C497.5 260.998 496.912 261.361 496.245 261.607C495.578 261.839 494.874 261.955 494.134 261.955ZM494.134 260.215C494.569 260.215 495.005 260.142 495.44 259.997C495.875 259.837 496.259 259.598 496.593 259.279C496.927 258.945 497.195 258.517 497.398 257.995C497.616 257.473 497.725 256.834 497.725 256.08V255.645C497.725 254.949 497.616 254.354 497.398 253.861C497.195 253.367 496.927 252.961 496.593 252.642C496.259 252.323 495.875 252.091 495.44 251.946C495.005 251.801 494.569 251.728 494.134 251.728C493.699 251.728 493.264 251.801 492.829 251.946C492.393 252.091 492.009 252.323 491.675 252.642C491.342 252.961 491.066 253.367 490.848 253.861C490.645 254.354 490.544 254.949 490.544 255.645V256.08C490.544 256.834 490.645 257.473 490.848 257.995C491.066 258.517 491.342 258.945 491.675 259.279C492.009 259.598 492.393 259.837 492.829 259.997C493.264 260.142 493.699 260.215 494.134 260.215ZM502.395 250.205H507.399C508.821 250.205 509.866 250.502 510.533 251.097C511.2 251.677 511.534 252.432 511.534 253.36C511.534 253.607 511.49 253.861 511.403 254.122C511.316 254.368 511.193 254.6 511.033 254.818C510.888 255.036 510.707 255.224 510.489 255.384C510.286 255.543 510.054 255.667 509.793 255.754C510.504 255.928 511.041 256.261 511.403 256.755C511.781 257.233 511.969 257.799 511.969 258.452C511.969 259.453 511.635 260.251 510.968 260.846C510.301 261.44 509.256 261.738 507.835 261.738H502.395V250.205ZM507.835 260.04C508.647 260.04 509.22 259.895 509.554 259.605C509.887 259.315 510.054 258.902 510.054 258.365C510.054 257.814 509.887 257.393 509.554 257.103C509.22 256.798 508.647 256.646 507.835 256.646H504.309V260.04H507.835ZM507.399 255.079C508.226 255.079 508.799 254.934 509.119 254.644C509.452 254.354 509.619 253.955 509.619 253.447C509.619 252.968 509.452 252.591 509.119 252.316C508.799 252.04 508.226 251.902 507.399 251.902H504.309V255.079H507.399ZM519.486 261.955C518.746 261.955 518.042 261.839 517.375 261.607C516.708 261.361 516.12 260.998 515.612 260.519C515.105 260.026 514.699 259.409 514.394 258.67C514.089 257.93 513.937 257.067 513.937 256.08V255.645C513.937 254.716 514.089 253.897 514.394 253.186C514.699 252.475 515.105 251.888 515.612 251.423C516.12 250.945 516.708 250.589 517.375 250.357C518.042 250.111 518.746 249.987 519.486 249.987C520.226 249.987 520.929 250.111 521.597 250.357C522.264 250.589 522.851 250.945 523.359 251.423C523.867 251.888 524.273 252.475 524.578 253.186C524.882 253.897 525.035 254.716 525.035 255.645V256.08C525.035 257.067 524.882 257.93 524.578 258.67C524.273 259.409 523.867 260.026 523.359 260.519C522.851 260.998 522.264 261.361 521.597 261.607C520.929 261.839 520.226 261.955 519.486 261.955ZM519.486 260.215C519.921 260.215 520.356 260.142 520.791 259.997C521.227 259.837 521.611 259.598 521.945 259.279C522.278 258.945 522.547 258.517 522.75 257.995C522.967 257.473 523.076 256.834 523.076 256.08V255.645C523.076 254.949 522.967 254.354 522.75 253.861C522.547 253.367 522.278 252.961 521.945 252.642C521.611 252.323 521.227 252.091 520.791 251.946C520.356 251.801 519.921 251.728 519.486 251.728C519.051 251.728 518.615 251.801 518.18 251.946C517.745 252.091 517.361 252.323 517.027 252.642C516.693 252.961 516.418 253.367 516.2 253.861C515.997 254.354 515.895 254.949 515.895 255.645V256.08C515.895 256.834 515.997 257.473 516.2 257.995C516.418 258.517 516.693 258.945 517.027 259.279C517.361 259.598 517.745 259.837 518.18 259.997C518.615 260.142 519.051 260.215 519.486 260.215ZM527.746 250.205H529.661V258.909L535.623 250.205H537.538V261.738H535.623V253.034L529.661 261.738H527.746V250.205ZM532.642 248.79C531.511 248.79 530.684 248.551 530.162 248.072C529.639 247.579 529.378 246.875 529.378 245.962H531.25C531.25 246.948 531.714 247.441 532.642 247.441C533.6 247.441 534.078 246.948 534.078 245.962H535.906C535.906 246.875 535.645 247.579 535.123 248.072C534.601 248.551 533.774 248.79 532.642 248.79ZM546.468 250.205H548.383V258.909L554.345 250.205H556.26V261.738H554.345V253.034L548.383 261.738H546.468V250.205ZM559.749 250.205H561.795L565.907 257.386L570.02 250.205H571.935V261.738H570.02V253.36L566.604 259.235H565.081L561.664 253.36V261.738H559.749V250.205ZM575.411 250.205H584.985V261.738H583.07V251.902H577.326V261.738H575.411V250.205ZM589.982 266.307C589.764 266.307 589.546 266.286 589.329 266.242V264.501C589.546 264.545 589.764 264.567 589.982 264.567C590.199 264.567 590.388 264.53 590.547 264.458C590.707 264.385 590.859 264.247 591.004 264.044C591.149 263.841 591.302 263.551 591.461 263.174C591.635 262.811 591.831 262.333 592.049 261.738L587.153 250.205H589.285L593.028 259.562L596.423 250.205H598.468L594.116 261.738C593.811 262.55 593.521 263.247 593.246 263.827C592.97 264.407 592.673 264.879 592.354 265.241C592.049 265.618 591.708 265.887 591.331 266.046C590.954 266.22 590.504 266.307 589.982 266.307ZM599.666 261.955C599.448 261.955 599.231 261.934 599.013 261.89V259.975C599.086 259.99 599.194 259.997 599.339 259.997C599.659 259.997 599.934 259.895 600.166 259.692C600.413 259.489 600.609 259.134 600.754 258.626C600.899 258.118 601.008 257.429 601.08 256.559C601.153 255.688 601.189 254.586 601.189 253.251V250.205H609.458V261.738H607.543V251.902H603.104V253.686C603.104 255.297 603.031 256.631 602.886 257.69C602.741 258.749 602.524 259.598 602.234 260.236C601.958 260.86 601.603 261.303 601.167 261.564C600.732 261.825 600.232 261.955 599.666 261.955ZM612.939 250.205H614.854V254.557H617.617C619.068 254.557 620.134 254.876 620.816 255.514C621.512 256.153 621.861 257.038 621.861 258.169C621.861 259.272 621.512 260.142 620.816 260.78C620.134 261.419 619.068 261.738 617.617 261.738H612.939V250.205ZM617.509 260.04C618.408 260.04 619.039 259.881 619.402 259.562C619.764 259.243 619.946 258.771 619.946 258.147C619.946 257.524 619.764 257.052 619.402 256.733C619.039 256.414 618.408 256.254 617.509 256.254H614.854V260.04H617.509ZM629.045 261.955C628.305 261.955 627.616 261.839 626.978 261.607C626.339 261.361 625.788 260.998 625.324 260.519C624.86 260.026 624.49 259.409 624.214 258.67C623.953 257.93 623.822 257.067 623.822 256.08V255.645C623.822 254.716 623.967 253.897 624.258 253.186C624.548 252.475 624.932 251.888 625.411 251.423C625.89 250.945 626.441 250.589 627.065 250.357C627.703 250.111 628.363 249.987 629.045 249.987C629.727 249.987 630.336 250.081 630.873 250.27C631.424 250.459 631.896 250.72 632.287 251.053C632.693 251.387 633.02 251.779 633.266 252.229C633.528 252.678 633.716 253.164 633.832 253.686H631.874C631.758 253.411 631.62 253.157 631.46 252.925C631.315 252.678 631.127 252.468 630.895 252.294C630.677 252.12 630.416 251.982 630.111 251.88C629.807 251.779 629.451 251.728 629.045 251.728C628.624 251.728 628.218 251.808 627.826 251.967C627.435 252.112 627.086 252.345 626.782 252.664C626.477 252.968 626.231 253.367 626.042 253.861C625.868 254.354 625.781 254.949 625.781 255.645V256.08C625.781 256.82 625.868 257.458 626.042 257.995C626.231 258.517 626.477 258.945 626.782 259.279C627.086 259.598 627.435 259.837 627.826 259.997C628.218 260.142 628.624 260.215 629.045 260.215C629.756 260.215 630.351 260.04 630.829 259.692C631.322 259.344 631.671 258.865 631.874 258.256H633.832C633.557 259.402 632.991 260.309 632.135 260.976C631.279 261.629 630.249 261.955 629.045 261.955Z" fill="black"/>
<path d="M695.916 261.955C695.06 261.955 694.248 261.81 693.479 261.52C692.71 261.216 692.028 260.751 691.434 260.128C690.839 259.489 690.367 258.684 690.019 257.712C689.671 256.74 689.497 255.58 689.497 254.23V253.795C689.497 252.49 689.671 251.365 690.019 250.422C690.367 249.479 690.839 248.703 691.434 248.094C692.028 247.485 692.71 247.035 693.479 246.745C694.248 246.44 695.06 246.288 695.916 246.288C696.743 246.288 697.498 246.397 698.179 246.614C698.876 246.832 699.485 247.144 700.007 247.55C700.53 247.956 700.95 248.457 701.269 249.052C701.603 249.646 701.813 250.321 701.9 251.075H699.724C699.521 250.089 699.093 249.349 698.441 248.856C697.788 248.362 696.946 248.116 695.916 248.116C695.38 248.116 694.857 248.217 694.35 248.42C693.842 248.624 693.385 248.95 692.979 249.4C692.587 249.835 692.268 250.415 692.021 251.141C691.789 251.866 691.673 252.751 691.673 253.795V254.23C691.673 255.333 691.804 256.261 692.065 257.016C692.326 257.756 692.66 258.358 693.066 258.822C693.472 259.286 693.929 259.62 694.437 259.823C694.944 260.026 695.438 260.128 695.916 260.128C697.048 260.128 697.933 259.852 698.571 259.301C699.209 258.749 699.594 258.039 699.724 257.168H701.9C701.784 258.01 701.552 258.735 701.204 259.344C700.856 259.939 700.413 260.432 699.877 260.824C699.354 261.216 698.752 261.506 698.071 261.694C697.403 261.868 696.685 261.955 695.916 261.955ZM704.722 250.205H709.727C711.149 250.205 712.194 250.502 712.861 251.097C713.528 251.677 713.862 252.432 713.862 253.36C713.862 253.607 713.818 253.861 713.731 254.122C713.644 254.368 713.521 254.6 713.361 254.818C713.216 255.036 713.035 255.224 712.817 255.384C712.614 255.543 712.382 255.667 712.121 255.754C712.832 255.928 713.369 256.261 713.731 256.755C714.108 257.233 714.297 257.799 714.297 258.452C714.297 259.453 713.963 260.251 713.296 260.846C712.629 261.44 711.584 261.738 710.163 261.738H704.722V250.205ZM710.163 260.04C710.975 260.04 711.548 259.895 711.882 259.605C712.215 259.315 712.382 258.902 712.382 258.365C712.382 257.814 712.215 257.393 711.882 257.103C711.548 256.798 710.975 256.646 710.163 256.646H706.637V260.04H710.163ZM709.727 255.079C710.554 255.079 711.127 254.934 711.446 254.644C711.78 254.354 711.947 253.955 711.947 253.447C711.947 252.968 711.78 252.591 711.446 252.316C711.127 252.04 710.554 251.902 709.727 251.902H706.637V255.079H709.727ZM721.814 261.955C721.074 261.955 720.37 261.839 719.703 261.607C719.036 261.375 718.448 261.02 717.94 260.541C717.433 260.048 717.026 259.431 716.722 258.691C716.417 257.951 716.265 257.081 716.265 256.08V255.645C716.265 254.687 716.41 253.861 716.7 253.164C716.99 252.453 717.375 251.866 717.853 251.402C718.347 250.923 718.912 250.567 719.551 250.335C720.203 250.103 720.885 249.987 721.596 249.987C723.293 249.987 724.606 250.451 725.535 251.38C726.463 252.308 726.927 253.621 726.927 255.318V256.537H718.18C718.18 257.219 718.289 257.792 718.506 258.256C718.724 258.72 719.007 259.098 719.355 259.388C719.703 259.678 720.087 259.888 720.508 260.019C720.943 260.149 721.378 260.215 721.814 260.215C722.684 260.215 723.351 260.069 723.816 259.779C724.294 259.489 724.635 259.09 724.838 258.583H726.71C726.594 259.134 726.383 259.62 726.079 260.04C725.789 260.461 725.426 260.817 724.991 261.107C724.57 261.382 724.084 261.593 723.533 261.738C722.996 261.883 722.423 261.955 721.814 261.955ZM721.705 251.728C721.255 251.728 720.82 251.793 720.399 251.924C719.979 252.04 719.601 252.236 719.268 252.511C718.949 252.773 718.687 253.106 718.484 253.512C718.281 253.919 718.18 254.405 718.18 254.97H725.121C725.107 254.376 725.005 253.875 724.817 253.469C724.643 253.048 724.403 252.715 724.099 252.468C723.794 252.207 723.431 252.018 723.011 251.902C722.604 251.786 722.169 251.728 721.705 251.728ZM732.07 251.902H728.131V250.205H737.923V251.902H733.985V261.738H732.07V251.902ZM744.679 261.955C743.939 261.955 743.236 261.839 742.568 261.607C741.901 261.361 741.313 260.998 740.806 260.519C740.298 260.026 739.892 259.409 739.587 258.67C739.282 257.93 739.13 257.067 739.13 256.08V255.645C739.13 254.716 739.282 253.897 739.587 253.186C739.892 252.475 740.298 251.888 740.806 251.423C741.313 250.945 741.901 250.589 742.568 250.357C743.236 250.111 743.939 249.987 744.679 249.987C745.419 249.987 746.123 250.111 746.79 250.357C747.457 250.589 748.045 250.945 748.552 251.423C749.06 251.888 749.466 252.475 749.771 253.186C750.076 253.897 750.228 254.716 750.228 255.645V256.08C750.228 257.067 750.076 257.93 749.771 258.67C749.466 259.409 749.06 260.026 748.552 260.519C748.045 260.998 747.457 261.361 746.79 261.607C746.123 261.839 745.419 261.955 744.679 261.955ZM744.679 260.215C745.114 260.215 745.549 260.142 745.985 259.997C746.42 259.837 746.804 259.598 747.138 259.279C747.472 258.945 747.74 258.517 747.943 257.995C748.161 257.473 748.27 256.834 748.27 256.08V255.645C748.27 254.949 748.161 254.354 747.943 253.861C747.74 253.367 747.472 252.961 747.138 252.642C746.804 252.323 746.42 252.091 745.985 251.946C745.549 251.801 745.114 251.728 744.679 251.728C744.244 251.728 743.809 251.801 743.373 251.946C742.938 252.091 742.554 252.323 742.22 252.642C741.886 252.961 741.611 253.367 741.393 253.861C741.19 254.354 741.089 254.949 741.089 255.645V256.08C741.089 256.834 741.19 257.473 741.393 257.995C741.611 258.517 741.886 258.945 742.22 259.279C742.554 259.598 742.938 259.837 743.373 259.997C743.809 260.142 744.244 260.215 744.679 260.215ZM752.939 250.205H757.944C759.366 250.205 760.411 250.502 761.078 251.097C761.745 251.677 762.079 252.432 762.079 253.36C762.079 253.607 762.035 253.861 761.948 254.122C761.861 254.368 761.738 254.6 761.578 254.818C761.433 255.036 761.252 255.224 761.034 255.384C760.831 255.543 760.599 255.667 760.338 255.754C761.049 255.928 761.586 256.261 761.948 256.755C762.325 257.233 762.514 257.799 762.514 258.452C762.514 259.453 762.18 260.251 761.513 260.846C760.846 261.44 759.801 261.738 758.38 261.738H752.939V250.205ZM758.38 260.04C759.192 260.04 759.765 259.895 760.099 259.605C760.432 259.315 760.599 258.902 760.599 258.365C760.599 257.814 760.432 257.393 760.099 257.103C759.765 256.798 759.192 256.646 758.38 256.646H754.854V260.04H758.38ZM757.944 255.079C758.771 255.079 759.344 254.934 759.663 254.644C759.997 254.354 760.164 253.955 760.164 253.447C760.164 252.968 759.997 252.591 759.663 252.316C759.344 252.04 758.771 251.902 757.944 251.902H754.854V255.079H757.944ZM770.031 261.955C769.291 261.955 768.587 261.839 767.92 261.607C767.253 261.361 766.665 260.998 766.157 260.519C765.65 260.026 765.243 259.409 764.939 258.67C764.634 257.93 764.482 257.067 764.482 256.08V255.645C764.482 254.716 764.634 253.897 764.939 253.186C765.243 252.475 765.65 251.888 766.157 251.423C766.665 250.945 767.253 250.589 767.92 250.357C768.587 250.111 769.291 249.987 770.031 249.987C770.771 249.987 771.474 250.111 772.141 250.357C772.809 250.589 773.396 250.945 773.904 251.423C774.412 251.888 774.818 252.475 775.123 253.186C775.427 253.897 775.58 254.716 775.58 255.645V256.08C775.58 257.067 775.427 257.93 775.123 258.67C774.818 259.409 774.412 260.026 773.904 260.519C773.396 260.998 772.809 261.361 772.141 261.607C771.474 261.839 770.771 261.955 770.031 261.955ZM770.031 260.215C770.466 260.215 770.901 260.142 771.336 259.997C771.772 259.837 772.156 259.598 772.49 259.279C772.823 258.945 773.092 258.517 773.295 257.995C773.512 257.473 773.621 256.834 773.621 256.08V255.645C773.621 254.949 773.512 254.354 773.295 253.861C773.092 253.367 772.823 252.961 772.49 252.642C772.156 252.323 771.772 252.091 771.336 251.946C770.901 251.801 770.466 251.728 770.031 251.728C769.596 251.728 769.16 251.801 768.725 251.946C768.29 252.091 767.905 252.323 767.572 252.642C767.238 252.961 766.963 253.367 766.745 253.861C766.542 254.354 766.44 254.949 766.44 255.645V256.08C766.44 256.834 766.542 257.473 766.745 257.995C766.963 258.517 767.238 258.945 767.572 259.279C767.905 259.598 768.29 259.837 768.725 259.997C769.16 260.142 769.596 260.215 770.031 260.215ZM778.291 250.205H780.206V258.909L786.168 250.205H788.083V261.738H786.168V253.034L780.206 261.738H778.291V250.205ZM783.187 248.79C782.056 248.79 781.229 248.551 780.707 248.072C780.184 247.579 779.923 246.875 779.923 245.962H781.795C781.795 246.948 782.259 247.441 783.187 247.441C784.145 247.441 784.623 246.948 784.623 245.962H786.451C786.451 246.875 786.19 247.579 785.668 248.072C785.146 248.551 784.319 248.79 783.187 248.79ZM797.013 250.205H798.928V258.909L804.89 250.205H806.805V261.738H804.89V253.034L798.928 261.738H797.013V250.205ZM810.294 250.205H812.34L816.452 257.386L820.565 250.205H822.48V261.738H820.565V253.36L817.149 259.235H815.625L812.209 253.36V261.738H810.294V250.205ZM825.956 250.205H835.53V261.738H833.615V251.902H827.871V261.738H825.956V250.205ZM840.527 266.307C840.309 266.307 840.091 266.286 839.874 266.242V264.501C840.091 264.545 840.309 264.567 840.527 264.567C840.744 264.567 840.933 264.53 841.092 264.458C841.252 264.385 841.404 264.247 841.549 264.044C841.694 263.841 841.847 263.551 842.006 263.174C842.18 262.811 842.376 262.333 842.594 261.738L837.698 250.205H839.83L843.573 259.562L846.968 250.205H849.013L844.661 261.738C844.356 262.55 844.066 263.247 843.791 263.827C843.515 264.407 843.218 264.879 842.898 265.241C842.594 265.618 842.253 265.887 841.876 266.046C841.499 266.22 841.049 266.307 840.527 266.307ZM850.211 261.955C849.993 261.955 849.776 261.934 849.558 261.89V259.975C849.631 259.99 849.739 259.997 849.884 259.997C850.204 259.997 850.479 259.895 850.711 259.692C850.958 259.489 851.154 259.134 851.299 258.626C851.444 258.118 851.553 257.429 851.625 256.559C851.698 255.688 851.734 254.586 851.734 253.251V250.205H860.003V261.738H858.088V251.902H853.649V253.686C853.649 255.297 853.576 256.631 853.431 257.69C853.286 258.749 853.069 259.598 852.779 260.236C852.503 260.86 852.147 261.303 851.712 261.564C851.277 261.825 850.777 261.955 850.211 261.955ZM863.484 250.205H865.399V254.557H868.162C869.613 254.557 870.679 254.876 871.361 255.514C872.057 256.153 872.406 257.038 872.406 258.169C872.406 259.272 872.057 260.142 871.361 260.78C870.679 261.419 869.613 261.738 868.162 261.738H863.484V250.205ZM868.053 260.04C868.953 260.04 869.584 259.881 869.947 259.562C870.309 259.243 870.491 258.771 870.491 258.147C870.491 257.524 870.309 257.052 869.947 256.733C869.584 256.414 868.953 256.254 868.053 256.254H865.399V260.04H868.053ZM879.59 261.955C878.85 261.955 878.161 261.839 877.523 261.607C876.884 261.361 876.333 260.998 875.869 260.519C875.405 260.026 875.035 259.409 874.759 258.67C874.498 257.93 874.367 257.067 874.367 256.08V255.645C874.367 254.716 874.512 253.897 874.803 253.186C875.093 252.475 875.477 251.888 875.956 251.423C876.435 250.945 876.986 250.589 877.61 250.357C878.248 250.111 878.908 249.987 879.59 249.987C880.272 249.987 880.881 250.081 881.418 250.27C881.969 250.459 882.44 250.72 882.832 251.053C883.238 251.387 883.565 251.779 883.811 252.229C884.072 252.678 884.261 253.164 884.377 253.686H882.419C882.303 253.411 882.165 253.157 882.005 252.925C881.86 252.678 881.672 252.468 881.439 252.294C881.222 252.12 880.961 251.982 880.656 251.88C880.351 251.779 879.996 251.728 879.59 251.728C879.169 251.728 878.763 251.808 878.371 251.967C877.98 252.112 877.631 252.345 877.327 252.664C877.022 252.968 876.775 253.367 876.587 253.861C876.413 254.354 876.326 254.949 876.326 255.645V256.08C876.326 256.82 876.413 257.458 876.587 257.995C876.775 258.517 877.022 258.945 877.327 259.279C877.631 259.598 877.98 259.837 878.371 259.997C878.763 260.142 879.169 260.215 879.59 260.215C880.301 260.215 880.895 260.04 881.374 259.692C881.867 259.344 882.216 258.865 882.419 258.256H884.377C884.101 259.402 883.536 260.309 882.68 260.976C881.824 261.629 880.794 261.955 879.59 261.955Z" fill="black"/>
<path d="M1164.01 315.707L1154.01 309.933V321.48L1164.01 315.707ZM36.5547 316.707H1155.01V314.707H36.5547V316.707Z" fill="black"/>
<path d="M567.959 331.474H573.399C574.313 331.474 575.097 331.576 575.749 331.779C576.402 331.982 576.939 332.265 577.36 332.628C577.795 332.976 578.114 333.404 578.317 333.911C578.52 334.405 578.622 334.949 578.622 335.543C578.622 336.327 578.404 337.001 577.969 337.567C577.534 338.118 576.997 338.517 576.359 338.764C577.258 338.967 577.969 339.381 578.491 340.004C579.013 340.614 579.275 341.412 579.275 342.398C579.275 343.022 579.173 343.595 578.97 344.117C578.767 344.639 578.448 345.096 578.013 345.488C577.577 345.865 577.012 346.163 576.315 346.38C575.633 346.598 574.806 346.707 573.835 346.707H567.959V331.474ZM573.835 344.922C574.487 344.922 575.031 344.864 575.467 344.748C575.902 344.618 576.25 344.443 576.511 344.226C576.772 343.994 576.954 343.718 577.055 343.399C577.171 343.08 577.229 342.724 577.229 342.333C577.229 341.941 577.171 341.586 577.055 341.266C576.954 340.933 576.772 340.657 576.511 340.44C576.25 340.207 575.895 340.033 575.445 339.917C575.01 339.787 574.466 339.721 573.813 339.721H570.005V344.922H573.835ZM573.399 338.024C574.009 338.024 574.516 337.966 574.923 337.85C575.329 337.734 575.655 337.567 575.902 337.35C576.148 337.132 576.322 336.878 576.424 336.588C576.526 336.298 576.576 335.979 576.576 335.631C576.576 335.282 576.526 334.963 576.424 334.673C576.322 334.368 576.148 334.115 575.902 333.911C575.655 333.708 575.329 333.549 574.923 333.433C574.516 333.317 574.009 333.259 573.399 333.259H570.005V338.024H573.399ZM582.102 335.174H583.886V337.35C584.278 336.581 584.822 335.993 585.518 335.587C586.229 335.166 587.049 334.956 587.977 334.956C589.428 334.956 590.588 335.435 591.459 336.392C592.329 337.335 592.764 338.742 592.764 340.614V341.049C592.764 342.035 592.648 342.898 592.416 343.638C592.184 344.364 591.858 344.973 591.437 345.466C591.016 345.945 590.509 346.308 589.914 346.554C589.333 346.801 588.688 346.924 587.977 346.924C586.991 346.924 586.164 346.707 585.496 346.271C584.844 345.836 584.35 345.292 584.017 344.639V351.059H582.102V335.174ZM587.542 345.227C588.006 345.227 588.441 345.14 588.847 344.966C589.254 344.777 589.602 344.509 589.892 344.161C590.197 343.812 590.429 343.377 590.588 342.855C590.762 342.333 590.849 341.731 590.849 341.049V340.614C590.849 339.99 590.762 339.431 590.588 338.938C590.429 338.445 590.197 338.031 589.892 337.698C589.602 337.35 589.254 337.088 588.847 336.914C588.441 336.74 588.006 336.653 587.542 336.653C587.02 336.653 586.541 336.74 586.106 336.914C585.67 337.074 585.301 337.306 584.996 337.611C584.691 337.901 584.452 338.249 584.278 338.655C584.104 339.061 584.017 339.497 584.017 339.961V341.702C584.017 342.224 584.104 342.703 584.278 343.138C584.452 343.573 584.691 343.943 584.996 344.248C585.301 344.552 585.67 344.792 586.106 344.966C586.541 345.14 587.02 345.227 587.542 345.227ZM600.277 346.924C599.537 346.924 598.833 346.808 598.166 346.576C597.499 346.344 596.911 345.988 596.403 345.51C595.896 345.016 595.489 344.4 595.185 343.66C594.88 342.92 594.728 342.05 594.728 341.049V340.614C594.728 339.656 594.873 338.829 595.163 338.133C595.453 337.422 595.838 336.835 596.316 336.37C596.81 335.892 597.375 335.536 598.014 335.304C598.666 335.072 599.348 334.956 600.059 334.956C601.756 334.956 603.069 335.42 603.998 336.349C604.926 337.277 605.39 338.59 605.39 340.287V341.506H596.643C596.643 342.188 596.752 342.761 596.969 343.225C597.187 343.689 597.47 344.066 597.818 344.356C598.166 344.647 598.55 344.857 598.971 344.987C599.406 345.118 599.842 345.183 600.277 345.183C601.147 345.183 601.814 345.038 602.279 344.748C602.757 344.458 603.098 344.059 603.301 343.551H605.173C605.057 344.103 604.846 344.589 604.542 345.009C604.252 345.43 603.889 345.785 603.454 346.075C603.033 346.351 602.547 346.561 601.996 346.707C601.459 346.852 600.886 346.924 600.277 346.924ZM600.168 336.697C599.718 336.697 599.283 336.762 598.862 336.893C598.442 337.009 598.064 337.205 597.731 337.48C597.412 337.741 597.151 338.075 596.947 338.481C596.744 338.887 596.643 339.373 596.643 339.939H603.584C603.57 339.344 603.468 338.844 603.28 338.438C603.106 338.017 602.866 337.683 602.562 337.437C602.257 337.176 601.894 336.987 601.474 336.871C601.067 336.755 600.632 336.697 600.168 336.697ZM608.112 335.174H610.158L614.27 342.354L618.383 335.174H620.298V346.707H618.383V338.329L614.967 344.204H613.443L610.027 338.329V346.707H608.112V335.174ZM626.037 342.137C625.079 341.919 624.39 341.528 623.97 340.962C623.549 340.382 623.338 339.642 623.338 338.742C623.338 337.611 623.679 336.733 624.361 336.109C625.058 335.485 626.167 335.174 627.691 335.174H632.695V346.707H630.781V342.311H627.843L625.036 346.707H622.903L626.037 342.137ZM625.253 338.742C625.253 339.352 625.427 339.816 625.776 340.135C626.138 340.454 626.74 340.614 627.582 340.614H630.781V336.871H627.582C626.74 336.871 626.138 337.03 625.776 337.35C625.427 337.669 625.253 338.133 625.253 338.742Z" fill="black"/>
<path d="M946.461 261.955C945.605 261.955 944.793 261.81 944.024 261.52C943.255 261.216 942.573 260.751 941.979 260.128C941.384 259.489 940.912 258.684 940.564 257.712C940.216 256.74 940.042 255.58 940.042 254.23V253.795C940.042 252.49 940.216 251.365 940.564 250.422C940.912 249.479 941.384 248.703 941.979 248.094C942.573 247.485 943.255 247.035 944.024 246.745C944.793 246.44 945.605 246.288 946.461 246.288C947.288 246.288 948.043 246.397 948.724 246.614C949.421 246.832 950.03 247.144 950.552 247.55C951.074 247.956 951.495 248.457 951.814 249.052C952.148 249.646 952.358 250.321 952.445 251.075H950.269C950.066 250.089 949.638 249.349 948.985 248.856C948.333 248.362 947.491 248.116 946.461 248.116C945.924 248.116 945.402 248.217 944.895 248.42C944.387 248.624 943.93 248.95 943.524 249.4C943.132 249.835 942.813 250.415 942.566 251.141C942.334 251.866 942.218 252.751 942.218 253.795V254.23C942.218 255.333 942.349 256.261 942.61 257.016C942.871 257.756 943.204 258.358 943.611 258.822C944.017 259.286 944.474 259.62 944.982 259.823C945.489 260.026 945.983 260.128 946.461 260.128C947.593 260.128 948.478 259.852 949.116 259.301C949.754 258.749 950.139 258.039 950.269 257.168H952.445C952.329 258.01 952.097 258.735 951.749 259.344C951.401 259.939 950.958 260.432 950.422 260.824C949.899 261.216 949.297 261.506 948.616 261.694C947.948 261.868 947.23 261.955 946.461 261.955ZM955.267 250.205H960.272C961.694 250.205 962.738 250.502 963.406 251.097C964.073 251.677 964.407 252.432 964.407 253.36C964.407 253.607 964.363 253.861 964.276 254.122C964.189 254.368 964.066 254.6 963.906 254.818C963.761 255.036 963.58 255.224 963.362 255.384C963.159 255.543 962.927 255.667 962.666 255.754C963.377 255.928 963.914 256.261 964.276 256.755C964.653 257.233 964.842 257.799 964.842 258.452C964.842 259.453 964.508 260.251 963.841 260.846C963.174 261.44 962.129 261.738 960.707 261.738H955.267V250.205ZM960.707 260.04C961.52 260.04 962.093 259.895 962.427 259.605C962.76 259.315 962.927 258.902 962.927 258.365C962.927 257.814 962.76 257.393 962.427 257.103C962.093 256.798 961.52 256.646 960.707 256.646H957.182V260.04H960.707ZM960.272 255.079C961.099 255.079 961.672 254.934 961.991 254.644C962.325 254.354 962.492 253.955 962.492 253.447C962.492 252.968 962.325 252.591 961.991 252.316C961.672 252.04 961.099 251.902 960.272 251.902H957.182V255.079H960.272ZM972.359 261.955C971.619 261.955 970.915 261.839 970.248 261.607C969.581 261.375 968.993 261.02 968.485 260.541C967.978 260.048 967.571 259.431 967.267 258.691C966.962 257.951 966.81 257.081 966.81 256.08V255.645C966.81 254.687 966.955 253.861 967.245 253.164C967.535 252.453 967.92 251.866 968.398 251.402C968.891 250.923 969.457 250.567 970.096 250.335C970.748 250.103 971.43 249.987 972.141 249.987C973.838 249.987 975.151 250.451 976.08 251.38C977.008 252.308 977.472 253.621 977.472 255.318V256.537H968.725C968.725 257.219 968.833 257.792 969.051 258.256C969.269 258.72 969.552 259.098 969.9 259.388C970.248 259.678 970.632 259.888 971.053 260.019C971.488 260.149 971.923 260.215 972.359 260.215C973.229 260.215 973.896 260.069 974.361 259.779C974.839 259.489 975.18 259.09 975.383 258.583H977.255C977.139 259.134 976.928 259.62 976.624 260.04C976.334 260.461 975.971 260.817 975.536 261.107C975.115 261.382 974.629 261.593 974.078 261.738C973.541 261.883 972.968 261.955 972.359 261.955ZM972.25 251.728C971.8 251.728 971.365 251.793 970.944 251.924C970.523 252.04 970.146 252.236 969.813 252.511C969.494 252.773 969.232 253.106 969.029 253.512C968.826 253.919 968.725 254.405 968.725 254.97H975.666C975.652 254.376 975.55 253.875 975.362 253.469C975.187 253.048 974.948 252.715 974.643 252.468C974.339 252.207 973.976 252.018 973.555 251.902C973.149 251.786 972.714 251.728 972.25 251.728ZM982.615 251.902H978.676V250.205H988.468V251.902H984.529V261.738H982.615V251.902ZM995.224 261.955C994.484 261.955 993.781 261.839 993.113 261.607C992.446 261.361 991.858 260.998 991.351 260.519C990.843 260.026 990.437 259.409 990.132 258.67C989.827 257.93 989.675 257.067 989.675 256.08V255.645C989.675 254.716 989.827 253.897 990.132 253.186C990.437 252.475 990.843 251.888 991.351 251.423C991.858 250.945 992.446 250.589 993.113 250.357C993.781 250.111 994.484 249.987 995.224 249.987C995.964 249.987 996.667 250.111 997.335 250.357C998.002 250.589 998.59 250.945 999.097 251.423C999.605 251.888 1000.01 252.475 1000.32 253.186C1000.62 253.897 1000.77 254.716 1000.77 255.645V256.08C1000.77 257.067 1000.62 257.93 1000.32 258.67C1000.01 259.409 999.605 260.026 999.097 260.519C998.59 260.998 998.002 261.361 997.335 261.607C996.667 261.839 995.964 261.955 995.224 261.955ZM995.224 260.215C995.659 260.215 996.094 260.142 996.53 259.997C996.965 259.837 997.349 259.598 997.683 259.279C998.017 258.945 998.285 258.517 998.488 257.995C998.706 257.473 998.814 256.834 998.814 256.08V255.645C998.814 254.949 998.706 254.354 998.488 253.861C998.285 253.367 998.017 252.961 997.683 252.642C997.349 252.323 996.965 252.091 996.53 251.946C996.094 251.801 995.659 251.728 995.224 251.728C994.789 251.728 994.354 251.801 993.918 251.946C993.483 252.091 993.099 252.323 992.765 252.642C992.431 252.961 992.156 253.367 991.938 253.861C991.735 254.354 991.634 254.949 991.634 255.645V256.08C991.634 256.834 991.735 257.473 991.938 257.995C992.156 258.517 992.431 258.945 992.765 259.279C993.099 259.598 993.483 259.837 993.918 259.997C994.354 260.142 994.789 260.215 995.224 260.215ZM1003.48 250.205H1008.49C1009.91 250.205 1010.96 250.502 1011.62 251.097C1012.29 251.677 1012.62 252.432 1012.62 253.36C1012.62 253.607 1012.58 253.861 1012.49 254.122C1012.41 254.368 1012.28 254.6 1012.12 254.818C1011.98 255.036 1011.8 255.224 1011.58 255.384C1011.38 255.543 1011.14 255.667 1010.88 255.754C1011.59 255.928 1012.13 256.261 1012.49 256.755C1012.87 257.233 1013.06 257.799 1013.06 258.452C1013.06 259.453 1012.73 260.251 1012.06 260.846C1011.39 261.44 1010.35 261.738 1008.92 261.738H1003.48V250.205ZM1008.92 260.04C1009.74 260.04 1010.31 259.895 1010.64 259.605C1010.98 259.315 1011.14 258.902 1011.14 258.365C1011.14 257.814 1010.98 257.393 1010.64 257.103C1010.31 256.798 1009.74 256.646 1008.92 256.646H1005.4V260.04H1008.92ZM1008.49 255.079C1009.32 255.079 1009.89 254.934 1010.21 254.644C1010.54 254.354 1010.71 253.955 1010.71 253.447C1010.71 252.968 1010.54 252.591 1010.21 252.316C1009.89 252.04 1009.32 251.902 1008.49 251.902H1005.4V255.079H1008.49ZM1020.58 261.955C1019.84 261.955 1019.13 261.839 1018.46 261.607C1017.8 261.361 1017.21 260.998 1016.7 260.519C1016.19 260.026 1015.79 259.409 1015.48 258.67C1015.18 257.93 1015.03 257.067 1015.03 256.08V255.645C1015.03 254.716 1015.18 253.897 1015.48 253.186C1015.79 252.475 1016.19 251.888 1016.7 251.423C1017.21 250.945 1017.8 250.589 1018.46 250.357C1019.13 250.111 1019.84 249.987 1020.58 249.987C1021.32 249.987 1022.02 250.111 1022.69 250.357C1023.35 250.589 1023.94 250.945 1024.45 251.423C1024.96 251.888 1025.36 252.475 1025.67 253.186C1025.97 253.897 1026.12 254.716 1026.12 255.645V256.08C1026.12 257.067 1025.97 257.93 1025.67 258.67C1025.36 259.409 1024.96 260.026 1024.45 260.519C1023.94 260.998 1023.35 261.361 1022.69 261.607C1022.02 261.839 1021.32 261.955 1020.58 261.955ZM1020.58 260.215C1021.01 260.215 1021.45 260.142 1021.88 259.997C1022.32 259.837 1022.7 259.598 1023.03 259.279C1023.37 258.945 1023.64 258.517 1023.84 257.995C1024.06 257.473 1024.17 256.834 1024.17 256.08V255.645C1024.17 254.949 1024.06 254.354 1023.84 253.861C1023.64 253.367 1023.37 252.961 1023.03 252.642C1022.7 252.323 1022.32 252.091 1021.88 251.946C1021.45 251.801 1021.01 251.728 1020.58 251.728C1020.14 251.728 1019.71 251.801 1019.27 251.946C1018.83 252.091 1018.45 252.323 1018.12 252.642C1017.78 252.961 1017.51 253.367 1017.29 253.861C1017.09 254.354 1016.99 254.949 1016.99 255.645V256.08C1016.99 256.834 1017.09 257.473 1017.29 257.995C1017.51 258.517 1017.78 258.945 1018.12 259.279C1018.45 259.598 1018.83 259.837 1019.27 259.997C1019.71 260.142 1020.14 260.215 1020.58 260.215ZM1028.84 250.205H1030.75V258.909L1036.71 250.205H1038.63V261.738H1036.71V253.034L1030.75 261.738H1028.84V250.205ZM1033.73 248.79C1032.6 248.79 1031.77 248.551 1031.25 248.072C1030.73 247.579 1030.47 246.875 1030.47 245.962H1032.34C1032.34 246.948 1032.8 247.441 1033.73 247.441C1034.69 247.441 1035.17 246.948 1035.17 245.962H1037C1037 246.875 1036.74 247.579 1036.21 248.072C1035.69 248.551 1034.86 248.79 1033.73 248.79ZM1047.56 250.205H1049.47V258.909L1055.43 250.205H1057.35V261.738H1055.43V253.034L1049.47 261.738H1047.56V250.205ZM1060.84 250.205H1062.88L1067 257.386L1071.11 250.205H1073.02V261.738H1071.11V253.36L1067.69 259.235H1066.17L1062.75 253.36V261.738H1060.84V250.205ZM1076.5 250.205H1086.08V261.738H1084.16V251.902H1078.42V261.738H1076.5V250.205ZM1091.07 266.307C1090.85 266.307 1090.64 266.286 1090.42 266.242V264.501C1090.64 264.545 1090.85 264.567 1091.07 264.567C1091.29 264.567 1091.48 264.53 1091.64 264.458C1091.8 264.385 1091.95 264.247 1092.09 264.044C1092.24 263.841 1092.39 263.551 1092.55 263.174C1092.73 262.811 1092.92 262.333 1093.14 261.738L1088.24 250.205H1090.38L1094.12 259.562L1097.51 250.205H1099.56L1095.21 261.738C1094.9 262.55 1094.61 263.247 1094.34 263.827C1094.06 264.407 1093.76 264.879 1093.44 265.241C1093.14 265.618 1092.8 265.887 1092.42 266.046C1092.04 266.22 1091.59 266.307 1091.07 266.307ZM1100.76 261.955C1100.54 261.955 1100.32 261.934 1100.1 261.89V259.975C1100.18 259.99 1100.28 259.997 1100.43 259.997C1100.75 259.997 1101.02 259.895 1101.26 259.692C1101.5 259.489 1101.7 259.134 1101.84 258.626C1101.99 258.118 1102.1 257.429 1102.17 256.559C1102.24 255.688 1102.28 254.586 1102.28 253.251V250.205H1110.55V261.738H1108.63V251.902H1104.19V253.686C1104.19 255.297 1104.12 256.631 1103.98 257.69C1103.83 258.749 1103.61 259.598 1103.32 260.236C1103.05 260.86 1102.69 261.303 1102.26 261.564C1101.82 261.825 1101.32 261.955 1100.76 261.955ZM1114.03 250.205H1115.94V254.557H1118.71C1120.16 254.557 1121.22 254.876 1121.91 255.514C1122.6 256.153 1122.95 257.038 1122.95 258.169C1122.95 259.272 1122.6 260.142 1121.91 260.78C1121.22 261.419 1120.16 261.738 1118.71 261.738H1114.03V250.205ZM1118.6 260.04C1119.5 260.04 1120.13 259.881 1120.49 259.562C1120.85 259.243 1121.04 258.771 1121.04 258.147C1121.04 257.524 1120.85 257.052 1120.49 256.733C1120.13 256.414 1119.5 256.254 1118.6 256.254H1115.94V260.04H1118.6ZM1130.13 261.955C1129.39 261.955 1128.71 261.839 1128.07 261.607C1127.43 261.361 1126.88 260.998 1126.41 260.519C1125.95 260.026 1125.58 259.409 1125.3 258.67C1125.04 257.93 1124.91 257.067 1124.91 256.08V255.645C1124.91 254.716 1125.06 253.897 1125.35 253.186C1125.64 252.475 1126.02 251.888 1126.5 251.423C1126.98 250.945 1127.53 250.589 1128.15 250.357C1128.79 250.111 1129.45 249.987 1130.13 249.987C1130.82 249.987 1131.43 250.081 1131.96 250.27C1132.51 250.459 1132.99 250.72 1133.38 251.053C1133.78 251.387 1134.11 251.779 1134.36 252.229C1134.62 252.678 1134.81 253.164 1134.92 253.686H1132.96C1132.85 253.411 1132.71 253.157 1132.55 252.925C1132.41 252.678 1132.22 252.468 1131.98 252.294C1131.77 252.12 1131.51 251.982 1131.2 251.88C1130.9 251.779 1130.54 251.728 1130.13 251.728C1129.71 251.728 1129.31 251.808 1128.92 251.967C1128.52 252.112 1128.18 252.345 1127.87 252.664C1127.57 252.968 1127.32 253.367 1127.13 253.861C1126.96 254.354 1126.87 254.949 1126.87 255.645V256.08C1126.87 256.82 1126.96 257.458 1127.13 257.995C1127.32 258.517 1127.57 258.945 1127.87 259.279C1128.18 259.598 1128.52 259.837 1128.92 259.997C1129.31 260.142 1129.71 260.215 1130.13 260.215C1130.85 260.215 1131.44 260.04 1131.92 259.692C1132.41 259.344 1132.76 258.865 1132.96 258.256H1134.92C1134.65 259.402 1134.08 260.309 1133.22 260.976C1132.37 261.629 1131.34 261.955 1130.13 261.955Z" fill="black"/>
<defs>
<linearGradient id="paint0_linear_374_105698" x1="36.5547" y1="160.008" x2="287.102" y2="160.008" gradientUnits="userSpaceOnUse">
<stop stop-color="#D0643B"/>
<stop offset="1" stop-color="#FFDF6E"/>
</linearGradient>
<linearGradient id="paint1_linear_374_105698" x1="287.102" y1="160.008" x2="537.648" y2="160.008" gradientUnits="userSpaceOnUse">
<stop stop-color="#D0643B"/>
<stop offset="1" stop-color="#FFDF6E"/>
</linearGradient>
<linearGradient id="paint2_linear_374_105698" x1="537.646" y1="160.008" x2="788.193" y2="160.008" gradientUnits="userSpaceOnUse">
<stop stop-color="#D0643B"/>
<stop offset="1" stop-color="#FFDF6E"/>
</linearGradient>
<linearGradient id="paint3_linear_374_105698" x1="788.193" y1="160.008" x2="1038.74" y2="160.008" gradientUnits="userSpaceOnUse">
<stop stop-color="#D0643B"/>
<stop offset="1" stop-color="#FFDF6E"/>
</linearGradient>
<linearGradient id="paint4_linear_374_105698" x1="1038.74" y1="160.008" x2="1270.52" y2="160.008" gradientUnits="userSpaceOnUse">
<stop stop-color="#D0643B"/>
<stop offset="1" stop-color="#FFDF6E"/>
</linearGradient>
</defs>
</svg>
