<svg width="1201" height="484" viewBox="0 0 1201 484" fill="none" xmlns="http://www.w3.org/2000/svg">
<path d="M205.871 100.244L200.098 110.244H211.645L205.871 100.244ZM205.871 345.445H204.871V346.445H205.871V345.445ZM1151.39 345.445L1141.39 339.672V351.219L1151.39 345.445ZM204.871 109.244V345.445H206.871V109.244H204.871ZM205.871 346.445H1142.39V344.445H205.871V346.445Z" fill="black"/>
<path d="M1134.09 260.481H1111.18V224.305H1077.5V251.205H1072.78V233.742H1054.59V162.278H1029.66V180.288H1018.2V214.079H979.803V202.011H959.59V180.288H945.438V214.079H935.332V233.742H918.991V285.463H912.426V268.328H906.36V244.319H892.885V233.08H875.368V244.319H867.958V258.609H862.122V144.268H838.792V202.011H828.561V180.288H808.423V202.011H802.361V221.841H789.776V234.024H781.574V218.018H776.353V202.011H759.201V282.009H748.009V233.742H742.045V190.007H736.824V160.85H731.604V126.822H705.682V144.268H699.155V160.85H692.819V256.75H680.887V243.743H675.667V225.451H662.281V174.57H657.767V126.822H642.714V133.979H633.152V154.562H627.661V214.079H592.035V234.024H580.159V265.11H576.554V301.337H565.313V257.999H554.095V180.288H543.654V154.562H526.498V207.729H521.278V255.748H518.295V243.743H513.819V234.024H501.887V218.018H495.919V202.011H480.258V251.205H473.546V301.337H464.597V277.477H454.899V255.748H445.95V228.882H428.05V277.477H420.591V243.743H413.132V214.079H395.98V202.011H380.319V170.206H369.874V154.562H344.888V180.288H335.566V262.041H314.684V226.309H307.973V180.288H296.033V170.206H247.239V282.406H223.164" stroke="#58A982" stroke-width="2"/>
<path d="M623.62 363.906H629.06C629.974 363.906 630.757 364.007 631.41 364.211C632.063 364.414 632.599 364.697 633.02 365.059C633.455 365.407 633.774 365.835 633.977 366.343C634.181 366.836 634.282 367.38 634.282 367.975C634.282 368.758 634.065 369.433 633.629 369.999C633.194 370.55 632.657 370.949 632.019 371.196C632.918 371.399 633.629 371.812 634.152 372.436C634.674 373.045 634.935 373.843 634.935 374.83C634.935 375.453 634.833 376.026 634.63 376.549C634.427 377.071 634.108 377.528 633.673 377.92C633.238 378.297 632.672 378.594 631.976 378.812C631.294 379.029 630.467 379.138 629.495 379.138H623.62V363.906ZM629.495 377.354C630.148 377.354 630.692 377.296 631.127 377.18C631.562 377.049 631.91 376.875 632.171 376.658C632.432 376.425 632.614 376.15 632.715 375.831C632.831 375.511 632.889 375.156 632.889 374.764C632.889 374.373 632.831 374.017 632.715 373.698C632.614 373.364 632.432 373.089 632.171 372.871C631.91 372.639 631.555 372.465 631.105 372.349C630.67 372.218 630.126 372.153 629.473 372.153H625.665V377.354H629.495ZM629.06 370.456C629.669 370.456 630.177 370.398 630.583 370.282C630.989 370.166 631.315 369.999 631.562 369.781C631.809 369.564 631.983 369.31 632.084 369.02C632.186 368.729 632.237 368.41 632.237 368.062C632.237 367.714 632.186 367.395 632.084 367.105C631.983 366.8 631.809 366.546 631.562 366.343C631.315 366.14 630.989 365.98 630.583 365.864C630.177 365.748 629.669 365.69 629.06 365.69H625.665V370.456H629.06ZM637.762 367.605H639.546V369.781C639.938 369.012 640.482 368.425 641.178 368.019C641.889 367.598 642.709 367.388 643.637 367.388C645.088 367.388 646.249 367.866 647.119 368.824C647.989 369.767 648.425 371.174 648.425 373.045V373.48C648.425 374.467 648.309 375.33 648.076 376.07C647.844 376.795 647.518 377.405 647.097 377.898C646.677 378.377 646.169 378.739 645.574 378.986C644.994 379.232 644.348 379.356 643.637 379.356C642.651 379.356 641.824 379.138 641.157 378.703C640.504 378.268 640.011 377.724 639.677 377.071V383.49H637.762V367.605ZM643.202 377.658C643.666 377.658 644.102 377.571 644.508 377.397C644.914 377.209 645.262 376.94 645.552 376.592C645.857 376.244 646.089 375.809 646.249 375.287C646.423 374.764 646.51 374.162 646.51 373.48V373.045C646.51 372.421 646.423 371.863 646.249 371.37C646.089 370.877 645.857 370.463 645.552 370.129C645.262 369.781 644.914 369.52 644.508 369.346C644.102 369.172 643.666 369.085 643.202 369.085C642.68 369.085 642.201 369.172 641.766 369.346C641.331 369.506 640.961 369.738 640.656 370.042C640.352 370.332 640.112 370.681 639.938 371.087C639.764 371.493 639.677 371.928 639.677 372.392V374.133C639.677 374.656 639.764 375.134 639.938 375.569C640.112 376.005 640.352 376.375 640.656 376.679C640.961 376.984 641.331 377.223 641.766 377.397C642.201 377.571 642.68 377.658 643.202 377.658ZM655.937 379.356C655.197 379.356 654.494 379.24 653.826 379.008C653.159 378.776 652.571 378.42 652.064 377.941C651.556 377.448 651.15 376.832 650.845 376.092C650.541 375.352 650.388 374.481 650.388 373.48V373.045C650.388 372.088 650.533 371.261 650.823 370.565C651.114 369.854 651.498 369.266 651.977 368.802C652.47 368.323 653.036 367.968 653.674 367.736C654.327 367.504 655.009 367.388 655.719 367.388C657.417 367.388 658.73 367.852 659.658 368.78C660.587 369.709 661.051 371.022 661.051 372.719V373.937H652.303C652.303 374.619 652.412 375.192 652.629 375.657C652.847 376.121 653.13 376.498 653.478 376.788C653.826 377.078 654.211 377.289 654.631 377.419C655.067 377.55 655.502 377.615 655.937 377.615C656.807 377.615 657.475 377.47 657.939 377.18C658.418 376.89 658.759 376.491 658.962 375.983H660.833C660.717 376.534 660.507 377.02 660.202 377.441C659.912 377.862 659.549 378.217 659.114 378.507C658.693 378.783 658.207 378.993 657.656 379.138C657.119 379.283 656.546 379.356 655.937 379.356ZM655.828 369.128C655.379 369.128 654.943 369.194 654.523 369.324C654.102 369.44 653.725 369.636 653.391 369.912C653.072 370.173 652.811 370.507 652.608 370.913C652.405 371.319 652.303 371.805 652.303 372.371H659.245C659.23 371.776 659.129 371.275 658.94 370.869C658.766 370.449 658.527 370.115 658.222 369.868C657.917 369.607 657.555 369.419 657.134 369.303C656.728 369.186 656.292 369.128 655.828 369.128ZM663.772 367.605H665.818L669.931 374.786L674.043 367.605H675.958V379.138H674.043V370.76L670.627 376.636H669.104L665.687 370.76V379.138H663.772V367.605ZM681.697 374.569C680.74 374.351 680.051 373.959 679.63 373.393C679.209 372.813 678.999 372.073 678.999 371.174C678.999 370.042 679.34 369.165 680.022 368.541C680.718 367.917 681.828 367.605 683.351 367.605H688.356V379.138H686.441V374.743H683.503L680.696 379.138H678.564L681.697 374.569ZM680.914 371.174C680.914 371.783 681.088 372.247 681.436 372.567C681.799 372.886 682.401 373.045 683.242 373.045H686.441V369.303H683.242C682.401 369.303 681.799 369.462 681.436 369.781C681.088 370.1 680.914 370.565 680.914 371.174Z" fill="black"/>
<path d="M51.6209 228.613H53.6663V235.119H61.7612V228.613H63.8067V243.845H61.7612V236.904H53.6663V243.845H51.6209V228.613ZM71.0042 244.063C70.3659 244.063 69.8002 243.976 69.3069 243.802C68.8282 243.613 68.422 243.359 68.0884 243.04C67.7547 242.721 67.5008 242.344 67.3267 241.909C67.1527 241.473 67.0656 240.995 67.0656 240.472C67.0656 239.326 67.3993 238.499 68.0666 237.992C68.7484 237.484 69.7204 237.23 70.9825 237.23H74.7253V236.447C74.7253 235.46 74.5004 234.778 74.0507 234.401C73.6155 234.024 72.9554 233.835 72.0705 233.835C71.2436 233.835 70.6416 233.995 70.2644 234.314C69.8872 234.619 69.6769 234.967 69.6333 235.359H67.7184C67.7474 234.894 67.8708 234.467 68.0884 234.075C68.3205 233.669 68.6251 233.32 69.0023 233.03C69.394 232.74 69.8582 232.515 70.395 232.356C70.9317 232.182 71.5265 232.095 72.1793 232.095C73.543 232.095 74.6237 232.421 75.4216 233.074C76.234 233.712 76.6402 234.764 76.6402 236.229V240.908C76.6402 241.517 76.6402 242.054 76.6402 242.518C76.6547 242.968 76.6909 243.41 76.749 243.845H75.0734C75.0299 243.512 75.0009 243.2 74.9864 242.91C74.9719 242.605 74.9646 242.264 74.9646 241.887C74.66 242.496 74.1667 243.011 73.4849 243.432C72.8031 243.852 71.9762 244.063 71.0042 244.063ZM71.4177 242.322C71.8674 242.322 72.2881 242.264 72.6798 242.148C73.086 242.017 73.4414 241.836 73.746 241.604C74.0507 241.357 74.2901 241.06 74.4641 240.712C74.6382 240.364 74.7253 239.957 74.7253 239.493V238.71H71.3089C70.5981 238.71 70.0395 238.855 69.6333 239.145C69.2271 239.421 69.0241 239.863 69.0241 240.472C69.0241 241.009 69.2126 241.452 69.5898 241.8C69.9815 242.148 70.5908 242.322 71.4177 242.322ZM80.0224 232.312H89.5969V243.845H87.682V234.01H81.9373V243.845H80.0224V232.312ZM93.0701 232.312H94.8544V234.488C95.2461 233.719 95.7901 233.132 96.4865 232.726C97.1973 232.305 98.0169 232.095 98.9454 232.095C100.396 232.095 101.557 232.573 102.427 233.531C103.297 234.474 103.733 235.881 103.733 237.752V238.188C103.733 239.174 103.617 240.037 103.384 240.777C103.152 241.502 102.826 242.112 102.405 242.605C101.985 243.084 101.477 243.446 100.882 243.693C100.302 243.94 99.6562 244.063 98.9454 244.063C97.9589 244.063 97.132 243.845 96.4647 243.41C95.8119 242.975 95.3187 242.431 94.985 241.778V248.197H93.0701V232.312ZM98.5102 242.366C98.9744 242.366 99.4096 242.278 99.8158 242.104C100.222 241.916 100.57 241.647 100.86 241.299C101.165 240.951 101.397 240.516 101.557 239.994C101.731 239.471 101.818 238.869 101.818 238.188V237.752C101.818 237.129 101.731 236.57 101.557 236.077C101.397 235.584 101.165 235.17 100.86 234.836C100.57 234.488 100.222 234.227 99.8158 234.053C99.4096 233.879 98.9744 233.792 98.5102 233.792C97.9879 233.792 97.5092 233.879 97.074 234.053C96.6388 234.213 96.2689 234.445 95.9642 234.749C95.6596 235.04 95.4202 235.388 95.2461 235.794C95.072 236.2 94.985 236.635 94.985 237.1V238.84C94.985 239.363 95.072 239.841 95.2461 240.277C95.4202 240.712 95.6596 241.082 95.9642 241.386C96.2689 241.691 96.6388 241.93 97.074 242.104C97.5092 242.278 97.9879 242.366 98.5102 242.366ZM108.721 239.276C107.763 239.058 107.074 238.666 106.654 238.1C106.233 237.52 106.023 236.78 106.023 235.881C106.023 234.749 106.364 233.872 107.045 233.248C107.742 232.624 108.851 232.312 110.375 232.312H115.38V243.845H113.465V239.45H110.527L107.72 243.845H105.587L108.721 239.276ZM107.938 235.881C107.938 236.49 108.112 236.954 108.46 237.274C108.822 237.593 109.424 237.752 110.266 237.752H113.465V234.01H110.266C109.424 234.01 108.822 234.169 108.46 234.488C108.112 234.807 107.938 235.272 107.938 235.881ZM122.023 237.905L117.889 232.312H120.021L123.546 237.143H124.874V232.312H126.789V237.143H128.094L131.685 232.312H133.774L129.639 237.839L133.991 243.845H131.728L128.094 238.797H126.789V243.845H124.874V238.797H123.546L119.891 243.845H117.671L122.023 237.905ZM140.634 244.063C139.894 244.063 139.191 243.947 138.524 243.715C137.856 243.483 137.269 243.127 136.761 242.648C136.253 242.155 135.847 241.539 135.542 240.799C135.238 240.059 135.085 239.188 135.085 238.188V237.752C135.085 236.795 135.23 235.968 135.521 235.272C135.811 234.561 136.195 233.973 136.674 233.509C137.167 233.03 137.733 232.675 138.371 232.443C139.024 232.211 139.706 232.095 140.417 232.095C142.114 232.095 143.427 232.559 144.355 233.487C145.284 234.416 145.748 235.729 145.748 237.426V238.644H137C137 239.326 137.109 239.899 137.327 240.364C137.544 240.828 137.827 241.205 138.175 241.495C138.524 241.785 138.908 241.996 139.329 242.126C139.764 242.257 140.199 242.322 140.634 242.322C141.505 242.322 142.172 242.177 142.636 241.887C143.115 241.597 143.456 241.198 143.659 240.69H145.53C145.414 241.241 145.204 241.727 144.899 242.148C144.609 242.569 144.247 242.924 143.811 243.214C143.391 243.49 142.905 243.7 142.353 243.845C141.817 243.99 141.244 244.063 140.634 244.063ZM140.526 233.835C140.076 233.835 139.641 233.901 139.22 234.031C138.799 234.147 138.422 234.343 138.088 234.619C137.769 234.88 137.508 235.214 137.305 235.62C137.102 236.026 137 236.512 137 237.078H143.942C143.927 236.483 143.826 235.982 143.637 235.576C143.463 235.156 143.224 234.822 142.919 234.575C142.614 234.314 142.252 234.126 141.831 234.01C141.425 233.893 140.99 233.835 140.526 233.835ZM148.47 232.312H150.385V237.121H156.347V232.312H158.262V243.845H156.347V238.819H150.385V243.845H148.47V232.312ZM161.751 232.312H163.666V241.016L169.628 232.312H171.543V243.845H169.628V235.141L163.666 243.845H161.751V232.312ZM179.82 244.063C179.08 244.063 178.376 243.947 177.709 243.715C177.042 243.483 176.454 243.127 175.947 242.648C175.439 242.155 175.033 241.539 174.728 240.799C174.423 240.059 174.271 239.188 174.271 238.188V237.752C174.271 236.795 174.416 235.968 174.706 235.272C174.996 234.561 175.381 233.973 175.86 233.509C176.353 233.03 176.919 232.675 177.557 232.443C178.21 232.211 178.891 232.095 179.602 232.095C181.3 232.095 182.613 232.559 183.541 233.487C184.469 234.416 184.934 235.729 184.934 237.426V238.644H176.186C176.186 239.326 176.295 239.899 176.512 240.364C176.73 240.828 177.013 241.205 177.361 241.495C177.709 241.785 178.094 241.996 178.514 242.126C178.95 242.257 179.385 242.322 179.82 242.322C180.69 242.322 181.358 242.177 181.822 241.887C182.301 241.597 182.642 241.198 182.845 240.69H184.716C184.6 241.241 184.39 241.727 184.085 242.148C183.795 242.569 183.432 242.924 182.997 243.214C182.576 243.49 182.09 243.7 181.539 243.845C181.002 243.99 180.429 244.063 179.82 244.063ZM179.711 233.835C179.261 233.835 178.826 233.901 178.406 234.031C177.985 234.147 177.608 234.343 177.274 234.619C176.955 234.88 176.694 235.214 176.491 235.62C176.287 236.026 176.186 236.512 176.186 237.078H183.128C183.113 236.483 183.011 235.982 182.823 235.576C182.649 235.156 182.409 234.822 182.105 234.575C181.8 234.314 181.437 234.126 181.017 234.01C180.611 233.893 180.175 233.835 179.711 233.835Z" fill="black"/>
</svg>
