<svg width="884" height="403" viewBox="0 0 884 403" fill="none" xmlns="http://www.w3.org/2000/svg">
<rect x="100" y="166.914" width="334" height="45" fill="#DBEEE5"/>
<path d="M113.191 194.347H116.608V182.901L113.126 185.339L112.277 184.098L117.065 180.682H118.283V194.347H121.634V195.914H113.191V194.347ZM124.672 188.298C124.672 187.065 124.781 185.962 124.999 184.99C125.216 184.004 125.543 183.177 125.978 182.51C126.413 181.828 126.964 181.313 127.632 180.965C128.299 180.602 129.09 180.421 130.004 180.421C130.976 180.421 131.795 180.595 132.462 180.943C133.144 181.291 133.696 181.799 134.116 182.466C134.537 183.133 134.842 183.96 135.03 184.947C135.219 185.919 135.313 187.036 135.313 188.298C135.313 189.531 135.204 190.641 134.987 191.627C134.769 192.599 134.443 193.426 134.007 194.108C133.572 194.775 133.021 195.29 132.354 195.653C131.686 196.001 130.896 196.175 129.982 196.175C129.024 196.175 128.205 195.987 127.523 195.609C126.856 195.218 126.304 194.674 125.869 193.977C125.448 193.281 125.144 192.454 124.955 191.497C124.767 190.525 124.672 189.458 124.672 188.298ZM133.529 188.298C133.529 187.529 133.485 186.796 133.398 186.1L126.935 191.997C127.182 192.824 127.552 193.484 128.045 193.977C128.538 194.471 129.184 194.717 129.982 194.717C131.258 194.717 132.165 194.188 132.702 193.129C133.253 192.07 133.529 190.459 133.529 188.298ZM126.478 188.298C126.478 188.661 126.486 189.009 126.5 189.342C126.529 189.676 126.558 190.003 126.587 190.322L133.072 184.446C132.825 183.663 132.455 183.039 131.962 182.575C131.483 182.111 130.83 181.879 130.004 181.879C128.712 181.879 127.799 182.415 127.262 183.489C126.739 184.548 126.478 186.151 126.478 188.298ZM139.287 194.347H142.703V182.901L139.221 185.339L138.373 184.098L143.16 180.682H144.379V194.347H147.73V195.914H139.287V194.347ZM150.768 188.298C150.768 187.065 150.876 185.962 151.094 184.99C151.312 184.004 151.638 183.177 152.073 182.51C152.509 181.828 153.06 181.313 153.727 180.965C154.394 180.602 155.185 180.421 156.099 180.421C157.071 180.421 157.891 180.595 158.558 180.943C159.24 181.291 159.791 181.799 160.212 182.466C160.632 183.133 160.937 183.96 161.126 184.947C161.314 185.919 161.408 187.036 161.408 188.298C161.408 189.531 161.3 190.641 161.082 191.627C160.864 192.599 160.538 193.426 160.103 194.108C159.668 194.775 159.116 195.29 158.449 195.653C157.782 196.001 156.991 196.175 156.077 196.175C155.12 196.175 154.3 195.987 153.618 195.609C152.951 195.218 152.4 194.674 151.965 193.977C151.544 193.281 151.239 192.454 151.051 191.497C150.862 190.525 150.768 189.458 150.768 188.298ZM159.624 188.298C159.624 187.529 159.581 186.796 159.494 186.1L153.031 191.997C153.277 192.824 153.647 193.484 154.141 193.977C154.634 194.471 155.279 194.717 156.077 194.717C157.354 194.717 158.26 194.188 158.797 193.129C159.349 192.07 159.624 190.459 159.624 188.298ZM152.574 188.298C152.574 188.661 152.581 189.009 152.596 189.342C152.625 189.676 152.654 190.003 152.683 190.322L159.167 184.446C158.921 183.663 158.551 183.039 158.057 182.575C157.579 182.111 156.926 181.879 156.099 181.879C154.808 181.879 153.894 182.415 153.357 183.489C152.835 184.548 152.574 186.151 152.574 188.298ZM165.382 194.347H168.799V182.901L165.317 185.339L164.468 184.098L169.255 180.682H170.474V194.347H173.825V195.914H165.382V194.347ZM178.43 194.347H181.846V182.901L178.365 185.339L177.516 184.098L182.303 180.682H183.522V194.347H186.873V195.914H178.43V194.347ZM189.911 188.298C189.911 187.065 190.02 185.962 190.237 184.99C190.455 184.004 190.781 183.177 191.216 182.51C191.652 181.828 192.203 181.313 192.87 180.965C193.538 180.602 194.328 180.421 195.242 180.421C196.214 180.421 197.034 180.595 197.701 180.943C198.383 181.291 198.934 181.799 199.355 182.466C199.776 183.133 200.08 183.96 200.269 184.947C200.457 185.919 200.552 187.036 200.552 188.298C200.552 189.531 200.443 190.641 200.225 191.627C200.008 192.599 199.681 193.426 199.246 194.108C198.811 194.775 198.26 195.29 197.592 195.653C196.925 196.001 196.134 196.175 195.22 196.175C194.263 196.175 193.443 195.987 192.761 195.609C192.094 195.218 191.543 194.674 191.108 193.977C190.687 193.281 190.382 192.454 190.194 191.497C190.005 190.525 189.911 189.458 189.911 188.298ZM198.767 188.298C198.767 187.529 198.724 186.796 198.637 186.1L192.174 191.997C192.421 192.824 192.79 193.484 193.284 193.977C193.777 194.471 194.422 194.717 195.22 194.717C196.497 194.717 197.404 194.188 197.94 193.129C198.492 192.07 198.767 190.459 198.767 188.298ZM191.717 188.298C191.717 188.661 191.724 189.009 191.739 189.342C191.768 189.676 191.797 190.003 191.826 190.322L198.31 184.446C198.064 183.663 197.694 183.039 197.201 182.575C196.722 182.111 196.069 181.879 195.242 181.879C193.951 181.879 193.037 182.415 192.5 183.489C191.978 184.548 191.717 186.151 191.717 188.298ZM202.959 188.298C202.959 187.065 203.067 185.962 203.285 184.99C203.503 184.004 203.829 183.177 204.264 182.51C204.699 181.828 205.251 181.313 205.918 180.965C206.585 180.602 207.376 180.421 208.29 180.421C209.262 180.421 210.081 180.595 210.749 180.943C211.431 181.291 211.982 181.799 212.403 182.466C212.823 183.133 213.128 183.96 213.316 184.947C213.505 185.919 213.599 187.036 213.599 188.298C213.599 189.531 213.491 190.641 213.273 191.627C213.055 192.599 212.729 193.426 212.294 194.108C211.859 194.775 211.307 195.29 210.64 195.653C209.973 196.001 209.182 196.175 208.268 196.175C207.311 196.175 206.491 195.987 205.809 195.609C205.142 195.218 204.591 194.674 204.155 193.977C203.735 193.281 203.43 192.454 203.241 191.497C203.053 190.525 202.959 189.458 202.959 188.298ZM211.815 188.298C211.815 187.529 211.771 186.796 211.684 186.1L205.222 191.997C205.468 192.824 205.838 193.484 206.331 193.977C206.825 194.471 207.47 194.717 208.268 194.717C209.545 194.717 210.451 194.188 210.988 193.129C211.539 192.07 211.815 190.459 211.815 188.298ZM204.765 188.298C204.765 188.661 204.772 189.009 204.786 189.342C204.815 189.676 204.844 190.003 204.873 190.322L211.358 184.446C211.111 183.663 210.741 183.039 210.248 182.575C209.77 182.111 209.117 181.879 208.29 181.879C206.999 181.879 206.085 182.415 205.548 183.489C205.026 184.548 204.765 186.151 204.765 188.298ZM219.88 194.717C219.88 194.253 220.01 193.898 220.271 193.651C220.532 193.39 220.881 193.259 221.316 193.259C221.78 193.259 222.143 193.39 222.404 193.651C222.665 193.898 222.795 194.253 222.795 194.717C222.795 195.138 222.665 195.486 222.404 195.762C222.143 196.037 221.78 196.175 221.316 196.175C220.881 196.175 220.532 196.037 220.271 195.762C220.01 195.486 219.88 195.138 219.88 194.717ZM229.054 188.298C229.054 187.065 229.163 185.962 229.38 184.99C229.598 184.004 229.924 183.177 230.36 182.51C230.795 181.828 231.346 181.313 232.013 180.965C232.681 180.602 233.471 180.421 234.385 180.421C235.357 180.421 236.177 180.595 236.844 180.943C237.526 181.291 238.077 181.799 238.498 182.466C238.919 183.133 239.223 183.96 239.412 184.947C239.6 185.919 239.695 187.036 239.695 188.298C239.695 189.531 239.586 190.641 239.368 191.627C239.151 192.599 238.824 193.426 238.389 194.108C237.954 194.775 237.403 195.29 236.735 195.653C236.068 196.001 235.277 196.175 234.363 196.175C233.406 196.175 232.586 195.987 231.905 195.609C231.237 195.218 230.686 194.674 230.251 193.977C229.83 193.281 229.525 192.454 229.337 191.497C229.148 190.525 229.054 189.458 229.054 188.298ZM237.91 188.298C237.91 187.529 237.867 186.796 237.78 186.1L231.317 191.997C231.564 192.824 231.934 193.484 232.427 193.977C232.92 194.471 233.566 194.717 234.363 194.717C235.64 194.717 236.547 194.188 237.084 193.129C237.635 192.07 237.91 190.459 237.91 188.298ZM230.86 188.298C230.86 188.661 230.867 189.009 230.882 189.342C230.911 189.676 230.94 190.003 230.969 190.322L237.453 184.446C237.207 183.663 236.837 183.039 236.344 182.575C235.865 182.111 235.212 181.879 234.385 181.879C233.094 181.879 232.18 182.415 231.643 183.489C231.121 184.548 230.86 186.151 230.86 188.298ZM242.102 188.298C242.102 187.065 242.21 185.962 242.428 184.99C242.646 184.004 242.972 183.177 243.407 182.51C243.842 181.828 244.394 181.313 245.061 180.965C245.728 180.602 246.519 180.421 247.433 180.421C248.405 180.421 249.225 180.595 249.892 180.943C250.574 181.291 251.125 181.799 251.546 182.466C251.966 183.133 252.271 183.96 252.46 184.947C252.648 185.919 252.742 187.036 252.742 188.298C252.742 189.531 252.634 190.641 252.416 191.627C252.198 192.599 251.872 193.426 251.437 194.108C251.002 194.775 250.45 195.29 249.783 195.653C249.116 196.001 248.325 196.175 247.411 196.175C246.454 196.175 245.634 195.987 244.952 195.609C244.285 195.218 243.734 194.674 243.298 193.977C242.878 193.281 242.573 192.454 242.385 191.497C242.196 190.525 242.102 189.458 242.102 188.298ZM250.958 188.298C250.958 187.529 250.915 186.796 250.828 186.1L244.365 191.997C244.611 192.824 244.981 193.484 245.475 193.977C245.968 194.471 246.613 194.717 247.411 194.717C248.688 194.717 249.594 194.188 250.131 193.129C250.682 192.07 250.958 190.459 250.958 188.298ZM243.908 188.298C243.908 188.661 243.915 189.009 243.93 189.342C243.959 189.676 243.988 190.003 244.017 190.322L250.501 184.446C250.255 183.663 249.885 183.039 249.391 182.575C248.913 182.111 248.26 181.879 247.433 181.879C246.142 181.879 245.228 182.415 244.691 183.489C244.169 184.548 243.908 186.151 243.908 188.298ZM255.149 188.298C255.149 187.065 255.258 185.962 255.476 184.99C255.693 184.004 256.02 183.177 256.455 182.51C256.89 181.828 257.441 181.313 258.109 180.965C258.776 180.602 259.567 180.421 260.481 180.421C261.453 180.421 262.272 180.595 262.94 180.943C263.621 181.291 264.173 181.799 264.593 182.466C265.014 183.133 265.319 183.96 265.507 184.947C265.696 185.919 265.79 187.036 265.79 188.298C265.79 189.531 265.681 190.641 265.464 191.627C265.246 192.599 264.92 193.426 264.485 194.108C264.049 194.775 263.498 195.29 262.831 195.653C262.163 196.001 261.373 196.175 260.459 196.175C259.501 196.175 258.682 195.987 258 195.609C257.333 195.218 256.781 194.674 256.346 193.977C255.925 193.281 255.621 192.454 255.432 191.497C255.244 190.525 255.149 189.458 255.149 188.298ZM264.006 188.298C264.006 187.529 263.962 186.796 263.875 186.1L257.412 191.997C257.659 192.824 258.029 193.484 258.522 193.977C259.015 194.471 259.661 194.717 260.459 194.717C261.735 194.717 262.642 194.188 263.179 193.129C263.73 192.07 264.006 190.459 264.006 188.298ZM256.955 188.298C256.955 188.661 256.963 189.009 256.977 189.342C257.006 189.676 257.035 190.003 257.064 190.322L263.549 184.446C263.302 183.663 262.932 183.039 262.439 182.575C261.96 182.111 261.308 181.879 260.481 181.879C259.19 181.879 258.276 182.415 257.739 183.489C257.217 184.548 256.955 186.151 256.955 188.298ZM269.764 194.347H273.18V182.901L269.699 185.339L268.85 184.098L273.637 180.682H274.856V194.347H278.207V195.914H269.764V194.347ZM281.245 188.298C281.245 187.065 281.354 185.962 281.571 184.99C281.789 184.004 282.115 183.177 282.55 182.51C282.986 181.828 283.537 181.313 284.204 180.965C284.872 180.602 285.662 180.421 286.576 180.421C287.548 180.421 288.368 180.595 289.035 180.943C289.717 181.291 290.268 181.799 290.689 182.466C291.109 183.133 291.414 183.96 291.603 184.947C291.791 185.919 291.886 187.036 291.886 188.298C291.886 189.531 291.777 190.641 291.559 191.627C291.342 192.599 291.015 193.426 290.58 194.108C290.145 194.775 289.593 195.29 288.926 195.653C288.259 196.001 287.468 196.175 286.554 196.175C285.597 196.175 284.777 195.987 284.095 195.609C283.428 195.218 282.877 194.674 282.442 193.977C282.021 193.281 281.716 192.454 281.528 191.497C281.339 190.525 281.245 189.458 281.245 188.298ZM290.101 188.298C290.101 187.529 290.058 186.796 289.971 186.1L283.508 191.997C283.754 192.824 284.124 193.484 284.618 193.977C285.111 194.471 285.756 194.717 286.554 194.717C287.831 194.717 288.738 194.188 289.274 193.129C289.826 192.07 290.101 190.459 290.101 188.298ZM283.051 188.298C283.051 188.661 283.058 189.009 283.073 189.342C283.102 189.676 283.131 190.003 283.16 190.322L289.644 184.446C289.398 183.663 289.028 183.039 288.534 182.575C288.056 182.111 287.403 181.879 286.576 181.879C285.285 181.879 284.371 182.415 283.834 183.489C283.312 184.548 283.051 186.151 283.051 188.298ZM294.292 188.298C294.292 187.065 294.401 185.962 294.619 184.99C294.837 184.004 295.163 183.177 295.598 182.51C296.033 181.828 296.585 181.313 297.252 180.965C297.919 180.602 298.71 180.421 299.624 180.421C300.596 180.421 301.415 180.595 302.083 180.943C302.765 181.291 303.316 181.799 303.736 182.466C304.157 183.133 304.462 183.96 304.65 184.947C304.839 185.919 304.933 187.036 304.933 188.298C304.933 189.531 304.825 190.641 304.607 191.627C304.389 192.599 304.063 193.426 303.628 194.108C303.192 194.775 302.641 195.29 301.974 195.653C301.307 196.001 300.516 196.175 299.602 196.175C298.645 196.175 297.825 195.987 297.143 195.609C296.476 195.218 295.925 194.674 295.489 193.977C295.069 193.281 294.764 192.454 294.575 191.497C294.387 190.525 294.292 189.458 294.292 188.298ZM303.149 188.298C303.149 187.529 303.105 186.796 303.018 186.1L296.556 191.997C296.802 192.824 297.172 193.484 297.665 193.977C298.159 194.471 298.804 194.717 299.602 194.717C300.879 194.717 301.785 194.188 302.322 193.129C302.873 192.07 303.149 190.459 303.149 188.298ZM296.099 188.298C296.099 188.661 296.106 189.009 296.12 189.342C296.149 189.676 296.178 190.003 296.207 190.322L302.692 184.446C302.445 183.663 302.075 183.039 301.582 182.575C301.103 182.111 300.451 181.879 299.624 181.879C298.333 181.879 297.419 182.415 296.882 183.489C296.36 184.548 296.099 186.151 296.099 188.298ZM307.34 188.298C307.34 187.065 307.449 185.962 307.667 184.99C307.884 184.004 308.211 183.177 308.646 182.51C309.081 181.828 309.632 181.313 310.3 180.965C310.967 180.602 311.758 180.421 312.671 180.421C313.643 180.421 314.463 180.595 315.13 180.943C315.812 181.291 316.363 181.799 316.784 182.466C317.205 183.133 317.51 183.96 317.698 184.947C317.887 185.919 317.981 187.036 317.981 188.298C317.981 189.531 317.872 190.641 317.655 191.627C317.437 192.599 317.111 193.426 316.675 194.108C316.24 194.775 315.689 195.29 315.022 195.653C314.354 196.001 313.564 196.175 312.65 196.175C311.692 196.175 310.873 195.987 310.191 195.609C309.523 195.218 308.972 194.674 308.537 193.977C308.116 193.281 307.812 192.454 307.623 191.497C307.434 190.525 307.34 189.458 307.34 188.298ZM316.197 188.298C316.197 187.529 316.153 186.796 316.066 186.1L309.603 191.997C309.85 192.824 310.22 193.484 310.713 193.977C311.206 194.471 311.852 194.717 312.65 194.717C313.926 194.717 314.833 194.188 315.37 193.129C315.921 192.07 316.197 190.459 316.197 188.298ZM309.146 188.298C309.146 188.661 309.154 189.009 309.168 189.342C309.197 189.676 309.226 190.003 309.255 190.322L315.74 184.446C315.493 183.663 315.123 183.039 314.63 182.575C314.151 182.111 313.498 181.879 312.671 181.879C311.38 181.879 310.466 182.415 309.93 183.489C309.407 184.548 309.146 186.151 309.146 188.298ZM320.388 188.298C320.388 187.065 320.497 185.962 320.714 184.99C320.932 184.004 321.258 183.177 321.694 182.51C322.129 181.828 322.68 181.313 323.347 180.965C324.015 180.602 324.805 180.421 325.719 180.421C326.691 180.421 327.511 180.595 328.178 180.943C328.86 181.291 329.411 181.799 329.832 182.466C330.253 183.133 330.557 183.96 330.746 184.947C330.934 185.919 331.029 187.036 331.029 188.298C331.029 189.531 330.92 190.641 330.702 191.627C330.485 192.599 330.158 193.426 329.723 194.108C329.288 194.775 328.737 195.29 328.069 195.653C327.402 196.001 326.611 196.175 325.697 196.175C324.74 196.175 323.92 195.987 323.239 195.609C322.571 195.218 322.02 194.674 321.585 193.977C321.164 193.281 320.859 192.454 320.671 191.497C320.482 190.525 320.388 189.458 320.388 188.298ZM329.244 188.298C329.244 187.529 329.201 186.796 329.114 186.1L322.651 191.997C322.898 192.824 323.268 193.484 323.761 193.977C324.254 194.471 324.9 194.717 325.697 194.717C326.974 194.717 327.881 194.188 328.417 193.129C328.969 192.07 329.244 190.459 329.244 188.298ZM322.194 188.298C322.194 188.661 322.201 189.009 322.216 189.342C322.245 189.676 322.274 190.003 322.303 190.322L328.787 184.446C328.541 183.663 328.171 183.039 327.678 182.575C327.199 182.111 326.546 181.879 325.719 181.879C324.428 181.879 323.514 182.415 322.977 183.489C322.455 184.548 322.194 186.151 322.194 188.298ZM337.309 194.717C337.309 194.253 337.44 193.898 337.701 193.651C337.962 193.39 338.31 193.259 338.745 193.259C339.209 193.259 339.572 193.39 339.833 193.651C340.094 193.898 340.225 194.253 340.225 194.717C340.225 195.138 340.094 195.486 339.833 195.762C339.572 196.037 339.209 196.175 338.745 196.175C338.31 196.175 337.962 196.037 337.701 195.762C337.44 195.486 337.309 195.138 337.309 194.717ZM346.483 188.298C346.483 187.065 346.592 185.962 346.81 184.99C347.027 184.004 347.354 183.177 347.789 182.51C348.224 181.828 348.775 181.313 349.443 180.965C350.11 180.602 350.901 180.421 351.815 180.421C352.787 180.421 353.606 180.595 354.274 180.943C354.955 181.291 355.507 181.799 355.927 182.466C356.348 183.133 356.653 183.96 356.841 184.947C357.03 185.919 357.124 187.036 357.124 188.298C357.124 189.531 357.015 190.641 356.798 191.627C356.58 192.599 356.254 193.426 355.819 194.108C355.383 194.775 354.832 195.29 354.165 195.653C353.497 196.001 352.707 196.175 351.793 196.175C350.835 196.175 350.016 195.987 349.334 195.609C348.667 195.218 348.115 194.674 347.68 193.977C347.259 193.281 346.955 192.454 346.766 191.497C346.578 190.525 346.483 189.458 346.483 188.298ZM355.34 188.298C355.34 187.529 355.296 186.796 355.209 186.1L348.746 191.997C348.993 192.824 349.363 193.484 349.856 193.977C350.349 194.471 350.995 194.717 351.793 194.717C353.069 194.717 353.976 194.188 354.513 193.129C355.064 192.07 355.34 190.459 355.34 188.298ZM348.289 188.298C348.289 188.661 348.297 189.009 348.311 189.342C348.34 189.676 348.369 190.003 348.398 190.322L354.883 184.446C354.636 183.663 354.266 183.039 353.773 182.575C353.294 182.111 352.641 181.879 351.815 181.879C350.523 181.879 349.61 182.415 349.073 183.489C348.551 184.548 348.289 186.151 348.289 188.298ZM359.531 188.298C359.531 187.065 359.64 185.962 359.857 184.99C360.075 184.004 360.401 183.177 360.837 182.51C361.272 181.828 361.823 181.313 362.49 180.965C363.158 180.602 363.948 180.421 364.862 180.421C365.834 180.421 366.654 180.595 367.321 180.943C368.003 181.291 368.554 181.799 368.975 182.466C369.396 183.133 369.7 183.96 369.889 184.947C370.078 185.919 370.172 187.036 370.172 188.298C370.172 189.531 370.063 190.641 369.845 191.627C369.628 192.599 369.301 193.426 368.866 194.108C368.431 194.775 367.88 195.29 367.212 195.653C366.545 196.001 365.754 196.175 364.841 196.175C363.883 196.175 363.063 195.987 362.382 195.609C361.714 195.218 361.163 194.674 360.728 193.977C360.307 193.281 360.003 192.454 359.814 191.497C359.625 190.525 359.531 189.458 359.531 188.298ZM368.387 188.298C368.387 187.529 368.344 186.796 368.257 186.1L361.794 191.997C362.041 192.824 362.411 193.484 362.904 193.977C363.397 194.471 364.043 194.717 364.841 194.717C366.117 194.717 367.024 194.188 367.561 193.129C368.112 192.07 368.387 190.459 368.387 188.298ZM361.337 188.298C361.337 188.661 361.344 189.009 361.359 189.342C361.388 189.676 361.417 190.003 361.446 190.322L367.931 184.446C367.684 183.663 367.314 183.039 366.821 182.575C366.342 182.111 365.689 181.879 364.862 181.879C363.571 181.879 362.657 182.415 362.121 183.489C361.598 184.548 361.337 186.151 361.337 188.298ZM372.579 188.298C372.579 187.065 372.688 185.962 372.905 184.99C373.123 184.004 373.449 183.177 373.884 182.51C374.32 181.828 374.871 181.313 375.538 180.965C376.205 180.602 376.996 180.421 377.91 180.421C378.882 180.421 379.702 180.595 380.369 180.943C381.051 181.291 381.602 181.799 382.023 182.466C382.443 183.133 382.748 183.96 382.937 184.947C383.125 185.919 383.22 187.036 383.22 188.298C383.22 189.531 383.111 190.641 382.893 191.627C382.676 192.599 382.349 193.426 381.914 194.108C381.479 194.775 380.927 195.29 380.26 195.653C379.593 196.001 378.802 196.175 377.888 196.175C376.931 196.175 376.111 195.987 375.429 195.609C374.762 195.218 374.211 194.674 373.776 193.977C373.355 193.281 373.05 192.454 372.862 191.497C372.673 190.525 372.579 189.458 372.579 188.298ZM381.435 188.298C381.435 187.529 381.392 186.796 381.305 186.1L374.842 191.997C375.088 192.824 375.458 193.484 375.952 193.977C376.445 194.471 377.09 194.717 377.888 194.717C379.165 194.717 380.072 194.188 380.608 193.129C381.16 192.07 381.435 190.459 381.435 188.298ZM374.385 188.298C374.385 188.661 374.392 189.009 374.407 189.342C374.436 189.676 374.465 190.003 374.494 190.322L380.978 184.446C380.732 183.663 380.362 183.039 379.868 182.575C379.39 182.111 378.737 181.879 377.91 181.879C376.619 181.879 375.705 182.415 375.168 183.489C374.646 184.548 374.385 186.151 374.385 188.298ZM385.626 188.298C385.626 187.065 385.735 185.962 385.953 184.99C386.17 184.004 386.497 183.177 386.932 182.51C387.367 181.828 387.919 181.313 388.586 180.965C389.253 180.602 390.044 180.421 390.958 180.421C391.93 180.421 392.749 180.595 393.417 180.943C394.098 181.291 394.65 181.799 395.07 182.466C395.491 183.133 395.796 183.96 395.984 184.947C396.173 185.919 396.267 187.036 396.267 188.298C396.267 189.531 396.158 190.641 395.941 191.627C395.723 192.599 395.397 193.426 394.962 194.108C394.526 194.775 393.975 195.29 393.308 195.653C392.641 196.001 391.85 196.175 390.936 196.175C389.979 196.175 389.159 195.987 388.477 195.609C387.81 195.218 387.258 194.674 386.823 193.977C386.403 193.281 386.098 192.454 385.909 191.497C385.721 190.525 385.626 189.458 385.626 188.298ZM394.483 188.298C394.483 187.529 394.439 186.796 394.352 186.1L387.89 191.997C388.136 192.824 388.506 193.484 388.999 193.977C389.493 194.471 390.138 194.717 390.936 194.717C392.213 194.717 393.119 194.188 393.656 193.129C394.207 192.07 394.483 190.459 394.483 188.298ZM387.433 188.298C387.433 188.661 387.44 189.009 387.454 189.342C387.483 189.676 387.512 190.003 387.541 190.322L394.026 184.446C393.779 183.663 393.409 183.039 392.916 182.575C392.437 182.111 391.785 181.879 390.958 181.879C389.667 181.879 388.753 182.415 388.216 183.489C387.694 184.548 387.433 186.151 387.433 188.298ZM398.674 188.298C398.674 187.065 398.783 185.962 399.001 184.99C399.218 184.004 399.545 183.177 399.98 182.51C400.415 181.828 400.966 181.313 401.634 180.965C402.301 180.602 403.092 180.421 404.005 180.421C404.977 180.421 405.797 180.595 406.464 180.943C407.146 181.291 407.697 181.799 408.118 182.466C408.539 183.133 408.844 183.96 409.032 184.947C409.221 185.919 409.315 187.036 409.315 188.298C409.315 189.531 409.206 190.641 408.989 191.627C408.771 192.599 408.445 193.426 408.009 194.108C407.574 194.775 407.023 195.29 406.356 195.653C405.688 196.001 404.898 196.175 403.984 196.175C403.026 196.175 402.207 195.987 401.525 195.609C400.857 195.218 400.306 194.674 399.871 193.977C399.45 193.281 399.146 192.454 398.957 191.497C398.768 190.525 398.674 189.458 398.674 188.298ZM407.531 188.298C407.531 187.529 407.487 186.796 407.4 186.1L400.937 191.997C401.184 192.824 401.554 193.484 402.047 193.977C402.54 194.471 403.186 194.717 403.984 194.717C405.26 194.717 406.167 194.188 406.704 193.129C407.255 192.07 407.531 190.459 407.531 188.298ZM400.48 188.298C400.48 188.661 400.488 189.009 400.502 189.342C400.531 189.676 400.56 190.003 400.589 190.322L407.074 184.446C406.827 183.663 406.457 183.039 405.964 182.575C405.485 182.111 404.832 181.879 404.005 181.879C402.714 181.879 401.8 182.415 401.264 183.489C400.741 184.548 400.48 186.151 400.48 188.298ZM411.722 188.298C411.722 187.065 411.831 185.962 412.048 184.99C412.266 184.004 412.592 183.177 413.027 182.51C413.463 181.828 414.014 181.313 414.681 180.965C415.349 180.602 416.139 180.421 417.053 180.421C418.025 180.421 418.845 180.595 419.512 180.943C420.194 181.291 420.745 181.799 421.166 182.466C421.587 183.133 421.891 183.96 422.08 184.947C422.268 185.919 422.363 187.036 422.363 188.298C422.363 189.531 422.254 190.641 422.036 191.627C421.819 192.599 421.492 193.426 421.057 194.108C420.622 194.775 420.071 195.29 419.403 195.653C418.736 196.001 417.945 196.175 417.031 196.175C416.074 196.175 415.254 195.987 414.572 195.609C413.905 195.218 413.354 194.674 412.919 193.977C412.498 193.281 412.193 192.454 412.005 191.497C411.816 190.525 411.722 189.458 411.722 188.298ZM420.578 188.298C420.578 187.529 420.535 186.796 420.448 186.1L413.985 191.997C414.232 192.824 414.601 193.484 415.095 193.977C415.588 194.471 416.234 194.717 417.031 194.717C418.308 194.717 419.215 194.188 419.751 193.129C420.303 192.07 420.578 190.459 420.578 188.298ZM413.528 188.298C413.528 188.661 413.535 189.009 413.55 189.342C413.579 189.676 413.608 190.003 413.637 190.322L420.121 184.446C419.875 183.663 419.505 183.039 419.012 182.575C418.533 182.111 417.88 181.879 417.053 181.879C415.762 181.879 414.848 182.415 414.311 183.489C413.789 184.548 413.528 186.151 413.528 188.298Z" fill="black"/>
<rect x="100" y="166.914" width="334" height="45" stroke="#58A982"/>
<rect x="434" y="166.914" width="164" height="45" fill="#F1F7F5"/>
<path d="M445.435 188.298C445.435 187.065 445.543 185.962 445.761 184.99C445.979 184.004 446.305 183.177 446.74 182.51C447.175 181.828 447.727 181.313 448.394 180.965C449.061 180.602 449.852 180.421 450.766 180.421C451.738 180.421 452.558 180.595 453.225 180.943C453.907 181.291 454.458 181.799 454.879 182.466C455.299 183.133 455.604 183.96 455.793 184.947C455.981 185.919 456.075 187.036 456.075 188.298C456.075 189.531 455.967 190.641 455.749 191.627C455.531 192.599 455.205 193.426 454.77 194.108C454.335 194.775 453.783 195.29 453.116 195.653C452.449 196.001 451.658 196.175 450.744 196.175C449.787 196.175 448.967 195.987 448.285 195.609C447.618 195.218 447.067 194.674 446.631 193.977C446.211 193.281 445.906 192.454 445.718 191.497C445.529 190.525 445.435 189.458 445.435 188.298ZM454.291 188.298C454.291 187.529 454.248 186.796 454.161 186.1L447.698 191.997C447.944 192.824 448.314 193.484 448.808 193.977C449.301 194.471 449.946 194.717 450.744 194.717C452.021 194.717 452.927 194.188 453.464 193.129C454.015 192.07 454.291 190.459 454.291 188.298ZM447.241 188.298C447.241 188.661 447.248 189.009 447.263 189.342C447.292 189.676 447.321 190.003 447.35 190.322L453.834 184.446C453.588 183.663 453.218 183.039 452.724 182.575C452.246 182.111 451.593 181.879 450.766 181.879C449.475 181.879 448.561 182.415 448.024 183.489C447.502 184.548 447.241 186.151 447.241 188.298ZM458.482 188.298C458.482 187.065 458.591 185.962 458.809 184.99C459.026 184.004 459.353 183.177 459.788 182.51C460.223 181.828 460.774 181.313 461.442 180.965C462.109 180.602 462.9 180.421 463.814 180.421C464.786 180.421 465.605 180.595 466.273 180.943C466.954 181.291 467.506 181.799 467.926 182.466C468.347 183.133 468.652 183.96 468.84 184.947C469.029 185.919 469.123 187.036 469.123 188.298C469.123 189.531 469.014 190.641 468.797 191.627C468.579 192.599 468.253 193.426 467.818 194.108C467.382 194.775 466.831 195.29 466.164 195.653C465.496 196.001 464.706 196.175 463.792 196.175C462.834 196.175 462.015 195.987 461.333 195.609C460.666 195.218 460.114 194.674 459.679 193.977C459.258 193.281 458.954 192.454 458.765 191.497C458.577 190.525 458.482 189.458 458.482 188.298ZM467.339 188.298C467.339 187.529 467.295 186.796 467.208 186.1L460.745 191.997C460.992 192.824 461.362 193.484 461.855 193.977C462.348 194.471 462.994 194.717 463.792 194.717C465.069 194.717 465.975 194.188 466.512 193.129C467.063 192.07 467.339 190.459 467.339 188.298ZM460.288 188.298C460.288 188.661 460.296 189.009 460.31 189.342C460.339 189.676 460.368 190.003 460.397 190.322L466.882 184.446C466.635 183.663 466.265 183.039 465.772 182.575C465.293 182.111 464.641 181.879 463.814 181.879C462.523 181.879 461.609 182.415 461.072 183.489C460.55 184.548 460.288 186.151 460.288 188.298ZM475.403 194.717C475.403 194.253 475.534 193.898 475.795 193.651C476.056 193.39 476.404 193.259 476.84 193.259C477.304 193.259 477.666 193.39 477.928 193.651C478.189 193.898 478.319 194.253 478.319 194.717C478.319 195.138 478.189 195.486 477.928 195.762C477.666 196.037 477.304 196.175 476.84 196.175C476.404 196.175 476.056 196.037 475.795 195.762C475.534 195.486 475.403 195.138 475.403 194.717ZM484.578 188.298C484.578 187.065 484.687 185.962 484.904 184.99C485.122 184.004 485.448 183.177 485.883 182.51C486.319 181.828 486.87 181.313 487.537 180.965C488.205 180.602 488.995 180.421 489.909 180.421C490.881 180.421 491.701 180.595 492.368 180.943C493.05 181.291 493.601 181.799 494.022 182.466C494.442 183.133 494.747 183.96 494.936 184.947C495.124 185.919 495.219 187.036 495.219 188.298C495.219 189.531 495.11 190.641 494.892 191.627C494.675 192.599 494.348 193.426 493.913 194.108C493.478 194.775 492.927 195.29 492.259 195.653C491.592 196.001 490.801 196.175 489.887 196.175C488.93 196.175 488.11 195.987 487.428 195.609C486.761 195.218 486.21 194.674 485.775 193.977C485.354 193.281 485.049 192.454 484.861 191.497C484.672 190.525 484.578 189.458 484.578 188.298ZM493.434 188.298C493.434 187.529 493.391 186.796 493.304 186.1L486.841 191.997C487.087 192.824 487.457 193.484 487.951 193.977C488.444 194.471 489.089 194.717 489.887 194.717C491.164 194.717 492.071 194.188 492.607 193.129C493.159 192.07 493.434 190.459 493.434 188.298ZM486.384 188.298C486.384 188.661 486.391 189.009 486.406 189.342C486.435 189.676 486.464 190.003 486.493 190.322L492.977 184.446C492.731 183.663 492.361 183.039 491.868 182.575C491.389 182.111 490.736 181.879 489.909 181.879C488.618 181.879 487.704 182.415 487.167 183.489C486.645 184.548 486.384 186.151 486.384 188.298ZM497.625 188.298C497.625 187.065 497.734 185.962 497.952 184.99C498.17 184.004 498.496 183.177 498.931 182.51C499.366 181.828 499.918 181.313 500.585 180.965C501.252 180.602 502.043 180.421 502.957 180.421C503.929 180.421 504.748 180.595 505.416 180.943C506.098 181.291 506.649 181.799 507.069 182.466C507.49 183.133 507.795 183.96 507.983 184.947C508.172 185.919 508.266 187.036 508.266 188.298C508.266 189.531 508.158 190.641 507.94 191.627C507.722 192.599 507.396 193.426 506.961 194.108C506.525 194.775 505.974 195.29 505.307 195.653C504.64 196.001 503.849 196.175 502.935 196.175C501.978 196.175 501.158 195.987 500.476 195.609C499.809 195.218 499.258 194.674 498.822 193.977C498.402 193.281 498.097 192.454 497.908 191.497C497.72 190.525 497.625 189.458 497.625 188.298ZM506.482 188.298C506.482 187.529 506.438 186.796 506.351 186.1L499.889 191.997C500.135 192.824 500.505 193.484 500.998 193.977C501.492 194.471 502.137 194.717 502.935 194.717C504.212 194.717 505.118 194.188 505.655 193.129C506.206 192.07 506.482 190.459 506.482 188.298ZM499.432 188.298C499.432 188.661 499.439 189.009 499.453 189.342C499.482 189.676 499.511 190.003 499.54 190.322L506.025 184.446C505.778 183.663 505.408 183.039 504.915 182.575C504.436 182.111 503.784 181.879 502.957 181.879C501.666 181.879 500.752 182.415 500.215 183.489C499.693 184.548 499.432 186.151 499.432 188.298ZM510.673 188.298C510.673 187.065 510.782 185.962 511 184.99C511.217 184.004 511.544 183.177 511.979 182.51C512.414 181.828 512.965 181.313 513.633 180.965C514.3 180.602 515.091 180.421 516.004 180.421C516.976 180.421 517.796 180.595 518.463 180.943C519.145 181.291 519.696 181.799 520.117 182.466C520.538 183.133 520.843 183.96 521.031 184.947C521.22 185.919 521.314 187.036 521.314 188.298C521.314 189.531 521.205 190.641 520.988 191.627C520.77 192.599 520.444 193.426 520.008 194.108C519.573 194.775 519.022 195.29 518.355 195.653C517.687 196.001 516.897 196.175 515.983 196.175C515.025 196.175 514.206 195.987 513.524 195.609C512.856 195.218 512.305 194.674 511.87 193.977C511.449 193.281 511.145 192.454 510.956 191.497C510.768 190.525 510.673 189.458 510.673 188.298ZM519.53 188.298C519.53 187.529 519.486 186.796 519.399 186.1L512.936 191.997C513.183 192.824 513.553 193.484 514.046 193.977C514.539 194.471 515.185 194.717 515.983 194.717C517.259 194.717 518.166 194.188 518.703 193.129C519.254 192.07 519.53 190.459 519.53 188.298ZM512.479 188.298C512.479 188.661 512.487 189.009 512.501 189.342C512.53 189.676 512.559 190.003 512.588 190.322L519.073 184.446C518.826 183.663 518.456 183.039 517.963 182.575C517.484 182.111 516.831 181.879 516.004 181.879C514.713 181.879 513.799 182.415 513.263 183.489C512.74 184.548 512.479 186.151 512.479 188.298ZM523.721 188.298C523.721 187.065 523.83 185.962 524.047 184.99C524.265 184.004 524.591 183.177 525.027 182.51C525.462 181.828 526.013 181.313 526.68 180.965C527.348 180.602 528.138 180.421 529.052 180.421C530.024 180.421 530.844 180.595 531.511 180.943C532.193 181.291 532.744 181.799 533.165 182.466C533.586 183.133 533.89 183.96 534.079 184.947C534.267 185.919 534.362 187.036 534.362 188.298C534.362 189.531 534.253 190.641 534.035 191.627C533.818 192.599 533.491 193.426 533.056 194.108C532.621 194.775 532.07 195.29 531.402 195.653C530.735 196.001 529.944 196.175 529.03 196.175C528.073 196.175 527.253 195.987 526.572 195.609C525.904 195.218 525.353 194.674 524.918 193.977C524.497 193.281 524.192 192.454 524.004 191.497C523.815 190.525 523.721 189.458 523.721 188.298ZM532.577 188.298C532.577 187.529 532.534 186.796 532.447 186.1L525.984 191.997C526.231 192.824 526.601 193.484 527.094 193.977C527.587 194.471 528.233 194.717 529.03 194.717C530.307 194.717 531.214 194.188 531.75 193.129C532.302 192.07 532.577 190.459 532.577 188.298ZM525.527 188.298C525.527 188.661 525.534 189.009 525.549 189.342C525.578 189.676 525.607 190.003 525.636 190.322L532.12 184.446C531.874 183.663 531.504 183.039 531.011 182.575C530.532 182.111 529.879 181.879 529.052 181.879C527.761 181.879 526.847 182.415 526.31 183.489C525.788 184.548 525.527 186.151 525.527 188.298ZM536.769 188.298C536.769 187.065 536.877 185.962 537.095 184.99C537.313 184.004 537.639 183.177 538.074 182.51C538.509 181.828 539.061 181.313 539.728 180.965C540.395 180.602 541.186 180.421 542.1 180.421C543.072 180.421 543.892 180.595 544.559 180.943C545.241 181.291 545.792 181.799 546.213 182.466C546.633 183.133 546.938 183.96 547.127 184.947C547.315 185.919 547.409 187.036 547.409 188.298C547.409 189.531 547.301 190.641 547.083 191.627C546.865 192.599 546.539 193.426 546.104 194.108C545.669 194.775 545.117 195.29 544.45 195.653C543.783 196.001 542.992 196.175 542.078 196.175C541.121 196.175 540.301 195.987 539.619 195.609C538.952 195.218 538.401 194.674 537.965 193.977C537.545 193.281 537.24 192.454 537.052 191.497C536.863 190.525 536.769 189.458 536.769 188.298ZM545.625 188.298C545.625 187.529 545.582 186.796 545.495 186.1L539.032 191.997C539.278 192.824 539.648 193.484 540.141 193.977C540.635 194.471 541.28 194.717 542.078 194.717C543.355 194.717 544.261 194.188 544.798 193.129C545.349 192.07 545.625 190.459 545.625 188.298ZM538.575 188.298C538.575 188.661 538.582 189.009 538.596 189.342C538.626 189.676 538.655 190.003 538.684 190.322L545.168 184.446C544.922 183.663 544.552 183.039 544.058 182.575C543.58 182.111 542.927 181.879 542.1 181.879C540.809 181.879 539.895 182.415 539.358 183.489C538.836 184.548 538.575 186.151 538.575 188.298ZM549.816 188.298C549.816 187.065 549.925 185.962 550.143 184.99C550.36 184.004 550.687 183.177 551.122 182.51C551.557 181.828 552.108 181.313 552.776 180.965C553.443 180.602 554.234 180.421 555.148 180.421C556.12 180.421 556.939 180.595 557.607 180.943C558.288 181.291 558.84 181.799 559.26 182.466C559.681 183.133 559.986 183.96 560.174 184.947C560.363 185.919 560.457 187.036 560.457 188.298C560.457 189.531 560.348 190.641 560.131 191.627C559.913 192.599 559.587 193.426 559.152 194.108C558.716 194.775 558.165 195.29 557.498 195.653C556.83 196.001 556.04 196.175 555.126 196.175C554.168 196.175 553.349 195.987 552.667 195.609C552 195.218 551.448 194.674 551.013 193.977C550.592 193.281 550.288 192.454 550.099 191.497C549.911 190.525 549.816 189.458 549.816 188.298ZM558.673 188.298C558.673 187.529 558.629 186.796 558.542 186.1L552.079 191.997C552.326 192.824 552.696 193.484 553.189 193.977C553.682 194.471 554.328 194.717 555.126 194.717C556.402 194.717 557.309 194.188 557.846 193.129C558.397 192.07 558.673 190.459 558.673 188.298ZM551.622 188.298C551.622 188.661 551.63 189.009 551.644 189.342C551.673 189.676 551.702 190.003 551.731 190.322L558.216 184.446C557.969 183.663 557.599 183.039 557.106 182.575C556.627 182.111 555.975 181.879 555.148 181.879C553.857 181.879 552.943 182.415 552.406 183.489C551.884 184.548 551.622 186.151 551.622 188.298ZM562.864 188.298C562.864 187.065 562.973 185.962 563.19 184.99C563.408 184.004 563.734 183.177 564.17 182.51C564.605 181.828 565.156 181.313 565.823 180.965C566.491 180.602 567.281 180.421 568.195 180.421C569.167 180.421 569.987 180.595 570.654 180.943C571.336 181.291 571.887 181.799 572.308 182.466C572.729 183.133 573.033 183.96 573.222 184.947C573.411 185.919 573.505 187.036 573.505 188.298C573.505 189.531 573.396 190.641 573.178 191.627C572.961 192.599 572.634 193.426 572.199 194.108C571.764 194.775 571.213 195.29 570.545 195.653C569.878 196.001 569.088 196.175 568.174 196.175C567.216 196.175 566.396 195.987 565.715 195.609C565.047 195.218 564.496 194.674 564.061 193.977C563.64 193.281 563.336 192.454 563.147 191.497C562.958 190.525 562.864 189.458 562.864 188.298ZM571.721 188.298C571.721 187.529 571.677 186.796 571.59 186.1L565.127 191.997C565.374 192.824 565.744 193.484 566.237 193.977C566.73 194.471 567.376 194.717 568.174 194.717C569.45 194.717 570.357 194.188 570.894 193.129C571.445 192.07 571.721 190.459 571.721 188.298ZM564.67 188.298C564.67 188.661 564.677 189.009 564.692 189.342C564.721 189.676 564.75 190.003 564.779 190.322L571.264 184.446C571.017 183.663 570.647 183.039 570.154 182.575C569.675 182.111 569.022 181.879 568.195 181.879C566.904 181.879 565.99 182.415 565.454 183.489C564.931 184.548 564.67 186.151 564.67 188.298ZM575.912 188.298C575.912 187.065 576.021 185.962 576.238 184.99C576.456 184.004 576.782 183.177 577.217 182.51C577.653 181.828 578.204 181.313 578.871 180.965C579.538 180.602 580.329 180.421 581.243 180.421C582.215 180.421 583.035 180.595 583.702 180.943C584.384 181.291 584.935 181.799 585.356 182.466C585.776 183.133 586.081 183.96 586.27 184.947C586.458 185.919 586.553 187.036 586.553 188.298C586.553 189.531 586.444 190.641 586.226 191.627C586.009 192.599 585.682 193.426 585.247 194.108C584.812 194.775 584.26 195.29 583.593 195.653C582.926 196.001 582.135 196.175 581.221 196.175C580.264 196.175 579.444 195.987 578.762 195.609C578.095 195.218 577.544 194.674 577.109 193.977C576.688 193.281 576.383 192.454 576.195 191.497C576.006 190.525 575.912 189.458 575.912 188.298ZM584.768 188.298C584.768 187.529 584.725 186.796 584.638 186.1L578.175 191.997C578.421 192.824 578.791 193.484 579.285 193.977C579.778 194.471 580.423 194.717 581.221 194.717C582.498 194.717 583.405 194.188 583.941 193.129C584.493 192.07 584.768 190.459 584.768 188.298ZM577.718 188.298C577.718 188.661 577.725 189.009 577.74 189.342C577.769 189.676 577.798 190.003 577.827 190.322L584.311 184.446C584.065 183.663 583.695 183.039 583.201 182.575C582.723 182.111 582.07 181.879 581.243 181.879C579.952 181.879 579.038 182.415 578.501 183.489C577.979 184.548 577.718 186.151 577.718 188.298Z" fill="black"/>
<rect x="434" y="166.914" width="164" height="45" stroke="#58A982"/>
<path d="M100 157.748V134.23H434V157.748" stroke="#696969"/>
<path d="M434 157.752V134.234H598V157.752" stroke="#696969"/>
<path d="M434 221.076V244.594H598V221.076" stroke="#696969"/>
<path d="M197.889 121.328C196.888 121.328 195.967 121.182 195.125 120.892C194.299 120.602 193.58 120.152 192.971 119.543C192.362 118.919 191.883 118.114 191.535 117.128C191.201 116.141 191.035 114.952 191.035 113.559V113.124C191.035 111.789 191.209 110.65 191.557 109.708C191.919 108.75 192.405 107.967 193.015 107.357C193.639 106.748 194.364 106.298 195.191 106.008C196.032 105.718 196.932 105.573 197.889 105.573C198.745 105.573 199.55 105.675 200.304 105.878C201.059 106.081 201.719 106.4 202.285 106.835C202.865 107.256 203.329 107.8 203.677 108.467C204.04 109.134 204.25 109.925 204.308 110.839H200.914C200.754 109.969 200.406 109.33 199.869 108.924C199.332 108.518 198.672 108.315 197.889 108.315C197.439 108.315 197.004 108.395 196.583 108.554C196.177 108.714 195.815 108.982 195.495 109.359C195.176 109.737 194.915 110.23 194.712 110.839C194.523 111.448 194.429 112.21 194.429 113.124V113.559C194.429 114.517 194.531 115.322 194.734 115.974C194.937 116.613 195.198 117.128 195.517 117.519C195.851 117.897 196.221 118.172 196.627 118.346C197.048 118.506 197.468 118.586 197.889 118.586C198.716 118.586 199.398 118.375 199.935 117.955C200.471 117.519 200.798 116.888 200.914 116.062H204.308C204.236 117.019 204.025 117.831 203.677 118.499C203.329 119.166 202.872 119.71 202.306 120.131C201.741 120.551 201.081 120.856 200.326 121.045C199.572 121.233 198.759 121.328 197.889 121.328ZM211.711 121.328C210.928 121.328 210.181 121.211 209.47 120.979C208.773 120.733 208.164 120.37 207.642 119.891C207.12 119.398 206.706 118.782 206.402 118.042C206.097 117.287 205.945 116.41 205.945 115.409V114.974C205.945 114.016 206.09 113.182 206.38 112.471C206.67 111.76 207.069 111.173 207.577 110.708C208.084 110.23 208.672 109.874 209.339 109.642C210.007 109.396 210.725 109.272 211.494 109.272C213.307 109.272 214.685 109.751 215.628 110.708C216.571 111.666 217.042 113.051 217.042 114.865V116.083H208.882C208.897 116.591 208.984 117.033 209.143 117.411C209.303 117.773 209.513 118.071 209.774 118.303C210.036 118.535 210.333 118.709 210.667 118.825C211.015 118.927 211.363 118.977 211.711 118.977C212.451 118.977 213.009 118.869 213.387 118.651C213.764 118.433 214.032 118.114 214.192 117.694H216.825C216.593 118.898 216.02 119.804 215.106 120.414C214.192 121.023 213.06 121.328 211.711 121.328ZM211.602 111.622C211.269 111.622 210.935 111.666 210.601 111.753C210.282 111.84 209.999 111.978 209.753 112.166C209.506 112.355 209.303 112.609 209.143 112.928C208.984 113.247 208.897 113.632 208.882 114.081H214.257C214.243 113.603 214.163 113.204 214.018 112.885C213.887 112.565 213.699 112.311 213.452 112.123C213.22 111.934 212.944 111.804 212.625 111.731C212.306 111.659 211.965 111.622 211.602 111.622ZM221.706 111.927H218.028V109.533H228.256V111.927H224.578V121.066H221.706V111.927ZM235.001 121.328C234.218 121.328 233.471 121.211 232.76 120.979C232.064 120.733 231.455 120.37 230.932 119.891C230.41 119.398 229.997 118.782 229.692 118.042C229.387 117.287 229.235 116.41 229.235 115.409V114.974C229.235 114.016 229.38 113.182 229.67 112.471C229.96 111.76 230.359 111.173 230.867 110.708C231.375 110.23 231.962 109.874 232.63 109.642C233.297 109.396 234.015 109.272 234.784 109.272C236.597 109.272 237.975 109.751 238.918 110.708C239.861 111.666 240.333 113.051 240.333 114.865V116.083H232.173C232.187 116.591 232.274 117.033 232.434 117.411C232.593 117.773 232.804 118.071 233.065 118.303C233.326 118.535 233.623 118.709 233.957 118.825C234.305 118.927 234.653 118.977 235.001 118.977C235.741 118.977 236.3 118.869 236.677 118.651C237.054 118.433 237.323 118.114 237.482 117.694H240.115C239.883 118.898 239.31 119.804 238.396 120.414C237.482 121.023 236.351 121.328 235.001 121.328ZM234.893 111.622C234.559 111.622 234.225 111.666 233.892 111.753C233.573 111.84 233.29 111.978 233.043 112.166C232.796 112.355 232.593 112.609 232.434 112.928C232.274 113.247 232.187 113.632 232.173 114.081H237.547C237.533 113.603 237.453 113.204 237.308 112.885C237.178 112.565 236.989 112.311 236.742 112.123C236.51 111.934 236.235 111.804 235.915 111.731C235.596 111.659 235.255 111.622 234.893 111.622ZM242.402 109.533H248.19C248.93 109.533 249.561 109.613 250.083 109.773C250.62 109.918 251.062 110.128 251.41 110.404C251.759 110.679 252.013 111.006 252.172 111.383C252.332 111.76 252.411 112.174 252.411 112.623C252.411 113.16 252.245 113.668 251.911 114.147C251.592 114.611 251.149 114.923 250.584 115.082C251.294 115.256 251.846 115.59 252.237 116.083C252.644 116.562 252.847 117.128 252.847 117.781C252.847 118.782 252.499 119.579 251.802 120.174C251.106 120.769 250.047 121.066 248.625 121.066H242.402V109.533ZM248.059 118.76C248.712 118.76 249.191 118.666 249.496 118.477C249.815 118.274 249.974 117.955 249.974 117.519C249.974 117.084 249.822 116.772 249.517 116.584C249.227 116.381 248.741 116.279 248.059 116.279H245.274V118.76H248.059ZM247.777 114.147C248.444 114.147 248.901 114.052 249.147 113.864C249.409 113.675 249.539 113.385 249.539 112.993C249.539 112.616 249.409 112.333 249.147 112.145C248.886 111.942 248.429 111.84 247.777 111.84H245.274V114.147H247.777ZM258.378 121.328C257.754 121.328 257.203 121.24 256.724 121.066C256.246 120.878 255.839 120.624 255.506 120.305C255.172 119.971 254.918 119.587 254.744 119.151C254.57 118.702 254.483 118.216 254.483 117.694C254.483 115.372 255.861 114.212 258.617 114.212H262.056V113.668C262.056 112.914 261.881 112.384 261.533 112.079C261.2 111.775 260.663 111.622 259.923 111.622C259.27 111.622 258.799 111.738 258.509 111.971C258.218 112.188 258.052 112.464 258.008 112.797H255.136C255.165 112.304 255.288 111.84 255.506 111.405C255.738 110.97 256.057 110.6 256.463 110.295C256.884 109.976 257.392 109.729 257.986 109.555C258.581 109.367 259.263 109.272 260.032 109.272C260.772 109.272 261.439 109.352 262.034 109.512C262.643 109.671 263.158 109.932 263.579 110.295C264.014 110.643 264.348 111.1 264.58 111.666C264.812 112.232 264.928 112.914 264.928 113.711V118.129C264.928 118.738 264.935 119.275 264.95 119.739C264.979 120.189 265.022 120.631 265.08 121.066H262.404C262.346 120.747 262.309 120.508 262.295 120.348C262.295 120.174 262.295 119.92 262.295 119.587C261.976 120.051 261.49 120.457 260.837 120.805C260.199 121.153 259.379 121.328 258.378 121.328ZM259.27 119.108C259.618 119.108 259.959 119.064 260.293 118.977C260.627 118.876 260.924 118.731 261.185 118.542C261.446 118.339 261.657 118.085 261.816 117.781C261.976 117.476 262.056 117.121 262.056 116.714V116.17H259.161C258.61 116.17 258.175 116.301 257.856 116.562C257.551 116.809 257.399 117.15 257.399 117.585C257.399 118.049 257.558 118.419 257.878 118.695C258.197 118.97 258.661 119.108 259.27 119.108ZM269.763 116.736C268.878 116.446 268.232 116.011 267.826 115.43C267.42 114.85 267.217 114.168 267.217 113.385C267.217 112.819 267.311 112.304 267.5 111.84C267.703 111.361 268 110.955 268.392 110.621C268.784 110.273 269.277 110.005 269.872 109.816C270.481 109.628 271.192 109.533 272.004 109.533H277.444V121.066H274.572V117.084H272.505L270.002 121.066H266.782L269.763 116.736ZM270.089 113.385C270.089 113.878 270.249 114.241 270.568 114.473C270.902 114.705 271.344 114.821 271.895 114.821H274.572V111.927H271.895C271.344 111.927 270.902 112.05 270.568 112.297C270.249 112.529 270.089 112.892 270.089 113.385ZM292.308 116.823C291.975 117.026 291.576 117.208 291.112 117.367C290.647 117.527 290.082 117.607 289.414 117.607C288.007 117.607 286.948 117.273 286.237 116.606C285.526 115.938 285.171 114.886 285.171 113.45V109.533H288.043V113.124C288.043 113.878 288.203 114.408 288.522 114.712C288.841 115.017 289.392 115.169 290.176 115.169C290.727 115.169 291.177 115.104 291.525 114.974C291.888 114.843 292.149 114.72 292.308 114.604V109.533H295.181V121.066H292.308V116.823ZM301.261 121.328C300.637 121.328 300.086 121.24 299.607 121.066C299.129 120.878 298.723 120.624 298.389 120.305C298.055 119.971 297.801 119.587 297.627 119.151C297.453 118.702 297.366 118.216 297.366 117.694C297.366 115.372 298.744 114.212 301.501 114.212H304.939V113.668C304.939 112.914 304.765 112.384 304.416 112.079C304.083 111.775 303.546 111.622 302.806 111.622C302.153 111.622 301.682 111.738 301.392 111.971C301.102 112.188 300.935 112.464 300.891 112.797H298.019C298.048 112.304 298.171 111.84 298.389 111.405C298.621 110.97 298.94 110.6 299.346 110.295C299.767 109.976 300.275 109.729 300.87 109.555C301.464 109.367 302.146 109.272 302.915 109.272C303.655 109.272 304.322 109.352 304.917 109.512C305.526 109.671 306.041 109.932 306.462 110.295C306.897 110.643 307.231 111.1 307.463 111.666C307.695 112.232 307.811 112.914 307.811 113.711V118.129C307.811 118.738 307.818 119.275 307.833 119.739C307.862 120.189 307.905 120.631 307.963 121.066H305.287C305.229 120.747 305.193 120.508 305.178 120.348C305.178 120.174 305.178 119.92 305.178 119.587C304.859 120.051 304.373 120.457 303.72 120.805C303.082 121.153 302.262 121.328 301.261 121.328ZM302.153 119.108C302.502 119.108 302.842 119.064 303.176 118.977C303.51 118.876 303.807 118.731 304.068 118.542C304.329 118.339 304.54 118.085 304.699 117.781C304.859 117.476 304.939 117.121 304.939 116.714V116.17H302.045C301.493 116.17 301.058 116.301 300.739 116.562C300.434 116.809 300.282 117.15 300.282 117.585C300.282 118.049 300.442 118.419 300.761 118.695C301.08 118.97 301.544 119.108 302.153 119.108ZM315.431 121.328C314.634 121.328 313.886 121.204 313.19 120.958C312.508 120.711 311.914 120.341 311.406 119.848C310.898 119.355 310.499 118.738 310.209 117.998C309.919 117.258 309.774 116.395 309.774 115.409V114.974C309.774 114.045 309.926 113.225 310.231 112.515C310.535 111.804 310.942 111.209 311.449 110.73C311.972 110.252 312.574 109.889 313.255 109.642C313.937 109.396 314.663 109.272 315.431 109.272C316.244 109.272 316.962 109.381 317.586 109.599C318.224 109.816 318.761 110.114 319.196 110.491C319.631 110.868 319.972 111.311 320.219 111.818C320.465 112.326 320.61 112.87 320.654 113.45H317.738C317.622 112.914 317.383 112.493 317.02 112.188C316.672 111.869 316.142 111.709 315.431 111.709C315.054 111.709 314.699 111.775 314.365 111.905C314.046 112.036 313.756 112.239 313.495 112.515C313.248 112.776 313.052 113.109 312.907 113.516C312.762 113.922 312.69 114.408 312.69 114.974V115.409C312.69 116.018 312.755 116.548 312.886 116.997C313.031 117.432 313.226 117.795 313.473 118.085C313.72 118.361 314.01 118.564 314.343 118.695C314.677 118.825 315.04 118.89 315.431 118.89C315.997 118.89 316.483 118.745 316.889 118.455C317.31 118.151 317.593 117.715 317.738 117.15H320.654C320.581 117.788 320.4 118.368 320.11 118.89C319.834 119.398 319.464 119.833 319 120.196C318.55 120.559 318.021 120.842 317.412 121.045C316.802 121.233 316.142 121.328 315.431 121.328ZM325.429 111.927H321.751V109.533H331.979V111.927H328.301V121.066H325.429V111.927ZM333.714 109.533H336.587V113.407H339.046C342.02 113.407 343.507 114.683 343.507 117.237C343.507 117.802 343.42 118.325 343.245 118.803C343.086 119.268 342.825 119.666 342.462 120C342.099 120.334 341.635 120.595 341.069 120.784C340.504 120.972 339.829 121.066 339.046 121.066H333.714V109.533ZM338.719 118.76C339.416 118.76 339.909 118.637 340.199 118.39C340.489 118.129 340.634 117.744 340.634 117.237C340.634 116.729 340.482 116.352 340.177 116.105C339.887 115.844 339.401 115.713 338.719 115.713H336.587V118.76H338.719Z" fill="black"/>
<path d="M443.589 121.328C443.429 121.328 443.269 121.32 443.11 121.306C442.965 121.291 442.834 121.277 442.718 121.262V118.673C442.834 118.687 442.965 118.702 443.11 118.716C443.269 118.716 443.429 118.716 443.589 118.716C443.908 118.716 444.162 118.687 444.35 118.629C444.553 118.571 444.72 118.484 444.851 118.368C444.981 118.238 445.097 118.078 445.199 117.889C445.3 117.686 445.416 117.447 445.547 117.171L439.345 105.834H442.871L447.136 113.994L450.53 105.834H453.925L448.768 117.585C448.463 118.267 448.151 118.847 447.832 119.326C447.527 119.79 447.179 120.174 446.787 120.479C446.396 120.769 445.939 120.979 445.416 121.11C444.909 121.255 444.299 121.328 443.589 121.328ZM458.943 121.328C457.275 121.328 456.006 120.987 455.135 120.305C454.265 119.623 453.793 118.644 453.721 117.367H456.637C456.666 117.614 456.724 117.831 456.811 118.02C456.898 118.209 457.028 118.368 457.202 118.499C457.377 118.629 457.601 118.731 457.877 118.803C458.167 118.861 458.523 118.89 458.943 118.89C459.785 118.89 460.379 118.767 460.728 118.52C461.076 118.259 461.25 117.947 461.25 117.585C461.25 117.15 461.105 116.823 460.815 116.606C460.525 116.388 460.01 116.279 459.27 116.279H457.529V114.147H459.117C459.669 114.147 460.089 114.031 460.379 113.798C460.67 113.566 460.815 113.262 460.815 112.885C460.815 112.551 460.67 112.275 460.379 112.058C460.104 111.826 459.625 111.709 458.943 111.709C458.232 111.709 457.717 111.833 457.398 112.079C457.094 112.311 456.912 112.66 456.854 113.124H453.938C454.011 111.876 454.468 110.926 455.309 110.273C456.151 109.606 457.362 109.272 458.943 109.272C459.785 109.272 460.503 109.352 461.098 109.512C461.707 109.671 462.207 109.903 462.599 110.208C462.991 110.498 463.274 110.854 463.448 111.274C463.636 111.68 463.731 112.137 463.731 112.645C463.731 113.196 463.585 113.69 463.295 114.125C463.02 114.56 462.577 114.879 461.968 115.082C462.795 115.285 463.368 115.619 463.687 116.083C464.006 116.533 464.166 117.07 464.166 117.694C464.166 118.216 464.057 118.702 463.839 119.151C463.636 119.587 463.317 119.971 462.882 120.305C462.461 120.624 461.924 120.878 461.272 121.066C460.619 121.24 459.843 121.328 458.943 121.328ZM466.34 121.328C466.224 121.328 466.079 121.32 465.905 121.306C465.731 121.306 465.586 121.291 465.47 121.262V118.673C465.542 118.687 465.651 118.695 465.796 118.695C466.072 118.695 466.311 118.615 466.514 118.455C466.717 118.281 466.884 117.991 467.015 117.585C467.16 117.179 467.261 116.642 467.319 115.974C467.392 115.293 467.428 114.451 467.428 113.45V109.533H476.567V121.066H473.695V111.927H470.083V113.885C470.083 115.38 470.003 116.613 469.844 117.585C469.698 118.542 469.466 119.297 469.147 119.848C468.843 120.399 468.451 120.784 467.972 121.001C467.508 121.219 466.964 121.328 466.34 121.328ZM484.395 121.328C483.612 121.328 482.865 121.211 482.154 120.979C481.458 120.733 480.848 120.363 480.326 119.87C479.804 119.376 479.39 118.76 479.086 118.02C478.781 117.28 478.629 116.41 478.629 115.409V114.974C478.629 114.031 478.781 113.204 479.086 112.493C479.39 111.782 479.804 111.187 480.326 110.708C480.848 110.23 481.458 109.874 482.154 109.642C482.865 109.396 483.612 109.272 484.395 109.272C485.179 109.272 485.918 109.396 486.615 109.642C487.311 109.874 487.92 110.23 488.443 110.708C488.979 111.187 489.4 111.782 489.705 112.493C490.009 113.204 490.162 114.031 490.162 114.974V115.409C490.162 116.395 490.009 117.258 489.705 117.998C489.4 118.738 488.979 119.355 488.443 119.848C487.92 120.341 487.311 120.711 486.615 120.958C485.918 121.204 485.179 121.328 484.395 121.328ZM484.395 118.89C485.208 118.89 485.882 118.6 486.419 118.02C486.97 117.44 487.246 116.569 487.246 115.409V114.974C487.246 113.915 486.97 113.109 486.419 112.558C485.882 111.992 485.208 111.709 484.395 111.709C483.568 111.709 482.887 111.992 482.35 112.558C481.813 113.109 481.545 113.915 481.545 114.974V115.409C481.545 116.584 481.813 117.461 482.35 118.042C482.887 118.607 483.568 118.89 484.395 118.89ZM492.22 109.533H498.009C498.749 109.533 499.38 109.613 499.902 109.773C500.439 109.918 500.881 110.128 501.229 110.404C501.577 110.679 501.831 111.006 501.991 111.383C502.15 111.76 502.23 112.174 502.23 112.623C502.23 113.16 502.063 113.668 501.73 114.147C501.411 114.611 500.968 114.923 500.402 115.082C501.113 115.256 501.664 115.59 502.056 116.083C502.462 116.562 502.665 117.128 502.665 117.781C502.665 118.782 502.317 119.579 501.621 120.174C500.925 120.769 499.866 121.066 498.444 121.066H492.22V109.533ZM497.878 118.76C498.531 118.76 499.01 118.666 499.314 118.477C499.633 118.274 499.793 117.955 499.793 117.519C499.793 117.084 499.641 116.772 499.336 116.584C499.046 116.381 498.56 116.279 497.878 116.279H495.093V118.76H497.878ZM497.595 114.147C498.263 114.147 498.72 114.052 498.966 113.864C499.227 113.675 499.358 113.385 499.358 112.993C499.358 112.616 499.227 112.333 498.966 112.145C498.705 111.942 498.248 111.84 497.595 111.84H495.093V114.147H497.595ZM508.197 121.328C507.573 121.328 507.022 121.24 506.543 121.066C506.064 120.878 505.658 120.624 505.324 120.305C504.991 119.971 504.737 119.587 504.563 119.151C504.389 118.702 504.302 118.216 504.302 117.694C504.302 115.372 505.68 114.212 508.436 114.212H511.874V113.668C511.874 112.914 511.7 112.384 511.352 112.079C511.018 111.775 510.482 111.622 509.742 111.622C509.089 111.622 508.617 111.738 508.327 111.971C508.037 112.188 507.87 112.464 507.827 112.797H504.955C504.984 112.304 505.107 111.84 505.324 111.405C505.557 110.97 505.876 110.6 506.282 110.295C506.703 109.976 507.21 109.729 507.805 109.555C508.4 109.367 509.082 109.272 509.851 109.272C510.59 109.272 511.258 109.352 511.853 109.512C512.462 109.671 512.977 109.932 513.398 110.295C513.833 110.643 514.166 111.1 514.398 111.666C514.631 112.232 514.747 112.914 514.747 113.711V118.129C514.747 118.738 514.754 119.275 514.768 119.739C514.797 120.189 514.841 120.631 514.899 121.066H512.222C512.164 120.747 512.128 120.508 512.114 120.348C512.114 120.174 512.114 119.92 512.114 119.587C511.795 120.051 511.309 120.457 510.656 120.805C510.017 121.153 509.198 121.328 508.197 121.328ZM509.089 119.108C509.437 119.108 509.778 119.064 510.112 118.977C510.445 118.876 510.743 118.731 511.004 118.542C511.265 118.339 511.475 118.085 511.635 117.781C511.795 117.476 511.874 117.121 511.874 116.714V116.17H508.98C508.429 116.17 507.994 116.301 507.675 116.562C507.37 116.809 507.218 117.15 507.218 117.585C507.218 118.049 507.377 118.419 507.696 118.695C508.015 118.97 508.48 119.108 509.089 119.108ZM519.582 116.736C518.697 116.446 518.051 116.011 517.645 115.43C517.239 114.85 517.036 114.168 517.036 113.385C517.036 112.819 517.13 112.304 517.319 111.84C517.522 111.361 517.819 110.955 518.211 110.621C518.603 110.273 519.096 110.005 519.691 109.816C520.3 109.628 521.011 109.533 521.823 109.533H527.263V121.066H524.391V117.084H522.324L519.821 121.066H516.601L519.582 116.736ZM519.908 113.385C519.908 113.878 520.068 114.241 520.387 114.473C520.721 114.705 521.163 114.821 521.714 114.821H524.391V111.927H521.714C521.163 111.927 520.721 112.05 520.387 112.297C520.068 112.529 519.908 112.892 519.908 113.385ZM542.127 116.823C541.793 117.026 541.395 117.208 540.93 117.367C540.466 117.527 539.9 117.607 539.233 117.607C537.826 117.607 536.767 117.273 536.056 116.606C535.345 115.938 534.99 114.886 534.99 113.45V109.533H537.862V113.124C537.862 113.878 538.022 114.408 538.341 114.712C538.66 115.017 539.211 115.169 539.995 115.169C540.546 115.169 540.996 115.104 541.344 114.974C541.706 114.843 541.968 114.72 542.127 114.604V109.533H545V121.066H542.127V116.823ZM551.08 121.328C550.456 121.328 549.905 121.24 549.426 121.066C548.947 120.878 548.541 120.624 548.208 120.305C547.874 119.971 547.62 119.587 547.446 119.151C547.272 118.702 547.185 118.216 547.185 117.694C547.185 115.372 548.563 114.212 551.319 114.212H554.757V113.668C554.757 112.914 554.583 112.384 554.235 112.079C553.902 111.775 553.365 111.622 552.625 111.622C551.972 111.622 551.501 111.738 551.211 111.971C550.92 112.188 550.754 112.464 550.71 112.797H547.838C547.867 112.304 547.99 111.84 548.208 111.405C548.44 110.97 548.759 110.6 549.165 110.295C549.586 109.976 550.094 109.729 550.688 109.555C551.283 109.367 551.965 109.272 552.734 109.272C553.474 109.272 554.141 109.352 554.736 109.512C555.345 109.671 555.86 109.932 556.281 110.295C556.716 110.643 557.05 111.1 557.282 111.666C557.514 112.232 557.63 112.914 557.63 113.711V118.129C557.63 118.738 557.637 119.275 557.652 119.739C557.681 120.189 557.724 120.631 557.782 121.066H555.106C555.048 120.747 555.011 120.508 554.997 120.348C554.997 120.174 554.997 119.92 554.997 119.587C554.678 120.051 554.192 120.457 553.539 120.805C552.901 121.153 552.081 121.328 551.08 121.328ZM551.972 119.108C552.32 119.108 552.661 119.064 552.995 118.977C553.329 118.876 553.626 118.731 553.887 118.542C554.148 118.339 554.359 118.085 554.518 117.781C554.678 117.476 554.757 117.121 554.757 116.714V116.17H551.863C551.312 116.17 550.877 116.301 550.558 116.562C550.253 116.809 550.101 117.15 550.101 117.585C550.101 118.049 550.26 118.419 550.58 118.695C550.899 118.97 551.363 119.108 551.972 119.108ZM565.25 121.328C564.452 121.328 563.705 121.204 563.009 120.958C562.327 120.711 561.732 120.341 561.225 119.848C560.717 119.355 560.318 118.738 560.028 117.998C559.738 117.258 559.593 116.395 559.593 115.409V114.974C559.593 114.045 559.745 113.225 560.05 112.515C560.354 111.804 560.76 111.209 561.268 110.73C561.79 110.252 562.392 109.889 563.074 109.642C563.756 109.396 564.481 109.272 565.25 109.272C566.063 109.272 566.781 109.381 567.405 109.599C568.043 109.816 568.58 110.114 569.015 110.491C569.45 110.868 569.791 111.311 570.038 111.818C570.284 112.326 570.429 112.87 570.473 113.45H567.557C567.441 112.914 567.201 112.493 566.839 112.188C566.491 111.869 565.961 111.709 565.25 111.709C564.873 111.709 564.518 111.775 564.184 111.905C563.865 112.036 563.575 112.239 563.314 112.515C563.067 112.776 562.871 113.109 562.726 113.516C562.581 113.922 562.508 114.408 562.508 114.974V115.409C562.508 116.018 562.574 116.548 562.704 116.997C562.849 117.432 563.045 117.795 563.292 118.085C563.538 118.361 563.829 118.564 564.162 118.695C564.496 118.825 564.859 118.89 565.25 118.89C565.816 118.89 566.302 118.745 566.708 118.455C567.129 118.151 567.412 117.715 567.557 117.15H570.473C570.4 117.788 570.219 118.368 569.929 118.89C569.653 119.398 569.283 119.833 568.819 120.196C568.369 120.559 567.84 120.842 567.23 121.045C566.621 121.233 565.961 121.328 565.25 121.328ZM575.248 111.927H571.57V109.533H581.797V111.927H578.12V121.066H575.248V111.927ZM583.533 109.533H586.406V113.407H588.864C591.838 113.407 593.325 114.683 593.325 117.237C593.325 117.802 593.238 118.325 593.064 118.803C592.905 119.268 592.643 119.666 592.281 120C591.918 120.334 591.454 120.595 590.888 120.784C590.322 120.972 589.648 121.066 588.864 121.066H583.533V109.533ZM588.538 118.76C589.234 118.76 589.728 118.637 590.018 118.39C590.308 118.129 590.453 117.744 590.453 117.237C590.453 116.729 590.301 116.352 589.996 116.105C589.706 115.844 589.22 115.713 588.538 115.713H586.406V118.76H588.538Z" fill="black"/>
<path d="M395.804 272.973H399.438V261.767L395.804 264.356V262.137L399.482 259.526H401.527V272.973H404.509V274.758H395.804V272.973ZM411.915 274.975C411.175 274.975 410.471 274.852 409.804 274.605C409.151 274.359 408.578 273.938 408.085 273.343C407.592 272.734 407.2 271.929 406.91 270.928C406.62 269.913 406.475 268.65 406.475 267.142V266.706C406.475 265.299 406.62 264.124 406.91 263.181C407.2 262.238 407.592 261.484 408.085 260.918C408.578 260.338 409.151 259.925 409.804 259.678C410.471 259.431 411.175 259.308 411.915 259.308C412.655 259.308 413.351 259.431 414.004 259.678C414.671 259.925 415.251 260.338 415.745 260.918C416.238 261.484 416.63 262.238 416.92 263.181C417.21 264.124 417.355 265.299 417.355 266.706V267.142C417.355 268.65 417.21 269.913 416.92 270.928C416.63 271.929 416.238 272.734 415.745 273.343C415.251 273.938 414.671 274.359 414.004 274.605C413.351 274.852 412.655 274.975 411.915 274.975ZM411.915 273.191C412.365 273.191 412.792 273.111 413.199 272.952C413.619 272.778 413.982 272.473 414.287 272.038C414.606 271.588 414.852 270.972 415.027 270.188C415.215 269.405 415.309 268.389 415.309 267.142V266.706C415.309 265.575 415.215 264.647 415.027 263.921C414.852 263.196 414.606 262.623 414.287 262.202C413.982 261.781 413.619 261.491 413.199 261.332C412.792 261.172 412.365 261.092 411.915 261.092C411.451 261.092 411.015 261.172 410.609 261.332C410.203 261.491 409.84 261.781 409.521 262.202C409.217 262.623 408.97 263.196 408.781 263.921C408.607 264.647 408.52 265.575 408.52 266.706V267.142C408.52 268.389 408.607 269.405 408.781 270.188C408.97 270.972 409.217 271.588 409.521 272.038C409.84 272.473 410.203 272.778 410.609 272.952C411.015 273.111 411.451 273.191 411.915 273.191ZM430.631 274.975C429.862 274.975 429.144 274.83 428.477 274.54C427.824 274.25 427.251 273.829 426.758 273.278C426.279 272.712 425.895 272.023 425.605 271.211C425.329 270.398 425.191 269.477 425.191 268.447V268.012C425.191 266.706 425.285 265.546 425.474 264.53C425.663 263.5 425.982 262.63 426.431 261.919C426.896 261.194 427.498 260.628 428.238 260.222C428.992 259.816 429.935 259.584 431.066 259.526C431.98 259.482 432.778 259.446 433.46 259.417C434.142 259.373 434.722 259.228 435.201 258.982V260.831C434.969 260.962 434.541 261.063 433.917 261.136C433.308 261.208 432.466 261.259 431.393 261.288C430.697 261.303 430.08 261.39 429.543 261.549C429.021 261.709 428.571 261.963 428.194 262.311C427.831 262.659 427.541 263.116 427.324 263.682C427.121 264.233 426.99 264.915 426.932 265.727C427.28 264.958 427.817 264.349 428.542 263.899C429.268 263.45 430.109 263.225 431.066 263.225C431.806 263.225 432.481 263.355 433.09 263.617C433.699 263.863 434.222 264.219 434.657 264.683C435.107 265.147 435.455 265.72 435.701 266.402C435.948 267.069 436.071 267.824 436.071 268.665V269.1C436.071 270 435.934 270.812 435.658 271.537C435.382 272.248 435.005 272.865 434.526 273.387C434.048 273.895 433.475 274.286 432.807 274.562C432.14 274.838 431.415 274.975 430.631 274.975ZM430.631 273.235C431.647 273.235 432.481 272.886 433.134 272.19C433.786 271.479 434.113 270.449 434.113 269.1V268.665C434.113 268.099 434.026 267.591 433.852 267.142C433.678 266.692 433.438 266.308 433.134 265.988C432.829 265.655 432.459 265.401 432.024 265.227C431.603 265.053 431.139 264.966 430.631 264.966C430.124 264.966 429.652 265.053 429.217 265.227C428.796 265.401 428.433 265.655 428.129 265.988C427.824 266.308 427.585 266.692 427.411 267.142C427.237 267.591 427.15 268.099 427.15 268.665V269.1C427.15 269.738 427.237 270.319 427.411 270.841C427.599 271.349 427.853 271.784 428.172 272.147C428.491 272.495 428.861 272.763 429.282 272.952C429.703 273.14 430.153 273.235 430.631 273.235ZM438.785 263.225H440.7V271.929L446.663 263.225H448.578V274.758H446.663V266.054L440.7 274.758H438.785V263.225ZM454.7 264.922H450.761V263.225H460.553V264.922H456.615V274.758H454.7V264.922ZM468.175 263.225H473.18C474.601 263.225 475.646 263.522 476.313 264.117C476.98 264.697 477.314 265.452 477.314 266.38C477.314 266.627 477.27 266.881 477.183 267.142C477.096 267.388 476.973 267.62 476.814 267.838C476.668 268.056 476.487 268.244 476.27 268.404C476.066 268.563 475.834 268.687 475.573 268.774C476.284 268.948 476.821 269.281 477.183 269.775C477.561 270.253 477.749 270.819 477.749 271.472C477.749 272.473 477.416 273.271 476.748 273.866C476.081 274.46 475.036 274.758 473.615 274.758H468.175V263.225ZM473.615 273.061C474.427 273.061 475 272.915 475.334 272.625C475.667 272.335 475.834 271.922 475.834 271.385C475.834 270.834 475.667 270.413 475.334 270.123C475 269.818 474.427 269.666 473.615 269.666H470.09V273.061H473.615ZM473.18 268.099C474.006 268.099 474.579 267.954 474.899 267.664C475.232 267.374 475.399 266.975 475.399 266.467C475.399 265.988 475.232 265.611 474.899 265.336C474.579 265.06 474.006 264.922 473.18 264.922H470.09V268.099H473.18ZM487.442 279.327C487.224 279.327 487.007 279.306 486.789 279.262V277.521C487.007 277.565 487.224 277.587 487.442 277.587C487.66 277.587 487.848 277.55 488.008 277.478C488.167 277.405 488.32 277.268 488.465 277.064C488.61 276.861 488.762 276.571 488.922 276.194C489.096 275.831 489.292 275.353 489.509 274.758L484.613 263.225H486.746L490.488 272.582L493.883 263.225H495.928L491.576 274.758C491.272 275.57 490.982 276.267 490.706 276.847C490.43 277.427 490.133 277.899 489.814 278.261C489.509 278.638 489.168 278.907 488.791 279.066C488.414 279.24 487.964 279.327 487.442 279.327ZM501.587 274.975C500.136 274.975 498.998 274.671 498.171 274.061C497.344 273.452 496.887 272.596 496.8 271.494H498.715C498.816 272.06 499.114 272.495 499.607 272.799C500.115 273.09 500.775 273.235 501.587 273.235C502.588 273.235 503.313 273.068 503.763 272.734C504.227 272.386 504.459 271.972 504.459 271.494C504.459 270.928 504.271 270.486 503.894 270.166C503.516 269.833 502.864 269.666 501.935 269.666H499.955V268.099H501.805C502.602 268.099 503.168 267.947 503.502 267.642C503.85 267.338 504.024 266.91 504.024 266.358C504.024 265.923 503.821 265.546 503.415 265.227C503.009 264.908 502.399 264.748 501.587 264.748C500.702 264.748 500.057 264.893 499.65 265.183C499.259 265.459 499.019 265.858 498.932 266.38H497.017C497.061 265.901 497.191 265.459 497.409 265.053C497.641 264.632 497.953 264.269 498.345 263.965C498.736 263.66 499.201 263.428 499.737 263.268C500.289 263.094 500.905 263.007 501.587 263.007C502.327 263.007 502.965 263.094 503.502 263.268C504.053 263.428 504.51 263.66 504.873 263.965C505.235 264.255 505.504 264.603 505.678 265.009C505.852 265.415 505.939 265.865 505.939 266.358C505.939 266.91 505.801 267.396 505.526 267.816C505.25 268.222 504.808 268.542 504.198 268.774C505.011 268.991 505.576 269.339 505.896 269.818C506.215 270.297 506.374 270.855 506.374 271.494C506.374 271.972 506.273 272.422 506.07 272.843C505.867 273.264 505.562 273.634 505.156 273.953C504.764 274.257 504.264 274.504 503.654 274.693C503.059 274.881 502.37 274.975 501.587 274.975ZM508.559 274.975C508.341 274.975 508.124 274.954 507.906 274.91V272.995C507.979 273.01 508.087 273.017 508.232 273.017C508.552 273.017 508.827 272.915 509.059 272.712C509.306 272.509 509.502 272.154 509.647 271.646C509.792 271.138 509.901 270.449 509.973 269.579C510.046 268.708 510.082 267.606 510.082 266.271V263.225H518.351V274.758H516.436V264.922H511.997V266.706C511.997 268.317 511.924 269.651 511.779 270.71C511.634 271.769 511.417 272.618 511.127 273.256C510.851 273.88 510.495 274.323 510.06 274.584C509.625 274.845 509.125 274.975 508.559 274.975ZM526.619 274.975C525.879 274.975 525.176 274.859 524.508 274.627C523.841 274.381 523.253 274.018 522.746 273.539C522.238 273.046 521.832 272.429 521.527 271.69C521.222 270.95 521.07 270.087 521.07 269.1V268.665C521.07 267.736 521.222 266.917 521.527 266.206C521.832 265.495 522.238 264.908 522.746 264.443C523.253 263.965 523.841 263.609 524.508 263.377C525.176 263.131 525.879 263.007 526.619 263.007C527.359 263.007 528.062 263.131 528.73 263.377C529.397 263.609 529.985 263.965 530.492 264.443C531 264.908 531.406 265.495 531.711 266.206C532.016 266.917 532.168 267.736 532.168 268.665V269.1C532.168 270.087 532.016 270.95 531.711 271.69C531.406 272.429 531 273.046 530.492 273.539C529.985 274.018 529.397 274.381 528.73 274.627C528.062 274.859 527.359 274.975 526.619 274.975ZM526.619 273.235C527.054 273.235 527.489 273.162 527.925 273.017C528.36 272.857 528.744 272.618 529.078 272.299C529.412 271.965 529.68 271.537 529.883 271.015C530.101 270.493 530.209 269.854 530.209 269.1V268.665C530.209 267.969 530.101 267.374 529.883 266.881C529.68 266.387 529.412 265.981 529.078 265.662C528.744 265.343 528.36 265.111 527.925 264.966C527.489 264.821 527.054 264.748 526.619 264.748C526.184 264.748 525.749 264.821 525.313 264.966C524.878 265.111 524.494 265.343 524.16 265.662C523.826 265.981 523.551 266.387 523.333 266.881C523.13 267.374 523.029 267.969 523.029 268.665V269.1C523.029 269.854 523.13 270.493 523.333 271.015C523.551 271.537 523.826 271.965 524.16 272.299C524.494 272.618 524.878 272.857 525.313 273.017C525.749 273.162 526.184 273.235 526.619 273.235ZM534.879 263.225H539.884C541.306 263.225 542.351 263.522 543.018 264.117C543.685 264.697 544.019 265.452 544.019 266.38C544.019 266.627 543.975 266.881 543.888 267.142C543.801 267.388 543.678 267.62 543.518 267.838C543.373 268.056 543.192 268.244 542.974 268.404C542.771 268.563 542.539 268.687 542.278 268.774C542.989 268.948 543.526 269.281 543.888 269.775C544.265 270.253 544.454 270.819 544.454 271.472C544.454 272.473 544.12 273.271 543.453 273.866C542.786 274.46 541.741 274.758 540.32 274.758H534.879V263.225ZM540.32 273.061C541.132 273.061 541.705 272.915 542.039 272.625C542.372 272.335 542.539 271.922 542.539 271.385C542.539 270.834 542.372 270.413 542.039 270.123C541.705 269.818 541.132 269.666 540.32 269.666H536.794V273.061H540.32ZM539.884 268.099C540.711 268.099 541.284 267.954 541.603 267.664C541.937 267.374 542.104 266.975 542.104 266.467C542.104 265.988 541.937 265.611 541.603 265.336C541.284 265.06 540.711 264.922 539.884 264.922H536.794V268.099H539.884ZM551.971 274.975C551.231 274.975 550.527 274.859 549.86 274.627C549.193 274.381 548.605 274.018 548.097 273.539C547.59 273.046 547.183 272.429 546.879 271.69C546.574 270.95 546.422 270.087 546.422 269.1V268.665C546.422 267.736 546.574 266.917 546.879 266.206C547.183 265.495 547.59 264.908 548.097 264.443C548.605 263.965 549.193 263.609 549.86 263.377C550.527 263.131 551.231 263.007 551.971 263.007C552.711 263.007 553.414 263.131 554.081 263.377C554.749 263.609 555.336 263.965 555.844 264.443C556.352 264.908 556.758 265.495 557.063 266.206C557.367 266.917 557.52 267.736 557.52 268.665V269.1C557.52 270.087 557.367 270.95 557.063 271.69C556.758 272.429 556.352 273.046 555.844 273.539C555.336 274.018 554.749 274.381 554.081 274.627C553.414 274.859 552.711 274.975 551.971 274.975ZM551.971 273.235C552.406 273.235 552.841 273.162 553.276 273.017C553.712 272.857 554.096 272.618 554.43 272.299C554.763 271.965 555.032 271.537 555.235 271.015C555.452 270.493 555.561 269.854 555.561 269.1V268.665C555.561 267.969 555.452 267.374 555.235 266.881C555.032 266.387 554.763 265.981 554.43 265.662C554.096 265.343 553.712 265.111 553.276 264.966C552.841 264.821 552.406 264.748 551.971 264.748C551.535 264.748 551.1 264.821 550.665 264.966C550.23 265.111 549.845 265.343 549.512 265.662C549.178 265.981 548.902 266.387 548.685 266.881C548.482 267.374 548.38 267.969 548.38 268.665V269.1C548.38 269.854 548.482 270.493 548.685 271.015C548.902 271.537 549.178 271.965 549.512 272.299C549.845 272.618 550.23 272.857 550.665 273.017C551.1 273.162 551.535 273.235 551.971 273.235ZM560.231 263.225H562.146V271.929L568.108 263.225H570.023V274.758H568.108V266.054L562.146 274.758H560.231V263.225ZM565.127 261.81C563.996 261.81 563.169 261.571 562.647 261.092C562.124 260.599 561.863 259.895 561.863 258.982H563.735C563.735 259.968 564.199 260.461 565.127 260.461C566.085 260.461 566.563 259.968 566.563 258.982H568.391C568.391 259.895 568.13 260.599 567.608 261.092C567.086 261.571 566.259 261.81 565.127 261.81ZM585.633 270.166C585.299 270.369 584.893 270.551 584.415 270.71C583.95 270.87 583.363 270.95 582.652 270.95C581.985 270.95 581.383 270.877 580.846 270.732C580.324 270.587 579.881 270.355 579.518 270.036C579.156 269.717 578.88 269.303 578.692 268.795C578.503 268.288 578.409 267.664 578.409 266.924V263.225H580.324V266.598C580.324 267.091 580.367 267.504 580.454 267.838C580.556 268.172 580.715 268.44 580.933 268.643C581.15 268.846 581.426 268.991 581.76 269.078C582.093 269.165 582.5 269.209 582.978 269.209C583.631 269.209 584.19 269.144 584.654 269.013C585.118 268.883 585.445 268.745 585.633 268.6V263.225H587.548V274.758H585.633V270.166ZM594.309 274.975C593.67 274.975 593.105 274.888 592.611 274.714C592.133 274.526 591.726 274.272 591.393 273.953C591.059 273.634 590.805 273.256 590.631 272.821C590.457 272.386 590.37 271.907 590.37 271.385C590.37 270.239 590.704 269.412 591.371 268.904C592.053 268.397 593.025 268.143 594.287 268.143H598.03V267.359C598.03 266.373 597.805 265.691 597.355 265.314C596.92 264.937 596.26 264.748 595.375 264.748C594.548 264.748 593.946 264.908 593.569 265.227C593.192 265.531 592.981 265.88 592.938 266.271H591.023C591.052 265.807 591.175 265.379 591.393 264.987C591.625 264.581 591.93 264.233 592.307 263.943C592.698 263.653 593.163 263.428 593.699 263.268C594.236 263.094 594.831 263.007 595.484 263.007C596.847 263.007 597.928 263.334 598.726 263.986C599.538 264.625 599.945 265.676 599.945 267.142V271.82C599.945 272.429 599.945 272.966 599.945 273.43C599.959 273.88 599.995 274.323 600.053 274.758H598.378C598.334 274.424 598.305 274.112 598.291 273.822C598.276 273.517 598.269 273.177 598.269 272.799C597.964 273.409 597.471 273.924 596.789 274.344C596.108 274.765 595.281 274.975 594.309 274.975ZM594.722 273.235C595.172 273.235 595.593 273.177 595.984 273.061C596.39 272.93 596.746 272.749 597.05 272.516C597.355 272.27 597.594 271.972 597.769 271.624C597.943 271.276 598.03 270.87 598.03 270.406V269.622H594.613C593.902 269.622 593.344 269.767 592.938 270.058C592.532 270.333 592.328 270.776 592.328 271.385C592.328 271.922 592.517 272.364 592.894 272.712C593.286 273.061 593.895 273.235 594.722 273.235ZM607.788 274.975C607.048 274.975 606.359 274.859 605.72 274.627C605.082 274.381 604.531 274.018 604.067 273.539C603.602 273.046 603.233 272.429 602.957 271.69C602.696 270.95 602.565 270.087 602.565 269.1V268.665C602.565 267.736 602.71 266.917 603 266.206C603.291 265.495 603.675 264.908 604.154 264.443C604.632 263.965 605.184 263.609 605.807 263.377C606.446 263.131 607.106 263.007 607.788 263.007C608.47 263.007 609.079 263.102 609.616 263.29C610.167 263.479 610.638 263.74 611.03 264.073C611.436 264.407 611.763 264.799 612.009 265.249C612.27 265.698 612.459 266.184 612.575 266.706H610.617C610.5 266.431 610.363 266.177 610.203 265.945C610.058 265.698 609.869 265.488 609.637 265.314C609.42 265.14 609.159 265.002 608.854 264.9C608.549 264.799 608.194 264.748 607.788 264.748C607.367 264.748 606.961 264.828 606.569 264.987C606.177 265.132 605.829 265.365 605.525 265.684C605.22 265.988 604.973 266.387 604.785 266.881C604.611 267.374 604.524 267.969 604.524 268.665V269.1C604.524 269.84 604.611 270.478 604.785 271.015C604.973 271.537 605.22 271.965 605.525 272.299C605.829 272.618 606.177 272.857 606.569 273.017C606.961 273.162 607.367 273.235 607.788 273.235C608.499 273.235 609.093 273.061 609.572 272.712C610.065 272.364 610.413 271.885 610.617 271.276H612.575C612.299 272.422 611.734 273.329 610.878 273.996C610.022 274.649 608.992 274.975 607.788 274.975ZM617.818 264.922H613.879V263.225H623.671V264.922H619.732V274.758H617.818V264.922ZM625.852 263.225H627.767V271.929L633.729 263.225H635.644V274.758H633.729V266.054L627.767 274.758H625.852V263.225ZM413.764 297.082L419.857 291.795C420.321 291.403 420.698 291.047 420.988 290.728C421.293 290.409 421.532 290.112 421.707 289.836C421.881 289.546 421.997 289.263 422.055 288.987C422.127 288.712 422.163 288.414 422.163 288.095C422.163 287.239 421.91 286.536 421.402 285.984C420.894 285.419 420.198 285.136 419.313 285.136C418.254 285.136 417.441 285.426 416.876 286.006C416.31 286.572 416.027 287.377 416.027 288.422H413.982C413.982 287.682 414.105 287 414.352 286.376C414.613 285.738 414.975 285.194 415.44 284.744C415.918 284.294 416.484 283.946 417.137 283.7C417.79 283.439 418.515 283.308 419.313 283.308C420.082 283.308 420.771 283.431 421.38 283.678C421.989 283.91 422.504 284.244 422.925 284.679C423.346 285.1 423.665 285.6 423.883 286.18C424.1 286.761 424.209 287.399 424.209 288.095C424.209 288.617 424.129 289.103 423.97 289.553C423.81 290.003 423.585 290.431 423.295 290.837C423.019 291.243 422.678 291.642 422.272 292.034C421.881 292.411 421.445 292.803 420.967 293.209L416.419 296.973H424.427V298.758H413.764V297.082ZM430.608 283.526H432.393L436.396 289.183H434.307L431.457 285.158L428.606 289.183H426.604L430.608 283.526ZM438.677 296.973H442.311V285.767L438.677 288.356V286.137L442.355 283.526H444.4V296.973H447.381V298.758H438.677V296.973ZM454.787 298.975C454.048 298.975 453.344 298.852 452.677 298.605C452.024 298.359 451.451 297.938 450.958 297.343C450.464 296.734 450.073 295.929 449.782 294.928C449.492 293.913 449.347 292.65 449.347 291.142V290.706C449.347 289.299 449.492 288.124 449.782 287.181C450.073 286.238 450.464 285.484 450.958 284.918C451.451 284.338 452.024 283.925 452.677 283.678C453.344 283.431 454.048 283.308 454.787 283.308C455.527 283.308 456.224 283.431 456.876 283.678C457.544 283.925 458.124 284.338 458.617 284.918C459.11 285.484 459.502 286.238 459.792 287.181C460.082 288.124 460.227 289.299 460.227 290.706V291.142C460.227 292.65 460.082 293.913 459.792 294.928C459.502 295.929 459.11 296.734 458.617 297.343C458.124 297.938 457.544 298.359 456.876 298.605C456.224 298.852 455.527 298.975 454.787 298.975ZM454.787 297.191C455.237 297.191 455.665 297.111 456.071 296.952C456.492 296.778 456.855 296.473 457.159 296.038C457.478 295.588 457.725 294.972 457.899 294.188C458.088 293.405 458.182 292.389 458.182 291.142V290.706C458.182 289.575 458.088 288.647 457.899 287.921C457.725 287.196 457.478 286.623 457.159 286.202C456.855 285.781 456.492 285.491 456.071 285.332C455.665 285.172 455.237 285.092 454.787 285.092C454.323 285.092 453.888 285.172 453.482 285.332C453.076 285.491 452.713 285.781 452.394 286.202C452.089 286.623 451.842 287.196 451.654 287.921C451.48 288.647 451.393 289.575 451.393 290.706V291.142C451.393 292.389 451.48 293.405 451.654 294.188C451.842 294.972 452.089 295.588 452.394 296.038C452.713 296.473 453.076 296.778 453.482 296.952C453.888 297.111 454.323 297.191 454.787 297.191ZM467.846 291.773H474.374V293.557H467.846V291.773ZM481.553 297.082L487.645 291.795C488.11 291.403 488.487 291.047 488.777 290.728C489.082 290.409 489.321 290.112 489.495 289.836C489.669 289.546 489.785 289.263 489.843 288.987C489.916 288.712 489.952 288.414 489.952 288.095C489.952 287.239 489.698 286.536 489.19 285.984C488.683 285.419 487.986 285.136 487.101 285.136C486.042 285.136 485.23 285.426 484.664 286.006C484.099 286.572 483.816 287.377 483.816 288.422H481.77C481.77 287.682 481.894 287 482.14 286.376C482.401 285.738 482.764 285.194 483.228 284.744C483.707 284.294 484.273 283.946 484.925 283.7C485.578 283.439 486.304 283.308 487.101 283.308C487.87 283.308 488.559 283.431 489.169 283.678C489.778 283.91 490.293 284.244 490.714 284.679C491.134 285.1 491.454 285.6 491.671 286.18C491.889 286.761 491.998 287.399 491.998 288.095C491.998 288.617 491.918 289.103 491.758 289.553C491.599 290.003 491.374 290.431 491.084 290.837C490.808 291.243 490.467 291.642 490.061 292.034C489.669 292.411 489.234 292.803 488.755 293.209L484.207 296.973H492.215V298.758H481.553V297.082ZM499.833 292.208H509.625V293.992H499.833V292.208ZM499.833 287.856H509.625V289.64H499.833V287.856ZM517.346 296.973H520.98V285.767L517.346 288.356V286.137L521.023 283.526H523.069V296.973H526.05V298.758H517.346V296.973ZM533.456 298.975C532.716 298.975 532.013 298.852 531.345 298.605C530.693 298.359 530.12 297.938 529.626 297.343C529.133 296.734 528.741 295.929 528.451 294.928C528.161 293.913 528.016 292.65 528.016 291.142V290.706C528.016 289.299 528.161 288.124 528.451 287.181C528.741 286.238 529.133 285.484 529.626 284.918C530.12 284.338 530.693 283.925 531.345 283.678C532.013 283.431 532.716 283.308 533.456 283.308C534.196 283.308 534.892 283.431 535.545 283.678C536.212 283.925 536.793 284.338 537.286 284.918C537.779 285.484 538.171 286.238 538.461 287.181C538.751 288.124 538.896 289.299 538.896 290.706V291.142C538.896 292.65 538.751 293.913 538.461 294.928C538.171 295.929 537.779 296.734 537.286 297.343C536.793 297.938 536.212 298.359 535.545 298.605C534.892 298.852 534.196 298.975 533.456 298.975ZM533.456 297.191C533.906 297.191 534.334 297.111 534.74 296.952C535.161 296.778 535.523 296.473 535.828 296.038C536.147 295.588 536.394 294.972 536.568 294.188C536.756 293.405 536.851 292.389 536.851 291.142V290.706C536.851 289.575 536.756 288.647 536.568 287.921C536.394 287.196 536.147 286.623 535.828 286.202C535.523 285.781 535.161 285.491 534.74 285.332C534.334 285.172 533.906 285.092 533.456 285.092C532.992 285.092 532.557 285.172 532.151 285.332C531.744 285.491 531.382 285.781 531.062 286.202C530.758 286.623 530.511 287.196 530.323 287.921C530.149 288.647 530.062 289.575 530.062 290.706V291.142C530.062 292.389 530.149 293.405 530.323 294.188C530.511 294.972 530.758 295.588 531.062 296.038C531.382 296.473 531.744 296.778 532.151 296.952C532.557 297.111 532.992 297.191 533.456 297.191ZM541.075 297.082L547.168 291.795C547.632 291.403 548.009 291.047 548.299 290.728C548.604 290.409 548.843 290.112 549.017 289.836C549.191 289.546 549.307 289.263 549.365 288.987C549.438 288.712 549.474 288.414 549.474 288.095C549.474 287.239 549.22 286.536 548.713 285.984C548.205 285.419 547.509 285.136 546.624 285.136C545.565 285.136 544.752 285.426 544.187 286.006C543.621 286.572 543.338 287.377 543.338 288.422H541.292C541.292 287.682 541.416 287 541.662 286.376C541.923 285.738 542.286 285.194 542.75 284.744C543.229 284.294 543.795 283.946 544.448 283.7C545.1 283.439 545.826 283.308 546.624 283.308C547.393 283.308 548.082 283.431 548.691 283.678C549.3 283.91 549.815 284.244 550.236 284.679C550.657 285.1 550.976 285.6 551.193 286.18C551.411 286.761 551.52 287.399 551.52 288.095C551.52 288.617 551.44 289.103 551.28 289.553C551.121 290.003 550.896 290.431 550.606 290.837C550.33 291.243 549.989 291.642 549.583 292.034C549.191 292.411 548.756 292.803 548.277 293.209L543.73 296.973H551.737V298.758H541.075V297.082ZM553.698 297.082L559.79 291.795C560.255 291.403 560.632 291.047 560.922 290.728C561.227 290.409 561.466 290.112 561.64 289.836C561.814 289.546 561.93 289.263 561.988 288.987C562.061 288.712 562.097 288.414 562.097 288.095C562.097 287.239 561.843 286.536 561.335 285.984C560.828 285.419 560.131 285.136 559.246 285.136C558.187 285.136 557.375 285.426 556.809 286.006C556.243 286.572 555.961 287.377 555.961 288.422H553.915C553.915 287.682 554.038 287 554.285 286.376C554.546 285.738 554.909 285.194 555.373 284.744C555.852 284.294 556.418 283.946 557.07 283.7C557.723 283.439 558.449 283.308 559.246 283.308C560.015 283.308 560.704 283.431 561.314 283.678C561.923 283.91 562.438 284.244 562.859 284.679C563.279 285.1 563.598 285.6 563.816 286.18C564.034 286.761 564.142 287.399 564.142 288.095C564.142 288.617 564.063 289.103 563.903 289.553C563.744 290.003 563.519 290.431 563.229 290.837C562.953 291.243 562.612 291.642 562.206 292.034C561.814 292.411 561.379 292.803 560.9 293.209L556.352 296.973H564.36V298.758H553.698V297.082ZM574.154 303.327C573.936 303.327 573.719 303.306 573.501 303.262V301.521C573.719 301.565 573.936 301.587 574.154 301.587C574.372 301.587 574.56 301.55 574.72 301.478C574.879 301.405 575.032 301.268 575.177 301.064C575.322 300.861 575.474 300.571 575.634 300.194C575.808 299.831 576.004 299.353 576.221 298.758L571.325 287.225H573.458L577.2 296.582L580.595 287.225H582.64L578.288 298.758C577.984 299.57 577.694 300.267 577.418 300.847C577.142 301.427 576.845 301.899 576.526 302.261C576.221 302.638 575.88 302.907 575.503 303.066C575.126 303.24 574.676 303.327 574.154 303.327ZM588.299 298.975C586.848 298.975 585.71 298.671 584.883 298.061C584.056 297.452 583.599 296.596 583.512 295.494H585.427C585.528 296.06 585.826 296.495 586.319 296.799C586.827 297.09 587.487 297.235 588.299 297.235C589.3 297.235 590.025 297.068 590.475 296.734C590.939 296.386 591.171 295.972 591.171 295.494C591.171 294.928 590.983 294.486 590.606 294.166C590.228 293.833 589.576 293.666 588.647 293.666H586.667V292.099H588.517C589.314 292.099 589.88 291.947 590.214 291.642C590.562 291.338 590.736 290.91 590.736 290.358C590.736 289.923 590.533 289.546 590.127 289.227C589.721 288.908 589.111 288.748 588.299 288.748C587.414 288.748 586.769 288.893 586.362 289.183C585.971 289.459 585.731 289.858 585.644 290.38H583.729C583.773 289.901 583.903 289.459 584.121 289.053C584.353 288.632 584.665 288.269 585.057 287.965C585.448 287.66 585.913 287.428 586.449 287.268C587.001 287.094 587.617 287.007 588.299 287.007C589.039 287.007 589.677 287.094 590.214 287.268C590.765 287.428 591.222 287.66 591.585 287.965C591.947 288.255 592.216 288.603 592.39 289.009C592.564 289.415 592.651 289.865 592.651 290.358C592.651 290.91 592.513 291.396 592.238 291.816C591.962 292.222 591.52 292.542 590.91 292.774C591.723 292.991 592.288 293.339 592.608 293.818C592.927 294.297 593.086 294.855 593.086 295.494C593.086 295.972 592.985 296.422 592.782 296.843C592.579 297.264 592.274 297.634 591.868 297.953C591.476 298.257 590.976 298.504 590.366 298.693C589.771 298.881 589.082 298.975 588.299 298.975ZM595.271 298.975C595.053 298.975 594.836 298.954 594.618 298.91V296.995C594.691 297.01 594.799 297.017 594.944 297.017C595.264 297.017 595.539 296.915 595.771 296.712C596.018 296.509 596.214 296.154 596.359 295.646C596.504 295.138 596.613 294.449 596.685 293.579C596.758 292.708 596.794 291.606 596.794 290.271V287.225H605.063V298.758H603.148V288.922H598.709V290.706C598.709 292.317 598.636 293.651 598.491 294.71C598.346 295.769 598.129 296.618 597.839 297.256C597.563 297.88 597.207 298.323 596.772 298.584C596.337 298.845 595.837 298.975 595.271 298.975ZM611.83 298.975C611.191 298.975 610.626 298.888 610.132 298.714C609.654 298.526 609.247 298.272 608.914 297.953C608.58 297.634 608.326 297.256 608.152 296.821C607.978 296.386 607.891 295.907 607.891 295.385C607.891 294.239 608.225 293.412 608.892 292.904C609.574 292.397 610.546 292.143 611.808 292.143H615.551V291.359C615.551 290.373 615.326 289.691 614.876 289.314C614.441 288.937 613.781 288.748 612.896 288.748C612.069 288.748 611.467 288.908 611.09 289.227C610.713 289.531 610.502 289.88 610.459 290.271H608.544C608.573 289.807 608.696 289.379 608.914 288.987C609.146 288.581 609.45 288.233 609.828 287.943C610.219 287.653 610.684 287.428 611.22 287.268C611.757 287.094 612.352 287.007 613.005 287.007C614.368 287.007 615.449 287.334 616.247 287.986C617.059 288.625 617.466 289.676 617.466 291.142V295.82C617.466 296.429 617.466 296.966 617.466 297.43C617.48 297.88 617.516 298.323 617.574 298.758H615.899C615.855 298.424 615.826 298.112 615.812 297.822C615.797 297.517 615.79 297.177 615.79 296.799C615.485 297.409 614.992 297.924 614.31 298.344C613.628 298.765 612.802 298.975 611.83 298.975ZM612.243 297.235C612.693 297.235 613.113 297.177 613.505 297.061C613.911 296.93 614.267 296.749 614.571 296.516C614.876 296.27 615.115 295.972 615.289 295.624C615.464 295.276 615.551 294.87 615.551 294.406V293.622H612.134C611.423 293.622 610.865 293.767 610.459 294.058C610.052 294.333 609.849 294.776 609.849 295.385C609.849 295.922 610.038 296.364 610.415 296.712C610.807 297.061 611.416 297.235 612.243 297.235Z" fill="black"/>
<path d="M616.147 194.347H619.563V182.901L616.082 185.339L615.233 184.098L620.02 180.682H621.239V194.347H624.59V195.914H616.147V194.347ZM629.129 195.914L635.788 182.249H627.932V180.682H637.551V182.096L630.914 195.914H629.129ZM650.359 184.533C650.359 185.868 649.728 187.355 648.466 188.994C647.204 190.634 645.441 192.418 643.178 194.347H650.838V195.914H641.176V194.347C641.452 194.086 641.829 193.745 642.308 193.325C642.786 192.904 643.301 192.44 643.853 191.932C644.404 191.41 644.962 190.851 645.528 190.256C646.108 189.662 646.631 189.052 647.095 188.429C647.559 187.805 647.936 187.181 648.226 186.557C648.517 185.933 648.662 185.331 648.662 184.751C648.662 183.881 648.429 183.199 647.965 182.706C647.516 182.198 646.834 181.944 645.92 181.944C645.136 181.944 644.476 182.031 643.94 182.205C643.403 182.379 642.917 182.633 642.482 182.967L641.742 181.77C642.395 181.306 643.084 180.965 643.809 180.747C644.549 180.529 645.354 180.421 646.224 180.421C647.588 180.421 648.618 180.791 649.314 181.53C650.011 182.27 650.359 183.271 650.359 184.533ZM657.597 194.717C657.597 194.253 657.727 193.898 657.988 193.651C658.249 193.39 658.598 193.259 659.033 193.259C659.497 193.259 659.86 193.39 660.121 193.651C660.382 193.898 660.512 194.253 660.512 194.717C660.512 195.138 660.382 195.486 660.121 195.762C659.86 196.037 659.497 196.175 659.033 196.175C658.598 196.175 658.249 196.037 657.988 195.762C657.727 195.486 657.597 195.138 657.597 194.717ZM668.338 194.347H671.754V182.901L668.272 185.339L667.424 184.098L672.211 180.682H673.43V194.347H676.781V195.914H668.338V194.347ZM690.351 191.323C690.351 191.946 690.235 192.548 690.003 193.129C689.785 193.709 689.459 194.224 689.023 194.674C688.588 195.123 688.051 195.486 687.413 195.762C686.775 196.037 686.035 196.175 685.193 196.175C684.41 196.175 683.699 196.052 683.061 195.805C682.423 195.559 681.871 195.21 681.407 194.761C680.943 194.297 680.58 193.731 680.319 193.063C680.073 192.396 679.949 191.649 679.949 190.822C679.949 189.458 680.145 188.167 680.537 186.949C680.943 185.73 681.501 184.657 682.212 183.728C682.938 182.8 683.794 182.045 684.78 181.465C685.781 180.885 686.876 180.537 688.066 180.421L688.37 181.813C687.457 181.929 686.615 182.198 685.846 182.618C685.092 183.039 684.432 183.561 683.866 184.185C683.3 184.809 682.836 185.498 682.473 186.252C682.125 187.007 681.9 187.776 681.799 188.559C681.915 188.37 682.082 188.175 682.299 187.972C682.531 187.768 682.8 187.594 683.104 187.449C683.424 187.29 683.772 187.159 684.149 187.058C684.541 186.956 684.961 186.905 685.411 186.905C686.18 186.905 686.869 187.014 687.478 187.232C688.088 187.435 688.603 187.732 689.023 188.124C689.459 188.501 689.785 188.965 690.003 189.517C690.235 190.053 690.351 190.655 690.351 191.323ZM688.566 191.497C688.566 190.481 688.283 189.705 687.718 189.168C687.152 188.632 686.281 188.363 685.106 188.363C684.686 188.363 684.294 188.414 683.931 188.516C683.569 188.617 683.242 188.755 682.952 188.929C682.662 189.089 682.408 189.277 682.191 189.495C681.973 189.712 681.806 189.93 681.69 190.148C681.661 190.351 681.647 190.51 681.647 190.626C681.647 190.742 681.647 190.88 681.647 191.04C681.647 191.475 681.719 191.917 681.864 192.367C682.009 192.802 682.227 193.194 682.517 193.542C682.822 193.89 683.199 194.173 683.648 194.391C684.098 194.608 684.628 194.717 685.237 194.717C685.73 194.717 686.18 194.63 686.586 194.456C686.992 194.282 687.34 194.05 687.631 193.76C687.935 193.47 688.167 193.129 688.327 192.737C688.487 192.345 688.566 191.932 688.566 191.497ZM696.74 194.717C696.74 194.253 696.87 193.898 697.131 193.651C697.393 193.39 697.741 193.259 698.176 193.259C698.64 193.259 699.003 193.39 699.264 193.651C699.525 193.898 699.656 194.253 699.656 194.717C699.656 195.138 699.525 195.486 699.264 195.762C699.003 196.037 698.64 196.175 698.176 196.175C697.741 196.175 697.393 196.037 697.131 195.762C696.87 195.486 696.74 195.138 696.74 194.717ZM705.914 188.298C705.914 187.065 706.023 185.962 706.24 184.99C706.458 184.004 706.785 183.177 707.22 182.51C707.655 181.828 708.206 181.313 708.873 180.965C709.541 180.602 710.331 180.421 711.245 180.421C712.217 180.421 713.037 180.595 713.704 180.943C714.386 181.291 714.937 181.799 715.358 182.466C715.779 183.133 716.083 183.96 716.272 184.947C716.461 185.919 716.555 187.036 716.555 188.298C716.555 189.531 716.446 190.641 716.228 191.627C716.011 192.599 715.684 193.426 715.249 194.108C714.814 194.775 714.263 195.29 713.595 195.653C712.928 196.001 712.138 196.175 711.224 196.175C710.266 196.175 709.447 195.987 708.765 195.609C708.097 195.218 707.546 194.674 707.111 193.977C706.69 193.281 706.386 192.454 706.197 191.497C706.008 190.525 705.914 189.458 705.914 188.298ZM714.771 188.298C714.771 187.529 714.727 186.796 714.64 186.1L708.177 191.997C708.424 192.824 708.794 193.484 709.287 193.977C709.78 194.471 710.426 194.717 711.224 194.717C712.5 194.717 713.407 194.188 713.944 193.129C714.495 192.07 714.771 190.459 714.771 188.298ZM707.72 188.298C707.72 188.661 707.727 189.009 707.742 189.342C707.771 189.676 707.8 190.003 707.829 190.322L714.314 184.446C714.067 183.663 713.697 183.039 713.204 182.575C712.725 182.111 712.072 181.879 711.245 181.879C709.954 181.879 709.04 182.415 708.504 183.489C707.981 184.548 707.72 186.151 707.72 188.298ZM722.835 194.717C722.835 194.253 722.966 193.898 723.227 193.651C723.488 193.39 723.836 193.259 724.271 193.259C724.736 193.259 725.098 193.39 725.359 193.651C725.62 193.898 725.751 194.253 725.751 194.717C725.751 195.138 725.62 195.486 725.359 195.762C725.098 196.037 724.736 196.175 724.271 196.175C723.836 196.175 723.488 196.037 723.227 195.762C722.966 195.486 722.835 195.138 722.835 194.717ZM732.01 188.298C732.01 187.065 732.118 185.962 732.336 184.99C732.554 184.004 732.88 183.177 733.315 182.51C733.75 181.828 734.302 181.313 734.969 180.965C735.636 180.602 736.427 180.421 737.341 180.421C738.313 180.421 739.132 180.595 739.8 180.943C740.482 181.291 741.033 181.799 741.453 182.466C741.874 183.133 742.179 183.96 742.367 184.947C742.556 185.919 742.65 187.036 742.65 188.298C742.65 189.531 742.542 190.641 742.324 191.627C742.106 192.599 741.78 193.426 741.345 194.108C740.909 194.775 740.358 195.29 739.691 195.653C739.024 196.001 738.233 196.175 737.319 196.175C736.362 196.175 735.542 195.987 734.86 195.609C734.193 195.218 733.642 194.674 733.206 193.977C732.786 193.281 732.481 192.454 732.292 191.497C732.104 190.525 732.01 189.458 732.01 188.298ZM740.866 188.298C740.866 187.529 740.822 186.796 740.735 186.1L734.273 191.997C734.519 192.824 734.889 193.484 735.382 193.977C735.876 194.471 736.521 194.717 737.319 194.717C738.596 194.717 739.502 194.188 740.039 193.129C740.59 192.07 740.866 190.459 740.866 188.298ZM733.816 188.298C733.816 188.661 733.823 189.009 733.837 189.342C733.866 189.676 733.895 190.003 733.924 190.322L740.409 184.446C740.162 183.663 739.792 183.039 739.299 182.575C738.82 182.111 738.168 181.879 737.341 181.879C736.05 181.879 735.136 182.415 734.599 183.489C734.077 184.548 733.816 186.151 733.816 188.298ZM753.674 180.421L755.045 181.03L747.103 198.961L745.732 198.351L753.674 180.421ZM767.788 184.533C767.788 185.868 767.157 187.355 765.895 188.994C764.633 190.634 762.87 192.418 760.607 194.347H768.267V195.914H758.605V194.347C758.881 194.086 759.258 193.745 759.737 193.325C760.216 192.904 760.731 192.44 761.282 191.932C761.833 191.41 762.392 190.851 762.957 190.256C763.538 189.662 764.06 189.052 764.524 188.429C764.988 187.805 765.366 187.181 765.656 186.557C765.946 185.933 766.091 185.331 766.091 184.751C766.091 183.881 765.859 183.199 765.395 182.706C764.945 182.198 764.263 181.944 763.349 181.944C762.566 181.944 761.906 182.031 761.369 182.205C760.832 182.379 760.346 182.633 759.911 182.967L759.171 181.77C759.824 181.306 760.513 180.965 761.238 180.747C761.978 180.529 762.783 180.421 763.654 180.421C765.017 180.421 766.047 180.791 766.744 181.53C767.44 182.27 767.788 183.271 767.788 184.533ZM780.836 184.533C780.836 185.868 780.205 187.355 778.943 188.994C777.681 190.634 775.918 192.418 773.655 194.347H781.315V195.914H771.653V194.347C771.929 194.086 772.306 193.745 772.785 193.325C773.263 192.904 773.778 192.44 774.33 191.932C774.881 191.41 775.439 190.851 776.005 190.256C776.585 189.662 777.108 189.052 777.572 188.429C778.036 187.805 778.413 187.181 778.703 186.557C778.994 185.933 779.139 185.331 779.139 184.751C779.139 183.881 778.907 183.199 778.442 182.706C777.993 182.198 777.311 181.944 776.397 181.944C775.614 181.944 774.953 182.031 774.417 182.205C773.88 182.379 773.394 182.633 772.959 182.967L772.219 181.77C772.872 181.306 773.561 180.965 774.286 180.747C775.026 180.529 775.831 180.421 776.702 180.421C778.065 180.421 779.095 180.791 779.791 181.53C780.488 182.27 780.836 183.271 780.836 184.533Z" fill="black"/>
</svg>
