<svg width="1921" height="1050" viewBox="0 0 1921 1050" fill="none" xmlns="http://www.w3.org/2000/svg">
<g style="mix-blend-mode:multiply">
<circle cx="960.331" cy="525.082" r="139.323" fill="#FAF7F0"/>
<circle cx="960.331" cy="525.082" r="139.323" stroke="black"/>
</g>
<g style="mix-blend-mode:multiply">
<circle cx="960.331" cy="525.082" r="289.425" fill="#FAF7F0"/>
<circle cx="960.331" cy="525.082" r="289.425" stroke="black"/>
</g>
<g style="mix-blend-mode:multiply">
<circle cx="960.332" cy="525.082" r="424.082" fill="#FAF7F0"/>
<circle cx="960.332" cy="525.082" r="424.082" stroke="black"/>
</g>
<path d="M910.328 151.672H913.592V161.791L920.229 151.672H923.384V166.904H920.12V156.786L913.462 166.904H910.328V151.672ZM926.426 155.371H929.298V159.832H934.216V155.371H937.088V166.904H934.216V162.226H929.298V166.904H926.426V155.371ZM942.514 157.765H938.837V155.371H949.064V157.765H945.387V166.904H942.514V157.765ZM955.81 167.165C955.027 167.165 954.279 167.049 953.569 166.817C952.872 166.571 952.263 166.208 951.741 165.729C951.219 165.236 950.805 164.619 950.5 163.88C950.196 163.125 950.043 162.248 950.043 161.247V160.811C950.043 159.854 950.189 159.02 950.479 158.309C950.769 157.598 951.168 157.011 951.675 156.546C952.183 156.068 952.771 155.712 953.438 155.48C954.105 155.233 954.823 155.11 955.592 155.11C957.406 155.11 958.784 155.589 959.727 156.546C960.67 157.504 961.141 158.889 961.141 160.703V161.921H952.981C952.996 162.429 953.083 162.871 953.242 163.249C953.402 163.611 953.612 163.909 953.873 164.141C954.134 164.373 954.432 164.547 954.765 164.663C955.114 164.765 955.462 164.815 955.81 164.815C956.55 164.815 957.108 164.707 957.486 164.489C957.863 164.271 958.131 163.952 958.291 163.531H960.924C960.692 164.736 960.119 165.642 959.205 166.251C958.291 166.861 957.159 167.165 955.81 167.165ZM955.701 157.46C955.368 157.46 955.034 157.504 954.7 157.591C954.381 157.678 954.098 157.816 953.852 158.004C953.605 158.193 953.402 158.447 953.242 158.766C953.083 159.085 952.996 159.47 952.981 159.919H958.356C958.341 159.44 958.262 159.042 958.117 158.722C957.986 158.403 957.797 158.149 957.551 157.961C957.319 157.772 957.043 157.642 956.724 157.569C956.405 157.497 956.064 157.46 955.701 157.46ZM963.21 155.371H965.887V157.069C966.177 156.546 966.634 156.089 967.258 155.698C967.881 155.306 968.672 155.11 969.629 155.11C971.167 155.11 972.364 155.589 973.22 156.546C974.09 157.489 974.526 158.911 974.526 160.811V161.247C974.526 163.234 974.083 164.721 973.198 165.707C972.328 166.679 971.138 167.165 969.629 167.165C968.846 167.165 968.15 166.999 967.54 166.665C966.946 166.317 966.46 165.867 966.083 165.316V171.256H963.21V155.371ZM968.955 164.728C969.709 164.728 970.34 164.445 970.848 163.88C971.356 163.299 971.61 162.422 971.61 161.247V160.811C971.61 159.723 971.363 158.911 970.87 158.374C970.377 157.823 969.738 157.547 968.955 157.547C968.128 157.547 967.439 157.787 966.888 158.265C966.351 158.73 966.083 159.433 966.083 160.376V161.682C966.083 162.712 966.344 163.481 966.866 163.988C967.403 164.482 968.099 164.728 968.955 164.728ZM976.598 155.371H979.47V159.832H984.388V155.371H987.26V166.904H984.388V162.226H979.47V166.904H976.598V155.371ZM995.102 167.165C994.318 167.165 993.571 167.049 992.861 166.817C992.164 166.571 991.555 166.208 991.033 165.729C990.51 165.236 990.097 164.619 989.792 163.88C989.488 163.125 989.335 162.248 989.335 161.247V160.811C989.335 159.854 989.48 159.02 989.771 158.309C990.061 157.598 990.46 157.011 990.967 156.546C991.475 156.068 992.063 155.712 992.73 155.48C993.397 155.233 994.115 155.11 994.884 155.11C996.698 155.11 998.076 155.589 999.019 156.546C999.962 157.504 1000.43 158.889 1000.43 160.703V161.921H992.273C992.287 162.429 992.375 162.871 992.534 163.249C992.694 163.611 992.904 163.909 993.165 164.141C993.426 164.373 993.724 164.547 994.057 164.663C994.406 164.765 994.754 164.815 995.102 164.815C995.842 164.815 996.4 164.707 996.777 164.489C997.155 164.271 997.423 163.952 997.583 163.531H1000.22C999.983 164.736 999.41 165.642 998.496 166.251C997.583 166.861 996.451 167.165 995.102 167.165ZM994.993 157.46C994.659 157.46 994.326 157.504 993.992 157.591C993.673 157.678 993.39 157.816 993.143 158.004C992.897 158.193 992.694 158.447 992.534 158.766C992.375 159.085 992.287 159.47 992.273 159.919H997.648C997.633 159.44 997.554 159.042 997.408 158.722C997.278 158.403 997.089 158.149 996.843 157.961C996.611 157.772 996.335 157.642 996.016 157.569C995.697 157.497 995.356 157.46 994.993 157.46ZM1005.1 157.765H1001.42V155.371H1011.65V157.765H1007.97V166.904H1005.1V157.765ZM912.506 175.672H919.035C920.746 175.672 922.008 176.035 922.821 176.76C923.633 177.471 924.039 178.465 924.039 179.741C924.039 180.525 923.844 181.199 923.452 181.765C923.075 182.316 922.552 182.715 921.885 182.962C922.756 183.165 923.437 183.578 923.931 184.202C924.438 184.811 924.692 185.609 924.692 186.596C924.692 187.249 924.591 187.843 924.388 188.38C924.184 188.902 923.865 189.352 923.43 189.729C923.009 190.106 922.458 190.397 921.776 190.6C921.095 190.803 920.275 190.904 919.317 190.904H912.506V175.672ZM918.73 188.424C919.745 188.424 920.449 188.25 920.841 187.901C921.232 187.553 921.428 187.038 921.428 186.356C921.428 185.675 921.232 185.145 920.841 184.768C920.449 184.376 919.738 184.18 918.708 184.18H915.77V188.424H918.73ZM918.382 181.961C919.267 181.961 919.883 181.787 920.231 181.439C920.594 181.09 920.775 180.619 920.775 180.024C920.775 179.415 920.601 178.951 920.253 178.631C919.905 178.312 919.288 178.153 918.403 178.153H915.77V181.961H918.382ZM932.084 191.165C931.301 191.165 930.553 191.049 929.843 190.817C929.146 190.571 928.537 190.208 928.015 189.729C927.493 189.236 927.079 188.619 926.774 187.88C926.47 187.125 926.317 186.248 926.317 185.247V184.811C926.317 183.854 926.463 183.02 926.753 182.309C927.043 181.598 927.442 181.011 927.949 180.546C928.457 180.068 929.045 179.712 929.712 179.48C930.379 179.233 931.097 179.11 931.866 179.11C933.68 179.11 935.058 179.589 936.001 180.546C936.944 181.504 937.415 182.889 937.415 184.703V185.921H929.255C929.27 186.429 929.357 186.871 929.516 187.249C929.676 187.611 929.886 187.909 930.147 188.141C930.408 188.373 930.706 188.547 931.039 188.663C931.388 188.765 931.736 188.815 932.084 188.815C932.824 188.815 933.382 188.707 933.759 188.489C934.137 188.271 934.405 187.952 934.565 187.531H937.198C936.966 188.736 936.393 189.642 935.479 190.251C934.565 190.861 933.433 191.165 932.084 191.165ZM931.975 181.46C931.641 181.46 931.308 181.504 930.974 181.591C930.655 181.678 930.372 181.816 930.126 182.004C929.879 182.193 929.676 182.447 929.516 182.766C929.357 183.085 929.27 183.47 929.255 183.919H934.63C934.615 183.44 934.536 183.042 934.391 182.722C934.26 182.403 934.071 182.149 933.825 181.961C933.593 181.772 933.317 181.642 932.998 181.569C932.679 181.497 932.338 181.46 931.975 181.46ZM944.598 191.165C943.8 191.165 943.053 191.042 942.357 190.795C941.675 190.549 941.08 190.179 940.572 189.686C940.064 189.192 939.666 188.576 939.375 187.836C939.085 187.096 938.94 186.233 938.94 185.247V184.811C938.94 183.883 939.092 183.063 939.397 182.352C939.702 181.642 940.108 181.047 940.616 180.568C941.138 180.089 941.74 179.727 942.422 179.48C943.104 179.233 943.829 179.11 944.598 179.11C945.41 179.11 946.128 179.219 946.752 179.437C947.39 179.654 947.927 179.952 948.362 180.329C948.798 180.706 949.139 181.148 949.385 181.656C949.632 182.164 949.777 182.708 949.82 183.288H946.904C946.788 182.751 946.549 182.331 946.186 182.026C945.838 181.707 945.309 181.547 944.598 181.547C944.221 181.547 943.865 181.613 943.532 181.743C943.212 181.874 942.922 182.077 942.661 182.352C942.415 182.614 942.219 182.947 942.074 183.353C941.929 183.76 941.856 184.246 941.856 184.811V185.247C941.856 185.856 941.921 186.385 942.052 186.835C942.197 187.27 942.393 187.633 942.639 187.923C942.886 188.199 943.176 188.402 943.51 188.532C943.843 188.663 944.206 188.728 944.598 188.728C945.164 188.728 945.65 188.583 946.056 188.293C946.476 187.988 946.759 187.553 946.904 186.987H949.82C949.748 187.626 949.566 188.206 949.276 188.728C949.001 189.236 948.631 189.671 948.167 190.034C947.717 190.397 947.187 190.679 946.578 190.883C945.969 191.071 945.309 191.165 944.598 191.165ZM951.788 179.371H954.66V183.245H957.119C960.093 183.245 961.58 184.521 961.58 187.074C961.58 187.64 961.493 188.162 961.319 188.641C961.16 189.105 960.898 189.504 960.536 189.838C960.173 190.172 959.709 190.433 959.143 190.621C958.577 190.81 957.903 190.904 957.119 190.904H951.788V179.371ZM956.793 188.598C957.489 188.598 957.983 188.474 958.273 188.228C958.563 187.967 958.708 187.582 958.708 187.074C958.708 186.567 958.556 186.19 958.251 185.943C957.961 185.682 957.475 185.551 956.793 185.551H954.66V188.598H956.793ZM968.873 179.371H972.268L975.467 185.595L978.666 179.371H981.93V190.904H979.188V183.397L976.381 188.619H974.422L971.615 183.397V190.904H968.873V179.371ZM984.535 179.371H987.407V186.77L992.543 179.371H995.197V190.904H992.325V183.506L987.19 190.904H984.535V179.371ZM997.816 179.371H1000.49V181.069C1000.78 180.546 1001.24 180.089 1001.86 179.698C1002.49 179.306 1003.28 179.11 1004.24 179.11C1005.77 179.11 1006.97 179.589 1007.83 180.546C1008.7 181.489 1009.13 182.911 1009.13 184.811V185.247C1009.13 187.234 1008.69 188.721 1007.8 189.707C1006.93 190.679 1005.74 191.165 1004.24 191.165C1003.45 191.165 1002.76 190.999 1002.15 190.665C1001.55 190.317 1001.07 189.867 1000.69 189.316V195.256H997.816V179.371ZM1003.56 188.728C1004.32 188.728 1004.95 188.445 1005.45 187.88C1005.96 187.299 1006.22 186.422 1006.22 185.247V184.811C1006.22 183.723 1005.97 182.911 1005.48 182.374C1004.98 181.823 1004.34 181.547 1003.56 181.547C1002.73 181.547 1002.05 181.787 1001.49 182.265C1000.96 182.73 1000.69 183.433 1000.69 184.376V185.682C1000.69 186.712 1000.95 187.481 1001.47 187.988C1002.01 188.482 1002.71 188.728 1003.56 188.728Z" fill="black"/>
<path d="M906.618 298.756C905.748 298.756 904.936 298.662 904.181 298.473C903.427 298.285 902.767 297.98 902.201 297.559C901.635 297.139 901.178 296.595 900.83 295.927C900.482 295.26 900.272 294.448 900.199 293.49H903.594C903.71 294.317 904.036 294.948 904.573 295.383C905.11 295.804 905.791 296.014 906.618 296.014C907.025 296.014 907.416 295.949 907.793 295.819C908.171 295.674 908.511 295.449 908.816 295.144C909.135 294.825 909.396 294.411 909.6 293.904C909.817 293.396 909.962 292.772 910.035 292.032H904.769V289.465H910.013C909.868 288.13 909.483 287.18 908.86 286.614C908.25 286.034 907.503 285.744 906.618 285.744C905.835 285.744 905.175 285.947 904.638 286.353C904.101 286.759 903.753 287.397 903.594 288.268H900.199C900.257 287.354 900.46 286.563 900.808 285.896C901.171 285.229 901.635 284.685 902.201 284.264C902.781 283.829 903.449 283.509 904.203 283.306C904.957 283.103 905.762 283.002 906.618 283.002C907.59 283.002 908.49 283.154 909.317 283.459C910.158 283.749 910.883 284.206 911.493 284.83C912.116 285.439 912.602 286.222 912.951 287.18C913.299 288.123 913.473 289.247 913.473 290.553V290.988C913.473 292.38 913.292 293.57 912.929 294.556C912.581 295.543 912.095 296.348 911.471 296.972C910.862 297.581 910.136 298.031 909.295 298.321C908.468 298.611 907.576 298.756 906.618 298.756ZM915.871 286.962H918.743V291.488H919.831L923.356 286.962H926.533L922.181 292.424L926.751 298.495H923.313L919.831 293.751H918.743V298.495H915.871V286.962ZM933.076 298.756C932.278 298.756 931.531 298.633 930.835 298.386C930.153 298.14 929.558 297.77 929.05 297.277C928.542 296.783 928.144 296.167 927.853 295.427C927.563 294.687 927.418 293.824 927.418 292.837V292.402C927.418 291.474 927.57 290.654 927.875 289.943C928.18 289.232 928.586 288.638 929.094 288.159C929.616 287.68 930.218 287.318 930.9 287.071C931.582 286.824 932.307 286.701 933.076 286.701C933.888 286.701 934.606 286.81 935.23 287.027C935.868 287.245 936.405 287.542 936.84 287.92C937.276 288.297 937.617 288.739 937.863 289.247C938.11 289.755 938.255 290.299 938.298 290.879H935.382C935.266 290.342 935.027 289.922 934.664 289.617C934.316 289.298 933.787 289.138 933.076 289.138C932.699 289.138 932.343 289.203 932.01 289.334C931.69 289.465 931.4 289.668 931.139 289.943C930.893 290.204 930.697 290.538 930.552 290.944C930.407 291.35 930.334 291.836 930.334 292.402V292.837C930.334 293.447 930.399 293.976 930.53 294.426C930.675 294.861 930.871 295.224 931.117 295.514C931.364 295.79 931.654 295.993 931.988 296.123C932.321 296.254 932.684 296.319 933.076 296.319C933.642 296.319 934.128 296.174 934.534 295.884C934.955 295.579 935.237 295.144 935.382 294.578H938.298C938.226 295.217 938.044 295.797 937.754 296.319C937.479 296.827 937.109 297.262 936.645 297.625C936.195 297.987 935.665 298.27 935.056 298.473C934.447 298.662 933.787 298.756 933.076 298.756ZM943.073 289.356H939.396V286.962H949.623V289.356H945.946V298.495H943.073V289.356ZM951.359 286.962H954.035V288.659C954.325 288.137 954.782 287.68 955.406 287.289C956.03 286.897 956.821 286.701 957.778 286.701C959.316 286.701 960.513 287.18 961.369 288.137C962.239 289.08 962.674 290.502 962.674 292.402V292.837C962.674 294.825 962.232 296.312 961.347 297.298C960.476 298.27 959.287 298.756 957.778 298.756C956.995 298.756 956.298 298.589 955.689 298.256C955.094 297.908 954.608 297.458 954.231 296.907V302.847H951.359V286.962ZM957.104 296.319C957.858 296.319 958.489 296.036 958.997 295.47C959.504 294.89 959.758 294.012 959.758 292.837V292.402C959.758 291.314 959.512 290.502 959.018 289.965C958.525 289.414 957.887 289.138 957.104 289.138C956.277 289.138 955.588 289.378 955.036 289.856C954.5 290.32 954.231 291.024 954.231 291.967V293.273C954.231 294.303 954.492 295.071 955.015 295.579C955.551 296.072 956.248 296.319 957.104 296.319ZM968.206 298.756C967.583 298.756 967.031 298.669 966.553 298.495C966.074 298.307 965.668 298.053 965.334 297.734C965 297.4 964.747 297.015 964.572 296.58C964.398 296.13 964.311 295.645 964.311 295.122C964.311 292.801 965.689 291.641 968.446 291.641H971.884V291.097C971.884 290.342 971.71 289.813 971.362 289.508C971.028 289.203 970.491 289.051 969.751 289.051C969.099 289.051 968.627 289.167 968.337 289.399C968.047 289.617 967.88 289.893 967.836 290.226H964.964C964.993 289.733 965.116 289.269 965.334 288.834C965.566 288.398 965.885 288.028 966.292 287.724C966.712 287.405 967.22 287.158 967.815 286.984C968.41 286.795 969.091 286.701 969.86 286.701C970.6 286.701 971.267 286.781 971.862 286.94C972.471 287.1 972.986 287.361 973.407 287.724C973.842 288.072 974.176 288.529 974.408 289.095C974.64 289.66 974.756 290.342 974.756 291.14V295.557C974.756 296.167 974.764 296.704 974.778 297.168C974.807 297.617 974.851 298.06 974.909 298.495H972.232C972.174 298.176 972.138 297.937 972.123 297.777C972.123 297.603 972.123 297.349 972.123 297.015C971.804 297.48 971.318 297.886 970.665 298.234C970.027 298.582 969.207 298.756 968.206 298.756ZM969.099 296.537C969.447 296.537 969.788 296.493 970.121 296.406C970.455 296.305 970.752 296.16 971.014 295.971C971.275 295.768 971.485 295.514 971.645 295.209C971.804 294.905 971.884 294.549 971.884 294.143V293.599H968.99C968.439 293.599 968.003 293.73 967.684 293.991C967.38 294.237 967.227 294.578 967.227 295.013C967.227 295.478 967.387 295.848 967.706 296.123C968.025 296.399 968.489 296.537 969.099 296.537ZM977.263 286.962H980.135V291.423H985.053V286.962H987.926V298.495H985.053V293.817H980.135V298.495H977.263V286.962ZM995.767 298.756C994.984 298.756 994.236 298.64 993.526 298.408C992.829 298.161 992.22 297.799 991.698 297.32C991.175 296.827 990.762 296.21 990.457 295.47C990.153 294.716 990 293.838 990 292.837V292.402C990 291.445 990.145 290.611 990.436 289.9C990.726 289.189 991.125 288.601 991.632 288.137C992.14 287.658 992.728 287.303 993.395 287.071C994.062 286.824 994.78 286.701 995.549 286.701C997.363 286.701 998.741 287.18 999.684 288.137C1000.63 289.095 1001.1 290.48 1001.1 292.293V293.512H992.938C992.953 294.02 993.04 294.462 993.199 294.839C993.359 295.202 993.569 295.499 993.83 295.732C994.091 295.964 994.389 296.138 994.722 296.254C995.071 296.355 995.419 296.406 995.767 296.406C996.507 296.406 997.065 296.297 997.442 296.08C997.82 295.862 998.088 295.543 998.248 295.122H1000.88C1000.65 296.326 1000.08 297.233 999.162 297.842C998.248 298.452 997.116 298.756 995.767 298.756ZM995.658 289.051C995.324 289.051 994.991 289.095 994.657 289.182C994.338 289.269 994.055 289.407 993.808 289.595C993.562 289.784 993.359 290.038 993.199 290.357C993.04 290.676 992.953 291.06 992.938 291.51H998.313C998.298 291.031 998.219 290.632 998.074 290.313C997.943 289.994 997.754 289.74 997.508 289.552C997.276 289.363 997 289.232 996.681 289.16C996.362 289.087 996.021 289.051 995.658 289.051ZM1005.76 289.356H1002.08V286.962H1012.31V289.356H1008.63V298.495H1005.76V289.356ZM824.409 307.263H837.247V322.495H833.983V309.961H827.673V322.495H824.409V307.263ZM845.516 322.756C844.733 322.756 843.986 322.64 843.275 322.408C842.579 322.161 841.969 321.792 841.447 321.298C840.925 320.805 840.512 320.189 840.207 319.449C839.902 318.709 839.75 317.838 839.75 316.837V316.402C839.75 315.459 839.902 314.632 840.207 313.922C840.512 313.211 840.925 312.616 841.447 312.137C841.969 311.658 842.579 311.303 843.275 311.071C843.986 310.824 844.733 310.701 845.516 310.701C846.3 310.701 847.04 310.824 847.736 311.071C848.432 311.303 849.042 311.658 849.564 312.137C850.101 312.616 850.521 313.211 850.826 313.922C851.131 314.632 851.283 315.459 851.283 316.402V316.837C851.283 317.824 851.131 318.687 850.826 319.427C850.521 320.167 850.101 320.783 849.564 321.277C849.042 321.77 848.432 322.14 847.736 322.386C847.04 322.633 846.3 322.756 845.516 322.756ZM845.516 320.319C846.329 320.319 847.003 320.029 847.54 319.449C848.091 318.868 848.367 317.998 848.367 316.837V316.402C848.367 315.343 848.091 314.538 847.54 313.987C847.003 313.421 846.329 313.138 845.516 313.138C844.689 313.138 844.008 313.421 843.471 313.987C842.934 314.538 842.666 315.343 842.666 316.402V316.837C842.666 318.012 842.934 318.89 843.471 319.47C844.008 320.036 844.689 320.319 845.516 320.319ZM858.455 322.756C857.657 322.756 856.91 322.633 856.214 322.386C855.532 322.14 854.937 321.77 854.43 321.277C853.922 320.783 853.523 320.167 853.233 319.427C852.943 318.687 852.798 317.824 852.798 316.837V316.402C852.798 315.474 852.95 314.654 853.255 313.943C853.559 313.232 853.965 312.638 854.473 312.159C854.995 311.68 855.597 311.318 856.279 311.071C856.961 310.824 857.686 310.701 858.455 310.701C859.268 310.701 859.986 310.81 860.61 311.027C861.248 311.245 861.785 311.542 862.22 311.92C862.655 312.297 862.996 312.739 863.243 313.247C863.489 313.755 863.634 314.299 863.678 314.879H860.762C860.646 314.342 860.406 313.922 860.044 313.617C859.696 313.298 859.166 313.138 858.455 313.138C858.078 313.138 857.723 313.203 857.389 313.334C857.07 313.465 856.78 313.668 856.519 313.943C856.272 314.204 856.076 314.538 855.931 314.944C855.786 315.35 855.713 315.836 855.713 316.402V316.837C855.713 317.447 855.779 317.976 855.909 318.426C856.054 318.861 856.25 319.224 856.497 319.514C856.743 319.79 857.034 319.993 857.367 320.123C857.701 320.254 858.064 320.319 858.455 320.319C859.021 320.319 859.507 320.174 859.913 319.884C860.334 319.579 860.617 319.144 860.762 318.578H863.678C863.605 319.217 863.424 319.797 863.134 320.319C862.858 320.827 862.488 321.262 862.024 321.625C861.574 321.987 861.045 322.27 860.435 322.473C859.826 322.662 859.166 322.756 858.455 322.756ZM868.453 313.356H864.775V310.962H875.003V313.356H871.325V322.495H868.453V313.356ZM879.773 322.756C879.149 322.756 878.598 322.669 878.119 322.495C877.641 322.307 877.234 322.053 876.901 321.734C876.567 321.4 876.313 321.015 876.139 320.58C875.965 320.13 875.878 319.645 875.878 319.122C875.878 316.801 877.256 315.641 880.012 315.641H883.451V315.097C883.451 314.342 883.277 313.813 882.928 313.508C882.595 313.203 882.058 313.051 881.318 313.051C880.665 313.051 880.194 313.167 879.904 313.399C879.614 313.617 879.447 313.893 879.403 314.226H876.531C876.56 313.733 876.683 313.269 876.901 312.834C877.133 312.398 877.452 312.028 877.858 311.724C878.279 311.405 878.787 311.158 879.381 310.984C879.976 310.795 880.658 310.701 881.427 310.701C882.167 310.701 882.834 310.781 883.429 310.94C884.038 311.1 884.553 311.361 884.974 311.724C885.409 312.072 885.743 312.529 885.975 313.095C886.207 313.66 886.323 314.342 886.323 315.14V319.557C886.323 320.167 886.33 320.704 886.345 321.168C886.374 321.617 886.417 322.06 886.475 322.495H883.799C883.741 322.176 883.704 321.937 883.69 321.777C883.69 321.603 883.69 321.349 883.69 321.015C883.371 321.48 882.885 321.886 882.232 322.234C881.594 322.582 880.774 322.756 879.773 322.756ZM880.665 320.537C881.013 320.537 881.354 320.493 881.688 320.406C882.022 320.305 882.319 320.16 882.58 319.971C882.841 319.768 883.052 319.514 883.211 319.209C883.371 318.905 883.451 318.549 883.451 318.143V317.599H880.556C880.005 317.599 879.57 317.73 879.251 317.991C878.946 318.237 878.794 318.578 878.794 319.013C878.794 319.478 878.953 319.848 879.273 320.123C879.592 320.399 880.056 320.537 880.665 320.537ZM888.83 310.962H894.618C895.358 310.962 895.989 311.042 896.511 311.201C897.048 311.347 897.49 311.557 897.838 311.833C898.187 312.108 898.44 312.435 898.6 312.812C898.76 313.189 898.839 313.602 898.839 314.052C898.839 314.589 898.673 315.097 898.339 315.575C898.02 316.04 897.577 316.351 897.012 316.511C897.722 316.685 898.274 317.019 898.665 317.512C899.072 317.991 899.275 318.556 899.275 319.209C899.275 320.21 898.926 321.008 898.23 321.603C897.534 322.198 896.475 322.495 895.053 322.495H888.83V310.962ZM894.487 320.189C895.14 320.189 895.619 320.094 895.924 319.906C896.243 319.703 896.402 319.383 896.402 318.948C896.402 318.513 896.25 318.201 895.945 318.012C895.655 317.809 895.169 317.708 894.487 317.708H891.702V320.189H894.487ZM894.204 315.575C894.872 315.575 895.329 315.481 895.575 315.292C895.837 315.104 895.967 314.814 895.967 314.422C895.967 314.045 895.837 313.762 895.575 313.573C895.314 313.37 894.857 313.269 894.204 313.269H891.702V315.575H894.204ZM915.904 322.495H901.346V310.962H904.218V320.101H907.635V310.962H910.507V320.101H913.924V310.962H916.796V320.101H918.428V325.215H915.904V322.495ZM920.28 310.962H923.153V318.361L928.288 310.962H930.943V322.495H928.07V315.097L922.935 322.495H920.28V310.962ZM933.562 310.962H936.434V315.488H937.522L941.047 310.962H944.224L939.872 316.424L944.442 322.495H941.004L937.522 317.751H936.434V322.495H933.562V310.962ZM946.078 310.962H948.95V318.361L954.086 310.962H956.741V322.495H953.868V315.097L948.733 322.495H946.078V310.962ZM959.904 322.495V319.666H962.95V322.495L960.513 325.977H959.033L959.904 322.495ZM976.106 322.756C974.437 322.756 973.168 322.415 972.298 321.734C971.427 321.052 970.956 320.072 970.883 318.796H973.799C973.828 319.042 973.886 319.26 973.973 319.449C974.06 319.637 974.191 319.797 974.365 319.927C974.539 320.058 974.764 320.16 975.039 320.232C975.33 320.29 975.685 320.319 976.106 320.319C976.947 320.319 977.542 320.196 977.89 319.949C978.238 319.688 978.412 319.376 978.412 319.013C978.412 318.578 978.267 318.252 977.977 318.034C977.687 317.817 977.172 317.708 976.432 317.708H974.691V315.575H976.28C976.831 315.575 977.252 315.459 977.542 315.227C977.832 314.995 977.977 314.69 977.977 314.313C977.977 313.98 977.832 313.704 977.542 313.486C977.266 313.254 976.787 313.138 976.106 313.138C975.395 313.138 974.88 313.261 974.561 313.508C974.256 313.74 974.075 314.088 974.017 314.553H971.101C971.173 313.305 971.63 312.355 972.472 311.702C973.313 311.035 974.524 310.701 976.106 310.701C976.947 310.701 977.665 310.781 978.26 310.94C978.869 311.1 979.37 311.332 979.761 311.637C980.153 311.927 980.436 312.282 980.61 312.703C980.799 313.109 980.893 313.566 980.893 314.074C980.893 314.625 980.748 315.118 980.458 315.554C980.182 315.989 979.74 316.308 979.13 316.511C979.957 316.714 980.53 317.048 980.849 317.512C981.169 317.962 981.328 318.498 981.328 319.122C981.328 319.645 981.219 320.13 981.002 320.58C980.799 321.015 980.48 321.4 980.044 321.734C979.624 322.053 979.087 322.307 978.434 322.495C977.781 322.669 977.005 322.756 976.106 322.756ZM986.854 322.756C986.23 322.756 985.679 322.669 985.2 322.495C984.721 322.307 984.315 322.053 983.981 321.734C983.648 321.4 983.394 321.015 983.22 320.58C983.046 320.13 982.958 319.645 982.958 319.122C982.958 316.801 984.337 315.641 987.093 315.641H990.531V315.097C990.531 314.342 990.357 313.813 990.009 313.508C989.675 313.203 989.138 313.051 988.399 313.051C987.746 313.051 987.274 313.167 986.984 313.399C986.694 313.617 986.527 313.893 986.484 314.226H983.611C983.64 313.733 983.764 313.269 983.981 312.834C984.213 312.398 984.532 312.028 984.939 311.724C985.359 311.405 985.867 311.158 986.462 310.984C987.057 310.795 987.739 310.701 988.507 310.701C989.247 310.701 989.915 310.781 990.509 310.94C991.119 311.1 991.634 311.361 992.054 311.724C992.49 312.072 992.823 312.529 993.055 313.095C993.287 313.66 993.403 314.342 993.403 315.14V319.557C993.403 320.167 993.411 320.704 993.425 321.168C993.454 321.617 993.498 322.06 993.556 322.495H990.879C990.821 322.176 990.785 321.937 990.77 321.777C990.77 321.603 990.77 321.349 990.77 321.015C990.451 321.48 989.965 321.886 989.313 322.234C988.674 322.582 987.855 322.756 986.854 322.756ZM987.746 320.537C988.094 320.537 988.435 320.493 988.769 320.406C989.102 320.305 989.4 320.16 989.661 319.971C989.922 319.768 990.132 319.514 990.292 319.209C990.451 318.905 990.531 318.549 990.531 318.143V317.599H987.637C987.086 317.599 986.65 317.73 986.331 317.991C986.027 318.237 985.874 318.578 985.874 319.013C985.874 319.478 986.034 319.848 986.353 320.123C986.672 320.399 987.136 320.537 987.746 320.537ZM995.91 310.962H998.783V315.488H999.871L1003.4 310.962H1006.57L1002.22 316.424L1006.79 322.495H1003.35L999.871 317.751H998.783V322.495H995.91V310.962ZM1011.67 322.756C1011.05 322.756 1010.5 322.669 1010.02 322.495C1009.54 322.307 1009.14 322.053 1008.8 321.734C1008.47 321.4 1008.21 321.015 1008.04 320.58C1007.87 320.13 1007.78 319.645 1007.78 319.122C1007.78 316.801 1009.16 315.641 1011.91 315.641H1015.35V315.097C1015.35 314.342 1015.18 313.813 1014.83 313.508C1014.5 313.203 1013.96 313.051 1013.22 313.051C1012.57 313.051 1012.09 313.167 1011.8 313.399C1011.51 313.617 1011.35 313.893 1011.3 314.226H1008.43C1008.46 313.733 1008.58 313.269 1008.8 312.834C1009.03 312.398 1009.35 312.028 1009.76 311.724C1010.18 311.405 1010.69 311.158 1011.28 310.984C1011.88 310.795 1012.56 310.701 1013.33 310.701C1014.07 310.701 1014.73 310.781 1015.33 310.94C1015.94 311.1 1016.45 311.361 1016.87 311.724C1017.31 312.072 1017.64 312.529 1017.88 313.095C1018.11 313.66 1018.22 314.342 1018.22 315.14V319.557C1018.22 320.167 1018.23 320.704 1018.25 321.168C1018.27 321.617 1018.32 322.06 1018.38 322.495H1015.7C1015.64 322.176 1015.61 321.937 1015.59 321.777C1015.59 321.603 1015.59 321.349 1015.59 321.015C1015.27 321.48 1014.79 321.886 1014.13 322.234C1013.49 322.582 1012.67 322.756 1011.67 322.756ZM1012.57 320.537C1012.91 320.537 1013.26 320.493 1013.59 320.406C1013.92 320.305 1014.22 320.16 1014.48 319.971C1014.74 319.768 1014.95 319.514 1015.11 319.209C1015.27 318.905 1015.35 318.549 1015.35 318.143V317.599H1012.46C1011.91 317.599 1011.47 317.73 1011.15 317.991C1010.85 318.237 1010.69 318.578 1010.69 319.013C1010.69 319.478 1010.85 319.848 1011.17 320.123C1011.49 320.399 1011.96 320.537 1012.57 320.537ZM1025.3 322.756C1023.63 322.756 1022.36 322.415 1021.49 321.734C1020.62 321.052 1020.15 320.072 1020.08 318.796H1022.99C1023.02 319.042 1023.08 319.26 1023.17 319.449C1023.25 319.637 1023.39 319.797 1023.56 319.927C1023.73 320.058 1023.96 320.16 1024.23 320.232C1024.52 320.29 1024.88 320.319 1025.3 320.319C1026.14 320.319 1026.74 320.196 1027.08 319.949C1027.43 319.688 1027.61 319.376 1027.61 319.013C1027.61 318.578 1027.46 318.252 1027.17 318.034C1026.88 317.817 1026.37 317.708 1025.63 317.708H1023.89V315.575H1025.47C1026.03 315.575 1026.45 315.459 1026.74 315.227C1027.03 314.995 1027.17 314.69 1027.17 314.313C1027.17 313.98 1027.03 313.704 1026.74 313.486C1026.46 313.254 1025.98 313.138 1025.3 313.138C1024.59 313.138 1024.07 313.261 1023.76 313.508C1023.45 313.74 1023.27 314.088 1023.21 314.553H1020.3C1020.37 313.305 1020.82 312.355 1021.67 311.702C1022.51 311.035 1023.72 310.701 1025.3 310.701C1026.14 310.701 1026.86 310.781 1027.45 310.94C1028.06 311.1 1028.56 311.332 1028.96 311.637C1029.35 311.927 1029.63 312.282 1029.8 312.703C1029.99 313.109 1030.09 313.566 1030.09 314.074C1030.09 314.625 1029.94 315.118 1029.65 315.554C1029.38 315.989 1028.93 316.308 1028.32 316.511C1029.15 316.714 1029.72 317.048 1030.04 317.512C1030.36 317.962 1030.52 318.498 1030.52 319.122C1030.52 319.645 1030.41 320.13 1030.2 320.58C1029.99 321.015 1029.67 321.4 1029.24 321.734C1028.82 322.053 1028.28 322.307 1027.63 322.495C1026.98 322.669 1026.2 322.756 1025.3 322.756ZM1039.4 318.252C1039.07 318.455 1038.67 318.636 1038.2 318.796C1037.74 318.955 1037.17 319.035 1036.51 319.035C1035.1 319.035 1034.04 318.702 1033.33 318.034C1032.62 317.367 1032.26 316.315 1032.26 314.879V310.962H1035.13V314.553C1035.13 315.307 1035.29 315.836 1035.61 316.141C1035.93 316.446 1036.48 316.598 1037.27 316.598C1037.82 316.598 1038.27 316.533 1038.62 316.402C1038.98 316.272 1039.24 316.148 1039.4 316.032V310.962H1042.27V322.495H1039.4V318.252ZM1044.89 310.962H1047.76V318.361L1052.9 310.962H1055.55V322.495H1052.68V315.097L1047.55 322.495H1044.89V310.962ZM1058.17 310.962H1061.05V315.488H1062.13L1065.66 310.962H1068.84L1064.48 316.424L1069.05 322.495H1065.62L1062.13 317.751H1061.05V322.495H1058.17V310.962ZM1070.69 310.962H1073.56V318.361L1078.7 310.962H1081.35V322.495H1078.48V315.097L1073.34 322.495H1070.69V310.962ZM1084.52 322.495V319.666H1087.56V322.495L1085.12 325.977H1083.65L1084.52 322.495ZM898.842 346.756C898.044 346.756 897.297 346.633 896.6 346.386C895.918 346.14 895.324 345.77 894.816 345.277C894.308 344.783 893.909 344.167 893.619 343.427C893.329 342.687 893.184 341.824 893.184 340.837V340.402C893.184 339.474 893.336 338.654 893.641 337.943C893.945 337.232 894.352 336.638 894.859 336.159C895.382 335.68 895.984 335.318 896.666 335.071C897.347 334.824 898.073 334.701 898.842 334.701C899.654 334.701 900.372 334.81 900.996 335.027C901.634 335.245 902.171 335.542 902.606 335.92C903.041 336.297 903.382 336.739 903.629 337.247C903.875 337.755 904.021 338.299 904.064 338.879H901.148C901.032 338.342 900.793 337.922 900.43 337.617C900.082 337.298 899.552 337.138 898.842 337.138C898.464 337.138 898.109 337.203 897.775 337.334C897.456 337.465 897.166 337.668 896.905 337.943C896.658 338.204 896.462 338.538 896.317 338.944C896.172 339.35 896.1 339.836 896.1 340.402V340.837C896.1 341.447 896.165 341.976 896.296 342.426C896.441 342.861 896.637 343.224 896.883 343.514C897.13 343.79 897.42 343.993 897.754 344.123C898.087 344.254 898.45 344.319 898.842 344.319C899.407 344.319 899.893 344.174 900.3 343.884C900.72 343.579 901.003 343.144 901.148 342.578H904.064C903.992 343.217 903.81 343.797 903.52 344.319C903.244 344.827 902.874 345.262 902.41 345.625C901.961 345.987 901.431 346.27 900.822 346.473C900.212 346.662 899.552 346.756 898.842 346.756ZM911.254 346.756C910.471 346.756 909.724 346.64 909.013 346.408C908.317 346.161 907.707 345.792 907.185 345.298C906.663 344.805 906.249 344.189 905.945 343.449C905.64 342.709 905.488 341.838 905.488 340.837V340.402C905.488 339.459 905.64 338.632 905.945 337.922C906.249 337.211 906.663 336.616 907.185 336.137C907.707 335.658 908.317 335.303 909.013 335.071C909.724 334.824 910.471 334.701 911.254 334.701C912.038 334.701 912.778 334.824 913.474 335.071C914.17 335.303 914.779 335.658 915.302 336.137C915.838 336.616 916.259 337.211 916.564 337.922C916.868 338.632 917.021 339.459 917.021 340.402V340.837C917.021 341.824 916.868 342.687 916.564 343.427C916.259 344.167 915.838 344.783 915.302 345.277C914.779 345.77 914.17 346.14 913.474 346.386C912.778 346.633 912.038 346.756 911.254 346.756ZM911.254 344.319C912.067 344.319 912.741 344.029 913.278 343.449C913.829 342.868 914.105 341.998 914.105 340.837V340.402C914.105 339.343 913.829 338.538 913.278 337.987C912.741 337.421 912.067 337.138 911.254 337.138C910.427 337.138 909.746 337.421 909.209 337.987C908.672 338.538 908.404 339.343 908.404 340.402V340.837C908.404 342.012 908.672 342.89 909.209 343.47C909.746 344.036 910.427 344.319 911.254 344.319ZM921.674 337.356H917.997V334.962H928.224V337.356H924.546V346.495H921.674V337.356ZM929.96 334.962H932.636V336.659C932.926 336.137 933.383 335.68 934.007 335.289C934.631 334.897 935.422 334.701 936.379 334.701C937.917 334.701 939.114 335.18 939.969 336.137C940.84 337.08 941.275 338.502 941.275 340.402V340.837C941.275 342.825 940.833 344.312 939.948 345.298C939.077 346.27 937.888 346.756 936.379 346.756C935.596 346.756 934.899 346.589 934.29 346.256C933.695 345.908 933.209 345.458 932.832 344.907V350.847H929.96V334.962ZM935.704 344.319C936.459 344.319 937.09 344.036 937.598 343.47C938.105 342.89 938.359 342.012 938.359 340.837V340.402C938.359 339.314 938.113 338.502 937.619 337.965C937.126 337.414 936.488 337.138 935.704 337.138C934.878 337.138 934.188 337.378 933.637 337.856C933.1 338.32 932.832 339.024 932.832 339.967V341.273C932.832 342.303 933.093 343.071 933.615 343.579C934.152 344.072 934.849 344.319 935.704 344.319ZM944.881 351.108C944.663 351.108 944.446 351.087 944.228 351.043V348.606C944.446 348.649 944.663 348.671 944.881 348.671C945.316 348.671 945.65 348.504 945.882 348.171C946.128 347.852 946.404 347.293 946.709 346.495L941.834 334.962H945.055L948.188 342.926L951.061 334.962H954.02L949.581 346.495C949.262 347.308 948.957 348.004 948.667 348.584C948.392 349.179 948.08 349.658 947.731 350.02C947.383 350.397 946.984 350.673 946.535 350.847C946.085 351.021 945.534 351.108 944.881 351.108ZM954.122 344.101H955.428C955.573 343.884 955.703 343.572 955.819 343.166C955.936 342.745 956.023 342.281 956.081 341.773C956.153 341.251 956.204 340.707 956.233 340.141C956.276 339.561 956.298 338.995 956.298 338.444V334.962H965.329V344.101H966.743V349.215H964.219V346.495H956.646V349.215H954.122V344.101ZM962.456 344.101V337.356H958.931V338.879C958.931 339.387 958.917 339.887 958.888 340.38C958.859 340.874 958.815 341.352 958.757 341.817C958.714 342.266 958.648 342.687 958.561 343.079C958.474 343.47 958.365 343.811 958.235 344.101H962.456ZM968.593 334.962H971.465V339.423H976.383V334.962H979.255V346.495H976.383V341.817H971.465V346.495H968.593V334.962ZM981.874 334.962H984.747V342.361L989.882 334.962H992.537V346.495H989.664V339.097L984.529 346.495H981.874V334.962ZM995.156 334.962H998.028V339.488H999.116L1002.64 334.962H1005.82L1001.47 340.424L1006.04 346.495H1002.6L999.116 341.751H998.028V346.495H995.156V334.962ZM1007.67 334.962H1010.54V342.361L1015.68 334.962H1018.33V346.495H1015.46V339.097L1010.33 346.495H1007.67V334.962Z" fill="black"/>
<path d="M905.478 495.312H908.742V505.43L915.379 495.312H918.534V510.544H915.27V500.425L908.612 510.544H905.478V495.312ZM921.576 499.011H924.448V503.472H929.366V499.011H932.238V510.544H929.366V505.865H924.448V510.544H921.576V499.011ZM937.664 501.405H933.987V499.011H944.214V501.405H940.537V510.544H937.664V501.405ZM945.95 499.011H948.626V500.708C948.917 500.186 949.374 499.729 949.997 499.337C950.621 498.946 951.412 498.75 952.369 498.75C953.907 498.75 955.104 499.229 955.96 500.186C956.83 501.129 957.265 502.551 957.265 504.451V504.886C957.265 506.874 956.823 508.361 955.938 509.347C955.068 510.319 953.878 510.805 952.369 510.805C951.586 510.805 950.89 510.638 950.28 510.305C949.686 509.956 949.2 509.507 948.822 508.955V514.896H945.95V499.011ZM951.695 508.368C952.449 508.368 953.08 508.085 953.588 507.519C954.096 506.939 954.349 506.061 954.349 504.886V504.451C954.349 503.363 954.103 502.551 953.61 502.014C953.116 501.463 952.478 501.187 951.695 501.187C950.868 501.187 950.179 501.426 949.627 501.905C949.091 502.369 948.822 503.073 948.822 504.016V505.321C948.822 506.351 949.083 507.12 949.606 507.628C950.142 508.121 950.839 508.368 951.695 508.368ZM962.798 510.805C962.174 510.805 961.623 510.718 961.144 510.544C960.665 510.355 960.259 510.101 959.925 509.782C959.592 509.449 959.338 509.064 959.164 508.629C958.99 508.179 958.902 507.693 958.902 507.171C958.902 504.85 960.281 503.689 963.037 503.689H966.475V503.145C966.475 502.391 966.301 501.862 965.953 501.557C965.619 501.252 965.082 501.1 964.343 501.1C963.69 501.1 963.218 501.216 962.928 501.448C962.638 501.666 962.471 501.941 962.428 502.275H959.555C959.584 501.782 959.708 501.318 959.925 500.882C960.157 500.447 960.476 500.077 960.883 499.773C961.303 499.453 961.811 499.207 962.406 499.033C963.001 498.844 963.683 498.75 964.451 498.75C965.191 498.75 965.859 498.83 966.453 498.989C967.063 499.149 967.578 499.41 967.998 499.773C968.434 500.121 968.767 500.578 968.999 501.143C969.231 501.709 969.347 502.391 969.347 503.189V507.606C969.347 508.216 969.355 508.752 969.369 509.217C969.398 509.666 969.442 510.109 969.5 510.544H966.823C966.765 510.225 966.729 509.985 966.714 509.826C966.714 509.652 966.714 509.398 966.714 509.064C966.395 509.528 965.909 509.935 965.257 510.283C964.618 510.631 963.799 510.805 962.798 510.805ZM963.69 508.586C964.038 508.586 964.379 508.542 964.713 508.455C965.046 508.353 965.344 508.208 965.605 508.02C965.866 507.817 966.076 507.563 966.236 507.258C966.395 506.953 966.475 506.598 966.475 506.192V505.648H963.581C963.03 505.648 962.594 505.778 962.275 506.04C961.971 506.286 961.818 506.627 961.818 507.062C961.818 507.527 961.978 507.896 962.297 508.172C962.616 508.448 963.08 508.586 963.69 508.586ZM971.854 499.011H974.727V503.472H979.644V499.011H982.517V510.544H979.644V505.865H974.727V510.544H971.854V499.011ZM990.358 510.805C989.575 510.805 988.828 510.689 988.117 510.457C987.42 510.21 986.811 509.848 986.289 509.369C985.767 508.876 985.353 508.259 985.049 507.519C984.744 506.765 984.592 505.887 984.592 504.886V504.451C984.592 503.494 984.737 502.659 985.027 501.949C985.317 501.238 985.716 500.65 986.224 500.186C986.731 499.707 987.319 499.352 987.986 499.12C988.654 498.873 989.372 498.75 990.14 498.75C991.954 498.75 993.332 499.229 994.275 500.186C995.218 501.143 995.689 502.529 995.689 504.342V505.561H987.529C987.544 506.069 987.631 506.511 987.79 506.888C987.95 507.251 988.16 507.548 988.421 507.78C988.683 508.012 988.98 508.187 989.314 508.303C989.662 508.404 990.01 508.455 990.358 508.455C991.098 508.455 991.656 508.346 992.034 508.129C992.411 507.911 992.679 507.592 992.839 507.171H995.472C995.24 508.375 994.667 509.282 993.753 509.891C992.839 510.5 991.707 510.805 990.358 510.805ZM990.249 501.1C989.916 501.1 989.582 501.143 989.248 501.231C988.929 501.318 988.646 501.455 988.4 501.644C988.153 501.833 987.95 502.086 987.79 502.406C987.631 502.725 987.544 503.109 987.529 503.559H992.904C992.89 503.08 992.81 502.681 992.665 502.362C992.534 502.043 992.346 501.789 992.099 501.6C991.867 501.412 991.591 501.281 991.272 501.209C990.953 501.136 990.612 501.1 990.249 501.1ZM1000.35 501.405H996.675V499.011H1006.9V501.405H1003.23V510.544H1000.35V501.405ZM868.002 522.01H863.106V519.312H876.163V522.01H871.267V534.544H868.002V522.01ZM881.376 534.805C880.592 534.805 879.845 534.689 879.134 534.457C878.438 534.21 877.829 533.84 877.307 533.347C876.784 532.854 876.371 532.237 876.066 531.497C875.762 530.758 875.609 529.887 875.609 528.886V528.451C875.609 527.508 875.762 526.681 876.066 525.97C876.371 525.26 876.784 524.665 877.307 524.186C877.829 523.707 878.438 523.352 879.134 523.12C879.845 522.873 880.592 522.75 881.376 522.75C882.159 522.75 882.899 522.873 883.595 523.12C884.292 523.352 884.901 523.707 885.423 524.186C885.96 524.665 886.381 525.26 886.685 525.97C886.99 526.681 887.142 527.508 887.142 528.451V528.886C887.142 529.873 886.99 530.736 886.685 531.476C886.381 532.216 885.96 532.832 885.423 533.325C884.901 533.819 884.292 534.189 883.595 534.435C882.899 534.682 882.159 534.805 881.376 534.805ZM881.376 532.368C882.188 532.368 882.863 532.078 883.399 531.497C883.951 530.917 884.226 530.047 884.226 528.886V528.451C884.226 527.392 883.951 526.587 883.399 526.036C882.863 525.47 882.188 525.187 881.376 525.187C880.549 525.187 879.867 525.47 879.33 526.036C878.793 526.587 878.525 527.392 878.525 528.451V528.886C878.525 530.061 878.793 530.939 879.33 531.519C879.867 532.085 880.549 532.368 881.376 532.368ZM889.097 534.805C888.981 534.805 888.836 534.798 888.662 534.783C888.488 534.783 888.343 534.769 888.227 534.74V532.15C888.299 532.165 888.408 532.172 888.553 532.172C888.829 532.172 889.068 532.092 889.271 531.933C889.474 531.759 889.641 531.468 889.772 531.062C889.917 530.656 890.018 530.119 890.076 529.452C890.149 528.77 890.185 527.929 890.185 526.928V523.011H899.325V534.544H896.452V525.405H892.84V527.363C892.84 528.857 892.76 530.09 892.601 531.062C892.456 532.02 892.223 532.774 891.904 533.325C891.6 533.877 891.208 534.261 890.729 534.479C890.265 534.696 889.721 534.805 889.097 534.805ZM901.93 523.011H904.802V526.884H907.261C910.235 526.884 911.722 528.161 911.722 530.714C911.722 531.28 911.635 531.802 911.461 532.281C911.301 532.745 911.04 533.144 910.678 533.478C910.315 533.811 909.851 534.072 909.285 534.261C908.719 534.45 908.045 534.544 907.261 534.544H901.93V523.011ZM906.935 532.237C907.631 532.237 908.124 532.114 908.414 531.867C908.705 531.606 908.85 531.222 908.85 530.714C908.85 530.206 908.697 529.829 908.393 529.583C908.103 529.321 907.617 529.191 906.935 529.191H904.802V532.237H906.935ZM913.575 523.011H916.447V527.537H917.535L921.061 523.011H924.238L919.886 528.473L924.455 534.544H921.017L917.535 529.8H916.447V534.544H913.575V523.011ZM930.889 534.805C930.106 534.805 929.359 534.689 928.648 534.457C927.951 534.21 927.342 533.84 926.82 533.347C926.298 532.854 925.884 532.237 925.579 531.497C925.275 530.758 925.123 529.887 925.123 528.886V528.451C925.123 527.508 925.275 526.681 925.579 525.97C925.884 525.26 926.298 524.665 926.82 524.186C927.342 523.707 927.951 523.352 928.648 523.12C929.359 522.873 930.106 522.75 930.889 522.75C931.672 522.75 932.412 522.873 933.109 523.12C933.805 523.352 934.414 523.707 934.936 524.186C935.473 524.665 935.894 525.26 936.199 525.97C936.503 526.681 936.656 527.508 936.656 528.451V528.886C936.656 529.873 936.503 530.736 936.199 531.476C935.894 532.216 935.473 532.832 934.936 533.325C934.414 533.819 933.805 534.189 933.109 534.435C932.412 534.682 931.672 534.805 930.889 534.805ZM930.889 532.368C931.701 532.368 932.376 532.078 932.913 531.497C933.464 530.917 933.74 530.047 933.74 528.886V528.451C933.74 527.392 933.464 526.587 932.913 526.036C932.376 525.47 931.701 525.187 930.889 525.187C930.062 525.187 929.38 525.47 928.844 526.036C928.307 526.587 928.038 527.392 928.038 528.451V528.886C928.038 530.061 928.307 530.939 928.844 531.519C929.38 532.085 930.062 532.368 930.889 532.368ZM944.154 523.011H947.027V527.537H948.115L951.64 523.011H954.817L950.465 528.473L955.034 534.544H951.596L948.115 529.8H947.027V534.544H944.154V523.011ZM961.468 534.805C960.685 534.805 959.938 534.689 959.227 534.457C958.531 534.21 957.921 533.84 957.399 533.347C956.877 532.854 956.463 532.237 956.159 531.497C955.854 530.758 955.702 529.887 955.702 528.886V528.451C955.702 527.508 955.854 526.681 956.159 525.97C956.463 525.26 956.877 524.665 957.399 524.186C957.921 523.707 958.531 523.352 959.227 523.12C959.938 522.873 960.685 522.75 961.468 522.75C962.252 522.75 962.991 522.873 963.688 523.12C964.384 523.352 964.993 523.707 965.516 524.186C966.052 524.665 966.473 525.26 966.778 525.97C967.082 526.681 967.235 527.508 967.235 528.451V528.886C967.235 529.873 967.082 530.736 966.778 531.476C966.473 532.216 966.052 532.832 965.516 533.325C964.993 533.819 964.384 534.189 963.688 534.435C962.991 534.682 962.252 534.805 961.468 534.805ZM961.468 532.368C962.281 532.368 962.955 532.078 963.492 531.497C964.043 530.917 964.319 530.047 964.319 528.886V528.451C964.319 527.392 964.043 526.587 963.492 526.036C962.955 525.47 962.281 525.187 961.468 525.187C960.641 525.187 959.96 525.47 959.423 526.036C958.886 526.587 958.618 527.392 958.618 528.451V528.886C958.618 530.061 958.886 530.939 959.423 531.519C959.96 532.085 960.641 532.368 961.468 532.368ZM969.293 523.011H972.688L975.887 529.234L979.086 523.011H982.35V534.544H979.608V527.037L976.801 532.259H974.842L972.035 527.037V534.544H969.293V523.011ZM984.955 523.011H995.4V534.544H992.528V525.405H987.827V534.544H984.955V523.011ZM1001.46 534.805C1000.84 534.805 1000.29 534.718 999.809 534.544C999.33 534.355 998.924 534.101 998.59 533.782C998.257 533.449 998.003 533.064 997.829 532.629C997.655 532.179 997.567 531.693 997.567 531.171C997.567 528.85 998.946 527.689 1001.7 527.689H1005.14V527.145C1005.14 526.391 1004.97 525.862 1004.62 525.557C1004.28 525.252 1003.75 525.1 1003.01 525.1C1002.35 525.1 1001.88 525.216 1001.59 525.448C1001.3 525.666 1001.14 525.941 1001.09 526.275H998.22C998.249 525.782 998.373 525.318 998.59 524.882C998.822 524.447 999.141 524.077 999.548 523.773C999.968 523.453 1000.48 523.207 1001.07 523.033C1001.67 522.844 1002.35 522.75 1003.12 522.75C1003.86 522.75 1004.52 522.83 1005.12 522.989C1005.73 523.149 1006.24 523.41 1006.66 523.773C1007.1 524.121 1007.43 524.578 1007.66 525.143C1007.9 525.709 1008.01 526.391 1008.01 527.189V531.606C1008.01 532.216 1008.02 532.752 1008.03 533.217C1008.06 533.666 1008.11 534.109 1008.16 534.544H1005.49C1005.43 534.225 1005.39 533.985 1005.38 533.826C1005.38 533.652 1005.38 533.398 1005.38 533.064C1005.06 533.528 1004.57 533.935 1003.92 534.283C1003.28 534.631 1002.46 534.805 1001.46 534.805ZM1002.35 532.586C1002.7 532.586 1003.04 532.542 1003.38 532.455C1003.71 532.353 1004.01 532.208 1004.27 532.02C1004.53 531.817 1004.74 531.563 1004.9 531.258C1005.06 530.953 1005.14 530.598 1005.14 530.192V529.648H1002.25C1001.69 529.648 1001.26 529.778 1000.94 530.04C1000.64 530.286 1000.48 530.627 1000.48 531.062C1000.48 531.527 1000.64 531.896 1000.96 532.172C1001.28 532.448 1001.75 532.586 1002.35 532.586ZM1010.52 523.011H1013.39V527.472H1018.31V523.011H1021.18V534.544H1018.31V529.865H1013.39V534.544H1010.52V523.011ZM1023.8 523.011H1026.67V530.409L1031.81 523.011H1034.46V534.544H1031.59V527.145L1026.46 534.544H1023.8V523.011ZM1039.41 530.214C1038.53 529.923 1037.88 529.488 1037.47 528.908C1037.07 528.328 1036.86 527.646 1036.86 526.863C1036.86 526.297 1036.96 525.782 1037.15 525.318C1037.35 524.839 1037.65 524.433 1038.04 524.099C1038.43 523.751 1038.92 523.482 1039.52 523.294C1040.13 523.105 1040.84 523.011 1041.65 523.011H1047.09V534.544H1044.22V530.562H1042.15L1039.65 534.544H1036.43L1039.41 530.214ZM1039.74 526.863C1039.74 527.356 1039.9 527.718 1040.22 527.951C1040.55 528.183 1040.99 528.299 1041.54 528.299H1044.22V525.405H1041.54C1040.99 525.405 1040.55 525.528 1040.22 525.775C1039.9 526.007 1039.74 526.369 1039.74 526.863Z" fill="black"/>
</svg>
