<svg width="1400" height="430" viewBox="0 0 1400 430" fill="none" xmlns="http://www.w3.org/2000/svg">
<rect x="100" y="148.41" width="300" height="65" fill="#ABD4C1"/>
<path d="M190.017 187.626H193.651V176.419L190.017 179.009V176.789L193.695 174.178H195.74V187.626H198.721V189.41H190.017V187.626ZM200.579 187.626H204.212V176.419L200.579 179.009V176.789L204.256 174.178H206.301V187.626H209.283V189.41H200.579V187.626ZM211.14 187.626H214.774V176.419L211.14 179.009V176.789L214.817 174.178H216.863V187.626H219.844V189.41H211.14V187.626ZM221.701 187.626H225.335V176.419L221.701 179.009V176.789L225.379 174.178H227.424V187.626H230.405V189.41H221.701V187.626ZM237.703 187.626H241.337V176.419L237.703 179.009V176.789L241.38 174.178H243.426V187.626H246.407V189.41H237.703V187.626ZM248.264 187.626H251.898V176.419L248.264 179.009V176.789L251.942 174.178H253.987V187.626H256.968V189.41H248.264V187.626ZM258.826 187.626H262.46V176.419L258.826 179.009V176.789L262.503 174.178H264.549V187.626H267.53V189.41H258.826V187.626ZM274.936 189.628C274.196 189.628 273.493 189.504 272.825 189.258C272.172 189.011 271.599 188.591 271.106 187.996C270.613 187.386 270.221 186.581 269.931 185.58C269.641 184.565 269.496 183.303 269.496 181.794V181.359C269.496 179.952 269.641 178.777 269.931 177.834C270.221 176.891 270.613 176.136 271.106 175.571C271.599 174.99 272.172 174.577 272.825 174.33C273.493 174.084 274.196 173.96 274.936 173.96C275.676 173.96 276.372 174.084 277.025 174.33C277.692 174.577 278.273 174.99 278.766 175.571C279.259 176.136 279.651 176.891 279.941 177.834C280.231 178.777 280.376 179.952 280.376 181.359V181.794C280.376 183.303 280.231 184.565 279.941 185.58C279.651 186.581 279.259 187.386 278.766 187.996C278.273 188.591 277.692 189.011 277.025 189.258C276.372 189.504 275.676 189.628 274.936 189.628ZM274.936 187.843C275.386 187.843 275.814 187.764 276.22 187.604C276.641 187.43 277.003 187.125 277.308 186.69C277.627 186.24 277.874 185.624 278.048 184.84C278.236 184.057 278.331 183.042 278.331 181.794V181.359C278.331 180.227 278.236 179.299 278.048 178.574C277.874 177.848 277.627 177.275 277.308 176.854C277.003 176.434 276.641 176.144 276.22 175.984C275.814 175.824 275.386 175.745 274.936 175.745C274.472 175.745 274.037 175.824 273.63 175.984C273.224 176.144 272.862 176.434 272.542 176.854C272.238 177.275 271.991 177.848 271.803 178.574C271.628 179.299 271.541 180.227 271.541 181.359V181.794C271.541 183.042 271.628 184.057 271.803 184.84C271.991 185.624 272.238 186.24 272.542 186.69C272.862 187.125 273.224 187.43 273.63 187.604C274.037 187.764 274.472 187.843 274.936 187.843ZM288.321 187.626H291.955V176.419L288.321 179.009V176.789L291.999 174.178H294.044V187.626H297.025V189.41H288.321V187.626ZM304.431 189.628C303.692 189.628 302.988 189.504 302.321 189.258C301.668 189.011 301.095 188.591 300.602 187.996C300.108 187.386 299.717 186.581 299.427 185.58C299.136 184.565 298.991 183.303 298.991 181.794V181.359C298.991 179.952 299.136 178.777 299.427 177.834C299.717 176.891 300.108 176.136 300.602 175.571C301.095 174.99 301.668 174.577 302.321 174.33C302.988 174.084 303.692 173.96 304.431 173.96C305.171 173.96 305.868 174.084 306.52 174.33C307.188 174.577 307.768 174.99 308.261 175.571C308.755 176.136 309.146 176.891 309.436 177.834C309.726 178.777 309.872 179.952 309.872 181.359V181.794C309.872 183.303 309.726 184.565 309.436 185.58C309.146 186.581 308.755 187.386 308.261 187.996C307.768 188.591 307.188 189.011 306.52 189.258C305.868 189.504 305.171 189.628 304.431 189.628ZM304.431 187.843C304.881 187.843 305.309 187.764 305.715 187.604C306.136 187.43 306.499 187.125 306.803 186.69C307.122 186.24 307.369 185.624 307.543 184.84C307.732 184.057 307.826 183.042 307.826 181.794V181.359C307.826 180.227 307.732 179.299 307.543 178.574C307.369 177.848 307.122 177.275 306.803 176.854C306.499 176.434 306.136 176.144 305.715 175.984C305.309 175.824 304.881 175.745 304.431 175.745C303.967 175.745 303.532 175.824 303.126 175.984C302.72 176.144 302.357 176.434 302.038 176.854C301.733 177.275 301.487 177.848 301.298 178.574C301.124 179.299 301.037 180.227 301.037 181.359V181.794C301.037 183.042 301.124 184.057 301.298 184.84C301.487 185.624 301.733 186.24 302.038 186.69C302.357 187.125 302.72 187.43 303.126 187.604C303.532 187.764 303.967 187.843 304.431 187.843Z" fill="black"/>
<rect x="100" y="148.41" width="300" height="65" stroke="black"/>
<rect x="400" y="148.41" width="450" height="65" fill="#ABD4C1"/>
<rect x="400" y="148.41" width="450" height="65" stroke="black"/>
<rect x="850" y="148.41" width="450" height="65" fill="#DBEEE5"/>
<path d="M924.737 174.178H926.782V186.146L934.877 174.178H936.923V189.41H934.877V177.442L926.782 189.41H924.737V174.178ZM939.529 187.713H940.943C941.103 187.495 941.248 187.162 941.378 186.712C941.509 186.262 941.625 185.733 941.726 185.123C941.828 184.514 941.901 183.854 941.944 183.143C942.002 182.418 942.031 181.678 942.031 180.924V177.877H950.082V187.713H951.714V192.13H949.887V189.41H941.357V192.13H939.529V187.713ZM948.167 187.713V179.574H943.902V181.359C943.902 181.968 943.881 182.577 943.837 183.187C943.794 183.781 943.728 184.355 943.641 184.906C943.554 185.443 943.446 185.958 943.315 186.451C943.199 186.929 943.061 187.35 942.901 187.713H948.167ZM958.797 189.628C958.057 189.628 957.353 189.512 956.686 189.28C956.019 189.047 955.431 188.692 954.923 188.213C954.416 187.72 954.009 187.104 953.705 186.364C953.4 185.624 953.248 184.753 953.248 183.752V183.317C953.248 182.36 953.393 181.533 953.683 180.837C953.973 180.126 954.358 179.538 954.836 179.074C955.33 178.595 955.895 178.24 956.534 178.008C957.186 177.776 957.868 177.66 958.579 177.66C960.276 177.66 961.589 178.124 962.518 179.052C963.446 179.981 963.91 181.294 963.91 182.991V184.209H955.163C955.163 184.891 955.272 185.464 955.489 185.929C955.707 186.393 955.99 186.77 956.338 187.06C956.686 187.35 957.07 187.561 957.491 187.691C957.926 187.822 958.362 187.887 958.797 187.887C959.667 187.887 960.334 187.742 960.799 187.452C961.277 187.162 961.618 186.763 961.821 186.255H963.693C963.577 186.806 963.366 187.292 963.062 187.713C962.772 188.134 962.409 188.489 961.974 188.779C961.553 189.055 961.067 189.265 960.516 189.41C959.979 189.555 959.406 189.628 958.797 189.628ZM958.688 179.4C958.238 179.4 957.803 179.466 957.382 179.596C956.962 179.712 956.584 179.908 956.251 180.184C955.932 180.445 955.671 180.779 955.467 181.185C955.264 181.591 955.163 182.077 955.163 182.643H962.104C962.09 182.048 961.988 181.547 961.8 181.141C961.626 180.721 961.386 180.387 961.082 180.14C960.777 179.879 960.414 179.691 959.994 179.574C959.587 179.458 959.152 179.4 958.688 179.4ZM966.632 177.877H968.547V182.686H974.509V177.877H976.424V189.41H974.509V184.384H968.547V189.41H966.632V177.877ZM982.547 179.574H978.608V177.877H988.4V179.574H984.462V189.41H982.547V179.574ZM990.581 177.877H992.496V186.581L998.459 177.877H1000.37V189.41H998.459V180.706L992.496 189.41H990.581V177.877ZM1009.22 189.628C1007.21 189.628 1005.69 189.12 1004.65 188.105C1003.62 187.089 1003.1 185.646 1003.1 183.774V183.339C1003.1 181.555 1003.62 180.162 1004.65 179.161C1005.69 178.16 1007.21 177.66 1009.22 177.66V174.178H1011.13V177.66C1013.13 177.66 1014.65 178.16 1015.68 179.161C1016.72 180.162 1017.25 181.555 1017.25 183.339V183.774C1017.25 185.646 1016.72 187.089 1015.68 188.105C1014.65 189.12 1013.13 189.628 1011.13 189.628V193.762H1009.22V189.628ZM1015.29 183.339C1015.29 182.019 1014.95 181.032 1014.26 180.38C1013.6 179.727 1012.55 179.4 1011.11 179.4V187.887C1012.55 187.887 1013.6 187.553 1014.26 186.886C1014.95 186.219 1015.29 185.181 1015.29 183.774V183.339ZM1005.06 183.774C1005.06 185.181 1005.39 186.219 1006.06 186.886C1006.74 187.553 1007.8 187.887 1009.24 187.887V179.4C1007.8 179.4 1006.74 179.727 1006.06 180.38C1005.39 181.032 1005.06 182.019 1005.06 183.339V183.774ZM1019.97 177.877H1021.89V186.581L1027.85 177.877H1029.76V189.41H1027.85V180.706L1021.89 189.41H1019.97V177.877ZM1033.25 177.877H1035.17V182.708H1036.69L1041 177.877H1043.26L1038.26 183.404L1043.48 189.41H1041.04L1036.69 184.362H1035.17V189.41H1033.25V177.877ZM1048.84 189.628C1048.2 189.628 1047.64 189.541 1047.14 189.367C1046.67 189.178 1046.26 188.924 1045.93 188.605C1045.59 188.286 1045.34 187.909 1045.16 187.473C1044.99 187.038 1044.9 186.56 1044.9 186.037C1044.9 184.891 1045.24 184.064 1045.9 183.557C1046.59 183.049 1047.56 182.795 1048.82 182.795H1052.56V182.012C1052.56 181.025 1052.34 180.343 1051.89 179.966C1051.45 179.589 1050.79 179.4 1049.91 179.4C1049.08 179.4 1048.48 179.56 1048.1 179.879C1047.72 180.184 1047.51 180.532 1047.47 180.924H1045.56C1045.58 180.459 1045.71 180.031 1045.93 179.64C1046.16 179.234 1046.46 178.885 1046.84 178.595C1047.23 178.305 1047.7 178.08 1048.23 177.921C1048.77 177.747 1049.36 177.66 1050.02 177.66C1051.38 177.66 1052.46 177.986 1053.26 178.639C1054.07 179.277 1054.48 180.329 1054.48 181.794V186.473C1054.48 187.082 1054.48 187.619 1054.48 188.083C1054.49 188.532 1054.53 188.975 1054.59 189.41H1052.91C1052.87 189.076 1052.84 188.765 1052.82 188.474C1052.81 188.17 1052.8 187.829 1052.8 187.452C1052.5 188.061 1052 188.576 1051.32 188.997C1050.64 189.417 1049.81 189.628 1048.84 189.628ZM1049.26 187.887C1049.7 187.887 1050.13 187.829 1050.52 187.713C1050.92 187.582 1051.28 187.401 1051.58 187.169C1051.89 186.922 1052.13 186.625 1052.3 186.277C1052.48 185.929 1052.56 185.522 1052.56 185.058V184.275H1049.15C1048.44 184.275 1047.88 184.42 1047.47 184.71C1047.06 184.986 1046.86 185.428 1046.86 186.037C1046.86 186.574 1047.05 187.017 1047.43 187.365C1047.82 187.713 1048.43 187.887 1049.26 187.887ZM1060.28 179.574H1056.34V177.877H1066.13V179.574H1062.2V189.41H1060.28V179.574ZM1072.89 189.628C1072.15 189.628 1071.45 189.512 1070.78 189.28C1070.11 189.033 1069.52 188.67 1069.02 188.192C1068.51 187.698 1068.1 187.082 1067.8 186.342C1067.49 185.602 1067.34 184.739 1067.34 183.752V183.317C1067.34 182.389 1067.49 181.569 1067.8 180.858C1068.1 180.148 1068.51 179.56 1069.02 179.096C1069.52 178.617 1070.11 178.262 1070.78 178.029C1071.45 177.783 1072.15 177.66 1072.89 177.66C1073.63 177.66 1074.33 177.783 1075 178.029C1075.67 178.262 1076.26 178.617 1076.76 179.096C1077.27 179.56 1077.68 180.148 1077.98 180.858C1078.29 181.569 1078.44 182.389 1078.44 183.317V183.752C1078.44 184.739 1078.29 185.602 1077.98 186.342C1077.68 187.082 1077.27 187.698 1076.76 188.192C1076.26 188.67 1075.67 189.033 1075 189.28C1074.33 189.512 1073.63 189.628 1072.89 189.628ZM1072.89 187.887C1073.33 187.887 1073.76 187.814 1074.2 187.669C1074.63 187.51 1075.02 187.27 1075.35 186.951C1075.68 186.618 1075.95 186.19 1076.15 185.667C1076.37 185.145 1076.48 184.507 1076.48 183.752V183.317C1076.48 182.621 1076.37 182.026 1076.15 181.533C1075.95 181.04 1075.68 180.633 1075.35 180.314C1075.02 179.995 1074.63 179.763 1074.2 179.618C1073.76 179.473 1073.33 179.4 1072.89 179.4C1072.45 179.4 1072.02 179.473 1071.58 179.618C1071.15 179.763 1070.76 179.995 1070.43 180.314C1070.1 180.633 1069.82 181.04 1069.6 181.533C1069.4 182.026 1069.3 182.621 1069.3 183.317V183.752C1069.3 184.507 1069.4 185.145 1069.6 185.667C1069.82 186.19 1070.1 186.618 1070.43 186.951C1070.76 187.27 1071.15 187.51 1071.58 187.669C1072.02 187.814 1072.45 187.887 1072.89 187.887ZM1081.15 177.877H1082.93V180.053C1083.33 179.284 1083.87 178.697 1084.57 178.291C1085.28 177.87 1086.1 177.66 1087.03 177.66C1088.48 177.66 1089.64 178.138 1090.51 179.096C1091.38 180.039 1091.81 181.446 1091.81 183.317V183.752C1091.81 184.739 1091.7 185.602 1091.46 186.342C1091.23 187.067 1090.91 187.677 1090.49 188.17C1090.06 188.649 1089.56 189.011 1088.96 189.258C1088.38 189.504 1087.74 189.628 1087.03 189.628C1086.04 189.628 1085.21 189.41 1084.54 188.975C1083.89 188.54 1083.4 187.996 1083.07 187.343V193.762H1081.15V177.877ZM1086.59 187.93C1087.05 187.93 1087.49 187.843 1087.9 187.669C1088.3 187.481 1088.65 187.212 1088.94 186.864C1089.25 186.516 1089.48 186.081 1089.64 185.559C1089.81 185.036 1089.9 184.434 1089.9 183.752V183.317C1089.9 182.693 1089.81 182.135 1089.64 181.642C1089.48 181.148 1089.25 180.735 1088.94 180.401C1088.65 180.053 1088.3 179.792 1087.9 179.618C1087.49 179.444 1087.05 179.357 1086.59 179.357C1086.07 179.357 1085.59 179.444 1085.15 179.618C1084.72 179.778 1084.35 180.01 1084.04 180.314C1083.74 180.604 1083.5 180.953 1083.33 181.359C1083.15 181.765 1083.07 182.2 1083.07 182.664V184.405C1083.07 184.928 1083.15 185.406 1083.33 185.841C1083.5 186.277 1083.74 186.647 1084.04 186.951C1084.35 187.256 1084.72 187.495 1085.15 187.669C1085.59 187.843 1086.07 187.93 1086.59 187.93ZM1099.98 177.877H1101.89V186.581L1107.86 177.877H1109.77V189.41H1107.86V180.706L1101.89 189.41H1099.98V177.877ZM1113.26 177.877H1115.17V182.686H1121.14V177.877H1123.05V189.41H1121.14V184.384H1115.17V189.41H1113.26V177.877ZM1129.17 179.574H1125.24V177.877H1135.03V179.574H1131.09V189.41H1129.17V179.574ZM1141.78 189.628C1141.04 189.628 1140.34 189.512 1139.67 189.28C1139.01 189.047 1138.42 188.692 1137.91 188.213C1137.4 187.72 1137 187.104 1136.69 186.364C1136.39 185.624 1136.23 184.753 1136.23 183.752V183.317C1136.23 182.36 1136.38 181.533 1136.67 180.837C1136.96 180.126 1137.34 179.538 1137.82 179.074C1138.32 178.595 1138.88 178.24 1139.52 178.008C1140.17 177.776 1140.86 177.66 1141.57 177.66C1143.26 177.66 1144.58 178.124 1145.5 179.052C1146.43 179.981 1146.9 181.294 1146.9 182.991V184.209H1138.15C1138.15 184.891 1138.26 185.464 1138.48 185.929C1138.69 186.393 1138.98 186.77 1139.32 187.06C1139.67 187.35 1140.06 187.561 1140.48 187.691C1140.91 187.822 1141.35 187.887 1141.78 187.887C1142.65 187.887 1143.32 187.742 1143.79 187.452C1144.26 187.162 1144.61 186.763 1144.81 186.255H1146.68C1146.56 186.806 1146.35 187.292 1146.05 187.713C1145.76 188.134 1145.4 188.489 1144.96 188.779C1144.54 189.055 1144.05 189.265 1143.5 189.41C1142.97 189.555 1142.39 189.628 1141.78 189.628ZM1141.67 179.4C1141.22 179.4 1140.79 179.466 1140.37 179.596C1139.95 179.712 1139.57 179.908 1139.24 180.184C1138.92 180.445 1138.66 180.779 1138.45 181.185C1138.25 181.591 1138.15 182.077 1138.15 182.643H1145.09C1145.08 182.048 1144.97 181.547 1144.79 181.141C1144.61 180.721 1144.37 180.387 1144.07 180.14C1143.76 179.879 1143.4 179.691 1142.98 179.574C1142.57 179.458 1142.14 179.4 1141.67 179.4ZM1149.62 177.877H1151.4V180.053C1151.79 179.284 1152.34 178.697 1153.04 178.291C1153.75 177.87 1154.57 177.66 1155.49 177.66C1156.94 177.66 1158.11 178.138 1158.98 179.096C1159.85 180.039 1160.28 181.446 1160.28 183.317V183.752C1160.28 184.739 1160.17 185.602 1159.93 186.342C1159.7 187.067 1159.37 187.677 1158.95 188.17C1158.53 188.649 1158.03 189.011 1157.43 189.258C1156.85 189.504 1156.2 189.628 1155.49 189.628C1154.51 189.628 1153.68 189.41 1153.01 188.975C1152.36 188.54 1151.87 187.996 1151.53 187.343V193.762H1149.62V177.877ZM1155.06 187.93C1155.52 187.93 1155.96 187.843 1156.36 187.669C1156.77 187.481 1157.12 187.212 1157.41 186.864C1157.71 186.516 1157.95 186.081 1158.11 185.559C1158.28 185.036 1158.37 184.434 1158.37 183.752V183.317C1158.37 182.693 1158.28 182.135 1158.11 181.642C1157.95 181.148 1157.71 180.735 1157.41 180.401C1157.12 180.053 1156.77 179.792 1156.36 179.618C1155.96 179.444 1155.52 179.357 1155.06 179.357C1154.54 179.357 1154.06 179.444 1153.62 179.618C1153.19 179.778 1152.82 180.01 1152.51 180.314C1152.21 180.604 1151.97 180.953 1151.79 181.359C1151.62 181.765 1151.53 182.2 1151.53 182.664V184.405C1151.53 184.928 1151.62 185.406 1151.79 185.841C1151.97 186.277 1152.21 186.647 1152.51 186.951C1152.82 187.256 1153.19 187.495 1153.62 187.669C1154.06 187.843 1154.54 187.93 1155.06 187.93ZM1168.36 189.628C1166.36 189.628 1164.83 189.12 1163.79 188.105C1162.76 187.089 1162.24 185.646 1162.24 183.774V183.339C1162.24 181.555 1162.76 180.162 1163.79 179.161C1164.83 178.16 1166.36 177.66 1168.36 177.66V174.178H1170.27V177.66C1172.28 177.66 1173.79 178.16 1174.82 179.161C1175.87 180.162 1176.39 181.555 1176.39 183.339V183.774C1176.39 185.646 1175.87 187.089 1174.82 188.105C1173.79 189.12 1172.28 189.628 1170.27 189.628V193.762H1168.36V189.628ZM1174.43 183.339C1174.43 182.019 1174.09 181.032 1173.41 180.38C1172.74 179.727 1171.69 179.4 1170.25 179.4V187.887C1171.69 187.887 1172.74 187.553 1173.41 186.886C1174.09 186.219 1174.43 185.181 1174.43 183.774V183.339ZM1164.2 183.774C1164.2 185.181 1164.54 186.219 1165.2 186.886C1165.89 187.553 1166.95 187.887 1168.38 187.887V179.4C1166.95 179.4 1165.89 179.727 1165.2 180.38C1164.54 181.032 1164.2 182.019 1164.2 183.339V183.774ZM1183.9 189.628C1183.16 189.628 1182.46 189.512 1181.79 189.28C1181.12 189.047 1180.54 188.692 1180.03 188.213C1179.52 187.72 1179.11 187.104 1178.81 186.364C1178.51 185.624 1178.35 184.753 1178.35 183.752V183.317C1178.35 182.36 1178.5 181.533 1178.79 180.837C1179.08 180.126 1179.46 179.538 1179.94 179.074C1180.43 178.595 1181 178.24 1181.64 178.008C1182.29 177.776 1182.97 177.66 1183.68 177.66C1185.38 177.66 1186.69 178.124 1187.62 179.052C1188.55 179.981 1189.02 181.294 1189.02 182.991V184.209H1180.27C1180.27 184.891 1180.38 185.464 1180.59 185.929C1180.81 186.393 1181.09 186.77 1181.44 187.06C1181.79 187.35 1182.18 187.561 1182.6 187.691C1183.03 187.822 1183.47 187.887 1183.9 187.887C1184.77 187.887 1185.44 187.742 1185.9 187.452C1186.38 187.162 1186.72 186.763 1186.93 186.255H1188.8C1188.68 186.806 1188.47 187.292 1188.17 187.713C1187.88 188.134 1187.51 188.489 1187.08 188.779C1186.66 189.055 1186.17 189.265 1185.62 189.41C1185.08 189.555 1184.51 189.628 1183.9 189.628ZM1183.79 179.4C1183.34 179.4 1182.91 179.466 1182.49 179.596C1182.07 179.712 1181.69 179.908 1181.36 180.184C1181.04 180.445 1180.78 180.779 1180.57 181.185C1180.37 181.591 1180.27 182.077 1180.27 182.643H1187.21C1187.19 182.048 1187.09 181.547 1186.9 181.141C1186.73 180.721 1186.49 180.387 1186.19 180.14C1185.88 179.879 1185.52 179.691 1185.1 179.574C1184.69 179.458 1184.26 179.4 1183.79 179.4ZM1191.74 177.877H1193.65V186.581L1199.61 177.877H1201.53V189.41H1199.61V180.706L1193.65 189.41H1191.74V177.877ZM1196.63 176.463C1195.5 176.463 1194.67 176.223 1194.15 175.745C1193.63 175.251 1193.37 174.548 1193.37 173.634H1195.24C1195.24 174.62 1195.7 175.114 1196.63 175.114C1197.59 175.114 1198.07 174.62 1198.07 173.634H1199.9C1199.9 174.548 1199.64 175.251 1199.11 175.745C1198.59 176.223 1197.76 176.463 1196.63 176.463ZM1209.48 189.628C1208.74 189.628 1208.05 189.512 1207.41 189.28C1206.77 189.033 1206.22 188.67 1205.76 188.192C1205.29 187.698 1204.92 187.082 1204.65 186.342C1204.39 185.602 1204.26 184.739 1204.26 183.752V183.317C1204.26 182.389 1204.4 181.569 1204.69 180.858C1204.98 180.148 1205.37 179.56 1205.85 179.096C1206.32 178.617 1206.88 178.262 1207.5 178.029C1208.14 177.783 1208.8 177.66 1209.48 177.66C1210.16 177.66 1210.77 177.754 1211.31 177.942C1211.86 178.131 1212.33 178.392 1212.72 178.726C1213.13 179.059 1213.45 179.451 1213.7 179.901C1213.96 180.351 1214.15 180.837 1214.27 181.359H1212.31C1212.19 181.083 1212.05 180.829 1211.89 180.597C1211.75 180.351 1211.56 180.14 1211.33 179.966C1211.11 179.792 1210.85 179.654 1210.55 179.553C1210.24 179.451 1209.89 179.4 1209.48 179.4C1209.06 179.4 1208.65 179.48 1208.26 179.64C1207.87 179.785 1207.52 180.017 1207.22 180.336C1206.91 180.641 1206.67 181.04 1206.48 181.533C1206.3 182.026 1206.22 182.621 1206.22 183.317V183.752C1206.22 184.492 1206.3 185.131 1206.48 185.667C1206.67 186.19 1206.91 186.618 1207.22 186.951C1207.52 187.27 1207.87 187.51 1208.26 187.669C1208.65 187.814 1209.06 187.887 1209.48 187.887C1210.19 187.887 1210.79 187.713 1211.26 187.365C1211.76 187.017 1212.11 186.538 1212.31 185.929H1214.27C1213.99 187.075 1213.43 187.981 1212.57 188.649C1211.71 189.301 1210.68 189.628 1209.48 189.628ZM1220.16 189.628C1219.52 189.628 1218.96 189.541 1218.46 189.367C1217.99 189.178 1217.58 188.924 1217.25 188.605C1216.91 188.286 1216.66 187.909 1216.48 187.473C1216.31 187.038 1216.22 186.56 1216.22 186.037C1216.22 184.891 1216.56 184.064 1217.22 183.557C1217.91 183.049 1218.88 182.795 1220.14 182.795H1223.88V182.012C1223.88 181.025 1223.66 180.343 1223.21 179.966C1222.77 179.589 1222.11 179.4 1221.23 179.4C1220.4 179.4 1219.8 179.56 1219.42 179.879C1219.04 180.184 1218.83 180.532 1218.79 180.924H1216.88C1216.91 180.459 1217.03 180.031 1217.25 179.64C1217.48 179.234 1217.78 178.885 1218.16 178.595C1218.55 178.305 1219.02 178.08 1219.55 177.921C1220.09 177.747 1220.68 177.66 1221.34 177.66C1222.7 177.66 1223.78 177.986 1224.58 178.639C1225.39 179.277 1225.8 180.329 1225.8 181.794V186.473C1225.8 187.082 1225.8 187.619 1225.8 188.083C1225.81 188.532 1225.85 188.975 1225.91 189.41H1224.23C1224.19 189.076 1224.16 188.765 1224.14 188.474C1224.13 188.17 1224.12 187.829 1224.12 187.452C1223.82 188.061 1223.32 188.576 1222.64 188.997C1221.96 189.417 1221.13 189.628 1220.16 189.628ZM1220.58 187.887C1221.03 187.887 1221.45 187.829 1221.84 187.713C1222.24 187.582 1222.6 187.401 1222.9 187.169C1223.21 186.922 1223.45 186.625 1223.62 186.277C1223.8 185.929 1223.88 185.522 1223.88 185.058V184.275H1220.47C1219.76 184.275 1219.2 184.42 1218.79 184.71C1218.38 184.986 1218.18 185.428 1218.18 186.037C1218.18 186.574 1218.37 187.017 1218.75 187.365C1219.14 187.713 1219.75 187.887 1220.58 187.887Z" fill="black"/>
<rect x="850" y="148.41" width="450" height="65" stroke="black"/>
<path d="M205.048 294H203.416V292.303H205.048V292.085C205.048 290.881 205.324 289.982 205.875 289.387C206.441 288.792 207.325 288.495 208.53 288.495C208.965 288.495 209.509 288.517 210.162 288.56V290.301C209.944 290.272 209.705 290.257 209.443 290.257C209.197 290.243 208.965 290.236 208.747 290.236C208.08 290.236 207.616 290.374 207.354 290.649C207.093 290.91 206.963 291.389 206.963 292.085V292.303H209.944V294H206.963V303.836H205.048V294ZM216.917 304.054C216.178 304.054 215.474 303.937 214.807 303.705C214.139 303.473 213.552 303.118 213.044 302.639C212.536 302.146 212.13 301.529 211.826 300.789C211.521 300.05 211.369 299.179 211.369 298.178V297.743C211.369 296.786 211.514 295.959 211.804 295.262C212.094 294.552 212.478 293.964 212.957 293.5C213.45 293.021 214.016 292.666 214.654 292.434C215.307 292.201 215.989 292.085 216.7 292.085C218.397 292.085 219.71 292.55 220.638 293.478C221.567 294.406 222.031 295.719 222.031 297.417V298.635H213.283C213.283 299.317 213.392 299.89 213.61 300.354C213.827 300.819 214.11 301.196 214.459 301.486C214.807 301.776 215.191 301.986 215.612 302.117C216.047 302.247 216.482 302.313 216.917 302.313C217.788 302.313 218.455 302.168 218.919 301.878C219.398 301.587 219.739 301.188 219.942 300.681H221.814C221.697 301.232 221.487 301.718 221.182 302.139C220.892 302.559 220.53 302.915 220.094 303.205C219.674 303.481 219.188 303.691 218.637 303.836C218.1 303.981 217.527 304.054 216.917 304.054ZM216.809 293.826C216.359 293.826 215.924 293.891 215.503 294.022C215.082 294.138 214.705 294.334 214.372 294.61C214.052 294.871 213.791 295.204 213.588 295.611C213.385 296.017 213.283 296.503 213.283 297.068H220.225C220.211 296.474 220.109 295.973 219.92 295.567C219.746 295.146 219.507 294.813 219.202 294.566C218.898 294.305 218.535 294.116 218.114 294C217.708 293.884 217.273 293.826 216.809 293.826ZM229.649 304.054C228.75 304.054 227.959 303.945 227.277 303.727C226.595 303.51 226.022 303.212 225.558 302.835C225.108 302.458 224.767 302.015 224.535 301.508C224.318 300.985 224.209 300.42 224.209 299.81C224.209 298.94 224.485 298.164 225.036 297.482C225.587 296.786 226.399 296.292 227.473 296.002C227.081 295.872 226.711 295.698 226.363 295.48C226.03 295.248 225.732 294.979 225.471 294.675C225.21 294.37 225.007 294.029 224.862 293.652C224.717 293.26 224.644 292.847 224.644 292.412C224.644 291.846 224.753 291.316 224.97 290.823C225.188 290.33 225.507 289.909 225.928 289.561C226.349 289.198 226.871 288.916 227.495 288.712C228.118 288.495 228.837 288.386 229.649 288.386C230.461 288.386 231.179 288.495 231.803 288.712C232.427 288.916 232.949 289.198 233.37 289.561C233.791 289.909 234.11 290.33 234.327 290.823C234.545 291.316 234.654 291.846 234.654 292.412C234.654 293.282 234.378 294.022 233.827 294.631C233.29 295.241 232.623 295.698 231.825 296.002C232.913 296.365 233.725 296.844 234.262 297.438C234.813 298.033 235.089 298.824 235.089 299.81C235.089 300.42 234.973 300.985 234.741 301.508C234.523 302.015 234.182 302.458 233.718 302.835C233.268 303.212 232.703 303.51 232.021 303.727C231.339 303.945 230.548 304.054 229.649 304.054ZM229.649 302.226C230.273 302.226 230.802 302.16 231.237 302.03C231.673 301.885 232.021 301.703 232.282 301.486C232.558 301.254 232.753 300.985 232.87 300.681C232.986 300.362 233.044 300.028 233.044 299.68C233.044 299.274 232.957 298.904 232.782 298.57C232.623 298.236 232.391 297.946 232.086 297.7C231.781 297.438 231.419 297.235 230.998 297.09C230.592 296.931 230.142 296.822 229.649 296.764C229.156 296.822 228.699 296.931 228.278 297.09C227.872 297.235 227.516 297.431 227.212 297.678C226.907 297.924 226.668 298.222 226.494 298.57C226.334 298.904 226.254 299.274 226.254 299.68C226.254 300.028 226.312 300.362 226.428 300.681C226.544 300.985 226.733 301.254 226.994 301.486C227.27 301.703 227.625 301.885 228.06 302.03C228.496 302.16 229.025 302.226 229.649 302.226ZM229.649 295.241C230.519 295.125 231.23 294.849 231.781 294.414C232.333 293.964 232.608 293.333 232.608 292.521C232.608 291.781 232.362 291.215 231.869 290.823C231.39 290.417 230.65 290.214 229.649 290.214C228.633 290.214 227.886 290.417 227.408 290.823C226.929 291.215 226.69 291.781 226.69 292.521C226.69 293.333 226.965 293.964 227.516 294.414C228.068 294.849 228.779 295.125 229.649 295.241ZM243.039 304.054C242.299 304.054 241.596 303.93 240.928 303.684C240.276 303.437 239.703 303.016 239.209 302.422C238.716 301.812 238.324 301.007 238.034 300.006C237.744 298.991 237.599 297.729 237.599 296.22V295.785C237.599 294.377 237.744 293.202 238.034 292.259C238.324 291.316 238.716 290.562 239.209 289.996C239.703 289.416 240.276 289.003 240.928 288.756C241.596 288.509 242.299 288.386 243.039 288.386C243.779 288.386 244.475 288.509 245.128 288.756C245.796 289.003 246.376 289.416 246.869 289.996C247.362 290.562 247.754 291.316 248.044 292.259C248.334 293.202 248.479 294.377 248.479 295.785V296.22C248.479 297.729 248.334 298.991 248.044 300.006C247.754 301.007 247.362 301.812 246.869 302.422C246.376 303.016 245.796 303.437 245.128 303.684C244.475 303.93 243.779 304.054 243.039 304.054ZM243.039 302.269C243.489 302.269 243.917 302.189 244.323 302.03C244.744 301.856 245.106 301.551 245.411 301.116C245.73 300.666 245.977 300.05 246.151 299.266C246.34 298.483 246.434 297.467 246.434 296.22V295.785C246.434 294.653 246.34 293.725 246.151 292.999C245.977 292.274 245.73 291.701 245.411 291.28C245.106 290.86 244.744 290.569 244.323 290.41C243.917 290.25 243.489 290.17 243.039 290.17C242.575 290.17 242.14 290.25 241.734 290.41C241.327 290.569 240.965 290.86 240.646 291.28C240.341 291.701 240.094 292.274 239.906 292.999C239.732 293.725 239.645 294.653 239.645 295.785V296.22C239.645 297.467 239.732 298.483 239.906 299.266C240.094 300.05 240.341 300.666 240.646 301.116C240.965 301.551 241.327 301.856 241.734 302.03C242.14 302.189 242.575 302.269 243.039 302.269ZM253.052 304.054C252.631 304.054 252.268 303.908 251.964 303.618C251.673 303.314 251.528 302.951 251.528 302.53C251.528 302.095 251.673 301.732 251.964 301.442C252.268 301.152 252.631 301.007 253.052 301.007C253.472 301.007 253.828 301.152 254.118 301.442C254.422 301.732 254.575 302.095 254.575 302.53C254.575 302.951 254.422 303.314 254.118 303.618C253.828 303.908 253.472 304.054 253.052 304.054ZM253.052 295.132C252.631 295.132 252.268 294.987 251.964 294.697C251.673 294.392 251.528 294.029 251.528 293.609C251.528 293.173 251.673 292.811 251.964 292.521C252.268 292.23 252.631 292.085 253.052 292.085C253.472 292.085 253.828 292.23 254.118 292.521C254.422 292.811 254.575 293.173 254.575 293.609C254.575 294.029 254.422 294.392 254.118 294.697C253.828 294.987 253.472 295.132 253.052 295.132ZM259.575 304.054C259.155 304.054 258.792 303.908 258.487 303.618C258.197 303.314 258.052 302.951 258.052 302.53C258.052 302.095 258.197 301.732 258.487 301.442C258.792 301.152 259.155 301.007 259.575 301.007C259.996 301.007 260.352 301.152 260.642 301.442C260.946 301.732 261.099 302.095 261.099 302.53C261.099 302.951 260.946 303.314 260.642 303.618C260.352 303.908 259.996 304.054 259.575 304.054ZM259.575 295.132C259.155 295.132 258.792 294.987 258.487 294.697C258.197 294.392 258.052 294.029 258.052 293.609C258.052 293.173 258.197 292.811 258.487 292.521C258.792 292.23 259.155 292.085 259.575 292.085C259.996 292.085 260.352 292.23 260.642 292.521C260.946 292.811 261.099 293.173 261.099 293.609C261.099 294.029 260.946 294.392 260.642 294.697C260.352 294.987 259.996 295.132 259.575 295.132ZM270.582 288.604H272.41L265.533 308.188H263.706L270.582 288.604ZM274.487 302.052H278.121V290.845L274.487 293.434V291.215L278.165 288.604H280.21V302.052H283.191V303.836H274.487V302.052ZM290.597 304.054C289.858 304.054 289.154 303.93 288.487 303.684C287.834 303.437 287.261 303.016 286.768 302.422C286.274 301.812 285.883 301.007 285.593 300.006C285.302 298.991 285.157 297.729 285.157 296.22V295.785C285.157 294.377 285.302 293.202 285.593 292.259C285.883 291.316 286.274 290.562 286.768 289.996C287.261 289.416 287.834 289.003 288.487 288.756C289.154 288.509 289.858 288.386 290.597 288.386C291.337 288.386 292.034 288.509 292.686 288.756C293.354 289.003 293.934 289.416 294.427 289.996C294.921 290.562 295.312 291.316 295.602 292.259C295.893 293.202 296.038 294.377 296.038 295.785V296.22C296.038 297.729 295.893 298.991 295.602 300.006C295.312 301.007 294.921 301.812 294.427 302.422C293.934 303.016 293.354 303.437 292.686 303.684C292.034 303.93 291.337 304.054 290.597 304.054ZM290.597 302.269C291.047 302.269 291.475 302.189 291.881 302.03C292.302 301.856 292.665 301.551 292.969 301.116C293.289 300.666 293.535 300.05 293.709 299.266C293.898 298.483 293.992 297.467 293.992 296.22V295.785C293.992 294.653 293.898 293.725 293.709 292.999C293.535 292.274 293.289 291.701 292.969 291.28C292.665 290.86 292.302 290.569 291.881 290.41C291.475 290.25 291.047 290.17 290.597 290.17C290.133 290.17 289.698 290.25 289.292 290.41C288.886 290.569 288.523 290.86 288.204 291.28C287.899 291.701 287.653 292.274 287.464 292.999C287.29 293.725 287.203 294.653 287.203 295.785V296.22C287.203 297.467 287.29 298.483 287.464 299.266C287.653 300.05 287.899 300.666 288.204 301.116C288.523 301.551 288.886 301.856 289.292 302.03C289.698 302.189 290.133 302.269 290.597 302.269Z" fill="black"/>
<path d="M1041.52 241.138C1040.68 241.138 1039.92 241 1039.24 240.724C1038.55 240.448 1037.97 240.028 1037.47 239.462C1037 238.882 1036.63 238.156 1036.36 237.286C1036.1 236.416 1035.97 235.378 1035.97 234.174V233.739C1035.97 232.245 1036.12 230.975 1036.43 229.931C1036.73 228.872 1037.15 228.016 1037.67 227.363C1038.19 226.696 1038.8 226.217 1039.5 225.927C1040.19 225.622 1040.94 225.47 1041.74 225.47C1042.91 225.47 1043.9 225.753 1044.7 226.319C1045.51 226.87 1046.05 227.711 1046.31 228.843H1044.26C1043.86 227.813 1043.02 227.298 1041.74 227.298C1041.19 227.298 1040.68 227.392 1040.22 227.581C1039.75 227.769 1039.35 228.081 1039 228.517C1038.66 228.952 1038.4 229.532 1038.19 230.257C1037.99 230.983 1037.87 231.889 1037.84 232.977C1038.05 232.629 1038.29 232.332 1038.58 232.085C1038.87 231.824 1039.19 231.621 1039.52 231.476C1039.87 231.316 1040.22 231.2 1040.59 231.128C1040.95 231.055 1041.3 231.019 1041.63 231.019C1043.15 231.019 1044.36 231.447 1045.26 232.303C1046.18 233.144 1046.64 234.356 1046.64 235.937V236.154C1046.64 236.88 1046.5 237.547 1046.22 238.156C1045.96 238.766 1045.6 239.295 1045.13 239.745C1044.67 240.18 1044.13 240.521 1043.5 240.768C1042.88 241.014 1042.22 241.138 1041.52 241.138ZM1041.35 239.31C1042.41 239.31 1043.21 239.041 1043.76 238.505C1044.31 237.968 1044.59 237.192 1044.59 236.176V235.959C1044.59 234.958 1044.31 234.189 1043.76 233.652C1043.21 233.115 1042.41 232.847 1041.35 232.847C1040.29 232.847 1039.48 233.115 1038.93 233.652C1038.38 234.189 1038.1 234.958 1038.1 235.959V236.176C1038.1 237.177 1038.38 237.953 1038.93 238.505C1039.48 239.041 1040.29 239.31 1041.35 239.31ZM1056.02 237.242H1048.28V235.676L1055.81 225.688H1058.07V235.458H1060.03V237.242H1058.07V240.92H1056.02V237.242ZM1056.02 235.458V228.081L1050.45 235.458H1056.02ZM1073.09 241.138C1072.32 241.138 1071.6 240.992 1070.94 240.702C1070.28 240.412 1069.71 239.991 1069.22 239.44C1068.74 238.874 1068.36 238.185 1068.07 237.373C1067.79 236.561 1067.65 235.639 1067.65 234.609V234.174C1067.65 232.869 1067.75 231.708 1067.93 230.693C1068.12 229.663 1068.44 228.792 1068.89 228.081C1069.36 227.356 1069.96 226.79 1070.7 226.384C1071.45 225.978 1072.4 225.746 1073.53 225.688C1074.44 225.644 1075.24 225.608 1075.92 225.579C1076.6 225.535 1077.18 225.39 1077.66 225.144V226.993C1077.43 227.124 1077 227.225 1076.38 227.298C1075.77 227.37 1074.93 227.421 1073.85 227.45C1073.16 227.465 1072.54 227.552 1072 227.711C1071.48 227.871 1071.03 228.125 1070.65 228.473C1070.29 228.821 1070 229.278 1069.78 229.844C1069.58 230.395 1069.45 231.077 1069.39 231.889C1069.74 231.121 1070.28 230.511 1071 230.062C1071.73 229.612 1072.57 229.387 1073.53 229.387C1074.27 229.387 1074.94 229.517 1075.55 229.779C1076.16 230.025 1076.68 230.381 1077.12 230.845C1077.57 231.309 1077.92 231.882 1078.16 232.564C1078.41 233.231 1078.53 233.986 1078.53 234.827V235.262C1078.53 236.162 1078.39 236.974 1078.12 237.699C1077.84 238.41 1077.47 239.027 1076.99 239.549C1076.51 240.057 1075.94 240.448 1075.27 240.724C1074.6 241 1073.88 241.138 1073.09 241.138ZM1073.09 239.397C1074.11 239.397 1074.94 239.049 1075.59 238.352C1076.25 237.641 1076.57 236.611 1076.57 235.262V234.827C1076.57 234.261 1076.49 233.754 1076.31 233.304C1076.14 232.854 1075.9 232.47 1075.59 232.151C1075.29 231.817 1074.92 231.563 1074.48 231.389C1074.06 231.215 1073.6 231.128 1073.09 231.128C1072.58 231.128 1072.11 231.215 1071.68 231.389C1071.26 231.563 1070.89 231.817 1070.59 232.151C1070.28 232.47 1070.05 232.854 1069.87 233.304C1069.7 233.754 1069.61 234.261 1069.61 234.827V235.262C1069.61 235.901 1069.7 236.481 1069.87 237.003C1070.06 237.511 1070.31 237.946 1070.63 238.309C1070.95 238.657 1071.32 238.925 1071.74 239.114C1072.16 239.302 1072.61 239.397 1073.09 239.397ZM1081.25 229.387H1083.16V238.091L1089.12 229.387H1091.04V240.92H1089.12V232.216L1083.16 240.92H1081.25V229.387ZM1097.16 231.084H1093.22V229.387H1103.01V231.084H1099.08V240.92H1097.16V231.084ZM1108.06 241.138C1107.42 241.138 1106.85 241.05 1106.36 240.876C1105.88 240.688 1105.47 240.434 1105.14 240.115C1104.81 239.796 1104.55 239.418 1104.38 238.983C1104.2 238.548 1104.12 238.069 1104.12 237.547C1104.12 236.401 1104.45 235.574 1105.12 235.066C1105.8 234.559 1106.77 234.305 1108.03 234.305H1111.78V233.521C1111.78 232.535 1111.55 231.853 1111.1 231.476C1110.67 231.099 1110.01 230.91 1109.12 230.91C1108.3 230.91 1107.69 231.07 1107.32 231.389C1106.94 231.694 1106.73 232.042 1106.68 232.433H1104.77C1104.8 231.969 1104.92 231.541 1105.14 231.15C1105.37 230.743 1105.68 230.395 1106.05 230.105C1106.45 229.815 1106.91 229.59 1107.45 229.43C1107.98 229.256 1108.58 229.169 1109.23 229.169C1110.59 229.169 1111.68 229.496 1112.47 230.149C1113.29 230.787 1113.69 231.839 1113.69 233.304V237.982C1113.69 238.592 1113.69 239.128 1113.69 239.593C1113.71 240.042 1113.74 240.485 1113.8 240.92H1112.13C1112.08 240.586 1112.05 240.274 1112.04 239.984C1112.02 239.68 1112.02 239.339 1112.02 238.961C1111.71 239.571 1111.22 240.086 1110.54 240.506C1109.85 240.927 1109.03 241.138 1108.06 241.138ZM1108.47 239.397C1108.92 239.397 1109.34 239.339 1109.73 239.223C1110.14 239.092 1110.49 238.911 1110.8 238.679C1111.1 238.432 1111.34 238.135 1111.52 237.786C1111.69 237.438 1111.78 237.032 1111.78 236.568V235.784H1108.36C1107.65 235.784 1107.09 235.93 1106.68 236.22C1106.28 236.495 1106.08 236.938 1106.08 237.547C1106.08 238.084 1106.26 238.526 1106.64 238.874C1107.03 239.223 1107.64 239.397 1108.47 239.397Z" fill="black"/>
<path d="M973.339 302.054C972.483 302.054 971.67 301.908 970.902 301.618C970.133 301.314 969.451 300.849 968.856 300.226C968.261 299.587 967.79 298.782 967.442 297.81C967.094 296.838 966.919 295.678 966.919 294.329V293.893C966.919 292.588 967.094 291.464 967.442 290.521C967.79 289.578 968.261 288.801 968.856 288.192C969.451 287.583 970.133 287.133 970.902 286.843C971.67 286.538 972.483 286.386 973.339 286.386C974.166 286.386 974.92 286.495 975.602 286.712C976.298 286.93 976.907 287.242 977.43 287.648C977.952 288.054 978.373 288.555 978.692 289.15C979.025 289.744 979.236 290.419 979.323 291.173H977.147C976.944 290.187 976.516 289.447 975.863 288.954C975.21 288.461 974.369 288.214 973.339 288.214C972.802 288.214 972.28 288.316 971.772 288.519C971.264 288.722 970.807 289.048 970.401 289.498C970.009 289.933 969.69 290.513 969.444 291.239C969.212 291.964 969.096 292.849 969.096 293.893V294.329C969.096 295.431 969.226 296.36 969.487 297.114C969.748 297.854 970.082 298.456 970.488 298.92C970.894 299.384 971.351 299.718 971.859 299.921C972.367 300.124 972.86 300.226 973.339 300.226C974.47 300.226 975.355 299.95 975.994 299.399C976.632 298.848 977.016 298.137 977.147 297.266H979.323C979.207 298.108 978.975 298.833 978.627 299.442C978.278 300.037 977.836 300.53 977.299 300.922C976.777 301.314 976.175 301.604 975.493 301.792C974.826 301.966 974.108 302.054 973.339 302.054ZM980.942 302.054C980.725 302.054 980.507 302.032 980.289 301.988V300.073C980.362 300.088 980.471 300.095 980.616 300.095C980.935 300.095 981.211 299.994 981.443 299.79C981.689 299.587 981.885 299.232 982.03 298.724C982.175 298.216 982.284 297.527 982.357 296.657C982.429 295.787 982.465 294.684 982.465 293.349V290.303H990.734V301.836H988.819V292H984.38V293.785C984.38 295.395 984.308 296.73 984.163 297.789C984.018 298.848 983.8 299.696 983.51 300.334C983.234 300.958 982.879 301.401 982.444 301.662C982.008 301.923 981.508 302.054 980.942 302.054ZM995.738 306.406C995.521 306.406 995.303 306.384 995.086 306.34V304.6C995.303 304.643 995.521 304.665 995.738 304.665C995.956 304.665 996.145 304.629 996.304 304.556C996.464 304.483 996.616 304.346 996.761 304.143C996.906 303.939 997.058 303.649 997.218 303.272C997.392 302.909 997.588 302.431 997.806 301.836L992.91 290.303H995.042L998.785 299.66L1002.18 290.303H1004.22L999.873 301.836C999.568 302.648 999.278 303.345 999.002 303.925C998.727 304.505 998.429 304.977 998.11 305.339C997.806 305.717 997.465 305.985 997.087 306.144C996.71 306.319 996.261 306.406 995.738 306.406ZM1013.28 297.245C1012.95 297.448 1012.54 297.629 1012.07 297.789C1011.6 297.948 1011.01 298.028 1010.3 298.028C1009.64 298.028 1009.03 297.955 1008.5 297.81C1007.97 297.665 1007.53 297.433 1007.17 297.114C1006.81 296.795 1006.53 296.381 1006.34 295.874C1006.15 295.366 1006.06 294.742 1006.06 294.002V290.303H1007.97V293.676C1007.97 294.169 1008.02 294.582 1008.11 294.916C1008.21 295.25 1008.37 295.518 1008.58 295.721C1008.8 295.924 1009.08 296.069 1009.41 296.156C1009.74 296.244 1010.15 296.287 1010.63 296.287C1011.28 296.287 1011.84 296.222 1012.31 296.091C1012.77 295.961 1013.1 295.823 1013.28 295.678V290.303H1015.2V301.836H1013.28V297.245ZM1021.96 302.054C1021.32 302.054 1020.76 301.966 1020.26 301.792C1019.78 301.604 1019.38 301.35 1019.04 301.031C1018.71 300.712 1018.46 300.334 1018.28 299.899C1018.11 299.464 1018.02 298.985 1018.02 298.463C1018.02 297.317 1018.36 296.49 1019.02 295.982C1019.7 295.475 1020.68 295.221 1021.94 295.221H1025.68V294.437C1025.68 293.451 1025.46 292.769 1025.01 292.392C1024.57 292.015 1023.91 291.826 1023.03 291.826C1022.2 291.826 1021.6 291.986 1021.22 292.305C1020.84 292.61 1020.63 292.958 1020.59 293.349H1018.67C1018.7 292.885 1018.83 292.457 1019.04 292.066C1019.28 291.659 1019.58 291.311 1019.96 291.021C1020.35 290.731 1020.81 290.506 1021.35 290.346C1021.89 290.172 1022.48 290.085 1023.14 290.085C1024.5 290.085 1025.58 290.412 1026.38 291.065C1027.19 291.703 1027.6 292.755 1027.6 294.22V298.898C1027.6 299.508 1027.6 300.044 1027.6 300.509C1027.61 300.958 1027.65 301.401 1027.7 301.836H1026.03C1025.99 301.502 1025.96 301.19 1025.94 300.9C1025.93 300.596 1025.92 300.255 1025.92 299.878C1025.62 300.487 1025.12 301.002 1024.44 301.422C1023.76 301.843 1022.93 302.054 1021.96 302.054ZM1022.37 300.313C1022.82 300.313 1023.24 300.255 1023.64 300.139C1024.04 300.008 1024.4 299.827 1024.7 299.595C1025.01 299.348 1025.25 299.051 1025.42 298.702C1025.59 298.354 1025.68 297.948 1025.68 297.484V296.7H1022.26C1021.55 296.7 1021 296.846 1020.59 297.136C1020.18 297.411 1019.98 297.854 1019.98 298.463C1019.98 299 1020.17 299.442 1020.55 299.79C1020.94 300.139 1021.55 300.313 1022.37 300.313ZM1030.98 290.303H1032.89V299.007L1038.86 290.303H1040.77V301.836H1038.86V293.132L1032.89 301.836H1030.98V290.303ZM1035.87 288.889C1034.74 288.889 1033.92 288.649 1033.39 288.17C1032.87 287.677 1032.61 286.974 1032.61 286.06H1034.48C1034.48 287.046 1034.95 287.539 1035.87 287.539C1036.83 287.539 1037.31 287.046 1037.31 286.06H1039.14C1039.14 286.974 1038.88 287.677 1038.35 288.17C1037.83 288.649 1037.01 288.889 1035.87 288.889ZM1044.26 290.303H1046.17V295.112H1052.14V290.303H1054.05V301.836H1052.14V296.809H1046.17V301.836H1044.26V290.303ZM1057.54 290.303H1059.46V294.655H1061.78C1063.24 294.655 1064.3 294.974 1064.98 295.612C1065.68 296.251 1066.03 297.136 1066.03 298.267C1066.03 299.37 1065.68 300.24 1064.98 300.878C1064.3 301.517 1063.24 301.836 1061.78 301.836H1057.54V290.303ZM1061.68 300.139C1062.58 300.139 1063.21 299.979 1063.57 299.66C1063.93 299.341 1064.11 298.869 1064.11 298.245C1064.11 297.622 1063.93 297.15 1063.57 296.831C1063.21 296.512 1062.58 296.352 1061.68 296.352H1059.46V300.139H1061.68ZM1067.81 290.303H1069.73V301.836H1067.81V290.303ZM1073.2 290.303H1075.25L1079.36 297.484L1083.47 290.303H1085.39V301.836H1083.47V293.458L1080.06 299.333H1078.53L1075.12 293.458V301.836H1073.2V290.303ZM1099.09 302.054C1098.35 302.054 1097.65 301.937 1096.98 301.705C1096.31 301.459 1095.73 301.096 1095.22 300.617C1094.71 300.124 1094.3 299.508 1094 298.768C1093.69 298.028 1093.54 297.165 1093.54 296.178V295.743C1093.54 294.815 1093.69 293.995 1094 293.284C1094.3 292.573 1094.71 291.986 1095.22 291.522C1095.73 291.043 1096.31 290.687 1096.98 290.455C1097.65 290.209 1098.35 290.085 1099.09 290.085C1099.83 290.085 1100.53 290.209 1101.2 290.455C1101.87 290.687 1102.46 291.043 1102.96 291.522C1103.47 291.986 1103.88 292.573 1104.18 293.284C1104.49 293.995 1104.64 294.815 1104.64 295.743V296.178C1104.64 297.165 1104.49 298.028 1104.18 298.768C1103.88 299.508 1103.47 300.124 1102.96 300.617C1102.46 301.096 1101.87 301.459 1101.2 301.705C1100.53 301.937 1099.83 302.054 1099.09 302.054ZM1099.09 300.313C1099.53 300.313 1099.96 300.24 1100.4 300.095C1100.83 299.936 1101.22 299.696 1101.55 299.377C1101.88 299.043 1102.15 298.615 1102.36 298.093C1102.57 297.571 1102.68 296.933 1102.68 296.178V295.743C1102.68 295.047 1102.57 294.452 1102.36 293.959C1102.15 293.465 1101.88 293.059 1101.55 292.74C1101.22 292.421 1100.83 292.189 1100.4 292.044C1099.96 291.899 1099.53 291.826 1099.09 291.826C1098.66 291.826 1098.22 291.899 1097.79 292.044C1097.35 292.189 1096.97 292.421 1096.63 292.74C1096.3 293.059 1096.02 293.465 1095.81 293.959C1095.6 294.452 1095.5 295.047 1095.5 295.743V296.178C1095.5 296.933 1095.6 297.571 1095.81 298.093C1096.02 298.615 1096.3 299.043 1096.63 299.377C1096.97 299.696 1097.35 299.936 1097.79 300.095C1098.22 300.24 1098.66 300.313 1099.09 300.313ZM1112.14 302.054C1111.37 302.054 1110.65 301.908 1109.98 301.618C1109.33 301.328 1108.76 300.907 1108.27 300.356C1107.79 299.79 1107.4 299.101 1107.11 298.289C1106.84 297.477 1106.7 296.555 1106.7 295.525V295.09C1106.7 293.785 1106.79 292.624 1106.98 291.609C1107.17 290.579 1107.49 289.708 1107.94 288.997C1108.4 288.272 1109.01 287.706 1109.75 287.3C1110.5 286.894 1111.44 286.662 1112.57 286.604C1113.49 286.56 1114.29 286.524 1114.97 286.495C1115.65 286.451 1116.23 286.306 1116.71 286.06V287.909C1116.48 288.04 1116.05 288.141 1115.43 288.214C1114.82 288.286 1113.97 288.337 1112.9 288.366C1112.2 288.381 1111.59 288.468 1111.05 288.627C1110.53 288.787 1110.08 289.041 1109.7 289.389C1109.34 289.737 1109.05 290.194 1108.83 290.76C1108.63 291.311 1108.5 291.993 1108.44 292.805C1108.79 292.037 1109.32 291.427 1110.05 290.978C1110.78 290.528 1111.62 290.303 1112.57 290.303C1113.31 290.303 1113.99 290.434 1114.6 290.695C1115.21 290.941 1115.73 291.297 1116.16 291.761C1116.61 292.225 1116.96 292.798 1117.21 293.48C1117.46 294.147 1117.58 294.902 1117.58 295.743V296.178C1117.58 297.078 1117.44 297.89 1117.17 298.615C1116.89 299.326 1116.51 299.943 1116.03 300.465C1115.56 300.973 1114.98 301.364 1114.32 301.64C1113.65 301.916 1112.92 302.054 1112.14 302.054ZM1112.14 300.313C1113.15 300.313 1113.99 299.965 1114.64 299.268C1115.29 298.557 1115.62 297.527 1115.62 296.178V295.743C1115.62 295.177 1115.53 294.67 1115.36 294.22C1115.19 293.77 1114.95 293.386 1114.64 293.067C1114.34 292.733 1113.97 292.479 1113.53 292.305C1113.11 292.131 1112.65 292.044 1112.14 292.044C1111.63 292.044 1111.16 292.131 1110.72 292.305C1110.3 292.479 1109.94 292.733 1109.64 293.067C1109.33 293.386 1109.09 293.77 1108.92 294.22C1108.74 294.67 1108.66 295.177 1108.66 295.743V296.178C1108.66 296.817 1108.74 297.397 1108.92 297.919C1109.11 298.427 1109.36 298.862 1109.68 299.225C1110 299.573 1110.37 299.841 1110.79 300.03C1111.21 300.218 1111.66 300.313 1112.14 300.313ZM1120.29 290.303H1122.08V292.479C1122.47 291.71 1123.01 291.123 1123.71 290.716C1124.42 290.296 1125.24 290.085 1126.17 290.085C1127.62 290.085 1128.78 290.564 1129.65 291.522C1130.52 292.464 1130.96 293.872 1130.96 295.743V296.178C1130.96 297.165 1130.84 298.028 1130.61 298.768C1130.38 299.493 1130.05 300.102 1129.63 300.596C1129.21 301.074 1128.7 301.437 1128.11 301.684C1127.53 301.93 1126.88 302.054 1126.17 302.054C1125.18 302.054 1124.36 301.836 1123.69 301.401C1123.04 300.966 1122.54 300.422 1122.21 299.769V306.188H1120.29V290.303ZM1125.73 300.356C1126.2 300.356 1126.63 300.269 1127.04 300.095C1127.45 299.907 1127.79 299.638 1128.08 299.29C1128.39 298.942 1128.62 298.507 1128.78 297.984C1128.95 297.462 1129.04 296.86 1129.04 296.178V295.743C1129.04 295.119 1128.95 294.561 1128.78 294.067C1128.62 293.574 1128.39 293.161 1128.08 292.827C1127.79 292.479 1127.45 292.218 1127.04 292.044C1126.63 291.87 1126.2 291.783 1125.73 291.783C1125.21 291.783 1124.73 291.87 1124.3 292.044C1123.86 292.203 1123.49 292.435 1123.19 292.74C1122.88 293.03 1122.64 293.378 1122.47 293.785C1122.3 294.191 1122.21 294.626 1122.21 295.09V296.831C1122.21 297.353 1122.3 297.832 1122.47 298.267C1122.64 298.702 1122.88 299.072 1123.19 299.377C1123.49 299.682 1123.86 299.921 1124.3 300.095C1124.73 300.269 1125.21 300.356 1125.73 300.356ZM1136.97 302.054C1136.33 302.054 1135.76 301.966 1135.27 301.792C1134.79 301.604 1134.38 301.35 1134.05 301.031C1133.72 300.712 1133.46 300.334 1133.29 299.899C1133.12 299.464 1133.03 298.985 1133.03 298.463C1133.03 297.317 1133.36 296.49 1134.03 295.982C1134.71 295.475 1135.68 295.221 1136.95 295.221H1140.69V294.437C1140.69 293.451 1140.46 292.769 1140.01 292.392C1139.58 292.015 1138.92 291.826 1138.03 291.826C1137.21 291.826 1136.6 291.986 1136.23 292.305C1135.85 292.61 1135.64 292.958 1135.6 293.349H1133.68C1133.71 292.885 1133.83 292.457 1134.05 292.066C1134.28 291.659 1134.59 291.311 1134.96 291.021C1135.36 290.731 1135.82 290.506 1136.36 290.346C1136.89 290.172 1137.49 290.085 1138.14 290.085C1139.51 290.085 1140.59 290.412 1141.38 291.065C1142.2 291.703 1142.6 292.755 1142.6 294.22V298.898C1142.6 299.508 1142.6 300.044 1142.6 300.509C1142.62 300.958 1142.65 301.401 1142.71 301.836H1141.04C1140.99 301.502 1140.96 301.19 1140.95 300.9C1140.93 300.596 1140.93 300.255 1140.93 299.878C1140.62 300.487 1140.13 301.002 1139.45 301.422C1138.77 301.843 1137.94 302.054 1136.97 302.054ZM1137.38 300.313C1137.83 300.313 1138.25 300.255 1138.64 300.139C1139.05 300.008 1139.4 299.827 1139.71 299.595C1140.01 299.348 1140.25 299.051 1140.43 298.702C1140.6 298.354 1140.69 297.948 1140.69 297.484V296.7H1137.27C1136.56 296.7 1136 296.846 1135.6 297.136C1135.19 297.411 1134.99 297.854 1134.99 298.463C1134.99 299 1135.18 299.442 1135.55 299.79C1135.94 300.139 1136.55 300.313 1137.38 300.313ZM1149.9 302.054C1148.45 302.054 1147.31 301.749 1146.49 301.14C1145.66 300.53 1145.2 299.674 1145.11 298.572H1147.03C1147.13 299.138 1147.43 299.573 1147.92 299.878C1148.43 300.168 1149.09 300.313 1149.9 300.313C1150.9 300.313 1151.63 300.146 1152.08 299.812C1152.54 299.464 1152.77 299.051 1152.77 298.572C1152.77 298.006 1152.59 297.564 1152.21 297.245C1151.83 296.911 1151.18 296.744 1150.25 296.744H1148.27V295.177H1150.12C1150.92 295.177 1151.48 295.025 1151.82 294.72C1152.16 294.416 1152.34 293.988 1152.34 293.436C1152.34 293.001 1152.14 292.624 1151.73 292.305C1151.32 291.986 1150.71 291.826 1149.9 291.826C1149.02 291.826 1148.37 291.971 1147.97 292.261C1147.57 292.537 1147.33 292.936 1147.25 293.458H1145.33C1145.38 292.979 1145.51 292.537 1145.72 292.131C1145.96 291.71 1146.27 291.347 1146.66 291.043C1147.05 290.738 1147.52 290.506 1148.05 290.346C1148.6 290.172 1149.22 290.085 1149.9 290.085C1150.64 290.085 1151.28 290.172 1151.82 290.346C1152.37 290.506 1152.83 290.738 1153.19 291.043C1153.55 291.333 1153.82 291.681 1153.99 292.087C1154.17 292.493 1154.25 292.943 1154.25 293.436C1154.25 293.988 1154.12 294.474 1153.84 294.894C1153.56 295.301 1153.12 295.62 1152.51 295.852C1153.33 296.069 1153.89 296.418 1154.21 296.896C1154.53 297.375 1154.69 297.934 1154.69 298.572C1154.69 299.051 1154.59 299.5 1154.38 299.921C1154.18 300.342 1153.88 300.712 1153.47 301.031C1153.08 301.335 1152.58 301.582 1151.97 301.771C1151.37 301.959 1150.69 302.054 1149.9 302.054ZM1162.21 302.054C1161.47 302.054 1160.76 301.937 1160.09 301.705C1159.43 301.459 1158.84 301.096 1158.33 300.617C1157.82 300.124 1157.42 299.508 1157.11 298.768C1156.81 298.028 1156.66 297.165 1156.66 296.178V295.743C1156.66 294.815 1156.81 293.995 1157.11 293.284C1157.42 292.573 1157.82 291.986 1158.33 291.522C1158.84 291.043 1159.43 290.687 1160.09 290.455C1160.76 290.209 1161.47 290.085 1162.21 290.085C1162.94 290.085 1163.65 290.209 1164.32 290.455C1164.98 290.687 1165.57 291.043 1166.08 291.522C1166.59 291.986 1166.99 292.573 1167.3 293.284C1167.6 293.995 1167.75 294.815 1167.75 295.743V296.178C1167.75 297.165 1167.6 298.028 1167.3 298.768C1166.99 299.508 1166.59 300.124 1166.08 300.617C1165.57 301.096 1164.98 301.459 1164.32 301.705C1163.65 301.937 1162.94 302.054 1162.21 302.054ZM1162.21 300.313C1162.64 300.313 1163.08 300.24 1163.51 300.095C1163.95 299.936 1164.33 299.696 1164.66 299.377C1165 299.043 1165.27 298.615 1165.47 298.093C1165.69 297.571 1165.8 296.933 1165.8 296.178V295.743C1165.8 295.047 1165.69 294.452 1165.47 293.959C1165.27 293.465 1165 293.059 1164.66 292.74C1164.33 292.421 1163.95 292.189 1163.51 292.044C1163.08 291.899 1162.64 291.826 1162.21 291.826C1161.77 291.826 1161.33 291.899 1160.9 292.044C1160.46 292.189 1160.08 292.421 1159.75 292.74C1159.41 293.059 1159.14 293.465 1158.92 293.959C1158.72 294.452 1158.61 295.047 1158.61 295.743V296.178C1158.61 296.933 1158.72 297.571 1158.92 298.093C1159.14 298.615 1159.41 299.043 1159.75 299.377C1160.08 299.696 1160.46 299.936 1160.9 300.095C1161.33 300.24 1161.77 300.313 1162.21 300.313ZM1170.47 290.303H1172.51L1176.62 297.484L1180.74 290.303H1182.65V301.836H1180.74V293.458L1177.32 299.333H1175.8L1172.38 293.458V301.836H1170.47V290.303ZM951.925 326.054C951.185 326.054 950.496 325.937 949.858 325.705C949.22 325.459 948.668 325.096 948.204 324.617C947.74 324.124 947.37 323.508 947.094 322.768C946.833 322.028 946.703 321.165 946.703 320.178V319.743C946.703 318.815 946.848 317.995 947.138 317.284C947.428 316.573 947.813 315.986 948.291 315.522C948.77 315.043 949.321 314.687 949.945 314.455C950.583 314.209 951.243 314.085 951.925 314.085C952.607 314.085 953.216 314.18 953.753 314.368C954.304 314.557 954.776 314.818 955.168 315.152C955.574 315.485 955.9 315.877 956.147 316.327C956.408 316.776 956.596 317.262 956.713 317.785H954.754C954.638 317.509 954.5 317.255 954.341 317.023C954.196 316.776 954.007 316.566 953.775 316.392C953.557 316.218 953.296 316.08 952.991 315.978C952.687 315.877 952.331 315.826 951.925 315.826C951.505 315.826 951.098 315.906 950.707 316.066C950.315 316.211 949.967 316.443 949.662 316.762C949.358 317.067 949.111 317.465 948.922 317.959C948.748 318.452 948.661 319.047 948.661 319.743V320.178C948.661 320.918 948.748 321.556 948.922 322.093C949.111 322.615 949.358 323.043 949.662 323.377C949.967 323.696 950.315 323.936 950.707 324.095C951.098 324.24 951.505 324.313 951.925 324.313C952.636 324.313 953.231 324.139 953.71 323.79C954.203 323.442 954.551 322.964 954.754 322.354H956.713C956.437 323.5 955.871 324.407 955.015 325.074C954.159 325.727 953.129 326.054 951.925 326.054ZM959.322 314.303H967.156V316H961.237V325.836H959.322V314.303ZM973.906 326.054C973.166 326.054 972.462 325.937 971.795 325.705C971.128 325.473 970.54 325.118 970.032 324.639C969.525 324.146 969.118 323.529 968.814 322.789C968.509 322.05 968.357 321.179 968.357 320.178V319.743C968.357 318.786 968.502 317.959 968.792 317.262C969.082 316.552 969.467 315.964 969.945 315.5C970.439 315.021 971.004 314.666 971.643 314.434C972.295 314.201 972.977 314.085 973.688 314.085C975.385 314.085 976.698 314.55 977.627 315.478C978.555 316.406 979.019 317.719 979.019 319.417V320.635H970.272C970.272 321.317 970.381 321.89 970.598 322.354C970.816 322.819 971.099 323.196 971.447 323.486C971.795 323.776 972.179 323.986 972.6 324.117C973.035 324.247 973.471 324.313 973.906 324.313C974.776 324.313 975.443 324.168 975.908 323.878C976.386 323.587 976.727 323.188 976.93 322.681H978.802C978.686 323.232 978.475 323.718 978.171 324.139C977.881 324.559 977.518 324.915 977.083 325.205C976.662 325.481 976.176 325.691 975.625 325.836C975.088 325.981 974.515 326.054 973.906 326.054ZM973.797 315.826C973.347 315.826 972.912 315.891 972.491 316.022C972.071 316.138 971.693 316.334 971.36 316.61C971.041 316.871 970.78 317.204 970.576 317.611C970.373 318.017 970.272 318.503 970.272 319.068H977.213C977.199 318.474 977.097 317.973 976.909 317.567C976.735 317.146 976.495 316.813 976.191 316.566C975.886 316.305 975.523 316.116 975.103 316C974.696 315.884 974.261 315.826 973.797 315.826ZM981.741 314.303H983.656V319.112H989.618V314.303H991.533V325.836H989.618V320.809H983.656V325.836H981.741V314.303ZM999.81 326.054C999.07 326.054 998.366 325.937 997.699 325.705C997.032 325.473 996.444 325.118 995.937 324.639C995.429 324.146 995.023 323.529 994.718 322.789C994.413 322.05 994.261 321.179 994.261 320.178V319.743C994.261 318.786 994.406 317.959 994.696 317.262C994.986 316.552 995.371 315.964 995.85 315.5C996.343 315.021 996.909 314.666 997.547 314.434C998.2 314.201 998.881 314.085 999.592 314.085C1001.29 314.085 1002.6 314.55 1003.53 315.478C1004.46 316.406 1004.92 317.719 1004.92 319.417V320.635H996.176C996.176 321.317 996.285 321.89 996.502 322.354C996.72 322.819 997.003 323.196 997.351 323.486C997.699 323.776 998.084 323.986 998.504 324.117C998.939 324.247 999.375 324.313 999.81 324.313C1000.68 324.313 1001.35 324.168 1001.81 323.878C1002.29 323.587 1002.63 323.188 1002.83 322.681H1004.71C1004.59 323.232 1004.38 323.718 1004.07 324.139C1003.78 324.559 1003.42 324.915 1002.99 325.205C1002.57 325.481 1002.08 325.691 1001.53 325.836C1000.99 325.981 1000.42 326.054 999.81 326.054ZM999.701 315.826C999.251 315.826 998.816 315.891 998.395 316.022C997.975 316.138 997.598 316.334 997.264 316.61C996.945 316.871 996.684 317.204 996.481 317.611C996.277 318.017 996.176 318.503 996.176 319.068H1003.12C1003.1 318.474 1003 317.973 1002.81 317.567C1002.64 317.146 1002.4 316.813 1002.09 316.566C1001.79 316.305 1001.43 316.116 1001.01 316C1000.6 315.884 1000.17 315.826 999.701 315.826ZM1007.65 314.303H1009.43V316.479C1009.82 315.71 1010.37 315.123 1011.06 314.716C1011.77 314.296 1012.59 314.085 1013.52 314.085C1014.97 314.085 1016.13 314.564 1017 315.522C1017.87 316.464 1018.31 317.872 1018.31 319.743V320.178C1018.31 321.165 1018.19 322.028 1017.96 322.768C1017.73 323.493 1017.4 324.102 1016.98 324.596C1016.56 325.074 1016.05 325.437 1015.46 325.684C1014.88 325.93 1014.23 326.054 1013.52 326.054C1012.53 326.054 1011.71 325.836 1011.04 325.401C1010.39 324.966 1009.89 324.422 1009.56 323.769V330.188H1007.65V314.303ZM1013.09 324.356C1013.55 324.356 1013.98 324.269 1014.39 324.095C1014.8 323.907 1015.15 323.638 1015.44 323.29C1015.74 322.942 1015.97 322.507 1016.13 321.984C1016.31 321.462 1016.39 320.86 1016.39 320.178V319.743C1016.39 319.119 1016.31 318.561 1016.13 318.067C1015.97 317.574 1015.74 317.161 1015.44 316.827C1015.15 316.479 1014.8 316.218 1014.39 316.044C1013.98 315.87 1013.55 315.783 1013.09 315.783C1012.56 315.783 1012.08 315.87 1011.65 316.044C1011.21 316.203 1010.84 316.435 1010.54 316.74C1010.23 317.03 1010 317.378 1009.82 317.785C1009.65 318.191 1009.56 318.626 1009.56 319.09V320.831C1009.56 321.353 1009.65 321.832 1009.82 322.267C1010 322.702 1010.23 323.072 1010.54 323.377C1010.84 323.682 1011.21 323.921 1011.65 324.095C1012.08 324.269 1012.56 324.356 1013.09 324.356ZM1021.03 314.303H1022.95V323.007L1028.91 314.303H1030.83V325.836H1028.91V317.132L1022.95 325.836H1021.03V314.303ZM1034.31 314.303H1036.1V316.479C1036.49 315.71 1037.03 315.123 1037.73 314.716C1038.44 314.296 1039.26 314.085 1040.19 314.085C1041.64 314.085 1042.8 314.564 1043.67 315.522C1044.54 316.464 1044.98 317.872 1044.98 319.743V320.178C1044.98 321.165 1044.86 322.028 1044.63 322.768C1044.4 323.493 1044.07 324.102 1043.65 324.596C1043.23 325.074 1042.72 325.437 1042.13 325.684C1041.55 325.93 1040.9 326.054 1040.19 326.054C1039.2 326.054 1038.38 325.836 1037.71 325.401C1037.06 324.966 1036.56 324.422 1036.23 323.769V330.188H1034.31V314.303ZM1039.75 324.356C1040.22 324.356 1040.65 324.269 1041.06 324.095C1041.47 323.907 1041.81 323.638 1042.1 323.29C1042.41 322.942 1042.64 322.507 1042.8 321.984C1042.98 321.462 1043.06 320.86 1043.06 320.178V319.743C1043.06 319.119 1042.98 318.561 1042.8 318.067C1042.64 317.574 1042.41 317.161 1042.1 316.827C1041.81 316.479 1041.47 316.218 1041.06 316.044C1040.65 315.87 1040.22 315.783 1039.75 315.783C1039.23 315.783 1038.75 315.87 1038.32 316.044C1037.88 316.203 1037.51 316.435 1037.21 316.74C1036.9 317.03 1036.66 317.378 1036.49 317.785C1036.32 318.191 1036.23 318.626 1036.23 319.09V320.831C1036.23 321.353 1036.32 321.832 1036.49 322.267C1036.66 322.702 1036.9 323.072 1037.21 323.377C1037.51 323.682 1037.88 323.921 1038.32 324.095C1038.75 324.269 1039.23 324.356 1039.75 324.356ZM1052.49 326.054C1051.75 326.054 1051.05 325.937 1050.38 325.705C1049.71 325.459 1049.12 325.096 1048.62 324.617C1048.11 324.124 1047.7 323.508 1047.4 322.768C1047.09 322.028 1046.94 321.165 1046.94 320.178V319.743C1046.94 318.815 1047.09 317.995 1047.4 317.284C1047.7 316.573 1048.11 315.986 1048.62 315.522C1049.12 315.043 1049.71 314.687 1050.38 314.455C1051.05 314.209 1051.75 314.085 1052.49 314.085C1053.23 314.085 1053.93 314.209 1054.6 314.455C1055.27 314.687 1055.86 315.043 1056.36 315.522C1056.87 315.986 1057.28 316.573 1057.58 317.284C1057.89 317.995 1058.04 318.815 1058.04 319.743V320.178C1058.04 321.165 1057.89 322.028 1057.58 322.768C1057.28 323.508 1056.87 324.124 1056.36 324.617C1055.86 325.096 1055.27 325.459 1054.6 325.705C1053.93 325.937 1053.23 326.054 1052.49 326.054ZM1052.49 324.313C1052.92 324.313 1053.36 324.24 1053.8 324.095C1054.23 323.936 1054.61 323.696 1054.95 323.377C1055.28 323.043 1055.55 322.615 1055.75 322.093C1055.97 321.571 1056.08 320.933 1056.08 320.178V319.743C1056.08 319.047 1055.97 318.452 1055.75 317.959C1055.55 317.465 1055.28 317.059 1054.95 316.74C1054.61 316.421 1054.23 316.189 1053.8 316.044C1053.36 315.899 1052.92 315.826 1052.49 315.826C1052.05 315.826 1051.62 315.899 1051.18 316.044C1050.75 316.189 1050.36 316.421 1050.03 316.74C1049.7 317.059 1049.42 317.465 1049.2 317.959C1049 318.452 1048.9 319.047 1048.9 319.743V320.178C1048.9 320.933 1049 321.571 1049.2 322.093C1049.42 322.615 1049.7 323.043 1050.03 323.377C1050.36 323.696 1050.75 323.936 1051.18 324.095C1051.62 324.24 1052.05 324.313 1052.49 324.313ZM1060.75 314.303H1065.75C1067.18 314.303 1068.22 314.6 1068.89 315.195C1069.56 315.775 1069.89 316.53 1069.89 317.458C1069.89 317.705 1069.85 317.959 1069.76 318.22C1069.67 318.466 1069.55 318.699 1069.39 318.916C1069.24 319.134 1069.06 319.322 1068.84 319.482C1068.64 319.641 1068.41 319.765 1068.15 319.852C1068.86 320.026 1069.4 320.36 1069.76 320.853C1070.14 321.332 1070.32 321.897 1070.32 322.55C1070.32 323.551 1069.99 324.349 1069.32 324.944C1068.66 325.539 1067.61 325.836 1066.19 325.836H1060.75V314.303ZM1066.19 324.139C1067 324.139 1067.58 323.994 1067.91 323.703C1068.24 323.413 1068.41 323 1068.41 322.463C1068.41 321.912 1068.24 321.491 1067.91 321.201C1067.58 320.896 1067 320.744 1066.19 320.744H1062.66V324.139H1066.19ZM1065.75 319.177C1066.58 319.177 1067.15 319.032 1067.47 318.742C1067.81 318.452 1067.97 318.053 1067.97 317.545C1067.97 317.067 1067.81 316.689 1067.47 316.414C1067.15 316.138 1066.58 316 1065.75 316H1062.66V319.177H1065.75ZM1076.34 326.054C1075.7 326.054 1075.14 325.966 1074.64 325.792C1074.16 325.604 1073.76 325.35 1073.42 325.031C1073.09 324.712 1072.84 324.334 1072.66 323.899C1072.49 323.464 1072.4 322.985 1072.4 322.463C1072.4 321.317 1072.73 320.49 1073.4 319.982C1074.08 319.475 1075.06 319.221 1076.32 319.221H1080.06V318.437C1080.06 317.451 1079.84 316.769 1079.39 316.392C1078.95 316.015 1078.29 315.826 1077.41 315.826C1076.58 315.826 1075.98 315.986 1075.6 316.305C1075.22 316.61 1075.01 316.958 1074.97 317.349H1073.05C1073.08 316.885 1073.21 316.457 1073.42 316.066C1073.66 315.659 1073.96 315.311 1074.34 315.021C1074.73 314.731 1075.19 314.506 1075.73 314.346C1076.27 314.172 1076.86 314.085 1077.51 314.085C1078.88 314.085 1079.96 314.412 1080.76 315.065C1081.57 315.703 1081.98 316.755 1081.98 318.22V322.898C1081.98 323.508 1081.98 324.044 1081.98 324.509C1081.99 324.958 1082.03 325.401 1082.08 325.836H1080.41C1080.37 325.502 1080.34 325.19 1080.32 324.9C1080.31 324.596 1080.3 324.255 1080.3 323.878C1080 324.487 1079.5 325.002 1078.82 325.422C1078.14 325.843 1077.31 326.054 1076.34 326.054ZM1076.75 324.313C1077.2 324.313 1077.62 324.255 1078.02 324.139C1078.42 324.008 1078.78 323.827 1079.08 323.595C1079.39 323.348 1079.63 323.051 1079.8 322.702C1079.97 322.354 1080.06 321.948 1080.06 321.484V320.7H1076.64C1075.93 320.7 1075.37 320.846 1074.97 321.136C1074.56 321.411 1074.36 321.854 1074.36 322.463C1074.36 323 1074.55 323.442 1074.93 323.79C1075.32 324.139 1075.93 324.313 1076.75 324.313ZM1085.36 314.303H1087.27V319.112H1093.24V314.303H1095.15V325.836H1093.24V320.809H1087.27V325.836H1085.36V314.303ZM1098.64 314.303H1100.55V319.112H1106.52V314.303H1108.43V325.836H1106.52V320.809H1100.55V325.836H1098.64V314.303ZM1116.71 326.054C1115.97 326.054 1115.26 325.937 1114.6 325.705C1113.93 325.459 1113.34 325.096 1112.83 324.617C1112.33 324.124 1111.92 323.508 1111.62 322.768C1111.31 322.028 1111.16 321.165 1111.16 320.178V319.743C1111.16 318.815 1111.31 317.995 1111.62 317.284C1111.92 316.573 1112.33 315.986 1112.83 315.522C1113.34 315.043 1113.93 314.687 1114.6 314.455C1115.26 314.209 1115.97 314.085 1116.71 314.085C1117.45 314.085 1118.15 314.209 1118.82 314.455C1119.49 314.687 1120.07 315.043 1120.58 315.522C1121.09 315.986 1121.5 316.573 1121.8 317.284C1122.1 317.995 1122.26 318.815 1122.26 319.743V320.178C1122.26 321.165 1122.1 322.028 1121.8 322.768C1121.5 323.508 1121.09 324.124 1120.58 324.617C1120.07 325.096 1119.49 325.459 1118.82 325.705C1118.15 325.937 1117.45 326.054 1116.71 326.054ZM1116.71 324.313C1117.14 324.313 1117.58 324.24 1118.01 324.095C1118.45 323.936 1118.83 323.696 1119.17 323.377C1119.5 323.043 1119.77 322.615 1119.97 322.093C1120.19 321.571 1120.3 320.933 1120.3 320.178V319.743C1120.3 319.047 1120.19 318.452 1119.97 317.959C1119.77 317.465 1119.5 317.059 1119.17 316.74C1118.83 316.421 1118.45 316.189 1118.01 316.044C1117.58 315.899 1117.14 315.826 1116.71 315.826C1116.27 315.826 1115.84 315.899 1115.4 316.044C1114.97 316.189 1114.58 316.421 1114.25 316.74C1113.92 317.059 1113.64 317.465 1113.42 317.959C1113.22 318.452 1113.12 319.047 1113.12 319.743V320.178C1113.12 320.933 1113.22 321.571 1113.42 322.093C1113.64 322.615 1113.92 323.043 1114.25 323.377C1114.58 323.696 1114.97 323.936 1115.4 324.095C1115.84 324.24 1116.27 324.313 1116.71 324.313ZM1129.76 326.054C1129.02 326.054 1128.31 325.937 1127.64 325.705C1126.98 325.473 1126.39 325.118 1125.88 324.639C1125.37 324.146 1124.97 323.529 1124.66 322.789C1124.36 322.05 1124.21 321.179 1124.21 320.178V319.743C1124.21 318.786 1124.35 317.959 1124.64 317.262C1124.93 316.552 1125.32 315.964 1125.8 315.5C1126.29 315.021 1126.85 314.666 1127.49 314.434C1128.15 314.201 1128.83 314.085 1129.54 314.085C1131.24 314.085 1132.55 314.55 1133.48 315.478C1134.41 316.406 1134.87 317.719 1134.87 319.417V320.635H1126.12C1126.12 321.317 1126.23 321.89 1126.45 322.354C1126.67 322.819 1126.95 323.196 1127.3 323.486C1127.64 323.776 1128.03 323.986 1128.45 324.117C1128.89 324.247 1129.32 324.313 1129.76 324.313C1130.63 324.313 1131.29 324.168 1131.76 323.878C1132.24 323.587 1132.58 323.188 1132.78 322.681H1134.65C1134.54 323.232 1134.33 323.718 1134.02 324.139C1133.73 324.559 1133.37 324.915 1132.93 325.205C1132.51 325.481 1132.03 325.691 1131.47 325.836C1130.94 325.981 1130.37 326.054 1129.76 326.054ZM1129.65 315.826C1129.2 315.826 1128.76 315.891 1128.34 316.022C1127.92 316.138 1127.54 316.334 1127.21 316.61C1126.89 316.871 1126.63 317.204 1126.43 317.611C1126.22 318.017 1126.12 318.503 1126.12 319.068H1133.06C1133.05 318.474 1132.95 317.973 1132.76 317.567C1132.58 317.146 1132.35 316.813 1132.04 316.566C1131.74 316.305 1131.37 316.116 1130.95 316C1130.55 315.884 1130.11 315.826 1129.65 315.826ZM1149.71 321.245C1149.38 321.448 1148.97 321.629 1148.49 321.789C1148.03 321.948 1147.44 322.028 1146.73 322.028C1146.06 322.028 1145.46 321.955 1144.92 321.81C1144.4 321.665 1143.96 321.433 1143.6 321.114C1143.23 320.795 1142.96 320.381 1142.77 319.874C1142.58 319.366 1142.49 318.742 1142.49 318.002V314.303H1144.4V317.676C1144.4 318.169 1144.45 318.582 1144.53 318.916C1144.63 319.25 1144.79 319.518 1145.01 319.721C1145.23 319.924 1145.5 320.069 1145.84 320.156C1146.17 320.244 1146.58 320.287 1147.06 320.287C1147.71 320.287 1148.27 320.222 1148.73 320.091C1149.2 319.961 1149.52 319.823 1149.71 319.678V314.303H1151.63V325.836H1149.71V321.245ZM1155.1 314.303H1157.02V323.007L1162.98 314.303H1164.89V325.836H1162.98V317.132L1157.02 325.836H1155.1V314.303ZM1172.84 326.054C1172.1 326.054 1171.41 325.937 1170.78 325.705C1170.14 325.459 1169.59 325.096 1169.12 324.617C1168.66 324.124 1168.29 323.508 1168.01 322.768C1167.75 322.028 1167.62 321.165 1167.62 320.178V319.743C1167.62 318.815 1167.77 317.995 1168.06 317.284C1168.35 316.573 1168.73 315.986 1169.21 315.522C1169.69 315.043 1170.24 314.687 1170.86 314.455C1171.5 314.209 1172.16 314.085 1172.84 314.085C1173.53 314.085 1174.13 314.18 1174.67 314.368C1175.22 314.557 1175.69 314.818 1176.09 315.152C1176.49 315.485 1176.82 315.877 1177.07 316.327C1177.33 316.776 1177.52 317.262 1177.63 317.785H1175.67C1175.56 317.509 1175.42 317.255 1175.26 317.023C1175.11 316.776 1174.93 316.566 1174.69 316.392C1174.48 316.218 1174.21 316.08 1173.91 315.978C1173.61 315.877 1173.25 315.826 1172.84 315.826C1172.42 315.826 1172.02 315.906 1171.63 316.066C1171.23 316.211 1170.89 316.443 1170.58 316.762C1170.28 317.067 1170.03 317.465 1169.84 317.959C1169.67 318.452 1169.58 319.047 1169.58 319.743V320.178C1169.58 320.918 1169.67 321.556 1169.84 322.093C1170.03 322.615 1170.28 323.043 1170.58 323.377C1170.89 323.696 1171.23 323.936 1171.63 324.095C1172.02 324.24 1172.42 324.313 1172.84 324.313C1173.55 324.313 1174.15 324.139 1174.63 323.79C1175.12 323.442 1175.47 322.964 1175.67 322.354H1177.63C1177.36 323.5 1176.79 324.407 1175.93 325.074C1175.08 325.727 1174.05 326.054 1172.84 326.054ZM1179.7 326.054C1179.48 326.054 1179.26 326.032 1179.04 325.988V324.073C1179.12 324.088 1179.23 324.095 1179.37 324.095C1179.69 324.095 1179.96 323.994 1180.2 323.79C1180.44 323.587 1180.64 323.232 1180.78 322.724C1180.93 322.216 1181.04 321.527 1181.11 320.657C1181.18 319.787 1181.22 318.684 1181.22 317.349V314.303H1189.49V325.836H1187.57V316H1183.13V317.785C1183.13 319.395 1183.06 320.73 1182.92 321.789C1182.77 322.848 1182.55 323.696 1182.26 324.334C1181.99 324.958 1181.63 325.401 1181.2 325.662C1180.76 325.923 1180.26 326.054 1179.7 326.054ZM1197.76 326.054C1197.02 326.054 1196.31 325.937 1195.65 325.705C1194.98 325.459 1194.39 325.096 1193.88 324.617C1193.38 324.124 1192.97 323.508 1192.66 322.768C1192.36 322.028 1192.21 321.165 1192.21 320.178V319.743C1192.21 318.815 1192.36 317.995 1192.66 317.284C1192.97 316.573 1193.38 315.986 1193.88 315.522C1194.39 315.043 1194.98 314.687 1195.65 314.455C1196.31 314.209 1197.02 314.085 1197.76 314.085C1198.5 314.085 1199.2 314.209 1199.87 314.455C1200.53 314.687 1201.12 315.043 1201.63 315.522C1202.14 315.986 1202.54 316.573 1202.85 317.284C1203.15 317.995 1203.31 318.815 1203.31 319.743V320.178C1203.31 321.165 1203.15 322.028 1202.85 322.768C1202.54 323.508 1202.14 324.124 1201.63 324.617C1201.12 325.096 1200.53 325.459 1199.87 325.705C1199.2 325.937 1198.5 326.054 1197.76 326.054ZM1197.76 324.313C1198.19 324.313 1198.63 324.24 1199.06 324.095C1199.5 323.936 1199.88 323.696 1200.22 323.377C1200.55 323.043 1200.82 322.615 1201.02 322.093C1201.24 321.571 1201.35 320.933 1201.35 320.178V319.743C1201.35 319.047 1201.24 318.452 1201.02 317.959C1200.82 317.465 1200.55 317.059 1200.22 316.74C1199.88 316.421 1199.5 316.189 1199.06 316.044C1198.63 315.899 1198.19 315.826 1197.76 315.826C1197.32 315.826 1196.89 315.899 1196.45 316.044C1196.02 316.189 1195.63 316.421 1195.3 316.74C1194.96 317.059 1194.69 317.465 1194.47 317.959C1194.27 318.452 1194.17 319.047 1194.17 319.743V320.178C1194.17 320.933 1194.27 321.571 1194.47 322.093C1194.69 322.615 1194.96 323.043 1195.3 323.377C1195.63 323.696 1196.02 323.936 1196.45 324.095C1196.89 324.24 1197.32 324.313 1197.76 324.313Z" fill="black"/>
<path d="M991.123 105.768H1003.96V121H1000.7V108.466H994.387V121H991.123V105.768ZM1007.01 109.467H1009.68V111.164C1009.97 110.642 1010.43 110.185 1011.06 109.793C1011.68 109.402 1012.47 109.206 1013.43 109.206C1014.97 109.206 1016.16 109.685 1017.02 110.642C1017.89 111.585 1018.32 113.007 1018.32 114.907V115.342C1018.32 117.33 1017.88 118.817 1017 119.803C1016.13 120.775 1014.94 121.261 1013.43 121.261C1012.64 121.261 1011.95 121.094 1011.34 120.761C1010.74 120.412 1010.26 119.963 1009.88 119.411V125.352H1007.01V109.467ZM1012.75 118.824C1013.51 118.824 1014.14 118.541 1014.65 117.975C1015.15 117.395 1015.41 116.517 1015.41 115.342V114.907C1015.41 113.819 1015.16 113.007 1014.67 112.47C1014.17 111.919 1013.54 111.643 1012.75 111.643C1011.93 111.643 1011.24 111.882 1010.69 112.361C1010.15 112.825 1009.88 113.529 1009.88 114.472V115.778C1009.88 116.808 1010.14 117.576 1010.66 118.084C1011.2 118.577 1011.9 118.824 1012.75 118.824ZM1025.62 121.261C1024.84 121.261 1024.09 121.145 1023.38 120.913C1022.68 120.666 1022.07 120.296 1021.55 119.803C1021.03 119.31 1020.61 118.693 1020.31 117.954C1020 117.214 1019.85 116.343 1019.85 115.342V114.907C1019.85 113.964 1020 113.137 1020.31 112.426C1020.61 111.716 1021.03 111.121 1021.55 110.642C1022.07 110.163 1022.68 109.808 1023.38 109.576C1024.09 109.329 1024.84 109.206 1025.62 109.206C1026.4 109.206 1027.14 109.329 1027.84 109.576C1028.53 109.808 1029.14 110.163 1029.67 110.642C1030.2 111.121 1030.62 111.716 1030.93 112.426C1031.23 113.137 1031.38 113.964 1031.38 114.907V115.342C1031.38 116.329 1031.23 117.192 1030.93 117.932C1030.62 118.672 1030.2 119.288 1029.67 119.781C1029.14 120.275 1028.53 120.645 1027.84 120.891C1027.14 121.138 1026.4 121.261 1025.62 121.261ZM1025.62 118.824C1026.43 118.824 1027.11 118.534 1027.64 117.954C1028.19 117.373 1028.47 116.503 1028.47 115.342V114.907C1028.47 113.848 1028.19 113.043 1027.64 112.492C1027.11 111.926 1026.43 111.643 1025.62 111.643C1024.79 111.643 1024.11 111.926 1023.57 112.492C1023.04 113.043 1022.77 113.848 1022.77 114.907V115.342C1022.77 116.517 1023.04 117.395 1023.57 117.975C1024.11 118.541 1024.79 118.824 1025.62 118.824ZM1042.78 121H1033.44V109.467H1036.32V118.606H1040.8V109.467H1043.67V118.606H1045.3V123.72H1042.78V121ZM1052.37 121.261C1051.59 121.261 1050.84 121.145 1050.13 120.913C1049.43 120.666 1048.83 120.304 1048.3 119.825C1047.78 119.332 1047.37 118.715 1047.06 117.975C1046.76 117.221 1046.61 116.343 1046.61 115.342V114.907C1046.61 113.95 1046.75 113.115 1047.04 112.405C1047.33 111.694 1047.73 111.106 1048.24 110.642C1048.75 110.163 1049.33 109.808 1050 109.576C1050.67 109.329 1051.39 109.206 1052.16 109.206C1053.97 109.206 1055.35 109.685 1056.29 110.642C1057.23 111.6 1057.7 112.985 1057.7 114.798V116.017H1049.54C1049.56 116.525 1049.65 116.967 1049.8 117.344C1049.96 117.707 1050.17 118.004 1050.44 118.236C1050.7 118.469 1050.99 118.643 1051.33 118.759C1051.68 118.86 1052.02 118.911 1052.37 118.911C1053.11 118.911 1053.67 118.802 1054.05 118.585C1054.43 118.367 1054.69 118.048 1054.85 117.627H1057.49C1057.25 118.831 1056.68 119.738 1055.77 120.347C1054.85 120.956 1053.72 121.261 1052.37 121.261ZM1052.26 111.556C1051.93 111.556 1051.6 111.6 1051.26 111.687C1050.94 111.774 1050.66 111.911 1050.41 112.1C1050.17 112.289 1049.96 112.542 1049.8 112.862C1049.65 113.181 1049.56 113.565 1049.54 114.015H1054.92C1054.9 113.536 1054.82 113.137 1054.68 112.818C1054.55 112.499 1054.36 112.245 1054.11 112.056C1053.88 111.868 1053.61 111.737 1053.29 111.665C1052.97 111.592 1052.63 111.556 1052.26 111.556ZM1064.89 121.261C1064.09 121.261 1063.34 121.138 1062.65 120.891C1061.96 120.645 1061.37 120.275 1060.86 119.781C1060.35 119.288 1059.95 118.672 1059.66 117.932C1059.37 117.192 1059.23 116.329 1059.23 115.342V114.907C1059.23 113.979 1059.38 113.159 1059.69 112.448C1059.99 111.737 1060.4 111.143 1060.9 110.664C1061.43 110.185 1062.03 109.822 1062.71 109.576C1063.39 109.329 1064.12 109.206 1064.89 109.206C1065.7 109.206 1066.42 109.315 1067.04 109.532C1067.68 109.75 1068.22 110.047 1068.65 110.424C1069.09 110.802 1069.43 111.244 1069.67 111.752C1069.92 112.26 1070.07 112.804 1070.11 113.384H1067.19C1067.08 112.847 1066.84 112.426 1066.48 112.122C1066.13 111.803 1065.6 111.643 1064.89 111.643C1064.51 111.643 1064.15 111.708 1063.82 111.839C1063.5 111.969 1063.21 112.173 1062.95 112.448C1062.7 112.709 1062.51 113.043 1062.36 113.449C1062.22 113.855 1062.14 114.341 1062.14 114.907V115.342C1062.14 115.952 1062.21 116.481 1062.34 116.931C1062.49 117.366 1062.68 117.729 1062.93 118.019C1063.17 118.294 1063.46 118.498 1063.8 118.628C1064.13 118.759 1064.49 118.824 1064.89 118.824C1065.45 118.824 1065.94 118.679 1066.34 118.389C1066.77 118.084 1067.05 117.649 1067.19 117.083H1070.11C1070.04 117.721 1069.86 118.302 1069.57 118.824C1069.29 119.332 1068.92 119.767 1068.46 120.13C1068.01 120.492 1067.48 120.775 1066.87 120.978C1066.26 121.167 1065.6 121.261 1064.89 121.261ZM1077.19 121.261C1076.39 121.261 1075.65 121.138 1074.95 120.891C1074.27 120.645 1073.67 120.275 1073.16 119.781C1072.66 119.288 1072.26 118.672 1071.97 117.932C1071.68 117.192 1071.53 116.329 1071.53 115.342V114.907C1071.53 113.979 1071.69 113.159 1071.99 112.448C1072.29 111.737 1072.7 111.143 1073.21 110.664C1073.73 110.185 1074.33 109.822 1075.01 109.576C1075.7 109.329 1076.42 109.206 1077.19 109.206C1078 109.206 1078.72 109.315 1079.34 109.532C1079.98 109.75 1080.52 110.047 1080.96 110.424C1081.39 110.802 1081.73 111.244 1081.98 111.752C1082.22 112.26 1082.37 112.804 1082.41 113.384H1079.5C1079.38 112.847 1079.14 112.426 1078.78 112.122C1078.43 111.803 1077.9 111.643 1077.19 111.643C1076.81 111.643 1076.46 111.708 1076.12 111.839C1075.81 111.969 1075.51 112.173 1075.25 112.448C1075.01 112.709 1074.81 113.043 1074.67 113.449C1074.52 113.855 1074.45 114.341 1074.45 114.907V115.342C1074.45 115.952 1074.51 116.481 1074.64 116.931C1074.79 117.366 1074.99 117.729 1075.23 118.019C1075.48 118.294 1075.77 118.498 1076.1 118.628C1076.44 118.759 1076.8 118.824 1077.19 118.824C1077.76 118.824 1078.24 118.679 1078.65 118.389C1079.07 118.084 1079.35 117.649 1079.5 117.083H1082.41C1082.34 117.721 1082.16 118.302 1081.87 118.824C1081.59 119.332 1081.22 119.767 1080.76 120.13C1080.31 120.492 1079.78 120.775 1079.17 120.978C1078.56 121.167 1077.9 121.261 1077.19 121.261ZM1090.26 105.768H1100.92V108.466H1093.54V111.861H1100.27V114.472H1093.54V118.302H1100.92V121H1090.26V105.768ZM1109.95 121.261C1108.97 121.261 1108.07 121.131 1107.28 120.869C1106.49 120.608 1105.82 120.217 1105.27 119.694C1104.72 119.158 1104.29 118.49 1103.99 117.692C1103.68 116.895 1103.53 115.966 1103.53 114.907V105.768H1106.8V114.602C1106.8 115.908 1107.05 116.887 1107.56 117.54C1108.07 118.193 1108.86 118.519 1109.95 118.519C1111.04 118.519 1111.84 118.193 1112.35 117.54C1112.85 116.887 1113.11 115.915 1113.11 114.624V105.768H1116.37V114.907C1116.37 115.966 1116.22 116.895 1115.91 117.692C1115.62 118.49 1115.2 119.158 1114.63 119.694C1114.08 120.217 1113.4 120.608 1112.61 120.869C1111.82 121.131 1110.94 121.261 1109.95 121.261ZM1119.86 105.768H1123.13V121H1119.86V105.768ZM1125.74 113.558H1132.7V116.256H1125.74V113.558ZM1140.43 121.261C1139.47 121.261 1138.62 121.123 1137.88 120.848C1137.14 120.572 1136.52 120.144 1136.01 119.564C1135.5 118.969 1135.11 118.215 1134.83 117.301C1134.57 116.387 1134.44 115.299 1134.44 114.037V113.601C1134.44 112.151 1134.59 110.918 1134.9 109.902C1135.2 108.872 1135.63 108.031 1136.18 107.378C1136.73 106.725 1137.39 106.254 1138.14 105.964C1138.91 105.659 1139.74 105.507 1140.64 105.507C1142.05 105.507 1143.19 105.804 1144.06 106.399C1144.93 106.994 1145.46 107.98 1145.65 109.358H1142.6C1142.31 108.618 1141.62 108.248 1140.53 108.248C1140.11 108.248 1139.72 108.314 1139.36 108.444C1139.01 108.56 1138.7 108.785 1138.42 109.119C1138.16 109.438 1137.95 109.88 1137.79 110.446C1137.63 111.012 1137.53 111.737 1137.49 112.622C1137.68 112.332 1137.91 112.093 1138.18 111.904C1138.46 111.701 1138.76 111.542 1139.08 111.425C1139.41 111.295 1139.75 111.201 1140.1 111.143C1140.46 111.085 1140.82 111.056 1141.19 111.056C1142.72 111.056 1143.91 111.476 1144.73 112.318C1145.56 113.145 1145.97 114.32 1145.97 115.843V116.082C1145.97 116.851 1145.84 117.555 1145.56 118.193C1145.29 118.831 1144.9 119.382 1144.41 119.847C1143.93 120.296 1143.35 120.645 1142.67 120.891C1141.99 121.138 1141.24 121.261 1140.43 121.261ZM1140.21 118.519C1140.99 118.519 1141.6 118.302 1142.04 117.867C1142.49 117.417 1142.71 116.844 1142.71 116.147V115.93C1142.71 115.234 1142.49 114.668 1142.04 114.233C1141.6 113.797 1140.99 113.58 1140.21 113.58C1139.42 113.58 1138.81 113.797 1138.36 114.233C1137.92 114.668 1137.71 115.234 1137.71 115.93V116.147C1137.71 116.844 1137.92 117.417 1138.36 117.867C1138.81 118.302 1139.42 118.519 1140.21 118.519ZM1154.57 117.779H1147.39V115.516L1154.57 105.768H1157.83V115.081H1159.57V117.779H1157.83V121H1154.57V117.779ZM1154.57 115.081V109.402L1150.44 115.081H1154.57Z" fill="black"/>
<path d="M838.791 106.768H840.619L833.742 126.352H831.914L838.791 106.768ZM848.354 122.218C847.512 122.218 846.751 122.08 846.069 121.804C845.387 121.529 844.8 121.108 844.306 120.542C843.828 119.962 843.458 119.236 843.197 118.366C842.935 117.496 842.805 116.458 842.805 115.254V114.819C842.805 113.325 842.957 112.056 843.262 111.011C843.566 109.952 843.98 109.096 844.502 108.443C845.024 107.776 845.634 107.297 846.33 107.007C847.026 106.702 847.773 106.55 848.571 106.55C849.746 106.55 850.733 106.833 851.531 107.399C852.343 107.95 852.88 108.791 853.141 109.923H851.096C850.689 108.893 849.848 108.378 848.571 108.378C848.02 108.378 847.512 108.472 847.048 108.661C846.584 108.849 846.178 109.161 845.83 109.597C845.496 110.032 845.228 110.612 845.024 111.337C844.821 112.063 844.705 112.969 844.676 114.057C844.879 113.709 845.126 113.412 845.416 113.165C845.706 112.904 846.018 112.701 846.352 112.556C846.7 112.396 847.055 112.28 847.418 112.208C847.781 112.135 848.129 112.099 848.463 112.099C849.986 112.099 851.197 112.527 852.097 113.383C853.01 114.224 853.467 115.436 853.467 117.017V117.234C853.467 117.96 853.33 118.627 853.054 119.236C852.793 119.846 852.43 120.375 851.966 120.825C851.502 121.26 850.958 121.601 850.334 121.848C849.71 122.094 849.05 122.218 848.354 122.218ZM848.18 120.39C849.239 120.39 850.044 120.121 850.595 119.585C851.146 119.048 851.422 118.272 851.422 117.256V117.039C851.422 116.038 851.146 115.269 850.595 114.732C850.044 114.195 849.239 113.927 848.18 113.927C847.121 113.927 846.316 114.195 845.764 114.732C845.213 115.269 844.937 116.038 844.937 117.039V117.256C844.937 118.257 845.213 119.033 845.764 119.585C846.316 120.121 847.121 120.39 848.18 120.39ZM862.856 118.323H855.11V116.756L862.639 106.768H864.902V116.538H866.86V118.323H864.902V122H862.856V118.323ZM862.856 116.538V109.161L857.286 116.538H862.856Z" fill="black"/>
<path d="M850 223V278H1300V223" stroke="#696969"/>
<path d="M100 223V278H400V223" stroke="#696969"/>
</svg>
